<?xml version="1.0" encoding="utf-8"?>
<!DOCTYPE svg PUBLIC "-//W3C//DTD SVG 1.1//EN" "http://www.w3.org/Graphics/SVG/1.1/DTD/svg11.dtd">
<svg version="1.1" id="Calque_1_-_copie" xmlns="http://www.w3.org/2000/svg" xmlns:xlink="http://www.w3.org/1999/xlink" x="0px"
	 y="0px" width="112.12px" height="45px" viewBox="0 0 112.12 45" style="enable-background:new 0 0 112.12 45;"
	 xml:space="preserve">
<style type="text/css"><![CDATA[
	.st0{fill:#E6E6E6;}	.st1{fill:#FAC017;}	.st2{fill:#FAC019;}	.st3{fill:#FAC226;}	.st4{fill:#FBC842;}	.st5{fill:#FDD36F;}
	.st6{opacity:0.8;}	.st7{fill:#FEDC91;}	.st8{fill:#FEE4AC;}	.st9{fill:none;}	.st10{opacity:0.8;fill:#FEDC91;enable-background:new    ;}
]]></style>
<g id="Calque_7_1_">
	<g>
		<path class="st0" d="M48.27,17.74h-1.12v-1.21c0-0.28-0.08-0.58-0.32-0.8c-0.23-0.21-0.53-0.28-0.81-0.28s-0.58,0.07-0.8,0.28
			c-0.23,0.22-0.31,0.51-0.31,0.79c0,0,0,0,0,0.01l0,0v1.21c-0.25,0.02-0.5,0.09-0.71,0.28c-0.23,0.22-0.31,0.51-0.31,0.79
			c0,0,0,0,0,0.01c0,0.01,0,0.01,0,0.01c0,0.28,0.08,0.57,0.31,0.79c0.2,0.19,0.46,0.26,0.71,0.28v5.49v0.01
			c0,0.28,0.08,0.57,0.31,0.79c0.22,0.2,0.49,0.27,0.76,0.28l0,0h0.06c0.28,0,0.57-0.07,0.79-0.28c0.21-0.19,0.3-0.46,0.31-0.71l0,0
			V19.9h1.11c0.28,0,0.58-0.07,0.81-0.28s0.31-0.51,0.31-0.79v-0.01c0-0.01,0-0.02,0-0.02c0-0.28-0.08-0.57-0.31-0.79
			C48.85,17.8,48.55,17.74,48.27,17.74z M42.44,21.8c-0.56-0.51-1.27-0.77-2.05-0.77c0,0,0,0-0.02,0h-4.46
			c-0.23,0-0.36-0.06-0.52-0.19c-0.15-0.14-0.18-0.21-0.19-0.39c0.01-0.17,0.04-0.24,0.19-0.38c0.15-0.12,0.29-0.18,0.52-0.18h4.47
			c0.28,0,0.58-0.06,0.81-0.28c0.23-0.21,0.31-0.5,0.31-0.78v-0.02c0-0.01,0-0.01,0-0.01c0-0.28-0.09-0.57-0.32-0.79
			c-0.23-0.21-0.52-0.27-0.8-0.27H35.9c-0.78,0-1.49,0.26-2.06,0.78c-0.57,0.5-0.89,1.18-0.89,1.92c0,0,0,0.01,0,0.02v0.01
			c0,0.75,0.32,1.43,0.88,1.93s1.27,0.77,2.04,0.77l0,0h4.49c0.23,0,0.36,0.06,0.52,0.19c0.15,0.15,0.18,0.21,0.19,0.39
			c-0.01,0.17-0.04,0.23-0.19,0.38c-0.15,0.13-0.29,0.18-0.52,0.18h-6.3c-0.28,0-0.58,0.06-0.81,0.28
			c-0.23,0.21-0.31,0.51-0.31,0.79c0,0,0,0,0,0.01v0.01c0,0.28,0.09,0.57,0.32,0.79c0.23,0.21,0.52,0.28,0.81,0.27h6.31l0,0
			c0.75,0,1.44-0.25,2-0.74c0.6-0.49,0.93-1.19,0.93-1.96l0,0c0-0.02,0-0.02,0-0.02C43.33,22.98,43.01,22.3,42.44,21.8z M9.86,24.59
			c-0.23-0.21-0.53-0.28-0.81-0.28l0,0h-6.3c-0.23,0-0.37-0.06-0.53-0.19c-0.14-0.14-0.17-0.2-0.18-0.38v-3.29
			c0.01-0.18,0.04-0.24,0.19-0.38c0.16-0.13,0.29-0.18,0.52-0.18h4.47c0.28,0,0.58-0.06,0.81-0.28c0.23-0.21,0.31-0.51,0.31-0.79
			V18.8c0-0.01,0-0.01,0-0.01c0-0.28-0.08-0.57-0.31-0.79c-0.23-0.21-0.53-0.27-0.81-0.27H2.75l0,0c-0.78,0-1.5,0.26-2.06,0.77
			c-0.57,0.5-0.88,1.18-0.88,1.93c0,0,0,0.01,0,0.03v3.27v0.01c0,0.75,0.32,1.42,0.89,1.93c0.57,0.51,1.27,0.77,2.05,0.77h6.31
			c0.28,0,0.57-0.06,0.8-0.27s0.31-0.5,0.32-0.78v-0.02c0-0.01,0-0.01,0-0.01C10.17,25.1,10.09,24.81,9.86,24.59z M20.53,18.51
			c-0.56-0.51-1.27-0.77-2.05-0.77l0,0c0,0-0.01,0-0.02,0h-4.44c0,0-0.01,0-0.02,0c-0.78,0-1.5,0.26-2.06,0.77
			c-0.57,0.5-0.88,1.18-0.88,1.93c0,0,0,0.01,0,0.02v3.28v0.01c0,0.75,0.32,1.42,0.89,1.93c0.56,0.51,1.27,0.77,2.04,0.77l0,0h4.5
			c0.75,0,1.44-0.25,2-0.74c0.6-0.49,0.93-1.19,0.93-1.96l0,0v-3.31c0-0.01,0-0.01,0-0.01C21.42,19.69,21.1,19.01,20.53,18.51z
			 M19.18,23.74c-0.01,0.18-0.04,0.24-0.19,0.38c-0.16,0.13-0.29,0.18-0.52,0.18H14c-0.23,0-0.37-0.06-0.53-0.19
			c-0.15-0.14-0.17-0.2-0.18-0.38v-3.29c0.01-0.18,0.04-0.24,0.19-0.38c0.15-0.12,0.29-0.18,0.52-0.18h4.47
			c0.23,0.01,0.36,0.06,0.53,0.19c0.15,0.14,0.18,0.21,0.18,0.38V23.74L19.18,23.74z M30.88,18.51c-0.56-0.51-1.27-0.77-2.05-0.77
			l0,0h-0.01h-2.94c-0.4,0-0.78,0.07-1.14,0.2c-0.19-0.13-0.42-0.2-0.66-0.2c0,0-0.02,0-0.04,0c-0.28,0-0.57,0.06-0.79,0.27
			c-0.23,0.21-0.32,0.51-0.32,0.78c0,0,0,0.01,0,0.03v6.57v0.01c0,0.28,0.08,0.57,0.32,0.78c0.23,0.21,0.52,0.27,0.8,0.27
			c0.28,0,0.58-0.07,0.8-0.27c0.23-0.21,0.32-0.51,0.32-0.78v-4.95c0.01-0.18,0.04-0.24,0.19-0.38c0.16-0.13,0.29-0.18,0.52-0.19
			h2.94c0.23,0,0.37,0.06,0.52,0.19c0.15,0.14,0.18,0.2,0.19,0.38v4.93c0,0,0,0,0,0.01c0,0.28,0.09,0.57,0.32,0.78
			s0.52,0.28,0.81,0.28c0.28,0,0.57-0.07,0.8-0.27c0.23-0.21,0.31-0.5,0.32-0.78v-4.96c0-0.01,0-0.01,0-0.01
			C31.76,19.69,31.45,19.01,30.88,18.51z M88.88,15.21c-0.26-0.25-0.61-0.33-0.96-0.33c-0.35,0-0.69,0.08-0.95,0.33
			c-0.26,0.24-0.36,0.59-0.36,0.92c0,0,0,0.01,0,0.02l0,0c0,0.34,0.1,0.68,0.36,0.92c0.26,0.25,0.61,0.33,0.95,0.33
			c0.35,0,0.69-0.08,0.95-0.33c0.25-0.24,0.35-0.57,0.35-0.9l0,0v-0.04c0-0.01,0-0.02,0-0.02C89.24,15.79,89.14,15.45,88.88,15.21z
			 M100.23,18.51c-0.56-0.51-1.28-0.77-2.06-0.77l0,0c0,0-0.01,0-0.02,0h-4.44c0,0-0.01,0-0.02,0c-0.78,0-1.5,0.26-2.06,0.77
			c-0.57,0.5-0.89,1.18-0.88,1.93c0,0,0,0,0,0.01v3.29l0,0v0.01c0,0.75,0.32,1.43,0.89,1.93c0.56,0.51,1.28,0.77,2.05,0.77h4.5
			c0.75,0,1.44-0.25,2-0.74c0.6-0.5,0.93-1.19,0.93-1.96l0,0v-3.31c0-0.01,0-0.01,0-0.01C101.12,19.69,100.8,19.01,100.23,18.51z
			 M98.87,23.74c-0.01,0.18-0.04,0.24-0.19,0.38c-0.15,0.13-0.29,0.18-0.52,0.18h-4.47c-0.23,0-0.37-0.06-0.52-0.18
			c-0.15-0.14-0.18-0.2-0.19-0.38v-3.29c0.01-0.18,0.03-0.24,0.19-0.38c0.15-0.13,0.29-0.18,0.52-0.19h4.47
			c0.23,0.01,0.36,0.06,0.53,0.19c0.15,0.14,0.17,0.2,0.18,0.38V23.74L98.87,23.74L98.87,23.74z M59.74,18.51
			c-0.56-0.51-1.27-0.77-2.05-0.77l0,0h-0.01c-0.01,0-0.01,0-0.03,0H53.2c-0.78,0-1.5,0.26-2.06,0.77c-0.57,0.5-0.89,1.18-0.88,1.93
			c0,0,0,0.01,0,0.03v3.27v0.01c0,0.75,0.32,1.42,0.89,1.93c0.56,0.51,1.27,0.77,2.04,0.77h4.48c0.28,0,0.58-0.06,0.81-0.27
			c0.23-0.21,0.31-0.5,0.31-0.78v-0.01c0-0.01,0-0.01,0-0.01c0-0.28-0.08-0.58-0.31-0.79c-0.23-0.22-0.53-0.28-0.81-0.28H53.2
			c-0.23,0-0.37-0.06-0.53-0.19c-0.15-0.14-0.17-0.2-0.18-0.38v-0.57h5.39v-0.01c0.67-0.04,1.29-0.29,1.8-0.72
			c0.6-0.51,0.94-1.2,0.94-1.98l0,0c0-0.02,0-0.03,0-0.03C60.63,19.69,60.31,19.01,59.74,18.51z M58.2,20.84L58.2,20.84
			c-0.16,0.13-0.29,0.18-0.52,0.19h-5.17v-0.57c0.01-0.18,0.03-0.24,0.19-0.38c0.15-0.13,0.3-0.18,0.52-0.19h4.47
			c0.23,0,0.36,0.05,0.52,0.18c0.15,0.14,0.18,0.22,0.19,0.4C58.38,20.62,58.35,20.7,58.2,20.84z M89.05,18.8
			c0-0.28-0.09-0.57-0.31-0.78c-0.23-0.21-0.53-0.28-0.81-0.28s-0.58,0.07-0.81,0.28c-0.23,0.21-0.31,0.5-0.31,0.78
			c0,0,0,0.01,0,0.04v6.55v0.02c0,0.28,0.09,0.57,0.31,0.78c0.23,0.21,0.52,0.28,0.81,0.28l0,0c0.28,0,0.57-0.07,0.8-0.28
			c0.23-0.21,0.31-0.5,0.31-0.77l0,0v-6.59C89.05,18.81,89.05,18.8,89.05,18.8L89.05,18.8z M111.46,20.44
			c0-0.75-0.31-1.43-0.88-1.93c-0.56-0.51-1.27-0.77-2.05-0.77l0,0c0,0-0.01,0-0.02,0h-2.93c-0.4,0-0.78,0.07-1.14,0.2
			c-0.19-0.14-0.43-0.2-0.67-0.2h-0.01c-0.01,0-0.02,0-0.03,0c-0.27,0-0.56,0.06-0.79,0.28c-0.23,0.21-0.31,0.51-0.31,0.79l0,0
			c0,0,0,0.01,0,0.02v6.56c0,0.01,0,0.02,0,0.02c0,0.28,0.08,0.58,0.32,0.79c0.23,0.21,0.52,0.27,0.8,0.27
			c0.28,0,0.58-0.07,0.81-0.27c0.23-0.21,0.31-0.5,0.32-0.77l0,0v-4.96c0.01-0.18,0.04-0.24,0.19-0.38c0.16-0.13,0.3-0.18,0.52-0.19
			h2.95c0.23,0,0.37,0.06,0.52,0.19c0.15,0.14,0.18,0.2,0.19,0.38v4.93c0-0.01,0,0.01,0,0.02c0,0.27,0.09,0.57,0.31,0.78
			c0.23,0.21,0.53,0.28,0.81,0.28l0,0c0.28,0,0.57-0.07,0.8-0.27c0.23-0.21,0.31-0.5,0.31-0.77l0,0v-4.96
			C111.46,20.44,111.46,20.44,111.46,20.44z M85.43,18.02c-0.23-0.22-0.53-0.28-0.81-0.28h-1.11v-1.21v-0.01l0,0l0,0
			c0-0.28-0.08-0.58-0.31-0.79c-0.23-0.21-0.52-0.28-0.81-0.28c-0.28,0-0.58,0.06-0.81,0.28c-0.23,0.22-0.31,0.51-0.31,0.79
			c0,0,0,0.01,0,0.02v1.19c-0.25,0.02-0.5,0.09-0.7,0.28c-0.23,0.22-0.31,0.52-0.31,0.8c0,0,0,0.01,0,0.02
			c0,0.28,0.08,0.57,0.31,0.79c0.2,0.18,0.46,0.26,0.71,0.27v5.49l0,0v0.01c0,0.28,0.08,0.58,0.31,0.79
			c0.23,0.21,0.53,0.28,0.81,0.28l0,0c0.28,0,0.57-0.07,0.8-0.28c0.22-0.21,0.31-0.5,0.31-0.77l0,0v-5.52h1.11
			c0.28,0,0.58-0.07,0.81-0.28s0.31-0.5,0.31-0.77l0,0v-0.02c0-0.02,0-0.02,0-0.02C85.74,18.52,85.66,18.23,85.43,18.02z
			 M64.07,14.74c0-0.28-0.08-0.58-0.31-0.79c-0.23-0.22-0.53-0.29-0.81-0.29c-0.28,0-0.58,0.07-0.81,0.28
			c-0.23,0.22-0.31,0.51-0.31,0.8v10.64c0,0.28,0.08,0.58,0.31,0.79c0.22,0.21,0.5,0.28,0.78,0.28l0,0h0.02h0.01h0.01l0,0
			c0.28,0,0.58-0.07,0.8-0.28c0.23-0.22,0.31-0.51,0.31-0.79l0,0V14.74C64.07,14.74,64.07,14.74,64.07,14.74z M78.49,18.51
			c-0.56-0.51-1.28-0.77-2.06-0.77l0,0c0,0-0.01,0-0.02,0h-4.46c-0.28,0-0.57,0.06-0.8,0.28c-0.23,0.21-0.32,0.51-0.32,0.78v0.02
			c0,0.28,0.08,0.57,0.31,0.79c0.23,0.21,0.53,0.28,0.81,0.28h4.47c0.23,0.01,0.36,0.06,0.52,0.19c0.15,0.14,0.17,0.2,0.19,0.38
			v0.56h-5.17c0,0-0.01,0-0.02,0c-0.78,0-1.49,0.26-2.06,0.78C69.32,22.3,69,22.98,69,23.73c0,0,0,0,0,0.01v0.01
			c0,0.75,0.32,1.43,0.89,1.93c0.56,0.5,1.26,0.77,2.03,0.77l0,0h4.49l0,0c0.4,0,0.78-0.07,1.13-0.21c0.19,0.14,0.43,0.21,0.66,0.21
			c0.01,0,0.02,0,0.03,0h0.01c0.28,0,0.57-0.07,0.79-0.27c0.22-0.2,0.3-0.47,0.31-0.73l0,0v-0.04c0-0.01,0-0.01,0-0.02v-4.94
			c0-0.01,0-0.01,0-0.01C79.38,19.69,79.06,19.01,78.49,18.51z M77.14,23.74c-0.01,0.18-0.04,0.24-0.19,0.38
			c-0.16,0.13-0.3,0.18-0.52,0.19h-4.47c-0.23,0-0.37-0.06-0.52-0.18c-0.15-0.14-0.17-0.21-0.18-0.38c0.01-0.17,0.04-0.24,0.19-0.39
			c0.16-0.13,0.29-0.18,0.52-0.19h5.18L77.14,23.74L77.14,23.74z M67.81,14.73c0-0.28-0.09-0.57-0.31-0.78
			c-0.23-0.21-0.53-0.28-0.81-0.28s-0.58,0.07-0.81,0.28c-0.23,0.22-0.31,0.52-0.31,0.8v10.63c0,0.28,0.08,0.58,0.31,0.8
			c0.22,0.21,0.51,0.28,0.78,0.28l0,0h0.04c0.28,0,0.57-0.07,0.8-0.28c0.23-0.21,0.31-0.5,0.31-0.78v-0.02l0,0V14.76
			C67.81,14.74,67.81,14.73,67.81,14.73z"/>
		<path class="st0" d="M42.44,21.8c-0.56-0.51-1.27-0.77-2.05-0.77c0,0,0,0-0.02,0h-4.46c-0.23,0-0.36-0.06-0.52-0.19
			c-0.15-0.14-0.18-0.21-0.19-0.39c0.01-0.17,0.04-0.24,0.19-0.38c0.15-0.12,0.29-0.18,0.52-0.18h4.47c0.28,0,0.58-0.06,0.81-0.28
			c0.23-0.21,0.31-0.5,0.31-0.78v-0.02c0-0.01,0-0.01,0-0.01c0-0.28-0.09-0.57-0.32-0.79c-0.23-0.21-0.52-0.27-0.8-0.27H35.9
			c-0.78,0-1.49,0.26-2.06,0.78c-0.57,0.5-0.89,1.18-0.89,1.92c0,0,0,0.01,0,0.02v0.01c0,0.75,0.32,1.43,0.88,1.93
			s1.27,0.77,2.04,0.77l0,0h4.49c0.23,0,0.36,0.06,0.52,0.19c0.15,0.15,0.18,0.21,0.19,0.39c-0.01,0.17-0.04,0.23-0.19,0.38
			c-0.15,0.13-0.29,0.18-0.52,0.18h-6.3c-0.28,0-0.58,0.06-0.81,0.28c-0.23,0.21-0.31,0.51-0.31,0.79c0,0,0,0,0,0.01v0.01
			c0,0.28,0.09,0.57,0.32,0.79c0.23,0.21,0.52,0.28,0.81,0.27h6.31l0,0c0.75,0,1.44-0.25,2-0.74c0.6-0.49,0.93-1.19,0.93-1.96l0,0
			c0-0.02,0-0.02,0-0.02C43.33,22.98,43.01,22.3,42.44,21.8z"/>
		<path class="st0" d="M48.27,17.74h-1.12v-1.21c0-0.28-0.08-0.58-0.32-0.8c-0.23-0.21-0.53-0.28-0.81-0.28s-0.58,0.07-0.8,0.28
			c-0.23,0.22-0.31,0.51-0.31,0.79c0,0,0,0,0,0.01l0,0v1.21c-0.25,0.02-0.5,0.09-0.71,0.28c-0.23,0.22-0.31,0.51-0.31,0.79
			c0,0,0,0,0,0.01c0,0.01,0,0.01,0,0.01c0,0.28,0.08,0.57,0.31,0.79c0.2,0.19,0.46,0.26,0.71,0.28v5.49v0.01
			c0,0.28,0.08,0.57,0.31,0.79c0.22,0.2,0.49,0.27,0.76,0.28l0,0h0.06c0.28,0,0.57-0.07,0.79-0.28c0.21-0.19,0.3-0.46,0.31-0.71l0,0
			V19.9h1.11c0.28,0,0.58-0.07,0.81-0.28s0.31-0.51,0.31-0.79v-0.01c0-0.01,0-0.02,0-0.02c0-0.28-0.08-0.57-0.31-0.79
			C48.85,17.8,48.55,17.74,48.27,17.74z"/>
		<path class="st0" d="M3.34,26.46c0.5-0.79,1.13-1.51,1.86-2.15H2.75c-0.23,0-0.37-0.06-0.53-0.19c-0.14-0.14-0.17-0.2-0.18-0.38
			v-3.29c0.01-0.18,0.04-0.24,0.19-0.38c0.16-0.13,0.29-0.18,0.52-0.18h4.47c0.28,0,0.58-0.06,0.81-0.28
			c0.23-0.21,0.31-0.51,0.31-0.79V18.8c0-0.01,0-0.01,0-0.01c0-0.28-0.08-0.57-0.31-0.79c-0.23-0.21-0.53-0.27-0.81-0.27H2.75l0,0
			c-0.78,0-1.5,0.26-2.06,0.77c-0.57,0.5-0.88,1.18-0.88,1.93c0,0,0,0.01,0,0.03v3.27v0.01c0,0.75,0.32,1.42,0.89,1.93
			c0.57,0.51,1.27,0.77,2.05,0.77L3.34,26.46L3.34,26.46z"/>
		<path class="st0" d="M59.74,18.51c-0.56-0.51-1.27-0.77-2.05-0.77l0,0h-0.01c-0.01,0-0.01,0-0.03,0H53.2
			c-0.78,0-1.5,0.26-2.06,0.77c-0.57,0.5-0.89,1.18-0.88,1.93c0,0,0,0.01,0,0.03v3.27v0.01c0,0.75,0.32,1.42,0.89,1.93
			c0.56,0.51,1.27,0.77,2.04,0.77h4.48c0.28,0,0.58-0.06,0.81-0.27c0.23-0.21,0.31-0.5,0.31-0.78v-0.01c0-0.01,0-0.01,0-0.01
			c0-0.28-0.08-0.58-0.31-0.79c-0.23-0.22-0.53-0.28-0.81-0.28H53.2c-0.23,0-0.37-0.06-0.53-0.19c-0.15-0.14-0.17-0.2-0.18-0.38
			v-0.57h5.39v-0.01c0.67-0.04,1.29-0.29,1.8-0.72c0.6-0.51,0.94-1.2,0.94-1.98l0,0c0-0.02,0-0.03,0-0.03
			C60.63,19.69,60.31,19.01,59.74,18.51z M58.2,20.84c-0.16,0.13-0.29,0.18-0.52,0.19h-5.17v-0.57c0.01-0.18,0.03-0.24,0.19-0.38
			c0.15-0.13,0.3-0.18,0.52-0.19h4.47c0.23,0,0.36,0.05,0.52,0.18c0.15,0.14,0.18,0.22,0.19,0.4C58.38,20.62,58.35,20.7,58.2,20.84z
			"/>
		<path class="st0" d="M86.81,22.41c0.01,0,0.01-0.01,0.02-0.01c0.5-0.29,1.1-0.37,1.65-0.22c0.2,0.06,0.39,0.14,0.57,0.25V18.9
			c0-0.01,0-0.02,0-0.02l0,0c0-0.28-0.09-0.57-0.31-0.78c-0.23-0.21-0.53-0.28-0.81-0.28s-0.58,0.07-0.81,0.28
			c-0.23,0.21-0.31,0.5-0.31,0.78c0,0,0,0.02,0,0.04V22.41L86.81,22.41z"/>
		<path class="st0" d="M85.74,18.8c0-0.28-0.08-0.57-0.31-0.78c-0.23-0.22-0.53-0.28-0.81-0.28h-1.11v-1.21v-0.01l0,0l0,0
			c0-0.28-0.08-0.58-0.31-0.79c-0.23-0.21-0.53-0.28-0.81-0.28c-0.28,0-0.58,0.06-0.81,0.28c-0.23,0.22-0.32,0.51-0.32,0.79
			c0,0,0,0.01,0,0.02v1.19c-0.25,0.02-0.5,0.09-0.7,0.28c-0.23,0.22-0.31,0.52-0.31,0.8c0,0,0,0.01,0,0.02
			c0,0.28,0.08,0.57,0.31,0.79c0.2,0.18,0.46,0.26,0.7,0.27v4.18c0.28-0.14,0.6-0.22,0.89-0.19h0.01c0.39,0,0.75,0.1,1.08,0.29
			c0.09,0.07,0.17,0.13,0.26,0.2V19.9h1.11c0.28,0,0.58-0.07,0.81-0.28c0.23-0.21,0.31-0.5,0.31-0.77l0,0v-0.02
			C85.74,18.8,85.74,18.8,85.74,18.8z"/>
		<path class="st0" d="M64.07,14.74c0-0.28-0.08-0.58-0.31-0.79c-0.23-0.22-0.53-0.29-0.81-0.29c-0.28,0-0.58,0.07-0.81,0.28
			c-0.23,0.22-0.31,0.51-0.31,0.8v10.64c0,0.28,0.08,0.58,0.31,0.79c0.22,0.21,0.5,0.28,0.78,0.28l0,0h0.02h0.01h0.01l0,0
			c0.28,0,0.58-0.07,0.8-0.28c0.23-0.22,0.31-0.51,0.31-0.79l0,0V14.74C64.07,14.74,64.07,14.74,64.07,14.74z"/>
		<path class="st0" d="M67.81,14.73c0-0.28-0.09-0.57-0.31-0.78c-0.23-0.21-0.53-0.28-0.81-0.28s-0.58,0.07-0.81,0.28
			c-0.23,0.22-0.31,0.52-0.31,0.8v10.63c0,0.28,0.08,0.58,0.31,0.8c0.22,0.21,0.51,0.28,0.78,0.28l0,0h0.04
			c0.28,0,0.57-0.07,0.8-0.28c0.23-0.21,0.31-0.5,0.31-0.78v-0.02l0,0V14.76C67.81,14.74,67.81,14.73,67.81,14.73z"/>
		<path class="st0" d="M78.49,18.51c-0.56-0.51-1.28-0.77-2.06-0.77l0,0c0,0-0.01,0-0.02,0h-4.46c-0.28,0-0.57,0.06-0.8,0.28
			c-0.23,0.21-0.32,0.51-0.32,0.78v0.02c0,0.28,0.08,0.57,0.31,0.79c0.23,0.21,0.53,0.28,0.81,0.28h4.47
			c0.23,0.01,0.36,0.06,0.52,0.19c0.15,0.14,0.17,0.2,0.19,0.38v0.56h-5.17c0,0-0.01,0-0.02,0c-0.78,0-1.49,0.26-2.06,0.78
			C69.32,22.3,69,22.98,69,23.73c0,0,0,0,0,0.01v0.01c0,0.75,0.32,1.43,0.89,1.93c0.56,0.5,1.26,0.77,2.03,0.77l0,0h4.49l0,0
			c0.4,0,0.78-0.07,1.13-0.21c0.19,0.14,0.43,0.21,0.66,0.21c0.01,0,0.02,0,0.03,0h0.01c0.28,0,0.57-0.07,0.79-0.27
			c0.22-0.2,0.3-0.47,0.31-0.73l0,0v-0.04c0-0.01,0-0.01,0-0.02v-4.94c0-0.01,0-0.01,0-0.01C79.38,19.69,79.06,19.01,78.49,18.51z
			 M77.14,23.74c-0.01,0.18-0.04,0.24-0.19,0.38c-0.16,0.13-0.3,0.18-0.52,0.19h-4.47c-0.23,0-0.37-0.06-0.52-0.18
			c-0.15-0.14-0.17-0.21-0.18-0.38c0.01-0.17,0.04-0.24,0.19-0.39c0.16-0.13,0.29-0.18,0.52-0.19h5.18L77.14,23.74L77.14,23.74z"/>
		<path class="st0" d="M36.01,35.21L36.01,35.21c0.33,0.31,0.65,0.61,0.97,0.91l0.31-0.33c-0.32-0.29-0.64-0.6-0.96-0.91
			L36.01,35.21z"/>
		<path class="st0" d="M32.35,4.2l0.04,0.45c0.43-0.04,0.87-0.08,1.31-0.11l-0.03-0.45C33.22,4.12,32.78,4.16,32.35,4.2z"/>
		<path class="st0" d="M34.11,33.37L34.11,33.37c0.32,0.31,0.64,0.62,0.95,0.92l0.31-0.32c-0.31-0.3-0.63-0.61-0.95-0.92
			L34.11,33.37z"/>
		<path class="st0" d="M28.64,27.59L28.64,27.59c0.29,0.33,0.58,0.67,0.88,1l0.34-0.3c-0.29-0.33-0.58-0.66-0.87-0.99L28.64,27.59z"
			/>
		<path class="st0" d="M32.23,31.49c0.31,0.32,0.62,0.63,0.94,0.94l0.32-0.32c-0.31-0.31-0.62-0.62-0.93-0.94L32.23,31.49z"/>
		<path class="st0" d="M38.98,3.97L38.98,3.97c-0.41-0.01-0.83-0.01-1.23-0.01h-0.09v0.45c0.03,0,0.06,0,0.09,0
			c0.4,0,0.81,0,1.23,0.01V3.97z"/>
		<path class="st0" d="M30.4,29.57L30.4,29.57c0.3,0.33,0.6,0.65,0.91,0.97l0.33-0.31c-0.3-0.32-0.6-0.64-0.9-0.97L30.4,29.57z"/>
		<path class="st0" d="M37.96,37.01c0.33,0.3,0.67,0.59,1,0.88l0.29-0.34c-0.33-0.28-0.66-0.57-0.99-0.87L37.96,37.01z"/>
		<path class="st0" d="M44.27,41.88c0.38,0.23,0.77,0.46,1.16,0.67l0.22-0.4c-0.38-0.21-0.76-0.42-1.14-0.66L44.27,41.88z"/>
		<path class="st0" d="M49.57,4.59c-0.44-0.04-0.88-0.08-1.32-0.11l-0.04,0.45c0.44,0.03,0.88,0.07,1.32,0.11L49.57,4.59z"/>
		<path class="st0" d="M46.62,43.15c0.41,0.19,0.81,0.37,1.23,0.53l0.17-0.42c-0.4-0.16-0.8-0.33-1.2-0.52L46.62,43.15z"/>
		<path class="st0" d="M39.97,38.75c0.35,0.29,0.69,0.56,1.03,0.83l0.28-0.35c-0.34-0.27-0.68-0.54-1.02-0.83L39.97,38.75z"/>
		<path class="st0" d="M42.96,4.11l-0.02,0.45c0.44,0.02,0.88,0.05,1.32,0.08l0.03-0.45C43.84,4.16,43.4,4.13,42.96,4.11z"/>
		<path class="st0" d="M40.3,4.45c0.44,0.01,0.88,0.03,1.32,0.05l0.02-0.45C41.19,4.03,40.75,4.01,40.31,4L40.3,4.45z"/>
		<path class="st0" d="M36.34,4.42l-0.01-0.45C35.88,3.98,35.44,4,35,4.01l0.02,0.45C35.45,4.45,35.89,4.43,36.34,4.42z"/>
		<path class="st0" d="M46.93,4.38L46.93,4.38c-0.44-0.04-0.88-0.07-1.32-0.1l-0.03,0.45c0.44,0.03,0.88,0.06,1.32,0.1L46.93,4.38z"
			/>
		<path class="st0" d="M21.66,9.04c0.03-0.04,0.07-0.08,0.1-0.13l-0.35-0.29l0,0c-0.04,0.05-0.07,0.09-0.11,0.14
			c-0.29,0.37-0.52,0.77-0.69,1.2l0.42,0.17C21.19,9.73,21.4,9.37,21.66,9.04z"/>
		<path class="st0" d="M26,6.04l-0.16-0.42l0,0C25.41,5.78,25,5.96,24.61,6.16l0.2,0.4C25.19,6.37,25.59,6.2,26,6.04z"/>
		<path class="st0" d="M87.19,14.28c-0.23-0.32-0.49-0.63-0.79-0.94l-0.33,0.31c0.29,0.31,0.55,0.61,0.78,0.92
			C86.95,14.47,87.06,14.37,87.19,14.28z"/>
		<path class="st0" d="M85.41,12.42c-0.33-0.28-0.69-0.55-1.06-0.81l-0.26,0.37c0.37,0.26,0.72,0.52,1.04,0.79L85.41,12.42z"/>
		<path class="st0" d="M49.1,44.13L49.1,44.13c0.43,0.13,0.85,0.25,1.29,0.36l0.1-0.44c-0.42-0.1-0.84-0.22-1.26-0.35L49.1,44.13z"
			/>
		<path class="st0" d="M20.69,12.08c0-0.25,0.01-0.5,0.04-0.73l-0.45-0.05l0,0c-0.03,0.26-0.04,0.52-0.04,0.79
			c0,0.19,0.01,0.38,0.02,0.58l0.45-0.03C20.7,12.44,20.69,12.26,20.69,12.08z"/>
		<path class="st0" d="M23.44,6.83c-0.38,0.25-0.74,0.52-1.08,0.82l0.3,0.34c0.32-0.28,0.66-0.54,1.03-0.78L23.44,6.83L23.44,6.83z"
			/>
		<path class="st0" d="M26.94,25.54c0.27,0.34,0.56,0.69,0.84,1.03l0.35-0.29c-0.28-0.34-0.56-0.68-0.83-1.02L26.94,25.54z"/>
		<path class="st0" d="M20.46,14c0.09,0.42,0.21,0.86,0.35,1.3l0.43-0.14c-0.14-0.43-0.25-0.85-0.34-1.25L20.46,14z"/>
		<path class="st0" d="M21.28,16.55c0.17,0.4,0.35,0.81,0.55,1.22l0.41-0.2c-0.2-0.41-0.38-0.8-0.54-1.19L21.28,16.55z"/>
		<path class="st0" d="M42.06,40.39L42.06,40.39c0.36,0.27,0.73,0.52,1.09,0.77l0.25-0.37c-0.36-0.24-0.72-0.49-1.07-0.76
			L42.06,40.39z"/>
		<path class="st0" d="M77.92,34.01l0.29,0.34l0,0c0.34-0.29,0.67-0.58,1-0.88l-0.3-0.33C78.59,33.43,78.26,33.72,77.92,34.01z"/>
		<path class="st0" d="M76.91,34.86c-0.34,0.27-0.68,0.55-1.03,0.82l0.28,0.36c0.35-0.27,0.7-0.55,1.04-0.83L76.91,34.86z"/>
		<path class="st0" d="M80.85,9.66c-0.39-0.18-0.8-0.35-1.23-0.52l-0.17,0.42c0.42,0.17,0.82,0.34,1.21,0.52L80.85,9.66z"/>
		<path class="st0" d="M73.76,37.24l0.26,0.37c0.37-0.26,0.73-0.51,1.08-0.78l-0.27-0.36C74.47,36.73,74.12,36.99,73.76,37.24z"/>
		<path class="st0" d="M71.88,7.37c0.44,0.09,0.87,0.18,1.29,0.27l0.1-0.44c-0.42-0.1-0.86-0.19-1.3-0.28L71.88,7.37z"/>
		<path class="st0" d="M71.56,38.7l0.24,0.38c0.38-0.24,0.75-0.48,1.12-0.72l-0.25-0.38C72.3,38.23,71.93,38.47,71.56,38.7z"/>
		<path class="st0" d="M74.45,7.95c0.44,0.11,0.86,0.22,1.27,0.34l0.12-0.43C75.42,7.74,75,7.62,74.56,7.51L74.45,7.95z"/>
		<path class="st0" d="M81.84,10.64c0.4,0.21,0.78,0.42,1.15,0.64l0.23-0.39c-0.37-0.22-0.76-0.44-1.17-0.65L81.84,10.64z"/>
		<path class="st0" d="M54.85,5.08L54.85,5.08C54.41,5.04,53.97,5,53.53,4.95L53.49,5.4c0.44,0.04,0.88,0.08,1.32,0.12L54.85,5.08z"
			/>
		<path class="st0" d="M56.99,44.44l0.05,0.45c0.44-0.05,0.88-0.11,1.33-0.19l-0.08-0.44C57.85,44.33,57.42,44.4,56.99,44.44z"/>
		<path class="st0" d="M57.48,5.32c-0.44-0.04-0.88-0.08-1.32-0.12l-0.04,0.45c0.44,0.04,0.88,0.08,1.32,0.12L57.48,5.32z"/>
		<path class="st0" d="M60.12,5.54c-0.44-0.04-0.88-0.07-1.32-0.11l-0.04,0.45c0.44,0.04,0.88,0.08,1.32,0.11L60.12,5.54z"/>
		<path class="st0" d="M69.29,40.05l0.22,0.39l0,0c0.39-0.22,0.77-0.44,1.15-0.67l-0.23-0.39C70.06,39.62,69.68,39.84,69.29,40.05z"
			/>
		<path class="st0" d="M51.71,44.75c0.44,0.07,0.88,0.13,1.33,0.17l0.04-0.45c-0.44-0.04-0.87-0.09-1.3-0.16L51.71,44.75z"/>
		<path class="st0" d="M52.21,4.83c-0.44-0.04-0.88-0.08-1.32-0.12l-0.04,0.45c0.44,0.04,0.88,0.08,1.32,0.12L52.21,4.83z"/>
		<path class="st0" d="M59.58,44l0.1,0.44l0,0c0.43-0.1,0.86-0.21,1.29-0.33l-0.12-0.44C60.42,43.8,60,43.9,59.58,44z"/>
		<path class="st0" d="M54.86,44.55c-0.16,0-0.32,0-0.48-0.01L54.37,45c0.16,0,0.33,0,0.49,0c0.28,0,0.56,0,0.85-0.02l-0.02-0.45
			C55.41,44.54,55.13,44.55,54.86,44.55z"/>
		<path class="st0" d="M68.04,6.27c-0.43-0.06-0.87-0.12-1.32-0.17l-0.06,0.45c0.44,0.05,0.88,0.11,1.31,0.17L68.04,6.27z"/>
		<path class="st0" d="M66.97,41.28l0.2,0.4c0.4-0.19,0.79-0.4,1.19-0.6l-0.21-0.4C67.75,40.89,67.36,41.09,66.97,41.28z"/>
		<path class="st0" d="M62.72,6.18l0.03-0.45c-0.11-0.01-0.22-0.01-0.32-0.02c-0.33-0.02-0.66-0.05-1-0.07L61.4,6.09
			c0.33,0.02,0.67,0.05,1,0.07C62.51,6.17,62.62,6.17,62.72,6.18z"/>
		<path class="st0" d="M70.66,6.68c-0.43-0.08-0.87-0.15-1.31-0.22l-0.07,0.45c0.44,0.07,0.88,0.14,1.3,0.22L70.66,6.68z"/>
		<path class="st0" d="M64.57,42.37l0.17,0.42l0,0c0.4-0.17,0.81-0.35,1.22-0.53l-0.19-0.41C65.37,42.03,64.97,42.2,64.57,42.37z"/>
		<path class="st0" d="M62.1,43.29l0.14,0.43c0.42-0.14,0.84-0.28,1.26-0.44l-0.16-0.42C62.93,43.01,62.51,43.15,62.1,43.29z"/>
		<path class="st0" d="M65.4,5.96c-0.44-0.04-0.88-0.08-1.32-0.12l-0.04,0.45c0.45,0.04,0.88,0.08,1.31,0.12L65.4,5.96z"/>
		<path class="st0" d="M51.71,44.75L51.71,44.75L51.71,44.75z"/>
		<polygon class="st0" points="85.41,12.42 85.41,12.42 85.41,12.42 		"/>
		<path class="st0" d="M68.04,6.27L68.04,6.27L68.04,6.27z"/>
		<polygon class="st0" points="52.21,4.83 52.21,4.83 52.21,4.83 		"/>
		<polygon class="st0" points="41.63,4.05 41.63,4.05 41.64,4.05 		"/>
		<polygon class="st0" points="36.33,3.97 36.33,3.97 36.33,3.97 		"/>
		<g>
			<g>
				<g>
					<g class="st6">
						<line class="st9" x1="52.17" y1="9.62" x2="52.17" y2="9.62"/>
						<path class="st7" d="M52.17,9.62c1.06-0.09,1.85-0.11,2.4-0.07l1.82-0.27C55.1,9.51,53.81,9.75,52.52,10
							c-3.47,0.7-7.37,1.59-11.08,2.55c-3.71,0.95-7.24,1.97-10,2.8c1.62-0.52,3.56-1.12,5.42-1.67l1.81-0.52
							c1.17-0.33,2.23-0.62,3.08-0.84l-0.5,0.15c1.26-0.37,2.52-0.72,3.79-1.07c1.27-0.31,2.55-0.62,3.83-0.91
							c-1.28,0.29-2.56,0.6-3.83,0.91C47.41,10.77,49.79,10.17,52.17,9.62"/>
						<line class="st9" x1="45.04" y1="11.4" x2="45.04" y2="11.4"/>
						<line class="st9" x1="31.45" y1="15.35" x2="31.45" y2="15.35"/>
						<line class="st9" x1="56.39" y1="9.28" x2="56.39" y2="9.28"/>
						<path class="st7" d="M65.44,30.67l-0.16,0.03l0.9-0.23c3.57-0.83,7.13-1.74,10.4-2.69c3.98-1.14,8.11-2.42,12.36-3.92
							c0.85-0.3,1.7-0.61,2.56-0.93c-1.7,0.67-3.41,1.31-5.14,1.92l-0.51,0.17c-3.69,1.21-7.07,2.23-10.38,3.15
							C72.14,29.09,68.89,29.91,65.44,30.67"/>
						<line class="st9" x1="86.35" y1="24.85" x2="86.35" y2="24.85"/>
						<line class="st9" x1="90.91" y1="22.85" x2="90.91" y2="22.85"/>
						<path class="st2" d="M90.91,22.85c3.88-1.5,7.97-3.23,11.77-5.37l0.03,0.05c-2.1,1.18-4.44,2.32-6.87,3.35
							c-0.67,0.28-1.34,0.56-2.02,0.83l0.48-0.18C93.18,21.99,92.04,22.43,90.91,22.85"/>
						<path class="st2" d="M99.54,19.27c1.16-0.57,2.3-1.17,3.42-1.82l0.45-0.24C102.15,17.94,100.86,18.63,99.54,19.27"/>
						<polyline class="st2" points="64.62,31.97 63.59,32.17 64.88,31.9 64.62,31.97 						"/>
						<line class="st9" x1="63.59" y1="32.17" x2="63.59" y2="32.17"/>
						<line class="st9" x1="103.29" y1="19.67" x2="103.29" y2="19.67"/>
						<path class="st2" d="M103.29,19.67c-0.55,0.29-1.11,0.57-1.67,0.84C102.18,20.24,102.73,19.96,103.29,19.67"/>
						<polyline class="st2" points="101.62,20.51 101.38,20.63 101.62,20.51 						"/>
						<line class="st9" x1="102.06" y1="6.08" x2="102.06" y2="6.08"/>
						<path class="st2" d="M102.06,6.08c0.42,0.08,0.84,0.16,1.26,0.25C102.91,6.24,102.48,6.16,102.06,6.08"/>
						<line class="st9" x1="109.86" y1="14.95" x2="109.86" y2="14.95"/>
						<path class="st2" d="M109.86,14.95c-0.14,0.13-0.27,0.25-0.41,0.37C109.58,15.21,109.72,15.08,109.86,14.95"/>
						<path class="st2" d="M15.68,34.63c-0.95-0.16-1.89-0.34-2.81-0.57C13.79,34.29,14.73,34.47,15.68,34.63"/>
						<line class="st9" x1="63.59" y1="32.17" x2="63.59" y2="32.17"/>
						<polyline class="st2" points="63.59,32.17 61.51,32.54 63.59,32.17 						"/>
						<line class="st9" x1="105.29" y1="6.87" x2="105.29" y2="6.87"/>
						<line class="st9" x1="105.29" y1="6.87" x2="105.29" y2="6.87"/>
						<path class="st2" d="M105.29,6.87c0.57,0.16,1.12,0.33,1.66,0.53c-0.46-0.17-0.94-0.33-1.42-0.46L105.29,6.87"/>
						<path class="st2" d="M99.76,5.75c0.77,0.09,1.54,0.2,2.3,0.33c-0.51-0.08-1.02-0.16-1.53-0.23L99.76,5.75"/>
						<line class="st9" x1="102.06" y1="6.08" x2="102.06" y2="6.08"/>
						<path class="st2" d="M109.53,12.59c0.5-0.67,0.85-1.41,0.86-2.02c0.01-0.11,0-0.22-0.01-0.33c0.01,0.11,0.02,0.21,0.01,0.33
							c0.01-0.11,0-0.22-0.01-0.33h0.01c0.06,0.35,0,0.73-0.15,1.13C110.08,11.78,109.83,12.19,109.53,12.59"/>
						<line class="st9" x1="102.05" y1="6.15" x2="102.05" y2="6.15"/>
						<line class="st9" x1="102.05" y1="6.15" x2="102.05" y2="6.15"/>
						<path class="st2" d="M102.05,6.15c1.1,0.19,2.19,0.42,3.24,0.72c0.57,0.16,1.12,0.33,1.66,0.53
							c-0.46-0.17-0.94-0.33-1.42-0.46c0.78,0.23,1.56,0.5,2.3,0.85c0.73,0.34,1.43,0.77,1.91,1.28c0.24,0.25,0.42,0.52,0.52,0.79
							c0.02,0.03,0.02,0.07,0.04,0.1c0.01,0.03,0.01,0.05,0.02,0.07l0.02,0.08l0.01,0.04v0.02l0,0c0-0.01,0.01,0.03-0.01-0.03l0,0
							v0.01c0,0.04,0.01,0.07,0.01,0.11c0.02,0.14,0.01,0.29-0.01,0.44c-0.07,0.61-0.48,1.33-1.02,1.99
							c-0.09,0.12-0.18,0.25-0.28,0.38c0.53-0.58,0.97-1.21,1.19-1.82c0.11-0.3,0.16-0.59,0.15-0.86c0-0.07-0.01-0.13-0.02-0.2
							v-0.02v-0.01l0,0c0.01,0.06,0,0.02,0.01,0.03l0,0l0,0v-0.01l-0.02-0.08c-0.01-0.07-0.02-0.08-0.03-0.1
							c-0.03-0.11-0.09-0.25-0.16-0.37c0.04,0.08,0.08,0.15,0.11,0.23c0.02,0.04,0.03,0.08,0.04,0.11c0.01,0.04,0.02,0.04,0.03,0.1
							l0.02,0.1l0.01,0.02v0.01l0,0c0-0.01,0.01,0.03-0.01-0.03l0,0l0,0l0,0v0.01v0.03c0.01,0.04,0.02,0.08,0.02,0.12
							c0.01,0.08,0.01,0.16,0.01,0.25c0.01-0.11,0-0.22-0.01-0.33l-0.01-0.08l-0.02-0.1c-0.02-0.07-0.02-0.07-0.04-0.14
							c-0.04-0.1-0.08-0.21-0.14-0.31c0.06,0.1,0.1,0.2,0.14,0.31c0.02,0.07,0.02,0.07,0.04,0.14l0.01,0.06l0.01,0.03v0.02v0.01l0,0
							l0,0l0,0c-0.01-0.06,0-0.02-0.01-0.03l0,0l0,0l0.01,0.08l-0.01-0.08l-0.02-0.08l-0.01-0.04l-0.01-0.02
							c-0.01-0.04-0.03-0.11-0.06-0.17c-0.05-0.13-0.12-0.26-0.2-0.39c-0.16-0.26-0.39-0.5-0.67-0.73
							c-0.55-0.46-1.26-0.84-2.01-1.15c0.6,0.26,1.16,0.56,1.65,0.9c-0.61-0.43-1.34-0.79-2.11-1.08c0.15,0.05,0.31,0.11,0.46,0.17
							c-0.67-0.29-1.38-0.53-2.11-0.74C104.24,6.55,103.15,6.33,102.05,6.15 M106.95,7.4c-0.16-0.06-0.31-0.11-0.47-0.16
							C106.64,7.29,106.8,7.34,106.95,7.4 M110.17,9.62L110.17,9.62"/>
						<line class="st9" x1="105.53" y1="6.94" x2="105.53" y2="6.94"/>
						<path class="st1" d="M105.53,6.94c0.48,0.14,0.96,0.29,1.42,0.46C106.49,7.23,106.01,7.08,105.53,6.94"/>
						<line class="st9" x1="106.95" y1="7.41" x2="106.95" y2="7.41"/>
						<line class="st9" x1="110.38" y1="10.24" x2="110.38" y2="10.24"/>
						<path class="st1" d="M110.38,10.24c0.01,0.11,0.02,0.21,0.01,0.33C110.39,10.46,110.39,10.35,110.38,10.24"/>
						<line class="st9" x1="95.88" y1="5.45" x2="95.88" y2="5.45"/>
						<line class="st9" x1="95.88" y1="5.45" x2="95.88" y2="5.45"/>
						<path class="st2" d="M95.88,5.45c0.43,0.02,0.87,0.05,1.3,0.08c0.6,0.04,1.21,0.1,1.81,0.16c1.8,0.19,3.6,0.46,5.33,0.87
							c0.33,0.08,0.66,0.17,0.98,0.26c-1.06-0.29-2.15-0.5-3.25-0.68C100.02,5.81,97.96,5.59,95.88,5.45"/>
						<line class="st9" x1="105.3" y1="6.83" x2="105.3" y2="6.83"/>
						<line class="st9" x1="110.17" y1="9.62" x2="110.17" y2="9.62"/>
						<line class="st9" x1="110.17" y1="9.62" x2="110.17" y2="9.62"/>
						<path class="st2" d="M110.17,9.62c0.06,0.1,0.1,0.2,0.14,0.31c0.02,0.07,0.02,0.07,0.04,0.14l0.01,0.06l0.01,0.03v0.02v0.01
							l0,0l0,0l0,0c-0.01-0.06,0-0.02-0.01-0.03l0,0l0,0l0.01,0.08h-0.01l-0.01-0.08l-0.02-0.1c-0.02-0.07-0.02-0.07-0.04-0.14
							C110.27,9.82,110.22,9.72,110.17,9.62"/>
						<line class="st9" x1="110.38" y1="10.24" x2="110.38" y2="10.24"/>
						<path class="st1" d="M110.17,9.62c0.06,0.1,0.1,0.2,0.14,0.31c0.02,0.07,0.02,0.07,0.04,0.14l0.01,0.06l0.01,0.03v0.02v0.01
							l0,0l0,0l0,0c-0.01-0.06,0-0.02-0.01-0.03l0,0l0,0l0.01,0.08l-0.01-0.08l0,0l0,0c0,0.01-0.01-0.03,0.01,0.03l0,0l0,0l0,0
							v-0.01v-0.02l-0.01-0.03l-0.02-0.06c-0.02-0.07-0.02-0.07-0.04-0.14C110.27,9.82,110.22,9.72,110.17,9.62"/>
						<line class="st9" x1="110.38" y1="10.24" x2="110.38" y2="10.24"/>
						<line class="st9" x1="95.36" y1="5.43" x2="95.36" y2="5.43"/>
						<line class="st9" x1="95.36" y1="5.43" x2="95.36" y2="5.43"/>
						<path class="st2" d="M95.36,5.43l1.02,0.05l0.8,0.06c-0.43-0.03-0.86-0.06-1.3-0.08L95.36,5.43"/>
						<line class="st9" x1="96.14" y1="5.46" x2="96.14" y2="5.46"/>
						<line class="st9" x1="96.14" y1="5.46" x2="96.14" y2="5.46"/>
						<polyline class="st2" points="96.14,5.46 96.38,5.48 96.14,5.46 						"/>
						<path class="st2" d="M96.83,5.5c0.98,0.06,1.96,0.14,2.93,0.25c-0.52-0.05-1.03-0.1-1.55-0.14
							C97.75,5.57,97.29,5.54,96.83,5.5"/>
						<line class="st9" x1="97.18" y1="5.54" x2="97.18" y2="5.54"/>
						<line class="st9" x1="110.38" y1="10.24" x2="110.38" y2="10.24"/>
						<line class="st9" x1="110.38" y1="10.24" x2="110.38" y2="10.24"/>
						<path class="st1" d="M110.38,10.24c0.01,0.11,0.02,0.21,0.01,0.33C110.39,10.46,110.39,10.35,110.38,10.24"/>
						<line class="st9" x1="110.38" y1="10.24" x2="110.38" y2="10.24"/>
						<line class="st9" x1="96.14" y1="5.46" x2="96.14" y2="5.46"/>
						<line class="st9" x1="96.14" y1="5.46" x2="96.14" y2="5.46"/>
						<polyline class="st2" points="96.14,5.46 96.83,5.5 96.14,5.46 						"/>
						<path class="st2" d="M96.38,5.48l0.46,0.03c0.46,0.03,0.92,0.07,1.38,0.11l0.77,0.08c-0.6-0.06-1.2-0.11-1.81-0.16
							c0.6,0.04,1.21,0.1,1.81,0.16c-0.6-0.06-1.2-0.11-1.81-0.16L96.38,5.48"/>
						<polyline class="st1" points="96.14,5.46 96.83,5.5 96.38,5.48 96.14,5.46 						"/>
						<path class="st1" d="M96.83,5.5c0.46,0.03,0.92,0.07,1.38,0.11C97.75,5.57,97.29,5.54,96.83,5.5"/>
						<line class="st9" x1="98.98" y1="5.69" x2="98.98" y2="5.69"/>
						<line class="st9" x1="98.98" y1="5.69" x2="98.98" y2="5.69"/>
						<line class="st9" x1="97.18" y1="5.54" x2="97.18" y2="5.54"/>
						<path class="st1" d="M97.18,5.54c0.6,0.04,1.21,0.1,1.81,0.16C98.38,5.63,97.78,5.58,97.18,5.54"/>
						<line class="st9" x1="98.21" y1="5.61" x2="98.21" y2="5.61"/>
						<line class="st9" x1="98.21" y1="5.61" x2="98.21" y2="5.61"/>
						<line class="st9" x1="98.21" y1="5.61" x2="98.21" y2="5.61"/>
						<line class="st9" x1="98.21" y1="5.61" x2="98.21" y2="5.61"/>
						<path class="st2" d="M98.21,5.61c0.52,0.04,1.04,0.09,1.55,0.14l0.77,0.1C99.76,5.76,98.99,5.68,98.21,5.61"/>
						<line class="st9" x1="99.76" y1="5.75" x2="99.76" y2="5.75"/>
						<line class="st9" x1="99.76" y1="5.75" x2="99.76" y2="5.75"/>
						<polyline class="st1" points="99.76,5.75 100.53,5.86 99.76,5.75 						"/>
						<path class="st1" d="M98.21,5.61c0.52,0.04,1.04,0.09,1.55,0.14C99.25,5.7,98.73,5.65,98.21,5.61"/>
						<line class="st9" x1="99.76" y1="5.75" x2="99.76" y2="5.75"/>
						<line class="st9" x1="98.21" y1="5.61" x2="98.21" y2="5.61"/>
						<line class="st9" x1="98.21" y1="5.61" x2="98.21" y2="5.61"/>
						<path class="st2" d="M98.21,5.61c0.78,0.07,1.55,0.15,2.32,0.25c0.43,0.06,0.85,0.13,1.27,0.21c-0.85-0.14-1.7-0.25-2.56-0.34
							l-0.26-0.02L98.21,5.61"/>
						<line class="st9" x1="100.53" y1="5.86" x2="100.53" y2="5.86"/>
						<line class="st9" x1="101.8" y1="6.06" x2="101.8" y2="6.06"/>
						<line class="st9" x1="98.21" y1="5.61" x2="98.21" y2="5.61"/>
						<line class="st9" x1="98.21" y1="5.61" x2="98.21" y2="5.61"/>
						<path class="st1" d="M98.21,5.61c0.78,0.07,1.55,0.15,2.32,0.25C99.76,5.76,98.99,5.68,98.21,5.61"/>
						<line class="st9" x1="100.53" y1="5.86" x2="100.53" y2="5.86"/>
						<line class="st9" x1="100.53" y1="5.86" x2="100.53" y2="5.86"/>
						<path class="st1" d="M106.48,7.23c0.16,0.05,0.31,0.1,0.47,0.16C106.8,7.34,106.64,7.29,106.48,7.23"/>
						<line class="st9" x1="98.98" y1="5.69" x2="98.98" y2="5.69"/>
						<line class="st9" x1="106.95" y1="7.4" x2="106.95" y2="7.4"/>
						<line class="st9" x1="106.95" y1="7.4" x2="106.95" y2="7.4"/>
						<path class="st2" d="M106.95,7.4c0.15,0.06,0.31,0.11,0.46,0.17c0.6,0.26,1.17,0.56,1.65,0.9
							C108.45,8.04,107.72,7.69,106.95,7.4"/>
						<path class="st1" d="M106.95,7.4c0.15,0.06,0.31,0.11,0.46,0.17C107.26,7.51,107.11,7.45,106.95,7.4"/>
						<line class="st9" x1="107.41" y1="7.57" x2="107.41" y2="7.57"/>
						<path class="st1" d="M107.41,7.57c0.6,0.26,1.17,0.56,1.65,0.9C108.57,8.13,108,7.83,107.41,7.57"/>
						<line class="st9" x1="107.41" y1="7.57" x2="107.41" y2="7.57"/>
						<line class="st9" x1="109.06" y1="8.47" x2="109.06" y2="8.47"/>
						<line class="st9" x1="104.32" y1="6.57" x2="104.32" y2="6.57"/>
						<line class="st9" x1="104.32" y1="6.57" x2="104.32" y2="6.57"/>
						<path class="st2" d="M104.32,6.57c0.5,0.12,0.99,0.25,1.47,0.39l-0.49-0.13C104.97,6.74,104.65,6.65,104.32,6.57"/>
						<line class="st9" x1="98.98" y1="5.69" x2="98.98" y2="5.69"/>
						<line class="st9" x1="98.98" y1="5.69" x2="98.98" y2="5.69"/>
						<path class="st2" d="M98.98,5.69l0.26,0.02c1.71,0.19,3.42,0.46,5.07,0.85C102.58,6.15,100.79,5.89,98.98,5.69"/>
						<polyline class="st1" points="98.98,5.69 99.24,5.72 98.98,5.69 99.24,5.72 98.98,5.69 						"/>
						<polyline class="st1" points="98.98,5.69 99.24,5.72 98.98,5.69 						"/>
						<line class="st9" x1="104.32" y1="6.57" x2="104.32" y2="6.57"/>
						<path class="st2" d="M107.75,16.23c-1.08,0.79-2.21,1.49-3.36,2.14c1.3-0.74,2.58-1.54,3.78-2.47L107.75,16.23"/>
						<line class="st9" x1="104.39" y1="18.37" x2="104.39" y2="18.37"/>
						<path class="st2" d="M106.23,17.33c-1.05,0.66-2.14,1.25-3.24,1.81c1.41-0.73,2.79-1.52,4.11-2.42
							C106.82,16.93,106.53,17.13,106.23,17.33"/>
						<line class="st9" x1="103" y1="19.14" x2="103" y2="19.14"/>
						<line class="st9" x1="103.83" y1="19.01" x2="103.83" y2="19.01"/>
						<line class="st9" x1="103.83" y1="19.01" x2="103.83" y2="19.01"/>
						<path class="st2" d="M103.83,19.01c-3.25,1.82-6.42,3.18-9.13,4.22c1.56-0.62,3.1-1.27,4.62-1.97l-0.24,0.11
							C100.69,20.64,102.28,19.87,103.83,19.01"/>
						<line class="st9" x1="99.33" y1="21.26" x2="99.33" y2="21.26"/>
						<line class="st9" x1="99.33" y1="21.26" x2="99.33" y2="21.26"/>
						<line class="st9" x1="94.71" y1="23.23" x2="94.71" y2="23.23"/>
						<line class="st9" x1="103.83" y1="19.01" x2="103.83" y2="19.01"/>
						<line class="st9" x1="103.83" y1="19.01" x2="103.83" y2="19.01"/>
						<path class="st2" d="M103.83,19.01c-1.55,0.86-3.14,1.64-4.75,2.36l0.24-0.11C100.85,20.56,102.36,19.82,103.83,19.01"/>
						<line class="st9" x1="103.83" y1="19.01" x2="103.83" y2="19.01"/>
						<path class="st1" d="M103.83,19.01c-1.55,0.86-3.14,1.64-4.75,2.36C100.69,20.64,102.28,19.87,103.83,19.01"/>
						<line class="st9" x1="99.08" y1="21.37" x2="99.08" y2="21.37"/>
						<path class="st2" d="M105.34,17.9c-0.38,0.23-0.77,0.44-1.15,0.65c0.69-0.39,1.38-0.8,2.05-1.23
							C105.94,17.52,105.64,17.72,105.34,17.9"/>
						<line class="st9" x1="104.19" y1="18.56" x2="104.19" y2="18.56"/>
						<line class="st9" x1="111.68" y1="9.45" x2="111.68" y2="9.45"/>
						<path class="st2" d="M111.68,9.45c0.2,0.56,0.22,1.18,0.09,1.75C111.89,10.63,111.87,10.01,111.68,9.45"/>
						<path class="st8" d="M59.29,7.69L58,7.95l-1.8,0.4c2.85-0.52,5.7-1,9.08-1.52l-1.04,0.14c3.63-0.58,6.25-0.88,9.38-1.23
							c-2.22,0.22-4.77,0.54-7.27,0.89C63.84,6.97,61.37,7.36,59.29,7.69 M64.24,6.97L64.24,6.97"/>
						<line class="st9" x1="65.28" y1="6.83" x2="65.28" y2="6.83"/>
						<line class="st9" x1="73.62" y1="5.73" x2="73.62" y2="5.73"/>
						<line class="st9" x1="79.11" y1="5.11" x2="79.11" y2="5.11"/>
						<polyline class="st2" points="79.11,5.11 80.16,5.03 79.11,5.11 						"/>
						<line class="st9" x1="65.28" y1="6.83" x2="65.28" y2="6.83"/>
						<polyline class="st2" points="65.28,6.83 66.84,6.59 65.28,6.83 						"/>
						<line class="st9" x1="77.54" y1="5.24" x2="77.54" y2="5.24"/>
						<polyline class="st2" points="77.54,5.24 79.11,5.11 77.54,5.24 						"/>
						<path class="st2" d="M111.65,10.05c0.08,0.56-0.01,1.13-0.2,1.65c-0.19,0.52-0.48,0.98-0.8,1.41c0.31-0.43,0.59-0.9,0.78-1.42
							c0.19-0.51,0.28-1.08,0.2-1.64H111.65"/>
						<path class="st2" d="M111.67,10.05c0.08,0.57-0.02,1.14-0.21,1.65c0.19-0.52,0.27-1.09,0.19-1.65H111.67"/>
						<line class="st9" x1="111.46" y1="11.7" x2="111.46" y2="11.7"/>
						<line class="st9" x1="111.61" y1="9.47" x2="111.61" y2="9.47"/>
						<line class="st9" x1="111.61" y1="9.47" x2="111.61" y2="9.47"/>
						<path class="st2" d="M111.61,9.47c0.15,0.46,0.19,0.96,0.12,1.43c-0.08,0.57-0.3,1.09-0.57,1.57
							c-0.27,0.48-0.6,0.91-0.96,1.31c0.44-0.5,0.84-1.06,1.13-1.68c0.29-0.62,0.46-1.34,0.36-2.05c0-0.09-0.02-0.2-0.03-0.28
							C111.65,9.67,111.63,9.56,111.61,9.47"/>
						<line class="st9" x1="110.2" y1="13.78" x2="110.2" y2="13.78"/>
						<path class="st2" d="M111.61,9.47c0.15,0.46,0.19,0.96,0.12,1.43C111.8,10.43,111.76,9.93,111.61,9.47L111.61,9.47"/>
						<line class="st9" x1="111.73" y1="10.9" x2="111.73" y2="10.9"/>
						<line class="st9" x1="111.52" y1="9.19" x2="111.52" y2="9.19"/>
						<line class="st9" x1="111.52" y1="9.19" x2="111.52" y2="9.19"/>
						<path class="st2" d="M111.52,9.19c0.07,0.16,0.12,0.31,0.17,0.49c0.04,0.15,0.07,0.33,0.08,0.5c0.03,0.34,0,0.68-0.07,1
							c-0.15,0.65-0.45,1.24-0.81,1.76c0.4-0.6,0.74-1.28,0.84-2.04c0.07-0.47,0.03-0.97-0.12-1.43
							C111.59,9.38,111.55,9.29,111.52,9.19"/>
						<line class="st9" x1="110.89" y1="12.95" x2="110.89" y2="12.95"/>
						<line class="st9" x1="111.64" y1="10.05" x2="111.64" y2="10.05"/>
						<path class="st8" d="M111.64,10.05c0.08,0.56-0.01,1.13-0.2,1.64c-0.19,0.52-0.47,0.99-0.78,1.42c0.32-0.43,0.6-0.9,0.8-1.41
							c-0.26,0.71-0.69,1.37-1.2,1.97c-0.51,0.6-1.09,1.15-1.7,1.66c-1.22,1.02-2.55,1.89-3.8,2.63c1.32-0.81,2.62-1.68,3.81-2.69
							c0.51-0.43,1-0.89,1.45-1.39s0.85-1.05,1.16-1.66c0.31-0.6,0.5-1.3,0.44-2c-0.01-0.17-0.05-0.35-0.09-0.51
							c-0.05-0.17-0.11-0.33-0.18-0.49c-0.15-0.31-0.35-0.6-0.58-0.86C111.19,8.82,111.53,9.4,111.64,10.05"/>
						<path class="st1" d="M111.64,10.05c0.08,0.56-0.01,1.13-0.2,1.64c-0.19,0.52-0.47,0.99-0.78,1.42
							c0.31-0.43,0.59-0.9,0.78-1.42C111.63,11.18,111.72,10.61,111.64,10.05"/>
						<line class="st9" x1="110.66" y1="13.11" x2="110.66" y2="13.11"/>
						<line class="st9" x1="111.46" y1="11.7" x2="111.46" y2="11.7"/>
						<line class="st9" x1="111.46" y1="11.7" x2="111.46" y2="11.7"/>
						<path class="st2" d="M109.72,7.49c0.41,0.29,0.81,0.62,1.13,1.03c0.33,0.4,0.57,0.89,0.67,1.41s0.05,1.06-0.11,1.55
							c-0.15,0.5-0.4,0.95-0.68,1.36c-0.56,0.83-1.25,1.5-1.92,2.09c-0.68,0.58-1.34,1.06-1.94,1.47c0.24-0.17,0.46-0.33,0.69-0.5
							c1.08-0.82,2.02-1.66,2.77-2.61c0.37-0.47,0.69-0.98,0.91-1.53c0.22-0.54,0.32-1.14,0.23-1.73c-0.08-0.59-0.37-1.13-0.76-1.58
							c-0.39-0.45-0.87-0.83-1.39-1.15c-1.05-0.64-2.26-1.09-3.6-1.45l-0.43-0.11c0.64,0.17,1.36,0.4,2.12,0.69
							c0.75,0.3,1.53,0.66,2.24,1.16c0.7,0.49,1.32,1.13,1.6,1.89c0.14,0.38,0.19,0.77,0.17,1.13c-0.02,0.37-0.1,0.71-0.22,1.01
							c0.18-0.49,0.26-1.01,0.19-1.52c-0.07-0.51-0.28-0.99-0.58-1.4c-0.62-0.82-1.5-1.38-2.4-1.82s-1.85-0.77-2.81-1.04
							s-1.92-0.48-2.9-0.66c1.21,0.2,2.42,0.45,3.6,0.81C107.51,6.35,108.68,6.8,109.72,7.49"/>
						<line class="st9" x1="111.22" y1="11.62" x2="111.22" y2="11.62"/>
						<line class="st9" x1="110.49" y1="12.99" x2="110.49" y2="12.99"/>
						<line class="st9" x1="110.49" y1="12.99" x2="110.49" y2="12.99"/>
						<path class="st2" d="M110.49,12.99c-0.55,0.73-1.21,1.37-1.91,1.96c-0.7,0.58-1.45,1.12-2.21,1.62
							c0.65-0.44,1.29-0.9,1.89-1.39C109.07,14.53,109.85,13.82,110.49,12.99"/>
						<polyline class="st2" points="99.94,20.09 99.23,20.43 98.99,20.53 99.94,20.09 						"/>
						<path class="st2" d="M104.14,17.94c-0.38,0.22-0.76,0.43-1.15,0.63c-1,0.54-2.02,1.04-3.05,1.52l-0.71,0.33
							C100.9,19.67,102.54,18.85,104.14,17.94 M102.99,18.58c-1,0.54-2.02,1.04-3.05,1.52C100.97,19.61,101.99,19.11,102.99,18.58"
							/>
						<line class="st9" x1="99.23" y1="20.43" x2="99.23" y2="20.43"/>
						<line class="st9" x1="108.25" y1="15.17" x2="108.25" y2="15.17"/>
						<line class="st9" x1="108.25" y1="15.17" x2="108.25" y2="15.17"/>
						<path class="st2" d="M108.25,15.17c-0.61,0.5-1.24,0.96-1.9,1.39c-1.09,0.73-2.22,1.39-3.37,2.01c-1,0.54-2.02,1.04-3.05,1.52
							l-0.95,0.44l0.24-0.1c-1.52,0.67-3.05,1.3-4.6,1.89c1.78-0.72,3.55-1.48,5.27-2.31C102.52,18.83,105.8,17.13,108.25,15.17"/>
						<path class="st1" d="M108.25,15.17c-0.61,0.5-1.24,0.96-1.9,1.39C107.01,16.13,107.65,15.67,108.25,15.17"/>
						<line class="st9" x1="106.36" y1="16.57" x2="106.36" y2="16.57"/>
						<line class="st9" x1="99.94" y1="20.09" x2="99.94" y2="20.09"/>
						<line class="st9" x1="99.94" y1="20.09" x2="99.94" y2="20.09"/>
						<polyline class="st1" points="99.94,20.09 98.99,20.53 99.94,20.09 						"/>
						<line class="st9" x1="98.99" y1="20.53" x2="98.99" y2="20.53"/>
						<path class="st1" d="M102.99,18.58c-1,0.54-2.02,1.04-3.05,1.52C100.97,19.61,101.99,19.11,102.99,18.58"/>
						<line class="st9" x1="99.23" y1="20.43" x2="99.23" y2="20.43"/>
						<line class="st9" x1="102.99" y1="18.58" x2="102.99" y2="18.58"/>
						<path class="st1" d="M102.99,18.58c-1,0.54-2.02,1.04-3.05,1.52C100.97,19.61,101.99,19.11,102.99,18.58"/>
						<line class="st9" x1="98.46" y1="20.64" x2="98.46" y2="20.64"/>
						<line class="st9" x1="98.46" y1="20.64" x2="98.46" y2="20.64"/>
						<path class="st2" d="M98.46,20.64c-2.62,1.18-5.07,2.12-7.05,2.81c1.96-0.74,3.9-1.53,5.81-2.37l-0.7,0.35
							C97.17,21.17,97.81,20.91,98.46,20.64"/>
						<line class="st9" x1="41.26" y1="36.02" x2="41.26" y2="36.02"/>
						<line class="st9" x1="41.26" y1="36.02" x2="41.26" y2="36.02"/>
						<path class="st2" d="M41.26,36.02c-0.79,0.07-1.58,0.13-2.37,0.19l0.79-0.09L41.26,36.02"/>
						<path class="st1" d="M34.33,13.11c5.11-1.35,9.24-2.2,12.62-2.78c-2.56,0.61-5.11,1.26-7.65,1.96
							c-4.11,1.12-8.18,2.36-11.21,3.36c-3.02,0.99-5.01,1.71-4.99,1.58c0-0.03,0.17-0.13,0.53-0.31
							C27.32,15.46,31.06,14.16,34.33,13.11"/>
						<line class="st9" x1="46.95" y1="10.34" x2="46.95" y2="10.34"/>
						<path class="st2" d="M6.24,27.12c0.24-0.3,0.49-0.57,0.75-0.83c-0.33,0.35-0.57,0.66-0.77,0.95
							c-0.21,0.29-0.38,0.57-0.55,0.91s-0.35,0.74-0.47,1.31c-0.11,0.56-0.16,1.33,0.23,2.21c-0.04-0.07-0.09-0.16-0.13-0.28
							c-0.05-0.1-0.11-0.3-0.14-0.41c-0.09-0.34-0.12-0.75-0.07-1.2c0.05-0.45,0.19-0.93,0.4-1.38C5.68,27.95,5.95,27.52,6.24,27.12
							"/>
						<line class="st9" x1="14.41" y1="20.97" x2="14.41" y2="20.97"/>
						<path class="st5" d="M14.41,20.97c1.92-0.93,4.48-2.11,7.2-3.23c0.67-0.27,1.34-0.55,2.02-0.81
							c-0.36,0.17-0.53,0.28-0.53,0.31c-0.01,0.12,1.97-0.59,4.99-1.58c3.02-1,7.1-2.24,11.21-3.36c-6.28,1.75-12.5,3.76-18.51,6.3
							c-2,0.85-3.98,1.76-5.91,2.78c-1.4,0.74-2.77,1.53-4.08,2.41c-1.31,0.89-2.58,1.85-3.65,3.04c-0.53,0.6-1.02,1.25-1.33,2.01
							c-0.16,0.38-0.27,0.78-0.3,1.19c-0.03,0.42,0.02,0.84,0.16,1.23c0.28,0.8,0.87,1.42,1.52,1.89c0.65,0.48,1.37,0.83,2.11,1.13
							c-0.24-0.12-0.48-0.24-0.71-0.37c-0.68-0.33-1.35-0.73-1.91-1.27c-0.56-0.53-1-1.23-1.09-2.02c-0.1-0.76,0.13-1.52,0.48-2.18
							S6.9,27.2,7.4,26.66c0.32-0.34,0.65-0.65,0.99-0.95c1.03-0.9,2.14-1.68,3.26-2.39c1.12-0.71,2.27-1.35,3.4-1.94
							c2.27-1.17,4.5-2.16,6.6-3c-3.24,1.38-6.56,2.93-9.67,4.85c-1.03,0.64-2.03,1.33-2.97,2.08c-0.94,0.76-1.83,1.6-2.51,2.59
							c-0.5,0.74-0.89,1.6-0.84,2.51c0.02,0.45,0.15,0.89,0.37,1.28c0.22,0.39,0.51,0.73,0.84,1.03c0.66,0.59,1.44,1.01,2.23,1.36
							s1.61,0.62,2.43,0.85c1.63,0.45,3.26,0.73,4.84,0.96c1.58,0.21,3.12,0.35,4.59,0.45c2.1,0.15,5.27,0.21,8.43,0.11
							c-1.49,0.04-2.98,0.06-4.48,0.05l-0.53,0.05c2.02,0.06,4.04,0.07,6.07,0.04l-1.58,0.04c-1.93,0.04-3.87,0.04-5.81-0.02
							c-1.76-0.05-3.52-0.16-5.27-0.33c-1.08-0.11-2.17-0.25-3.26-0.42l0,0c-1.7-0.28-3.41-0.64-5.11-1.28
							c-0.85-0.33-1.69-0.72-2.47-1.31c-0.39-0.29-0.76-0.64-1.06-1.06C5.74,32,5.61,31.77,5.5,31.52c-0.05-0.13-0.1-0.24-0.14-0.39
							C5.34,31.06,5.33,31,5.32,30.95L5.31,30.9L5.3,30.84l-0.02-0.1l0.03,0.17l0.03,0.14c0.03,0.11,0.06,0.22,0.1,0.32
							c0.07,0.2,0.16,0.4,0.27,0.58c0.21,0.37,0.48,0.69,0.77,0.97c0.59,0.56,1.27,0.97,1.97,1.31c0.69,0.35,1.03,0.48,1.09,0.52
							s-0.21-0.03-0.69-0.22c-0.49-0.2-1.2-0.5-1.97-1.05C6.49,33.2,6.1,32.85,5.76,32.4c-0.17-0.22-0.32-0.47-0.45-0.75
							c-0.06-0.14-0.11-0.27-0.16-0.43L5.12,31.1L5.1,31.01l-0.01-0.04l-0.01-0.04V30.9l-0.02-0.11c-0.1-0.61-0.02-1.23,0.15-1.77
							c0.17-0.55,0.43-1.02,0.7-1.44c0.11-0.16,0.22-0.31,0.34-0.46c-0.29,0.4-0.56,0.83-0.77,1.28c-0.21,0.45-0.35,0.93-0.4,1.38
							c-0.05,0.45-0.01,0.86,0.07,1.2c0.03,0.11,0.09,0.31,0.14,0.41c0.05,0.12,0.09,0.21,0.13,0.28c-0.39-0.88-0.34-1.65-0.23-2.21
							c0.12-0.57,0.3-0.96,0.47-1.31c0.17-0.34,0.35-0.62,0.55-0.91c0.2-0.29,0.45-0.6,0.77-0.96c0.27-0.25,0.55-0.49,0.84-0.72
							c0.95-0.84,1.98-1.56,3.03-2.23c-0.75,0.56,0.19-0.07,1.31-0.73c1.11-0.66,2.41-1.33,2.19-1.16c1.88-0.98,3.8-1.87,5.74-2.69
							c1.04-0.48,2.08-0.95,3.13-1.4c-2.23,0.82-4.49,1.76-6.15,2.49C15.41,20.58,14.33,21.1,14.41,20.97"/>
						<path class="st1" d="M23.1,17.23c-0.01,0.12,1.97-0.59,4.99-1.58c3.02-1,7.1-2.24,11.21-3.36c-4.11,1.12-8.18,2.36-11.21,3.36
							C25.07,16.64,23.08,17.35,23.1,17.23"/>
						<path class="st1" d="M6.99,26.28c-0.33,0.35-0.57,0.66-0.77,0.95c-0.21,0.29-0.38,0.57-0.55,0.91
							c-0.17,0.34-0.35,0.74-0.47,1.31c-0.11,0.56-0.16,1.33,0.23,2.21c-0.39-0.87-0.34-1.64-0.23-2.21
							c0.12-0.57,0.3-0.96,0.47-1.31c0.17-0.34,0.35-0.62,0.55-0.91C6.42,26.94,6.66,26.64,6.99,26.28"/>
						<line class="st9" x1="5.9" y1="27.58" x2="5.9" y2="27.58"/>
						<line class="st9" x1="6.99" y1="26.28" x2="6.99" y2="26.28"/>
						<line class="st9" x1="23.63" y1="16.92" x2="23.63" y2="16.92"/>
						<line class="st9" x1="30.46" y1="36.59" x2="30.46" y2="36.59"/>
						<line class="st9" x1="30.46" y1="36.59" x2="30.46" y2="36.59"/>
						<line class="st9" x1="34.15" y1="36.47" x2="34.15" y2="36.47"/>
						<path class="st2" d="M34.15,36.47c-1.23,0.05-2.46,0.09-3.69,0.12l-1.58,0.04c-1.93,0.04-3.87,0.04-5.81-0.02h-0.26
							c1.67,0.06,3.34,0.08,5.01,0.07c-1.85,0.03-3.69,0.02-5.54-0.04c2.11,0.12,4.75,0.12,7.39,0.04
							C31.17,36.64,32.66,36.57,34.15,36.47 M30.99,36.63L30.99,36.63 M28.88,36.63c-1.93,0.04-3.87,0.04-5.81-0.02
							C25.01,36.67,26.94,36.67,28.88,36.63 M28.88,36.63L28.88,36.63"/>
						<line class="st9" x1="28.88" y1="36.63" x2="28.88" y2="36.63"/>
						<path class="st1" d="M28.88,36.63c-1.93,0.04-3.87,0.04-5.81-0.02C25.01,36.67,26.94,36.67,28.88,36.63"/>
						<path class="st2" d="M6.78,26.46l0.21-0.18c-0.26,0.26-0.51,0.54-0.75,0.84C6.41,26.89,6.59,26.67,6.78,26.46"/>
						<line class="st9" x1="6.99" y1="26.28" x2="6.99" y2="26.28"/>
						<line class="st9" x1="29.18" y1="16.01" x2="29.18" y2="16.01"/>
						<polyline class="st2" points="29.18,16.01 29.44,15.97 29.18,16.01 						"/>
						<path class="st10" d="M4.54,29.03c0.17-0.55,0.39-0.98,0.6-1.33c0.21-0.35,0.43-0.63,0.62-0.87c0.38-0.46,0.69-0.75,0.9-0.95
							c0.44-0.38,0.54-0.39,0.48-0.27C7.1,25.73,6.91,26,6.79,26.21s-0.19,0.37-0.01,0.25c-0.18,0.21-0.36,0.43-0.53,0.66
							c-0.12,0.15-0.23,0.3-0.34,0.46c-0.27,0.42-0.53,0.89-0.7,1.44c-0.17,0.54-0.25,1.17-0.15,1.77l0.02,0.11v0.03l0.01,0.04
							l0.01,0.04l0.02,0.09l0.03,0.12c0.05,0.16,0.1,0.29,0.16,0.43c0.12,0.27,0.28,0.52,0.45,0.75c0.34,0.45,0.73,0.79,1.11,1.07
							c0.77,0.55,1.48,0.86,1.97,1.05c0.49,0.19,0.76,0.26,0.69,0.22c-0.06-0.05-0.4-0.18-1.09-0.52c-0.69-0.34-1.38-0.75-1.97-1.31
							c-0.29-0.28-0.56-0.6-0.77-0.97c-0.1-0.19-0.2-0.38-0.27-0.58c-0.04-0.1-0.07-0.21-0.1-0.32L5.3,30.9l-0.03-0.17l0.02,0.1
							l0.01,0.06l0.01,0.04c0.01,0.06,0.02,0.11,0.05,0.19c0.04,0.15,0.08,0.26,0.14,0.39c0.1,0.25,0.24,0.48,0.39,0.69
							c0.3,0.42,0.67,0.77,1.06,1.06c0.78,0.59,1.63,0.98,2.48,1.31c1.7,0.64,3.42,1,5.11,1.28c1.09,0.18,2.17,0.31,3.26,0.42
							c1.75,0.18,3.52,0.28,5.27,0.33h-0.26c-1.58-0.05-3.17-0.15-4.75-0.3c2.63,0.31,6.34,0.43,9.77,0.36
							c-1.85,0.03-3.7,0.02-5.54-0.04c2.11,0.12,4.75,0.12,7.39,0.04l-0.79,0.06c1.06,0.01,2.11,0.01,3.17,0
							c-2.02,0.07-4.05,0.11-6.08,0.08c-0.7,0.02-1.41,0.04-2.11,0.05c2.11,0.14,4.77,0.27,9,0.12c-2.78,0.1-5.23,0.11-7.94,0.04
							c-1.36-0.04-2.78-0.1-4.35-0.2c-1.56-0.11-3.27-0.26-5.19-0.53l-0.53-0.02c-0.53-0.09-1.05-0.2-1.58-0.31
							c0.91,0.24,2.36,0.5,3.79,0.69c1.42,0.19,2.81,0.32,3.61,0.41c-1.59-0.12-3.18-0.28-4.77-0.52c0.13,0.05,0.79,0.17,1.52,0.27
							c0.73,0.1,1.52,0.19,1.92,0.24c-1.96-0.19-3.08-0.4-4.28-0.63c-0.6-0.12-1.22-0.25-1.97-0.42c-0.75-0.18-1.64-0.38-2.76-0.74
							l-0.21-0.07L9.8,35.11c-1-0.35-1.85-0.75-2.57-1.2c-0.71-0.45-1.28-0.97-1.67-1.51c-0.19-0.27-0.34-0.54-0.45-0.8
							c-0.05-0.13-0.1-0.25-0.14-0.39l-0.04-0.15l-0.01-0.03v-0.02l-0.01-0.04l-0.02-0.08c-0.09-0.42-0.09-0.73-0.1-0.92
							c0-0.37-0.06-0.3-0.14,0.17c-0.03,0.24-0.05,0.58,0.03,1c0.07,0.43,0.24,0.92,0.54,1.4c-0.39-0.58-0.64-1.32-0.67-2.06
							c-0.03-0.5,0.03-0.88,0.08-1.14c0.05-0.27,0.1-0.44,0.13-0.55c0.06-0.21,0.03-0.18-0.03-0.06
							C4.62,28.95,4.44,29.55,4.54,29.03"/>
						<path class="st1" d="M9.54,34.75c-0.06-0.05-0.4-0.18-1.09-0.52c-0.69-0.34-1.38-0.75-1.97-1.31
							c-0.29-0.28-0.56-0.6-0.77-0.97c-0.11-0.18-0.2-0.38-0.27-0.58c-0.04-0.1-0.07-0.21-0.1-0.32l-0.03-0.14l-0.03-0.17l0.03,0.17
							l0.03,0.14c0.03,0.11,0.06,0.22,0.1,0.32c0.07,0.2,0.16,0.4,0.27,0.58c0.21,0.36,0.48,0.69,0.77,0.97
							c0.59,0.56,1.27,0.97,1.97,1.31C9.13,34.57,9.48,34.7,9.54,34.75"/>
						<path class="st1" d="M5.28,30.74l0.02,0.1l0.01,0.06l0.01,0.04c0.01,0.06,0.02,0.11,0.05,0.19c0.04,0.14,0.08,0.26,0.14,0.39
							c0.1,0.25,0.24,0.48,0.39,0.69c0.3,0.42,0.67,0.77,1.06,1.06c0.78,0.59,1.63,0.98,2.47,1.31c1.7,0.64,3.42,1,5.11,1.28
							c-1.69-0.28-3.41-0.64-5.11-1.28c-0.84-0.33-1.69-0.72-2.47-1.31c-0.39-0.29-0.76-0.64-1.06-1.06
							C5.74,32,5.61,31.77,5.5,31.52c-0.05-0.13-0.1-0.24-0.14-0.39C5.35,31.06,5.33,31,5.32,30.95L5.31,30.9L5.3,30.84L5.28,30.74"
							/>
						<path class="st1" d="M27.82,36.68c-1.85,0.03-3.69,0.03-5.54-0.04C24.13,36.71,25.98,36.72,27.82,36.68"/>
						<line class="st9" x1="22.28" y1="36.64" x2="22.28" y2="36.64"/>
						<polyline class="st1" points="22.81,36.62 23.07,36.61 22.81,36.62 						"/>
						<line class="st9" x1="5.22" y1="32.54" x2="5.22" y2="32.54"/>
						<line class="st9" x1="19.33" y1="37.07" x2="19.33" y2="37.07"/>
						<line class="st9" x1="32.86" y1="37" x2="32.86" y2="37"/>
						<line class="st9" x1="20.66" y1="37.08" x2="20.66" y2="37.08"/>
						<line class="st9" x1="10.11" y1="35.21" x2="10.11" y2="35.21"/>
						<line class="st9" x1="14.85" y1="36.28" x2="14.85" y2="36.28"/>
						<line class="st9" x1="32.05" y1="36.74" x2="32.05" y2="36.74"/>
						<line class="st9" x1="27.82" y1="36.68" x2="27.82" y2="36.68"/>
						<line class="st9" x1="22.81" y1="36.62" x2="22.81" y2="36.62"/>
						<line class="st9" x1="38.08" y1="35.95" x2="38.08" y2="35.95"/>
						<path class="st10" d="M38.08,35.95l1.04-0.11l1.31-0.16l-1.57,0.14l1.57-0.14l0.26-0.08c-1.23,0.1-2.45,0.19-3.68,0.27
							l2.1-0.17c-1.05,0.08-2.1,0.14-3.15,0.2c1.31-0.09,2.62-0.19,3.94-0.3v-0.03l-1.31,0.1c-3.14,0.27-6.56,0.48-9.45,0.53
							c1.35-0.05,2.7-0.11,4.05-0.19c2.87-0.17,5.77-0.4,8.79-0.73l1.04-0.13c-3.92,0.42-8.38,0.75-11.27,0.8l0.85-0.04
							c2.71-0.15,5.01-0.31,7.32-0.51c2.31-0.2,4.62-0.44,7.36-0.81l0.44-0.06c-1.31,0.15-3,0.35-4.7,0.52
							c-1.7,0.17-3.4,0.31-4.71,0.41c4.19-0.33,8.11-0.76,12.02-1.28l0.52-0.08c5.2-0.77,9.86-1.62,14.49-2.59
							c-1.98,0.4-3.96,0.77-5.94,1.13c1.98-0.35,3.97-0.73,5.94-1.13c3.73-0.78,7.31-1.63,10.85-2.55
							c3.53-0.92,7.01-1.92,10.52-3.06c-1.85,0.57-3.7,1.11-5.56,1.62c3.52-1.1,7.52-2.41,10.71-3.65
							c-2.59,0.95-5.03,1.75-7.45,2.49c-2.42,0.74-4.82,1.42-7.36,2.1c2.54-0.68,4.94-1.36,7.36-2.1c2.42-0.74,4.86-1.54,7.45-2.49
							l0.98-0.38c-2.1,0.76-4.53,1.59-6.97,2.35c-2.44,0.77-4.9,1.48-7.06,2.06c3.04-0.85,5.57-1.56,9.05-2.74l-1,0.31l-1.5,0.49
							l1.5-0.49c3.24-1.08,5.96-2.05,8.65-3.13c2.88-1.29,6.2-2.88,9.33-4.79c0.52-0.32,1.03-0.65,1.54-0.99
							c-1.09,0.73-2.22,1.39-3.37,2.01c0.39-0.21,0.77-0.42,1.15-0.63c-1.59,0.91-3.24,1.72-4.91,2.48
							c-1.52,0.67-3.06,1.3-4.61,1.89c1.78-0.72,3.55-1.48,5.28-2.31c-0.48,0.21-0.96,0.42-1.44,0.63
							c-2.62,1.18-5.07,2.12-7.05,2.81c1.96-0.74,3.9-1.53,5.81-2.38c1.11-0.52,2.2-1.05,3.28-1.62l-0.51,0.13
							c-2.02,0.9-5.35,2.32-9.44,3.82l-0.73,0.27h0.27l-1.25,0.38c-0.73,0.28-1.47,0.56-2.2,0.83c-0.75,0.25-1.49,0.49-2.24,0.72
							c-1.23,0.45-2.85,0.97-4.61,1.48s-3.66,1.02-5.44,1.47l1.53-0.37c-0.8,0.25-1.77,0.52-2.79,0.78
							c-1.54,0.39-3.19,0.76-4.58,1.07c-1.02,0.22-2.04,0.43-3.06,0.63l-0.27,0.06l0.11-0.03L65.2,30.7
							c-1.46,0.31-2.91,0.6-4.37,0.88l-2.32,0.41l-1.3,0.21l1.3-0.21l1.55-0.27l-1.29,0.21l2.58-0.47
							c-1.72,0.32-3.44,0.61-5.16,0.89l-1.81,0.29l0.52-0.09l-2.33,0.34c-1.64,0.24-3.28,0.46-4.93,0.67
							c-1.12,0.16-2.25,0.31-3.37,0.46c0.95-0.12,1.9-0.25,2.85-0.39l1.55-0.23c-1.73,0.24-3.46,0.46-5.19,0.66L43.74,34
							c-2.08,0.23-4.69,0.49-7.29,0.69l-0.26,0.02c-1.48,0.12-2.95,0.23-4.43,0.31c1.3-0.07,2.6-0.17,3.91-0.28l-0.26-0.04
							c-2.51,0.19-5.19,0.35-7.9,0.4c-0.67,0.01-1.33,0.01-2,0.01l0.52,0.01c-1.3,0.01-2.6-0.01-3.9-0.05
							c-2.2-0.06-4.34-0.19-6.39-0.45c0.57,0.1,1.15,0.18,1.73,0.25c-0.58-0.07-1.16-0.16-1.73-0.25c-1.84-0.23-3.61-0.56-5.22-1.07
							c-0.8-0.26-1.56-0.57-2.21-0.95c-0.65-0.38-1.2-0.85-1.5-1.37c-0.07-0.13-0.14-0.27-0.18-0.39c-0.01-0.03-0.02-0.04-0.03-0.1
							l-0.02-0.07l-0.01-0.04c0,0.01,0-0.02,0,0.02l0,0v-0.01v-0.01c-0.02-0.07-0.03-0.14-0.03-0.21c-0.03-0.28,0-0.58,0.08-0.87
							c0.16-0.6,0.5-1.18,0.9-1.71c0.81-1.06,1.81-1.93,2.74-2.68c-0.72,0.54-1.4,1.12-2.01,1.74c-0.61,0.62-1.15,1.29-1.49,1.99
							c-0.35,0.7-0.45,1.41-0.24,2.02c0.2,0.6,0.69,1.12,1.26,1.52c0.86,0.61,1.92,1.04,3,1.38c1.09,0.34,2.22,0.59,3.38,0.79
							c2.31,0.4,4.69,0.6,7.13,0.72c0.54,0.02,1.07,0.04,1.61,0.06c-1.82-0.02-3.65-0.09-5.46-0.25l0.26,0.03
							c-0.43-0.03-0.86-0.07-1.29-0.11c0.34,0.03,0.69,0.06,1.03,0.08c-2.06-0.22-3.99-0.52-5.77-0.98
							c-0.89-0.23-1.74-0.51-2.53-0.86c-0.78-0.35-1.51-0.79-2.04-1.34C6.51,31.39,6.23,30.72,6.31,30
							c0.06-0.72,0.45-1.45,0.94-2.11c0.5-0.67,1.12-1.29,1.8-1.86c0.68-0.58,1.41-1.12,2.19-1.65c-0.35,0.25-0.7,0.5-1.04,0.77
							c1.75-1.31,3.67-2.43,5.62-3.46c1.96-1.03,3.98-1.96,6.03-2.83c1.51-0.69,3.04-1.34,4.58-1.96c-1.31,0.48-2.62,0.98-3.92,1.5
							c0.73-0.3,1.45-0.6,2.18-0.9c0.32-0.14,1.58-0.62,1.7-0.68c0.08-0.04-0.32,0.09-1.73,0.62c-0.71,0.27-1.66,0.64-2.93,1.16
							c-1.27,0.53-2.85,1.2-4.77,2.14c-1.33,0.65-2.65,1.35-3.92,2.1c2.13-1.27,4.25-2.33,6.25-3.26c1.99-0.93,3.87-1.72,5.57-2.42
							c-1.07,0.39-2.14,0.79-3.19,1.22c-3.24,1.38-6.56,2.93-9.67,4.85c-1.03,0.64-2.03,1.32-2.98,2.08
							c-0.94,0.76-1.83,1.6-2.51,2.59c-0.5,0.74-0.89,1.6-0.84,2.51c0.02,0.45,0.15,0.89,0.37,1.28c0.22,0.39,0.51,0.73,0.84,1.03
							c0.66,0.59,1.44,1.02,2.23,1.36c0.79,0.35,1.61,0.62,2.43,0.84c1.63,0.45,3.26,0.74,4.84,0.96c1.58,0.21,3.12,0.35,4.59,0.46
							c2.1,0.15,5.27,0.21,8.43,0.11l0.53-0.02l-1.58,0.02c0.79-0.01,1.58-0.03,2.37-0.05c-1.23,0.02-2.46,0.02-3.69,0
							c1.58,0.01,3.16-0.01,4.74-0.06l0.79-0.05c-1.32,0.05-2.64,0.08-3.95,0.1c1.49-0.02,2.98-0.06,4.48-0.13l1.05-0.09
							C35.45,36.11,36.76,36.04,38.08,35.95 M86.89,25.63L86.89,25.63 M86.89,25.63L86.89,25.63 M75,29.01
							c1.91-0.48,3.69-0.95,5.59-1.47c1.9-0.53,3.92-1.13,6.29-1.91c-2.38,0.78-4.39,1.38-6.29,1.91
							C78.7,28.06,76.92,28.53,75,29.01l-1.53,0.38l-1.02,0.25l1.02-0.25L75,29.01l-0.25,0.09c-1.36,0.35-2.72,0.68-4.08,1.01
							c1.36-0.32,2.72-0.66,4.08-1.01L75,29.01 M63,31.95L63,31.95 M63,31.95L63,31.95 M53.68,33.58c3.63-0.6,5.97-0.95,9.32-1.63
							C59.65,32.63,57.31,32.98,53.68,33.58 M59.13,32.71L59.13,32.71 M59.13,32.71L59.13,32.71 M50.57,34.07l-0.26,0.04
							c-0.87,0.12-1.74,0.25-2.6,0.36c0.87-0.12,1.74-0.24,2.6-0.36L50.57,34.07c3.12-0.45,5.46-0.8,8.57-1.37
							C56.03,33.27,53.69,33.62,50.57,34.07 M59.38,32.62L59.38,32.62 M72.21,29.76l-1.53,0.39L72.21,29.76 M51.35,33.97
							L51.35,33.97 M53.68,33.58L53.68,33.58 M50.57,34.07L50.57,34.07 M77.04,28.46L77.04,28.46 M70.67,30.1L70.67,30.1
							 M104.14,17.94L104.14,17.94 M7.67,26.92c0.76-0.82,1.63-1.54,2.54-2.21s1.86-1.29,2.83-1.87c-0.97,0.58-1.93,1.2-2.83,1.87
							C9.3,25.38,8.43,26.1,7.67,26.92 M7.67,26.92c0.76-0.82,1.63-1.54,2.54-2.21s1.86-1.29,2.83-1.87
							c-0.97,0.58-1.93,1.2-2.83,1.87C9.3,25.38,8.43,26.1,7.67,26.92 M7.67,26.92c-0.23,0.25-0.46,0.51-0.66,0.78
							c-0.2,0.27-0.39,0.56-0.54,0.85c-0.16,0.29-0.29,0.6-0.37,0.91c-0.08,0.29-0.12,0.6-0.1,0.89v0.09
							c0.01,0.07,0.01,0.15,0.03,0.22c0.01,0.03,0.01,0.08,0.02,0.1l0.03,0.12c0.04,0.13,0.09,0.28,0.15,0.41
							c0.13,0.28,0.32,0.55,0.53,0.78c0.22,0.24,0.47,0.46,0.73,0.65c0.27,0.19,0.56,0.37,0.85,0.53c0.3,0.16,0.61,0.3,0.92,0.43
							c0.23,0.1,0.48,0.19,0.72,0.27c0.32,0.11,0.65,0.22,0.98,0.31c0.33,0.1,0.67,0.18,1,0.26s0.67,0.15,1.01,0.22
							c0.25,0.05,0.51,0.1,0.77,0.14c0.34,0.06,0.68,0.12,1.03,0.17l0.77,0.1c-1.98-0.28-3.81-0.64-5.47-1.21
							c-0.83-0.29-1.61-0.63-2.31-1.08c-0.69-0.44-1.29-1.01-1.57-1.72c-0.02-0.05-0.04-0.1-0.06-0.15
							c-0.01-0.05-0.03-0.09-0.04-0.15l-0.03-0.13l-0.02-0.12c-0.06-0.36-0.03-0.75,0.06-1.12c0.02-0.09,0.05-0.18,0.08-0.27
							c0.1-0.31,0.25-0.6,0.42-0.89c0.09-0.16,0.19-0.32,0.3-0.47C7.13,27.54,7.39,27.22,7.67,26.92 M22.52,18.4
							c-0.42,0.17-0.85,0.35-1.28,0.53l-0.89,0.38l-0.96,0.42l-0.95,0.44l-1.18,0.57l-0.56,0.28c-0.51,0.25-1.01,0.52-1.51,0.79
							l-0.02,0.01c-0.31,0.17-0.61,0.33-0.91,0.51c0.3-0.17,0.61-0.34,0.91-0.51c-0.31,0.17-0.61,0.33-0.91,0.51
							c0.3-0.17,0.61-0.34,0.91-0.51h0.01c-0.31,0.17-0.61,0.34-0.92,0.51c0.37-0.21,0.77-0.43,1.19-0.65l0.65-0.34
							c0.39-0.2,0.78-0.39,1.17-0.58l0.37-0.18l1.11-0.52l0.66-0.3l0.68-0.31C20.92,19.08,21.75,18.72,22.52,18.4 M22.52,18.4
							L22.52,18.4 M91.09,23.35L91.09,23.35 M90.09,23.67l0.01,0.02l0.99-0.34L90.09,23.67"/>
						<path class="st7" d="M7.67,26.92c-0.46,0.49-0.87,1.03-1.19,1.6C6.17,29.1,5.96,29.73,6,30.35c-0.02-0.29,0.02-0.6,0.1-0.89
							c0.09-0.31,0.21-0.62,0.37-0.91c0.16-0.29,0.34-0.57,0.54-0.85C7.21,27.43,7.44,27.17,7.67,26.92"/>
						<path class="st7" d="M6.9,27.86c-0.11,0.16-0.21,0.31-0.3,0.47c-0.17,0.29-0.31,0.59-0.42,0.89
							c-0.03,0.09-0.06,0.18-0.08,0.27C6.25,28.93,6.54,28.38,6.9,27.86"/>
						<path class="st7" d="M6,30.44c0.01,0.11,0.03,0.23,0.05,0.34c0.03,0.14,0.06,0.22,0.1,0.33c0.08,0.22,0.19,0.42,0.32,0.61
							c0.27,0.39,0.62,0.72,1.01,1c0.79,0.57,1.7,0.96,2.62,1.28c1.84,0.62,3.71,0.94,5.44,1.16l-0.77-0.1
							c-0.34-0.05-0.69-0.1-1.03-0.17c-0.26-0.04-0.51-0.09-0.77-0.14c-0.34-0.07-0.67-0.14-1.01-0.22c-0.34-0.08-0.67-0.17-1-0.26
							c-0.33-0.1-0.66-0.2-0.98-0.31c-0.24-0.08-0.48-0.18-0.72-0.27c-0.31-0.13-0.62-0.27-0.92-0.43c-0.3-0.16-0.58-0.33-0.85-0.53
							c-0.27-0.2-0.52-0.41-0.73-0.65c-0.22-0.24-0.4-0.5-0.54-0.78c-0.06-0.13-0.11-0.28-0.15-0.41l-0.03-0.12
							c-0.01-0.02-0.01-0.07-0.02-0.1C6.01,30.59,6.01,30.52,6,30.44"/>
						<path class="st7" d="M6.04,30.61l0.02,0.12l0.03,0.13c0.01,0.06,0.03,0.1,0.04,0.15c0.02,0.05,0.04,0.1,0.06,0.15
							c-0.04-0.09-0.07-0.18-0.09-0.26l-0.04-0.15L6.04,30.61"/>
						<polyline class="st3" points="65.16,30.73 65.28,30.7 65.44,30.67 65.16,30.73 						"/>
						<line class="st9" x1="17.41" y1="34.89" x2="17.41" y2="34.89"/>
						<path class="st1" d="M17.41,34.89c-0.58-0.07-1.16-0.16-1.73-0.25C16.25,34.73,16.83,34.81,17.41,34.89"/>
						<line class="st9" x1="104.14" y1="17.94" x2="104.14" y2="17.94"/>
						<line class="st9" x1="104.14" y1="17.94" x2="104.14" y2="17.94"/>
						<path class="st1" d="M104.14,17.94c-0.38,0.22-0.76,0.43-1.15,0.63C103.38,18.37,103.76,18.16,104.14,17.94"/>
						<path class="st1" d="M99.9,20.01c-1.73,0.83-3.49,1.59-5.28,2.31C96.4,21.6,98.17,20.84,99.9,20.01"/>
						<line class="st9" x1="94.62" y1="22.32" x2="94.62" y2="22.32"/>
						<path class="st1" d="M91.41,23.45c1.96-0.74,3.9-1.53,5.81-2.37C95.31,21.92,93.37,22.71,91.41,23.45"/>
						<path class="st1" d="M7.67,26.92c-0.23,0.25-0.46,0.51-0.66,0.78c-0.2,0.27-0.39,0.56-0.54,0.85
							c-0.16,0.29-0.29,0.6-0.37,0.91c-0.08,0.29-0.12,0.6-0.1,0.89c-0.02-0.29,0.02-0.6,0.1-0.89c0.09-0.31,0.21-0.62,0.37-0.91
							c0.16-0.29,0.34-0.57,0.54-0.85C7.21,27.43,7.44,27.17,7.67,26.92"/>
						<path class="st1" d="M6.9,27.86c-0.11,0.16-0.21,0.31-0.3,0.47c-0.17,0.29-0.31,0.59-0.42,0.89
							c-0.03,0.09-0.06,0.18-0.08,0.27c0.02-0.09,0.05-0.18,0.08-0.27c0.1-0.31,0.25-0.6,0.42-0.89C6.69,28.18,6.79,28.02,6.9,27.86
							"/>
						<path class="st1" d="M6,30.44c0.01,0.07,0.01,0.15,0.03,0.22c0.01,0.03,0.01,0.08,0.02,0.1l0.03,0.12
							c0.04,0.13,0.09,0.28,0.15,0.41c0.13,0.28,0.32,0.55,0.53,0.78c0.22,0.24,0.47,0.46,0.73,0.65c0.27,0.19,0.56,0.37,0.85,0.53
							c0.3,0.16,0.61,0.3,0.92,0.43c0.23,0.1,0.48,0.19,0.72,0.27c0.32,0.11,0.65,0.22,0.98,0.31c0.33,0.1,0.67,0.18,1,0.26
							s0.67,0.15,1.01,0.22c0.25,0.05,0.51,0.1,0.77,0.14c0.34,0.06,0.68,0.12,1.03,0.17l0.77,0.1l-0.77-0.1
							c-0.34-0.05-0.69-0.11-1.03-0.17c-0.26-0.04-0.51-0.09-0.77-0.14c-0.34-0.07-0.68-0.14-1.01-0.22c-0.34-0.08-0.67-0.17-1-0.26
							c-0.33-0.1-0.66-0.2-0.98-0.31c-0.24-0.08-0.48-0.18-0.72-0.27c-0.31-0.13-0.62-0.27-0.92-0.43c-0.3-0.16-0.59-0.33-0.85-0.53
							c-0.27-0.19-0.52-0.41-0.73-0.65c-0.22-0.24-0.4-0.5-0.53-0.78c-0.06-0.13-0.11-0.28-0.15-0.41l-0.03-0.12
							c-0.01-0.02-0.01-0.07-0.02-0.1C6.01,30.59,6.01,30.52,6,30.44"/>
						<path class="st1" d="M6.04,30.61l0.02,0.12l0.03,0.13c0.01,0.06,0.03,0.1,0.04,0.15c0.02,0.05,0.04,0.1,0.06,0.15
							c-0.02-0.05-0.04-0.1-0.06-0.15c-0.01-0.05-0.03-0.09-0.04-0.15l-0.03-0.13L6.04,30.61"/>
						<path class="st1" d="M13.04,22.84c-0.97,0.58-1.93,1.2-2.83,1.87c-0.91,0.67-1.78,1.4-2.54,2.21
							c0.76-0.81,1.63-1.54,2.54-2.21C11.11,24.04,12.06,23.42,13.04,22.84"/>
						<path class="st1" d="M13.04,22.84c-0.97,0.58-1.93,1.2-2.83,1.87c-0.91,0.67-1.78,1.4-2.54,2.21
							c0.76-0.81,1.63-1.54,2.54-2.21C11.11,24.04,12.06,23.42,13.04,22.84"/>
						<line class="st9" x1="29.4" y1="36.46" x2="29.4" y2="36.46"/>
						<path class="st1" d="M29.4,36.46c-3.16,0.09-6.32,0.03-8.43-0.11c-1.47-0.1-3-0.24-4.59-0.46c-1.58-0.22-3.21-0.51-4.84-0.96
							c-0.82-0.23-1.63-0.5-2.43-0.84c-0.79-0.35-1.57-0.77-2.23-1.36c-0.33-0.3-0.62-0.64-0.84-1.03
							c-0.22-0.39-0.35-0.83-0.37-1.28c-0.04-0.91,0.34-1.77,0.84-2.51c-0.5,0.74-0.89,1.6-0.84,2.51c0.02,0.45,0.15,0.89,0.37,1.28
							c0.22,0.39,0.51,0.73,0.84,1.03c0.66,0.59,1.44,1.02,2.23,1.36c0.79,0.35,1.61,0.62,2.43,0.84c1.63,0.45,3.26,0.74,4.84,0.96
							c1.58,0.21,3.12,0.35,4.59,0.46C23.07,36.49,26.24,36.55,29.4,36.46"/>
						<path class="st1" d="M21.66,18.38c-3.24,1.38-6.56,2.93-9.67,4.85C15.1,21.31,18.42,19.76,21.66,18.38"/>
						<line class="st9" x1="29.93" y1="36.44" x2="29.93" y2="36.44"/>
						<line class="st9" x1="29.93" y1="36.44" x2="29.93" y2="36.44"/>
						<line class="st9" x1="30.71" y1="36.4" x2="30.71" y2="36.4"/>
						<line class="st9" x1="31.77" y1="36.34" x2="31.77" y2="36.34"/>
						<line class="st9" x1="40.43" y1="35.68" x2="40.43" y2="35.68"/>
						<line class="st9" x1="86.7" y1="25.89" x2="86.7" y2="25.89"/>
						<line class="st9" x1="33.08" y1="36.25" x2="33.08" y2="36.25"/>
						<line class="st9" x1="39.11" y1="35.71" x2="39.11" y2="35.71"/>
						<line class="st9" x1="39.89" y1="35.61" x2="39.89" y2="35.61"/>
						<line class="st9" x1="65.33" y1="31.49" x2="65.33" y2="31.49"/>
						<line class="st9" x1="91.85" y1="23.87" x2="91.85" y2="23.87"/>
						<line class="st9" x1="41.98" y1="35.28" x2="41.98" y2="35.28"/>
						<line class="st9" x1="21.66" y1="18.38" x2="21.66" y2="18.38"/>
						<line class="st9" x1="95.49" y1="22.35" x2="95.49" y2="22.35"/>
						<line class="st9" x1="47.27" y1="34.58" x2="47.27" y2="34.58"/>
						<line class="st9" x1="74.75" y1="29.1" x2="74.75" y2="29.1"/>
						<line class="st9" x1="87.84" y1="25.16" x2="87.84" y2="25.16"/>
						<line class="st9" x1="102.99" y1="18.58" x2="102.99" y2="18.58"/>
						<line class="st9" x1="16.96" y1="20.74" x2="16.96" y2="20.74"/>
						<path class="st7" d="M19.38,19.74l0.96-0.42c-1.21,0.53-2.43,1.09-3.65,1.71l0.56-0.28l1.18-0.57L19.38,19.74"/>
						<polyline class="st7" points="20.07,19.45 19.39,19.75 18.74,20.05 20.07,19.45 						"/>
						<path class="st7" d="M17.63,20.57l-0.37,0.18c-0.39,0.19-0.78,0.38-1.17,0.58l-0.65,0.34C16.12,21.31,16.86,20.94,17.63,20.57
							"/>
						<line class="st9" x1="99.9" y1="20.01" x2="99.9" y2="20.01"/>
						<polyline class="st7" points="15.18,21.81 15.17,21.81 15.16,21.82 15.18,21.81 						"/>
						<line class="st9" x1="10.2" y1="25.15" x2="10.2" y2="25.15"/>
						<line class="st9" x1="74.34" y1="28.56" x2="74.34" y2="28.56"/>
						<line class="st9" x1="60.02" y1="31.74" x2="60.02" y2="31.74"/>
						<line class="st9" x1="61.3" y1="31.48" x2="61.3" y2="31.48"/>
						<line class="st9" x1="25.45" y1="35.12" x2="25.45" y2="35.12"/>
						<polyline class="st2" points="28.44,16.26 27.94,16.44 28.44,16.26 						"/>
						<path class="st1" d="M26.44,16.9c6.17-2.23,12.24-3.93,18.61-5.5c-1.27,0.35-2.53,0.7-3.79,1.07l0.5-0.15
							c-0.85,0.22-1.92,0.51-3.08,0.84l-1.81,0.52c-1.86,0.54-3.8,1.15-5.42,1.67c-0.67,0.2-1.34,0.41-2,0.62l0,0l-0.26,0.05
							l1.48-0.54c-0.74,0.26-1.49,0.52-2.23,0.79l-0.49,0.18c-2.05,0.76-4.08,1.56-6.09,2.42C23.37,18.18,24.9,17.53,26.44,16.9"/>
						<path class="st1" d="M38.68,13.16c1.17-0.33,2.24-0.62,3.08-0.84C40.91,12.54,39.85,12.83,38.68,13.16l-1.81,0.52L38.68,13.16
							"/>
						<polyline class="st1" points="41.76,12.32 41.26,12.47 41.76,12.32 						"/>
						<polyline class="st1" points="29.18,16.01 29.44,15.96 29.44,15.97 29.18,16.01 						"/>
						<path class="st1" d="M26.44,16.9c-1.54,0.62-3.07,1.27-4.58,1.96C23.37,18.18,24.9,17.53,26.44,16.9"/>
						<path class="st1" d="M27.35,16.15c3.7-1.34,8.47-2.78,12.5-3.84c-1.63,0.51-3.89,1.21-6.29,2.02c-2.4,0.8-4.93,1.71-7.13,2.58
							c-1.31,0.48-2.62,0.98-3.92,1.5c0.73-0.3,1.45-0.6,2.18-0.9c0.32-0.14,1.58-0.62,1.7-0.68c0.08-0.04-0.32,0.09-1.73,0.62
							c-0.71,0.27-1.66,0.64-2.93,1.16c-1.27,0.53-2.85,1.2-4.77,2.14c-1.33,0.65-2.65,1.35-3.92,2.1c2.13-1.27,4.25-2.33,6.25-3.26
							c1.99-0.93,3.87-1.72,5.57-2.42c-1.07,0.39-2.14,0.79-3.19,1.22c0.65-0.27,1.29-0.54,1.94-0.8c0.77-0.31,1.68-0.67,2.7-1.05
							L27.35,16.15"/>
						<path class="st1" d="M24.85,17.17c-1.7,0.7-3.58,1.49-5.57,2.42c-1.99,0.93-4.11,1.98-6.25,3.26
							c2.13-1.27,4.25-2.33,6.25-3.26C21.27,18.66,23.15,17.86,24.85,17.17"/>
						<path class="st1" d="M26.4,16.83c-0.12,0.06-1.38,0.55-1.7,0.68c-0.73,0.29-1.46,0.59-2.18,0.9c0.73-0.31,1.45-0.6,2.18-0.9
							C25.02,17.37,26.28,16.88,26.4,16.83"/>
						<line class="st9" x1="14.88" y1="21.37" x2="14.88" y2="21.37"/>
						<path class="st4" d="M14.88,21.37c1.93-1.02,3.91-1.93,5.91-2.78c6.02-2.54,12.23-4.55,18.51-6.3
							c1.91-0.52,3.82-1.01,5.73-1.49l1.92-0.47c2.08-0.35,3.91-0.6,5.23-0.72c-2.39,0.56-4.76,1.15-7.13,1.78
							c-6.37,1.57-12.44,3.28-18.61,5.5c2.2-0.86,4.73-1.77,7.13-2.58c2.4-0.81,4.66-1.51,6.29-2.02c-4.02,1.06-8.8,2.5-12.5,3.84
							l0,0l-1.05,0.38c-1.02,0.38-1.93,0.73-2.7,1.05c-0.65,0.26-1.3,0.53-1.94,0.8c-2.1,0.84-4.34,1.82-6.6,3
							c-1.14,0.59-2.28,1.23-3.4,1.94s-2.23,1.49-3.26,2.39c-0.34,0.3-0.68,0.62-0.99,0.95c-0.5,0.53-0.97,1.12-1.32,1.78
							s-0.57,1.42-0.48,2.18c0.09,0.79,0.53,1.49,1.09,2.02c0.56,0.54,1.22,0.94,1.91,1.27c0.23,0.13,0.47,0.26,0.71,0.38
							c-0.74-0.3-1.46-0.66-2.11-1.13c-0.65-0.48-1.24-1.1-1.52-1.89c-0.14-0.39-0.19-0.81-0.16-1.23c0.03-0.41,0.14-0.81,0.3-1.19
							c0.32-0.76,0.8-1.41,1.33-2.01c1.07-1.19,2.34-2.15,3.65-3.04C12.11,22.89,13.48,22.1,14.88,21.37"/>
						<line class="st9" x1="39.3" y1="12.29" x2="39.3" y2="12.29"/>
						<line class="st9" x1="46.95" y1="10.34" x2="46.95" y2="10.34"/>
						<line class="st9" x1="46.95" y1="10.34" x2="46.95" y2="10.34"/>
						<path class="st1" d="M14.88,21.37c-1.4,0.74-2.77,1.53-4.08,2.41c-1.31,0.89-2.58,1.85-3.65,3.04
							c-0.53,0.6-1.02,1.25-1.33,2.01c-0.16,0.38-0.27,0.78-0.3,1.19c-0.03,0.42,0.02,0.84,0.16,1.23c0.28,0.79,0.87,1.42,1.52,1.89
							c0.65,0.48,1.37,0.84,2.11,1.13c-0.74-0.3-1.46-0.66-2.11-1.13c-0.65-0.48-1.24-1.1-1.52-1.89c-0.14-0.4-0.19-0.81-0.16-1.23
							c0.03-0.41,0.14-0.82,0.3-1.19c0.32-0.76,0.8-1.41,1.33-2.01c1.07-1.19,2.34-2.15,3.65-3.04
							C12.11,22.89,13.48,22.1,14.88,21.37"/>
						<path class="st1" d="M20.79,18.59c6.02-2.54,12.23-4.55,18.51-6.3C33.02,14.04,26.8,16.05,20.79,18.59"/>
						<path class="st1" d="M5.6,30.62c-0.1-0.76,0.13-1.52,0.48-2.18S6.9,27.2,7.4,26.66c0.31-0.33,0.65-0.65,0.99-0.95
							c1.03-0.9,2.14-1.68,3.26-2.39c1.12-0.71,2.27-1.35,3.4-1.94c-1.14,0.59-2.28,1.23-3.4,1.94c-1.12,0.71-2.23,1.48-3.26,2.39
							c-0.34,0.3-0.67,0.61-0.99,0.95c-0.5,0.54-0.97,1.12-1.32,1.78C5.74,29.09,5.51,29.85,5.6,30.62"/>
						<line class="st9" x1="39.3" y1="12.29" x2="39.3" y2="12.29"/>
						<line class="st9" x1="39.3" y1="12.29" x2="39.3" y2="12.29"/>
						<line class="st9" x1="8.4" y1="25.71" x2="8.4" y2="25.71"/>
						<polyline class="st1" points="27.35,16.15 27.35,16.15 26.31,16.53 27.35,16.15 						"/>
						<path class="st1" d="M39.85,12.31c-1.63,0.51-3.89,1.21-6.29,2.02c-2.4,0.8-4.93,1.71-7.13,2.58c2.2-0.86,4.73-1.77,7.13-2.58
							S38.22,12.82,39.85,12.31"/>
						<line class="st9" x1="46.95" y1="10.34" x2="46.95" y2="10.34"/>
						<line class="st9" x1="39.3" y1="12.29" x2="39.3" y2="12.29"/>
						<line class="st9" x1="39.3" y1="12.29" x2="39.3" y2="12.29"/>
						<path class="st2" d="M39.3,12.29c2.54-0.7,5.09-1.35,7.65-1.96l-1.92,0.47C43.12,11.28,41.21,11.77,39.3,12.29"/>
						<line class="st9" x1="46.95" y1="10.34" x2="46.95" y2="10.34"/>
						<path class="st1" d="M39.3,12.29c2.54-0.7,5.09-1.35,7.65-1.96C44.39,10.94,41.84,11.59,39.3,12.29"/>
					</g>
				</g>
			</g>
		</g>
		<path class="st0" d="M18.29,35.36c0.26,2.04-1.19,3.9-3.23,4.16s-3.9-1.19-4.16-3.23c-0.26-2.04,1.19-3.9,3.23-4.16
			C16.17,31.88,18.03,33.32,18.29,35.36z"/>
		<g>
			<path class="st0" d="M78.96,11.46c-1.06-0.04-1.9-0.94-1.85-2c0.04-1.07,0.94-1.9,2-1.86s1.9,0.94,1.86,2
				C80.93,10.68,80.03,11.51,78.96,11.46z"/>
			<path class="st0" d="M77.42,6.01c1.93-0.8,4.13,0.04,5.05,1.88l0,0c0.04,0.08,0.08,0.16,0.11,0.25l0,0l-0.53,0.21
				c-0.03-0.07-0.06-0.14-0.09-0.21l0,0c-0.78-1.57-2.67-2.29-4.31-1.61l0,0l0,0L77.42,6.01L77.42,6.01z"/>
			<path class="st0" d="M75.54,1.5c4.31-1.79,9.24,0.09,11.29,4.21l0,0c0.09,0.18,0.17,0.36,0.25,0.56l0,0l-0.53,0.22
				c-0.07-0.18-0.15-0.35-0.23-0.52l0,0C84.4,2.11,79.8,0.35,75.77,2.03l0,0l0,0L75.54,1.5L75.54,1.5z"/>
			<path class="st0" d="M76.7,4.29L76.7,4.29L76.7,4.29L76.7,4.29L76.7,4.29L76.7,4.29z M76.48,3.75c3.12-1.3,6.69,0.06,8.17,3.05
				l0,0c0.06,0.13,0.12,0.26,0.18,0.4l0,0L84.3,7.42c-0.05-0.12-0.11-0.24-0.16-0.36l0,0c-1.35-2.71-4.59-3.95-7.44-2.77l0,0
				L76.48,3.75L76.48,3.75z"/>
		</g>
		<polygon class="st0" points="28.23,0.21 29.79,3.27 33.19,2.73 30.76,5.17 32.32,8.23 29.25,6.67 26.82,9.1 27.36,5.71 
			24.29,4.14 27.69,3.6 		"/>
		<polygon class="st0" points="66.09,44.89 63.37,43 63.65,39.7 66.65,38.29 69.37,40.19 69.08,43.48 		"/>
		<path class="st0" d="M13.29,20.45c0.01-0.18,0.04-0.24,0.19-0.38c0.15-0.12,0.29-0.18,0.52-0.18h4.47
			c0.23,0.01,0.36,0.06,0.53,0.19c0.15,0.14,0.18,0.21,0.18,0.38v3.29c-0.01,0.18-0.04,0.24-0.19,0.38
			c-0.16,0.13-0.29,0.18-0.52,0.18h-4.23c-0.01,0.02-0.01,0.04-0.02,0.05c0.06,0.1,0.11,0.2,0.16,0.3c0.25,0.56,0.42,1.17,0.41,1.76
			c0.02,0.02,0.04,0.03,0.05,0.04h3.64c0.75,0,1.44-0.25,2-0.74c0.6-0.5,0.93-1.19,0.93-1.97l0,0v-3.31c0-0.01,0-0.01,0-0.01
			c0-0.75-0.31-1.43-0.89-1.94c-0.56-0.51-1.27-0.77-2.05-0.77l0,0c0,0-0.01,0-0.02,0h-4.44c0,0-0.01,0-0.02,0
			c-0.78,0-1.5,0.26-2.06,0.77c-0.57,0.5-0.88,1.18-0.88,1.93c0,0,0,0.01,0,0.02v1.11c0.11-0.04,0.23-0.07,0.35-0.08
			c0.02-0.01,0.03-0.01,0.04-0.02c0.06-0.02,0.11-0.04,0.17-0.06c0.03-0.01,0.06-0.02,0.09-0.03"/>
		<path class="st0" d="M101.11,20.44c0-0.75-0.31-1.43-0.89-1.93c-0.56-0.51-1.28-0.77-2.06-0.77l0,0c0,0-0.01,0-0.02,0H93.7
			c0,0-0.01,0-0.02,0c-0.78,0-1.5,0.26-2.06,0.77c-0.57,0.5-0.89,1.18-0.88,1.93c0,0,0,0,0,0.01v0.23c0.34-0.25,0.74-0.41,1.23-0.41
			c0.22,0,0.45,0.04,0.69,0.12c0.35-0.42,0.87-0.7,1.58-0.7c0.35,0,0.66,0.07,0.92,0.19h3.01c0.23,0.01,0.37,0.06,0.53,0.19
			c0.15,0.14,0.17,0.2,0.18,0.38v3.29l0,0c-0.01,0.18-0.04,0.24-0.19,0.38c-0.15,0.13-0.29,0.18-0.52,0.18h-4.02
			c0,0.02,0,0.04,0,0.05c-0.08,0.88-0.55,1.65-1.32,1.98c0.27,0.08,0.56,0.12,0.86,0.12h4.5c0.75,0,1.44-0.25,2-0.74
			c0.6-0.49,0.93-1.19,0.93-1.96l0,0v-3.31H101.11z"/>
		<path class="st0" d="M111.46,20.44c0-0.75-0.31-1.43-0.88-1.93c-0.56-0.51-1.27-0.77-2.05-0.77l0,0c0,0-0.01,0-0.02,0h-2.93
			c-0.4,0-0.78,0.07-1.14,0.2c-0.19-0.14-0.43-0.2-0.67-0.2h-0.01c-0.01,0-0.02,0-0.03,0c-0.27,0-0.56,0.06-0.79,0.28
			c-0.23,0.21-0.31,0.51-0.31,0.79l0,0c0,0,0,0.01,0,0.02v6.56c0,0.01,0,0.02,0,0.02c0,0.28,0.08,0.58,0.32,0.79
			c0.23,0.21,0.52,0.27,0.8,0.27c0.28,0,0.58-0.07,0.81-0.27c0.23-0.21,0.31-0.5,0.32-0.77l0,0v-4.96c0.01-0.18,0.04-0.24,0.19-0.38
			c0.16-0.13,0.3-0.18,0.52-0.19h2.95c0.23,0,0.37,0.06,0.52,0.19c0.15,0.14,0.18,0.2,0.19,0.38v4.93c0-0.01,0,0.01,0,0.02
			c0,0.27,0.09,0.57,0.31,0.78c0.23,0.21,0.53,0.28,0.81,0.28l0,0c0.28,0,0.57-0.07,0.8-0.27c0.23-0.21,0.31-0.5,0.31-0.77l0,0
			v-4.96C111.46,20.44,111.46,20.44,111.46,20.44z"/>
		<path class="st0" d="M30.88,18.51c-0.56-0.51-1.27-0.77-2.05-0.77l0,0h-0.01h-2.94c-0.4,0-0.78,0.07-1.14,0.2
			c-0.19-0.13-0.42-0.2-0.66-0.2c0,0-0.02,0-0.04,0c-0.28,0-0.57,0.06-0.79,0.27c-0.23,0.21-0.32,0.51-0.32,0.78c0,0,0,0.01,0,0.03
			v6.57v0.01c0,0.28,0.08,0.57,0.32,0.78c0.23,0.21,0.52,0.27,0.8,0.27c0.28,0,0.58-0.07,0.8-0.27c0.23-0.21,0.32-0.51,0.32-0.78
			v-4.95c0.01-0.18,0.04-0.24,0.19-0.38c0.16-0.13,0.29-0.18,0.52-0.19h2.94c0.23,0,0.37,0.06,0.52,0.19
			c0.15,0.14,0.18,0.2,0.19,0.38v4.93c0,0,0,0,0,0.01c0,0.28,0.09,0.57,0.32,0.78s0.52,0.28,0.81,0.28c0.28,0,0.57-0.07,0.8-0.27
			c0.23-0.21,0.31-0.5,0.32-0.78v-4.96c0-0.01,0-0.01,0-0.01C31.76,19.69,31.45,19.01,30.88,18.51z"/>
		<g>
			<path class="st0" d="M79.15,32.51c0,0.31-0.1,0.58-0.29,0.81c-0.19,0.23-0.46,0.43-0.79,0.58c-0.33,0.16-0.72,0.27-1.16,0.35
				c-0.44,0.08-0.92,0.12-1.42,0.12c-0.34,0-0.66-0.02-0.95-0.05c-0.29-0.03-0.55-0.07-0.77-0.12c-0.23-0.05-0.41-0.1-0.56-0.15
				c-0.15-0.05-0.26-0.1-0.33-0.14c-0.06-0.04-0.11-0.1-0.14-0.17c-0.03-0.07-0.04-0.18-0.04-0.32c0-0.09,0.01-0.17,0.02-0.23
				c0.01-0.06,0.03-0.11,0.05-0.15s0.05-0.07,0.09-0.08c0.04-0.02,0.08-0.02,0.13-0.02c0.07,0,0.17,0.02,0.3,0.07
				c0.13,0.05,0.3,0.1,0.5,0.17c0.21,0.06,0.45,0.12,0.73,0.17c0.28,0.05,0.61,0.08,0.98,0.08c0.24,0,0.46-0.02,0.66-0.05
				c0.19-0.03,0.36-0.09,0.49-0.15c0.13-0.06,0.24-0.14,0.31-0.24c0.07-0.09,0.11-0.2,0.11-0.31c0-0.13-0.06-0.25-0.18-0.34
				c-0.12-0.1-0.28-0.18-0.48-0.26c-0.2-0.07-0.42-0.14-0.67-0.21c-0.25-0.06-0.51-0.13-0.77-0.21c-0.27-0.07-0.52-0.15-0.77-0.25
				c-0.25-0.09-0.47-0.2-0.67-0.33s-0.35-0.28-0.48-0.46c-0.13-0.18-0.18-0.39-0.18-0.63c0-0.28,0.09-0.53,0.26-0.74
				c0.18-0.21,0.41-0.39,0.71-0.53c0.3-0.14,0.65-0.25,1.06-0.31c0.4-0.07,0.83-0.1,1.29-0.1c0.23,0,0.47,0.01,0.7,0.03
				s0.45,0.05,0.66,0.09c0.21,0.04,0.38,0.08,0.54,0.12c0.16,0.04,0.26,0.08,0.31,0.11c0.05,0.03,0.09,0.06,0.1,0.08
				c0.02,0.02,0.03,0.05,0.05,0.08c0.01,0.04,0.02,0.08,0.02,0.13c0.01,0.06,0.01,0.12,0.01,0.2c0,0.09,0,0.16-0.01,0.22
				s-0.02,0.11-0.04,0.15c-0.02,0.04-0.04,0.07-0.08,0.09c-0.03,0.02-0.08,0.03-0.13,0.03c-0.06,0-0.15-0.02-0.27-0.06
				c-0.12-0.04-0.27-0.09-0.45-0.14c-0.18-0.05-0.39-0.1-0.62-0.14s-0.49-0.06-0.77-0.06c-0.22,0-0.41,0.02-0.57,0.05
				s-0.3,0.07-0.41,0.13s-0.19,0.12-0.24,0.2c-0.05,0.08-0.08,0.16-0.08,0.25c0,0.13,0.06,0.24,0.18,0.34
				c0.12,0.09,0.28,0.18,0.48,0.25c0.2,0.07,0.43,0.14,0.68,0.21c0.25,0.06,0.52,0.13,0.78,0.21c0.26,0.07,0.52,0.16,0.78,0.25
				c0.25,0.09,0.48,0.2,0.68,0.33c0.2,0.13,0.36,0.28,0.48,0.45C79.09,32.07,79.15,32.27,79.15,32.51z"/>
			<path class="st0" d="M88.9,31.25c0,0.54-0.12,1-0.36,1.38c-0.24,0.38-0.58,0.7-1.02,0.94s-0.98,0.42-1.61,0.53
				c-0.64,0.11-1.39,0.17-2.27,0.17h-2.36c-0.17,0-0.31-0.03-0.42-0.09c-0.11-0.06-0.17-0.15-0.17-0.29v-5.12
				c0-0.13,0.06-0.23,0.17-0.29c0.12-0.06,0.26-0.09,0.42-0.09h2.54c0.88,0,1.63,0.06,2.24,0.18c0.61,0.12,1.13,0.3,1.55,0.54
				c0.42,0.24,0.74,0.54,0.96,0.89C88.79,30.37,88.9,30.78,88.9,31.25z M86.82,31.29c0-0.28-0.05-0.54-0.16-0.78
				c-0.11-0.24-0.29-0.45-0.53-0.62c-0.24-0.18-0.55-0.31-0.93-0.41c-0.38-0.1-0.88-0.15-1.49-0.15h-1.02v4h1.05
				c0.55,0,1.01-0.04,1.39-0.13c0.38-0.08,0.69-0.21,0.94-0.39c0.25-0.17,0.44-0.38,0.56-0.64C86.76,31.92,86.82,31.63,86.82,31.29z
				"/>
			<path class="st0" d="M92.57,34.11c0,0.03-0.02,0.06-0.05,0.08c-0.03,0.02-0.09,0.04-0.16,0.06c-0.08,0.02-0.18,0.03-0.31,0.04
				c-0.13,0.01-0.29,0.01-0.49,0.01c-0.19,0-0.35,0-0.48-0.01c-0.13-0.01-0.23-0.02-0.31-0.04c-0.08-0.01-0.13-0.03-0.17-0.06
				c-0.03-0.02-0.05-0.05-0.05-0.08v-5.55c0-0.03,0.02-0.06,0.05-0.08c0.03-0.02,0.09-0.04,0.17-0.06s0.18-0.03,0.31-0.04
				c0.13-0.01,0.29-0.01,0.48-0.01c0.2,0,0.36,0,0.49,0.01c0.13,0.01,0.23,0.02,0.31,0.04s0.13,0.03,0.16,0.06
				c0.03,0.02,0.05,0.05,0.05,0.08V34.11L92.57,34.11z"/>
		</g>
	</g>
</g>
</svg>
