<?xml version="1.0" encoding="utf-8"?>
<!-- Generator: Adobe Illustrator 15.1.0, SVG Export Plug-In . SVG Version: 6.00 Build 0)  -->
<!DOCTYPE svg PUBLIC "-//W3C//DTD SVG 1.1//EN" "http://www.w3.org/Graphics/SVG/1.1/DTD/svg11.dtd">
<svg version="1.1" id="Calque_1_-_copie" xmlns="http://www.w3.org/2000/svg" xmlns:xlink="http://www.w3.org/1999/xlink" x="0px"
	 y="0px" width="112.116px" height="45px" viewBox="-33.226 0 112.116 45" enable-background="new -33.226 0 112.116 45"
	 xml:space="preserve">
<g id="Calque_7_1_">
	<g>
		<path fill="#878787" d="M47.783,9.4c-0.394-0.179-0.803-0.354-1.226-0.523L46.39,9.295c0.418,0.167,0.821,0.34,1.208,0.516
			L47.783,9.4z"/>
		<g>
			<path fill="#878787" d="M2.949,34.952L2.949,34.952c0.326,0.309,0.647,0.611,0.966,0.908l0.307-0.33
				c-0.318-0.295-0.638-0.598-0.962-0.906L2.949,34.952z"/>
			<path fill="#878787" d="M-0.72,3.943l0.045,0.449c0.431-0.044,0.868-0.08,1.312-0.111l-0.031-0.45
				C0.158,3.863-0.285,3.898-0.72,3.943z"/>
			<path fill="#878787" d="M1.043,33.11L1.043,33.11c0.32,0.312,0.636,0.623,0.95,0.924l0.314-0.324
				c-0.312-0.301-0.628-0.607-0.947-0.922L1.043,33.11z"/>
			<path fill="#878787" d="M-4.426,27.327L-4.426,27.327c0.289,0.334,0.58,0.668,0.875,0.996l0.337-0.299
				c-0.293-0.33-0.584-0.66-0.87-0.992L-4.426,27.327z"/>
			<path fill="#878787" d="M-0.833,31.235c0.31,0.318,0.622,0.633,0.935,0.945l0.318-0.322c-0.311-0.309-0.621-0.621-0.929-0.938
				L-0.833,31.235z"/>
			<path fill="#878787" d="M5.917,3.71L5.917,3.71C5.503,3.705,5.09,3.701,4.682,3.701H4.59l0.001,0.451c0.03,0,0.061,0,0.091,0
				c0.405,0,0.815,0.003,1.228,0.01L5.917,3.71z"/>
			<path fill="#878787" d="M-2.661,29.308h0.001c0.298,0.326,0.601,0.65,0.905,0.971l0.328-0.311
				c-0.303-0.318-0.604-0.641-0.901-0.965L-2.661,29.308z"/>
			<path fill="#878787" d="M4.895,36.755c0.334,0.301,0.665,0.594,0.995,0.881l0.295-0.342c-0.327-0.283-0.656-0.574-0.988-0.873
				L4.895,36.755z"/>
			<path fill="#878787" d="M11.204,41.624c0.385,0.232,0.77,0.457,1.156,0.666l0.215-0.396c-0.379-0.207-0.757-0.424-1.136-0.656
				L11.204,41.624z"/>
			<path fill="#878787" d="M16.506,4.335c-0.439-0.039-0.879-0.077-1.32-0.113l-0.037,0.451c0.44,0.035,0.879,0.073,1.319,0.112
				L16.506,4.335z"/>
			<path fill="#878787" d="M13.55,42.896c0.406,0.189,0.815,0.367,1.228,0.527l0.166-0.418c-0.403-0.158-0.803-0.332-1.201-0.52
				L13.55,42.896z"/>
			<path fill="#878787" d="M6.901,38.495c0.347,0.285,0.691,0.564,1.034,0.834l0.278-0.354c-0.339-0.27-0.68-0.543-1.024-0.828
				L6.901,38.495z"/>
			<path fill="#878787" d="M9.895,3.854l-0.024,0.45c0.438,0.023,0.879,0.05,1.32,0.077L11.22,3.93
				C10.777,3.903,10.334,3.876,9.895,3.854z"/>
			<path fill="#878787" d="M7.23,4.192c0.437,0.013,0.878,0.03,1.32,0.049L8.569,3.79C8.125,3.771,7.682,3.755,7.244,3.741
				L7.23,4.192z"/>
			<path fill="#878787" d="M3.271,4.167L3.262,3.716c-0.448,0.009-0.891,0.022-1.329,0.04l0.021,0.452
				C2.387,4.188,2.826,4.175,3.271,4.167z"/>
			<path fill="#878787" d="M13.866,4.117L13.866,4.117c-0.442-0.035-0.883-0.067-1.323-0.098l-0.032,0.45
				c0.438,0.032,0.878,0.063,1.319,0.098L13.866,4.117z"/>
			<path fill="#878787" d="M-11.405,8.778c0.035-0.043,0.069-0.085,0.104-0.128l-0.349-0.286V8.362
				c-0.036,0.048-0.073,0.092-0.109,0.138c-0.292,0.37-0.521,0.771-0.69,1.2l0.42,0.165C-11.875,9.476-11.667,9.114-11.405,8.778z"
				/>
			<path fill="#878787" d="M-7.063,5.777l-0.164-0.421l0,0C-7.653,5.523-8.063,5.704-8.456,5.9l0.203,0.404
				C-7.875,6.113-7.478,5.939-7.063,5.777z"/>
			<path fill="#878787" d="M54.125,14.021c-0.233-0.316-0.496-0.629-0.791-0.937l-0.325,0.312c0.293,0.305,0.55,0.614,0.779,0.924
				C53.886,14.208,53.999,14.109,54.125,14.021z"/>
			<path fill="#878787" d="M52.347,12.167c-0.33-0.276-0.687-0.546-1.066-0.813l-0.259,0.371c0.372,0.259,0.718,0.523,1.036,0.79
				L52.347,12.167z"/>
			<path fill="#878787" d="M16.038,43.872L16.038,43.872c0.426,0.133,0.854,0.254,1.29,0.357l0.104-0.439
				c-0.424-0.102-0.843-0.217-1.258-0.35L16.038,43.872z"/>
			<path fill="#878787" d="M-12.373,11.824c0-0.252,0.014-0.497,0.042-0.734l-0.448-0.053l0,0c-0.031,0.257-0.045,0.519-0.045,0.788
				c-0.001,0.189,0.007,0.381,0.021,0.577l0.451-0.034C-12.366,12.183-12.373,12.002-12.373,11.824z"/>
			<path fill="#878787" d="M-9.625,6.572c-0.384,0.251-0.744,0.524-1.078,0.818l0.297,0.337c0.318-0.279,0.661-0.538,1.028-0.779
				L-9.625,6.572L-9.625,6.572z"/>
			<path fill="#878787" d="M-6.124,25.286c0.274,0.342,0.555,0.686,0.84,1.027l0.347-0.287c-0.283-0.342-0.562-0.682-0.834-1.023
				L-6.124,25.286z"/>
			<path fill="#878787" d="M-12.604,13.739c0.092,0.423,0.212,0.856,0.355,1.3l0.43-0.142c-0.141-0.428-0.255-0.847-0.343-1.253
				L-12.604,13.739z"/>
			<path fill="#878787" d="M-11.783,16.294c0.166,0.401,0.349,0.808,0.549,1.22l0.406-0.197c-0.197-0.405-0.376-0.803-0.539-1.193
				L-11.783,16.294z"/>
			<path fill="#878787" d="M8.995,40.134L8.995,40.134c0.364,0.266,0.728,0.521,1.089,0.768l0.253-0.375
				c-0.358-0.24-0.716-0.494-1.075-0.756L8.995,40.134z"/>
			<path fill="#878787" d="M44.857,33.751l0.295,0.342v0.002c0.339-0.291,0.672-0.584,0.998-0.879l-0.303-0.334
				C45.524,33.173,45.194,33.464,44.857,33.751z"/>
			<path fill="#878787" d="M43.847,34.597c-0.339,0.275-0.684,0.551-1.033,0.82l0.277,0.357c0.353-0.273,0.699-0.549,1.04-0.826
				L43.847,34.597z"/>
			<path fill="#878787" d="M40.69,36.981l0.257,0.371c0.366-0.256,0.727-0.516,1.082-0.777l-0.269-0.363
				C41.408,36.472,41.05,36.729,40.69,36.981z"/>
			<path fill="#878787" d="M38.811,7.109c0.438,0.089,0.869,0.18,1.29,0.275l0.1-0.44c-0.425-0.095-0.858-0.188-1.3-0.277
				L38.811,7.109z"/>
			<path fill="#878787" d="M38.491,38.442l0.241,0.383c0.376-0.236,0.748-0.479,1.117-0.723l-0.25-0.379
				C39.233,37.97,38.864,38.21,38.491,38.442z"/>
			<path fill="#878787" d="M41.38,7.69c0.435,0.11,0.859,0.223,1.272,0.341l0.124-0.434c-0.418-0.119-0.846-0.234-1.284-0.346
				L41.38,7.69z"/>
			<path fill="#878787" d="M48.777,10.382c0.401,0.208,0.784,0.419,1.146,0.636l0.231-0.388c-0.37-0.221-0.76-0.437-1.169-0.649
				L48.777,10.382z"/>
			<path fill="#878787" d="M21.779,4.818L21.779,4.818c-0.438-0.041-0.876-0.082-1.317-0.123L20.42,5.145
				c0.441,0.042,0.88,0.083,1.318,0.123L21.779,4.818z"/>
			<path fill="#878787" d="M23.928,44.183l0.048,0.449c0.436-0.047,0.879-0.109,1.325-0.186l-0.078-0.443
				C24.787,44.077,24.355,44.138,23.928,44.183z"/>
			<path fill="#878787" d="M24.415,5.059c-0.438-0.039-0.876-0.078-1.317-0.119l-0.041,0.448c0.441,0.041,0.881,0.082,1.318,0.12
				L24.415,5.059z"/>
			<path fill="#878787" d="M27.051,5.282c-0.435-0.035-0.874-0.07-1.316-0.108l-0.039,0.449c0.442,0.038,0.883,0.075,1.32,0.109
				L27.051,5.282z"/>
			<path fill="#878787" d="M36.229,39.794l0.222,0.393l0,0c0.385-0.217,0.768-0.438,1.149-0.666l-0.23-0.387
				C36.991,39.358,36.611,39.579,36.229,39.794z"/>
			<path fill="#878787" d="M18.64,44.491c0.436,0.072,0.879,0.129,1.329,0.17l0.04-0.451c-0.438-0.039-0.869-0.094-1.295-0.164
				L18.64,44.491z"/>
			<path fill="#878787" d="M19.144,4.573c-0.439-0.042-0.878-0.081-1.318-0.12l-0.04,0.449c0.439,0.04,0.879,0.08,1.317,0.121
				L19.144,4.573z"/>
			<path fill="#878787" d="M26.51,43.743l0.102,0.441v-0.002c0.427-0.098,0.858-0.207,1.293-0.332l-0.124-0.434
				C27.354,43.538,26.931,43.647,26.51,43.743z"/>
			<path fill="#878787" d="M21.793,44.292c-0.162-0.002-0.321-0.002-0.48-0.006l-0.011,0.451c0.164,0.002,0.327,0.004,0.491,0.004
				c0.279,0,0.562-0.004,0.847-0.018l-0.018-0.451C22.343,44.286,22.066,44.292,21.793,44.292z"/>
			<path fill="#878787" d="M34.971,6.009C34.538,5.95,34.1,5.894,33.654,5.841L33.601,6.29c0.443,0.052,0.88,0.107,1.31,0.166
				L34.971,6.009z"/>
			<path fill="#878787" d="M33.9,41.022l0.197,0.404c0.397-0.193,0.793-0.396,1.187-0.604l-0.211-0.4
				C34.684,40.63,34.292,40.829,33.9,41.022z"/>
			<path fill="#878787" d="M29.657,5.923l0.033-0.451c-0.107-0.006-0.215-0.014-0.321-0.02c-0.329-0.022-0.663-0.046-0.999-0.07
				l-0.031,0.45c0.335,0.024,0.67,0.048,1.002,0.07C29.446,5.909,29.554,5.916,29.657,5.923z"/>
			<path fill="#878787" d="M37.595,6.42c-0.43-0.076-0.866-0.149-1.311-0.219l-0.07,0.446c0.441,0.069,0.875,0.14,1.302,0.217
				L37.595,6.42z"/>
			<path fill="#878787" d="M31.502,42.11l0.173,0.416l0,0c0.405-0.168,0.813-0.346,1.222-0.531l-0.188-0.41
				C32.306,41.767,31.903,41.942,31.502,42.11z"/>
			<path fill="#878787" d="M29.038,43.032l0.142,0.428c0.416-0.139,0.836-0.285,1.256-0.443l-0.158-0.424
				C29.861,42.749,29.449,42.896,29.038,43.032z"/>
			<path fill="#878787" d="M32.334,5.697c-0.436-0.045-0.874-0.084-1.321-0.122l-0.038,0.449c0.445,0.037,0.882,0.078,1.313,0.122
				L32.334,5.697z"/>
			<rect x="34.971" y="6.008" fill="#878787" width="0.001" height="0"/>
		</g>
		<g>
			<g>
				<g>
					<g opacity="0.8">
						<line fill="none" x1="19.108" y1="9.359" x2="19.108" y2="9.359"/>
						<path fill="#FEDC91" d="M19.108,9.359c1.055-0.089,1.855-0.109,2.397-0.069l1.817-0.273c-1.293,0.231-2.578,0.47-3.864,0.721
							c-3.469,0.698-7.366,1.59-11.078,2.547c-3.712,0.952-7.238,1.971-9.998,2.804c1.622-0.521,3.562-1.124,5.419-1.667
							l1.812-0.522c1.167-0.33,2.233-0.618,3.08-0.839l-0.502,0.147c1.258-0.368,2.521-0.724,3.787-1.069
							c1.273-0.315,2.55-0.619,3.829-0.913c-1.279,0.294-2.556,0.598-3.829,0.913C14.345,10.509,16.722,9.915,19.108,9.359"/>
						<line fill="none" x1="11.979" y1="11.14" x2="11.979" y2="11.14"/>
						<line fill="none" x1="-1.617" y1="15.09" x2="-1.617" y2="15.09"/>
						<line fill="none" x1="23.323" y1="9.018" x2="23.323" y2="9.018"/>
						<path fill="#FEDC91" d="M32.373,30.411l-0.164,0.033l0.904-0.232c3.574-0.828,7.128-1.744,10.397-2.693
							c3.983-1.141,8.115-2.418,12.359-3.918c0.848-0.299,1.699-0.607,2.558-0.927c-1.7,0.673-3.414,1.314-5.141,1.923l-0.51,0.17
							c-3.685,1.213-7.067,2.225-10.385,3.146C39.076,28.831,35.82,29.653,32.373,30.411"/>
						<line fill="none" x1="53.287" y1="24.597" x2="53.287" y2="24.597"/>
						<line fill="none" x1="57.841" y1="22.595" x2="57.841" y2="22.595"/>
						<path fill="#FAC019" d="M57.841,22.595c3.883-1.495,7.97-3.23,11.772-5.371l0.027,0.049c-2.106,1.184-4.443,2.321-6.872,3.355
							c-0.667,0.284-1.342,0.56-2.02,0.827l0.485-0.184C60.111,21.73,58.979,22.171,57.841,22.595"/>
						<path fill="#FAC019" d="M66.476,19.013c1.16-0.574,2.304-1.175,3.415-1.817l0.452-0.243
							C69.089,17.687,67.792,18.368,66.476,19.013"/>
						<polyline fill="#FAC019" points="31.556,31.708 30.521,31.907 31.812,31.647 31.556,31.708 						"/>
						<line fill="none" x1="30.521" y1="31.907" x2="30.521" y2="31.907"/>
						<line fill="none" x1="70.221" y1="19.415" x2="70.221" y2="19.415"/>
						<path fill="#FAC019" d="M70.221,19.415c-0.553,0.289-1.108,0.567-1.668,0.839C69.112,19.982,69.668,19.703,70.221,19.415"/>
						<polyline fill="#FAC019" points="68.553,20.253 68.314,20.373 68.553,20.253 						"/>
						<line fill="none" x1="68.997" y1="5.823" x2="68.997" y2="5.823"/>
						<path fill="#FAC019" d="M68.997,5.823c0.422,0.076,0.843,0.158,1.26,0.247C69.84,5.981,69.419,5.899,68.997,5.823"/>
						<line fill="none" x1="76.792" y1="14.695" x2="76.792" y2="14.695"/>
						<path fill="#FAC019" d="M76.792,14.695c-0.136,0.127-0.273,0.251-0.412,0.372C76.519,14.946,76.656,14.822,76.792,14.695"/>
						<path fill="#FAC019" d="M-17.385,34.374c-0.95-0.158-1.89-0.344-2.811-0.572C-19.274,34.03-18.334,34.216-17.385,34.374"/>
						<line fill="none" x1="30.521" y1="31.907" x2="30.521" y2="31.907"/>
						<polyline fill="#FAC019" points="30.521,31.907 28.447,32.28 30.521,31.907 						"/>
						<line fill="none" x1="72.222" y1="6.615" x2="72.222" y2="6.615"/>
						<line fill="none" x1="72.222" y1="6.615" x2="72.222" y2="6.615"/>
						<path fill="#FAC019" d="M72.222,6.615c0.566,0.156,1.123,0.331,1.66,0.534c-0.461-0.173-0.938-0.325-1.421-0.462L72.222,6.615
							"/>
						<path fill="#FAC019" d="M66.695,5.492c0.771,0.094,1.54,0.204,2.302,0.331c-0.509-0.084-1.021-0.158-1.533-0.226L66.695,5.492
							"/>
						<line fill="none" x1="68.997" y1="5.823" x2="68.997" y2="5.823"/>
						<path fill="#FAC019" d="M76.467,12.333c0.505-0.674,0.853-1.408,0.857-2.022c0.006-0.112,0.001-0.221-0.011-0.327
							c0.012,0.106,0.017,0.215,0.011,0.327c0.006-0.112,0.001-0.221-0.011-0.327l0.006-0.001c0.055,0.346,0.003,0.727-0.151,1.134
							C77.014,11.52,76.767,11.935,76.467,12.333"/>
						<line fill="none" x1="68.985" y1="5.897" x2="68.985" y2="5.897"/>
						<line fill="none" x1="68.985" y1="5.897" x2="68.985" y2="5.897"/>
						<path fill="#FAC019" d="M68.985,5.897c1.099,0.189,2.185,0.42,3.236,0.718c0.566,0.156,1.123,0.331,1.66,0.534
							c-0.461-0.172-0.938-0.325-1.421-0.462c0.783,0.232,1.564,0.503,2.297,0.85c0.729,0.343,1.426,0.769,1.908,1.279
							c0.24,0.254,0.418,0.524,0.519,0.795c0.015,0.033,0.023,0.068,0.035,0.102c0.011,0.032,0.013,0.049,0.021,0.073l0.018,0.084
							l0.011,0.043l0.004,0.022v0.002c-0.001-0.013,0.008,0.033-0.005-0.028l0.001,0.004l0.001,0.006
							c0.003,0.036,0.012,0.07,0.014,0.105c0.014,0.143,0.013,0.288-0.007,0.441c-0.073,0.613-0.477,1.329-1.025,1.991
							c-0.09,0.125-0.183,0.251-0.28,0.375c0.526-0.582,0.973-1.213,1.189-1.824c0.109-0.303,0.158-0.594,0.145-0.862
							c-0.002-0.067-0.011-0.133-0.021-0.199L77.28,9.923L77.278,9.91V9.908c0.013,0.06,0.004,0.016,0.007,0.029l-0.001-0.002V9.933
							l-0.003-0.011l-0.019-0.08c-0.013-0.067-0.02-0.076-0.026-0.1c-0.03-0.108-0.088-0.249-0.156-0.371
							c0.043,0.075,0.081,0.149,0.111,0.226c0.019,0.037,0.028,0.076,0.043,0.114c0.012,0.038,0.016,0.038,0.03,0.097l0.022,0.096
							l0.006,0.023l0.001,0.006v0.001c-0.002-0.014,0.007,0.03-0.006-0.03v0.001l0,0v0.002l0.002,0.007l0.004,0.031
							c0.009,0.039,0.016,0.078,0.02,0.119c0.009,0.08,0.012,0.161,0.01,0.245c0.006-0.112,0.002-0.221-0.011-0.327l-0.014-0.081
							l-0.021-0.098c-0.019-0.069-0.018-0.071-0.04-0.136c-0.035-0.104-0.078-0.207-0.135-0.309
							c0.058,0.102,0.102,0.204,0.138,0.307c0.022,0.067,0.022,0.069,0.043,0.138l0.013,0.063l0.008,0.032l0.004,0.016l0.003,0.009
							v0.003l0.001,0.001v0.002c-0.014-0.06-0.004-0.016-0.007-0.03l0,0v0.001l0.014,0.08l-0.012-0.083l-0.019-0.081l-0.008-0.04
							l-0.006-0.018c-0.01-0.037-0.03-0.11-0.056-0.174c-0.049-0.13-0.114-0.259-0.197-0.387c-0.164-0.256-0.394-0.505-0.671-0.734
							c-0.552-0.461-1.261-0.839-2.009-1.153c0.597,0.258,1.165,0.555,1.649,0.903c-0.608-0.431-1.341-0.785-2.105-1.078
							c0.154,0.055,0.307,0.114,0.456,0.175c-0.671-0.289-1.382-0.53-2.109-0.739C71.176,6.289,70.086,6.072,68.985,5.897
							 M73.887,7.138c-0.155-0.058-0.311-0.111-0.469-0.164C73.576,7.027,73.731,7.08,73.887,7.138 M77.103,9.36L77.103,9.36"/>
						<line fill="none" x1="72.461" y1="6.686" x2="72.461" y2="6.686"/>
						<path fill="#FAC017" d="M72.461,6.686c0.483,0.138,0.959,0.29,1.421,0.462C73.421,6.975,72.944,6.824,72.461,6.686"/>
						<line fill="none" x1="73.882" y1="7.148" x2="73.882" y2="7.148"/>
						<line fill="none" x1="77.319" y1="9.982" x2="77.319" y2="9.982"/>
						<path fill="#FAC017" d="M77.313,9.983c0.012,0.107,0.017,0.215,0.011,0.328C77.33,10.199,77.325,10.09,77.313,9.983"/>
						<line fill="none" x1="62.812" y1="5.195" x2="62.812" y2="5.195"/>
						<line fill="none" x1="62.812" y1="5.195" x2="62.812" y2="5.195"/>
						<path fill="#FAC019" d="M62.812,5.195c0.433,0.024,0.865,0.052,1.298,0.083c0.604,0.044,1.207,0.096,1.809,0.158
							c1.804,0.194,3.596,0.461,5.332,0.874c0.33,0.083,0.658,0.17,0.982,0.264c-1.058-0.285-2.147-0.501-3.248-0.677
							C66.958,5.547,64.89,5.333,62.812,5.195"/>
						<line fill="none" x1="72.233" y1="6.573" x2="72.233" y2="6.573"/>
						<line fill="none" x1="77.103" y1="9.36" x2="77.103" y2="9.36"/>
						<line fill="none" x1="77.103" y1="9.36" x2="77.103" y2="9.36"/>
						<path fill="#FAC019" d="M77.103,9.36c0.058,0.101,0.102,0.204,0.138,0.308c0.023,0.065,0.022,0.067,0.043,0.136l0.014,0.063
							L77.305,9.9l0.004,0.017l0.002,0.007l0.001,0.003V9.93l0.001,0.001c-0.014-0.059-0.004-0.016-0.007-0.029l0,0l0,0l0.014,0.08
							l-0.006,0.002L77.3,9.904l-0.021-0.099c-0.02-0.068-0.019-0.071-0.041-0.137C77.202,9.564,77.159,9.461,77.103,9.36"/>
						<line fill="none" x1="77.319" y1="9.982" x2="77.319" y2="9.982"/>
						<path fill="#FAC017" d="M77.103,9.36c0.058,0.101,0.102,0.204,0.138,0.308c0.023,0.065,0.022,0.067,0.043,0.136l0.014,0.063
							L77.305,9.9l0.004,0.017l0.002,0.007l0.001,0.003V9.93l0.001,0.001c-0.014-0.059-0.004-0.016-0.007-0.029l0,0l0,0l0.014,0.08
							l-0.014-0.08l0,0l0,0c0.003,0.013-0.007-0.03,0.007,0.029L77.312,9.93V9.928l-0.001-0.003l-0.002-0.007L77.305,9.9
							l-0.008-0.033l-0.014-0.063c-0.021-0.069-0.02-0.071-0.043-0.136C77.204,9.564,77.16,9.461,77.103,9.36"/>
						<line fill="none" x1="77.319" y1="9.982" x2="77.319" y2="9.982"/>
						<line fill="none" x1="62.291" y1="5.167" x2="62.291" y2="5.167"/>
						<line fill="none" x1="62.291" y1="5.167" x2="62.291" y2="5.167"/>
						<path fill="#FAC019" d="M62.291,5.167l1.021,0.051l0.799,0.06c-0.433-0.031-0.865-0.059-1.298-0.083L62.291,5.167"/>
						<line fill="none" x1="63.07" y1="5.202" x2="63.07" y2="5.202"/>
						<line fill="none" x1="63.07" y1="5.202" x2="63.07" y2="5.202"/>
						<polyline fill="#FAC019" points="63.07,5.202 63.312,5.218 63.07,5.202 						"/>
						<path fill="#FAC019" d="M63.766,5.245c0.98,0.062,1.957,0.142,2.93,0.247c-0.515-0.053-1.032-0.1-1.55-0.141
							C64.687,5.312,64.226,5.276,63.766,5.245"/>
						<line fill="none" x1="64.11" y1="5.278" x2="64.11" y2="5.278"/>
						<line fill="none" x1="77.313" y1="9.983" x2="77.313" y2="9.983"/>
						<line fill="none" x1="77.313" y1="9.983" x2="77.313" y2="9.983"/>
						<path fill="#FAC017" d="M77.313,9.983c0.012,0.107,0.017,0.215,0.011,0.328C77.33,10.199,77.325,10.09,77.313,9.983"/>
						<line fill="none" x1="77.313" y1="9.983" x2="77.313" y2="9.983"/>
						<line fill="none" x1="63.07" y1="5.202" x2="63.07" y2="5.202"/>
						<line fill="none" x1="63.07" y1="5.202" x2="63.07" y2="5.202"/>
						<polyline fill="#FAC019" points="63.07,5.202 63.766,5.245 63.07,5.202 						"/>
						<path fill="#FAC019" d="M63.312,5.218l0.454,0.027c0.46,0.031,0.921,0.066,1.38,0.106l0.773,0.084
							c-0.602-0.062-1.204-0.113-1.809-0.158c0.604,0.044,1.207,0.096,1.809,0.158c-0.602-0.062-1.204-0.113-1.809-0.158
							L63.312,5.218"/>
						<polyline fill="#FAC017" points="63.07,5.202 63.766,5.245 63.312,5.218 63.07,5.202 						"/>
						<path fill="#FAC017" d="M63.766,5.245c0.46,0.031,0.921,0.066,1.38,0.106C64.687,5.312,64.226,5.276,63.766,5.245"/>
						<line fill="none" x1="65.919" y1="5.436" x2="65.919" y2="5.436"/>
						<line fill="none" x1="65.919" y1="5.436" x2="65.919" y2="5.436"/>
						<line fill="none" x1="64.11" y1="5.278" x2="64.11" y2="5.278"/>
						<path fill="#FAC017" d="M64.11,5.278c0.604,0.044,1.207,0.096,1.809,0.158C65.317,5.374,64.714,5.323,64.11,5.278"/>
						<line fill="none" x1="65.146" y1="5.352" x2="65.146" y2="5.352"/>
						<line fill="none" x1="65.146" y1="5.352" x2="65.146" y2="5.352"/>
						<line fill="none" x1="65.146" y1="5.352" x2="65.146" y2="5.352"/>
						<line fill="none" x1="65.146" y1="5.352" x2="65.146" y2="5.352"/>
						<path fill="#FAC019" d="M65.146,5.352c0.519,0.041,1.035,0.088,1.55,0.141l0.769,0.105C66.694,5.5,65.922,5.419,65.146,5.352"
							/>
						<line fill="none" x1="66.695" y1="5.492" x2="66.695" y2="5.492"/>
						<line fill="none" x1="66.695" y1="5.492" x2="66.695" y2="5.492"/>
						<polyline fill="#FAC017" points="66.695,5.492 67.464,5.598 66.695,5.492 						"/>
						<path fill="#FAC017" d="M65.146,5.352c0.519,0.041,1.035,0.088,1.55,0.141C66.181,5.439,65.664,5.393,65.146,5.352"/>
						<line fill="none" x1="66.695" y1="5.492" x2="66.695" y2="5.492"/>
						<line fill="none" x1="65.146" y1="5.352" x2="65.146" y2="5.352"/>
						<line fill="none" x1="65.146" y1="5.352" x2="65.146" y2="5.352"/>
						<path fill="#FAC019" d="M65.146,5.352c0.776,0.068,1.549,0.148,2.318,0.246c0.427,0.062,0.852,0.131,1.274,0.206
							c-0.848-0.137-1.702-0.25-2.562-0.344l-0.258-0.023L65.146,5.352"/>
						<line fill="none" x1="67.464" y1="5.598" x2="67.464" y2="5.598"/>
						<line fill="none" x1="68.738" y1="5.804" x2="68.738" y2="5.804"/>
						<line fill="none" x1="65.146" y1="5.352" x2="65.146" y2="5.352"/>
						<line fill="none" x1="65.146" y1="5.352" x2="65.146" y2="5.352"/>
						<path fill="#FAC017" d="M65.146,5.352c0.776,0.068,1.549,0.148,2.318,0.246C66.694,5.5,65.922,5.419,65.146,5.352"/>
						<line fill="none" x1="67.464" y1="5.598" x2="67.464" y2="5.598"/>
						<line fill="none" x1="67.464" y1="5.598" x2="67.464" y2="5.598"/>
						<path fill="#FAC017" d="M73.418,6.974c0.158,0.053,0.313,0.105,0.469,0.164C73.731,7.08,73.576,7.027,73.418,6.974"/>
						<line fill="none" x1="65.919" y1="5.436" x2="65.919" y2="5.436"/>
						<line fill="none" x1="73.887" y1="7.138" x2="73.887" y2="7.138"/>
						<line fill="none" x1="73.887" y1="7.138" x2="73.887" y2="7.138"/>
						<path fill="#FAC019" d="M73.887,7.138c0.154,0.056,0.307,0.114,0.456,0.175c0.596,0.257,1.165,0.555,1.649,0.903
							C75.383,7.784,74.65,7.431,73.887,7.138"/>
						<path fill="#FAC017" d="M73.887,7.138c0.154,0.056,0.307,0.114,0.456,0.175C74.192,7.252,74.04,7.193,73.887,7.138"/>
						<line fill="none" x1="74.343" y1="7.313" x2="74.343" y2="7.313"/>
						<path fill="#FAC017" d="M74.343,7.313c0.596,0.257,1.165,0.555,1.649,0.903C75.508,7.868,74.938,7.57,74.343,7.313"/>
						<line fill="none" x1="74.343" y1="7.313" x2="74.343" y2="7.313"/>
						<line fill="none" x1="75.991" y1="8.216" x2="75.991" y2="8.216"/>
						<line fill="none" x1="71.251" y1="6.31" x2="71.251" y2="6.31"/>
						<line fill="none" x1="71.251" y1="6.31" x2="71.251" y2="6.31"/>
						<path fill="#FAC019" d="M71.251,6.31c0.496,0.116,0.986,0.247,1.468,0.391l-0.485-0.127
							C71.909,6.479,71.581,6.392,71.251,6.31"/>
						<line fill="none" x1="65.919" y1="5.436" x2="65.919" y2="5.436"/>
						<line fill="none" x1="65.919" y1="5.436" x2="65.919" y2="5.436"/>
						<path fill="#FAC019" d="M65.919,5.436l0.259,0.023c1.715,0.194,3.421,0.456,5.073,0.85C69.515,5.897,67.723,5.63,65.919,5.436
							"/>
						<polyline fill="#FAC017" points="65.919,5.436 66.178,5.459 65.919,5.436 66.178,5.459 65.919,5.436 						"/>
						<polyline fill="#FAC017" points="65.919,5.436 66.178,5.459 65.919,5.436 						"/>
						<line fill="none" x1="71.251" y1="6.31" x2="71.251" y2="6.31"/>
						<path fill="#FAC019" d="M74.68,15.976c-1.079,0.787-2.209,1.486-3.359,2.138c1.302-0.744,2.577-1.545,3.777-2.47L74.68,15.976
							"/>
						<line fill="none" x1="71.32" y1="18.114" x2="71.32" y2="18.114"/>
						<path fill="#FAC019" d="M73.168,17.068c-1.054,0.657-2.137,1.253-3.237,1.814c1.405-0.734,2.786-1.523,4.108-2.423
							C73.752,16.668,73.462,16.871,73.168,17.068"/>
						<line fill="none" x1="69.931" y1="18.882" x2="69.931" y2="18.882"/>
						<line fill="none" x1="70.769" y1="18.75" x2="70.769" y2="18.75"/>
						<line fill="none" x1="70.769" y1="18.75" x2="70.769" y2="18.75"/>
						<path fill="#FAC019" d="M70.769,18.75c-3.251,1.815-6.416,3.18-9.127,4.222c1.554-0.619,3.096-1.271,4.62-1.972l-0.241,0.111
							C67.628,20.385,69.217,19.609,70.769,18.75"/>
						<line fill="none" x1="66.262" y1="21" x2="66.262" y2="21"/>
						<line fill="none" x1="66.262" y1="21" x2="66.262" y2="21"/>
						<line fill="none" x1="61.642" y1="22.972" x2="61.642" y2="22.972"/>
						<line fill="none" x1="70.769" y1="18.75" x2="70.769" y2="18.75"/>
						<line fill="none" x1="70.769" y1="18.75" x2="70.769" y2="18.75"/>
						<path fill="#FAC019" d="M70.769,18.75c-1.552,0.858-3.141,1.635-4.748,2.361L66.262,21
							C67.786,20.305,69.293,19.565,70.769,18.75"/>
						<line fill="none" x1="70.769" y1="18.75" x2="70.769" y2="18.75"/>
						<path fill="#FAC017" d="M70.769,18.75c-1.552,0.858-3.141,1.635-4.748,2.361C67.628,20.385,69.217,19.609,70.769,18.75"/>
						<line fill="none" x1="66.021" y1="21.112" x2="66.021" y2="21.112"/>
						<path fill="#FAC019" d="M72.275,17.646c-0.381,0.225-0.767,0.442-1.153,0.654c0.691-0.392,1.375-0.799,2.046-1.232
							C72.874,17.266,72.575,17.458,72.275,17.646"/>
						<line fill="none" x1="71.122" y1="18.3" x2="71.122" y2="18.3"/>
						<line fill="none" x1="78.611" y1="9.192" x2="78.611" y2="9.192"/>
						<path fill="#FAC019" d="M78.611,9.192c0.196,0.563,0.217,1.185,0.093,1.751C78.828,10.376,78.808,9.755,78.611,9.192"/>
						<path fill="#FEE4AC" d="M26.229,7.434l-1.291,0.259L23.14,8.092c2.846-0.522,5.698-1.002,9.076-1.522L31.174,6.71
							c3.636-0.577,6.249-0.88,9.383-1.234c-2.223,0.224-4.768,0.536-7.274,0.889C30.774,6.714,28.306,7.102,26.229,7.434
							 M31.175,6.71L31.175,6.71"/>
						<line fill="none" x1="32.216" y1="6.569" x2="32.216" y2="6.569"/>
						<line fill="none" x1="40.558" y1="5.476" x2="40.558" y2="5.476"/>
						<line fill="none" x1="46.042" y1="4.855" x2="46.042" y2="4.855"/>
						<polyline fill="#FAC019" points="46.042,4.855 47.091,4.771 46.042,4.855 						"/>
						<line fill="none" x1="32.216" y1="6.569" x2="32.216" y2="6.569"/>
						<polyline fill="#FAC019" points="32.216,6.569 33.777,6.335 32.216,6.569 						"/>
						<line fill="none" x1="44.47" y1="4.982" x2="44.47" y2="4.982"/>
						<polyline fill="#FAC019" points="44.47,4.982 46.042,4.855 44.47,4.982 						"/>
						<path fill="#FAC019" d="M78.589,9.793c0.08,0.561-0.006,1.132-0.195,1.648c-0.195,0.516-0.479,0.984-0.8,1.412
							c0.315-0.432,0.594-0.902,0.783-1.418c0.188-0.512,0.278-1.081,0.2-1.64L78.589,9.793"/>
						<path fill="#FAC019" d="M78.602,9.792c0.076,0.565-0.015,1.135-0.208,1.65c0.188-0.516,0.275-1.087,0.194-1.648L78.602,9.792"
							/>
						<line fill="none" x1="78.394" y1="11.441" x2="78.394" y2="11.441"/>
						<line fill="none" x1="78.542" y1="9.216" x2="78.542" y2="9.216"/>
						<line fill="none" x1="78.542" y1="9.216" x2="78.542" y2="9.216"/>
						<path fill="#FAC019" d="M78.542,9.216c0.151,0.458,0.19,0.959,0.124,1.429c-0.08,0.567-0.297,1.092-0.569,1.566
							c-0.272,0.476-0.604,0.906-0.961,1.307c0.441-0.505,0.843-1.057,1.135-1.681c0.292-0.618,0.464-1.335,0.361-2.05
							c-0.005-0.091-0.018-0.198-0.029-0.281C78.587,9.416,78.565,9.306,78.542,9.216"/>
						<line fill="none" x1="77.136" y1="13.518" x2="77.136" y2="13.518"/>
						<path fill="#FAC019" d="M78.548,9.214c0.149,0.458,0.187,0.961,0.118,1.431c0.066-0.47,0.027-0.971-0.124-1.429L78.548,9.214"
							/>
						<line fill="none" x1="78.666" y1="10.645" x2="78.666" y2="10.645"/>
						<line fill="none" x1="78.457" y1="8.936" x2="78.457" y2="8.936"/>
						<line fill="none" x1="78.457" y1="8.936" x2="78.457" y2="8.936"/>
						<path fill="#FAC019" d="M78.457,8.936c0.066,0.16,0.124,0.312,0.166,0.49c0.038,0.153,0.071,0.331,0.084,0.498
							c0.027,0.339,0.002,0.681-0.072,1.005c-0.145,0.651-0.449,1.236-0.808,1.759c0.403-0.602,0.739-1.284,0.839-2.044
							c0.069-0.47,0.032-0.972-0.118-1.431C78.522,9.119,78.49,9.028,78.457,8.936"/>
						<line fill="none" x1="77.827" y1="12.689" x2="77.827" y2="12.689"/>
						<line fill="none" x1="78.577" y1="9.795" x2="78.577" y2="9.795"/>
						<path fill="#FEE4AC" d="M78.577,9.795c0.078,0.559-0.012,1.128-0.2,1.64c-0.189,0.516-0.468,0.986-0.783,1.418
							c0.32-0.428,0.604-0.896,0.8-1.412c-0.259,0.714-0.694,1.371-1.202,1.971c-0.507,0.602-1.089,1.15-1.699,1.663
							c-1.223,1.021-2.554,1.889-3.805,2.626c1.324-0.813,2.618-1.684,3.807-2.691c0.51-0.434,0.999-0.893,1.448-1.394
							c0.446-0.503,0.855-1.046,1.16-1.656c0.305-0.605,0.501-1.297,0.435-1.997c-0.015-0.172-0.049-0.347-0.093-0.51
							c-0.046-0.174-0.106-0.334-0.183-0.492c-0.147-0.314-0.347-0.602-0.575-0.857C78.123,8.56,78.466,9.143,78.577,9.795"/>
						<path fill="#FAC017" d="M78.577,9.795c0.078,0.559-0.012,1.128-0.2,1.64c-0.189,0.516-0.468,0.986-0.783,1.418
							c0.315-0.432,0.594-0.902,0.783-1.418C78.565,10.923,78.655,10.354,78.577,9.795"/>
						<line fill="none" x1="77.594" y1="12.854" x2="77.594" y2="12.854"/>
						<line fill="none" x1="78.394" y1="11.441" x2="78.394" y2="11.441"/>
						<line fill="none" x1="78.394" y1="11.441" x2="78.394" y2="11.441"/>
						<path fill="#FAC019" d="M76.659,7.236c0.412,0.287,0.806,0.622,1.132,1.03c0.326,0.403,0.572,0.889,0.671,1.409
							c0.098,0.52,0.046,1.061-0.11,1.552c-0.153,0.495-0.397,0.947-0.676,1.359c-0.561,0.827-1.249,1.504-1.92,2.087
							c-0.675,0.581-1.341,1.065-1.942,1.467c0.236-0.167,0.464-0.334,0.688-0.505c1.077-0.823,2.024-1.661,2.775-2.608
							c0.374-0.474,0.694-0.979,0.913-1.525c0.218-0.545,0.322-1.143,0.23-1.728c-0.084-0.585-0.368-1.13-0.757-1.583
							c-0.388-0.454-0.869-0.829-1.393-1.149c-1.052-0.639-2.263-1.088-3.598-1.451l-0.428-0.113
							c0.637,0.174,1.363,0.397,2.116,0.69c0.751,0.296,1.534,0.663,2.236,1.155c0.698,0.487,1.324,1.129,1.604,1.888
							c0.141,0.375,0.194,0.767,0.175,1.133c-0.021,0.367-0.105,0.71-0.221,1.012c0.18-0.485,0.259-1.008,0.192-1.516
							c-0.066-0.51-0.28-0.989-0.584-1.396c-0.615-0.823-1.502-1.375-2.396-1.818c-0.904-0.439-1.85-0.767-2.805-1.037
							c-0.956-0.271-1.924-0.481-2.896-0.659c1.214,0.2,2.422,0.453,3.604,0.806C74.449,6.093,75.619,6.539,76.659,7.236"/>
						<line fill="none" x1="78.155" y1="11.357" x2="78.155" y2="11.357"/>
						<line fill="none" x1="77.423" y1="12.732" x2="77.423" y2="12.732"/>
						<line fill="none" x1="77.423" y1="12.732" x2="77.423" y2="12.732"/>
						<path fill="#FAC019" d="M77.423,12.732c-0.55,0.733-1.215,1.37-1.915,1.958c-0.702,0.585-1.448,1.118-2.215,1.619
							c0.652-0.436,1.288-0.896,1.895-1.392C76.006,14.271,76.788,13.565,77.423,12.732"/>
						<polyline fill="#FAC019" points="66.871,19.836 66.161,20.167 65.922,20.272 66.871,19.836 						"/>
						<path fill="#FAC019" d="M71.07,17.687c-0.38,0.215-0.762,0.425-1.147,0.63c-1.003,0.536-2.021,1.038-3.052,1.519l-0.71,0.332
							C67.831,19.407,69.476,18.593,71.07,17.687 M69.923,18.317c-1.003,0.536-2.021,1.038-3.052,1.519
							C67.901,19.355,68.92,18.853,69.923,18.317"/>
						<line fill="none" x1="66.161" y1="20.167" x2="66.161" y2="20.167"/>
						<line fill="none" x1="75.188" y1="14.917" x2="75.188" y2="14.917"/>
						<line fill="none" x1="75.188" y1="14.917" x2="75.188" y2="14.917"/>
						<path fill="#FAC019" d="M75.188,14.917c-0.606,0.496-1.242,0.956-1.895,1.392c-1.087,0.727-2.219,1.388-3.37,2.009
							c-1.003,0.536-2.021,1.038-3.052,1.519l-0.949,0.436l0.239-0.104c-1.517,0.673-3.055,1.301-4.605,1.893
							c1.781-0.718,3.546-1.48,5.275-2.308C69.453,18.568,72.732,16.874,75.188,14.917"/>
						<path fill="#FAC017" d="M75.188,14.917c-0.606,0.496-1.242,0.956-1.895,1.392C73.945,15.873,74.581,15.413,75.188,14.917"/>
						<line fill="none" x1="73.293" y1="16.309" x2="73.293" y2="16.309"/>
						<line fill="none" x1="66.871" y1="19.836" x2="66.871" y2="19.836"/>
						<line fill="none" x1="66.871" y1="19.836" x2="66.871" y2="19.836"/>
						<polyline fill="#FAC017" points="66.871,19.836 65.922,20.272 66.871,19.836 						"/>
						<line fill="none" x1="65.922" y1="20.272" x2="65.922" y2="20.272"/>
						<path fill="#FAC017" d="M69.923,18.317c-1.003,0.536-2.021,1.038-3.052,1.519C67.901,19.355,68.92,18.853,69.923,18.317"/>
						<line fill="none" x1="66.161" y1="20.167" x2="66.161" y2="20.167"/>
						<line fill="none" x1="69.923" y1="18.317" x2="69.923" y2="18.317"/>
						<path fill="#FAC017" d="M69.923,18.317c-1.003,0.536-2.021,1.038-3.052,1.519C67.901,19.355,68.92,18.853,69.923,18.317"/>
						<line fill="none" x1="65.394" y1="20.38" x2="65.394" y2="20.38"/>
						<line fill="none" x1="65.394" y1="20.38" x2="65.394" y2="20.38"/>
						<path fill="#FAC019" d="M65.394,20.38c-2.625,1.18-5.074,2.119-7.053,2.808c1.96-0.74,3.902-1.526,5.814-2.374l-0.704,0.347
							C64.102,20.909,64.75,20.648,65.394,20.38"/>
						<line fill="none" x1="8.194" y1="35.761" x2="8.194" y2="35.761"/>
						<line fill="none" x1="8.194" y1="35.761" x2="8.194" y2="35.761"/>
						<path fill="#FAC019" d="M8.194,35.761c-0.789,0.066-1.578,0.127-2.367,0.186l0.786-0.09L8.194,35.761"/>
						<path fill="#FAC017" d="M1.261,12.855c5.107-1.353,9.245-2.195,12.621-2.778c-2.559,0.606-5.109,1.256-7.645,1.955
							c-4.11,1.116-8.185,2.363-11.209,3.358c-3.025,0.992-5.009,1.705-4.994,1.582c0.005-0.033,0.174-0.135,0.531-0.309
							C-5.75,15.204-2.007,13.902,1.261,12.855"/>
						<line fill="none" x1="13.882" y1="10.078" x2="13.882" y2="10.078"/>
						<path fill="#FAC019" d="M-26.821,26.858c0.236-0.297,0.487-0.572,0.747-0.834c-0.329,0.355-0.567,0.66-0.774,0.953
							c-0.206,0.293-0.381,0.574-0.554,0.916c-0.169,0.34-0.35,0.738-0.471,1.305c-0.113,0.561-0.164,1.332,0.228,2.205
							c-0.038-0.066-0.087-0.16-0.133-0.275c-0.046-0.102-0.106-0.299-0.135-0.41c-0.086-0.342-0.123-0.748-0.075-1.201
							c0.051-0.451,0.191-0.926,0.397-1.377C-27.384,27.688-27.115,27.259-26.821,26.858"/>
						<line fill="none" x1="-18.655" y1="20.708" x2="-18.655" y2="20.708"/>
						<path fill="#FDD36F" d="M-18.655,20.708c1.925-0.935,4.48-2.109,7.202-3.229c0.666-0.274,1.34-0.547,2.018-0.814
							c-0.357,0.174-0.526,0.276-0.531,0.309c-0.014,0.123,1.97-0.59,4.995-1.582c3.024-0.995,7.099-2.243,11.208-3.358
							c-6.281,1.745-12.498,3.758-18.513,6.297c-2.004,0.852-3.98,1.764-5.909,2.779c-1.396,0.738-2.768,1.527-4.082,2.412
							c-1.309,0.885-2.579,1.855-3.653,3.041c-0.53,0.596-1.015,1.252-1.332,2.008c-0.157,0.377-0.266,0.779-0.297,1.193
							c-0.032,0.418,0.022,0.836,0.162,1.23c0.28,0.795,0.872,1.416,1.517,1.893c0.652,0.477,1.374,0.834,2.111,1.133
							c-0.239-0.117-0.476-0.24-0.708-0.373c-0.683-0.334-1.347-0.734-1.907-1.27c-0.559-0.527-0.999-1.232-1.087-2.02
							c-0.095-0.762,0.131-1.521,0.48-2.178c0.35-0.66,0.817-1.244,1.32-1.779c0.316-0.336,0.648-0.65,0.99-0.949
							c1.029-0.9,2.138-1.678,3.26-2.386c1.124-0.709,2.265-1.35,3.399-1.941c2.266-1.175,4.501-2.159,6.604-3
							c-3.242,1.383-6.556,2.93-9.668,4.849c-1.029,0.64-2.033,1.326-2.975,2.083c-0.936,0.762-1.826,1.598-2.508,2.59
							c-0.501,0.738-0.889,1.604-0.845,2.512c0.021,0.449,0.152,0.891,0.371,1.281c0.218,0.391,0.514,0.73,0.843,1.027
							c0.662,0.592,1.443,1.014,2.234,1.363c0.794,0.35,1.612,0.617,2.428,0.846c1.633,0.449,3.264,0.736,4.844,0.955
							c1.582,0.215,3.117,0.355,4.586,0.455c2.104,0.148,5.27,0.209,8.429,0.115c-1.492,0.041-2.985,0.061-4.479,0.047l-0.529,0.051
							c2.022,0.066,4.045,0.072,6.068,0.037l-1.582,0.041c-1.934,0.039-3.871,0.039-5.807-0.021
							c-1.76-0.055-3.519-0.156-5.274-0.334c-1.085-0.111-2.172-0.246-3.258-0.422h-0.001c-1.695-0.281-3.409-0.639-5.11-1.279
							c-0.846-0.326-1.695-0.721-2.475-1.307c-0.387-0.295-0.756-0.641-1.059-1.062c-0.15-0.211-0.284-0.441-0.388-0.688
							c-0.053-0.127-0.097-0.244-0.137-0.389c-0.023-0.074-0.034-0.129-0.047-0.186l-0.01-0.043l-0.011-0.061l-0.018-0.102
							l0.028,0.17l0.03,0.137c0.027,0.107,0.06,0.223,0.095,0.318c0.071,0.201,0.163,0.396,0.268,0.58
							c0.211,0.365,0.48,0.686,0.775,0.965c0.59,0.561,1.271,0.975,1.966,1.314c0.689,0.348,1.033,0.479,1.093,0.525
							c0.064,0.045-0.205-0.027-0.694-0.217c-0.487-0.197-1.202-0.504-1.969-1.055c-0.381-0.277-0.774-0.623-1.114-1.07
							c-0.169-0.223-0.324-0.473-0.446-0.746c-0.061-0.139-0.114-0.271-0.16-0.432l-0.035-0.121l-0.022-0.09l-0.01-0.045
							l-0.01-0.043l-0.004-0.027l-0.021-0.113c-0.102-0.609-0.023-1.232,0.148-1.775c0.173-0.547,0.43-1.023,0.702-1.439
							c0.108-0.16,0.224-0.311,0.341-0.459c-0.293,0.398-0.563,0.828-0.769,1.279c-0.206,0.453-0.346,0.926-0.397,1.377
							c-0.048,0.453-0.012,0.859,0.075,1.201c0.029,0.111,0.088,0.309,0.135,0.41c0.046,0.117,0.095,0.209,0.133,0.277
							c-0.392-0.875-0.341-1.646-0.228-2.207c0.121-0.566,0.301-0.963,0.471-1.305c0.172-0.342,0.347-0.623,0.554-0.916
							c0.207-0.291,0.445-0.598,0.774-0.953c0.271-0.254,0.551-0.49,0.835-0.719c0.954-0.84,1.979-1.564,3.028-2.233
							c-0.746,0.565,0.195-0.074,1.312-0.727c1.115-0.659,2.41-1.327,2.195-1.164c1.875-0.984,3.796-1.865,5.739-2.686
							c1.036-0.483,2.081-0.948,3.132-1.396c-2.226,0.823-4.486,1.757-6.152,2.493C-17.652,20.324-18.734,20.843-18.655,20.708"/>
						<path fill="#FAC017" d="M-9.966,16.973c-0.014,0.123,1.97-0.59,4.995-1.582c3.024-0.995,7.099-2.243,11.208-3.358
							c-4.11,1.116-8.184,2.363-11.208,3.358C-7.997,16.383-9.981,17.096-9.966,16.973"/>
						<path fill="#FAC017" d="M-26.075,26.024c-0.329,0.355-0.567,0.66-0.774,0.953c-0.206,0.293-0.381,0.574-0.554,0.916
							c-0.169,0.34-0.35,0.738-0.471,1.305c-0.113,0.561-0.164,1.332,0.228,2.205c-0.392-0.873-0.341-1.645-0.228-2.205
							c0.121-0.566,0.301-0.965,0.471-1.305c0.172-0.342,0.348-0.623,0.554-0.916C-26.642,26.685-26.404,26.38-26.075,26.024"/>
						<line fill="none" x1="-27.163" y1="27.319" x2="-27.163" y2="27.319"/>
						<line fill="none" x1="-26.075" y1="26.024" x2="-26.075" y2="26.024"/>
						<line fill="none" x1="-9.435" y1="16.665" x2="-9.435" y2="16.665"/>
						<line fill="none" x1="-2.607" y1="36.333" x2="-2.607" y2="36.333"/>
						<line fill="none" x1="-2.607" y1="36.333" x2="-2.607" y2="36.333"/>
						<line fill="none" x1="1.085" y1="36.214" x2="1.085" y2="36.214"/>
						<path fill="#FAC019" d="M1.085,36.214c-1.23,0.055-2.461,0.094-3.692,0.119l-1.581,0.043
							c-1.934,0.039-3.871,0.039-5.807-0.021l-0.264,0.004c1.671,0.064,3.344,0.082,5.015,0.066
							c-1.847,0.033-3.695,0.025-5.544-0.039c2.112,0.117,4.754,0.125,7.394,0.045C-1.9,36.382-0.406,36.308,1.085,36.214
							 M-2.077,36.368L-2.077,36.368 M-4.188,36.376c-1.934,0.039-3.871,0.039-5.807-0.021C-8.059,36.415-6.122,36.415-4.188,36.376
							 M-4.188,36.376L-4.188,36.376"/>
						<line fill="none" x1="-4.188" y1="36.376" x2="-4.188" y2="36.376"/>
						<path fill="#FAC017" d="M-4.188,36.376c-1.934,0.039-3.871,0.039-5.807-0.021C-8.059,36.415-6.122,36.415-4.188,36.376"/>
						<path fill="#FAC019" d="M-26.289,26.2l0.214-0.176c-0.259,0.262-0.51,0.537-0.747,0.836
							C-26.651,26.63-26.473,26.413-26.289,26.2"/>
						<line fill="none" x1="-26.075" y1="26.024" x2="-26.075" y2="26.024"/>
						<line fill="none" x1="-3.885" y1="15.754" x2="-3.885" y2="15.754"/>
						<polyline fill="#FAC019" points="-3.885,15.754 -3.622,15.709 -3.885,15.754 						"/>
						<path opacity="0.8" fill="#FEDC91" enable-background="new    " d="M-28.522,28.767c0.168-0.549,0.39-0.979,0.603-1.334
							c0.215-0.354,0.426-0.635,0.617-0.869c0.384-0.467,0.688-0.754,0.905-0.949c0.438-0.381,0.537-0.387,0.484-0.266
							c-0.052,0.123-0.242,0.393-0.367,0.607c-0.124,0.215-0.188,0.367-0.009,0.244c-0.184,0.213-0.362,0.43-0.532,0.658
							c-0.117,0.15-0.233,0.301-0.341,0.461c-0.272,0.416-0.529,0.893-0.702,1.439c-0.172,0.543-0.25,1.166-0.148,1.775l0.021,0.113
							l0.004,0.027l0.01,0.041l0.01,0.047l0.022,0.09l0.035,0.121c0.046,0.16,0.1,0.291,0.16,0.432
							c0.123,0.273,0.277,0.521,0.446,0.746c0.339,0.447,0.733,0.793,1.114,1.07c0.767,0.551,1.482,0.857,1.969,1.055
							c0.489,0.188,0.758,0.262,0.694,0.217c-0.061-0.049-0.404-0.178-1.093-0.525c-0.695-0.342-1.375-0.754-1.966-1.314
							c-0.294-0.279-0.563-0.6-0.775-0.965c-0.105-0.184-0.196-0.379-0.268-0.58c-0.035-0.098-0.068-0.211-0.095-0.32l-0.03-0.135
							l-0.028-0.17l0.018,0.1l0.011,0.062l0.01,0.043c0.014,0.057,0.024,0.111,0.047,0.186c0.04,0.145,0.083,0.262,0.137,0.387
							c0.104,0.248,0.238,0.479,0.388,0.689c0.302,0.422,0.672,0.768,1.059,1.061c0.78,0.586,1.629,0.982,2.475,1.309
							c1.702,0.641,3.416,0.996,5.11,1.277c1.087,0.178,2.174,0.312,3.259,0.424c1.755,0.178,3.515,0.279,5.274,0.334l-0.264,0.004
							c-1.585-0.051-3.169-0.145-4.751-0.297c2.631,0.314,6.336,0.432,9.767,0.363c-1.847,0.033-3.696,0.025-5.544-0.039
							c2.111,0.117,4.754,0.125,7.393,0.045l-0.791,0.055c1.057,0.012,2.114,0.01,3.171,0c-2.025,0.072-4.051,0.105-6.079,0.084
							c-0.704,0.021-1.409,0.039-2.114,0.047c2.113,0.135,4.766,0.266,9.001,0.121c-2.777,0.104-5.229,0.113-7.943,0.045
							c-1.358-0.037-2.782-0.096-4.347-0.201c-1.565-0.109-3.27-0.256-5.186-0.533l-0.535-0.021
							c-0.527-0.094-1.053-0.197-1.578-0.314c0.912,0.238,2.363,0.504,3.785,0.693s2.814,0.318,3.607,0.412
							c-1.592-0.119-3.184-0.281-4.772-0.52c0.129,0.051,0.789,0.164,1.518,0.266c0.729,0.104,1.525,0.191,1.922,0.246
							c-1.965-0.186-3.084-0.398-4.281-0.633c-0.598-0.119-1.216-0.252-1.968-0.424c-0.751-0.174-1.638-0.381-2.764-0.736
							l-0.205-0.066l-0.315-0.107c-0.996-0.352-1.855-0.748-2.569-1.203c-0.713-0.451-1.28-0.967-1.666-1.51
							c-0.193-0.27-0.342-0.541-0.45-0.797c-0.053-0.129-0.099-0.25-0.139-0.387l-0.043-0.154l-0.009-0.031l-0.004-0.016
							l-0.009-0.041l-0.018-0.08c-0.09-0.426-0.089-0.732-0.097-0.92c0.002-0.371-0.064-0.301-0.139,0.166
							c-0.029,0.236-0.046,0.582,0.028,1.002c0.07,0.428,0.244,0.922,0.54,1.404c-0.385-0.584-0.644-1.322-0.667-2.057
							c-0.031-0.504,0.03-0.877,0.08-1.145c0.054-0.268,0.103-0.439,0.132-0.547c0.061-0.211,0.031-0.178-0.026-0.062
							C-28.446,28.688-28.625,29.29-28.522,28.767"/>
						<path fill="#FAC017" d="M-23.527,34.493c-0.061-0.049-0.404-0.178-1.093-0.525c-0.694-0.342-1.375-0.754-1.966-1.314
							c-0.294-0.279-0.563-0.6-0.774-0.965c-0.106-0.184-0.197-0.379-0.268-0.58c-0.036-0.098-0.068-0.213-0.095-0.32l-0.031-0.135
							l-0.028-0.17l0.028,0.17l0.031,0.135c0.027,0.107,0.06,0.223,0.095,0.32c0.071,0.201,0.162,0.396,0.268,0.58
							c0.211,0.365,0.48,0.686,0.774,0.965c0.591,0.561,1.271,0.973,1.966,1.314C-23.931,34.315-23.588,34.444-23.527,34.493"/>
						<path fill="#FAC017" d="M-27.783,30.483l0.017,0.1l0.011,0.062l0.01,0.043c0.014,0.057,0.024,0.111,0.047,0.186
							c0.04,0.145,0.083,0.262,0.137,0.387c0.104,0.248,0.237,0.479,0.388,0.689c0.302,0.422,0.671,0.768,1.059,1.061
							c0.779,0.586,1.629,0.982,2.474,1.309c1.702,0.641,3.416,0.996,5.11,1.277c-1.694-0.281-3.409-0.637-5.11-1.277
							c-0.845-0.326-1.695-0.721-2.474-1.309c-0.387-0.293-0.756-0.639-1.059-1.061c-0.151-0.211-0.284-0.441-0.388-0.689
							c-0.053-0.125-0.097-0.242-0.137-0.387c-0.023-0.074-0.034-0.129-0.047-0.186l-0.01-0.043l-0.011-0.062L-27.783,30.483"/>
						<path fill="#FAC017" d="M-5.244,36.425c-1.847,0.033-3.695,0.025-5.544-0.039C-8.939,36.45-7.09,36.458-5.244,36.425"/>
						<line fill="none" x1="-10.788" y1="36.386" x2="-10.788" y2="36.386"/>
						<polyline fill="#FAC017" points="-10.259,36.358 -9.995,36.354 -10.259,36.358 						"/>
						<line fill="none" x1="-27.842" y1="32.276" x2="-27.842" y2="32.276"/>
						<line fill="none" x1="-13.734" y1="36.81" x2="-13.734" y2="36.81"/>
						<line fill="none" x1="-0.206" y1="36.737" x2="-0.206" y2="36.737"/>
						<line fill="none" x1="-12.403" y1="36.817" x2="-12.403" y2="36.817"/>
						<line fill="none" x1="-22.952" y1="34.95" x2="-22.952" y2="34.95"/>
						<line fill="none" x1="-18.217" y1="36.026" x2="-18.217" y2="36.026"/>
						<line fill="none" x1="-1.015" y1="36.485" x2="-1.015" y2="36.485"/>
						<line fill="none" x1="-5.244" y1="36.425" x2="-5.244" y2="36.425"/>
						<line fill="none" x1="-10.259" y1="36.358" x2="-10.259" y2="36.358"/>
						<line fill="none" x1="5.011" y1="35.69" x2="5.011" y2="35.69"/>
						<path opacity="0.8" fill="#FEDC91" enable-background="new    " d="M5.011,35.69l1.045-0.107l1.309-0.164l-1.573,0.139
							l1.573-0.139l0.258-0.076c-1.225,0.102-2.45,0.193-3.676,0.27l2.097-0.166c-1.05,0.078-2.099,0.143-3.15,0.201
							c1.313-0.086,2.625-0.186,3.935-0.301l-0.003-0.029l-1.312,0.098c-3.144,0.266-6.559,0.48-9.452,0.525
							c1.347-0.047,2.696-0.111,4.054-0.191c2.87-0.168,5.775-0.404,8.795-0.73l1.043-0.129c-3.924,0.424-8.381,0.754-11.272,0.805
							l0.847-0.043c2.712-0.152,5.013-0.314,7.322-0.514c2.309-0.203,4.625-0.443,7.359-0.812l0.435-0.061
							c-1.306,0.152-3.003,0.348-4.703,0.518c-1.7,0.17-3.402,0.316-4.712,0.404c4.19-0.326,8.111-0.756,12.02-1.279l0.521-0.078
							c5.202-0.771,9.859-1.621,14.493-2.596c-1.977,0.4-3.958,0.777-5.943,1.129c1.985-0.352,3.967-0.729,5.943-1.129
							c3.73-0.783,7.315-1.625,10.849-2.549c3.532-0.922,7.012-1.922,10.52-3.057c-1.844,0.574-3.697,1.113-5.559,1.627
							c3.514-1.104,7.517-2.412,10.708-3.646c-2.594,0.953-5.031,1.75-7.45,2.492c-2.421,0.74-4.822,1.422-7.36,2.105
							c2.538-0.684,4.939-1.365,7.36-2.105c2.419-0.742,4.857-1.539,7.45-2.492l0.978-0.378c-2.103,0.759-4.527,1.587-6.972,2.354
							c-2.443,0.77-4.905,1.482-7.064,2.057c3.036-0.85,5.568-1.559,9.051-2.738l-1.001,0.314l-1.502,0.488l1.502-0.488
							c3.241-1.076,5.961-2.052,8.649-3.125c2.879-1.287,6.202-2.883,9.334-4.793c0.521-0.317,1.034-0.648,1.538-0.991
							c-1.087,0.727-2.218,1.388-3.37,2.009c0.386-0.205,0.768-0.415,1.147-0.63c-1.595,0.906-3.239,1.72-4.909,2.48
							c-1.517,0.673-3.055,1.301-4.605,1.893c1.782-0.719,3.546-1.48,5.275-2.308c-0.477,0.214-0.955,0.423-1.438,0.628
							c-2.625,1.18-5.074,2.118-7.053,2.808c1.96-0.741,3.903-1.526,5.815-2.375c1.105-0.516,2.2-1.053,3.278-1.617l-0.513,0.134
							c-2.023,0.901-5.344,2.319-9.435,3.816l-0.735,0.269l0.275-0.002l-1.25,0.383c-0.731,0.283-1.468,0.559-2.204,0.828
							c-0.746,0.246-1.494,0.486-2.243,0.723c-1.23,0.451-2.854,0.967-4.615,1.479c-1.76,0.512-3.659,1.018-5.438,1.475l1.529-0.373
							c-0.8,0.254-1.771,0.523-2.796,0.785c-1.539,0.391-3.193,0.762-4.576,1.068c-1.019,0.219-2.04,0.43-3.061,0.631l-0.275,0.061
							l0.111-0.027l-0.113,0.021c-1.454,0.311-2.909,0.604-4.368,0.885l-2.322,0.41l-1.297,0.207l1.297-0.207l1.547-0.275
							l-1.293,0.209l2.579-0.469c-1.721,0.316-3.442,0.611-5.165,0.891l-1.812,0.293l0.516-0.092l-2.335,0.336
							c-1.641,0.242-3.284,0.465-4.929,0.67c-1.124,0.16-2.248,0.312-3.374,0.455c0.953-0.123,1.904-0.254,2.855-0.391l1.553-0.229
							c-1.728,0.24-3.459,0.459-5.191,0.656l0.256-0.061c-2.083,0.23-4.685,0.49-7.29,0.688l-0.258,0.021
							c-1.476,0.121-2.952,0.225-4.429,0.305c1.303-0.074,2.605-0.168,3.906-0.277L2.28,34.454
							c-2.508,0.188-5.185,0.357-7.895,0.402c-0.666,0.01-1.335,0.014-2.003,0.008l0.519,0.012c-1.301,0.008-2.6-0.01-3.897-0.053
							c-2.204-0.059-4.338-0.193-6.389-0.449c0.573,0.096,1.149,0.18,1.729,0.254c-0.579-0.074-1.156-0.158-1.729-0.254
							c-1.841-0.234-3.614-0.561-5.218-1.076c-0.8-0.26-1.556-0.57-2.211-0.953c-0.652-0.383-1.2-0.852-1.497-1.371
							c-0.074-0.127-0.137-0.27-0.178-0.393c-0.009-0.033-0.017-0.039-0.03-0.098l-0.018-0.072l-0.009-0.035
							c0.002,0.008-0.005-0.025,0.003,0.018l0-0.004l-0.001-0.008l-0.002-0.012c-0.015-0.07-0.026-0.139-0.034-0.211
							c-0.032-0.281,0-0.576,0.077-0.873c0.158-0.598,0.501-1.186,0.899-1.713c0.808-1.064,1.806-1.934,2.742-2.686
							c-0.717,0.541-1.403,1.119-2.013,1.738c-0.606,0.621-1.146,1.291-1.486,1.992c-0.346,0.701-0.447,1.414-0.238,2.021
							c0.199,0.604,0.689,1.123,1.257,1.523c0.858,0.613,1.915,1.041,2.997,1.383c1.088,0.34,2.224,0.588,3.375,0.791
							c2.31,0.396,4.693,0.604,7.13,0.721c0.537,0.025,1.073,0.045,1.615,0.061c-1.824-0.018-3.646-0.088-5.458-0.244l0.259,0.025
							c-0.433-0.029-0.863-0.066-1.294-0.105c0.344,0.031,0.69,0.057,1.035,0.08c-2.063-0.217-3.986-0.516-5.766-0.984
							c-0.888-0.234-1.74-0.514-2.528-0.865c-0.783-0.355-1.511-0.789-2.043-1.342c-0.534-0.551-0.812-1.219-0.737-1.934
							c0.065-0.717,0.447-1.451,0.945-2.115c0.502-0.668,1.123-1.285,1.797-1.865c0.676-0.58,1.412-1.123,2.188-1.646
							c-0.352,0.248-0.698,0.504-1.036,0.766c1.75-1.309,3.666-2.428,5.625-3.458c1.963-1.027,3.983-1.957,6.029-2.827
							c1.511-0.685,3.039-1.336,4.58-1.958c-1.314,0.478-2.622,0.976-3.918,1.499c0.725-0.305,1.452-0.603,2.184-0.895
							c0.317-0.136,1.577-0.625,1.699-0.683c0.077-0.037-0.32,0.092-1.732,0.622c-0.705,0.267-1.664,0.637-2.933,1.161
							c-1.268,0.527-2.851,1.203-4.774,2.136c-1.334,0.653-2.647,1.347-3.925,2.099c2.135-1.274,4.252-2.328,6.245-3.258
							c1.994-0.926,3.87-1.721,5.572-2.418c-1.071,0.39-2.136,0.794-3.195,1.216c-3.24,1.382-6.556,2.93-9.668,4.849
							c-1.029,0.638-2.033,1.324-2.975,2.083c-0.937,0.762-1.827,1.596-2.508,2.59c-0.501,0.738-0.889,1.604-0.845,2.512
							c0.02,0.447,0.152,0.891,0.371,1.281c0.218,0.391,0.514,0.73,0.843,1.027c0.662,0.59,1.442,1.014,2.234,1.363
							c0.795,0.348,1.612,0.615,2.428,0.844c1.634,0.451,3.264,0.738,4.844,0.957c1.582,0.215,3.118,0.354,4.587,0.455
							c2.104,0.148,5.27,0.207,8.429,0.113l0.527-0.018l-1.581,0.016c0.79-0.012,1.58-0.029,2.37-0.053
							c-1.229,0.02-2.459,0.021-3.688,0.002c1.58,0.01,3.16-0.014,4.74-0.062l0.79-0.053c-1.317,0.051-2.635,0.084-3.952,0.098
							c1.492-0.02,2.985-0.066,4.476-0.133l1.051-0.088C2.382,35.851,3.697,35.778,5.011,35.69 M53.822,25.368L53.822,25.368
							 M53.822,25.368L53.822,25.368 M41.938,28.751c1.912-0.48,3.692-0.945,5.593-1.475c1.898-0.531,3.917-1.127,6.291-1.908
							c-2.374,0.781-4.393,1.377-6.291,1.908C45.631,27.806,43.851,28.271,41.938,28.751l-1.53,0.379l-1.021,0.252l1.021-0.252
							L41.938,28.751l-0.25,0.086c-1.357,0.35-2.717,0.684-4.082,1.008c1.365-0.324,2.725-0.658,4.082-1.008L41.938,28.751
							 M29.939,31.694L29.939,31.694 M29.939,31.694L29.939,31.694 M20.617,33.319c3.627-0.6,5.972-0.949,9.323-1.625
							C26.589,32.37,24.244,32.72,20.617,33.319 M26.067,32.446L26.067,32.446 M26.067,32.446L26.067,32.446 M17.501,33.813
							l-0.26,0.039c-0.867,0.127-1.735,0.248-2.603,0.363c0.868-0.115,1.736-0.236,2.603-0.363L17.501,33.813
							c3.122-0.451,5.462-0.803,8.566-1.367C22.963,33.011,20.623,33.362,17.501,33.813 M26.318,32.362L26.318,32.362
							 M39.146,29.499l-1.528,0.395L39.146,29.499 M18.282,33.712L18.282,33.712 M20.617,33.319L20.617,33.319 M17.501,33.813
							L17.501,33.813 M43.969,28.206L43.969,28.206 M37.606,29.845L37.606,29.845 M71.07,17.687L71.07,17.687 M-25.396,26.661
							c0.757-0.816,1.627-1.539,2.535-2.209c0.909-0.67,1.86-1.286,2.833-1.869c-0.973,0.583-1.925,1.199-2.833,1.869
							C-23.769,25.122-24.639,25.845-25.396,26.661 M-25.396,26.661c0.757-0.816,1.627-1.539,2.535-2.209
							c0.909-0.67,1.86-1.286,2.833-1.869c-0.973,0.583-1.925,1.199-2.833,1.869C-23.769,25.122-24.639,25.845-25.396,26.661
							 M-25.396,26.661c-0.233,0.252-0.456,0.512-0.659,0.781c-0.201,0.273-0.387,0.555-0.542,0.848
							c-0.158,0.293-0.286,0.598-0.372,0.91c-0.078,0.295-0.116,0.596-0.101,0.891l0.006,0.092c0.007,0.074,0.014,0.148,0.027,0.221
							c0.007,0.033,0.013,0.08,0.02,0.104l0.029,0.123c0.036,0.131,0.087,0.277,0.148,0.41c0.134,0.283,0.316,0.547,0.535,0.785
							c0.215,0.24,0.466,0.455,0.732,0.65c0.271,0.195,0.558,0.369,0.855,0.527s0.606,0.301,0.921,0.432
							c0.235,0.098,0.475,0.189,0.717,0.275c0.322,0.113,0.65,0.217,0.98,0.312c0.331,0.096,0.665,0.184,1.001,0.264
							c0.335,0.08,0.671,0.154,1.01,0.221c0.255,0.051,0.512,0.098,0.768,0.141c0.341,0.061,0.683,0.115,1.026,0.166l0.773,0.098
							c-1.983-0.275-3.811-0.637-5.471-1.209c-0.827-0.289-1.614-0.633-2.307-1.08c-0.687-0.445-1.288-1.014-1.573-1.717
							c-0.021-0.051-0.038-0.102-0.057-0.154c-0.014-0.049-0.03-0.09-0.044-0.148l-0.031-0.127l-0.022-0.121
							c-0.059-0.365-0.031-0.746,0.064-1.121c0.024-0.088,0.048-0.176,0.08-0.264c0.102-0.307,0.248-0.604,0.415-0.893
							c0.095-0.158,0.195-0.316,0.303-0.471C-25.931,27.278-25.676,26.966-25.396,26.661 M-10.546,18.144
							c-0.422,0.169-0.852,0.348-1.283,0.529l-0.891,0.382l-0.961,0.423l-0.949,0.437l-1.184,0.566l-0.56,0.281
							c-0.506,0.255-1.011,0.518-1.511,0.788l-0.021,0.012c-0.307,0.166-0.611,0.334-0.914,0.506
							c0.303-0.172,0.607-0.34,0.914-0.506c-0.307,0.166-0.611,0.334-0.914,0.506c0.303-0.172,0.607-0.34,0.914-0.506l0.007-0.006
							c-0.31,0.168-0.614,0.337-0.921,0.512c0.368-0.209,0.774-0.434,1.189-0.652l0.653-0.34c0.387-0.198,0.776-0.392,1.168-0.583
							l0.371-0.18l1.107-0.52l0.656-0.297l0.683-0.306C-12.146,18.817-11.316,18.465-10.546,18.144 M-10.546,18.144L-10.546,18.144
							 M58.023,23.088L58.023,23.088 M57.027,23.413l0.006,0.018l0.99-0.343L57.027,23.413"/>
						<path fill="#FEDC91" d="M-25.396,26.661c-0.457,0.492-0.872,1.025-1.187,1.604c-0.312,0.576-0.517,1.209-0.487,1.826
							c-0.015-0.295,0.023-0.596,0.101-0.891c0.086-0.312,0.214-0.615,0.372-0.91c0.155-0.293,0.341-0.574,0.542-0.848
							C-25.852,27.173-25.629,26.913-25.396,26.661"/>
						<path fill="#FEDC91" d="M-26.165,27.606c-0.108,0.154-0.209,0.312-0.303,0.471c-0.167,0.289-0.313,0.586-0.415,0.893
							c-0.031,0.088-0.056,0.176-0.079,0.264C-26.818,28.667-26.524,28.118-26.165,27.606"/>
						<path fill="#FEDC91" d="M-27.064,30.183c0.009,0.111,0.027,0.234,0.051,0.338c0.031,0.137,0.057,0.219,0.1,0.332
							c0.078,0.217,0.19,0.42,0.323,0.613c0.266,0.385,0.621,0.717,1.012,1.002c0.788,0.566,1.7,0.965,2.616,1.279
							c1.842,0.625,3.714,0.943,5.442,1.164l-0.772-0.098c-0.344-0.051-0.686-0.105-1.026-0.166
							c-0.257-0.043-0.513-0.09-0.769-0.141c-0.338-0.066-0.675-0.141-1.009-0.221c-0.336-0.082-0.67-0.168-1.001-0.264
							c-0.33-0.096-0.658-0.199-0.98-0.312c-0.242-0.086-0.481-0.178-0.717-0.275c-0.315-0.131-0.623-0.273-0.92-0.432
							c-0.298-0.158-0.585-0.334-0.855-0.527c-0.267-0.195-0.518-0.412-0.732-0.65c-0.219-0.238-0.401-0.502-0.535-0.785
							c-0.061-0.135-0.113-0.279-0.148-0.41l-0.028-0.123c-0.007-0.025-0.013-0.07-0.02-0.104
							C-27.051,30.331-27.057,30.257-27.064,30.183"/>
						<path fill="#FEDC91" d="M-27.026,30.354l0.022,0.121l0.031,0.127c0.014,0.059,0.029,0.1,0.043,0.148
							c0.02,0.053,0.036,0.104,0.057,0.154c-0.036-0.09-0.066-0.18-0.091-0.264l-0.039-0.154L-27.026,30.354"/>
						<polyline fill="#FAC226" points="32.098,30.474 32.209,30.444 32.373,30.411 32.098,30.474 						"/>
						<line fill="none" x1="-15.656" y1="34.628" x2="-15.656" y2="34.628"/>
						<path fill="#FAC017" d="M-15.656,34.628c-0.579-0.074-1.156-0.158-1.729-0.254C-16.812,34.47-16.235,34.554-15.656,34.628"/>
						<line fill="none" x1="71.07" y1="17.687" x2="71.07" y2="17.687"/>
						<line fill="none" x1="71.07" y1="17.687" x2="71.07" y2="17.687"/>
						<path fill="#FAC017" d="M71.07,17.687c-0.38,0.215-0.762,0.425-1.147,0.63C70.309,18.112,70.69,17.902,71.07,17.687"/>
						<path fill="#FAC017" d="M66.831,19.752c-1.729,0.828-3.494,1.59-5.275,2.308C63.337,21.342,65.102,20.58,66.831,19.752"/>
						<line fill="none" x1="61.556" y1="22.06" x2="61.556" y2="22.06"/>
						<path fill="#FAC017" d="M58.341,23.188c1.96-0.74,3.902-1.526,5.814-2.374C62.243,21.662,60.301,22.448,58.341,23.188"/>
						<path fill="#FAC017" d="M-25.396,26.661c-0.233,0.252-0.456,0.512-0.659,0.781c-0.201,0.273-0.387,0.555-0.542,0.848
							c-0.158,0.293-0.286,0.598-0.372,0.91c-0.078,0.295-0.116,0.596-0.101,0.891c-0.015-0.295,0.023-0.596,0.101-0.891
							c0.086-0.312,0.214-0.615,0.372-0.91c0.155-0.293,0.341-0.574,0.542-0.848C-25.852,27.173-25.629,26.913-25.396,26.661"/>
						<path fill="#FAC017" d="M-26.165,27.606c-0.108,0.154-0.209,0.312-0.303,0.471c-0.167,0.289-0.313,0.586-0.415,0.893
							c-0.031,0.088-0.056,0.176-0.079,0.264c0.023-0.088,0.048-0.176,0.079-0.264c0.102-0.307,0.248-0.605,0.415-0.893
							C-26.374,27.919-26.272,27.761-26.165,27.606"/>
						<path fill="#FAC017" d="M-27.064,30.183c0.007,0.074,0.014,0.148,0.027,0.221c0.007,0.033,0.013,0.08,0.02,0.104l0.029,0.123
							c0.036,0.131,0.087,0.277,0.148,0.41c0.134,0.283,0.316,0.547,0.535,0.785c0.215,0.24,0.466,0.455,0.732,0.65
							c0.271,0.195,0.558,0.369,0.855,0.527s0.606,0.301,0.921,0.432c0.235,0.098,0.475,0.189,0.717,0.275
							c0.322,0.113,0.65,0.217,0.98,0.312c0.331,0.096,0.665,0.184,1.001,0.264c0.335,0.08,0.671,0.154,1.01,0.221
							c0.255,0.051,0.511,0.098,0.768,0.141c0.341,0.061,0.683,0.115,1.026,0.166l0.772,0.098l-0.772-0.098
							c-0.343-0.051-0.686-0.105-1.026-0.166c-0.257-0.043-0.513-0.09-0.768-0.141c-0.338-0.066-0.675-0.141-1.01-0.221
							c-0.336-0.082-0.67-0.168-1.001-0.264c-0.33-0.096-0.658-0.199-0.98-0.312c-0.242-0.086-0.481-0.178-0.717-0.275
							c-0.315-0.131-0.623-0.273-0.921-0.432s-0.585-0.332-0.855-0.527c-0.267-0.195-0.518-0.41-0.732-0.65
							c-0.219-0.238-0.401-0.502-0.535-0.785c-0.062-0.133-0.113-0.279-0.148-0.41l-0.029-0.123c-0.007-0.023-0.013-0.07-0.02-0.104
							C-27.051,30.331-27.057,30.257-27.064,30.183"/>
						<path fill="#FAC017" d="M-27.026,30.354l0.022,0.121l0.031,0.127c0.014,0.059,0.029,0.1,0.043,0.148
							c0.02,0.053,0.036,0.104,0.057,0.154c-0.021-0.051-0.038-0.102-0.057-0.154c-0.014-0.051-0.029-0.09-0.043-0.148l-0.031-0.127
							L-27.026,30.354"/>
						<path fill="#FAC017" d="M-20.028,22.583c-0.973,0.583-1.925,1.199-2.833,1.869c-0.907,0.67-1.777,1.395-2.535,2.209
							c0.757-0.814,1.627-1.539,2.535-2.209C-21.953,23.782-21.001,23.166-20.028,22.583"/>
						<path fill="#FAC017" d="M-20.028,22.583c-0.973,0.583-1.925,1.199-2.833,1.869c-0.907,0.67-1.777,1.395-2.535,2.209
							c0.757-0.814,1.627-1.539,2.535-2.209C-21.953,23.782-21.001,23.166-20.028,22.583"/>
						<line fill="none" x1="-3.667" y1="36.198" x2="-3.667" y2="36.198"/>
						<path fill="#FAC017" d="M-3.667,36.198c-3.159,0.094-6.325,0.035-8.429-0.113c-1.47-0.102-3.005-0.24-4.586-0.455
							c-1.581-0.219-3.211-0.506-4.844-0.957c-0.816-0.229-1.633-0.496-2.428-0.844c-0.792-0.35-1.573-0.773-2.234-1.363
							c-0.329-0.297-0.625-0.637-0.843-1.027c-0.218-0.391-0.35-0.834-0.371-1.281c-0.044-0.908,0.344-1.773,0.845-2.512
							c-0.501,0.738-0.889,1.604-0.845,2.512c0.021,0.447,0.152,0.891,0.371,1.281c0.218,0.391,0.514,0.73,0.843,1.027
							c0.662,0.59,1.443,1.014,2.234,1.363c0.794,0.348,1.612,0.615,2.428,0.844c1.633,0.451,3.264,0.738,4.844,0.957
							c1.582,0.215,3.117,0.354,4.586,0.455C-9.993,36.233-6.826,36.292-3.667,36.198"/>
						<path fill="#FAC017" d="M-11.407,18.123c-3.24,1.382-6.556,2.93-9.668,4.849C-17.963,21.053-14.649,19.505-11.407,18.123"/>
						<line fill="none" x1="-3.14" y1="36.181" x2="-3.14" y2="36.181"/>
						<line fill="none" x1="-3.14" y1="36.181" x2="-3.14" y2="36.181"/>
						<line fill="none" x1="-2.351" y1="36.144" x2="-2.351" y2="36.144"/>
						<line fill="none" x1="-1.299" y1="36.083" x2="-1.299" y2="36.083"/>
						<line fill="none" x1="7.365" y1="35.419" x2="7.365" y2="35.419"/>
						<line fill="none" x1="53.63" y1="25.628" x2="53.63" y2="25.628"/>
						<line fill="none" x1="0.015" y1="35.995" x2="0.015" y2="35.995"/>
						<line fill="none" x1="6.043" y1="35.446" x2="6.043" y2="35.446"/>
						<line fill="none" x1="6.828" y1="35.347" x2="6.828" y2="35.347"/>
						<line fill="none" x1="32.262" y1="31.233" x2="32.262" y2="31.233"/>
						<line fill="none" x1="58.78" y1="23.608" x2="58.78" y2="23.608"/>
						<line fill="none" x1="8.911" y1="35.019" x2="8.911" y2="35.019"/>
						<line fill="none" x1="-11.407" y1="18.123" x2="-11.407" y2="18.123"/>
						<line fill="none" x1="62.421" y1="22.092" x2="62.421" y2="22.092"/>
						<line fill="none" x1="14.209" y1="34.325" x2="14.209" y2="34.325"/>
						<line fill="none" x1="41.688" y1="28.837" x2="41.688" y2="28.837"/>
						<line fill="none" x1="54.772" y1="24.903" x2="54.772" y2="24.903"/>
						<line fill="none" x1="69.923" y1="18.317" x2="69.923" y2="18.317"/>
						<line fill="none" x1="-16.104" y1="20.484" x2="-16.104" y2="20.484"/>
						<path fill="#FEDC91" d="M-13.681,19.479l0.961-0.423c-1.208,0.526-2.434,1.093-3.653,1.707l0.56-0.281l1.184-0.566
							L-13.681,19.479"/>
						<polyline fill="#FEDC91" points="-12.991,19.189 -13.674,19.496 -14.33,19.792 -12.991,19.189 						"/>
						<path fill="#FEDC91" d="M-15.437,20.312l-0.371,0.18c-0.392,0.191-0.781,0.385-1.168,0.583l-0.653,0.34
							C-16.94,21.05-16.203,20.68-15.437,20.312"/>
						<line fill="none" x1="66.831" y1="19.752" x2="66.831" y2="19.752"/>
						<polyline fill="#FEDC91" points="-17.884,21.55 -17.897,21.556 -17.904,21.562 -17.884,21.55 						"/>
						<line fill="none" x1="-22.862" y1="24.888" x2="-22.862" y2="24.888"/>
						<line fill="none" x1="41.277" y1="28.3" x2="41.277" y2="28.3"/>
						<line fill="none" x1="26.953" y1="31.485" x2="26.953" y2="31.485"/>
						<line fill="none" x1="28.238" y1="31.226" x2="28.238" y2="31.226"/>
						<line fill="none" x1="-7.618" y1="34.864" x2="-7.618" y2="34.864"/>
						<polyline fill="#FAC019" points="-4.628,16.006 -5.122,16.187 -4.628,16.006 						"/>
						<path fill="#FAC017" d="M-6.628,16.645c6.169-2.228,12.241-3.93,18.606-5.504c-1.266,0.345-2.528,0.701-3.787,1.069
							l0.502-0.147c-0.846,0.222-1.916,0.51-3.083,0.841l-1.81,0.521c-1.857,0.543-3.797,1.145-5.419,1.667
							c-0.67,0.202-1.338,0.409-2.004,0.619l-0.002-0.005l-0.261,0.05l1.481-0.541c-0.743,0.258-1.485,0.523-2.225,0.792
							l-0.493,0.181c-2.05,0.755-4.082,1.555-6.087,2.416C-9.697,17.918-8.169,17.268-6.628,16.645"/>
						<path fill="#FAC017" d="M5.612,12.903c1.167-0.331,2.236-0.619,3.083-0.841c-0.846,0.222-1.913,0.509-3.08,0.84l-1.812,0.522
							L5.612,12.903"/>
						<polyline fill="#FAC017" points="8.694,12.062 8.192,12.209 8.694,12.062 						"/>
						<polyline fill="#FAC017" points="-3.885,15.754 -3.624,15.704 -3.622,15.709 -3.885,15.754 						"/>
						<path fill="#FAC017" d="M-6.628,16.645c-1.541,0.623-3.069,1.273-4.58,1.958C-9.697,17.918-8.169,17.268-6.628,16.645"/>
						<path fill="#FAC017" d="M-5.711,15.888c3.702-1.337,8.474-2.778,12.499-3.841C5.156,12.56,2.896,13.263,0.5,14.068
							c-2.397,0.804-4.931,1.712-7.127,2.577c-1.314,0.478-2.622,0.977-3.918,1.499c0.725-0.305,1.452-0.603,2.184-0.895
							c0.317-0.136,1.576-0.624,1.698-0.682c0.077-0.038-0.32,0.091-1.732,0.621c-0.705,0.267-1.664,0.637-2.933,1.161
							c-1.269,0.527-2.851,1.203-4.774,2.136c-1.334,0.653-2.647,1.347-3.925,2.099c2.135-1.274,4.252-2.328,6.245-3.257
							c1.994-0.927,3.87-1.722,5.572-2.419c-1.071,0.39-2.136,0.794-3.195,1.216c0.646-0.274,1.293-0.543,1.944-0.805
							c0.769-0.314,1.682-0.672,2.702-1.048L-5.711,15.888"/>
						<path fill="#FAC017" d="M-8.212,16.907c-1.702,0.698-3.578,1.493-5.572,2.419c-1.992,0.929-4.109,1.982-6.245,3.257
							c2.135-1.274,4.252-2.328,6.245-3.257C-11.79,18.4-9.914,17.605-8.212,16.907"/>
						<path fill="#FAC017" d="M-6.664,16.566c-0.122,0.058-1.381,0.546-1.699,0.683c-0.731,0.291-1.459,0.588-2.184,0.895
							c0.725-0.306,1.452-0.604,2.184-0.895C-8.045,17.113-6.786,16.625-6.664,16.566"/>
						<line fill="none" x1="-18.185" y1="21.109" x2="-18.185" y2="21.109"/>
						<path fill="#FBC842" d="M-18.185,21.109c1.928-1.015,3.905-1.928,5.909-2.779c6.015-2.54,12.231-4.553,18.513-6.297
							c1.906-0.516,3.817-1.01,5.73-1.486l1.915-0.469c2.082-0.346,3.912-0.601,5.227-0.719c-2.387,0.557-4.764,1.15-7.13,1.782
							c-6.365,1.575-12.438,3.276-18.606,5.504c2.197-0.865,4.73-1.772,7.127-2.577c2.397-0.805,4.656-1.508,6.288-2.021
							c-4.025,1.063-8.796,2.504-12.499,3.841l-0.002,0.001l-1.047,0.381c-1.02,0.376-1.933,0.733-2.702,1.048
							c-0.651,0.262-1.298,0.531-1.944,0.805c-2.103,0.841-4.339,1.824-6.604,3c-1.135,0.591-2.276,1.229-3.4,1.939
							c-1.121,0.71-2.23,1.487-3.259,2.388c-0.341,0.299-0.676,0.615-0.99,0.949c-0.503,0.535-0.971,1.119-1.321,1.779
							c-0.348,0.658-0.574,1.416-0.479,2.178c0.088,0.787,0.528,1.492,1.087,2.02c0.56,0.535,1.224,0.936,1.907,1.27
							c0.231,0.133,0.468,0.256,0.708,0.373c-0.737-0.299-1.459-0.656-2.111-1.133c-0.645-0.477-1.237-1.098-1.517-1.893
							c-0.14-0.395-0.194-0.812-0.163-1.23c0.032-0.414,0.141-0.816,0.298-1.193c0.316-0.756,0.802-1.412,1.332-2.008
							c1.074-1.188,2.344-2.156,3.653-3.041C-20.952,22.636-19.581,21.846-18.185,21.109"/>
						<line fill="none" x1="6.237" y1="12.033" x2="6.237" y2="12.033"/>
						<line fill="none" x1="13.882" y1="10.078" x2="13.882" y2="10.078"/>
						<line fill="none" x1="13.882" y1="10.078" x2="13.882" y2="10.078"/>
						<path fill="#FAC017" d="M-18.185,21.109c-1.396,0.737-2.768,1.527-4.082,2.412c-1.309,0.885-2.579,1.854-3.653,3.041
							c-0.53,0.596-1.015,1.252-1.332,2.008c-0.157,0.377-0.266,0.779-0.298,1.193c-0.032,0.416,0.022,0.836,0.163,1.23
							c0.28,0.795,0.872,1.416,1.517,1.893c0.652,0.477,1.374,0.834,2.111,1.133c-0.737-0.299-1.459-0.656-2.111-1.133
							c-0.645-0.477-1.237-1.098-1.517-1.893c-0.14-0.395-0.194-0.812-0.163-1.23c0.032-0.414,0.141-0.816,0.298-1.193
							c0.316-0.756,0.802-1.412,1.332-2.008c1.074-1.188,2.344-2.156,3.653-3.041C-20.952,22.636-19.581,21.846-18.185,21.109"/>
						<path fill="#FAC017" d="M-12.276,18.33c6.015-2.54,12.231-4.553,18.513-6.297C-0.045,13.777-6.261,15.791-12.276,18.33"/>
						<path fill="#FAC017" d="M-27.46,30.356c-0.095-0.762,0.131-1.52,0.479-2.178c0.35-0.66,0.817-1.244,1.321-1.779
							c0.314-0.334,0.648-0.65,0.99-0.949c1.028-0.9,2.138-1.678,3.259-2.386c1.124-0.709,2.265-1.35,3.4-1.941
							c-1.135,0.591-2.276,1.231-3.4,1.941c-1.121,0.708-2.23,1.485-3.259,2.386c-0.341,0.299-0.673,0.613-0.99,0.949
							c-0.503,0.535-0.97,1.119-1.32,1.779C-27.329,28.835-27.555,29.595-27.46,30.356"/>
						<line fill="none" x1="6.237" y1="12.033" x2="6.237" y2="12.033"/>
						<line fill="none" x1="6.237" y1="12.033" x2="6.237" y2="12.033"/>
						<line fill="none" x1="-24.67" y1="25.45" x2="-24.67" y2="25.45"/>
						<polyline fill="#FAC017" points="-5.713,15.889 -5.711,15.888 -6.761,16.271 -5.713,15.889 						"/>
						<path fill="#FAC017" d="M6.787,12.047C5.156,12.56,2.896,13.263,0.5,14.068c-2.397,0.804-4.931,1.712-7.127,2.577
							c2.197-0.865,4.73-1.772,7.127-2.577C2.896,13.263,5.156,12.56,6.787,12.047"/>
						<line fill="none" x1="13.882" y1="10.078" x2="13.882" y2="10.078"/>
						<line fill="none" x1="6.237" y1="12.033" x2="6.237" y2="12.033"/>
						<line fill="none" x1="6.237" y1="12.033" x2="6.237" y2="12.033"/>
						<path fill="#FAC019" d="M6.237,12.033c2.536-0.699,5.086-1.349,7.646-1.955l-1.915,0.469
							C10.054,11.023,8.143,11.517,6.237,12.033"/>
						<line fill="none" x1="13.882" y1="10.078" x2="13.882" y2="10.078"/>
						<path fill="#FAC017" d="M6.237,12.033c2.536-0.699,5.086-1.349,7.646-1.955C11.323,10.684,8.773,11.334,6.237,12.033"/>
					</g>
				</g>
			</g>
		</g>
		<path fill="#878787" d="M-14.778,35.099c0.258,2.039-1.186,3.898-3.227,4.156c-2.038,0.258-3.897-1.188-4.156-3.227
			c-0.256-2.037,1.188-3.898,3.228-4.154C-16.896,31.616-15.033,33.062-14.778,35.099z"/>
		<g>
			<path fill="#878787" d="M45.898,11.207c-1.062-0.042-1.896-0.938-1.854-2.004c0.039-1.066,0.938-1.898,2.005-1.857
				c1.064,0.042,1.896,0.939,1.856,2.005C47.863,10.418,46.967,11.249,45.898,11.207z"/>
			<path fill="#878787" d="M44.353,5.748c1.931-0.803,4.134,0.041,5.05,1.884l0,0c0.039,0.077,0.08,0.16,0.114,0.249l0,0
				l-0.535,0.212c-0.026-0.067-0.059-0.135-0.093-0.205l0,0c-0.782-1.574-2.666-2.295-4.314-1.61l0,0h-0.002L44.353,5.748
				L44.353,5.748z"/>
			<path fill="#878787" d="M42.479,1.24c4.313-1.792,9.239,0.087,11.291,4.211l0,0c0.086,0.177,0.173,0.362,0.25,0.555l0,0
				l-0.532,0.216c-0.071-0.177-0.148-0.347-0.235-0.516l0,0c-1.914-3.854-6.52-5.612-10.553-3.936l0,0v0.004L42.479,1.24
				L42.479,1.24z"/>
			<path fill="#878787" d="M43.636,4.027l0.001-0.002l0,0L43.636,4.027L43.636,4.027L43.636,4.027z M43.416,3.495
				c3.124-1.299,6.687,0.065,8.17,3.048l0,0c0.064,0.128,0.126,0.259,0.183,0.401l0,0l-0.533,0.215
				c-0.051-0.12-0.106-0.243-0.163-0.36l0,0c-1.35-2.714-4.594-3.953-7.436-2.773l0,0L43.416,3.495L43.416,3.495z"/>
		</g>
		<polygon fill="#878787" points="-4.836,-0.051 -3.271,3.015 0.124,2.474 -2.307,4.908 -0.745,7.973 -3.813,6.411 -6.243,8.844 
			-5.706,5.449 -8.772,3.885 -5.373,3.345 		"/>
		<polygon fill="#878787" points="33.022,44.634 30.307,42.741 30.588,39.442 33.583,38.036 36.299,39.931 36.018,43.226 		"/>
		<g>
			<path fill="#878787" d="M15.205,17.478h-1.115v-1.209c0-0.281-0.083-0.582-0.316-0.797c-0.229-0.214-0.526-0.278-0.806-0.278
				c-0.28,0-0.576,0.067-0.804,0.278c-0.23,0.216-0.315,0.514-0.314,0.793c0,0,0,0.004,0,0.009l0,0v1.207
				c-0.25,0.016-0.504,0.091-0.705,0.278c-0.228,0.216-0.313,0.512-0.313,0.791c0,0,0,0.002,0,0.008s0,0.008,0,0.011
				c0,0.278,0.085,0.574,0.312,0.79c0.204,0.187,0.457,0.261,0.707,0.277v5.489c0-0.002,0,0.006,0,0.008
				c-0.001,0.277,0.084,0.574,0.313,0.789c0.217,0.203,0.492,0.273,0.759,0.281h0.001h0.056c0.278,0,0.57-0.068,0.795-0.277
				c0.208-0.195,0.298-0.455,0.314-0.709l0.003-0.004v-5.574l1.114,0.002c0.282,0,0.577-0.069,0.805-0.28
				c0.229-0.214,0.313-0.511,0.313-0.789v-0.012c0-0.01,0-0.015,0-0.015c0-0.278-0.084-0.574-0.313-0.786
				C15.782,17.544,15.486,17.478,15.205,17.478z M9.378,21.539c-0.561-0.506-1.275-0.768-2.05-0.768c0,0-0.005-0.002-0.022,0
				l-4.461-0.002c-0.229-0.004-0.364-0.056-0.523-0.188c-0.147-0.141-0.176-0.212-0.185-0.389c0.009-0.171,0.036-0.236,0.186-0.381
				c0.154-0.125,0.292-0.18,0.523-0.184h4.469c0.279,0,0.576-0.065,0.806-0.278c0.228-0.211,0.313-0.505,0.315-0.783v-0.018
				c0-0.01,0-0.01,0-0.01c0-0.277-0.086-0.575-0.316-0.787c-0.229-0.209-0.524-0.274-0.804-0.274H2.84
				c-0.776-0.003-1.49,0.263-2.057,0.778c-0.569,0.502-0.892,1.177-0.89,1.925c0,0,0,0.006,0,0.019v0.009
				c-0.002,0.75,0.316,1.428,0.884,1.932c0.562,0.506,1.271,0.768,2.043,0.769h0l4.493,0.002c0.225,0.004,0.363,0.057,0.52,0.189
				c0.151,0.146,0.179,0.212,0.188,0.39c-0.009,0.172-0.036,0.234-0.188,0.379c-0.154,0.127-0.293,0.18-0.522,0.184H1.015
				c-0.281,0-0.576,0.064-0.807,0.279c-0.229,0.215-0.314,0.51-0.313,0.791c0,0,0,0.004,0,0.014c0,0.004,0,0.006,0,0.006
				c0,0.277,0.086,0.572,0.316,0.785c0.23,0.211,0.525,0.275,0.805,0.273l6.312,0.002h0.003c0.749,0,1.442-0.254,2.002-0.738
				c0.598-0.494,0.934-1.191,0.933-1.963v-0.002c0-0.023,0-0.023,0-0.023C10.266,22.726,9.949,22.044,9.378,21.539z M-23.202,24.333
				c-0.232-0.215-0.528-0.283-0.808-0.281l0,0h-6.301c-0.23-0.004-0.367-0.055-0.527-0.188c-0.144-0.137-0.171-0.199-0.18-0.381
				v-3.289c0.009-0.176,0.035-0.239,0.186-0.383c0.157-0.128,0.291-0.179,0.522-0.184h4.47c0.28,0,0.576-0.065,0.806-0.278
				c0.229-0.215,0.313-0.509,0.313-0.785v-0.016c0-0.013,0-0.013,0-0.013c0-0.277-0.084-0.572-0.313-0.785
				c-0.231-0.209-0.526-0.274-0.805-0.273l-4.471-0.001h-0.003c-0.781-0.002-1.497,0.262-2.062,0.772
				c-0.57,0.502-0.885,1.184-0.884,1.933c0,0,0,0.013,0.001,0.032l-0.001,3.272v0.012c-0.001,0.746,0.32,1.422,0.89,1.93
				c0.566,0.51,1.274,0.775,2.05,0.773l6.312,0.002c0.278,0,0.572-0.066,0.801-0.275c0.229-0.211,0.315-0.5,0.317-0.775v-0.02
				c0-0.01,0-0.01,0-0.01C-22.891,24.843-22.974,24.548-23.202,24.333z M-12.535,18.249c-0.562-0.508-1.275-0.77-2.054-0.77h-0.003
				c-0.003,0-0.009,0-0.021,0h-4.441c-0.005-0.001-0.01-0.001-0.018-0.001c-0.782-0.003-1.497,0.262-2.063,0.772
				c-0.568,0.502-0.884,1.182-0.883,1.933c0,0,0,0.009,0.001,0.025l-0.001,3.278v0.012c-0.001,0.744,0.317,1.424,0.892,1.932
				c0.562,0.506,1.27,0.773,2.042,0.773h0.004h4.496c0.751,0,1.443-0.254,2.003-0.738c0.6-0.494,0.934-1.191,0.932-1.961h0l0-3.309
				c0-0.008,0-0.009,0-0.009C-11.649,19.433-11.964,18.753-12.535,18.249z M-13.889,23.483c-0.009,0.178-0.037,0.242-0.188,0.385
				c-0.158,0.129-0.292,0.18-0.522,0.184h-4.469c-0.229-0.004-0.366-0.055-0.526-0.188c-0.147-0.139-0.174-0.201-0.183-0.379v-3.291
				c0.009-0.175,0.035-0.237,0.188-0.384c0.155-0.125,0.293-0.18,0.523-0.184h4.467c0.228,0.005,0.363,0.056,0.525,0.189
				c0.148,0.142,0.176,0.207,0.185,0.38V23.483L-13.889,23.483z M-2.188,18.249c-0.56-0.508-1.275-0.772-2.052-0.771
				c0,0-0.001,0-0.004,0c-0.001-0.001-0.007-0.001-0.013,0h-2.942c-0.398,0-0.781,0.067-1.138,0.202
				c-0.192-0.135-0.425-0.203-0.661-0.203c-0.004,0-0.018,0-0.04,0.002c-0.276,0-0.566,0.065-0.793,0.274
				c-0.229,0.211-0.317,0.505-0.316,0.783c0,0-0.001,0.012,0,0.031v6.565v0.014c-0.001,0.275,0.085,0.572,0.317,0.783
				c0.23,0.207,0.523,0.273,0.803,0.273c0.281,0,0.575-0.066,0.804-0.273c0.229-0.213,0.316-0.506,0.315-0.783v-4.95
				c0.009-0.176,0.036-0.24,0.188-0.383c0.156-0.128,0.295-0.182,0.525-0.187l2.944,0.003c0.227,0.003,0.365,0.056,0.523,0.188
				c0.148,0.14,0.176,0.204,0.185,0.381v4.935c0-0.002-0.001,0.004-0.001,0.014c0,0.275,0.087,0.57,0.316,0.781
				c0.229,0.209,0.523,0.275,0.805,0.275c0.28,0,0.574-0.066,0.804-0.273c0.229-0.211,0.314-0.502,0.317-0.777v-4.957
				c0-0.008,0-0.014,0-0.014C-1.301,19.43-1.618,18.75-2.188,18.249z M55.819,14.948c-0.265-0.245-0.611-0.327-0.956-0.326
				c-0.345,0-0.69,0.081-0.953,0.326c-0.26,0.244-0.361,0.586-0.36,0.923c0,0.004,0,0.013,0.001,0.025v0.003
				c-0.002,0.337,0.1,0.68,0.362,0.924c0.258,0.245,0.606,0.325,0.95,0.325c0.345,0,0.692-0.08,0.955-0.327
				c0.253-0.239,0.352-0.571,0.356-0.898V15.92v-0.035c0-0.012,0-0.02,0-0.02C56.174,15.529,56.074,15.191,55.819,14.948z
				 M67.162,18.249c-0.564-0.508-1.276-0.77-2.056-0.77c0,0,0,0-0.002,0s-0.008-0.001-0.022,0h-4.44
				c-0.005-0.001-0.011-0.001-0.016-0.001c-0.783-0.003-1.498,0.262-2.063,0.773c-0.567,0.5-0.886,1.181-0.885,1.931
				c0,0,0,0.005,0,0.014v3.29c0-0.002,0-0.004,0-0.004c0,0.002,0,0.008,0,0.016c-0.002,0.746,0.319,1.424,0.891,1.93
				c0.564,0.508,1.275,0.775,2.049,0.773h4.497c0.749,0,1.442-0.252,2.001-0.736c0.599-0.494,0.934-1.188,0.933-1.959l0.001-0.004
				v-3.307c0-0.014-0.001-0.014-0.001-0.014C68.05,19.431,67.732,18.75,67.162,18.249z M65.807,23.485
				c-0.01,0.178-0.038,0.244-0.186,0.385c-0.156,0.127-0.293,0.178-0.523,0.182h-4.47c-0.228-0.004-0.368-0.057-0.521-0.184
				c-0.153-0.143-0.178-0.201-0.186-0.385v-3.289c0.008-0.176,0.033-0.238,0.188-0.382c0.15-0.127,0.292-0.182,0.521-0.185h4.469
				c0.229,0.005,0.365,0.056,0.527,0.189c0.144,0.139,0.172,0.203,0.182,0.383L65.807,23.485L65.807,23.485L65.807,23.485z
				 M26.679,18.249c-0.561-0.508-1.273-0.771-2.053-0.771l0,0h-0.01c-0.006-0.001-0.014-0.001-0.025,0h-4.45
				c-0.78-0.003-1.495,0.262-2.061,0.772c-0.569,0.503-0.886,1.182-0.884,1.931c0,0,0,0.013,0.001,0.031l-0.001,3.274v0.014
				c-0.002,0.744,0.317,1.422,0.893,1.93c0.561,0.508,1.271,0.773,2.044,0.773h4.482c0.278,0,0.575-0.064,0.805-0.275
				s0.315-0.504,0.315-0.781v-0.014c0-0.01,0-0.012,0-0.012c0-0.283-0.085-0.576-0.312-0.787c-0.23-0.217-0.529-0.281-0.809-0.281
				h-4.47c-0.227-0.004-0.367-0.055-0.527-0.188c-0.145-0.139-0.169-0.197-0.18-0.383v-0.573l5.391,0.002v-0.007
				c0.673-0.041,1.289-0.288,1.801-0.72c0.602-0.507,0.937-1.204,0.936-1.976h-0.001c0.001-0.021,0.001-0.027,0.001-0.028
				C27.566,19.429,27.25,18.75,26.679,18.249z M25.134,20.583L25.134,20.583c-0.157,0.131-0.292,0.184-0.521,0.188l-5.174-0.002
				v-0.575c0.009-0.179,0.034-0.239,0.185-0.381c0.155-0.128,0.297-0.183,0.522-0.186h4.47c0.226,0.003,0.362,0.054,0.515,0.175
				c0.155,0.144,0.185,0.216,0.194,0.397C25.315,20.367,25.287,20.438,25.134,20.583z M55.982,18.539
				c-0.001-0.276-0.087-0.567-0.311-0.779c-0.229-0.215-0.527-0.282-0.809-0.281c-0.282-0.001-0.577,0.067-0.808,0.28
				c-0.226,0.212-0.314,0.504-0.313,0.78c0,0-0.001,0.014,0.001,0.037l-0.001,6.549v0.018c-0.001,0.277,0.088,0.57,0.314,0.783
				c0.229,0.211,0.524,0.277,0.807,0.277h0.004c0.28,0,0.575-0.068,0.803-0.279c0.225-0.211,0.311-0.498,0.312-0.773v-0.002v-6.588
				C55.982,18.549,55.982,18.542,55.982,18.539L55.982,18.539z M78.393,20.179c0.002-0.75-0.314-1.43-0.884-1.931
				c-0.562-0.509-1.273-0.772-2.054-0.771c0,0-0.001,0-0.002,0c-0.003-0.001-0.009-0.001-0.023,0.001h-2.934
				c-0.396-0.001-0.778,0.066-1.135,0.201c-0.194-0.136-0.43-0.203-0.666-0.203h-0.008c-0.006,0-0.017,0-0.03,0.002
				c-0.274,0.001-0.565,0.065-0.793,0.275c-0.231,0.212-0.315,0.511-0.315,0.789v0.003c0,0.004,0,0.01,0,0.016v6.561
				c0,0.01,0,0.016,0,0.016c0,0.277,0.083,0.576,0.317,0.791c0.23,0.207,0.523,0.273,0.803,0.273c0.281,0,0.575-0.066,0.806-0.273
				c0.227-0.209,0.313-0.498,0.316-0.77l0.001-0.002v-4.963c0.009-0.175,0.035-0.239,0.186-0.382
				c0.156-0.128,0.296-0.182,0.521-0.187l2.947,0.002c0.227,0.003,0.368,0.058,0.522,0.187c0.15,0.142,0.175,0.203,0.186,0.385
				v4.933c0-0.006,0,0.006,0,0.018c-0.001,0.275,0.088,0.566,0.313,0.777c0.231,0.209,0.526,0.275,0.807,0.275h0.005
				c0.279,0,0.57-0.066,0.799-0.273c0.227-0.211,0.313-0.5,0.314-0.775l0.001-0.004v-4.955
				C78.393,20.182,78.393,20.179,78.393,20.179z M52.363,17.758c-0.228-0.215-0.525-0.281-0.809-0.28h-1.112v-1.206
				c0-0.004,0-0.008,0-0.012l0,0V16.26c0-0.278-0.084-0.576-0.312-0.789c-0.231-0.211-0.525-0.278-0.807-0.278
				c-0.278,0-0.576,0.064-0.808,0.277c-0.232,0.216-0.315,0.514-0.315,0.794c0,0-0.001,0.006,0,0.022v1.193
				c-0.248,0.017-0.502,0.091-0.703,0.278c-0.23,0.218-0.313,0.517-0.313,0.797c0,0.001,0,0.007,0.001,0.016
				c0.001,0.276,0.084,0.571,0.312,0.788c0.203,0.184,0.456,0.26,0.704,0.275v5.49l0,0c0,0.004,0,0.006,0,0.008
				c0,0.277,0.082,0.576,0.314,0.791c0.231,0.211,0.528,0.279,0.809,0.279h0.004c0.28,0,0.572-0.068,0.802-0.277
				c0.222-0.209,0.309-0.496,0.314-0.766l0.001-0.002v-5.521l1.111,0.001c0.283,0.002,0.579-0.067,0.808-0.278
				c0.226-0.21,0.311-0.5,0.312-0.773l0.001-0.004v-0.023c-0.001-0.018-0.001-0.018-0.001-0.018
				C52.676,18.265,52.592,17.971,52.363,17.758z M31.003,14.483c0.001-0.282-0.082-0.578-0.309-0.794
				c-0.23-0.216-0.528-0.286-0.811-0.286c-0.283,0-0.58,0.07-0.809,0.284c-0.229,0.216-0.312,0.514-0.312,0.796v10.639
				c0,0.281,0.082,0.576,0.309,0.795c0.221,0.205,0.503,0.279,0.776,0.283h0.001h0.019c0.004,0,0.008,0.002,0.011,0.002
				s0.006-0.002,0.009-0.002h0.003c0.281,0.002,0.576-0.07,0.804-0.283c0.227-0.217,0.31-0.514,0.31-0.795l0,0l0.001-10.626
				C31.003,14.483,31.003,14.483,31.003,14.483z M45.429,18.249c-0.564-0.508-1.277-0.772-2.056-0.771c0,0,0,0-0.002,0
				c-0.003-0.001-0.007-0.001-0.017,0h-4.462c-0.278,0-0.575,0.062-0.804,0.276c-0.23,0.21-0.317,0.506-0.316,0.784v0.022
				c-0.001,0.277,0.083,0.574,0.312,0.79c0.231,0.212,0.527,0.279,0.808,0.278h4.472c0.227,0.005,0.362,0.056,0.524,0.188
				c0.148,0.14,0.174,0.203,0.185,0.383v0.558l-5.17,0.003c-0.005,0-0.011-0.001-0.02-0.001c-0.779-0.002-1.493,0.264-2.057,0.779
				c-0.568,0.505-0.886,1.186-0.885,1.937c0.001,0,0,0.004,0,0.014v0.006c-0.001,0.746,0.318,1.426,0.893,1.934
				c0.559,0.504,1.263,0.77,2.031,0.771l0.004,0.002h4.494h0.004c0.396,0,0.776-0.068,1.13-0.207
				c0.19,0.137,0.427,0.207,0.663,0.207c0.014,0,0.025,0,0.033,0h0.007c0.276,0,0.567-0.068,0.795-0.273
				c0.218-0.201,0.305-0.475,0.315-0.734l0.001-0.004v-0.041c0.001-0.006,0.001-0.012,0-0.016v-4.939c0-0.01,0-0.01,0-0.01
				C46.314,19.432,45.998,18.752,45.429,18.249z M44.073,23.481c-0.01,0.182-0.036,0.242-0.188,0.385
				c-0.156,0.131-0.294,0.182-0.522,0.186l-4.471-0.002c-0.228-0.002-0.367-0.055-0.524-0.184c-0.146-0.141-0.173-0.205-0.184-0.385
				c0.01-0.164,0.04-0.243,0.194-0.394c0.155-0.13,0.291-0.183,0.515-0.188h5.18V23.481L44.073,23.481z M34.745,14.472
				c0.001-0.28-0.086-0.572-0.309-0.784c-0.229-0.215-0.527-0.285-0.81-0.285c-0.283,0-0.581,0.07-0.811,0.285
				c-0.23,0.219-0.312,0.519-0.312,0.801v10.627c0,0.279,0.08,0.58,0.309,0.801c0.223,0.207,0.509,0.281,0.783,0.285h0.002h0.036
				c0.279,0,0.575-0.07,0.802-0.283c0.224-0.215,0.311-0.506,0.311-0.783V25.12h-0.002l0.002-10.625
				C34.746,14.483,34.745,14.474,34.745,14.472z"/>
			<path fill="#878787" d="M9.378,21.539c-0.561-0.506-1.275-0.768-2.05-0.768c0,0-0.005-0.002-0.022,0l-4.461-0.002
				c-0.229-0.004-0.364-0.056-0.523-0.188c-0.147-0.141-0.176-0.212-0.185-0.389c0.009-0.171,0.036-0.236,0.186-0.381
				c0.154-0.125,0.292-0.18,0.523-0.184h4.469c0.279,0,0.576-0.065,0.806-0.278c0.228-0.211,0.313-0.505,0.315-0.783v-0.018
				c0-0.01,0-0.01,0-0.01c0-0.277-0.086-0.575-0.316-0.787c-0.229-0.209-0.524-0.274-0.804-0.274H2.84
				c-0.776-0.003-1.49,0.263-2.057,0.778c-0.569,0.502-0.892,1.177-0.89,1.925c0,0,0,0.006,0,0.019v0.009
				c-0.002,0.75,0.316,1.428,0.884,1.932c0.562,0.506,1.271,0.768,2.043,0.769h0l4.493,0.002c0.225,0.004,0.363,0.057,0.52,0.189
				c0.151,0.146,0.179,0.212,0.188,0.39c-0.009,0.172-0.036,0.234-0.188,0.379c-0.154,0.127-0.293,0.18-0.522,0.184H1.015
				c-0.281,0-0.576,0.064-0.807,0.279c-0.229,0.215-0.314,0.51-0.313,0.791c0,0,0,0.004,0,0.014c0,0.004,0,0.006,0,0.006
				c0,0.277,0.086,0.572,0.316,0.785c0.23,0.211,0.525,0.275,0.805,0.273l6.312,0.002h0.003c0.749,0,1.442-0.254,2.002-0.738
				c0.598-0.494,0.934-1.191,0.933-1.963v-0.002c0-0.023,0-0.023,0-0.023C10.266,22.726,9.949,22.044,9.378,21.539z"/>
			<path fill="#878787" d="M15.205,17.478h-1.115v-1.209c0-0.281-0.083-0.582-0.316-0.797c-0.229-0.214-0.526-0.278-0.806-0.278
				c-0.28,0-0.576,0.067-0.804,0.278c-0.23,0.216-0.315,0.514-0.314,0.793c0,0,0,0.004,0,0.009l0,0v1.207
				c-0.25,0.016-0.504,0.091-0.705,0.278c-0.228,0.216-0.313,0.512-0.313,0.791c0,0,0,0.002,0,0.008s0,0.008,0,0.011
				c0,0.278,0.085,0.574,0.312,0.79c0.204,0.187,0.457,0.261,0.707,0.277v5.489c0-0.002,0,0.006,0,0.008
				c-0.001,0.277,0.084,0.574,0.313,0.789c0.217,0.203,0.492,0.273,0.759,0.281h0.001h0.056c0.278,0,0.57-0.068,0.795-0.277
				c0.208-0.195,0.298-0.455,0.314-0.709l0.003-0.004v-5.574l1.114,0.002c0.282,0,0.577-0.069,0.805-0.28
				c0.229-0.214,0.313-0.511,0.313-0.789v-0.012c0-0.01,0-0.015,0-0.015c0-0.278-0.084-0.574-0.313-0.786
				C15.782,17.544,15.486,17.478,15.205,17.478z"/>
			<path fill="#878787" d="M-29.723,26.202c0.501-0.793,1.132-1.512,1.857-2.15h-2.445c-0.23-0.004-0.367-0.055-0.527-0.188
				c-0.144-0.137-0.171-0.199-0.18-0.379v-3.291c0.009-0.176,0.035-0.239,0.186-0.383c0.157-0.128,0.291-0.179,0.522-0.184h4.47
				c0.28,0,0.576-0.065,0.806-0.278c0.229-0.215,0.313-0.509,0.313-0.785v-0.016c0-0.013,0-0.013,0-0.013
				c0-0.277-0.084-0.572-0.313-0.785c-0.231-0.209-0.526-0.274-0.805-0.273l-4.471-0.001h-0.003
				c-0.781-0.002-1.497,0.262-2.062,0.772c-0.57,0.502-0.885,1.184-0.884,1.933c0,0,0,0.013,0.001,0.032l-0.001,3.272v0.012
				c-0.001,0.746,0.32,1.422,0.89,1.93c0.566,0.51,1.274,0.775,2.05,0.773h0.598V26.202z"/>
			<path fill="#878787" d="M26.679,18.249c-0.561-0.508-1.273-0.771-2.053-0.771l0,0h-0.01c-0.006-0.001-0.014-0.001-0.025,0h-4.45
				c-0.78-0.003-1.495,0.262-2.061,0.772c-0.569,0.503-0.886,1.182-0.884,1.931c0,0,0,0.013,0.001,0.031l-0.001,3.274v0.014
				c-0.002,0.744,0.317,1.422,0.893,1.93c0.561,0.508,1.271,0.773,2.044,0.773h4.482c0.278,0,0.575-0.064,0.805-0.275
				s0.315-0.504,0.315-0.781v-0.014c0-0.01,0-0.012,0-0.012c0-0.283-0.085-0.576-0.312-0.787c-0.23-0.217-0.529-0.281-0.809-0.281
				h-4.47c-0.227-0.004-0.367-0.055-0.527-0.188c-0.145-0.139-0.169-0.197-0.18-0.383v-0.573l5.391,0.002v-0.007
				c0.673-0.041,1.289-0.288,1.801-0.72c0.602-0.507,0.937-1.204,0.936-1.976h-0.001c0.001-0.021,0.001-0.027,0.001-0.028
				C27.566,19.429,27.25,18.75,26.679,18.249z M25.134,20.583c-0.157,0.131-0.292,0.184-0.521,0.188l-5.174-0.002v-0.575
				c0.009-0.179,0.034-0.239,0.185-0.381c0.155-0.128,0.297-0.183,0.522-0.186h4.47c0.226,0.003,0.362,0.054,0.515,0.175
				c0.155,0.144,0.185,0.216,0.194,0.397C25.315,20.367,25.287,20.438,25.134,20.583z"/>
			<path fill="#878787" d="M52.676,18.542c0-0.277-0.084-0.571-0.312-0.783c-0.228-0.215-0.525-0.281-0.809-0.28h-1.112v-1.206
				c0-0.004,0-0.008,0-0.012l0,0V16.26c0-0.278-0.084-0.576-0.312-0.789c-0.231-0.211-0.525-0.278-0.807-0.278
				c-0.278,0-0.576,0.064-0.808,0.277c-0.232,0.216-0.315,0.514-0.315,0.794c0,0-0.001,0.006,0,0.022v1.193
				c-0.248,0.017-0.502,0.091-0.703,0.278c-0.23,0.218-0.313,0.517-0.313,0.797c0,0.001,0,0.007,0.001,0.016
				c0.001,0.276,0.084,0.571,0.312,0.788c0.203,0.184,0.456,0.26,0.704,0.275v4.175c0.284-0.137,0.599-0.217,0.893-0.191
				c0.004,0,0.008,0.002,0.013,0.002c0.386,0,0.747,0.098,1.08,0.291c0.086,0.066,0.172,0.133,0.258,0.199v-4.474l1.111,0.001
				c0.283,0.002,0.579-0.067,0.809-0.278c0.226-0.21,0.311-0.5,0.312-0.773l0.001-0.004v-0.023
				C52.676,18.542,52.676,18.542,52.676,18.542z"/>
			<path fill="#878787" d="M31.003,14.483c0.001-0.282-0.082-0.578-0.309-0.794c-0.23-0.216-0.528-0.286-0.811-0.286
				c-0.283,0-0.58,0.07-0.809,0.284c-0.229,0.216-0.312,0.514-0.312,0.796v10.639c0,0.281,0.082,0.576,0.309,0.795
				c0.221,0.205,0.503,0.279,0.776,0.283h0.001h0.019c0.004,0,0.008,0.002,0.011,0.002s0.006-0.002,0.009-0.002h0.003
				c0.281,0.002,0.576-0.07,0.804-0.283c0.227-0.217,0.31-0.514,0.31-0.795l0,0l0.001-10.626
				C31.003,14.483,31.003,14.483,31.003,14.483z"/>
			<path fill="#878787" d="M34.745,14.472c0.001-0.28-0.086-0.572-0.309-0.784c-0.229-0.215-0.527-0.285-0.81-0.285
				c-0.283,0-0.581,0.07-0.811,0.285c-0.23,0.219-0.312,0.519-0.312,0.801v10.627c0,0.279,0.08,0.58,0.309,0.801
				c0.223,0.207,0.509,0.281,0.783,0.285h0.002h0.036c0.279,0,0.575-0.07,0.802-0.283c0.224-0.215,0.311-0.506,0.311-0.783V25.12
				h-0.002l0.002-10.625C34.746,14.483,34.745,14.474,34.745,14.472z"/>
			<path fill="#878787" d="M45.429,18.249c-0.564-0.508-1.277-0.772-2.056-0.771c0,0,0,0-0.002,0c-0.003-0.001-0.007-0.001-0.017,0
				h-4.462c-0.278,0-0.575,0.062-0.804,0.276c-0.23,0.21-0.317,0.506-0.316,0.784v0.022c-0.001,0.277,0.083,0.574,0.312,0.79
				c0.231,0.212,0.527,0.279,0.808,0.278h4.472c0.227,0.005,0.362,0.056,0.524,0.188c0.148,0.14,0.174,0.203,0.185,0.383v0.558
				l-5.17,0.003c-0.005,0-0.011-0.001-0.02-0.001c-0.779-0.002-1.493,0.264-2.057,0.779c-0.568,0.505-0.886,1.186-0.885,1.937
				c0.001,0,0,0.004,0,0.014v0.006c-0.001,0.746,0.318,1.426,0.893,1.934c0.559,0.504,1.263,0.77,2.031,0.771l0.004,0.002h4.494
				h0.004c0.396,0,0.776-0.068,1.13-0.207c0.19,0.137,0.427,0.207,0.663,0.207c0.014,0,0.025,0,0.033,0h0.007
				c0.276,0,0.567-0.068,0.795-0.273c0.218-0.201,0.305-0.475,0.315-0.734l0.001-0.004v-0.041c0.001-0.006,0.001-0.012,0-0.016
				v-4.939c0-0.01,0-0.01,0-0.01C46.314,19.432,45.998,18.752,45.429,18.249z M44.073,23.481c-0.01,0.182-0.036,0.242-0.188,0.385
				c-0.156,0.131-0.294,0.182-0.522,0.186l-4.471-0.002c-0.228-0.002-0.367-0.055-0.524-0.184c-0.146-0.141-0.173-0.205-0.184-0.385
				c0.01-0.164,0.04-0.243,0.194-0.394c0.155-0.13,0.291-0.183,0.515-0.188h5.18V23.481L44.073,23.481z"/>
			<path fill="#878787" d="M-19.777,20.194c0.009-0.175,0.035-0.237,0.188-0.384c0.155-0.125,0.293-0.18,0.523-0.184h4.467
				c0.228,0.005,0.363,0.056,0.525,0.189c0.148,0.142,0.176,0.207,0.185,0.38v3.287c-0.009,0.176-0.037,0.242-0.188,0.385
				c-0.158,0.129-0.292,0.18-0.522,0.184h-4.233c-0.007,0.018-0.013,0.035-0.02,0.053c0.056,0.098,0.11,0.197,0.156,0.297
				c0.251,0.564,0.424,1.166,0.414,1.756c0.019,0.014,0.037,0.031,0.055,0.045h3.642c0.751,0,1.443-0.254,2.003-0.738
				c0.6-0.494,0.934-1.191,0.932-1.963h0l0-3.307c0-0.009,0-0.01,0-0.01c0.001-0.752-0.314-1.431-0.885-1.936
				c-0.562-0.509-1.275-0.771-2.054-0.77h-0.003c-0.003,0-0.009-0.001-0.021,0l-4.441-0.001c-0.005-0.001-0.01-0.001-0.018-0.001
				c-0.782-0.002-1.497,0.262-2.063,0.772c-0.568,0.502-0.884,1.183-0.883,1.933c0,0,0,0.01,0.001,0.025v1.105
				c0.114-0.037,0.233-0.066,0.352-0.082c0.016-0.004,0.03-0.01,0.045-0.016c0.056-0.022,0.11-0.043,0.167-0.062
				c0.031-0.011,0.062-0.024,0.091-0.034"/>
			<path fill="#878787" d="M68.048,20.18c0.002-0.749-0.315-1.431-0.886-1.932c-0.564-0.508-1.276-0.77-2.056-0.77c0,0,0,0-0.002,0
				s-0.008-0.001-0.022,0h-4.44c-0.005-0.001-0.011-0.001-0.016-0.001c-0.783-0.003-1.498,0.262-2.063,0.773
				c-0.567,0.5-0.886,1.181-0.885,1.931c0,0,0,0.005,0,0.014v0.23c0.337-0.254,0.744-0.407,1.228-0.407
				c0.219,0,0.455,0.045,0.687,0.121c0.345-0.419,0.87-0.701,1.578-0.701c0.35,0,0.655,0.069,0.916,0.189h3.013
				c0.229,0.005,0.366,0.057,0.527,0.189c0.145,0.139,0.172,0.203,0.182,0.382l-0.001,3.288h0.001
				c-0.011,0.176-0.038,0.242-0.187,0.383c-0.155,0.127-0.293,0.178-0.523,0.182h-4.02c-0.002,0.02,0.001,0.037-0.001,0.055
				c-0.082,0.879-0.553,1.654-1.319,1.979c0.274,0.078,0.562,0.117,0.86,0.117h4.496c0.749,0,1.442-0.254,2.001-0.738
				c0.6-0.494,0.934-1.188,0.933-1.959l0.002-0.004v-3.307C68.049,20.182,68.048,20.18,68.048,20.18z"/>
			<path fill="#878787" d="M78.393,20.179c0.002-0.75-0.314-1.43-0.884-1.931c-0.562-0.509-1.273-0.772-2.054-0.771
				c0,0-0.001,0-0.002,0c-0.003-0.001-0.009-0.001-0.023,0.001h-2.934c-0.396-0.001-0.778,0.066-1.135,0.201
				c-0.194-0.136-0.43-0.203-0.666-0.203h-0.008c-0.006,0-0.017,0-0.03,0.002c-0.274,0.001-0.565,0.065-0.793,0.275
				c-0.231,0.212-0.315,0.511-0.315,0.789v0.003c0,0.004,0,0.01,0,0.016v6.561c0,0.01,0,0.016,0,0.016
				c0,0.277,0.083,0.576,0.317,0.791c0.23,0.207,0.523,0.273,0.803,0.273c0.281,0,0.575-0.066,0.806-0.273
				c0.227-0.209,0.313-0.498,0.316-0.77l0.001-0.002v-4.963c0.009-0.175,0.035-0.239,0.186-0.382
				c0.156-0.128,0.296-0.182,0.521-0.187l2.947,0.002c0.227,0.003,0.368,0.058,0.522,0.187c0.15,0.142,0.175,0.203,0.186,0.385
				v4.933c0-0.006,0,0.006,0,0.018c-0.001,0.275,0.088,0.566,0.313,0.777c0.231,0.209,0.526,0.275,0.807,0.275h0.005
				c0.279,0,0.57-0.066,0.799-0.273c0.227-0.211,0.313-0.5,0.314-0.775l0.001-0.004v-4.955
				C78.393,20.182,78.393,20.179,78.393,20.179z"/>
			<path fill="#878787" d="M-2.188,18.249c-0.56-0.508-1.275-0.772-2.052-0.771c0,0-0.001,0-0.004,0
				c-0.001-0.001-0.007-0.001-0.013,0h-2.942c-0.398,0-0.781,0.067-1.138,0.202c-0.192-0.135-0.425-0.203-0.661-0.203
				c-0.004,0-0.018,0-0.04,0.002c-0.276,0-0.566,0.065-0.793,0.274c-0.229,0.211-0.317,0.505-0.316,0.783c0,0-0.001,0.012,0,0.031
				v6.565v0.014c-0.001,0.275,0.085,0.572,0.317,0.783c0.23,0.207,0.523,0.273,0.803,0.273c0.281,0,0.575-0.066,0.804-0.273
				c0.229-0.213,0.316-0.506,0.315-0.783v-4.95c0.009-0.176,0.036-0.24,0.188-0.383c0.156-0.128,0.295-0.182,0.525-0.187
				l2.944,0.003c0.227,0.003,0.365,0.056,0.523,0.188c0.148,0.14,0.176,0.204,0.185,0.381v4.935c0-0.002-0.001,0.004-0.001,0.014
				c0,0.275,0.087,0.57,0.316,0.781c0.229,0.209,0.523,0.275,0.805,0.275c0.28,0,0.574-0.066,0.804-0.273
				c0.229-0.211,0.314-0.502,0.317-0.777v-4.957c0-0.008,0-0.014,0-0.014C-1.301,19.43-1.618,18.75-2.188,18.249z"/>
		</g>
		<g>
			<path fill="#878787" d="M46.086,32.249c0,0.309-0.098,0.58-0.291,0.814c-0.193,0.232-0.456,0.428-0.787,0.582
				c-0.331,0.158-0.718,0.273-1.162,0.352c-0.442,0.08-0.917,0.119-1.421,0.119c-0.342,0-0.659-0.018-0.951-0.051
				c-0.294-0.033-0.553-0.074-0.775-0.119c-0.226-0.047-0.413-0.098-0.562-0.148c-0.151-0.051-0.259-0.096-0.325-0.137
				c-0.066-0.039-0.113-0.096-0.141-0.17c-0.028-0.074-0.043-0.18-0.043-0.32c0-0.094,0.005-0.172,0.016-0.234
				c0.009-0.064,0.027-0.115,0.05-0.154c0.022-0.041,0.054-0.068,0.092-0.086c0.037-0.016,0.082-0.023,0.134-0.023
				c0.07,0,0.171,0.023,0.301,0.074s0.297,0.105,0.5,0.166c0.205,0.061,0.448,0.115,0.73,0.166c0.282,0.049,0.61,0.074,0.982,0.074
				c0.244,0,0.463-0.016,0.657-0.051c0.193-0.035,0.358-0.086,0.493-0.148s0.237-0.143,0.31-0.236
				c0.07-0.094,0.106-0.197,0.106-0.312c0-0.135-0.061-0.248-0.184-0.344c-0.121-0.096-0.281-0.18-0.477-0.254
				c-0.197-0.074-0.42-0.145-0.669-0.209c-0.25-0.064-0.508-0.135-0.772-0.207c-0.266-0.072-0.522-0.154-0.772-0.246
				c-0.249-0.092-0.472-0.203-0.669-0.332c-0.195-0.129-0.354-0.279-0.477-0.457c-0.123-0.174-0.184-0.385-0.184-0.631
				c0-0.281,0.087-0.529,0.264-0.742c0.176-0.213,0.412-0.391,0.71-0.531s0.649-0.246,1.056-0.314
				c0.404-0.07,0.833-0.104,1.287-0.104c0.234,0,0.469,0.008,0.703,0.031c0.233,0.02,0.453,0.049,0.657,0.086
				c0.204,0.035,0.384,0.076,0.542,0.123c0.159,0.045,0.263,0.082,0.313,0.111c0.051,0.031,0.086,0.057,0.104,0.078
				s0.032,0.049,0.046,0.084c0.013,0.035,0.021,0.08,0.026,0.131c0.005,0.055,0.008,0.119,0.008,0.199
				c0,0.086-0.004,0.162-0.012,0.223s-0.02,0.109-0.039,0.148c-0.017,0.039-0.041,0.068-0.076,0.088
				c-0.032,0.018-0.076,0.025-0.133,0.025s-0.146-0.021-0.268-0.062c-0.122-0.043-0.272-0.09-0.45-0.139
				c-0.18-0.051-0.386-0.096-0.62-0.137s-0.491-0.061-0.772-0.061c-0.219,0-0.41,0.016-0.573,0.047s-0.299,0.076-0.409,0.133
				c-0.108,0.055-0.19,0.123-0.244,0.201c-0.053,0.078-0.08,0.162-0.08,0.25c0,0.129,0.061,0.242,0.18,0.338
				c0.12,0.096,0.28,0.18,0.482,0.254c0.2,0.074,0.429,0.145,0.684,0.209c0.254,0.064,0.515,0.135,0.779,0.207
				s0.524,0.154,0.78,0.248c0.254,0.092,0.48,0.203,0.68,0.33c0.199,0.129,0.358,0.281,0.481,0.453
				C46.021,31.81,46.086,32.013,46.086,32.249z"/>
			<path fill="#878787" d="M55.838,30.989c0,0.537-0.118,0.998-0.355,1.381s-0.578,0.695-1.021,0.938
				c-0.443,0.242-0.981,0.42-1.616,0.535c-0.634,0.111-1.391,0.168-2.267,0.168h-2.361c-0.168,0-0.31-0.027-0.424-0.088
				c-0.116-0.059-0.173-0.154-0.173-0.289v-5.121c0-0.133,0.057-0.23,0.173-0.289c0.114-0.059,0.256-0.086,0.424-0.086h2.538
				c0.881,0,1.628,0.061,2.241,0.182c0.614,0.123,1.132,0.305,1.553,0.545c0.42,0.24,0.74,0.539,0.959,0.895
				C55.728,30.112,55.838,30.521,55.838,30.989z M53.759,31.028c0-0.279-0.055-0.537-0.165-0.775
				c-0.109-0.24-0.285-0.447-0.527-0.623c-0.241-0.176-0.553-0.312-0.933-0.41c-0.378-0.098-0.877-0.148-1.494-0.148h-1.016v3.996
				h1.047c0.551,0,1.014-0.043,1.392-0.127c0.376-0.084,0.69-0.213,0.943-0.385c0.253-0.17,0.44-0.383,0.565-0.639
				C53.695,31.665,53.759,31.368,53.759,31.028z"/>
			<path fill="#878787" d="M59.506,33.847c0,0.031-0.017,0.059-0.049,0.082c-0.034,0.023-0.089,0.045-0.165,0.059
				c-0.076,0.018-0.179,0.029-0.307,0.037c-0.126,0.01-0.29,0.014-0.489,0.014c-0.192,0-0.354-0.004-0.484-0.014
				c-0.13-0.008-0.233-0.02-0.31-0.037c-0.076-0.014-0.132-0.033-0.165-0.059c-0.032-0.023-0.05-0.051-0.05-0.082V28.3
				c0-0.029,0.018-0.057,0.05-0.082c0.033-0.023,0.09-0.043,0.169-0.059c0.078-0.016,0.182-0.027,0.31-0.037
				c0.127-0.008,0.288-0.014,0.48-0.014c0.199,0,0.363,0.006,0.489,0.014c0.128,0.01,0.229,0.021,0.307,0.037
				c0.076,0.016,0.131,0.035,0.164,0.059c0.033,0.025,0.049,0.053,0.049,0.082L59.506,33.847L59.506,33.847z"/>
		</g>
	</g>
</g>
</svg>
