<svg xmlns="http://www.w3.org/2000/svg" width="112.12" height="45" viewBox="0 0 112.12 45"><style type="text/css"><![CDATA[
	.st0{fill:#878787;}	.st1{fill:#FAC017;}	.st2{fill:#FAC019;}	.st3{fill:#FAC226;}	.st4{fill:#FBC842;}	.st5{fill:#FDD36F;}	.st6{opacity:0.8;}	.st7{fill:#FEDC91;}
	.st8{fill:#FEE4AC;}	.st9{fill:none;}	.st10{opacity:0.8;fill:#FEDC91;enable-background:new    ;}
]]></style><g id="Calque_7_1_"><path class="st0" d="M81.08 9.4c-.39-.18-.8-.35-1.23-.52l-.17.42c.42.17.82.34 1.21.52l.19-.42zm-44.83 25.55l.97.91.31-.33c-.32-.29-.64-.6-.96-.91l-.32.33zm-3.67-31.01l.05.45c.43-.04.87-.08 1.31-.11l-.04-.45c-.44.03-.89.07-1.32.11zm1.76 29.17l.95.92.31-.32-.95-.92-.31.32zm-5.47-5.78c.29.33.58.67.88 1l.34-.3-.87-.99-.35.29zm3.59 3.9c.31.32.62.63.94.95l.32-.32c-.31-.31-.62-.62-.93-.94l-.33.31zm6.75-27.52l-1.23-.01h-.09v.45h.09c.4 0 .81 0 1.23.01v-.45zm-8.57 25.6c.3.33.6.65.91.97l.33-.31-.9-.96-.34.3zm7.55 7.44c.33.3.67.59 1 .88l.29-.34c-.33-.28-.66-.57-.99-.87l-.3.33zm6.31 4.87c.38.23.77.46 1.16.67l.22-.4c-.38-.21-.76-.42-1.14-.66l-.24.39zm5.3-37.29c-.44-.04-.88-.08-1.32-.11l-.04.45 1.32.11.04-.45zm-2.95 38.57c.41.19.82.37 1.23.53l.16-.43c-.4-.16-.8-.33-1.2-.52l-.19.42zm-6.65-4.4l1.03.83.28-.35c-.34-.27-.68-.54-1.02-.83l-.29.35zm2.99-34.65l-.02.45c.44.02.88.05 1.32.08l.03-.45-1.33-.08zm-2.66.34c.44.01.88.03 1.32.05l.02-.45c-.44-.02-.89-.04-1.32-.05l-.02.45zm-3.96-.02l-.01-.45c-.45.01-.89.02-1.33.04l.02.45c.43-.02.87-.04 1.32-.04zm10.59-.05c-.44-.04-.88-.07-1.32-.1l-.03.45c.44.03.88.06 1.32.1l.03-.45zm-25.27 4.66l.1-.13-.35-.29-.11.14c-.29.37-.52.77-.69 1.2l.42.17c.16-.39.37-.76.63-1.09zm4.34-3l-.16-.42c-.43.17-.84.35-1.23.54l.2.4c.38-.19.78-.36 1.19-.52zm61.19 8.24c-.23-.32-.5-.63-.79-.94l-.33.31c.29.31.55.61.78.92.1-.1.22-.2.34-.29zm-1.78-1.85c-.33-.28-.69-.55-1.07-.81l-.26.37c.37.26.72.52 1.04.79l.29-.35zm-36.31 31.7c.43.13.85.25 1.29.36l.1-.44c-.42-.1-.84-.22-1.26-.35l-.13.43zm-28.41-32.05c0-.25.01-.5.04-.73l-.45-.05c-.03.26-.05.52-.05.79l.02.58.45-.03-.01-.56zm2.75-5.25c-.38.25-.74.52-1.08.82l.3.34c.32-.28.66-.54 1.03-.78l-.25-.38zm3.5 18.72c.27.34.56.69.84 1.03l.35-.29c-.28-.34-.56-.68-.83-1.02l-.36.28zm-6.48-11.55c.09.42.21.86.35 1.3l.43-.14c-.14-.43-.26-.85-.34-1.25l-.44.09zm.82 2.55c.17.4.35.81.55 1.22l.41-.2c-.2-.4-.38-.8-.54-1.19l-.42.17zm20.78 23.84c.36.27.73.52 1.09.77l.25-.38c-.36-.24-.72-.49-1.07-.76l-.27.37zm35.86-6.38l.29.34c.34-.29.67-.58 1-.88l-.3-.33c-.32.29-.65.58-.99.87zm-1.01.85c-.34.27-.68.55-1.03.82l.28.36c.35-.27.7-.55 1.04-.83l-.29-.35zm-3.15 2.38l.26.37c.37-.26.73-.52 1.08-.78l-.27-.36c-.35.26-.71.52-1.07.77zm-1.88-29.87l1.29.27.1-.44-1.3-.28-.09.45zm-.32 31.33l.24.38 1.12-.72-.25-.38c-.37.25-.74.49-1.11.72zm2.89-30.75c.44.11.86.22 1.27.34l.12-.43-1.28-.35-.11.44zm7.39 2.69c.4.21.78.42 1.15.64l.23-.39c-.37-.22-.76-.44-1.17-.65l-.21.4zm-26.99-5.56l-1.32-.12-.04.45 1.32.12.04-.45zm2.15 39.36l.05.45c.44-.05.88-.11 1.33-.19l-.09-.44c-.44.08-.87.14-1.29.18zm.48-39.12l-1.32-.12-.04.45 1.32.12.04-.45zm2.64.22l-1.32-.11-.04.45c.44.04.88.08 1.32.11l.04-.45zm9.18 34.51l.22.39c.38-.22.77-.44 1.15-.67l-.23-.39c-.38.24-.76.46-1.14.67zm-17.59 4.7c.44.07.88.13 1.33.17l.04-.45c-.44-.04-.87-.09-1.29-.16l-.08.44zm.5-39.92l-1.32-.12-.04.45 1.32.12.04-.45zm7.37 39.17l.1.44c.43-.1.86-.21 1.29-.33l-.12-.43c-.43.12-.85.23-1.27.32zm-4.72.55l-.48-.01-.01.45h.49c.28 0 .56 0 .85-.02l-.02-.45c-.28.03-.56.03-.83.03zm13.18-38.28l-1.32-.17-.05.45c.44.05.88.11 1.31.17l.06-.45zm-1.07 35.01l.2.4c.4-.19.79-.4 1.19-.6l-.21-.4c-.4.21-.79.41-1.18.6zm-4.25-35.1l.03-.45-.32-.02-1-.07-.03.45 1 .07.32.02zm7.94.5c-.43-.08-.87-.15-1.31-.22l-.07.45c.44.07.88.14 1.3.22l.08-.45zm-6.09 35.69l.17.42c.41-.17.81-.35 1.22-.53l-.19-.41c-.4.18-.8.35-1.2.52zm-2.47.92l.14.43c.42-.14.84-.29 1.26-.44l-.16-.42c-.41.15-.82.3-1.24.43zm3.3-37.33l-1.32-.12-.04.45 1.31.12.05-.45zm2.64.31z"/><g class="st6"><path class="st9" d="M52.4 9.36"/><path class="st7" d="M52.4 9.36c1.06-.09 1.85-.11 2.4-.07l1.82-.27c-1.29.23-2.58.47-3.86.72-3.47.7-7.37 1.59-11.08 2.55-3.71.95-7.24 1.97-10 2.8 1.62-.52 3.56-1.12 5.42-1.67l1.81-.52c1.17-.33 2.23-.62 3.08-.84l-.5.15c1.26-.37 2.52-.72 3.79-1.07 1.27-.31 2.55-.62 3.83-.91-1.28.29-2.56.6-3.83.91 2.36-.63 4.74-1.22 7.12-1.78"/><path class="st9" d="M45.28 11.14m-13.6 3.95l24.94-6.07"/><path class="st7" d="M65.67 30.41l-.16.03.9-.23c3.57-.83 7.13-1.74 10.4-2.69 3.98-1.14 8.12-2.42 12.36-3.92.85-.3 1.7-.61 2.56-.93-1.7.67-3.41 1.31-5.14 1.92l-.51.17c-3.69 1.21-7.07 2.22-10.38 3.15-3.33.92-6.58 1.74-10.03 2.5"/><path class="st9" d="M86.58 24.6m4.56-2"/><path class="st2" d="M91.14 22.6c3.88-1.5 7.97-3.23 11.77-5.37l.03.05c-2.11 1.18-4.44 2.32-6.87 3.35-.67.28-1.34.56-2.02.83l.49-.18c-1.13.45-2.26.89-3.4 1.32m8.63-3.59c1.16-.57 2.3-1.18 3.42-1.82l.45-.24c-1.25.74-2.55 1.42-3.87 2.06m-34.92 12.7l-1.03.2 1.29-.26-.26.06"/><path class="st9" d="M63.82 31.91m39.7-12.49"/><path class="st2" d="M103.52 19.42c-.55.29-1.11.57-1.67.84l1.67-.84m-1.67.83l-.24.12.24-.12"/><path class="st9" d="M102.29 5.82"/><path class="st2" d="M102.29 5.82c.42.08.84.16 1.26.25-.41-.09-.83-.17-1.26-.25"/><path class="st9" d="M110.09 14.69"/><path class="st2" d="M110.09 14.69l-.41.37c.14-.11.27-.24.41-.37m-94.18 19.68c-.95-.16-1.89-.34-2.81-.57.92.23 1.86.42 2.81.57"/><path class="st9" d="M63.82 31.91"/><path class="st2" d="M63.82 31.91l-2.08.37 2.08-.37"/><path class="st9" d="M105.52 6.62m0 0"/><path class="st2" d="M105.52 6.62c.57.16 1.12.33 1.66.53-.46-.17-.94-.32-1.42-.46l-.24-.07m-5.53-1.13c.77.09 1.54.2 2.3.33-.51-.08-1.02-.16-1.53-.23l-.77-.1"/><path class="st9" d="M102.29 5.82"/><path class="st2" d="M109.76 12.33c.51-.67.85-1.41.86-2.02l-.01-.33.01.33-.01-.33h.01c.06.35 0 .73-.15 1.13-.16.41-.41.83-.71 1.22"/><path class="st9" d="M102.28 5.9m0 0"/><path class="st2" d="M102.28 5.9c1.1.19 2.18.42 3.24.72.57.16 1.12.33 1.66.53-.46-.17-.94-.32-1.42-.46.78.23 1.56.5 2.3.85.73.34 1.43.77 1.91 1.28.24.25.42.52.52.79l.03.1.02.07.02.08.01.04v.03-.03l.01.1c.01.14.01.29-.01.44-.07.61-.48 1.33-1.03 1.99l-.28.38c.53-.58.97-1.21 1.19-1.82.11-.3.16-.59.14-.86l-.02-.2v-.03l.01.03v-.01l-.02-.08-.03-.1c-.03-.11-.09-.25-.16-.37l.11.23.04.11.03.1.02.1.01.02v.01l-.01-.03v.04l.02.12.01.25-.01-.33.01-.09-.02-.1-.04-.14-.13-.31.14.31.04.14.01.06.01.03v.03l-.01-.03.01.08-.01-.07-.02-.08-.01-.04-.01-.02-.06-.17c-.05-.13-.11-.26-.2-.39-.16-.26-.39-.5-.67-.73-.55-.46-1.26-.84-2.01-1.15.6.26 1.16.56 1.65.9-.61-.43-1.34-.78-2.11-1.08l.46.18c-.67-.29-1.38-.53-2.11-.74-1.04-.29-2.13-.51-3.23-.68m4.9 1.24l-.47-.16.47.16m3.22 2.22"/><path class="st9" d="M105.76 6.69"/><path class="st1" d="M105.76 6.69c.48.14.96.29 1.42.46-.46-.17-.94-.33-1.42-.46"/><path class="st9" d="M107.18 7.15m3.44 2.83"/><path class="st1" d="M110.61 9.98l.01.33-.01-.33"/><path class="st9" d="M96.11 5.19m0 0"/><path class="st2" d="M96.11 5.19c.43.02.87.05 1.3.08.6.04 1.21.1 1.81.16 1.8.19 3.6.46 5.33.87.33.08.66.17.98.26-1.06-.29-2.15-.5-3.25-.68-2.02-.33-4.09-.55-6.17-.69"/><path class="st9" d="M105.53 6.57m4.87 2.79"/><path class="st2" d="M110.4 9.36l.14.31.04.14.01.06.01.03v.03l-.01-.03.01.08h-.01l.01-.08-.02-.1-.04-.14-.14-.3"/><path class="st9" d="M110.62 9.98"/><path class="st1" d="M110.4 9.36l.14.31.04.14.01.06.01.03v.03l-.01-.03.01.08v-.08l.01.03v-.03l-.01-.03-.01-.06-.04-.14-.15-.31"/><path class="st9" d="M110.62 9.98m-15.03-4.81"/><path class="st2" d="M95.59 5.17l1.02.05.8.06c-.43-.03-.87-.06-1.3-.08l-.52-.03"/><path class="st9" d="M96.37 5.2m0 0"/><path class="st2" d="M96.37 5.2l.24.02-.24-.02m.69.05c.98.06 1.96.14 2.93.25-.51-.05-1.03-.1-1.55-.14-.46-.05-.92-.08-1.38-.11"/><path class="st9" d="M97.41 5.28m13.2 4.7"/><path class="st1" d="M110.61 9.98l.01.33-.01-.33"/><path class="st9" d="M110.61 9.98m-14.24-4.78"/><path class="st2" d="M96.37 5.2l.69.05-.69-.05m.24.02l.45.03c.46.03.92.07 1.38.11l.77.08c-.6-.06-1.21-.11-1.81-.16.6.04 1.21.1 1.81.16-.6-.06-1.21-.11-1.81-.16l-.79-.06"/><path class="st1" d="M96.37 5.2l.69.05-.45-.03-.24-.02m.69.05c.46.03.92.07 1.38.11-.46-.05-.92-.08-1.38-.11"/><path class="st9" d="M99.22 5.44m0 0l-1.81-.16"/><path class="st1" d="M97.41 5.28c.6.04 1.21.1 1.81.16-.61-.07-1.21-.12-1.81-.16"/><path class="st9" d="M98.44 5.35m0 0"/><path class="st2" d="M98.44 5.35c.52.04 1.04.09 1.55.14l.77.1c-.77-.09-1.54-.17-2.32-.24"/><path class="st9" d="M99.99 5.49m0 0"/><path class="st1" d="M99.99 5.49l.77.11-.77-.11m-1.55-.14c.52.04 1.04.09 1.55.14-.51-.05-1.03-.1-1.55-.14"/><path class="st9" d="M99.99 5.49m-1.55-.14"/><path class="st2" d="M98.44 5.35c.78.07 1.55.15 2.32.25.43.06.85.13 1.27.21-.85-.14-1.7-.25-2.56-.34l-.26-.02-.77-.1"/><path class="st9" d="M100.76 5.6m1.27.2l-3.59-.45"/><path class="st1" d="M98.44 5.35c.78.07 1.55.15 2.32.25-.77-.1-1.54-.18-2.32-.25"/><path class="st9" d="M100.76 5.6m0 0"/><path class="st1" d="M106.71 6.97l.47.16-.47-.16"/><path class="st9" d="M99.22 5.44m7.96 1.7"/><path class="st2" d="M107.18 7.14l.46.17c.6.26 1.16.56 1.65.9-.61-.43-1.34-.78-2.11-1.07"/><path class="st1" d="M107.18 7.14l.46.17-.46-.17"/><path class="st9" d="M107.64 7.31"/><path class="st1" d="M107.64 7.31c.6.26 1.16.56 1.65.9-.49-.34-1.06-.64-1.65-.9"/><path class="st9" d="M107.64 7.31m1.65.91l-4.74-1.91"/><path class="st2" d="M104.55 6.31c.5.12.99.25 1.47.39l-.48-.13c-.33-.09-.66-.18-.99-.26"/><path class="st9" d="M99.22 5.44m0 0"/><path class="st2" d="M99.22 5.44l.26.02c1.71.19 3.42.46 5.07.85-1.74-.41-3.53-.68-5.33-.87"/><path class="st1" d="M99.22 5.44l.26.02-.26-.02.26.02-.26-.02m0 0l.26.02-.26-.02"/><path class="st9" d="M104.55 6.31"/><path class="st2" d="M107.98 15.98c-1.08.79-2.21 1.49-3.36 2.14 1.3-.74 2.58-1.55 3.78-2.47l-.42.33"/><path class="st9" d="M104.62 18.11"/><path class="st2" d="M106.46 17.07c-1.05.66-2.14 1.25-3.24 1.81 1.4-.73 2.79-1.52 4.11-2.42-.28.21-.57.41-.87.61"/><path class="st9" d="M103.23 18.88m.84-.13"/><path class="st2" d="M104.07 18.75c-3.25 1.81-6.42 3.18-9.13 4.22 1.55-.62 3.1-1.27 4.62-1.97l-.24.11c1.61-.73 3.19-1.5 4.75-2.36"/><path class="st9" d="M99.56 21m0 0l-4.62 1.97 9.13-4.22"/><path class="st2" d="M104.07 18.75c-1.55.86-3.14 1.63-4.75 2.36l.24-.11c1.52-.69 3.03-1.44 4.51-2.25"/><path class="st9" d="M104.07 18.75"/><path class="st1" d="M104.07 18.75c-1.55.86-3.14 1.63-4.75 2.36 1.61-.73 3.19-1.5 4.75-2.36"/><path class="st9" d="M99.32 21.11"/><path class="st2" d="M105.57 17.65c-.38.23-.77.44-1.15.65.69-.39 1.38-.8 2.04-1.23-.29.2-.59.39-.89.58"/><path class="st9" d="M104.42 18.3m7.49-9.11"/><path class="st2" d="M111.91 9.19c.2.56.22 1.19.09 1.75.12-.56.1-1.19-.09-1.75"/><path class="st8" d="M59.53 7.43l-1.29.26-1.8.4c2.85-.52 5.7-1 9.08-1.52l-1.04.14c3.64-.58 6.25-.88 9.38-1.23-2.22.22-4.77.54-7.27.89-2.52.34-4.99.73-7.06 1.06m4.94-.72"/><path class="st9" d="M65.51 6.57m8.34-1.09l5.49-.63"/><path class="st2" d="M79.34 4.85l1.05-.08-1.05.08"/><path class="st9" d="M65.51 6.57"/><path class="st2" d="M65.51 6.57l1.56-.24-1.56.24"/><path class="st9" d="M77.77 4.98"/><path class="st2" d="M77.77 4.98l1.57-.13-1.57.13m34.12 4.81c.08.56-.01 1.13-.2 1.65-.2.52-.48.98-.8 1.41.32-.43.59-.9.78-1.42.19-.51.28-1.08.2-1.64h.02m.01 0c.08.56-.01 1.13-.21 1.65.19-.52.28-1.09.19-1.65h.02"/><path class="st9" d="M111.69 11.44m.15-2.22"/><path class="st2" d="M111.84 9.22c.15.46.19.96.12 1.43-.08.57-.3 1.09-.57 1.57s-.6.91-.96 1.31c.44-.5.84-1.06 1.13-1.68s.46-1.33.36-2.05l-.03-.28-.05-.3"/><path class="st9" d="M110.43 13.52"/><path class="st2" d="M111.85 9.21c.15.46.19.96.12 1.43.06-.47.02-.97-.12-1.43"/><path class="st9" d="M111.96 10.65m-.21-1.71"/><path class="st2" d="M111.75 8.94c.07.16.12.31.17.49.04.15.07.33.08.5.03.34 0 .68-.07 1.01-.14.65-.45 1.24-.81 1.76.4-.6.74-1.28.84-2.04.07-.47.03-.97-.12-1.43-.02-.11-.05-.2-.09-.29"/><path class="st9" d="M111.12 12.69m.75-2.9"/><path class="st8" d="M111.87 9.79c.08.56-.01 1.13-.2 1.64-.19.52-.47.99-.78 1.42.32-.43.6-.9.8-1.41-.26.71-.69 1.37-1.2 1.97-.51.6-1.09 1.15-1.7 1.66-1.22 1.02-2.55 1.89-3.81 2.63 1.32-.81 2.62-1.68 3.81-2.69.51-.43 1-.89 1.45-1.39.45-.5.86-1.05 1.16-1.66.3-.6.5-1.3.44-2-.02-.17-.05-.35-.09-.51-.05-.17-.11-.33-.18-.49-.15-.31-.35-.6-.58-.86.43.46.77 1.04.88 1.69"/><path class="st1" d="M111.87 9.79c.08.56-.01 1.13-.2 1.64-.19.52-.47.99-.78 1.42.32-.43.59-.9.78-1.42.19-.51.28-1.08.2-1.64"/><path class="st9" d="M110.89 12.85m.8-1.41"/><path class="st2" d="M109.96 7.24c.41.29.8.62 1.13 1.03.33.4.57.89.67 1.41.1.52.04 1.06-.11 1.55-.15.5-.4.95-.68 1.36-.56.83-1.25 1.5-1.92 2.09-.67.58-1.34 1.06-1.94 1.47.24-.17.46-.33.69-.51 1.08-.82 2.02-1.66 2.78-2.61.37-.47.69-.98.91-1.52.22-.54.32-1.14.23-1.73-.08-.58-.37-1.13-.76-1.58-.39-.45-.87-.83-1.39-1.15-1.05-.64-2.26-1.09-3.6-1.45l-.43-.11c.64.17 1.36.4 2.12.69.75.3 1.53.66 2.24 1.16.7.49 1.32 1.13 1.6 1.89.14.38.19.77.17 1.13-.02.37-.1.71-.22 1.01.18-.48.26-1.01.19-1.52s-.28-.99-.58-1.4c-.62-.82-1.5-1.38-2.4-1.82s-1.85-.77-2.81-1.04-1.92-.48-2.9-.66c1.21.2 2.42.45 3.6.81 1.2.35 2.37.8 3.41 1.5"/><path class="st9" d="M111.45 11.36m-.73 1.37"/><path class="st2" d="M110.72 12.73c-.55.73-1.21 1.37-1.92 1.96-.7.58-1.45 1.12-2.21 1.62.65-.44 1.29-.9 1.9-1.39.81-.65 1.6-1.36 2.23-2.19m-10.55 7.11l-.71.33-.24.1.95-.43m4.2-2.15l-1.15.63c-1 .54-2.02 1.04-3.05 1.52l-.71.33c1.67-.76 3.31-1.58 4.91-2.48m-1.15.63c-1 .54-2.02 1.04-3.05 1.52 1.03-.49 2.05-.99 3.05-1.52"/><path class="st9" d="M99.46 20.17m9.02-5.25"/><path class="st2" d="M108.48 14.92c-.61.5-1.24.96-1.9 1.39-1.09.73-2.22 1.39-3.37 2.01-1 .54-2.02 1.04-3.05 1.52l-.95.44.24-.1c-1.52.67-3.06 1.3-4.61 1.89 1.78-.72 3.55-1.48 5.28-2.31 2.63-1.19 5.91-2.89 8.36-4.84"/><path class="st1" d="M108.48 14.92c-.61.5-1.24.96-1.9 1.39.66-.44 1.3-.9 1.9-1.39"/><path class="st9" d="M106.59 16.31m-6.42 3.53"/><path class="st1" d="M100.17 19.84l-.95.43.95-.43"/><path class="st9" d="M99.22 20.27"/><path class="st1" d="M103.22 18.32c-1 .54-2.02 1.04-3.05 1.52 1.03-.49 2.05-.99 3.05-1.52"/><path class="st9" d="M99.46 20.17m3.76-1.85"/><path class="st1" d="M103.22 18.32c-1 .54-2.02 1.04-3.05 1.52 1.03-.49 2.05-.99 3.05-1.52"/><path class="st9" d="M98.69 20.38m0 0"/><path class="st2" d="M98.69 20.38c-2.62 1.18-5.07 2.12-7.05 2.81 1.96-.74 3.9-1.53 5.81-2.37l-.7.35c.65-.26 1.3-.52 1.94-.79"/><path class="st9" d="M41.49 35.76m0 0"/><path class="st2" d="M41.49 35.76c-.79.07-1.58.13-2.37.19l.79-.09 1.58-.1"/><path class="st1" d="M34.56 12.85c5.11-1.35 9.25-2.19 12.62-2.78-2.56.61-5.11 1.26-7.65 1.96-4.11 1.12-8.19 2.36-11.21 3.36-3.02.99-5.01 1.71-4.99 1.58 0-.03.17-.14.53-.31 3.69-1.46 7.43-2.76 10.7-3.81"/><path class="st9" d="M47.18 10.08"/><path class="st2" d="M6.48 26.86c.24-.3.49-.57.75-.83-.33.36-.57.66-.77.95-.21.29-.38.57-.55.92-.17.34-.35.74-.47 1.31-.11.56-.16 1.33.23 2.2l-.13-.27c-.05-.1-.11-.3-.14-.41-.09-.34-.12-.75-.07-1.2.05-.45.19-.93.4-1.38.18-.46.45-.89.75-1.29"/><path class="st9" d="M14.64 20.71"/><path class="st5" d="M14.64 20.71c1.92-.94 4.48-2.11 7.2-3.23.67-.27 1.34-.55 2.02-.81-.36.17-.53.28-.53.31-.01.12 1.97-.59 4.99-1.58 3.02-1 7.1-2.24 11.21-3.36-6.28 1.74-12.5 3.76-18.51 6.3-2 .85-3.98 1.76-5.91 2.78-1.4.74-2.77 1.53-4.08 2.41-1.31.89-2.58 1.86-3.65 3.04-.53.6-1.02 1.25-1.33 2.01-.16.38-.27.78-.3 1.19-.03.42.02.84.16 1.23.28.79.87 1.42 1.52 1.89.65.48 1.37.83 2.11 1.13-.24-.12-.48-.24-.71-.37-.68-.33-1.35-.73-1.91-1.27-.56-.53-1-1.23-1.09-2.02-.1-.76.13-1.52.48-2.18s.82-1.24 1.32-1.78c.32-.34.65-.65.99-.95 1.03-.9 2.14-1.68 3.26-2.39 1.12-.71 2.27-1.35 3.4-1.94 2.27-1.17 4.5-2.16 6.6-3-3.24 1.38-6.56 2.93-9.67 4.85-1.03.64-2.03 1.33-2.97 2.08-.94.76-1.83 1.6-2.51 2.59-.5.74-.89 1.6-.84 2.51.02.45.15.89.37 1.28s.51.73.84 1.03c.66.59 1.44 1.01 2.23 1.36s1.61.62 2.43.85c1.63.45 3.26.74 4.84.96s3.12.35 4.59.46c2.1.15 5.27.21 8.43.12-1.49.04-2.98.06-4.48.05l-.53.05c2.02.07 4.04.07 6.07.04l-1.58.04c-1.93.04-3.87.04-5.81-.02-1.76-.06-3.52-.16-5.27-.33-1.08-.11-2.17-.25-3.26-.42-1.69-.28-3.41-.64-5.11-1.28-.85-.33-1.69-.72-2.48-1.31-.39-.3-.76-.64-1.06-1.06-.15-.21-.28-.44-.39-.69l-.14-.39-.05-.19-.01-.04-.01-.06-.02-.1.03.17.03.14.1.32c.07.2.16.4.27.58.21.36.48.69.78.96.59.56 1.27.97 1.97 1.31.69.35 1.03.48 1.09.53.06.04-.2-.03-.69-.22-.49-.2-1.2-.5-1.97-1.05-.38-.28-.77-.62-1.11-1.07-.17-.22-.32-.47-.45-.75l-.16-.43-.04-.12-.02-.09-.01-.04-.01-.04v-.03l-.02-.11c-.1-.61-.02-1.23.15-1.78.17-.55.43-1.02.7-1.44.11-.16.22-.31.34-.46-.29.4-.56.83-.77 1.28-.21.45-.35.93-.4 1.38-.05.45-.01.86.08 1.2l.13.41.13.28c-.39-.88-.34-1.65-.23-2.21.12-.57.3-.96.47-1.3s.35-.62.55-.92c.21-.29.44-.6.77-.95.27-.25.55-.49.83-.72.95-.84 1.98-1.56 3.03-2.23-.75.56.19-.07 1.31-.73 1.11-.66 2.41-1.33 2.19-1.16 1.88-.98 3.8-1.87 5.74-2.69 1.04-.48 2.08-.95 3.13-1.4-2.23.82-4.49 1.76-6.15 2.49-1.63.71-2.72 1.23-2.64 1.1"/><path class="st1" d="M23.33 16.97c-.01.12 1.97-.59 4.99-1.58 3.02-1 7.1-2.24 11.21-3.36-4.11 1.12-8.18 2.36-11.21 3.36-3.02.99-5 1.71-4.99 1.58m-16.11 9.05c-.33.36-.57.66-.77.95-.21.29-.38.57-.55.92-.17.34-.35.74-.47 1.31-.11.56-.16 1.33.23 2.2-.39-.87-.34-1.64-.23-2.2.12-.57.3-.97.47-1.31.17-.34.35-.62.55-.92.2-.28.44-.59.77-.95"/><path class="st9" d="M6.13 27.32m1.09-1.3l16.64-9.35 6.83 19.66 3.69-.12"/><path class="st2" d="M34.38 36.21c-1.23.06-2.46.09-3.69.12l-1.58.04c-1.93.04-3.87.04-5.81-.02h-.26c1.67.06 3.34.08 5.01.07-1.85.03-3.69.03-5.54-.04 2.11.12 4.75.12 7.39.05 1.5-.05 2.99-.12 4.48-.22m-5.27.17c-1.93.04-3.87.04-5.81-.02 1.94.06 3.87.06 5.81.02m0 0"/><path class="st9" d="M29.11 36.38"/><path class="st1" d="M29.11 36.38c-1.93.04-3.87.04-5.81-.02 1.94.06 3.87.06 5.81.02"/><path class="st2" d="M7.01 26.2l.21-.18c-.26.26-.51.54-.75.84.18-.23.35-.45.54-.66"/><path class="st9" d="M7.22 26.02m22.19-10.27"/><path class="st2" d="M29.41 15.75l.26-.04-.26.04"/><path class="st10" d="M4.77 28.77c.17-.55.39-.98.6-1.33.22-.36.43-.64.63-.88.38-.47.69-.75.9-.95.44-.38.54-.39.48-.27-.05.12-.24.39-.37.61-.12.21-.19.37-.01.24-.18.21-.36.43-.53.66-.12.15-.23.3-.34.46-.27.42-.53.89-.7 1.44-.17.54-.25 1.17-.15 1.78l.02.11v.03l.01.04.01.05.02.09.03.12.16.43c.12.27.28.52.45.75.34.45.73.79 1.11 1.07.77.55 1.48.86 1.97 1.05.49.19.76.26.69.22-.06-.05-.4-.18-1.09-.53-.69-.34-1.38-.75-1.97-1.31-.29-.28-.56-.6-.77-.96-.1-.18-.2-.38-.27-.58l-.1-.32-.03-.14-.03-.17.02.1.01.06.01.04.05.19c.04.15.08.26.14.39.1.25.24.48.39.69.3.42.67.77 1.06 1.06.78.59 1.63.98 2.47 1.31 1.7.64 3.42 1 5.11 1.28 1.09.18 2.17.31 3.26.42 1.75.18 3.52.28 5.27.33h-.26c-1.58-.05-3.17-.15-4.75-.3 2.63.31 6.34.43 9.77.36-1.85.03-3.7.03-5.54-.04 2.11.12 4.75.12 7.39.05l-.79.05c1.06.01 2.11.01 3.17 0-2.02.07-4.05.1-6.08.08-.7.02-1.41.04-2.11.05 2.11.13 4.77.27 9 .12-2.78.1-5.23.11-7.94.04-1.36-.04-2.78-.1-4.35-.2-1.56-.11-3.27-.26-5.19-.53l-.53-.02c-.53-.09-1.05-.2-1.58-.31.91.24 2.36.5 3.79.69 1.42.19 2.81.32 3.61.41-1.59-.12-3.18-.28-4.77-.52.13.05.79.16 1.52.27l1.92.25c-1.97-.19-3.08-.4-4.28-.63-.6-.12-1.22-.25-1.97-.42s-1.64-.38-2.76-.74l-.21-.07-.31-.11c-1-.35-1.85-.75-2.57-1.2-.71-.45-1.28-.97-1.67-1.51-.19-.27-.34-.54-.45-.8l-.14-.39-.04-.15-.01-.03v-.02l-.01-.04-.02-.08c-.09-.43-.09-.73-.1-.92 0-.37-.06-.3-.14.17-.03.24-.05.58.03 1 .07.43.24.92.54 1.4-.39-.58-.64-1.32-.67-2.06-.03-.5.03-.88.08-1.14.05-.27.1-.44.13-.55.06-.21.03-.18-.03-.06-.11.24-.29.84-.19.32"/><path class="st1" d="M9.77 34.49c-.06-.05-.4-.18-1.09-.53-.69-.34-1.38-.75-1.97-1.31-.29-.28-.56-.6-.77-.96-.11-.18-.2-.38-.27-.58l-.1-.32-.03-.13-.03-.17.03.17.03.13.1.32c.07.2.16.4.27.58.21.37.48.69.77.96.59.56 1.27.97 1.97 1.31.69.35 1.03.48 1.09.53m-4.26-4.01l.02.1.01.06.01.04.05.19c.04.15.08.26.14.39.1.25.24.48.39.69.3.42.67.77 1.06 1.06.78.59 1.63.98 2.47 1.31 1.7.64 3.42 1 5.11 1.28-1.69-.28-3.41-.64-5.11-1.28-.84-.33-1.69-.72-2.47-1.31-.39-.29-.76-.64-1.06-1.06-.15-.21-.28-.44-.39-.69-.05-.12-.1-.24-.14-.39l-.05-.19-.01-.04-.01-.06-.02-.1m22.54 5.94c-1.85.03-3.69.03-5.54-.04 1.85.07 3.7.08 5.54.04"/><path class="st9" d="M22.51 36.39"/><path class="st1" d="M23.04 36.36l.26-.01-.26.01"/><path class="st9" d="M5.46 32.28m14.1 4.53l13.53-.07-12.2.08-10.55-1.87 4.74 1.08 17.2.45-4.23-.06-5.01-.06 15.27-.67"/><path class="st10" d="M38.31 35.69l1.05-.11 1.31-.16-1.57.14 1.57-.14.26-.08c-1.23.1-2.45.19-3.68.27l2.1-.17c-1.05.08-2.1.14-3.15.2 1.31-.09 2.62-.19 3.94-.3v-.03l-1.31.1c-3.14.27-6.56.48-9.45.53 1.35-.05 2.7-.11 4.05-.19 2.87-.17 5.77-.4 8.79-.73l1.04-.13c-3.92.42-8.38.75-11.27.8l.85-.04c2.71-.15 5.01-.31 7.32-.51 2.31-.2 4.62-.44 7.36-.81l.44-.06c-1.31.15-3 .35-4.7.52-1.7.17-3.4.32-4.71.4 4.19-.33 8.11-.76 12.02-1.28l.52-.08c5.2-.77 9.86-1.62 14.49-2.6-1.98.4-3.96.78-5.94 1.13 1.99-.35 3.97-.73 5.94-1.13 3.73-.78 7.31-1.62 10.85-2.55 3.53-.92 7.01-1.92 10.52-3.06-1.84.57-3.7 1.11-5.56 1.63 3.51-1.1 7.52-2.41 10.71-3.65-2.59.95-5.03 1.75-7.45 2.49s-4.82 1.42-7.36 2.11c2.54-.68 4.94-1.37 7.36-2.11s4.86-1.54 7.45-2.49l.98-.38c-2.1.76-4.53 1.59-6.97 2.35-2.44.77-4.9 1.48-7.06 2.06 3.04-.85 5.57-1.56 9.05-2.74l-1 .31-1.5.49 1.5-.49c3.24-1.08 5.96-2.05 8.65-3.12 2.88-1.29 6.2-2.88 9.33-4.79.52-.32 1.03-.65 1.54-.99-1.09.73-2.22 1.39-3.37 2.01.39-.2.77-.42 1.15-.63-1.59.91-3.24 1.72-4.91 2.48-1.52.67-3.06 1.3-4.61 1.89 1.78-.72 3.55-1.48 5.28-2.31l-1.44.63c-2.62 1.18-5.07 2.12-7.05 2.81 1.96-.74 3.9-1.53 5.82-2.37 1.1-.52 2.2-1.05 3.28-1.62l-.51.13c-2.02.9-5.34 2.32-9.43 3.82l-.74.27h.28l-1.25.38c-.73.28-1.47.56-2.2.83-.75.25-1.49.49-2.24.72-1.23.45-2.85.97-4.62 1.48-1.76.51-3.66 1.02-5.44 1.47l1.53-.37c-.8.25-1.77.52-2.8.79-1.54.39-3.19.76-4.58 1.07-1.02.22-2.04.43-3.06.63l-.28.06.11-.03-.11.02c-1.45.31-2.91.6-4.37.88l-2.32.41-1.3.21 1.3-.21 1.55-.27-1.29.21 2.58-.47c-1.72.32-3.44.61-5.16.89l-1.81.29.52-.09-2.33.34c-1.64.24-3.28.46-4.93.67-1.12.16-2.25.31-3.37.46.95-.12 1.9-.25 2.85-.39l1.55-.23c-1.73.24-3.46.46-5.19.66l.26-.06c-2.08.23-4.69.49-7.29.69l-.26.02c-1.48.12-2.95.23-4.43.31 1.3-.07 2.61-.17 3.91-.28l-.26-.04c-2.51.19-5.18.36-7.9.4-.67.01-1.33.01-2 .01l.52.01c-1.3.01-2.6-.01-3.9-.05-2.2-.06-4.34-.19-6.39-.45.57.1 1.15.18 1.73.25-.58-.07-1.16-.16-1.73-.25-1.84-.23-3.61-.56-5.22-1.08-.8-.26-1.56-.57-2.21-.95-.65-.38-1.2-.85-1.5-1.37-.07-.13-.14-.27-.18-.39l-.03-.1-.02-.07-.01-.04v.02-.02l-.03-.21c-.03-.28 0-.58.08-.87.16-.6.5-1.19.9-1.71.81-1.06 1.81-1.93 2.74-2.69-.72.54-1.4 1.12-2.01 1.74-.61.62-1.15 1.29-1.49 1.99-.35.7-.45 1.41-.24 2.02.2.6.69 1.12 1.26 1.52.86.61 1.92 1.04 3 1.38 1.09.34 2.22.59 3.38.79 2.31.4 4.69.6 7.13.72l1.61.06c-1.82-.02-3.65-.09-5.46-.24l.26.03c-.43-.03-.86-.07-1.29-.11.34.03.69.06 1.03.08-2.06-.22-3.99-.52-5.77-.98-.89-.23-1.74-.51-2.53-.87-.78-.35-1.51-.79-2.04-1.34s-.81-1.22-.74-1.93c.06-.72.45-1.45.94-2.12.5-.67 1.12-1.29 1.8-1.87.68-.58 1.41-1.12 2.19-1.65-.35.25-.7.5-1.04.77 1.75-1.31 3.67-2.43 5.62-3.46 1.96-1.03 3.98-1.96 6.03-2.83 1.51-.69 3.04-1.34 4.58-1.96-1.31.48-2.62.98-3.92 1.5.73-.31 1.45-.6 2.18-.9l1.7-.68c.08-.04-.32.09-1.73.62-.71.27-1.66.64-2.93 1.16-1.27.53-2.85 1.2-4.77 2.14-1.33.65-2.65 1.35-3.92 2.1 2.13-1.27 4.25-2.33 6.24-3.26 1.99-.93 3.87-1.72 5.57-2.42-1.07.39-2.14.79-3.2 1.22-3.24 1.38-6.56 2.93-9.67 4.85-1.03.64-2.03 1.32-2.97 2.08-.94.76-1.83 1.6-2.51 2.59-.5.74-.89 1.6-.84 2.51.02.45.15.89.37 1.28s.51.73.84 1.03c.66.59 1.44 1.01 2.23 1.36.79.35 1.61.61 2.43.84 1.63.45 3.26.74 4.84.96s3.12.35 4.59.46c2.1.15 5.27.21 8.43.11l.53-.02-1.58.02c.79-.01 1.58-.03 2.37-.05-1.23.02-2.46.02-3.69 0 1.58.01 3.16-.01 4.74-.06l.79-.05c-1.32.05-2.64.08-3.95.1 1.49-.02 2.98-.07 4.48-.13l1.05-.09c1.27-.06 2.58-.13 3.9-.22m36.92-6.94c1.91-.48 3.69-.94 5.59-1.48 1.9-.53 3.92-1.13 6.29-1.91-2.37.78-4.39 1.38-6.29 1.91-1.89.54-3.67 1-5.59 1.48l-1.53.38-1.02.25 1.02-.25 1.53-.38-.25.09c-1.36.35-2.72.68-4.08 1.01 1.37-.32 2.72-.66 4.08-1.01l.25-.09m-21.32 4.57c3.63-.6 5.97-.95 9.32-1.62-3.34.67-5.69 1.02-9.32 1.62m-3.11.49l-.26.04c-.87.13-1.74.25-2.6.36l2.6-.36.26-.04c3.12-.45 5.46-.8 8.57-1.37-3.11.57-5.45.92-8.57 1.37m21.64-4.31l-1.53.4 1.53-.4m-64.54-2.84c.76-.82 1.63-1.54 2.54-2.21.91-.67 1.86-1.29 2.83-1.87-.97.58-1.93 1.2-2.83 1.87-.91.67-1.78 1.4-2.54 2.21m0 0c.76-.82 1.63-1.54 2.54-2.21.91-.67 1.86-1.29 2.83-1.87-.97.58-1.93 1.2-2.83 1.87-.91.67-1.78 1.4-2.54 2.21m0 0c-.23.25-.46.51-.66.78s-.39.56-.54.85c-.16.29-.29.6-.37.91-.08.29-.12.6-.1.89l.01.09.03.22.02.1.03.12c.04.13.09.28.15.41.13.28.32.55.53.79.22.24.47.46.73.65.27.2.55.38.85.53.3.16.61.3.92.43.23.1.48.19.72.27.32.11.65.22.98.31.33.1.67.18 1 .26.33.08.67.15 1.01.22.25.05.51.1.77.14.34.06.68.12 1.03.17l.77.1c-1.98-.28-3.81-.64-5.47-1.21-.83-.28-1.62-.62-2.31-1.07s-1.29-1.01-1.57-1.72l-.06-.15-.04-.15-.03-.13-.02-.12c-.06-.36-.03-.75.06-1.12l.08-.26c.1-.31.25-.6.42-.89.09-.16.19-.32.3-.47.23-.33.48-.64.76-.95m14.85-8.52c-.42.17-.85.35-1.28.53l-.89.38-.96.42-.95.44-1.18.57-.56.28c-.51.25-1.01.52-1.51.79l-.02.01c-.31.17-.61.33-.91.51l.91-.51c-.31.17-.61.33-.91.51l.91-.51.01-.01-.92.51c.37-.21.77-.43 1.19-.65l.65-.34c.39-.2.78-.39 1.17-.58l.37-.18 1.11-.52.66-.3.68-.31c.83-.36 1.66-.72 2.43-1.04m67.57 5.27l.01.02.99-.34-1 .32"/><path class="st7" d="M7.9 26.66c-.46.49-.87 1.02-1.19 1.6-.31.58-.52 1.21-.49 1.83-.02-.29.02-.6.1-.89.09-.31.21-.62.37-.91s.34-.57.54-.85c.21-.27.44-.53.67-.78m-.77.95c-.11.15-.21.31-.3.47-.17.29-.31.59-.42.89l-.08.26c.15-.56.44-1.11.8-1.62m-.9 2.57l.05.34.1.33c.08.22.19.42.32.61.27.39.62.72 1.01 1 .79.57 1.7.97 2.62 1.28 1.84.62 3.71.94 5.44 1.16l-.77-.09c-.34-.05-.69-.1-1.03-.17-.26-.04-.51-.09-.77-.14-.34-.07-.68-.14-1.01-.22-.34-.08-.67-.17-1-.26-.33-.1-.66-.2-.98-.31l-.72-.28c-.3-.13-.61-.27-.91-.43-.3-.16-.58-.33-.85-.53s-.52-.41-.73-.65c-.22-.24-.4-.5-.54-.79l-.15-.41-.03-.12-.02-.1-.03-.22m.04.17l.02.12.03.13.04.15.06.15-.09-.26-.04-.15-.02-.14"/><path class="st3" d="M65.4 30.47l.11-.03.16-.03-.27.06"/><path class="st9" d="M17.64 34.63"/><path class="st1" d="M17.64 34.63c-.58-.07-1.16-.16-1.73-.25.57.09 1.15.17 1.73.25"/><path class="st9" d="M104.37 17.69m0 0"/><path class="st1" d="M104.37 17.69l-1.15.63 1.15-.63m-4.24 2.06c-1.73.83-3.49 1.59-5.28 2.31 1.78-.72 3.55-1.48 5.28-2.31"/><path class="st9" d="M94.85 22.06"/><path class="st1" d="M91.64 23.19c1.96-.74 3.9-1.53 5.81-2.37-1.91.84-3.85 1.63-5.81 2.37m-83.74 3.47c-.23.25-.46.51-.66.78s-.39.56-.54.85c-.16.29-.29.6-.37.91-.08.29-.12.6-.1.89-.02-.29.02-.6.1-.89.09-.31.21-.62.37-.91.16-.29.34-.57.54-.85.2-.27.43-.53.66-.78m-.77.95c-.11.15-.21.31-.3.47-.17.29-.31.59-.42.89l-.08.26.08-.26c.1-.31.25-.61.42-.89.09-.16.19-.32.3-.47m-.9 2.57l.03.22.02.1.03.12c.04.13.09.28.15.41.13.28.32.55.53.79.22.24.47.46.73.65.28.2.56.38.86.53.3.16.61.3.92.43.23.1.48.19.72.27.32.11.65.22.98.31.33.1.67.18 1 .26.33.08.67.15 1.01.22.25.05.51.1.77.14.34.06.68.12 1.03.17l.77.1-.78-.09c-.34-.05-.69-.11-1.03-.17-.26-.04-.51-.09-.77-.14-.34-.07-.68-.14-1.01-.22-.34-.08-.67-.17-1-.26-.33-.1-.66-.2-.98-.31l-.72-.27c-.3-.14-.61-.28-.91-.44-.3-.16-.59-.33-.86-.53s-.52-.41-.73-.65c-.22-.24-.4-.5-.53-.79-.06-.13-.11-.28-.15-.41l-.03-.12-.02-.1-.03-.22m.04.17l.02.12.03.13.04.15.06.15-.06-.15-.04-.15-.03-.13-.02-.12m7-7.77c-.97.58-1.93 1.2-2.83 1.87-.91.67-1.78 1.4-2.54 2.21.76-.81 1.63-1.54 2.54-2.21.9-.67 1.86-1.28 2.83-1.87m0 0c-.97.58-1.93 1.2-2.83 1.87-.91.67-1.78 1.4-2.54 2.21.76-.81 1.63-1.54 2.54-2.21.9-.67 1.86-1.28 2.83-1.87"/><path class="st9" d="M29.63 36.2"/><path class="st1" d="M29.63 36.2c-3.16.09-6.33.03-8.43-.11-1.47-.1-3-.24-4.59-.46-1.58-.22-3.21-.51-4.84-.96-.82-.23-1.63-.5-2.43-.84-.79-.35-1.57-.77-2.23-1.36-.33-.3-.62-.64-.84-1.03-.22-.39-.35-.83-.37-1.28-.04-.91.34-1.77.84-2.51-.5.74-.89 1.6-.84 2.51.02.45.15.89.37 1.28s.51.73.84 1.03c.66.59 1.44 1.01 2.23 1.36s1.61.61 2.43.84c1.63.45 3.26.74 4.84.96s3.12.35 4.59.46c2.1.14 5.27.2 8.43.11m-7.74-18.08c-3.24 1.38-6.56 2.93-9.67 4.85 3.11-1.92 6.43-3.47 9.67-4.85"/><path class="st9" d="M30.16 36.18m0 0l.79-.04 1.05-.06 8.66-.66 46.27-9.79-53.62 10.37 6.03-.55.78-.1 25.44-4.12 26.52-7.62-49.87 11.41-20.32-16.9 73.83 3.97-48.21 12.24 27.47-5.49 13.09-3.94 15.15-6.58-86.03 2.16"/><path class="st7" d="M19.62 19.48l.96-.42c-1.21.53-2.43 1.09-3.65 1.71l.56-.28 1.18-.57.95-.44m.69-.29l-.69.31-.65.29 1.34-.6m-2.45 1.12l-.37.18c-.39.19-.78.38-1.17.58l-.65.34c.69-.36 1.42-.73 2.19-1.1"/><path class="st9" d="M100.13 19.75"/><path class="st7" d="M15.41 21.55l-.01.01h-.01l.02-.01"/><path class="st9" d="M10.44 24.89m64.13 3.41l-14.32 3.18 1.28-.25-35.85 3.63"/><path class="st2" d="M28.67 16.01l-.5.18.5-.18"/><path class="st1" d="M26.67 16.65c6.17-2.23 12.24-3.93 18.61-5.5-1.27.34-2.53.7-3.79 1.07l.5-.15c-.85.22-1.92.51-3.08.84l-1.81.52c-1.86.54-3.8 1.15-5.42 1.67-.67.2-1.34.41-2 .62l-.26.05 1.48-.54c-.74.26-1.49.52-2.23.79l-.49.18c-2.05.75-4.08 1.56-6.09 2.42 1.51-.7 3.04-1.35 4.58-1.97m12.24-3.75c1.17-.33 2.24-.62 3.08-.84-.84.22-1.91.51-3.08.84l-1.81.52 1.81-.52m3.08-.84l-.5.15.5-.15m-12.58 3.69l.26-.05v.01l-.26.04m-2.74.9c-1.54.62-3.07 1.27-4.58 1.96 1.51-.69 3.04-1.34 4.58-1.96m.92-.76c3.7-1.34 8.47-2.78 12.5-3.84-1.63.51-3.89 1.22-6.29 2.02s-4.93 1.71-7.13 2.58c-1.31.48-2.62.98-3.92 1.5.73-.31 1.45-.6 2.18-.9l1.7-.68c.08-.04-.32.09-1.73.62-.71.27-1.66.64-2.93 1.16-1.27.53-2.85 1.2-4.77 2.14-1.33.65-2.65 1.35-3.92 2.1 2.13-1.27 4.25-2.33 6.24-3.26 1.99-.93 3.87-1.72 5.57-2.42-1.07.39-2.14.79-3.19 1.22l1.94-.81c.77-.31 1.68-.67 2.7-1.05l1.05-.38m-2.51 1.02c-1.7.7-3.58 1.49-5.57 2.42-1.99.93-4.11 1.98-6.24 3.26 2.13-1.27 4.25-2.33 6.24-3.26 2-.93 3.87-1.73 5.57-2.42m1.55-.34c-.12.06-1.38.55-1.7.68-.73.29-1.46.59-2.18.9.73-.31 1.45-.6 2.18-.9.32-.14 1.58-.63 1.7-.68"/><path class="st9" d="M15.11 21.11"/><path class="st4" d="M15.11 21.11c1.93-1.02 3.91-1.93 5.91-2.78 6.02-2.54 12.23-4.55 18.51-6.3 1.91-.52 3.82-1.01 5.73-1.49l1.92-.47c2.08-.35 3.91-.6 5.23-.72-2.39.56-4.76 1.15-7.13 1.78-6.36 1.57-12.44 3.28-18.61 5.5 2.2-.87 4.73-1.77 7.13-2.58 2.4-.8 4.66-1.51 6.29-2.02-4.02 1.06-8.8 2.5-12.5 3.84l-1.05.38c-1.02.38-1.93.73-2.7 1.05-.65.26-1.3.53-1.94.81-2.1.84-4.34 1.82-6.6 3-1.14.59-2.28 1.23-3.4 1.94s-2.23 1.49-3.26 2.39c-.34.3-.68.61-.99.95-.5.54-.97 1.12-1.32 1.78s-.57 1.42-.48 2.18c.09.79.53 1.49 1.09 2.02.56.54 1.22.94 1.91 1.27.23.13.47.26.71.37-.74-.3-1.46-.66-2.11-1.13-.65-.48-1.24-1.1-1.52-1.89-.14-.4-.19-.81-.16-1.23.03-.41.14-.82.3-1.19.32-.76.8-1.41 1.33-2.01 1.07-1.19 2.34-2.16 3.65-3.04 1.29-.88 2.67-1.67 4.06-2.41"/><path class="st9" d="M39.53 12.03m7.65-1.95"/><path class="st1" d="M15.11 21.11c-1.4.74-2.77 1.53-4.08 2.41-1.31.88-2.58 1.85-3.65 3.04-.53.6-1.02 1.25-1.33 2.01-.16.38-.27.78-.3 1.19-.03.42.02.84.16 1.23.28.79.87 1.42 1.52 1.89.65.48 1.37.83 2.11 1.13-.74-.3-1.46-.66-2.11-1.13-.65-.48-1.24-1.1-1.52-1.89-.14-.4-.19-.81-.16-1.23.03-.41.14-.82.3-1.19.32-.76.8-1.41 1.33-2.01 1.07-1.19 2.34-2.16 3.65-3.04 1.31-.88 2.69-1.67 4.08-2.41m5.91-2.78c6.02-2.54 12.23-4.55 18.51-6.3-6.28 1.75-12.49 3.76-18.51 6.3m-15.18 12.03c-.1-.76.13-1.52.48-2.18.35-.66.82-1.24 1.32-1.78.31-.33.65-.65.99-.95 1.03-.9 2.14-1.68 3.26-2.39 1.12-.71 2.27-1.35 3.4-1.94-1.14.59-2.28 1.23-3.4 1.94s-2.23 1.48-3.26 2.39c-.34.3-.67.61-.99.95-.5.54-.97 1.12-1.32 1.78-.35.65-.58 1.42-.48 2.18"/><path class="st9" d="M39.53 12.03m0 0l-30.9 13.42"/><path class="st1" d="M27.58 15.89h.01l-1.05.38 1.04-.38m12.5-3.84c-1.63.51-3.89 1.22-6.29 2.02s-4.93 1.71-7.13 2.58c2.2-.87 4.73-1.77 7.13-2.58s4.66-1.51 6.29-2.02"/><path class="st9" d="M47.18 10.08m-7.65 1.95"/><path class="st2" d="M39.53 12.03c2.54-.7 5.09-1.35 7.65-1.96l-1.92.47c-1.91.48-3.82.98-5.73 1.49"/><path class="st9" d="M47.18 10.08"/><path class="st1" d="M39.53 12.03c2.54-.7 5.09-1.35 7.65-1.96-2.56.61-5.11 1.26-7.65 1.96"/></g><path class="st0" d="M18.52 35.1c.26 2.04-1.19 3.9-3.23 4.16s-3.9-1.19-4.16-3.23c-.26-2.04 1.19-3.9 3.23-4.15 2.04-.26 3.9 1.18 4.16 3.22zm60.67-23.89c-1.06-.04-1.9-.94-1.85-2 .04-1.07.94-1.9 2.01-1.86 1.06.04 1.9.94 1.86 2-.05 1.07-.95 1.9-2.02 1.86zm-1.54-5.46c1.93-.8 4.13.04 5.05 1.88l.11.25-.54.21-.09-.2c-.78-1.57-2.67-2.3-4.31-1.61l-.22-.53zm-1.87-4.51c4.31-1.79 9.24.09 11.29 4.21.09.18.17.36.25.55l-.53.22c-.07-.18-.15-.35-.24-.52-1.91-3.85-6.52-5.61-10.55-3.93l-.22-.53zm1.15 2.79zm-.22-.53c3.12-1.3 6.69.06 8.17 3.05l.18.4-.53.22-.16-.36c-1.35-2.71-4.59-3.95-7.44-2.77l-.22-.54zm-48.25-3.55l1.57 3.07 3.39-.55-2.43 2.44 1.56 3.06-3.07-1.56-2.43 2.43.54-3.39-3.07-1.57 3.4-.53zm37.86 44.68l-2.72-1.89.29-3.3 2.99-1.4 2.72 1.89-.29 3.3zm-17.82-27.15h-1.12v-1.21c0-.28-.08-.58-.32-.8-.23-.21-.53-.28-.81-.28s-.58.07-.8.28c-.23.22-.31.51-.31.79v1.22c-.25.02-.5.09-.71.28-.23.22-.31.51-.31.79v.02c0 .28.08.57.31.79.2.19.46.26.71.28v5.5c0 .28.08.57.31.79.22.2.49.27.76.28h.06c.28 0 .57-.07.79-.28.21-.2.3-.46.31-.71v-5.57h1.11c.28 0 .58-.07.8-.28.23-.21.31-.51.31-.79v-.03c0-.28-.08-.57-.31-.79-.2-.22-.5-.28-.78-.28zm-5.83 4.06c-.56-.51-1.27-.77-2.05-.77h-4.48c-.23 0-.36-.06-.52-.19-.15-.14-.18-.21-.18-.39.01-.17.04-.24.19-.38.15-.12.29-.18.52-.18h4.47c.28 0 .58-.06.81-.28.23-.21.31-.51.31-.78v-.03c0-.28-.09-.58-.32-.79s-.52-.27-.8-.27h-4.48c-.78 0-1.49.26-2.06.78-.57.5-.89 1.18-.89 1.93v.03c0 .75.32 1.43.88 1.93.56.51 1.27.77 2.04.77h4.49c.23 0 .36.06.52.19.15.15.18.21.19.39-.01.17-.04.23-.19.38-.15.13-.29.18-.52.18h-6.3c-.28 0-.58.06-.81.28-.23.21-.31.51-.31.79v.02c0 .28.09.57.32.79.23.21.52.28.81.27h6.31c.75 0 1.44-.25 2-.74.6-.49.93-1.19.93-1.96v-.02c.01-.76-.3-1.45-.88-1.95zm-32.58 2.79c-.23-.21-.53-.28-.81-.28h-6.3c-.23 0-.37-.05-.53-.19-.14-.14-.17-.2-.18-.38v-3.29c.01-.18.04-.24.19-.38.16-.13.29-.18.52-.18h4.47c.28 0 .58-.06.81-.28.23-.22.31-.51.31-.79v-.03c0-.28-.08-.57-.31-.79-.23-.21-.53-.27-.8-.27h-4.47c-.78 0-1.5.26-2.06.77-.57.5-.88 1.18-.88 1.93v3.31c0 .75.32 1.42.89 1.93s1.27.78 2.05.77h6.31c.28 0 .57-.07.8-.28.23-.21.31-.5.32-.77v-.03c-.01-.26-.1-.55-.33-.77zm10.67-6.08c-.56-.51-1.27-.77-2.05-.77h-4.48c-.78 0-1.5.26-2.06.77-.57.5-.88 1.18-.88 1.93v3.31c0 .74.32 1.42.89 1.93.56.51 1.27.77 2.04.77h4.5c.75 0 1.44-.25 2-.74.6-.49.93-1.19.93-1.96v-3.32c0-.74-.32-1.42-.89-1.92zm-1.35 5.23c-.01.18-.04.24-.19.39-.16.13-.29.18-.52.18h-4.47c-.23 0-.37-.05-.53-.19-.15-.14-.17-.2-.18-.38v-3.29c.01-.17.03-.24.19-.38.15-.12.29-.18.52-.18h4.47c.23 0 .36.06.52.19.15.14.18.21.19.38v3.28zm11.7-5.23c-.56-.51-1.27-.77-2.05-.77h-2.96c-.4 0-.78.07-1.14.2-.19-.14-.43-.2-.66-.2h-.04c-.28 0-.57.06-.79.27-.23.21-.32.5-.32.78v6.6c0 .27.08.57.32.78.23.21.52.27.8.27s.57-.07.8-.27c.23-.21.32-.51.31-.78v-4.93c.01-.18.04-.24.19-.38.16-.13.3-.18.53-.19h2.94c.23 0 .37.06.52.19.15.14.18.2.19.38v4.94c0 .28.09.57.32.78s.52.28.81.28c.28 0 .57-.07.8-.27.23-.21.31-.5.32-.78v-4.96c0-.76-.32-1.44-.89-1.94zm58.01-3.3c-.26-.25-.61-.33-.96-.33-.34 0-.69.08-.95.33-.26.24-.36.59-.36.92v.02c0 .34.1.68.36.92s.61.32.95.32.69-.08.96-.33c.25-.24.35-.57.36-.9v-.06c-.01-.31-.11-.65-.36-.89zm11.34 3.3c-.56-.51-1.28-.77-2.06-.77h-4.48c-.78 0-1.5.26-2.06.77-.57.5-.89 1.18-.88 1.93v3.32c0 .75.32 1.42.89 1.93.56.51 1.28.78 2.05.77h4.5c.75 0 1.44-.25 2-.74.6-.49.93-1.19.93-1.96v-3.32c0-.75-.32-1.43-.89-1.93zm-1.36 5.23c-.01.18-.04.24-.19.39-.16.13-.29.18-.52.18h-4.47c-.23 0-.37-.06-.52-.18-.15-.14-.18-.2-.19-.39v-3.29c.01-.18.03-.24.19-.38.15-.13.29-.18.52-.19h4.47c.23 0 .37.06.53.19.14.14.17.2.18.38v3.29zm-39.12-5.23c-.56-.51-1.27-.77-2.05-.77h-4.49c-.78 0-1.5.26-2.06.77-.57.5-.89 1.18-.88 1.93v3.31c0 .74.32 1.42.89 1.93.56.51 1.27.77 2.04.77h4.48c.28 0 .57-.06.8-.28.23-.21.31-.5.31-.78v-.02c0-.28-.08-.58-.31-.79-.23-.22-.53-.28-.81-.28h-4.47c-.23 0-.37-.05-.53-.19-.15-.14-.17-.2-.18-.38v-.57h5.39c.67-.04 1.29-.29 1.8-.72.6-.51.94-1.2.94-1.98v-.03c.01-.74-.3-1.42-.87-1.92zm-1.55 2.33c-.16.13-.29.18-.52.19h-5.17v-.58c.01-.18.03-.24.19-.38.15-.13.3-.18.52-.19h4.47c.23 0 .36.05.52.17.15.14.18.22.19.4-.02.18-.05.25-.2.39zm30.85-2.04c0-.28-.09-.57-.31-.78-.23-.21-.53-.28-.81-.28s-.58.07-.81.28c-.23.21-.31.5-.31.78v6.61c0 .28.09.57.31.78.23.21.52.28.81.28.28 0 .58-.07.8-.28.23-.21.31-.5.31-.77v-6.59l.01-.03zm22.41 1.64c0-.75-.31-1.43-.88-1.93-.56-.51-1.27-.77-2.05-.77h-2.95c-.4 0-.78.07-1.13.2-.19-.14-.43-.2-.67-.2h-.04c-.28 0-.57.06-.79.27-.23.21-.32.51-.32.79v6.6c0 .28.08.58.32.79.23.21.52.27.8.27s.57-.07.81-.27c.23-.21.31-.5.32-.77v-4.96c.01-.17.04-.24.19-.38.16-.13.3-.18.52-.19h2.95c.23 0 .37.06.52.19.15.14.17.2.19.39v4.95c0 .27.09.57.31.78.23.21.53.28.81.28s.57-.07.8-.27c.23-.21.31-.5.31-.78v-4.96l-.02-.03zm-26.03-2.42c-.23-.21-.52-.28-.81-.28h-1.11v-1.22c0-.28-.08-.58-.31-.79-.23-.21-.52-.28-.81-.28-.28 0-.58.06-.81.28-.23.22-.32.51-.32.79v1.21c-.25.02-.5.09-.7.28-.23.22-.31.52-.31.8v.02c0 .28.08.57.31.79.2.18.46.26.71.27v5.5c0 .28.08.58.31.79s.53.28.81.28.57-.07.8-.28c.22-.21.31-.5.31-.77v-5.52h1.11c.28 0 .58-.07.81-.28s.31-.5.31-.77v-.04c.01-.27-.07-.57-.3-.78zm-21.36-3.28c0-.28-.08-.58-.31-.79-.23-.22-.53-.29-.81-.29s-.58.07-.81.28c-.23.22-.31.51-.31.8v10.64c0 .28.08.58.31.79.22.21.5.28.78.28h.04c.28 0 .58-.07.8-.28.23-.22.31-.51.31-.79v-10.64zm14.43 3.77c-.56-.51-1.28-.77-2.06-.77h-4.48c-.28 0-.58.06-.8.28-.23.21-.32.51-.32.78v.02c0 .28.08.57.31.79.23.21.53.28.81.28h4.47c.23 0 .36.06.52.19.15.14.17.2.18.38v.56h-5.19c-.78 0-1.49.26-2.06.78-.57.5-.89 1.19-.89 1.94v.02c0 .75.32 1.43.89 1.93.56.5 1.26.77 2.03.77h4.49c.4 0 .78-.07 1.13-.21.19.14.43.21.66.21h.04c.28 0 .57-.07.79-.27.22-.2.3-.48.32-.73v-5.01c.04-.76-.27-1.44-.84-1.94zm-1.36 5.23c-.01.18-.04.24-.19.39-.16.13-.29.18-.52.19h-4.47c-.23 0-.37-.05-.52-.18-.15-.14-.17-.21-.18-.39.01-.16.04-.24.19-.39.16-.13.29-.18.52-.19h5.18l-.01.57zm-9.33-9.01c0-.28-.09-.57-.31-.78-.23-.21-.53-.29-.81-.29s-.58.07-.81.29c-.23.22-.31.52-.31.8v10.63c0 .28.08.58.31.8.22.21.51.28.78.29h.04c.28 0 .57-.07.8-.28.22-.21.31-.51.31-.78v-10.68zm-25.37 7.07c-.56-.51-1.27-.77-2.05-.77h-4.48c-.23 0-.36-.06-.52-.19-.15-.14-.18-.21-.18-.39.01-.17.04-.24.19-.38.15-.12.29-.18.52-.18h4.47c.28 0 .58-.06.81-.28.23-.21.31-.51.31-.78v-.03c0-.28-.09-.58-.32-.79s-.52-.27-.8-.27h-4.48c-.78 0-1.49.26-2.06.78-.57.5-.89 1.18-.89 1.93v.03c0 .75.32 1.43.88 1.93.56.51 1.27.77 2.04.77h4.49c.23 0 .36.06.52.19.15.15.18.21.19.39-.01.17-.04.23-.19.38-.15.13-.29.18-.52.18h-6.3c-.28 0-.58.06-.81.28-.23.21-.31.51-.31.79v.02c0 .28.09.57.32.79.23.21.52.28.81.27h6.31c.75 0 1.44-.25 2-.74.6-.49.93-1.19.93-1.96v-.02c.01-.76-.3-1.45-.88-1.95zm5.83-4.06h-1.12v-1.21c0-.28-.08-.58-.32-.8-.23-.21-.53-.28-.81-.28s-.58.07-.8.28c-.23.22-.31.51-.31.79v1.22c-.25.02-.5.09-.71.28-.23.22-.31.51-.31.79v.02c0 .28.08.57.31.79.2.19.46.26.71.28v5.5c0 .28.08.57.31.79.22.2.49.27.76.28h.06c.28 0 .57-.07.79-.28.21-.2.3-.46.31-.71v-5.57h1.11c.28 0 .58-.07.8-.28.23-.21.31-.51.31-.79v-.03c0-.28-.08-.57-.31-.79-.2-.22-.5-.28-.78-.28zm-44.93 8.72c.5-.79 1.13-1.51 1.86-2.15h-2.44c-.23 0-.37-.05-.53-.19-.14-.14-.17-.2-.18-.38v-3.29c.01-.18.04-.24.19-.38.16-.13.29-.18.52-.18h4.47c.28 0 .58-.06.81-.28.23-.22.31-.51.31-.79v-.03c0-.28-.08-.57-.31-.79-.23-.21-.53-.27-.8-.27h-4.47c-.78 0-1.5.26-2.06.77-.57.5-.88 1.18-.88 1.93v3.31c0 .75.32 1.42.89 1.93.57.51 1.27.78 2.05.77l.57.02zm56.41-7.95c-.56-.51-1.27-.77-2.05-.77h-4.49c-.78 0-1.5.26-2.06.77-.57.5-.89 1.18-.88 1.93v3.31c0 .74.32 1.42.89 1.93.56.51 1.27.77 2.04.77h4.48c.28 0 .57-.06.8-.28.23-.21.31-.5.31-.78v-.02c0-.28-.08-.58-.31-.79-.23-.22-.53-.28-.81-.28h-4.47c-.23 0-.37-.05-.53-.19-.15-.14-.17-.2-.18-.38v-.57h5.39c.67-.04 1.29-.29 1.8-.72.6-.51.94-1.2.94-1.98v-.03c.01-.74-.3-1.42-.87-1.92zm-1.55 2.33c-.16.13-.29.18-.52.19h-5.17v-.58c.01-.18.03-.24.19-.38.15-.13.3-.18.52-.19h4.47c.23 0 .36.05.52.17.15.14.18.22.19.4-.02.18-.05.25-.2.39zm27.54-2.04c0-.28-.08-.57-.31-.78-.23-.21-.53-.28-.81-.28h-1.11v-1.22c0-.28-.08-.58-.31-.79-.23-.21-.53-.28-.81-.28s-.58.06-.81.28c-.23.22-.31.51-.31.79v1.21c-.25.02-.5.09-.7.28-.23.22-.31.52-.31.8v.02c0 .28.08.57.31.79.2.18.46.26.7.27v4.18c.28-.14.6-.22.89-.19h.01c.39 0 .75.1 1.08.29l.26.2v-4.47h1.11c.28 0 .58-.07.81-.28.23-.21.31-.5.31-.77v-.05zm-21.67-4.06c0-.28-.08-.58-.31-.79-.23-.22-.53-.29-.81-.29s-.58.07-.81.28c-.23.22-.31.51-.31.8v10.64c0 .28.08.58.31.79.22.21.5.28.78.28h.04c.28 0 .58-.07.8-.28.23-.22.31-.51.31-.79v-10.64zm3.74-.01c0-.28-.09-.57-.31-.78-.23-.21-.53-.29-.81-.29s-.58.07-.81.29c-.23.22-.31.52-.31.8v10.63c0 .28.08.58.31.8.22.21.51.28.78.29h.04c.28 0 .57-.07.8-.28.22-.21.31-.51.31-.78v-10.68zm10.69 3.78c-.56-.51-1.28-.77-2.06-.77h-4.48c-.28 0-.58.06-.8.28-.23.21-.32.51-.32.78v.02c0 .28.08.57.31.79.23.21.53.28.81.28h4.47c.23 0 .36.06.52.19.15.14.17.2.18.38v.56h-5.19c-.78 0-1.49.26-2.06.78-.57.5-.89 1.19-.89 1.94v.02c0 .75.32 1.43.89 1.93.56.5 1.26.77 2.03.77h4.49c.4 0 .78-.07 1.13-.21.19.14.43.21.66.21h.04c.28 0 .57-.07.79-.27.22-.2.3-.48.32-.73v-5.01c.04-.76-.27-1.44-.84-1.94zm-1.36 5.23c-.01.18-.04.24-.19.39-.16.13-.29.18-.52.19h-4.47c-.23 0-.37-.05-.52-.18-.15-.14-.17-.21-.18-.39.01-.16.04-.24.19-.39.16-.13.29-.18.52-.19h5.18l-.01.57zm-63.85-3.29c.01-.17.03-.24.19-.38.15-.12.29-.18.52-.18h4.47c.23 0 .36.06.52.19.15.14.18.21.19.38v3.29c-.01.18-.04.24-.19.38-.16.13-.29.18-.52.18h-4.23l-.02.05.16.3c.25.56.42 1.17.41 1.76l.06.04h3.64c.75 0 1.44-.25 2-.74.6-.49.93-1.19.93-1.96v-3.32c0-.75-.31-1.43-.89-1.94-.56-.51-1.27-.77-2.05-.77h-4.48c-.78 0-1.5.26-2.06.77-.57.5-.88 1.18-.88 1.93v1.12c.11-.04.23-.07.35-.08l.04-.02.17-.06.09-.03"/><path class="st0" d="M101.35 20.18c0-.75-.32-1.43-.89-1.93-.56-.51-1.28-.77-2.06-.77h-4.48c-.78 0-1.5.26-2.06.77-.57.5-.89 1.18-.88 1.93v.24c.34-.25.74-.41 1.23-.41.22 0 .46.04.69.12.34-.42.87-.7 1.58-.7.35 0 .65.07.92.19h3.01c.23 0 .37.06.53.19.15.14.17.2.18.38v3.29c-.01.18-.04.24-.19.38-.16.13-.29.18-.52.18h-4.02v.05c-.08.88-.55 1.65-1.32 1.98.27.08.56.12.86.12h4.5c.75 0 1.44-.25 2-.74.6-.49.93-1.19.93-1.96l-.01-3.31zm10.34 0c0-.75-.31-1.43-.88-1.93-.56-.51-1.27-.77-2.05-.77h-2.95c-.4 0-.78.07-1.13.2-.19-.14-.43-.2-.67-.2h-.04c-.28 0-.57.06-.79.27-.23.21-.32.51-.32.79v6.6c0 .28.08.58.32.79.23.21.52.27.8.27s.57-.07.81-.27c.23-.21.31-.5.32-.77v-4.96c.01-.17.04-.24.19-.38.16-.13.3-.18.52-.19h2.95c.23 0 .37.06.52.19.15.14.17.2.19.39v4.95c0 .27.09.57.31.78.23.21.53.28.81.28s.57-.07.8-.27c.23-.21.31-.5.31-.78v-4.96l-.02-.03zm-80.58-1.93c-.56-.51-1.27-.77-2.05-.77h-2.96c-.4 0-.78.07-1.14.2-.19-.14-.43-.2-.66-.2h-.04c-.28 0-.57.06-.79.27-.23.21-.32.5-.32.78v6.6c0 .27.08.57.32.78.23.21.52.27.8.27s.57-.07.8-.27c.23-.21.32-.51.31-.78v-4.93c.01-.18.04-.24.19-.38.16-.13.3-.18.53-.19h2.94c.23 0 .37.06.52.19.15.14.18.2.19.38v4.94c0 .28.09.57.32.78s.52.28.81.28c.28 0 .57-.07.8-.27.23-.21.31-.5.32-.78v-4.96c0-.76-.32-1.44-.89-1.94zm48.27 14c0 .31-.1.58-.29.81-.19.23-.46.43-.79.58-.33.16-.72.27-1.16.35s-.92.12-1.42.12c-.34 0-.66-.02-.95-.05-.29-.03-.55-.07-.77-.12-.23-.05-.41-.1-.56-.15l-.33-.14c-.07-.04-.11-.1-.14-.17-.03-.07-.04-.18-.04-.32l.02-.23.05-.15.09-.09.13-.02c.07 0 .17.02.3.07l.5.17c.21.06.45.12.73.17.28.05.61.07.98.07.24 0 .46-.02.66-.05.19-.04.36-.09.49-.15s.24-.14.31-.24c.07-.09.11-.2.11-.31 0-.14-.06-.25-.18-.34-.12-.1-.28-.18-.48-.25-.2-.07-.42-.14-.67-.21-.25-.06-.51-.13-.77-.21-.27-.07-.52-.15-.77-.25-.25-.09-.47-.2-.67-.33-.19-.13-.35-.28-.48-.46-.12-.17-.18-.38-.18-.63 0-.28.09-.53.26-.74.18-.21.41-.39.71-.53s.65-.25 1.06-.31c.4-.07.83-.1 1.29-.1.23 0 .47.01.7.03.23.02.45.05.66.09l.54.12c.16.04.26.08.31.11l.1.08.05.08.03.13.01.2-.01.22-.04.15-.08.09-.13.03-.27-.06-.45-.14c-.18-.05-.39-.1-.62-.14-.23-.04-.49-.06-.77-.06-.22 0-.41.02-.57.05-.16.03-.3.08-.41.13-.11.05-.19.12-.24.2s-.08.16-.08.25c0 .13.06.24.18.34.12.1.28.18.48.25.2.07.43.14.68.21.25.06.51.13.78.21.26.07.52.15.78.25.25.09.48.2.68.33.2.13.36.28.48.45.11.17.17.37.17.61zm9.76-1.26c0 .54-.12 1-.36 1.38-.24.38-.58.69-1.02.94-.44.24-.98.42-1.62.53-.63.11-1.39.17-2.27.17h-2.36c-.17 0-.31-.03-.42-.09-.12-.06-.17-.15-.17-.29v-5.12c0-.13.06-.23.17-.29.12-.06.26-.09.42-.09h2.54c.88 0 1.63.06 2.24.18.61.12 1.13.3 1.55.54s.74.54.96.89c.22.37.34.78.34 1.25zm-2.08.04c0-.28-.05-.54-.16-.77-.11-.24-.29-.45-.53-.62-.24-.18-.55-.31-.93-.41-.38-.1-.88-.15-1.49-.15h-1.02v4h1.05c.55 0 1.01-.04 1.39-.13.38-.08.69-.21.94-.38s.44-.38.56-.64c.12-.26.19-.56.19-.9zm5.74 2.82l-.05.08-.16.06-.31.04-.49.01-.48-.01-.31-.04-.17-.06-.05-.08v-5.55l.05-.08.17-.06.31-.04.48-.01.49.01.31.04.16.06.05.08v5.55z"/></g></svg>