<?xml version="1.0" encoding="utf-8"?>
<!-- Generator: Adobe Illustrator 15.1.0, SVG Export Plug-In . SVG Version: 6.00 Build 0)  -->
<!DOCTYPE svg PUBLIC "-//W3C//DTD SVG 1.1//EN" "http://www.w3.org/Graphics/SVG/1.1/DTD/svg11.dtd">
<svg version="1.1" id="Calque_1_-_copie" xmlns="http://www.w3.org/2000/svg" xmlns:xlink="http://www.w3.org/1999/xlink" x="0px"
	 y="0px" width="112.117px" height="45px" viewBox="0 0 112.117 45" enable-background="new 0 0 112.117 45" xml:space="preserve">
<g id="Calque_7_1_">
	<g>
		<path fill="#E6E6E6" d="M48.27,17.736h-1.115v-1.209c0-0.281-0.083-0.582-0.316-0.797c-0.229-0.214-0.526-0.278-0.806-0.278
			c-0.28,0-0.576,0.067-0.804,0.278c-0.23,0.216-0.315,0.514-0.314,0.793c0,0,0,0.004,0,0.009l0,0v1.207
			c-0.25,0.016-0.504,0.091-0.705,0.278c-0.228,0.216-0.313,0.512-0.313,0.791c0,0,0,0.002,0,0.008s0,0.008,0,0.011
			c0,0.278,0.085,0.574,0.312,0.79c0.204,0.187,0.457,0.261,0.707,0.277v5.488c0-0.001,0,0.007,0,0.009
			c-0.001,0.276,0.084,0.574,0.313,0.789c0.217,0.202,0.492,0.272,0.759,0.28h0.001h0.056c0.278,0,0.57-0.067,0.795-0.276
			c0.208-0.194,0.298-0.455,0.314-0.709l0.003-0.004v-5.575l1.114,0.002c0.282,0,0.577-0.069,0.805-0.28
			c0.229-0.214,0.313-0.511,0.313-0.789v-0.012c0-0.01,0-0.015,0-0.015c0-0.278-0.084-0.574-0.313-0.786
			C48.847,17.803,48.551,17.736,48.27,17.736z M42.444,21.797c-0.561-0.506-1.275-0.768-2.05-0.767c0,0-0.005-0.002-0.022,0
			l-4.461-0.002c-0.229-0.004-0.364-0.056-0.523-0.189c-0.147-0.141-0.176-0.212-0.185-0.389c0.009-0.171,0.036-0.236,0.186-0.381
			c0.154-0.125,0.292-0.18,0.523-0.184h4.469c0.279,0,0.576-0.065,0.806-0.278c0.228-0.211,0.313-0.505,0.315-0.783v-0.018
			c0-0.01,0-0.01,0-0.01c0-0.277-0.086-0.575-0.316-0.787c-0.229-0.209-0.524-0.274-0.804-0.274h-4.476
			c-0.776-0.003-1.49,0.263-2.057,0.778c-0.569,0.502-0.892,1.177-0.89,1.925c0,0,0,0.006,0,0.019v0.009
			c-0.002,0.75,0.316,1.428,0.884,1.932c0.562,0.505,1.271,0.768,2.043,0.769l0,0l4.493,0.002c0.225,0.004,0.363,0.058,0.52,0.188
			c0.151,0.146,0.179,0.213,0.188,0.39c-0.009,0.172-0.036,0.233-0.188,0.379c-0.154,0.127-0.293,0.181-0.522,0.185H34.08
			c-0.281,0-0.576,0.064-0.807,0.279c-0.229,0.215-0.314,0.51-0.313,0.79c0,0,0,0.004,0,0.015c0,0.004,0,0.006,0,0.006
			c0,0.277,0.086,0.572,0.316,0.785c0.23,0.211,0.525,0.275,0.805,0.273l6.312,0.002h0.003c0.749,0,1.442-0.254,2.002-0.738
			c0.598-0.494,0.934-1.19,0.933-1.964v-0.002c0-0.022,0-0.022,0-0.022C43.331,22.984,43.014,22.303,42.444,21.797z M9.864,24.591
			c-0.232-0.214-0.528-0.282-0.808-0.28l0,0H2.755c-0.23-0.004-0.367-0.056-0.527-0.188c-0.144-0.139-0.171-0.2-0.18-0.381v-3.29
			c0.009-0.176,0.035-0.239,0.186-0.383c0.157-0.128,0.291-0.179,0.522-0.184h4.47c0.28,0,0.576-0.065,0.806-0.278
			c0.229-0.215,0.313-0.509,0.313-0.785v-0.016c0-0.013,0-0.013,0-0.013c0-0.277-0.084-0.572-0.313-0.785
			c-0.231-0.209-0.526-0.274-0.805-0.273l-4.471-0.001H2.753c-0.781-0.002-1.497,0.262-2.062,0.772
			c-0.57,0.502-0.885,1.184-0.884,1.933c0,0,0,0.013,0.001,0.032l-0.001,3.272v0.011c-0.001,0.747,0.32,1.423,0.89,1.932
			c0.566,0.51,1.274,0.774,2.05,0.772l6.312,0.001c0.278,0,0.572-0.064,0.801-0.273c0.229-0.211,0.315-0.502,0.317-0.776v-0.019
			c0-0.011,0-0.011,0-0.011C10.175,25.102,10.092,24.807,9.864,24.591z M20.53,18.507c-0.562-0.508-1.275-0.77-2.054-0.77h-0.003
			c-0.003,0-0.009,0-0.021,0h-4.441c-0.005-0.001-0.01-0.001-0.018-0.001c-0.782-0.003-1.497,0.262-2.063,0.772
			c-0.568,0.502-0.884,1.182-0.883,1.933c0,0,0,0.009,0.001,0.025l-0.001,3.278v0.011c-0.001,0.745,0.317,1.425,0.892,1.933
			c0.562,0.506,1.27,0.772,2.042,0.772l0.004,0.001h4.496c0.751,0,1.443-0.254,2.003-0.738c0.6-0.494,0.934-1.19,0.932-1.962l0,0
			v-3.308c0-0.008,0-0.009,0-0.009C21.416,19.691,21.101,19.012,20.53,18.507z M19.176,23.742c-0.009,0.177-0.037,0.24-0.188,0.384
			c-0.158,0.129-0.292,0.181-0.522,0.185h-4.469c-0.229-0.004-0.366-0.056-0.526-0.188c-0.147-0.141-0.174-0.202-0.183-0.379v-3.292
			c0.009-0.175,0.035-0.237,0.188-0.384c0.155-0.125,0.293-0.18,0.523-0.184h4.467c0.228,0.005,0.363,0.056,0.525,0.189
			c0.148,0.142,0.176,0.207,0.185,0.38V23.742L19.176,23.742z M30.878,18.507c-0.56-0.508-1.275-0.772-2.052-0.771
			c0,0-0.001,0-0.004,0c-0.001-0.001-0.007-0.001-0.013,0h-2.942c-0.398,0-0.781,0.067-1.138,0.202
			c-0.192-0.135-0.425-0.203-0.661-0.203c-0.004,0-0.018,0-0.04,0.002c-0.276,0-0.566,0.065-0.793,0.274
			c-0.229,0.211-0.317,0.505-0.316,0.783c0,0-0.001,0.012,0,0.031v6.565v0.014c-0.001,0.275,0.085,0.572,0.317,0.783
			c0.23,0.207,0.523,0.273,0.803,0.273c0.281,0,0.575-0.066,0.804-0.273c0.229-0.213,0.316-0.506,0.315-0.783v-4.95
			c0.009-0.176,0.036-0.24,0.188-0.383c0.156-0.128,0.295-0.182,0.525-0.187l2.944,0.003c0.227,0.003,0.365,0.056,0.523,0.188
			c0.148,0.14,0.176,0.204,0.185,0.381v4.935c0-0.002-0.001,0.004-0.001,0.014c0,0.275,0.087,0.57,0.316,0.781
			c0.229,0.209,0.523,0.275,0.805,0.275c0.28,0,0.574-0.066,0.804-0.273c0.229-0.211,0.314-0.502,0.317-0.777v-4.957
			c0-0.008,0-0.014,0-0.014C31.764,19.688,31.448,19.008,30.878,18.507z M88.885,15.206c-0.265-0.245-0.61-0.327-0.956-0.326
			c-0.346,0-0.689,0.081-0.953,0.326c-0.26,0.244-0.361,0.586-0.359,0.923c0,0.004,0,0.013,0,0.025v0.003
			c-0.002,0.337,0.101,0.68,0.362,0.924c0.259,0.245,0.606,0.325,0.95,0.325c0.346,0,0.691-0.08,0.955-0.327
			c0.253-0.239,0.352-0.571,0.355-0.898v-0.002v-0.035c0-0.012,0-0.02,0-0.02C89.24,15.788,89.139,15.45,88.885,15.206z
			 M100.227,18.507c-0.563-0.508-1.276-0.77-2.056-0.77c0,0,0,0-0.002,0s-0.008-0.001-0.022,0h-4.44
			c-0.004-0.001-0.01-0.001-0.016-0.001c-0.783-0.003-1.498,0.262-2.062,0.773c-0.567,0.5-0.887,1.181-0.885,1.931
			c0,0,0,0.005,0,0.014v3.291c0-0.002,0-0.004,0-0.004c0,0.002,0,0.007,0,0.015c-0.002,0.747,0.318,1.426,0.891,1.932
			c0.564,0.508,1.275,0.774,2.049,0.772h4.497c0.749,0,1.442-0.252,2.001-0.735c0.6-0.496,0.934-1.188,0.934-1.961V23.76v-3.306
			c0-0.014,0-0.014,0-0.014C101.115,19.689,100.798,19.008,100.227,18.507z M98.873,23.744c-0.01,0.177-0.039,0.242-0.187,0.384
			c-0.155,0.127-0.293,0.179-0.522,0.183h-4.471c-0.228-0.004-0.367-0.058-0.521-0.185c-0.153-0.144-0.179-0.201-0.187-0.384v-3.29
			c0.008-0.176,0.033-0.238,0.188-0.382c0.149-0.127,0.292-0.182,0.521-0.185h4.469c0.229,0.005,0.365,0.056,0.527,0.189
			c0.145,0.139,0.172,0.203,0.182,0.383V23.744L98.873,23.744L98.873,23.744z M59.744,18.507c-0.561-0.508-1.272-0.771-2.053-0.771
			l0,0h-0.01c-0.006-0.001-0.014-0.001-0.025,0h-4.45c-0.78-0.003-1.495,0.262-2.061,0.772c-0.569,0.503-0.886,1.182-0.884,1.931
			c0,0,0,0.013,0.001,0.031l-0.001,3.274v0.013c-0.002,0.745,0.317,1.423,0.893,1.931c0.561,0.508,1.271,0.773,2.044,0.773
			l4.482-0.001c0.278,0.001,0.575-0.063,0.806-0.274c0.229-0.211,0.314-0.504,0.314-0.781v-0.014c0-0.01,0-0.013,0-0.013
			c0-0.282-0.085-0.575-0.312-0.787c-0.229-0.216-0.529-0.28-0.809-0.28h-4.47c-0.227-0.004-0.367-0.056-0.527-0.188
			c-0.145-0.141-0.169-0.198-0.18-0.383v-0.573l5.391,0.002v-0.007c0.673-0.041,1.289-0.288,1.802-0.72
			c0.602-0.506,0.937-1.204,0.936-1.976h-0.001c0.001-0.021,0.001-0.027,0.001-0.028C60.632,19.688,60.315,19.008,59.744,18.507z
			 M58.199,20.841L58.199,20.841c-0.156,0.131-0.291,0.184-0.521,0.188l-5.174-0.002v-0.575c0.009-0.179,0.034-0.239,0.185-0.381
			c0.155-0.128,0.297-0.183,0.522-0.186h4.47c0.227,0.003,0.361,0.054,0.516,0.175c0.154,0.144,0.185,0.216,0.193,0.397
			C58.381,20.625,58.352,20.696,58.199,20.841z M89.048,18.797c-0.001-0.276-0.088-0.567-0.311-0.779
			c-0.229-0.215-0.527-0.282-0.81-0.281c-0.282-0.001-0.577,0.067-0.808,0.28c-0.227,0.212-0.314,0.504-0.313,0.78
			c0,0-0.001,0.014,0.001,0.037l-0.001,6.548V25.4c-0.001,0.276,0.088,0.568,0.313,0.781c0.229,0.211,0.524,0.278,0.808,0.278h0.004
			c0.28,0,0.575-0.069,0.804-0.28c0.225-0.211,0.311-0.498,0.312-0.771v-0.002v-6.589C89.048,18.808,89.048,18.801,89.048,18.797
			L89.048,18.797z M111.458,20.438c0.002-0.75-0.314-1.43-0.885-1.931c-0.562-0.509-1.272-0.772-2.054-0.771c0,0-0.001,0-0.002,0
			c-0.003-0.001-0.009-0.001-0.022,0.001h-2.935c-0.396-0.001-0.778,0.066-1.135,0.201c-0.194-0.136-0.431-0.203-0.666-0.203h-0.009
			c-0.006,0-0.016,0-0.029,0.002c-0.273,0.001-0.564,0.065-0.793,0.275c-0.23,0.212-0.314,0.511-0.314,0.789v0.003
			c0,0.004,0,0.01,0,0.016v6.561c0,0.01,0,0.016,0,0.016c0,0.276,0.082,0.576,0.316,0.791c0.23,0.207,0.523,0.273,0.803,0.273
			c0.281,0,0.575-0.066,0.807-0.273c0.227-0.209,0.312-0.498,0.315-0.77l0.001-0.003v-4.962c0.01-0.175,0.035-0.239,0.186-0.382
			c0.156-0.128,0.297-0.182,0.521-0.187l2.947,0.002c0.227,0.003,0.368,0.058,0.521,0.187c0.15,0.142,0.176,0.203,0.187,0.385v4.933
			c0-0.006,0,0.006,0,0.018c-0.001,0.275,0.088,0.566,0.313,0.777c0.23,0.209,0.525,0.275,0.807,0.275h0.005
			c0.278,0,0.569-0.066,0.799-0.273c0.228-0.211,0.313-0.5,0.313-0.775l0.002-0.004v-4.955
			C111.458,20.44,111.458,20.438,111.458,20.438z M85.429,18.017c-0.229-0.215-0.525-0.281-0.809-0.28h-1.112v-1.206
			c0-0.004,0-0.008,0-0.012l0,0v-0.001c0-0.278-0.084-0.576-0.312-0.789c-0.231-0.211-0.525-0.278-0.808-0.278
			c-0.278,0-0.576,0.064-0.808,0.277c-0.232,0.216-0.315,0.514-0.315,0.794c0,0-0.001,0.006,0,0.022v1.193
			c-0.248,0.017-0.502,0.091-0.703,0.278c-0.229,0.218-0.313,0.517-0.313,0.797c0,0.001,0,0.007,0.002,0.016
			c0,0.276,0.084,0.571,0.312,0.788c0.203,0.184,0.456,0.26,0.704,0.275v5.489l0,0c0,0.005,0,0.007,0,0.009
			c0,0.276,0.082,0.576,0.314,0.791c0.23,0.211,0.527,0.279,0.809,0.279h0.004c0.28,0,0.572-0.068,0.803-0.277
			c0.221-0.209,0.309-0.496,0.313-0.766l0.001-0.002v-5.521l1.111,0.001c0.283,0.002,0.578-0.067,0.808-0.278
			c0.226-0.21,0.312-0.5,0.312-0.773l0.002-0.004v-0.023C85.742,18.8,85.742,18.8,85.742,18.8
			C85.742,18.523,85.658,18.229,85.429,18.017z M64.068,14.742c0.002-0.282-0.082-0.578-0.309-0.794
			c-0.23-0.216-0.528-0.286-0.811-0.286c-0.283,0-0.58,0.07-0.81,0.284c-0.229,0.216-0.312,0.514-0.312,0.796v10.639
			c0,0.28,0.082,0.576,0.309,0.794c0.221,0.206,0.503,0.28,0.775,0.284h0.002h0.019c0.004,0,0.008,0.001,0.011,0.001
			c0.004,0,0.006-0.001,0.01-0.001h0.002c0.281,0.002,0.576-0.07,0.805-0.283c0.227-0.218,0.311-0.514,0.311-0.795l0,0V14.754
			C64.068,14.742,64.068,14.742,64.068,14.742z M78.494,18.507c-0.563-0.508-1.276-0.772-2.056-0.771c0,0,0,0-0.002,0
			c-0.003-0.001-0.007-0.001-0.017,0h-4.463c-0.277,0-0.574,0.062-0.803,0.276c-0.23,0.21-0.318,0.506-0.316,0.784v0.022
			c-0.002,0.277,0.082,0.574,0.312,0.79c0.23,0.212,0.526,0.279,0.807,0.278h4.473c0.227,0.005,0.361,0.056,0.523,0.188
			c0.148,0.14,0.174,0.203,0.186,0.383v0.558l-5.17,0.003c-0.005,0-0.012-0.001-0.02-0.001c-0.779-0.002-1.494,0.263-2.058,0.779
			c-0.567,0.505-0.886,1.186-0.885,1.938c0.001,0,0,0.004,0,0.013v0.006c-0.001,0.747,0.317,1.427,0.894,1.935
			c0.559,0.504,1.262,0.771,2.03,0.771l0.004,0.001l4.494,0.001h0.004c0.396,0,0.776-0.068,1.13-0.207
			c0.189,0.137,0.428,0.206,0.663,0.207c0.015,0,0.024-0.001,0.033-0.001c0,0.001,0.007,0,0.007,0c0.275,0,0.566-0.067,0.795-0.272
			c0.219-0.201,0.305-0.475,0.314-0.734l0.002-0.003v-0.042c0-0.006,0-0.012,0-0.016v-4.939c0-0.01,0-0.01,0-0.01
			C79.38,19.69,79.063,19.011,78.494,18.507z M77.138,23.74c-0.01,0.181-0.036,0.24-0.188,0.384
			c-0.156,0.131-0.295,0.183-0.522,0.187l-4.472-0.002c-0.228-0.002-0.366-0.056-0.523-0.185c-0.146-0.142-0.173-0.205-0.184-0.384
			c0.01-0.165,0.039-0.244,0.193-0.395c0.155-0.131,0.291-0.184,0.516-0.188h5.18V23.74L77.138,23.74z M67.81,14.73
			c0.001-0.28-0.086-0.572-0.309-0.784c-0.229-0.215-0.527-0.285-0.811-0.285s-0.58,0.07-0.811,0.285
			c-0.23,0.219-0.312,0.519-0.312,0.801v10.627c0,0.278,0.08,0.58,0.309,0.801c0.224,0.207,0.51,0.28,0.783,0.284l0.002,0.001h0.037
			c0.278,0,0.574-0.071,0.801-0.284c0.225-0.214,0.312-0.505,0.312-0.783v-0.016h-0.002l0.002-10.624
			C67.811,14.742,67.81,14.732,67.81,14.73z"/>
		<path fill="#E6E6E6" d="M42.444,21.797c-0.561-0.506-1.275-0.768-2.05-0.767c0,0-0.005-0.002-0.022,0l-4.461-0.002
			c-0.229-0.004-0.364-0.056-0.523-0.189c-0.147-0.141-0.176-0.212-0.185-0.389c0.009-0.171,0.036-0.236,0.186-0.381
			c0.154-0.125,0.292-0.18,0.523-0.184h4.469c0.279,0,0.576-0.065,0.806-0.278c0.228-0.211,0.313-0.505,0.315-0.783v-0.018
			c0-0.01,0-0.01,0-0.01c0-0.277-0.086-0.575-0.316-0.787c-0.229-0.209-0.524-0.274-0.804-0.274h-4.476
			c-0.776-0.003-1.49,0.263-2.057,0.778c-0.569,0.502-0.892,1.177-0.89,1.925c0,0,0,0.006,0,0.019v0.009
			c-0.002,0.75,0.316,1.428,0.884,1.932c0.562,0.505,1.271,0.768,2.043,0.769l0,0l4.493,0.002c0.225,0.004,0.363,0.058,0.52,0.188
			c0.151,0.146,0.179,0.213,0.188,0.39c-0.009,0.172-0.036,0.233-0.188,0.379c-0.154,0.127-0.293,0.181-0.522,0.185H34.08
			c-0.281,0-0.576,0.064-0.807,0.279c-0.229,0.215-0.314,0.51-0.313,0.79c0,0,0,0.004,0,0.015c0,0.004,0,0.006,0,0.006
			c0,0.277,0.086,0.572,0.316,0.785c0.23,0.211,0.525,0.275,0.805,0.273l6.312,0.002h0.003c0.749,0,1.442-0.254,2.002-0.738
			c0.598-0.494,0.934-1.19,0.933-1.964v-0.002c0-0.022,0-0.022,0-0.022C43.331,22.984,43.014,22.303,42.444,21.797z"/>
		<path fill="#E6E6E6" d="M48.27,17.736h-1.115v-1.209c0-0.281-0.083-0.582-0.316-0.797c-0.229-0.214-0.526-0.278-0.806-0.278
			c-0.28,0-0.576,0.067-0.804,0.278c-0.23,0.216-0.315,0.514-0.314,0.793c0,0,0,0.004,0,0.009l0,0v1.207
			c-0.25,0.016-0.504,0.091-0.705,0.278c-0.228,0.216-0.313,0.512-0.313,0.791c0,0,0,0.002,0,0.008s0,0.008,0,0.011
			c0,0.278,0.085,0.574,0.312,0.79c0.204,0.187,0.457,0.261,0.707,0.277v5.488c0-0.001,0,0.007,0,0.009
			c-0.001,0.276,0.084,0.574,0.313,0.789c0.217,0.202,0.492,0.272,0.759,0.28h0.001h0.056c0.278,0,0.57-0.067,0.795-0.276
			c0.208-0.194,0.298-0.455,0.314-0.709l0.003-0.004v-5.575l1.114,0.002c0.282,0,0.577-0.069,0.805-0.28
			c0.229-0.214,0.313-0.511,0.313-0.789v-0.012c0-0.01,0-0.015,0-0.015c0-0.278-0.084-0.574-0.313-0.786
			C48.847,17.803,48.551,17.736,48.27,17.736z"/>
		<path fill="#E6E6E6" d="M3.343,26.46c0.501-0.793,1.132-1.511,1.857-2.149H2.755c-0.23-0.004-0.367-0.056-0.527-0.188
			c-0.144-0.139-0.171-0.2-0.18-0.379v-3.292c0.009-0.176,0.035-0.239,0.186-0.383c0.157-0.128,0.291-0.179,0.522-0.184h4.47
			c0.28,0,0.576-0.065,0.806-0.278c0.229-0.215,0.313-0.509,0.313-0.785v-0.016c0-0.013,0-0.013,0-0.013
			c0-0.277-0.084-0.572-0.313-0.785c-0.231-0.209-0.526-0.274-0.805-0.273l-4.471-0.001H2.753c-0.781-0.002-1.497,0.262-2.062,0.772
			c-0.57,0.502-0.885,1.184-0.884,1.933c0,0,0,0.013,0.001,0.032l-0.001,3.272v0.011c-0.001,0.747,0.32,1.423,0.89,1.932
			c0.566,0.51,1.274,0.774,2.05,0.772L3.343,26.46L3.343,26.46z"/>
		<path fill="#E6E6E6" d="M59.744,18.507c-0.561-0.508-1.272-0.771-2.053-0.771l0,0h-0.01c-0.006-0.001-0.014-0.001-0.025,0h-4.45
			c-0.78-0.003-1.495,0.262-2.061,0.772c-0.569,0.503-0.886,1.182-0.884,1.931c0,0,0,0.013,0.001,0.031l-0.001,3.274v0.013
			c-0.002,0.745,0.317,1.423,0.893,1.931c0.561,0.508,1.271,0.773,2.044,0.773l4.482-0.001c0.278,0.001,0.575-0.063,0.806-0.274
			c0.229-0.211,0.314-0.504,0.314-0.781v-0.014c0-0.01,0-0.013,0-0.013c0-0.282-0.085-0.575-0.312-0.787
			c-0.229-0.216-0.529-0.28-0.809-0.28h-4.47c-0.227-0.004-0.367-0.056-0.527-0.188c-0.145-0.141-0.169-0.198-0.18-0.383v-0.573
			l5.391,0.002v-0.007c0.673-0.041,1.289-0.288,1.802-0.72c0.602-0.506,0.937-1.204,0.936-1.976h-0.001
			c0.001-0.021,0.001-0.027,0.001-0.028C60.632,19.688,60.315,19.008,59.744,18.507z M58.199,20.841
			c-0.156,0.131-0.291,0.184-0.521,0.188l-5.174-0.002v-0.575c0.009-0.179,0.034-0.239,0.185-0.381
			c0.155-0.128,0.297-0.183,0.522-0.186h4.47c0.227,0.003,0.361,0.054,0.516,0.175c0.154,0.144,0.185,0.216,0.193,0.397
			C58.381,20.625,58.352,20.696,58.199,20.841z"/>
		<path fill="#E6E6E6" d="M86.807,22.413c0.007-0.005,0.013-0.01,0.019-0.014c0.496-0.289,1.098-0.368,1.65-0.216
			c0.202,0.056,0.395,0.143,0.571,0.254v-3.532c0-0.009,0-0.016,0-0.02l0,0c-0.001-0.276-0.087-0.567-0.312-0.779
			c-0.229-0.215-0.527-0.283-0.809-0.283c-0.282,0-0.577,0.068-0.809,0.281c-0.226,0.212-0.313,0.505-0.312,0.781
			c0,0-0.001,0.015,0.001,0.036V22.413z"/>
		<path fill="#E6E6E6" d="M85.742,18.8c0-0.277-0.084-0.571-0.312-0.783c-0.229-0.215-0.525-0.281-0.809-0.28h-1.112v-1.206
			c0-0.004,0-0.008,0-0.012l0,0v-0.001c0-0.278-0.084-0.576-0.312-0.789c-0.231-0.211-0.525-0.278-0.808-0.278
			c-0.278,0-0.576,0.064-0.808,0.277c-0.232,0.216-0.315,0.514-0.315,0.794c0,0-0.001,0.006,0,0.022v1.193
			c-0.248,0.017-0.502,0.091-0.703,0.278c-0.229,0.218-0.313,0.517-0.313,0.797c0,0.001,0,0.007,0.002,0.016
			c0,0.276,0.084,0.571,0.312,0.788c0.203,0.184,0.456,0.26,0.704,0.275v4.175c0.284-0.137,0.6-0.217,0.893-0.19
			c0.004,0,0.008,0.002,0.014,0.002c0.386,0,0.747,0.099,1.08,0.291c0.086,0.065,0.172,0.133,0.258,0.199v-4.474l1.111,0.001
			c0.283,0.002,0.578-0.067,0.809-0.278c0.227-0.21,0.311-0.5,0.312-0.773V18.84v-0.023C85.742,18.8,85.742,18.8,85.742,18.8z"/>
		<path fill="#E6E6E6" d="M64.068,14.742c0.002-0.282-0.082-0.578-0.309-0.794c-0.23-0.216-0.528-0.286-0.811-0.286
			c-0.283,0-0.58,0.07-0.81,0.284c-0.229,0.216-0.312,0.514-0.312,0.796v10.639c0,0.28,0.082,0.576,0.309,0.794
			c0.221,0.206,0.503,0.28,0.775,0.284h0.002h0.019c0.004,0,0.008,0.001,0.011,0.001c0.004,0,0.006-0.001,0.01-0.001h0.002
			c0.281,0.002,0.576-0.07,0.805-0.283c0.227-0.218,0.311-0.514,0.311-0.795l0,0V14.754C64.068,14.742,64.068,14.742,64.068,14.742z
			"/>
		<path fill="#E6E6E6" d="M67.81,14.73c0.001-0.28-0.086-0.572-0.309-0.784c-0.229-0.215-0.527-0.285-0.811-0.285
			s-0.58,0.07-0.811,0.285c-0.23,0.219-0.312,0.519-0.312,0.801v10.627c0,0.278,0.08,0.58,0.309,0.801
			c0.224,0.207,0.51,0.28,0.783,0.284l0.002,0.001h0.037c0.278,0,0.574-0.071,0.801-0.284c0.225-0.214,0.312-0.505,0.312-0.783
			v-0.016h-0.002l0.002-10.624C67.811,14.742,67.81,14.732,67.81,14.73z"/>
		<path fill="#E6E6E6" d="M78.494,18.507c-0.563-0.508-1.276-0.772-2.056-0.771c0,0,0,0-0.002,0c-0.003-0.001-0.007-0.001-0.017,0
			h-4.463c-0.277,0-0.574,0.062-0.803,0.276c-0.23,0.21-0.318,0.506-0.316,0.784v0.022c-0.002,0.277,0.082,0.574,0.312,0.79
			c0.23,0.212,0.526,0.279,0.807,0.278h4.473c0.227,0.005,0.361,0.056,0.523,0.188c0.148,0.14,0.174,0.203,0.186,0.383v0.558
			l-5.17,0.003c-0.005,0-0.012-0.001-0.02-0.001c-0.779-0.002-1.494,0.263-2.058,0.779c-0.567,0.505-0.886,1.186-0.885,1.938
			c0.001,0,0,0.004,0,0.013v0.006c-0.001,0.747,0.317,1.427,0.894,1.935c0.559,0.504,1.262,0.771,2.03,0.771l0.004,0.001
			l4.494,0.001h0.004c0.396,0,0.776-0.068,1.13-0.207c0.189,0.137,0.428,0.206,0.663,0.207c0.015,0,0.024-0.001,0.033-0.001
			c0,0.001,0.007,0,0.007,0c0.275,0,0.566-0.067,0.795-0.272c0.219-0.201,0.305-0.475,0.314-0.734l0.002-0.003v-0.042
			c0-0.006,0-0.012,0-0.016v-4.939c0-0.01,0-0.01,0-0.01C79.38,19.69,79.063,19.011,78.494,18.507z M77.138,23.74
			c-0.01,0.181-0.036,0.24-0.188,0.384c-0.156,0.131-0.295,0.183-0.522,0.187l-4.472-0.002c-0.228-0.002-0.366-0.056-0.523-0.185
			c-0.146-0.142-0.173-0.205-0.184-0.384c0.01-0.165,0.039-0.244,0.193-0.395c0.155-0.131,0.291-0.184,0.516-0.188h5.18V23.74
			L77.138,23.74z"/>
		<path fill="#E6E6E6" d="M36.014,35.21L36.014,35.21c0.326,0.31,0.647,0.612,0.966,0.908l0.307-0.33
			c-0.318-0.295-0.638-0.597-0.962-0.905L36.014,35.21z"/>
		<path fill="#E6E6E6" d="M32.346,4.201l0.045,0.449c0.431-0.044,0.868-0.08,1.312-0.111l-0.031-0.45
			C33.223,4.122,32.781,4.157,32.346,4.201z"/>
		<path fill="#E6E6E6" d="M34.109,33.368L34.109,33.368c0.32,0.313,0.636,0.623,0.95,0.925l0.314-0.324
			c-0.312-0.302-0.628-0.607-0.947-0.923L34.109,33.368z"/>
		<path fill="#E6E6E6" d="M28.639,27.586L28.639,27.586c0.289,0.334,0.58,0.667,0.875,0.996l0.337-0.3
			c-0.293-0.329-0.584-0.659-0.87-0.991L28.639,27.586z"/>
		<path fill="#E6E6E6" d="M32.232,31.494c0.31,0.316,0.622,0.633,0.935,0.943l0.318-0.32c-0.311-0.309-0.621-0.622-0.929-0.938
			L32.232,31.494z"/>
		<path fill="#E6E6E6" d="M38.982,3.969L38.982,3.969c-0.414-0.006-0.826-0.01-1.235-0.01h-0.092l0.001,0.451
			c0.03,0,0.061,0,0.091,0c0.405,0,0.815,0.003,1.228,0.01L38.982,3.969z"/>
		<path fill="#E6E6E6" d="M30.404,29.566L30.404,29.566c0.299,0.326,0.602,0.648,0.906,0.971l0.328-0.311
			c-0.303-0.319-0.604-0.643-0.901-0.967L30.404,29.566z"/>
		<path fill="#E6E6E6" d="M37.96,37.014c0.334,0.301,0.665,0.594,0.995,0.881l0.295-0.342c-0.327-0.283-0.656-0.574-0.988-0.873
			L37.96,37.014z"/>
		<path fill="#E6E6E6" d="M44.269,41.882c0.385,0.233,0.77,0.457,1.156,0.666l0.215-0.396c-0.379-0.207-0.757-0.424-1.136-0.656
			L44.269,41.882z"/>
		<path fill="#E6E6E6" d="M49.571,4.594c-0.439-0.039-0.879-0.077-1.32-0.113l-0.037,0.451c0.44,0.035,0.879,0.073,1.319,0.112
			L49.571,4.594z"/>
		<path fill="#E6E6E6" d="M46.615,43.152c0.406,0.189,0.815,0.369,1.228,0.529l0.166-0.42c-0.403-0.158-0.803-0.33-1.201-0.519
			L46.615,43.152z"/>
		<path fill="#E6E6E6" d="M39.967,38.753c0.347,0.286,0.691,0.563,1.034,0.834l0.278-0.354c-0.339-0.269-0.68-0.543-1.024-0.828
			L39.967,38.753z"/>
		<path fill="#E6E6E6" d="M42.96,4.112l-0.024,0.45c0.438,0.023,0.879,0.05,1.32,0.077l0.029-0.451
			C43.842,4.162,43.4,4.135,42.96,4.112z"/>
		<path fill="#E6E6E6" d="M40.296,4.45c0.437,0.013,0.878,0.03,1.32,0.049l0.018-0.451C41.19,4.029,40.747,4.013,40.309,4
			L40.296,4.45z"/>
		<path fill="#E6E6E6" d="M36.336,4.425l-0.009-0.451c-0.448,0.009-0.891,0.022-1.329,0.04l0.021,0.452
			C35.452,4.446,35.891,4.434,36.336,4.425z"/>
		<path fill="#E6E6E6" d="M46.931,4.375L46.931,4.375c-0.442-0.035-0.883-0.067-1.323-0.098l-0.032,0.45
			c0.438,0.032,0.878,0.063,1.319,0.098L46.931,4.375z"/>
		<path fill="#E6E6E6" d="M21.66,9.037c0.035-0.043,0.069-0.085,0.104-0.128l-0.349-0.286V8.62
			c-0.036,0.048-0.073,0.092-0.109,0.138c-0.292,0.37-0.521,0.771-0.69,1.2l0.42,0.165C21.19,9.734,21.398,9.373,21.66,9.037z"/>
		<path fill="#E6E6E6" d="M26.002,6.036l-0.164-0.421l0,0c-0.427,0.167-0.837,0.348-1.229,0.544l0.203,0.404
			C25.19,6.372,25.587,6.197,26.002,6.036z"/>
		<path fill="#E6E6E6" d="M87.19,14.279c-0.233-0.316-0.495-0.629-0.79-0.937l-0.326,0.312c0.293,0.305,0.551,0.614,0.779,0.924
			C86.951,14.467,87.064,14.367,87.19,14.279z"/>
		<path fill="#E6E6E6" d="M85.412,12.425c-0.33-0.276-0.687-0.546-1.065-0.813l-0.259,0.371c0.371,0.259,0.718,0.523,1.035,0.79
			L85.412,12.425z"/>
		<path fill="#E6E6E6" d="M49.103,44.131L49.103,44.131c0.426,0.133,0.854,0.253,1.29,0.355l0.104-0.438
			c-0.424-0.101-0.843-0.217-1.258-0.349L49.103,44.131z"/>
		<path fill="#E6E6E6" d="M20.692,12.083c0-0.252,0.014-0.497,0.042-0.734l-0.448-0.053l0,0c-0.031,0.257-0.045,0.519-0.045,0.788
			c-0.001,0.189,0.007,0.381,0.021,0.577l0.451-0.034C20.699,12.441,20.692,12.26,20.692,12.083z"/>
		<path fill="#E6E6E6" d="M23.44,6.831c-0.384,0.251-0.744,0.524-1.078,0.818l0.297,0.337c0.318-0.279,0.661-0.538,1.028-0.779
			L23.44,6.831L23.44,6.831z"/>
		<path fill="#E6E6E6" d="M26.942,25.544c0.274,0.343,0.555,0.687,0.84,1.026l0.347-0.286c-0.283-0.341-0.562-0.683-0.834-1.023
			L26.942,25.544z"/>
		<path fill="#E6E6E6" d="M20.461,13.998c0.092,0.423,0.212,0.856,0.355,1.3l0.43-0.142c-0.141-0.428-0.255-0.847-0.343-1.253
			L20.461,13.998z"/>
		<path fill="#E6E6E6" d="M21.282,16.552c0.166,0.401,0.349,0.808,0.549,1.22l0.406-0.197c-0.197-0.405-0.376-0.803-0.539-1.193
			L21.282,16.552z"/>
		<path fill="#E6E6E6" d="M42.06,40.393L42.06,40.393c0.364,0.266,0.728,0.521,1.089,0.768l0.253-0.374
			c-0.358-0.241-0.716-0.494-1.075-0.757L42.06,40.393z"/>
		<path fill="#E6E6E6" d="M77.923,34.01l0.295,0.342v0.002c0.339-0.291,0.672-0.584,0.998-0.879l-0.303-0.334
			C78.59,33.432,78.26,33.723,77.923,34.01z"/>
		<path fill="#E6E6E6" d="M76.912,34.855c-0.338,0.274-0.684,0.549-1.032,0.819l0.276,0.356c0.354-0.272,0.699-0.549,1.041-0.826
			L76.912,34.855z"/>
		<path fill="#E6E6E6" d="M80.848,9.658c-0.394-0.179-0.804-0.354-1.226-0.523l-0.168,0.418c0.418,0.167,0.82,0.34,1.207,0.516
			L80.848,9.658z"/>
		<path fill="#E6E6E6" d="M73.756,37.24l0.257,0.369c0.366-0.256,0.727-0.514,1.082-0.775l-0.27-0.363
			C74.473,36.73,74.115,36.986,73.756,37.24z"/>
		<path fill="#E6E6E6" d="M71.876,7.367c0.438,0.089,0.869,0.18,1.289,0.275l0.101-0.44c-0.425-0.095-0.858-0.188-1.3-0.277
			L71.876,7.367z"/>
		<path fill="#E6E6E6" d="M71.556,38.701l0.241,0.383c0.376-0.236,0.747-0.479,1.116-0.725l-0.25-0.377
			C72.299,38.229,71.93,38.468,71.556,38.701z"/>
		<path fill="#E6E6E6" d="M74.445,7.949c0.436,0.11,0.859,0.223,1.272,0.341l0.124-0.434c-0.418-0.119-0.846-0.234-1.284-0.346
			L74.445,7.949z"/>
		<path fill="#E6E6E6" d="M81.843,10.64c0.4,0.208,0.783,0.419,1.146,0.636l0.23-0.388c-0.37-0.221-0.76-0.437-1.169-0.649
			L81.843,10.64z"/>
		<path fill="#E6E6E6" d="M54.845,5.077L54.845,5.077c-0.438-0.041-0.876-0.082-1.317-0.123l-0.042,0.449
			c0.441,0.042,0.88,0.083,1.318,0.123L54.845,5.077z"/>
		<path fill="#E6E6E6" d="M56.994,44.441l0.047,0.447c0.437-0.047,0.879-0.107,1.326-0.185l-0.078-0.444
			C57.852,44.335,57.421,44.396,56.994,44.441z"/>
		<path fill="#E6E6E6" d="M57.48,5.317c-0.438-0.039-0.876-0.078-1.317-0.119l-0.041,0.448c0.441,0.041,0.881,0.082,1.318,0.12
			L57.48,5.317z"/>
		<path fill="#E6E6E6" d="M60.117,5.541c-0.436-0.035-0.875-0.07-1.316-0.108l-0.039,0.449c0.441,0.038,0.883,0.075,1.32,0.109
			L60.117,5.541z"/>
		<path fill="#E6E6E6" d="M69.294,40.053l0.222,0.393l0,0c0.386-0.217,0.769-0.438,1.149-0.666l-0.23-0.387
			C70.056,39.617,69.677,39.838,69.294,40.053z"/>
		<path fill="#E6E6E6" d="M51.705,44.75c0.436,0.07,0.879,0.128,1.329,0.169l0.04-0.45c-0.438-0.039-0.869-0.094-1.295-0.164
			L51.705,44.75z"/>
		<path fill="#E6E6E6" d="M52.209,4.832c-0.439-0.042-0.878-0.081-1.318-0.12l-0.04,0.449c0.439,0.04,0.879,0.08,1.317,0.121
			L52.209,4.832z"/>
		<path fill="#E6E6E6" d="M59.576,44.001l0.102,0.44l0,0c0.427-0.099,0.857-0.209,1.293-0.332l-0.124-0.435
			C60.419,43.796,59.996,43.904,59.576,44.001z"/>
		<path fill="#E6E6E6" d="M54.859,44.55c-0.162-0.001-0.321-0.002-0.48-0.006l-0.011,0.451C54.531,44.998,54.694,45,54.858,45
			c0.279,0,0.562-0.005,0.847-0.018l-0.018-0.451C55.408,44.544,55.132,44.55,54.859,44.55z"/>
		<path fill="#E6E6E6" d="M68.037,6.267C67.603,6.208,67.166,6.152,66.72,6.1l-0.055,0.448c0.443,0.052,0.881,0.107,1.311,0.166
			L68.037,6.267z"/>
		<path fill="#E6E6E6" d="M66.966,41.279l0.197,0.404c0.396-0.192,0.793-0.396,1.187-0.604l-0.211-0.398
			C67.75,40.889,67.357,41.087,66.966,41.279z"/>
		<path fill="#E6E6E6" d="M62.722,6.181l0.034-0.451c-0.106-0.006-0.216-0.014-0.321-0.02c-0.329-0.022-0.663-0.046-0.999-0.07
			l-0.03,0.45c0.334,0.024,0.67,0.048,1.002,0.07C62.512,6.167,62.619,6.174,62.722,6.181z"/>
		<path fill="#E6E6E6" d="M70.66,6.679c-0.43-0.076-0.865-0.149-1.311-0.219l-0.07,0.446c0.441,0.069,0.875,0.14,1.303,0.217
			L70.66,6.679z"/>
		<path fill="#E6E6E6" d="M64.568,42.369l0.172,0.416l0,0c0.405-0.169,0.813-0.348,1.223-0.531l-0.188-0.411
			C65.371,42.025,64.969,42.201,64.568,42.369z"/>
		<path fill="#E6E6E6" d="M62.103,43.29l0.143,0.428c0.416-0.138,0.836-0.284,1.256-0.442l-0.158-0.424
			C62.927,43.008,62.514,43.152,62.103,43.29z"/>
		<path fill="#E6E6E6" d="M65.4,5.955c-0.437-0.045-0.875-0.084-1.322-0.122l-0.037,0.449c0.445,0.037,0.882,0.078,1.312,0.122
			L65.4,5.955z"/>
		<path fill="#E6E6E6" d="M51.705,44.75L51.705,44.75L51.705,44.75z"/>
		<rect x="85.414" y="12.425" fill="#E6E6E6" width="0" height="0.001"/>
		<polygon fill="#E6E6E6" points="68.037,6.267 68.037,6.267 68.037,6.267 		"/>
		<rect x="52.209" y="4.831" fill="#E6E6E6" width="0.001" height="0.001"/>
		<polygon fill="#E6E6E6" points="41.635,4.048 41.635,4.048 41.636,4.049 		"/>
		<polygon fill="#E6E6E6" points="36.327,3.972 36.327,3.974 36.327,3.974 36.327,3.974 		"/>
		<g>
			<g>
				<g>
					<g opacity="0.8">
						<line fill="none" x1="52.174" y1="9.618" x2="52.174" y2="9.618"/>
						<path fill="#FEDC91" d="M52.174,9.618c1.055-0.089,1.855-0.109,2.397-0.069l1.817-0.273c-1.293,0.231-2.578,0.47-3.864,0.721
							c-3.469,0.698-7.366,1.59-11.078,2.547c-3.712,0.952-7.238,1.971-9.998,2.804c1.622-0.521,3.562-1.124,5.419-1.667
							l1.812-0.522c1.167-0.33,2.233-0.618,3.08-0.839l-0.502,0.147c1.258-0.368,2.521-0.724,3.787-1.069
							c1.273-0.315,2.55-0.619,3.829-0.913c-1.279,0.294-2.556,0.598-3.829,0.913C47.41,10.767,49.787,10.173,52.174,9.618"/>
						<line fill="none" x1="45.044" y1="11.398" x2="45.044" y2="11.398"/>
						<line fill="none" x1="31.448" y1="15.348" x2="31.448" y2="15.348"/>
						<line fill="none" x1="56.388" y1="9.276" x2="56.388" y2="9.276"/>
						<path fill="#FEDC91" d="M65.438,30.67l-0.163,0.032l0.903-0.231c3.573-0.828,7.128-1.744,10.397-2.693
							c3.982-1.141,8.114-2.418,12.358-3.918c0.849-0.299,1.699-0.606,2.558-0.927c-1.699,0.673-3.414,1.314-5.141,1.923l-0.51,0.17
							c-3.686,1.213-7.066,2.226-10.385,3.146C72.141,29.089,68.886,29.911,65.438,30.67"/>
						<line fill="none" x1="86.352" y1="24.854" x2="86.352" y2="24.854"/>
						<line fill="none" x1="90.906" y1="22.854" x2="90.906" y2="22.854"/>
						<path fill="#FAC019" d="M90.906,22.854c3.883-1.496,7.971-3.23,11.772-5.372l0.026,0.049
							c-2.105,1.184-4.442,2.321-6.871,3.354c-0.668,0.284-1.342,0.56-2.021,0.826l0.485-0.184
							C93.177,21.988,92.044,22.429,90.906,22.854"/>
						<path fill="#FAC019" d="M99.541,19.271c1.16-0.574,2.305-1.175,3.416-1.817l0.451-0.243
							C102.154,17.945,100.857,18.626,99.541,19.271"/>
						<polyline fill="#FAC019" points="64.621,31.966 63.587,32.165 64.876,31.904 64.621,31.966 						"/>
						<line fill="none" x1="63.587" y1="32.165" x2="63.587" y2="32.165"/>
						<line fill="none" x1="103.287" y1="19.673" x2="103.287" y2="19.673"/>
						<path fill="#FAC019" d="M103.287,19.673c-0.553,0.289-1.108,0.567-1.668,0.839C102.178,20.24,102.734,19.961,103.287,19.673"
							/>
						<polyline fill="#FAC019" points="101.619,20.512 101.38,20.631 101.619,20.512 						"/>
						<line fill="none" x1="102.062" y1="6.082" x2="102.062" y2="6.082"/>
						<path fill="#FAC019" d="M102.062,6.082c0.422,0.076,0.844,0.158,1.26,0.247C102.906,6.239,102.484,6.157,102.062,6.082"/>
						<line fill="none" x1="109.857" y1="14.953" x2="109.857" y2="14.953"/>
						<path fill="#FAC019" d="M109.857,14.953c-0.136,0.127-0.273,0.251-0.412,0.372C109.583,15.205,109.722,15.08,109.857,14.953"
							/>
						<path fill="#FAC019" d="M15.68,34.632c-0.95-0.157-1.89-0.344-2.811-0.571C13.791,34.288,14.731,34.475,15.68,34.632"/>
						<line fill="none" x1="63.587" y1="32.165" x2="63.587" y2="32.165"/>
						<polyline fill="#FAC019" points="63.587,32.165 61.513,32.538 63.587,32.165 						"/>
						<line fill="none" x1="105.287" y1="6.873" x2="105.287" y2="6.873"/>
						<line fill="none" x1="105.287" y1="6.873" x2="105.287" y2="6.873"/>
						<path fill="#FAC019" d="M105.287,6.873c0.566,0.156,1.123,0.331,1.66,0.534c-0.461-0.173-0.938-0.325-1.42-0.462
							L105.287,6.873"/>
						<path fill="#FAC019" d="M99.761,5.75c0.771,0.094,1.54,0.204,2.302,0.331c-0.509-0.084-1.021-0.158-1.532-0.226L99.761,5.75"
							/>
						<line fill="none" x1="102.062" y1="6.082" x2="102.062" y2="6.082"/>
						<path fill="#FAC019" d="M109.533,12.591c0.504-0.674,0.853-1.408,0.856-2.022c0.006-0.112,0.001-0.221-0.011-0.327
							c0.012,0.106,0.017,0.215,0.011,0.327c0.006-0.112,0.001-0.221-0.011-0.327l0.006-0.001c0.055,0.346,0.003,0.727-0.15,1.134
							C110.08,11.778,109.832,12.193,109.533,12.591"/>
						<line fill="none" x1="102.051" y1="6.155" x2="102.051" y2="6.155"/>
						<line fill="none" x1="102.051" y1="6.155" x2="102.051" y2="6.155"/>
						<path fill="#FAC019" d="M102.051,6.155c1.099,0.189,2.185,0.42,3.235,0.718c0.566,0.156,1.123,0.331,1.66,0.534
							c-0.461-0.172-0.938-0.325-1.42-0.462c0.782,0.232,1.563,0.503,2.297,0.85c0.729,0.343,1.426,0.769,1.907,1.279
							c0.24,0.254,0.419,0.524,0.519,0.795c0.016,0.033,0.023,0.068,0.035,0.102c0.012,0.032,0.014,0.049,0.021,0.073l0.018,0.084
							l0.012,0.043l0.004,0.022v0.002c-0.001-0.013,0.008,0.033-0.006-0.028l0.002,0.004v0.006c0.004,0.036,0.013,0.07,0.015,0.105
							c0.015,0.143,0.013,0.288-0.007,0.441c-0.073,0.613-0.477,1.329-1.025,1.991c-0.09,0.125-0.183,0.251-0.279,0.375
							c0.525-0.582,0.973-1.213,1.188-1.824c0.108-0.303,0.158-0.594,0.146-0.862c-0.002-0.067-0.012-0.133-0.021-0.199
							l-0.005-0.024l-0.002-0.013v-0.002c0.013,0.06,0.004,0.016,0.007,0.029l-0.001-0.002V10.19l-0.003-0.011l-0.02-0.08
							c-0.012-0.067-0.02-0.076-0.025-0.1c-0.03-0.108-0.088-0.249-0.156-0.371c0.043,0.075,0.081,0.149,0.111,0.226
							c0.02,0.037,0.027,0.076,0.043,0.114c0.012,0.038,0.016,0.038,0.029,0.097l0.022,0.096l0.007,0.023v0.006v0.001
							c-0.002-0.014,0.008,0.03-0.006-0.03v0.001l0,0v0.002l0.002,0.007l0.004,0.031c0.01,0.039,0.016,0.078,0.021,0.119
							c0.009,0.08,0.012,0.161,0.01,0.245c0.006-0.112,0.002-0.221-0.011-0.327l-0.014-0.081l-0.021-0.098
							c-0.02-0.069-0.018-0.071-0.04-0.136c-0.035-0.104-0.078-0.207-0.136-0.309c0.059,0.102,0.103,0.204,0.139,0.307
							c0.021,0.067,0.021,0.069,0.043,0.138l0.014,0.063l0.008,0.032l0.004,0.016l0.002,0.009v0.003l0.002,0.001v0.002
							c-0.014-0.06-0.004-0.016-0.008-0.03l0,0v0.001l0.015,0.08l-0.013-0.083l-0.019-0.081l-0.008-0.04l-0.006-0.018
							c-0.011-0.037-0.03-0.11-0.056-0.174c-0.049-0.13-0.115-0.259-0.197-0.387c-0.164-0.256-0.395-0.505-0.672-0.734
							c-0.551-0.461-1.26-0.839-2.008-1.153c0.597,0.258,1.164,0.555,1.648,0.903c-0.607-0.431-1.341-0.785-2.105-1.078
							c0.154,0.055,0.308,0.114,0.457,0.175c-0.672-0.289-1.383-0.53-2.109-0.739C104.242,6.547,103.152,6.331,102.051,6.155
							 M106.953,7.396c-0.155-0.058-0.312-0.111-0.469-0.164C106.641,7.285,106.797,7.338,106.953,7.396 M110.167,9.619
							L110.167,9.619"/>
						<line fill="none" x1="105.527" y1="6.944" x2="105.527" y2="6.944"/>
						<path fill="#FAC017" d="M105.527,6.944c0.482,0.138,0.959,0.29,1.42,0.462C106.486,7.233,106.01,7.082,105.527,6.944"/>
						<line fill="none" x1="106.947" y1="7.407" x2="106.947" y2="7.407"/>
						<line fill="none" x1="110.385" y1="10.24" x2="110.385" y2="10.24"/>
						<path fill="#FAC017" d="M110.379,10.241c0.012,0.107,0.017,0.215,0.011,0.328C110.395,10.458,110.39,10.349,110.379,10.241"/>
						<line fill="none" x1="95.878" y1="5.454" x2="95.878" y2="5.454"/>
						<line fill="none" x1="95.878" y1="5.454" x2="95.878" y2="5.454"/>
						<path fill="#FAC019" d="M95.878,5.454c0.433,0.024,0.865,0.052,1.298,0.083c0.604,0.044,1.207,0.096,1.81,0.158
							c1.803,0.194,3.596,0.461,5.332,0.874c0.329,0.083,0.657,0.17,0.981,0.264c-1.058-0.285-2.147-0.501-3.248-0.677
							C100.023,5.805,97.955,5.591,95.878,5.454"/>
						<line fill="none" x1="105.299" y1="6.832" x2="105.299" y2="6.832"/>
						<line fill="none" x1="110.167" y1="9.619" x2="110.167" y2="9.619"/>
						<line fill="none" x1="110.167" y1="9.619" x2="110.167" y2="9.619"/>
						<path fill="#FAC019" d="M110.167,9.619c0.059,0.101,0.103,0.204,0.139,0.308c0.023,0.065,0.021,0.067,0.043,0.136l0.014,0.063
							l0.008,0.033l0.004,0.017l0.002,0.007l0.002,0.003v0.002l0.001,0.001c-0.015-0.059-0.005-0.016-0.007-0.029l0,0l0,0
							l0.014,0.08l-0.006,0.002l-0.014-0.08l-0.021-0.099c-0.02-0.068-0.02-0.071-0.041-0.137
							C110.267,9.823,110.224,9.719,110.167,9.619"/>
						<line fill="none" x1="110.385" y1="10.24" x2="110.385" y2="10.24"/>
						<path fill="#FAC017" d="M110.167,9.619c0.059,0.101,0.103,0.204,0.139,0.308c0.023,0.065,0.021,0.067,0.043,0.136l0.014,0.063
							l0.008,0.033l0.004,0.017l0.002,0.007l0.002,0.003v0.002l0.001,0.001c-0.015-0.059-0.005-0.016-0.007-0.029l0,0l0,0
							l0.014,0.08l-0.014-0.08l0,0l0,0c0.002,0.013-0.008-0.03,0.007,0.029l-0.001-0.001v-0.002l-0.002-0.003l-0.002-0.007
							l-0.004-0.017l-0.008-0.033l-0.015-0.063c-0.021-0.069-0.021-0.071-0.043-0.136C110.269,9.823,110.225,9.719,110.167,9.619"/>
						<line fill="none" x1="110.385" y1="10.24" x2="110.385" y2="10.24"/>
						<line fill="none" x1="95.356" y1="5.426" x2="95.356" y2="5.426"/>
						<line fill="none" x1="95.356" y1="5.426" x2="95.356" y2="5.426"/>
						<path fill="#FAC019" d="M95.356,5.426l1.021,0.051l0.8,0.06c-0.433-0.031-0.865-0.059-1.298-0.083L95.356,5.426"/>
						<line fill="none" x1="96.136" y1="5.46" x2="96.136" y2="5.46"/>
						<line fill="none" x1="96.136" y1="5.46" x2="96.136" y2="5.46"/>
						<polyline fill="#FAC019" points="96.136,5.46 96.376,5.477 96.136,5.46 						"/>
						<path fill="#FAC019" d="M96.832,5.503c0.979,0.062,1.957,0.142,2.93,0.247c-0.516-0.053-1.032-0.1-1.551-0.141
							C97.751,5.57,97.291,5.535,96.832,5.503"/>
						<line fill="none" x1="97.176" y1="5.537" x2="97.176" y2="5.537"/>
						<line fill="none" x1="110.379" y1="10.241" x2="110.379" y2="10.241"/>
						<line fill="none" x1="110.379" y1="10.241" x2="110.379" y2="10.241"/>
						<path fill="#FAC017" d="M110.379,10.241c0.012,0.107,0.017,0.215,0.011,0.328C110.395,10.458,110.39,10.349,110.379,10.241"/>
						<line fill="none" x1="110.379" y1="10.241" x2="110.379" y2="10.241"/>
						<line fill="none" x1="96.136" y1="5.46" x2="96.136" y2="5.46"/>
						<line fill="none" x1="96.136" y1="5.46" x2="96.136" y2="5.46"/>
						<polyline fill="#FAC019" points="96.136,5.46 96.832,5.503 96.136,5.46 						"/>
						<path fill="#FAC019" d="M96.376,5.477l0.455,0.027c0.459,0.031,0.92,0.066,1.379,0.106l0.773,0.084
							c-0.602-0.062-1.203-0.113-1.809-0.158c0.604,0.044,1.207,0.096,1.809,0.158c-0.602-0.062-1.203-0.113-1.809-0.158
							L96.376,5.477"/>
						<polyline fill="#FAC017" points="96.136,5.46 96.832,5.503 96.376,5.477 96.136,5.46 						"/>
						<path fill="#FAC017" d="M96.832,5.503c0.459,0.031,0.92,0.066,1.379,0.106C97.751,5.57,97.291,5.535,96.832,5.503"/>
						<line fill="none" x1="98.984" y1="5.694" x2="98.984" y2="5.694"/>
						<line fill="none" x1="98.984" y1="5.694" x2="98.984" y2="5.694"/>
						<line fill="none" x1="97.176" y1="5.537" x2="97.176" y2="5.537"/>
						<path fill="#FAC017" d="M97.176,5.537c0.604,0.044,1.207,0.096,1.81,0.158C98.383,5.632,97.779,5.582,97.176,5.537"/>
						<line fill="none" x1="98.21" y1="5.61" x2="98.21" y2="5.61"/>
						<line fill="none" x1="98.21" y1="5.61" x2="98.21" y2="5.61"/>
						<line fill="none" x1="98.21" y1="5.61" x2="98.21" y2="5.61"/>
						<line fill="none" x1="98.21" y1="5.61" x2="98.21" y2="5.61"/>
						<path fill="#FAC019" d="M98.21,5.61c0.52,0.041,1.035,0.088,1.551,0.141l0.77,0.105C99.76,5.758,98.988,5.678,98.21,5.61"/>
						<line fill="none" x1="99.761" y1="5.75" x2="99.761" y2="5.75"/>
						<line fill="none" x1="99.761" y1="5.75" x2="99.761" y2="5.75"/>
						<polyline fill="#FAC017" points="99.761,5.75 100.529,5.856 99.761,5.75 						"/>
						<path fill="#FAC017" d="M98.21,5.61c0.52,0.041,1.035,0.088,1.551,0.141C99.246,5.698,98.729,5.651,98.21,5.61"/>
						<line fill="none" x1="99.761" y1="5.75" x2="99.761" y2="5.75"/>
						<line fill="none" x1="98.21" y1="5.61" x2="98.21" y2="5.61"/>
						<line fill="none" x1="98.21" y1="5.61" x2="98.21" y2="5.61"/>
						<path fill="#FAC019" d="M98.21,5.61c0.777,0.068,1.55,0.148,2.318,0.246c0.428,0.062,0.853,0.131,1.274,0.206
							c-0.849-0.137-1.702-0.25-2.562-0.344l-0.258-0.023L98.21,5.61"/>
						<line fill="none" x1="100.529" y1="5.856" x2="100.529" y2="5.856"/>
						<line fill="none" x1="101.804" y1="6.062" x2="101.804" y2="6.062"/>
						<line fill="none" x1="98.21" y1="5.61" x2="98.21" y2="5.61"/>
						<line fill="none" x1="98.21" y1="5.61" x2="98.21" y2="5.61"/>
						<path fill="#FAC017" d="M98.21,5.61c0.777,0.068,1.55,0.148,2.318,0.246C99.76,5.758,98.988,5.678,98.21,5.61"/>
						<line fill="none" x1="100.529" y1="5.856" x2="100.529" y2="5.856"/>
						<line fill="none" x1="100.529" y1="5.856" x2="100.529" y2="5.856"/>
						<path fill="#FAC017" d="M106.484,7.232c0.157,0.053,0.312,0.105,0.469,0.164C106.797,7.338,106.641,7.285,106.484,7.232"/>
						<line fill="none" x1="98.984" y1="5.694" x2="98.984" y2="5.694"/>
						<line fill="none" x1="106.953" y1="7.396" x2="106.953" y2="7.396"/>
						<line fill="none" x1="106.953" y1="7.396" x2="106.953" y2="7.396"/>
						<path fill="#FAC019" d="M106.953,7.396c0.153,0.056,0.307,0.114,0.455,0.175c0.597,0.257,1.166,0.555,1.649,0.903
							C108.449,8.042,107.716,7.689,106.953,7.396"/>
						<path fill="#FAC017" d="M106.953,7.396c0.153,0.056,0.307,0.114,0.455,0.175C107.258,7.51,107.105,7.452,106.953,7.396"/>
						<line fill="none" x1="107.408" y1="7.571" x2="107.408" y2="7.571"/>
						<path fill="#FAC017" d="M107.408,7.571c0.597,0.257,1.166,0.555,1.649,0.903C108.574,8.126,108.004,7.828,107.408,7.571"/>
						<line fill="none" x1="107.408" y1="7.571" x2="107.408" y2="7.571"/>
						<line fill="none" x1="109.056" y1="8.474" x2="109.056" y2="8.474"/>
						<line fill="none" x1="104.316" y1="6.568" x2="104.316" y2="6.568"/>
						<line fill="none" x1="104.316" y1="6.568" x2="104.316" y2="6.568"/>
						<path fill="#FAC019" d="M104.316,6.568c0.496,0.116,0.986,0.247,1.469,0.391l-0.485-0.127
							C104.974,6.738,104.646,6.65,104.316,6.568"/>
						<line fill="none" x1="98.984" y1="5.694" x2="98.984" y2="5.694"/>
						<line fill="none" x1="98.984" y1="5.694" x2="98.984" y2="5.694"/>
						<path fill="#FAC019" d="M98.984,5.694l0.26,0.023c1.715,0.194,3.42,0.456,5.072,0.85C102.58,6.155,100.789,5.889,98.984,5.694
							"/>
						<polyline fill="#FAC017" points="98.984,5.694 99.244,5.718 98.984,5.694 99.244,5.718 98.984,5.694 						"/>
						<polyline fill="#FAC017" points="98.984,5.694 99.244,5.718 98.984,5.694 						"/>
						<line fill="none" x1="104.316" y1="6.568" x2="104.316" y2="6.568"/>
						<path fill="#FAC019" d="M107.746,16.234c-1.08,0.787-2.209,1.486-3.359,2.138c1.302-0.744,2.577-1.545,3.777-2.47
							L107.746,16.234"/>
						<line fill="none" x1="104.386" y1="18.372" x2="104.386" y2="18.372"/>
						<path fill="#FAC019" d="M106.234,17.326c-1.055,0.657-2.138,1.253-3.238,1.814c1.406-0.734,2.787-1.523,4.108-2.423
							C106.818,16.927,106.527,17.129,106.234,17.326"/>
						<line fill="none" x1="102.996" y1="19.141" x2="102.996" y2="19.141"/>
						<line fill="none" x1="103.833" y1="19.009" x2="103.833" y2="19.009"/>
						<line fill="none" x1="103.833" y1="19.009" x2="103.833" y2="19.009"/>
						<path fill="#FAC019" d="M103.833,19.009c-3.25,1.815-6.416,3.18-9.127,4.222c1.555-0.619,3.097-1.271,4.621-1.972
							l-0.242,0.111C100.693,20.644,102.283,19.867,103.833,19.009"/>
						<line fill="none" x1="99.328" y1="21.259" x2="99.328" y2="21.259"/>
						<line fill="none" x1="99.328" y1="21.259" x2="99.328" y2="21.259"/>
						<line fill="none" x1="94.707" y1="23.23" x2="94.707" y2="23.23"/>
						<line fill="none" x1="103.833" y1="19.009" x2="103.833" y2="19.009"/>
						<line fill="none" x1="103.833" y1="19.009" x2="103.833" y2="19.009"/>
						<path fill="#FAC019" d="M103.833,19.009c-1.551,0.858-3.141,1.635-4.748,2.361l0.242-0.111
							C100.851,20.563,102.359,19.823,103.833,19.009"/>
						<line fill="none" x1="103.833" y1="19.009" x2="103.833" y2="19.009"/>
						<path fill="#FAC017" d="M103.833,19.009c-1.551,0.858-3.141,1.635-4.748,2.361C100.693,20.644,102.283,19.867,103.833,19.009"
							/>
						<line fill="none" x1="99.085" y1="21.37" x2="99.085" y2="21.37"/>
						<path fill="#FAC019" d="M105.341,17.904c-0.381,0.225-0.768,0.442-1.153,0.654c0.691-0.392,1.375-0.799,2.046-1.232
							C105.939,17.524,105.64,17.717,105.341,17.904"/>
						<line fill="none" x1="104.187" y1="18.559" x2="104.187" y2="18.559"/>
						<line fill="none" x1="111.677" y1="9.45" x2="111.677" y2="9.45"/>
						<path fill="#FAC019" d="M111.677,9.45c0.195,0.563,0.217,1.185,0.093,1.751C111.893,10.635,111.873,10.013,111.677,9.45"/>
						<path fill="#FEE4AC" d="M59.294,7.692l-1.291,0.259L56.205,8.35c2.846-0.522,5.699-1.002,9.076-1.522L64.24,6.969
							c3.635-0.577,6.248-0.88,9.383-1.234c-2.223,0.224-4.769,0.536-7.274,0.889C63.84,6.972,61.371,7.36,59.294,7.692
							 M64.24,6.968L64.24,6.968"/>
						<line fill="none" x1="65.281" y1="6.828" x2="65.281" y2="6.828"/>
						<line fill="none" x1="73.623" y1="5.734" x2="73.623" y2="5.734"/>
						<line fill="none" x1="79.107" y1="5.113" x2="79.107" y2="5.113"/>
						<polyline fill="#FAC019" points="79.107,5.113 80.156,5.029 79.107,5.113 						"/>
						<line fill="none" x1="65.281" y1="6.828" x2="65.281" y2="6.828"/>
						<polyline fill="#FAC019" points="65.281,6.828 66.843,6.593 65.281,6.828 						"/>
						<line fill="none" x1="77.535" y1="5.24" x2="77.535" y2="5.24"/>
						<polyline fill="#FAC019" points="77.535,5.24 79.107,5.113 77.535,5.24 						"/>
						<path fill="#FAC019" d="M111.654,10.052c0.08,0.561-0.006,1.132-0.195,1.648c-0.194,0.516-0.479,0.984-0.799,1.412
							c0.314-0.432,0.594-0.902,0.783-1.418c0.188-0.512,0.277-1.081,0.199-1.64L111.654,10.052"/>
						<path fill="#FAC019" d="M111.667,10.05c0.076,0.565-0.016,1.135-0.209,1.65c0.188-0.516,0.275-1.087,0.195-1.648
							L111.667,10.05"/>
						<line fill="none" x1="111.458" y1="11.7" x2="111.458" y2="11.7"/>
						<line fill="none" x1="111.607" y1="9.474" x2="111.607" y2="9.474"/>
						<line fill="none" x1="111.607" y1="9.474" x2="111.607" y2="9.474"/>
						<path fill="#FAC019" d="M111.607,9.474c0.151,0.458,0.19,0.959,0.124,1.429c-0.079,0.567-0.297,1.092-0.569,1.566
							c-0.271,0.476-0.604,0.906-0.961,1.307c0.441-0.505,0.844-1.057,1.135-1.681c0.293-0.618,0.465-1.335,0.361-2.05
							c-0.004-0.091-0.018-0.198-0.029-0.281C111.652,9.674,111.631,9.564,111.607,9.474"/>
						<line fill="none" x1="110.201" y1="13.776" x2="110.201" y2="13.776"/>
						<path fill="#FAC019" d="M111.613,9.472c0.149,0.458,0.188,0.961,0.118,1.431c0.066-0.47,0.027-0.971-0.124-1.429
							L111.613,9.472"/>
						<line fill="none" x1="111.731" y1="10.903" x2="111.731" y2="10.903"/>
						<line fill="none" x1="111.522" y1="9.194" x2="111.522" y2="9.194"/>
						<line fill="none" x1="111.522" y1="9.194" x2="111.522" y2="9.194"/>
						<path fill="#FAC019" d="M111.522,9.194c0.066,0.16,0.124,0.312,0.166,0.49c0.038,0.153,0.071,0.331,0.084,0.498
							c0.027,0.339,0.003,0.681-0.071,1.005c-0.146,0.651-0.449,1.236-0.809,1.759c0.402-0.602,0.739-1.284,0.839-2.044
							c0.069-0.47,0.032-0.972-0.118-1.431C111.588,9.377,111.555,9.286,111.522,9.194"/>
						<line fill="none" x1="110.892" y1="12.947" x2="110.892" y2="12.947"/>
						<line fill="none" x1="111.642" y1="10.054" x2="111.642" y2="10.054"/>
						<path fill="#FEE4AC" d="M111.642,10.054c0.078,0.559-0.012,1.128-0.199,1.64c-0.189,0.516-0.469,0.986-0.783,1.418
							c0.319-0.428,0.604-0.896,0.799-1.412c-0.258,0.714-0.693,1.371-1.201,1.971c-0.508,0.602-1.09,1.15-1.699,1.663
							c-1.223,1.021-2.554,1.889-3.805,2.626c1.324-0.813,2.617-1.684,3.807-2.691c0.51-0.434,0.999-0.893,1.448-1.394
							c0.446-0.503,0.854-1.046,1.159-1.656c0.306-0.604,0.502-1.297,0.436-1.997c-0.015-0.172-0.049-0.347-0.093-0.51
							c-0.046-0.174-0.106-0.334-0.183-0.492c-0.147-0.314-0.348-0.602-0.576-0.857C111.188,8.818,111.531,9.401,111.642,10.054"/>
						<path fill="#FAC017" d="M111.642,10.054c0.078,0.559-0.012,1.128-0.199,1.64c-0.189,0.516-0.469,0.986-0.783,1.418
							c0.314-0.432,0.594-0.902,0.783-1.418C111.631,11.182,111.721,10.613,111.642,10.054"/>
						<line fill="none" x1="110.66" y1="13.112" x2="110.66" y2="13.112"/>
						<line fill="none" x1="111.458" y1="11.7" x2="111.458" y2="11.7"/>
						<line fill="none" x1="111.458" y1="11.7" x2="111.458" y2="11.7"/>
						<path fill="#FAC019" d="M109.724,7.494c0.412,0.287,0.807,0.622,1.132,1.03c0.326,0.403,0.572,0.889,0.671,1.409
							c0.098,0.52,0.047,1.061-0.109,1.552c-0.153,0.495-0.397,0.947-0.676,1.359c-0.562,0.827-1.25,1.504-1.92,2.087
							c-0.676,0.581-1.342,1.065-1.942,1.467c0.235-0.167,0.464-0.334,0.688-0.505c1.076-0.823,2.023-1.661,2.774-2.608
							c0.374-0.474,0.694-0.979,0.913-1.525c0.218-0.545,0.322-1.143,0.23-1.728c-0.084-0.585-0.369-1.13-0.758-1.583
							c-0.388-0.454-0.869-0.829-1.393-1.149c-1.053-0.639-2.264-1.088-3.598-1.451l-0.429-0.113
							c0.638,0.174,1.363,0.397,2.116,0.69c0.751,0.296,1.533,0.663,2.236,1.155c0.697,0.487,1.324,1.129,1.604,1.888
							c0.141,0.375,0.193,0.767,0.175,1.133c-0.021,0.367-0.104,0.71-0.221,1.012c0.181-0.485,0.259-1.008,0.192-1.516
							c-0.066-0.51-0.28-0.989-0.584-1.396c-0.615-0.823-1.502-1.375-2.396-1.818c-0.904-0.439-1.85-0.767-2.805-1.037
							c-0.957-0.271-1.924-0.481-2.896-0.659c1.215,0.2,2.422,0.453,3.604,0.806C107.514,6.352,108.684,6.797,109.724,7.494"/>
						<line fill="none" x1="111.221" y1="11.615" x2="111.221" y2="11.615"/>
						<line fill="none" x1="110.488" y1="12.99" x2="110.488" y2="12.99"/>
						<line fill="none" x1="110.488" y1="12.99" x2="110.488" y2="12.99"/>
						<path fill="#FAC019" d="M110.488,12.99c-0.55,0.733-1.215,1.37-1.914,1.958c-0.703,0.585-1.449,1.118-2.215,1.619
							c0.651-0.436,1.287-0.896,1.895-1.392C109.072,14.529,109.853,13.823,110.488,12.99"/>
						<polyline fill="#FAC019" points="99.936,20.094 99.226,20.426 98.988,20.53 99.936,20.094 						"/>
						<path fill="#FAC019" d="M104.136,17.945c-0.38,0.215-0.762,0.425-1.146,0.63c-1.004,0.536-2.021,1.038-3.053,1.519
							l-0.71,0.332C100.896,19.666,102.541,18.852,104.136,17.945 M102.988,18.576c-1.002,0.536-2.021,1.038-3.052,1.519
							C100.967,19.614,101.986,19.111,102.988,18.576"/>
						<line fill="none" x1="99.226" y1="20.426" x2="99.226" y2="20.426"/>
						<line fill="none" x1="108.253" y1="15.175" x2="108.253" y2="15.175"/>
						<line fill="none" x1="108.253" y1="15.175" x2="108.253" y2="15.175"/>
						<path fill="#FAC019" d="M108.253,15.175c-0.606,0.496-1.242,0.956-1.895,1.392c-1.088,0.727-2.22,1.388-3.371,2.009
							c-1.002,0.536-2.021,1.038-3.052,1.519l-0.948,0.436l0.238-0.104c-1.518,0.673-3.055,1.3-4.605,1.892
							c1.781-0.717,3.547-1.48,5.275-2.308C102.518,18.827,105.798,17.132,108.253,15.175"/>
						<path fill="#FAC017" d="M108.253,15.175c-0.606,0.496-1.242,0.956-1.895,1.392C107.011,16.131,107.646,15.671,108.253,15.175"
							/>
						<line fill="none" x1="106.359" y1="16.567" x2="106.359" y2="16.567"/>
						<line fill="none" x1="99.936" y1="20.094" x2="99.936" y2="20.094"/>
						<line fill="none" x1="99.936" y1="20.094" x2="99.936" y2="20.094"/>
						<polyline fill="#FAC017" points="99.936,20.094 98.988,20.53 99.936,20.094 						"/>
						<line fill="none" x1="98.988" y1="20.53" x2="98.988" y2="20.53"/>
						<path fill="#FAC017" d="M102.988,18.576c-1.002,0.536-2.021,1.038-3.052,1.519C100.967,19.614,101.986,19.111,102.988,18.576"
							/>
						<line fill="none" x1="99.226" y1="20.426" x2="99.226" y2="20.426"/>
						<line fill="none" x1="102.988" y1="18.576" x2="102.988" y2="18.576"/>
						<path fill="#FAC017" d="M102.988,18.576c-1.002,0.536-2.021,1.038-3.052,1.519C100.967,19.614,101.986,19.111,102.988,18.576"
							/>
						<line fill="none" x1="98.458" y1="20.638" x2="98.458" y2="20.638"/>
						<line fill="none" x1="98.458" y1="20.638" x2="98.458" y2="20.638"/>
						<path fill="#FAC019" d="M98.458,20.638c-2.625,1.181-5.073,2.119-7.053,2.807c1.961-0.739,3.902-1.525,5.814-2.374
							l-0.704,0.347C97.167,21.167,97.815,20.906,98.458,20.638"/>
						<line fill="none" x1="41.26" y1="36.02" x2="41.26" y2="36.02"/>
						<line fill="none" x1="41.26" y1="36.02" x2="41.26" y2="36.02"/>
						<path fill="#FAC019" d="M41.26,36.02c-0.789,0.065-1.578,0.127-2.367,0.186l0.786-0.089L41.26,36.02"/>
						<path fill="#FAC017" d="M34.326,13.114c5.107-1.354,9.245-2.195,12.621-2.778c-2.559,0.606-5.109,1.256-7.645,1.955
							c-4.11,1.116-8.185,2.363-11.209,3.358c-3.025,0.992-5.009,1.705-4.994,1.582c0.005-0.033,0.174-0.135,0.531-0.309
							C27.316,15.462,31.058,14.16,34.326,13.114"/>
						<line fill="none" x1="46.947" y1="10.336" x2="46.947" y2="10.336"/>
						<path fill="#FAC019" d="M6.244,27.117c0.236-0.299,0.487-0.572,0.747-0.835c-0.329,0.354-0.567,0.661-0.774,0.954
							c-0.206,0.293-0.381,0.574-0.554,0.914c-0.169,0.342-0.35,0.74-0.471,1.307c-0.113,0.561-0.164,1.331,0.228,2.205
							c-0.038-0.066-0.087-0.16-0.133-0.275c-0.046-0.102-0.106-0.3-0.135-0.41c-0.086-0.343-0.123-0.748-0.075-1.201
							c0.051-0.45,0.191-0.926,0.397-1.377C5.681,27.945,5.95,27.518,6.244,27.117"/>
						<line fill="none" x1="14.41" y1="20.966" x2="14.41" y2="20.966"/>
						<path fill="#FDD36F" d="M14.41,20.966c1.925-0.935,4.48-2.109,7.202-3.229c0.666-0.274,1.34-0.547,2.018-0.814
							c-0.357,0.174-0.526,0.276-0.531,0.309c-0.014,0.123,1.97-0.59,4.995-1.582c3.024-0.995,7.099-2.243,11.208-3.358
							c-6.281,1.745-12.498,3.758-18.513,6.297c-2.004,0.852-3.98,1.764-5.909,2.779c-1.396,0.738-2.768,1.527-4.082,2.411
							c-1.309,0.886-2.579,1.854-3.653,3.041c-0.53,0.597-1.015,1.253-1.332,2.008c-0.157,0.377-0.266,0.779-0.297,1.193
							c-0.032,0.418,0.022,0.836,0.162,1.229c0.28,0.796,0.872,1.417,1.517,1.894c0.652,0.478,1.374,0.834,2.111,1.133
							c-0.239-0.116-0.476-0.24-0.708-0.373c-0.683-0.334-1.347-0.734-1.907-1.271c-0.559-0.526-0.999-1.231-1.087-2.019
							c-0.095-0.764,0.131-1.521,0.48-2.178c0.35-0.662,0.817-1.244,1.32-1.779c0.316-0.336,0.648-0.65,0.99-0.949
							c1.029-0.9,2.138-1.678,3.26-2.387c1.124-0.709,2.265-1.349,3.399-1.94c2.266-1.175,4.501-2.159,6.604-3
							c-3.242,1.383-6.556,2.93-9.668,4.849c-1.029,0.641-2.033,1.326-2.975,2.084c-0.936,0.763-1.826,1.598-2.508,2.59
							c-0.501,0.738-0.889,1.604-0.845,2.513c0.021,0.448,0.152,0.892,0.371,1.28c0.218,0.392,0.514,0.73,0.843,1.027
							c0.662,0.592,1.443,1.015,2.234,1.363c0.794,0.35,1.612,0.616,2.428,0.846c1.633,0.449,3.264,0.735,4.844,0.955
							c1.582,0.215,3.117,0.354,4.586,0.455c2.104,0.147,5.27,0.208,8.429,0.114c-1.492,0.042-2.985,0.062-4.479,0.047l-0.529,0.052
							c2.022,0.065,4.045,0.072,6.068,0.036l-1.582,0.041c-1.934,0.04-3.871,0.039-5.807-0.021c-1.76-0.055-3.519-0.156-5.274-0.334
							c-1.085-0.11-2.172-0.246-3.258-0.422h-0.001c-1.695-0.281-3.409-0.639-5.11-1.278c-0.846-0.327-1.695-0.722-2.475-1.308
							c-0.387-0.295-0.756-0.641-1.059-1.062c-0.15-0.212-0.284-0.441-0.388-0.688c-0.053-0.127-0.097-0.244-0.137-0.389
							c-0.023-0.074-0.034-0.129-0.047-0.186l-0.01-0.043l-0.011-0.062l-0.018-0.101l0.028,0.169l0.03,0.137
							c0.027,0.107,0.06,0.223,0.095,0.319c0.071,0.2,0.163,0.396,0.268,0.579c0.211,0.365,0.48,0.687,0.775,0.966
							c0.59,0.562,1.271,0.974,1.966,1.313c0.689,0.349,1.033,0.479,1.093,0.525c0.064,0.044-0.205-0.027-0.694-0.218
							c-0.487-0.196-1.202-0.503-1.969-1.054c-0.381-0.277-0.774-0.623-1.114-1.07c-0.169-0.225-0.324-0.473-0.446-0.746
							c-0.061-0.141-0.114-0.271-0.16-0.432l-0.035-0.121l-0.022-0.092l-0.01-0.045l-0.01-0.041L5.07,30.902L5.049,30.79
							c-0.102-0.608-0.023-1.231,0.148-1.774c0.173-0.547,0.43-1.022,0.702-1.439c0.108-0.16,0.224-0.311,0.341-0.459
							c-0.293,0.398-0.563,0.828-0.769,1.279c-0.206,0.453-0.346,0.927-0.397,1.377c-0.048,0.453-0.012,0.859,0.075,1.201
							c0.029,0.11,0.088,0.31,0.135,0.41c0.046,0.116,0.095,0.208,0.133,0.276c-0.392-0.875-0.341-1.646-0.228-2.206
							c0.121-0.566,0.301-0.964,0.471-1.307c0.172-0.34,0.347-0.621,0.554-0.914s0.445-0.6,0.774-0.955
							c0.271-0.252,0.551-0.489,0.835-0.717c0.954-0.84,1.979-1.564,3.028-2.233c-0.746,0.563,0.195-0.074,1.312-0.728
							c1.115-0.659,2.41-1.327,2.195-1.164c1.875-0.984,3.796-1.865,5.739-2.686c1.036-0.483,2.081-0.948,3.132-1.396
							c-2.226,0.823-4.486,1.757-6.152,2.493C15.413,20.583,14.331,21.102,14.41,20.966"/>
						<path fill="#FAC017" d="M23.099,17.231c-0.014,0.123,1.97-0.59,4.995-1.582c3.024-0.995,7.099-2.243,11.208-3.358
							c-4.11,1.116-8.184,2.363-11.208,3.358C25.069,16.642,23.084,17.354,23.099,17.231"/>
						<path fill="#FAC017" d="M6.991,26.282c-0.329,0.354-0.567,0.661-0.774,0.954c-0.206,0.293-0.381,0.574-0.554,0.914
							c-0.169,0.342-0.35,0.74-0.471,1.307c-0.113,0.561-0.164,1.331,0.228,2.205c-0.392-0.874-0.341-1.645-0.228-2.205
							c0.121-0.566,0.301-0.965,0.471-1.307c0.172-0.34,0.348-0.621,0.554-0.914C6.424,26.943,6.661,26.639,6.991,26.282"/>
						<line fill="none" x1="5.902" y1="27.577" x2="5.902" y2="27.577"/>
						<line fill="none" x1="6.991" y1="26.282" x2="6.991" y2="26.282"/>
						<line fill="none" x1="23.63" y1="16.923" x2="23.63" y2="16.923"/>
						<line fill="none" x1="30.458" y1="36.592" x2="30.458" y2="36.592"/>
						<line fill="none" x1="30.458" y1="36.592" x2="30.458" y2="36.592"/>
						<line fill="none" x1="34.151" y1="36.473" x2="34.151" y2="36.473"/>
						<path fill="#FAC019" d="M34.151,36.473c-1.23,0.055-2.461,0.094-3.692,0.119l-1.581,0.042
							c-1.934,0.039-3.871,0.039-5.807-0.021l-0.264,0.005c1.671,0.063,3.344,0.081,5.015,0.065
							c-1.847,0.032-3.695,0.025-5.544-0.039c2.112,0.117,4.754,0.125,7.394,0.045C31.165,36.641,32.659,36.566,34.151,36.473
							 M30.988,36.626L30.988,36.626 M28.877,36.634c-1.934,0.039-3.871,0.039-5.807-0.021
							C25.007,36.673,26.943,36.673,28.877,36.634 M28.877,36.634L28.877,36.634"/>
						<line fill="none" x1="28.877" y1="36.634" x2="28.877" y2="36.634"/>
						<path fill="#FAC017" d="M28.877,36.634c-1.934,0.039-3.871,0.039-5.807-0.021C25.007,36.673,26.943,36.673,28.877,36.634"/>
						<path fill="#FAC019" d="M6.776,26.459l0.214-0.177c-0.259,0.263-0.51,0.538-0.747,0.836
							C6.414,26.889,6.592,26.671,6.776,26.459"/>
						<line fill="none" x1="6.991" y1="26.282" x2="6.991" y2="26.282"/>
						<line fill="none" x1="29.18" y1="16.012" x2="29.18" y2="16.012"/>
						<polyline fill="#FAC019" points="29.18,16.012 29.444,15.967 29.18,16.012 						"/>
						<path opacity="0.8" fill="#FEDC91" enable-background="new    " d="M4.543,29.025c0.168-0.551,0.39-0.979,0.603-1.334
							c0.215-0.354,0.426-0.635,0.617-0.871c0.384-0.465,0.688-0.752,0.905-0.947c0.438-0.382,0.537-0.389,0.484-0.268
							C7.1,25.729,6.91,26,6.785,26.213c-0.124,0.215-0.188,0.367-0.009,0.245c-0.184,0.212-0.362,0.431-0.532,0.658
							c-0.117,0.149-0.233,0.3-0.341,0.46c-0.272,0.417-0.529,0.893-0.702,1.439c-0.172,0.543-0.25,1.166-0.148,1.774l0.021,0.112
							l0.004,0.027l0.01,0.043l0.01,0.045l0.022,0.09l0.035,0.121c0.046,0.162,0.1,0.293,0.16,0.433
							c0.123,0.272,0.277,0.522,0.446,0.747c0.339,0.447,0.733,0.792,1.114,1.07c0.767,0.551,1.482,0.856,1.969,1.054
							c0.489,0.188,0.758,0.262,0.694,0.218c-0.061-0.049-0.404-0.18-1.093-0.525c-0.695-0.342-1.375-0.754-1.966-1.313
							c-0.294-0.279-0.563-0.601-0.775-0.966c-0.105-0.185-0.196-0.379-0.268-0.58c-0.035-0.098-0.068-0.211-0.095-0.319
							l-0.03-0.136l-0.028-0.17l0.018,0.101l0.011,0.062l0.01,0.043c0.014,0.059,0.024,0.113,0.047,0.188
							c0.04,0.145,0.083,0.262,0.137,0.387c0.104,0.248,0.238,0.479,0.388,0.688c0.302,0.423,0.672,0.769,1.059,1.062
							c0.78,0.586,1.629,0.981,2.475,1.309c1.702,0.641,3.416,0.997,5.11,1.277c1.087,0.178,2.174,0.312,3.259,0.424
							c1.755,0.178,3.515,0.279,5.274,0.334l-0.264,0.005c-1.585-0.052-3.169-0.146-4.751-0.298
							c2.631,0.313,6.336,0.432,9.767,0.363c-1.847,0.032-3.696,0.025-5.544-0.039c2.111,0.117,4.754,0.125,7.393,0.045
							l-0.791,0.056c1.057,0.011,2.114,0.01,3.171-0.001c-2.025,0.072-4.051,0.105-6.079,0.084c-0.704,0.021-1.409,0.04-2.114,0.048
							c2.113,0.135,4.766,0.267,9.001,0.121c-2.777,0.103-5.229,0.112-7.943,0.044c-1.358-0.036-2.782-0.096-4.347-0.2
							c-1.565-0.108-3.27-0.256-5.186-0.534l-0.535-0.021c-0.527-0.095-1.053-0.196-1.578-0.313
							c0.912,0.237,2.363,0.504,3.785,0.692c1.422,0.19,2.814,0.317,3.607,0.413c-1.592-0.119-3.184-0.281-4.772-0.521
							c0.129,0.051,0.789,0.166,1.518,0.267c0.729,0.104,1.525,0.19,1.922,0.245c-1.965-0.186-3.084-0.396-4.281-0.633
							c-0.598-0.119-1.216-0.25-1.968-0.422c-0.751-0.176-1.638-0.383-2.764-0.736l-0.205-0.066l-0.315-0.107
							c-0.996-0.352-1.855-0.748-2.569-1.203c-0.713-0.451-1.28-0.967-1.666-1.51c-0.193-0.271-0.342-0.541-0.45-0.797
							c-0.053-0.129-0.099-0.25-0.139-0.388l-0.043-0.153l-0.009-0.031l-0.004-0.016l-0.009-0.041l-0.018-0.081
							c-0.09-0.425-0.089-0.731-0.097-0.919c0.002-0.371-0.064-0.301-0.139,0.166c-0.029,0.235-0.046,0.581,0.028,1.001
							c0.07,0.429,0.244,0.923,0.54,1.404c-0.385-0.584-0.644-1.321-0.667-2.058c-0.031-0.504,0.03-0.875,0.08-1.144
							c0.054-0.269,0.103-0.438,0.132-0.547c0.061-0.212,0.031-0.179-0.026-0.063C4.619,28.945,4.44,29.549,4.543,29.025"/>
						<path fill="#FAC017" d="M9.538,34.751c-0.061-0.048-0.404-0.178-1.093-0.524c-0.694-0.342-1.375-0.754-1.966-1.313
							c-0.294-0.28-0.563-0.601-0.774-0.966c-0.106-0.184-0.197-0.379-0.268-0.58c-0.036-0.098-0.068-0.213-0.095-0.319
							l-0.031-0.136l-0.028-0.17l0.028,0.17l0.031,0.136c0.027,0.106,0.06,0.224,0.095,0.319c0.071,0.201,0.162,0.396,0.268,0.58
							c0.211,0.365,0.48,0.687,0.774,0.966c0.591,0.56,1.271,0.973,1.966,1.313C9.134,34.573,9.477,34.703,9.538,34.751"/>
						<path fill="#FAC017" d="M5.283,30.741L5.3,30.842l0.011,0.062l0.01,0.043c0.014,0.058,0.024,0.111,0.047,0.187
							c0.04,0.144,0.083,0.261,0.137,0.388c0.104,0.246,0.237,0.478,0.388,0.688c0.302,0.423,0.671,0.768,1.059,1.062
							c0.779,0.586,1.629,0.98,2.474,1.308c1.702,0.642,3.416,0.997,5.11,1.278c-1.694-0.281-3.409-0.639-5.11-1.278
							c-0.845-0.326-1.695-0.722-2.474-1.308c-0.387-0.295-0.756-0.64-1.059-1.062c-0.151-0.211-0.284-0.441-0.388-0.688
							c-0.053-0.127-0.097-0.244-0.137-0.388c-0.023-0.073-0.034-0.129-0.047-0.187l-0.01-0.043L5.3,30.842L5.283,30.741"/>
						<path fill="#FAC017" d="M27.822,36.684c-1.847,0.032-3.695,0.025-5.544-0.039C24.126,36.709,25.975,36.716,27.822,36.684"/>
						<line fill="none" x1="22.277" y1="36.645" x2="22.277" y2="36.645"/>
						<polyline fill="#FAC017" points="22.806,36.617 23.07,36.611 22.806,36.617 						"/>
						<line fill="none" x1="5.223" y1="32.535" x2="5.223" y2="32.535"/>
						<line fill="none" x1="19.331" y1="37.068" x2="19.331" y2="37.068"/>
						<line fill="none" x1="32.859" y1="36.996" x2="32.859" y2="36.996"/>
						<line fill="none" x1="20.662" y1="37.076" x2="20.662" y2="37.076"/>
						<line fill="none" x1="10.113" y1="35.209" x2="10.113" y2="35.209"/>
						<line fill="none" x1="14.848" y1="36.284" x2="14.848" y2="36.284"/>
						<line fill="none" x1="32.051" y1="36.743" x2="32.051" y2="36.743"/>
						<line fill="none" x1="27.822" y1="36.684" x2="27.822" y2="36.684"/>
						<line fill="none" x1="22.806" y1="36.617" x2="22.806" y2="36.617"/>
						<line fill="none" x1="38.076" y1="35.949" x2="38.076" y2="35.949"/>
						<path opacity="0.8" fill="#FEDC91" enable-background="new    " d="M38.076,35.949l1.045-0.108l1.309-0.164l-1.573,0.14
							l1.573-0.14l0.258-0.075c-1.225,0.103-2.45,0.192-3.676,0.271l2.097-0.166c-1.05,0.077-2.099,0.144-3.15,0.2
							c1.313-0.086,2.625-0.186,3.935-0.301l-0.003-0.029l-1.312,0.099c-3.144,0.265-6.559,0.479-9.452,0.525
							c1.347-0.048,2.696-0.111,4.054-0.191c2.87-0.169,5.775-0.405,8.795-0.729l1.043-0.129c-3.924,0.423-8.381,0.754-11.272,0.805
							l0.847-0.044c2.712-0.151,5.013-0.313,7.322-0.515c2.309-0.203,4.625-0.442,7.359-0.812l0.435-0.06
							c-1.306,0.15-3.003,0.347-4.703,0.517c-1.7,0.171-3.402,0.315-4.712,0.405c4.19-0.327,8.111-0.758,12.021-1.279l0.521-0.079
							c5.201-0.771,9.859-1.621,14.494-2.595c-1.978,0.398-3.959,0.775-5.943,1.128c1.984-0.353,3.967-0.729,5.943-1.128
							c3.729-0.784,7.314-1.626,10.849-2.549c3.532-0.924,7.012-1.924,10.521-3.057c-1.845,0.572-3.697,1.112-5.56,1.625
							c3.515-1.104,7.517-2.41,10.708-3.646c-2.594,0.952-5.031,1.749-7.45,2.491c-2.421,0.74-4.821,1.423-7.36,2.105
							c2.539-0.684,4.939-1.365,7.36-2.105c2.419-0.742,4.857-1.539,7.45-2.491l0.979-0.379c-2.104,0.759-4.527,1.587-6.973,2.354
							c-2.443,0.771-4.904,1.482-7.064,2.057c3.037-0.851,5.568-1.56,9.052-2.738l-1.001,0.314l-1.502,0.487l1.502-0.487
							c3.24-1.076,5.961-2.053,8.648-3.125c2.879-1.287,6.203-2.883,9.334-4.793c0.521-0.317,1.034-0.648,1.539-0.991
							c-1.088,0.727-2.219,1.388-3.371,2.009c0.387-0.205,0.769-0.415,1.147-0.63c-1.595,0.906-3.239,1.72-4.909,2.48
							c-1.518,0.673-3.055,1.3-4.605,1.892c1.783-0.718,3.547-1.48,5.275-2.308c-0.477,0.214-0.955,0.423-1.438,0.628
							c-2.625,1.181-5.074,2.118-7.053,2.807c1.959-0.74,3.902-1.526,5.814-2.375c1.105-0.516,2.2-1.053,3.277-1.617l-0.512,0.134
							c-2.023,0.901-5.345,2.32-9.436,3.816l-0.734,0.269l0.274-0.002l-1.25,0.382c-0.731,0.283-1.468,0.559-2.204,0.829
							c-0.746,0.246-1.494,0.486-2.243,0.722c-1.229,0.453-2.854,0.969-4.614,1.479c-1.761,0.511-3.66,1.019-5.438,1.474
							l1.528-0.371c-0.799,0.254-1.771,0.522-2.795,0.783c-1.539,0.393-3.193,0.762-4.576,1.069
							c-1.02,0.218-2.041,0.429-3.062,0.631l-0.274,0.062l0.111-0.028l-0.113,0.022c-1.455,0.31-2.91,0.604-4.369,0.885
							l-2.321,0.408l-1.297,0.209l1.297-0.209l1.547-0.274l-1.293,0.209l2.579-0.47c-1.721,0.316-3.441,0.613-5.165,0.893
							l-1.812,0.293l0.516-0.093l-2.335,0.337c-1.641,0.24-3.284,0.465-4.929,0.669c-1.124,0.16-2.248,0.313-3.374,0.456
							c0.953-0.123,1.904-0.254,2.855-0.393l1.553-0.229c-1.728,0.24-3.459,0.46-5.191,0.657l0.256-0.062
							c-2.083,0.229-4.685,0.489-7.29,0.688l-0.258,0.021c-1.476,0.122-2.952,0.227-4.429,0.307c1.303-0.075,2.605-0.17,3.906-0.278
							l-0.263-0.036c-2.508,0.188-5.185,0.355-7.895,0.401c-0.666,0.011-1.335,0.015-2.003,0.009l0.519,0.012
							c-1.301,0.008-2.6-0.01-3.897-0.054c-2.204-0.06-4.338-0.192-6.389-0.449c0.573,0.097,1.149,0.181,1.729,0.255
							c-0.579-0.074-1.156-0.158-1.729-0.255c-1.841-0.233-3.614-0.562-5.218-1.075c-0.8-0.261-1.556-0.57-2.211-0.953
							c-0.652-0.383-1.2-0.852-1.497-1.371c-0.074-0.127-0.137-0.27-0.178-0.393c-0.009-0.033-0.017-0.04-0.03-0.099l-0.018-0.072
							l-0.009-0.035c0.002,0.009-0.005-0.024,0.003,0.019v-0.004L6.52,30.641l-0.002-0.013c-0.015-0.069-0.026-0.139-0.034-0.21
							c-0.032-0.281,0-0.577,0.077-0.874c0.158-0.597,0.501-1.185,0.899-1.713c0.808-1.063,1.806-1.935,2.742-2.685
							c-0.717,0.541-1.403,1.117-2.013,1.737c-0.606,0.62-1.146,1.29-1.486,1.991c-0.346,0.702-0.447,1.414-0.238,2.021
							c0.199,0.604,0.689,1.123,1.257,1.522c0.858,0.613,1.915,1.042,2.997,1.383c1.088,0.341,2.224,0.589,3.375,0.791
							c2.31,0.397,4.693,0.604,7.13,0.722c0.537,0.024,1.073,0.045,1.615,0.062c-1.824-0.019-3.646-0.089-5.458-0.245l0.259,0.026
							c-0.433-0.029-0.863-0.066-1.294-0.106c0.344,0.031,0.69,0.057,1.035,0.08c-2.063-0.217-3.986-0.516-5.766-0.984
							c-0.888-0.232-1.74-0.514-2.528-0.864c-0.783-0.354-1.511-0.789-2.043-1.343c-0.534-0.551-0.812-1.219-0.737-1.934
							c0.065-0.716,0.447-1.449,0.945-2.115c0.502-0.668,1.123-1.285,1.797-1.863c0.676-0.582,1.412-1.123,2.188-1.646
							c-0.352,0.248-0.698,0.503-1.036,0.766c1.75-1.31,3.666-2.429,5.625-3.458c1.963-1.027,3.983-1.957,6.029-2.827
							c1.511-0.685,3.039-1.336,4.58-1.958c-1.314,0.478-2.622,0.976-3.918,1.499c0.725-0.305,1.452-0.603,2.184-0.895
							c0.317-0.136,1.577-0.625,1.699-0.683c0.077-0.037-0.32,0.092-1.732,0.622c-0.705,0.267-1.664,0.637-2.933,1.161
							c-1.268,0.527-2.851,1.203-4.774,2.136c-1.334,0.653-2.647,1.347-3.925,2.099c2.135-1.274,4.252-2.328,6.245-3.257
							c1.994-0.926,3.87-1.721,5.572-2.418c-1.071,0.39-2.136,0.794-3.195,1.216c-3.24,1.382-6.556,2.93-9.668,4.849
							c-1.029,0.64-2.033,1.324-2.975,2.084c-0.937,0.762-1.827,1.597-2.508,2.59c-0.501,0.738-0.889,1.604-0.845,2.512
							c0.02,0.448,0.152,0.891,0.371,1.281c0.218,0.392,0.514,0.73,0.843,1.027c0.662,0.59,1.442,1.015,2.234,1.363
							c0.795,0.348,1.612,0.615,2.428,0.844c1.634,0.45,3.264,0.737,4.844,0.957c1.582,0.215,3.118,0.354,4.587,0.455
							c2.104,0.147,5.27,0.207,8.429,0.113l0.527-0.018l-1.581,0.016c0.79-0.012,1.58-0.029,2.37-0.055
							c-1.229,0.021-2.459,0.021-3.688,0.004c1.58,0.01,3.16-0.014,4.74-0.062l0.79-0.053c-1.317,0.051-2.635,0.084-3.952,0.098
							c1.492-0.021,2.985-0.065,4.476-0.133l1.051-0.089C35.447,36.107,36.762,36.036,38.076,35.949 M86.888,25.627L86.888,25.627
							 M86.888,25.627L86.888,25.627 M75.004,29.01c1.911-0.48,3.692-0.945,5.593-1.475c1.898-0.532,3.917-1.127,6.291-1.908
							c-2.374,0.781-4.393,1.376-6.291,1.908C78.697,28.064,76.916,28.529,75.004,29.01l-1.53,0.379l-1.021,0.252l1.021-0.252
							L75.004,29.01l-0.25,0.086c-1.357,0.35-2.718,0.684-4.082,1.008c1.364-0.324,2.725-0.658,4.082-1.008L75.004,29.01
							 M63.005,31.952L63.005,31.952 M63.005,31.952L63.005,31.952 M53.682,33.578c3.627-0.602,5.972-0.95,9.323-1.626
							C59.654,32.628,57.309,32.979,53.682,33.578 M59.133,32.705L59.133,32.705 M59.133,32.705L59.133,32.705 M50.566,34.07
							l-0.26,0.041c-0.867,0.125-1.735,0.246-2.603,0.361c0.868-0.115,1.736-0.236,2.603-0.361L50.566,34.07
							c3.122-0.45,5.462-0.801,8.566-1.365C56.029,33.27,53.688,33.62,50.566,34.07 M59.384,32.62L59.384,32.62 M72.212,29.758
							l-1.528,0.395L72.212,29.758 M51.347,33.971L51.347,33.971 M53.682,33.578L53.682,33.578 M50.566,34.07L50.566,34.07
							 M77.035,28.465L77.035,28.465 M70.672,30.104L70.672,30.104 M104.136,17.945L104.136,17.945 M7.669,26.92
							c0.757-0.816,1.627-1.54,2.535-2.21c0.909-0.67,1.86-1.286,2.833-1.869c-0.973,0.583-1.925,1.199-2.833,1.869
							C9.297,25.38,8.427,26.104,7.669,26.92 M7.669,26.92c0.757-0.816,1.627-1.54,2.535-2.21c0.909-0.67,1.86-1.286,2.833-1.869
							c-0.973,0.583-1.925,1.199-2.833,1.869C9.297,25.38,8.427,26.104,7.669,26.92 M7.669,26.92
							c-0.233,0.251-0.456,0.512-0.659,0.78c-0.201,0.272-0.387,0.556-0.542,0.849c-0.158,0.293-0.286,0.598-0.372,0.909
							c-0.078,0.295-0.116,0.597-0.101,0.892l0.006,0.092c0.007,0.074,0.014,0.147,0.027,0.222c0.007,0.032,0.013,0.079,0.02,0.104
							l0.028,0.121c0.036,0.131,0.087,0.276,0.148,0.41c0.134,0.282,0.316,0.547,0.535,0.784c0.215,0.24,0.466,0.455,0.732,0.649
							c0.271,0.195,0.558,0.369,0.855,0.527s0.606,0.301,0.921,0.432c0.235,0.1,0.475,0.19,0.717,0.275
							c0.322,0.114,0.65,0.217,0.98,0.312c0.331,0.097,0.665,0.184,1.001,0.264c0.335,0.08,0.671,0.154,1.01,0.223
							c0.255,0.049,0.512,0.096,0.768,0.141c0.341,0.061,0.683,0.115,1.026,0.166l0.773,0.098c-1.983-0.275-3.811-0.638-5.471-1.21
							c-0.827-0.288-1.614-0.633-2.307-1.08c-0.687-0.444-1.288-1.014-1.573-1.716c-0.021-0.053-0.038-0.104-0.057-0.154
							c-0.014-0.05-0.03-0.091-0.044-0.148l-0.031-0.127l-0.022-0.121c-0.059-0.365-0.031-0.746,0.064-1.12
							c0.024-0.089,0.048-0.177,0.08-0.265c0.102-0.307,0.248-0.604,0.415-0.893c0.095-0.159,0.195-0.316,0.303-0.471
							C7.134,27.536,7.389,27.225,7.669,26.92 M22.519,18.402c-0.422,0.169-0.852,0.348-1.283,0.529l-0.891,0.382l-0.961,0.423
							l-0.949,0.437l-1.184,0.566l-0.56,0.281c-0.506,0.255-1.011,0.518-1.511,0.788l-0.021,0.011
							c-0.307,0.166-0.611,0.335-0.914,0.506c0.303-0.171,0.607-0.34,0.914-0.506c-0.307,0.166-0.611,0.335-0.914,0.506
							c0.303-0.171,0.607-0.34,0.914-0.506l0.007-0.005c-0.31,0.168-0.614,0.336-0.921,0.511c0.368-0.209,0.774-0.433,1.189-0.652
							l0.653-0.34c0.387-0.198,0.776-0.392,1.168-0.583l0.371-0.18l1.107-0.52l0.656-0.297l0.683-0.306
							C20.919,19.075,21.749,18.723,22.519,18.402 M22.519,18.402L22.519,18.402 M91.089,23.346L91.089,23.346 M90.093,23.672
							l0.006,0.018l0.99-0.344L90.093,23.672"/>
						<path fill="#FEDC91" d="M7.669,26.92c-0.457,0.492-0.872,1.025-1.187,1.604C6.17,29.1,5.965,29.732,5.995,30.35
							c-0.015-0.295,0.023-0.597,0.101-0.892c0.086-0.312,0.214-0.615,0.372-0.909c0.155-0.293,0.341-0.574,0.542-0.849
							C7.213,27.432,7.436,27.171,7.669,26.92"/>
						<path fill="#FEDC91" d="M6.901,27.864c-0.108,0.155-0.209,0.312-0.303,0.472c-0.167,0.288-0.313,0.586-0.415,0.893
							c-0.031,0.088-0.056,0.176-0.079,0.265C6.247,28.926,6.541,28.376,6.901,27.864"/>
						<path fill="#FEDC91" d="M6.001,30.439c0.009,0.112,0.027,0.234,0.051,0.338c0.031,0.139,0.057,0.22,0.1,0.334
							c0.078,0.216,0.19,0.42,0.323,0.611c0.266,0.387,0.621,0.717,1.012,1.002c0.788,0.566,1.7,0.965,2.616,1.28
							c1.842,0.625,3.714,0.943,5.442,1.164l-0.772-0.099c-0.344-0.051-0.686-0.104-1.026-0.166
							c-0.257-0.043-0.513-0.09-0.769-0.141c-0.338-0.066-0.675-0.142-1.009-0.222c-0.336-0.081-0.67-0.167-1.001-0.265
							c-0.33-0.096-0.658-0.197-0.98-0.312c-0.242-0.085-0.481-0.177-0.717-0.274c-0.315-0.131-0.623-0.273-0.92-0.433
							c-0.298-0.157-0.585-0.333-0.855-0.526c-0.267-0.195-0.518-0.412-0.732-0.65c-0.219-0.236-0.401-0.502-0.535-0.784
							c-0.061-0.135-0.113-0.28-0.148-0.411l-0.028-0.121c-0.007-0.025-0.013-0.07-0.02-0.104
							C6.014,30.59,6.008,30.516,6.001,30.439"/>
						<path fill="#FEDC91" d="M6.039,30.611l0.022,0.121l0.031,0.127c0.014,0.06,0.029,0.101,0.043,0.149
							c0.02,0.052,0.036,0.103,0.057,0.153c-0.036-0.089-0.066-0.18-0.091-0.264l-0.039-0.154L6.039,30.611"/>
						<polyline fill="#FAC226" points="65.164,30.73 65.275,30.702 65.438,30.67 65.164,30.73 						"/>
						<line fill="none" x1="17.409" y1="34.887" x2="17.409" y2="34.887"/>
						<path fill="#FAC017" d="M17.409,34.887c-0.579-0.074-1.156-0.158-1.729-0.255C16.253,34.729,16.83,34.812,17.409,34.887"/>
						<line fill="none" x1="104.136" y1="17.945" x2="104.136" y2="17.945"/>
						<line fill="none" x1="104.136" y1="17.945" x2="104.136" y2="17.945"/>
						<path fill="#FAC017" d="M104.136,17.945c-0.38,0.215-0.762,0.425-1.146,0.63C103.375,18.371,103.756,18.161,104.136,17.945"/>
						<path fill="#FAC017" d="M99.896,20.01c-1.729,0.828-3.494,1.59-5.275,2.308C96.402,21.601,98.167,20.838,99.896,20.01"/>
						<line fill="none" x1="94.621" y1="22.318" x2="94.621" y2="22.318"/>
						<path fill="#FAC017" d="M91.406,23.445c1.961-0.739,3.902-1.525,5.814-2.374C95.308,21.92,93.367,22.706,91.406,23.445"/>
						<path fill="#FAC017" d="M7.669,26.92c-0.233,0.251-0.456,0.512-0.659,0.78c-0.201,0.272-0.387,0.556-0.542,0.849
							c-0.158,0.293-0.286,0.598-0.372,0.909c-0.078,0.295-0.116,0.597-0.101,0.892c-0.015-0.295,0.023-0.597,0.101-0.892
							c0.086-0.312,0.214-0.615,0.372-0.909c0.155-0.293,0.341-0.574,0.542-0.849C7.213,27.432,7.436,27.171,7.669,26.92"/>
						<path fill="#FAC017" d="M6.901,27.864c-0.108,0.155-0.209,0.312-0.303,0.472c-0.167,0.288-0.313,0.586-0.415,0.893
							c-0.031,0.088-0.056,0.176-0.079,0.265c0.023-0.089,0.048-0.177,0.079-0.265c0.102-0.307,0.248-0.604,0.415-0.893
							C6.692,28.177,6.793,28.02,6.901,27.864"/>
						<path fill="#FAC017" d="M6.001,30.439c0.007,0.074,0.014,0.148,0.027,0.223c0.007,0.033,0.013,0.079,0.02,0.104l0.028,0.123
							c0.036,0.131,0.087,0.276,0.148,0.41c0.134,0.282,0.316,0.547,0.535,0.784c0.215,0.24,0.466,0.455,0.732,0.649
							c0.271,0.195,0.558,0.369,0.855,0.527s0.606,0.301,0.921,0.432c0.235,0.1,0.475,0.19,0.717,0.275
							c0.322,0.114,0.65,0.217,0.98,0.312c0.331,0.097,0.665,0.184,1.001,0.264c0.335,0.08,0.671,0.154,1.01,0.223
							c0.255,0.049,0.511,0.096,0.768,0.141c0.341,0.061,0.683,0.115,1.026,0.166l0.772,0.098l-0.772-0.098
							c-0.343-0.051-0.686-0.105-1.026-0.166c-0.257-0.045-0.513-0.092-0.768-0.141c-0.338-0.067-0.675-0.143-1.01-0.223
							c-0.336-0.081-0.67-0.167-1.001-0.264c-0.33-0.096-0.658-0.198-0.98-0.312c-0.242-0.085-0.481-0.177-0.717-0.275
							c-0.315-0.131-0.623-0.272-0.921-0.432c-0.298-0.158-0.585-0.332-0.855-0.527c-0.267-0.194-0.518-0.409-0.732-0.649
							c-0.219-0.237-0.401-0.501-0.535-0.784c-0.062-0.134-0.113-0.279-0.148-0.41l-0.029-0.123c-0.007-0.023-0.013-0.07-0.02-0.104
							C6.014,30.59,6.008,30.516,6.001,30.439"/>
						<path fill="#FAC017" d="M6.039,30.611l0.022,0.121l0.031,0.127c0.014,0.06,0.029,0.101,0.043,0.149
							c0.02,0.052,0.036,0.103,0.057,0.153c-0.021-0.051-0.038-0.102-0.057-0.153c-0.014-0.051-0.029-0.091-0.043-0.149
							l-0.031-0.127L6.039,30.611"/>
						<path fill="#FAC017" d="M13.037,22.842c-0.973,0.582-1.925,1.198-2.833,1.868c-0.907,0.67-1.777,1.396-2.535,2.21
							c0.757-0.814,1.627-1.54,2.535-2.21C11.112,24.04,12.064,23.424,13.037,22.842"/>
						<path fill="#FAC017" d="M13.037,22.842c-0.973,0.582-1.925,1.198-2.833,1.868c-0.907,0.67-1.777,1.396-2.535,2.21
							c0.757-0.814,1.627-1.54,2.535-2.21C11.112,24.04,12.064,23.424,13.037,22.842"/>
						<line fill="none" x1="29.398" y1="36.457" x2="29.398" y2="36.457"/>
						<path fill="#FAC017" d="M29.398,36.457c-3.159,0.094-6.325,0.034-8.429-0.113c-1.47-0.102-3.005-0.24-4.586-0.455
							c-1.581-0.22-3.211-0.507-4.844-0.957c-0.816-0.229-1.633-0.496-2.428-0.844c-0.792-0.35-1.573-0.773-2.234-1.363
							c-0.329-0.298-0.625-0.637-0.843-1.027s-0.35-0.833-0.371-1.281c-0.044-0.907,0.344-1.773,0.845-2.512
							c-0.501,0.738-0.889,1.604-0.845,2.512c0.021,0.448,0.152,0.891,0.371,1.281c0.218,0.392,0.514,0.729,0.843,1.027
							c0.662,0.59,1.443,1.015,2.234,1.363c0.794,0.348,1.612,0.615,2.428,0.844c1.633,0.45,3.264,0.737,4.844,0.957
							c1.582,0.215,3.117,0.354,4.586,0.455C23.073,36.491,26.239,36.551,29.398,36.457"/>
						<path fill="#FAC017" d="M21.659,18.381c-3.24,1.382-6.556,2.93-9.668,4.85C15.102,21.312,18.416,19.763,21.659,18.381"/>
						<line fill="none" x1="29.926" y1="36.439" x2="29.926" y2="36.439"/>
						<line fill="none" x1="29.926" y1="36.439" x2="29.926" y2="36.439"/>
						<line fill="none" x1="30.715" y1="36.4" x2="30.715" y2="36.4"/>
						<line fill="none" x1="31.766" y1="36.342" x2="31.766" y2="36.342"/>
						<line fill="none" x1="40.43" y1="35.677" x2="40.43" y2="35.677"/>
						<line fill="none" x1="86.695" y1="25.887" x2="86.695" y2="25.887"/>
						<line fill="none" x1="33.08" y1="36.254" x2="33.08" y2="36.254"/>
						<line fill="none" x1="39.109" y1="35.705" x2="39.109" y2="35.705"/>
						<line fill="none" x1="39.893" y1="35.605" x2="39.893" y2="35.605"/>
						<line fill="none" x1="65.328" y1="31.492" x2="65.328" y2="31.492"/>
						<line fill="none" x1="91.846" y1="23.867" x2="91.846" y2="23.867"/>
						<line fill="none" x1="41.976" y1="35.277" x2="41.976" y2="35.277"/>
						<line fill="none" x1="21.659" y1="18.381" x2="21.659" y2="18.381"/>
						<line fill="none" x1="95.486" y1="22.351" x2="95.486" y2="22.351"/>
						<line fill="none" x1="47.275" y1="34.583" x2="47.275" y2="34.583"/>
						<line fill="none" x1="74.754" y1="29.096" x2="74.754" y2="29.096"/>
						<line fill="none" x1="87.838" y1="25.161" x2="87.838" y2="25.161"/>
						<line fill="none" x1="102.988" y1="18.576" x2="102.988" y2="18.576"/>
						<line fill="none" x1="16.962" y1="20.743" x2="16.962" y2="20.743"/>
						<path fill="#FEDC91" d="M19.385,19.737l0.961-0.423c-1.208,0.526-2.434,1.093-3.653,1.707l0.56-0.281l1.184-0.566
							L19.385,19.737"/>
						<polyline fill="#FEDC91" points="20.074,19.447 19.391,19.754 18.736,20.05 20.074,19.447 						"/>
						<path fill="#FEDC91" d="M17.628,20.57l-0.371,0.18c-0.392,0.191-0.781,0.385-1.168,0.583l-0.653,0.341
							C16.125,21.309,16.862,20.938,17.628,20.57"/>
						<line fill="none" x1="99.896" y1="20.01" x2="99.896" y2="20.01"/>
						<polyline fill="#FEDC91" points="15.181,21.809 15.168,21.815 15.161,21.82 15.181,21.809 						"/>
						<line fill="none" x1="10.203" y1="25.146" x2="10.203" y2="25.146"/>
						<line fill="none" x1="74.343" y1="28.559" x2="74.343" y2="28.559"/>
						<line fill="none" x1="60.018" y1="31.743" x2="60.018" y2="31.743"/>
						<line fill="none" x1="61.304" y1="31.482" x2="61.304" y2="31.482"/>
						<line fill="none" x1="25.448" y1="35.123" x2="25.448" y2="35.123"/>
						<polyline fill="#FAC019" points="28.437,16.264 27.944,16.445 28.437,16.264 						"/>
						<path fill="#FAC017" d="M26.437,16.903c6.169-2.228,12.241-3.93,18.606-5.504c-1.266,0.345-2.528,0.701-3.787,1.069
							l0.502-0.147c-0.846,0.222-1.916,0.51-3.083,0.841l-1.81,0.521c-1.857,0.543-3.797,1.145-5.419,1.667
							c-0.67,0.202-1.338,0.409-2.004,0.619l-0.002-0.005l-0.261,0.05l1.481-0.541c-0.743,0.258-1.485,0.523-2.225,0.792
							l-0.493,0.181c-2.05,0.755-4.082,1.555-6.087,2.416C23.368,18.176,24.896,17.526,26.437,16.903"/>
						<path fill="#FAC017" d="M38.677,13.161c1.167-0.331,2.236-0.619,3.083-0.841c-0.846,0.222-1.913,0.509-3.08,0.84l-1.812,0.522
							L38.677,13.161"/>
						<polyline fill="#FAC017" points="41.76,12.32 41.257,12.467 41.76,12.32 						"/>
						<polyline fill="#FAC017" points="29.18,16.012 29.441,15.962 29.444,15.967 29.18,16.012 						"/>
						<path fill="#FAC017" d="M26.437,16.903c-1.541,0.623-3.069,1.273-4.58,1.958C23.368,18.176,24.896,17.526,26.437,16.903"/>
						<path fill="#FAC017" d="M27.354,16.146c3.702-1.337,8.474-2.778,12.499-3.841c-1.631,0.512-3.891,1.215-6.288,2.021
							c-2.397,0.804-4.931,1.712-7.127,2.577c-1.314,0.478-2.622,0.977-3.918,1.499c0.725-0.305,1.452-0.603,2.184-0.895
							c0.317-0.136,1.576-0.624,1.698-0.682c0.077-0.038-0.32,0.091-1.732,0.621c-0.705,0.267-1.664,0.637-2.933,1.161
							c-1.269,0.527-2.851,1.203-4.774,2.136c-1.334,0.653-2.647,1.347-3.925,2.1c2.135-1.275,4.252-2.329,6.245-3.257
							c1.994-0.927,3.87-1.722,5.572-2.419c-1.071,0.39-2.136,0.794-3.195,1.216c0.646-0.274,1.293-0.543,1.944-0.805
							c0.769-0.314,1.682-0.672,2.702-1.048L27.354,16.146"/>
						<path fill="#FAC017" d="M24.853,17.166c-1.702,0.698-3.578,1.493-5.572,2.419c-1.992,0.929-4.109,1.982-6.245,3.257
							c2.135-1.275,4.252-2.329,6.245-3.257C21.275,18.658,23.151,17.863,24.853,17.166"/>
						<path fill="#FAC017" d="M26.402,16.825c-0.122,0.058-1.381,0.546-1.699,0.683c-0.731,0.291-1.459,0.588-2.184,0.895
							c0.725-0.306,1.452-0.604,2.184-0.895C25.02,17.371,26.28,16.883,26.402,16.825"/>
						<line fill="none" x1="14.881" y1="21.367" x2="14.881" y2="21.367"/>
						<path fill="#FBC842" d="M14.881,21.367c1.928-1.015,3.905-1.928,5.909-2.779c6.015-2.54,12.231-4.553,18.513-6.297
							c1.906-0.516,3.817-1.01,5.73-1.486l1.915-0.469c2.082-0.346,3.912-0.601,5.227-0.719c-2.387,0.557-4.764,1.15-7.13,1.782
							c-6.366,1.574-12.439,3.276-18.608,5.504c2.197-0.865,4.73-1.772,7.127-2.577c2.397-0.805,4.656-1.508,6.288-2.021
							c-4.025,1.064-8.796,2.505-12.498,3.841l-0.002,0.001l-1.047,0.381c-1.02,0.376-1.933,0.733-2.702,1.048
							c-0.651,0.262-1.298,0.531-1.944,0.805c-2.103,0.841-4.339,1.824-6.604,3c-1.135,0.59-2.276,1.23-3.4,1.939
							c-1.121,0.709-2.23,1.486-3.259,2.388c-0.341,0.299-0.676,0.615-0.99,0.949c-0.503,0.534-0.971,1.118-1.321,1.778
							c-0.348,0.657-0.574,1.416-0.479,2.179c0.088,0.786,0.528,1.491,1.087,2.019c0.56,0.535,1.224,0.938,1.907,1.27
							c0.231,0.134,0.468,0.257,0.708,0.375c-0.737-0.299-1.459-0.657-2.111-1.135C6.552,32.667,5.96,32.045,5.68,31.25
							c-0.14-0.395-0.194-0.812-0.163-1.23c0.032-0.414,0.141-0.815,0.298-1.192c0.316-0.757,0.802-1.411,1.332-2.009
							c1.074-1.187,2.344-2.154,3.653-3.041C12.113,22.894,13.484,22.104,14.881,21.367"/>
						<line fill="none" x1="39.302" y1="12.291" x2="39.302" y2="12.291"/>
						<line fill="none" x1="46.947" y1="10.336" x2="46.947" y2="10.336"/>
						<line fill="none" x1="46.947" y1="10.336" x2="46.947" y2="10.336"/>
						<path fill="#FAC017" d="M14.881,21.367c-1.396,0.737-2.768,1.527-4.082,2.41c-1.309,0.887-2.579,1.854-3.653,3.041
							c-0.53,0.598-1.015,1.254-1.332,2.009c-0.157,0.377-0.266,0.778-0.298,1.192c-0.032,0.418,0.022,0.836,0.163,1.23
							c0.28,0.795,0.872,1.417,1.517,1.893c0.652,0.478,1.374,0.836,2.111,1.135c-0.737-0.299-1.459-0.657-2.111-1.135
							c-0.645-0.476-1.237-1.098-1.517-1.893c-0.14-0.395-0.194-0.812-0.163-1.23c0.032-0.414,0.141-0.815,0.298-1.192
							c0.316-0.757,0.802-1.411,1.332-2.009c1.074-1.187,2.344-2.154,3.653-3.041C12.113,22.894,13.484,22.104,14.881,21.367"/>
						<path fill="#FAC017" d="M20.789,18.588c6.015-2.54,12.231-4.553,18.513-6.297C33.02,14.036,26.804,16.049,20.789,18.588"/>
						<path fill="#FAC017" d="M5.605,30.615c-0.095-0.762,0.131-1.521,0.479-2.178c0.35-0.66,0.817-1.244,1.321-1.779
							c0.314-0.334,0.648-0.65,0.99-0.949c1.028-0.9,2.138-1.678,3.259-2.387c1.124-0.709,2.265-1.349,3.4-1.94
							c-1.135,0.591-2.276,1.231-3.4,1.94c-1.121,0.709-2.23,1.484-3.259,2.387c-0.341,0.299-0.673,0.613-0.99,0.949
							c-0.503,0.535-0.97,1.117-1.32,1.779C5.737,29.094,5.51,29.854,5.605,30.615"/>
						<line fill="none" x1="39.302" y1="12.291" x2="39.302" y2="12.291"/>
						<line fill="none" x1="39.302" y1="12.291" x2="39.302" y2="12.291"/>
						<line fill="none" x1="8.395" y1="25.709" x2="8.395" y2="25.709"/>
						<polyline fill="#FAC017" points="27.352,16.147 27.354,16.146 26.305,16.529 27.352,16.147 						"/>
						<path fill="#FAC017" d="M39.852,12.306c-1.631,0.512-3.891,1.215-6.288,2.021c-2.397,0.804-4.931,1.712-7.127,2.577
							c2.197-0.865,4.73-1.772,7.127-2.577C35.962,13.521,38.221,12.818,39.852,12.306"/>
						<line fill="none" x1="46.947" y1="10.336" x2="46.947" y2="10.336"/>
						<line fill="none" x1="39.302" y1="12.291" x2="39.302" y2="12.291"/>
						<line fill="none" x1="39.302" y1="12.291" x2="39.302" y2="12.291"/>
						<path fill="#FAC019" d="M39.302,12.291c2.536-0.699,5.086-1.349,7.646-1.955l-1.915,0.469
							C43.119,11.281,41.208,11.775,39.302,12.291"/>
						<line fill="none" x1="46.947" y1="10.336" x2="46.947" y2="10.336"/>
						<path fill="#FAC017" d="M39.302,12.291c2.536-0.699,5.086-1.349,7.646-1.955C44.388,10.942,41.838,11.592,39.302,12.291"/>
					</g>
				</g>
			</g>
		</g>
		<path fill="#E6E6E6" d="M18.287,35.357c0.258,2.039-1.186,3.897-3.227,4.156c-2.038,0.258-3.897-1.188-4.156-3.228
			c-0.256-2.038,1.188-3.899,3.228-4.155C16.17,31.875,18.033,33.32,18.287,35.357z"/>
		<g>
			<path fill="#E6E6E6" d="M78.964,11.465c-1.062-0.042-1.896-0.938-1.854-2.004c0.039-1.066,0.938-1.898,2.004-1.857
				c1.064,0.042,1.896,0.939,1.856,2.005C80.929,10.677,80.033,11.507,78.964,11.465z"/>
			<path fill="#E6E6E6" d="M77.417,6.006c1.932-0.803,4.135,0.041,5.051,1.884l0,0c0.039,0.077,0.08,0.16,0.113,0.249l0,0
				l-0.534,0.212c-0.026-0.067-0.06-0.135-0.093-0.205l0,0c-0.782-1.574-2.666-2.295-4.314-1.61l0,0h-0.002L77.417,6.006
				L77.417,6.006z"/>
			<path fill="#E6E6E6" d="M75.544,1.499c4.312-1.792,9.238,0.087,11.291,4.211l0,0c0.086,0.177,0.173,0.362,0.25,0.555l0,0
				l-0.532,0.216c-0.071-0.177-0.147-0.347-0.235-0.516l0,0c-1.914-3.854-6.52-5.612-10.553-3.936l0,0v0.004L75.544,1.499
				L75.544,1.499z"/>
			<path fill="#E6E6E6" d="M76.701,4.285l0.002-0.002l0,0L76.701,4.285L76.701,4.285L76.701,4.285z M76.481,3.753
				c3.124-1.299,6.687,0.065,8.171,3.048l0,0c0.063,0.128,0.125,0.259,0.182,0.401l0,0l-0.532,0.215
				c-0.052-0.12-0.106-0.243-0.163-0.36l0,0c-1.35-2.714-4.594-3.953-7.436-2.773l0,0L76.481,3.753L76.481,3.753z"/>
		</g>
		<polygon fill="#E6E6E6" points="28.229,0.207 29.794,3.273 33.189,2.732 30.758,5.166 32.32,8.231 29.252,6.669 26.823,9.103 
			27.36,5.707 24.293,4.143 27.692,3.604 		"/>
		<polygon fill="#E6E6E6" points="66.088,44.893 63.373,43 63.654,39.701 66.648,38.295 69.365,40.188 69.083,43.484 		"/>
		<path fill="#E6E6E6" d="M13.288,20.453c0.009-0.175,0.035-0.237,0.188-0.384c0.155-0.125,0.293-0.18,0.523-0.184h4.467
			c0.228,0.005,0.363,0.056,0.525,0.189c0.148,0.142,0.176,0.207,0.185,0.38v3.288c-0.009,0.176-0.037,0.24-0.188,0.384
			c-0.158,0.129-0.292,0.181-0.522,0.185h-4.233c-0.007,0.018-0.013,0.035-0.02,0.053c0.056,0.098,0.11,0.197,0.156,0.298
			c0.251,0.563,0.424,1.165,0.414,1.756c0.019,0.015,0.037,0.03,0.055,0.045h3.642c0.751,0,1.443-0.254,2.003-0.737
			c0.6-0.496,0.934-1.191,0.932-1.965l0,0v-3.306c0-0.009,0-0.01,0-0.01c0.001-0.752-0.314-1.431-0.885-1.936
			c-0.562-0.509-1.275-0.771-2.054-0.77h-0.003c-0.003,0-0.009-0.001-0.021,0l-4.441-0.001c-0.005-0.001-0.01-0.001-0.018-0.001
			c-0.782-0.002-1.497,0.262-2.063,0.772c-0.568,0.502-0.884,1.183-0.883,1.933c0,0,0,0.01,0.001,0.025v1.106
			c0.114-0.038,0.233-0.067,0.352-0.082c0.016-0.005,0.03-0.011,0.045-0.016c0.056-0.022,0.11-0.043,0.167-0.062
			c0.031-0.011,0.062-0.024,0.091-0.034"/>
		<path fill="#E6E6E6" d="M101.113,20.438c0.002-0.749-0.314-1.431-0.886-1.932c-0.563-0.508-1.276-0.77-2.056-0.77c0,0,0,0-0.002,0
			s-0.008-0.001-0.022,0h-4.44c-0.004-0.001-0.01-0.001-0.016-0.001c-0.783-0.003-1.498,0.262-2.062,0.773
			c-0.567,0.5-0.887,1.181-0.885,1.931c0,0,0,0.005,0,0.014v0.23c0.336-0.254,0.744-0.407,1.228-0.407
			c0.22,0,0.455,0.045,0.687,0.121c0.346-0.419,0.871-0.701,1.578-0.701c0.35,0,0.655,0.069,0.916,0.189h3.014
			c0.229,0.005,0.365,0.057,0.527,0.189c0.145,0.139,0.172,0.203,0.182,0.382l-0.002,3.288h0.002
			c-0.012,0.176-0.039,0.242-0.188,0.383c-0.154,0.127-0.293,0.18-0.523,0.184h-4.02c-0.002,0.019,0.001,0.035-0.001,0.054
			c-0.082,0.88-0.553,1.653-1.319,1.979c0.274,0.077,0.562,0.117,0.86,0.116h4.496c0.749,0,1.442-0.253,2.001-0.736
			c0.6-0.494,0.934-1.188,0.934-1.961l0.002-0.004v-3.306C101.115,20.44,101.113,20.438,101.113,20.438z"/>
		<path fill="#E6E6E6" d="M111.458,20.438c0.002-0.75-0.314-1.43-0.885-1.931c-0.562-0.509-1.272-0.772-2.054-0.771
			c0,0-0.001,0-0.002,0c-0.003-0.001-0.009-0.001-0.022,0.001h-2.935c-0.396-0.001-0.778,0.066-1.135,0.201
			c-0.194-0.136-0.431-0.203-0.666-0.203h-0.009c-0.006,0-0.016,0-0.029,0.002c-0.273,0.001-0.564,0.065-0.793,0.275
			c-0.23,0.212-0.314,0.511-0.314,0.789v0.003c0,0.004,0,0.01,0,0.016v6.561c0,0.01,0,0.016,0,0.016
			c0,0.276,0.082,0.576,0.316,0.791c0.23,0.207,0.523,0.273,0.803,0.273c0.281,0,0.575-0.066,0.807-0.273
			c0.227-0.209,0.312-0.498,0.315-0.77l0.001-0.003v-4.962c0.01-0.175,0.035-0.239,0.186-0.382c0.156-0.128,0.297-0.182,0.521-0.187
			l2.947,0.002c0.227,0.003,0.368,0.058,0.521,0.187c0.15,0.142,0.176,0.203,0.187,0.385v4.933c0-0.006,0,0.006,0,0.018
			c-0.001,0.275,0.088,0.566,0.313,0.777c0.23,0.209,0.525,0.275,0.807,0.275h0.005c0.278,0,0.569-0.066,0.799-0.273
			c0.228-0.211,0.313-0.5,0.313-0.775l0.002-0.004v-4.955C111.458,20.44,111.458,20.438,111.458,20.438z"/>
		<path fill="#E6E6E6" d="M30.878,18.507c-0.56-0.508-1.275-0.772-2.052-0.771c0,0-0.001,0-0.004,0
			c-0.001-0.001-0.007-0.001-0.013,0h-2.942c-0.398,0-0.781,0.067-1.138,0.202c-0.192-0.135-0.425-0.203-0.661-0.203
			c-0.004,0-0.018,0-0.04,0.002c-0.276,0-0.566,0.065-0.793,0.274c-0.229,0.211-0.317,0.505-0.316,0.783c0,0-0.001,0.012,0,0.031
			v6.565v0.014c-0.001,0.275,0.085,0.572,0.317,0.783c0.23,0.207,0.523,0.273,0.803,0.273c0.281,0,0.575-0.066,0.804-0.273
			c0.229-0.213,0.316-0.506,0.315-0.783v-4.95c0.009-0.176,0.036-0.24,0.188-0.383c0.156-0.128,0.295-0.182,0.525-0.187l2.944,0.003
			c0.227,0.003,0.365,0.056,0.523,0.188c0.148,0.14,0.176,0.204,0.185,0.381v4.935c0-0.002-0.001,0.004-0.001,0.014
			c0,0.275,0.087,0.57,0.316,0.781c0.229,0.209,0.523,0.275,0.805,0.275c0.28,0,0.574-0.066,0.804-0.273
			c0.229-0.211,0.314-0.502,0.317-0.777v-4.957c0-0.008,0-0.014,0-0.014C31.764,19.688,31.448,19.008,30.878,18.507z"/>
		<g>
			<path fill="#E6E6E6" d="M79.152,32.508c0,0.309-0.099,0.58-0.291,0.814c-0.193,0.23-0.457,0.427-0.787,0.582
				c-0.332,0.156-0.719,0.271-1.162,0.352c-0.442,0.079-0.918,0.118-1.422,0.118c-0.342,0-0.658-0.017-0.951-0.05
				c-0.293-0.034-0.553-0.074-0.774-0.119c-0.226-0.048-0.413-0.098-0.562-0.148c-0.151-0.052-0.26-0.097-0.326-0.137
				c-0.065-0.039-0.112-0.097-0.141-0.17c-0.027-0.074-0.043-0.182-0.043-0.32c0-0.094,0.006-0.173,0.016-0.234
				c0.01-0.063,0.027-0.115,0.051-0.154c0.021-0.04,0.054-0.066,0.092-0.085c0.037-0.017,0.082-0.022,0.135-0.022
				c0.069,0,0.17,0.022,0.301,0.073c0.129,0.05,0.297,0.104,0.5,0.165c0.205,0.062,0.447,0.116,0.729,0.166
				c0.282,0.051,0.61,0.075,0.981,0.075c0.244,0,0.463-0.017,0.658-0.052c0.192-0.035,0.357-0.086,0.492-0.147
				c0.135-0.063,0.237-0.144,0.311-0.237c0.07-0.093,0.105-0.196,0.105-0.312c0-0.134-0.061-0.248-0.184-0.343
				c-0.121-0.096-0.281-0.18-0.477-0.256c-0.197-0.073-0.42-0.144-0.67-0.207c-0.25-0.065-0.508-0.135-0.771-0.207
				c-0.266-0.072-0.522-0.154-0.772-0.248c-0.249-0.092-0.472-0.202-0.669-0.33c-0.195-0.131-0.354-0.28-0.477-0.457
				c-0.123-0.176-0.184-0.387-0.184-0.633c0-0.279,0.086-0.527,0.264-0.74c0.176-0.213,0.412-0.391,0.709-0.531
				c0.299-0.14,0.65-0.246,1.057-0.314c0.404-0.069,0.833-0.104,1.287-0.104c0.234,0,0.469,0.01,0.703,0.031
				c0.232,0.021,0.453,0.05,0.656,0.086c0.205,0.036,0.385,0.077,0.543,0.123c0.158,0.045,0.263,0.083,0.312,0.111
				c0.051,0.031,0.086,0.058,0.104,0.078c0.019,0.021,0.033,0.049,0.047,0.084c0.013,0.035,0.021,0.08,0.025,0.131
				c0.006,0.055,0.008,0.119,0.008,0.199c0,0.086-0.004,0.161-0.012,0.223c-0.008,0.061-0.02,0.109-0.039,0.148
				c-0.017,0.039-0.041,0.068-0.076,0.088c-0.031,0.018-0.076,0.025-0.133,0.025s-0.146-0.021-0.268-0.062
				c-0.122-0.043-0.271-0.09-0.45-0.14c-0.181-0.05-0.386-0.096-0.62-0.137c-0.234-0.04-0.49-0.062-0.771-0.062
				c-0.219,0-0.41,0.018-0.573,0.049c-0.163,0.03-0.3,0.074-0.409,0.131c-0.107,0.057-0.189,0.123-0.244,0.203
				c-0.053,0.078-0.08,0.162-0.08,0.248c0,0.131,0.061,0.244,0.18,0.34c0.121,0.095,0.281,0.179,0.482,0.254
				c0.2,0.074,0.43,0.144,0.684,0.209c0.254,0.064,0.516,0.134,0.779,0.205c0.264,0.072,0.524,0.156,0.78,0.248
				c0.254,0.093,0.479,0.203,0.681,0.332c0.199,0.127,0.357,0.279,0.48,0.453C79.087,32.066,79.152,32.271,79.152,32.508z"/>
			<path fill="#E6E6E6" d="M88.904,31.247c0,0.537-0.119,0.998-0.355,1.381c-0.237,0.384-0.578,0.696-1.021,0.938
				s-0.98,0.42-1.615,0.533c-0.635,0.112-1.392,0.17-2.268,0.17h-2.361c-0.168,0-0.31-0.028-0.424-0.09
				c-0.115-0.059-0.173-0.154-0.173-0.287v-5.121c0-0.133,0.058-0.23,0.173-0.289c0.114-0.06,0.256-0.088,0.424-0.088h2.539
				c0.881,0,1.627,0.062,2.24,0.184c0.614,0.123,1.133,0.305,1.553,0.545s0.74,0.539,0.959,0.895
				C88.792,30.37,88.904,30.779,88.904,31.247z M86.824,31.287c0-0.279-0.055-0.537-0.164-0.776s-0.285-0.446-0.527-0.622
				c-0.241-0.177-0.553-0.312-0.934-0.41c-0.377-0.099-0.877-0.147-1.494-0.147h-1.016v3.995h1.047c0.551,0,1.014-0.043,1.393-0.127
				c0.376-0.084,0.689-0.213,0.943-0.385c0.252-0.17,0.439-0.383,0.564-0.639C86.761,31.923,86.824,31.626,86.824,31.287z"/>
			<path fill="#E6E6E6" d="M92.572,34.105c0,0.03-0.018,0.059-0.05,0.082c-0.034,0.022-0.089,0.043-0.165,0.059
				c-0.076,0.018-0.179,0.027-0.307,0.037c-0.126,0.009-0.29,0.014-0.489,0.014c-0.192,0-0.354-0.005-0.483-0.014
				c-0.131-0.01-0.233-0.021-0.311-0.037c-0.076-0.014-0.132-0.034-0.165-0.059c-0.032-0.023-0.05-0.052-0.05-0.082v-5.547
				c0-0.031,0.018-0.059,0.05-0.082c0.033-0.023,0.091-0.045,0.169-0.06c0.078-0.017,0.182-0.026,0.311-0.037
				c0.127-0.009,0.287-0.014,0.479-0.014c0.199,0,0.363,0.005,0.489,0.014c0.128,0.011,0.229,0.021,0.307,0.037
				c0.076,0.015,0.131,0.034,0.164,0.06c0.033,0.024,0.049,0.051,0.049,0.082L92.572,34.105L92.572,34.105z"/>
		</g>
	</g>
</g>
</svg>
