<?xml version="1.0" encoding="utf-8"?>
<!DOCTYPE svg PUBLIC "-//W3C//DTD SVG 1.1//EN" "http://www.w3.org/Graphics/SVG/1.1/DTD/svg11.dtd">
<svg version="1.1" id="Calque_1_-_copie" xmlns="http://www.w3.org/2000/svg" xmlns:xlink="http://www.w3.org/1999/xlink" x="0px"
	 y="0px" width="112.12px" height="45px" viewBox="0 0 112.12 45" enable-background="new 0 0 112.12 45" xml:space="preserve">
<g id="Calque_7_1_">
	<g>
		<path fill="#878787" d="M81.08,9.4c-0.39-0.18-0.8-0.35-1.23-0.52l-0.17,0.42c0.42,0.17,0.82,0.34,1.21,0.52L81.08,9.4z"/>
		<g>
			<path fill="#878787" d="M36.25,34.95L36.25,34.95c0.33,0.31,0.65,0.61,0.97,0.91l0.31-0.33c-0.32-0.29-0.64-0.6-0.96-0.91
				L36.25,34.95z"/>
			<path fill="#878787" d="M32.58,3.94l0.05,0.45c0.43-0.04,0.87-0.08,1.31-0.11L33.9,3.83C33.46,3.86,33.01,3.9,32.58,3.94z"/>
			<path fill="#878787" d="M34.34,33.11L34.34,33.11c0.32,0.31,0.64,0.62,0.95,0.92l0.31-0.32c-0.31-0.3-0.63-0.61-0.95-0.92
				L34.34,33.11z"/>
			<path fill="#878787" d="M28.87,27.33L28.87,27.33c0.29,0.33,0.58,0.67,0.88,1l0.34-0.3c-0.29-0.33-0.58-0.66-0.87-0.99
				L28.87,27.33z"/>
			<path fill="#878787" d="M32.46,31.23c0.31,0.32,0.62,0.63,0.94,0.95l0.32-0.32c-0.31-0.31-0.62-0.62-0.93-0.94L32.46,31.23z"/>
			<path fill="#878787" d="M39.21,3.71L39.21,3.71c-0.41,0-0.83-0.01-1.23-0.01h-0.09l0,0.45c0.03,0,0.06,0,0.09,0
				c0.4,0,0.81,0,1.23,0.01L39.21,3.71z"/>
			<path fill="#878787" d="M30.64,29.31L30.64,29.31c0.3,0.33,0.6,0.65,0.91,0.97l0.33-0.31c-0.3-0.32-0.6-0.64-0.9-0.96
				L30.64,29.31z"/>
			<path fill="#878787" d="M38.19,36.75c0.33,0.3,0.67,0.59,1,0.88l0.29-0.34c-0.33-0.28-0.66-0.57-0.99-0.87L38.19,36.75z"/>
			<path fill="#878787" d="M44.5,41.62c0.38,0.23,0.77,0.46,1.16,0.67l0.22-0.4c-0.38-0.21-0.76-0.42-1.14-0.66L44.5,41.62z"/>
			<path fill="#878787" d="M49.8,4.33c-0.44-0.04-0.88-0.08-1.32-0.11l-0.04,0.45c0.44,0.04,0.88,0.07,1.32,0.11L49.8,4.33z"/>
			<path fill="#878787" d="M46.85,42.9c0.41,0.19,0.82,0.37,1.23,0.53L48.24,43c-0.4-0.16-0.8-0.33-1.2-0.52L46.85,42.9z"/>
			<path fill="#878787" d="M40.2,38.5c0.35,0.28,0.69,0.56,1.03,0.83l0.28-0.35c-0.34-0.27-0.68-0.54-1.02-0.83L40.2,38.5z"/>
			<path fill="#878787" d="M43.19,3.85L43.17,4.3c0.44,0.02,0.88,0.05,1.32,0.08l0.03-0.45C44.07,3.9,43.63,3.88,43.19,3.85z"/>
			<path fill="#878787" d="M40.53,4.19c0.44,0.01,0.88,0.03,1.32,0.05l0.02-0.45c-0.44-0.02-0.89-0.04-1.32-0.05L40.53,4.19z"/>
			<path fill="#878787" d="M36.57,4.17l-0.01-0.45c-0.45,0.01-0.89,0.02-1.33,0.04l0.02,0.45C35.68,4.19,36.12,4.17,36.57,4.17z"/>
			<path fill="#878787" d="M47.16,4.12L47.16,4.12c-0.44-0.04-0.88-0.07-1.32-0.1l-0.03,0.45c0.44,0.03,0.88,0.06,1.32,0.1
				L47.16,4.12z"/>
			<path fill="#878787" d="M21.89,8.78c0.03-0.04,0.07-0.08,0.1-0.13l-0.35-0.29v0c-0.04,0.05-0.07,0.09-0.11,0.14
				c-0.29,0.37-0.52,0.77-0.69,1.2l0.42,0.17C21.42,9.48,21.63,9.11,21.89,8.78z"/>
			<path fill="#878787" d="M26.23,5.78l-0.16-0.42l0,0c-0.43,0.17-0.84,0.35-1.23,0.54l0.2,0.4C25.42,6.11,25.82,5.94,26.23,5.78z"
				/>
			<path fill="#878787" d="M87.42,14.02c-0.23-0.32-0.5-0.63-0.79-0.94l-0.33,0.31c0.29,0.31,0.55,0.61,0.78,0.92
				C87.18,14.21,87.3,14.11,87.42,14.02z"/>
			<path fill="#878787" d="M85.64,12.17c-0.33-0.28-0.69-0.55-1.07-0.81l-0.26,0.37c0.37,0.26,0.72,0.52,1.04,0.79L85.64,12.17z"/>
			<path fill="#878787" d="M49.33,43.87L49.33,43.87c0.43,0.13,0.85,0.25,1.29,0.36l0.1-0.44c-0.42-0.1-0.84-0.22-1.26-0.35
				L49.33,43.87z"/>
			<path fill="#878787" d="M20.92,11.82c0-0.25,0.01-0.5,0.04-0.73l-0.45-0.05l0,0c-0.03,0.26-0.05,0.52-0.05,0.79
				c0,0.19,0.01,0.38,0.02,0.58l0.45-0.03C20.93,12.18,20.92,12,20.92,11.82z"/>
			<path fill="#878787" d="M23.67,6.57c-0.38,0.25-0.74,0.52-1.08,0.82l0.3,0.34c0.32-0.28,0.66-0.54,1.03-0.78L23.67,6.57
				L23.67,6.57z"/>
			<path fill="#878787" d="M27.17,25.29c0.27,0.34,0.56,0.69,0.84,1.03l0.35-0.29c-0.28-0.34-0.56-0.68-0.83-1.02L27.17,25.29z"/>
			<path fill="#878787" d="M20.69,13.74c0.09,0.42,0.21,0.86,0.35,1.3l0.43-0.14c-0.14-0.43-0.26-0.85-0.34-1.25L20.69,13.74z"/>
			<path fill="#878787" d="M21.51,16.29c0.17,0.4,0.35,0.81,0.55,1.22l0.41-0.2c-0.2-0.4-0.38-0.8-0.54-1.19L21.51,16.29z"/>
			<path fill="#878787" d="M42.29,40.13L42.29,40.13c0.36,0.27,0.73,0.52,1.09,0.77l0.25-0.38c-0.36-0.24-0.72-0.49-1.07-0.76
				L42.29,40.13z"/>
			<path fill="#878787" d="M78.15,33.75l0.29,0.34v0c0.34-0.29,0.67-0.58,1-0.88l-0.3-0.33C78.82,33.17,78.49,33.46,78.15,33.75z"/>
			<path fill="#878787" d="M77.14,34.6c-0.34,0.27-0.68,0.55-1.03,0.82l0.28,0.36c0.35-0.27,0.7-0.55,1.04-0.83L77.14,34.6z"/>
			<path fill="#878787" d="M73.99,36.98l0.26,0.37c0.37-0.26,0.73-0.52,1.08-0.78l-0.27-0.36C74.71,36.47,74.35,36.73,73.99,36.98z"
				/>
			<path fill="#878787" d="M72.11,7.11c0.44,0.09,0.87,0.18,1.29,0.27l0.1-0.44c-0.43-0.09-0.86-0.19-1.3-0.28L72.11,7.11z"/>
			<path fill="#878787" d="M71.79,38.44l0.24,0.38c0.38-0.24,0.75-0.48,1.12-0.72l-0.25-0.38C72.53,37.97,72.16,38.21,71.79,38.44z"
				/>
			<path fill="#878787" d="M74.68,7.69c0.44,0.11,0.86,0.22,1.27,0.34l0.12-0.43c-0.42-0.12-0.85-0.23-1.28-0.35L74.68,7.69z"/>
			<path fill="#878787" d="M82.07,10.38c0.4,0.21,0.78,0.42,1.15,0.64l0.23-0.39c-0.37-0.22-0.76-0.44-1.17-0.65L82.07,10.38z"/>
			<path fill="#878787" d="M55.08,4.82L55.08,4.82c-0.44-0.04-0.88-0.08-1.32-0.12l-0.04,0.45c0.44,0.04,0.88,0.08,1.32,0.12
				L55.08,4.82z"/>
			<path fill="#878787" d="M57.23,44.18l0.05,0.45c0.44-0.05,0.88-0.11,1.33-0.19L58.52,44C58.08,44.08,57.65,44.14,57.23,44.18z"/>
			<path fill="#878787" d="M57.71,5.06c-0.44-0.04-0.88-0.08-1.32-0.12l-0.04,0.45c0.44,0.04,0.88,0.08,1.32,0.12L57.71,5.06z"/>
			<path fill="#878787" d="M60.35,5.28c-0.44-0.04-0.88-0.07-1.32-0.11l-0.04,0.45c0.44,0.04,0.88,0.08,1.32,0.11L60.35,5.28z"/>
			<path fill="#878787" d="M69.53,39.79l0.22,0.39l0,0c0.38-0.22,0.77-0.44,1.15-0.67l-0.23-0.39
				C70.29,39.36,69.91,39.58,69.53,39.79z"/>
			<path fill="#878787" d="M51.94,44.49c0.44,0.07,0.88,0.13,1.33,0.17l0.04-0.45c-0.44-0.04-0.87-0.09-1.29-0.16L51.94,44.49z"/>
			<path fill="#878787" d="M52.44,4.57C52,4.53,51.56,4.49,51.12,4.45L51.08,4.9c0.44,0.04,0.88,0.08,1.32,0.12L52.44,4.57z"/>
			<path fill="#878787" d="M59.81,43.74l0.1,0.44v0c0.43-0.1,0.86-0.21,1.29-0.33l-0.12-0.43C60.65,43.54,60.23,43.65,59.81,43.74z"
				/>
			<path fill="#878787" d="M55.09,44.29c-0.16,0-0.32,0-0.48-0.01l-0.01,0.45c0.16,0,0.33,0,0.49,0c0.28,0,0.56,0,0.85-0.02
				l-0.02-0.45C55.64,44.29,55.36,44.29,55.09,44.29z"/>
			<path fill="#878787" d="M68.27,6.01c-0.43-0.06-0.87-0.11-1.32-0.17L66.9,6.29c0.44,0.05,0.88,0.11,1.31,0.17L68.27,6.01z"/>
			<path fill="#878787" d="M67.2,41.02l0.2,0.4c0.4-0.19,0.79-0.4,1.19-0.6l-0.21-0.4C67.98,40.63,67.59,40.83,67.2,41.02z"/>
			<path fill="#878787" d="M62.95,5.92l0.03-0.45c-0.11-0.01-0.21-0.01-0.32-0.02c-0.33-0.02-0.66-0.05-1-0.07l-0.03,0.45
				c0.34,0.02,0.67,0.05,1,0.07C62.74,5.91,62.85,5.92,62.95,5.92z"/>
			<path fill="#878787" d="M70.89,6.42c-0.43-0.08-0.87-0.15-1.31-0.22l-0.07,0.45c0.44,0.07,0.88,0.14,1.3,0.22L70.89,6.42z"/>
			<path fill="#878787" d="M64.8,42.11l0.17,0.42l0,0c0.41-0.17,0.81-0.35,1.22-0.53l-0.19-0.41C65.6,41.77,65.2,41.94,64.8,42.11z"
				/>
			<path fill="#878787" d="M62.33,43.03l0.14,0.43c0.42-0.14,0.84-0.29,1.26-0.44l-0.16-0.42C63.16,42.75,62.75,42.9,62.33,43.03z"
				/>
			<path fill="#878787" d="M65.63,5.7c-0.44-0.04-0.88-0.08-1.32-0.12l-0.04,0.45c0.45,0.04,0.88,0.08,1.31,0.12L65.63,5.7z"/>
			<polygon fill="#878787" points="68.27,6.01 68.27,6.01 68.27,6.01 			"/>
		</g>
		<g>
			<g>
				<g>
					<g opacity="0.8">
						<line fill="none" x1="52.4" y1="9.36" x2="52.4" y2="9.36"/>
						<path fill="#FEDC91" d="M52.4,9.36c1.06-0.09,1.85-0.11,2.4-0.07l1.82-0.27c-1.29,0.23-2.58,0.47-3.86,0.72
							c-3.47,0.7-7.37,1.59-11.08,2.55c-3.71,0.95-7.24,1.97-10,2.8c1.62-0.52,3.56-1.12,5.42-1.67l1.81-0.52
							c1.17-0.33,2.23-0.62,3.08-0.84l-0.5,0.15c1.26-0.37,2.52-0.72,3.79-1.07c1.27-0.31,2.55-0.62,3.83-0.91
							c-1.28,0.29-2.56,0.6-3.83,0.91C47.64,10.51,50.02,9.92,52.4,9.36"/>
						<line fill="none" x1="45.28" y1="11.14" x2="45.28" y2="11.14"/>
						<line fill="none" x1="31.68" y1="15.09" x2="31.68" y2="15.09"/>
						<line fill="none" x1="56.62" y1="9.02" x2="56.62" y2="9.02"/>
						<path fill="#FEDC91" d="M65.67,30.41l-0.16,0.03l0.9-0.23c3.57-0.83,7.13-1.74,10.4-2.69c3.98-1.14,8.12-2.42,12.36-3.92
							c0.85-0.3,1.7-0.61,2.56-0.93c-1.7,0.67-3.41,1.31-5.14,1.92l-0.51,0.17c-3.69,1.21-7.07,2.22-10.38,3.15
							C72.37,28.83,69.12,29.65,65.67,30.41"/>
						<line fill="none" x1="86.58" y1="24.6" x2="86.58" y2="24.6"/>
						<line fill="none" x1="91.14" y1="22.6" x2="91.14" y2="22.6"/>
						<path fill="#FAC019" d="M91.14,22.6c3.88-1.5,7.97-3.23,11.77-5.37l0.03,0.05c-2.11,1.18-4.44,2.32-6.87,3.35
							c-0.67,0.28-1.34,0.56-2.02,0.83l0.49-0.18C93.41,21.73,92.28,22.17,91.14,22.6"/>
						<path fill="#FAC019" d="M99.77,19.01c1.16-0.57,2.3-1.18,3.42-1.82l0.45-0.24C102.39,17.69,101.09,18.37,99.77,19.01"/>
						<polyline fill="#FAC019" points="64.85,31.71 63.82,31.91 65.11,31.65 64.85,31.71 						"/>
						<line fill="none" x1="63.82" y1="31.91" x2="63.82" y2="31.91"/>
						<line fill="none" x1="103.52" y1="19.42" x2="103.52" y2="19.42"/>
						<path fill="#FAC019" d="M103.52,19.42c-0.55,0.29-1.11,0.57-1.67,0.84C102.41,19.98,102.96,19.7,103.52,19.42"/>
						<polyline fill="#FAC019" points="101.85,20.25 101.61,20.37 101.85,20.25 						"/>
						<line fill="none" x1="102.29" y1="5.82" x2="102.29" y2="5.82"/>
						<path fill="#FAC019" d="M102.29,5.82c0.42,0.08,0.84,0.16,1.26,0.25C103.14,5.98,102.72,5.9,102.29,5.82"/>
						<line fill="none" x1="110.09" y1="14.69" x2="110.09" y2="14.69"/>
						<path fill="#FAC019" d="M110.09,14.69c-0.14,0.13-0.27,0.25-0.41,0.37C109.82,14.95,109.95,14.82,110.09,14.69"/>
						<path fill="#FAC019" d="M15.91,34.37c-0.95-0.16-1.89-0.34-2.81-0.57C14.02,34.03,14.96,34.22,15.91,34.37"/>
						<line fill="none" x1="63.82" y1="31.91" x2="63.82" y2="31.91"/>
						<polyline fill="#FAC019" points="63.82,31.91 61.74,32.28 63.82,31.91 						"/>
						<line fill="none" x1="105.52" y1="6.62" x2="105.52" y2="6.62"/>
						<line fill="none" x1="105.52" y1="6.62" x2="105.52" y2="6.62"/>
						<path fill="#FAC019" d="M105.52,6.62c0.57,0.16,1.12,0.33,1.66,0.53c-0.46-0.17-0.94-0.32-1.42-0.46L105.52,6.62"/>
						<path fill="#FAC019" d="M99.99,5.49c0.77,0.09,1.54,0.2,2.3,0.33c-0.51-0.08-1.02-0.16-1.53-0.23L99.99,5.49"/>
						<line fill="none" x1="102.29" y1="5.82" x2="102.29" y2="5.82"/>
						<path fill="#FAC019" d="M109.76,12.33c0.51-0.67,0.85-1.41,0.86-2.02c0.01-0.11,0-0.22-0.01-0.33
							c0.01,0.11,0.02,0.22,0.01,0.33c0.01-0.11,0-0.22-0.01-0.33l0.01,0c0.06,0.35,0,0.73-0.15,1.13
							C110.31,11.52,110.06,11.94,109.76,12.33"/>
						<line fill="none" x1="102.28" y1="5.9" x2="102.28" y2="5.9"/>
						<line fill="none" x1="102.28" y1="5.9" x2="102.28" y2="5.9"/>
						<path fill="#FAC019" d="M102.28,5.9c1.1,0.19,2.18,0.42,3.24,0.72c0.57,0.16,1.12,0.33,1.66,0.53
							c-0.46-0.17-0.94-0.32-1.42-0.46c0.78,0.23,1.56,0.5,2.3,0.85c0.73,0.34,1.43,0.77,1.91,1.28c0.24,0.25,0.42,0.52,0.52,0.79
							c0.01,0.03,0.02,0.07,0.03,0.1c0.01,0.03,0.01,0.05,0.02,0.07l0.02,0.08l0.01,0.04l0,0.02v0c0-0.01,0.01,0.03,0-0.03l0,0
							l0,0.01c0,0.04,0.01,0.07,0.01,0.1c0.01,0.14,0.01,0.29-0.01,0.44c-0.07,0.61-0.48,1.33-1.03,1.99
							c-0.09,0.12-0.18,0.25-0.28,0.38c0.53-0.58,0.97-1.21,1.19-1.82c0.11-0.3,0.16-0.59,0.14-0.86c0-0.07-0.01-0.13-0.02-0.2
							l0-0.02l0-0.01v0c0.01,0.06,0,0.02,0.01,0.03v0v0l0-0.01l-0.02-0.08c-0.01-0.07-0.02-0.08-0.03-0.1
							c-0.03-0.11-0.09-0.25-0.16-0.37c0.04,0.07,0.08,0.15,0.11,0.23c0.02,0.04,0.03,0.08,0.04,0.11c0.01,0.04,0.02,0.04,0.03,0.1
							l0.02,0.1l0.01,0.02v0.01v0c0-0.01,0.01,0.03-0.01-0.03v0l0,0v0l0,0.01l0,0.03c0.01,0.04,0.02,0.08,0.02,0.12
							c0.01,0.08,0.01,0.16,0.01,0.25c0.01-0.11,0-0.22-0.01-0.33L110.6,9.9l-0.02-0.1c-0.02-0.07-0.02-0.07-0.04-0.14
							c-0.03-0.1-0.08-0.21-0.13-0.31c0.06,0.1,0.1,0.2,0.14,0.31c0.02,0.07,0.02,0.07,0.04,0.14l0.01,0.06l0.01,0.03l0,0.02l0,0.01
							v0l0,0v0c-0.01-0.06,0-0.02-0.01-0.03l0,0v0l0.01,0.08L110.6,9.9l-0.02-0.08l-0.01-0.04l-0.01-0.02
							c-0.01-0.04-0.03-0.11-0.06-0.17c-0.05-0.13-0.11-0.26-0.2-0.39c-0.16-0.26-0.39-0.5-0.67-0.73
							c-0.55-0.46-1.26-0.84-2.01-1.15c0.6,0.26,1.16,0.56,1.65,0.9c-0.61-0.43-1.34-0.78-2.11-1.08c0.15,0.06,0.31,0.11,0.46,0.18
							c-0.67-0.29-1.38-0.53-2.11-0.74C104.47,6.29,103.38,6.07,102.28,5.9 M107.18,7.14c-0.16-0.06-0.31-0.11-0.47-0.16
							C106.87,7.03,107.03,7.08,107.18,7.14 M110.4,9.36L110.4,9.36"/>
						<line fill="none" x1="105.76" y1="6.69" x2="105.76" y2="6.69"/>
						<path fill="#FAC017" d="M105.76,6.69c0.48,0.14,0.96,0.29,1.42,0.46C106.72,6.98,106.24,6.82,105.76,6.69"/>
						<line fill="none" x1="107.18" y1="7.15" x2="107.18" y2="7.15"/>
						<line fill="none" x1="110.62" y1="9.98" x2="110.62" y2="9.98"/>
						<path fill="#FAC017" d="M110.61,9.98c0.01,0.11,0.02,0.22,0.01,0.33C110.63,10.2,110.62,10.09,110.61,9.98"/>
						<line fill="none" x1="96.11" y1="5.19" x2="96.11" y2="5.19"/>
						<line fill="none" x1="96.11" y1="5.19" x2="96.11" y2="5.19"/>
						<path fill="#FAC019" d="M96.11,5.19c0.43,0.02,0.87,0.05,1.3,0.08c0.6,0.04,1.21,0.1,1.81,0.16c1.8,0.19,3.6,0.46,5.33,0.87
							c0.33,0.08,0.66,0.17,0.98,0.26c-1.06-0.29-2.15-0.5-3.25-0.68C100.26,5.55,98.19,5.33,96.11,5.19"/>
						<line fill="none" x1="105.53" y1="6.57" x2="105.53" y2="6.57"/>
						<line fill="none" x1="110.4" y1="9.36" x2="110.4" y2="9.36"/>
						<line fill="none" x1="110.4" y1="9.36" x2="110.4" y2="9.36"/>
						<path fill="#FAC019" d="M110.4,9.36c0.06,0.1,0.1,0.2,0.14,0.31c0.02,0.06,0.02,0.07,0.04,0.14l0.01,0.06l0.01,0.03l0,0.02
							l0,0.01l0,0v0l0,0c-0.01-0.06,0-0.02-0.01-0.03l0,0l0,0l0.01,0.08l-0.01,0L110.6,9.9l-0.02-0.1
							c-0.02-0.07-0.02-0.07-0.04-0.14C110.5,9.56,110.46,9.46,110.4,9.36"/>
						<line fill="none" x1="110.62" y1="9.98" x2="110.62" y2="9.98"/>
						<path fill="#FAC017" d="M110.4,9.36c0.06,0.1,0.1,0.2,0.14,0.31c0.02,0.06,0.02,0.07,0.04,0.14l0.01,0.06l0.01,0.03l0,0.02
							l0,0.01l0,0v0l0,0c-0.01-0.06,0-0.02-0.01-0.03l0,0l0,0l0.01,0.08L110.6,9.9l0,0l0,0c0,0.01-0.01-0.03,0.01,0.03l0,0v0l0,0
							l0-0.01l0-0.02l-0.01-0.03l-0.01-0.06c-0.02-0.07-0.02-0.07-0.04-0.14C110.5,9.56,110.46,9.46,110.4,9.36"/>
						<line fill="none" x1="110.62" y1="9.98" x2="110.62" y2="9.98"/>
						<line fill="none" x1="95.59" y1="5.17" x2="95.59" y2="5.17"/>
						<line fill="none" x1="95.59" y1="5.17" x2="95.59" y2="5.17"/>
						<path fill="#FAC019" d="M95.59,5.17l1.02,0.05l0.8,0.06c-0.43-0.03-0.87-0.06-1.3-0.08L95.59,5.17"/>
						<line fill="none" x1="96.37" y1="5.2" x2="96.37" y2="5.2"/>
						<line fill="none" x1="96.37" y1="5.2" x2="96.37" y2="5.2"/>
						<polyline fill="#FAC019" points="96.37,5.2 96.61,5.22 96.37,5.2 						"/>
						<path fill="#FAC019" d="M97.06,5.25c0.98,0.06,1.96,0.14,2.93,0.25c-0.51-0.05-1.03-0.1-1.55-0.14
							C97.98,5.31,97.52,5.28,97.06,5.25"/>
						<line fill="none" x1="97.41" y1="5.28" x2="97.41" y2="5.28"/>
						<line fill="none" x1="110.61" y1="9.98" x2="110.61" y2="9.98"/>
						<line fill="none" x1="110.61" y1="9.98" x2="110.61" y2="9.98"/>
						<path fill="#FAC017" d="M110.61,9.98c0.01,0.11,0.02,0.22,0.01,0.33C110.63,10.2,110.62,10.09,110.61,9.98"/>
						<line fill="none" x1="110.61" y1="9.98" x2="110.61" y2="9.98"/>
						<line fill="none" x1="96.37" y1="5.2" x2="96.37" y2="5.2"/>
						<line fill="none" x1="96.37" y1="5.2" x2="96.37" y2="5.2"/>
						<polyline fill="#FAC019" points="96.37,5.2 97.06,5.25 96.37,5.2 						"/>
						<path fill="#FAC019" d="M96.61,5.22l0.45,0.03c0.46,0.03,0.92,0.07,1.38,0.11l0.77,0.08c-0.6-0.06-1.21-0.11-1.81-0.16
							c0.6,0.04,1.21,0.1,1.81,0.16c-0.6-0.06-1.21-0.11-1.81-0.16L96.61,5.22"/>
						<polyline fill="#FAC017" points="96.37,5.2 97.06,5.25 96.61,5.22 96.37,5.2 						"/>
						<path fill="#FAC017" d="M97.06,5.25c0.46,0.03,0.92,0.07,1.38,0.11C97.98,5.31,97.52,5.28,97.06,5.25"/>
						<line fill="none" x1="99.22" y1="5.44" x2="99.22" y2="5.44"/>
						<line fill="none" x1="99.22" y1="5.44" x2="99.22" y2="5.44"/>
						<line fill="none" x1="97.41" y1="5.28" x2="97.41" y2="5.28"/>
						<path fill="#FAC017" d="M97.41,5.28c0.6,0.04,1.21,0.1,1.81,0.16C98.61,5.37,98.01,5.32,97.41,5.28"/>
						<line fill="none" x1="98.44" y1="5.35" x2="98.44" y2="5.35"/>
						<line fill="none" x1="98.44" y1="5.35" x2="98.44" y2="5.35"/>
						<line fill="none" x1="98.44" y1="5.35" x2="98.44" y2="5.35"/>
						<line fill="none" x1="98.44" y1="5.35" x2="98.44" y2="5.35"/>
						<path fill="#FAC019" d="M98.44,5.35c0.52,0.04,1.04,0.09,1.55,0.14l0.77,0.1C99.99,5.5,99.22,5.42,98.44,5.35"/>
						<line fill="none" x1="99.99" y1="5.49" x2="99.99" y2="5.49"/>
						<line fill="none" x1="99.99" y1="5.49" x2="99.99" y2="5.49"/>
						<polyline fill="#FAC017" points="99.99,5.49 100.76,5.6 99.99,5.49 						"/>
						<path fill="#FAC017" d="M98.44,5.35c0.52,0.04,1.04,0.09,1.55,0.14C99.48,5.44,98.96,5.39,98.44,5.35"/>
						<line fill="none" x1="99.99" y1="5.49" x2="99.99" y2="5.49"/>
						<line fill="none" x1="98.44" y1="5.35" x2="98.44" y2="5.35"/>
						<line fill="none" x1="98.44" y1="5.35" x2="98.44" y2="5.35"/>
						<path fill="#FAC019" d="M98.44,5.35c0.78,0.07,1.55,0.15,2.32,0.25c0.43,0.06,0.85,0.13,1.27,0.21
							c-0.85-0.14-1.7-0.25-2.56-0.34l-0.26-0.02L98.44,5.35"/>
						<line fill="none" x1="100.76" y1="5.6" x2="100.76" y2="5.6"/>
						<line fill="none" x1="102.03" y1="5.8" x2="102.03" y2="5.8"/>
						<line fill="none" x1="98.44" y1="5.35" x2="98.44" y2="5.35"/>
						<line fill="none" x1="98.44" y1="5.35" x2="98.44" y2="5.35"/>
						<path fill="#FAC017" d="M98.44,5.35c0.78,0.07,1.55,0.15,2.32,0.25C99.99,5.5,99.22,5.42,98.44,5.35"/>
						<line fill="none" x1="100.76" y1="5.6" x2="100.76" y2="5.6"/>
						<line fill="none" x1="100.76" y1="5.6" x2="100.76" y2="5.6"/>
						<path fill="#FAC017" d="M106.71,6.97c0.16,0.05,0.31,0.1,0.47,0.16C107.03,7.08,106.87,7.03,106.71,6.97"/>
						<line fill="none" x1="99.22" y1="5.44" x2="99.22" y2="5.44"/>
						<line fill="none" x1="107.18" y1="7.14" x2="107.18" y2="7.14"/>
						<line fill="none" x1="107.18" y1="7.14" x2="107.18" y2="7.14"/>
						<path fill="#FAC019" d="M107.18,7.14c0.15,0.06,0.31,0.11,0.46,0.17c0.6,0.26,1.16,0.56,1.65,0.9
							C108.68,7.78,107.95,7.43,107.18,7.14"/>
						<path fill="#FAC017" d="M107.18,7.14c0.15,0.06,0.31,0.11,0.46,0.17C107.49,7.25,107.34,7.19,107.18,7.14"/>
						<line fill="none" x1="107.64" y1="7.31" x2="107.64" y2="7.31"/>
						<path fill="#FAC017" d="M107.64,7.31c0.6,0.26,1.16,0.56,1.65,0.9C108.8,7.87,108.23,7.57,107.64,7.31"/>
						<line fill="none" x1="107.64" y1="7.31" x2="107.64" y2="7.31"/>
						<line fill="none" x1="109.29" y1="8.22" x2="109.29" y2="8.22"/>
						<line fill="none" x1="104.55" y1="6.31" x2="104.55" y2="6.31"/>
						<line fill="none" x1="104.55" y1="6.31" x2="104.55" y2="6.31"/>
						<path fill="#FAC019" d="M104.55,6.31c0.5,0.12,0.99,0.25,1.47,0.39l-0.48-0.13C105.21,6.48,104.88,6.39,104.55,6.31"/>
						<line fill="none" x1="99.22" y1="5.44" x2="99.22" y2="5.44"/>
						<line fill="none" x1="99.22" y1="5.44" x2="99.22" y2="5.44"/>
						<path fill="#FAC019" d="M99.22,5.44l0.26,0.02c1.71,0.19,3.42,0.46,5.07,0.85C102.81,5.9,101.02,5.63,99.22,5.44"/>
						<polyline fill="#FAC017" points="99.22,5.44 99.48,5.46 99.22,5.44 99.48,5.46 99.22,5.44 						"/>
						<polyline fill="#FAC017" points="99.22,5.44 99.48,5.46 99.22,5.44 						"/>
						<line fill="none" x1="104.55" y1="6.31" x2="104.55" y2="6.31"/>
						<path fill="#FAC019" d="M107.98,15.98c-1.08,0.79-2.21,1.49-3.36,2.14c1.3-0.74,2.58-1.55,3.78-2.47L107.98,15.98"/>
						<line fill="none" x1="104.62" y1="18.11" x2="104.62" y2="18.11"/>
						<path fill="#FAC019" d="M106.46,17.07c-1.05,0.66-2.14,1.25-3.24,1.81c1.4-0.73,2.79-1.52,4.11-2.42
							C107.05,16.67,106.76,16.87,106.46,17.07"/>
						<line fill="none" x1="103.23" y1="18.88" x2="103.23" y2="18.88"/>
						<line fill="none" x1="104.07" y1="18.75" x2="104.07" y2="18.75"/>
						<line fill="none" x1="104.07" y1="18.75" x2="104.07" y2="18.75"/>
						<path fill="#FAC019" d="M104.07,18.75c-3.25,1.81-6.42,3.18-9.13,4.22c1.55-0.62,3.1-1.27,4.62-1.97l-0.24,0.11
							C100.93,20.38,102.51,19.61,104.07,18.75"/>
						<line fill="none" x1="99.56" y1="21" x2="99.56" y2="21"/>
						<line fill="none" x1="99.56" y1="21" x2="99.56" y2="21"/>
						<line fill="none" x1="94.94" y1="22.97" x2="94.94" y2="22.97"/>
						<line fill="none" x1="104.07" y1="18.75" x2="104.07" y2="18.75"/>
						<line fill="none" x1="104.07" y1="18.75" x2="104.07" y2="18.75"/>
						<path fill="#FAC019" d="M104.07,18.75c-1.55,0.86-3.14,1.63-4.75,2.36L99.56,21C101.08,20.31,102.59,19.56,104.07,18.75"/>
						<line fill="none" x1="104.07" y1="18.75" x2="104.07" y2="18.75"/>
						<path fill="#FAC017" d="M104.07,18.75c-1.55,0.86-3.14,1.63-4.75,2.36C100.93,20.38,102.51,19.61,104.07,18.75"/>
						<line fill="none" x1="99.32" y1="21.11" x2="99.32" y2="21.11"/>
						<path fill="#FAC019" d="M105.57,17.65c-0.38,0.23-0.77,0.44-1.15,0.65c0.69-0.39,1.38-0.8,2.04-1.23
							C106.17,17.27,105.87,17.46,105.57,17.65"/>
						<line fill="none" x1="104.42" y1="18.3" x2="104.42" y2="18.3"/>
						<line fill="none" x1="111.91" y1="9.19" x2="111.91" y2="9.19"/>
						<path fill="#FAC019" d="M111.91,9.19c0.2,0.56,0.22,1.19,0.09,1.75C112.12,10.38,112.1,9.75,111.91,9.19"/>
						<path fill="#FEE4AC" d="M59.53,7.43l-1.29,0.26l-1.8,0.4c2.85-0.52,5.7-1,9.08-1.52l-1.04,0.14c3.64-0.58,6.25-0.88,9.38-1.23
							c-2.22,0.22-4.77,0.54-7.27,0.89C64.07,6.71,61.6,7.1,59.53,7.43 M64.47,6.71L64.47,6.71"/>
						<line fill="none" x1="65.51" y1="6.57" x2="65.51" y2="6.57"/>
						<line fill="none" x1="73.85" y1="5.48" x2="73.85" y2="5.48"/>
						<line fill="none" x1="79.34" y1="4.85" x2="79.34" y2="4.85"/>
						<polyline fill="#FAC019" points="79.34,4.85 80.39,4.77 79.34,4.85 						"/>
						<line fill="none" x1="65.51" y1="6.57" x2="65.51" y2="6.57"/>
						<polyline fill="#FAC019" points="65.51,6.57 67.07,6.33 65.51,6.57 						"/>
						<line fill="none" x1="77.77" y1="4.98" x2="77.77" y2="4.98"/>
						<polyline fill="#FAC019" points="77.77,4.98 79.34,4.85 77.77,4.98 						"/>
						<path fill="#FAC019" d="M111.89,9.79c0.08,0.56-0.01,1.13-0.2,1.65c-0.2,0.52-0.48,0.98-0.8,1.41
							c0.32-0.43,0.59-0.9,0.78-1.42c0.19-0.51,0.28-1.08,0.2-1.64L111.89,9.79"/>
						<path fill="#FAC019" d="M111.9,9.79c0.08,0.56-0.01,1.13-0.21,1.65c0.19-0.52,0.28-1.09,0.19-1.65L111.9,9.79"/>
						<line fill="none" x1="111.69" y1="11.44" x2="111.69" y2="11.44"/>
						<line fill="none" x1="111.84" y1="9.22" x2="111.84" y2="9.22"/>
						<line fill="none" x1="111.84" y1="9.22" x2="111.84" y2="9.22"/>
						<path fill="#FAC019" d="M111.84,9.22c0.15,0.46,0.19,0.96,0.12,1.43c-0.08,0.57-0.3,1.09-0.57,1.57
							c-0.27,0.48-0.6,0.91-0.96,1.31c0.44-0.5,0.84-1.06,1.13-1.68c0.29-0.62,0.46-1.33,0.36-2.05c-0.01-0.09-0.02-0.2-0.03-0.28
							C111.88,9.42,111.86,9.31,111.84,9.22"/>
						<line fill="none" x1="110.43" y1="13.52" x2="110.43" y2="13.52"/>
						<path fill="#FAC019" d="M111.85,9.21c0.15,0.46,0.19,0.96,0.12,1.43C112.03,10.17,111.99,9.67,111.85,9.21L111.85,9.21"/>
						<line fill="none" x1="111.96" y1="10.65" x2="111.96" y2="10.65"/>
						<line fill="none" x1="111.75" y1="8.94" x2="111.75" y2="8.94"/>
						<line fill="none" x1="111.75" y1="8.94" x2="111.75" y2="8.94"/>
						<path fill="#FAC019" d="M111.75,8.94c0.07,0.16,0.12,0.31,0.17,0.49c0.04,0.15,0.07,0.33,0.08,0.5c0.03,0.34,0,0.68-0.07,1.01
							c-0.14,0.65-0.45,1.24-0.81,1.76c0.4-0.6,0.74-1.28,0.84-2.04c0.07-0.47,0.03-0.97-0.12-1.43
							C111.82,9.12,111.79,9.03,111.75,8.94"/>
						<line fill="none" x1="111.12" y1="12.69" x2="111.12" y2="12.69"/>
						<line fill="none" x1="111.87" y1="9.79" x2="111.87" y2="9.79"/>
						<path fill="#FEE4AC" d="M111.87,9.79c0.08,0.56-0.01,1.13-0.2,1.64c-0.19,0.52-0.47,0.99-0.78,1.42
							c0.32-0.43,0.6-0.9,0.8-1.41c-0.26,0.71-0.69,1.37-1.2,1.97c-0.51,0.6-1.09,1.15-1.7,1.66c-1.22,1.02-2.55,1.89-3.81,2.63
							c1.32-0.81,2.62-1.68,3.81-2.69c0.51-0.43,1-0.89,1.45-1.39c0.45-0.5,0.86-1.05,1.16-1.66c0.3-0.6,0.5-1.3,0.44-2
							c-0.02-0.17-0.05-0.35-0.09-0.51c-0.05-0.17-0.11-0.33-0.18-0.49c-0.15-0.31-0.35-0.6-0.58-0.86
							C111.42,8.56,111.76,9.14,111.87,9.79"/>
						<path fill="#FAC017" d="M111.87,9.79c0.08,0.56-0.01,1.13-0.2,1.64c-0.19,0.52-0.47,0.99-0.78,1.42
							c0.32-0.43,0.59-0.9,0.78-1.42C111.86,10.92,111.95,10.35,111.87,9.79"/>
						<line fill="none" x1="110.89" y1="12.85" x2="110.89" y2="12.85"/>
						<line fill="none" x1="111.69" y1="11.44" x2="111.69" y2="11.44"/>
						<line fill="none" x1="111.69" y1="11.44" x2="111.69" y2="11.44"/>
						<path fill="#FAC019" d="M109.96,7.24c0.41,0.29,0.8,0.62,1.13,1.03c0.33,0.4,0.57,0.89,0.67,1.41
							c0.1,0.52,0.04,1.06-0.11,1.55c-0.15,0.5-0.4,0.95-0.68,1.36c-0.56,0.83-1.25,1.5-1.92,2.09c-0.67,0.58-1.34,1.06-1.94,1.47
							c0.24-0.17,0.46-0.33,0.69-0.51c1.08-0.82,2.02-1.66,2.78-2.61c0.37-0.47,0.69-0.98,0.91-1.52c0.22-0.54,0.32-1.14,0.23-1.73
							c-0.08-0.58-0.37-1.13-0.76-1.58c-0.39-0.45-0.87-0.83-1.39-1.15c-1.05-0.64-2.26-1.09-3.6-1.45l-0.43-0.11
							c0.64,0.17,1.36,0.4,2.12,0.69c0.75,0.3,1.53,0.66,2.24,1.16c0.7,0.49,1.32,1.13,1.6,1.89c0.14,0.38,0.19,0.77,0.17,1.13
							c-0.02,0.37-0.1,0.71-0.22,1.01c0.18-0.48,0.26-1.01,0.19-1.52c-0.07-0.51-0.28-0.99-0.58-1.4c-0.62-0.82-1.5-1.38-2.4-1.82
							c-0.9-0.44-1.85-0.77-2.81-1.04c-0.96-0.27-1.92-0.48-2.9-0.66c1.21,0.2,2.42,0.45,3.6,0.81
							C107.75,6.09,108.92,6.54,109.96,7.24"/>
						<line fill="none" x1="111.45" y1="11.36" x2="111.45" y2="11.36"/>
						<line fill="none" x1="110.72" y1="12.73" x2="110.72" y2="12.73"/>
						<line fill="none" x1="110.72" y1="12.73" x2="110.72" y2="12.73"/>
						<path fill="#FAC019" d="M110.72,12.73c-0.55,0.73-1.21,1.37-1.92,1.96c-0.7,0.58-1.45,1.12-2.21,1.62
							c0.65-0.44,1.29-0.9,1.9-1.39C109.3,14.27,110.09,13.56,110.72,12.73"/>
						<polyline fill="#FAC019" points="100.17,19.84 99.46,20.17 99.22,20.27 100.17,19.84 						"/>
						<path fill="#FAC019" d="M104.37,17.69c-0.38,0.21-0.76,0.42-1.15,0.63c-1,0.54-2.02,1.04-3.05,1.52l-0.71,0.33
							C101.13,19.41,102.77,18.59,104.37,17.69 M103.22,18.32c-1,0.54-2.02,1.04-3.05,1.52C101.2,19.35,102.22,18.85,103.22,18.32"
							/>
						<line fill="none" x1="99.46" y1="20.17" x2="99.46" y2="20.17"/>
						<line fill="none" x1="108.48" y1="14.92" x2="108.48" y2="14.92"/>
						<line fill="none" x1="108.48" y1="14.92" x2="108.48" y2="14.92"/>
						<path fill="#FAC019" d="M108.48,14.92c-0.61,0.5-1.24,0.96-1.9,1.39c-1.09,0.73-2.22,1.39-3.37,2.01
							c-1,0.54-2.02,1.04-3.05,1.52l-0.95,0.44l0.24-0.1c-1.52,0.67-3.06,1.3-4.61,1.89c1.78-0.72,3.55-1.48,5.28-2.31
							C102.75,18.57,106.03,16.87,108.48,14.92"/>
						<path fill="#FAC017" d="M108.48,14.92c-0.61,0.5-1.24,0.96-1.9,1.39C107.24,15.87,107.88,15.41,108.48,14.92"/>
						<line fill="none" x1="106.59" y1="16.31" x2="106.59" y2="16.31"/>
						<line fill="none" x1="100.17" y1="19.84" x2="100.17" y2="19.84"/>
						<line fill="none" x1="100.17" y1="19.84" x2="100.17" y2="19.84"/>
						<polyline fill="#FAC017" points="100.17,19.84 99.22,20.27 100.17,19.84 						"/>
						<line fill="none" x1="99.22" y1="20.27" x2="99.22" y2="20.27"/>
						<path fill="#FAC017" d="M103.22,18.32c-1,0.54-2.02,1.04-3.05,1.52C101.2,19.35,102.22,18.85,103.22,18.32"/>
						<line fill="none" x1="99.46" y1="20.17" x2="99.46" y2="20.17"/>
						<line fill="none" x1="103.22" y1="18.32" x2="103.22" y2="18.32"/>
						<path fill="#FAC017" d="M103.22,18.32c-1,0.54-2.02,1.04-3.05,1.52C101.2,19.35,102.22,18.85,103.22,18.32"/>
						<line fill="none" x1="98.69" y1="20.38" x2="98.69" y2="20.38"/>
						<line fill="none" x1="98.69" y1="20.38" x2="98.69" y2="20.38"/>
						<path fill="#FAC019" d="M98.69,20.38c-2.62,1.18-5.07,2.12-7.05,2.81c1.96-0.74,3.9-1.53,5.81-2.37l-0.7,0.35
							C97.4,20.91,98.05,20.65,98.69,20.38"/>
						<line fill="none" x1="41.49" y1="35.76" x2="41.49" y2="35.76"/>
						<line fill="none" x1="41.49" y1="35.76" x2="41.49" y2="35.76"/>
						<path fill="#FAC019" d="M41.49,35.76c-0.79,0.07-1.58,0.13-2.37,0.19l0.79-0.09L41.49,35.76"/>
						<path fill="#FAC017" d="M34.56,12.85c5.11-1.35,9.25-2.19,12.62-2.78c-2.56,0.61-5.11,1.26-7.65,1.96
							c-4.11,1.12-8.19,2.36-11.21,3.36c-3.02,0.99-5.01,1.71-4.99,1.58c0-0.03,0.17-0.14,0.53-0.31
							C27.55,15.2,31.29,13.9,34.56,12.85"/>
						<line fill="none" x1="47.18" y1="10.08" x2="47.18" y2="10.08"/>
						<path fill="#FAC019" d="M6.48,26.86c0.24-0.3,0.49-0.57,0.75-0.83c-0.33,0.36-0.57,0.66-0.77,0.95
							c-0.21,0.29-0.38,0.57-0.55,0.92c-0.17,0.34-0.35,0.74-0.47,1.31c-0.11,0.56-0.16,1.33,0.23,2.2
							c-0.04-0.07-0.09-0.16-0.13-0.27c-0.05-0.1-0.11-0.3-0.14-0.41c-0.09-0.34-0.12-0.75-0.07-1.2c0.05-0.45,0.19-0.93,0.4-1.38
							C5.91,27.69,6.18,27.26,6.48,26.86"/>
						<line fill="none" x1="14.64" y1="20.71" x2="14.64" y2="20.71"/>
						<path fill="#FDD36F" d="M14.64,20.71c1.92-0.94,4.48-2.11,7.2-3.23c0.67-0.27,1.34-0.55,2.02-0.81
							c-0.36,0.17-0.53,0.28-0.53,0.31c-0.01,0.12,1.97-0.59,4.99-1.58c3.02-1,7.1-2.24,11.21-3.36c-6.28,1.74-12.5,3.76-18.51,6.3
							c-2,0.85-3.98,1.76-5.91,2.78c-1.4,0.74-2.77,1.53-4.08,2.41c-1.31,0.89-2.58,1.86-3.65,3.04c-0.53,0.6-1.02,1.25-1.33,2.01
							c-0.16,0.38-0.27,0.78-0.3,1.19c-0.03,0.42,0.02,0.84,0.16,1.23c0.28,0.79,0.87,1.42,1.52,1.89c0.65,0.48,1.37,0.83,2.11,1.13
							c-0.24-0.12-0.48-0.24-0.71-0.37c-0.68-0.33-1.35-0.73-1.91-1.27c-0.56-0.53-1-1.23-1.09-2.02c-0.1-0.76,0.13-1.52,0.48-2.18
							c0.35-0.66,0.82-1.24,1.32-1.78c0.32-0.34,0.65-0.65,0.99-0.95c1.03-0.9,2.14-1.68,3.26-2.39c1.12-0.71,2.27-1.35,3.4-1.94
							c2.27-1.17,4.5-2.16,6.6-3c-3.24,1.38-6.56,2.93-9.67,4.85c-1.03,0.64-2.03,1.33-2.97,2.08c-0.94,0.76-1.83,1.6-2.51,2.59
							c-0.5,0.74-0.89,1.6-0.84,2.51c0.02,0.45,0.15,0.89,0.37,1.28c0.22,0.39,0.51,0.73,0.84,1.03c0.66,0.59,1.44,1.01,2.23,1.36
							c0.79,0.35,1.61,0.62,2.43,0.85c1.63,0.45,3.26,0.74,4.84,0.96c1.58,0.22,3.12,0.35,4.59,0.46c2.1,0.15,5.27,0.21,8.43,0.12
							c-1.49,0.04-2.98,0.06-4.48,0.05l-0.53,0.05c2.02,0.07,4.04,0.07,6.07,0.04l-1.58,0.04c-1.93,0.04-3.87,0.04-5.81-0.02
							c-1.76-0.06-3.52-0.16-5.27-0.33c-1.08-0.11-2.17-0.25-3.26-0.42h0c-1.69-0.28-3.41-0.64-5.11-1.28
							c-0.85-0.33-1.69-0.72-2.48-1.31c-0.39-0.3-0.76-0.64-1.06-1.06c-0.15-0.21-0.28-0.44-0.39-0.69
							c-0.05-0.13-0.1-0.24-0.14-0.39c-0.02-0.07-0.03-0.13-0.05-0.19l-0.01-0.04l-0.01-0.06l-0.02-0.1l0.03,0.17l0.03,0.14
							c0.03,0.11,0.06,0.22,0.1,0.32c0.07,0.2,0.16,0.4,0.27,0.58c0.21,0.36,0.48,0.69,0.78,0.96c0.59,0.56,1.27,0.97,1.97,1.31
							c0.69,0.35,1.03,0.48,1.09,0.53c0.06,0.04-0.2-0.03-0.69-0.22c-0.49-0.2-1.2-0.5-1.97-1.05c-0.38-0.28-0.77-0.62-1.11-1.07
							c-0.17-0.22-0.32-0.47-0.45-0.75c-0.06-0.14-0.11-0.27-0.16-0.43l-0.04-0.12l-0.02-0.09l-0.01-0.04l-0.01-0.04l0-0.03
							l-0.02-0.11c-0.1-0.61-0.02-1.23,0.15-1.78c0.17-0.55,0.43-1.02,0.7-1.44c0.11-0.16,0.22-0.31,0.34-0.46
							c-0.29,0.4-0.56,0.83-0.77,1.28c-0.21,0.45-0.35,0.93-0.4,1.38c-0.05,0.45-0.01,0.86,0.08,1.2c0.03,0.11,0.09,0.31,0.13,0.41
							c0.05,0.12,0.1,0.21,0.13,0.28c-0.39-0.88-0.34-1.65-0.23-2.21c0.12-0.57,0.3-0.96,0.47-1.3c0.17-0.34,0.35-0.62,0.55-0.92
							c0.21-0.29,0.44-0.6,0.77-0.95c0.27-0.25,0.55-0.49,0.83-0.72c0.95-0.84,1.98-1.56,3.03-2.23c-0.75,0.56,0.19-0.07,1.31-0.73
							c1.11-0.66,2.41-1.33,2.19-1.16c1.88-0.98,3.8-1.87,5.74-2.69c1.04-0.48,2.08-0.95,3.13-1.4c-2.23,0.82-4.49,1.76-6.15,2.49
							C15.65,20.32,14.56,20.84,14.64,20.71"/>
						<path fill="#FAC017" d="M23.33,16.97c-0.01,0.12,1.97-0.59,4.99-1.58c3.02-1,7.1-2.24,11.21-3.36
							c-4.11,1.12-8.18,2.36-11.21,3.36C25.3,16.38,23.32,17.1,23.33,16.97"/>
						<path fill="#FAC017" d="M7.22,26.02c-0.33,0.36-0.57,0.66-0.77,0.95c-0.21,0.29-0.38,0.57-0.55,0.92
							c-0.17,0.34-0.35,0.74-0.47,1.31c-0.11,0.56-0.16,1.33,0.23,2.2c-0.39-0.87-0.34-1.64-0.23-2.2c0.12-0.57,0.3-0.97,0.47-1.31
							c0.17-0.34,0.35-0.62,0.55-0.92C6.65,26.69,6.89,26.38,7.22,26.02"/>
						<line fill="none" x1="6.13" y1="27.32" x2="6.13" y2="27.32"/>
						<line fill="none" x1="7.22" y1="26.02" x2="7.22" y2="26.02"/>
						<line fill="none" x1="23.86" y1="16.67" x2="23.86" y2="16.67"/>
						<line fill="none" x1="30.69" y1="36.33" x2="30.69" y2="36.33"/>
						<line fill="none" x1="30.69" y1="36.33" x2="30.69" y2="36.33"/>
						<line fill="none" x1="34.38" y1="36.21" x2="34.38" y2="36.21"/>
						<path fill="#FAC019" d="M34.38,36.21c-1.23,0.06-2.46,0.09-3.69,0.12l-1.58,0.04c-1.93,0.04-3.87,0.04-5.81-0.02l-0.26,0
							c1.67,0.06,3.34,0.08,5.01,0.07c-1.85,0.03-3.69,0.03-5.54-0.04c2.11,0.12,4.75,0.12,7.39,0.05
							C31.4,36.38,32.89,36.31,34.38,36.21 M31.22,36.37L31.22,36.37 M29.11,36.38c-1.93,0.04-3.87,0.04-5.81-0.02
							C25.24,36.42,27.17,36.42,29.11,36.38 M29.11,36.38L29.11,36.38"/>
						<line fill="none" x1="29.11" y1="36.38" x2="29.11" y2="36.38"/>
						<path fill="#FAC017" d="M29.11,36.38c-1.93,0.04-3.87,0.04-5.81-0.02C25.24,36.42,27.17,36.42,29.11,36.38"/>
						<path fill="#FAC019" d="M7.01,26.2l0.21-0.18c-0.26,0.26-0.51,0.54-0.75,0.84C6.65,26.63,6.82,26.41,7.01,26.2"/>
						<line fill="none" x1="7.22" y1="26.02" x2="7.22" y2="26.02"/>
						<line fill="none" x1="29.41" y1="15.75" x2="29.41" y2="15.75"/>
						<polyline fill="#FAC019" points="29.41,15.75 29.67,15.71 29.41,15.75 						"/>
						<path opacity="0.8" fill="#FEDC91" enable-background="new    " d="M4.77,28.77c0.17-0.55,0.39-0.98,0.6-1.33
							C5.59,27.08,5.8,26.8,6,26.56c0.38-0.47,0.69-0.75,0.9-0.95c0.44-0.38,0.54-0.39,0.48-0.27c-0.05,0.12-0.24,0.39-0.37,0.61
							c-0.12,0.21-0.19,0.37-0.01,0.24c-0.18,0.21-0.36,0.43-0.53,0.66c-0.12,0.15-0.23,0.3-0.34,0.46
							c-0.27,0.42-0.53,0.89-0.7,1.44c-0.17,0.54-0.25,1.17-0.15,1.78l0.02,0.11l0,0.03l0.01,0.04l0.01,0.05l0.02,0.09l0.03,0.12
							c0.05,0.16,0.1,0.29,0.16,0.43c0.12,0.27,0.28,0.52,0.45,0.75c0.34,0.45,0.73,0.79,1.11,1.07c0.77,0.55,1.48,0.86,1.97,1.05
							c0.49,0.19,0.76,0.26,0.69,0.22c-0.06-0.05-0.4-0.18-1.09-0.53c-0.69-0.34-1.38-0.75-1.97-1.31c-0.29-0.28-0.56-0.6-0.77-0.96
							c-0.1-0.18-0.2-0.38-0.27-0.58c-0.04-0.1-0.07-0.21-0.1-0.32l-0.03-0.14l-0.03-0.17l0.02,0.1l0.01,0.06l0.01,0.04
							c0.01,0.06,0.02,0.11,0.05,0.19c0.04,0.15,0.08,0.26,0.14,0.39c0.1,0.25,0.24,0.48,0.39,0.69c0.3,0.42,0.67,0.77,1.06,1.06
							c0.78,0.59,1.63,0.98,2.47,1.31c1.7,0.64,3.42,1,5.11,1.28c1.09,0.18,2.17,0.31,3.26,0.42c1.75,0.18,3.52,0.28,5.27,0.33
							l-0.26,0c-1.58-0.05-3.17-0.15-4.75-0.3c2.63,0.31,6.34,0.43,9.77,0.36c-1.85,0.03-3.7,0.03-5.54-0.04
							c2.11,0.12,4.75,0.12,7.39,0.05l-0.79,0.05c1.06,0.01,2.11,0.01,3.17,0c-2.02,0.07-4.05,0.1-6.08,0.08
							c-0.7,0.02-1.41,0.04-2.11,0.05c2.11,0.13,4.77,0.27,9,0.12c-2.78,0.1-5.23,0.11-7.94,0.04c-1.36-0.04-2.78-0.1-4.35-0.2
							c-1.56-0.11-3.27-0.26-5.19-0.53l-0.53-0.02c-0.53-0.09-1.05-0.2-1.58-0.31c0.91,0.24,2.36,0.5,3.79,0.69
							c1.42,0.19,2.81,0.32,3.61,0.41c-1.59-0.12-3.18-0.28-4.77-0.52c0.13,0.05,0.79,0.16,1.52,0.27c0.73,0.1,1.53,0.19,1.92,0.25
							c-1.97-0.19-3.08-0.4-4.28-0.63c-0.6-0.12-1.22-0.25-1.97-0.42c-0.75-0.17-1.64-0.38-2.76-0.74l-0.21-0.07l-0.31-0.11
							c-1-0.35-1.85-0.75-2.57-1.2c-0.71-0.45-1.28-0.97-1.67-1.51c-0.19-0.27-0.34-0.54-0.45-0.8c-0.05-0.13-0.1-0.25-0.14-0.39
							l-0.04-0.15l-0.01-0.03l0-0.02l-0.01-0.04l-0.02-0.08c-0.09-0.43-0.09-0.73-0.1-0.92c0-0.37-0.06-0.3-0.14,0.17
							c-0.03,0.24-0.05,0.58,0.03,1c0.07,0.43,0.24,0.92,0.54,1.4c-0.39-0.58-0.64-1.32-0.67-2.06c-0.03-0.5,0.03-0.88,0.08-1.14
							c0.05-0.27,0.1-0.44,0.13-0.55c0.06-0.21,0.03-0.18-0.03-0.06C4.85,28.69,4.67,29.29,4.77,28.77"/>
						<path fill="#FAC017" d="M9.77,34.49c-0.06-0.05-0.4-0.18-1.09-0.53c-0.69-0.34-1.38-0.75-1.97-1.31
							c-0.29-0.28-0.56-0.6-0.77-0.96c-0.11-0.18-0.2-0.38-0.27-0.58c-0.04-0.1-0.07-0.21-0.1-0.32l-0.03-0.13l-0.03-0.17l0.03,0.17
							l0.03,0.13c0.03,0.11,0.06,0.22,0.1,0.32c0.07,0.2,0.16,0.4,0.27,0.58c0.21,0.37,0.48,0.69,0.77,0.96
							c0.59,0.56,1.27,0.97,1.97,1.31C9.37,34.31,9.71,34.44,9.77,34.49"/>
						<path fill="#FAC017" d="M5.51,30.48l0.02,0.1l0.01,0.06l0.01,0.04c0.01,0.06,0.02,0.11,0.05,0.19
							c0.04,0.15,0.08,0.26,0.14,0.39c0.1,0.25,0.24,0.48,0.39,0.69c0.3,0.42,0.67,0.77,1.06,1.06c0.78,0.59,1.63,0.98,2.47,1.31
							c1.7,0.64,3.42,1,5.11,1.28c-1.69-0.28-3.41-0.64-5.11-1.28c-0.84-0.33-1.69-0.72-2.47-1.31c-0.39-0.29-0.76-0.64-1.06-1.06
							c-0.15-0.21-0.28-0.44-0.39-0.69c-0.05-0.12-0.1-0.24-0.14-0.39c-0.02-0.07-0.03-0.13-0.05-0.19l-0.01-0.04l-0.01-0.06
							L5.51,30.48"/>
						<path fill="#FAC017" d="M28.05,36.42c-1.85,0.03-3.69,0.03-5.54-0.04C24.36,36.45,26.21,36.46,28.05,36.42"/>
						<line fill="none" x1="22.51" y1="36.39" x2="22.51" y2="36.39"/>
						<polyline fill="#FAC017" points="23.04,36.36 23.3,36.35 23.04,36.36 						"/>
						<line fill="none" x1="5.46" y1="32.28" x2="5.46" y2="32.28"/>
						<line fill="none" x1="19.56" y1="36.81" x2="19.56" y2="36.81"/>
						<line fill="none" x1="33.09" y1="36.74" x2="33.09" y2="36.74"/>
						<line fill="none" x1="20.89" y1="36.82" x2="20.89" y2="36.82"/>
						<line fill="none" x1="10.34" y1="34.95" x2="10.34" y2="34.95"/>
						<line fill="none" x1="15.08" y1="36.03" x2="15.08" y2="36.03"/>
						<line fill="none" x1="32.28" y1="36.48" x2="32.28" y2="36.48"/>
						<line fill="none" x1="28.05" y1="36.42" x2="28.05" y2="36.42"/>
						<line fill="none" x1="23.04" y1="36.36" x2="23.04" y2="36.36"/>
						<line fill="none" x1="38.31" y1="35.69" x2="38.31" y2="35.69"/>
						<path opacity="0.8" fill="#FEDC91" enable-background="new    " d="M38.31,35.69l1.05-0.11l1.31-0.16l-1.57,0.14l1.57-0.14
							l0.26-0.08c-1.23,0.1-2.45,0.19-3.68,0.27l2.1-0.17c-1.05,0.08-2.1,0.14-3.15,0.2c1.31-0.09,2.62-0.19,3.94-0.3l0-0.03
							l-1.31,0.1c-3.14,0.27-6.56,0.48-9.45,0.53c1.35-0.05,2.7-0.11,4.05-0.19c2.87-0.17,5.77-0.4,8.79-0.73l1.04-0.13
							c-3.92,0.42-8.38,0.75-11.27,0.8l0.85-0.04c2.71-0.15,5.01-0.31,7.32-0.51c2.31-0.2,4.62-0.44,7.36-0.81l0.44-0.06
							c-1.31,0.15-3,0.35-4.7,0.52c-1.7,0.17-3.4,0.32-4.71,0.4c4.19-0.33,8.11-0.76,12.02-1.28l0.52-0.08
							c5.2-0.77,9.86-1.62,14.49-2.6c-1.98,0.4-3.96,0.78-5.94,1.13c1.99-0.35,3.97-0.73,5.94-1.13c3.73-0.78,7.31-1.62,10.85-2.55
							c3.53-0.92,7.01-1.92,10.52-3.06c-1.84,0.57-3.7,1.11-5.56,1.63c3.51-1.1,7.52-2.41,10.71-3.65
							c-2.59,0.95-5.03,1.75-7.45,2.49c-2.42,0.74-4.82,1.42-7.36,2.11c2.54-0.68,4.94-1.37,7.36-2.11
							c2.42-0.74,4.86-1.54,7.45-2.49l0.98-0.38c-2.1,0.76-4.53,1.59-6.97,2.35c-2.44,0.77-4.9,1.48-7.06,2.06
							c3.04-0.85,5.57-1.56,9.05-2.74l-1,0.31l-1.5,0.49l1.5-0.49c3.24-1.08,5.96-2.05,8.65-3.12c2.88-1.29,6.2-2.88,9.33-4.79
							c0.52-0.32,1.03-0.65,1.54-0.99c-1.09,0.73-2.22,1.39-3.37,2.01c0.39-0.2,0.77-0.42,1.15-0.63c-1.59,0.91-3.24,1.72-4.91,2.48
							c-1.52,0.67-3.06,1.3-4.61,1.89c1.78-0.72,3.55-1.48,5.28-2.31c-0.48,0.21-0.96,0.42-1.44,0.63
							c-2.62,1.18-5.07,2.12-7.05,2.81c1.96-0.74,3.9-1.53,5.82-2.37c1.1-0.52,2.2-1.05,3.28-1.62l-0.51,0.13
							c-2.02,0.9-5.34,2.32-9.43,3.82l-0.74,0.27l0.28,0l-1.25,0.38c-0.73,0.28-1.47,0.56-2.2,0.83c-0.75,0.25-1.49,0.49-2.24,0.72
							c-1.23,0.45-2.85,0.97-4.62,1.48c-1.76,0.51-3.66,1.02-5.44,1.47l1.53-0.37c-0.8,0.25-1.77,0.52-2.8,0.79
							c-1.54,0.39-3.19,0.76-4.58,1.07c-1.02,0.22-2.04,0.43-3.06,0.63l-0.28,0.06l0.11-0.03l-0.11,0.02
							c-1.45,0.31-2.91,0.6-4.37,0.88l-2.32,0.41l-1.3,0.21l1.3-0.21l1.55-0.27l-1.29,0.21l2.58-0.47
							c-1.72,0.32-3.44,0.61-5.16,0.89l-1.81,0.29l0.52-0.09l-2.33,0.34c-1.64,0.24-3.28,0.46-4.93,0.67
							c-1.12,0.16-2.25,0.31-3.37,0.46c0.95-0.12,1.9-0.25,2.85-0.39l1.55-0.23c-1.73,0.24-3.46,0.46-5.19,0.66l0.26-0.06
							c-2.08,0.23-4.69,0.49-7.29,0.69l-0.26,0.02c-1.48,0.12-2.95,0.23-4.43,0.31c1.3-0.07,2.61-0.17,3.91-0.28l-0.26-0.04
							c-2.51,0.19-5.18,0.36-7.9,0.4c-0.67,0.01-1.33,0.01-2,0.01l0.52,0.01c-1.3,0.01-2.6-0.01-3.9-0.05
							c-2.2-0.06-4.34-0.19-6.39-0.45c0.57,0.1,1.15,0.18,1.73,0.25c-0.58-0.07-1.16-0.16-1.73-0.25c-1.84-0.23-3.61-0.56-5.22-1.08
							c-0.8-0.26-1.56-0.57-2.21-0.95c-0.65-0.38-1.2-0.85-1.5-1.37c-0.07-0.13-0.14-0.27-0.18-0.39c-0.01-0.03-0.02-0.04-0.03-0.1
							l-0.02-0.07l-0.01-0.04c0,0.01,0-0.02,0,0.02v0l0-0.01l0-0.01c-0.02-0.07-0.03-0.14-0.03-0.21c-0.03-0.28,0-0.58,0.08-0.87
							c0.16-0.6,0.5-1.19,0.9-1.71c0.81-1.06,1.81-1.93,2.74-2.69c-0.72,0.54-1.4,1.12-2.01,1.74c-0.61,0.62-1.15,1.29-1.49,1.99
							c-0.35,0.7-0.45,1.41-0.24,2.02c0.2,0.6,0.69,1.12,1.26,1.52c0.86,0.61,1.92,1.04,3,1.38c1.09,0.34,2.22,0.59,3.38,0.79
							c2.31,0.4,4.69,0.6,7.13,0.72c0.54,0.02,1.07,0.04,1.61,0.06c-1.82-0.02-3.65-0.09-5.46-0.24l0.26,0.03
							c-0.43-0.03-0.86-0.07-1.29-0.11c0.34,0.03,0.69,0.06,1.03,0.08c-2.06-0.22-3.99-0.52-5.77-0.98
							c-0.89-0.23-1.74-0.51-2.53-0.87c-0.78-0.35-1.51-0.79-2.04-1.34c-0.53-0.55-0.81-1.22-0.74-1.93
							c0.06-0.72,0.45-1.45,0.94-2.12c0.5-0.67,1.12-1.29,1.8-1.87c0.68-0.58,1.41-1.12,2.19-1.65c-0.35,0.25-0.7,0.5-1.04,0.77
							c1.75-1.31,3.67-2.43,5.62-3.46c1.96-1.03,3.98-1.96,6.03-2.83c1.51-0.69,3.04-1.34,4.58-1.96c-1.31,0.48-2.62,0.98-3.92,1.5
							c0.73-0.31,1.45-0.6,2.18-0.9c0.32-0.14,1.58-0.62,1.7-0.68c0.08-0.04-0.32,0.09-1.73,0.62c-0.71,0.27-1.66,0.64-2.93,1.16
							c-1.27,0.53-2.85,1.2-4.77,2.14c-1.33,0.65-2.65,1.35-3.92,2.1c2.13-1.27,4.25-2.33,6.24-3.26c1.99-0.93,3.87-1.72,5.57-2.42
							c-1.07,0.39-2.14,0.79-3.2,1.22c-3.24,1.38-6.56,2.93-9.67,4.85c-1.03,0.64-2.03,1.32-2.97,2.08
							c-0.94,0.76-1.83,1.6-2.51,2.59c-0.5,0.74-0.89,1.6-0.84,2.51c0.02,0.45,0.15,0.89,0.37,1.28c0.22,0.39,0.51,0.73,0.84,1.03
							c0.66,0.59,1.44,1.01,2.23,1.36c0.79,0.35,1.61,0.61,2.43,0.84c1.63,0.45,3.26,0.74,4.84,0.96c1.58,0.22,3.12,0.35,4.59,0.46
							c2.1,0.15,5.27,0.21,8.43,0.11l0.53-0.02l-1.58,0.02c0.79-0.01,1.58-0.03,2.37-0.05c-1.23,0.02-2.46,0.02-3.69,0
							c1.58,0.01,3.16-0.01,4.74-0.06l0.79-0.05c-1.32,0.05-2.64,0.08-3.95,0.1c1.49-0.02,2.98-0.07,4.48-0.13l1.05-0.09
							C35.68,35.85,36.99,35.78,38.31,35.69 M87.12,25.37L87.12,25.37 M87.12,25.37L87.12,25.37 M75.23,28.75
							c1.91-0.48,3.69-0.94,5.59-1.48c1.9-0.53,3.92-1.13,6.29-1.91c-2.37,0.78-4.39,1.38-6.29,1.91
							C78.93,27.81,77.15,28.27,75.23,28.75l-1.53,0.38l-1.02,0.25l1.02-0.25L75.23,28.75l-0.25,0.09
							c-1.36,0.35-2.72,0.68-4.08,1.01c1.37-0.32,2.72-0.66,4.08-1.01L75.23,28.75 M63.24,31.69L63.24,31.69 M63.24,31.69
							L63.24,31.69 M53.91,33.32c3.63-0.6,5.97-0.95,9.32-1.62C59.89,32.37,57.54,32.72,53.91,33.32 M59.36,32.45L59.36,32.45
							 M59.36,32.45L59.36,32.45 M50.8,33.81l-0.26,0.04c-0.87,0.13-1.74,0.25-2.6,0.36c0.87-0.12,1.74-0.24,2.6-0.36L50.8,33.81
							c3.12-0.45,5.46-0.8,8.57-1.37C56.26,33.01,53.92,33.36,50.8,33.81 M59.61,32.36L59.61,32.36 M72.44,29.5l-1.53,0.4
							L72.44,29.5 M51.58,33.71L51.58,33.71 M53.91,33.32L53.91,33.32 M50.8,33.81L50.8,33.81 M77.27,28.21L77.27,28.21 M70.9,29.85
							L70.9,29.85 M104.37,17.69L104.37,17.69 M7.9,26.66c0.76-0.82,1.63-1.54,2.54-2.21c0.91-0.67,1.86-1.29,2.83-1.87
							c-0.97,0.58-1.93,1.2-2.83,1.87C9.53,25.12,8.66,25.85,7.9,26.66 M7.9,26.66c0.76-0.82,1.63-1.54,2.54-2.21
							c0.91-0.67,1.86-1.29,2.83-1.87c-0.97,0.58-1.93,1.2-2.83,1.87C9.53,25.12,8.66,25.85,7.9,26.66 M7.9,26.66
							c-0.23,0.25-0.46,0.51-0.66,0.78C7.04,27.71,6.85,28,6.7,28.29c-0.16,0.29-0.29,0.6-0.37,0.91c-0.08,0.29-0.12,0.6-0.1,0.89
							l0.01,0.09c0.01,0.07,0.01,0.15,0.03,0.22c0.01,0.03,0.01,0.08,0.02,0.1l0.03,0.12c0.04,0.13,0.09,0.28,0.15,0.41
							c0.13,0.28,0.32,0.55,0.53,0.79c0.22,0.24,0.47,0.46,0.73,0.65C8,32.67,8.28,32.85,8.58,33c0.3,0.16,0.61,0.3,0.92,0.43
							c0.23,0.1,0.48,0.19,0.72,0.27c0.32,0.11,0.65,0.22,0.98,0.31c0.33,0.1,0.67,0.18,1,0.26c0.33,0.08,0.67,0.15,1.01,0.22
							c0.25,0.05,0.51,0.1,0.77,0.14c0.34,0.06,0.68,0.12,1.03,0.17l0.77,0.1c-1.98-0.28-3.81-0.64-5.47-1.21
							C9.48,33.41,8.69,33.07,8,32.62c-0.69-0.45-1.29-1.01-1.57-1.72c-0.02-0.05-0.04-0.1-0.06-0.15
							c-0.01-0.05-0.03-0.09-0.04-0.15l-0.03-0.13l-0.02-0.12c-0.06-0.36-0.03-0.75,0.06-1.12c0.02-0.09,0.05-0.18,0.08-0.26
							c0.1-0.31,0.25-0.6,0.42-0.89c0.09-0.16,0.19-0.32,0.3-0.47C7.37,27.28,7.62,26.97,7.9,26.66 M22.75,18.14
							c-0.42,0.17-0.85,0.35-1.28,0.53l-0.89,0.38l-0.96,0.42l-0.95,0.44l-1.18,0.57l-0.56,0.28c-0.51,0.25-1.01,0.52-1.51,0.79
							l-0.02,0.01c-0.31,0.17-0.61,0.33-0.91,0.51c0.3-0.17,0.61-0.34,0.91-0.51c-0.31,0.17-0.61,0.33-0.91,0.51
							c0.3-0.17,0.61-0.34,0.91-0.51l0.01-0.01c-0.31,0.17-0.61,0.34-0.92,0.51c0.37-0.21,0.77-0.43,1.19-0.65l0.65-0.34
							c0.39-0.2,0.78-0.39,1.17-0.58l0.37-0.18l1.11-0.52l0.66-0.3l0.68-0.31C21.15,18.82,21.98,18.46,22.75,18.14 M22.75,18.14
							L22.75,18.14 M91.32,23.09L91.32,23.09 M90.32,23.41l0.01,0.02l0.99-0.34L90.32,23.41"/>
						<path fill="#FEDC91" d="M7.9,26.66c-0.46,0.49-0.87,1.02-1.19,1.6c-0.31,0.58-0.52,1.21-0.49,1.83
							c-0.02-0.29,0.02-0.6,0.1-0.89c0.09-0.31,0.21-0.62,0.37-0.91c0.16-0.29,0.34-0.57,0.54-0.85C7.44,27.17,7.67,26.91,7.9,26.66
							"/>
						<path fill="#FEDC91" d="M7.13,27.61c-0.11,0.15-0.21,0.31-0.3,0.47c-0.17,0.29-0.31,0.59-0.42,0.89
							c-0.03,0.09-0.06,0.18-0.08,0.26C6.48,28.67,6.77,28.12,7.13,27.61"/>
						<path fill="#FEDC91" d="M6.23,30.18c0.01,0.11,0.03,0.23,0.05,0.34c0.03,0.14,0.06,0.22,0.1,0.33
							c0.08,0.22,0.19,0.42,0.32,0.61c0.27,0.39,0.62,0.72,1.01,1c0.79,0.57,1.7,0.97,2.62,1.28c1.84,0.62,3.71,0.94,5.44,1.16
							L15,34.81c-0.34-0.05-0.69-0.1-1.03-0.17c-0.26-0.04-0.51-0.09-0.77-0.14c-0.34-0.07-0.68-0.14-1.01-0.22
							c-0.34-0.08-0.67-0.17-1-0.26c-0.33-0.1-0.66-0.2-0.98-0.31c-0.24-0.09-0.48-0.18-0.72-0.28C9.19,33.3,8.88,33.16,8.58,33
							c-0.3-0.16-0.58-0.33-0.85-0.53c-0.27-0.2-0.52-0.41-0.73-0.65c-0.22-0.24-0.4-0.5-0.54-0.79c-0.06-0.14-0.11-0.28-0.15-0.41
							l-0.03-0.12c-0.01-0.02-0.01-0.07-0.02-0.1C6.25,30.33,6.24,30.26,6.23,30.18"/>
						<path fill="#FEDC91" d="M6.27,30.35l0.02,0.12l0.03,0.13c0.01,0.06,0.03,0.1,0.04,0.15c0.02,0.05,0.04,0.1,0.06,0.15
							c-0.04-0.09-0.07-0.18-0.09-0.26l-0.04-0.15L6.27,30.35"/>
						<polyline fill="#FAC226" points="65.4,30.47 65.51,30.44 65.67,30.41 65.4,30.47 						"/>
						<line fill="none" x1="17.64" y1="34.63" x2="17.64" y2="34.63"/>
						<path fill="#FAC017" d="M17.64,34.63c-0.58-0.07-1.16-0.16-1.73-0.25C16.48,34.47,17.06,34.55,17.64,34.63"/>
						<line fill="none" x1="104.37" y1="17.69" x2="104.37" y2="17.69"/>
						<line fill="none" x1="104.37" y1="17.69" x2="104.37" y2="17.69"/>
						<path fill="#FAC017" d="M104.37,17.69c-0.38,0.21-0.76,0.42-1.15,0.63C103.61,18.11,103.99,17.9,104.37,17.69"/>
						<path fill="#FAC017" d="M100.13,19.75c-1.73,0.83-3.49,1.59-5.28,2.31C96.63,21.34,98.4,20.58,100.13,19.75"/>
						<line fill="none" x1="94.85" y1="22.06" x2="94.85" y2="22.06"/>
						<path fill="#FAC017" d="M91.64,23.19c1.96-0.74,3.9-1.53,5.81-2.37C95.54,21.66,93.6,22.45,91.64,23.19"/>
						<path fill="#FAC017" d="M7.9,26.66c-0.23,0.25-0.46,0.51-0.66,0.78C7.04,27.71,6.85,28,6.7,28.29
							c-0.16,0.29-0.29,0.6-0.37,0.91c-0.08,0.29-0.12,0.6-0.1,0.89c-0.02-0.29,0.02-0.6,0.1-0.89c0.09-0.31,0.21-0.62,0.37-0.91
							c0.16-0.29,0.34-0.57,0.54-0.85C7.44,27.17,7.67,26.91,7.9,26.66"/>
						<path fill="#FAC017" d="M7.13,27.61c-0.11,0.15-0.21,0.31-0.3,0.47c-0.17,0.29-0.31,0.59-0.42,0.89
							c-0.03,0.09-0.06,0.18-0.08,0.26c0.02-0.09,0.05-0.18,0.08-0.26c0.1-0.31,0.25-0.61,0.42-0.89
							C6.92,27.92,7.02,27.76,7.13,27.61"/>
						<path fill="#FAC017" d="M6.23,30.18c0.01,0.07,0.01,0.15,0.03,0.22c0.01,0.03,0.01,0.08,0.02,0.1l0.03,0.12
							c0.04,0.13,0.09,0.28,0.15,0.41c0.13,0.28,0.32,0.55,0.53,0.79c0.22,0.24,0.47,0.46,0.73,0.65C8,32.67,8.28,32.85,8.58,33
							c0.3,0.16,0.61,0.3,0.92,0.43c0.23,0.1,0.48,0.19,0.72,0.27c0.32,0.11,0.65,0.22,0.98,0.31c0.33,0.1,0.67,0.18,1,0.26
							c0.33,0.08,0.67,0.15,1.01,0.22c0.25,0.05,0.51,0.1,0.77,0.14c0.34,0.06,0.68,0.12,1.03,0.17l0.77,0.1L15,34.81
							c-0.34-0.05-0.69-0.11-1.03-0.17c-0.26-0.04-0.51-0.09-0.77-0.14c-0.34-0.07-0.68-0.14-1.01-0.22c-0.34-0.08-0.67-0.17-1-0.26
							c-0.33-0.1-0.66-0.2-0.98-0.31c-0.24-0.09-0.48-0.18-0.72-0.27C9.19,33.3,8.88,33.16,8.58,33c-0.3-0.16-0.59-0.33-0.86-0.53
							c-0.27-0.2-0.52-0.41-0.73-0.65c-0.22-0.24-0.4-0.5-0.53-0.79c-0.06-0.13-0.11-0.28-0.15-0.41l-0.03-0.12
							c-0.01-0.02-0.01-0.07-0.02-0.1C6.25,30.33,6.24,30.26,6.23,30.18"/>
						<path fill="#FAC017" d="M6.27,30.35l0.02,0.12l0.03,0.13c0.01,0.06,0.03,0.1,0.04,0.15c0.02,0.05,0.04,0.1,0.06,0.15
							c-0.02-0.05-0.04-0.1-0.06-0.15c-0.01-0.05-0.03-0.09-0.04-0.15l-0.03-0.13L6.27,30.35"/>
						<path fill="#FAC017" d="M13.27,22.58c-0.97,0.58-1.93,1.2-2.83,1.87c-0.91,0.67-1.78,1.4-2.54,2.21
							c0.76-0.81,1.63-1.54,2.54-2.21C11.34,23.78,12.3,23.17,13.27,22.58"/>
						<path fill="#FAC017" d="M13.27,22.58c-0.97,0.58-1.93,1.2-2.83,1.87c-0.91,0.67-1.78,1.4-2.54,2.21
							c0.76-0.81,1.63-1.54,2.54-2.21C11.34,23.78,12.3,23.17,13.27,22.58"/>
						<line fill="none" x1="29.63" y1="36.2" x2="29.63" y2="36.2"/>
						<path fill="#FAC017" d="M29.63,36.2c-3.16,0.09-6.33,0.03-8.43-0.11c-1.47-0.1-3-0.24-4.59-0.46
							c-1.58-0.22-3.21-0.51-4.84-0.96c-0.82-0.23-1.63-0.5-2.43-0.84c-0.79-0.35-1.57-0.77-2.23-1.36
							c-0.33-0.3-0.62-0.64-0.84-1.03c-0.22-0.39-0.35-0.83-0.37-1.28c-0.04-0.91,0.34-1.77,0.84-2.51c-0.5,0.74-0.89,1.6-0.84,2.51
							c0.02,0.45,0.15,0.89,0.37,1.28c0.22,0.39,0.51,0.73,0.84,1.03c0.66,0.59,1.44,1.01,2.23,1.36c0.79,0.35,1.61,0.61,2.43,0.84
							c1.63,0.45,3.26,0.74,4.84,0.96c1.58,0.22,3.12,0.35,4.59,0.46C23.3,36.23,26.47,36.29,29.63,36.2"/>
						<path fill="#FAC017" d="M21.89,18.12c-3.24,1.38-6.56,2.93-9.67,4.85C15.33,21.05,18.65,19.5,21.89,18.12"/>
						<line fill="none" x1="30.16" y1="36.18" x2="30.16" y2="36.18"/>
						<line fill="none" x1="30.16" y1="36.18" x2="30.16" y2="36.18"/>
						<line fill="none" x1="30.95" y1="36.14" x2="30.95" y2="36.14"/>
						<line fill="none" x1="32" y1="36.08" x2="32" y2="36.08"/>
						<line fill="none" x1="40.66" y1="35.42" x2="40.66" y2="35.42"/>
						<line fill="none" x1="86.93" y1="25.63" x2="86.93" y2="25.63"/>
						<line fill="none" x1="33.31" y1="36" x2="33.31" y2="36"/>
						<line fill="none" x1="39.34" y1="35.45" x2="39.34" y2="35.45"/>
						<line fill="none" x1="40.12" y1="35.35" x2="40.12" y2="35.35"/>
						<line fill="none" x1="65.56" y1="31.23" x2="65.56" y2="31.23"/>
						<line fill="none" x1="92.08" y1="23.61" x2="92.08" y2="23.61"/>
						<line fill="none" x1="42.21" y1="35.02" x2="42.21" y2="35.02"/>
						<line fill="none" x1="21.89" y1="18.12" x2="21.89" y2="18.12"/>
						<line fill="none" x1="95.72" y1="22.09" x2="95.72" y2="22.09"/>
						<line fill="none" x1="47.51" y1="34.33" x2="47.51" y2="34.33"/>
						<line fill="none" x1="74.98" y1="28.84" x2="74.98" y2="28.84"/>
						<line fill="none" x1="88.07" y1="24.9" x2="88.07" y2="24.9"/>
						<line fill="none" x1="103.22" y1="18.32" x2="103.22" y2="18.32"/>
						<line fill="none" x1="17.19" y1="20.48" x2="17.19" y2="20.48"/>
						<path fill="#FEDC91" d="M19.62,19.48l0.96-0.42c-1.21,0.53-2.43,1.09-3.65,1.71l0.56-0.28l1.18-0.57L19.62,19.48"/>
						<polyline fill="#FEDC91" points="20.31,19.19 19.62,19.5 18.97,19.79 20.31,19.19 						"/>
						<path fill="#FEDC91" d="M17.86,20.31l-0.37,0.18c-0.39,0.19-0.78,0.38-1.17,0.58l-0.65,0.34
							C16.36,21.05,17.09,20.68,17.86,20.31"/>
						<line fill="none" x1="100.13" y1="19.75" x2="100.13" y2="19.75"/>
						<polyline fill="#FEDC91" points="15.41,21.55 15.4,21.56 15.39,21.56 15.41,21.55 						"/>
						<line fill="none" x1="10.44" y1="24.89" x2="10.44" y2="24.89"/>
						<line fill="none" x1="74.57" y1="28.3" x2="74.57" y2="28.3"/>
						<line fill="none" x1="60.25" y1="31.48" x2="60.25" y2="31.48"/>
						<line fill="none" x1="61.53" y1="31.23" x2="61.53" y2="31.23"/>
						<line fill="none" x1="25.68" y1="34.86" x2="25.68" y2="34.86"/>
						<polyline fill="#FAC019" points="28.67,16.01 28.17,16.19 28.67,16.01 						"/>
						<path fill="#FAC017" d="M26.67,16.65c6.17-2.23,12.24-3.93,18.61-5.5c-1.27,0.34-2.53,0.7-3.79,1.07l0.5-0.15
							c-0.85,0.22-1.92,0.51-3.08,0.84l-1.81,0.52c-1.86,0.54-3.8,1.15-5.42,1.67c-0.67,0.2-1.34,0.41-2,0.62l0,0l-0.26,0.05
							l1.48-0.54c-0.74,0.26-1.49,0.52-2.23,0.79l-0.49,0.18c-2.05,0.75-4.08,1.56-6.09,2.42C23.6,17.92,25.13,17.27,26.67,16.65"/>
						<path fill="#FAC017" d="M38.91,12.9c1.17-0.33,2.24-0.62,3.08-0.84C41.15,12.28,40.08,12.57,38.91,12.9l-1.81,0.52L38.91,12.9
							"/>
						<polyline fill="#FAC017" points="41.99,12.06 41.49,12.21 41.99,12.06 						"/>
						<polyline fill="#FAC017" points="29.41,15.75 29.67,15.7 29.67,15.71 29.41,15.75 						"/>
						<path fill="#FAC017" d="M26.67,16.65c-1.54,0.62-3.07,1.27-4.58,1.96C23.6,17.92,25.13,17.27,26.67,16.65"/>
						<path fill="#FAC017" d="M27.59,15.89c3.7-1.34,8.47-2.78,12.5-3.84c-1.63,0.51-3.89,1.22-6.29,2.02
							c-2.4,0.8-4.93,1.71-7.13,2.58c-1.31,0.48-2.62,0.98-3.92,1.5c0.73-0.31,1.45-0.6,2.18-0.9c0.32-0.14,1.58-0.62,1.7-0.68
							c0.08-0.04-0.32,0.09-1.73,0.62c-0.71,0.27-1.66,0.64-2.93,1.16c-1.27,0.53-2.85,1.2-4.77,2.14c-1.33,0.65-2.65,1.35-3.92,2.1
							c2.13-1.27,4.25-2.33,6.24-3.26c1.99-0.93,3.87-1.72,5.57-2.42c-1.07,0.39-2.14,0.79-3.19,1.22c0.65-0.27,1.29-0.54,1.94-0.81
							c0.77-0.31,1.68-0.67,2.7-1.05L27.59,15.89"/>
						<path fill="#FAC017" d="M25.08,16.91c-1.7,0.7-3.58,1.49-5.57,2.42c-1.99,0.93-4.11,1.98-6.24,3.26
							c2.13-1.27,4.25-2.33,6.24-3.26C21.51,18.4,23.38,17.6,25.08,16.91"/>
						<path fill="#FAC017" d="M26.63,16.57c-0.12,0.06-1.38,0.55-1.7,0.68c-0.73,0.29-1.46,0.59-2.18,0.9
							c0.73-0.31,1.45-0.6,2.18-0.9C25.25,17.11,26.51,16.62,26.63,16.57"/>
						<line fill="none" x1="15.11" y1="21.11" x2="15.11" y2="21.11"/>
						<path fill="#FBC842" d="M15.11,21.11c1.93-1.02,3.91-1.93,5.91-2.78c6.02-2.54,12.23-4.55,18.51-6.3
							c1.91-0.52,3.82-1.01,5.73-1.49l1.92-0.47c2.08-0.35,3.91-0.6,5.23-0.72c-2.39,0.56-4.76,1.15-7.13,1.78
							c-6.36,1.57-12.44,3.28-18.61,5.5c2.2-0.87,4.73-1.77,7.13-2.58c2.4-0.8,4.66-1.51,6.29-2.02c-4.02,1.06-8.8,2.5-12.5,3.84
							l0,0l-1.05,0.38c-1.02,0.38-1.93,0.73-2.7,1.05c-0.65,0.26-1.3,0.53-1.94,0.81c-2.1,0.84-4.34,1.82-6.6,3
							c-1.14,0.59-2.28,1.23-3.4,1.94c-1.12,0.71-2.23,1.49-3.26,2.39c-0.34,0.3-0.68,0.61-0.99,0.95c-0.5,0.54-0.97,1.12-1.32,1.78
							c-0.35,0.66-0.57,1.42-0.48,2.18c0.09,0.79,0.53,1.49,1.09,2.02c0.56,0.54,1.22,0.94,1.91,1.27c0.23,0.13,0.47,0.26,0.71,0.37
							c-0.74-0.3-1.46-0.66-2.11-1.13c-0.65-0.48-1.24-1.1-1.52-1.89c-0.14-0.4-0.19-0.81-0.16-1.23c0.03-0.41,0.14-0.82,0.3-1.19
							c0.32-0.76,0.8-1.41,1.33-2.01c1.07-1.19,2.34-2.16,3.65-3.04C12.34,22.64,13.72,21.85,15.11,21.11"/>
						<line fill="none" x1="39.53" y1="12.03" x2="39.53" y2="12.03"/>
						<line fill="none" x1="47.18" y1="10.08" x2="47.18" y2="10.08"/>
						<line fill="none" x1="47.18" y1="10.08" x2="47.18" y2="10.08"/>
						<path fill="#FAC017" d="M15.11,21.11c-1.4,0.74-2.77,1.53-4.08,2.41c-1.31,0.88-2.58,1.85-3.65,3.04
							c-0.53,0.6-1.02,1.25-1.33,2.01c-0.16,0.38-0.27,0.78-0.3,1.19c-0.03,0.42,0.02,0.84,0.16,1.23c0.28,0.79,0.87,1.42,1.52,1.89
							c0.65,0.48,1.37,0.83,2.11,1.13c-0.74-0.3-1.46-0.66-2.11-1.13c-0.65-0.48-1.24-1.1-1.52-1.89c-0.14-0.4-0.19-0.81-0.16-1.23
							c0.03-0.41,0.14-0.82,0.3-1.19c0.32-0.76,0.8-1.41,1.33-2.01c1.07-1.19,2.34-2.16,3.65-3.04
							C12.34,22.64,13.72,21.85,15.11,21.11"/>
						<path fill="#FAC017" d="M21.02,18.33c6.02-2.54,12.23-4.55,18.51-6.3C33.25,13.78,27.04,15.79,21.02,18.33"/>
						<path fill="#FAC017" d="M5.84,30.36c-0.1-0.76,0.13-1.52,0.48-2.18c0.35-0.66,0.82-1.24,1.32-1.78
							c0.31-0.33,0.65-0.65,0.99-0.95c1.03-0.9,2.14-1.68,3.26-2.39c1.12-0.71,2.27-1.35,3.4-1.94c-1.14,0.59-2.28,1.23-3.4,1.94
							c-1.12,0.71-2.23,1.48-3.26,2.39c-0.34,0.3-0.67,0.61-0.99,0.95c-0.5,0.54-0.97,1.12-1.32,1.78
							C5.97,28.83,5.74,29.6,5.84,30.36"/>
						<line fill="none" x1="39.53" y1="12.03" x2="39.53" y2="12.03"/>
						<line fill="none" x1="39.53" y1="12.03" x2="39.53" y2="12.03"/>
						<line fill="none" x1="8.63" y1="25.45" x2="8.63" y2="25.45"/>
						<polyline fill="#FAC017" points="27.58,15.89 27.59,15.89 26.54,16.27 27.58,15.89 						"/>
						<path fill="#FAC017" d="M40.08,12.05c-1.63,0.51-3.89,1.22-6.29,2.02c-2.4,0.8-4.93,1.71-7.13,2.58
							c2.2-0.87,4.73-1.77,7.13-2.58C36.19,13.26,38.45,12.56,40.08,12.05"/>
						<line fill="none" x1="47.18" y1="10.08" x2="47.18" y2="10.08"/>
						<line fill="none" x1="39.53" y1="12.03" x2="39.53" y2="12.03"/>
						<line fill="none" x1="39.53" y1="12.03" x2="39.53" y2="12.03"/>
						<path fill="#FAC019" d="M39.53,12.03c2.54-0.7,5.09-1.35,7.65-1.96l-1.92,0.47C43.35,11.02,41.44,11.52,39.53,12.03"/>
						<line fill="none" x1="47.18" y1="10.08" x2="47.18" y2="10.08"/>
						<path fill="#FAC017" d="M39.53,12.03c2.54-0.7,5.09-1.35,7.65-1.96C44.62,10.68,42.07,11.33,39.53,12.03"/>
					</g>
				</g>
			</g>
		</g>
		<path fill="#878787" d="M18.52,35.1c0.26,2.04-1.19,3.9-3.23,4.16c-2.04,0.26-3.9-1.19-4.16-3.23c-0.26-2.04,1.19-3.9,3.23-4.15
			C16.4,31.62,18.26,33.06,18.52,35.1z"/>
		<g>
			<path fill="#878787" d="M79.19,11.21c-1.06-0.04-1.9-0.94-1.85-2c0.04-1.07,0.94-1.9,2.01-1.86c1.06,0.04,1.9,0.94,1.86,2
				C81.16,10.42,80.26,11.25,79.19,11.21z"/>
			<path fill="#878787" d="M77.65,5.75c1.93-0.8,4.13,0.04,5.05,1.88l0,0c0.04,0.08,0.08,0.16,0.11,0.25l0,0l-0.54,0.21
				c-0.03-0.07-0.06-0.13-0.09-0.2l0,0c-0.78-1.57-2.67-2.3-4.31-1.61l0,0h0L77.65,5.75L77.65,5.75z"/>
			<path fill="#878787" d="M75.78,1.24c4.31-1.79,9.24,0.09,11.29,4.21l0,0c0.09,0.18,0.17,0.36,0.25,0.55l0,0l-0.53,0.22
				c-0.07-0.18-0.15-0.35-0.24-0.52l0,0C84.64,1.85,80.03,0.09,76,1.77l0,0v0L75.78,1.24L75.78,1.24z"/>
			<path fill="#878787" d="M76.93,4.03L76.93,4.03L76.93,4.03L76.93,4.03L76.93,4.03L76.93,4.03z M76.71,3.5
				c3.12-1.3,6.69,0.06,8.17,3.05l0,0c0.06,0.13,0.12,0.26,0.18,0.4l0,0l-0.53,0.22c-0.05-0.12-0.11-0.24-0.16-0.36l0,0
				c-1.35-2.71-4.59-3.95-7.44-2.77l0,0L76.71,3.5L76.71,3.5z"/>
		</g>
		<polygon fill="#878787" points="28.46,-0.05 30.03,3.02 33.42,2.47 30.99,4.91 32.55,7.97 29.48,6.41 27.05,8.84 27.59,5.45 
			24.52,3.88 27.92,3.35 		"/>
		<polygon fill="#878787" points="66.32,44.63 63.6,42.74 63.89,39.44 66.88,38.04 69.6,39.93 69.31,43.23 		"/>
		<g>
			<path fill="#878787" d="M48.5,17.48h-1.12v-1.21c0-0.28-0.08-0.58-0.32-0.8c-0.23-0.21-0.53-0.28-0.81-0.28
				c-0.28,0-0.58,0.07-0.8,0.28c-0.23,0.22-0.31,0.51-0.31,0.79c0,0,0,0,0,0.01l0,0v1.21c-0.25,0.02-0.5,0.09-0.71,0.28
				c-0.23,0.22-0.31,0.51-0.31,0.79c0,0,0,0,0,0.01c0,0.01,0,0.01,0,0.01c0,0.28,0.08,0.57,0.31,0.79c0.2,0.19,0.46,0.26,0.71,0.28
				v5.49c0,0,0,0.01,0,0.01c0,0.28,0.08,0.57,0.31,0.79c0.22,0.2,0.49,0.27,0.76,0.28h0h0.06c0.28,0,0.57-0.07,0.79-0.28
				c0.21-0.2,0.3-0.46,0.31-0.71l0,0v-5.57l1.11,0c0.28,0,0.58-0.07,0.8-0.28c0.23-0.21,0.31-0.51,0.31-0.79v-0.01
				c0-0.01,0-0.02,0-0.02c0-0.28-0.08-0.57-0.31-0.79C49.08,17.54,48.78,17.48,48.5,17.48z M42.67,21.54
				c-0.56-0.51-1.27-0.77-2.05-0.77c0,0,0,0-0.02,0l-4.46,0c-0.23,0-0.36-0.06-0.52-0.19c-0.15-0.14-0.18-0.21-0.18-0.39
				c0.01-0.17,0.04-0.24,0.19-0.38c0.15-0.12,0.29-0.18,0.52-0.18h4.47c0.28,0,0.58-0.06,0.81-0.28c0.23-0.21,0.31-0.51,0.31-0.78
				v-0.02c0-0.01,0-0.01,0-0.01c0-0.28-0.09-0.58-0.32-0.79c-0.23-0.21-0.52-0.27-0.8-0.27h-4.48c-0.78,0-1.49,0.26-2.06,0.78
				c-0.57,0.5-0.89,1.18-0.89,1.93c0,0,0,0.01,0,0.02v0.01c0,0.75,0.32,1.43,0.88,1.93c0.56,0.51,1.27,0.77,2.04,0.77l0,0l4.49,0
				c0.23,0,0.36,0.06,0.52,0.19c0.15,0.15,0.18,0.21,0.19,0.39c-0.01,0.17-0.04,0.23-0.19,0.38c-0.15,0.13-0.29,0.18-0.52,0.18h-6.3
				c-0.28,0-0.58,0.06-0.81,0.28c-0.23,0.21-0.31,0.51-0.31,0.79c0,0,0,0,0,0.01c0,0,0,0.01,0,0.01c0,0.28,0.09,0.57,0.32,0.79
				c0.23,0.21,0.52,0.28,0.81,0.27l6.31,0h0c0.75,0,1.44-0.25,2-0.74c0.6-0.49,0.93-1.19,0.93-1.96v0c0-0.02,0-0.02,0-0.02
				C43.56,22.73,43.25,22.04,42.67,21.54z M10.09,24.33c-0.23-0.21-0.53-0.28-0.81-0.28l0,0h-6.3c-0.23,0-0.37-0.05-0.53-0.19
				c-0.14-0.14-0.17-0.2-0.18-0.38v-3.29c0.01-0.18,0.04-0.24,0.19-0.38c0.16-0.13,0.29-0.18,0.52-0.18h4.47
				c0.28,0,0.58-0.06,0.81-0.28c0.23-0.22,0.31-0.51,0.31-0.79v-0.02c0-0.01,0-0.01,0-0.01c0-0.28-0.08-0.57-0.31-0.79
				c-0.23-0.21-0.53-0.27-0.8-0.27l-4.47,0h0c-0.78,0-1.5,0.26-2.06,0.77c-0.57,0.5-0.88,1.18-0.88,1.93c0,0,0,0.01,0,0.03l0,3.27
				v0.01c0,0.75,0.32,1.42,0.89,1.93c0.57,0.51,1.27,0.78,2.05,0.77l6.31,0c0.28,0,0.57-0.07,0.8-0.28c0.23-0.21,0.31-0.5,0.32-0.77
				v-0.02c0-0.01,0-0.01,0-0.01C10.41,24.84,10.32,24.55,10.09,24.33z M20.76,18.25c-0.56-0.51-1.27-0.77-2.05-0.77h0
				c0,0-0.01,0-0.02,0h-4.44c0,0-0.01,0-0.02,0c-0.78,0-1.5,0.26-2.06,0.77c-0.57,0.5-0.88,1.18-0.88,1.93c0,0,0,0.01,0,0.02l0,3.28
				v0.01c0,0.74,0.32,1.42,0.89,1.93c0.56,0.51,1.27,0.77,2.04,0.77h0h4.5c0.75,0,1.44-0.25,2-0.74c0.6-0.49,0.93-1.19,0.93-1.96
				l0,0v-3.31c0-0.01,0-0.01,0-0.01C21.65,19.43,21.33,18.75,20.76,18.25z M19.41,23.48c-0.01,0.18-0.04,0.24-0.19,0.39
				c-0.16,0.13-0.29,0.18-0.52,0.18h-4.47c-0.23,0-0.37-0.05-0.53-0.19c-0.15-0.14-0.17-0.2-0.18-0.38v-3.29
				c0.01-0.17,0.03-0.24,0.19-0.38c0.15-0.12,0.29-0.18,0.52-0.18h4.47c0.23,0,0.36,0.06,0.52,0.19c0.15,0.14,0.18,0.21,0.19,0.38
				V23.48L19.41,23.48z M31.11,18.25c-0.56-0.51-1.27-0.77-2.05-0.77c0,0,0,0,0,0c0,0-0.01,0-0.01,0H26.1c-0.4,0-0.78,0.07-1.14,0.2
				c-0.19-0.14-0.43-0.2-0.66-0.2c0,0-0.02,0-0.04,0c-0.28,0-0.57,0.06-0.79,0.27c-0.23,0.21-0.32,0.5-0.32,0.78c0,0,0,0.01,0,0.03
				v6.56v0.01c0,0.27,0.08,0.57,0.32,0.78c0.23,0.21,0.52,0.27,0.8,0.27c0.28,0,0.57-0.07,0.8-0.27c0.23-0.21,0.32-0.51,0.31-0.78
				V20.2c0.01-0.18,0.04-0.24,0.19-0.38c0.16-0.13,0.3-0.18,0.53-0.19l2.94,0c0.23,0,0.37,0.06,0.52,0.19
				c0.15,0.14,0.18,0.2,0.19,0.38v4.93c0,0,0,0,0,0.01c0,0.28,0.09,0.57,0.32,0.78c0.23,0.21,0.52,0.28,0.81,0.28
				c0.28,0,0.57-0.07,0.8-0.27c0.23-0.21,0.31-0.5,0.32-0.78V20.2c0-0.01,0-0.01,0-0.01C32,19.43,31.68,18.75,31.11,18.25z
				 M89.12,14.95c-0.26-0.25-0.61-0.33-0.96-0.33c-0.34,0-0.69,0.08-0.95,0.33c-0.26,0.24-0.36,0.59-0.36,0.92c0,0,0,0.01,0,0.02v0
				c0,0.34,0.1,0.68,0.36,0.92c0.26,0.24,0.61,0.32,0.95,0.32c0.34,0,0.69-0.08,0.96-0.33c0.25-0.24,0.35-0.57,0.36-0.9v0v-0.04
				c0-0.01,0-0.02,0-0.02C89.47,15.53,89.37,15.19,89.12,14.95z M100.46,18.25c-0.56-0.51-1.28-0.77-2.06-0.77c0,0,0,0,0,0
				s-0.01,0-0.02,0h-4.44c0,0-0.01,0-0.02,0c-0.78,0-1.5,0.26-2.06,0.77c-0.57,0.5-0.89,1.18-0.88,1.93c0,0,0,0,0,0.01v3.29
				c0,0,0,0,0,0c0,0,0,0.01,0,0.02c0,0.75,0.32,1.42,0.89,1.93c0.56,0.51,1.28,0.78,2.05,0.77h4.5c0.75,0,1.44-0.25,2-0.74
				c0.6-0.49,0.93-1.19,0.93-1.96l0,0v-3.31c0-0.01,0-0.01,0-0.01C101.35,19.43,101.03,18.75,100.46,18.25z M99.1,23.48
				c-0.01,0.18-0.04,0.24-0.19,0.39c-0.16,0.13-0.29,0.18-0.52,0.18h-4.47c-0.23,0-0.37-0.06-0.52-0.18
				c-0.15-0.14-0.18-0.2-0.19-0.39v-3.29c0.01-0.18,0.03-0.24,0.19-0.38c0.15-0.13,0.29-0.18,0.52-0.19h4.47
				c0.23,0,0.37,0.06,0.53,0.19c0.14,0.14,0.17,0.2,0.18,0.38L99.1,23.48L99.1,23.48L99.1,23.48z M59.98,18.25
				c-0.56-0.51-1.27-0.77-2.05-0.77l0,0h-0.01c-0.01,0-0.01,0-0.03,0h-4.45c-0.78,0-1.5,0.26-2.06,0.77
				c-0.57,0.5-0.89,1.18-0.88,1.93c0,0,0,0.01,0,0.03l0,3.27v0.01c0,0.74,0.32,1.42,0.89,1.93c0.56,0.51,1.27,0.77,2.04,0.77h4.48
				c0.28,0,0.57-0.06,0.8-0.28c0.23-0.21,0.31-0.5,0.31-0.78v-0.01c0-0.01,0-0.01,0-0.01c0-0.28-0.08-0.58-0.31-0.79
				c-0.23-0.22-0.53-0.28-0.81-0.28h-4.47c-0.23,0-0.37-0.05-0.53-0.19c-0.15-0.14-0.17-0.2-0.18-0.38v-0.57l5.39,0V22.9
				c0.67-0.04,1.29-0.29,1.8-0.72c0.6-0.51,0.94-1.2,0.94-1.98h0c0-0.02,0-0.03,0-0.03C60.86,19.43,60.55,18.75,59.98,18.25z
				 M58.43,20.58L58.43,20.58c-0.16,0.13-0.29,0.18-0.52,0.19l-5.17,0v-0.58c0.01-0.18,0.03-0.24,0.19-0.38
				c0.15-0.13,0.3-0.18,0.52-0.19h4.47c0.23,0,0.36,0.05,0.52,0.17c0.15,0.14,0.18,0.22,0.19,0.4
				C58.61,20.37,58.58,20.44,58.43,20.58z M89.28,18.54c0-0.28-0.09-0.57-0.31-0.78c-0.23-0.21-0.53-0.28-0.81-0.28
				c-0.28,0-0.58,0.07-0.81,0.28c-0.23,0.21-0.31,0.5-0.31,0.78c0,0,0,0.01,0,0.04l0,6.55v0.02c0,0.28,0.09,0.57,0.31,0.78
				c0.23,0.21,0.52,0.28,0.81,0.28h0c0.28,0,0.58-0.07,0.8-0.28c0.23-0.21,0.31-0.5,0.31-0.77v0v-6.59
				C89.28,18.55,89.28,18.54,89.28,18.54L89.28,18.54z M111.69,20.18c0-0.75-0.31-1.43-0.88-1.93c-0.56-0.51-1.27-0.77-2.05-0.77
				c0,0,0,0,0,0c0,0-0.01,0-0.02,0h-2.93c-0.4,0-0.78,0.07-1.13,0.2c-0.19-0.14-0.43-0.2-0.67-0.2h-0.01c-0.01,0-0.02,0-0.03,0
				c-0.28,0-0.57,0.06-0.79,0.27c-0.23,0.21-0.32,0.51-0.32,0.79v0c0,0,0,0.01,0,0.02v6.56c0,0.01,0,0.02,0,0.02
				c0,0.28,0.08,0.58,0.32,0.79c0.23,0.21,0.52,0.27,0.8,0.27c0.28,0,0.57-0.07,0.81-0.27c0.23-0.21,0.31-0.5,0.32-0.77l0,0v-4.96
				c0.01-0.17,0.04-0.24,0.19-0.38c0.16-0.13,0.3-0.18,0.52-0.19l2.95,0c0.23,0,0.37,0.06,0.52,0.19c0.15,0.14,0.17,0.2,0.19,0.39
				v4.93c0-0.01,0,0.01,0,0.02c0,0.27,0.09,0.57,0.31,0.78c0.23,0.21,0.53,0.28,0.81,0.28h0c0.28,0,0.57-0.07,0.8-0.27
				c0.23-0.21,0.31-0.5,0.31-0.78l0,0v-4.96C111.69,20.18,111.69,20.18,111.69,20.18z M85.66,17.76c-0.23-0.21-0.52-0.28-0.81-0.28
				h-1.11v-1.21c0,0,0-0.01,0-0.01l0,0l0,0c0-0.28-0.08-0.58-0.31-0.79c-0.23-0.21-0.52-0.28-0.81-0.28c-0.28,0-0.58,0.06-0.81,0.28
				c-0.23,0.22-0.32,0.51-0.32,0.79c0,0,0,0.01,0,0.02v1.19c-0.25,0.02-0.5,0.09-0.7,0.28c-0.23,0.22-0.31,0.52-0.31,0.8
				c0,0,0,0.01,0,0.02c0,0.28,0.08,0.57,0.31,0.79c0.2,0.18,0.46,0.26,0.71,0.27v5.49l0,0c0,0,0,0.01,0,0.01
				c0,0.28,0.08,0.58,0.31,0.79c0.23,0.21,0.53,0.28,0.81,0.28h0c0.28,0,0.57-0.07,0.8-0.28c0.22-0.21,0.31-0.5,0.31-0.77l0,0v-5.52
				l1.11,0c0.28,0,0.58-0.07,0.81-0.28c0.23-0.21,0.31-0.5,0.31-0.77v0v-0.02c0-0.02,0-0.02,0-0.02
				C85.97,18.27,85.89,17.97,85.66,17.76z M64.3,14.48c0-0.28-0.08-0.58-0.31-0.79c-0.23-0.22-0.53-0.29-0.81-0.29
				s-0.58,0.07-0.81,0.28c-0.23,0.22-0.31,0.51-0.31,0.8v10.64c0,0.28,0.08,0.58,0.31,0.79c0.22,0.21,0.5,0.28,0.78,0.28h0h0.02
				c0,0,0.01,0,0.01,0c0,0,0.01,0,0.01,0h0c0.28,0,0.58-0.07,0.8-0.28c0.23-0.22,0.31-0.51,0.31-0.79l0,0V14.5
				C64.3,14.48,64.3,14.48,64.3,14.48z M78.73,18.25c-0.56-0.51-1.28-0.77-2.06-0.77c0,0,0,0,0,0c0,0-0.01,0-0.02,0h-4.46
				c-0.28,0-0.58,0.06-0.8,0.28c-0.23,0.21-0.32,0.51-0.32,0.78v0.02c0,0.28,0.08,0.57,0.31,0.79c0.23,0.21,0.53,0.28,0.81,0.28
				h4.47c0.23,0,0.36,0.06,0.52,0.19c0.15,0.14,0.17,0.2,0.18,0.38v0.56l-5.17,0c0,0-0.01,0-0.02,0c-0.78,0-1.49,0.26-2.06,0.78
				c-0.57,0.5-0.89,1.19-0.89,1.94c0,0,0,0,0,0.01v0.01c0,0.75,0.32,1.43,0.89,1.93c0.56,0.5,1.26,0.77,2.03,0.77l0,0h4.49h0
				c0.4,0,0.78-0.07,1.13-0.21c0.19,0.14,0.43,0.21,0.66,0.21c0.01,0,0.02,0,0.03,0h0.01c0.28,0,0.57-0.07,0.79-0.27
				c0.22-0.2,0.3-0.48,0.32-0.73l0,0v-0.04c0-0.01,0-0.01,0-0.02v-4.94c0-0.01,0-0.01,0-0.01C79.61,19.43,79.3,18.75,78.73,18.25z
				 M77.37,23.48c-0.01,0.18-0.04,0.24-0.19,0.39c-0.16,0.13-0.29,0.18-0.52,0.19l-4.47,0c-0.23,0-0.37-0.05-0.52-0.18
				c-0.15-0.14-0.17-0.21-0.18-0.39c0.01-0.16,0.04-0.24,0.19-0.39c0.16-0.13,0.29-0.18,0.52-0.19h5.18V23.48L77.37,23.48z
				 M68.04,14.47c0-0.28-0.09-0.57-0.31-0.78c-0.23-0.21-0.53-0.29-0.81-0.29s-0.58,0.07-0.81,0.29c-0.23,0.22-0.31,0.52-0.31,0.8
				v10.63c0,0.28,0.08,0.58,0.31,0.8c0.22,0.21,0.51,0.28,0.78,0.29h0h0.04c0.28,0,0.57-0.07,0.8-0.28
				c0.22-0.21,0.31-0.51,0.31-0.78v-0.02h0l0-10.62C68.04,14.48,68.04,14.47,68.04,14.47z"/>
			<path fill="#878787" d="M42.67,21.54c-0.56-0.51-1.27-0.77-2.05-0.77c0,0,0,0-0.02,0l-4.46,0c-0.23,0-0.36-0.06-0.52-0.19
				c-0.15-0.14-0.18-0.21-0.18-0.39c0.01-0.17,0.04-0.24,0.19-0.38c0.15-0.12,0.29-0.18,0.52-0.18h4.47c0.28,0,0.58-0.06,0.81-0.28
				c0.23-0.21,0.31-0.51,0.31-0.78v-0.02c0-0.01,0-0.01,0-0.01c0-0.28-0.09-0.58-0.32-0.79c-0.23-0.21-0.52-0.27-0.8-0.27h-4.48
				c-0.78,0-1.49,0.26-2.06,0.78c-0.57,0.5-0.89,1.18-0.89,1.93c0,0,0,0.01,0,0.02v0.01c0,0.75,0.32,1.43,0.88,1.93
				c0.56,0.51,1.27,0.77,2.04,0.77l0,0l4.49,0c0.23,0,0.36,0.06,0.52,0.19c0.15,0.15,0.18,0.21,0.19,0.39
				c-0.01,0.17-0.04,0.23-0.19,0.38c-0.15,0.13-0.29,0.18-0.52,0.18h-6.3c-0.28,0-0.58,0.06-0.81,0.28
				c-0.23,0.21-0.31,0.51-0.31,0.79c0,0,0,0,0,0.01c0,0,0,0.01,0,0.01c0,0.28,0.09,0.57,0.32,0.79c0.23,0.21,0.52,0.28,0.81,0.27
				l6.31,0h0c0.75,0,1.44-0.25,2-0.74c0.6-0.49,0.93-1.19,0.93-1.96v0c0-0.02,0-0.02,0-0.02C43.56,22.73,43.25,22.04,42.67,21.54z"
				/>
			<path fill="#878787" d="M48.5,17.48h-1.12v-1.21c0-0.28-0.08-0.58-0.32-0.8c-0.23-0.21-0.53-0.28-0.81-0.28
				c-0.28,0-0.58,0.07-0.8,0.28c-0.23,0.22-0.31,0.51-0.31,0.79c0,0,0,0,0,0.01l0,0v1.21c-0.25,0.02-0.5,0.09-0.71,0.28
				c-0.23,0.22-0.31,0.51-0.31,0.79c0,0,0,0,0,0.01c0,0.01,0,0.01,0,0.01c0,0.28,0.08,0.57,0.31,0.79c0.2,0.19,0.46,0.26,0.71,0.28
				v5.49c0,0,0,0.01,0,0.01c0,0.28,0.08,0.57,0.31,0.79c0.22,0.2,0.49,0.27,0.76,0.28h0h0.06c0.28,0,0.57-0.07,0.79-0.28
				c0.21-0.2,0.3-0.46,0.31-0.71l0,0v-5.57l1.11,0c0.28,0,0.58-0.07,0.8-0.28c0.23-0.21,0.31-0.51,0.31-0.79v-0.01
				c0-0.01,0-0.02,0-0.02c0-0.28-0.08-0.57-0.31-0.79C49.08,17.54,48.78,17.48,48.5,17.48z"/>
			<path fill="#878787" d="M3.57,26.2c0.5-0.79,1.13-1.51,1.86-2.15H2.99c-0.23,0-0.37-0.05-0.53-0.19
				c-0.14-0.14-0.17-0.2-0.18-0.38v-3.29c0.01-0.18,0.04-0.24,0.19-0.38c0.16-0.13,0.29-0.18,0.52-0.18h4.47
				c0.28,0,0.58-0.06,0.81-0.28c0.23-0.22,0.31-0.51,0.31-0.79v-0.02c0-0.01,0-0.01,0-0.01c0-0.28-0.08-0.57-0.31-0.79
				c-0.23-0.21-0.53-0.27-0.8-0.27l-4.47,0h0c-0.78,0-1.5,0.26-2.06,0.77c-0.57,0.5-0.88,1.18-0.88,1.93c0,0,0,0.01,0,0.03l0,3.27
				v0.01c0,0.75,0.32,1.42,0.89,1.93c0.57,0.51,1.27,0.78,2.05,0.77L3.57,26.2L3.57,26.2L3.57,26.2z"/>
			<path fill="#878787" d="M59.98,18.25c-0.56-0.51-1.27-0.77-2.05-0.77l0,0h-0.01c-0.01,0-0.01,0-0.03,0h-4.45
				c-0.78,0-1.5,0.26-2.06,0.77c-0.57,0.5-0.89,1.18-0.88,1.93c0,0,0,0.01,0,0.03l0,3.27v0.01c0,0.74,0.32,1.42,0.89,1.93
				c0.56,0.51,1.27,0.77,2.04,0.77h4.48c0.28,0,0.57-0.06,0.8-0.28c0.23-0.21,0.31-0.5,0.31-0.78v-0.01c0-0.01,0-0.01,0-0.01
				c0-0.28-0.08-0.58-0.31-0.79c-0.23-0.22-0.53-0.28-0.81-0.28h-4.47c-0.23,0-0.37-0.05-0.53-0.19c-0.15-0.14-0.17-0.2-0.18-0.38
				v-0.57l5.39,0V22.9c0.67-0.04,1.29-0.29,1.8-0.72c0.6-0.51,0.94-1.2,0.94-1.98h0c0-0.02,0-0.03,0-0.03
				C60.86,19.43,60.55,18.75,59.98,18.25z M58.43,20.58c-0.16,0.13-0.29,0.18-0.52,0.19l-5.17,0v-0.58
				c0.01-0.18,0.03-0.24,0.19-0.38c0.15-0.13,0.3-0.18,0.52-0.19h4.47c0.23,0,0.36,0.05,0.52,0.17c0.15,0.14,0.18,0.22,0.19,0.4
				C58.61,20.37,58.58,20.44,58.43,20.58z"/>
			<path fill="#878787" d="M85.97,18.54c0-0.28-0.08-0.57-0.31-0.78c-0.23-0.21-0.53-0.28-0.81-0.28h-1.11v-1.21c0,0,0-0.01,0-0.01
				l0,0v0c0-0.28-0.08-0.58-0.31-0.79c-0.23-0.21-0.53-0.28-0.81-0.28c-0.28,0-0.58,0.06-0.81,0.28c-0.23,0.22-0.31,0.51-0.31,0.79
				c0,0,0,0.01,0,0.02v1.19c-0.25,0.02-0.5,0.09-0.7,0.28c-0.23,0.22-0.31,0.52-0.31,0.8c0,0,0,0.01,0,0.02
				c0,0.28,0.08,0.57,0.31,0.79c0.2,0.18,0.46,0.26,0.7,0.27v4.18c0.28-0.14,0.6-0.22,0.89-0.19c0,0,0.01,0,0.01,0
				c0.39,0,0.75,0.1,1.08,0.29c0.09,0.07,0.17,0.13,0.26,0.2v-4.47l1.11,0c0.28,0,0.58-0.07,0.81-0.28c0.23-0.21,0.31-0.5,0.31-0.77
				l0,0v-0.02C85.97,18.54,85.97,18.54,85.97,18.54z"/>
			<path fill="#878787" d="M64.3,14.48c0-0.28-0.08-0.58-0.31-0.79c-0.23-0.22-0.53-0.29-0.81-0.29s-0.58,0.07-0.81,0.28
				c-0.23,0.22-0.31,0.51-0.31,0.8v10.64c0,0.28,0.08,0.58,0.31,0.79c0.22,0.21,0.5,0.28,0.78,0.28h0h0.02c0,0,0.01,0,0.01,0
				c0,0,0.01,0,0.01,0h0c0.28,0,0.58-0.07,0.8-0.28c0.23-0.22,0.31-0.51,0.31-0.79l0,0V14.5C64.3,14.48,64.3,14.48,64.3,14.48z"/>
			<path fill="#878787" d="M68.04,14.47c0-0.28-0.09-0.57-0.31-0.78c-0.23-0.21-0.53-0.29-0.81-0.29s-0.58,0.07-0.81,0.29
				c-0.23,0.22-0.31,0.52-0.31,0.8v10.63c0,0.28,0.08,0.58,0.31,0.8c0.22,0.21,0.51,0.28,0.78,0.29h0h0.04
				c0.28,0,0.57-0.07,0.8-0.28c0.22-0.21,0.31-0.51,0.31-0.78v-0.02h0l0-10.62C68.04,14.48,68.04,14.47,68.04,14.47z"/>
			<path fill="#878787" d="M78.73,18.25c-0.56-0.51-1.28-0.77-2.06-0.77c0,0,0,0,0,0c0,0-0.01,0-0.02,0h-4.46
				c-0.28,0-0.58,0.06-0.8,0.28c-0.23,0.21-0.32,0.51-0.32,0.78v0.02c0,0.28,0.08,0.57,0.31,0.79c0.23,0.21,0.53,0.28,0.81,0.28
				h4.47c0.23,0,0.36,0.06,0.52,0.19c0.15,0.14,0.17,0.2,0.18,0.38v0.56l-5.17,0c0,0-0.01,0-0.02,0c-0.78,0-1.49,0.26-2.06,0.78
				c-0.57,0.5-0.89,1.19-0.89,1.94c0,0,0,0,0,0.01v0.01c0,0.75,0.32,1.43,0.89,1.93c0.56,0.5,1.26,0.77,2.03,0.77l0,0h4.49h0
				c0.4,0,0.78-0.07,1.13-0.21c0.19,0.14,0.43,0.21,0.66,0.21c0.01,0,0.02,0,0.03,0h0.01c0.28,0,0.57-0.07,0.79-0.27
				c0.22-0.2,0.3-0.48,0.32-0.73l0,0v-0.04c0-0.01,0-0.01,0-0.02v-4.94c0-0.01,0-0.01,0-0.01C79.61,19.43,79.3,18.75,78.73,18.25z
				 M77.37,23.48c-0.01,0.18-0.04,0.24-0.19,0.39c-0.16,0.13-0.29,0.18-0.52,0.19l-4.47,0c-0.23,0-0.37-0.05-0.52-0.18
				c-0.15-0.14-0.17-0.21-0.18-0.39c0.01-0.16,0.04-0.24,0.19-0.39c0.16-0.13,0.29-0.18,0.52-0.19h5.18V23.48L77.37,23.48z"/>
			<path fill="#878787" d="M13.52,20.19c0.01-0.17,0.03-0.24,0.19-0.38c0.15-0.12,0.29-0.18,0.52-0.18h4.47
				c0.23,0,0.36,0.06,0.52,0.19c0.15,0.14,0.18,0.21,0.19,0.38v3.29c-0.01,0.18-0.04,0.24-0.19,0.38c-0.16,0.13-0.29,0.18-0.52,0.18
				h-4.23c-0.01,0.02-0.01,0.04-0.02,0.05c0.06,0.1,0.11,0.2,0.16,0.3c0.25,0.56,0.42,1.17,0.41,1.76c0.02,0.01,0.04,0.03,0.06,0.04
				h3.64c0.75,0,1.44-0.25,2-0.74c0.6-0.49,0.93-1.19,0.93-1.96l0,0v-3.31c0-0.01,0-0.01,0-0.01c0-0.75-0.31-1.43-0.89-1.94
				c-0.56-0.51-1.27-0.77-2.05-0.77h0c0,0-0.01,0-0.02,0l-4.44,0c0,0-0.01,0-0.02,0c-0.78,0-1.5,0.26-2.06,0.77
				c-0.57,0.5-0.88,1.18-0.88,1.93c0,0,0,0.01,0,0.02v1.1c0.11-0.04,0.23-0.07,0.35-0.08c0.02,0,0.03-0.01,0.04-0.02
				c0.06-0.02,0.11-0.04,0.17-0.06c0.03-0.01,0.06-0.02,0.09-0.03"/>
			<path fill="#878787" d="M101.35,20.18c0-0.75-0.32-1.43-0.89-1.93c-0.56-0.51-1.28-0.77-2.06-0.77c0,0,0,0,0,0s-0.01,0-0.02,0
				h-4.44c0,0-0.01,0-0.02,0c-0.78,0-1.5,0.26-2.06,0.77c-0.57,0.5-0.89,1.18-0.88,1.93c0,0,0,0,0,0.01v0.23
				c0.34-0.25,0.74-0.41,1.23-0.41c0.22,0,0.46,0.04,0.69,0.12c0.34-0.42,0.87-0.7,1.58-0.7c0.35,0,0.65,0.07,0.92,0.19h3.01
				c0.23,0,0.37,0.06,0.53,0.19c0.15,0.14,0.17,0.2,0.18,0.38l0,3.29h0c-0.01,0.18-0.04,0.24-0.19,0.38
				c-0.16,0.13-0.29,0.18-0.52,0.18h-4.02c0,0.02,0,0.04,0,0.05c-0.08,0.88-0.55,1.65-1.32,1.98c0.27,0.08,0.56,0.12,0.86,0.12h4.5
				c0.75,0,1.44-0.25,2-0.74c0.6-0.49,0.93-1.19,0.93-1.96l0,0v-3.31C101.35,20.18,101.35,20.18,101.35,20.18z"/>
			<path fill="#878787" d="M111.69,20.18c0-0.75-0.31-1.43-0.88-1.93c-0.56-0.51-1.27-0.77-2.05-0.77c0,0,0,0,0,0c0,0-0.01,0-0.02,0
				h-2.93c-0.4,0-0.78,0.07-1.13,0.2c-0.19-0.14-0.43-0.2-0.67-0.2h-0.01c-0.01,0-0.02,0-0.03,0c-0.28,0-0.57,0.06-0.79,0.27
				c-0.23,0.21-0.32,0.51-0.32,0.79v0c0,0,0,0.01,0,0.02v6.56c0,0.01,0,0.02,0,0.02c0,0.28,0.08,0.58,0.32,0.79
				c0.23,0.21,0.52,0.27,0.8,0.27c0.28,0,0.57-0.07,0.81-0.27c0.23-0.21,0.31-0.5,0.32-0.77l0,0v-4.96
				c0.01-0.17,0.04-0.24,0.19-0.38c0.16-0.13,0.3-0.18,0.52-0.19l2.95,0c0.23,0,0.37,0.06,0.52,0.19c0.15,0.14,0.17,0.2,0.19,0.39
				v4.93c0-0.01,0,0.01,0,0.02c0,0.27,0.09,0.57,0.31,0.78c0.23,0.21,0.53,0.28,0.81,0.28h0c0.28,0,0.57-0.07,0.8-0.27
				c0.23-0.21,0.31-0.5,0.31-0.78l0,0v-4.96C111.69,20.18,111.69,20.18,111.69,20.18z"/>
			<path fill="#878787" d="M31.11,18.25c-0.56-0.51-1.27-0.77-2.05-0.77c0,0,0,0,0,0c0,0-0.01,0-0.01,0H26.1
				c-0.4,0-0.78,0.07-1.14,0.2c-0.19-0.14-0.43-0.2-0.66-0.2c0,0-0.02,0-0.04,0c-0.28,0-0.57,0.06-0.79,0.27
				c-0.23,0.21-0.32,0.5-0.32,0.78c0,0,0,0.01,0,0.03v6.56v0.01c0,0.27,0.08,0.57,0.32,0.78c0.23,0.21,0.52,0.27,0.8,0.27
				c0.28,0,0.57-0.07,0.8-0.27c0.23-0.21,0.32-0.51,0.31-0.78V20.2c0.01-0.18,0.04-0.24,0.19-0.38c0.16-0.13,0.3-0.18,0.53-0.19
				l2.94,0c0.23,0,0.37,0.06,0.52,0.19c0.15,0.14,0.18,0.2,0.19,0.38v4.93c0,0,0,0,0,0.01c0,0.28,0.09,0.57,0.32,0.78
				c0.23,0.21,0.52,0.28,0.81,0.28c0.28,0,0.57-0.07,0.8-0.27c0.23-0.21,0.31-0.5,0.32-0.78V20.2c0-0.01,0-0.01,0-0.01
				C32,19.43,31.68,18.75,31.11,18.25z"/>
		</g>
		<g>
			<path fill="#878787" d="M79.38,32.25c0,0.31-0.1,0.58-0.29,0.81c-0.19,0.23-0.46,0.43-0.79,0.58c-0.33,0.16-0.72,0.27-1.16,0.35
				c-0.44,0.08-0.92,0.12-1.42,0.12c-0.34,0-0.66-0.02-0.95-0.05c-0.29-0.03-0.55-0.07-0.77-0.12c-0.23-0.05-0.41-0.1-0.56-0.15
				c-0.15-0.05-0.26-0.1-0.33-0.14c-0.07-0.04-0.11-0.1-0.14-0.17c-0.03-0.07-0.04-0.18-0.04-0.32c0-0.09,0.01-0.17,0.02-0.23
				c0.01-0.06,0.03-0.12,0.05-0.15c0.02-0.04,0.05-0.07,0.09-0.09c0.04-0.02,0.08-0.02,0.13-0.02c0.07,0,0.17,0.02,0.3,0.07
				c0.13,0.05,0.3,0.11,0.5,0.17c0.21,0.06,0.45,0.12,0.73,0.17c0.28,0.05,0.61,0.07,0.98,0.07c0.24,0,0.46-0.02,0.66-0.05
				c0.19-0.04,0.36-0.09,0.49-0.15s0.24-0.14,0.31-0.24c0.07-0.09,0.11-0.2,0.11-0.31c0-0.14-0.06-0.25-0.18-0.34
				c-0.12-0.1-0.28-0.18-0.48-0.25c-0.2-0.07-0.42-0.14-0.67-0.21c-0.25-0.06-0.51-0.13-0.77-0.21c-0.27-0.07-0.52-0.15-0.77-0.25
				c-0.25-0.09-0.47-0.2-0.67-0.33c-0.19-0.13-0.35-0.28-0.48-0.46c-0.12-0.17-0.18-0.38-0.18-0.63c0-0.28,0.09-0.53,0.26-0.74
				c0.18-0.21,0.41-0.39,0.71-0.53s0.65-0.25,1.06-0.31c0.4-0.07,0.83-0.1,1.29-0.1c0.23,0,0.47,0.01,0.7,0.03
				c0.23,0.02,0.45,0.05,0.66,0.09c0.2,0.04,0.38,0.08,0.54,0.12c0.16,0.04,0.26,0.08,0.31,0.11c0.05,0.03,0.09,0.06,0.1,0.08
				s0.03,0.05,0.05,0.08s0.02,0.08,0.03,0.13c0.01,0.05,0.01,0.12,0.01,0.2c0,0.09,0,0.16-0.01,0.22c-0.01,0.06-0.02,0.11-0.04,0.15
				c-0.02,0.04-0.04,0.07-0.08,0.09c-0.03,0.02-0.08,0.03-0.13,0.03c-0.06,0-0.15-0.02-0.27-0.06c-0.12-0.04-0.27-0.09-0.45-0.14
				c-0.18-0.05-0.39-0.1-0.62-0.14c-0.23-0.04-0.49-0.06-0.77-0.06c-0.22,0-0.41,0.02-0.57,0.05c-0.16,0.03-0.3,0.08-0.41,0.13
				c-0.11,0.05-0.19,0.12-0.24,0.2c-0.05,0.08-0.08,0.16-0.08,0.25c0,0.13,0.06,0.24,0.18,0.34c0.12,0.1,0.28,0.18,0.48,0.25
				c0.2,0.07,0.43,0.14,0.68,0.21c0.25,0.06,0.51,0.13,0.78,0.21c0.26,0.07,0.52,0.15,0.78,0.25c0.25,0.09,0.48,0.2,0.68,0.33
				c0.2,0.13,0.36,0.28,0.48,0.45C79.32,31.81,79.38,32.01,79.38,32.25z"/>
			<path fill="#878787" d="M89.14,30.99c0,0.54-0.12,1-0.36,1.38c-0.24,0.38-0.58,0.69-1.02,0.94c-0.44,0.24-0.98,0.42-1.62,0.53
				c-0.63,0.11-1.39,0.17-2.27,0.17h-2.36c-0.17,0-0.31-0.03-0.42-0.09c-0.12-0.06-0.17-0.15-0.17-0.29v-5.12
				c0-0.13,0.06-0.23,0.17-0.29c0.12-0.06,0.26-0.09,0.42-0.09h2.54c0.88,0,1.63,0.06,2.24,0.18c0.61,0.12,1.13,0.3,1.55,0.54
				c0.42,0.24,0.74,0.54,0.96,0.89C89.02,30.11,89.14,30.52,89.14,30.99z M87.06,31.03c0-0.28-0.05-0.54-0.16-0.77
				c-0.11-0.24-0.29-0.45-0.53-0.62c-0.24-0.18-0.55-0.31-0.93-0.41c-0.38-0.1-0.88-0.15-1.49-0.15h-1.02v4h1.05
				c0.55,0,1.01-0.04,1.39-0.13c0.38-0.08,0.69-0.21,0.94-0.38c0.25-0.17,0.44-0.38,0.56-0.64C86.99,31.67,87.06,31.37,87.06,31.03z
				"/>
			<path fill="#878787" d="M92.8,33.85c0,0.03-0.02,0.06-0.05,0.08c-0.03,0.02-0.09,0.04-0.16,0.06c-0.08,0.02-0.18,0.03-0.31,0.04
				c-0.13,0.01-0.29,0.01-0.49,0.01c-0.19,0-0.35,0-0.48-0.01C91.18,34.02,91.08,34,91,33.99c-0.08-0.01-0.13-0.03-0.17-0.06
				c-0.03-0.02-0.05-0.05-0.05-0.08V28.3c0-0.03,0.02-0.06,0.05-0.08c0.03-0.02,0.09-0.04,0.17-0.06c0.08-0.02,0.18-0.03,0.31-0.04
				c0.13-0.01,0.29-0.01,0.48-0.01c0.2,0,0.36,0.01,0.49,0.01c0.13,0.01,0.23,0.02,0.31,0.04c0.08,0.02,0.13,0.03,0.16,0.06
				c0.03,0.03,0.05,0.05,0.05,0.08V33.85L92.8,33.85z"/>
		</g>
	</g>
</g>
</svg>
