<svg xmlns="http://www.w3.org/2000/svg" width="45" height="45" viewBox="0 0 45 45"><path fill="#D9D9D9" d="M2.97 43.55c-.83 0-1.5-.67-1.5-1.5V3c0-.83.67-1.5 1.5-1.5h39.05c.83 0 1.5.67 1.5 1.5v39.05c0 .83-.67 1.5-1.5 1.5H2.97z"/><path fill="#B1B1B1" d="M42.03 3v39.05H2.97V3h39.06m0-3H2.97c-1.66 0-3 1.34-3 3v39.05c0 1.66 1.34 3 3 3h39.05c1.66 0 3-1.34 3-3V3c.01-1.66-1.33-3-2.99-3z"/><path fill="#9C9B9B" d="M3 2.94h9.75v9.75H3zM12.75 12.76h9.75v9.75h-9.75zM22.5 22.53h9.75v9.75H22.5zM12.75 32.28h9.75v9.75h-9.75zM3 22.53h9.75v9.75H3zM32.25 32.28H42v9.75h-9.75zM32.25 12.76H42v9.75h-9.75zM22.5 2.94h9.75v9.75H22.5z"/></svg>