<?xml version="1.0" encoding="utf-8"?>
<!DOCTYPE svg PUBLIC "-//W3C//DTD SVG 1.1//EN" "http://www.w3.org/Graphics/SVG/1.1/DTD/svg11.dtd">
<svg version="1.1" id="Calque_1" xmlns="http://www.w3.org/2000/svg" xmlns:xlink="http://www.w3.org/1999/xlink" x="0px" y="0px"
	 width="45px" height="45px" viewBox="0 0 45 45" enable-background="new 0 0 45 45" xml:space="preserve">
<g>
	<path fill="#D9D9D9" d="M2.97,43.55c-0.83,0-1.5-0.67-1.5-1.5V3c0-0.83,0.67-1.5,1.5-1.5h39.05c0.83,0,1.5,0.67,1.5,1.5v39.05
		c0,0.83-0.67,1.5-1.5,1.5H2.97z"/>
	<path fill="#B1B1B1" d="M42.03,3v39.05H2.97V3H42.03 M42.03,0H2.97c-1.66,0-3,1.34-3,3v39.05c0,1.66,1.34,3,3,3h39.05
		c1.66,0,3-1.34,3-3V3C45.03,1.34,43.69,0,42.03,0L42.03,0z"/>
</g>
<rect x="3" y="2.94" fill="#9C9B9B" width="9.75" height="9.75"/>
<rect x="12.75" y="12.76" fill="#9C9B9B" width="9.75" height="9.75"/>
<rect x="22.5" y="22.53" fill="#9C9B9B" width="9.75" height="9.75"/>
<rect x="12.75" y="32.28" fill="#9C9B9B" width="9.75" height="9.75"/>
<rect x="3" y="22.53" fill="#9C9B9B" width="9.75" height="9.75"/>
<rect x="32.25" y="32.28" fill="#9C9B9B" width="9.75" height="9.75"/>
<rect x="32.25" y="12.76" fill="#9C9B9B" width="9.75" height="9.75"/>
<rect x="22.5" y="2.94" fill="#9C9B9B" width="9.75" height="9.75"/>
</svg>
