<?xml version="1.0" encoding="utf-8"?>
<!-- Generator: Adobe Illustrator 15.1.0, SVG Export Plug-In . SVG Version: 6.00 Build 0)  -->
<!DOCTYPE svg PUBLIC "-//W3C//DTD SVG 1.1//EN" "http://www.w3.org/Graphics/SVG/1.1/DTD/svg11.dtd">
<svg version="1.1" id="Calque_1" xmlns="http://www.w3.org/2000/svg" xmlns:xlink="http://www.w3.org/1999/xlink" x="0px" y="0px"
	 width="45px" height="45px" viewBox="0 0 45 45" enable-background="new 0 0 45 45" xml:space="preserve">
<g>
	<path fill="#D9D9D9" d="M2.973,43.553c-0.827,0-1.5-0.673-1.5-1.5V2.998c0-0.827,0.673-1.5,1.5-1.5h39.055
		c0.827,0,1.5,0.673,1.5,1.5v39.055c0,0.827-0.673,1.5-1.5,1.5H2.973z"/>
	<path fill="#B1B1B1" d="M42.027,2.998v39.055H2.973V2.998H42.027 M42.027-0.002H2.973c-1.657,0-3,1.343-3,3v39.055
		c0,1.657,1.343,3,3,3h39.055c1.657,0,3-1.343,3-3V2.998C45.027,1.341,43.685-0.002,42.027-0.002L42.027-0.002z"/>
</g>
<rect x="3.004" y="2.935" fill="#9C9B9B" width="9.749" height="9.749"/>
<rect x="12.753" y="12.759" fill="#9C9B9B" width="9.749" height="9.749"/>
<rect x="22.502" y="22.528" fill="#9C9B9B" width="9.749" height="9.748"/>
<rect x="12.753" y="32.275" fill="#9C9B9B" width="9.749" height="9.751"/>
<rect x="3.004" y="22.528" fill="#9C9B9B" width="9.749" height="9.747"/>
<rect x="32.251" y="32.275" fill="#9C9B9B" width="9.749" height="9.751"/>
<rect x="32.251" y="12.759" fill="#9C9B9B" width="9.749" height="9.749"/>
<rect x="22.502" y="2.935" fill="#9C9B9B" width="9.749" height="9.749"/>
</svg>
