<?xml version="1.0" encoding="utf-8"?>
<!-- Generator: Adobe Illustrator 15.1.0, SVG Export Plug-In . SVG Version: 6.00 Build 0)  -->
<!DOCTYPE svg PUBLIC "-//W3C//DTD SVG 1.1//EN" "http://www.w3.org/Graphics/SVG/1.1/DTD/svg11.dtd">
<svg version="1.1" id="Calque_1" xmlns="http://www.w3.org/2000/svg" xmlns:xlink="http://www.w3.org/1999/xlink" x="0px" y="0px"
	 width="45px" height="45px" viewBox="0 0 45 45" enable-background="new 0 0 45 45" xml:space="preserve">
<g>
	<path fill="#D9D9D9" d="M2.973,43.462c-0.827,0-1.5-0.673-1.5-1.5V2.907c0-0.827,0.673-1.5,1.5-1.5h39.055
		c0.827,0,1.5,0.673,1.5,1.5v39.055c0,0.827-0.673,1.5-1.5,1.5H2.973z"/>
	<path fill="#B1B1B1" d="M42.027,2.907v39.055H2.973V2.907H42.027 M42.027-0.093H2.973c-1.657,0-3,1.343-3,3v39.055
		c0,1.657,1.343,3,3,3h39.055c1.657,0,3-1.343,3-3V2.907C45.027,1.25,43.685-0.093,42.027-0.093L42.027-0.093z"/>
</g>
<g opacity="0.29">
	<path fill="#3C3C3B" d="M37.52,35.301c-1.353,2.181-4.232,2.867-6.421,1.505c-2.194-1.353-2.871-4.231-1.511-6.425
		c1.354-2.187,4.23-2.865,6.425-1.511C38.201,30.234,38.88,33.108,37.52,35.301z"/>
	<path fill="#3C3C3B" d="M31.944,24.483l-0.228-2.567c-5.663,0.501-9.852,5.488-9.364,11.149l2.566-0.228
		C24.559,28.597,27.697,24.858,31.944,24.483z"/>
	<path opacity="0.75" fill="#3C3C3B" d="M28.989,17.252l-0.225-2.566c-8.498,0.751-14.784,8.241-14.046,16.737l2.565-0.227
		C16.673,24.119,21.909,17.879,28.989,17.252z"/>
	<path opacity="0.5" fill="#3C3C3B" d="M26.036,10.037l-0.232-2.675C14.415,8.368,5.996,18.402,6.989,29.789l2.672-0.233
		C8.801,19.645,16.127,10.911,26.036,10.037z"/>
</g>
</svg>
