<svg xmlns="http://www.w3.org/2000/svg" width="45" height="45" viewBox="0 0 45 45"><path fill="#D9D9D9" d="M2.97 43.46c-.83 0-1.5-.67-1.5-1.5V2.91c0-.83.67-1.5 1.5-1.5h39.05c.83 0 1.5.67 1.5 1.5v39.05c0 .83-.67 1.5-1.5 1.5H2.97z"/><path fill="#B1B1B1" d="M42.03 2.91v39.05H2.97V2.91h39.06m0-3H2.97c-1.66 0-3 1.34-3 3v39.05c0 1.66 1.34 3 3 3h39.05c1.66 0 3-1.34 3-3V2.91c.01-1.66-1.33-3-2.99-3z"/><g opacity=".29" fill="#3C3C3B"><path d="M37.52 35.3c-1.35 2.18-4.23 2.87-6.42 1.51-2.2-1.35-2.87-4.23-1.51-6.43 1.35-2.19 4.23-2.87 6.43-1.51 2.18 1.36 2.86 4.24 1.5 6.43zM31.94 24.48l-.23-2.57c-5.66.5-9.85 5.49-9.36 11.15l2.57-.23c-.36-4.23 2.78-7.97 7.02-8.35z"/><path opacity=".75" enable-background="new" d="M28.99 17.25l-.23-2.57c-8.5.75-14.78 8.24-14.05 16.74l2.57-.23c-.61-7.07 4.63-13.31 11.71-13.94z"/><path opacity=".5" enable-background="new" d="M26.04 10.04l-.24-2.68C14.42 8.37 6 18.4 6.99 29.79l2.67-.23c-.86-9.91 6.47-18.65 16.38-19.52z"/></g></svg>