<?xml version="1.0" encoding="utf-8"?>
<!DOCTYPE svg PUBLIC "-//W3C//DTD SVG 1.1//EN" "http://www.w3.org/Graphics/SVG/1.1/DTD/svg11.dtd">
<svg version="1.1" id="Calque_1" xmlns="http://www.w3.org/2000/svg" xmlns:xlink="http://www.w3.org/1999/xlink" x="0px" y="0px"
	 width="45px" height="45px" viewBox="0 0 45 45" enable-background="new 0 0 45 45" xml:space="preserve">
<g>
	<path fill="#D9D9D9" d="M2.97,43.5c-0.83,0-1.5-0.67-1.5-1.5V2.94c0-0.83,0.67-1.5,1.5-1.5h39.05c0.83,0,1.5,0.67,1.5,1.5V42
		c0,0.83-0.67,1.5-1.5,1.5H2.97z"/>
	<path fill="#B1B1B1" d="M42.03,2.94V42H2.97V2.94H42.03 M42.03-0.06H2.97c-1.66,0-3,1.34-3,3V42c0,1.66,1.34,3,3,3h39.05
		c1.66,0,3-1.34,3-3V2.94C45.03,1.29,43.69-0.06,42.03-0.06L42.03-0.06z"/>
</g>
<polygon opacity="0.68" fill="#3C3C3B" stroke="#3C3C3B" stroke-width="2" enable-background="new    " points="30.07,36.16 
	25.58,36.16 25.57,31.67 30.06,31.67 "/>
<rect x="30.94" y="21.53" opacity="0.68" fill="#3C3C3B" stroke="#3C3C3B" stroke-width="2" enable-background="new    " width="4.5" height="4.49"/>
<rect x="10.21" y="12.18" opacity="0.68" fill="#3C3C3B" stroke="#3C3C3B" stroke-width="2" enable-background="new    " width="4.5" height="4.49"/>
<polyline fill="none" stroke="#878787" stroke-width="3" points="4.32,23.75 17.71,32.23 23.22,9.15 40.68,17.44 "/>
</svg>
