<svg xmlns="http://www.w3.org/2000/svg" width="45" height="45" viewBox="0 0 45 45"><path fill="#D9D9D9" d="M2.97 43.5c-.83 0-1.5-.67-1.5-1.5V2.94c0-.83.67-1.5 1.5-1.5h39.05c.83 0 1.5.67 1.5 1.5V42c0 .83-.67 1.5-1.5 1.5H2.97z"/><path fill="#B1B1B1" d="M42.03 2.94V42H2.97V2.94h39.06m0-3H2.97c-1.66 0-3 1.34-3 3V42c0 1.66 1.34 3 3 3h39.05c1.66 0 3-1.34 3-3V2.94c.01-1.65-1.33-3-2.99-3z"/><path opacity=".68" fill="#3C3C3B" stroke="#3C3C3B" stroke-width="2" enable-background="new" d="M30.07 36.16h-4.49l-.01-4.49h4.49zM30.94 21.53h4.5v4.49h-4.5zM10.21 12.18h4.5v4.49h-4.5z"/><path fill="none" stroke="#878787" stroke-width="3" d="M4.32 23.75l13.39 8.48 5.51-23.08 17.46 8.29"/></svg>