<?xml version="1.0" encoding="utf-8"?>
<!-- Generator: Adobe Illustrator 15.1.0, SVG Export Plug-In . SVG Version: 6.00 Build 0)  -->
<!DOCTYPE svg PUBLIC "-//W3C//DTD SVG 1.1//EN" "http://www.w3.org/Graphics/SVG/1.1/DTD/svg11.dtd">
<svg version="1.1" id="Calque_1" xmlns="http://www.w3.org/2000/svg" xmlns:xlink="http://www.w3.org/1999/xlink" x="0px" y="0px"
	 width="45px" height="45px" viewBox="0 0 45 45" enable-background="new 0 0 45 45" xml:space="preserve">
<g>
	<path fill="#D9D9D9" d="M2.973,43.5c-0.827,0-1.5-0.673-1.5-1.5V2.945c0-0.827,0.673-1.5,1.5-1.5h39.055c0.827,0,1.5,0.673,1.5,1.5
		V42c0,0.827-0.673,1.5-1.5,1.5H2.973z"/>
	<path fill="#B1B1B1" d="M42.027,2.945V42H2.973V2.945H42.027 M42.027-0.055H2.973c-1.657,0-3,1.343-3,3V42c0,1.657,1.343,3,3,3
		h39.055c1.657,0,3-1.343,3-3V2.945C45.027,1.288,43.685-0.055,42.027-0.055L42.027-0.055z"/>
</g>
<polygon opacity="0.68" fill="#3C3C3B" stroke="#3C3C3B" stroke-width="2" points="30.07,36.162 25.576,36.163 25.57,31.669 
	30.063,31.666 "/>
<rect x="30.938" y="21.528" opacity="0.68" fill="#3C3C3B" stroke="#3C3C3B" stroke-width="2" width="4.496" height="4.493"/>
<rect x="10.207" y="12.177" opacity="0.68" fill="#3C3C3B" stroke="#3C3C3B" stroke-width="2" width="4.495" height="4.493"/>
<polyline fill="none" stroke="#878787" stroke-width="3" points="4.323,23.752 17.712,32.229 23.224,9.155 40.679,17.439 "/>
</svg>
