<?xml version="1.0" encoding="utf-8"?>
<!-- Generator: Adobe Illustrator 15.1.0, SVG Export Plug-In . SVG Version: 6.00 Build 0)  -->
<!DOCTYPE svg PUBLIC "-//W3C//DTD SVG 1.1//EN" "http://www.w3.org/Graphics/SVG/1.1/DTD/svg11.dtd">
<svg version="1.1" id="Calque_1" xmlns="http://www.w3.org/2000/svg" xmlns:xlink="http://www.w3.org/1999/xlink" x="0px" y="0px"
	 width="40px" height="40px" viewBox="0 0 40 40" enable-background="new 0 0 40 40" xml:space="preserve">
<rect fill="#C6C6C6" width="40" height="40"/>
<g>
	<rect x="5.77" y="11.852" fill="#FFFFFF" width="27.704" height="21.31"/>
	<g>
		<rect x="14.878" y="14.917" fill="#1A769E" width="3.796" height="3.794"/>
		<rect x="20.571" y="14.917" fill="#1A769E" width="3.794" height="3.794"/>
		<rect x="26.262" y="14.917" fill="#1A769E" width="3.795" height="3.794"/>
		<rect x="9.186" y="20.609" fill="#1A769E" width="3.795" height="3.793"/>
		<rect x="14.878" y="20.609" fill="#1A769E" width="3.796" height="3.793"/>
		<rect x="20.571" y="20.609" fill="#1A769E" width="3.794" height="3.793"/>
		<rect x="26.262" y="20.609" fill="#1A769E" width="3.795" height="3.793"/>
		<rect x="9.186" y="26.302" fill="#1A769E" width="3.795" height="3.794"/>
		<rect x="14.878" y="26.302" fill="#1A769E" width="3.796" height="3.794"/>
		<rect x="20.571" y="26.302" fill="#1A769E" width="3.794" height="3.794"/>
		<path fill="#70706F" d="M9.186,7.328H5.393v26.564h28.458V7.328h-3.794H9.186z M31.953,31.993H7.29V13.02h24.663V31.993z"/>
		<path fill="#EDEDED" d="M12.033,9.916c0,0.523-0.425,0.949-0.948,0.949l0,0c-0.523,0-0.948-0.425-0.948-0.949V6.507
			c0-0.523,0.425-0.947,0.948-0.947l0,0c0.523,0,0.948,0.424,0.948,0.947V9.916z"/>
		<path fill="#EDEDED" d="M29.107,9.916c0,0.523-0.424,0.949-0.947,0.949l0,0c-0.524,0-0.949-0.425-0.949-0.949V6.507
			c0-0.523,0.425-0.947,0.949-0.947l0,0c0.523,0,0.947,0.424,0.947,0.947V9.916z"/>
	</g>
</g>
</svg>
