<?xml version="1.0" encoding="utf-8"?>
<!-- Generator: Adobe Illustrator 15.1.0, SVG Export Plug-In . SVG Version: 6.00 Build 0)  -->
<!DOCTYPE svg PUBLIC "-//W3C//DTD SVG 1.1//EN" "http://www.w3.org/Graphics/SVG/1.1/DTD/svg11.dtd">
<svg version="1.1" id="Calque_1" xmlns="http://www.w3.org/2000/svg" xmlns:xlink="http://www.w3.org/1999/xlink" x="0px" y="0px"
	 width="40px" height="40px" viewBox="0 0 40 40" enable-background="new 0 0 40 40" xml:space="preserve">
<rect fill="#C6C6C6" width="40" height="40"/>
<g>
	<path fill="#706F6F" d="M40,20.97l-15.891-8.247c-0.252-0.133-0.594,0.032-0.764,0.363L16.055,27.33
		c-0.171,0.331-0.104,0.706,0.147,0.837l18.577,9.642c0.252,0.132,0.594-0.03,0.765-0.364L40,28.74V20.97z"/>
	<path fill="#706F6F" d="M23.968,12.737c-0.096-0.049-0.216-0.05-0.336,0.005l-9.198,4.301c-0.241,0.112-0.398,0.418-0.349,0.684
		l1.857,10.036c0.025,0.133,0.096,0.23,0.192,0.28L23.968,12.737z"/>
	<path fill="#C6C6C6" d="M18.9,19.773c-0.276,0.542-0.936,0.755-1.472,0.475c-0.536-0.278-0.749-0.942-0.47-1.482
		c0.275-0.541,0.934-0.752,1.472-0.473C18.966,18.571,19.176,19.234,18.9,19.773z"/>
	<polygon fill="#DADADA" points="38.366,25.587 24.563,18.422 25.341,16.902 39.145,24.069 	"/>
	<polygon fill="#DADADA" points="36.293,29.732 22.487,22.569 23.265,21.049 37.07,28.215 	"/>
	<polygon fill="#DADADA" points="34.103,33.917 20.298,26.751 21.077,25.231 34.881,32.397 	"/>
</g>
<path fill="none" stroke="#706F6F" stroke-miterlimit="10" d="M17.929,19.271c0,0-15.404,5.241-13.64-6.964
	c1.103-7.629,5.614-5.004,9.787-2.705c3.853,2.124,4.945,6.523,4.945,6.523"/>
</svg>
