<?xml version="1.0" encoding="utf-8"?>
<!-- Generator: Adobe Illustrator 15.1.0, SVG Export Plug-In . SVG Version: 6.00 Build 0)  -->
<!DOCTYPE svg PUBLIC "-//W3C//DTD SVG 1.1//EN" "http://www.w3.org/Graphics/SVG/1.1/DTD/svg11.dtd">
<svg version="1.1" id="Calque_1" xmlns="http://www.w3.org/2000/svg" xmlns:xlink="http://www.w3.org/1999/xlink" x="0px" y="0px"
	 width="104.666px" height="54.667px" viewBox="0 0 104.666 54.667" enable-background="new 0 0 104.666 54.667"
	 xml:space="preserve">
<g>
	<polygon fill="#DADADA" points="104.133,54.696 104.666,54.696 104.666,0.029 0,0.029 0,0.564 	"/>
	<rect x="29.464" y="7.685" fill="#C6C6C6" enable-background="new    " width="7.521" height="7.715"/>
	<rect x="21.943" y="-0.029" fill="#C6C6C6" enable-background="new    " width="7.521" height="7.714"/>
	<rect x="36.983" y="-0.029" fill="#C6C6C6" enable-background="new    " width="7.521" height="7.714"/>
	<rect x="44.505" y="7.685" fill="#C6C6C6" enable-background="new    " width="7.521" height="7.715"/>
	<rect x="52.024" y="-0.029" fill="#C6C6C6" enable-background="new    " width="7.521" height="7.714"/>
	<rect x="59.546" y="7.685" fill="#C6C6C6" enable-background="new    " width="7.52" height="7.715"/>
	<rect x="52.024" y="15.399" fill="#C6C6C6" enable-background="new    " width="7.521" height="7.715"/>
	<rect x="59.546" y="23.114" fill="#C6C6C6" enable-background="new    " width="7.52" height="7.714"/>
	<rect x="67.064" y="15.399" fill="#C6C6C6" enable-background="new    " width="7.521" height="7.715"/>
	<rect x="74.586" y="23.114" fill="#C6C6C6" enable-background="new    " width="7.521" height="7.714"/>
	<rect x="82.105" y="30.828" fill="#C6C6C6" enable-background="new    " width="7.521" height="7.714"/>
	<rect x="89.627" y="38.542" fill="#C6C6C6" enable-background="new    " width="7.521" height="7.715"/>
	<rect x="97.146" y="30.828" fill="#C6C6C6" enable-background="new    " width="7.52" height="7.714"/>
	<rect x="89.627" y="23.114" fill="#C6C6C6" enable-background="new    " width="7.521" height="7.714"/>
	<rect x="82.105" y="15.399" fill="#C6C6C6" enable-background="new    " width="7.521" height="7.715"/>
	<rect x="74.586" y="7.685" fill="#C6C6C6" enable-background="new    " width="7.521" height="7.715"/>
	<rect x="67.064" y="-0.029" fill="#C6C6C6" enable-background="new    " width="7.521" height="7.714"/>
	<rect x="82.105" y="-0.029" fill="#C6C6C6" enable-background="new    " width="7.521" height="7.714"/>
	<rect x="89.627" y="7.685" fill="#C6C6C6" enable-background="new    " width="7.521" height="7.715"/>
	<rect x="97.146" y="-0.029" fill="#C6C6C6" enable-background="new    " width="7.52" height="7.714"/>
	<rect x="97.146" y="15.399" fill="#C6C6C6" enable-background="new    " width="7.52" height="7.715"/>
	<polygon fill="#C6C6C6" enable-background="new    " points="14.142,7.685 14.424,7.685 14.424,-0.029 6.902,-0.029 6.902,3.921 	
		"/>
	<polygon fill="#C6C6C6" enable-background="new    " points="21.944,11.712 21.944,7.685 14.424,7.685 14.424,7.803 	"/>
	<polygon fill="#C6C6C6" enable-background="new    " points="43.958,23.114 44.505,23.114 44.505,15.399 36.983,15.399 
		36.983,19.488 	"/>
	<polygon fill="#C6C6C6" enable-background="new    " points="52.025,27.362 52.025,23.114 44.505,23.114 44.505,23.453 	"/>
	<polygon fill="#C6C6C6" enable-background="new    " points="59.546,31.138 59.546,30.828 58.95,30.828 	"/>
	<polygon fill="#C6C6C6" enable-background="new    " points="73.199,38.542 74.586,38.542 74.586,30.828 67.064,30.828 
		67.064,35.353 	"/>
	<polygon fill="#C6C6C6" enable-background="new    " points="82.104,43.064 82.104,38.542 74.582,38.542 74.582,39.155 	"/>
	<polygon fill="#C6C6C6" enable-background="new    " points="103.137,53.97 104.666,53.97 104.666,46.256 97.146,46.256 
		97.146,50.855 	"/>
</g>
<g>
	<text transform="matrix(1 0 0 1 47.1865 19)" fill="#878787" font-family="'Candara-Bold'" font-size="18">Raster</text>
</g>
</svg>
