<?xml version="1.0" encoding="utf-8"?>
<!-- Generator: Adobe Illustrator 15.1.0, SVG Export Plug-In . SVG Version: 6.00 Build 0)  -->
<!DOCTYPE svg PUBLIC "-//W3C//DTD SVG 1.1//EN" "http://www.w3.org/Graphics/SVG/1.1/DTD/svg11.dtd">
<svg version="1.1" id="Calque_1" xmlns="http://www.w3.org/2000/svg" xmlns:xlink="http://www.w3.org/1999/xlink" x="0px" y="0px"
	 width="14px" height="18px" viewBox="0 0 14 18" enable-background="new 0 0 14 18" xml:space="preserve">
<circle fill="#E3E3E3" cx="11.609" cy="8.868" r="1.545"/>
<path fill="#E3E3E3" d="M8.059,13.605c0,0-2.511-1.439-2.358-4.838c0.154-3.398,2.367-4.63,2.367-4.63l1.797,1.455
	c0,0-1.8,1.31-1.835,3.272c-0.033,1.961,1.682,3.4,1.682,3.4L8.059,13.605z"/>
<path fill="#E3E3E3" d="M4.63,16.385c0,0-3.879-3.246-3.748-7.453c0.145-4.596,3.787-7.547,3.787-7.547l1.796,1.454
	c0,0-3.288,2.095-3.253,6.189c0.03,3.612,3.071,6.017,3.071,6.017L4.63,16.385z"/>
</svg>
