<?xml version="1.0" encoding="utf-8"?>
<!-- Generator: Adobe Illustrator 15.1.0, SVG Export Plug-In . SVG Version: 6.00 Build 0)  -->
<!DOCTYPE svg PUBLIC "-//W3C//DTD SVG 1.1//EN" "http://www.w3.org/Graphics/SVG/1.1/DTD/svg11.dtd">
<svg version="1.1" id="Calque_1" xmlns="http://www.w3.org/2000/svg" xmlns:xlink="http://www.w3.org/1999/xlink" x="0px" y="0px"
	 width="21px" height="21px" viewBox="-3.5 -1.5 21 21" enable-background="new -3.5 -1.5 21 21" xml:space="preserve">
<g>
	<circle fill="#FFFFFF" cx="7" cy="9" r="10.5"/>
</g>
<circle fill="#7DA21B" cx="13.221" cy="8.865" r="1.751"/>
<path fill="#7DA21B" d="M9.197,14.234c0,0-2.846-1.631-2.672-5.482c0.174-3.851,2.683-5.247,2.683-5.247l2.035,1.648
	c0,0-2.04,1.484-2.079,3.709c-0.037,2.223,1.906,3.854,1.906,3.854L9.197,14.234z"/>
<path fill="#7DA21B" d="M5.312,17.385c0,0-4.397-3.68-4.247-8.447C1.229,3.73,5.357,0.385,5.357,0.385l2.035,1.648
	c0,0-3.726,2.373-3.688,7.015c0.035,4.093,3.481,6.818,3.481,6.818L5.312,17.385z"/>
</svg>
