<?xml version="1.0" encoding="utf-8"?>
<!-- Generator: Adobe Illustrator 15.1.0, SVG Export Plug-In . SVG Version: 6.00 Build 0)  -->
<!DOCTYPE svg PUBLIC "-//W3C//DTD SVG 1.1//EN" "http://www.w3.org/Graphics/SVG/1.1/DTD/svg11.dtd">
<svg version="1.1" id="Calque_1" xmlns="http://www.w3.org/2000/svg" xmlns:xlink="http://www.w3.org/1999/xlink" x="0px" y="0px"
	 width="14px" height="12px" viewBox="0 0 14 12" enable-background="new 0 0 14 12" xml:space="preserve">
<circle fill="#707070" cx="10.384" cy="6.488" r="1.133"/>
<path fill="#707070" d="M7.781,9.962c0,0-1.842-1.056-1.729-3.548c0.113-2.492,1.736-3.395,1.736-3.395l1.317,1.067
	c0,0-1.321,0.96-1.347,2.398C7.734,7.924,8.992,8.979,8.992,8.979L7.781,9.962z"/>
<path fill="#707070" d="M5.267,12c0,0-2.845-2.38-2.749-5.465C2.624,3.164,5.295,1,5.295,1l1.317,1.066c0,0-2.411,1.538-2.386,4.54
	c0.022,2.649,2.252,4.412,2.252,4.412L5.267,12z"/>
</svg>
