<?xml version="1.0" encoding="utf-8"?>
<!-- Generator: Adobe Illustrator 15.1.0, SVG Export Plug-In . SVG Version: 6.00 Build 0)  -->
<!DOCTYPE svg PUBLIC "-//W3C//DTD SVG 1.1//EN" "http://www.w3.org/Graphics/SVG/1.1/DTD/svg11.dtd">
<svg version="1.1" id="Calque_1" xmlns="http://www.w3.org/2000/svg" xmlns:xlink="http://www.w3.org/1999/xlink" x="0px" y="0px"
	 width="14px" height="18px" viewBox="0 0 14 18" enable-background="new 0 0 14 18" xml:space="preserve">
<circle fill="#7DA21B" cx="12.221" cy="8.865" r="1.751"/>
<path fill="#7DA21B" d="M8.197,14.235c0,0-2.846-1.632-2.672-5.483s2.683-5.247,2.683-5.247l2.035,1.648c0,0-2.04,1.484-2.079,3.709
	c-0.037,2.223,1.906,3.854,1.906,3.854L8.197,14.235z"/>
<path fill="#7DA21B" d="M4.312,17.385c0,0-4.397-3.68-4.247-8.447c0.164-5.208,4.292-8.553,4.292-8.553l2.035,1.648
	c0,0-3.726,2.373-3.688,7.015c0.035,4.093,3.481,6.818,3.481,6.818L4.312,17.385z"/>
</svg>
