<?xml version="1.0" encoding="utf-8"?>
<!-- Generator: Adobe Illustrator 15.1.0, SVG Export Plug-In . SVG Version: 6.00 Build 0)  -->
<!DOCTYPE svg PUBLIC "-//W3C//DTD SVG 1.1//EN" "http://www.w3.org/Graphics/SVG/1.1/DTD/svg11.dtd">
<svg version="1.1" id="Calque_1" xmlns="http://www.w3.org/2000/svg" xmlns:xlink="http://www.w3.org/1999/xlink" x="0px" y="0px"
	 width="18px" height="18px" viewBox="0 0 18 18" enable-background="new 0 0 18 18" xml:space="preserve">
<g>
	<path fill="#FFFFFF" d="M6.846,7.355C7.05,8.047,7.544,8.475,7.544,8.475L7.533,9.589c0,0-0.275,0.168-1.437,0.653
		c-1.162,0.482-1.802,1.045-2.151,1.589c-0.313,0.489-0.752,2.608-0.752,2.608H9h5.806c0,0-0.336-2.035-0.646-2.523
		c-0.35-0.545-1.096-1.191-2.258-1.674c-1.16-0.485-1.436-0.653-1.436-0.653l-0.012-1.115c0.178-0.092,0.494-0.425,0.695-1.098
		c0,0,0.223-0.73,0.236-1.507c0.008-0.358-0.039-1.274-0.062-1.52C11.235,3.457,10.354,2.511,9,2.511
		c-1.355,0-2.236,0.946-2.322,1.839C6.654,4.596,6.585,5.609,6.602,5.934C6.63,6.481,6.846,7.355,6.846,7.355z"/>
</g>
<g>
	<path fill="#FFFFFF" d="M12.832,8.962c0.131,0.449,0.453,0.726,0.453,0.726l-0.008,0.724c0,0-0.178,0.109-0.934,0.423
		c-0.754,0.313-1.168,0.679-1.396,1.033c-0.203,0.317-0.486,1.693-0.486,1.693h3.77H18c0,0-0.219-1.322-0.422-1.64
		c-0.225-0.353-0.709-0.773-1.463-1.087s-0.934-0.423-0.934-0.423l-0.006-0.724c0.113-0.06,0.318-0.276,0.449-0.713
		c0,0,0.145-0.473,0.154-0.978c0.004-0.233-0.025-0.828-0.041-0.987c-0.057-0.58-0.629-1.194-1.508-1.194
		c-0.881,0-1.453,0.614-1.508,1.194c-0.016,0.16-0.061,0.817-0.051,1.029C12.691,8.394,12.832,8.962,12.832,8.962z"/>
</g>
<g>
	<path fill="#FFFFFF" d="M2.662,8.397c0.149,0.504,0.509,0.816,0.509,0.816l-0.008,0.812c0,0-0.201,0.123-1.048,0.476
		c-0.846,0.353-1.313,0.763-1.568,1.158C0.319,12.016,0,13.562,0,13.562h4.232h4.232c0,0-0.244-1.484-0.472-1.841
		c-0.254-0.396-0.797-0.867-1.644-1.22s-1.047-0.476-1.047-0.476L5.293,9.213C5.42,9.146,5.652,8.903,5.799,8.412
		c0,0,0.162-0.533,0.173-1.098c0.005-0.262-0.03-0.929-0.047-1.108c-0.062-0.651-0.705-1.34-1.693-1.34
		c-0.987,0-1.63,0.689-1.693,1.34C2.521,6.385,2.471,7.123,2.484,7.361C2.505,7.759,2.662,8.397,2.662,8.397z"/>
</g>
</svg>
