<?xml version="1.0" encoding="utf-8"?>
<!-- Generator: Adobe Illustrator 15.1.0, SVG Export Plug-In . SVG Version: 6.00 Build 0)  -->
<!DOCTYPE svg PUBLIC "-//W3C//DTD SVG 1.1//EN" "http://www.w3.org/Graphics/SVG/1.1/DTD/svg11.dtd">
<svg version="1.1" id="Calque_1" xmlns="http://www.w3.org/2000/svg" xmlns:xlink="http://www.w3.org/1999/xlink" x="0px" y="0px"
	 width="66px" height="66px" viewBox="0 0 66 66" enable-background="new 0 0 66 66" xml:space="preserve">
<g>
	<path fill="#D3D3D3" d="M32.999-0.003c-5.003,0-9.747,1.123-14,3.114c0.01-0.013,0.016-0.029,0.016-0.048
		c-0.429,0.2-0.854,0.407-1.273,0.63c0.021,0.01,0.051,0.01,0.072,0.013c-0.077,0.036-0.159,0.078-0.237,0.123
		c-0.009-0.017-0.013-0.019-0.021-0.036c-0.244,0.127-0.49,0.256-0.728,0.392c0.022,0.004,0.044,0.01,0.075,0.013
		c-0.256,0.142-0.515,0.288-0.764,0.436c-0.014-0.006-0.027-0.015-0.036-0.025c0.144-0.084,0.285-0.174,0.42-0.252
		c-0.136,0.084-0.288,0.168-0.429,0.252h0.004c-0.059,0.038-0.123,0.07-0.182,0.106c0.034-0.002,0.042,0.013,0.068,0.017
		c-0.13,0.068-0.255,0.155-0.385,0.236c0.01-0.025,0.021-0.051,0.023-0.081c0,0,0,0,0,0.006c0-0.006,0-0.006,0-0.006
		c-0.023,0.017-0.046,0.029-0.067,0.045c0.013-0.009,0.026-0.016,0.041-0.026c-0.048,0.036-0.107,0.072-0.159,0.097
		c0.015-0.009,0.033-0.019,0.049-0.025c-0.144,0.081-0.295,0.177-0.431,0.268c0.094-0.061,0.191-0.123,0.287-0.181
		c-0.096,0.065-0.189,0.126-0.287,0.191c0,0.016,0,0.042,0,0.055c-0.002,0.01-0.017,0.01-0.025,0.019
		c-0.005-0.013-0.013-0.029-0.023-0.045c0.018-0.006,0.031-0.022,0.046-0.029c0,0,0-0.003,0-0.01
		c-0.016,0.013-0.036,0.022-0.054,0.036c0,0,0,0.002,0,0.009c-0.905,0.585-1.784,1.213-2.629,1.888
		c0.01,0.02,0.021,0.032,0.031,0.055C4.841,13.277,0,22.572,0,32.994c0,18.224,14.775,33.003,32.999,33.003
		C51.226,65.997,66,51.218,66,32.994C66,14.771,51.226-0.003,32.999-0.003z M56.695,11.001c0.025,0.059,0.074,0.107,0.1,0.168
		c-0.863,0.249-0.792-0.433-1.521-0.307c0.309,0.537,0.526,1.632,1.217,0.914c0.065,0.408,0.422,0.129,0.744-0.174
		c4.677,5.299,7.652,12.136,8.057,19.662c-0.398,0-0.794,0-1.185,0c1.92,2.986-2.181,4.271-3.962,5.485
		c0.543,1.255,1.743-0.392,2.437,0.3c-0.301,3.053-2.459,4.239-3.959,6.092c0.073,2.312,0.161,2.937,0,5.175
		c-3.095,2.113-3.298,8.632-8.229,7.915c-0.812-2.23-0.846-5.244-1.827-7.311c2.03-2.917-0.825-4.874-0.607-8.523
		c-0.415-0.502-1.6-0.221-1.524-1.217c-1.898,0.657-3.265,0.39-5.179,0.608c-1.374-0.757-1.918-2.34-3.046-3.346
		c1.027-2.948-0.647-6.079,2.746-7.31c-0.166-3.621,5.602-4.192,7.92-3.349c0,0.408,0,0.815,0,1.218
		c1.194,0.227,1.76,1.084,2.739,1.524c-0.051-0.764,0.469-0.955,0.912-1.222c0.936,0.591,0.702,1.428,2.135,0.918
		c0.534,0.174,1.79-0.373,1.828,0.304c0.45-0.263,0.439-0.98,0.611-1.524c-0.282-1.043-1.88-0.762-2.75-1.218
		c-0.413-0.391-0.413-1.435,0-1.83c-1.934-0.139-0.307,1.471-1.517,1.83c-0.205,0-0.411,0-0.612,0
		c0.264-0.973-0.48-0.941-0.607-1.522c-0.908-0.074-1.158,2.065-2.134,0.915c2.17-0.356-1.224-3.065-1.522-1.83
		c-0.05-0.45,0.11-1.123-0.299-1.213c-1.086,0.333-1.789,1.055-2.75,1.52c0,0.407,0,0.812,0,1.215
		c-0.264,0.136-0.546,0.268-0.607,0.607c-0.912,0-1.823,0-2.743,0c-0.02-0.387-0.383-0.416-0.304-0.911
		c0.452-0.669-0.036-2.269,0.915-2.432c0.878-0.426,1.55,0.825,1.831,0c0.106,0,0.199,0,0.301,0
		c0.136-1.153-0.599-1.435-0.912-2.133c0.029-0.575,1.01-0.216,0.912-0.917c2.601-0.142,2.675-2.806,4.269-3.958
		c-0.259,0.359-0.399,0.815-0.302,1.523c1.117,0.281,0.552-1.606,0.302-1.823c-0.704-0.097-1.17,0.045-1.521,0.3
		c-0.429-0.384-0.19-1.435-0.61-1.823c1.929-1.733,2.498-4.811,5.788-5.179c0.979,0.242,1.859,0.582,2.616,1.042
		C55.485,9.753,56.101,10.367,56.695,11.001z M43.081,14.515c1.592,0.346,1.15,2.716,2.438,3.353c0,0.204,0,0.404,0,0.607
		c-0.731-0.125-0.662,0.557-1.521,0.307c-0.578-0.068-0.672,0.343-1.22,0.301C44.01,17.464,42.431,16.128,43.081,14.515z
		 M42.779,18.168c-0.506,0-1.015,0-1.522,0c-0.123-1.135,0.246-1.785,1.22-1.831C42.825,16.704,42.817,17.422,42.779,18.168z
		 M37.907,11.776c-0.271-0.643-0.926-0.901-0.92-1.826c1.224,0.297,1.834,0.297,3.052,0c0.058,0.249,0.304,0.304,0.304,0.607
		C40.304,11.735,39.156,11.806,37.907,11.776z M36.076,13.606c-0.467,1.254-1.947,1.5-3.044,2.125c-0.34-0.052-0.169-0.294,0-0.294
		c-0.046-0.566-1.028-0.195-1.22-0.617C31.505,11.104,36.405,10.238,36.076,13.606z M59.231,51.666
		c-0.769-2.341,0.921-3.271,1.827-5.179c0.899,0.722-0.37,1.842-0.312,2.744c-0.326,0.561-0.731,1.048-0.896,1.776
		c-0.01,0.019-0.021,0.039-0.033,0.057C59.492,51.134,59.362,51.395,59.231,51.666z M37.962,1.041
		c-0.021,0.03-0.029,0.045-0.054,0.078c0.194,0.035,0.42,0.039,0.658,0.028c0.51,0.093,1.019,0.194,1.52,0.301
		c-0.492,0.227-0.624,0.812-1.261,0.886c-0.22,0.934,0.311,1.112,0.3,1.827c-0.52,0.124-0.778-0.45-0.914,0
		c1.053,1.348-1.492,2.522,0,3.656c-2.216,1.132-5.34,1.358-6.698,3.347c-0.659,0.763-0.965,1.888-1.831,2.443
		c-2.17-0.633-2.592-4.215-1.933-5.593c0.056-0.045,0.099-0.109,0.099-0.193c-0.033,0.058-0.072,0.123-0.099,0.191
		c-0.167,0.113-0.448,0.081-0.5-0.195c1.43-4.044-3.489-2.857-4.265-5.178c0.506-0.4,1.933,0.113,1.823-0.912
		c-0.042,0.006-0.077,0.023-0.123,0.023c2.657-0.706,5.436-1.086,8.314-1.086C34.681,0.663,36.345,0.795,37.962,1.041z
		 M17.804,4.452c0.611,0.204,1.124,0.32,1.822-0.284c-0.397-0.023-0.871,0.029-1.271,0.006c1.44-0.73,2.937-1.358,4.485-1.868
		c-1.18,0.607-1.962,1.619-2.599,2.773c-1.42,0.142-2.532,0.278-3.429-0.064C17.141,4.823,17.466,4.632,17.804,4.452z M16.338,5.282
		c0.072,0.148,0.203,0.233,0.551,0.101c-0.327,0.688-0.925,1.105-1.827,1.215c0.23-0.298,0.32-0.534,0.372-0.744
		C15.731,5.664,16.036,5.467,16.338,5.282z M12.826,7.742c0.033,0.023,0.069,0.055,0.105,0.078
		c-0.072,0.837-1.134,0.691-1.527,1.218c2.045,0.602,2.128-1.83,3.354-0.31c0.123-0.728-0.556-0.66-0.306-1.52
		c0.388-0.013,0.421-0.388,0.915-0.304c0.152,1.736,1.134,0.954,1.523,2.133c0.064-0.342,0.341-0.478,0.607-0.607
		c0.324-1.142-1.141-0.485-0.912-1.526c0.043-1.681,2.578-0.879,3.657-1.522c0.009,0.501,0.845,0.175,0.912,0.607
		c-0.398-0.038-2.204-0.042-1.22,0.308c3.11-0.246,3.063,2.068,4.876,3.653c-0.597-0.09-0.607,0.41-0.912,0.607
		c-0.408,0.045-0.921-1.235-1.222-0.301c0.674,0.042,0.661,0.763,0.615,1.519c-1.513-0.497-0.178,0.04-0.925,0.605
		c-1.131-0.588-2.005-1.439-3.348-1.824c0.752-0.265,1.759-0.271,1.834-1.218c0.226-0.934-0.842-0.582-0.611-1.52
		c-0.446,0-2.493-0.117-1.525,0.304c0.25,1.367-0.876,1.36-1.22,2.133c0.447,0.262,0.965,0.453,0.914,1.22
		c-0.242-0.166-0.492-0.318-0.914-0.308c-0.383,0.078-0.31,0.604,0,0.607c-0.054,0.518-1.448-0.142-1.222-0.914
		c-1.44,0.485-2.146,1.706-3.042,2.744c0.26,1.154,1.418,1.419,2.437,1.831c0.243,0.155,0.495,0.316,0.915,0.294
		c-0.218,0.934,0.315,1.112,0.302,1.829c1.038-2.45,1.935-1.81,1.83-5.784c0.256,0.055,0.282-0.123,0.301-0.303
		c0.305-0.029,0.726,0.805,1.834,0.607c0.772,0.244,0.158,1.869,1.216,1.827c0.984,0.378,0.229-0.982,1.218-0.604
		c0.952,2.839,2.604,4.283,3.041,6.999c-0.921,0.22-1.1-0.307-1.821-0.301c-1.07,0.269-0.52-0.996-0.306-1.222
		c0.441-0.168,0.743-0.475,0.915-0.912c-1.145,0.285-2.062,1.887-3.046,0.607c0.249,0.86-0.423,0.786-0.308,1.523
		c-0.051,0.254,0.115,0.284,0.308,0.303c0.236,0.065,0.602,0.006,0.607,0.304c0,0.104,0,0.204,0,0.301
		c-1.445,0.937-5.224,2.021-5.786,5.485c-0.892,0.017-1.133,0.695-1.523,1.22c-0.639,0.265,0.602,2.123-0.312,2.738
		c-0.726-0.378-0.976-1.252-1.214-2.134c-2.77-1.606-7.79,3.472-3.044,4.571c0.1,0,0.197,0,0.305,0
		c-0.11-0.966,1.673-1.365,1.827-0.306c-0.451,0.258-0.653,0.769-0.612,1.521c-0.046,0.664,1.083,0.14,1.524,0.305
		c-0.081,1.348-0.645,2.516,0.917,2.738c0.237,0.066,0.602,0.016,0.608,0.302c1.19-0.12,1.298-1.334,2.436-1.517
		c0.682,0.636,1.968,0.893,3.958,0.914c0.431,1.906,2.739,1.927,3.959,3.045c0,0.511,0,1.012,0,1.522
		c2.179,0.566,3.785,1.703,5.786,2.436c-0.283,2.861-2.17,4.121-2.124,7.31c-0.821,0.397-1.624,0.813-2.442,1.218
		c-0.282,2.004-1.594,4.419-3.348,3.957c-0.123,0.728,0.552,0.655,0.301,1.52c-3.121,0.886-2.424,2.782-2.925,5.259
		c-0.795-0.323-1.574-0.669-2.337-1.043c-1.207-2.374,0.816-6.757,0.086-11.082c-0.565-3.373-5.365-5.321-4.515-9.335
		c0.541-0.662,1.176-1.237,1.504-2.11c-2.192-3.219-6.494-4.341-9.637-6.617c0.086-1.691-0.532-2.687-1.508-3.316
		c0.051,0.859,0.552,1.257,0.607,2.107c-2.124-2.065-2.895-5.327-2.985-8.43C4.145,17.034,7.896,11.683,12.826,7.742z
		 M19.018,32.787c0.106,1.309-1.106,0.825-1.821,0.609C17.471,32.865,18.144,32.719,19.018,32.787z M13.539,31.568
		c0.821-1.325,2.901,0.531,3.658,1.219C15.534,32.822,15.293,31.442,13.539,31.568z"/>
</g>
</svg>
