<?xml version="1.0" encoding="utf-8"?>
<!-- Generator: Adobe Illustrator 15.1.0, SVG Export Plug-In . SVG Version: 6.00 Build 0)  -->
<!DOCTYPE svg PUBLIC "-//W3C//DTD SVG 1.1//EN" "http://www.w3.org/Graphics/SVG/1.1/DTD/svg11.dtd">
<svg version="1.1" id="Calque_1" xmlns="http://www.w3.org/2000/svg" xmlns:xlink="http://www.w3.org/1999/xlink" x="0px" y="0px"
	 width="66px" height="66px" viewBox="0 0 66 66" enable-background="new 0 0 66 66" xml:space="preserve">
<g>
	<path fill="#D3D3D3" d="M20.757,26.804c1.159,3.828,3.968,6.193,3.968,6.193l-0.062,6.167c0,0-1.564,0.932-8.166,3.607
		S6.257,48.558,4.272,51.567C2.493,54.271,0,66.001,0,66.001h33H66c0,0-1.897-11.261-3.677-13.965
		c-1.983-3.011-6.219-6.589-12.82-9.265s-8.166-3.607-8.166-3.607l-0.062-6.167c0.994-0.51,2.796-2.354,3.943-6.074
		c0,0,1.266-4.042,1.352-8.337c0.041-1.982-0.232-7.052-0.366-8.411C45.711,5.232,40.702,0,33.001,0
		c-7.702,0-12.711,5.231-13.2,10.174c-0.137,1.359-0.527,6.964-0.432,8.765C19.529,21.965,20.757,26.804,20.757,26.804z"/>
</g>
</svg>
