<?xml version="1.0" encoding="utf-8"?>
<!-- Generator: Adobe Illustrator 15.1.0, SVG Export Plug-In . SVG Version: 6.00 Build 0)  -->
<!DOCTYPE svg PUBLIC "-//W3C//DTD SVG 1.1//EN" "http://www.w3.org/Graphics/SVG/1.1/DTD/svg11.dtd">
<svg version="1.1" id="Calque_1" xmlns="http://www.w3.org/2000/svg" xmlns:xlink="http://www.w3.org/1999/xlink" x="0px" y="0px"
	 width="22px" height="22px" viewBox="0 0 22 22" enable-background="new 0 0 22 22" xml:space="preserve">
<g>
	<path fill="#93908D" d="M11.195,1.565c0,0.861,0.702,1.566,1.565,1.566h3.277l-5.847,5.849c-0.609,0.608-0.609,1.604,0,2.214
		c0.611,0.609,1.606,0.609,2.215,0l6.098-6.097v3.777c0,0.861,0.703,1.566,1.566,1.566c0.861,0,1.565-0.705,1.565-1.566V3.131V2.609
		v-2.61h-3.654h-0.522h-4.698C11.897-0.001,11.195,0.703,11.195,1.565z"/>
	<path fill="#93908D" d="M6.699-0.001h-6.21V22h21.021v-5.726c0-1.246-0.629-1.621-1.566-1.621c-0.875,0-1.625,0.375-1.625,1.556
		v2.482c0,0,0.055,0.41-0.41,0.41c-0.466,0-14.27,0-14.27,0s-0.383,0.109-0.383-0.438s0-15.173,0-15.173S3.21,2.971,3.63,2.971
		s2.366,0,3.069,0c1.375,0,1.613-0.753,1.646-1.365C8.373,1.1,8.137-0.001,6.699-0.001z"/>
</g>
</svg>
