<?xml version="1.0" encoding="utf-8"?>
<!-- Generator: Adobe Illustrator 15.1.0, SVG Export Plug-In . SVG Version: 6.00 Build 0)  -->
<!DOCTYPE svg PUBLIC "-//W3C//DTD SVG 1.1//EN" "http://www.w3.org/Graphics/SVG/1.1/DTD/svg11.dtd">
<svg version="1.1" id="Calque_1" xmlns="http://www.w3.org/2000/svg" xmlns:xlink="http://www.w3.org/1999/xlink" x="0px" y="0px"
	 width="872px" height="72px" viewBox="0 0 872 72" enable-background="new 0 0 872 72" xml:space="preserve">
<rect x="0.237" y="0.248" fill="#F3F0E9" width="872.001" height="72"/>
<g opacity="0.75">
	
		<rect x="818.831" y="15.178" transform="matrix(-1 -0.0046 0.0046 -1 1640.5171 37.1545)" opacity="0.13" fill="#3D3D3C" stroke="#000000" stroke-width="2" enable-background="new    " width="2.941" height="2.986"/>
	
		<rect x="806.3" y="40.335" transform="matrix(-1 -0.004 0.004 -1 1615.366 86.8782)" opacity="0.13" fill="#3D3D3C" stroke="#000000" stroke-width="2" enable-background="new    " width="2.939" height="2.988"/>
	
		<rect x="799.245" y="25.012" transform="matrix(-1 -0.0046 0.0046 -1 1601.2998 56.7313)" opacity="0.13" fill="#3D3D3C" stroke="#000000" stroke-width="2" enable-background="new    " width="2.941" height="2.986"/>
	
		<rect x="861.228" y="34.182" transform="matrix(-1 -0.0046 0.0046 -1 1725.2256 75.3538)" opacity="0.13" fill="#3D3D3C" stroke="#000000" stroke-width="2" enable-background="new    " width="2.945" height="2.986"/>
	
		<rect x="840.77" y="40.468" transform="matrix(-1 -0.0053 0.0053 -1 1684.25 88.3893)" opacity="0.13" fill="#3D3D3C" stroke="#000000" stroke-width="2" enable-background="new    " width="2.945" height="2.986"/>
	
		<rect x="723.593" y="52.59" transform="matrix(-1 -0.0046 0.0046 -1 1449.8743 111.5269)" opacity="0.13" fill="#3D3D3C" stroke="#000000" stroke-width="2" enable-background="new    " width="2.947" height="2.984"/>
	
		<rect x="761.179" y="38.834" transform="matrix(-1 -0.0046 0.0046 -1 1525.1052 84.1964)" opacity="0.13" fill="#3D3D3C" stroke="#000000" stroke-width="2" enable-background="new    " width="2.943" height="2.986"/>
	
		<rect x="743.425" y="30.852" transform="matrix(-1 -0.0046 0.0046 -1 1489.6367 68.1469)" opacity="0.13" fill="#3D3D3C" stroke="#000000" stroke-width="2" enable-background="new    " width="2.945" height="2.986"/>
	
		<rect x="773.206" y="5.385" transform="matrix(-1 -0.0046 0.0046 -1 1549.3152 17.3561)" opacity="0.13" fill="#3D3D3C" stroke="#000000" stroke-width="2" enable-background="new    " width="2.943" height="2.988"/>
	
		<rect x="689.99" y="16.67" transform="matrix(-1 -0.0046 0.0046 -1 1382.8359 39.5355)" opacity="0.13" fill="#3D3D3C" stroke="#000000" stroke-width="2" enable-background="new    " width="2.947" height="2.988"/>
	
		<rect x="621.869" y="43.35" transform="matrix(-1 -0.0046 0.0046 -1 1246.4666 92.5805)" opacity="0.13" fill="#3D3D3C" stroke="#000000" stroke-width="2" enable-background="new    " width="2.943" height="2.986"/>
	
		<rect x="609.306" y="8.652" transform="matrix(-1 -0.0046 0.0046 -1 1221.501 23.128)" opacity="0.13" fill="#3D3D3C" stroke="#000000" stroke-width="2" enable-background="new    " width="2.943" height="2.986"/>
	
		<rect x="575.228" y="49.635" transform="matrix(-1 -0.0046 0.0046 -1 1153.1526 104.932)" opacity="0.13" fill="#3D3D3C" stroke="#000000" stroke-width="2" enable-background="new    " width="2.941" height="2.982"/>
	
		<rect x="530.624" y="10.18" transform="matrix(-1 -0.0046 0.0046 -1 1064.1315 25.8172)" opacity="0.13" fill="#3D3D3C" stroke="#000000" stroke-width="2" enable-background="new    " width="2.943" height="2.986"/>
	
		<rect x="547.662" y="18.165" transform="matrix(-1 -0.0053 0.0053 -1 1098.1575 42.2293)" opacity="0.13" fill="#3D3D3C" stroke="#000000" stroke-width="2" enable-background="new    " width="2.945" height="2.986"/>
	
		<rect x="536.169" y="53.379" transform="matrix(-1 -0.0046 0.0046 -1 1075.0227 112.2373)" opacity="0.13" fill="#3D3D3C" stroke="#000000" stroke-width="2" enable-background="new    " width="2.945" height="2.984"/>
	
		<rect x="561.852" y="32.342" transform="matrix(-1 -0.0046 0.0046 -1 1126.4854 70.2845)" opacity="0.13" fill="#3D3D3C" stroke="#000000" stroke-width="2" enable-background="new    " width="2.945" height="2.986"/>
	
		<rect x="506.566" y="51.145" transform="matrix(-1 -0.0046 0.0046 -1 1015.8282 107.6331)" opacity="0.13" fill="#3D3D3C" stroke="#000000" stroke-width="2" enable-background="new    " width="2.945" height="2.986"/>
	
		<rect x="653.909" y="8.652" transform="matrix(-1 -0.0046 0.0046 -1 1310.7075 23.3352)" opacity="0.13" fill="#3D3D3C" stroke="#000000" stroke-width="2" enable-background="new    " width="2.943" height="2.986"/>
	
		<rect x="704.179" y="62.307" transform="matrix(-1 -0.0046 0.0046 -1 1410.999 130.8725)" opacity="0.13" fill="#3D3D3C" stroke="#000000" stroke-width="2" enable-background="new    " width="2.945" height="2.984"/>
	<polyline opacity="0.13" fill="none" stroke="#000000" stroke-width="2" enable-background="new    " points="502.514,21.132 
		550.09,45.847 600.541,41.782 621.859,16.63 670.994,23.149 690.539,1.313 	"/>
	<polyline opacity="0.13" fill="none" stroke="#000000" stroke-width="2" enable-background="new    " points="621.859,72.349 
		653.893,40.448 742.842,43.378 762.119,56.905 800.707,1.313 	"/>
	<polyline opacity="0.13" fill="none" stroke="#000000" stroke-width="2" enable-background="new    " points="873.463,65.263 
		834.43,18.937 819.318,59.345 780.16,56.905 769.125,72.349 	"/>
	<path opacity="0.13" fill="none" stroke="#000000" stroke-width="0.75" enable-background="new    " d="M731.16,2.718"/>
	
		<rect x="658.689" y="52.614" transform="matrix(-1 -0.0053 0.0053 -1 1320.0258 111.7166)" opacity="0.13" fill="#3D3D3C" stroke="#000000" stroke-width="2" enable-background="new    " width="2.943" height="2.984"/>
	
		<rect x="709.821" y="10.152" transform="matrix(-1 -0.0046 0.0046 -1 1422.5222 26.597)" opacity="0.13" fill="#3D3D3C" stroke="#000000" stroke-width="2" enable-background="new    " width="2.941" height="2.986"/>
</g>
<polygon fill="#F2EEE7" points="724.873,0.324 687.64,71.981 144.672,71.146 144.694,-0.349 "/>
<g>
	<rect x="554.918" y="32.031" opacity="0.1" fill="#3D3D3C" enable-background="new    " width="7.52" height="7.714"/>
	<rect x="554.918" y="47.459" opacity="0.1" fill="#3D3D3C" enable-background="new    " width="7.52" height="7.714"/>
	<rect x="547.301" y="39.842" opacity="0.1" fill="#3D3D3C" enable-background="new    " width="7.52" height="7.714"/>
	<rect x="562.436" y="39.745" opacity="0.1" fill="#3D3D3C" enable-background="new    " width="7.52" height="7.715"/>
	<rect x="569.959" y="47.459" opacity="0.1" fill="#3D3D3C" enable-background="new    " width="7.52" height="7.714"/>
	<rect x="562.438" y="24.317" opacity="0.1" fill="#3D3D3C" enable-background="new    " width="7.521" height="7.714"/>
	<rect x="562.438" y="8.888" opacity="0.1" fill="#3D3D3C" enable-background="new    " width="7.521" height="7.714"/>
	<rect x="569.959" y="32.031" opacity="0.1" fill="#3D3D3C" enable-background="new    " width="7.52" height="7.714"/>
	<rect x="577.479" y="39.745" opacity="0.1" fill="#3D3D3C" enable-background="new    " width="7.521" height="7.715"/>
	<rect x="547.396" y="55.173" opacity="0.1" fill="#3D3D3C" enable-background="new    " width="7.521" height="7.715"/>
	<rect x="539.779" y="47.556" opacity="0.1" fill="#3D3D3C" enable-background="new    " width="7.521" height="7.715"/>
	<rect x="539.877" y="63.563" opacity="0.1" fill="#3D3D3C" enable-background="new    " width="7.521" height="7.715"/>
	<rect x="562.438" y="55.173" opacity="0.1" fill="#3D3D3C" enable-background="new    " width="7.521" height="7.715"/>
	<rect x="577.479" y="55.173" opacity="0.1" fill="#3D3D3C" enable-background="new    " width="7.521" height="7.715"/>
	<rect x="585" y="47.459" opacity="0.1" fill="#3D3D3C" enable-background="new    " width="7.521" height="7.714"/>
	<rect x="592.52" y="55.173" opacity="0.1" fill="#3D3D3C" enable-background="new    " width="7.521" height="7.715"/>
	<rect x="592.52" y="39.745" opacity="0.1" fill="#3D3D3C" enable-background="new    " width="7.521" height="7.715"/>
	<rect x="585" y="32.031" opacity="0.1" fill="#3D3D3C" enable-background="new    " width="7.521" height="7.714"/>
	<rect x="577.479" y="24.317" opacity="0.1" fill="#3D3D3C" enable-background="new    " width="7.521" height="7.714"/>
	<rect x="569.959" y="16.603" opacity="0.1" fill="#3D3D3C" enable-background="new    " width="7.52" height="7.715"/>
	<rect x="577.479" y="8.888" opacity="0.1" fill="#3D3D3C" enable-background="new    " width="7.521" height="7.715"/>
	<rect x="569.958" y="1.173" opacity="0.1" fill="#3D3D3C" enable-background="new    " width="7.521" height="7.715"/>
	<rect x="585" y="1.174" opacity="0.1" fill="#3D3D3C" enable-background="new    " width="7.521" height="7.714"/>
	<rect x="592.52" y="8.888" opacity="0.1" fill="#3D3D3C" enable-background="new    " width="7.521" height="7.715"/>
	<rect x="585" y="16.603" opacity="0.1" fill="#3D3D3C" enable-background="new    " width="7.521" height="7.715"/>
	<rect x="592.52" y="24.317" opacity="0.1" fill="#3D3D3C" enable-background="new    " width="7.521" height="7.714"/>
	<rect x="600.039" y="1.174" opacity="0.1" fill="#3D3D3C" enable-background="new    " width="7.521" height="7.714"/>
	<rect x="607.561" y="8.888" opacity="0.1" fill="#3D3D3C" enable-background="new    " width="7.52" height="7.715"/>
	<rect x="615.08" y="16.603" opacity="0.1" fill="#3D3D3C" enable-background="new    " width="7.521" height="7.715"/>
	<rect x="607.561" y="24.317" opacity="0.1" fill="#3D3D3C" enable-background="new    " width="7.52" height="7.714"/>
	<rect x="615.08" y="32.031" opacity="0.1" fill="#3D3D3C" enable-background="new    " width="7.521" height="7.714"/>
	<rect x="607.561" y="39.745" opacity="0.1" fill="#3D3D3C" enable-background="new    " width="7.52" height="7.715"/>
	<rect x="615.08" y="47.459" opacity="0.1" fill="#3D3D3C" enable-background="new    " width="7.521" height="7.714"/>
	<rect x="600.039" y="16.603" opacity="0.1" fill="#3D3D3C" enable-background="new    " width="7.521" height="7.715"/>
	<rect x="600.039" y="32.031" opacity="0.1" fill="#3D3D3C" enable-background="new    " width="7.521" height="7.714"/>
	<rect x="600.039" y="47.459" opacity="0.1" fill="#3D3D3C" enable-background="new    " width="7.521" height="7.714"/>
	<rect x="622.598" y="39.745" opacity="0.1" fill="#3D3D3C" enable-background="new    " width="7.521" height="7.715"/>
	<rect x="630.121" y="47.459" opacity="0.1" fill="#3D3D3C" enable-background="new    " width="7.521" height="7.714"/>
	<rect x="622.602" y="24.317" opacity="0.1" fill="#3D3D3C" enable-background="new    " width="7.52" height="7.714"/>
	<rect x="630.121" y="32.031" opacity="0.1" fill="#3D3D3C" enable-background="new    " width="7.521" height="7.714"/>
	<rect x="637.643" y="39.745" opacity="0.1" fill="#3D3D3C" enable-background="new    " width="7.52" height="7.715"/>
	<rect x="607.561" y="55.173" opacity="0.1" fill="#3D3D3C" enable-background="new    " width="7.52" height="7.715"/>
	<rect x="622.602" y="55.173" opacity="0.1" fill="#3D3D3C" enable-background="new    " width="7.52" height="7.715"/>
	<rect x="637.643" y="55.173" opacity="0.1" fill="#3D3D3C" enable-background="new    " width="7.52" height="7.715"/>
	<rect x="645.16" y="47.459" opacity="0.1" fill="#3D3D3C" enable-background="new    " width="7.521" height="7.714"/>
	<rect x="652.682" y="55.173" opacity="0.1" fill="#3D3D3C" enable-background="new    " width="7.521" height="7.715"/>
	<rect x="652.682" y="39.745" opacity="0.1" fill="#3D3D3C" enable-background="new    " width="7.521" height="7.715"/>
	<rect x="645.16" y="32.031" opacity="0.1" fill="#3D3D3C" enable-background="new    " width="7.521" height="7.714"/>
	<rect x="637.643" y="24.317" opacity="0.1" fill="#3D3D3C" enable-background="new    " width="7.52" height="7.714"/>
	<rect x="630.121" y="16.603" opacity="0.1" fill="#3D3D3C" enable-background="new    " width="7.521" height="7.715"/>
	<rect x="622.602" y="8.888" opacity="0.1" fill="#3D3D3C" enable-background="new    " width="7.52" height="7.715"/>
	<rect x="615.08" y="1.174" opacity="0.1" fill="#3D3D3C" enable-background="new    " width="7.521" height="7.714"/>
	<rect x="630.121" y="1.174" opacity="0.1" fill="#3D3D3C" enable-background="new    " width="7.521" height="7.714"/>
	<rect x="637.643" y="8.888" opacity="0.1" fill="#3D3D3C" enable-background="new    " width="7.52" height="7.715"/>
	<rect x="645.16" y="1.174" opacity="0.1" fill="#3D3D3C" enable-background="new    " width="7.521" height="7.714"/>
	<rect x="652.682" y="8.888" opacity="0.1" fill="#3D3D3C" enable-background="new    " width="7.521" height="7.715"/>
	<rect x="645.16" y="16.603" opacity="0.1" fill="#3D3D3C" enable-background="new    " width="7.521" height="7.715"/>
	<rect x="652.682" y="24.317" opacity="0.1" fill="#3D3D3C" enable-background="new    " width="7.521" height="7.714"/>
	<rect x="660.201" y="1.174" opacity="0.1" fill="#3D3D3C" enable-background="new    " width="7.521" height="7.714"/>
	<rect x="667.723" y="8.888" opacity="0.1" fill="#3D3D3C" enable-background="new    " width="7.521" height="7.715"/>
	<rect x="675.242" y="16.603" opacity="0.1" fill="#3D3D3C" enable-background="new    " width="7.521" height="7.715"/>
	<rect x="667.723" y="24.317" opacity="0.1" fill="#3D3D3C" enable-background="new    " width="7.521" height="7.714"/>
	<rect x="675.242" y="32.031" opacity="0.1" fill="#3D3D3C" enable-background="new    " width="7.521" height="7.714"/>
	<rect x="667.723" y="39.745" opacity="0.1" fill="#3D3D3C" enable-background="new    " width="7.521" height="7.715"/>
	<rect x="675.242" y="47.459" opacity="0.1" fill="#3D3D3C" enable-background="new    " width="7.521" height="7.714"/>
	<rect x="660.201" y="16.603" opacity="0.1" fill="#3D3D3C" enable-background="new    " width="7.521" height="7.715"/>
	<rect x="660.201" y="32.031" opacity="0.1" fill="#3D3D3C" enable-background="new    " width="7.521" height="7.714"/>
	<rect x="660.201" y="47.459" opacity="0.1" fill="#3D3D3C" enable-background="new    " width="7.521" height="7.714"/>
	<rect x="682.762" y="39.745" opacity="0.1" fill="#3D3D3C" enable-background="new    " width="7.52" height="7.715"/>
	<rect x="682.764" y="24.317" opacity="0.1" fill="#3D3D3C" enable-background="new    " width="7.52" height="7.714"/>
	<rect x="690.283" y="32.031" opacity="0.1" fill="#3D3D3C" enable-background="new    " width="7.521" height="7.714"/>
	<rect x="667.723" y="55.173" opacity="0.1" fill="#3D3D3C" enable-background="new    " width="7.521" height="7.715"/>
	<rect x="682.764" y="55.173" opacity="0.1" fill="#3D3D3C" enable-background="new    " width="7.52" height="7.715"/>
	<rect x="697.805" y="24.317" opacity="0.1" fill="#3D3D3C" enable-background="new    " width="7.52" height="7.714"/>
	<rect x="690.283" y="16.603" opacity="0.1" fill="#3D3D3C" enable-background="new    " width="7.521" height="7.715"/>
	<rect x="682.764" y="8.888" opacity="0.1" fill="#3D3D3C" enable-background="new    " width="7.52" height="7.715"/>
	<rect x="675.242" y="1.174" opacity="0.1" fill="#3D3D3C" enable-background="new    " width="7.521" height="7.714"/>
	<rect x="690.283" y="1.174" opacity="0.1" fill="#3D3D3C" enable-background="new    " width="7.521" height="7.714"/>
	<rect x="697.805" y="8.888" opacity="0.1" fill="#3D3D3C" enable-background="new    " width="7.52" height="7.715"/>
	<rect x="705.324" y="1.174" opacity="0.1" fill="#3D3D3C" enable-background="new    " width="7.521" height="7.714"/>
	<rect x="705.324" y="16.603" opacity="0.1" fill="#3D3D3C" enable-background="new    " width="7.521" height="7.715"/>
	<rect x="554.918" y="63.563" opacity="0.1" fill="#3D3D3C" enable-background="new    " width="7.52" height="7.713"/>
	<rect x="569.959" y="63.563" opacity="0.1" fill="#3D3D3C" enable-background="new    " width="7.52" height="7.713"/>
	<rect x="585" y="63.563" opacity="0.1" fill="#3D3D3C" enable-background="new    " width="7.521" height="7.713"/>
	<rect x="615.08" y="63.563" opacity="0.1" fill="#3D3D3C" enable-background="new    " width="7.521" height="7.713"/>
	<rect x="600.039" y="63.563" opacity="0.1" fill="#3D3D3C" enable-background="new    " width="7.521" height="7.713"/>
	<rect x="630.121" y="63.563" opacity="0.1" fill="#3D3D3C" enable-background="new    " width="7.521" height="7.713"/>
	<rect x="645.16" y="63.563" opacity="0.1" fill="#3D3D3C" enable-background="new    " width="7.521" height="7.713"/>
	<rect x="675.242" y="63.563" opacity="0.1" fill="#3D3D3C" enable-background="new    " width="7.521" height="7.713"/>
	<rect x="660.201" y="63.563" opacity="0.1" fill="#3D3D3C" enable-background="new    " width="7.521" height="7.713"/>
	<polygon opacity="0.1" fill="#3D3D3C" enable-background="new    " points="690.283,47.269 690.283,54.981 696.059,54.981 
		697.805,51.582 697.805,47.269 	"/>
	<polygon opacity="0.1" fill="#3D3D3C" enable-background="new    " points="697.805,39.745 697.805,47.46 699.92,47.46 
		703.883,39.745 	"/>
	<polygon opacity="0.1" fill="#3D3D3C" enable-background="new    " points="712.586,8.888 712.586,16.603 715.768,16.603 
		719.729,8.888 	"/>
	<polygon opacity="0.1" fill="#3D3D3C" enable-background="new    " points="719.729,1.175 719.729,8.13 723.299,1.175 	"/>
	<g opacity="0.1">
		<polygon opacity="0.03" fill="#3D3D3C" enable-background="new    " points="690.283,63.563 690.283,66.66 691.873,63.563 		"/>
		<rect x="690.283" y="71.276" opacity="0.03" fill="#3D3D3C" enable-background="new    " width="7.521" height="0.002"/>
	</g>
	<g opacity="0.1" enable-background="new    ">
		<polygon opacity="0.03" fill="#3D3D3C" enable-background="new    " points="707.107,31.898 705.385,31.898 705.385,35.2 		"/>
		<polygon fill="#3D3D3C" points="705.371,32.056 707.398,32.056 705.385,35.356 		"/>
	</g>
	<g opacity="0.1" enable-background="new    ">
		<polygon opacity="0.03" fill="#3D3D3C" enable-background="new    " points="691.801,62.888 690.078,62.888 690.078,66.19 		"/>
		<polygon fill="#3D3D3C" points="690.064,63.045 692.092,63.045 690.078,66.347 		"/>
	</g>
</g>
<polygon fill="#DEDBD6" stroke="#D5D5D3" stroke-miterlimit="10" points="574.486,0.324 537.689,71.981 1.087,71.146 1.108,-0.349 
	"/>
</svg>
