<?xml version="1.0" encoding="utf-8"?>
<!-- Generator: Adobe Illustrator 15.1.0, SVG Export Plug-In . SVG Version: 6.00 Build 0)  -->
<!DOCTYPE svg PUBLIC "-//W3C//DTD SVG 1.1//EN" "http://www.w3.org/Graphics/SVG/1.1/DTD/svg11.dtd">
<svg version="1.1" id="Calque_1" xmlns="http://www.w3.org/2000/svg" xmlns:xlink="http://www.w3.org/1999/xlink" x="0px" y="0px"
	 width="872px" height="72px" viewBox="0 0 872 72" enable-background="new 0 0 872 72" xml:space="preserve">
<g>
	<g>
		<rect x="-0.332" y="-0.066" fill="#F3F0E9" width="871" height="70.509"/>
		<path fill="#F3F0E9" d="M872,0.43V72H0.169V0.43H872"/>
	</g>
	<g opacity="0.5">
		<line fill="none" stroke="#FFFFFF" stroke-miterlimit="10" x1="706.583" y1="18.113" x2="785.829" y2="34.04"/>
		<g>
			<g>
				<line fill="none" stroke="#D8AFAE" stroke-miterlimit="10" x1="765.212" y1="10.354" x2="766.114" y2="10.786"/>
				<polyline fill="none" stroke="#D8AFAE" stroke-miterlimit="10" stroke-dasharray="1.9553,1.9553" points="767.877,11.63 
					790.88,22.648 810.6,28.045 				"/>
				<polyline fill="none" stroke="#D8AFAE" stroke-miterlimit="10" points="811.542,28.303 812.507,28.567 813.293,27.948 				"/>
				
					<line fill="none" stroke="#D8AFAE" stroke-miterlimit="10" stroke-dasharray="2.0271,2.0271" x1="814.885" y1="26.694" x2="845.939" y2="2.239"/>
				<line fill="none" stroke="#D8AFAE" stroke-miterlimit="10" x1="846.736" y1="1.612" x2="847.521" y2="0.993"/>
			</g>
		</g>
		<line fill="none" stroke="#FFFFFF" stroke-miterlimit="10" x1="824.012" y1="0.993" x2="864.027" y2="69.385"/>
		<line fill="none" stroke="#FFFFFF" stroke-miterlimit="10" x1="782.487" y1="41.57" x2="854.943" y2="53.859"/>
		<line fill="none" stroke="#FFFFFF" stroke-miterlimit="10" x1="806.366" y1="51.803" x2="808.699" y2="46.016"/>
		<line fill="none" stroke="#FFFFFF" stroke-miterlimit="10" x1="818.717" y1="53.357" x2="819.368" y2="47.827"/>
		<line fill="none" stroke="#FFFFFF" stroke-miterlimit="10" x1="649.097" y1="12.314" x2="641.456" y2="26.076"/>
		
			<line fill="none" stroke="#D8AFAE" stroke-miterlimit="10" stroke-dasharray="2" x1="624.823" y1="0.229" x2="607.297" y2="55.366"/>
		<line fill="none" stroke="#FFFFFF" stroke-miterlimit="10" x1="613.912" y1="19.195" x2="617.932" y2="0.993"/>
		<line fill="none" stroke="#FFFFFF" stroke-miterlimit="10" x1="743.48" y1="0.993" x2="733.977" y2="23.619"/>
	</g>
</g>
<g opacity="0.5">
	<ellipse fill="#FFFFFF" stroke="#2D2E82" stroke-miterlimit="10" cx="254.168" cy="27.552" rx="4.83" ry="3.546"/>
	<text transform="matrix(1.3622 0 0 1 251.001 29.2461)" fill="#2D2E82" font-family="'MyriadPro-Regular'" font-size="5.7827">M</text>
</g>
<line opacity="0.08" fill="none" stroke="#1D1D1B" stroke-width="0.75" enable-background="new    " x1="611.763" y1="0.229" x2="549.181" y2="72"/>
<path fill="#C5E5C7" d="M687.632,57.966l9.003-15.773l-45.518-13.544L628.144,72h50.895v0.004l0,0"/>
<g>
	<path fill="#C5E5C7" d="M718.491-8.644L718.491-8.644"/>
	<path fill="#C5E5C7" d="M698.406-0.138L694.334,8l-23.833-7.778"/>
</g>
<polygon fill="#C5E5C7" points="524.485,0.8 506.407,35.415 628.5,71.756 652.743,28.631 552.047,0.673 "/>
<polygon fill="#DEDBD6" points="719.524,0.222 710.954,18.113 734.149,23.123 742.761,0.229 "/>
<g opacity="0.5">
	<ellipse fill="#FFFFFF" stroke="#2D2E82" stroke-miterlimit="10" cx="504.579" cy="33.433" rx="4.83" ry="3.545"/>
	<text transform="matrix(1.3622 0 0 1 501.4131 35.1279)" fill="#2D2E82" font-family="'MyriadPro-Regular'" font-size="5.7827">M</text>
</g>
<rect x="663.596" y="6.19" transform="matrix(0.9408 0.339 -0.339 0.9408 43.8779 -230.7702)" fill="#DEDBD6" width="38.001" height="8.081"/>
<polygon fill="#DEDBD6" points="692.671,17.86 700.294,-0.084 710.007,-0.138 700.068,21.113 "/>
<polygon fill="#DEDBD6" points="689.738,66.907 697.361,48.963 705.721,51.803 697.136,70.16 "/>
<path fill="none" stroke="#D8AFAE" stroke-miterlimit="10" stroke-dasharray="2" d="M560.012,12.314
	c0,0,68.369,21.171,71.263,27.303c2.894,6.133,4.872,14.344-6.451,18.113s-75.643-23.69-75.643-23.69"/>
<polygon fill="#DEDBD6" points="778.129,50.325 755.784,41.71 759.667,29.246 785.829,34.04 "/>
<g>
	<line fill="none" stroke="#A8D2E6" stroke-width="3" stroke-miterlimit="10" x1="791.932" y1="69.947" x2="651.117" y2="28.649"/>
	<line fill="none" stroke="#A8D2E6" stroke-width="3" stroke-miterlimit="10" x1="799.398" y1="0" x2="771.834" y2="72.004"/>
	<line fill="none" stroke="#A8D2E6" stroke-width="3" stroke-miterlimit="10" x1="768.834" y1="-0.138" x2="744.167" y2="72"/>
	<polygon fill="#A8D2E6" points="631.632,71.578 491.556,29.073 488.391,33.53 612.899,71.578 	"/>
	<polygon fill="#E8F0E1" points="520.729,0.355 503.373,31.687 506.361,33.433 525.519,0.355 	"/>
	<polygon fill="#FFFFFF" stroke="#D6D6D4" stroke-miterlimit="10" points="558.283,0.229 549.181,0.229 791.932,71.239 
		801.501,71.239 	"/>
	<polygon fill="#FFFFFF" stroke="#D6D6D4" stroke-miterlimit="10" points="639.808,0.495 631.632,0.495 778.193,54.423 
		870.668,45.115 870.668,41.57 778.868,50.592 	"/>
	<polygon fill="#FFFFFF" stroke="#D6D6D4" stroke-miterlimit="10" points="716.352,0.226 713.534,-0.111 680.461,71.239 
		683.099,71.578 	"/>
	<polygon fill="#FFFFFF" stroke="#D6D6D4" stroke-miterlimit="10" points="664.885,0.226 659.25,-0.111 625.668,72.338 
		631.632,71.578 	"/>
</g>
<g>
	<ellipse fill="#FFFFFF" stroke="#2D2E82" stroke-miterlimit="10" cx="695.464" cy="41.57" rx="4.83" ry="3.545"/>
	<text transform="matrix(1.3622 0 0 1 692.2959 43.2646)" fill="#2D2E82" font-family="'MyriadPro-Regular'" font-size="5.7827">M</text>
</g>
<g>
	<ellipse fill="#FFFFFF" stroke="#2D2E82" stroke-miterlimit="10" cx="778.868" cy="52.725" rx="4.829" ry="3.545"/>
	<text transform="matrix(1.3622 0 0 1 775.6992 54.4229)" fill="#2D2E82" font-family="'MyriadPro-Regular'" font-size="5.7827">M</text>
</g>
<polygon fill="#DEDBD6" stroke="#D6D6D4" stroke-miterlimit="10" points="575.343,-0.111 538.465,71.757 0.159,72 0.18,-0.111 "/>
</svg>
