<?xml version="1.0" encoding="utf-8"?>
<!-- Generator: Adobe Illustrator 15.1.0, SVG Export Plug-In . SVG Version: 6.00 Build 0)  -->
<!DOCTYPE svg PUBLIC "-//W3C//DTD SVG 1.1//EN" "http://www.w3.org/Graphics/SVG/1.1/DTD/svg11.dtd">
<svg version="1.1" id="Calque_1" xmlns="http://www.w3.org/2000/svg" xmlns:xlink="http://www.w3.org/1999/xlink" x="0px" y="0px"
	 width="872px" height="72px" viewBox="0 0 872 72" enable-background="new 0 0 872 72" xml:space="preserve">
<rect x="0.591" fill="#EECDAE" width="872" height="72"/>
<rect x="817.367" y="13.571" transform="matrix(-1 -0.0046 0.0046 -1 1637.5969 33.9343)" opacity="0.13" fill="#3D3D3C" stroke="#000000" stroke-width="2" enable-background="new    " width="2.941" height="2.987"/>
<rect x="804.836" y="38.729" transform="matrix(-1 -0.0043 0.0043 -1 1612.4312 83.9271)" opacity="0.13" fill="#3D3D3C" stroke="#000000" stroke-width="2" enable-background="new    " width="2.94" height="2.988"/>
<rect x="797.781" y="23.405" transform="matrix(-1 -0.0046 0.0046 -1 1598.3806 53.5103)" opacity="0.13" fill="#3D3D3C" stroke="#000000" stroke-width="2" enable-background="new    " width="2.942" height="2.986"/>
<rect x="859.765" y="32.575" transform="matrix(-1 -0.0046 0.0046 -1 1722.3062 72.1349)" opacity="0.13" fill="#3D3D3C" stroke="#000000" stroke-width="2" enable-background="new    " width="2.944" height="2.986"/>
<rect x="839.307" y="38.862" transform="matrix(-1 -0.0053 0.0053 -1 1681.3315 85.1711)" opacity="0.13" fill="#3D3D3C" stroke="#000000" stroke-width="2" enable-background="new    " width="2.944" height="2.985"/>
<rect x="722.13" y="50.983" transform="matrix(-1 -0.0046 0.0046 -1 1446.9548 108.3083)" opacity="0.13" fill="#3D3D3C" stroke="#000000" stroke-width="2" enable-background="new    " width="2.946" height="2.984"/>
<rect x="759.715" y="37.228" transform="matrix(-1 -0.0046 0.0046 -1 1522.186 80.9754)" opacity="0.13" fill="#3D3D3C" stroke="#000000" stroke-width="2" enable-background="new    " width="2.944" height="2.986"/>
<rect x="741.96" y="29.245" transform="matrix(-1 -0.0048 0.0048 -1 1486.7109 65.0491)" opacity="0.13" fill="#3D3D3C" stroke="#000000" stroke-width="2" enable-background="new    " width="2.946" height="2.987"/>
<rect x="771.742" y="3.779" transform="matrix(-1 -0.0045 0.0045 -1 1546.3964 14.0086)" opacity="0.13" fill="#3D3D3C" stroke="#000000" stroke-width="2" enable-background="new    " width="2.943" height="2.987"/>
<rect x="688.528" y="15.064" transform="matrix(-1 -0.0046 0.0046 -1 1379.9177 36.3183)" opacity="0.13" fill="#3D3D3C" stroke="#000000" stroke-width="2" enable-background="new    " width="2.946" height="2.988"/>
<rect x="620.405" y="41.743" transform="matrix(-1 -0.0046 0.0046 -1 1243.5464 89.3598)" opacity="0.13" fill="#3D3D3C" stroke="#000000" stroke-width="2" enable-background="new    " width="2.944" height="2.986"/>
<rect x="607.843" y="7.046" transform="matrix(-1 -0.0048 0.0048 -1 1218.5808 20.0084)" opacity="0.13" fill="#3D3D3C" stroke="#000000" stroke-width="2" enable-background="new    " width="2.943" height="2.986"/>
<rect x="573.764" y="48.028" transform="matrix(-1 -0.0046 0.0046 -1 1150.2324 101.7123)" opacity="0.13" fill="#3D3D3C" stroke="#000000" stroke-width="2" enable-background="new    " width="2.941" height="2.982"/>
<rect x="529.16" y="8.574" transform="matrix(-1 -0.0045 0.0045 -1 1061.2142 22.5106)" opacity="0.13" fill="#3D3D3C" stroke="#000000" stroke-width="2" enable-background="new    " width="2.944" height="2.987"/>
<rect x="546.2" y="16.559" transform="matrix(-1 -0.005 0.005 -1 1095.2472 38.8279)" opacity="0.13" fill="#3D3D3C" stroke="#000000" stroke-width="2" enable-background="new    " width="2.944" height="2.986"/>
<rect x="534.706" y="51.772" transform="matrix(-1 -0.0046 0.0046 -1 1072.1033 109.0184)" opacity="0.13" fill="#3D3D3C" stroke="#000000" stroke-width="2" enable-background="new    " width="2.944" height="2.984"/>
<rect x="560.388" y="30.735" transform="matrix(-1 -0.0048 0.0048 -1 1123.5603 67.1579)" opacity="0.13" fill="#3D3D3C" stroke="#000000" stroke-width="2" enable-background="new    " width="2.945" height="2.987"/>
<rect x="505.102" y="49.538" transform="matrix(-1 -0.0046 0.0046 -1 1012.9081 104.4136)" opacity="0.13" fill="#3D3D3C" stroke="#000000" stroke-width="2" enable-background="new    " width="2.946" height="2.987"/>
<rect x="652.446" y="7.046" transform="matrix(-1 -0.0048 0.0048 -1 1307.7874 20.224)" opacity="0.13" fill="#3D3D3C" stroke="#000000" stroke-width="2" enable-background="new    " width="2.943" height="2.986"/>
<rect x="702.715" y="60.701" transform="matrix(-1 -0.0046 0.0046 -1 1408.0798 127.6527)" opacity="0.13" fill="#3D3D3C" stroke="#000000" stroke-width="2" enable-background="new    " width="2.946" height="2.983"/>
<polyline opacity="0.13" fill="none" stroke="#000000" stroke-width="2" enable-background="new    " points="501.05,19.525 
	548.627,44.241 599.078,40.176 620.396,15.024 669.53,21.543 689.075,-0.293 "/>
<polyline opacity="0.13" fill="none" stroke="#000000" stroke-width="2" enable-background="new    " points="620.396,70.743 
	652.43,38.842 741.378,41.771 760.655,55.3 799.244,-0.293 "/>
<polyline opacity="0.13" fill="none" stroke="#000000" stroke-width="2" enable-background="new    " points="872,63.657 
	832.967,17.331 817.855,57.738 778.697,55.3 767.662,70.743 "/>
<path opacity="0.13" fill="none" stroke="#000000" stroke-width="0.75" enable-background="new    " d="M729.696,1.111"/>
<rect x="657.226" y="51.008" transform="matrix(-1 -0.0053 0.0053 -1 1317.1077 108.4947)" opacity="0.13" fill="#3D3D3C" stroke="#000000" stroke-width="2" enable-background="new    " width="2.944" height="2.984"/>
<rect x="708.358" y="8.546" transform="matrix(-1 -0.0045 0.0045 -1 1419.6062 23.2609)" opacity="0.13" fill="#3D3D3C" stroke="#000000" stroke-width="2" enable-background="new    " width="2.941" height="2.987"/>
<g>
	<polygon fill="#F2DAC3" points="596.684,72 589.434,18.495 673.709,5.497 699.198,26.585 703.683,70.88 	"/>
	<g>
		<polyline opacity="0.8" fill="#FFFFFF" stroke="#CFCFCF" stroke-width="2" stroke-miterlimit="10" points="596.684,72.424 
			589.434,18.919 673.709,5.921 699.198,27.009 703.934,72.424 		"/>
		
			<line fill="#FFFFFF" stroke="#CFCFCF" stroke-width="2" stroke-miterlimit="10" x1="591.25" y1="31.674" x2="685.889" y2="16.915"/>
		
			<line fill="#FFFFFF" stroke="#E6E6E6" stroke-width="2" stroke-miterlimit="10" x1="592.461" y1="21.828" x2="627.231" y2="16.406"/>
		
			<line fill="#FFFFFF" stroke="#E6E6E6" stroke-width="2" stroke-miterlimit="10" x1="593.11" y1="25.119" x2="603.68" y2="23.471"/>
		
			<line fill="#FFFFFF" stroke="#E6E6E6" stroke-width="2" stroke-miterlimit="10" x1="594.341" y1="34.561" x2="608.044" y2="32.424"/>
		
			<line fill="#FFFFFF" stroke="#E6E6E6" stroke-width="2" stroke-miterlimit="10" x1="594.853" y1="38.745" x2="605.422" y2="37.097"/>
		
			<line fill="#FFFFFF" stroke="#E6E6E6" stroke-width="2" stroke-miterlimit="10" x1="595.341" y1="41.703" x2="614.307" y2="38.745"/>
		
			<line fill="#FFFFFF" stroke="#E6E6E6" stroke-width="2" stroke-miterlimit="10" x1="597.988" y1="58.772" x2="628.006" y2="54.091"/>
		
			<line fill="#FFFFFF" stroke="#E6E6E6" stroke-width="2" stroke-miterlimit="10" x1="598.727" y1="69.935" x2="610.834" y2="68.046"/>
		
			<line fill="#FFFFFF" stroke="#E6E6E6" stroke-width="2" stroke-miterlimit="10" x1="624.521" y1="70.879" x2="644.859" y2="67.706"/>
		
			<line fill="#FFFFFF" stroke="#E6E6E6" stroke-width="2" stroke-miterlimit="10" x1="650.079" y1="66.963" x2="670.417" y2="63.79"/>
		
			<line fill="#FFFFFF" stroke="#E6E6E6" stroke-width="2" stroke-miterlimit="10" x1="673.631" y1="63.214" x2="683.011" y2="61.887"/>
		
			<line fill="#FFFFFF" stroke="#E6E6E6" stroke-width="2" stroke-miterlimit="10" x1="674.241" y1="66.703" x2="694.843" y2="63.789"/>
		<line fill="#FFFFFF" stroke="#E6E6E6" stroke-width="2" stroke-miterlimit="10" x1="674.859" y1="69.64" x2="695.57" y2="66.71"/>
		
			<line fill="#FFFFFF" stroke="#E6E6E6" stroke-width="2" stroke-miterlimit="10" x1="684.338" y1="71.619" x2="696.25" y2="69.935"/>
		
			<line fill="#FFFFFF" stroke="#E6E6E6" stroke-width="2" stroke-miterlimit="10" x1="650.673" y1="70.136" x2="671.011" y2="66.963"/>
		
			<line fill="#FFFFFF" stroke="#E6E6E6" stroke-width="2" stroke-miterlimit="10" x1="662.43" y1="71.503" x2="671.469" y2="70.093"/>
		
			<line fill="#FFFFFF" stroke="#E6E6E6" stroke-width="2" stroke-miterlimit="10" x1="595.908" y1="44.702" x2="609.327" y2="42.609"/>
		
			<line fill="#FFFFFF" stroke="#E6E6E6" stroke-width="2" stroke-miterlimit="10" x1="596.427" y1="47.639" x2="608.207" y2="45.802"/>
		
			<line fill="#FFFFFF" stroke="#E6E6E6" stroke-width="2" stroke-miterlimit="10" x1="596.971" y1="50.284" x2="606.834" y2="48.746"/>
		
			<line fill="#FFFFFF" stroke="#E6E6E6" stroke-width="2" stroke-miterlimit="10" x1="598.727" y1="63.28" x2="603.658" y2="62.512"/>
		
			<line fill="#FFFFFF" stroke="#E6E6E6" stroke-width="2" stroke-miterlimit="10" x1="644.859" y1="31.343" x2="661.668" y2="28.721"/>
		
			<line fill="#FFFFFF" stroke="#E6E6E6" stroke-width="2" stroke-miterlimit="10" x1="645.348" y1="34.301" x2="664.313" y2="31.343"/>
		
			<line fill="#FFFFFF" stroke="#E6E6E6" stroke-width="2" stroke-miterlimit="10" x1="645.915" y1="37.3" x2="659.334" y2="35.207"/>
		
			<line fill="#FFFFFF" stroke="#E6E6E6" stroke-width="2" stroke-miterlimit="10" x1="646.434" y1="40.236" x2="675.251" y2="35.742"/>
		
			<line fill="#FFFFFF" stroke="#E6E6E6" stroke-width="2" stroke-miterlimit="10" x1="646.978" y1="42.882" x2="663.084" y2="40.37"/>
		
			<line fill="#FFFFFF" stroke="#E6E6E6" stroke-width="2" stroke-miterlimit="10" x1="597.564" y1="52.983" x2="614.874" y2="50.284"/>
		
			<line fill="#FFFFFF" stroke="#E6E6E6" stroke-width="2" stroke-miterlimit="10" x1="593.519" y1="28.102" x2="615.418" y2="24.687"/>
		
			<line fill="#FFFFFF" stroke="#E6E6E6" stroke-width="2" stroke-miterlimit="10" x1="644.859" y1="20.21" x2="669.251" y2="16.406"/>
		
			<line fill="#FFFFFF" stroke="#CFCFCF" stroke-width="2" stroke-miterlimit="10" x1="594.341" y1="56.256" x2="700.503" y2="39.699"/>
		
			<line fill="#FFFFFF" stroke="#CFCFCF" stroke-width="2" stroke-miterlimit="10" x1="595.341" y1="67.594" x2="701.503" y2="51.037"/>
		<g>
			<polygon fill="#CFCFCF" points="700.495,26.648 674.241,5.073 673.631,6.924 676.25,30.549 698.125,27.549 			"/>
		</g>
	</g>
</g>
<polygon fill="#F2DAC3" points="566.919,0.05 528,71.68 0.362,71.68 0.376,0.05 "/>
</svg>
