<?xml version="1.0" encoding="utf-8"?>
<!-- Generator: Adobe Illustrator 15.1.0, SVG Export Plug-In . SVG Version: 6.00 Build 0)  -->
<!DOCTYPE svg PUBLIC "-//W3C//DTD SVG 1.1//EN" "http://www.w3.org/Graphics/SVG/1.1/DTD/svg11.dtd">
<svg version="1.1" id="Calque_1" xmlns="http://www.w3.org/2000/svg" xmlns:xlink="http://www.w3.org/1999/xlink" x="0px" y="0px"
	 width="872px" height="72px" viewBox="0 0 872 72" enable-background="new 0 0 872 72" xml:space="preserve">
<rect x="0.591" fill="#4E4D4D" width="872" height="72"/>
<polygon fill="#4E4D4D" points="554.548,72 547.298,18.495 631.573,5.497 657.062,26.585 661.547,70.88 "/>
<rect x="473.424" y="1.286" opacity="0.06" fill="#9C9B9B" enable-background="new    " width="7.521" height="7.714"/>
<rect x="480.943" y="8.999" opacity="0.06" fill="#9C9B9B" enable-background="new    " width="7.521" height="7.714"/>
<rect x="488.464" y="16.713" opacity="0.06" fill="#9C9B9B" enable-background="new    " width="7.521" height="7.716"/>
<rect x="480.943" y="24.429" opacity="0.06" fill="#9C9B9B" enable-background="new    " width="7.521" height="7.713"/>
<rect x="488.464" y="32.142" opacity="0.06" fill="#9C9B9B" enable-background="new    " width="7.521" height="7.713"/>
<rect x="480.943" y="39.854" opacity="0.06" fill="#9C9B9B" enable-background="new    " width="7.521" height="7.717"/>
<rect x="488.464" y="47.57" opacity="0.06" fill="#9C9B9B" enable-background="new    " width="7.521" height="7.715"/>
<rect x="473.424" y="16.713" opacity="0.06" fill="#9C9B9B" enable-background="new    " width="7.521" height="7.716"/>
<rect x="473.424" y="32.142" opacity="0.06" fill="#9C9B9B" enable-background="new    " width="7.521" height="7.713"/>
<rect x="473.424" y="47.57" opacity="0.06" fill="#9C9B9B" enable-background="new    " width="7.521" height="7.715"/>
<rect x="495.984" y="39.854" opacity="0.06" fill="#9C9B9B" enable-background="new    " width="7.521" height="7.717"/>
<rect x="503.505" y="47.57" opacity="0.06" fill="#9C9B9B" enable-background="new    " width="7.521" height="7.715"/>
<rect x="495.984" y="24.429" opacity="0.06" fill="#9C9B9B" enable-background="new    " width="7.521" height="7.713"/>
<rect x="503.505" y="32.142" opacity="0.06" fill="#9C9B9B" enable-background="new    " width="7.521" height="7.713"/>
<rect x="511.025" y="39.854" opacity="0.06" fill="#9C9B9B" enable-background="new    " width="7.521" height="7.717"/>
<rect x="480.943" y="55.285" opacity="0.06" fill="#9C9B9B" enable-background="new    " width="7.521" height="7.715"/>
<rect x="495.984" y="55.285" opacity="0.06" fill="#9C9B9B" enable-background="new    " width="7.521" height="7.715"/>
<rect x="511.025" y="55.285" opacity="0.06" fill="#9C9B9B" enable-background="new    " width="7.521" height="7.715"/>
<rect x="518.545" y="47.57" opacity="0.06" fill="#9C9B9B" enable-background="new    " width="7.521" height="7.715"/>
<rect x="526.065" y="55.285" opacity="0.06" fill="#9C9B9B" enable-background="new    " width="7.521" height="7.715"/>
<rect x="526.065" y="39.854" opacity="0.06" fill="#9C9B9B" enable-background="new    " width="7.521" height="7.717"/>
<rect x="518.545" y="32.142" opacity="0.06" fill="#9C9B9B" enable-background="new    " width="7.521" height="7.713"/>
<rect x="511.025" y="24.429" opacity="0.06" fill="#9C9B9B" enable-background="new    " width="7.521" height="7.713"/>
<rect x="503.505" y="16.713" opacity="0.06" fill="#9C9B9B" enable-background="new    " width="7.521" height="7.716"/>
<rect x="495.984" y="8.999" opacity="0.06" fill="#9C9B9B" enable-background="new    " width="7.521" height="7.714"/>
<rect x="488.464" y="1.286" opacity="0.06" fill="#9C9B9B" enable-background="new    " width="7.521" height="7.714"/>
<rect x="503.505" y="1.286" opacity="0.06" fill="#9C9B9B" enable-background="new    " width="7.521" height="7.714"/>
<rect x="511.025" y="8.999" opacity="0.06" fill="#9C9B9B" enable-background="new    " width="7.521" height="7.714"/>
<rect x="518.545" y="1.286" opacity="0.06" fill="#9C9B9B" enable-background="new    " width="7.521" height="7.714"/>
<rect x="526.065" y="8.999" opacity="0.06" fill="#9C9B9B" enable-background="new    " width="7.521" height="7.714"/>
<rect x="518.545" y="16.713" opacity="0.06" fill="#9C9B9B" enable-background="new    " width="7.521" height="7.716"/>
<rect x="526.065" y="24.429" opacity="0.06" fill="#9C9B9B" enable-background="new    " width="7.521" height="7.713"/>
<rect x="533.586" y="1.286" opacity="0.06" fill="#9C9B9B" enable-background="new    " width="7.521" height="7.714"/>
<rect x="541.106" y="8.999" opacity="0.06" fill="#9C9B9B" enable-background="new    " width="7.521" height="7.714"/>
<rect x="548.627" y="16.713" opacity="0.06" fill="#9C9B9B" enable-background="new    " width="7.521" height="7.716"/>
<rect x="541.106" y="24.429" opacity="0.06" fill="#9C9B9B" enable-background="new    " width="7.521" height="7.713"/>
<rect x="548.627" y="32.142" opacity="0.06" fill="#9C9B9B" enable-background="new    " width="7.521" height="7.713"/>
<rect x="541.106" y="39.854" opacity="0.06" fill="#9C9B9B" enable-background="new    " width="7.521" height="7.717"/>
<rect x="548.627" y="47.57" opacity="0.06" fill="#9C9B9B" enable-background="new    " width="7.521" height="7.715"/>
<rect x="533.586" y="16.713" opacity="0.06" fill="#9C9B9B" enable-background="new    " width="7.521" height="7.716"/>
<rect x="533.586" y="32.142" opacity="0.06" fill="#9C9B9B" enable-background="new    " width="7.521" height="7.713"/>
<rect x="533.586" y="47.57" opacity="0.06" fill="#9C9B9B" enable-background="new    " width="7.521" height="7.715"/>
<rect x="556.146" y="39.854" opacity="0.06" fill="#9C9B9B" enable-background="new    " width="7.52" height="7.717"/>
<rect x="563.668" y="47.57" opacity="0.06" fill="#9C9B9B" enable-background="new    " width="7.521" height="7.715"/>
<rect x="556.146" y="24.429" opacity="0.06" fill="#9C9B9B" enable-background="new    " width="7.521" height="7.713"/>
<rect x="563.668" y="32.142" opacity="0.06" fill="#9C9B9B" enable-background="new    " width="7.521" height="7.713"/>
<rect x="571.188" y="39.854" opacity="0.06" fill="#9C9B9B" enable-background="new    " width="7.521" height="7.717"/>
<rect x="541.106" y="55.285" opacity="0.06" fill="#9C9B9B" enable-background="new    " width="7.521" height="7.715"/>
<rect x="488.464" y="63" opacity="0.06" fill="#9C9B9B" enable-background="new    " width="7.521" height="7.714"/>
<rect x="503.505" y="63" opacity="0.06" fill="#9C9B9B" enable-background="new    " width="7.521" height="7.714"/>
<rect x="518.545" y="63" opacity="0.06" fill="#9C9B9B" enable-background="new    " width="7.521" height="7.714"/>
<rect x="533.586" y="63" opacity="0.06" fill="#9C9B9B" enable-background="new    " width="7.521" height="7.714"/>
<rect x="556.146" y="55.285" opacity="0.06" fill="#9C9B9B" enable-background="new    " width="7.521" height="7.715"/>
<rect x="571.188" y="55.285" opacity="0.06" fill="#9C9B9B" enable-background="new    " width="7.521" height="7.715"/>
<rect x="578.709" y="47.57" opacity="0.06" fill="#9C9B9B" enable-background="new    " width="7.521" height="7.715"/>
<rect x="586.229" y="55.285" opacity="0.06" fill="#9C9B9B" enable-background="new    " width="7.521" height="7.715"/>
<rect x="586.229" y="39.854" opacity="0.06" fill="#9C9B9B" enable-background="new    " width="7.521" height="7.717"/>
<rect x="578.709" y="32.142" opacity="0.06" fill="#9C9B9B" enable-background="new    " width="7.521" height="7.713"/>
<rect x="571.188" y="24.429" opacity="0.06" fill="#9C9B9B" enable-background="new    " width="7.521" height="7.713"/>
<rect x="563.668" y="16.713" opacity="0.06" fill="#9C9B9B" enable-background="new    " width="7.521" height="7.716"/>
<rect x="556.146" y="8.999" opacity="0.06" fill="#9C9B9B" enable-background="new    " width="7.521" height="7.714"/>
<rect x="548.627" y="1.286" opacity="0.06" fill="#9C9B9B" enable-background="new    " width="7.521" height="7.714"/>
<rect x="563.668" y="1.286" opacity="0.06" fill="#9C9B9B" enable-background="new    " width="7.521" height="7.714"/>
<rect x="571.188" y="8.999" opacity="0.06" fill="#9C9B9B" enable-background="new    " width="7.521" height="7.714"/>
<rect x="578.709" y="1.286" opacity="0.06" fill="#9C9B9B" enable-background="new    " width="7.521" height="7.714"/>
<rect x="586.229" y="8.999" opacity="0.06" fill="#9C9B9B" enable-background="new    " width="7.521" height="7.714"/>
<rect x="578.709" y="16.713" opacity="0.06" fill="#9C9B9B" enable-background="new    " width="7.521" height="7.716"/>
<rect x="586.229" y="24.429" opacity="0.06" fill="#9C9B9B" enable-background="new    " width="7.521" height="7.713"/>
<rect x="593.748" y="1.286" opacity="0.06" fill="#9C9B9B" enable-background="new    " width="7.521" height="7.714"/>
<rect x="601.269" y="8.999" opacity="0.06" fill="#9C9B9B" enable-background="new    " width="7.521" height="7.714"/>
<rect x="608.789" y="16.713" opacity="0.06" fill="#9C9B9B" enable-background="new    " width="7.521" height="7.716"/>
<rect x="601.269" y="24.429" opacity="0.06" fill="#9C9B9B" enable-background="new    " width="7.521" height="7.713"/>
<rect x="608.789" y="32.142" opacity="0.06" fill="#9C9B9B" enable-background="new    " width="7.521" height="7.713"/>
<rect x="601.269" y="39.854" opacity="0.06" fill="#9C9B9B" enable-background="new    " width="7.521" height="7.717"/>
<rect x="608.789" y="47.57" opacity="0.06" fill="#9C9B9B" enable-background="new    " width="7.521" height="7.715"/>
<rect x="593.748" y="16.713" opacity="0.06" fill="#9C9B9B" enable-background="new    " width="7.521" height="7.716"/>
<rect x="593.748" y="32.142" opacity="0.06" fill="#9C9B9B" enable-background="new    " width="7.521" height="7.713"/>
<rect x="593.748" y="47.57" opacity="0.06" fill="#9C9B9B" enable-background="new    " width="7.521" height="7.715"/>
<rect x="616.31" y="39.854" opacity="0.06" fill="#9C9B9B" enable-background="new    " width="7.521" height="7.717"/>
<rect x="623.83" y="47.57" opacity="0.06" fill="#9C9B9B" enable-background="new    " width="7.521" height="7.715"/>
<rect x="616.31" y="24.429" opacity="0.06" fill="#9C9B9B" enable-background="new    " width="7.521" height="7.713"/>
<rect x="623.83" y="32.142" opacity="0.06" fill="#9C9B9B" enable-background="new    " width="7.521" height="7.713"/>
<rect x="631.351" y="39.854" opacity="0.06" fill="#9C9B9B" enable-background="new    " width="7.521" height="7.717"/>
<rect x="601.269" y="55.285" opacity="0.06" fill="#9C9B9B" enable-background="new    " width="7.521" height="7.715"/>
<rect x="616.31" y="55.285" opacity="0.06" fill="#9C9B9B" enable-background="new    " width="7.521" height="7.715"/>
<rect x="631.351" y="55.285" opacity="0.06" fill="#9C9B9B" enable-background="new    " width="7.521" height="7.715"/>
<rect x="638.87" y="47.57" opacity="0.06" fill="#9C9B9B" enable-background="new    " width="7.521" height="7.715"/>
<rect x="646.391" y="55.285" opacity="0.06" fill="#9C9B9B" enable-background="new    " width="7.521" height="7.715"/>
<rect x="646.391" y="39.854" opacity="0.06" fill="#9C9B9B" enable-background="new    " width="7.521" height="7.717"/>
<rect x="638.87" y="32.142" opacity="0.06" fill="#9C9B9B" enable-background="new    " width="7.521" height="7.713"/>
<rect x="631.351" y="24.429" opacity="0.06" fill="#9C9B9B" enable-background="new    " width="7.521" height="7.713"/>
<rect x="623.83" y="16.713" opacity="0.06" fill="#9C9B9B" enable-background="new    " width="7.521" height="7.716"/>
<rect x="616.31" y="8.999" opacity="0.06" fill="#9C9B9B" enable-background="new    " width="7.521" height="7.714"/>
<rect x="608.789" y="1.286" opacity="0.06" fill="#9C9B9B" enable-background="new    " width="7.521" height="7.714"/>
<rect x="623.83" y="1.286" opacity="0.06" fill="#9C9B9B" enable-background="new    " width="7.521" height="7.714"/>
<rect x="631.351" y="8.999" opacity="0.06" fill="#9C9B9B" enable-background="new    " width="7.521" height="7.714"/>
<rect x="638.87" y="1.286" opacity="0.06" fill="#9C9B9B" enable-background="new    " width="7.521" height="7.714"/>
<rect x="646.391" y="8.999" opacity="0.06" fill="#9C9B9B" enable-background="new    " width="7.521" height="7.714"/>
<rect x="638.87" y="16.713" opacity="0.06" fill="#9C9B9B" enable-background="new    " width="7.521" height="7.716"/>
<rect x="646.391" y="24.429" opacity="0.06" fill="#9C9B9B" enable-background="new    " width="7.521" height="7.713"/>
<rect x="653.911" y="1.286" opacity="0.06" fill="#9C9B9B" enable-background="new    " width="7.521" height="7.714"/>
<rect x="661.432" y="8.999" opacity="0.06" fill="#9C9B9B" enable-background="new    " width="7.521" height="7.714"/>
<rect x="668.952" y="16.713" opacity="0.06" fill="#9C9B9B" enable-background="new    " width="7.521" height="7.716"/>
<rect x="661.432" y="24.429" opacity="0.06" fill="#9C9B9B" enable-background="new    " width="7.521" height="7.713"/>
<rect x="668.952" y="32.142" opacity="0.06" fill="#9C9B9B" enable-background="new    " width="7.521" height="7.713"/>
<rect x="661.432" y="39.854" opacity="0.06" fill="#9C9B9B" enable-background="new    " width="7.521" height="7.717"/>
<rect x="668.952" y="47.57" opacity="0.06" fill="#9C9B9B" enable-background="new    " width="7.521" height="7.715"/>
<rect x="653.911" y="16.713" opacity="0.06" fill="#9C9B9B" enable-background="new    " width="7.521" height="7.716"/>
<rect x="653.911" y="32.142" opacity="0.06" fill="#9C9B9B" enable-background="new    " width="7.521" height="7.713"/>
<rect x="653.911" y="47.57" opacity="0.06" fill="#9C9B9B" enable-background="new    " width="7.521" height="7.715"/>
<rect x="676.472" y="39.854" opacity="0.06" fill="#9C9B9B" enable-background="new    " width="7.521" height="7.717"/>
<rect x="683.992" y="47.57" opacity="0.06" fill="#9C9B9B" enable-background="new    " width="7.521" height="7.715"/>
<rect x="676.472" y="24.429" opacity="0.06" fill="#9C9B9B" enable-background="new    " width="7.521" height="7.713"/>
<rect x="683.992" y="32.142" opacity="0.06" fill="#9C9B9B" enable-background="new    " width="7.521" height="7.713"/>
<rect x="691.513" y="39.854" opacity="0.06" fill="#9C9B9B" enable-background="new    " width="7.521" height="7.717"/>
<rect x="661.432" y="55.285" opacity="0.06" fill="#9C9B9B" enable-background="new    " width="7.521" height="7.715"/>
<rect x="676.472" y="55.285" opacity="0.06" fill="#9C9B9B" enable-background="new    " width="7.521" height="7.715"/>
<rect x="691.513" y="55.285" opacity="0.06" fill="#9C9B9B" enable-background="new    " width="7.521" height="7.715"/>
<rect x="699.033" y="47.57" opacity="0.06" fill="#9C9B9B" enable-background="new    " width="7.521" height="7.715"/>
<rect x="706.554" y="55.285" opacity="0.06" fill="#9C9B9B" enable-background="new    " width="7.521" height="7.715"/>
<rect x="706.554" y="39.854" opacity="0.06" fill="#9C9B9B" enable-background="new    " width="7.521" height="7.717"/>
<rect x="699.033" y="32.142" opacity="0.06" fill="#9C9B9B" enable-background="new    " width="7.521" height="7.713"/>
<rect x="691.513" y="24.429" opacity="0.06" fill="#9C9B9B" enable-background="new    " width="7.521" height="7.713"/>
<rect x="683.992" y="16.713" opacity="0.06" fill="#9C9B9B" enable-background="new    " width="7.521" height="7.716"/>
<rect x="676.472" y="8.999" opacity="0.06" fill="#9C9B9B" enable-background="new    " width="7.521" height="7.714"/>
<rect x="668.952" y="1.286" opacity="0.06" fill="#9C9B9B" enable-background="new    " width="7.521" height="7.714"/>
<rect x="683.992" y="1.286" opacity="0.06" fill="#9C9B9B" enable-background="new    " width="7.521" height="7.714"/>
<rect x="691.513" y="8.999" opacity="0.06" fill="#9C9B9B" enable-background="new    " width="7.521" height="7.714"/>
<rect x="699.033" y="1.286" opacity="0.06" fill="#9C9B9B" enable-background="new    " width="7.521" height="7.714"/>
<rect x="706.554" y="8.999" opacity="0.06" fill="#9C9B9B" enable-background="new    " width="7.521" height="7.714"/>
<rect x="699.033" y="16.713" opacity="0.06" fill="#9C9B9B" enable-background="new    " width="7.521" height="7.716"/>
<rect x="706.554" y="24.429" opacity="0.06" fill="#9C9B9B" enable-background="new    " width="7.521" height="7.713"/>
<rect x="714.074" y="1.286" opacity="0.06" fill="#9C9B9B" enable-background="new    " width="7.521" height="7.714"/>
<rect x="721.594" y="8.999" opacity="0.06" fill="#9C9B9B" enable-background="new    " width="7.521" height="7.714"/>
<rect x="729.114" y="16.713" opacity="0.06" fill="#9C9B9B" enable-background="new    " width="7.521" height="7.716"/>
<rect x="721.594" y="24.429" opacity="0.06" fill="#9C9B9B" enable-background="new    " width="7.521" height="7.713"/>
<rect x="729.114" y="32.142" opacity="0.06" fill="#9C9B9B" enable-background="new    " width="7.521" height="7.713"/>
<rect x="721.594" y="39.854" opacity="0.06" fill="#9C9B9B" enable-background="new    " width="7.521" height="7.717"/>
<rect x="729.114" y="47.57" opacity="0.06" fill="#9C9B9B" enable-background="new    " width="7.521" height="7.715"/>
<rect x="714.074" y="16.713" opacity="0.06" fill="#9C9B9B" enable-background="new    " width="7.521" height="7.716"/>
<rect x="714.074" y="32.142" opacity="0.06" fill="#9C9B9B" enable-background="new    " width="7.521" height="7.713"/>
<rect x="714.074" y="47.57" opacity="0.06" fill="#9C9B9B" enable-background="new    " width="7.521" height="7.715"/>
<rect x="736.635" y="39.854" opacity="0.06" fill="#9C9B9B" enable-background="new    " width="7.521" height="7.717"/>
<rect x="744.155" y="47.57" opacity="0.06" fill="#9C9B9B" enable-background="new    " width="7.521" height="7.715"/>
<rect x="736.635" y="24.429" opacity="0.06" fill="#9C9B9B" enable-background="new    " width="7.521" height="7.713"/>
<rect x="744.155" y="32.142" opacity="0.06" fill="#9C9B9B" enable-background="new    " width="7.521" height="7.713"/>
<rect x="751.676" y="39.854" opacity="0.06" fill="#9C9B9B" enable-background="new    " width="7.521" height="7.717"/>
<rect x="721.594" y="55.285" opacity="0.06" fill="#9C9B9B" enable-background="new    " width="7.521" height="7.715"/>
<rect x="736.635" y="55.285" opacity="0.06" fill="#9C9B9B" enable-background="new    " width="7.521" height="7.715"/>
<rect x="751.676" y="55.285" opacity="0.06" fill="#9C9B9B" enable-background="new    " width="7.521" height="7.715"/>
<rect x="759.195" y="47.57" opacity="0.06" fill="#9C9B9B" enable-background="new    " width="7.521" height="7.715"/>
<rect x="766.716" y="55.285" opacity="0.06" fill="#9C9B9B" enable-background="new    " width="7.521" height="7.715"/>
<rect x="766.716" y="39.854" opacity="0.06" fill="#9C9B9B" enable-background="new    " width="7.521" height="7.717"/>
<rect x="759.195" y="32.142" opacity="0.06" fill="#9C9B9B" enable-background="new    " width="7.521" height="7.713"/>
<rect x="751.676" y="24.429" opacity="0.06" fill="#9C9B9B" enable-background="new    " width="7.521" height="7.713"/>
<rect x="744.155" y="16.713" opacity="0.06" fill="#9C9B9B" enable-background="new    " width="7.521" height="7.716"/>
<rect x="736.635" y="8.999" opacity="0.06" fill="#9C9B9B" enable-background="new    " width="7.521" height="7.714"/>
<rect x="729.114" y="1.286" opacity="0.06" fill="#9C9B9B" enable-background="new    " width="7.521" height="7.714"/>
<rect x="744.155" y="1.286" opacity="0.06" fill="#9C9B9B" enable-background="new    " width="7.521" height="7.714"/>
<rect x="751.676" y="8.999" opacity="0.06" fill="#9C9B9B" enable-background="new    " width="7.521" height="7.714"/>
<rect x="759.195" y="1.286" opacity="0.06" fill="#9C9B9B" enable-background="new    " width="7.521" height="7.714"/>
<rect x="766.716" y="8.999" opacity="0.06" fill="#9C9B9B" enable-background="new    " width="7.521" height="7.714"/>
<rect x="759.195" y="16.713" opacity="0.06" fill="#9C9B9B" enable-background="new    " width="7.521" height="7.716"/>
<rect x="766.716" y="24.429" opacity="0.06" fill="#9C9B9B" enable-background="new    " width="7.521" height="7.713"/>
<rect x="774.236" y="1.286" opacity="0.06" fill="#9C9B9B" enable-background="new    " width="7.521" height="7.714"/>
<rect x="781.757" y="8.999" opacity="0.06" fill="#9C9B9B" enable-background="new    " width="7.521" height="7.714"/>
<rect x="789.277" y="16.713" opacity="0.06" fill="#9C9B9B" enable-background="new    " width="7.521" height="7.716"/>
<rect x="781.757" y="24.429" opacity="0.06" fill="#9C9B9B" enable-background="new    " width="7.521" height="7.713"/>
<rect x="789.277" y="32.142" opacity="0.06" fill="#9C9B9B" enable-background="new    " width="7.521" height="7.713"/>
<rect x="781.757" y="39.854" opacity="0.06" fill="#9C9B9B" enable-background="new    " width="7.521" height="7.717"/>
<rect x="789.277" y="47.57" opacity="0.06" fill="#9C9B9B" enable-background="new    " width="7.521" height="7.715"/>
<rect x="774.236" y="16.713" opacity="0.06" fill="#9C9B9B" enable-background="new    " width="7.521" height="7.716"/>
<rect x="774.236" y="32.142" opacity="0.06" fill="#9C9B9B" enable-background="new    " width="7.521" height="7.713"/>
<rect x="774.236" y="47.57" opacity="0.06" fill="#9C9B9B" enable-background="new    " width="7.521" height="7.715"/>
<rect x="796.797" y="39.854" opacity="0.06" fill="#9C9B9B" enable-background="new    " width="7.521" height="7.717"/>
<rect x="804.317" y="47.57" opacity="0.06" fill="#9C9B9B" enable-background="new    " width="7.521" height="7.715"/>
<rect x="796.797" y="24.429" opacity="0.06" fill="#9C9B9B" enable-background="new    " width="7.521" height="7.713"/>
<rect x="804.317" y="32.142" opacity="0.06" fill="#9C9B9B" enable-background="new    " width="7.521" height="7.713"/>
<rect x="811.838" y="39.854" opacity="0.06" fill="#9C9B9B" enable-background="new    " width="7.521" height="7.717"/>
<rect x="781.757" y="55.285" opacity="0.06" fill="#9C9B9B" enable-background="new    " width="7.521" height="7.715"/>
<rect x="796.797" y="55.285" opacity="0.06" fill="#9C9B9B" enable-background="new    " width="7.521" height="7.715"/>
<rect x="811.838" y="55.285" opacity="0.06" fill="#9C9B9B" enable-background="new    " width="7.521" height="7.715"/>
<rect x="819.358" y="47.57" opacity="0.06" fill="#9C9B9B" enable-background="new    " width="7.521" height="7.715"/>
<rect x="826.879" y="55.285" opacity="0.06" fill="#9C9B9B" enable-background="new    " width="7.521" height="7.715"/>
<rect x="826.879" y="39.854" opacity="0.06" fill="#9C9B9B" enable-background="new    " width="7.521" height="7.717"/>
<rect x="819.358" y="32.142" opacity="0.06" fill="#9C9B9B" enable-background="new    " width="7.521" height="7.713"/>
<rect x="811.838" y="24.429" opacity="0.06" fill="#9C9B9B" enable-background="new    " width="7.521" height="7.713"/>
<rect x="804.317" y="16.713" opacity="0.06" fill="#9C9B9B" enable-background="new    " width="7.521" height="7.716"/>
<rect x="796.797" y="8.999" opacity="0.06" fill="#9C9B9B" enable-background="new    " width="7.521" height="7.714"/>
<rect x="789.277" y="1.286" opacity="0.06" fill="#9C9B9B" enable-background="new    " width="7.521" height="7.714"/>
<rect x="804.317" y="1.286" opacity="0.06" fill="#9C9B9B" enable-background="new    " width="7.521" height="7.714"/>
<rect x="811.838" y="8.999" opacity="0.06" fill="#9C9B9B" enable-background="new    " width="7.521" height="7.714"/>
<rect x="819.358" y="1.286" opacity="0.06" fill="#9C9B9B" enable-background="new    " width="7.521" height="7.714"/>
<rect x="826.879" y="8.999" opacity="0.06" fill="#9C9B9B" enable-background="new    " width="7.521" height="7.714"/>
<rect x="819.358" y="16.713" opacity="0.06" fill="#9C9B9B" enable-background="new    " width="7.521" height="7.716"/>
<rect x="826.879" y="24.429" opacity="0.06" fill="#9C9B9B" enable-background="new    " width="7.521" height="7.713"/>
<rect x="834.398" y="16.713" opacity="0.06" fill="#9C9B9B" enable-background="new    " width="7.521" height="7.716"/>
<rect x="834.398" y="32.142" opacity="0.06" fill="#9C9B9B" enable-background="new    " width="7.521" height="7.713"/>
<rect x="834.398" y="47.57" opacity="0.06" fill="#9C9B9B" enable-background="new    " width="7.521" height="7.715"/>
<rect x="841.918" y="39.854" opacity="0.06" fill="#9C9B9B" enable-background="new    " width="7.521" height="7.717"/>
<rect x="849.439" y="47.57" opacity="0.06" fill="#9C9B9B" enable-background="new    " width="7.521" height="7.715"/>
<rect x="841.918" y="24.429" opacity="0.06" fill="#9C9B9B" enable-background="new    " width="7.521" height="7.713"/>
<rect x="849.439" y="32.142" opacity="0.06" fill="#9C9B9B" enable-background="new    " width="7.521" height="7.713"/>
<rect x="856.959" y="39.854" opacity="0.06" fill="#9C9B9B" enable-background="new    " width="7.521" height="7.717"/>
<rect x="841.918" y="55.285" opacity="0.06" fill="#9C9B9B" enable-background="new    " width="7.521" height="7.715"/>
<rect x="856.959" y="55.285" opacity="0.06" fill="#9C9B9B" enable-background="new    " width="7.521" height="7.715"/>
<rect x="864.48" y="47.57" opacity="0.06" fill="#9C9B9B" enable-background="new    " width="7.52" height="7.715"/>
<rect x="864.48" y="32.142" opacity="0.06" fill="#9C9B9B" enable-background="new    " width="7.52" height="7.713"/>
<rect x="856.959" y="24.429" opacity="0.06" fill="#9C9B9B" enable-background="new    " width="7.521" height="7.713"/>
<rect x="849.439" y="16.713" opacity="0.06" fill="#9C9B9B" enable-background="new    " width="7.521" height="7.716"/>
<rect x="841.918" y="8.999" opacity="0.06" fill="#9C9B9B" enable-background="new    " width="7.521" height="7.714"/>
<rect x="834.398" y="1.286" opacity="0.06" fill="#9C9B9B" enable-background="new    " width="7.521" height="7.714"/>
<rect x="849.439" y="1.286" opacity="0.06" fill="#9C9B9B" enable-background="new    " width="7.521" height="7.714"/>
<rect x="856.959" y="8.999" opacity="0.06" fill="#9C9B9B" enable-background="new    " width="7.521" height="7.714"/>
<rect x="864.48" y="1.286" opacity="0.06" fill="#9C9B9B" enable-background="new    " width="7.52" height="7.714"/>
<rect x="864.48" y="16.713" opacity="0.06" fill="#9C9B9B" enable-background="new    " width="7.52" height="7.716"/>
<rect x="548.627" y="62.999" opacity="0.06" fill="#9C9B9B" enable-background="new    " width="7.521" height="7.714"/>
<rect x="563.668" y="62.999" opacity="0.06" fill="#9C9B9B" enable-background="new    " width="7.521" height="7.714"/>
<rect x="578.709" y="62.999" opacity="0.06" fill="#9C9B9B" enable-background="new    " width="7.521" height="7.714"/>
<rect x="608.789" y="62.999" opacity="0.06" fill="#9C9B9B" enable-background="new    " width="7.521" height="7.714"/>
<rect x="593.748" y="62.999" opacity="0.06" fill="#9C9B9B" enable-background="new    " width="7.521" height="7.714"/>
<rect x="623.83" y="62.999" opacity="0.06" fill="#9C9B9B" enable-background="new    " width="7.521" height="7.714"/>
<rect x="638.87" y="62.999" opacity="0.06" fill="#9C9B9B" enable-background="new    " width="7.521" height="7.714"/>
<rect x="668.952" y="62.999" opacity="0.06" fill="#9C9B9B" enable-background="new    " width="7.521" height="7.714"/>
<rect x="653.911" y="62.999" opacity="0.06" fill="#9C9B9B" enable-background="new    " width="7.521" height="7.714"/>
<rect x="683.992" y="62.999" opacity="0.06" fill="#9C9B9B" enable-background="new    " width="7.521" height="7.714"/>
<rect x="699.033" y="62.999" opacity="0.06" fill="#9C9B9B" enable-background="new    " width="7.521" height="7.714"/>
<rect x="729.114" y="62.999" opacity="0.06" fill="#9C9B9B" enable-background="new    " width="7.521" height="7.714"/>
<rect x="714.074" y="62.999" opacity="0.06" fill="#9C9B9B" enable-background="new    " width="7.521" height="7.714"/>
<rect x="744.155" y="62.999" opacity="0.06" fill="#9C9B9B" enable-background="new    " width="7.521" height="7.714"/>
<rect x="759.195" y="62.999" opacity="0.06" fill="#9C9B9B" enable-background="new    " width="7.521" height="7.714"/>
<rect x="789.277" y="62.999" opacity="0.06" fill="#9C9B9B" enable-background="new    " width="7.521" height="7.714"/>
<rect x="774.236" y="62.999" opacity="0.06" fill="#9C9B9B" enable-background="new    " width="7.521" height="7.714"/>
<rect x="804.317" y="62.999" opacity="0.06" fill="#9C9B9B" enable-background="new    " width="7.521" height="7.714"/>
<rect x="819.358" y="62.999" opacity="0.06" fill="#9C9B9B" enable-background="new    " width="7.521" height="7.714"/>
<rect x="834.398" y="62.999" opacity="0.06" fill="#9C9B9B" enable-background="new    " width="7.521" height="7.714"/>
<rect x="849.439" y="62.999" opacity="0.06" fill="#9C9B9B" enable-background="new    " width="7.521" height="7.714"/>
<rect x="864.48" y="62.999" opacity="0.06" fill="#9C9B9B" enable-background="new    " width="7.52" height="7.714"/>
<polygon opacity="0.75" fill="#5D5D5C" enable-background="new    " points="566.25,0.05 527.5,71.68 0.362,71.68 0.376,0.05 "/>
<g>
	
		<polyline opacity="0.96" fill="#FFFFFF" stroke="#CFCFCF" stroke-width="2" stroke-miterlimit="10" enable-background="new    " points="
		595.99,72 588.74,18.495 673.016,5.497 698.505,26.584 703.24,72 	"/>
	<line fill="none" stroke="#CFCFCF" stroke-width="2" stroke-miterlimit="10" x1="590.557" y1="31.25" x2="685.195" y2="16.491"/>
	<line fill="none" stroke="#E6E6E6" stroke-width="2" stroke-miterlimit="10" x1="591.768" y1="21.404" x2="626.538" y2="15.981"/>
	<line fill="none" stroke="#E6E6E6" stroke-width="2" stroke-miterlimit="10" x1="592.417" y1="24.694" x2="602.986" y2="23.046"/>
	<line fill="none" stroke="#E6E6E6" stroke-width="2" stroke-miterlimit="10" x1="593.647" y1="34.137" x2="607.351" y2="32"/>
	<line fill="none" stroke="#E6E6E6" stroke-width="2" stroke-miterlimit="10" x1="594.16" y1="38.32" x2="604.729" y2="36.672"/>
	<line fill="none" stroke="#E6E6E6" stroke-width="2" stroke-miterlimit="10" x1="594.647" y1="41.279" x2="613.613" y2="38.32"/>
	<line fill="none" stroke="#E6E6E6" stroke-width="2" stroke-miterlimit="10" x1="597.295" y1="58.348" x2="627.312" y2="53.666"/>
	<line fill="none" stroke="#E6E6E6" stroke-width="2" stroke-miterlimit="10" x1="598.033" y1="69.51" x2="610.141" y2="67.621"/>
	<line fill="none" stroke="#E6E6E6" stroke-width="2" stroke-miterlimit="10" x1="623.828" y1="70.455" x2="644.166" y2="67.281"/>
	<line fill="none" stroke="#E6E6E6" stroke-width="2" stroke-miterlimit="10" x1="649.386" y1="66.539" x2="669.724" y2="63.365"/>
	<line fill="none" stroke="#E6E6E6" stroke-width="2" stroke-miterlimit="10" x1="672.938" y1="62.789" x2="682.317" y2="61.463"/>
	<line fill="none" stroke="#E6E6E6" stroke-width="2" stroke-miterlimit="10" x1="673.548" y1="66.279" x2="694.149" y2="63.365"/>
	<line fill="none" stroke="#E6E6E6" stroke-width="2" stroke-miterlimit="10" x1="674.166" y1="69.215" x2="694.877" y2="66.285"/>
	<line fill="none" stroke="#E6E6E6" stroke-width="2" stroke-miterlimit="10" x1="683.645" y1="71.195" x2="695.557" y2="69.51"/>
	<line fill="none" stroke="#E6E6E6" stroke-width="2" stroke-miterlimit="10" x1="649.979" y1="69.711" x2="670.317" y2="66.539"/>
	<line fill="none" stroke="#E6E6E6" stroke-width="2" stroke-miterlimit="10" x1="661.736" y1="71.078" x2="670.775" y2="69.668"/>
	<line fill="none" stroke="#E6E6E6" stroke-width="2" stroke-miterlimit="10" x1="595.215" y1="44.277" x2="608.634" y2="42.186"/>
	<line fill="none" stroke="#E6E6E6" stroke-width="2" stroke-miterlimit="10" x1="595.733" y1="47.215" x2="607.514" y2="45.377"/>
	<line fill="none" stroke="#E6E6E6" stroke-width="2" stroke-miterlimit="10" x1="596.277" y1="49.859" x2="606.141" y2="48.322"/>
	<line fill="none" stroke="#E6E6E6" stroke-width="2" stroke-miterlimit="10" x1="598.033" y1="62.855" x2="602.965" y2="62.088"/>
	<line fill="none" stroke="#E6E6E6" stroke-width="2" stroke-miterlimit="10" x1="644.166" y1="30.918" x2="660.975" y2="28.297"/>
	<line fill="none" stroke="#E6E6E6" stroke-width="2" stroke-miterlimit="10" x1="644.654" y1="33.876" x2="663.619" y2="30.918"/>
	<line fill="none" stroke="#E6E6E6" stroke-width="2" stroke-miterlimit="10" x1="645.222" y1="36.875" x2="658.641" y2="34.783"/>
	<line fill="none" stroke="#E6E6E6" stroke-width="2" stroke-miterlimit="10" x1="645.74" y1="39.812" x2="674.558" y2="35.318"/>
	<line fill="none" stroke="#E6E6E6" stroke-width="2" stroke-miterlimit="10" x1="646.285" y1="42.457" x2="662.391" y2="39.945"/>
	<line fill="none" stroke="#E6E6E6" stroke-width="2" stroke-miterlimit="10" x1="596.871" y1="52.559" x2="614.181" y2="49.859"/>
	<line fill="none" stroke="#E6E6E6" stroke-width="2" stroke-miterlimit="10" x1="592.825" y1="27.678" x2="614.725" y2="24.262"/>
	<line fill="none" stroke="#E6E6E6" stroke-width="2" stroke-miterlimit="10" x1="644.166" y1="19.786" x2="668.558" y2="15.981"/>
	<line fill="none" stroke="#CFCFCF" stroke-width="2" stroke-miterlimit="10" x1="593.647" y1="55.832" x2="699.81" y2="39.275"/>
	<line fill="none" stroke="#CFCFCF" stroke-width="2" stroke-miterlimit="10" x1="594.647" y1="67.17" x2="700.81" y2="50.613"/>
	<g>
		<polygon fill="#CFCFCF" points="699.802,26.225 673.548,4.648 672.938,6.5 675.557,30.125 697.432,27.125 		"/>
	</g>
</g>
</svg>
