<?xml version="1.0" encoding="utf-8"?>
<!-- Generator: Adobe Illustrator 15.1.0, SVG Export Plug-In . SVG Version: 6.00 Build 0)  -->
<!DOCTYPE svg PUBLIC "-//W3C//DTD SVG 1.1//EN" "http://www.w3.org/Graphics/SVG/1.1/DTD/svg11.dtd">
<svg version="1.1" id="Calque_1" xmlns="http://www.w3.org/2000/svg" xmlns:xlink="http://www.w3.org/1999/xlink" x="0px" y="0px"
	 width="872px" height="72px" viewBox="0 0 872 72" enable-background="new 0 0 872 72" xml:space="preserve">
<rect x="0.591" fill="#EECDAE" width="872" height="72"/>
<g opacity="0.18">
	<path fill="#3D3D3C" d="M853.453,48.198c-0.937,7.808-8.032,13.437-15.875,12.502c-7.85-0.917-13.461-8.032-12.528-15.882
		c0.928-7.838,8.034-13.445,15.882-12.523C848.78,33.233,854.391,40.34,853.453,48.198z"/>
	<path fill="#3D3D3C" d="M823.948,25.383l-3.957-6.836c-15.075,8.729-20.236,28.012-11.551,43.102l6.834-3.957
		C808.771,46.379,812.646,31.926,823.948,25.383z"/>
	<path opacity="0.75" fill="#3D3D3C" enable-background="new    " d="M806.374,9.137l-3.956-6.834
		c-22.626,13.099-30.364,42.041-17.306,64.679l6.834-3.955C781.073,44.164,787.521,20.049,806.374,9.137z"/>
	<path opacity="0.1" fill="#3D3D3C" enable-background="new    " d="M690.269,72.465c-12.157-22.604-13.3-48.738-4.685-71.584
		h-8.407c-7.854,22.986-6.791,48.738,4.224,71.584H690.269z"/>
	<path opacity="0.15" fill="#3D3D3C" enable-background="new    " d="M718.142,71.053c-10.302-22.879-9.855-48.352-0.34-70.172
		h-8.558c-8.688,22.049-9.04,47.168,0.306,70.172H718.142z"/>
	<path opacity="0.25" fill="#3D3D3C" enable-background="new    " d="M744.105,71.053c-11.993-22.828-10.297-49.477,2.483-70.172
		h-9.104c-11.373,21.207-12.789,47.174-2.181,70.172H744.105z"/>
	<path opacity="0.5" fill="#3D3D3C" enable-background="new    " d="M763.54,71.299l5.104-2.957
		c-12.969-22.469-8.347-50.268,9.592-67.461h-11.141c-15.725,19.5-18.944,47.273-6.211,70.418H763.54z"/>
</g>
<polygon fill="#EECDAE" points="597.695,72 590.445,18.495 674.721,5.497 700.21,26.585 704.945,72 "/>
<polygon fill="#F2DAC3" points="568.396,0.05 529.222,71.68 0.362,71.68 0.376,0.05 "/>
<g>
	
		<polyline opacity="0.8" fill="#FFFFFF" stroke="#CFCFCF" stroke-width="2" stroke-miterlimit="10" enable-background="new    " points="
		597.695,72 590.445,18.495 674.721,5.497 700.21,26.585 704.945,72 	"/>
	<line fill="none" stroke="#CFCFCF" stroke-width="2" stroke-miterlimit="10" x1="592.262" y1="31.25" x2="686.9" y2="16.491"/>
	<line fill="none" stroke="#E6E6E6" stroke-width="2" stroke-miterlimit="10" x1="593.473" y1="21.404" x2="628.243" y2="15.982"/>
	<line fill="none" stroke="#E6E6E6" stroke-width="2" stroke-miterlimit="10" x1="594.122" y1="24.695" x2="604.691" y2="23.046"/>
	<line fill="none" stroke="#E6E6E6" stroke-width="2" stroke-miterlimit="10" x1="595.353" y1="34.137" x2="609.056" y2="32"/>
	<line fill="none" stroke="#E6E6E6" stroke-width="2" stroke-miterlimit="10" x1="595.865" y1="38.32" x2="606.434" y2="36.673"/>
	<line fill="none" stroke="#E6E6E6" stroke-width="2" stroke-miterlimit="10" x1="596.353" y1="41.279" x2="615.318" y2="38.32"/>
	<line fill="none" stroke="#E6E6E6" stroke-width="2" stroke-miterlimit="10" x1="599" y1="58.35" x2="629.018" y2="53.667"/>
	<line fill="none" stroke="#E6E6E6" stroke-width="2" stroke-miterlimit="10" x1="599.738" y1="69.511" x2="611.846" y2="67.622"/>
	<line fill="none" stroke="#E6E6E6" stroke-width="2" stroke-miterlimit="10" x1="625.533" y1="70.455" x2="645.871" y2="67.282"/>
	<line fill="none" stroke="#E6E6E6" stroke-width="2" stroke-miterlimit="10" x1="651.091" y1="66.539" x2="671.429" y2="63.366"/>
	<line fill="none" stroke="#E6E6E6" stroke-width="2" stroke-miterlimit="10" x1="674.643" y1="62.79" x2="684.022" y2="61.463"/>
	<line fill="none" stroke="#E6E6E6" stroke-width="2" stroke-miterlimit="10" x1="675.253" y1="66.279" x2="695.854" y2="63.365"/>
	<line fill="none" stroke="#E6E6E6" stroke-width="2" stroke-miterlimit="10" x1="675.871" y1="69.216" x2="696.582" y2="66.286"/>
	<line fill="none" stroke="#E6E6E6" stroke-width="2" stroke-miterlimit="10" x1="685.35" y1="71.195" x2="697.262" y2="69.511"/>
	<line fill="none" stroke="#E6E6E6" stroke-width="2" stroke-miterlimit="10" x1="651.685" y1="69.712" x2="672.022" y2="66.539"/>
	<line fill="none" stroke="#E6E6E6" stroke-width="2" stroke-miterlimit="10" x1="663.441" y1="71.079" x2="672.48" y2="69.669"/>
	<line fill="none" stroke="#E6E6E6" stroke-width="2" stroke-miterlimit="10" x1="596.92" y1="44.277" x2="610.339" y2="42.186"/>
	<line fill="none" stroke="#E6E6E6" stroke-width="2" stroke-miterlimit="10" x1="597.438" y1="47.215" x2="609.219" y2="45.378"/>
	<line fill="none" stroke="#E6E6E6" stroke-width="2" stroke-miterlimit="10" x1="597.982" y1="49.859" x2="607.846" y2="48.322"/>
	<line fill="none" stroke="#E6E6E6" stroke-width="2" stroke-miterlimit="10" x1="599.738" y1="62.855" x2="604.67" y2="62.088"/>
	<line fill="none" stroke="#E6E6E6" stroke-width="2" stroke-miterlimit="10" x1="645.871" y1="30.919" x2="662.68" y2="28.297"/>
	<line fill="none" stroke="#E6E6E6" stroke-width="2" stroke-miterlimit="10" x1="646.359" y1="33.877" x2="665.324" y2="30.919"/>
	<line fill="none" stroke="#E6E6E6" stroke-width="2" stroke-miterlimit="10" x1="646.927" y1="36.876" x2="660.346" y2="34.783"/>
	<line fill="none" stroke="#E6E6E6" stroke-width="2" stroke-miterlimit="10" x1="647.445" y1="39.812" x2="676.263" y2="35.319"/>
	<line fill="none" stroke="#E6E6E6" stroke-width="2" stroke-miterlimit="10" x1="647.99" y1="42.458" x2="664.096" y2="39.945"/>
	<line fill="none" stroke="#E6E6E6" stroke-width="2" stroke-miterlimit="10" x1="598.576" y1="52.561" x2="615.886" y2="49.859"/>
	<line fill="none" stroke="#E6E6E6" stroke-width="2" stroke-miterlimit="10" x1="594.53" y1="27.678" x2="616.43" y2="24.263"/>
	<line fill="none" stroke="#E6E6E6" stroke-width="2" stroke-miterlimit="10" x1="645.871" y1="19.786" x2="670.263" y2="15.982"/>
	<line fill="none" stroke="#CFCFCF" stroke-width="2" stroke-miterlimit="10" x1="595.353" y1="55.832" x2="701.515" y2="39.275"/>
	<line fill="none" stroke="#CFCFCF" stroke-width="2" stroke-miterlimit="10" x1="596.353" y1="67.17" x2="702.515" y2="50.613"/>
	<g>
		<polygon fill="#CFCFCF" points="701.507,26.225 675.253,4.649 674.643,6.5 677.262,30.125 699.137,27.125 		"/>
	</g>
</g>
</svg>
