<?xml version="1.0" encoding="utf-8"?>
<!-- Generator: Adobe Illustrator 15.1.0, SVG Export Plug-In . SVG Version: 6.00 Build 0)  -->
<!DOCTYPE svg PUBLIC "-//W3C//DTD SVG 1.1//EN" "http://www.w3.org/Graphics/SVG/1.1/DTD/svg11.dtd">
<svg version="1.1" id="Calque_1" xmlns="http://www.w3.org/2000/svg" xmlns:xlink="http://www.w3.org/1999/xlink" x="0px" y="0px"
	 width="872px" height="72px" viewBox="0 0 872 72" enable-background="new 0 0 872 72" xml:space="preserve">
<rect x="-1" y="-0.583" fill="#4D4D4D" width="872" height="72"/>
<polygon fill="#5B5B5B" points="636.408,0.093 599.611,70.743 -0.011,70.743 0.01,0.093 "/>
<g opacity="0.72" enable-background="new    ">
	<g>
		<path fill="#3C3C3B" d="M857.205,42.411l-5.286-2.034c0.075-1.138,0.003-2.263-0.196-3.358l4.86-2.168
			c1.144-0.497,1.659-1.835,1.147-2.978l-0.917-2.058c-0.508-1.138-1.845-1.649-2.979-1.146l-4.939,2.188
			c-0.751-0.921-1.633-1.747-2.636-2.462l1.785-4.635c0.446-1.161-0.128-2.468-1.296-2.917l-2.108-0.812
			c-1.16-0.446-2.468,0.136-2.915,1.298l-1.784,4.635c-1.331-0.16-2.65-0.115-3.938,0.116l-1.837-4.131
			c-0.506-1.134-1.845-1.653-2.982-1.148l-2.069,0.915c-1.139,0.503-1.645,1.849-1.143,2.988l1.869,4.208
			c-1.073,0.875-2.027,1.914-2.801,3.101l-3.969-1.528c-1.166-0.449-2.476,0.132-2.923,1.296l-0.812,2.111
			c-0.446,1.158,0.134,2.466,1.302,2.916l4.238,1.632c-0.106,1.418,0.023,2.813,0.354,4.166l-3.97,1.763
			c-1.143,0.51-1.656,1.846-1.153,2.983l0.915,2.062c0.513,1.136,1.851,1.651,2.987,1.145l4.434-1.969
			c0.873,0.954,1.895,1.792,3.049,2.465l-1.697,4.411c-0.447,1.162,0.134,2.468,1.297,2.92l2.107,0.811
			c1.163,0.444,2.473-0.133,2.919-1.297l1.908-4.954c1.205,0.032,2.405-0.081,3.563-0.37l2.086,4.702
			c0.51,1.14,1.84,1.652,2.984,1.148l2.062-0.917c1.144-0.502,1.658-1.838,1.143-2.985l-2.283-5.161
			c0.811-0.746,1.546-1.596,2.167-2.555l5.021,1.933c1.169,0.448,2.471-0.128,2.926-1.298l0.811-2.106
			C858.951,44.169,858.373,42.861,857.205,42.411z M836.371,44.677c-2.911-1.12-4.365-4.379-3.243-7.299
			c1.122-2.91,4.389-4.357,7.297-3.237c2.913,1.12,4.365,4.385,3.246,7.294C842.547,44.355,839.283,45.797,836.371,44.677z"/>
	</g>
</g>
<g opacity="0.72" enable-background="new    ">
	<g>
		<path fill="#3C3C3B" d="M822.21,24.455l-3.036-1.168c0.043-0.653,0.003-1.299-0.112-1.929l2.791-1.245
			c0.657-0.286,0.953-1.054,0.659-1.71l-0.526-1.182c-0.292-0.654-1.06-0.947-1.711-0.658l-2.837,1.256
			c-0.432-0.528-0.938-1.003-1.513-1.414l1.024-2.662c0.257-0.667-0.073-1.417-0.744-1.675l-1.211-0.466
			c-0.666-0.257-1.417,0.078-1.674,0.745l-1.024,2.662c-0.765-0.092-1.522-0.066-2.262,0.067l-1.055-2.373
			c-0.29-0.651-1.06-0.949-1.713-0.659l-1.188,0.525c-0.654,0.289-0.944,1.062-0.657,1.716l1.074,2.417
			c-0.616,0.502-1.164,1.099-1.608,1.78l-2.279-0.877c-0.669-0.257-1.422,0.076-1.678,0.745l-0.468,1.212
			c-0.256,0.665,0.077,1.416,0.748,1.674l2.435,0.937c-0.062,0.814,0.013,1.616,0.203,2.393l-2.28,1.013
			c-0.656,0.292-0.951,1.06-0.662,1.713l0.525,1.184c0.294,0.652,1.062,0.948,1.716,0.658l2.546-1.131
			c0.501,0.548,1.088,1.029,1.751,1.416l-0.976,2.533c-0.256,0.668,0.076,1.417,0.745,1.677l1.211,0.466
			c0.667,0.255,1.419-0.077,1.676-0.745l1.096-2.846c0.692,0.019,1.381-0.046,2.047-0.212l1.196,2.701
			c0.293,0.654,1.058,0.948,1.715,0.659l1.185-0.526c0.656-0.288,0.952-1.056,0.656-1.715l-1.312-2.964
			c0.466-0.429,0.888-0.916,1.245-1.466l2.883,1.109c0.671,0.258,1.419-0.073,1.68-0.746l0.466-1.209
			C823.213,25.465,822.881,24.714,822.21,24.455z M810.245,25.756c-1.672-0.643-2.506-2.515-1.861-4.191
			c0.644-1.671,2.521-2.503,4.189-1.859c1.673,0.643,2.507,2.519,1.865,4.189C813.793,25.572,811.918,26.4,810.245,25.756z"/>
	</g>
</g>
</svg>
