<?xml version="1.0" encoding="utf-8"?>
<!-- Generator: Adobe Illustrator 15.1.0, SVG Export Plug-In . SVG Version: 6.00 Build 0)  -->
<!DOCTYPE svg PUBLIC "-//W3C//DTD SVG 1.1//EN" "http://www.w3.org/Graphics/SVG/1.1/DTD/svg11.dtd">
<svg version="1.1" id="Calque_1" xmlns="http://www.w3.org/2000/svg" xmlns:xlink="http://www.w3.org/1999/xlink" x="0px" y="0px"
	 width="872px" height="72px" viewBox="0 0 872 72" enable-background="new 0 0 872 72" xml:space="preserve">
<rect y="-0.583" fill="#9CCC8F" width="871" height="72"/>
<polygon fill="#FFFFFF" fill-opacity="0.25" stroke="#7DBD6B" points="635.408,-0.583 598.611,71.166 -0.01,71.417 0.011,-0.583 "/>
<g opacity="0.2" enable-background="new    ">
	<g>
		<path fill="#3C3C3B" d="M860.365,43.283l-5.957-2.292c0.085-1.282,0.004-2.55-0.221-3.784l5.477-2.443
			c1.289-0.56,1.87-2.067,1.293-3.355l-1.033-2.319c-0.572-1.282-2.079-1.858-3.356-1.292l-5.565,2.466
			c-0.847-1.038-1.84-1.969-2.97-2.774l2.011-5.223c0.504-1.309-0.144-2.781-1.46-3.288l-2.375-0.915
			c-1.308-0.503-2.781,0.153-3.285,1.462l-2.01,5.223c-1.5-0.181-2.987-0.129-4.438,0.131l-2.069-4.655
			c-0.57-1.278-2.079-1.862-3.361-1.293l-2.331,1.031c-1.283,0.567-1.854,2.083-1.288,3.367l2.106,4.741
			c-1.209,0.986-2.284,2.157-3.156,3.494l-4.472-1.722c-1.313-0.506-2.789,0.149-3.293,1.46l-0.916,2.379
			c-0.503,1.305,0.151,2.778,1.467,3.285l4.776,1.839c-0.12,1.598,0.026,3.171,0.398,4.694l-4.474,1.986
			c-1.287,0.574-1.866,2.08-1.3,3.361l1.031,2.323c0.578,1.279,2.085,1.86,3.366,1.29l4.996-2.219
			c0.983,1.075,2.135,2.02,3.436,2.777l-1.913,4.971c-0.504,1.31,0.15,2.78,1.461,3.29l2.375,0.913
			c1.311,0.501,2.786-0.149,3.289-1.461l2.15-5.583c1.357,0.037,2.71-0.091,4.016-0.417l2.35,5.299
			c0.574,1.284,2.073,1.861,3.363,1.294l2.324-1.033c1.288-0.565,1.868-2.071,1.287-3.364l-2.573-5.815
			c0.914-0.841,1.742-1.798,2.442-2.878l5.657,2.177c1.316,0.506,2.784-0.144,3.297-1.462l0.913-2.374
			C862.332,45.264,861.682,43.791,860.365,43.283z M836.89,45.836c-3.28-1.262-4.919-4.934-3.654-8.224
			c1.264-3.279,4.945-4.91,8.222-3.647c3.282,1.262,4.919,4.941,3.658,8.219C843.849,45.475,840.171,47.099,836.89,45.836z"/>
	</g>
</g>
<g opacity="0.2" enable-background="new    ">
	<g>
		<path fill="#3C3C3B" d="M820.933,23.051l-3.421-1.316c0.049-0.736,0.003-1.464-0.126-2.173l3.145-1.403
			c0.74-0.322,1.074-1.188,0.742-1.927l-0.593-1.332c-0.329-0.736-1.194-1.067-1.928-0.742l-3.196,1.416
			c-0.486-0.596-1.057-1.13-1.705-1.593l1.154-3c0.29-0.751-0.082-1.597-0.838-1.888l-1.364-0.525
			c-0.751-0.289-1.597,0.088-1.887,0.839l-1.154,3c-0.861-0.104-1.715-0.074-2.548,0.075l-1.188-2.673
			c-0.327-0.734-1.194-1.069-1.931-0.743l-1.338,0.592c-0.737,0.326-1.064,1.197-0.74,1.934l1.21,2.723
			c-0.694,0.566-1.312,1.238-1.812,2.006l-2.568-0.989c-0.754-0.29-1.602,0.086-1.891,0.839l-0.526,1.366
			c-0.289,0.749,0.087,1.596,0.843,1.887l2.743,1.056c-0.069,0.917,0.015,1.821,0.229,2.696l-2.569,1.141
			c-0.739,0.33-1.071,1.194-0.746,1.93l0.592,1.334c0.332,0.735,1.197,1.068,1.934,0.741l2.869-1.274
			c0.564,0.617,1.226,1.16,1.973,1.595l-1.099,2.854c-0.289,0.752,0.086,1.597,0.839,1.89l1.364,0.524
			c0.752,0.288,1.6-0.086,1.889-0.839l1.234-3.207c0.78,0.021,1.557-0.052,2.307-0.239l1.349,3.043
			c0.33,0.737,1.191,1.069,1.932,0.743l1.335-0.593c0.739-0.325,1.073-1.19,0.739-1.932l-1.478-3.34
			c0.524-0.483,1-1.032,1.402-1.652l3.249,1.25c0.756,0.291,1.599-0.083,1.893-0.84l0.524-1.363
			C822.062,24.188,821.688,23.343,820.933,23.051z M807.451,24.517c-1.884-0.725-2.824-2.833-2.098-4.723
			c0.726-1.883,2.84-2.82,4.721-2.095c1.885,0.725,2.825,2.838,2.102,4.72C811.448,24.31,809.336,25.242,807.451,24.517z"/>
	</g>
</g>
</svg>
