<?xml version="1.0" encoding="utf-8"?>
<!-- Generator: Adobe Illustrator 15.1.0, SVG Export Plug-In . SVG Version: 6.00 Build 0)  -->
<!DOCTYPE svg PUBLIC "-//W3C//DTD SVG 1.1//EN" "http://www.w3.org/Graphics/SVG/1.1/DTD/svg11.dtd">
<svg version="1.1" id="Calque_1" xmlns="http://www.w3.org/2000/svg" xmlns:xlink="http://www.w3.org/1999/xlink" x="0px" y="0px"
	 width="872px" height="72px" viewBox="-1 -0.583 872 72" enable-background="new -1 -0.583 872 72" xml:space="preserve">
<rect x="-1" y="-0.583" fill="#4D4D4D" width="872" height="72"/>
<polygon fill="#5B5B5B" points="408.332,0.093 371.535,70.743 -0.676,70.743 -0.655,0.093 "/>
<path opacity="0.93" fill="#404040" fill-opacity="0.85" stroke="#404040" stroke-width="2" enable-background="new    " d="
	M787.862,3.875l6.064-2.041c0.671-0.225,1.201-0.76,1.501-1.401h-21.249c0.217,0.462,0.418,0.936,0.581,1.436
	c2.104,6.445-1.339,13.404-7.695,15.542c-6.356,2.136-13.218-1.354-15.325-7.803c-1.026-3.144-0.728-6.405,0.579-9.173h-12.91
	c0.974,0.618,1.642,1.785,1.518,2.718c-0.139,1.014-1.114,4.057-2.286,4.451l-6.07,2.039c-1.173,0.396-1.951,1.729-1.725,2.963
	c0,0,0.316,1.733,0.961,3.705c0.646,1.973,1.413,3.553,1.413,3.553c0.545,1.127,1.95,1.727,3.128,1.332l6.067-2.041
	c1.173-0.395,2.642-0.045,3.26,0.776c0.619,0.823,2.026,3.652,1.472,4.774l-2.865,5.791c-0.559,1.121-0.15,2.578,0.901,3.242
	l6.718,3.42c1.153,0.458,2.546-0.08,3.103-1.204l2.868-5.789c0.555-1.121,1.828-1.927,2.827-1.787c1,0.137,3.998,1.129,4.391,2.319
	l2.009,6.154c0.391,1.188,1.705,1.977,2.922,1.747c0,0,1.708-0.32,3.653-0.975c1.943-0.655,3.506-1.432,3.506-1.432
	c1.11-0.551,1.7-1.979,1.312-3.17l-2.013-6.153c-0.39-1.19-0.045-2.68,0.766-3.307c0.812-0.629,3.603-2.054,4.708-1.493l5.707,2.908
	c1.108,0.563,2.545,0.15,3.201-0.915l3.371-6.812c0.453-1.17-0.08-2.584-1.187-3.146l-5.71-2.909
	c-1.107-0.562-1.901-1.852-1.765-2.865C785.708,7.313,786.685,4.27,787.862,3.875z"/>
<path opacity="0.93" fill="#404040" fill-opacity="0.85" stroke="#404040" stroke-width="2" enable-background="new    " d="
	M783.168,47.345l9.188,3.525c1.781,0.683,3.195,2.531,3.147,4.1c-0.053,1.572-1.068,6.385-2.801,7.177l-8.962,4.1
	c-1.328,0.607-2.205,2.02-2.306,3.479h36.562c-2.047-1.759-3.763-3.98-4.94-6.628c-4.237-9.518-0.06-20.717,9.327-25.009
	c9.385-4.293,20.431-0.06,24.665,9.46c3.493,7.861,1.241,16.86-4.936,22.177h27.884v-9.082l-2.252-0.863
	c-1.781-0.684-3.196-2.527-3.147-4.101s1.065-6.384,2.805-7.178l2.595-1.188V27.039c-0.42,0.035-0.834,0.127-1.222,0.306
	l-8.962,4.102c-1.736,0.793-4.035,0.496-5.111-0.661c-1.075-1.159-3.673-5.258-2.999-7.066l3.474-9.317
	c0.672-1.806-0.176-3.972-1.887-4.814l-10.812-4.15c-1.836-0.517-3.882,0.536-4.561,2.341l-3.474,9.32
	c-0.676,1.805-2.495,3.242-4.044,3.19c-1.55-0.049-6.293-1.083-7.077-2.84l-4.042-9.086c-0.781-1.758-2.916-2.751-4.74-2.205
	c0,0-2.567,0.768-5.434,2.082c-2.874,1.313-5.14,2.753-5.14,2.753c-1.608,1.025-2.289,3.306-1.507,5.067l4.043,9.084
	c0.78,1.759,0.488,4.091-0.651,5.183c-1.142,1.09-5.186,3.727-6.968,3.042l-9.191-3.525c-1.777-0.682-3.915,0.18-4.743,1.915
	l-4.091,10.965C780.351,44.582,781.387,46.662,783.168,47.345z"/>
</svg>
