<?xml version="1.0" encoding="utf-8"?>
<!-- Generator: Adobe Illustrator 15.1.0, SVG Export Plug-In . SVG Version: 6.00 Build 0)  -->
<!DOCTYPE svg PUBLIC "-//W3C//DTD SVG 1.1//EN" "http://www.w3.org/Graphics/SVG/1.1/DTD/svg11.dtd">
<svg version="1.1" id="Calque_1" xmlns="http://www.w3.org/2000/svg" xmlns:xlink="http://www.w3.org/1999/xlink" x="0px" y="0px"
	 width="872px" height="72px" viewBox="0 0 872 72" enable-background="new 0 0 872 72" xml:space="preserve">
<rect x="-1" y="-0.583" fill="#D6ECF6" width="872" height="72"/>
<polygon fill="#EFF6F7" points="520.326,0.093 483.529,70.495 -0.676,70.743 -0.655,0.093 "/>
<g opacity="0.3">
	<g>
		<polygon fill="#A2C3D5" points="696.467,59.249 648.512,59.249 680.245,47.634 728.2,47.634 		"/>
		<polygon fill="#A2C3D5" points="755.402,59.249 707.446,59.249 739.181,47.634 787.134,47.634 		"/>
		<polygon fill="#A2C3D5" points="814.335,59.249 766.38,59.249 798.116,47.634 846.068,47.634 		"/>
		<polygon fill="#A2C3D5" points="736.31,44.154 688.357,44.154 720.09,32.542 768.043,32.542 		"/>
		<polygon fill="#A2C3D5" points="795.243,44.154 747.291,44.154 779.024,32.542 826.979,32.542 		"/>
		<polygon fill="#A2C3D5" points="871,32.542 837.959,32.542 806.224,44.154 854.178,44.154 871,38 		"/>
		<polygon fill="#A2C3D5" points="781.971,71.417 806.224,62.542 758.271,62.542 734.018,71.417 		"/>
		<polygon fill="#A2C3D5" points="723.035,71.417 747.291,62.542 699.335,62.542 675.084,71.417 		"/>
		<polygon fill="#A2C3D5" points="664.104,71.417 688.357,62.542 640.402,62.542 616.15,71.417 		"/>
	</g>
	<g>
		<polygon fill="#6AB2D1" points="699.48,51.966 637.676,51.966 678.573,36.265 740.374,36.265 		"/>
		<polygon fill="#6AB2D1" points="778.541,51.966 716.74,51.966 757.637,36.265 819.438,36.265 		"/>
		<polygon fill="#6AB2D1" points="748.619,32.848 686.818,32.848 727.713,17.148 789.516,17.148 		"/>
		<polygon fill="#6AB2D1" points="827.684,32.848 765.88,32.848 806.776,17.148 868.578,17.148 		"/>
	</g>
	<polygon fill="#3E98C0" points="764.664,27.761 673.203,27.761 733.729,4.528 825.186,4.528 	"/>
</g>
</svg>
