<?xml version="1.0" encoding="utf-8"?>
<!-- Generator: Adobe Illustrator 15.1.0, SVG Export Plug-In . SVG Version: 6.00 Build 0)  -->
<!DOCTYPE svg PUBLIC "-//W3C//DTD SVG 1.1//EN" "http://www.w3.org/Graphics/SVG/1.1/DTD/svg11.dtd" [
	<!ENTITY ns_extend "http://ns.adobe.com/Extensibility/1.0/">
	<!ENTITY ns_ai "http://ns.adobe.com/AdobeIllustrator/10.0/">
	<!ENTITY ns_graphs "http://ns.adobe.com/Graphs/1.0/">
	<!ENTITY ns_vars "http://ns.adobe.com/Variables/1.0/">
	<!ENTITY ns_imrep "http://ns.adobe.com/ImageReplacement/1.0/">
	<!ENTITY ns_sfw "http://ns.adobe.com/SaveForWeb/1.0/">
	<!ENTITY ns_custom "http://ns.adobe.com/GenericCustomNamespace/1.0/">
	<!ENTITY ns_adobe_xpath "http://ns.adobe.com/XPath/1.0/">
]>
<svg version="1.1" id="Calque_1" xmlns:x="&ns_extend;" xmlns:i="&ns_ai;" xmlns:graph="&ns_graphs;"
	 xmlns="http://www.w3.org/2000/svg" xmlns:xlink="http://www.w3.org/1999/xlink" x="0px" y="0px" width="872px" height="72px"
	 viewBox="-1 -0.583 872 72" enable-background="new -1 -0.583 872 72" xml:space="preserve">
<metadata>
	<sfw  xmlns="&ns_sfw;">
		<slices></slices>
		<sliceSourceBounds  y="342.5" x="75.645" width="872" height="72" bottomLeftOrigin="true"></sliceSourceBounds>
	</sfw>
</metadata>
<rect x="-0.855" y="-0.583" opacity="0.8" fill="#1D1D1B" enable-background="new    " width="872" height="72"/>
<rect x="472.568" y="0.343" opacity="0.06" fill="#9C9B9B" enable-background="new    " width="7.52" height="7.714"/>
<rect x="480.088" y="8.057" opacity="0.06" fill="#9C9B9B" enable-background="new    " width="7.521" height="7.714"/>
<rect x="487.608" y="15.771" opacity="0.06" fill="#9C9B9B" enable-background="new    " width="7.521" height="7.715"/>
<rect x="480.088" y="23.486" opacity="0.06" fill="#9C9B9B" enable-background="new    " width="7.521" height="7.714"/>
<rect x="487.608" y="31.2" opacity="0.06" fill="#9C9B9B" enable-background="new    " width="7.521" height="7.714"/>
<rect x="480.088" y="38.914" opacity="0.06" fill="#9C9B9B" enable-background="new    " width="7.521" height="7.715"/>
<rect x="487.608" y="46.628" opacity="0.06" fill="#9C9B9B" enable-background="new    " width="7.521" height="7.714"/>
<rect x="472.568" y="15.771" opacity="0.06" fill="#9C9B9B" enable-background="new    " width="7.52" height="7.715"/>
<rect x="472.568" y="31.2" opacity="0.06" fill="#9C9B9B" enable-background="new    " width="7.52" height="7.714"/>
<rect x="472.568" y="46.628" opacity="0.06" fill="#9C9B9B" enable-background="new    " width="7.52" height="7.714"/>
<rect x="494.126" y="38.914" opacity="0.06" fill="#9C9B9B" enable-background="new    " width="7.521" height="7.715"/>
<rect x="502.649" y="46.628" opacity="0.06" fill="#9C9B9B" enable-background="new    " width="7.521" height="7.714"/>
<rect x="495.129" y="23.486" opacity="0.06" fill="#9C9B9B" enable-background="new    " width="7.521" height="7.714"/>
<rect x="502.649" y="31.2" opacity="0.06" fill="#9C9B9B" enable-background="new    " width="7.521" height="7.714"/>
<rect x="510.17" y="38.914" opacity="0.06" fill="#9C9B9B" enable-background="new    " width="7.52" height="7.715"/>
<rect x="480.088" y="54.342" opacity="0.06" fill="#9C9B9B" enable-background="new    " width="7.521" height="7.715"/>
<rect x="495.129" y="54.342" opacity="0.06" fill="#9C9B9B" enable-background="new    " width="7.521" height="7.715"/>
<rect x="510.17" y="54.342" opacity="0.06" fill="#9C9B9B" enable-background="new    " width="7.52" height="7.715"/>
<rect x="517.689" y="46.628" opacity="0.06" fill="#9C9B9B" enable-background="new    " width="7.521" height="7.714"/>
<rect x="525.21" y="54.342" opacity="0.06" fill="#9C9B9B" enable-background="new    " width="7.521" height="7.715"/>
<rect x="525.21" y="38.914" opacity="0.06" fill="#9C9B9B" enable-background="new    " width="7.521" height="7.715"/>
<rect x="517.689" y="31.2" opacity="0.06" fill="#9C9B9B" enable-background="new    " width="7.521" height="7.714"/>
<rect x="510.17" y="23.486" opacity="0.06" fill="#9C9B9B" enable-background="new    " width="7.52" height="7.714"/>
<rect x="502.649" y="15.771" opacity="0.06" fill="#9C9B9B" enable-background="new    " width="7.521" height="7.715"/>
<rect x="495.129" y="8.057" opacity="0.06" fill="#9C9B9B" enable-background="new    " width="7.521" height="7.714"/>
<rect x="487.608" y="0.343" opacity="0.06" fill="#9C9B9B" enable-background="new    " width="7.521" height="7.714"/>
<rect x="502.649" y="0.343" opacity="0.06" fill="#9C9B9B" enable-background="new    " width="7.521" height="7.714"/>
<rect x="510.17" y="8.057" opacity="0.06" fill="#9C9B9B" enable-background="new    " width="7.52" height="7.714"/>
<rect x="517.689" y="0.343" opacity="0.06" fill="#9C9B9B" enable-background="new    " width="7.521" height="7.714"/>
<rect x="525.21" y="8.057" opacity="0.06" fill="#9C9B9B" enable-background="new    " width="7.521" height="7.714"/>
<rect x="517.689" y="15.771" opacity="0.06" fill="#9C9B9B" enable-background="new    " width="7.521" height="7.715"/>
<rect x="525.21" y="23.486" opacity="0.06" fill="#9C9B9B" enable-background="new    " width="7.521" height="7.714"/>
<rect x="532.73" y="0.343" opacity="0.06" fill="#9C9B9B" enable-background="new    " width="7.521" height="7.714"/>
<rect x="540.251" y="8.057" opacity="0.06" fill="#9C9B9B" enable-background="new    " width="7.521" height="7.714"/>
<rect x="547.771" y="15.771" opacity="0.06" fill="#9C9B9B" enable-background="new    " width="7.52" height="7.715"/>
<rect x="540.251" y="23.486" opacity="0.06" fill="#9C9B9B" enable-background="new    " width="7.521" height="7.714"/>
<rect x="547.771" y="31.2" opacity="0.06" fill="#9C9B9B" enable-background="new    " width="7.52" height="7.714"/>
<rect x="540.251" y="38.914" opacity="0.06" fill="#9C9B9B" enable-background="new    " width="7.521" height="7.715"/>
<rect x="547.771" y="46.628" opacity="0.06" fill="#9C9B9B" enable-background="new    " width="7.52" height="7.714"/>
<rect x="532.73" y="15.771" opacity="0.06" fill="#9C9B9B" enable-background="new    " width="7.521" height="7.715"/>
<rect x="532.73" y="31.2" opacity="0.06" fill="#9C9B9B" enable-background="new    " width="7.521" height="7.714"/>
<rect x="532.73" y="46.628" opacity="0.06" fill="#9C9B9B" enable-background="new    " width="7.521" height="7.714"/>
<rect x="554.289" y="38.914" opacity="0.06" fill="#9C9B9B" enable-background="new    " width="7.52" height="7.715"/>
<rect x="562.812" y="46.628" opacity="0.06" fill="#9C9B9B" enable-background="new    " width="7.521" height="7.714"/>
<rect x="555.291" y="23.486" opacity="0.06" fill="#9C9B9B" enable-background="new    " width="7.521" height="7.714"/>
<rect x="562.812" y="31.2" opacity="0.06" fill="#9C9B9B" enable-background="new    " width="7.521" height="7.714"/>
<rect x="570.332" y="38.914" opacity="0.06" fill="#9C9B9B" enable-background="new    " width="7.521" height="7.715"/>
<rect x="540.251" y="54.342" opacity="0.06" fill="#9C9B9B" enable-background="new    " width="7.521" height="7.715"/>
<rect x="487.608" y="62.733" opacity="0.06" fill="#9C9B9B" enable-background="new    " width="7.521" height="7.714"/>
<rect x="502.649" y="62.733" opacity="0.06" fill="#9C9B9B" enable-background="new    " width="7.521" height="7.714"/>
<rect x="517.689" y="62.733" opacity="0.06" fill="#9C9B9B" enable-background="new    " width="7.521" height="7.714"/>
<rect x="532.73" y="62.733" opacity="0.06" fill="#9C9B9B" enable-background="new    " width="7.521" height="7.714"/>
<rect x="555.291" y="54.342" opacity="0.06" fill="#9C9B9B" enable-background="new    " width="7.521" height="7.715"/>
<rect x="570.332" y="54.342" opacity="0.06" fill="#9C9B9B" enable-background="new    " width="7.521" height="7.715"/>
<rect x="577.853" y="46.628" opacity="0.06" fill="#9C9B9B" enable-background="new    " width="7.521" height="7.714"/>
<rect x="585.373" y="54.342" opacity="0.06" fill="#9C9B9B" enable-background="new    " width="7.52" height="7.715"/>
<rect x="585.373" y="38.914" opacity="0.06" fill="#9C9B9B" enable-background="new    " width="7.52" height="7.715"/>
<rect x="577.853" y="31.2" opacity="0.06" fill="#9C9B9B" enable-background="new    " width="7.521" height="7.714"/>
<rect x="570.332" y="23.486" opacity="0.06" fill="#9C9B9B" enable-background="new    " width="7.521" height="7.714"/>
<rect x="562.812" y="15.771" opacity="0.06" fill="#9C9B9B" enable-background="new    " width="7.521" height="7.715"/>
<rect x="555.291" y="8.057" opacity="0.06" fill="#9C9B9B" enable-background="new    " width="7.521" height="7.714"/>
<rect x="547.771" y="0.343" opacity="0.06" fill="#9C9B9B" enable-background="new    " width="7.52" height="7.714"/>
<rect x="562.812" y="0.343" opacity="0.06" fill="#9C9B9B" enable-background="new    " width="7.521" height="7.714"/>
<rect x="570.332" y="8.057" opacity="0.06" fill="#9C9B9B" enable-background="new    " width="7.521" height="7.714"/>
<rect x="577.853" y="0.343" opacity="0.06" fill="#9C9B9B" enable-background="new    " width="7.521" height="7.714"/>
<rect x="585.373" y="8.057" opacity="0.06" fill="#9C9B9B" enable-background="new    " width="7.52" height="7.714"/>
<rect x="577.853" y="15.771" opacity="0.06" fill="#9C9B9B" enable-background="new    " width="7.521" height="7.715"/>
<rect x="585.373" y="23.486" opacity="0.06" fill="#9C9B9B" enable-background="new    " width="7.52" height="7.714"/>
<rect x="592.893" y="0.343" opacity="0.06" fill="#9C9B9B" enable-background="new    " width="7.521" height="7.714"/>
<rect x="600.413" y="8.057" opacity="0.06" fill="#9C9B9B" enable-background="new    " width="7.521" height="7.714"/>
<rect x="607.934" y="15.771" opacity="0.06" fill="#9C9B9B" enable-background="new    " width="7.521" height="7.715"/>
<rect x="600.413" y="23.486" opacity="0.06" fill="#9C9B9B" enable-background="new    " width="7.521" height="7.714"/>
<rect x="607.934" y="31.2" opacity="0.06" fill="#9C9B9B" enable-background="new    " width="7.521" height="7.714"/>
<rect x="600.413" y="38.914" opacity="0.06" fill="#9C9B9B" enable-background="new    " width="7.521" height="7.715"/>
<rect x="607.934" y="46.628" opacity="0.06" fill="#9C9B9B" enable-background="new    " width="7.521" height="7.714"/>
<rect x="592.893" y="15.771" opacity="0.06" fill="#9C9B9B" enable-background="new    " width="7.521" height="7.715"/>
<rect x="592.893" y="31.2" opacity="0.06" fill="#9C9B9B" enable-background="new    " width="7.521" height="7.714"/>
<rect x="592.893" y="46.628" opacity="0.06" fill="#9C9B9B" enable-background="new    " width="7.521" height="7.714"/>
<rect x="614.451" y="38.914" opacity="0.06" fill="#9C9B9B" enable-background="new    " width="7.521" height="7.715"/>
<rect x="622.975" y="46.628" opacity="0.06" fill="#9C9B9B" enable-background="new    " width="7.521" height="7.714"/>
<rect x="615.454" y="23.486" opacity="0.06" fill="#9C9B9B" enable-background="new    " width="7.521" height="7.714"/>
<rect x="622.975" y="31.2" opacity="0.06" fill="#9C9B9B" enable-background="new    " width="7.521" height="7.714"/>
<rect x="630.495" y="38.914" opacity="0.06" fill="#9C9B9B" enable-background="new    " width="7.52" height="7.715"/>
<rect x="600.413" y="54.342" opacity="0.06" fill="#9C9B9B" enable-background="new    " width="7.521" height="7.715"/>
<rect x="615.454" y="54.342" opacity="0.06" fill="#9C9B9B" enable-background="new    " width="7.521" height="7.715"/>
<rect x="630.495" y="54.342" opacity="0.06" fill="#9C9B9B" enable-background="new    " width="7.52" height="7.715"/>
<rect x="638.015" y="46.628" opacity="0.06" fill="#9C9B9B" enable-background="new    " width="7.521" height="7.714"/>
<rect x="645.535" y="54.342" opacity="0.06" fill="#9C9B9B" enable-background="new    " width="7.521" height="7.715"/>
<rect x="645.535" y="38.914" opacity="0.06" fill="#9C9B9B" enable-background="new    " width="7.521" height="7.715"/>
<rect x="638.015" y="31.2" opacity="0.06" fill="#9C9B9B" enable-background="new    " width="7.521" height="7.714"/>
<rect x="630.495" y="23.486" opacity="0.06" fill="#9C9B9B" enable-background="new    " width="7.52" height="7.714"/>
<rect x="622.975" y="15.771" opacity="0.06" fill="#9C9B9B" enable-background="new    " width="7.521" height="7.715"/>
<rect x="615.454" y="8.057" opacity="0.06" fill="#9C9B9B" enable-background="new    " width="7.521" height="7.714"/>
<rect x="607.934" y="0.343" opacity="0.06" fill="#9C9B9B" enable-background="new    " width="7.521" height="7.714"/>
<rect x="622.975" y="0.343" opacity="0.06" fill="#9C9B9B" enable-background="new    " width="7.521" height="7.714"/>
<rect x="630.495" y="8.057" opacity="0.06" fill="#9C9B9B" enable-background="new    " width="7.52" height="7.714"/>
<rect x="638.015" y="0.343" opacity="0.06" fill="#9C9B9B" enable-background="new    " width="7.521" height="7.714"/>
<rect x="645.535" y="8.057" opacity="0.06" fill="#9C9B9B" enable-background="new    " width="7.521" height="7.714"/>
<rect x="638.015" y="15.771" opacity="0.06" fill="#9C9B9B" enable-background="new    " width="7.521" height="7.715"/>
<rect x="645.535" y="23.486" opacity="0.06" fill="#9C9B9B" enable-background="new    " width="7.521" height="7.714"/>
<rect x="653.056" y="0.343" opacity="0.06" fill="#9C9B9B" enable-background="new    " width="7.521" height="7.714"/>
<rect x="660.576" y="8.057" opacity="0.06" fill="#9C9B9B" enable-background="new    " width="7.521" height="7.714"/>
<rect x="668.097" y="15.771" opacity="0.06" fill="#9C9B9B" enable-background="new    " width="7.52" height="7.715"/>
<rect x="660.576" y="23.486" opacity="0.06" fill="#9C9B9B" enable-background="new    " width="7.521" height="7.714"/>
<rect x="668.097" y="31.2" opacity="0.06" fill="#9C9B9B" enable-background="new    " width="7.52" height="7.714"/>
<rect x="660.576" y="38.914" opacity="0.06" fill="#9C9B9B" enable-background="new    " width="7.521" height="7.715"/>
<rect x="668.097" y="46.628" opacity="0.06" fill="#9C9B9B" enable-background="new    " width="7.52" height="7.714"/>
<rect x="653.056" y="15.771" opacity="0.06" fill="#9C9B9B" enable-background="new    " width="7.521" height="7.715"/>
<rect x="653.056" y="31.2" opacity="0.06" fill="#9C9B9B" enable-background="new    " width="7.521" height="7.714"/>
<rect x="653.056" y="46.628" opacity="0.06" fill="#9C9B9B" enable-background="new    " width="7.521" height="7.714"/>
<rect x="674.614" y="38.914" opacity="0.06" fill="#9C9B9B" enable-background="new    " width="7.52" height="7.715"/>
<rect x="683.137" y="46.628" opacity="0.06" fill="#9C9B9B" enable-background="new    " width="7.521" height="7.714"/>
<rect x="675.616" y="23.486" opacity="0.06" fill="#9C9B9B" enable-background="new    " width="7.521" height="7.714"/>
<rect x="683.137" y="31.2" opacity="0.06" fill="#9C9B9B" enable-background="new    " width="7.521" height="7.714"/>
<rect x="690.657" y="38.914" opacity="0.06" fill="#9C9B9B" enable-background="new    " width="7.521" height="7.715"/>
<rect x="660.576" y="54.342" opacity="0.06" fill="#9C9B9B" enable-background="new    " width="7.521" height="7.715"/>
<rect x="675.616" y="54.342" opacity="0.06" fill="#9C9B9B" enable-background="new    " width="7.521" height="7.715"/>
<rect x="690.657" y="54.342" opacity="0.06" fill="#9C9B9B" enable-background="new    " width="7.521" height="7.715"/>
<rect x="698.178" y="46.628" opacity="0.06" fill="#9C9B9B" enable-background="new    " width="7.521" height="7.714"/>
<rect x="705.698" y="54.342" opacity="0.06" fill="#9C9B9B" enable-background="new    " width="7.521" height="7.715"/>
<rect x="705.698" y="38.914" opacity="0.06" fill="#9C9B9B" enable-background="new    " width="7.521" height="7.715"/>
<rect x="698.178" y="31.2" opacity="0.06" fill="#9C9B9B" enable-background="new    " width="7.521" height="7.714"/>
<rect x="690.657" y="23.486" opacity="0.06" fill="#9C9B9B" enable-background="new    " width="7.521" height="7.714"/>
<rect x="683.137" y="15.771" opacity="0.06" fill="#9C9B9B" enable-background="new    " width="7.521" height="7.715"/>
<rect x="675.616" y="8.057" opacity="0.06" fill="#9C9B9B" enable-background="new    " width="7.521" height="7.714"/>
<rect x="668.097" y="0.343" opacity="0.06" fill="#9C9B9B" enable-background="new    " width="7.52" height="7.714"/>
<rect x="683.137" y="0.343" opacity="0.06" fill="#9C9B9B" enable-background="new    " width="7.521" height="7.714"/>
<rect x="690.657" y="8.057" opacity="0.06" fill="#9C9B9B" enable-background="new    " width="7.521" height="7.714"/>
<rect x="698.178" y="0.343" opacity="0.06" fill="#9C9B9B" enable-background="new    " width="7.521" height="7.714"/>
<rect x="705.698" y="8.057" opacity="0.06" fill="#9C9B9B" enable-background="new    " width="7.521" height="7.714"/>
<rect x="698.178" y="15.771" opacity="0.06" fill="#9C9B9B" enable-background="new    " width="7.521" height="7.715"/>
<rect x="705.698" y="23.486" opacity="0.06" fill="#9C9B9B" enable-background="new    " width="7.521" height="7.714"/>
<rect x="713.219" y="0.343" opacity="0.06" fill="#9C9B9B" enable-background="new    " width="7.52" height="7.714"/>
<rect x="720.738" y="8.057" opacity="0.06" fill="#9C9B9B" enable-background="new    " width="7.521" height="7.714"/>
<rect x="728.259" y="15.771" opacity="0.06" fill="#9C9B9B" enable-background="new    " width="7.521" height="7.715"/>
<rect x="720.738" y="23.486" opacity="0.06" fill="#9C9B9B" enable-background="new    " width="7.521" height="7.714"/>
<rect x="728.259" y="31.2" opacity="0.06" fill="#9C9B9B" enable-background="new    " width="7.521" height="7.714"/>
<rect x="720.738" y="38.914" opacity="0.06" fill="#9C9B9B" enable-background="new    " width="7.521" height="7.715"/>
<rect x="728.259" y="46.628" opacity="0.06" fill="#9C9B9B" enable-background="new    " width="7.521" height="7.714"/>
<rect x="713.219" y="15.771" opacity="0.06" fill="#9C9B9B" enable-background="new    " width="7.52" height="7.715"/>
<rect x="713.219" y="31.2" opacity="0.06" fill="#9C9B9B" enable-background="new    " width="7.52" height="7.714"/>
<rect x="713.219" y="46.628" opacity="0.06" fill="#9C9B9B" enable-background="new    " width="7.52" height="7.714"/>
<rect x="734.776" y="38.914" opacity="0.06" fill="#9C9B9B" enable-background="new    " width="7.521" height="7.715"/>
<rect x="743.3" y="46.628" opacity="0.06" fill="#9C9B9B" enable-background="new    " width="7.521" height="7.714"/>
<rect x="735.779" y="23.486" opacity="0.06" fill="#9C9B9B" enable-background="new    " width="7.521" height="7.714"/>
<rect x="743.3" y="31.2" opacity="0.06" fill="#9C9B9B" enable-background="new    " width="7.521" height="7.714"/>
<rect x="750.82" y="38.914" opacity="0.06" fill="#9C9B9B" enable-background="new    " width="7.52" height="7.715"/>
<rect x="720.738" y="54.342" opacity="0.06" fill="#9C9B9B" enable-background="new    " width="7.521" height="7.715"/>
<rect x="735.779" y="54.342" opacity="0.06" fill="#9C9B9B" enable-background="new    " width="7.521" height="7.715"/>
<rect x="750.82" y="54.342" opacity="0.06" fill="#9C9B9B" enable-background="new    " width="7.52" height="7.715"/>
<rect x="758.34" y="46.628" opacity="0.06" fill="#9C9B9B" enable-background="new    " width="7.521" height="7.714"/>
<rect x="765.86" y="54.342" opacity="0.06" fill="#9C9B9B" enable-background="new    " width="7.521" height="7.715"/>
<rect x="765.86" y="38.914" opacity="0.06" fill="#9C9B9B" enable-background="new    " width="7.521" height="7.715"/>
<rect x="758.34" y="31.2" opacity="0.06" fill="#9C9B9B" enable-background="new    " width="7.521" height="7.714"/>
<rect x="750.82" y="23.486" opacity="0.06" fill="#9C9B9B" enable-background="new    " width="7.52" height="7.714"/>
<rect x="743.3" y="15.771" opacity="0.06" fill="#9C9B9B" enable-background="new    " width="7.521" height="7.715"/>
<rect x="735.779" y="8.057" opacity="0.06" fill="#9C9B9B" enable-background="new    " width="7.521" height="7.714"/>
<rect x="728.259" y="0.343" opacity="0.06" fill="#9C9B9B" enable-background="new    " width="7.521" height="7.714"/>
<rect x="743.3" y="0.343" opacity="0.06" fill="#9C9B9B" enable-background="new    " width="7.521" height="7.714"/>
<rect x="750.82" y="8.057" opacity="0.06" fill="#9C9B9B" enable-background="new    " width="7.52" height="7.714"/>
<rect x="758.34" y="0.343" opacity="0.06" fill="#9C9B9B" enable-background="new    " width="7.521" height="7.714"/>
<rect x="765.86" y="8.057" opacity="0.06" fill="#9C9B9B" enable-background="new    " width="7.521" height="7.714"/>
<rect x="758.34" y="15.771" opacity="0.06" fill="#9C9B9B" enable-background="new    " width="7.521" height="7.715"/>
<rect x="765.86" y="23.486" opacity="0.06" fill="#9C9B9B" enable-background="new    " width="7.521" height="7.714"/>
<rect x="773.381" y="0.343" opacity="0.06" fill="#9C9B9B" enable-background="new    " width="7.521" height="7.714"/>
<rect x="780.901" y="8.057" opacity="0.06" fill="#9C9B9B" enable-background="new    " width="7.521" height="7.714"/>
<rect x="788.422" y="15.771" opacity="0.06" fill="#9C9B9B" enable-background="new    " width="7.52" height="7.715"/>
<rect x="780.901" y="23.486" opacity="0.06" fill="#9C9B9B" enable-background="new    " width="7.521" height="7.714"/>
<rect x="788.422" y="31.2" opacity="0.06" fill="#9C9B9B" enable-background="new    " width="7.52" height="7.714"/>
<rect x="780.901" y="38.914" opacity="0.06" fill="#9C9B9B" enable-background="new    " width="7.521" height="7.715"/>
<rect x="788.422" y="46.628" opacity="0.06" fill="#9C9B9B" enable-background="new    " width="7.52" height="7.714"/>
<rect x="773.381" y="15.771" opacity="0.06" fill="#9C9B9B" enable-background="new    " width="7.521" height="7.715"/>
<rect x="773.381" y="31.2" opacity="0.06" fill="#9C9B9B" enable-background="new    " width="7.521" height="7.714"/>
<rect x="773.381" y="46.628" opacity="0.06" fill="#9C9B9B" enable-background="new    " width="7.521" height="7.714"/>
<rect x="794.939" y="38.914" opacity="0.06" fill="#9C9B9B" enable-background="new    " width="7.52" height="7.715"/>
<rect x="803.462" y="46.628" opacity="0.06" fill="#9C9B9B" enable-background="new    " width="7.521" height="7.714"/>
<rect x="795.941" y="23.486" opacity="0.06" fill="#9C9B9B" enable-background="new    " width="7.521" height="7.714"/>
<rect x="803.462" y="31.2" opacity="0.06" fill="#9C9B9B" enable-background="new    " width="7.521" height="7.714"/>
<rect x="810.982" y="38.914" opacity="0.06" fill="#9C9B9B" enable-background="new    " width="7.521" height="7.715"/>
<rect x="780.901" y="54.342" opacity="0.06" fill="#9C9B9B" enable-background="new    " width="7.521" height="7.715"/>
<rect x="795.941" y="54.342" opacity="0.06" fill="#9C9B9B" enable-background="new    " width="7.521" height="7.715"/>
<rect x="810.982" y="54.342" opacity="0.06" fill="#9C9B9B" enable-background="new    " width="7.521" height="7.715"/>
<rect x="818.503" y="46.628" opacity="0.06" fill="#9C9B9B" enable-background="new    " width="7.521" height="7.714"/>
<rect x="826.023" y="54.342" opacity="0.06" fill="#9C9B9B" enable-background="new    " width="7.52" height="7.715"/>
<rect x="826.023" y="38.914" opacity="0.06" fill="#9C9B9B" enable-background="new    " width="7.52" height="7.715"/>
<rect x="818.503" y="31.2" opacity="0.06" fill="#9C9B9B" enable-background="new    " width="7.521" height="7.714"/>
<rect x="810.982" y="23.486" opacity="0.06" fill="#9C9B9B" enable-background="new    " width="7.521" height="7.714"/>
<rect x="803.462" y="15.771" opacity="0.06" fill="#9C9B9B" enable-background="new    " width="7.521" height="7.715"/>
<rect x="795.941" y="8.057" opacity="0.06" fill="#9C9B9B" enable-background="new    " width="7.521" height="7.714"/>
<rect x="788.422" y="0.343" opacity="0.06" fill="#9C9B9B" enable-background="new    " width="7.52" height="7.714"/>
<rect x="803.462" y="0.343" opacity="0.06" fill="#9C9B9B" enable-background="new    " width="7.521" height="7.714"/>
<rect x="810.982" y="8.057" opacity="0.06" fill="#9C9B9B" enable-background="new    " width="7.521" height="7.714"/>
<rect x="818.503" y="0.343" opacity="0.06" fill="#9C9B9B" enable-background="new    " width="7.521" height="7.714"/>
<rect x="826.023" y="8.057" opacity="0.06" fill="#9C9B9B" enable-background="new    " width="7.52" height="7.714"/>
<rect x="818.503" y="15.771" opacity="0.06" fill="#9C9B9B" enable-background="new    " width="7.521" height="7.715"/>
<rect x="826.023" y="23.486" opacity="0.06" fill="#9C9B9B" enable-background="new    " width="7.52" height="7.714"/>
<rect x="833.543" y="15.771" opacity="0.06" fill="#9C9B9B" enable-background="new    " width="7.521" height="7.715"/>
<rect x="833.543" y="31.2" opacity="0.06" fill="#9C9B9B" enable-background="new    " width="7.521" height="7.714"/>
<rect x="833.543" y="46.628" opacity="0.06" fill="#9C9B9B" enable-background="new    " width="7.521" height="7.714"/>
<rect x="840.061" y="38.914" opacity="0.06" fill="#9C9B9B" enable-background="new    " width="7.521" height="7.715"/>
<rect x="848.584" y="46.628" opacity="0.06" fill="#9C9B9B" enable-background="new    " width="7.521" height="7.714"/>
<rect x="841.063" y="23.486" opacity="0.06" fill="#9C9B9B" enable-background="new    " width="7.521" height="7.714"/>
<rect x="848.584" y="31.2" opacity="0.06" fill="#9C9B9B" enable-background="new    " width="7.521" height="7.714"/>
<rect x="856.104" y="38.914" opacity="0.06" fill="#9C9B9B" enable-background="new    " width="7.521" height="7.715"/>
<rect x="841.063" y="54.342" opacity="0.06" fill="#9C9B9B" enable-background="new    " width="7.521" height="7.715"/>
<rect x="856.104" y="54.342" opacity="0.06" fill="#9C9B9B" enable-background="new    " width="7.521" height="7.715"/>
<rect x="863.625" y="46.628" opacity="0.06" fill="#9C9B9B" enable-background="new    " width="7.52" height="7.714"/>
<rect x="863.625" y="31.2" opacity="0.06" fill="#9C9B9B" enable-background="new    " width="7.52" height="7.714"/>
<rect x="856.104" y="23.486" opacity="0.06" fill="#9C9B9B" enable-background="new    " width="7.521" height="7.714"/>
<rect x="848.584" y="15.771" opacity="0.06" fill="#9C9B9B" enable-background="new    " width="7.521" height="7.715"/>
<rect x="841.063" y="8.057" opacity="0.06" fill="#9C9B9B" enable-background="new    " width="7.521" height="7.714"/>
<rect x="833.543" y="0.343" opacity="0.06" fill="#9C9B9B" enable-background="new    " width="7.521" height="7.714"/>
<rect x="848.584" y="0.343" opacity="0.06" fill="#9C9B9B" enable-background="new    " width="7.521" height="7.714"/>
<rect x="856.104" y="8.057" opacity="0.06" fill="#9C9B9B" enable-background="new    " width="7.521" height="7.714"/>
<rect x="863.625" y="0.343" opacity="0.06" fill="#9C9B9B" enable-background="new    " width="7.52" height="7.714"/>
<rect x="863.625" y="15.771" opacity="0.06" fill="#9C9B9B" enable-background="new    " width="7.52" height="7.715"/>
<rect x="547.771" y="62.732" opacity="0.06" fill="#9C9B9B" enable-background="new    " width="7.52" height="7.714"/>
<rect x="562.812" y="62.732" opacity="0.06" fill="#9C9B9B" enable-background="new    " width="7.521" height="7.714"/>
<rect x="577.853" y="62.732" opacity="0.06" fill="#9C9B9B" enable-background="new    " width="7.521" height="7.714"/>
<rect x="607.934" y="62.732" opacity="0.06" fill="#9C9B9B" enable-background="new    " width="7.521" height="7.714"/>
<rect x="592.893" y="62.732" opacity="0.06" fill="#9C9B9B" enable-background="new    " width="7.521" height="7.714"/>
<rect x="622.975" y="62.732" opacity="0.06" fill="#9C9B9B" enable-background="new    " width="7.521" height="7.714"/>
<rect x="638.015" y="62.732" opacity="0.06" fill="#9C9B9B" enable-background="new    " width="7.521" height="7.714"/>
<rect x="668.097" y="62.732" opacity="0.06" fill="#9C9B9B" enable-background="new    " width="7.52" height="7.714"/>
<rect x="653.056" y="62.732" opacity="0.06" fill="#9C9B9B" enable-background="new    " width="7.521" height="7.714"/>
<rect x="683.137" y="62.732" opacity="0.06" fill="#9C9B9B" enable-background="new    " width="7.521" height="7.714"/>
<rect x="698.178" y="62.732" opacity="0.06" fill="#9C9B9B" enable-background="new    " width="7.521" height="7.714"/>
<rect x="728.259" y="62.732" opacity="0.06" fill="#9C9B9B" enable-background="new    " width="7.521" height="7.714"/>
<rect x="713.219" y="62.732" opacity="0.06" fill="#9C9B9B" enable-background="new    " width="7.52" height="7.714"/>
<rect x="743.3" y="62.732" opacity="0.06" fill="#9C9B9B" enable-background="new    " width="7.521" height="7.714"/>
<rect x="758.34" y="62.732" opacity="0.06" fill="#9C9B9B" enable-background="new    " width="7.521" height="7.714"/>
<rect x="788.422" y="62.732" opacity="0.06" fill="#9C9B9B" enable-background="new    " width="7.52" height="7.714"/>
<rect x="773.381" y="62.732" opacity="0.06" fill="#9C9B9B" enable-background="new    " width="7.521" height="7.714"/>
<rect x="803.462" y="62.732" opacity="0.06" fill="#9C9B9B" enable-background="new    " width="7.521" height="7.714"/>
<rect x="818.503" y="62.732" opacity="0.06" fill="#9C9B9B" enable-background="new    " width="7.521" height="7.714"/>
<rect x="833.543" y="62.732" opacity="0.06" fill="#9C9B9B" enable-background="new    " width="7.521" height="7.714"/>
<rect x="848.584" y="62.732" opacity="0.06" fill="#9C9B9B" enable-background="new    " width="7.521" height="7.714"/>
<rect x="863.625" y="62.732" opacity="0.06" fill="#9C9B9B" enable-background="new    " width="7.52" height="7.714"/>
<polygon fill="#5B5B5B" points="520.361,-0.33 483.549,70.911 -0.855,71.165 -0.834,-0.33 "/>
</svg>
