<?xml version="1.0" encoding="utf-8"?>
<!-- Generator: Adobe Illustrator 15.1.0, SVG Export Plug-In . SVG Version: 6.00 Build 0)  -->
<!DOCTYPE svg PUBLIC "-//W3C//DTD SVG 1.1//EN" "http://www.w3.org/Graphics/SVG/1.1/DTD/svg11.dtd">
<svg version="1.1" id="Calque_1" xmlns="http://www.w3.org/2000/svg" xmlns:xlink="http://www.w3.org/1999/xlink" x="0px" y="0px"
	 width="872px" height="72px" viewBox="0 0 872 72" enable-background="new 0 0 872 72" xml:space="preserve">
<rect y="-0.583" fill="#9CCC8F" width="871" height="72"/>
<polygon fill="#FFFFFF" fill-opacity="0.25" stroke="#7DBD6B" points="584.408,-0.583 547.611,71.166 -0.011,71.417 0.01,-0.583 "/>
<g opacity="0.49" enable-background="new    ">
	<g>
		<polygon fill="#1D1D1B" points="707.562,62.474 660.171,62.474 667.782,33.645 710.198,33.645 710.198,24.767 681.644,24.767 
			676.845,17.899 656.351,17.899 656.351,63.951 710.198,63.951 710.198,52.323 		"/>
		<g>
			<g>
				<path fill="#000100" d="M713.927,21.868h-4.912c-0.292-0.944-0.701-1.832-1.202-2.658l3.259-3.267c0.77-0.761,0.77-2.003,0-2.77
					l-1.385-1.379c-0.764-0.765-2.006-0.761-2.768,0l-3.317,3.31c-0.895-0.512-1.865-0.906-2.899-1.171V9.624
					c0-1.079-0.871-1.957-1.958-1.957h-1.958c-1.079,0-1.958,0.878-1.958,1.957v4.309c-1.126,0.285-2.181,0.733-3.15,1.321
					l-2.773-2.772c-0.764-0.761-2.009-0.765-2.773,0l-1.388,1.384c-0.764,0.762-0.755,2.01,0.005,2.777l2.825,2.823
					c-0.597,1.041-1.045,2.18-1.302,3.382h-3.689c-1.083,0-1.96,0.879-1.96,1.959v1.962c0,1.076,0.877,1.955,1.96,1.955h3.94
					c0.356,1.182,0.896,2.271,1.584,3.263l-2.664,2.663c-0.767,0.77-0.767,2.013-0.006,2.774l1.385,1.384
					c0.77,0.762,2.012,0.762,2.776-0.004l2.975-2.975c1.005,0.498,2.092,0.86,3.235,1.046v4.101c0,1.079,0.876,1.955,1.96,1.957
					h1.957c1.08-0.002,1.961-0.878,1.961-1.957v-4.608c0.985-0.347,1.921-0.812,2.769-1.408l3.155,3.157
					c0.767,0.763,2.002,0.763,2.773,0l1.383-1.387c0.769-0.763,0.769-2.004-0.006-2.772l-3.455-3.467
					c0.424-0.855,0.754-1.773,0.958-2.742h4.664c1.088,0,1.963-0.873,1.965-1.962v-1.957
					C715.89,22.747,715.015,21.868,713.927,21.868z M697.77,30.193c-2.705,0-4.898-2.185-4.898-4.897
					c0-2.706,2.193-4.894,4.898-4.894c2.707,0,4.899,2.188,4.899,4.894C702.669,28.008,700.477,30.193,697.77,30.193z"/>
			</g>
		</g>
		<g>
			<g>
				<path fill="#000100" d="M729.504,12.339l-2.303,0.42c-0.219-0.417-0.485-0.8-0.79-1.143l1.246-1.81
					c0.298-0.424,0.191-1.007-0.236-1.299l-0.768-0.527c-0.423-0.293-1.006-0.185-1.297,0.236l-1.271,1.836
					c-0.465-0.164-0.952-0.266-1.462-0.301l-0.367-2.021c-0.093-0.505-0.576-0.841-1.086-0.749l-0.918,0.168
					c-0.506,0.092-0.842,0.579-0.75,1.083l0.369,2.021c-0.503,0.228-0.959,0.528-1.361,0.888l-1.538-1.062
					c-0.423-0.292-1.008-0.186-1.299,0.236l-0.534,0.769c-0.292,0.422-0.181,1.008,0.24,1.3l1.566,1.083
					c-0.191,0.539-0.303,1.111-0.32,1.698l-1.729,0.313c-0.508,0.093-0.844,0.582-0.752,1.087l0.169,0.92
					c0.091,0.505,0.578,0.84,1.086,0.748l1.847-0.336c0.267,0.521,0.613,0.984,1.023,1.393l-1.021,1.475
					c-0.294,0.427-0.188,1.01,0.235,1.3l0.766,0.531c0.428,0.29,1.008,0.184,1.302-0.239l1.139-1.65
					c0.515,0.149,1.055,0.225,1.606,0.215l0.352,1.92c0.092,0.505,0.579,0.84,1.086,0.75l0.917-0.169
					c0.505-0.093,0.846-0.578,0.752-1.083l-0.396-2.159c0.435-0.248,0.832-0.547,1.178-0.897l1.748,1.208
					c0.425,0.292,1.006,0.186,1.302-0.236l0.529-0.769c0.294-0.422,0.188-1.004-0.24-1.297l-1.915-1.331
					c0.124-0.436,0.2-0.895,0.213-1.367l2.188-0.399c0.51-0.093,0.843-0.577,0.752-1.089l-0.169-0.917
					C730.498,12.582,730.014,12.247,729.504,12.339z M722.645,17.624c-1.269,0.229-2.483-0.605-2.717-1.876
					c-0.231-1.267,0.609-2.481,1.878-2.713c1.271-0.231,2.482,0.605,2.714,1.874C724.754,16.179,723.912,17.391,722.645,17.624z"/>
			</g>
		</g>
		<g>
			<g>
				<path fill="#000100" d="M756.628,16.625l-3.396-0.344c-0.136-0.673-0.355-1.316-0.646-1.921l2.481-2.031
					c0.585-0.471,0.672-1.33,0.195-1.914L754.4,9.363c-0.472-0.581-1.33-0.665-1.911-0.193l-2.525,2.057
					c-0.58-0.418-1.224-0.758-1.922-1.014l0.3-2.978c0.078-0.748-0.463-1.414-1.215-1.489l-1.353-0.138
					c-0.745-0.076-1.413,0.47-1.49,1.217l-0.301,2.976c-0.799,0.119-1.56,0.353-2.271,0.693l-1.723-2.11
					c-0.474-0.579-1.335-0.667-1.915-0.194l-1.057,0.859c-0.583,0.473-0.663,1.336-0.191,1.919l1.755,2.15
					c-0.487,0.678-0.874,1.433-1.137,2.245l-2.55-0.257c-0.75-0.077-1.417,0.47-1.493,1.218l-0.138,1.354
					c-0.075,0.744,0.47,1.413,1.22,1.488l2.723,0.277c0.163,0.841,0.461,1.632,0.866,2.366l-2.027,1.653
					c-0.585,0.478-0.672,1.337-0.198,1.918l0.859,1.052c0.479,0.58,1.337,0.667,1.92,0.192l2.265-1.847
					c0.659,0.414,1.384,0.741,2.163,0.948l-0.287,2.834c-0.078,0.745,0.467,1.412,1.215,1.489l1.354,0.138
					c0.746,0.073,1.415-0.47,1.491-1.217l0.322-3.184c0.708-0.17,1.386-0.427,2.014-0.78l1.96,2.403
					c0.477,0.581,1.331,0.667,1.916,0.193l1.055-0.858c0.583-0.474,0.67-1.333,0.188-1.917l-2.145-2.639
					c0.354-0.562,0.646-1.173,0.854-1.828l3.224,0.326c0.752,0.077,1.418-0.467,1.495-1.219l0.139-1.353
					C757.923,17.37,757.38,16.702,756.628,16.625z M744.878,21.247c-1.871-0.19-3.232-1.853-3.044-3.728
					c0.189-1.869,1.86-3.228,3.729-3.038c1.868,0.189,3.232,1.855,3.043,3.725C748.415,20.08,746.747,21.436,744.878,21.247z"/>
			</g>
		</g>
		<path fill="#868686" d="M665.021,31.639l-8.671,32.841h53.99l8.527-32.841H665.021z"/>
	</g>
</g>
</svg>
