<?xml version="1.0" encoding="utf-8"?>
<!-- Generator: Adobe Illustrator 15.1.0, SVG Export Plug-In . SVG Version: 6.00 Build 0)  -->
<!DOCTYPE svg PUBLIC "-//W3C//DTD SVG 1.1//EN" "http://www.w3.org/Graphics/SVG/1.1/DTD/svg11.dtd">
<svg version="1.1" id="Calque_1" xmlns="http://www.w3.org/2000/svg" xmlns:xlink="http://www.w3.org/1999/xlink" x="0px" y="0px"
	 width="870px" height="70.835px" viewBox="0 0 870 70.835" enable-background="new 0 0 870 70.835" xml:space="preserve">
<rect x="0.323" y="0.417" fill="#E6BC95" width="869.644" height="70"/>
<polygon fill="#EECDAE" points="573.395,0.664 536.492,69.925 0.323,70.171 0.344,0.664 "/>
<g opacity="0.18">
	<path fill="#3D3D3C" d="M853.776,47.317c-0.935,7.808-8.032,13.437-15.875,12.502c-7.849-0.917-13.461-8.032-12.528-15.881
		c0.928-7.839,8.034-13.446,15.882-12.525C849.104,32.352,854.714,39.458,853.776,47.317z"/>
	<path fill="#3D3D3C" d="M824.271,24.502l-3.957-6.836c-15.075,8.729-20.236,28.011-11.55,43.1l6.834-3.957
		C809.096,45.498,812.969,31.045,824.271,24.502z"/>
	<path opacity="0.75" fill="#3D3D3C" enable-background="new    " d="M806.697,8.256l-3.956-6.834
		c-22.626,13.098-30.364,42.041-17.306,64.679l6.834-3.956C781.396,43.283,787.845,19.168,806.697,8.256z"/>
	<path opacity="0.1" fill="#3D3D3C" enable-background="new    " d="M690.592,71.583C678.434,48.98,677.292,22.845,685.907,0H677.5
		c-7.854,22.986-6.791,48.738,4.223,71.583H690.592z"/>
	<path opacity="0.15" fill="#3D3D3C" enable-background="new    " d="M718.465,70.171c-10.302-22.879-9.857-48.351-0.34-70.171
		h-8.558c-8.686,22.049-9.04,47.167,0.306,70.171H718.465z"/>
	<path opacity="0.25" fill="#3D3D3C" enable-background="new    " d="M744.429,70.171C732.436,47.343,734.133,20.695,746.913,0
		h-9.104c-11.373,21.207-12.789,47.173-2.18,70.171H744.429z"/>
	<path opacity="0.5" fill="#3D3D3C" enable-background="new    " d="M763.863,70.417l5.106-2.957
		C756,44.992,760.622,17.193,778.56,0h-11.14c-15.725,19.499-18.945,47.274-6.211,70.417H763.863z"/>
</g>
</svg>
