<?xml version="1.0" encoding="utf-8"?>
<!-- Generator: Adobe Illustrator 15.1.0, SVG Export Plug-In . SVG Version: 6.00 Build 0)  -->
<!DOCTYPE svg PUBLIC "-//W3C//DTD SVG 1.1//EN" "http://www.w3.org/Graphics/SVG/1.1/DTD/svg11.dtd">
<svg version="1.1" id="Calque_1" xmlns="http://www.w3.org/2000/svg" xmlns:xlink="http://www.w3.org/1999/xlink" x="0px" y="0px"
	 width="872px" height="72px" viewBox="0 0 872 72" enable-background="new 0 0 872 72" xml:space="preserve">
<rect x="-0.323" y="0.743" fill="#CCE2EC" width="872" height="70.407"/>
<polygon fill="#E3F1F6" points="573.077,0.991 536.702,70.656 -0.323,70.904 -0.302,0.991 "/>
<g>
	<path fill="#6AB2D1" d="M855.443,47.594c-0.938,7.854-8.058,13.516-15.919,12.574c-7.868-0.922-13.497-8.079-12.562-15.975
		c0.931-7.886,8.057-13.522,15.926-12.599C850.758,32.542,856.383,39.691,855.443,47.594z"/>
	<path fill="#6AB2D1" d="M825.858,24.646l-3.971-6.875c-15.114,8.78-20.291,28.173-11.58,43.351l6.854-3.979
		C810.642,45.765,814.524,31.227,825.858,24.646z"/>
	<path opacity="0.75" fill="#6AB2D1" enable-background="new    " d="M808.236,8.306l-3.967-6.874
		c-22.688,13.175-30.446,42.286-17.354,65.055l6.854-3.979C782.867,43.537,789.333,19.281,808.236,8.306z"/>
	<path opacity="0.07" fill="#6AB2D1" enable-background="new    " d="M691.816,72.002c-12.191-22.733-13.336-49.022-4.697-72h-8.434
		c-7.871,23.12-6.81,49.021,4.233,72H691.816z"/>
	<path opacity="0.15" fill="#6AB2D1" enable-background="new    " d="M719.765,70.582c-10.329-23.014-9.886-48.63-0.342-70.58
		h-8.581c-8.708,22.177-9.062,47.441,0.311,70.58H719.765z"/>
	<path opacity="0.25" fill="#6AB2D1" enable-background="new    " d="M745.799,70.582c-12.021-22.961-10.322-49.765,2.491-70.58
		h-9.129c-11.404,21.331-12.824,47.447-2.188,70.58H745.799z"/>
	<path opacity="0.5" fill="#6AB2D1" enable-background="new    " d="M765.286,70.828l5.121-2.977
		c-13.006-22.6-8.371-50.561,9.614-67.854H768.85c-15.769,19.613-18.994,47.549-6.229,70.827L765.286,70.828L765.286,70.828z"/>
</g>
</svg>
