<?xml version="1.0" encoding="utf-8"?>
<!-- Generator: Adobe Illustrator 15.1.0, SVG Export Plug-In . SVG Version: 6.00 Build 0)  -->
<!DOCTYPE svg PUBLIC "-//W3C//DTD SVG 1.1//EN" "http://www.w3.org/Graphics/SVG/1.1/DTD/svg11.dtd">
<svg version="1.1" id="Calque_1" xmlns="http://www.w3.org/2000/svg" xmlns:xlink="http://www.w3.org/1999/xlink" x="0px" y="0px"
	 width="65px" height="65px" viewBox="0 0 65 65" enable-background="new 0 0 65 65" xml:space="preserve">
<circle fill="#3699CA" cx="53.491" cy="32.227" r="6.712"/>
<path fill="#3699CA" d="M38.064,52.809c0,0-10.911-6.252-10.245-21.017c0.668-14.762,10.286-20.114,10.286-20.114l7.802,6.317
	c0,0-7.821,5.69-7.97,14.218c-0.143,8.522,7.307,14.774,7.307,14.774L38.064,52.809z"/>
<path fill="#3699CA" d="M23.17,64.885c0,0-16.855-14.105-16.28-32.38C7.519,12.541,23.343-0.282,23.343-0.282l7.803,6.319
	c0,0-14.285,9.096-14.139,26.89c0.135,15.689,13.346,26.137,13.346,26.137L23.17,64.885z"/>
</svg>
