<?xml version="1.0" encoding="utf-8"?>
<!-- Generator: Adobe Illustrator 15.1.0, SVG Export Plug-In . SVG Version: 6.00 Build 0)  -->
<!DOCTYPE svg PUBLIC "-//W3C//DTD SVG 1.1//EN" "http://www.w3.org/Graphics/SVG/1.1/DTD/svg11.dtd">
<svg version="1.1" id="Calque_1" xmlns="http://www.w3.org/2000/svg" xmlns:xlink="http://www.w3.org/1999/xlink" x="0px" y="0px"
	 width="872px" height="72px" viewBox="0 0 872 72" enable-background="new 0 0 872 72" xml:space="preserve">
<rect x="-0.323" y="0.743" fill="#CCE2EC" width="872" height="70.407"/>
<g opacity="0.7">
	<path fill="#6AB2D1" d="M853.638,28.82c-3.256-0.204-5.727-3.013-5.523-6.275c0.203-3.265,3.011-5.749,6.265-5.544
		c3.255,0.199,5.72,3.015,5.522,6.266C859.699,26.537,856.895,29.018,853.638,28.82z"/>
	<path fill="#6AB2D1" d="M844.209,15.743l-2.239-2.373c-5.217,4.967-5.111,13.539-0.176,18.777l2.988-1.485
		C841.083,26.736,840.302,19.469,844.209,15.743z"/>
	<path opacity="0.75" fill="#6AB2D1" enable-background="new    " d="M835.85,11.291l-2.792-2.391
		c-7.457,7.828-8.028,20.671-0.239,28.155l2.851-1.387C829.179,29.435,829.64,17.814,835.85,11.291z"/>
	<path opacity="0.5" fill="#6AB2D1" enable-background="new    " d="M827.256,6.148l-2.742-2.199
		c-8.852,11.77-9.698,29.78-1.222,39.671l3.11-1.798C819.339,33.583,819.883,15.955,827.256,6.148z"/>
	<path opacity="0.25" fill="#6AB2D1" enable-background="new    " d="M817.441-0.422h-5.028c-8.738,16.761-9.88,35.129,1.385,52.042
		l3.611-2.854C807.015,35.527,808.9,12.24,817.441-0.422z"/>
	<path opacity="0.15" fill="#6AB2D1" enable-background="new    " d="M806.008-0.421h-4.918c-6.448,12.521-11.522,37.69,4.08,56.888
		l3.098-1.625c-14.021-18.84-9.399-42.911-2.26-55.264V-0.421z"/>
</g>
<polyline fill="none" stroke="#6AB2D1" stroke-width="6" stroke-linecap="round" stroke-miterlimit="10" points="471.5,52.059 
	538.5,16.305 561.5,34.182 573.077,16.989 595.5,47.5 612,37.055 624,13.37 642,41.5 666.5,51.619 681.5,13.37 709.5,48.5 725,11 
	743,49 759.5,28.022 776.5,16.989 794.856,56.467 822.318,40 866.518,43.62 "/>
<polygon fill="#E3F1F6" points="573.077,0.991 536.702,70.656 -0.323,70.904 -0.302,0.991 "/>
</svg>
