<?xml version="1.0" encoding="utf-8"?>
<!-- Generator: Adobe Illustrator 15.1.0, SVG Export Plug-In . SVG Version: 6.00 Build 0)  -->
<!DOCTYPE svg PUBLIC "-//W3C//DTD SVG 1.1//EN" "http://www.w3.org/Graphics/SVG/1.1/DTD/svg11.dtd" [
	<!ENTITY ns_extend "http://ns.adobe.com/Extensibility/1.0/">
	<!ENTITY ns_ai "http://ns.adobe.com/AdobeIllustrator/10.0/">
	<!ENTITY ns_graphs "http://ns.adobe.com/Graphs/1.0/">
	<!ENTITY ns_vars "http://ns.adobe.com/Variables/1.0/">
	<!ENTITY ns_imrep "http://ns.adobe.com/ImageReplacement/1.0/">
	<!ENTITY ns_sfw "http://ns.adobe.com/SaveForWeb/1.0/">
	<!ENTITY ns_custom "http://ns.adobe.com/GenericCustomNamespace/1.0/">
	<!ENTITY ns_adobe_xpath "http://ns.adobe.com/XPath/1.0/">
]>
<svg version="1.1" id="Calque_1" xmlns:x="&ns_extend;" xmlns:i="&ns_ai;" xmlns:graph="&ns_graphs;"
	 xmlns="http://www.w3.org/2000/svg" xmlns:xlink="http://www.w3.org/1999/xlink" x="0px" y="0px" width="872px" height="72px"
	 viewBox="0 0 872 72" enable-background="new 0 0 872 72" xml:space="preserve">
<metadata>
	<sfw  xmlns="&ns_sfw;">
		<slices></slices>
		<sliceSourceBounds  y="36.176" x="-255.823" width="872" height="72.001" bottomLeftOrigin="true"></sliceSourceBounds>
	</sfw>
</metadata>
<rect x="-0.323" y="0.743" fill="#CCE2EC" width="872" height="70.408"/>
<polygon fill="#E3F1F6" points="573.077,0.991 536.702,70.656 -0.323,70.904 -0.302,0.991 "/>
<g opacity="0.29">
	<path fill="#6AB2D1" d="M855.443,47.916c-0.938,7.853-8.055,13.515-15.919,12.574c-7.868-0.922-13.497-8.079-12.562-15.974
		c0.931-7.884,8.057-13.523,15.926-12.597C850.758,32.864,856.383,40.013,855.443,47.916z"/>
	<path fill="#6AB2D1" d="M825.858,24.968l-3.968-6.875c-15.116,8.78-20.291,28.173-11.58,43.351l6.853-3.98
		C810.642,46.087,814.524,31.549,825.858,24.968z"/>
	<path opacity="0.75" fill="#6AB2D1" enable-background="new    " d="M808.236,8.628l-3.967-6.874
		c-22.688,13.175-30.446,42.286-17.354,65.055l6.854-3.979C782.867,43.859,789.333,19.603,808.236,8.628z"/>
	<path opacity="0.07" fill="#6AB2D1" enable-background="new    " d="M691.816,72.324c-12.191-22.733-13.336-49.022-4.697-72h-8.431
		c-7.874,23.12-6.81,49.021,4.233,72H691.816z"/>
	<path opacity="0.15" fill="#6AB2D1" enable-background="new    " d="M719.765,70.904c-10.329-23.013-9.886-48.63-0.342-70.58
		h-8.581c-8.708,22.177-9.063,47.442,0.308,70.58H719.765z"/>
	<path opacity="0.25" fill="#6AB2D1" enable-background="new    " d="M745.799,70.904c-12.024-22.961-10.322-49.765,2.491-70.58
		h-9.129c-11.404,21.331-12.824,47.448-2.186,70.58H745.799z"/>
	<path opacity="0.5" fill="#6AB2D1" enable-background="new    " d="M765.286,71.151l5.121-2.975
		c-13.006-22.6-8.371-50.561,9.615-67.854h-11.17c-15.769,19.613-18.997,47.549-6.229,70.827L765.286,71.151L765.286,71.151z"/>
</g>
</svg>
