<?xml version="1.0" encoding="utf-8"?>
<!-- Generator: Adobe Illustrator 15.1.0, SVG Export Plug-In . SVG Version: 6.00 Build 0)  -->
<!DOCTYPE svg PUBLIC "-//W3C//DTD SVG 1.1//EN" "http://www.w3.org/Graphics/SVG/1.1/DTD/svg11.dtd">
<svg version="1.1" id="Calque_1" xmlns="http://www.w3.org/2000/svg" xmlns:xlink="http://www.w3.org/1999/xlink" x="0px" y="0px"
	 width="153.5px" height="112.566px" viewBox="0 0 153.5 112.566" enable-background="new 0 0 153.5 112.566" xml:space="preserve">
<g opacity="0.75">
	<polygon fill="#E3E3E3" points="153.5,54.84 143.244,20.581 105.068,0 51.174,16.135 80.043,112.566 102.107,112.566 153.5,97.18 	
		"/>
	
		<rect x="79.167" y="55.044" transform="matrix(-0.958 0.2868 -0.2868 -0.958 228.6467 83.2847)" fill="#D0D0D0" width="58.114" height="6.686"/>
	
		<rect x="75.002" y="42.967" transform="matrix(-0.958 0.2868 -0.2868 -0.958 192.6472 64.3993)" fill="#D0D0D0" width="33.211" height="6.681"/>
	
		<rect x="83.851" y="70.699" transform="matrix(-0.958 0.2868 -0.2868 -0.958 242.3097 112.5966)" fill="#D0D0D0" width="58.115" height="6.691"/>
	<polyline fill="#D0D0D0" points="105.068,0 113.855,29.346 143.244,20.581 	"/>
</g>
<text transform="matrix(1 0 0 1 -0.9609 102.3142)" fill="#CCCCCB" font-family="'Candara-Bold'" font-size="45">CSW</text>
</svg>
