<?xml version="1.0" encoding="utf-8"?>
<!-- Generator: Adobe Illustrator 15.1.0, SVG Export Plug-In . SVG Version: 6.00 Build 0)  -->
<!DOCTYPE svg PUBLIC "-//W3C//DTD SVG 1.1//EN" "http://www.w3.org/Graphics/SVG/1.1/DTD/svg11.dtd">
<svg version="1.1" id="Calque_1" xmlns="http://www.w3.org/2000/svg" xmlns:xlink="http://www.w3.org/1999/xlink" x="0px" y="0px"
	 width="65px" height="65px" viewBox="0 0 65 65" enable-background="new 0 0 65 65" xml:space="preserve">
<g>
	<path fill="#3699CA" d="M32.499,0c-4.928,0-9.6,1.105-13.789,3.066c0.01-0.013,0.016-0.029,0.016-0.048
		c-0.423,0.197-0.84,0.401-1.254,0.62c0.02,0.01,0.051,0.01,0.069,0.013c-0.075,0.035-0.155,0.077-0.232,0.121
		c-0.009-0.016-0.013-0.019-0.022-0.035c-0.238,0.125-0.48,0.252-0.716,0.385c0.021,0.004,0.044,0.01,0.073,0.014
		c-0.252,0.14-0.508,0.283-0.751,0.429c-0.015-0.007-0.027-0.015-0.036-0.025c0.141-0.083,0.279-0.172,0.414-0.249
		c-0.135,0.083-0.284,0.166-0.423,0.249h0.003c-0.057,0.038-0.121,0.069-0.179,0.105c0.032-0.002,0.042,0.012,0.067,0.016
		c-0.129,0.067-0.252,0.152-0.38,0.232c0.011-0.025,0.019-0.05,0.022-0.08c0,0,0,0,0,0.006c0-0.006,0-0.006,0-0.006
		c-0.022,0.017-0.045,0.03-0.066,0.044c0.014-0.009,0.025-0.015,0.042-0.025c-0.049,0.035-0.106,0.07-0.157,0.096
		c0.016-0.01,0.032-0.019,0.049-0.025c-0.141,0.08-0.291,0.175-0.426,0.264c0.093-0.061,0.189-0.121,0.285-0.178
		c-0.096,0.063-0.189,0.124-0.285,0.188c0,0.016,0,0.041,0,0.054c-0.002,0.01-0.016,0.01-0.025,0.02
		c-0.004-0.013-0.012-0.028-0.021-0.045c0.018-0.007,0.029-0.022,0.045-0.028c0,0,0-0.003,0-0.01
		c-0.016,0.013-0.035,0.022-0.052,0.035c0,0,0,0.003,0,0.009c-0.892,0.576-1.757,1.194-2.589,1.859
		c0.009,0.019,0.02,0.031,0.029,0.054C4.769,13.079,0,22.233,0,32.498C0,50.446,14.552,65,32.499,65C50.449,65,65,50.446,65,32.498
		C65,14.551,50.449,0,32.499,0z M55.836,10.838c0.025,0.057,0.073,0.105,0.099,0.166c-0.851,0.244-0.78-0.427-1.498-0.303
		c0.305,0.529,0.519,1.608,1.198,0.901c0.064,0.401,0.416,0.127,0.733-0.172c4.605,5.219,7.537,11.953,7.935,19.365
		c-0.393,0-0.781,0-1.166,0c1.89,2.941-2.148,4.206-3.903,5.402c0.535,1.235,1.718-0.386,2.4,0.295
		c-0.297,3.007-2.421,4.175-3.899,6c0.072,2.276,0.16,2.892,0,5.097c-3.048,2.08-3.247,8.501-8.104,7.795
		c-0.8-2.197-0.833-5.165-1.8-7.2c2.001-2.873-0.812-4.8-0.598-8.395c-0.409-0.494-1.576-0.217-1.502-1.198
		c-1.869,0.647-3.215,0.384-5.1,0.6c-1.354-0.746-1.889-2.305-3-3.295c1.012-2.904-0.638-5.986,2.704-7.199
		c-0.163-3.566,5.517-4.129,7.801-3.298c0,0.401,0,0.802,0,1.2c1.177,0.223,1.732,1.067,2.697,1.501
		c-0.05-0.752,0.462-0.94,0.899-1.204c0.921,0.583,0.69,1.407,2.102,0.904c0.526,0.172,1.763-0.367,1.8,0.3
		c0.443-0.259,0.434-0.966,0.603-1.501c-0.278-1.028-1.852-0.75-2.708-1.2c-0.408-0.385-0.408-1.414,0-1.802
		c-1.905-0.136-0.303,1.449-1.494,1.802c-0.201,0-0.405,0-0.603,0c0.26-0.958-0.474-0.927-0.599-1.499
		c-0.895-0.073-1.14,2.034-2.103,0.901c2.139-0.351-1.204-3.019-1.498-1.802c-0.049-0.443,0.108-1.105-0.294-1.195
		c-1.07,0.328-1.763,1.039-2.709,1.497c0,0.401,0,0.799,0,1.197c-0.26,0.134-0.538,0.264-0.599,0.598c-0.897,0-1.795,0-2.701,0
		c-0.019-0.381-0.377-0.41-0.299-0.897c0.445-0.659-0.035-2.234,0.9-2.395c0.865-0.42,1.527,0.812,1.804,0c0.104,0,0.197,0,0.296,0
		c0.134-1.136-0.589-1.413-0.897-2.101c0.028-0.566,0.994-0.213,0.897-0.904c2.562-0.14,2.635-2.763,4.204-3.897
		c-0.254,0.354-0.394,0.803-0.297,1.5c1.1,0.276,0.543-1.582,0.297-1.796c-0.693-0.096-1.151,0.044-1.498,0.295
		c-0.422-0.378-0.187-1.414-0.601-1.795c1.898-1.707,2.461-4.738,5.7-5.101c0.964,0.239,1.83,0.573,2.576,1.026
		C54.645,9.609,55.251,10.214,55.836,10.838z M42.429,14.299c1.567,0.34,1.133,2.675,2.401,3.302c0,0.201,0,0.397,0,0.598
		c-0.721-0.124-0.652,0.548-1.498,0.303c-0.569-0.067-0.661,0.337-1.201,0.296C43.344,17.204,41.787,15.887,42.429,14.299z
		 M42.131,17.897c-0.498,0-1,0-1.499,0c-0.121-1.117,0.242-1.757,1.201-1.803C42.176,16.455,42.169,17.162,42.131,17.897z
		 M37.332,11.602c-0.267-0.633-0.911-0.888-0.905-1.799c1.205,0.293,1.807,0.293,3.005,0c0.057,0.246,0.3,0.3,0.3,0.599
		C39.693,11.562,38.563,11.631,37.332,11.602z M35.529,13.404c-0.459,1.235-1.918,1.478-2.997,2.092c-0.335-0.051-0.166-0.29,0-0.29
		c-0.046-0.557-1.014-0.191-1.201-0.608C31.028,10.94,35.854,10.087,35.529,13.404z M58.334,50.888
		c-0.758-2.306,0.907-3.222,1.799-5.101c0.887,0.711-0.364,1.813-0.307,2.702c-0.321,0.552-0.72,1.032-0.881,1.75
		c-0.011,0.018-0.021,0.037-0.033,0.056C58.59,50.363,58.463,50.62,58.334,50.888z M37.387,1.029
		c-0.02,0.029-0.029,0.043-0.054,0.077c0.192,0.034,0.415,0.038,0.648,0.027c0.503,0.092,1.004,0.192,1.498,0.297
		c-0.485,0.223-0.615,0.799-1.243,0.872c-0.216,0.92,0.307,1.095,0.296,1.799c-0.512,0.122-0.767-0.442-0.9,0
		c1.037,1.328-1.469,2.484,0,3.601c-2.182,1.114-5.26,1.337-6.598,3.296c-0.646,0.75-0.949,1.858-1.802,2.406
		c-2.138-0.623-2.552-4.151-1.905-5.508c0.057-0.043,0.098-0.107,0.098-0.19c-0.032,0.057-0.07,0.122-0.098,0.188
		c-0.162,0.111-0.441,0.079-0.491-0.191c1.408-3.983-3.436-2.815-4.2-5.101c0.499-0.394,1.904,0.112,1.795-0.898
		C24.39,1.71,24.354,1.727,24.31,1.727c2.617-0.695,5.354-1.07,8.189-1.07C34.155,0.656,35.795,0.787,37.387,1.029z M17.534,4.388
		c0.602,0.201,1.107,0.315,1.794-0.28c-0.391-0.023-0.857,0.028-1.251,0.006c1.418-0.719,2.891-1.337,4.417-1.84
		c-1.162,0.599-1.933,1.595-2.561,2.731c-1.397,0.14-2.493,0.274-3.376-0.064C16.882,4.753,17.202,4.566,17.534,4.388z
		 M16.092,5.206c0.069,0.146,0.198,0.229,0.542,0.099c-0.322,0.678-0.911,1.089-1.799,1.197c0.227-0.293,0.314-0.525,0.365-0.732
		C15.493,5.582,15.794,5.387,16.092,5.206z M12.631,7.628c0.034,0.023,0.068,0.054,0.104,0.077c-0.07,0.825-1.117,0.682-1.504,1.201
		c2.014,0.592,2.096-1.803,3.303-0.306c0.121-0.717-0.548-0.65-0.302-1.497c0.382-0.012,0.416-0.382,0.901-0.298
		c0.148,1.709,1.117,0.938,1.5,2.101c0.063-0.338,0.335-0.471,0.599-0.599c0.318-1.125-1.125-0.478-0.898-1.502
		c0.042-1.655,2.538-0.866,3.6-1.5c0.009,0.494,0.834,0.172,0.899,0.599c-0.393-0.038-2.17-0.042-1.201,0.303
		c3.062-0.242,3.017,2.037,4.803,3.597c-0.59-0.089-0.599,0.405-0.898,0.599c-0.401,0.044-0.908-1.216-1.205-0.296
		c0.664,0.042,0.651,0.751,0.606,1.497c-1.49-0.49-0.176,0.039-0.911,0.596c-1.113-0.58-1.975-1.417-3.297-1.796
		c0.74-0.261,1.732-0.268,1.807-1.2c0.223-0.92-0.828-0.573-0.603-1.497c-0.438,0-2.456-0.114-1.501,0.299
		c0.246,1.347-0.862,1.34-1.2,2.101c0.439,0.259,0.949,0.446,0.899,1.201c-0.239-0.163-0.485-0.312-0.899-0.302
		c-0.378,0.076-0.306,0.595,0,0.598c-0.055,0.51-1.427-0.14-1.204-0.901c-1.418,0.478-2.113,1.681-2.996,2.703
		c0.256,1.137,1.396,1.398,2.4,1.803c0.239,0.153,0.486,0.312,0.901,0.29c-0.215,0.92,0.31,1.096,0.296,1.802
		c1.023-2.413,1.906-1.783,1.803-5.696c0.252,0.054,0.277-0.121,0.297-0.299c0.301-0.029,0.715,0.792,1.807,0.599
		c0.761,0.24,0.155,1.84,1.197,1.799c0.969,0.373,0.227-0.968,1.2-0.595c0.937,2.795,2.564,4.218,2.995,6.893
		c-0.908,0.216-1.084-0.303-1.794-0.296c-1.055,0.265-0.513-0.98-0.303-1.203c0.435-0.166,0.733-0.468,0.903-0.898
		c-1.129,0.28-2.033,1.858-3.002,0.598c0.246,0.847-0.416,0.774-0.302,1.5c-0.052,0.251,0.113,0.28,0.302,0.299
		c0.232,0.064,0.592,0.006,0.598,0.299c0,0.103,0,0.201,0,0.296c-1.422,0.923-5.144,1.99-5.697,5.402
		c-0.879,0.016-1.115,0.685-1.5,1.201c-0.63,0.261,0.593,2.091-0.307,2.696c-0.716-0.372-0.961-1.232-1.196-2.102
		c-2.728-1.582-7.671,3.42-2.998,4.502c0.099,0,0.194,0,0.3,0c-0.109-0.952,1.648-1.344,1.799-0.302
		c-0.442,0.254-0.643,0.757-0.602,1.498c-0.045,0.654,1.066,0.137,1.501,0.302c-0.079,1.326-0.635,2.477,0.903,2.695
		c0.233,0.065,0.594,0.016,0.6,0.298c1.171-0.119,1.277-1.314,2.398-1.494c0.671,0.626,1.938,0.879,3.899,0.9
		c0.423,1.877,2.697,1.897,3.897,2.999c0,0.503,0,0.996,0,1.499c2.146,0.558,3.728,1.678,5.699,2.398
		c-0.279,2.818-2.139,4.059-2.093,7.199c-0.81,0.391-1.599,0.801-2.405,1.199c-0.276,1.974-1.569,4.353-3.297,3.897
		c-0.121,0.717,0.545,0.646,0.297,1.496c-3.074,0.872-2.387,2.739-2.881,5.179c-0.783-0.317-1.551-0.658-2.301-1.026
		c-1.189-2.338,0.804-6.655,0.084-10.914c-0.557-3.322-5.283-5.241-4.446-9.194c0.532-0.651,1.157-1.218,1.481-2.078
		c-2.159-3.17-6.396-4.275-9.492-6.517c0.086-1.665-0.522-2.646-1.484-3.266c0.051,0.847,0.545,1.238,0.599,2.075
		c-2.092-2.034-2.852-5.247-2.94-8.303C4.081,16.78,7.775,11.51,12.631,7.628z M18.729,32.294c0.105,1.289-1.088,0.812-1.793,0.6
		C17.208,32.371,17.868,32.227,18.729,32.294z M13.335,31.093c0.807-1.305,2.855,0.523,3.602,1.201
		C15.3,32.329,15.062,30.97,13.335,31.093z"/>
</g>
</svg>
