<?xml version="1.0" encoding="utf-8"?>
<!-- Generator: Adobe Illustrator 15.1.0, SVG Export Plug-In . SVG Version: 6.00 Build 0)  -->
<!DOCTYPE svg PUBLIC "-//W3C//DTD SVG 1.1//EN" "http://www.w3.org/Graphics/SVG/1.1/DTD/svg11.dtd">
<svg version="1.1" id="Calque_1" xmlns="http://www.w3.org/2000/svg" xmlns:xlink="http://www.w3.org/1999/xlink" x="0px" y="0px"
	 width="143.5px" height="103.742px" viewBox="0 0 143.5 103.742" enable-background="new 0 0 143.5 103.742" xml:space="preserve">
<g opacity="0.75">
	<g>
		<path fill="#E3E3E3" d="M123.244,61.815l-1.521-9.45c-20.85,3.356-35.049,22.943-31.744,43.794l9.451-1.522
			C96.968,79.015,107.605,64.332,123.244,61.815z"/>
		<path opacity="0.75" fill="#E3E3E3" enable-background="new    " d="M110.382,35.803l-1.521-9.446
			c-31.284,5.035-52.593,34.455-47.608,65.742l9.445-1.523C66.559,64.513,84.309,40.007,110.382,35.803z"/>
		<path opacity="0.5" fill="#E3E3E3" enable-background="new    " d="M97.521,9.85L95.951,0
			c-41.938,6.746-70.469,46.158-63.77,88.091l9.838-1.576C36.204,50.022,61.036,15.715,97.521,9.85z"/>
		<path fill="#E3E3E3" d="M141.02,103.742c1.369,0,2.48-1.111,2.48-2.482v-7.661c0-0.037-0.01-0.071-0.012-0.108h0.012V79.925
			c-1.168-1.137-2.507-2.133-4.021-2.932c-8.487-4.438-18.967-1.158-23.401,7.301c-3.429,6.525-2.275,14.22,2.289,19.447h13.188
			H141.02z"/>
	</g>
</g>
<g>
	<text transform="matrix(1 0 0 1 -0.3867 93.4897)" fill="#CCCCCB" font-family="'Candara-Bold'" font-size="45">SOS</text>
</g>
</svg>
