<?xml version="1.0" encoding="utf-8"?>
<!-- Generator: Adobe Illustrator 15.1.0, SVG Export Plug-In . SVG Version: 6.00 Build 0)  -->
<!DOCTYPE svg PUBLIC "-//W3C//DTD SVG 1.1//EN" "http://www.w3.org/Graphics/SVG/1.1/DTD/svg11.dtd" [
	<!ENTITY ns_extend "http://ns.adobe.com/Extensibility/1.0/">
	<!ENTITY ns_ai "http://ns.adobe.com/AdobeIllustrator/10.0/">
	<!ENTITY ns_graphs "http://ns.adobe.com/Graphs/1.0/">
	<!ENTITY ns_vars "http://ns.adobe.com/Variables/1.0/">
	<!ENTITY ns_imrep "http://ns.adobe.com/ImageReplacement/1.0/">
	<!ENTITY ns_sfw "http://ns.adobe.com/SaveForWeb/1.0/">
	<!ENTITY ns_custom "http://ns.adobe.com/GenericCustomNamespace/1.0/">
	<!ENTITY ns_adobe_xpath "http://ns.adobe.com/XPath/1.0/">
]>
<svg version="1.1" id="Calque_1" xmlns:x="&ns_extend;" xmlns:i="&ns_ai;" xmlns:graph="&ns_graphs;"
	 xmlns="http://www.w3.org/2000/svg" xmlns:xlink="http://www.w3.org/1999/xlink" x="0px" y="0px" width="872px" height="72px"
	 viewBox="0 0 872 72" enable-background="new 0 0 872 72" xml:space="preserve">
<metadata>
	<sfw  xmlns="&ns_sfw;">
		<slices></slices>
		<sliceSourceBounds  y="0.5" x="-0.325" width="872" height="72" bottomLeftOrigin="true"></sliceSourceBounds>
	</sfw>
</metadata>
<rect x="0.175" fill="#A198C0" fill-opacity="0.5" width="872" height="72"/>
<rect x="1.029" y="1.286" opacity="0.1" fill="#3D3D3C" enable-background="new    " width="7.52" height="7.714"/>
<rect x="8.548" y="9" opacity="0.1" fill="#3D3D3C" enable-background="new    " width="7.521" height="7.714"/>
<rect x="16.069" y="16.713" opacity="0.1" fill="#3D3D3C" enable-background="new    " width="7.521" height="7.716"/>
<rect x="8.548" y="24.429" opacity="0.1" fill="#3D3D3C" enable-background="new    " width="7.521" height="7.713"/>
<rect x="16.069" y="32.142" opacity="0.1" fill="#3D3D3C" enable-background="new    " width="7.521" height="7.715"/>
<rect x="8.548" y="39.857" opacity="0.1" fill="#3D3D3C" enable-background="new    " width="7.521" height="7.715"/>
<rect x="16.069" y="47.57" opacity="0.1" fill="#3D3D3C" enable-background="new    " width="7.521" height="7.715"/>
<rect x="1.029" y="16.713" opacity="0.1" fill="#3D3D3C" enable-background="new    " width="7.52" height="7.716"/>
<rect x="1.029" y="32.142" opacity="0.1" fill="#3D3D3C" enable-background="new    " width="7.52" height="7.715"/>
<rect x="1.029" y="47.57" opacity="0.1" fill="#3D3D3C" enable-background="new    " width="7.52" height="7.715"/>
<rect x="22.586" y="39.857" opacity="0.1" fill="#3D3D3C" enable-background="new    " width="7.521" height="7.715"/>
<rect x="31.11" y="47.57" opacity="0.1" fill="#3D3D3C" enable-background="new    " width="7.521" height="7.715"/>
<rect x="23.589" y="24.429" opacity="0.1" fill="#3D3D3C" enable-background="new    " width="7.521" height="7.713"/>
<rect x="31.11" y="32.142" opacity="0.1" fill="#3D3D3C" enable-background="new    " width="7.521" height="7.715"/>
<rect x="38.63" y="39.857" opacity="0.1" fill="#3D3D3C" enable-background="new    " width="7.521" height="7.715"/>
<rect x="8.548" y="55.285" opacity="0.1" fill="#3D3D3C" enable-background="new    " width="7.521" height="7.715"/>
<rect x="23.589" y="55.285" opacity="0.1" fill="#3D3D3C" enable-background="new    " width="7.521" height="7.715"/>
<rect x="38.63" y="55.285" opacity="0.1" fill="#3D3D3C" enable-background="new    " width="7.521" height="7.715"/>
<rect x="46.15" y="47.57" opacity="0.1" fill="#3D3D3C" enable-background="new    " width="7.521" height="7.715"/>
<rect x="53.67" y="55.285" opacity="0.1" fill="#3D3D3C" enable-background="new    " width="7.521" height="7.715"/>
<rect x="53.67" y="39.857" opacity="0.1" fill="#3D3D3C" enable-background="new    " width="7.521" height="7.715"/>
<rect x="46.15" y="32.142" opacity="0.1" fill="#3D3D3C" enable-background="new    " width="7.521" height="7.715"/>
<rect x="38.63" y="24.429" opacity="0.1" fill="#3D3D3C" enable-background="new    " width="7.521" height="7.713"/>
<rect x="31.11" y="16.713" opacity="0.1" fill="#3D3D3C" enable-background="new    " width="7.521" height="7.716"/>
<rect x="23.589" y="9" opacity="0.1" fill="#3D3D3C" enable-background="new    " width="7.521" height="7.714"/>
<rect x="16.069" y="1.286" opacity="0.1" fill="#3D3D3C" enable-background="new    " width="7.521" height="7.714"/>
<rect x="31.11" y="1.286" opacity="0.1" fill="#3D3D3C" enable-background="new    " width="7.521" height="7.714"/>
<rect x="38.63" y="9" opacity="0.1" fill="#3D3D3C" enable-background="new    " width="7.521" height="7.714"/>
<rect x="46.15" y="1.286" opacity="0.1" fill="#3D3D3C" enable-background="new    " width="7.521" height="7.714"/>
<rect x="53.67" y="9" opacity="0.1" fill="#3D3D3C" enable-background="new    " width="7.521" height="7.714"/>
<rect x="46.15" y="16.713" opacity="0.1" fill="#3D3D3C" enable-background="new    " width="7.521" height="7.716"/>
<rect x="53.67" y="24.429" opacity="0.1" fill="#3D3D3C" enable-background="new    " width="7.521" height="7.713"/>
<rect x="61.191" y="1.286" opacity="0.1" fill="#3D3D3C" enable-background="new    " width="7.521" height="7.714"/>
<rect x="68.711" y="9" opacity="0.1" fill="#3D3D3C" enable-background="new    " width="7.521" height="7.714"/>
<rect x="76.231" y="16.713" opacity="0.1" fill="#3D3D3C" enable-background="new    " width="7.521" height="7.716"/>
<rect x="68.711" y="24.429" opacity="0.1" fill="#3D3D3C" enable-background="new    " width="7.521" height="7.713"/>
<rect x="76.231" y="32.142" opacity="0.1" fill="#3D3D3C" enable-background="new    " width="7.521" height="7.715"/>
<rect x="68.711" y="39.857" opacity="0.1" fill="#3D3D3C" enable-background="new    " width="7.521" height="7.715"/>
<rect x="76.231" y="47.57" opacity="0.1" fill="#3D3D3C" enable-background="new    " width="7.521" height="7.715"/>
<rect x="61.191" y="16.713" opacity="0.1" fill="#3D3D3C" enable-background="new    " width="7.521" height="7.716"/>
<rect x="61.191" y="32.142" opacity="0.1" fill="#3D3D3C" enable-background="new    " width="7.521" height="7.715"/>
<rect x="61.191" y="47.57" opacity="0.1" fill="#3D3D3C" enable-background="new    " width="7.521" height="7.715"/>
<rect x="83.752" y="39.857" opacity="0.1" fill="#3D3D3C" enable-background="new    " width="7.52" height="7.715"/>
<rect x="91.272" y="47.57" opacity="0.1" fill="#3D3D3C" enable-background="new    " width="7.521" height="7.715"/>
<rect x="83.752" y="24.429" opacity="0.1" fill="#3D3D3C" enable-background="new    " width="7.521" height="7.713"/>
<rect x="91.272" y="32.142" opacity="0.1" fill="#3D3D3C" enable-background="new    " width="7.521" height="7.715"/>
<rect x="98.793" y="39.857" opacity="0.1" fill="#3D3D3C" enable-background="new    " width="7.521" height="7.715"/>
<rect x="68.711" y="55.285" opacity="0.1" fill="#3D3D3C" enable-background="new    " width="7.521" height="7.715"/>
<rect x="16.069" y="63" opacity="0.1" fill="#3D3D3C" enable-background="new    " width="7.521" height="7.715"/>
<rect x="1.029" y="63" opacity="0.1" fill="#3D3D3C" enable-background="new    " width="7.521" height="7.715"/>
<rect x="31.11" y="63" opacity="0.1" fill="#3D3D3C" enable-background="new    " width="7.521" height="7.715"/>
<rect x="46.15" y="63" opacity="0.1" fill="#3D3D3C" enable-background="new    " width="7.521" height="7.715"/>
<rect x="61.191" y="63" opacity="0.1" fill="#3D3D3C" enable-background="new    " width="7.521" height="7.715"/>
<rect x="83.752" y="55.285" opacity="0.1" fill="#3D3D3C" enable-background="new    " width="7.521" height="7.715"/>
<rect x="98.793" y="55.285" opacity="0.1" fill="#3D3D3C" enable-background="new    " width="7.521" height="7.715"/>
<rect x="106.313" y="47.57" opacity="0.1" fill="#3D3D3C" enable-background="new    " width="7.521" height="7.715"/>
<rect x="113.834" y="55.285" opacity="0.1" fill="#3D3D3C" enable-background="new    " width="7.521" height="7.715"/>
<rect x="113.834" y="39.857" opacity="0.1" fill="#3D3D3C" enable-background="new    " width="7.521" height="7.715"/>
<rect x="106.313" y="32.142" opacity="0.1" fill="#3D3D3C" enable-background="new    " width="7.521" height="7.715"/>
<rect x="98.793" y="24.429" opacity="0.1" fill="#3D3D3C" enable-background="new    " width="7.521" height="7.713"/>
<rect x="91.272" y="16.713" opacity="0.1" fill="#3D3D3C" enable-background="new    " width="7.521" height="7.716"/>
<rect x="83.752" y="9" opacity="0.1" fill="#3D3D3C" enable-background="new    " width="7.521" height="7.714"/>
<rect x="76.231" y="1.286" opacity="0.1" fill="#3D3D3C" enable-background="new    " width="7.521" height="7.714"/>
<rect x="91.272" y="1.286" opacity="0.1" fill="#3D3D3C" enable-background="new    " width="7.521" height="7.714"/>
<rect x="98.793" y="9" opacity="0.1" fill="#3D3D3C" enable-background="new    " width="7.521" height="7.714"/>
<rect x="106.313" y="1.286" opacity="0.1" fill="#3D3D3C" enable-background="new    " width="7.521" height="7.714"/>
<rect x="113.834" y="9" opacity="0.1" fill="#3D3D3C" enable-background="new    " width="7.521" height="7.714"/>
<rect x="106.313" y="16.713" opacity="0.1" fill="#3D3D3C" enable-background="new    " width="7.521" height="7.716"/>
<rect x="113.834" y="24.429" opacity="0.1" fill="#3D3D3C" enable-background="new    " width="7.521" height="7.713"/>
<rect x="121.353" y="1.286" opacity="0.1" fill="#3D3D3C" enable-background="new    " width="7.521" height="7.714"/>
<rect x="128.874" y="9" opacity="0.1" fill="#3D3D3C" enable-background="new    " width="7.521" height="7.714"/>
<rect x="136.394" y="16.713" opacity="0.1" fill="#3D3D3C" enable-background="new    " width="7.521" height="7.716"/>
<rect x="128.874" y="24.429" opacity="0.1" fill="#3D3D3C" enable-background="new    " width="7.521" height="7.713"/>
<rect x="136.394" y="32.142" opacity="0.1" fill="#3D3D3C" enable-background="new    " width="7.521" height="7.715"/>
<rect x="128.874" y="39.857" opacity="0.1" fill="#3D3D3C" enable-background="new    " width="7.521" height="7.715"/>
<rect x="136.394" y="47.57" opacity="0.1" fill="#3D3D3C" enable-background="new    " width="7.521" height="7.715"/>
<rect x="121.353" y="16.713" opacity="0.1" fill="#3D3D3C" enable-background="new    " width="7.521" height="7.716"/>
<rect x="121.353" y="32.142" opacity="0.1" fill="#3D3D3C" enable-background="new    " width="7.521" height="7.715"/>
<rect x="121.353" y="47.57" opacity="0.1" fill="#3D3D3C" enable-background="new    " width="7.521" height="7.715"/>
<rect x="143.915" y="39.857" opacity="0.1" fill="#3D3D3C" enable-background="new    " width="7.521" height="7.715"/>
<rect x="151.435" y="47.57" opacity="0.1" fill="#3D3D3C" enable-background="new    " width="7.521" height="7.715"/>
<rect x="143.915" y="24.429" opacity="0.1" fill="#3D3D3C" enable-background="new    " width="7.521" height="7.713"/>
<rect x="151.435" y="32.142" opacity="0.1" fill="#3D3D3C" enable-background="new    " width="7.521" height="7.715"/>
<rect x="158.956" y="39.857" opacity="0.1" fill="#3D3D3C" enable-background="new    " width="7.52" height="7.715"/>
<rect x="128.874" y="55.285" opacity="0.1" fill="#3D3D3C" enable-background="new    " width="7.521" height="7.715"/>
<rect x="143.915" y="55.285" opacity="0.1" fill="#3D3D3C" enable-background="new    " width="7.521" height="7.715"/>
<rect x="158.956" y="55.285" opacity="0.1" fill="#3D3D3C" enable-background="new    " width="7.52" height="7.715"/>
<rect x="166.475" y="47.57" opacity="0.1" fill="#3D3D3C" enable-background="new    " width="7.521" height="7.715"/>
<rect x="173.996" y="55.285" opacity="0.1" fill="#3D3D3C" enable-background="new    " width="7.521" height="7.715"/>
<rect x="173.996" y="39.857" opacity="0.1" fill="#3D3D3C" enable-background="new    " width="7.521" height="7.715"/>
<rect x="166.475" y="32.142" opacity="0.1" fill="#3D3D3C" enable-background="new    " width="7.521" height="7.715"/>
<rect x="158.956" y="24.429" opacity="0.1" fill="#3D3D3C" enable-background="new    " width="7.52" height="7.713"/>
<rect x="151.435" y="16.713" opacity="0.1" fill="#3D3D3C" enable-background="new    " width="7.521" height="7.716"/>
<rect x="143.915" y="9" opacity="0.1" fill="#3D3D3C" enable-background="new    " width="7.521" height="7.714"/>
<rect x="136.394" y="1.286" opacity="0.1" fill="#3D3D3C" enable-background="new    " width="7.521" height="7.714"/>
<rect x="151.435" y="1.286" opacity="0.1" fill="#3D3D3C" enable-background="new    " width="7.521" height="7.714"/>
<rect x="158.956" y="9" opacity="0.1" fill="#3D3D3C" enable-background="new    " width="7.52" height="7.714"/>
<rect x="166.475" y="1.286" opacity="0.1" fill="#3D3D3C" enable-background="new    " width="7.521" height="7.714"/>
<rect x="173.996" y="9" opacity="0.1" fill="#3D3D3C" enable-background="new    " width="7.521" height="7.714"/>
<rect x="166.475" y="16.713" opacity="0.1" fill="#3D3D3C" enable-background="new    " width="7.521" height="7.716"/>
<rect x="173.996" y="24.429" opacity="0.1" fill="#3D3D3C" enable-background="new    " width="7.521" height="7.713"/>
<rect x="181.516" y="1.286" opacity="0.1" fill="#3D3D3C" enable-background="new    " width="7.521" height="7.714"/>
<rect x="189.037" y="9" opacity="0.1" fill="#3D3D3C" enable-background="new    " width="7.521" height="7.714"/>
<rect x="196.557" y="16.713" opacity="0.1" fill="#3D3D3C" enable-background="new    " width="7.521" height="7.716"/>
<rect x="189.037" y="24.429" opacity="0.1" fill="#3D3D3C" enable-background="new    " width="7.521" height="7.713"/>
<rect x="196.557" y="32.142" opacity="0.1" fill="#3D3D3C" enable-background="new    " width="7.521" height="7.715"/>
<rect x="189.037" y="39.857" opacity="0.1" fill="#3D3D3C" enable-background="new    " width="7.521" height="7.715"/>
<rect x="196.557" y="47.57" opacity="0.1" fill="#3D3D3C" enable-background="new    " width="7.521" height="7.715"/>
<rect x="181.516" y="16.713" opacity="0.1" fill="#3D3D3C" enable-background="new    " width="7.521" height="7.716"/>
<rect x="181.516" y="32.142" opacity="0.1" fill="#3D3D3C" enable-background="new    " width="7.521" height="7.715"/>
<rect x="181.516" y="47.57" opacity="0.1" fill="#3D3D3C" enable-background="new    " width="7.521" height="7.715"/>
<rect x="204.078" y="39.857" opacity="0.1" fill="#3D3D3C" enable-background="new    " width="7.52" height="7.715"/>
<rect x="211.597" y="47.57" opacity="0.1" fill="#3D3D3C" enable-background="new    " width="7.521" height="7.715"/>
<rect x="204.077" y="24.429" opacity="0.1" fill="#3D3D3C" enable-background="new    " width="7.521" height="7.713"/>
<rect x="211.597" y="32.142" opacity="0.1" fill="#3D3D3C" enable-background="new    " width="7.521" height="7.715"/>
<rect x="219.118" y="39.857" opacity="0.1" fill="#3D3D3C" enable-background="new    " width="7.521" height="7.715"/>
<rect x="189.037" y="55.285" opacity="0.1" fill="#3D3D3C" enable-background="new    " width="7.521" height="7.715"/>
<rect x="204.077" y="55.285" opacity="0.1" fill="#3D3D3C" enable-background="new    " width="7.521" height="7.715"/>
<rect x="219.118" y="55.285" opacity="0.1" fill="#3D3D3C" enable-background="new    " width="7.521" height="7.715"/>
<rect x="226.638" y="47.57" opacity="0.1" fill="#3D3D3C" enable-background="new    " width="7.521" height="7.715"/>
<rect x="234.159" y="55.285" opacity="0.1" fill="#3D3D3C" enable-background="new    " width="7.521" height="7.715"/>
<rect x="234.159" y="39.857" opacity="0.1" fill="#3D3D3C" enable-background="new    " width="7.521" height="7.715"/>
<rect x="226.638" y="32.142" opacity="0.1" fill="#3D3D3C" enable-background="new    " width="7.521" height="7.715"/>
<rect x="219.118" y="24.429" opacity="0.1" fill="#3D3D3C" enable-background="new    " width="7.521" height="7.713"/>
<rect x="211.597" y="16.713" opacity="0.1" fill="#3D3D3C" enable-background="new    " width="7.521" height="7.716"/>
<rect x="204.077" y="9" opacity="0.1" fill="#3D3D3C" enable-background="new    " width="7.521" height="7.714"/>
<rect x="196.557" y="1.286" opacity="0.1" fill="#3D3D3C" enable-background="new    " width="7.521" height="7.714"/>
<rect x="211.597" y="1.286" opacity="0.1" fill="#3D3D3C" enable-background="new    " width="7.521" height="7.714"/>
<rect x="219.118" y="9" opacity="0.1" fill="#3D3D3C" enable-background="new    " width="7.521" height="7.714"/>
<rect x="226.638" y="1.286" opacity="0.1" fill="#3D3D3C" enable-background="new    " width="7.521" height="7.714"/>
<rect x="234.159" y="9" opacity="0.1" fill="#3D3D3C" enable-background="new    " width="7.521" height="7.714"/>
<rect x="226.638" y="16.713" opacity="0.1" fill="#3D3D3C" enable-background="new    " width="7.521" height="7.716"/>
<rect x="234.159" y="24.429" opacity="0.1" fill="#3D3D3C" enable-background="new    " width="7.521" height="7.713"/>
<rect x="241.679" y="1.286" opacity="0.1" fill="#3D3D3C" enable-background="new    " width="7.521" height="7.714"/>
<rect x="249.199" y="9" opacity="0.1" fill="#3D3D3C" enable-background="new    " width="7.521" height="7.714"/>
<rect x="256.719" y="16.713" opacity="0.1" fill="#3D3D3C" enable-background="new    " width="7.521" height="7.716"/>
<rect x="249.199" y="24.429" opacity="0.1" fill="#3D3D3C" enable-background="new    " width="7.521" height="7.713"/>
<rect x="256.719" y="32.142" opacity="0.1" fill="#3D3D3C" enable-background="new    " width="7.521" height="7.715"/>
<rect x="249.199" y="39.857" opacity="0.1" fill="#3D3D3C" enable-background="new    " width="7.521" height="7.715"/>
<rect x="256.719" y="47.57" opacity="0.1" fill="#3D3D3C" enable-background="new    " width="7.521" height="7.715"/>
<rect x="241.679" y="16.713" opacity="0.1" fill="#3D3D3C" enable-background="new    " width="7.521" height="7.716"/>
<rect x="241.679" y="32.142" opacity="0.1" fill="#3D3D3C" enable-background="new    " width="7.521" height="7.715"/>
<rect x="241.679" y="47.57" opacity="0.1" fill="#3D3D3C" enable-background="new    " width="7.521" height="7.715"/>
<rect x="264.24" y="39.857" opacity="0.1" fill="#3D3D3C" enable-background="new    " width="7.521" height="7.715"/>
<rect x="271.76" y="47.57" opacity="0.1" fill="#3D3D3C" enable-background="new    " width="7.521" height="7.715"/>
<rect x="264.24" y="24.429" opacity="0.1" fill="#3D3D3C" enable-background="new    " width="7.521" height="7.713"/>
<rect x="271.76" y="32.142" opacity="0.1" fill="#3D3D3C" enable-background="new    " width="7.521" height="7.715"/>
<rect x="279.281" y="39.857" opacity="0.1" fill="#3D3D3C" enable-background="new    " width="7.52" height="7.715"/>
<rect x="249.199" y="55.285" opacity="0.1" fill="#3D3D3C" enable-background="new    " width="7.521" height="7.715"/>
<rect x="264.24" y="55.285" opacity="0.1" fill="#3D3D3C" enable-background="new    " width="7.521" height="7.715"/>
<rect x="279.281" y="55.285" opacity="0.1" fill="#3D3D3C" enable-background="new    " width="7.52" height="7.715"/>
<rect x="286.8" y="47.57" opacity="0.1" fill="#3D3D3C" enable-background="new    " width="7.521" height="7.715"/>
<rect x="294.321" y="55.285" opacity="0.1" fill="#3D3D3C" enable-background="new    " width="7.521" height="7.715"/>
<rect x="294.321" y="39.857" opacity="0.1" fill="#3D3D3C" enable-background="new    " width="7.521" height="7.715"/>
<rect x="286.8" y="32.142" opacity="0.1" fill="#3D3D3C" enable-background="new    " width="7.521" height="7.715"/>
<rect x="279.281" y="24.429" opacity="0.1" fill="#3D3D3C" enable-background="new    " width="7.52" height="7.713"/>
<rect x="271.76" y="16.713" opacity="0.1" fill="#3D3D3C" enable-background="new    " width="7.521" height="7.716"/>
<rect x="264.24" y="9" opacity="0.1" fill="#3D3D3C" enable-background="new    " width="7.521" height="7.714"/>
<rect x="256.719" y="1.286" opacity="0.1" fill="#3D3D3C" enable-background="new    " width="7.521" height="7.714"/>
<rect x="271.76" y="1.286" opacity="0.1" fill="#3D3D3C" enable-background="new    " width="7.521" height="7.714"/>
<rect x="279.281" y="9" opacity="0.1" fill="#3D3D3C" enable-background="new    " width="7.52" height="7.714"/>
<rect x="286.8" y="1.286" opacity="0.1" fill="#3D3D3C" enable-background="new    " width="7.521" height="7.714"/>
<rect x="294.321" y="9" opacity="0.1" fill="#3D3D3C" enable-background="new    " width="7.521" height="7.714"/>
<rect x="286.8" y="16.713" opacity="0.1" fill="#3D3D3C" enable-background="new    " width="7.521" height="7.716"/>
<rect x="294.321" y="24.429" opacity="0.1" fill="#3D3D3C" enable-background="new    " width="7.521" height="7.713"/>
<rect x="301.841" y="1.286" opacity="0.1" fill="#3D3D3C" enable-background="new    " width="7.521" height="7.714"/>
<rect x="309.362" y="9" opacity="0.1" fill="#3D3D3C" enable-background="new    " width="7.521" height="7.714"/>
<rect x="316.882" y="16.713" opacity="0.1" fill="#3D3D3C" enable-background="new    " width="7.521" height="7.716"/>
<rect x="309.362" y="24.429" opacity="0.1" fill="#3D3D3C" enable-background="new    " width="7.521" height="7.713"/>
<rect x="316.882" y="32.142" opacity="0.1" fill="#3D3D3C" enable-background="new    " width="7.521" height="7.715"/>
<rect x="309.362" y="39.857" opacity="0.1" fill="#3D3D3C" enable-background="new    " width="7.521" height="7.715"/>
<rect x="316.882" y="47.57" opacity="0.1" fill="#3D3D3C" enable-background="new    " width="7.521" height="7.715"/>
<rect x="301.841" y="16.713" opacity="0.1" fill="#3D3D3C" enable-background="new    " width="7.521" height="7.716"/>
<rect x="301.841" y="32.142" opacity="0.1" fill="#3D3D3C" enable-background="new    " width="7.521" height="7.715"/>
<rect x="301.841" y="47.57" opacity="0.1" fill="#3D3D3C" enable-background="new    " width="7.521" height="7.715"/>
<rect x="324.403" y="39.857" opacity="0.1" fill="#3D3D3C" enable-background="new    " width="7.52" height="7.715"/>
<rect x="331.922" y="47.57" opacity="0.1" fill="#3D3D3C" enable-background="new    " width="7.521" height="7.715"/>
<rect x="324.402" y="24.429" opacity="0.1" fill="#3D3D3C" enable-background="new    " width="7.521" height="7.713"/>
<rect x="331.922" y="32.142" opacity="0.1" fill="#3D3D3C" enable-background="new    " width="7.521" height="7.715"/>
<rect x="339.443" y="39.857" opacity="0.1" fill="#3D3D3C" enable-background="new    " width="7.521" height="7.715"/>
<rect x="309.362" y="55.285" opacity="0.1" fill="#3D3D3C" enable-background="new    " width="7.521" height="7.715"/>
<rect x="324.402" y="55.285" opacity="0.1" fill="#3D3D3C" enable-background="new    " width="7.521" height="7.715"/>
<rect x="339.443" y="55.285" opacity="0.1" fill="#3D3D3C" enable-background="new    " width="7.521" height="7.715"/>
<rect x="346.963" y="47.57" opacity="0.1" fill="#3D3D3C" enable-background="new    " width="7.521" height="7.715"/>
<rect x="354.484" y="55.285" opacity="0.1" fill="#3D3D3C" enable-background="new    " width="7.52" height="7.715"/>
<rect x="354.484" y="39.857" opacity="0.1" fill="#3D3D3C" enable-background="new    " width="7.52" height="7.715"/>
<rect x="346.963" y="32.142" opacity="0.1" fill="#3D3D3C" enable-background="new    " width="7.521" height="7.715"/>
<rect x="339.443" y="24.429" opacity="0.1" fill="#3D3D3C" enable-background="new    " width="7.521" height="7.713"/>
<rect x="331.922" y="16.713" opacity="0.1" fill="#3D3D3C" enable-background="new    " width="7.521" height="7.716"/>
<rect x="324.402" y="9" opacity="0.1" fill="#3D3D3C" enable-background="new    " width="7.521" height="7.714"/>
<rect x="316.882" y="1.286" opacity="0.1" fill="#3D3D3C" enable-background="new    " width="7.521" height="7.714"/>
<rect x="331.922" y="1.286" opacity="0.1" fill="#3D3D3C" enable-background="new    " width="7.521" height="7.714"/>
<rect x="339.443" y="9" opacity="0.1" fill="#3D3D3C" enable-background="new    " width="7.521" height="7.714"/>
<rect x="346.963" y="1.286" opacity="0.1" fill="#3D3D3C" enable-background="new    " width="7.521" height="7.714"/>
<rect x="354.484" y="9" opacity="0.1" fill="#3D3D3C" enable-background="new    " width="7.52" height="7.714"/>
<rect x="346.963" y="16.713" opacity="0.1" fill="#3D3D3C" enable-background="new    " width="7.521" height="7.716"/>
<rect x="354.484" y="24.429" opacity="0.1" fill="#3D3D3C" enable-background="new    " width="7.52" height="7.713"/>
<rect x="362.003" y="16.713" opacity="0.1" fill="#3D3D3C" enable-background="new    " width="7.521" height="7.716"/>
<rect x="362.003" y="32.142" opacity="0.1" fill="#3D3D3C" enable-background="new    " width="7.521" height="7.715"/>
<rect x="362.003" y="47.57" opacity="0.1" fill="#3D3D3C" enable-background="new    " width="7.521" height="7.715"/>
<rect x="369.524" y="39.857" opacity="0.1" fill="#3D3D3C" enable-background="new    " width="7.521" height="7.715"/>
<rect x="377.044" y="47.57" opacity="0.1" fill="#3D3D3C" enable-background="new    " width="7.521" height="7.715"/>
<rect x="369.524" y="24.429" opacity="0.1" fill="#3D3D3C" enable-background="new    " width="7.521" height="7.713"/>
<rect x="377.044" y="32.142" opacity="0.1" fill="#3D3D3C" enable-background="new    " width="7.521" height="7.715"/>
<rect x="384.565" y="39.857" opacity="0.1" fill="#3D3D3C" enable-background="new    " width="7.521" height="7.715"/>
<rect x="369.524" y="55.285" opacity="0.1" fill="#3D3D3C" enable-background="new    " width="7.521" height="7.715"/>
<rect x="384.565" y="55.285" opacity="0.1" fill="#3D3D3C" enable-background="new    " width="7.521" height="7.715"/>
<rect x="392.085" y="47.57" opacity="0.1" fill="#3D3D3C" enable-background="new    " width="7.52" height="7.715"/>
<rect x="392.085" y="32.142" opacity="0.1" fill="#3D3D3C" enable-background="new    " width="7.52" height="7.715"/>
<rect x="384.565" y="24.429" opacity="0.1" fill="#3D3D3C" enable-background="new    " width="7.521" height="7.713"/>
<rect x="377.044" y="16.713" opacity="0.1" fill="#3D3D3C" enable-background="new    " width="7.521" height="7.716"/>
<rect x="369.524" y="9" opacity="0.1" fill="#3D3D3C" enable-background="new    " width="7.521" height="7.714"/>
<rect x="362.003" y="1.286" opacity="0.1" fill="#3D3D3C" enable-background="new    " width="7.521" height="7.714"/>
<rect x="377.044" y="1.286" opacity="0.1" fill="#3D3D3C" enable-background="new    " width="7.521" height="7.714"/>
<rect x="384.565" y="9" opacity="0.1" fill="#3D3D3C" enable-background="new    " width="7.521" height="7.714"/>
<rect x="392.085" y="1.286" opacity="0.1" fill="#3D3D3C" enable-background="new    " width="7.52" height="7.714"/>
<rect x="392.085" y="16.713" opacity="0.1" fill="#3D3D3C" enable-background="new    " width="7.52" height="7.716"/>
<rect x="76.231" y="63" opacity="0.1" fill="#3D3D3C" enable-background="new    " width="7.521" height="7.713"/>
<rect x="91.272" y="63" opacity="0.1" fill="#3D3D3C" enable-background="new    " width="7.521" height="7.713"/>
<rect x="106.313" y="63" opacity="0.1" fill="#3D3D3C" enable-background="new    " width="7.521" height="7.713"/>
<rect x="136.394" y="63" opacity="0.1" fill="#3D3D3C" enable-background="new    " width="7.521" height="7.713"/>
<rect x="121.353" y="63" opacity="0.1" fill="#3D3D3C" enable-background="new    " width="7.521" height="7.713"/>
<rect x="151.435" y="63" opacity="0.1" fill="#3D3D3C" enable-background="new    " width="7.521" height="7.713"/>
<rect x="166.475" y="63" opacity="0.1" fill="#3D3D3C" enable-background="new    " width="7.521" height="7.713"/>
<rect x="196.557" y="63" opacity="0.1" fill="#3D3D3C" enable-background="new    " width="7.521" height="7.713"/>
<rect x="181.516" y="63" opacity="0.1" fill="#3D3D3C" enable-background="new    " width="7.521" height="7.713"/>
<rect x="211.597" y="63" opacity="0.1" fill="#3D3D3C" enable-background="new    " width="7.521" height="7.713"/>
<rect x="226.638" y="63" opacity="0.1" fill="#3D3D3C" enable-background="new    " width="7.521" height="7.713"/>
<rect x="256.719" y="63" opacity="0.1" fill="#3D3D3C" enable-background="new    " width="7.521" height="7.713"/>
<rect x="241.679" y="63" opacity="0.1" fill="#3D3D3C" enable-background="new    " width="7.521" height="7.713"/>
<rect x="271.76" y="63" opacity="0.1" fill="#3D3D3C" enable-background="new    " width="7.521" height="7.713"/>
<rect x="286.8" y="63" opacity="0.1" fill="#3D3D3C" enable-background="new    " width="7.521" height="7.713"/>
<rect x="316.882" y="63" opacity="0.1" fill="#3D3D3C" enable-background="new    " width="7.521" height="7.713"/>
<rect x="301.841" y="63" opacity="0.1" fill="#3D3D3C" enable-background="new    " width="7.521" height="7.713"/>
<rect x="331.922" y="63" opacity="0.1" fill="#3D3D3C" enable-background="new    " width="7.521" height="7.713"/>
<rect x="346.963" y="63" opacity="0.1" fill="#3D3D3C" enable-background="new    " width="7.521" height="7.713"/>
<rect x="362.003" y="63" opacity="0.1" fill="#3D3D3C" enable-background="new    " width="7.521" height="7.713"/>
<rect x="377.044" y="63" opacity="0.1" fill="#3D3D3C" enable-background="new    " width="7.521" height="7.713"/>
<rect x="392.085" y="63" opacity="0.1" fill="#3D3D3C" enable-background="new    " width="7.52" height="7.713"/>
<rect x="399.604" y="9" opacity="0.1" fill="#3D3D3C" enable-background="new    " width="7.521" height="7.714"/>
<rect x="407.124" y="16.713" opacity="0.1" fill="#3D3D3C" enable-background="new    " width="7.521" height="7.716"/>
<rect x="399.604" y="24.429" opacity="0.1" fill="#3D3D3C" enable-background="new    " width="7.521" height="7.713"/>
<rect x="407.124" y="32.142" opacity="0.1" fill="#3D3D3C" enable-background="new    " width="7.521" height="7.715"/>
<rect x="399.604" y="39.857" opacity="0.1" fill="#3D3D3C" enable-background="new    " width="7.521" height="7.715"/>
<rect x="407.124" y="47.57" opacity="0.1" fill="#3D3D3C" enable-background="new    " width="7.521" height="7.715"/>
<rect x="414.646" y="39.857" opacity="0.1" fill="#3D3D3C" enable-background="new    " width="7.521" height="7.715"/>
<rect x="422.165" y="47.57" opacity="0.1" fill="#3D3D3C" enable-background="new    " width="7.521" height="7.715"/>
<rect x="414.646" y="24.429" opacity="0.1" fill="#3D3D3C" enable-background="new    " width="7.521" height="7.713"/>
<rect x="422.165" y="32.142" opacity="0.1" fill="#3D3D3C" enable-background="new    " width="7.521" height="7.715"/>
<rect x="429.688" y="39.857" opacity="0.1" fill="#3D3D3C" enable-background="new    " width="7.52" height="7.715"/>
<rect x="399.604" y="55.285" opacity="0.1" fill="#3D3D3C" enable-background="new    " width="7.521" height="7.715"/>
<rect x="414.646" y="55.285" opacity="0.1" fill="#3D3D3C" enable-background="new    " width="7.521" height="7.715"/>
<rect x="429.688" y="55.285" opacity="0.1" fill="#3D3D3C" enable-background="new    " width="7.52" height="7.715"/>
<rect x="437.205" y="47.57" opacity="0.1" fill="#3D3D3C" enable-background="new    " width="7.521" height="7.715"/>
<rect x="444.727" y="55.285" opacity="0.1" fill="#3D3D3C" enable-background="new    " width="7.521" height="7.715"/>
<rect x="444.727" y="39.857" opacity="0.1" fill="#3D3D3C" enable-background="new    " width="7.521" height="7.715"/>
<rect x="437.205" y="32.142" opacity="0.1" fill="#3D3D3C" enable-background="new    " width="7.521" height="7.715"/>
<rect x="429.688" y="24.429" opacity="0.1" fill="#3D3D3C" enable-background="new    " width="7.52" height="7.713"/>
<rect x="422.165" y="16.713" opacity="0.1" fill="#3D3D3C" enable-background="new    " width="7.521" height="7.716"/>
<rect x="414.646" y="9" opacity="0.1" fill="#3D3D3C" enable-background="new    " width="7.521" height="7.714"/>
<rect x="407.124" y="1.286" opacity="0.1" fill="#3D3D3C" enable-background="new    " width="7.521" height="7.714"/>
<rect x="422.165" y="1.286" opacity="0.1" fill="#3D3D3C" enable-background="new    " width="7.521" height="7.714"/>
<rect x="429.688" y="9" opacity="0.1" fill="#3D3D3C" enable-background="new    " width="7.52" height="7.714"/>
<rect x="437.205" y="1.286" opacity="0.1" fill="#3D3D3C" enable-background="new    " width="7.521" height="7.714"/>
<rect x="444.727" y="9" opacity="0.1" fill="#3D3D3C" enable-background="new    " width="7.521" height="7.714"/>
<rect x="437.205" y="16.713" opacity="0.1" fill="#3D3D3C" enable-background="new    " width="7.521" height="7.716"/>
<rect x="444.727" y="24.429" opacity="0.1" fill="#3D3D3C" enable-background="new    " width="7.521" height="7.713"/>
<rect x="452.246" y="1.286" opacity="0.1" fill="#3D3D3C" enable-background="new    " width="7.521" height="7.714"/>
<rect x="459.768" y="9" opacity="0.1" fill="#3D3D3C" enable-background="new    " width="7.521" height="7.714"/>
<rect x="467.287" y="16.713" opacity="0.1" fill="#3D3D3C" enable-background="new    " width="7.521" height="7.716"/>
<rect x="459.768" y="24.429" opacity="0.1" fill="#3D3D3C" enable-background="new    " width="7.521" height="7.713"/>
<rect x="467.287" y="32.142" opacity="0.1" fill="#3D3D3C" enable-background="new    " width="7.521" height="7.715"/>
<rect x="459.768" y="39.857" opacity="0.1" fill="#3D3D3C" enable-background="new    " width="7.521" height="7.715"/>
<rect x="467.287" y="47.57" opacity="0.1" fill="#3D3D3C" enable-background="new    " width="7.521" height="7.715"/>
<rect x="452.246" y="16.713" opacity="0.1" fill="#3D3D3C" enable-background="new    " width="7.521" height="7.716"/>
<rect x="452.246" y="32.142" opacity="0.1" fill="#3D3D3C" enable-background="new    " width="7.521" height="7.715"/>
<rect x="452.246" y="47.57" opacity="0.1" fill="#3D3D3C" enable-background="new    " width="7.521" height="7.715"/>
<rect x="474.809" y="39.857" opacity="0.1" fill="#3D3D3C" enable-background="new    " width="7.521" height="7.715"/>
<rect x="482.327" y="47.57" opacity="0.1" fill="#3D3D3C" enable-background="new    " width="7.521" height="7.715"/>
<rect x="474.808" y="24.429" opacity="0.1" fill="#3D3D3C" enable-background="new    " width="7.521" height="7.713"/>
<rect x="482.327" y="32.142" opacity="0.1" fill="#3D3D3C" enable-background="new    " width="7.521" height="7.715"/>
<rect x="489.849" y="39.857" opacity="0.1" fill="#3D3D3C" enable-background="new    " width="7.521" height="7.715"/>
<rect x="459.768" y="55.285" opacity="0.1" fill="#3D3D3C" enable-background="new    " width="7.521" height="7.715"/>
<rect x="474.808" y="55.285" opacity="0.1" fill="#3D3D3C" enable-background="new    " width="7.521" height="7.715"/>
<rect x="489.849" y="55.285" opacity="0.1" fill="#3D3D3C" enable-background="new    " width="7.521" height="7.715"/>
<rect x="497.368" y="47.57" opacity="0.1" fill="#3D3D3C" enable-background="new    " width="7.521" height="7.715"/>
<rect x="504.89" y="55.285" opacity="0.1" fill="#3D3D3C" enable-background="new    " width="7.521" height="7.715"/>
<rect x="504.89" y="39.857" opacity="0.1" fill="#3D3D3C" enable-background="new    " width="7.521" height="7.715"/>
<rect x="497.368" y="32.142" opacity="0.1" fill="#3D3D3C" enable-background="new    " width="7.521" height="7.715"/>
<rect x="489.849" y="24.429" opacity="0.1" fill="#3D3D3C" enable-background="new    " width="7.521" height="7.713"/>
<rect x="482.327" y="16.713" opacity="0.1" fill="#3D3D3C" enable-background="new    " width="7.521" height="7.716"/>
<rect x="474.808" y="9" opacity="0.1" fill="#3D3D3C" enable-background="new    " width="7.521" height="7.714"/>
<rect x="467.287" y="1.286" opacity="0.1" fill="#3D3D3C" enable-background="new    " width="7.521" height="7.714"/>
<rect x="482.327" y="1.286" opacity="0.1" fill="#3D3D3C" enable-background="new    " width="7.521" height="7.714"/>
<rect x="489.849" y="9" opacity="0.1" fill="#3D3D3C" enable-background="new    " width="7.521" height="7.714"/>
<rect x="497.368" y="1.286" opacity="0.1" fill="#3D3D3C" enable-background="new    " width="7.521" height="7.714"/>
<rect x="504.89" y="9" opacity="0.1" fill="#3D3D3C" enable-background="new    " width="7.521" height="7.714"/>
<rect x="497.368" y="16.713" opacity="0.1" fill="#3D3D3C" enable-background="new    " width="7.521" height="7.716"/>
<rect x="504.89" y="24.429" opacity="0.1" fill="#3D3D3C" enable-background="new    " width="7.521" height="7.713"/>
<rect x="512.408" y="16.713" opacity="0.1" fill="#3D3D3C" enable-background="new    " width="7.521" height="7.716"/>
<rect x="512.408" y="32.142" opacity="0.1" fill="#3D3D3C" enable-background="new    " width="7.521" height="7.715"/>
<rect x="512.408" y="47.57" opacity="0.1" fill="#3D3D3C" enable-background="new    " width="7.521" height="7.715"/>
<rect x="519.93" y="39.857" opacity="0.1" fill="#3D3D3C" enable-background="new    " width="7.521" height="7.715"/>
<rect x="527.449" y="47.57" opacity="0.1" fill="#3D3D3C" enable-background="new    " width="7.521" height="7.715"/>
<rect x="519.93" y="24.429" opacity="0.1" fill="#3D3D3C" enable-background="new    " width="7.521" height="7.713"/>
<rect x="527.449" y="32.142" opacity="0.1" fill="#3D3D3C" enable-background="new    " width="7.521" height="7.715"/>
<rect x="534.971" y="39.857" opacity="0.1" fill="#3D3D3C" enable-background="new    " width="7.521" height="7.715"/>
<rect x="519.93" y="55.285" opacity="0.1" fill="#3D3D3C" enable-background="new    " width="7.521" height="7.715"/>
<rect x="534.971" y="55.285" opacity="0.1" fill="#3D3D3C" enable-background="new    " width="7.521" height="7.715"/>
<rect x="542.49" y="47.57" opacity="0.1" fill="#3D3D3C" enable-background="new    " width="7.52" height="7.715"/>
<rect x="542.49" y="32.142" opacity="0.1" fill="#3D3D3C" enable-background="new    " width="7.52" height="7.715"/>
<rect x="534.971" y="24.429" opacity="0.1" fill="#3D3D3C" enable-background="new    " width="7.521" height="7.713"/>
<rect x="527.449" y="16.713" opacity="0.1" fill="#3D3D3C" enable-background="new    " width="7.521" height="7.716"/>
<rect x="519.93" y="9" opacity="0.1" fill="#3D3D3C" enable-background="new    " width="7.521" height="7.714"/>
<rect x="512.408" y="1.286" opacity="0.1" fill="#3D3D3C" enable-background="new    " width="7.521" height="7.714"/>
<rect x="527.449" y="1.286" opacity="0.1" fill="#3D3D3C" enable-background="new    " width="7.521" height="7.714"/>
<rect x="534.971" y="9" opacity="0.1" fill="#3D3D3C" enable-background="new    " width="7.521" height="7.714"/>
<rect x="542.49" y="1.286" opacity="0.1" fill="#3D3D3C" enable-background="new    " width="7.52" height="7.714"/>
<rect x="542.49" y="16.713" opacity="0.1" fill="#3D3D3C" enable-background="new    " width="7.52" height="7.716"/>
<rect x="407.124" y="63" opacity="0.1" fill="#3D3D3C" enable-background="new    " width="7.521" height="7.713"/>
<rect x="422.165" y="63" opacity="0.1" fill="#3D3D3C" enable-background="new    " width="7.521" height="7.713"/>
<rect x="437.205" y="63" opacity="0.1" fill="#3D3D3C" enable-background="new    " width="7.521" height="7.713"/>
<rect x="467.287" y="63" opacity="0.1" fill="#3D3D3C" enable-background="new    " width="7.521" height="7.713"/>
<rect x="452.246" y="63" opacity="0.1" fill="#3D3D3C" enable-background="new    " width="7.521" height="7.713"/>
<rect x="482.327" y="63" opacity="0.1" fill="#3D3D3C" enable-background="new    " width="7.521" height="7.713"/>
<rect x="497.368" y="63" opacity="0.1" fill="#3D3D3C" enable-background="new    " width="7.521" height="7.713"/>
<rect x="512.408" y="63" opacity="0.1" fill="#3D3D3C" enable-background="new    " width="7.521" height="7.713"/>
<rect x="527.449" y="63" opacity="0.1" fill="#3D3D3C" enable-background="new    " width="7.521" height="7.713"/>
<rect x="542.49" y="63" opacity="0.1" fill="#3D3D3C" enable-background="new    " width="7.52" height="7.713"/>
<rect x="550.01" y="9" opacity="0.1" fill="#3D3D3C" enable-background="new    " width="7.521" height="7.714"/>
<rect x="557.529" y="16.713" opacity="0.1" fill="#3D3D3C" enable-background="new    " width="7.521" height="7.716"/>
<rect x="550.01" y="24.429" opacity="0.1" fill="#3D3D3C" enable-background="new    " width="7.521" height="7.713"/>
<rect x="557.529" y="32.142" opacity="0.1" fill="#3D3D3C" enable-background="new    " width="7.521" height="7.715"/>
<rect x="550.01" y="39.857" opacity="0.1" fill="#3D3D3C" enable-background="new    " width="7.521" height="7.715"/>
<rect x="557.529" y="47.57" opacity="0.1" fill="#3D3D3C" enable-background="new    " width="7.521" height="7.715"/>
<rect x="565.051" y="39.857" opacity="0.1" fill="#3D3D3C" enable-background="new    " width="7.521" height="7.715"/>
<rect x="572.569" y="47.57" opacity="0.1" fill="#3D3D3C" enable-background="new    " width="7.521" height="7.715"/>
<rect x="565.05" y="24.429" opacity="0.1" fill="#3D3D3C" enable-background="new    " width="7.521" height="7.713"/>
<rect x="572.569" y="32.142" opacity="0.1" fill="#3D3D3C" enable-background="new    " width="7.521" height="7.715"/>
<rect x="580.091" y="39.857" opacity="0.1" fill="#3D3D3C" enable-background="new    " width="7.521" height="7.715"/>
<rect x="550.01" y="55.285" opacity="0.1" fill="#3D3D3C" enable-background="new    " width="7.521" height="7.715"/>
<rect x="565.05" y="55.285" opacity="0.1" fill="#3D3D3C" enable-background="new    " width="7.521" height="7.715"/>
<rect x="580.091" y="55.285" opacity="0.1" fill="#3D3D3C" enable-background="new    " width="7.521" height="7.715"/>
<rect x="587.61" y="47.57" opacity="0.1" fill="#3D3D3C" enable-background="new    " width="7.521" height="7.715"/>
<rect x="595.132" y="55.285" opacity="0.1" fill="#3D3D3C" enable-background="new    " width="7.521" height="7.715"/>
<rect x="595.132" y="39.857" opacity="0.1" fill="#3D3D3C" enable-background="new    " width="7.521" height="7.715"/>
<rect x="587.61" y="32.142" opacity="0.1" fill="#3D3D3C" enable-background="new    " width="7.521" height="7.715"/>
<rect x="580.091" y="24.429" opacity="0.1" fill="#3D3D3C" enable-background="new    " width="7.521" height="7.713"/>
<rect x="572.569" y="16.713" opacity="0.1" fill="#3D3D3C" enable-background="new    " width="7.521" height="7.716"/>
<rect x="565.05" y="9" opacity="0.1" fill="#3D3D3C" enable-background="new    " width="7.521" height="7.714"/>
<rect x="557.529" y="1.286" opacity="0.1" fill="#3D3D3C" enable-background="new    " width="7.521" height="7.714"/>
<rect x="572.569" y="1.286" opacity="0.1" fill="#3D3D3C" enable-background="new    " width="7.521" height="7.714"/>
<rect x="580.091" y="9" opacity="0.1" fill="#3D3D3C" enable-background="new    " width="7.521" height="7.714"/>
<rect x="587.61" y="1.286" opacity="0.1" fill="#3D3D3C" enable-background="new    " width="7.521" height="7.714"/>
<rect x="595.132" y="9" opacity="0.1" fill="#3D3D3C" enable-background="new    " width="7.521" height="7.714"/>
<rect x="587.61" y="16.713" opacity="0.1" fill="#3D3D3C" enable-background="new    " width="7.521" height="7.716"/>
<rect x="595.132" y="24.429" opacity="0.1" fill="#3D3D3C" enable-background="new    " width="7.521" height="7.713"/>
<rect x="602.65" y="16.713" opacity="0.1" fill="#3D3D3C" enable-background="new    " width="7.521" height="7.716"/>
<rect x="602.65" y="32.142" opacity="0.1" fill="#3D3D3C" enable-background="new    " width="7.521" height="7.715"/>
<rect x="602.65" y="47.57" opacity="0.1" fill="#3D3D3C" enable-background="new    " width="7.521" height="7.715"/>
<rect x="610.172" y="39.857" opacity="0.1" fill="#3D3D3C" enable-background="new    " width="7.521" height="7.715"/>
<rect x="617.691" y="47.57" opacity="0.1" fill="#3D3D3C" enable-background="new    " width="7.521" height="7.715"/>
<rect x="610.172" y="24.429" opacity="0.1" fill="#3D3D3C" enable-background="new    " width="7.521" height="7.713"/>
<rect x="617.691" y="32.142" opacity="0.1" fill="#3D3D3C" enable-background="new    " width="7.521" height="7.715"/>
<rect x="625.213" y="39.857" opacity="0.1" fill="#3D3D3C" enable-background="new    " width="7.521" height="7.715"/>
<rect x="610.172" y="55.285" opacity="0.1" fill="#3D3D3C" enable-background="new    " width="7.521" height="7.715"/>
<rect x="625.213" y="55.285" opacity="0.1" fill="#3D3D3C" enable-background="new    " width="7.521" height="7.715"/>
<rect x="632.732" y="47.57" opacity="0.1" fill="#3D3D3C" enable-background="new    " width="7.52" height="7.715"/>
<rect x="632.732" y="32.142" opacity="0.1" fill="#3D3D3C" enable-background="new    " width="7.52" height="7.715"/>
<rect x="625.213" y="24.429" opacity="0.1" fill="#3D3D3C" enable-background="new    " width="7.521" height="7.713"/>
<rect x="617.691" y="16.713" opacity="0.1" fill="#3D3D3C" enable-background="new    " width="7.521" height="7.716"/>
<rect x="610.172" y="9" opacity="0.1" fill="#3D3D3C" enable-background="new    " width="7.521" height="7.714"/>
<rect x="602.65" y="1.286" opacity="0.1" fill="#3D3D3C" enable-background="new    " width="7.521" height="7.714"/>
<rect x="617.691" y="1.286" opacity="0.1" fill="#3D3D3C" enable-background="new    " width="7.521" height="7.714"/>
<rect x="625.213" y="9" opacity="0.1" fill="#3D3D3C" enable-background="new    " width="7.521" height="7.714"/>
<rect x="632.732" y="1.286" opacity="0.1" fill="#3D3D3C" enable-background="new    " width="7.52" height="7.714"/>
<rect x="632.732" y="16.713" opacity="0.1" fill="#3D3D3C" enable-background="new    " width="7.52" height="7.716"/>
<rect x="557.529" y="63" opacity="0.1" fill="#3D3D3C" enable-background="new    " width="7.521" height="7.713"/>
<rect x="572.569" y="63" opacity="0.1" fill="#3D3D3C" enable-background="new    " width="7.521" height="7.713"/>
<rect x="587.61" y="63" opacity="0.1" fill="#3D3D3C" enable-background="new    " width="7.521" height="7.713"/>
<rect x="602.65" y="63" opacity="0.1" fill="#3D3D3C" enable-background="new    " width="7.521" height="7.713"/>
<rect x="617.691" y="63" opacity="0.1" fill="#3D3D3C" enable-background="new    " width="7.521" height="7.713"/>
<rect x="632.732" y="63" opacity="0.1" fill="#3D3D3C" enable-background="new    " width="7.52" height="7.713"/>
<path fill="#E9E9F1" d="M597.235,54.345c0,0-30.018,2.86-63.165-54.345h338.104v72H568.487
	C568.487,72,581.584,57.555,597.235,54.345z"/>
<path opacity="0.3" fill="#A198C0" enable-background="new    " d="M594.479,54.262c15.435,1.118,18.33-10.61,34.217-27.697
	c7.811-8.398,19.873-7.58,19.873-7.58l11.39,23.75C659.957,42.735,645.43,81.121,594.479,54.262z"/>
<path opacity="0.3" fill="#A198C0" enable-background="new    " d="M699.323,0.387c-8.215,3.97-15.886,7.679-18.866,9.12
	c-7.602,3.667-25.748,5.847-25.748,5.847l11.39,23.749c0,0,12.458-14.051,20.063-17.726c6.502-3.146,35.329-17.077,43.424-20.989
	H699.323z"/>
</svg>
