<?xml version="1.0" encoding="utf-8"?>
<!-- Generator: Adobe Illustrator 15.1.0, SVG Export Plug-In . SVG Version: 6.00 Build 0)  -->
<!DOCTYPE svg PUBLIC "-//W3C//DTD SVG 1.1//EN" "http://www.w3.org/Graphics/SVG/1.1/DTD/svg11.dtd">
<svg version="1.1" id="Calque_1" xmlns="http://www.w3.org/2000/svg" xmlns:xlink="http://www.w3.org/1999/xlink" x="0px" y="0px"
	 width="872px" height="72px" viewBox="0 0 872 72" enable-background="new 0 0 872 72" xml:space="preserve">
<rect x="0.175" fill="#DEDBD6" stroke="#D5D5D3" stroke-miterlimit="10" width="872" height="72"/>
<g opacity="0.75">
	
		<rect x="566.843" y="14.347" transform="matrix(-1 -0.0046 0.0046 -1 1136.5472 34.3221)" opacity="0.13" fill="#3D3D3C" stroke="#000000" stroke-width="2" enable-background="new    " width="2.941" height="2.986"/>
	
		<rect x="554.312" y="39.504" transform="matrix(-1 -0.004 0.004 -1 1111.3947 84.2115)" opacity="0.13" fill="#3D3D3C" stroke="#000000" stroke-width="2" enable-background="new    " width="2.939" height="2.988"/>
	
		<rect x="547.257" y="24.181" transform="matrix(-1 -0.0046 0.0046 -1 1097.3298 53.8989)" opacity="0.13" fill="#3D3D3C" stroke="#000000" stroke-width="2" enable-background="new    " width="2.941" height="2.986"/>
	
		<rect x="609.239" y="33.351" transform="matrix(-1 -0.0046 0.0046 -1 1221.2555 72.523)" opacity="0.13" fill="#3D3D3C" stroke="#000000" stroke-width="2" enable-background="new    " width="2.945" height="2.986"/>
	
		<rect x="588.781" y="39.637" transform="matrix(-1 -0.0053 0.0053 -1 1180.2812 85.3904)" opacity="0.13" fill="#3D3D3C" stroke="#000000" stroke-width="2" enable-background="new    " width="2.945" height="2.986"/>
	
		<rect x="471.604" y="51.759" transform="matrix(-1 -0.0046 0.0046 -1 945.9042 108.6959)" opacity="0.13" fill="#3D3D3C" stroke="#000000" stroke-width="2" enable-background="new    " width="2.947" height="2.984"/>
	
		<rect x="509.19" y="38.003" transform="matrix(-1 -0.0046 0.0046 -1 1021.1353 81.3638)" opacity="0.13" fill="#3D3D3C" stroke="#000000" stroke-width="2" enable-background="new    " width="2.943" height="2.986"/>
	
		<rect x="491.436" y="30.021" transform="matrix(-1 -0.0046 0.0046 -1 985.6667 65.316)" opacity="0.13" fill="#3D3D3C" stroke="#000000" stroke-width="2" enable-background="new    " width="2.945" height="2.986"/>
	
		<rect x="521.218" y="4.554" transform="matrix(-1 -0.0046 0.0046 -1 1045.3452 14.5245)" opacity="0.13" fill="#3D3D3C" stroke="#000000" stroke-width="2" enable-background="new    " width="2.943" height="2.988"/>
	
		<rect x="438.002" y="15.839" transform="matrix(-1 -0.0046 0.0046 -1 878.866 36.7054)" opacity="0.13" fill="#3D3D3C" stroke="#000000" stroke-width="2" enable-background="new    " width="2.947" height="2.988"/>
	
		<rect x="369.881" y="42.519" transform="matrix(-1 -0.0046 0.0046 -1 742.4966 89.7479)" opacity="0.13" fill="#3D3D3C" stroke="#000000" stroke-width="2" enable-background="new    " width="2.943" height="2.986"/>
	
		<rect x="357.317" y="7.822" transform="matrix(-1 -0.0046 0.0046 -1 717.531 20.2964)" opacity="0.13" fill="#3D3D3C" stroke="#000000" stroke-width="2" enable-background="new    " width="2.943" height="2.986"/>
	
		<rect x="323.239" y="48.804" transform="matrix(-1 -0.0046 0.0046 -1 649.1826 102.0986)" opacity="0.13" fill="#3D3D3C" stroke="#000000" stroke-width="2" enable-background="new    " width="2.941" height="2.982"/>
	
		<rect x="278.636" y="9.349" transform="matrix(-1 -0.0046 0.0046 -1 560.1615 22.9856)" opacity="0.13" fill="#3D3D3C" stroke="#000000" stroke-width="2" enable-background="new    " width="2.943" height="2.986"/>
	
		<rect x="295.674" y="17.334" transform="matrix(-1 -0.0053 0.0053 -1 594.1889 39.2314)" opacity="0.13" fill="#3D3D3C" stroke="#000000" stroke-width="2" enable-background="new    " width="2.945" height="2.986"/>
	
		<rect x="284.181" y="52.548" transform="matrix(-1 -0.0046 0.0046 -1 571.0527 109.4055)" opacity="0.13" fill="#3D3D3C" stroke="#000000" stroke-width="2" enable-background="new    " width="2.945" height="2.984"/>
	
		<rect x="309.863" y="31.511" transform="matrix(-1 -0.0046 0.0046 -1 622.5153 67.4536)" opacity="0.13" fill="#3D3D3C" stroke="#000000" stroke-width="2" enable-background="new    " width="2.945" height="2.986"/>
	
		<rect x="254.578" y="50.313" transform="matrix(-1 -0.0046 0.0046 -1 511.8583 104.8013)" opacity="0.13" fill="#3D3D3C" stroke="#000000" stroke-width="2" enable-background="new    " width="2.945" height="2.986"/>
	
		<rect x="401.921" y="7.822" transform="matrix(-1 -0.0046 0.0046 -1 806.7375 20.5035)" opacity="0.13" fill="#3D3D3C" stroke="#000000" stroke-width="2" enable-background="new    " width="2.943" height="2.986"/>
	
		<rect x="452.19" y="61.476" transform="matrix(-1 -0.0046 0.0046 -1 907.029 128.0407)" opacity="0.13" fill="#3D3D3C" stroke="#000000" stroke-width="2" enable-background="new    " width="2.945" height="2.984"/>
	<polyline opacity="0.13" fill="none" stroke="#000000" stroke-width="2" enable-background="new    " points="250.525,20.301 
		298.102,45.016 348.553,40.951 369.871,15.799 419.006,22.319 438.551,0.483 	"/>
	<polyline opacity="0.13" fill="none" stroke="#000000" stroke-width="2" enable-background="new    " points="369.871,71.518 
		401.904,39.617 490.854,42.547 510.131,56.074 548.719,0.483 	"/>
	<polyline opacity="0.13" fill="none" stroke="#000000" stroke-width="2" enable-background="new    " points="621.475,64.432 
		582.441,18.106 567.33,58.514 528.172,56.074 517.137,71.518 	"/>
	<path opacity="0.13" fill="none" stroke="#000000" stroke-width="0.75" enable-background="new    " d="M479.172,1.887"/>
	
		<rect x="406.701" y="51.783" transform="matrix(-1 -0.0053 0.0053 -1 816.0571 108.7168)" opacity="0.13" fill="#3D3D3C" stroke="#000000" stroke-width="2" enable-background="new    " width="2.943" height="2.984"/>
	
		<rect x="457.833" y="9.322" transform="matrix(-1 -0.0046 0.0046 -1 918.5522 23.7647)" opacity="0.13" fill="#3D3D3C" stroke="#000000" stroke-width="2" enable-background="new    " width="2.941" height="2.986"/>
</g>
<polygon fill="#DEDBD6" stroke="#D5D5D3" stroke-miterlimit="10" points="396.413,0.17 359.18,71.828 1.018,70.992 1.04,-0.502 "/>
<g>
	<rect x="225.22" y="31.806" opacity="0.1" fill="#3D3D3C" enable-background="new    " width="7.52" height="7.714"/>
	<rect x="225.22" y="16.471" opacity="0.1" fill="#3D3D3C" enable-background="new    " width="7.52" height="7.714"/>
	<rect x="225.22" y="0.948" opacity="0.1" fill="#3D3D3C" enable-background="new    " width="7.52" height="7.714"/>
	<rect x="225.22" y="47.233" opacity="0.1" fill="#3D3D3C" enable-background="new    " width="7.52" height="7.714"/>
	<rect x="217.603" y="39.616" opacity="0.1" fill="#3D3D3C" enable-background="new    " width="7.52" height="7.714"/>
	<rect x="217.603" y="24.092" opacity="0.1" fill="#3D3D3C" enable-background="new    " width="7.52" height="7.714"/>
	<rect x="217.603" y="8.663" opacity="0.1" fill="#3D3D3C" enable-background="new    " width="7.52" height="7.714"/>
	<rect x="232.737" y="39.52" opacity="0.1" fill="#3D3D3C" enable-background="new    " width="7.52" height="7.715"/>
	<rect x="240.261" y="47.233" opacity="0.1" fill="#3D3D3C" enable-background="new    " width="7.52" height="7.714"/>
	<rect x="232.739" y="24.092" opacity="0.1" fill="#3D3D3C" enable-background="new    " width="7.521" height="7.714"/>
	<rect x="232.739" y="8.663" opacity="0.1" fill="#3D3D3C" enable-background="new    " width="7.521" height="7.714"/>
	<rect x="240.261" y="31.806" opacity="0.1" fill="#3D3D3C" enable-background="new    " width="7.52" height="7.714"/>
	<rect x="247.78" y="39.52" opacity="0.1" fill="#3D3D3C" enable-background="new    " width="7.521" height="7.715"/>
	<rect x="217.698" y="54.947" opacity="0.1" fill="#3D3D3C" enable-background="new    " width="7.521" height="7.715"/>
	<rect x="210.081" y="47.33" opacity="0.1" fill="#3D3D3C" enable-background="new    " width="7.521" height="7.715"/>
	<rect x="210.081" y="32.143" opacity="0.1" fill="#3D3D3C" enable-background="new    " width="7.521" height="7.715"/>
	<rect x="210.081" y="16.376" opacity="0.1" fill="#3D3D3C" enable-background="new    " width="7.521" height="7.715"/>
	<rect x="210.081" y="0.948" opacity="0.1" fill="#3D3D3C" enable-background="new    " width="7.521" height="7.715"/>
	<rect x="210.179" y="63.338" opacity="0.1" fill="#3D3D3C" enable-background="new    " width="7.521" height="7.715"/>
	<rect x="232.739" y="54.947" opacity="0.1" fill="#3D3D3C" enable-background="new    " width="7.521" height="7.715"/>
	<rect x="247.78" y="54.947" opacity="0.1" fill="#3D3D3C" enable-background="new    " width="7.521" height="7.715"/>
	<rect x="255.302" y="47.233" opacity="0.1" fill="#3D3D3C" enable-background="new    " width="7.521" height="7.714"/>
	<rect x="262.821" y="54.947" opacity="0.1" fill="#3D3D3C" enable-background="new    " width="7.521" height="7.715"/>
	<rect x="262.821" y="39.52" opacity="0.1" fill="#3D3D3C" enable-background="new    " width="7.521" height="7.715"/>
	<rect x="255.302" y="31.806" opacity="0.1" fill="#3D3D3C" enable-background="new    " width="7.521" height="7.714"/>
	<rect x="247.78" y="24.092" opacity="0.1" fill="#3D3D3C" enable-background="new    " width="7.521" height="7.714"/>
	<rect x="240.261" y="16.377" opacity="0.1" fill="#3D3D3C" enable-background="new    " width="7.52" height="7.715"/>
	<rect x="247.78" y="8.662" opacity="0.1" fill="#3D3D3C" enable-background="new    " width="7.521" height="7.715"/>
	<rect x="240.26" y="0.948" opacity="0.1" fill="#3D3D3C" enable-background="new    " width="7.521" height="7.715"/>
	<rect x="255.302" y="0.948" opacity="0.1" fill="#3D3D3C" enable-background="new    " width="7.521" height="7.714"/>
	<rect x="262.821" y="8.662" opacity="0.1" fill="#3D3D3C" enable-background="new    " width="7.521" height="7.715"/>
	<rect x="255.302" y="16.377" opacity="0.1" fill="#3D3D3C" enable-background="new    " width="7.521" height="7.715"/>
	<rect x="262.821" y="24.092" opacity="0.1" fill="#3D3D3C" enable-background="new    " width="7.521" height="7.714"/>
	<rect x="270.341" y="0.948" opacity="0.1" fill="#3D3D3C" enable-background="new    " width="7.521" height="7.714"/>
	<rect x="277.862" y="8.662" opacity="0.1" fill="#3D3D3C" enable-background="new    " width="7.52" height="7.715"/>
	<rect x="285.382" y="16.377" opacity="0.1" fill="#3D3D3C" enable-background="new    " width="7.521" height="7.715"/>
	<rect x="277.862" y="24.092" opacity="0.1" fill="#3D3D3C" enable-background="new    " width="7.52" height="7.714"/>
	<rect x="285.382" y="31.806" opacity="0.1" fill="#3D3D3C" enable-background="new    " width="7.521" height="7.714"/>
	<rect x="277.862" y="39.52" opacity="0.1" fill="#3D3D3C" enable-background="new    " width="7.52" height="7.715"/>
	<rect x="285.382" y="47.233" opacity="0.1" fill="#3D3D3C" enable-background="new    " width="7.521" height="7.714"/>
	<rect x="270.341" y="16.377" opacity="0.1" fill="#3D3D3C" enable-background="new    " width="7.521" height="7.715"/>
	<rect x="270.341" y="31.806" opacity="0.1" fill="#3D3D3C" enable-background="new    " width="7.521" height="7.714"/>
	<rect x="270.341" y="47.233" opacity="0.1" fill="#3D3D3C" enable-background="new    " width="7.521" height="7.714"/>
	<rect x="292.899" y="39.52" opacity="0.1" fill="#3D3D3C" enable-background="new    " width="7.521" height="7.715"/>
	<rect x="300.423" y="47.233" opacity="0.1" fill="#3D3D3C" enable-background="new    " width="7.521" height="7.714"/>
	<rect x="292.903" y="24.092" opacity="0.1" fill="#3D3D3C" enable-background="new    " width="7.52" height="7.714"/>
	<rect x="300.423" y="31.806" opacity="0.1" fill="#3D3D3C" enable-background="new    " width="7.521" height="7.714"/>
	<rect x="307.944" y="39.52" opacity="0.1" fill="#3D3D3C" enable-background="new    " width="7.52" height="7.715"/>
	<rect x="277.862" y="54.947" opacity="0.1" fill="#3D3D3C" enable-background="new    " width="7.52" height="7.715"/>
	<rect x="292.903" y="54.947" opacity="0.1" fill="#3D3D3C" enable-background="new    " width="7.52" height="7.715"/>
	<rect x="307.944" y="54.947" opacity="0.1" fill="#3D3D3C" enable-background="new    " width="7.52" height="7.715"/>
	<rect x="315.462" y="47.233" opacity="0.1" fill="#3D3D3C" enable-background="new    " width="7.521" height="7.714"/>
	<rect x="322.983" y="54.947" opacity="0.1" fill="#3D3D3C" enable-background="new    " width="7.521" height="7.715"/>
	<rect x="322.983" y="39.52" opacity="0.1" fill="#3D3D3C" enable-background="new    " width="7.521" height="7.715"/>
	<rect x="315.462" y="31.806" opacity="0.1" fill="#3D3D3C" enable-background="new    " width="7.521" height="7.714"/>
	<rect x="307.944" y="24.092" opacity="0.1" fill="#3D3D3C" enable-background="new    " width="7.52" height="7.714"/>
	<rect x="300.423" y="16.377" opacity="0.1" fill="#3D3D3C" enable-background="new    " width="7.521" height="7.715"/>
	<rect x="292.903" y="8.662" opacity="0.1" fill="#3D3D3C" enable-background="new    " width="7.52" height="7.715"/>
	<rect x="285.382" y="0.948" opacity="0.1" fill="#3D3D3C" enable-background="new    " width="7.521" height="7.714"/>
	<rect x="300.423" y="0.948" opacity="0.1" fill="#3D3D3C" enable-background="new    " width="7.521" height="7.714"/>
	<rect x="307.944" y="8.662" opacity="0.1" fill="#3D3D3C" enable-background="new    " width="7.52" height="7.715"/>
	<rect x="315.462" y="0.948" opacity="0.1" fill="#3D3D3C" enable-background="new    " width="7.521" height="7.714"/>
	<rect x="322.983" y="8.662" opacity="0.1" fill="#3D3D3C" enable-background="new    " width="7.521" height="7.715"/>
	<rect x="315.462" y="16.377" opacity="0.1" fill="#3D3D3C" enable-background="new    " width="7.521" height="7.715"/>
	<rect x="322.983" y="24.092" opacity="0.1" fill="#3D3D3C" enable-background="new    " width="7.521" height="7.714"/>
	<rect x="330.503" y="0.948" opacity="0.1" fill="#3D3D3C" enable-background="new    " width="7.521" height="7.714"/>
	<rect x="338.024" y="8.662" opacity="0.1" fill="#3D3D3C" enable-background="new    " width="7.521" height="7.715"/>
	<rect x="345.544" y="16.377" opacity="0.1" fill="#3D3D3C" enable-background="new    " width="7.521" height="7.715"/>
	<rect x="338.024" y="24.092" opacity="0.1" fill="#3D3D3C" enable-background="new    " width="7.521" height="7.714"/>
	<rect x="345.544" y="31.806" opacity="0.1" fill="#3D3D3C" enable-background="new    " width="7.521" height="7.714"/>
	<rect x="338.024" y="39.52" opacity="0.1" fill="#3D3D3C" enable-background="new    " width="7.521" height="7.715"/>
	<rect x="345.544" y="47.233" opacity="0.1" fill="#3D3D3C" enable-background="new    " width="7.521" height="7.714"/>
	<rect x="330.503" y="16.377" opacity="0.1" fill="#3D3D3C" enable-background="new    " width="7.521" height="7.715"/>
	<rect x="330.503" y="31.806" opacity="0.1" fill="#3D3D3C" enable-background="new    " width="7.521" height="7.714"/>
	<rect x="330.503" y="47.233" opacity="0.1" fill="#3D3D3C" enable-background="new    " width="7.521" height="7.714"/>
	<rect x="353.063" y="39.52" opacity="0.1" fill="#3D3D3C" enable-background="new    " width="7.52" height="7.715"/>
	<rect x="353.065" y="24.092" opacity="0.1" fill="#3D3D3C" enable-background="new    " width="7.52" height="7.714"/>
	<rect x="360.585" y="31.806" opacity="0.1" fill="#3D3D3C" enable-background="new    " width="7.521" height="7.714"/>
	<rect x="338.024" y="54.947" opacity="0.1" fill="#3D3D3C" enable-background="new    " width="7.521" height="7.715"/>
	<rect x="353.065" y="54.947" opacity="0.1" fill="#3D3D3C" enable-background="new    " width="7.52" height="7.715"/>
	<rect x="368.106" y="24.092" opacity="0.1" fill="#3D3D3C" enable-background="new    " width="7.52" height="7.714"/>
	<rect x="360.585" y="16.377" opacity="0.1" fill="#3D3D3C" enable-background="new    " width="7.521" height="7.715"/>
	<rect x="353.065" y="8.662" opacity="0.1" fill="#3D3D3C" enable-background="new    " width="7.52" height="7.715"/>
	<rect x="345.544" y="0.948" opacity="0.1" fill="#3D3D3C" enable-background="new    " width="7.521" height="7.714"/>
	<rect x="360.585" y="0.948" opacity="0.1" fill="#3D3D3C" enable-background="new    " width="7.521" height="7.714"/>
	<rect x="368.106" y="8.662" opacity="0.1" fill="#3D3D3C" enable-background="new    " width="7.52" height="7.715"/>
	<rect x="375.626" y="0.948" opacity="0.1" fill="#3D3D3C" enable-background="new    " width="7.521" height="7.714"/>
	<rect x="375.626" y="16.377" opacity="0.1" fill="#3D3D3C" enable-background="new    " width="7.521" height="7.715"/>
	<rect x="225.22" y="63.338" opacity="0.1" fill="#3D3D3C" enable-background="new    " width="7.52" height="7.713"/>
	<rect x="240.261" y="63.338" opacity="0.1" fill="#3D3D3C" enable-background="new    " width="7.52" height="7.713"/>
	<rect x="180.097" y="31.806" opacity="0.1" fill="#3D3D3C" enable-background="new    " width="7.52" height="7.714"/>
	<rect x="180.097" y="16.471" opacity="0.1" fill="#3D3D3C" enable-background="new    " width="7.52" height="7.714"/>
	<rect x="180.097" y="0.948" opacity="0.1" fill="#3D3D3C" enable-background="new    " width="7.52" height="7.714"/>
	<rect x="180.097" y="47.233" opacity="0.1" fill="#3D3D3C" enable-background="new    " width="7.52" height="7.714"/>
	<rect x="172.48" y="39.616" opacity="0.1" fill="#3D3D3C" enable-background="new    " width="7.52" height="7.714"/>
	<rect x="172.48" y="24.092" opacity="0.1" fill="#3D3D3C" enable-background="new    " width="7.52" height="7.714"/>
	<rect x="172.48" y="8.663" opacity="0.1" fill="#3D3D3C" enable-background="new    " width="7.52" height="7.714"/>
	<rect x="187.615" y="39.52" opacity="0.1" fill="#3D3D3C" enable-background="new    " width="7.52" height="7.715"/>
	<rect x="195.138" y="47.233" opacity="0.1" fill="#3D3D3C" enable-background="new    " width="7.52" height="7.714"/>
	<rect x="187.617" y="24.092" opacity="0.1" fill="#3D3D3C" enable-background="new    " width="7.521" height="7.714"/>
	<rect x="187.617" y="8.663" opacity="0.1" fill="#3D3D3C" enable-background="new    " width="7.521" height="7.714"/>
	<rect x="195.138" y="31.806" opacity="0.1" fill="#3D3D3C" enable-background="new    " width="7.52" height="7.714"/>
	<rect x="202.658" y="39.52" opacity="0.1" fill="#3D3D3C" enable-background="new    " width="7.521" height="7.715"/>
	<rect x="172.576" y="54.947" opacity="0.1" fill="#3D3D3C" enable-background="new    " width="7.521" height="7.715"/>
	<rect x="164.958" y="47.33" opacity="0.1" fill="#3D3D3C" enable-background="new    " width="7.521" height="7.715"/>
	<rect x="164.958" y="32.143" opacity="0.1" fill="#3D3D3C" enable-background="new    " width="7.521" height="7.715"/>
	<rect x="164.958" y="16.376" opacity="0.1" fill="#3D3D3C" enable-background="new    " width="7.521" height="7.715"/>
	<rect x="164.958" y="0.948" opacity="0.1" fill="#3D3D3C" enable-background="new    " width="7.521" height="7.715"/>
	<rect x="165.056" y="63.338" opacity="0.1" fill="#3D3D3C" enable-background="new    " width="7.521" height="7.715"/>
	<rect x="187.617" y="54.947" opacity="0.1" fill="#3D3D3C" enable-background="new    " width="7.521" height="7.715"/>
	<rect x="202.658" y="54.947" opacity="0.1" fill="#3D3D3C" enable-background="new    " width="7.521" height="7.715"/>
	<rect x="202.658" y="24.092" opacity="0.1" fill="#3D3D3C" enable-background="new    " width="7.521" height="7.714"/>
	<rect x="195.138" y="16.377" opacity="0.1" fill="#3D3D3C" enable-background="new    " width="7.52" height="7.715"/>
	<rect x="202.658" y="8.662" opacity="0.1" fill="#3D3D3C" enable-background="new    " width="7.521" height="7.715"/>
	<rect x="195.137" y="0.948" opacity="0.1" fill="#3D3D3C" enable-background="new    " width="7.521" height="7.715"/>
	<rect x="180.097" y="63.338" opacity="0.1" fill="#3D3D3C" enable-background="new    " width="7.52" height="7.713"/>
	<rect x="195.138" y="63.338" opacity="0.1" fill="#3D3D3C" enable-background="new    " width="7.52" height="7.713"/>
	<rect x="134.877" y="31.806" opacity="0.1" fill="#3D3D3C" enable-background="new    " width="7.52" height="7.714"/>
	<rect x="134.877" y="16.471" opacity="0.1" fill="#3D3D3C" enable-background="new    " width="7.52" height="7.714"/>
	<rect x="134.877" y="0.948" opacity="0.1" fill="#3D3D3C" enable-background="new    " width="7.52" height="7.714"/>
	<rect x="134.877" y="47.233" opacity="0.1" fill="#3D3D3C" enable-background="new    " width="7.52" height="7.714"/>
	<rect x="127.26" y="39.616" opacity="0.1" fill="#3D3D3C" enable-background="new    " width="7.52" height="7.714"/>
	<rect x="127.26" y="24.092" opacity="0.1" fill="#3D3D3C" enable-background="new    " width="7.52" height="7.714"/>
	<rect x="127.26" y="8.663" opacity="0.1" fill="#3D3D3C" enable-background="new    " width="7.52" height="7.714"/>
	<rect x="142.395" y="39.52" opacity="0.1" fill="#3D3D3C" enable-background="new    " width="7.52" height="7.715"/>
	<rect x="149.918" y="47.233" opacity="0.1" fill="#3D3D3C" enable-background="new    " width="7.52" height="7.714"/>
	<rect x="142.396" y="24.092" opacity="0.1" fill="#3D3D3C" enable-background="new    " width="7.521" height="7.714"/>
	<rect x="142.396" y="8.663" opacity="0.1" fill="#3D3D3C" enable-background="new    " width="7.521" height="7.714"/>
	<rect x="149.918" y="31.806" opacity="0.1" fill="#3D3D3C" enable-background="new    " width="7.52" height="7.714"/>
	<rect x="157.438" y="39.52" opacity="0.1" fill="#3D3D3C" enable-background="new    " width="7.521" height="7.715"/>
	<rect x="127.355" y="54.947" opacity="0.1" fill="#3D3D3C" enable-background="new    " width="7.521" height="7.715"/>
	<rect x="119.738" y="47.33" opacity="0.1" fill="#3D3D3C" enable-background="new    " width="7.521" height="7.715"/>
	<rect x="119.738" y="32.143" opacity="0.1" fill="#3D3D3C" enable-background="new    " width="7.521" height="7.715"/>
	<rect x="119.738" y="16.376" opacity="0.1" fill="#3D3D3C" enable-background="new    " width="7.521" height="7.715"/>
	<rect x="119.738" y="0.948" opacity="0.1" fill="#3D3D3C" enable-background="new    " width="7.521" height="7.715"/>
	<rect x="119.836" y="63.338" opacity="0.1" fill="#3D3D3C" enable-background="new    " width="7.521" height="7.715"/>
	<rect x="142.396" y="54.947" opacity="0.1" fill="#3D3D3C" enable-background="new    " width="7.521" height="7.715"/>
	<rect x="157.438" y="54.947" opacity="0.1" fill="#3D3D3C" enable-background="new    " width="7.521" height="7.715"/>
	<rect x="157.438" y="24.092" opacity="0.1" fill="#3D3D3C" enable-background="new    " width="7.521" height="7.714"/>
	<rect x="149.918" y="16.377" opacity="0.1" fill="#3D3D3C" enable-background="new    " width="7.52" height="7.715"/>
	<rect x="157.438" y="8.662" opacity="0.1" fill="#3D3D3C" enable-background="new    " width="7.521" height="7.715"/>
	<rect x="149.917" y="0.948" opacity="0.1" fill="#3D3D3C" enable-background="new    " width="7.521" height="7.715"/>
	<rect x="134.877" y="63.338" opacity="0.1" fill="#3D3D3C" enable-background="new    " width="7.52" height="7.713"/>
	<rect x="149.918" y="63.338" opacity="0.1" fill="#3D3D3C" enable-background="new    " width="7.52" height="7.713"/>
	<rect x="89.754" y="31.806" opacity="0.1" fill="#3D3D3C" enable-background="new    " width="7.52" height="7.714"/>
	<rect x="89.754" y="16.471" opacity="0.1" fill="#3D3D3C" enable-background="new    " width="7.52" height="7.714"/>
	<rect x="89.754" y="0.948" opacity="0.1" fill="#3D3D3C" enable-background="new    " width="7.52" height="7.714"/>
	<rect x="89.754" y="47.233" opacity="0.1" fill="#3D3D3C" enable-background="new    " width="7.52" height="7.714"/>
	<rect x="82.137" y="39.616" opacity="0.1" fill="#3D3D3C" enable-background="new    " width="7.52" height="7.714"/>
	<rect x="82.137" y="24.092" opacity="0.1" fill="#3D3D3C" enable-background="new    " width="7.52" height="7.714"/>
	<rect x="82.137" y="8.663" opacity="0.1" fill="#3D3D3C" enable-background="new    " width="7.52" height="7.714"/>
	<rect x="97.272" y="39.52" opacity="0.1" fill="#3D3D3C" enable-background="new    " width="7.52" height="7.715"/>
	<rect x="104.795" y="47.233" opacity="0.1" fill="#3D3D3C" enable-background="new    " width="7.52" height="7.714"/>
	<rect x="97.274" y="24.092" opacity="0.1" fill="#3D3D3C" enable-background="new    " width="7.521" height="7.714"/>
	<rect x="97.274" y="8.663" opacity="0.1" fill="#3D3D3C" enable-background="new    " width="7.521" height="7.714"/>
	<rect x="104.795" y="31.806" opacity="0.1" fill="#3D3D3C" enable-background="new    " width="7.52" height="7.714"/>
	<rect x="112.315" y="39.52" opacity="0.1" fill="#3D3D3C" enable-background="new    " width="7.521" height="7.715"/>
	<rect x="82.233" y="54.947" opacity="0.1" fill="#3D3D3C" enable-background="new    " width="7.521" height="7.715"/>
	<rect x="74.616" y="47.33" opacity="0.1" fill="#3D3D3C" enable-background="new    " width="7.521" height="7.715"/>
	<rect x="74.616" y="32.143" opacity="0.1" fill="#3D3D3C" enable-background="new    " width="7.521" height="7.715"/>
	<rect x="74.616" y="16.376" opacity="0.1" fill="#3D3D3C" enable-background="new    " width="7.521" height="7.715"/>
	<rect x="74.616" y="0.948" opacity="0.1" fill="#3D3D3C" enable-background="new    " width="7.521" height="7.715"/>
	<rect x="74.713" y="63.338" opacity="0.1" fill="#3D3D3C" enable-background="new    " width="7.521" height="7.715"/>
	<rect x="97.274" y="54.947" opacity="0.1" fill="#3D3D3C" enable-background="new    " width="7.521" height="7.715"/>
	<rect x="112.315" y="54.947" opacity="0.1" fill="#3D3D3C" enable-background="new    " width="7.521" height="7.715"/>
	<rect x="112.315" y="24.092" opacity="0.1" fill="#3D3D3C" enable-background="new    " width="7.521" height="7.714"/>
	<rect x="104.795" y="16.377" opacity="0.1" fill="#3D3D3C" enable-background="new    " width="7.52" height="7.715"/>
	<rect x="112.315" y="8.662" opacity="0.1" fill="#3D3D3C" enable-background="new    " width="7.521" height="7.715"/>
	<rect x="104.794" y="0.948" opacity="0.1" fill="#3D3D3C" enable-background="new    " width="7.521" height="7.715"/>
	<rect x="89.754" y="63.338" opacity="0.1" fill="#3D3D3C" enable-background="new    " width="7.52" height="7.713"/>
	<rect x="104.795" y="63.338" opacity="0.1" fill="#3D3D3C" enable-background="new    " width="7.52" height="7.713"/>
	<rect x="44.534" y="31.806" opacity="0.1" fill="#3D3D3C" enable-background="new    " width="7.52" height="7.714"/>
	<rect x="44.534" y="16.471" opacity="0.1" fill="#3D3D3C" enable-background="new    " width="7.52" height="7.714"/>
	<rect x="44.534" y="0.948" opacity="0.1" fill="#3D3D3C" enable-background="new    " width="7.52" height="7.714"/>
	<rect x="44.534" y="47.233" opacity="0.1" fill="#3D3D3C" enable-background="new    " width="7.52" height="7.714"/>
	<rect x="36.917" y="39.616" opacity="0.1" fill="#3D3D3C" enable-background="new    " width="7.52" height="7.714"/>
	<rect x="36.917" y="24.092" opacity="0.1" fill="#3D3D3C" enable-background="new    " width="7.52" height="7.714"/>
	<rect x="36.917" y="8.663" opacity="0.1" fill="#3D3D3C" enable-background="new    " width="7.52" height="7.714"/>
	<rect x="52.052" y="39.52" opacity="0.1" fill="#3D3D3C" enable-background="new    " width="7.52" height="7.715"/>
	<rect x="59.575" y="47.233" opacity="0.1" fill="#3D3D3C" enable-background="new    " width="7.52" height="7.714"/>
	<rect x="52.054" y="24.092" opacity="0.1" fill="#3D3D3C" enable-background="new    " width="7.521" height="7.714"/>
	<rect x="52.054" y="8.663" opacity="0.1" fill="#3D3D3C" enable-background="new    " width="7.521" height="7.714"/>
	<rect x="59.575" y="31.806" opacity="0.1" fill="#3D3D3C" enable-background="new    " width="7.52" height="7.714"/>
	<rect x="67.095" y="39.52" opacity="0.1" fill="#3D3D3C" enable-background="new    " width="7.521" height="7.715"/>
	<rect x="37.013" y="54.947" opacity="0.1" fill="#3D3D3C" enable-background="new    " width="7.521" height="7.715"/>
	<rect x="29.396" y="47.33" opacity="0.1" fill="#3D3D3C" enable-background="new    " width="7.521" height="7.715"/>
	<rect x="29.396" y="32.143" opacity="0.1" fill="#3D3D3C" enable-background="new    " width="7.521" height="7.715"/>
	<rect x="29.396" y="16.376" opacity="0.1" fill="#3D3D3C" enable-background="new    " width="7.521" height="7.715"/>
	<rect x="29.396" y="0.948" opacity="0.1" fill="#3D3D3C" enable-background="new    " width="7.521" height="7.715"/>
	<rect x="29.493" y="63.338" opacity="0.1" fill="#3D3D3C" enable-background="new    " width="7.521" height="7.715"/>
	<rect x="52.054" y="54.947" opacity="0.1" fill="#3D3D3C" enable-background="new    " width="7.521" height="7.715"/>
	<rect x="67.095" y="54.947" opacity="0.1" fill="#3D3D3C" enable-background="new    " width="7.521" height="7.715"/>
	<rect x="67.095" y="24.092" opacity="0.1" fill="#3D3D3C" enable-background="new    " width="7.521" height="7.714"/>
	<rect x="59.575" y="16.377" opacity="0.1" fill="#3D3D3C" enable-background="new    " width="7.52" height="7.715"/>
	<rect x="67.095" y="8.662" opacity="0.1" fill="#3D3D3C" enable-background="new    " width="7.521" height="7.715"/>
	<rect x="59.574" y="0.948" opacity="0.1" fill="#3D3D3C" enable-background="new    " width="7.521" height="7.715"/>
	<rect x="44.534" y="63.338" opacity="0.1" fill="#3D3D3C" enable-background="new    " width="7.52" height="7.713"/>
	<rect x="59.575" y="63.338" opacity="0.1" fill="#3D3D3C" enable-background="new    " width="7.52" height="7.713"/>
	<rect x="-0.588" y="31.806" opacity="0.1" fill="#3D3D3C" enable-background="new    " width="7.52" height="7.714"/>
	<rect x="-0.588" y="16.471" opacity="0.1" fill="#3D3D3C" enable-background="new    " width="7.52" height="7.714"/>
	<rect x="-0.588" y="0.948" opacity="0.1" fill="#3D3D3C" enable-background="new    " width="7.52" height="7.714"/>
	<rect x="-0.588" y="47.233" opacity="0.1" fill="#3D3D3C" enable-background="new    " width="7.52" height="7.714"/>
	<rect x="6.929" y="39.52" opacity="0.1" fill="#3D3D3C" enable-background="new    " width="7.52" height="7.715"/>
	<rect x="14.453" y="47.233" opacity="0.1" fill="#3D3D3C" enable-background="new    " width="7.52" height="7.714"/>
	<rect x="6.931" y="24.092" opacity="0.1" fill="#3D3D3C" enable-background="new    " width="7.521" height="7.714"/>
	<rect x="6.931" y="8.663" opacity="0.1" fill="#3D3D3C" enable-background="new    " width="7.521" height="7.714"/>
	<rect x="14.453" y="31.806" opacity="0.1" fill="#3D3D3C" enable-background="new    " width="7.52" height="7.714"/>
	<rect x="21.972" y="39.52" opacity="0.1" fill="#3D3D3C" enable-background="new    " width="7.521" height="7.715"/>
	<rect x="6.931" y="54.947" opacity="0.1" fill="#3D3D3C" enable-background="new    " width="7.521" height="7.715"/>
	<rect x="21.972" y="54.947" opacity="0.1" fill="#3D3D3C" enable-background="new    " width="7.521" height="7.715"/>
	<rect x="21.972" y="24.092" opacity="0.1" fill="#3D3D3C" enable-background="new    " width="7.521" height="7.714"/>
	<rect x="14.453" y="16.377" opacity="0.1" fill="#3D3D3C" enable-background="new    " width="7.52" height="7.715"/>
	<rect x="21.972" y="8.662" opacity="0.1" fill="#3D3D3C" enable-background="new    " width="7.521" height="7.715"/>
	<rect x="14.452" y="0.948" opacity="0.1" fill="#3D3D3C" enable-background="new    " width="7.521" height="7.715"/>
	<rect x="-0.588" y="63.338" opacity="0.1" fill="#3D3D3C" enable-background="new    " width="7.52" height="7.713"/>
	<rect x="14.453" y="63.338" opacity="0.1" fill="#3D3D3C" enable-background="new    " width="7.52" height="7.713"/>
	<rect x="255.302" y="63.338" opacity="0.1" fill="#3D3D3C" enable-background="new    " width="7.521" height="7.713"/>
	<rect x="285.382" y="63.338" opacity="0.1" fill="#3D3D3C" enable-background="new    " width="7.521" height="7.713"/>
	<rect x="270.341" y="63.338" opacity="0.1" fill="#3D3D3C" enable-background="new    " width="7.521" height="7.713"/>
	<rect x="300.423" y="63.338" opacity="0.1" fill="#3D3D3C" enable-background="new    " width="7.521" height="7.713"/>
	<rect x="315.462" y="63.338" opacity="0.1" fill="#3D3D3C" enable-background="new    " width="7.521" height="7.713"/>
	<rect x="345.544" y="63.338" opacity="0.1" fill="#3D3D3C" enable-background="new    " width="7.521" height="7.713"/>
	<rect x="330.503" y="63.338" opacity="0.1" fill="#3D3D3C" enable-background="new    " width="7.521" height="7.713"/>
	<polygon opacity="0.1" fill="#3D3D3C" enable-background="new    " points="360.585,47.043 360.585,54.756 366.36,54.756 
		368.106,51.356 368.106,47.043 	"/>
	<polygon opacity="0.1" fill="#3D3D3C" enable-background="new    " points="368.106,39.52 368.106,47.234 370.222,47.234 
		374.185,39.52 	"/>
	<polygon opacity="0.1" fill="#3D3D3C" enable-background="new    " points="382.888,8.662 382.888,16.377 386.069,16.377 
		390.03,8.662 	"/>
	<polygon opacity="0.1" fill="#3D3D3C" enable-background="new    " points="390.03,0.949 390.03,7.904 393.601,0.949 	"/>
	<g opacity="0.1">
		<polygon opacity="0.03" fill="#3D3D3C" enable-background="new    " points="360.585,63.338 360.585,66.435 362.175,63.338 		"/>
		<rect x="360.585" y="71.051" opacity="0.03" fill="#3D3D3C" enable-background="new    " width="7.521" height="0.002"/>
	</g>
	<g opacity="0.1" enable-background="new    ">
		<polygon opacity="0.03" fill="#3D3D3C" enable-background="new    " points="377.409,31.673 375.687,31.673 375.687,34.975 		"/>
		<polygon fill="#3D3D3C" points="375.673,31.83 377.7,31.83 375.687,35.131 		"/>
	</g>
	<g opacity="0.1" enable-background="new    ">
		<polygon opacity="0.03" fill="#3D3D3C" enable-background="new    " points="362.103,62.662 360.38,62.662 360.38,65.965 		"/>
		<polygon fill="#3D3D3C" points="360.366,62.819 362.394,62.819 360.38,66.121 		"/>
	</g>
</g>
<path fill="#F3F0E9" d="M597.235,54.346c0,0-30.02,2.859-63.165-54.346h338.104v72H568.487
	C568.487,72,581.584,57.555,597.235,54.346z"/>
<path fill="#DEDBD6" stroke="#D5D5D3" stroke-miterlimit="10" d="M594.479,54.262c15.437,1.118,18.33-10.609,34.219-27.697
	c7.811-8.398,19.873-7.58,19.873-7.58l11.39,23.75C659.957,42.734,645.43,81.121,594.479,54.262z"/>
<path fill="#DEDBD6" stroke="#D5D5D3" stroke-miterlimit="10" d="M699.323,0.387c-8.215,3.97-15.886,7.679-18.866,9.12
	c-7.602,3.667-25.748,5.847-25.748,5.847l11.39,23.75c0,0,12.458-14.052,20.063-17.727c6.502-3.146,35.329-17.077,43.424-20.989
	L699.323,0.387L699.323,0.387z"/>
</svg>
