<?xml version="1.0" encoding="utf-8"?>
<!-- Generator: Adobe Illustrator 15.1.0, SVG Export Plug-In . SVG Version: 6.00 Build 0)  -->
<!DOCTYPE svg PUBLIC "-//W3C//DTD SVG 1.1//EN" "http://www.w3.org/Graphics/SVG/1.1/DTD/svg11.dtd">
<svg version="1.1" id="Calque_1" xmlns="http://www.w3.org/2000/svg" xmlns:xlink="http://www.w3.org/1999/xlink" x="0px" y="0px"
	 width="872px" height="72px" viewBox="0 0 872 72" enable-background="new 0 0 872 72" xml:space="preserve">
<rect y="-0.021" fill="#4D4D4D" width="872" height="72"/>
<rect x="0.854" y="1.847" opacity="0.06" fill="#9C9B9B" enable-background="new    " width="7.52" height="7.714"/>
<rect x="8.372" y="9.562" opacity="0.06" fill="#9C9B9B" enable-background="new    " width="7.521" height="7.714"/>
<rect x="15.894" y="17.275" opacity="0.06" fill="#9C9B9B" enable-background="new    " width="7.521" height="7.715"/>
<rect x="8.372" y="24.99" opacity="0.06" fill="#9C9B9B" enable-background="new    " width="7.521" height="7.714"/>
<rect x="15.894" y="32.705" opacity="0.06" fill="#9C9B9B" enable-background="new    " width="7.521" height="7.714"/>
<rect x="8.372" y="40.419" opacity="0.06" fill="#9C9B9B" enable-background="new    " width="7.521" height="7.715"/>
<rect x="15.894" y="48.132" opacity="0.06" fill="#9C9B9B" enable-background="new    " width="7.521" height="7.716"/>
<rect x="0.854" y="17.275" opacity="0.06" fill="#9C9B9B" enable-background="new    " width="7.52" height="7.715"/>
<rect x="0.854" y="32.705" opacity="0.06" fill="#9C9B9B" enable-background="new    " width="7.52" height="7.714"/>
<rect x="0.854" y="48.132" opacity="0.06" fill="#9C9B9B" enable-background="new    " width="7.52" height="7.716"/>
<rect x="22.41" y="40.419" opacity="0.06" fill="#9C9B9B" enable-background="new    " width="7.521" height="7.715"/>
<rect x="30.935" y="48.132" opacity="0.06" fill="#9C9B9B" enable-background="new    " width="7.521" height="7.716"/>
<rect x="23.413" y="24.99" opacity="0.06" fill="#9C9B9B" enable-background="new    " width="7.521" height="7.714"/>
<rect x="30.935" y="32.705" opacity="0.06" fill="#9C9B9B" enable-background="new    " width="7.521" height="7.714"/>
<rect x="38.454" y="40.419" opacity="0.06" fill="#9C9B9B" enable-background="new    " width="7.521" height="7.715"/>
<rect x="8.372" y="55.848" opacity="0.06" fill="#9C9B9B" enable-background="new    " width="7.521" height="7.715"/>
<rect x="23.413" y="55.848" opacity="0.06" fill="#9C9B9B" enable-background="new    " width="7.521" height="7.715"/>
<rect x="38.454" y="55.848" opacity="0.06" fill="#9C9B9B" enable-background="new    " width="7.521" height="7.715"/>
<rect x="45.975" y="48.132" opacity="0.06" fill="#9C9B9B" enable-background="new    " width="7.521" height="7.716"/>
<rect x="53.494" y="55.848" opacity="0.06" fill="#9C9B9B" enable-background="new    " width="7.521" height="7.715"/>
<rect x="53.494" y="40.419" opacity="0.06" fill="#9C9B9B" enable-background="new    " width="7.521" height="7.715"/>
<rect x="45.975" y="32.705" opacity="0.06" fill="#9C9B9B" enable-background="new    " width="7.521" height="7.714"/>
<rect x="38.454" y="24.99" opacity="0.06" fill="#9C9B9B" enable-background="new    " width="7.521" height="7.714"/>
<rect x="30.935" y="17.275" opacity="0.06" fill="#9C9B9B" enable-background="new    " width="7.521" height="7.715"/>
<rect x="23.413" y="9.562" opacity="0.06" fill="#9C9B9B" enable-background="new    " width="7.521" height="7.714"/>
<rect x="15.894" y="1.847" opacity="0.06" fill="#9C9B9B" enable-background="new    " width="7.521" height="7.714"/>
<rect x="30.935" y="1.847" opacity="0.06" fill="#9C9B9B" enable-background="new    " width="7.521" height="7.714"/>
<rect x="38.454" y="9.562" opacity="0.06" fill="#9C9B9B" enable-background="new    " width="7.521" height="7.714"/>
<rect x="45.975" y="1.847" opacity="0.06" fill="#9C9B9B" enable-background="new    " width="7.521" height="7.714"/>
<rect x="53.494" y="9.562" opacity="0.06" fill="#9C9B9B" enable-background="new    " width="7.521" height="7.714"/>
<rect x="45.975" y="17.275" opacity="0.06" fill="#9C9B9B" enable-background="new    " width="7.521" height="7.715"/>
<rect x="53.494" y="24.99" opacity="0.06" fill="#9C9B9B" enable-background="new    " width="7.521" height="7.714"/>
<rect x="61.016" y="1.847" opacity="0.06" fill="#9C9B9B" enable-background="new    " width="7.521" height="7.714"/>
<rect x="68.535" y="9.562" opacity="0.06" fill="#9C9B9B" enable-background="new    " width="7.521" height="7.714"/>
<rect x="76.056" y="17.275" opacity="0.06" fill="#9C9B9B" enable-background="new    " width="7.521" height="7.715"/>
<rect x="68.535" y="24.99" opacity="0.06" fill="#9C9B9B" enable-background="new    " width="7.521" height="7.714"/>
<rect x="76.056" y="32.705" opacity="0.06" fill="#9C9B9B" enable-background="new    " width="7.521" height="7.714"/>
<rect x="68.535" y="40.419" opacity="0.06" fill="#9C9B9B" enable-background="new    " width="7.521" height="7.715"/>
<rect x="76.056" y="48.132" opacity="0.06" fill="#9C9B9B" enable-background="new    " width="7.521" height="7.716"/>
<rect x="61.016" y="17.275" opacity="0.06" fill="#9C9B9B" enable-background="new    " width="7.521" height="7.715"/>
<rect x="61.016" y="32.705" opacity="0.06" fill="#9C9B9B" enable-background="new    " width="7.521" height="7.714"/>
<rect x="61.016" y="48.132" opacity="0.06" fill="#9C9B9B" enable-background="new    " width="7.521" height="7.716"/>
<rect x="83.577" y="40.419" opacity="0.06" fill="#9C9B9B" enable-background="new    " width="7.52" height="7.715"/>
<rect x="91.097" y="48.132" opacity="0.06" fill="#9C9B9B" enable-background="new    " width="7.521" height="7.716"/>
<rect x="83.576" y="24.99" opacity="0.06" fill="#9C9B9B" enable-background="new    " width="7.521" height="7.714"/>
<rect x="91.097" y="32.705" opacity="0.06" fill="#9C9B9B" enable-background="new    " width="7.521" height="7.714"/>
<rect x="98.617" y="40.419" opacity="0.06" fill="#9C9B9B" enable-background="new    " width="7.521" height="7.715"/>
<rect x="68.535" y="55.848" opacity="0.06" fill="#9C9B9B" enable-background="new    " width="7.521" height="7.715"/>
<rect x="15.894" y="63.562" opacity="0.06" fill="#9C9B9B" enable-background="new    " width="7.521" height="7.715"/>
<rect x="0.853" y="63.562" opacity="0.06" fill="#9C9B9B" enable-background="new    " width="7.521" height="7.715"/>
<rect x="30.935" y="63.562" opacity="0.06" fill="#9C9B9B" enable-background="new    " width="7.521" height="7.715"/>
<rect x="45.975" y="63.562" opacity="0.06" fill="#9C9B9B" enable-background="new    " width="7.521" height="7.715"/>
<rect x="61.016" y="63.562" opacity="0.06" fill="#9C9B9B" enable-background="new    " width="7.521" height="7.715"/>
<rect x="83.576" y="55.848" opacity="0.06" fill="#9C9B9B" enable-background="new    " width="7.521" height="7.715"/>
<rect x="98.617" y="55.848" opacity="0.06" fill="#9C9B9B" enable-background="new    " width="7.521" height="7.715"/>
<rect x="106.138" y="48.132" opacity="0.06" fill="#9C9B9B" enable-background="new    " width="7.521" height="7.716"/>
<rect x="113.658" y="55.848" opacity="0.06" fill="#9C9B9B" enable-background="new    " width="7.521" height="7.715"/>
<rect x="113.658" y="40.419" opacity="0.06" fill="#9C9B9B" enable-background="new    " width="7.521" height="7.715"/>
<rect x="106.138" y="32.705" opacity="0.06" fill="#9C9B9B" enable-background="new    " width="7.521" height="7.714"/>
<rect x="98.617" y="24.99" opacity="0.06" fill="#9C9B9B" enable-background="new    " width="7.521" height="7.714"/>
<rect x="91.097" y="17.275" opacity="0.06" fill="#9C9B9B" enable-background="new    " width="7.521" height="7.715"/>
<rect x="83.576" y="9.562" opacity="0.06" fill="#9C9B9B" enable-background="new    " width="7.521" height="7.714"/>
<rect x="76.056" y="1.847" opacity="0.06" fill="#9C9B9B" enable-background="new    " width="7.521" height="7.714"/>
<rect x="91.097" y="1.847" opacity="0.06" fill="#9C9B9B" enable-background="new    " width="7.521" height="7.714"/>
<rect x="98.617" y="9.562" opacity="0.06" fill="#9C9B9B" enable-background="new    " width="7.521" height="7.714"/>
<rect x="106.138" y="1.847" opacity="0.06" fill="#9C9B9B" enable-background="new    " width="7.521" height="7.714"/>
<rect x="113.658" y="9.562" opacity="0.06" fill="#9C9B9B" enable-background="new    " width="7.521" height="7.714"/>
<rect x="106.138" y="17.275" opacity="0.06" fill="#9C9B9B" enable-background="new    " width="7.521" height="7.715"/>
<rect x="113.658" y="24.99" opacity="0.06" fill="#9C9B9B" enable-background="new    " width="7.521" height="7.714"/>
<rect x="121.177" y="1.847" opacity="0.06" fill="#9C9B9B" enable-background="new    " width="7.521" height="7.714"/>
<rect x="128.698" y="9.562" opacity="0.06" fill="#9C9B9B" enable-background="new    " width="7.521" height="7.714"/>
<rect x="136.218" y="17.275" opacity="0.06" fill="#9C9B9B" enable-background="new    " width="7.521" height="7.715"/>
<rect x="128.698" y="24.99" opacity="0.06" fill="#9C9B9B" enable-background="new    " width="7.521" height="7.714"/>
<rect x="136.218" y="32.705" opacity="0.06" fill="#9C9B9B" enable-background="new    " width="7.521" height="7.714"/>
<rect x="128.698" y="40.419" opacity="0.06" fill="#9C9B9B" enable-background="new    " width="7.521" height="7.715"/>
<rect x="136.218" y="48.132" opacity="0.06" fill="#9C9B9B" enable-background="new    " width="7.521" height="7.716"/>
<rect x="121.177" y="17.275" opacity="0.06" fill="#9C9B9B" enable-background="new    " width="7.521" height="7.715"/>
<rect x="121.177" y="32.705" opacity="0.06" fill="#9C9B9B" enable-background="new    " width="7.521" height="7.714"/>
<rect x="121.177" y="48.132" opacity="0.06" fill="#9C9B9B" enable-background="new    " width="7.521" height="7.716"/>
<rect x="143.739" y="40.419" opacity="0.06" fill="#9C9B9B" enable-background="new    " width="7.521" height="7.715"/>
<rect x="151.259" y="48.132" opacity="0.06" fill="#9C9B9B" enable-background="new    " width="7.521" height="7.716"/>
<rect x="143.739" y="24.99" opacity="0.06" fill="#9C9B9B" enable-background="new    " width="7.521" height="7.714"/>
<rect x="151.259" y="32.705" opacity="0.06" fill="#9C9B9B" enable-background="new    " width="7.521" height="7.714"/>
<rect x="158.78" y="40.419" opacity="0.06" fill="#9C9B9B" enable-background="new    " width="7.52" height="7.715"/>
<rect x="128.698" y="55.848" opacity="0.06" fill="#9C9B9B" enable-background="new    " width="7.521" height="7.715"/>
<rect x="143.739" y="55.848" opacity="0.06" fill="#9C9B9B" enable-background="new    " width="7.521" height="7.715"/>
<rect x="158.78" y="55.848" opacity="0.06" fill="#9C9B9B" enable-background="new    " width="7.52" height="7.715"/>
<rect x="166.299" y="48.132" opacity="0.06" fill="#9C9B9B" enable-background="new    " width="7.521" height="7.716"/>
<rect x="173.82" y="55.848" opacity="0.06" fill="#9C9B9B" enable-background="new    " width="7.521" height="7.715"/>
<rect x="173.82" y="40.419" opacity="0.06" fill="#9C9B9B" enable-background="new    " width="7.521" height="7.715"/>
<rect x="166.299" y="32.705" opacity="0.06" fill="#9C9B9B" enable-background="new    " width="7.521" height="7.714"/>
<rect x="158.78" y="24.99" opacity="0.06" fill="#9C9B9B" enable-background="new    " width="7.52" height="7.714"/>
<rect x="151.259" y="17.275" opacity="0.06" fill="#9C9B9B" enable-background="new    " width="7.521" height="7.715"/>
<rect x="143.739" y="9.562" opacity="0.06" fill="#9C9B9B" enable-background="new    " width="7.521" height="7.714"/>
<rect x="136.218" y="1.847" opacity="0.06" fill="#9C9B9B" enable-background="new    " width="7.521" height="7.714"/>
<rect x="151.259" y="1.847" opacity="0.06" fill="#9C9B9B" enable-background="new    " width="7.521" height="7.714"/>
<rect x="158.78" y="9.562" opacity="0.06" fill="#9C9B9B" enable-background="new    " width="7.52" height="7.714"/>
<rect x="166.299" y="1.847" opacity="0.06" fill="#9C9B9B" enable-background="new    " width="7.521" height="7.714"/>
<rect x="173.82" y="9.562" opacity="0.06" fill="#9C9B9B" enable-background="new    " width="7.521" height="7.714"/>
<rect x="166.299" y="17.275" opacity="0.06" fill="#9C9B9B" enable-background="new    " width="7.521" height="7.715"/>
<rect x="173.82" y="24.99" opacity="0.06" fill="#9C9B9B" enable-background="new    " width="7.521" height="7.714"/>
<rect x="181.34" y="1.847" opacity="0.06" fill="#9C9B9B" enable-background="new    " width="7.521" height="7.714"/>
<rect x="188.861" y="9.562" opacity="0.06" fill="#9C9B9B" enable-background="new    " width="7.521" height="7.714"/>
<rect x="196.381" y="17.275" opacity="0.06" fill="#9C9B9B" enable-background="new    " width="7.521" height="7.715"/>
<rect x="188.861" y="24.99" opacity="0.06" fill="#9C9B9B" enable-background="new    " width="7.521" height="7.714"/>
<rect x="196.381" y="32.705" opacity="0.06" fill="#9C9B9B" enable-background="new    " width="7.521" height="7.714"/>
<rect x="188.861" y="40.419" opacity="0.06" fill="#9C9B9B" enable-background="new    " width="7.521" height="7.715"/>
<rect x="196.381" y="48.132" opacity="0.06" fill="#9C9B9B" enable-background="new    " width="7.521" height="7.716"/>
<rect x="181.34" y="17.275" opacity="0.06" fill="#9C9B9B" enable-background="new    " width="7.521" height="7.715"/>
<rect x="181.34" y="32.705" opacity="0.06" fill="#9C9B9B" enable-background="new    " width="7.521" height="7.714"/>
<rect x="181.34" y="48.132" opacity="0.06" fill="#9C9B9B" enable-background="new    " width="7.521" height="7.716"/>
<rect x="203.902" y="40.419" opacity="0.06" fill="#9C9B9B" enable-background="new    " width="7.52" height="7.715"/>
<rect x="211.421" y="48.132" opacity="0.06" fill="#9C9B9B" enable-background="new    " width="7.521" height="7.716"/>
<rect x="203.901" y="24.99" opacity="0.06" fill="#9C9B9B" enable-background="new    " width="7.521" height="7.714"/>
<rect x="211.421" y="32.705" opacity="0.06" fill="#9C9B9B" enable-background="new    " width="7.521" height="7.714"/>
<rect x="218.942" y="40.419" opacity="0.06" fill="#9C9B9B" enable-background="new    " width="7.521" height="7.715"/>
<rect x="188.861" y="55.848" opacity="0.06" fill="#9C9B9B" enable-background="new    " width="7.521" height="7.715"/>
<rect x="203.901" y="55.848" opacity="0.06" fill="#9C9B9B" enable-background="new    " width="7.521" height="7.715"/>
<rect x="218.942" y="55.848" opacity="0.06" fill="#9C9B9B" enable-background="new    " width="7.521" height="7.715"/>
<rect x="226.462" y="48.132" opacity="0.06" fill="#9C9B9B" enable-background="new    " width="7.521" height="7.716"/>
<rect x="233.983" y="55.848" opacity="0.06" fill="#9C9B9B" enable-background="new    " width="7.521" height="7.715"/>
<rect x="233.983" y="40.419" opacity="0.06" fill="#9C9B9B" enable-background="new    " width="7.521" height="7.715"/>
<rect x="226.462" y="32.705" opacity="0.06" fill="#9C9B9B" enable-background="new    " width="7.521" height="7.714"/>
<rect x="218.942" y="24.99" opacity="0.06" fill="#9C9B9B" enable-background="new    " width="7.521" height="7.714"/>
<rect x="211.421" y="17.275" opacity="0.06" fill="#9C9B9B" enable-background="new    " width="7.521" height="7.715"/>
<rect x="203.901" y="9.562" opacity="0.06" fill="#9C9B9B" enable-background="new    " width="7.521" height="7.714"/>
<rect x="196.381" y="1.847" opacity="0.06" fill="#9C9B9B" enable-background="new    " width="7.521" height="7.714"/>
<rect x="211.421" y="1.847" opacity="0.06" fill="#9C9B9B" enable-background="new    " width="7.521" height="7.714"/>
<rect x="218.942" y="9.562" opacity="0.06" fill="#9C9B9B" enable-background="new    " width="7.521" height="7.714"/>
<rect x="226.462" y="1.847" opacity="0.06" fill="#9C9B9B" enable-background="new    " width="7.521" height="7.714"/>
<rect x="233.983" y="9.562" opacity="0.06" fill="#9C9B9B" enable-background="new    " width="7.521" height="7.714"/>
<rect x="226.462" y="17.275" opacity="0.06" fill="#9C9B9B" enable-background="new    " width="7.521" height="7.715"/>
<rect x="233.983" y="24.99" opacity="0.06" fill="#9C9B9B" enable-background="new    " width="7.521" height="7.714"/>
<rect x="241.503" y="1.847" opacity="0.06" fill="#9C9B9B" enable-background="new    " width="7.521" height="7.714"/>
<rect x="249.023" y="9.562" opacity="0.06" fill="#9C9B9B" enable-background="new    " width="7.521" height="7.714"/>
<rect x="256.543" y="17.275" opacity="0.06" fill="#9C9B9B" enable-background="new    " width="7.521" height="7.715"/>
<rect x="249.023" y="24.99" opacity="0.06" fill="#9C9B9B" enable-background="new    " width="7.521" height="7.714"/>
<rect x="256.543" y="32.705" opacity="0.06" fill="#9C9B9B" enable-background="new    " width="7.521" height="7.714"/>
<rect x="249.023" y="40.419" opacity="0.06" fill="#9C9B9B" enable-background="new    " width="7.521" height="7.715"/>
<rect x="256.543" y="48.132" opacity="0.06" fill="#9C9B9B" enable-background="new    " width="7.521" height="7.716"/>
<rect x="241.503" y="17.275" opacity="0.06" fill="#9C9B9B" enable-background="new    " width="7.521" height="7.715"/>
<rect x="241.503" y="32.705" opacity="0.06" fill="#9C9B9B" enable-background="new    " width="7.521" height="7.714"/>
<rect x="241.503" y="48.132" opacity="0.06" fill="#9C9B9B" enable-background="new    " width="7.521" height="7.716"/>
<rect x="264.064" y="40.419" opacity="0.06" fill="#9C9B9B" enable-background="new    " width="7.521" height="7.715"/>
<rect x="271.584" y="48.132" opacity="0.06" fill="#9C9B9B" enable-background="new    " width="7.521" height="7.716"/>
<rect x="264.064" y="24.99" opacity="0.06" fill="#9C9B9B" enable-background="new    " width="7.521" height="7.714"/>
<rect x="271.584" y="32.705" opacity="0.06" fill="#9C9B9B" enable-background="new    " width="7.521" height="7.714"/>
<rect x="279.105" y="40.419" opacity="0.06" fill="#9C9B9B" enable-background="new    " width="7.52" height="7.715"/>
<rect x="249.023" y="55.848" opacity="0.06" fill="#9C9B9B" enable-background="new    " width="7.521" height="7.715"/>
<rect x="264.064" y="55.848" opacity="0.06" fill="#9C9B9B" enable-background="new    " width="7.521" height="7.715"/>
<rect x="279.105" y="55.848" opacity="0.06" fill="#9C9B9B" enable-background="new    " width="7.52" height="7.715"/>
<rect x="286.624" y="48.132" opacity="0.06" fill="#9C9B9B" enable-background="new    " width="7.521" height="7.716"/>
<rect x="294.146" y="55.848" opacity="0.06" fill="#9C9B9B" enable-background="new    " width="7.521" height="7.715"/>
<rect x="294.146" y="40.419" opacity="0.06" fill="#9C9B9B" enable-background="new    " width="7.521" height="7.715"/>
<rect x="286.624" y="32.705" opacity="0.06" fill="#9C9B9B" enable-background="new    " width="7.521" height="7.714"/>
<rect x="279.105" y="24.99" opacity="0.06" fill="#9C9B9B" enable-background="new    " width="7.52" height="7.714"/>
<rect x="271.584" y="17.275" opacity="0.06" fill="#9C9B9B" enable-background="new    " width="7.521" height="7.715"/>
<rect x="264.064" y="9.562" opacity="0.06" fill="#9C9B9B" enable-background="new    " width="7.521" height="7.714"/>
<rect x="256.543" y="1.847" opacity="0.06" fill="#9C9B9B" enable-background="new    " width="7.521" height="7.714"/>
<rect x="271.584" y="1.847" opacity="0.06" fill="#9C9B9B" enable-background="new    " width="7.521" height="7.714"/>
<rect x="279.105" y="9.562" opacity="0.06" fill="#9C9B9B" enable-background="new    " width="7.52" height="7.714"/>
<rect x="286.624" y="1.847" opacity="0.06" fill="#9C9B9B" enable-background="new    " width="7.521" height="7.714"/>
<rect x="294.146" y="9.562" opacity="0.06" fill="#9C9B9B" enable-background="new    " width="7.521" height="7.714"/>
<rect x="286.624" y="17.275" opacity="0.06" fill="#9C9B9B" enable-background="new    " width="7.521" height="7.715"/>
<rect x="294.146" y="24.99" opacity="0.06" fill="#9C9B9B" enable-background="new    " width="7.521" height="7.714"/>
<rect x="301.665" y="1.847" opacity="0.06" fill="#9C9B9B" enable-background="new    " width="7.521" height="7.714"/>
<rect x="309.187" y="9.562" opacity="0.06" fill="#9C9B9B" enable-background="new    " width="7.521" height="7.714"/>
<rect x="316.706" y="17.275" opacity="0.06" fill="#9C9B9B" enable-background="new    " width="7.521" height="7.715"/>
<rect x="309.187" y="24.99" opacity="0.06" fill="#9C9B9B" enable-background="new    " width="7.521" height="7.714"/>
<rect x="316.706" y="32.705" opacity="0.06" fill="#9C9B9B" enable-background="new    " width="7.521" height="7.714"/>
<rect x="309.187" y="40.419" opacity="0.06" fill="#9C9B9B" enable-background="new    " width="7.521" height="7.715"/>
<rect x="316.706" y="48.132" opacity="0.06" fill="#9C9B9B" enable-background="new    " width="7.521" height="7.716"/>
<rect x="301.665" y="17.275" opacity="0.06" fill="#9C9B9B" enable-background="new    " width="7.521" height="7.715"/>
<rect x="301.665" y="32.705" opacity="0.06" fill="#9C9B9B" enable-background="new    " width="7.521" height="7.714"/>
<rect x="301.665" y="48.132" opacity="0.06" fill="#9C9B9B" enable-background="new    " width="7.521" height="7.716"/>
<rect x="324.227" y="40.419" opacity="0.06" fill="#9C9B9B" enable-background="new    " width="7.52" height="7.715"/>
<rect x="331.746" y="48.132" opacity="0.06" fill="#9C9B9B" enable-background="new    " width="7.521" height="7.716"/>
<rect x="324.227" y="24.99" opacity="0.06" fill="#9C9B9B" enable-background="new    " width="7.521" height="7.714"/>
<rect x="331.746" y="32.705" opacity="0.06" fill="#9C9B9B" enable-background="new    " width="7.521" height="7.714"/>
<rect x="339.268" y="40.419" opacity="0.06" fill="#9C9B9B" enable-background="new    " width="7.521" height="7.715"/>
<rect x="309.187" y="55.848" opacity="0.06" fill="#9C9B9B" enable-background="new    " width="7.521" height="7.715"/>
<rect x="324.227" y="55.848" opacity="0.06" fill="#9C9B9B" enable-background="new    " width="7.521" height="7.715"/>
<rect x="339.268" y="55.848" opacity="0.06" fill="#9C9B9B" enable-background="new    " width="7.521" height="7.715"/>
<rect x="346.787" y="48.132" opacity="0.06" fill="#9C9B9B" enable-background="new    " width="7.521" height="7.716"/>
<rect x="354.309" y="55.848" opacity="0.06" fill="#9C9B9B" enable-background="new    " width="7.52" height="7.715"/>
<rect x="354.309" y="40.419" opacity="0.06" fill="#9C9B9B" enable-background="new    " width="7.52" height="7.715"/>
<rect x="346.787" y="32.705" opacity="0.06" fill="#9C9B9B" enable-background="new    " width="7.521" height="7.714"/>
<rect x="339.268" y="24.99" opacity="0.06" fill="#9C9B9B" enable-background="new    " width="7.521" height="7.714"/>
<rect x="331.746" y="17.275" opacity="0.06" fill="#9C9B9B" enable-background="new    " width="7.521" height="7.715"/>
<rect x="324.227" y="9.562" opacity="0.06" fill="#9C9B9B" enable-background="new    " width="7.521" height="7.714"/>
<rect x="316.706" y="1.847" opacity="0.06" fill="#9C9B9B" enable-background="new    " width="7.521" height="7.714"/>
<rect x="331.746" y="1.847" opacity="0.06" fill="#9C9B9B" enable-background="new    " width="7.521" height="7.714"/>
<rect x="339.268" y="9.562" opacity="0.06" fill="#9C9B9B" enable-background="new    " width="7.521" height="7.714"/>
<rect x="346.787" y="1.847" opacity="0.06" fill="#9C9B9B" enable-background="new    " width="7.521" height="7.714"/>
<rect x="354.309" y="9.562" opacity="0.06" fill="#9C9B9B" enable-background="new    " width="7.52" height="7.714"/>
<rect x="346.787" y="17.275" opacity="0.06" fill="#9C9B9B" enable-background="new    " width="7.521" height="7.715"/>
<rect x="354.309" y="24.99" opacity="0.06" fill="#9C9B9B" enable-background="new    " width="7.52" height="7.714"/>
<rect x="361.827" y="17.275" opacity="0.06" fill="#9C9B9B" enable-background="new    " width="7.521" height="7.715"/>
<rect x="361.827" y="32.705" opacity="0.06" fill="#9C9B9B" enable-background="new    " width="7.521" height="7.714"/>
<rect x="361.827" y="48.132" opacity="0.06" fill="#9C9B9B" enable-background="new    " width="7.521" height="7.716"/>
<rect x="369.348" y="40.419" opacity="0.06" fill="#9C9B9B" enable-background="new    " width="7.521" height="7.715"/>
<rect x="376.868" y="48.132" opacity="0.06" fill="#9C9B9B" enable-background="new    " width="7.521" height="7.716"/>
<rect x="369.349" y="24.99" opacity="0.06" fill="#9C9B9B" enable-background="new    " width="7.521" height="7.714"/>
<rect x="376.868" y="32.705" opacity="0.06" fill="#9C9B9B" enable-background="new    " width="7.521" height="7.714"/>
<rect x="384.39" y="40.419" opacity="0.06" fill="#9C9B9B" enable-background="new    " width="7.521" height="7.715"/>
<rect x="369.349" y="55.848" opacity="0.06" fill="#9C9B9B" enable-background="new    " width="7.521" height="7.715"/>
<rect x="384.39" y="55.848" opacity="0.06" fill="#9C9B9B" enable-background="new    " width="7.521" height="7.715"/>
<rect x="391.909" y="48.132" opacity="0.06" fill="#9C9B9B" enable-background="new    " width="7.52" height="7.716"/>
<rect x="391.909" y="32.705" opacity="0.06" fill="#9C9B9B" enable-background="new    " width="7.52" height="7.714"/>
<rect x="384.39" y="24.99" opacity="0.06" fill="#9C9B9B" enable-background="new    " width="7.521" height="7.714"/>
<rect x="376.868" y="17.275" opacity="0.06" fill="#9C9B9B" enable-background="new    " width="7.521" height="7.715"/>
<rect x="369.349" y="9.562" opacity="0.06" fill="#9C9B9B" enable-background="new    " width="7.521" height="7.714"/>
<rect x="361.827" y="1.847" opacity="0.06" fill="#9C9B9B" enable-background="new    " width="7.521" height="7.714"/>
<rect x="376.868" y="1.847" opacity="0.06" fill="#9C9B9B" enable-background="new    " width="7.521" height="7.714"/>
<rect x="384.39" y="9.562" opacity="0.06" fill="#9C9B9B" enable-background="new    " width="7.521" height="7.714"/>
<rect x="391.909" y="1.847" opacity="0.06" fill="#9C9B9B" enable-background="new    " width="7.52" height="7.714"/>
<rect x="391.909" y="17.275" opacity="0.06" fill="#9C9B9B" enable-background="new    " width="7.52" height="7.715"/>
<rect x="76.056" y="63.562" opacity="0.06" fill="#9C9B9B" enable-background="new    " width="7.521" height="7.713"/>
<rect x="91.097" y="63.562" opacity="0.06" fill="#9C9B9B" enable-background="new    " width="7.521" height="7.713"/>
<rect x="106.138" y="63.562" opacity="0.06" fill="#9C9B9B" enable-background="new    " width="7.521" height="7.713"/>
<rect x="136.218" y="63.562" opacity="0.06" fill="#9C9B9B" enable-background="new    " width="7.521" height="7.713"/>
<rect x="121.177" y="63.562" opacity="0.06" fill="#9C9B9B" enable-background="new    " width="7.521" height="7.713"/>
<rect x="151.259" y="63.562" opacity="0.06" fill="#9C9B9B" enable-background="new    " width="7.521" height="7.713"/>
<rect x="166.299" y="63.562" opacity="0.06" fill="#9C9B9B" enable-background="new    " width="7.521" height="7.713"/>
<rect x="196.381" y="63.562" opacity="0.06" fill="#9C9B9B" enable-background="new    " width="7.521" height="7.713"/>
<rect x="181.34" y="63.562" opacity="0.06" fill="#9C9B9B" enable-background="new    " width="7.521" height="7.713"/>
<rect x="211.421" y="63.562" opacity="0.06" fill="#9C9B9B" enable-background="new    " width="7.521" height="7.713"/>
<rect x="226.462" y="63.562" opacity="0.06" fill="#9C9B9B" enable-background="new    " width="7.521" height="7.713"/>
<rect x="256.543" y="63.562" opacity="0.06" fill="#9C9B9B" enable-background="new    " width="7.521" height="7.713"/>
<rect x="241.503" y="63.562" opacity="0.06" fill="#9C9B9B" enable-background="new    " width="7.521" height="7.713"/>
<rect x="271.584" y="63.562" opacity="0.06" fill="#9C9B9B" enable-background="new    " width="7.521" height="7.713"/>
<rect x="286.624" y="63.562" opacity="0.06" fill="#9C9B9B" enable-background="new    " width="7.521" height="7.713"/>
<rect x="316.706" y="63.562" opacity="0.06" fill="#9C9B9B" enable-background="new    " width="7.521" height="7.713"/>
<rect x="301.665" y="63.562" opacity="0.06" fill="#9C9B9B" enable-background="new    " width="7.521" height="7.713"/>
<rect x="331.746" y="63.562" opacity="0.06" fill="#9C9B9B" enable-background="new    " width="7.521" height="7.713"/>
<rect x="346.787" y="63.562" opacity="0.06" fill="#9C9B9B" enable-background="new    " width="7.521" height="7.713"/>
<rect x="361.827" y="63.562" opacity="0.06" fill="#9C9B9B" enable-background="new    " width="7.521" height="7.713"/>
<rect x="376.868" y="63.562" opacity="0.06" fill="#9C9B9B" enable-background="new    " width="7.521" height="7.713"/>
<rect x="391.909" y="63.562" opacity="0.06" fill="#9C9B9B" enable-background="new    " width="7.52" height="7.713"/>
<rect x="399.429" y="9.562" opacity="0.06" fill="#9C9B9B" enable-background="new    " width="7.521" height="7.714"/>
<rect x="406.948" y="17.275" opacity="0.06" fill="#9C9B9B" enable-background="new    " width="7.521" height="7.715"/>
<rect x="399.429" y="24.99" opacity="0.06" fill="#9C9B9B" enable-background="new    " width="7.521" height="7.714"/>
<rect x="406.948" y="32.705" opacity="0.06" fill="#9C9B9B" enable-background="new    " width="7.521" height="7.714"/>
<rect x="399.429" y="40.419" opacity="0.06" fill="#9C9B9B" enable-background="new    " width="7.521" height="7.715"/>
<rect x="406.948" y="48.132" opacity="0.06" fill="#9C9B9B" enable-background="new    " width="7.521" height="7.716"/>
<rect x="414.47" y="40.419" opacity="0.06" fill="#9C9B9B" enable-background="new    " width="7.521" height="7.715"/>
<rect x="421.989" y="48.132" opacity="0.06" fill="#9C9B9B" enable-background="new    " width="7.521" height="7.716"/>
<rect x="414.47" y="24.99" opacity="0.06" fill="#9C9B9B" enable-background="new    " width="7.521" height="7.714"/>
<rect x="421.989" y="32.705" opacity="0.06" fill="#9C9B9B" enable-background="new    " width="7.521" height="7.714"/>
<rect x="429.511" y="40.419" opacity="0.06" fill="#9C9B9B" enable-background="new    " width="7.521" height="7.715"/>
<rect x="399.429" y="55.848" opacity="0.06" fill="#9C9B9B" enable-background="new    " width="7.521" height="7.715"/>
<rect x="414.47" y="55.848" opacity="0.06" fill="#9C9B9B" enable-background="new    " width="7.521" height="7.715"/>
<rect x="429.511" y="55.848" opacity="0.06" fill="#9C9B9B" enable-background="new    " width="7.521" height="7.715"/>
<rect x="437.029" y="48.132" opacity="0.06" fill="#9C9B9B" enable-background="new    " width="7.521" height="7.716"/>
<rect x="444.551" y="55.848" opacity="0.06" fill="#9C9B9B" enable-background="new    " width="7.521" height="7.715"/>
<rect x="444.551" y="40.419" opacity="0.06" fill="#9C9B9B" enable-background="new    " width="7.521" height="7.715"/>
<rect x="437.029" y="32.705" opacity="0.06" fill="#9C9B9B" enable-background="new    " width="7.521" height="7.714"/>
<rect x="429.511" y="24.99" opacity="0.06" fill="#9C9B9B" enable-background="new    " width="7.521" height="7.714"/>
<rect x="421.989" y="17.275" opacity="0.06" fill="#9C9B9B" enable-background="new    " width="7.521" height="7.715"/>
<rect x="414.47" y="9.562" opacity="0.06" fill="#9C9B9B" enable-background="new    " width="7.521" height="7.714"/>
<rect x="406.948" y="1.847" opacity="0.06" fill="#9C9B9B" enable-background="new    " width="7.521" height="7.714"/>
<rect x="421.989" y="1.847" opacity="0.06" fill="#9C9B9B" enable-background="new    " width="7.521" height="7.714"/>
<rect x="429.511" y="9.562" opacity="0.06" fill="#9C9B9B" enable-background="new    " width="7.521" height="7.714"/>
<rect x="437.029" y="1.847" opacity="0.06" fill="#9C9B9B" enable-background="new    " width="7.521" height="7.714"/>
<rect x="444.551" y="9.562" opacity="0.06" fill="#9C9B9B" enable-background="new    " width="7.521" height="7.714"/>
<rect x="437.029" y="17.275" opacity="0.06" fill="#9C9B9B" enable-background="new    " width="7.521" height="7.715"/>
<rect x="444.551" y="24.99" opacity="0.06" fill="#9C9B9B" enable-background="new    " width="7.521" height="7.714"/>
<rect x="452.07" y="1.847" opacity="0.06" fill="#9C9B9B" enable-background="new    " width="7.521" height="7.714"/>
<rect x="459.592" y="9.562" opacity="0.06" fill="#9C9B9B" enable-background="new    " width="7.521" height="7.714"/>
<rect x="467.111" y="17.275" opacity="0.06" fill="#9C9B9B" enable-background="new    " width="7.521" height="7.715"/>
<rect x="459.592" y="24.99" opacity="0.06" fill="#9C9B9B" enable-background="new    " width="7.521" height="7.714"/>
<rect x="467.111" y="32.705" opacity="0.06" fill="#9C9B9B" enable-background="new    " width="7.521" height="7.714"/>
<rect x="459.592" y="40.419" opacity="0.06" fill="#9C9B9B" enable-background="new    " width="7.521" height="7.715"/>
<rect x="467.111" y="48.132" opacity="0.06" fill="#9C9B9B" enable-background="new    " width="7.521" height="7.716"/>
<rect x="452.07" y="17.275" opacity="0.06" fill="#9C9B9B" enable-background="new    " width="7.521" height="7.715"/>
<rect x="452.07" y="32.705" opacity="0.06" fill="#9C9B9B" enable-background="new    " width="7.521" height="7.714"/>
<rect x="452.07" y="48.132" opacity="0.06" fill="#9C9B9B" enable-background="new    " width="7.521" height="7.716"/>
<rect x="474.633" y="40.419" opacity="0.06" fill="#9C9B9B" enable-background="new    " width="7.521" height="7.715"/>
<rect x="482.151" y="48.132" opacity="0.06" fill="#9C9B9B" enable-background="new    " width="7.521" height="7.716"/>
<rect x="474.632" y="24.99" opacity="0.06" fill="#9C9B9B" enable-background="new    " width="7.521" height="7.714"/>
<rect x="482.151" y="32.705" opacity="0.06" fill="#9C9B9B" enable-background="new    " width="7.521" height="7.714"/>
<rect x="489.673" y="40.419" opacity="0.06" fill="#9C9B9B" enable-background="new    " width="7.521" height="7.715"/>
<rect x="459.592" y="55.848" opacity="0.06" fill="#9C9B9B" enable-background="new    " width="7.521" height="7.715"/>
<rect x="474.632" y="55.848" opacity="0.06" fill="#9C9B9B" enable-background="new    " width="7.521" height="7.715"/>
<rect x="489.673" y="55.848" opacity="0.06" fill="#9C9B9B" enable-background="new    " width="7.521" height="7.715"/>
<rect x="497.192" y="48.132" opacity="0.06" fill="#9C9B9B" enable-background="new    " width="7.521" height="7.716"/>
<rect x="504.714" y="55.848" opacity="0.06" fill="#9C9B9B" enable-background="new    " width="7.521" height="7.715"/>
<rect x="504.714" y="40.419" opacity="0.06" fill="#9C9B9B" enable-background="new    " width="7.521" height="7.715"/>
<rect x="497.192" y="32.705" opacity="0.06" fill="#9C9B9B" enable-background="new    " width="7.521" height="7.714"/>
<rect x="489.673" y="24.99" opacity="0.06" fill="#9C9B9B" enable-background="new    " width="7.521" height="7.714"/>
<rect x="482.151" y="17.275" opacity="0.06" fill="#9C9B9B" enable-background="new    " width="7.521" height="7.715"/>
<rect x="474.632" y="9.562" opacity="0.06" fill="#9C9B9B" enable-background="new    " width="7.521" height="7.714"/>
<rect x="467.111" y="1.847" opacity="0.06" fill="#9C9B9B" enable-background="new    " width="7.521" height="7.714"/>
<rect x="482.151" y="1.847" opacity="0.06" fill="#9C9B9B" enable-background="new    " width="7.521" height="7.714"/>
<rect x="489.673" y="9.562" opacity="0.06" fill="#9C9B9B" enable-background="new    " width="7.521" height="7.714"/>
<rect x="497.192" y="1.847" opacity="0.06" fill="#9C9B9B" enable-background="new    " width="7.521" height="7.714"/>
<rect x="504.714" y="9.562" opacity="0.06" fill="#9C9B9B" enable-background="new    " width="7.521" height="7.714"/>
<rect x="497.192" y="17.275" opacity="0.06" fill="#9C9B9B" enable-background="new    " width="7.521" height="7.715"/>
<rect x="504.714" y="24.99" opacity="0.06" fill="#9C9B9B" enable-background="new    " width="7.521" height="7.714"/>
<rect x="512.232" y="17.275" opacity="0.06" fill="#9C9B9B" enable-background="new    " width="7.521" height="7.715"/>
<rect x="512.232" y="32.705" opacity="0.06" fill="#9C9B9B" enable-background="new    " width="7.521" height="7.714"/>
<rect x="512.232" y="48.132" opacity="0.06" fill="#9C9B9B" enable-background="new    " width="7.521" height="7.716"/>
<rect x="519.754" y="40.419" opacity="0.06" fill="#9C9B9B" enable-background="new    " width="7.521" height="7.715"/>
<rect x="527.273" y="48.132" opacity="0.06" fill="#9C9B9B" enable-background="new    " width="7.521" height="7.716"/>
<rect x="519.754" y="24.99" opacity="0.06" fill="#9C9B9B" enable-background="new    " width="7.521" height="7.714"/>
<rect x="527.273" y="32.705" opacity="0.06" fill="#9C9B9B" enable-background="new    " width="7.521" height="7.714"/>
<rect x="534.795" y="40.419" opacity="0.06" fill="#9C9B9B" enable-background="new    " width="7.521" height="7.715"/>
<rect x="519.754" y="55.848" opacity="0.06" fill="#9C9B9B" enable-background="new    " width="7.521" height="7.715"/>
<rect x="534.795" y="55.848" opacity="0.06" fill="#9C9B9B" enable-background="new    " width="7.521" height="7.715"/>
<rect x="542.314" y="48.132" opacity="0.06" fill="#9C9B9B" enable-background="new    " width="7.52" height="7.716"/>
<rect x="542.314" y="32.705" opacity="0.06" fill="#9C9B9B" enable-background="new    " width="7.52" height="7.714"/>
<rect x="534.795" y="24.99" opacity="0.06" fill="#9C9B9B" enable-background="new    " width="7.521" height="7.714"/>
<rect x="527.273" y="17.275" opacity="0.06" fill="#9C9B9B" enable-background="new    " width="7.521" height="7.715"/>
<rect x="519.754" y="9.562" opacity="0.06" fill="#9C9B9B" enable-background="new    " width="7.521" height="7.714"/>
<rect x="512.232" y="1.847" opacity="0.06" fill="#9C9B9B" enable-background="new    " width="7.521" height="7.714"/>
<rect x="527.273" y="1.847" opacity="0.06" fill="#9C9B9B" enable-background="new    " width="7.521" height="7.714"/>
<rect x="534.795" y="9.562" opacity="0.06" fill="#9C9B9B" enable-background="new    " width="7.521" height="7.714"/>
<rect x="542.314" y="1.847" opacity="0.06" fill="#9C9B9B" enable-background="new    " width="7.52" height="7.714"/>
<rect x="542.314" y="17.275" opacity="0.06" fill="#9C9B9B" enable-background="new    " width="7.52" height="7.715"/>
<rect x="406.948" y="63.562" opacity="0.06" fill="#9C9B9B" enable-background="new    " width="7.521" height="7.713"/>
<rect x="421.989" y="63.562" opacity="0.06" fill="#9C9B9B" enable-background="new    " width="7.521" height="7.713"/>
<rect x="437.029" y="63.562" opacity="0.06" fill="#9C9B9B" enable-background="new    " width="7.521" height="7.713"/>
<rect x="467.111" y="63.562" opacity="0.06" fill="#9C9B9B" enable-background="new    " width="7.521" height="7.713"/>
<rect x="452.07" y="63.562" opacity="0.06" fill="#9C9B9B" enable-background="new    " width="7.521" height="7.713"/>
<rect x="482.151" y="63.562" opacity="0.06" fill="#9C9B9B" enable-background="new    " width="7.521" height="7.713"/>
<rect x="497.192" y="63.562" opacity="0.06" fill="#9C9B9B" enable-background="new    " width="7.521" height="7.713"/>
<rect x="512.232" y="63.562" opacity="0.06" fill="#9C9B9B" enable-background="new    " width="7.521" height="7.713"/>
<rect x="527.273" y="63.562" opacity="0.06" fill="#9C9B9B" enable-background="new    " width="7.521" height="7.713"/>
<rect x="542.314" y="63.562" opacity="0.06" fill="#9C9B9B" enable-background="new    " width="7.52" height="7.713"/>
<rect x="549.834" y="9.562" opacity="0.06" fill="#9C9B9B" enable-background="new    " width="7.521" height="7.714"/>
<rect x="557.354" y="17.275" opacity="0.06" fill="#9C9B9B" enable-background="new    " width="7.521" height="7.715"/>
<rect x="549.834" y="24.99" opacity="0.06" fill="#9C9B9B" enable-background="new    " width="7.521" height="7.714"/>
<rect x="557.354" y="32.705" opacity="0.06" fill="#9C9B9B" enable-background="new    " width="7.521" height="7.714"/>
<rect x="549.834" y="40.419" opacity="0.06" fill="#9C9B9B" enable-background="new    " width="7.521" height="7.715"/>
<rect x="557.354" y="48.132" opacity="0.06" fill="#9C9B9B" enable-background="new    " width="7.521" height="7.716"/>
<rect x="564.875" y="40.419" opacity="0.06" fill="#9C9B9B" enable-background="new    " width="7.52" height="7.715"/>
<rect x="572.394" y="48.132" opacity="0.06" fill="#9C9B9B" enable-background="new    " width="7.521" height="7.716"/>
<rect x="564.874" y="24.99" opacity="0.06" fill="#9C9B9B" enable-background="new    " width="7.521" height="7.714"/>
<rect x="572.394" y="32.705" opacity="0.06" fill="#9C9B9B" enable-background="new    " width="7.521" height="7.714"/>
<rect x="579.915" y="40.419" opacity="0.06" fill="#9C9B9B" enable-background="new    " width="7.521" height="7.715"/>
<rect x="549.834" y="55.848" opacity="0.06" fill="#9C9B9B" enable-background="new    " width="7.521" height="7.715"/>
<rect x="564.874" y="55.848" opacity="0.06" fill="#9C9B9B" enable-background="new    " width="7.521" height="7.715"/>
<rect x="579.915" y="55.848" opacity="0.06" fill="#9C9B9B" enable-background="new    " width="7.521" height="7.715"/>
<rect x="587.435" y="48.132" opacity="0.06" fill="#9C9B9B" enable-background="new    " width="7.521" height="7.716"/>
<rect x="594.956" y="55.848" opacity="0.06" fill="#9C9B9B" enable-background="new    " width="7.52" height="7.715"/>
<rect x="594.956" y="40.419" opacity="0.06" fill="#9C9B9B" enable-background="new    " width="7.52" height="7.715"/>
<rect x="587.435" y="32.705" opacity="0.06" fill="#9C9B9B" enable-background="new    " width="7.521" height="7.714"/>
<rect x="579.915" y="24.99" opacity="0.06" fill="#9C9B9B" enable-background="new    " width="7.521" height="7.714"/>
<rect x="572.394" y="17.275" opacity="0.06" fill="#9C9B9B" enable-background="new    " width="7.521" height="7.715"/>
<rect x="564.874" y="9.562" opacity="0.06" fill="#9C9B9B" enable-background="new    " width="7.521" height="7.714"/>
<rect x="557.354" y="1.847" opacity="0.06" fill="#9C9B9B" enable-background="new    " width="7.521" height="7.714"/>
<rect x="572.394" y="1.847" opacity="0.06" fill="#9C9B9B" enable-background="new    " width="7.521" height="7.714"/>
<rect x="579.915" y="9.562" opacity="0.06" fill="#9C9B9B" enable-background="new    " width="7.521" height="7.714"/>
<rect x="587.435" y="1.847" opacity="0.06" fill="#9C9B9B" enable-background="new    " width="7.521" height="7.714"/>
<rect x="594.956" y="9.562" opacity="0.06" fill="#9C9B9B" enable-background="new    " width="7.52" height="7.714"/>
<rect x="587.435" y="17.275" opacity="0.06" fill="#9C9B9B" enable-background="new    " width="7.521" height="7.715"/>
<rect x="594.956" y="24.99" opacity="0.06" fill="#9C9B9B" enable-background="new    " width="7.52" height="7.714"/>
<rect x="602.475" y="17.275" opacity="0.06" fill="#9C9B9B" enable-background="new    " width="7.521" height="7.715"/>
<rect x="602.475" y="32.705" opacity="0.06" fill="#9C9B9B" enable-background="new    " width="7.521" height="7.714"/>
<rect x="602.475" y="48.132" opacity="0.06" fill="#9C9B9B" enable-background="new    " width="7.521" height="7.716"/>
<rect x="609.996" y="40.419" opacity="0.06" fill="#9C9B9B" enable-background="new    " width="7.521" height="7.715"/>
<rect x="617.516" y="48.132" opacity="0.06" fill="#9C9B9B" enable-background="new    " width="7.521" height="7.716"/>
<rect x="609.996" y="24.99" opacity="0.06" fill="#9C9B9B" enable-background="new    " width="7.521" height="7.714"/>
<rect x="617.516" y="32.705" opacity="0.06" fill="#9C9B9B" enable-background="new    " width="7.521" height="7.714"/>
<rect x="625.037" y="40.419" opacity="0.06" fill="#9C9B9B" enable-background="new    " width="7.521" height="7.715"/>
<rect x="609.996" y="55.848" opacity="0.06" fill="#9C9B9B" enable-background="new    " width="7.521" height="7.715"/>
<rect x="625.037" y="55.848" opacity="0.06" fill="#9C9B9B" enable-background="new    " width="7.521" height="7.715"/>
<rect x="632.557" y="48.132" opacity="0.06" fill="#9C9B9B" enable-background="new    " width="7.521" height="7.716"/>
<rect x="632.557" y="32.705" opacity="0.06" fill="#9C9B9B" enable-background="new    " width="7.521" height="7.714"/>
<rect x="625.037" y="24.99" opacity="0.06" fill="#9C9B9B" enable-background="new    " width="7.521" height="7.714"/>
<rect x="617.516" y="17.275" opacity="0.06" fill="#9C9B9B" enable-background="new    " width="7.521" height="7.715"/>
<rect x="609.996" y="9.562" opacity="0.06" fill="#9C9B9B" enable-background="new    " width="7.521" height="7.714"/>
<rect x="602.475" y="1.847" opacity="0.06" fill="#9C9B9B" enable-background="new    " width="7.521" height="7.714"/>
<rect x="617.516" y="1.847" opacity="0.06" fill="#9C9B9B" enable-background="new    " width="7.521" height="7.714"/>
<rect x="625.037" y="9.562" opacity="0.06" fill="#9C9B9B" enable-background="new    " width="7.521" height="7.714"/>
<rect x="632.557" y="1.847" opacity="0.06" fill="#9C9B9B" enable-background="new    " width="7.521" height="7.714"/>
<rect x="632.557" y="17.275" opacity="0.06" fill="#9C9B9B" enable-background="new    " width="7.521" height="7.715"/>
<rect x="557.354" y="63.562" opacity="0.06" fill="#9C9B9B" enable-background="new    " width="7.521" height="7.713"/>
<rect x="572.394" y="63.562" opacity="0.06" fill="#9C9B9B" enable-background="new    " width="7.521" height="7.713"/>
<rect x="587.435" y="63.562" opacity="0.06" fill="#9C9B9B" enable-background="new    " width="7.521" height="7.713"/>
<rect x="602.475" y="63.562" opacity="0.06" fill="#9C9B9B" enable-background="new    " width="7.521" height="7.713"/>
<rect x="617.516" y="63.562" opacity="0.06" fill="#9C9B9B" enable-background="new    " width="7.521" height="7.713"/>
<rect x="632.557" y="63.562" opacity="0.06" fill="#9C9B9B" enable-background="new    " width="7.521" height="7.713"/>
<path fill="#7D7D7D" d="M596.884,54.364c0,0-30.017,2.86-63.165-54.344h338.105v72H568.136
	C568.136,72.021,581.232,57.574,596.884,54.364z"/>
<path opacity="0.5" fill="#4D4D4D" enable-background="new    " d="M594.127,54.102c15.434,1.106,18.33-10.506,34.216-27.423
	c7.812-8.314,19.873-7.504,19.873-7.504l11.391,23.516C659.605,42.688,645.078,80.693,594.127,54.102z"/>
<path opacity="0.5" fill="#4D4D4D" enable-background="new    " d="M698.972,0.759c-8.215,3.931-15.886,7.603-18.866,9.03
	c-7.602,3.631-25.747,5.789-25.747,5.789l11.39,23.513c0,0,12.458-13.912,20.062-17.55c6.502-3.115,35.329-16.908,43.425-20.782
	H698.972z"/>
</svg>
