<?xml version="1.0" encoding="utf-8"?>
<!-- Generator: Adobe Illustrator 15.1.0, SVG Export Plug-In . SVG Version: 6.00 Build 0)  -->
<!DOCTYPE svg PUBLIC "-//W3C//DTD SVG 1.1//EN" "http://www.w3.org/Graphics/SVG/1.1/DTD/svg11.dtd">
<svg version="1.1" id="Calque_1" xmlns="http://www.w3.org/2000/svg" xmlns:xlink="http://www.w3.org/1999/xlink" x="0px" y="0px"
	 width="22px" height="22px" viewBox="0 0 22 22" enable-background="new 0 0 22 22" xml:space="preserve">
<g>
	<rect x="3.3" y="2.588" fill="#B2AFAC" stroke="#D6D6D4" stroke-miterlimit="10" width="15.927" height="15.928"/>
	<rect x="3.3" y="2.588" fill="none" stroke="#93908D" stroke-width="2" width="15.927" height="15.928"/>
	<g>
		<rect x="17.123" y="0.551" fill="#B2AFAC" width="4.081" height="4.082"/>
		<path fill="#93908D" d="M20.204,1.551v2.082h-2.081V1.551H20.204 M22.204-0.449h-6.081v6.082h6.081V-0.449L22.204-0.449z"/>
	</g>
	<g>
		<rect x="17.123" y="16.469" fill="#B2AFAC" width="4.081" height="4.082"/>
		<path fill="#93908D" d="M20.204,17.469v2.082h-2.081v-2.082H20.204 M22.204,15.469h-6.081v6.082h6.081V15.469L22.204,15.469z"/>
	</g>
	<g>
		<rect x="1.259" y="16.469" fill="#B2AFAC" width="4.081" height="4.082"/>
		<path fill="#93908D" d="M4.34,17.469v2.082H2.259v-2.082H4.34 M6.34,15.469H0.259v6.082H6.34V15.469L6.34,15.469z"/>
	</g>
	<g>
		<rect x="1.259" y="0.551" fill="#B2AFAC" width="4.081" height="4.082"/>
		<path fill="#93908D" d="M4.34,1.551v2.082H2.259V1.551H4.34 M6.34-0.449H0.259v6.082H6.34V-0.449L6.34-0.449z"/>
	</g>
</g>
</svg>
