<?xml version="1.0" encoding="utf-8"?>
<!-- Generator: Adobe Illustrator 15.1.0, SVG Export Plug-In . SVG Version: 6.00 Build 0)  -->
<!DOCTYPE svg PUBLIC "-//W3C//DTD SVG 1.1//EN" "http://www.w3.org/Graphics/SVG/1.1/DTD/svg11.dtd">
<svg version="1.1" id="Calque_1" xmlns="http://www.w3.org/2000/svg" xmlns:xlink="http://www.w3.org/1999/xlink" x="0px" y="0px"
	 width="81px" height="81px" viewBox="0 0 81 81" enable-background="new 0 0 81 81" xml:space="preserve">
<g>
	<polyline fill="none" stroke="#2F728E" stroke-width="4" points="3.552,67.561 25.173,49.766 45.915,76.98 54.346,63.866 	"/>
	<g>
		<rect x="21.712" y="45.996" fill="#3E98C0" width="7.537" height="7.539"/>
		<path fill="#2F728E" d="M28.403,46.842v5.847h-5.847v-5.847H28.403 M31.096,44.149H19.865v11.232h11.231V44.149L31.096,44.149z"/>
	</g>
	<g>
		<rect x="1.703" y="63.329" fill="#3E98C0" width="7.537" height="7.539"/>
		<path fill="#2F728E" d="M8.394,64.175v5.847H2.547v-5.847H8.394 M11.087,61.482H-0.144v11.232h11.231V61.482L11.087,61.482z"/>
	</g>
	<g>
		<rect x="42.327" y="71.614" fill="#3E98C0" width="7.536" height="7.539"/>
		<path fill="#2F728E" d="M49.018,72.46v5.847h-5.846V72.46H49.018 M51.711,69.768H40.48V81h11.23V69.768L51.711,69.768z"/>
	</g>
	<g>
		<rect x="51.711" y="57.229" fill="#3E98C0" width="7.536" height="7.539"/>
		<path fill="#2F728E" d="M58.401,58.074v5.847h-5.846v-5.847H58.401 M61.095,55.382h-11.23v11.232h11.23V55.382L61.095,55.382z"/>
	</g>
</g>
<g>
	
		<rect x="5.472" y="5.415" opacity="0.44" fill="#3E98C0" stroke="#2F728E" enable-background="new    " width="29.393" height="29.393"/>
	<rect x="5.472" y="5.415" fill="none" stroke="#2F728E" stroke-width="4" width="29.393" height="29.395"/>
	<g>
		<rect x="31.096" y="31.042" fill="#3E98C0" width="7.537" height="7.539"/>
		<path fill="#2F728E" d="M37.788,31.887v5.846H31.94v-5.846H37.788 M40.48,29.194H29.25v11.233h11.23V29.194L40.48,29.194z"/>
	</g>
	<g>
		<rect x="31.096" y="1.847" fill="#3E98C0" width="7.537" height="7.539"/>
		<path fill="#2F728E" d="M37.788,2.692v5.846H31.94V2.692H37.788 M40.48,0H29.25v11.233h11.23V0L40.48,0z"/>
	</g>
	<g>
		<rect x="1.703" y="1.847" fill="#3E98C0" width="7.537" height="7.539"/>
		<path fill="#2F728E" d="M8.395,2.692v5.846H2.547V2.692H8.395 M11.087,0h-11.23v11.233h11.23V0L11.087,0z"/>
	</g>
	<g>
		<rect x="1.703" y="31.039" fill="#3E98C0" width="7.537" height="7.539"/>
		<path fill="#2F728E" d="M8.395,31.884v5.846H2.547v-5.846H8.395 M11.087,29.192h-11.23v11.233h11.23V29.192L11.087,29.192z"/>
	</g>
</g>
<g>
	<rect x="64.977" y="4.513" fill="#3E98C0" width="7.536" height="7.539"/>
	<path fill="#2F728E" d="M71.667,5.358v5.847H65.82V5.358H71.667 M74.36,2.666H63.129v11.232H74.36V2.666L74.36,2.666z"/>
</g>
<g>
	<rect x="52.865" y="19.807" fill="#3E98C0" width="7.536" height="7.539"/>
	<path fill="#2F728E" d="M59.556,20.652v5.847h-5.847v-5.847H59.556 M62.249,17.959H51.018v11.232h11.231V17.959L62.249,17.959z"/>
</g>
<g>
	<rect x="71.616" y="29.192" fill="#3E98C0" width="7.536" height="7.539"/>
	<path fill="#2F728E" d="M78.307,30.038v5.847H72.46v-5.847H78.307 M81,27.345H69.769v11.232H81V27.345L81,27.345z"/>
</g>
</svg>
