<?xml version="1.0" encoding="utf-8"?>
<!-- Generator: Adobe Illustrator 15.1.0, SVG Export Plug-In . SVG Version: 6.00 Build 0)  -->
<!DOCTYPE svg PUBLIC "-//W3C//DTD SVG 1.1//EN" "http://www.w3.org/Graphics/SVG/1.1/DTD/svg11.dtd">
<svg version="1.1" id="Calque_1" xmlns="http://www.w3.org/2000/svg" xmlns:xlink="http://www.w3.org/1999/xlink" x="0px" y="0px"
	 width="81px" height="81px" viewBox="0 0 81 81" enable-background="new 0 0 81 81" xml:space="preserve">
<g>
	<polyline fill="none" stroke="#2F728E" stroke-width="2" points="3.552,67.56 25.173,49.766 45.915,76.98 54.346,63.866 	"/>
	<g>
		<rect x="52.457" y="58.621" fill="#3E98C0" width="6.023" height="6.025"/>
		<path fill="#2F728E" d="M57.805,59.297v4.673h-4.673v-4.673H57.805 M59.956,57.146h-8.975v8.977h8.975V57.146L59.956,57.146z"/>
	</g>
	<g>
		<rect x="43.08" y="73.499" fill="#3E98C0" width="6.023" height="6.025"/>
		<path fill="#2F728E" d="M48.428,74.175v4.673h-4.673v-4.673H48.428 M50.579,72.023h-8.975V81h8.975V72.023L50.579,72.023z"/>
	</g>
	<g>
		<rect x="21.644" y="46.753" fill="#3E98C0" width="6.023" height="6.025"/>
		<path fill="#2F728E" d="M26.991,47.429v4.673h-4.673v-4.673H26.991 M29.143,45.277h-8.975v8.977h8.975V45.277L29.143,45.277z"/>
	</g>
	<g>
		<rect x="1.335" y="64.522" fill="#3E98C0" width="6.023" height="6.025"/>
		<path fill="#2F728E" d="M6.683,65.198v4.673H2.01v-4.673H6.683 M8.834,63.047h-8.975v8.977h8.975V63.047L8.834,63.047z"/>
	</g>
</g>
<g>
	
		<rect x="4.487" y="4.488" opacity="0.44" fill="#3E98C0" stroke="#2F728E" stroke-width="2" enable-background="new    " width="29.393" height="29.393"/>
	<rect x="4.487" y="4.488" fill="none" stroke="#2F728E" stroke-width="2" width="29.393" height="29.395"/>
	<g>
		<rect x="30.868" y="30.871" fill="#3E98C0" width="6.023" height="6.025"/>
		<path fill="#2F728E" d="M36.216,31.547v4.672h-4.673v-4.672H36.216 M38.367,29.395h-8.975v8.977h8.975V29.395L38.367,29.395z"/>
	</g>
	<g>
		<rect x="30.868" y="1.477" fill="#3E98C0" width="6.023" height="6.025"/>
		<path fill="#2F728E" d="M36.216,2.152v4.672h-4.673V2.152H36.216 M38.367,0h-8.975v8.977h8.975V0L38.367,0z"/>
	</g>
	<g>
		<rect x="1.476" y="1.477" fill="#3E98C0" width="6.023" height="6.025"/>
		<path fill="#2F728E" d="M6.823,2.152v4.672H2.15V2.152H6.823 M8.975,0H0v8.977h8.975V0L8.975,0z"/>
	</g>
	<g>
		<rect x="1.476" y="30.872" fill="#3E98C0" width="6.023" height="6.025"/>
		<path fill="#2F728E" d="M6.823,31.547v4.672H2.15v-4.672H6.823 M8.975,29.395H0v8.977h8.975V29.395L8.975,29.395z"/>
	</g>
</g>
<g>
	<rect x="52.457" y="18.985" fill="#3E98C0" width="6.023" height="6.025"/>
	<path fill="#2F728E" d="M57.805,19.661v4.673h-4.673v-4.673H57.805 M59.956,17.509h-8.975v8.977h8.975V17.509L59.956,17.509z"/>
</g>
<g>
	<rect x="62.612" y="4.689" fill="#3E98C0" width="6.023" height="6.025"/>
	<path fill="#2F728E" d="M67.96,5.365v4.673h-4.673V5.365H67.96 M70.111,3.213h-8.975v8.977h8.975V3.213L70.111,3.213z"/>
</g>
<g>
	<rect x="73.501" y="28.666" fill="#3E98C0" width="6.023" height="6.025"/>
	<path fill="#2F728E" d="M78.849,29.341v4.673h-4.673v-4.673H78.849 M81,27.19h-8.975v8.977H81V27.19L81,27.19z"/>
</g>
</svg>
