<?xml version="1.0" encoding="utf-8"?>
<!-- Generator: Adobe Illustrator 15.1.0, SVG Export Plug-In . SVG Version: 6.00 Build 0)  -->
<!DOCTYPE svg PUBLIC "-//W3C//DTD SVG 1.1//EN" "http://www.w3.org/Graphics/SVG/1.1/DTD/svg11.dtd" [
	<!ENTITY ns_extend "http://ns.adobe.com/Extensibility/1.0/">
	<!ENTITY ns_ai "http://ns.adobe.com/AdobeIllustrator/10.0/">
	<!ENTITY ns_graphs "http://ns.adobe.com/Graphs/1.0/">
	<!ENTITY ns_vars "http://ns.adobe.com/Variables/1.0/">
	<!ENTITY ns_imrep "http://ns.adobe.com/ImageReplacement/1.0/">
	<!ENTITY ns_sfw "http://ns.adobe.com/SaveForWeb/1.0/">
	<!ENTITY ns_custom "http://ns.adobe.com/GenericCustomNamespace/1.0/">
	<!ENTITY ns_adobe_xpath "http://ns.adobe.com/XPath/1.0/">
]>
<svg version="1.1" id="Calque_1" xmlns:x="&ns_extend;" xmlns:i="&ns_ai;" xmlns:graph="&ns_graphs;"
	 xmlns="http://www.w3.org/2000/svg" xmlns:xlink="http://www.w3.org/1999/xlink" x="0px" y="0px" width="872px" height="72px"
	 viewBox="0 0 872 72" enable-background="new 0 0 872 72" xml:space="preserve">
<metadata>
	<sfw  xmlns="&ns_sfw;">
		<slices></slices>
		<sliceSourceBounds  y="37.548" x="-256.5" width="872.765" height="72.412" bottomLeftOrigin="true"></sliceSourceBounds>
	</sfw>
</metadata>
<rect x="-1" y="-1.083" fill="#4D4D4D" width="872" height="72"/>
<rect x="816.357" y="13.08" transform="matrix(1 0.0048 -0.0048 1 0.0796 -3.9343)" opacity="0.13" fill="#3D3D3C" stroke="#000000" stroke-width="2" enable-background="new    " width="2.943" height="2.987"/>
<rect x="803.823" y="38.265" transform="matrix(1 0.0046 -0.0046 1 0.1934 -3.7401)" opacity="0.13" fill="#3D3D3C" stroke="#000000" stroke-width="2" enable-background="new    " width="2.943" height="2.988"/>
<rect x="796.77" y="22.941" transform="matrix(1 0.0046 -0.0046 1 0.1221 -3.7063)" opacity="0.13" fill="#3D3D3C" stroke="#000000" stroke-width="2" enable-background="new    " width="2.944" height="2.986"/>
<rect x="858.753" y="32.112" transform="matrix(1 0.0046 -0.0046 1 0.1653 -3.994)" opacity="0.13" fill="#3D3D3C" stroke="#000000" stroke-width="2" enable-background="new    " width="2.944" height="2.986"/>
<rect x="838.293" y="38.365" transform="matrix(1 0.0053 -0.0053 1 0.2232 -4.4529)" opacity="0.13" fill="#3D3D3C" stroke="#000000" stroke-width="2" enable-background="new    " width="2.946" height="2.986"/>
<rect x="721.119" y="50.511" transform="matrix(1 0.0046 -0.0046 1 0.2491 -3.3525)" opacity="0.13" fill="#3D3D3C" stroke="#000000" stroke-width="2" enable-background="new    " width="2.946" height="2.986"/>
<rect x="758.704" y="36.76" transform="matrix(1 0.0046 -0.0046 1 0.1858 -3.5294)" opacity="0.13" fill="#3D3D3C" stroke="#000000" stroke-width="2" enable-background="new    " width="2.944" height="2.986"/>
<rect x="740.95" y="28.749" transform="matrix(1 0.0048 -0.0048 1 0.1539 -3.5678)" opacity="0.13" fill="#3D3D3C" stroke="#000000" stroke-width="2" enable-background="new    " width="2.946" height="2.987"/>
<rect x="770.735" y="3.263" transform="matrix(1 0.0045 -0.0045 1 0.0291 -3.4587)" opacity="0.13" fill="#3D3D3C" stroke="#000000" stroke-width="2" enable-background="new    " width="2.943" height="2.987"/>
<rect x="687.52" y="14.592" transform="matrix(1 0.0045 -0.0045 1 0.0789 -3.0828)" opacity="0.13" fill="#3D3D3C" stroke="#000000" stroke-width="2" enable-background="new    " width="2.946" height="2.988"/>
<rect x="619.398" y="41.249" transform="matrix(1 0.0043 -0.0043 1 0.1899 -2.6749)" opacity="0.13" fill="#3D3D3C" stroke="#000000" stroke-width="2" enable-background="new    " width="2.946" height="2.987"/>
<rect x="606.835" y="6.55" transform="matrix(1 0.0048 -0.0048 1 0.0457 -2.9254)" opacity="0.13" fill="#3D3D3C" stroke="#000000" stroke-width="2" enable-background="new    " width="2.944" height="2.986"/>
<rect x="572.754" y="47.551" transform="matrix(1 0.0046 -0.0046 1 0.2339 -2.6667)" opacity="0.13" fill="#3D3D3C" stroke="#000000" stroke-width="2" enable-background="new    " width="2.943" height="2.985"/>
<rect x="528.154" y="8.061" transform="matrix(1 0.0045 -0.0045 1 0.048 -2.3698)" opacity="0.13" fill="#3D3D3C" stroke="#000000" stroke-width="2" enable-background="new    " width="2.946" height="2.987"/>
<rect x="545.194" y="16.044" transform="matrix(1 0.005 -0.005 1 0.094 -2.7186)" opacity="0.13" fill="#3D3D3C" stroke="#000000" stroke-width="2" enable-background="new    " width="2.945" height="2.986"/>
<rect x="533.698" y="51.294" transform="matrix(1 0.0046 -0.0046 1 0.2509 -2.4844)" opacity="0.13" fill="#3D3D3C" stroke="#000000" stroke-width="2" enable-background="new    " width="2.944" height="2.986"/>
<rect x="559.381" y="30.239" transform="matrix(1 0.0048 -0.0048 1 0.159 -2.6951)" opacity="0.13" fill="#3D3D3C" stroke="#000000" stroke-width="2" enable-background="new    " width="2.946" height="2.987"/>
<rect x="504.095" y="49.042" transform="matrix(1 0.0046 -0.0046 1 0.24 -2.3455)" opacity="0.13" fill="#3D3D3C" stroke="#000000" stroke-width="2" enable-background="new    " width="2.946" height="2.988"/>
<rect x="651.438" y="6.551" transform="matrix(1 0.0048 -0.0048 1 0.0463 -3.1389)" opacity="0.13" fill="#3D3D3C" stroke="#000000" stroke-width="2" enable-background="new    " width="2.945" height="2.986"/>
<rect x="701.704" y="60.229" transform="matrix(1 0.0046 -0.0046 1 0.2939 -3.2623)" opacity="0.13" fill="#3D3D3C" stroke="#000000" stroke-width="2" enable-background="new    " width="2.946" height="2.985"/>
<polyline opacity="0.13" fill="none" stroke="#000000" stroke-width="2" enable-background="new    " points="500.05,19.025 
	547.627,43.741 598.077,39.676 619.396,14.524 668.529,21.043 688.074,-0.793 "/>
<polyline opacity="0.13" fill="none" stroke="#000000" stroke-width="2" enable-background="new    " points="619.396,70.243 
	651.43,38.342 740.378,41.271 759.654,54.8 798.243,-0.793 "/>
<polyline opacity="0.13" fill="none" stroke="#000000" stroke-width="2" enable-background="new    " points="871,63.157 
	831.967,16.831 816.854,57.238 777.696,54.8 766.661,70.243 "/>
<polygon fill="#5B5B5B" points="572.545,-1.083 536.649,70.665 -0.676,70.917 -0.655,-1.083 "/>
<path opacity="0.13" fill="none" stroke="#000000" stroke-width="0.75" enable-background="new    " d="M728.695,0.611"/>
<rect x="656.215" y="50.512" transform="matrix(1 0.0053 -0.0053 1 0.2852 -3.4883)" opacity="0.13" fill="#3D3D3C" stroke="#000000" stroke-width="2" enable-background="new    " width="2.945" height="2.984"/>
<rect x="707.347" y="8.078" transform="matrix(1 0.0046 -0.0046 1 0.0521 -3.2901)" opacity="0.13" fill="#3D3D3C" stroke="#000000" stroke-width="2" enable-background="new    " width="2.945" height="2.987"/>
</svg>
