<?xml version="1.0" encoding="utf-8"?>
<!-- Generator: Adobe Illustrator 15.1.0, SVG Export Plug-In . SVG Version: 6.00 Build 0)  -->
<!DOCTYPE svg PUBLIC "-//W3C//DTD SVG 1.1//EN" "http://www.w3.org/Graphics/SVG/1.1/DTD/svg11.dtd">
<svg version="1.1" id="Calque_1" xmlns="http://www.w3.org/2000/svg" xmlns:xlink="http://www.w3.org/1999/xlink" x="0px" y="0px"
	 width="22px" height="22px" viewBox="-4 -2 22 22" enable-background="new -4 -2 22 22" xml:space="preserve">
<g>
	<polyline fill="none" stroke="#2C718D" stroke-width="2" points="-0.417,15.199 5.917,4.588 13.542,9.895 	"/>
	<g>
		<rect x="-2.945" y="12.041" fill="#3E98C0" width="4.163" height="4.166"/>
		<path fill="#2C718D" d="M0.218,13.041v2.166h-2.163v-2.166H0.218 M2.218,11.041h-6.163v6.166h6.163V11.041L2.218,11.041z"/>
	</g>
	<g>
		<rect x="3.643" y="1.794" fill="#3E98C0" width="4.081" height="4.08"/>
		<path fill="#2C718D" d="M6.724,2.794v2.08H4.643v-2.08H6.724 M8.724,0.794H2.643v6.08h6.081V0.794L8.724,0.794z"/>
	</g>
	<g>
		<rect x="12.864" y="7.874" fill="#3E98C0" width="4.081" height="4.082"/>
		<path fill="#2C718D" d="M15.945,8.874v2.082h-2.081V8.874H15.945 M17.945,6.874h-6.081v6.082h6.081V6.874L17.945,6.874z"/>
	</g>
</g>
</svg>
