<?xml version="1.0" encoding="utf-8"?>
<!-- Generator: Adobe Illustrator 15.1.0, SVG Export Plug-In . SVG Version: 6.00 Build 0)  -->
<!DOCTYPE svg PUBLIC "-//W3C//DTD SVG 1.1//EN" "http://www.w3.org/Graphics/SVG/1.1/DTD/svg11.dtd" [
	<!ENTITY ns_extend "http://ns.adobe.com/Extensibility/1.0/">
	<!ENTITY ns_ai "http://ns.adobe.com/AdobeIllustrator/10.0/">
	<!ENTITY ns_graphs "http://ns.adobe.com/Graphs/1.0/">
	<!ENTITY ns_vars "http://ns.adobe.com/Variables/1.0/">
	<!ENTITY ns_imrep "http://ns.adobe.com/ImageReplacement/1.0/">
	<!ENTITY ns_sfw "http://ns.adobe.com/SaveForWeb/1.0/">
	<!ENTITY ns_custom "http://ns.adobe.com/GenericCustomNamespace/1.0/">
	<!ENTITY ns_adobe_xpath "http://ns.adobe.com/XPath/1.0/">
]>
<svg version="1.1" id="Calque_1" xmlns:x="&ns_extend;" xmlns:i="&ns_ai;" xmlns:graph="&ns_graphs;"
	 xmlns="http://www.w3.org/2000/svg" xmlns:xlink="http://www.w3.org/1999/xlink" x="0px" y="0px" width="872px" height="72px"
	 viewBox="-1 -0.583 872 72" enable-background="new -1 -0.583 872 72" xml:space="preserve">
<metadata>
	<sfw  xmlns="&ns_sfw;">
		<slices></slices>
		<sliceSourceBounds  y="342.466" x="75.5" width="872.765" height="72.412" bottomLeftOrigin="true"></sliceSourceBounds>
	</sfw>
</metadata>
<rect x="-1" y="-0.583" fill="#D6ECF6" width="872" height="72"/>
<rect x="816.367" y="13.572" transform="matrix(-1 -0.0048 0.0048 -1 1635.5948 34.0648)" opacity="0.13" fill="#3D3D3C" stroke="#000000" stroke-width="2" enable-background="new    " width="2.943" height="2.987"/>
<rect x="803.833" y="38.73" transform="matrix(-1 -0.0046 0.0046 -1 1610.4159 84.1871)" opacity="0.13" fill="#3D3D3C" stroke="#000000" stroke-width="2" enable-background="new    " width="2.944" height="2.988"/>
<rect x="796.779" y="23.408" transform="matrix(-1 -0.0046 0.0046 -1 1596.3787 53.5069)" opacity="0.13" fill="#3D3D3C" stroke="#000000" stroke-width="2" enable-background="new    " width="2.945" height="2.986"/>
<rect x="858.764" y="32.575" transform="matrix(-1 -0.0046 0.0046 -1 1720.3052 72.1297)" opacity="0.13" fill="#3D3D3C" stroke="#000000" stroke-width="2" enable-background="new    " width="2.944" height="2.986"/>
<rect x="838.303" y="38.889" transform="matrix(-1 -0.005 0.005 -1 1679.3416 84.9394)" opacity="0.13" fill="#3D3D3C" stroke="#000000" stroke-width="2" enable-background="new    " width="2.946" height="2.987"/>
<rect x="721.126" y="51.031" transform="matrix(-1 -0.005 0.005 -1 1444.9292 108.6409)" opacity="0.13" fill="#3D3D3C" stroke="#000000" stroke-width="2" enable-background="new    " width="2.946" height="2.986"/>
<rect x="758.714" y="37.227" transform="matrix(-1 -0.0046 0.0046 -1 1520.1851 80.9698)" opacity="0.13" fill="#3D3D3C" stroke="#000000" stroke-width="2" enable-background="new    " width="2.944" height="2.986"/>
<rect x="740.958" y="29.244" transform="matrix(-1 -0.0048 0.0048 -1 1484.707 65.0438)" opacity="0.13" fill="#3D3D3C" stroke="#000000" stroke-width="2" enable-background="new    " width="2.946" height="2.987"/>
<rect x="770.744" y="3.73" transform="matrix(-1 -0.0046 0.0046 -1 1544.3992 14.0329)" opacity="0.13" fill="#3D3D3C" stroke="#000000" stroke-width="2" enable-background="new    " width="2.944" height="2.987"/>
<rect x="687.528" y="15.064" transform="matrix(-1 -0.0046 0.0046 -1 1377.9177 36.3136)" opacity="0.13" fill="#3D3D3C" stroke="#000000" stroke-width="2" enable-background="new    " width="2.946" height="2.988"/>
<rect x="619.407" y="41.724" transform="matrix(-1 -0.0046 0.0046 -1 1241.5525 89.3161)" opacity="0.13" fill="#3D3D3C" stroke="#000000" stroke-width="2" enable-background="new    " width="2.946" height="2.987"/>
<rect x="606.842" y="7.045" transform="matrix(-1 -0.0048 0.0048 -1 1216.5818 20.0006)" opacity="0.13" fill="#3D3D3C" stroke="#000000" stroke-width="2" enable-background="new    " width="2.945" height="2.986"/>
<rect x="572.763" y="48.025" transform="matrix(-1 -0.0046 0.0046 -1 1148.2335 101.702)" opacity="0.13" fill="#3D3D3C" stroke="#000000" stroke-width="2" enable-background="new    " width="2.943" height="2.985"/>
<rect x="528.161" y="8.541" transform="matrix(-1 -0.0046 0.0046 -1 1059.2153 22.5254)" opacity="0.13" fill="#3D3D3C" stroke="#000000" stroke-width="2" enable-background="new    " width="2.946" height="2.987"/>
<rect x="545.2" y="16.559" transform="matrix(-1 -0.005 0.005 -1 1093.2491 38.8223)" opacity="0.13" fill="#3D3D3C" stroke="#000000" stroke-width="2" enable-background="new    " width="2.946" height="2.986"/>
<rect x="533.707" y="51.771" transform="matrix(-1 -0.0046 0.0046 -1 1070.1042 109.0137)" opacity="0.13" fill="#3D3D3C" stroke="#000000" stroke-width="2" enable-background="new    " width="2.944" height="2.987"/>
<rect x="559.388" y="30.736" transform="matrix(-1 -0.0048 0.0048 -1 1121.5613 67.1541)" opacity="0.13" fill="#3D3D3C" stroke="#000000" stroke-width="2" enable-background="new    " width="2.946" height="2.987"/>
<rect x="504.103" y="49.522" transform="matrix(-1 -0.0046 0.0046 -1 1010.9102 104.3777)" opacity="0.13" fill="#3D3D3C" stroke="#000000" stroke-width="2" enable-background="new    " width="2.946" height="2.988"/>
<rect x="651.445" y="7.047" transform="matrix(-1 -0.0048 0.0048 -1 1305.7874 20.2183)" opacity="0.13" fill="#3D3D3C" stroke="#000000" stroke-width="2" enable-background="new    " width="2.946" height="2.986"/>
<rect x="701.714" y="60.701" transform="matrix(-1 -0.0046 0.0046 -1 1406.0789 127.649)" opacity="0.13" fill="#3D3D3C" stroke="#000000" stroke-width="2" enable-background="new    " width="2.946" height="2.985"/>
<polyline opacity="0.13" fill="none" stroke="#000000" stroke-width="2" enable-background="new    " points="500.05,19.525 
	547.627,44.241 598.078,40.176 619.396,15.024 668.53,21.543 688.075,-0.293 "/>
<polyline opacity="0.13" fill="none" stroke="#000000" stroke-width="2" enable-background="new    " points="619.396,70.743 
	651.43,38.842 740.378,41.771 759.655,55.3 798.244,-0.293 "/>
<polyline opacity="0.13" fill="none" stroke="#000000" stroke-width="2" enable-background="new    " points="871,63.657 
	831.967,17.331 816.855,57.738 777.697,55.3 766.662,70.743 "/>
<polygon fill="#EFF6F7" points="520.327,-0.583 483.53,71.165 -0.676,71.417 -0.655,-0.583 "/>
<path opacity="0.13" fill="none" stroke="#000000" stroke-width="0.75" enable-background="new    " d="M728.696,1.111"/>
<rect x="656.222" y="51.028" transform="matrix(-1 -0.005 0.005 -1 1315.1204 108.3123)" opacity="0.13" fill="#3D3D3C" stroke="#000000" stroke-width="2" enable-background="new    " width="2.945" height="2.985"/>
<rect x="707.355" y="8.549" transform="matrix(-1 -0.0046 0.0046 -1 1417.6011 23.3747)" opacity="0.13" fill="#3D3D3C" stroke="#000000" stroke-width="2" enable-background="new    " width="2.945" height="2.987"/>
</svg>
