<?xml version="1.0" encoding="utf-8"?>
<!-- Generator: Adobe Illustrator 15.1.0, SVG Export Plug-In . SVG Version: 6.00 Build 0)  -->
<!DOCTYPE svg PUBLIC "-//W3C//DTD SVG 1.1//EN" "http://www.w3.org/Graphics/SVG/1.1/DTD/svg11.dtd">
<svg version="1.1" id="Calque_1" xmlns="http://www.w3.org/2000/svg" xmlns:xlink="http://www.w3.org/1999/xlink" x="0px" y="0px"
	 width="872px" height="72px" viewBox="0 0 872 72" enable-background="new 0 0 872 72" xml:space="preserve">
<rect x="-1" y="-0.583" fill="#F3F0E9" width="872" height="72"/>
<rect x="816.358" y="13.61" transform="matrix(1 0.0046 -0.0046 1 0.079 -3.8011)" opacity="0.13" fill="#3D3D3C" stroke="#000000" stroke-width="2" enable-background="new    " width="2.941" height="2.987"/>
<rect x="803.825" y="38.767" transform="matrix(1 0.0046 -0.0046 1 0.1958 -3.7426)" opacity="0.13" fill="#3D3D3C" stroke="#000000" stroke-width="2" enable-background="new    " width="2.941" height="2.988"/>
<rect x="796.771" y="23.441" transform="matrix(1 0.0046 -0.0046 1 0.1245 -3.7075)" opacity="0.13" fill="#3D3D3C" stroke="#000000" stroke-width="2" enable-background="new    " width="2.943" height="2.986"/>
<rect x="858.754" y="32.612" transform="matrix(1 0.0046 -0.0046 1 0.1677 -3.994)" opacity="0.13" fill="#3D3D3C" stroke="#000000" stroke-width="2" enable-background="new    " width="2.944" height="2.986"/>
<rect x="838.294" y="38.866" transform="matrix(1 0.0053 -0.0053 1 0.226 -4.4544)" opacity="0.13" fill="#3D3D3C" stroke="#000000" stroke-width="2" enable-background="new    " width="2.945" height="2.985"/>
<rect x="721.12" y="51.012" transform="matrix(1 0.0046 -0.0046 1 0.2515 -3.3525)" opacity="0.13" fill="#3D3D3C" stroke="#000000" stroke-width="2" enable-background="new    " width="2.946" height="2.985"/>
<rect x="758.705" y="37.26" transform="matrix(1 0.0046 -0.0046 1 0.1881 -3.5294)" opacity="0.13" fill="#3D3D3C" stroke="#000000" stroke-width="2" enable-background="new    " width="2.944" height="2.986"/>
<rect x="740.952" y="29.249" transform="matrix(1 0.0048 -0.0048 1 0.1564 -3.5678)" opacity="0.13" fill="#3D3D3C" stroke="#000000" stroke-width="2" enable-background="new    " width="2.946" height="2.987"/>
<rect x="770.735" y="3.763" transform="matrix(1 0.0045 -0.0045 1 0.0313 -3.4587)" opacity="0.13" fill="#3D3D3C" stroke="#000000" stroke-width="2" enable-background="new    " width="2.943" height="2.987"/>
<rect x="687.52" y="15.092" transform="matrix(1 0.0046 -0.0046 1 0.0844 -3.197)" opacity="0.13" fill="#3D3D3C" stroke="#000000" stroke-width="2" enable-background="new    " width="2.946" height="2.988"/>
<rect x="619.398" y="41.749" transform="matrix(1 0.0043 -0.0043 1 0.1922 -2.6757)" opacity="0.13" fill="#3D3D3C" stroke="#000000" stroke-width="2" enable-background="new    " width="2.945" height="2.987"/>
<rect x="606.835" y="7.051" transform="matrix(1 0.0048 -0.0048 1 0.0481 -2.9254)" opacity="0.13" fill="#3D3D3C" stroke="#000000" stroke-width="2" enable-background="new    " width="2.944" height="2.986"/>
<rect x="572.755" y="48.054" transform="matrix(1 0.0046 -0.0046 1 0.2364 -2.6676)" opacity="0.13" fill="#3D3D3C" stroke="#000000" stroke-width="2" enable-background="new    " width="2.942" height="2.983"/>
<rect x="528.155" y="8.562" transform="matrix(1 0.0045 -0.0045 1 0.0504 -2.3713)" opacity="0.13" fill="#3D3D3C" stroke="#000000" stroke-width="2" enable-background="new    " width="2.944" height="2.987"/>
<rect x="545.193" y="16.544" transform="matrix(1 0.005 -0.005 1 0.0965 -2.7186)" opacity="0.13" fill="#3D3D3C" stroke="#000000" stroke-width="2" enable-background="new    " width="2.945" height="2.986"/>
<rect x="533.698" y="51.795" transform="matrix(1 0.0046 -0.0046 1 0.2532 -2.4844)" opacity="0.13" fill="#3D3D3C" stroke="#000000" stroke-width="2" enable-background="new    " width="2.944" height="2.985"/>
<rect x="559.382" y="30.739" transform="matrix(1 0.0048 -0.0048 1 0.1614 -2.696)" opacity="0.13" fill="#3D3D3C" stroke="#000000" stroke-width="2" enable-background="new    " width="2.945" height="2.987"/>
<rect x="504.097" y="49.542" transform="matrix(1 0.0043 -0.0043 1 0.2246 -2.178)" opacity="0.13" fill="#3D3D3C" stroke="#000000" stroke-width="2" enable-background="new    " width="2.946" height="2.988"/>
<rect x="651.438" y="7.052" transform="matrix(1 0.0048 -0.0048 1 0.0486 -3.1399)" opacity="0.13" fill="#3D3D3C" stroke="#000000" stroke-width="2" enable-background="new    " width="2.944" height="2.986"/>
<rect x="701.705" y="60.729" transform="matrix(1 0.0046 -0.0046 1 0.2963 -3.2623)" opacity="0.13" fill="#3D3D3C" stroke="#000000" stroke-width="2" enable-background="new    " width="2.946" height="2.984"/>
<polyline opacity="0.13" fill="none" stroke="#000000" stroke-width="2" enable-background="new    " points="500.05,19.525 
	547.627,44.241 598.078,40.176 619.396,15.024 668.53,21.543 688.075,-0.293 "/>
<polyline opacity="0.13" fill="none" stroke="#000000" stroke-width="2" enable-background="new    " points="619.396,70.743 
	651.43,38.842 740.378,41.771 759.655,55.3 798.244,-0.293 "/>
<polyline opacity="0.13" fill="none" stroke="#000000" stroke-width="2" enable-background="new    " points="871,63.657 
	831.967,17.331 816.855,57.738 777.697,55.3 766.662,70.743 "/>
<polygon fill="#DEDBD6" stroke="#D6D6D4" stroke-miterlimit="10" points="571.545,-0.583 534.748,71.165 -0.011,71.417 0.01,-0.583 
	"/>
<path opacity="0.13" fill="none" stroke="#000000" stroke-width="0.75" enable-background="new    " d="M728.696,1.111"/>
<rect x="656.216" y="51.012" transform="matrix(1 0.0053 -0.0053 1 0.2879 -3.4894)" opacity="0.13" fill="#3D3D3C" stroke="#000000" stroke-width="2" enable-background="new    " width="2.944" height="2.984"/>
<rect x="707.35" y="8.579" transform="matrix(1 0.0046 -0.0046 1 0.0544 -3.2934)" opacity="0.13" fill="#3D3D3C" stroke="#000000" stroke-width="2" enable-background="new    " width="2.942" height="2.987"/>
</svg>
