<?xml version="1.0" encoding="utf-8"?>
<!-- Generator: Adobe Illustrator 15.1.0, SVG Export Plug-In . SVG Version: 6.00 Build 0)  -->
<!DOCTYPE svg PUBLIC "-//W3C//DTD SVG 1.1//EN" "http://www.w3.org/Graphics/SVG/1.1/DTD/svg11.dtd">
<svg version="1.1" id="Calque_1" xmlns="http://www.w3.org/2000/svg" xmlns:xlink="http://www.w3.org/1999/xlink" x="0px" y="0px"
	 width="22px" height="22px" viewBox="0 0 22 22" enable-background="new 0 0 22 22" xml:space="preserve">
<g>
	<polyline fill="none" stroke="#FFFFFF" stroke-width="2" points="3.583,17.199 9.917,6.587 17.542,11.895 	"/>
	<g>
		<rect x="1.055" y="14.041" fill="#B2AFAC" stroke="#D6D6D4" stroke-miterlimit="10" width="4.163" height="4.166"/>
		<path fill="#FFFFFF" d="M4.218,15.041v2.166H2.055v-2.166H4.218 M6.218,13.041H0.055v6.166h6.163V13.041L6.218,13.041z"/>
	</g>
	<g>
		<rect x="7.643" y="3.793" fill="#B2AFAC" stroke="#D6D6D4" stroke-miterlimit="10" width="4.082" height="4.08"/>
		<path fill="#FFFFFF" d="M10.724,4.793v2.08H8.643v-2.08H10.724 M12.725,2.793H6.643v6.08h6.082V2.793L12.725,2.793z"/>
	</g>
	<g>
		<rect x="16.863" y="9.874" fill="#B2AFAC" stroke="#D6D6D4" stroke-miterlimit="10" width="4.082" height="4.082"/>
		<path fill="#FFFFFF" d="M19.945,10.874v2.082h-2.082v-2.082H19.945 M21.945,8.874h-6.082v6.082h6.082V8.874L21.945,8.874z"/>
	</g>
</g>
</svg>
