<?xml version="1.0" encoding="utf-8"?>
<!-- Generator: Adobe Illustrator 15.1.0, SVG Export Plug-In . SVG Version: 6.00 Build 0)  -->
<!DOCTYPE svg PUBLIC "-//W3C//DTD SVG 1.1//EN" "http://www.w3.org/Graphics/SVG/1.1/DTD/svg11.dtd" [
	<!ENTITY ns_extend "http://ns.adobe.com/Extensibility/1.0/">
	<!ENTITY ns_ai "http://ns.adobe.com/AdobeIllustrator/10.0/">
	<!ENTITY ns_graphs "http://ns.adobe.com/Graphs/1.0/">
	<!ENTITY ns_vars "http://ns.adobe.com/Variables/1.0/">
	<!ENTITY ns_imrep "http://ns.adobe.com/ImageReplacement/1.0/">
	<!ENTITY ns_sfw "http://ns.adobe.com/SaveForWeb/1.0/">
	<!ENTITY ns_custom "http://ns.adobe.com/GenericCustomNamespace/1.0/">
	<!ENTITY ns_adobe_xpath "http://ns.adobe.com/XPath/1.0/">
]>
<svg version="1.1" id="Calque_1" xmlns:x="&ns_extend;" xmlns:i="&ns_ai;" xmlns:graph="&ns_graphs;"
	 xmlns="http://www.w3.org/2000/svg" xmlns:xlink="http://www.w3.org/1999/xlink" x="0px" y="0px" width="872px" height="72px"
	 viewBox="-1 -0.583 872 72" enable-background="new -1 -0.583 872 72" xml:space="preserve">
<metadata>
	<sfw  xmlns="&ns_sfw;">
		<slices></slices>
		<sliceSourceBounds  y="342.966" x="75.5" width="872.765" height="72.412" bottomLeftOrigin="true"></sliceSourceBounds>
	</sfw>
</metadata>
<rect x="-1" y="-1.083" fill="#4D4D4D" width="872" height="72"/>
<rect x="816.366" y="13.072" transform="matrix(-1 -0.0048 0.0048 -1 1635.5962 33.0648)" opacity="0.13" fill="#3D3D3C" stroke="#000000" stroke-width="2" enable-background="new    " width="2.943" height="2.987"/>
<rect x="803.833" y="38.23" transform="matrix(-1 -0.0046 0.0046 -1 1610.4172 83.1871)" opacity="0.13" fill="#3D3D3C" stroke="#000000" stroke-width="2" enable-background="new    " width="2.944" height="2.988"/>
<rect x="796.778" y="22.908" transform="matrix(-1 -0.0046 0.0046 -1 1596.3801 52.5069)" opacity="0.13" fill="#3D3D3C" stroke="#000000" stroke-width="2" enable-background="new    " width="2.945" height="2.986"/>
<rect x="858.764" y="32.075" transform="matrix(-1 -0.0046 0.0046 -1 1720.3065 71.1297)" opacity="0.13" fill="#3D3D3C" stroke="#000000" stroke-width="2" enable-background="new    " width="2.944" height="2.986"/>
<rect x="838.303" y="38.389" transform="matrix(-1 -0.005 0.005 -1 1679.343 83.9394)" opacity="0.13" fill="#3D3D3C" stroke="#000000" stroke-width="2" enable-background="new    " width="2.946" height="2.987"/>
<rect x="721.126" y="50.531" transform="matrix(-1 -0.005 0.005 -1 1444.9307 107.6409)" opacity="0.13" fill="#3D3D3C" stroke="#000000" stroke-width="2" enable-background="new    " width="2.946" height="2.986"/>
<rect x="758.714" y="36.727" transform="matrix(-1 -0.0046 0.0046 -1 1520.1864 79.9698)" opacity="0.13" fill="#3D3D3C" stroke="#000000" stroke-width="2" enable-background="new    " width="2.944" height="2.986"/>
<rect x="740.958" y="28.744" transform="matrix(-1 -0.0048 0.0048 -1 1484.7084 64.0438)" opacity="0.13" fill="#3D3D3C" stroke="#000000" stroke-width="2" enable-background="new    " width="2.946" height="2.987"/>
<rect x="770.743" y="3.23" transform="matrix(-1 -0.0046 0.0046 -1 1544.4004 13.0329)" opacity="0.13" fill="#3D3D3C" stroke="#000000" stroke-width="2" enable-background="new    " width="2.944" height="2.987"/>
<rect x="687.527" y="14.564" transform="matrix(-1 -0.0046 0.0046 -1 1377.9189 35.3137)" opacity="0.13" fill="#3D3D3C" stroke="#000000" stroke-width="2" enable-background="new    " width="2.946" height="2.988"/>
<rect x="619.406" y="41.224" transform="matrix(-1 -0.0046 0.0046 -1 1241.5538 88.3161)" opacity="0.13" fill="#3D3D3C" stroke="#000000" stroke-width="2" enable-background="new    " width="2.946" height="2.987"/>
<rect x="606.842" y="6.545" transform="matrix(-1 -0.0048 0.0048 -1 1216.5833 19.0006)" opacity="0.13" fill="#3D3D3C" stroke="#000000" stroke-width="2" enable-background="new    " width="2.945" height="2.986"/>
<rect x="572.763" y="47.525" transform="matrix(-1 -0.0046 0.0046 -1 1148.2349 100.702)" opacity="0.13" fill="#3D3D3C" stroke="#000000" stroke-width="2" enable-background="new    " width="2.943" height="2.985"/>
<rect x="528.16" y="8.041" transform="matrix(-1 -0.0046 0.0046 -1 1059.2166 21.5254)" opacity="0.13" fill="#3D3D3C" stroke="#000000" stroke-width="2" enable-background="new    " width="2.946" height="2.987"/>
<rect x="545.199" y="16.059" transform="matrix(-1 -0.005 0.005 -1 1093.2507 37.8223)" opacity="0.13" fill="#3D3D3C" stroke="#000000" stroke-width="2" enable-background="new    " width="2.946" height="2.986"/>
<rect x="533.706" y="51.271" transform="matrix(-1 -0.0046 0.0046 -1 1070.1057 108.0137)" opacity="0.13" fill="#3D3D3C" stroke="#000000" stroke-width="2" enable-background="new    " width="2.944" height="2.987"/>
<rect x="559.388" y="30.236" transform="matrix(-1 -0.0048 0.0048 -1 1121.5627 66.1541)" opacity="0.13" fill="#3D3D3C" stroke="#000000" stroke-width="2" enable-background="new    " width="2.946" height="2.987"/>
<rect x="504.103" y="49.022" transform="matrix(-1 -0.0046 0.0046 -1 1010.9115 103.3777)" opacity="0.13" fill="#3D3D3C" stroke="#000000" stroke-width="2" enable-background="new    " width="2.946" height="2.988"/>
<rect x="651.444" y="6.547" transform="matrix(-1 -0.0048 0.0048 -1 1305.7888 19.2184)" opacity="0.13" fill="#3D3D3C" stroke="#000000" stroke-width="2" enable-background="new    " width="2.946" height="2.986"/>
<rect x="701.714" y="60.201" transform="matrix(-1 -0.0046 0.0046 -1 1406.0802 126.649)" opacity="0.13" fill="#3D3D3C" stroke="#000000" stroke-width="2" enable-background="new    " width="2.946" height="2.985"/>
<polyline opacity="0.13" fill="none" stroke="#000000" stroke-width="2" enable-background="new    " points="500.05,19.025 
	547.627,43.741 598.077,39.676 619.396,14.524 668.529,21.043 688.074,-0.793 "/>
<polyline opacity="0.13" fill="none" stroke="#000000" stroke-width="2" enable-background="new    " points="619.396,70.243 
	651.43,38.342 740.378,41.271 759.654,54.8 798.243,-0.793 "/>
<polyline opacity="0.13" fill="none" stroke="#000000" stroke-width="2" enable-background="new    " points="871,63.157 
	831.967,16.831 816.854,57.238 777.696,54.8 766.661,70.243 "/>
<polygon fill="#5B5B5B" points="520.326,-1.083 483.529,70.665 -0.676,70.917 -0.655,-1.083 "/>
<path opacity="0.13" fill="none" stroke="#000000" stroke-width="0.75" enable-background="new    " d="M728.695,0.611"/>
<rect x="656.222" y="50.528" transform="matrix(-1 -0.005 0.005 -1 1315.1218 107.3123)" opacity="0.13" fill="#3D3D3C" stroke="#000000" stroke-width="2" enable-background="new    " width="2.945" height="2.985"/>
<rect x="707.354" y="8.049" transform="matrix(-1 -0.0046 0.0046 -1 1417.6023 22.3747)" opacity="0.13" fill="#3D3D3C" stroke="#000000" stroke-width="2" enable-background="new    " width="2.945" height="2.987"/>
</svg>
