<?xml version="1.0" encoding="utf-8"?>
<!-- Generator: Adobe Illustrator 15.1.0, SVG Export Plug-In . SVG Version: 6.00 Build 0)  -->
<!DOCTYPE svg PUBLIC "-//W3C//DTD SVG 1.1//EN" "http://www.w3.org/Graphics/SVG/1.1/DTD/svg11.dtd">
<svg version="1.1" id="Calque_1" xmlns="http://www.w3.org/2000/svg" xmlns:xlink="http://www.w3.org/1999/xlink" x="0px" y="0px"
	 width="81px" height="81px" viewBox="0 0 81 81" enable-background="new 0 0 81 81" xml:space="preserve">
<g>
	<polyline fill="none" stroke="#FFFFFF" stroke-width="4" points="3.624,67.561 25.245,49.766 45.986,76.98 54.418,63.865 	"/>
	<g>
		<rect x="21.784" y="45.996" fill="#B2AFAC" stroke="#D6D6D4" stroke-miterlimit="10" width="7.537" height="7.539"/>
		<path fill="#FFFFFF" d="M28.475,46.842v5.846h-5.847v-5.846H28.475 M31.168,44.148H19.937V55.38h11.231V44.148L31.168,44.148z"/>
	</g>
	<g>
		<rect x="1.774" y="63.328" fill="#B2AFAC" stroke="#D6D6D4" stroke-miterlimit="10" width="7.537" height="7.539"/>
		<path fill="#FFFFFF" d="M8.465,64.174v5.848H2.619v-5.848H8.465 M11.159,61.482H-0.072v11.231h11.231V61.482L11.159,61.482z"/>
	</g>
	<g>
		<rect x="42.398" y="71.613" fill="#B2AFAC" stroke="#D6D6D4" stroke-miterlimit="10" width="7.537" height="7.539"/>
		<path fill="#FFFFFF" d="M49.09,72.459v5.848h-5.846v-5.848H49.09 M51.783,69.768H40.552V81h11.231V69.768L51.783,69.768z"/>
	</g>
	<g>
		<rect x="51.783" y="57.229" fill="#B2AFAC" stroke="#D6D6D4" stroke-miterlimit="10" width="7.535" height="7.539"/>
		<path fill="#FFFFFF" d="M58.473,58.074v5.846h-5.846v-5.846H58.473 M61.166,55.381h-11.23v11.232h11.23V55.381L61.166,55.381z"/>
	</g>
</g>
<g>
	<rect x="5.543" y="5.415" fill="#B2AFAC" stroke="#D6D6D4" stroke-miterlimit="10" width="29.393" height="29.393"/>
	<rect x="5.543" y="5.415" fill="none" stroke="#FFFFFF" stroke-width="4" width="29.393" height="29.395"/>
	<g>
		<rect x="31.168" y="31.041" fill="#B2AFAC" stroke="#D6D6D4" stroke-miterlimit="10" width="7.537" height="7.539"/>
		<path fill="#FFFFFF" d="M37.859,31.886v5.846h-5.847v-5.846H37.859 M40.552,29.194H29.321v11.233h11.231V29.194L40.552,29.194z"/>
	</g>
	<g>
		<rect x="31.168" y="1.847" fill="#B2AFAC" stroke="#D6D6D4" stroke-miterlimit="10" width="7.537" height="7.539"/>
		<path fill="#FFFFFF" d="M37.859,2.692v5.846h-5.847V2.692H37.859 M40.552,0H29.321v11.233h11.231V0L40.552,0z"/>
	</g>
	<g>
		<rect x="1.775" y="1.847" fill="#B2AFAC" stroke="#D6D6D4" stroke-miterlimit="10" width="7.537" height="7.539"/>
		<path fill="#FFFFFF" d="M8.466,2.692v5.846H2.619V2.692H8.466 M11.159,0h-11.23v11.233h11.23V0L11.159,0z"/>
	</g>
	<g>
		<rect x="1.775" y="31.039" fill="#B2AFAC" stroke="#D6D6D4" stroke-miterlimit="10" width="7.537" height="7.539"/>
		<path fill="#FFFFFF" d="M8.466,31.884v5.846H2.619v-5.846H8.466 M11.159,29.191h-11.23v11.233h11.23V29.191L11.159,29.191z"/>
	</g>
</g>
<g>
	<rect x="65.049" y="4.513" fill="#B2AFAC" stroke="#D6D6D4" stroke-miterlimit="10" width="7.535" height="7.539"/>
	<path fill="#FFFFFF" d="M71.738,5.358v5.847h-5.846V5.358H71.738 M74.432,2.666H63.202v11.232h11.229V2.666L74.432,2.666z"/>
</g>
<g>
	<rect x="52.938" y="19.806" fill="#B2AFAC" stroke="#D6D6D4" stroke-miterlimit="10" width="7.535" height="7.539"/>
	<path fill="#FFFFFF" d="M59.627,20.651v5.847h-5.846v-5.847H59.627 M62.32,17.959H51.09v11.232h11.23V17.959L62.32,17.959z"/>
</g>
<g>
	<rect x="71.688" y="29.192" fill="#B2AFAC" stroke="#D6D6D4" stroke-miterlimit="10" width="7.537" height="7.539"/>
	<path fill="#FFFFFF" d="M78.379,30.037v5.847h-5.848v-5.847H78.379 M81.072,27.345H69.84v11.232h11.232V27.345L81.072,27.345z"/>
</g>
</svg>
