<svg xmlns="http://www.w3.org/2000/svg" width="104.7" height="54.7" viewBox="0 0 104.7 54.7"><style type="text/css"><![CDATA[
	.st0{fill:#878787;}
	.st1{enable-background:new    ;}
	.st2{fill:#C6C6C6;}
	.st3{fill:#DADADA;}
]]></style><path class="st3" d="M104.2 54.7h.6V0H.1v.6z"/><path class="st2" d="M29.6 7.7h7.5v7.7h-7.5zM22 0h7.5v7.7H22zM37.1 0h7.5v7.7h-7.5zM44.6 7.7h7.5v7.7h-7.5zM52.1 0h7.5v7.7h-7.5zM59.7 7.7h7.5v7.7h-7.5zM52.1 15.4h7.5v7.7h-7.5zM59.7 23.1h7.5v7.7h-7.5zM67.2 15.4h7.5v7.7h-7.5zM74.7 23.1h7.5v7.7h-7.5zM82.2 30.8h7.5v7.7h-7.5zM89.7 38.5h7.5v7.7h-7.5zM97.3 30.8h7.5v7.7h-7.5zM89.7 23.1h7.5v7.7h-7.5zM82.2 15.4h7.5v7.7h-7.5zM74.7 7.7h7.5v7.7h-7.5zM67.2 0h7.5v7.7h-7.5zM82.2 0h7.5v7.7h-7.5zM89.7 7.7h7.5v7.7h-7.5zM97.3 0h7.5v7.7h-7.5zM97.3 15.4h7.5v7.7h-7.5zM14.2 7.7h.3V0H7v3.9zM22.1 11.7v-4h-7.6v.1zM44.1 23.1h.5v-7.7h-7.5v4.1zM52.1 27.4v-4.3h-7.5v.4zM59.7 31.1v-.3h-.6zM73.3 38.5h1.4v-7.7h-7.5v4.6zM82.2 43.1v-4.6h-7.5v.6zM103.2 54h1.6v-7.7h-7.5v4.6z"/><g class="st1"><path class="st0" d="M48.8 16.5l-.1 1.7c-.7.2-1.4.2-2.1.2-1.7 0-3-.5-3.8-1.4-.9-.9-1.3-2.1-1.3-3.4 0-1.4.5-2.6 1.4-3.6.9-1 2.2-1.5 3.8-1.5.6 0 1.2.1 1.7.2l-.3 1.7c-.6-.2-1.1-.3-1.7-.3-1 0-1.7.3-2.2 1-.5.6-.7 1.4-.7 2.3 0 .9.3 1.7.9 2.4.6.7 1.4 1 2.4 1 .6 0 1.3-.1 2-.3zM57.1 14.6c0 1.2-.4 2.2-1.1 2.9s-1.7 1-2.7 1c-1 0-1.8-.3-2.5-1-.7-.6-1.1-1.5-1.1-2.7 0-1.2.4-2.2 1.1-2.9s1.7-1 2.7-1c1 0 1.8.3 2.5 1 .7.6 1.1 1.5 1.1 2.7zm-1.9.2c0-.7-.2-1.3-.5-1.8s-.8-.7-1.3-.7-.9.2-1.3.7-.5 1-.5 1.7.2 1.3.5 1.8.8.7 1.3.7.9-.2 1.3-.7c.3-.5.5-1 .5-1.7zM64.8 11.2c0 .3-.4 1.5-1.3 3.5s-1.3 3.2-1.3 3.5h-2c0-.3-.4-1.5-1.2-3.6-.8-2.1-1.2-3.2-1.2-3.4H60c0 .2.2 1.1.7 2.6.5 1.5.7 2.4.7 2.6h.1c0-.2.2-1.1.7-2.5.5-1.4.7-2.3.7-2.7h1.9zM72.2 14v1h-4.8c.1.6.3 1 .7 1.4.4.4.9.5 1.6.5.7 0 1.5-.1 2.3-.3l-.1 1.4c-.7.2-1.5.4-2.5.4-1.3 0-2.2-.4-2.9-1.1-.7-.7-1-1.6-1-2.6s.3-2 1-2.7c.6-.8 1.5-1.1 2.7-1.1 1 0 1.8.3 2.3.9.4.6.7 1.3.7 2.2zm-1.7-.1c0-1.1-.5-1.7-1.4-1.7-.9 0-1.5.6-1.6 1.8l3-.1zM78.4 11.2l-.5 1.8c-.4-.2-.7-.2-1.1-.2-.7 0-1.2.3-1.4 1v4.5h-2c.1-1.5.1-2.7.1-3.6 0-1.2-.1-2.3-.4-3.3l1.9-.2c.1.5.1.9.1 1h.1c.5-.7 1.1-1 1.8-1 .5-.2.9-.1 1.4 0zM85.3 18.2l-1.7.1c-.1-.2-.1-.4-.1-.6h-.1c-.5.5-1.3.7-2.2.7-.6 0-1.1-.2-1.5-.5-.4-.3-.6-.8-.6-1.4 0-.8.3-1.4.9-1.8.6-.5 1.7-.7 3.3-.8v-.2c0-.5-.1-.9-.4-1-.3-.2-.7-.2-1.4-.2s-1.5.1-2.2.3l.2-1.4c.7-.2 1.6-.4 2.8-.4.9 0 1.6.2 2.1.6.5.4.7 1 .7 2v2.2c0 1 0 1.8.2 2.4zm-2-1.5V15c-1.7 0-2.5.4-2.5 1.3 0 .6.4.9 1.1.9.6-.1 1.1-.2 1.4-.5zM94.1 10.2l-.2 1.4c-.8 0-1.2.1-1.4.3v.1c.3.4.4.8.4 1.2 0 .7-.3 1.3-.8 1.8s-1.3.7-2.3.7c-.5 0-.9 0-1.2-.1-.3.1-.4.3-.4.5 0 .3.1.5.5.6.3.1 1 .2 2.2.2 2 0 3 .7 3 2 0 .9-.4 1.7-1.2 2.2-.8.5-1.8.8-3 .8-2.3 0-3.4-.7-3.4-2.2 0-.4.1-.8.4-1.1.3-.3.6-.5.9-.6v-.1c-.4-.3-.6-.7-.6-1.2s.3-1 .8-1.4v-.1c-.8-.4-1.2-1-1.2-1.9 0-.7.3-1.3.8-1.8s1.4-.7 2.5-.7c.8 0 1.4.1 1.9.4h.1c.1-.9.6-1.4 1.4-1.4.2.3.5.3.8.4zM92 19.5c0-.4-.1-.6-.4-.8-.3-.2-.8-.2-1.4-.2-.6 0-1.1 0-1.7-.1-.4.3-.7.6-.7 1.1 0 .9.6 1.4 1.9 1.4.7 0 1.3-.1 1.7-.4.4-.2.6-.5.6-1zm-.9-6c0-.4-.1-.8-.4-1-.3-.2-.6-.4-1-.4s-.7.1-1 .3c-.3.2-.4.5-.4 1 0 .4.1.8.4 1 .3.2.6.3 1 .3s.7-.1 1-.3c.3-.2.4-.5.4-.9zM101.4 14v1h-4.8c.1.6.3 1 .7 1.4.4.4.9.5 1.6.5.7 0 1.5-.1 2.3-.3L101 18c-.7.2-1.5.4-2.5.4-1.3 0-2.2-.4-2.9-1.1s-1-1.6-1-2.6.3-2 1-2.7 1.5-1.1 2.7-1.1c1 0 1.8.3 2.3.9.6.6.8 1.3.8 2.2zm-1.7-.1c0-1.1-.5-1.7-1.4-1.7-.9 0-1.5.6-1.6 1.8l3-.1z"/></g></svg>