<?xml version="1.0" encoding="utf-8"?>
<!-- Generator: Adobe Illustrator 15.1.0, SVG Export Plug-In . SVG Version: 6.00 Build 0)  -->
<!DOCTYPE svg PUBLIC "-//W3C//DTD SVG 1.1//EN" "http://www.w3.org/Graphics/SVG/1.1/DTD/svg11.dtd">
<svg version="1.1" id="Calque_1" xmlns="http://www.w3.org/2000/svg" xmlns:xlink="http://www.w3.org/1999/xlink" x="0px" y="0px"
	 width="104.666px" height="54.667px" viewBox="0 0 104.666 54.667" enable-background="new 0 0 104.666 54.667"
	 xml:space="preserve">
<polygon fill="#DADADA" points="104.133,54.667 104.666,54.667 104.666,0 0,0 0,0.535 "/>
<rect x="23.198" y="4.59" transform="matrix(-1 -0.0043 0.0043 -1 49.3114 12.2744)" fill="#C6C6C6" stroke="#C6C6C6" stroke-width="2" enable-background="new    " width="2.941" height="2.988"/>
<rect x="64.59" y="29.306" transform="matrix(-1 -0.004 0.004 -1 131.9988 61.8606)" fill="#C6C6C6" stroke="#C6C6C6" stroke-width="2" enable-background="new    " width="2.941" height="2.986"/>
<rect x="41.055" y="7.591" transform="matrix(-1 -0.0043 0.0043 -1 85.0122 18.3514)" fill="#C6C6C6" stroke="#C6C6C6" stroke-width="2" enable-background="new    " width="2.941" height="2.986"/>
<rect x="100.528" y="45.258" transform="matrix(-1 -0.0046 0.0046 -1 203.7818 93.9731)" fill="#C6C6C6" stroke="#C6C6C6" stroke-width="2" enable-background="new    " width="2.944" height="2.984"/>
<rect x="97.568" y="23.396" transform="matrix(-1 -0.0053 0.0053 -1 197.9486 50.3044)" fill="#C6C6C6" stroke="#C6C6C6" stroke-width="2" enable-background="new    " width="2.945" height="2.986"/>
<rect x="83.519" y="29.305" transform="matrix(-1 -0.0043 0.0043 -1 169.8468 61.9639)" fill="#C6C6C6" stroke="#C6C6C6" stroke-width="2" enable-background="new    " width="2.943" height="2.987"/>
<polyline fill="none" stroke="#C6C6C6" stroke-width="2" points="33.899,18.157 48.712,15 83.31,24.89 92.525,1.583 104.666,15 "/>
<g>
	<text transform="matrix(1 0 0 1 47.7119 19)" enable-background="new    "><tspan x="0" y="0" fill="#878787" font-family="'Candara-Bold'" font-size="18">V</tspan><tspan x="9.809" y="0" fill="#878787" font-family="'Candara-Bold'" font-size="18">ector</tspan></text>
</g>
<polyline fill="none" stroke="#C6C6C6" stroke-width="2" points="104.666,33.403 95.191,42.153 73.417,38.7 "/>
</svg>
