<svg xmlns="http://www.w3.org/2000/svg" width="40" height="40" viewBox="0 0 40 40"><style type="text/css"><![CDATA[
	.st0{fill:#1A769E;}	.st1{fill:#EDEDED;}	.st2{fill:#C6C6C6;}	.st3{fill:#FFFFFF;}	.st4{fill:#70706F;}
]]></style><path class="st2" d="M0 0h40v40h-40z"/><path class="st3" d="M5.8 11.9h27.7v21.3h-27.7z"/><path class="st0" d="M14.9 14.9h3.8v3.8h-3.8zm5.7 0h3.8v3.8h-3.8zm5.7 0h3.8v3.8h-3.8zm-17.1 5.7h3.8v3.8h-3.8zm5.7 0h3.8v3.8h-3.8zm5.7 0h3.8v3.8h-3.8zm5.7 0h3.8v3.8h-3.8zm-17.1 5.7h3.8v3.8h-3.8zm5.7 0h3.8v3.8h-3.8zm5.7 0h3.8v3.8h-3.8z"/><path class="st4" d="M9.2 7.3h-3.8v26.6h28.5v-26.6h-24.7zm22.8 24.7h-24.7v-19h24.7v19z"/><path class="st1" d="M12 9.9c0 .5-.4 1-.9 1s-1-.4-1-1v-3.4c0-.5.4-.9 1-.9.5 0 .9.4.9.9v3.4zm17.1 0c0 .5-.4 1-.9 1s-1-.4-1-1v-3.4c0-.5.4-.9 1-.9.5 0 .9.4.9.9v3.4z"/></svg>