<?xml version="1.0" encoding="utf-8"?>
<!-- Generator: Adobe Illustrator 15.1.0, SVG Export Plug-In . SVG Version: 6.00 Build 0)  -->
<!DOCTYPE svg PUBLIC "-//W3C//DTD SVG 1.1//EN" "http://www.w3.org/Graphics/SVG/1.1/DTD/svg11.dtd">
<svg version="1.1" id="Calque_1" xmlns="http://www.w3.org/2000/svg" xmlns:xlink="http://www.w3.org/1999/xlink" x="0px" y="0px"
	 width="41.9px" height="45px" viewBox="0 0 41.9 45" enable-background="new 0 0 41.9 45" xml:space="preserve">
<path opacity="0.5" fill="#77A6B6" enable-background="new    " d="M0.099,37.5L0.099,37.5L0,40.1c3.3,2.2,7.3,3.5,11.6,3.5
	C23,43.6,32.2,34.4,32.2,23c0-6.5-3-12.3-7.7-16.1l0,0C24,6.4,23.5,6,23,5.8l0,0l0,0l0,0l0,0l0,0l0,0l0,0
	c-0.101,0-0.101-0.1-0.2-0.1c0.1,0,0.1,0.1,0.2,0.1c-0.101-0.1-0.2-0.1-0.3-0.2l0,0c0-0.1-0.101-0.1-0.101-0.1l0,0l0,0
	c0,0-0.1-0.1-0.2-0.1l0,0c0-0.1-0.1-0.1-0.1-0.1l0,0c-0.1-0.1-0.2-0.2-0.3-0.2c0.1,0.1,0.2,0.1,0.3,0.2l0,0
	c-0.2-0.1-0.3-0.2-0.5-0.3l0,0c-0.2,0-0.3-0.1-0.5-0.2l0,0c0,0,0-0.1-0.1-0.1l0,0c-0.301-0.2-0.5-0.3-0.801-0.4l0,0
	c-2.6-1.2-5.6-1.9-8.699-1.9c-4.301,0-8.301,1.3-11.601,3.5v1.9C1.8,8.2,2.2,9.9,3.3,10.9c-0.3,0.2-0.1,0.9-0.4,1.1
	c-0.3-0.2-0.6-0.3-1-0.2c-0.1,0.1-0.5,1.3,0.2,1.1c0-0.5,0-0.8-0.2-1c1,0.7,1.101,2.4,2.7,2.5c0,0.5,0.601,0.2,0.601,0.6
	c-0.2,0.4-0.7,0.6-0.601,1.3c0.101,0,0.101,0,0.2,0c0.1,0.5,0.6-0.3,1.1,0C6.5,16.4,6.2,17.4,6.5,17.8c0,0.3-0.2,0.4-0.2,0.6
	c-0.6,0-1.1,0-1.7,0c-0.1-0.2-0.2-0.3-0.399-0.4c0-0.3,0-0.6,0-0.8c-0.601-0.3-1-0.8-1.7-1c-0.3,0.1-0.2,0.5-0.2,0.8
	c-0.2-0.8-2.3,0.9-1,1.1c-0.6,0.6-0.8-0.5-1.3-0.6v2.6c0.6-0.3,1-0.8,1.7-0.9c0-0.3,0-0.6,0-0.8c1.399-0.5,5-0.2,4.899,2.1
	C8.7,21.3,7.7,23.3,8.3,25.1c-0.7,0.601-1,1.601-1.9,2.101c-1.199-0.2-2,0-3.199-0.4c0.1,0.7-0.601,0.5-0.9,0.8
	c0.1,2.301-1.7,3.5-0.4,5.301c-0.6,1.3-0.6,3.199-1.1,4.6C0.599,37.5,0.3,37.5,0.099,37.5L0.099,37.5z M5.7,14.3
	c-0.4,0-0.4-0.2-0.801-0.2c-0.6,0.1-0.5-0.3-1-0.2c0-0.2,0-0.3,0-0.4c0.801-0.4,0.5-1.9,1.5-2.1C5.8,12.5,4.8,13.3,5.7,14.3z
	 M6.5,13.7c-0.4,0-0.7,0-1,0c0-0.4,0-0.9,0.2-1.1C6.3,12.6,6.599,13,6.5,13.7z M21.7,5.5c-0.5,0.2-1.2,0.1-2.101,0
	C19.2,4.8,18.7,4.2,18,3.8c1,0.3,1.899,0.7,2.8,1.2c-0.3,0-0.6,0-0.8,0c0.399,0.4,0.8,0.3,1.1,0.1C21.399,5.3,21.599,5.4,21.7,5.5z
	 M22.8,6.5c-0.5-0.1-0.9-0.4-1.1-0.8c0.199,0,0.3,0,0.3-0.1c0.2,0.2,0.399,0.3,0.6,0.4C22.599,6.2,22.7,6.3,22.8,6.5z M12.599,29.5
	c1.2-0.4,2.2-1.2,3.601-1.5c0-0.3,0-0.6,0-0.9C17,26.4,18.399,26.4,18.7,25.2c1.3,0,2.1-0.2,2.5-0.601c0.699,0.2,0.699,0.9,1.5,1
	c0-0.199,0.3-0.199,0.399-0.199c1-0.101,0.7-0.9,0.601-1.7c0.3-0.101,1,0.2,1-0.2s-0.101-0.7-0.4-0.9c0.1-0.7,1.2-0.4,1.1,0.2
	c0.101,0,0.101,0,0.2,0c3-0.7-0.2-3.9-1.899-2.9c-0.2,0.5-0.301,1.1-0.801,1.3c-0.6-0.4,0.2-1.5-0.199-1.7c-0.301-0.4-0.4-0.8-1-0.8
	c-0.301-2.1-2.7-2.8-3.601-3.4c0-0.1,0-0.1,0-0.2c0-0.2,0.2-0.2,0.4-0.2c0.1,0,0.2,0,0.2-0.2c0.1-0.5-0.4-0.5-0.2-1
	c-0.601,0.8-1.2-0.2-1.9-0.4c0.101,0.3,0.3,0.5,0.601,0.6c0.1,0.2,0.5,1-0.2,0.8c-0.4,0-0.5,0.3-1.101,0.2
	c0.301-1.7,1.301-2.6,1.9-4.4c0.6-0.2,0.2,0.6,0.8,0.4c0.7,0.1,0.3-1,0.8-1.1C20,9.9,20.3,9.4,20.5,9.4c0,0.1,0,0.2,0.2,0.2
	c-0.101,2.5,0.5,2.1,1.1,3.6c0-0.4,0.3-0.5,0.2-1.1c0.3,0,0.399-0.1,0.6-0.2c0.601-0.2,1.3-0.4,1.5-1.1c-0.6-0.6-1-1.4-1.899-1.7
	c0.1,0.5-0.801,0.9-0.801,0.6c0.2,0,0.2-0.4,0-0.4c-0.3,0-0.399,0.1-0.6,0.2c-0.1-0.4,0.2-0.5,0.6-0.8c-0.199-0.5-1-0.5-0.8-1.3
	C21.3,7.1,20,7.2,19.7,7.2c0.1,0.6-0.5,0.4-0.4,1c0,0.6,0.6,0.6,1.1,0.8c-0.899,0.2-1.399,0.7-2,1.2c-0.5-0.4,0.301-0.7-0.6-0.4
	c0-0.5,0-1,0.4-1C18,8.2,17.599,9,17.399,9C17.2,8.9,17.2,8.5,16.8,8.6c1.1-1,1.1-2.4,3-2.3c0.6-0.2-0.6-0.2-0.8-0.2
	c0.1-0.3,0.6-0.1,0.6-0.4c0.7,0.4,2.3-0.1,2.3,0.9c0.101,0.7-0.8,0.3-0.6,1c0.2,0.1,0.4,0.2,0.4,0.4c0.3-0.7,0.899-0.2,1-1.1
	c0.3,0,0.399,0.2,0.6,0.2c0.2,0.6-0.3,0.5-0.2,1c0.8-0.9,0.8,0.6,2.101,0.2c-0.301-0.4-1-0.3-1-0.8c0.1-0.1,0.1-0.1,0.1-0.1
	c3,2.4,5.4,5.8,6.6,9.6c-0.1,2-0.6,4-1.899,5.3c0-0.5,0.399-0.8,0.399-1.3c-0.6,0.4-1,1-0.899,2.1c-1.9,1.4-4.601,2.101-6,4.101
	c0.2,0.5,0.6,0.899,0.899,1.3C24,31,21,32.2,20.599,34.3c-0.5,2.7,0.8,5.4,0,6.9c-0.5,0.3-1,0.5-1.5,0.7
	C18.8,40.3,19.3,39.1,17.3,38.6c-0.1-0.6,0.3-0.5,0.2-1c-1.101,0.301-1.9-1.3-2.101-2.5c-0.5-0.3-1-0.6-1.5-0.8
	C13.899,32.3,12.8,31.5,12.599,29.5z M21.5,23.3c-0.4,0.101-1.2,0.4-1.101-0.4C20.899,22.8,21.399,22.9,21.5,23.3z M21.5,22.9
	c0.5-0.5,1.8-1.6,2.3-0.8C22.7,22,22.599,22.9,21.5,22.9z M12.7,9.3c-0.9-1.2-2.801-1.4-4.2-2.1c0.899-0.7-0.7-1.5,0-2.3
	C8.399,4.6,8.2,5,7.899,4.9c0-0.4,0.301-0.5,0.2-1.1c-0.399,0-0.5-0.4-0.8-0.5c0.3-0.1,0.6-0.1,0.9-0.2c0.1,0,0.3,0,0.399,0
	c0-0.1,0-0.1,0-0.1c1-0.1,2-0.2,3.101-0.2c1.8,0,3.6,0.3,5.199,0.7h-0.1c-0.1,0.7,0.8,0.4,1.1,0.6c-0.5,1.4-3.6,0.7-2.699,3.2
	c0,0.2-0.2,0.2-0.301,0.1c0.4,0.9,0.2,3.1-1.199,3.5C13.2,10.5,13,9.8,12.7,9.3z M12.399,11.6c-0.199,0.3-0.8,0.1-0.8,0.4
	c0.101,0,0.2,0.2,0,0.2c-0.7-0.4-1.6-0.5-1.899-1.3C9.5,8.8,12.599,9.3,12.399,11.6z M8.599,9.8c-0.8,0-1.5-0.1-1.5-0.8
	c0-0.2,0.2-0.2,0.2-0.4c0.8,0.2,1.1,0.2,1.9,0C9.2,9.2,8.8,9.3,8.599,9.8z"/>
</svg>
