<?xml version="1.0" encoding="utf-8"?>
<!-- Generator: Adobe Illustrator 15.1.0, SVG Export Plug-In . SVG Version: 6.00 Build 0)  -->
<!DOCTYPE svg PUBLIC "-//W3C//DTD SVG 1.1//EN" "http://www.w3.org/Graphics/SVG/1.1/DTD/svg11.dtd">
<svg version="1.1" id="Calque_1" xmlns="http://www.w3.org/2000/svg" xmlns:xlink="http://www.w3.org/1999/xlink" x="0px" y="0px"
	 width="40px" height="40px" viewBox="0 0 40 40" enable-background="new 0 0 40 40" xml:space="preserve">
<rect fill="#C6C6C6" width="40" height="40"/>
<path fill="#706F6F" d="M30.144,10.423c-5.287-5.287-13.864-5.287-19.152,0c-5.289,5.286-5.289,13.865,0,19.149
	c5.288,5.293,13.869,5.289,19.152,0C35.437,24.291,35.437,15.709,30.144,10.423z M20.349,8.799c1.431,0,2.595,1.162,2.595,2.593
	c0,1.444-1.164,2.618-2.595,2.618c-1.445,0-2.618-1.174-2.618-2.618C17.73,9.936,18.88,8.799,20.349,8.799z M24.521,27.871
	c0,0.546-0.269,0.811-0.811,0.811h-6.69c-0.546,0-0.811-0.265-0.811-0.811v-1.705c0-0.544,0.265-0.809,0.811-0.809h1.235v-7.201
	h-1.262c-0.542,0-0.809-0.262-0.809-0.808v-1.702c0-0.549,0.267-0.813,0.809-0.813h4.669c0.546,0,0.812,0.264,0.812,0.813v9.711
	h1.235c0.542,0,0.811,0.265,0.811,0.809V27.871z"/>
</svg>
