<svg xmlns="http://www.w3.org/2000/svg" width="104.7" height="54.7" viewBox="0 0 104.7 54.7"><style type="text/css"><![CDATA[
	.st0{fill:#878787;}	.st1{enable-background:new;} .st2{fill:none;stroke:#C6C6C6;stroke-width:2;} .st3{fill:#C6C6C6;stroke:#C6C6C6;stroke-width:2;} .st4{fill:#DADADA;}
]]></style><path class="st4" d="M104.1 54.7h.6V0H0v.5z"/><path class="st3" d="M26.094 7.606l-2.9-.012.012-3 2.9.012zM67.494 32.306l-2.9-.012.012-3 2.9.012zM43.994 10.606l-2.9-.012.013-3 2.9.012zM103.395 48.305l-2.9-.01.01-3 2.9.01zM100.594 26.41l-3-.017.016-3 3 .016zM86.394 32.307l-2.9-.014.015-3 2.9.014z"/><path class="st2" d="M33.9 18.2L48.7 15l34.6 9.9 9.2-23.3L104.7 15"/><path class="st0" d="M57.9 7.6c0 .5-.7 2.4-2 5.7-1.3 3.3-2 5.2-2 5.7h-2.4c0-.5-.6-2.4-1.9-5.7-1.2-3.4-1.9-5.3-1.9-5.7h2.8c0 .4.4 1.9 1.2 4.5.8 2.6 1.2 4.1 1.2 4.4h.2c0-.3.4-1.8 1.2-4.3.8-2.5 1.2-4.1 1.2-4.7h2.4v.1z"/><g class="st1"><path class="st0" d="M66.1 13.9v1.2l-5.7.1c.1.7.4 1.2.9 1.6.5.4 1.1.7 1.9.7.9 0 1.8-.1 2.8-.4l-.2 1.7c-.8.3-1.8.4-3 .4-1.5 0-2.7-.4-3.5-1.3-.8-.9-1.2-1.9-1.2-3.1 0-1.2.4-2.3 1.1-3.2.8-.9 1.8-1.4 3.2-1.4 1.2 0 2.2.3 2.8 1 .6.8.9 1.7.9 2.7zm-2 0c0-1.4-.6-2-1.7-2s-1.8.7-2 2.1l3.7-.1zM74.4 17.1l-.2 1.7c-.5.3-1.3.4-2.2.4-1.5 0-2.7-.4-3.5-1.3-.8-.8-1.2-1.9-1.2-3 0-1.2.4-2.3 1.3-3.2.8-.9 2-1.4 3.5-1.4.7 0 1.4.1 1.9.2l-.3 1.8c-.5-.2-1.1-.3-1.8-.3s-1.3.2-1.7.8c-.4.6-.6 1.1-.6 1.9 0 .8.2 1.5.7 2 .5.6 1.2.8 2.1.8.6 0 1.2-.1 2-.4zM80.9 17.4l-.2 1.6c-.4.2-.9.3-1.5.3-1 0-1.7-.3-2.1-.8-.5-.5-.7-1.5-.7-3v-3c-.3 0-.7 0-1.2.1l.1-1.7h1.3c0-.3 0-1.1.1-2.5l2.1-.3c-.1 1.2-.1 2.1-.1 2.7.5 0 1.2 0 2.2-.1l-.1 1.8c-.9 0-1.6-.1-2.2-.1v2.5c0 1 .1 1.7.3 2.1s.6.5 1.1.5c.2 0 .6 0 .9-.1zM90.7 14.6c0 1.5-.4 2.6-1.4 3.5s-2 1.2-3.2 1.2c-1.2 0-2.2-.4-3-1.1-.8-.8-1.3-1.8-1.3-3.2 0-1.5.5-2.6 1.4-3.5.9-.8 2-1.3 3.2-1.3s2.2.4 3 1.2c.9.8 1.3 1.8 1.3 3.2zm-2.3.3c0-.9-.2-1.6-.6-2.1-.4-.6-.9-.9-1.6-.9-.6 0-1.1.3-1.5.8s-.6 1.2-.6 2 .2 1.6.6 2.1.9.9 1.6.9c.6 0 1.1-.3 1.5-.8.4-.5.6-1.2.6-2zM98.1 10.6l-.5 2.1c-.4-.2-.9-.3-1.3-.3-.9 0-1.4.4-1.7 1.2V19h-2.3c.1-1.8.2-3.2.2-4.3 0-1.4-.2-2.7-.4-4l2.2-.2c.1.6.1 1 .1 1.1h.1c.5-.8 1.3-1.2 2.2-1.2.4 0 .9.1 1.4.2z"/></g><path class="st2" d="M104.7 33.4l-9.5 8.7-21.8-3.4"/></svg>