<?xml version="1.0" encoding="utf-8"?>
<!DOCTYPE svg PUBLIC "-//W3C//DTD SVG 1.1//EN" "http://www.w3.org/Graphics/SVG/1.1/DTD/svg11.dtd">
<svg version="1.1" id="Calque_1" xmlns="http://www.w3.org/2000/svg" xmlns:xlink="http://www.w3.org/1999/xlink" x="0px" y="0px"
	 width="104.67px" height="54.67px" viewBox="0 0 104.67 54.67" enable-background="new 0 0 104.67 54.67" xml:space="preserve">
<polygon fill="#DADADA" points="104.13,54.67 104.67,54.67 104.67,0 0,0 0,0.54 "/>
<rect x="23.2" y="4.59" transform="matrix(-1 -4.315990e-03 4.315990e-03 -1 49.3124 12.2768)" fill="#C6C6C6" stroke="#C6C6C6" stroke-width="2" width="2.94" height="2.99"/>
<rect x="64.59" y="29.31" transform="matrix(-1 -3.984115e-03 3.984115e-03 -1 131.9998 61.8596)" fill="#C6C6C6" stroke="#C6C6C6" stroke-width="2" width="2.94" height="2.99"/>
<rect x="41.06" y="7.59" transform="matrix(-1 -4.316706e-03 4.316706e-03 -1 85.0126 18.3519)" fill="#C6C6C6" stroke="#C6C6C6" stroke-width="2" width="2.94" height="2.99"/>
<rect x="100.53" y="45.26" transform="matrix(-1 -3.982685e-03 3.982685e-03 -1 203.8101 93.9127)" fill="#C6C6C6" stroke="#C6C6C6" stroke-width="2" width="2.94" height="2.98"/>
<rect x="97.57" y="23.4" transform="matrix(-1 -5.304940e-03 5.304940e-03 -1 197.9476 50.3048)" fill="#C6C6C6" stroke="#C6C6C6" stroke-width="2" width="2.95" height="2.99"/>
<rect x="83.52" y="29.3" transform="matrix(-1 -4.645005e-03 4.645005e-03 -1 169.8385 61.9872)" fill="#C6C6C6" stroke="#C6C6C6" stroke-width="2" width="2.94" height="2.99"/>
<polyline fill="none" stroke="#C6C6C6" stroke-width="2" points="33.9,18.16 48.71,15 83.31,24.89 92.52,1.58 104.67,15 "/>
<g enable-background="new    ">
	<path fill="#878787" d="M57.94,7.56c0,0.48-0.67,2.39-2.01,5.73c-1.34,3.34-2.01,5.24-2.01,5.71h-2.42c0-0.45-0.62-2.36-1.85-5.74
		c-1.23-3.38-1.85-5.28-1.85-5.7h2.79c0,0.43,0.39,1.94,1.18,4.55s1.18,4.09,1.18,4.44h0.15c0-0.34,0.39-1.77,1.18-4.28
		c0.79-2.51,1.18-4.08,1.18-4.71H57.94z"/>
</g>
<g enable-background="new    ">
	<path fill="#878787" d="M66.13,13.93c0,0.3-0.02,0.69-0.05,1.17l-5.66,0.1c0.08,0.66,0.37,1.21,0.85,1.65
		c0.49,0.44,1.12,0.66,1.92,0.66c0.88,0,1.81-0.13,2.8-0.4l-0.18,1.71c-0.81,0.29-1.81,0.44-3.01,0.44c-1.51,0-2.67-0.42-3.48-1.27
		c-0.8-0.85-1.21-1.87-1.21-3.07c0-1.25,0.38-2.33,1.15-3.25c0.76-0.92,1.83-1.38,3.19-1.38c1.24,0,2.17,0.34,2.77,1.01
		C65.83,11.98,66.13,12.85,66.13,13.93z M64.08,13.85c0-1.35-0.57-2.02-1.72-2.02c-1.1,0-1.75,0.7-1.95,2.09L64.08,13.85z"/>
	<path fill="#878787" d="M74.37,17.15l-0.15,1.68c-0.53,0.28-1.26,0.42-2.17,0.42c-1.51,0-2.67-0.42-3.49-1.27
		c-0.81-0.84-1.22-1.86-1.22-3.04c0-1.23,0.43-2.3,1.27-3.22c0.85-0.92,2.01-1.38,3.49-1.38c0.72,0,1.36,0.08,1.92,0.25l-0.3,1.79
		c-0.54-0.22-1.14-0.33-1.81-0.33c-0.71,0-1.27,0.25-1.68,0.75c-0.41,0.5-0.62,1.12-0.62,1.85c0,0.8,0.24,1.47,0.73,2.02
		c0.49,0.55,1.17,0.83,2.06,0.83C72.95,17.51,73.6,17.39,74.37,17.15z"/>
	<path fill="#878787" d="M80.94,17.36l-0.15,1.56c-0.41,0.18-0.93,0.26-1.55,0.26c-0.95,0-1.66-0.26-2.14-0.77
		c-0.48-0.52-0.72-1.51-0.72-2.98c0-0.89,0.01-1.89,0.02-3.01c-0.3,0-0.7,0.02-1.21,0.05l0.06-1.73c0.45,0.04,0.87,0.05,1.26,0.05
		c0.01-0.31,0.03-1.13,0.07-2.45l2.08-0.26c-0.09,1.17-0.13,2.07-0.13,2.71c0.49,0,1.23-0.02,2.21-0.07l-0.07,1.75
		c-0.89-0.04-1.61-0.05-2.17-0.05c-0.01,0.78-0.02,1.6-0.02,2.45c0,1.04,0.1,1.74,0.32,2.1s0.58,0.53,1.12,0.53
		C80.23,17.51,80.57,17.46,80.94,17.36z"/>
	<path fill="#878787" d="M90.73,14.63c0,1.48-0.45,2.63-1.36,3.46c-0.91,0.83-1.98,1.25-3.21,1.25c-1.17,0-2.18-0.38-3.01-1.14
		c-0.84-0.76-1.26-1.83-1.26-3.2c0-1.48,0.46-2.64,1.37-3.48s1.99-1.26,3.22-1.26c1.17,0,2.17,0.38,3,1.15
		C90.32,12.18,90.73,13.25,90.73,14.63z M88.44,14.9c0-0.85-0.2-1.56-0.6-2.14c-0.4-0.58-0.92-0.87-1.56-0.87
		c-0.62,0-1.13,0.27-1.52,0.81c-0.39,0.54-0.58,1.21-0.58,2.02c0,0.85,0.2,1.56,0.6,2.14c0.4,0.58,0.92,0.87,1.56,0.87
		c0.62,0,1.13-0.27,1.52-0.81C88.25,16.38,88.44,15.7,88.44,14.9z"/>
	<path fill="#878787" d="M98.12,10.65l-0.51,2.06c-0.43-0.18-0.87-0.26-1.32-0.26c-0.86,0-1.43,0.39-1.71,1.16
		c0,2.34,0.02,4.14,0.05,5.4H92.3c0.1-1.76,0.15-3.21,0.15-4.32c0-1.4-0.15-2.72-0.44-3.96l2.24-0.25c0.1,0.65,0.15,1.02,0.15,1.13
		h0.14c0.54-0.83,1.26-1.24,2.15-1.24C97.12,10.36,97.59,10.46,98.12,10.65z"/>
</g>
<polyline fill="none" stroke="#C6C6C6" stroke-width="2" points="104.67,33.4 95.19,42.15 73.42,38.7 "/>
</svg>
