<?xml version="1.0" encoding="utf-8"?>
<!DOCTYPE svg PUBLIC "-//W3C//DTD SVG 1.1//EN" "http://www.w3.org/Graphics/SVG/1.1/DTD/svg11.dtd">
<svg version="1.1" id="Calque_1" xmlns="http://www.w3.org/2000/svg" xmlns:xlink="http://www.w3.org/1999/xlink" x="0px" y="0px"
	 width="41.9px" height="45px" viewBox="0 0 41.9 45" enable-background="new 0 0 41.9 45" xml:space="preserve">
<g>
	<path fill="#B2DBD3" d="M9,36.8c-1.8-2.1-1.6-5.2,0.5-7.1c2.1-1.8,5.3-1.6,7.1,0.5c1.8,2.1,1.6,5.2-0.5,7.1
		C14,39.1,10.8,38.9,9,36.8z"/>
	<path fill="#B2DBD3" d="M21.9,34.5l2.7,0.6c1.3-6-2.5-11.9-8.5-13.1l-0.6,2.7C20,25.6,22.8,30,21.9,34.5z"/>
	<path opacity="0.75" fill="#B2DBD3" enable-background="new    " d="M30.2,33.7l2.7,0.6c1.9-9-3.8-17.8-12.8-19.7l-0.6,2.7
		C27,18.9,31.8,26.2,30.2,33.7z"/>
	<path opacity="0.5" fill="#B2DBD3" enable-background="new    " d="M38.6,33l2.8,0.6c2.6-12-5.1-23.8-17.2-26.4L23.7,10
		C34.1,12.2,40.8,22.5,38.6,33z"/>
</g>
<path opacity="0.25" fill="#B2DBD3" enable-background="new    " d="M41.9,7.3C38.3,3.7,33.7,1.1,28.3,0l-0.6,2.7
	c5.8,1.2,10.7,4.4,14.2,8.7L41.9,7.3L41.9,7.3z"/>
</svg>
