<?xml version="1.0" encoding="utf-8"?>
<!DOCTYPE svg PUBLIC "-//W3C//DTD SVG 1.1//EN" "http://www.w3.org/Graphics/SVG/1.1/DTD/svg11.dtd">
<svg version="1.1" id="Calque_1" xmlns="http://www.w3.org/2000/svg" xmlns:xlink="http://www.w3.org/1999/xlink" x="0px" y="0px"
	 width="104.7px" height="54.7px" viewBox="0 0 104.7 54.7" style="enable-background:new 0 0 104.7 54.7;" xml:space="preserve">
<style type="text/css">
<![CDATA[
	.st0{fill:#878787;}
	.st1{enable-background:new    ;}
	.st2{fill:#C6C6C6;}
	.st3{fill:#DADADA;}
]]>
</style>
<g>
	<polygon class="st3" points="104.2,54.7 104.8,54.7 104.8,0 0.1,0 0.1,0.6 	"/>
	<rect x="29.6" y="7.7" class="st2" width="7.5" height="7.7"/>
	<rect x="22" y="0" class="st2" width="7.5" height="7.7"/>
	<rect x="37.1" y="0" class="st2" width="7.5" height="7.7"/>
	<rect x="44.6" y="7.7" class="st2" width="7.5" height="7.7"/>
	<rect x="52.1" y="0" class="st2" width="7.5" height="7.7"/>
	<rect x="59.7" y="7.7" class="st2" width="7.5" height="7.7"/>
	<rect x="52.1" y="15.4" class="st2" width="7.5" height="7.7"/>
	<rect x="59.7" y="23.1" class="st2" width="7.5" height="7.7"/>
	<rect x="67.2" y="15.4" class="st2" width="7.5" height="7.7"/>
	<rect x="74.7" y="23.1" class="st2" width="7.5" height="7.7"/>
	<rect x="82.2" y="30.8" class="st2" width="7.5" height="7.7"/>
	<rect x="89.7" y="38.5" class="st2" width="7.5" height="7.7"/>
	<rect x="97.3" y="30.8" class="st2" width="7.5" height="7.7"/>
	<rect x="89.7" y="23.1" class="st2" width="7.5" height="7.7"/>
	<rect x="82.2" y="15.4" class="st2" width="7.5" height="7.7"/>
	<rect x="74.7" y="7.7" class="st2" width="7.5" height="7.7"/>
	<rect x="67.2" y="0" class="st2" width="7.5" height="7.7"/>
	<rect x="82.2" y="0" class="st2" width="7.5" height="7.7"/>
	<rect x="89.7" y="7.7" class="st2" width="7.5" height="7.7"/>
	<rect x="97.3" y="0" class="st2" width="7.5" height="7.7"/>
	<rect x="97.3" y="15.4" class="st2" width="7.5" height="7.7"/>
	<polygon class="st2" points="14.2,7.7 14.5,7.7 14.5,0 7,0 7,3.9 	"/>
	<polygon class="st2" points="22.1,11.7 22.1,7.7 14.5,7.7 14.5,7.8 	"/>
	<polygon class="st2" points="44.1,23.1 44.6,23.1 44.6,15.4 37.1,15.4 37.1,19.5 	"/>
	<polygon class="st2" points="52.1,27.4 52.1,23.1 44.6,23.1 44.6,23.5 	"/>
	<polygon class="st2" points="59.7,31.1 59.7,30.8 59.1,30.8 	"/>
	<polygon class="st2" points="73.3,38.5 74.7,38.5 74.7,30.8 67.2,30.8 67.2,35.4 	"/>
	<polygon class="st2" points="82.2,43.1 82.2,38.5 74.7,38.5 74.7,39.1 	"/>
	<polygon class="st2" points="103.2,54 104.8,54 104.8,46.3 97.3,46.3 97.3,50.9 	"/>
</g>
<g class="st1">
	<path class="st0" d="M48.8,16.5l-0.1,1.7c-0.7,0.2-1.4,0.2-2.1,0.2c-1.7,0-3-0.5-3.8-1.4c-0.9-0.9-1.3-2.1-1.3-3.4
		c0-1.4,0.5-2.6,1.4-3.6c0.9-1,2.2-1.5,3.8-1.5c0.6,0,1.2,0.1,1.7,0.2l-0.3,1.7c-0.6-0.2-1.1-0.3-1.7-0.3c-1,0-1.7,0.3-2.2,1
		c-0.5,0.6-0.7,1.4-0.7,2.3c0,0.9,0.3,1.7,0.9,2.4c0.6,0.7,1.4,1,2.4,1C47.4,16.8,48.1,16.7,48.8,16.5z"/>
	<path class="st0" d="M57.1,14.6c0,1.2-0.4,2.2-1.1,2.9s-1.7,1-2.7,1c-1,0-1.8-0.3-2.5-1c-0.7-0.6-1.1-1.5-1.1-2.7
		c0-1.2,0.4-2.2,1.1-2.9s1.7-1,2.7-1c1,0,1.8,0.3,2.5,1C56.7,12.5,57.1,13.4,57.1,14.6z M55.2,14.8c0-0.7-0.2-1.3-0.5-1.8
		c-0.3-0.5-0.8-0.7-1.3-0.7c-0.5,0-0.9,0.2-1.3,0.7s-0.5,1-0.5,1.7c0,0.7,0.2,1.3,0.5,1.8s0.8,0.7,1.3,0.7c0.5,0,0.9-0.2,1.3-0.7
		C55,16,55.2,15.5,55.2,14.8z"/>
	<path class="st0" d="M64.8,11.2c0,0.3-0.4,1.5-1.3,3.5s-1.3,3.2-1.3,3.5h-2c0-0.3-0.4-1.5-1.2-3.6c-0.8-2.1-1.2-3.2-1.2-3.4h2.2
		c0,0.2,0.2,1.1,0.7,2.6c0.5,1.5,0.7,2.4,0.7,2.6h0.1c0-0.2,0.2-1.1,0.7-2.5c0.5-1.4,0.7-2.3,0.7-2.7L64.8,11.2L64.8,11.2z"/>
	<path class="st0" d="M72.2,14c0,0.2,0,0.6,0,1L67.4,15c0.1,0.6,0.3,1,0.7,1.4c0.4,0.4,0.9,0.5,1.6,0.5c0.7,0,1.5-0.1,2.3-0.3
		l-0.1,1.4c-0.7,0.2-1.5,0.4-2.5,0.4c-1.3,0-2.2-0.4-2.9-1.1c-0.7-0.7-1-1.6-1-2.6c0-1,0.3-2,1-2.7c0.6-0.8,1.5-1.1,2.7-1.1
		c1,0,1.8,0.3,2.3,0.9C71.9,12.4,72.2,13.1,72.2,14z M70.5,13.9c0-1.1-0.5-1.7-1.4-1.7c-0.9,0-1.5,0.6-1.6,1.8L70.5,13.9z"/>
	<path class="st0" d="M78.4,11.2L77.9,13c-0.4-0.2-0.7-0.2-1.1-0.2c-0.7,0-1.2,0.3-1.4,1c0,2,0,3.5,0,4.5h-2
		c0.1-1.5,0.1-2.7,0.1-3.6c0-1.2-0.1-2.3-0.4-3.3l1.9-0.2c0.1,0.5,0.1,0.9,0.1,1h0.1c0.5-0.7,1.1-1,1.8-1
		C77.5,11,77.9,11.1,78.4,11.2z"/>
	<path class="st0" d="M85.3,18.2l-1.7,0.1c-0.1-0.2-0.1-0.4-0.1-0.6h-0.1c-0.5,0.5-1.3,0.7-2.2,0.7c-0.6,0-1.1-0.2-1.5-0.5
		c-0.4-0.3-0.6-0.8-0.6-1.4c0-0.8,0.3-1.4,0.9-1.8c0.6-0.5,1.7-0.7,3.3-0.8c0-0.1,0-0.2,0-0.2c0-0.5-0.1-0.9-0.4-1
		c-0.3-0.2-0.7-0.2-1.4-0.2c-0.7,0-1.5,0.1-2.2,0.3l0.2-1.4c0.7-0.2,1.6-0.4,2.8-0.4c0.9,0,1.6,0.2,2.1,0.6c0.5,0.4,0.7,1,0.7,2
		c0,0.2,0,0.6,0,1.1c0,0.5,0,0.9,0,1.1C85.1,16.8,85.1,17.6,85.3,18.2z M83.3,16.7c0-0.7,0-1.2,0-1.7c-1.7,0-2.5,0.4-2.5,1.3
		c0,0.6,0.4,0.9,1.1,0.9C82.5,17.1,83,17,83.3,16.7z"/>
	<path class="st0" d="M94.1,10.2l-0.2,1.4c-0.8,0-1.2,0.1-1.4,0.3V12c0.3,0.4,0.4,0.8,0.4,1.2c0,0.7-0.3,1.3-0.8,1.8
		c-0.5,0.5-1.3,0.7-2.3,0.7c-0.5,0-0.9,0-1.2-0.1c-0.3,0.1-0.4,0.3-0.4,0.5c0,0.3,0.1,0.5,0.5,0.6c0.3,0.1,1,0.2,2.2,0.2
		c2,0,3,0.7,3,2c0,0.9-0.4,1.7-1.2,2.2c-0.8,0.5-1.8,0.8-3,0.8c-2.3,0-3.4-0.7-3.4-2.2c0-0.4,0.1-0.8,0.4-1.1
		c0.3-0.3,0.6-0.5,0.9-0.6v-0.1c-0.4-0.3-0.6-0.7-0.6-1.2c0-0.5,0.3-1,0.8-1.4v-0.1c-0.8-0.4-1.2-1-1.2-1.9c0-0.7,0.3-1.3,0.8-1.8
		c0.5-0.5,1.4-0.7,2.5-0.7c0.8,0,1.4,0.1,1.9,0.4h0.1c0.1-0.9,0.6-1.4,1.4-1.4C93.5,10.1,93.8,10.1,94.1,10.2z M92,19.5
		c0-0.4-0.1-0.6-0.4-0.8c-0.3-0.2-0.8-0.2-1.4-0.2c-0.6,0-1.1,0-1.7-0.1c-0.4,0.3-0.7,0.6-0.7,1.1c0,0.9,0.6,1.4,1.9,1.4
		c0.7,0,1.3-0.1,1.7-0.4C91.8,20.3,92,20,92,19.5z M91.1,13.5c0-0.4-0.1-0.8-0.4-1c-0.3-0.2-0.6-0.4-1-0.4c-0.4,0-0.7,0.1-1,0.3
		c-0.3,0.2-0.4,0.5-0.4,1c0,0.4,0.1,0.8,0.4,1c0.3,0.2,0.6,0.3,1,0.3c0.4,0,0.7-0.1,1-0.3C91,14.2,91.1,13.9,91.1,13.5z"/>
	<path class="st0" d="M101.4,14c0,0.2,0,0.6,0,1L96.6,15c0.1,0.6,0.3,1,0.7,1.4c0.4,0.4,0.9,0.5,1.6,0.5c0.7,0,1.5-0.1,2.3-0.3
		l-0.2,1.4c-0.7,0.2-1.5,0.4-2.5,0.4c-1.3,0-2.2-0.4-2.9-1.1s-1-1.6-1-2.6c0-1,0.3-2,1-2.7s1.5-1.1,2.7-1.1c1,0,1.8,0.3,2.3,0.9
		C101.2,12.4,101.4,13.1,101.4,14z M99.7,13.9c0-1.1-0.5-1.7-1.4-1.7c-0.9,0-1.5,0.6-1.6,1.8L99.7,13.9z"/>
</g>
</svg>
