<svg xmlns="http://www.w3.org/2000/svg" width="40" height="40" viewBox="0 0 40 40"><path fill="#C6C6C6" d="M0 0h40v40H0z"/><path fill="#706F6F" d="M40 21l-15.9-8.3c-.2-.1-.6 0-.8.4L16 27.3c-.2.3-.1.7.1.8l18.6 9.6c.2.1.6 0 .8-.4l4.5-8.7V21zM24 12.7c-.1-.1-.2-.1-.3 0L14.4 17c-.2.1-.4.4-.4.7l1.9 10c0 .1.1.2.2.3L24 12.7z"/><path fill="#C6C6C6" d="M18.9 19.8c-.3.5-.9.7-1.5.5-.5-.3-.8-.9-.5-1.5.3-.5.9-.8 1.5-.5.6.3.8.9.5 1.5z"/><path fill="#DADADA" d="M38.4 25.6l-13.8-7.2.7-1.5 13.8 7.2zM36.3 29.7l-13.8-7.1.8-1.6 13.8 7.2zM34.1 33.9l-13.8-7.1.8-1.6 13.8 7.2z"/><path fill="none" stroke="#706F6F" stroke-miterlimit="10" d="M17.9 19.3s-15.4 5.2-13.6-7c1.1-7.6 5.6-5 9.8-2.7 3.9 2.1 4.9 6.5 4.9 6.5"/></svg>