<?xml version="1.0" encoding="utf-8"?>
<!DOCTYPE svg PUBLIC "-//W3C//DTD SVG 1.1//EN" "http://www.w3.org/Graphics/SVG/1.1/DTD/svg11.dtd">
<svg version="1.1" id="Calque_1" xmlns="http://www.w3.org/2000/svg" xmlns:xlink="http://www.w3.org/1999/xlink" x="0px" y="0px"
	 width="41.91px" height="45px" viewBox="0 0 41.91 45" enable-background="new 0 0 41.91 45" xml:space="preserve">
<path opacity="0.5" fill="#77A6B6" enable-background="new    " d="M41.91,37.52c-0.22,0.02-0.45,0.02-0.7-0.01
	c-0.51-1.39-0.53-3.28-1.14-4.56c1.27-1.83-0.52-3.04-0.38-5.33c-0.26-0.31-1-0.14-0.95-0.76c-1.19,0.41-2.04,0.24-3.23,0.38
	c-0.86-0.48-1.2-1.46-1.9-2.09c0.64-1.84-0.41-3.8,1.71-4.56c-0.1-2.27,3.5-2.62,4.95-2.09c0,0.25,0,0.5,0,0.76
	c0.72,0.14,1.08,0.63,1.65,0.92v-2.61c-0.51,0.06-0.68,1.25-1.27,0.56c1.35-0.22-0.77-1.92-0.95-1.14c-0.03-0.28,0.07-0.7-0.19-0.76
	c-0.68,0.21-1.11,0.66-1.71,0.95c0,0.25,0,0.5,0,0.76c-0.17,0.09-0.34,0.17-0.38,0.38c-0.57,0-1.14,0-1.71,0
	c-0.01-0.25-0.24-0.26-0.19-0.57c0.28-0.42-0.02-1.42,0.57-1.52c0.54-0.26,0.96,0.52,1.14,0c0.07,0,0.13,0,0.19,0
	c0.08-0.72-0.38-0.89-0.57-1.33c0.02-0.36,0.63-0.13,0.57-0.57c1.62-0.09,1.67-1.76,2.66-2.47c-0.16,0.22-0.25,0.51-0.19,0.95
	c0.7,0.17,0.34-1,0.19-1.14c-0.44-0.06-0.73,0.03-0.95,0.19c-0.26-0.24-0.12-0.9-0.38-1.14c1.11-0.99,1.52-2.68,3.17-3.13V5.92
	c-3.3-2.24-7.28-3.55-11.56-3.55c-3.12,0-6.09,0.7-8.74,1.95c0-0.01,0.01-0.02,0.01-0.03c-0.27,0.13-0.53,0.25-0.8,0.39
	c0.01,0,0.03,0.01,0.04,0.01c-0.05,0.03-0.1,0.05-0.15,0.07c-0.01-0.01-0.01-0.01-0.02-0.02c-0.15,0.08-0.3,0.16-0.45,0.24
	c0.02,0,0.03,0.01,0.04,0.01c-0.16,0.09-0.32,0.18-0.47,0.27c-0.01-0.01-0.02-0.01-0.02-0.02c0.09-0.05,0.18-0.11,0.27-0.16
	c-0.09,0.05-0.18,0.1-0.27,0.16c0,0,0,0,0,0c-0.04,0.02-0.08,0.04-0.11,0.07c0.02,0,0.03,0,0.04,0c-0.08,0.05-0.16,0.1-0.24,0.15
	c0-0.01,0.01-0.03,0.02-0.05c-0.01,0-0.01,0.01-0.02,0.01c-0.03,0.02-0.06,0.04-0.1,0.06c0.01-0.01,0.02-0.01,0.03-0.02
	c-0.09,0.06-0.18,0.11-0.27,0.17c0.06-0.04,0.12-0.08,0.18-0.11c-0.06,0.04-0.12,0.08-0.18,0.12c0,0.01,0,0.02,0,0.04
	c-0.01,0.01-0.01,0.01-0.02,0.01c-0.01-0.01-0.01-0.02-0.02-0.03c0.01-0.01,0.02-0.01,0.03-0.02c0,0,0,0,0,0
	c-0.01,0.01-0.02,0.02-0.03,0.02c0,0,0,0,0,0.01c-0.57,0.37-1.11,0.76-1.64,1.18c0.01,0.01,0.01,0.02,0.02,0.03
	c-4.72,3.78-7.74,9.58-7.74,16.1c0,11.39,9.23,20.62,20.61,20.62c4.29,0,8.26-1.31,11.56-3.55L41.91,37.52L41.91,37.52L41.91,37.52z
	 M36.64,11.44c0.99,0.21,0.71,1.7,1.52,2.09c0,0.13,0,0.25,0,0.38c-0.46-0.08-0.42,0.35-0.95,0.19c-0.36-0.04-0.42,0.21-0.76,0.19
	C37.22,13.28,36.23,12.45,36.64,11.44z M36.26,12.58c0.22,0.22,0.21,0.67,0.19,1.14c-0.32,0-0.63,0-0.95,0
	C35.43,13.02,35.65,12.61,36.26,12.58z M20.86,5.15c0.38,0.13,0.7,0.2,1.14-0.18c-0.25-0.02-0.54,0.02-0.79,0
	c0.9-0.46,1.83-0.85,2.8-1.17c-0.74,0.38-1.22,1.01-1.62,1.73c-0.89,0.09-1.58,0.17-2.14-0.04C20.44,5.38,20.65,5.26,20.86,5.15z
	 M19.38,6.03c0.19-0.12,0.38-0.24,0.57-0.36c0.04,0.09,0.12,0.14,0.34,0.06c-0.2,0.43-0.58,0.69-1.14,0.76
	C19.29,6.31,19.35,6.16,19.38,6.03z M28.08,34.27c-0.51,0.25-1.01,0.51-1.52,0.76c-0.18,1.25-1,2.76-2.09,2.47
	c-0.08,0.46,0.35,0.41,0.19,0.95c-1.95,0.55-1.52,1.74-1.83,3.28c-0.5-0.2-0.98-0.42-1.46-0.65c-0.75-1.48,0.51-4.22,0.05-6.92
	c-0.35-2.11-3.35-3.32-2.82-5.83c0.34-0.41,0.73-0.77,0.94-1.32c-1.37-2.02-4.06-2.72-6.02-4.14c0.06-1.06-0.33-1.68-0.94-2.07
	c0.03,0.53,0.35,0.78,0.38,1.31c-1.33-1.29-1.81-3.33-1.86-5.27c1.22-3.84,3.56-7.19,6.64-9.65c0.02,0.02,0.04,0.03,0.07,0.05
	c-0.04,0.52-0.71,0.43-0.95,0.76c1.28,0.38,1.33-1.14,2.09-0.19c0.08-0.46-0.35-0.41-0.19-0.95c0.24-0.01,0.26-0.25,0.57-0.19
	c0.09,1.08,0.71,0.6,0.95,1.33c0.04-0.21,0.21-0.3,0.38-0.38c0.2-0.71-0.71-0.3-0.57-0.95c0.03-1.05,1.61-0.55,2.28-0.95
	c0,0.31,0.53,0.1,0.57,0.38c-0.25-0.02-1.38-0.03-0.76,0.19c1.94-0.15,1.91,1.29,3.04,2.28c-0.38-0.06-0.38,0.26-0.57,0.38
	C24.41,9,24.08,8.19,23.9,8.78c0.42,0.03,0.41,0.48,0.38,0.95c-0.94-0.31-0.11,0.02-0.57,0.38c-0.71-0.37-1.26-0.9-2.09-1.14
	c0.47-0.17,1.1-0.17,1.14-0.76c0.14-0.58-0.52-0.37-0.38-0.95c-0.28,0-1.56-0.07-0.95,0.19c0.16,0.85-0.55,0.85-0.76,1.33
	c0.28,0.17,0.6,0.29,0.57,0.76c-0.15-0.1-0.31-0.2-0.57-0.19c-0.24,0.05-0.19,0.38,0,0.38c-0.04,0.32-0.91-0.09-0.76-0.57
	c-0.9,0.3-1.34,1.06-1.9,1.71c0.16,0.72,0.89,0.89,1.52,1.14c0.15,0.1,0.31,0.2,0.57,0.19c-0.14,0.58,0.19,0.69,0.19,1.14
	c0.65-1.53,1.21-1.14,1.14-3.61c0.16,0.03,0.18-0.07,0.19-0.19c0.19-0.02,0.45,0.5,1.14,0.38c0.48,0.15,0.1,1.17,0.76,1.14
	c0.62,0.23,0.15-0.62,0.76-0.38c0.6,1.78,1.63,2.68,1.9,4.38c-0.58,0.14-0.69-0.19-1.14-0.19c-0.67,0.17-0.32-0.62-0.19-0.76
	c0.27-0.1,0.46-0.3,0.57-0.57c-0.72,0.18-1.29,1.18-1.9,0.38c0.16,0.54-0.27,0.49-0.19,0.95c-0.04,0.16,0.07,0.18,0.19,0.19
	c0.15,0.04,0.38,0,0.38,0.19c0,0.06,0,0.12,0,0.19c-0.9,0.58-3.26,1.26-3.61,3.42c-0.56,0.01-0.71,0.44-0.95,0.76
	c-0.4,0.17,0.38,1.33-0.19,1.71c-0.46-0.24-0.62-0.78-0.76-1.33c-1.73-1-4.87,2.17-1.9,2.85c0.06,0,0.13,0,0.19,0
	c-0.07-0.6,1.04-0.85,1.14-0.19c-0.28,0.16-0.41,0.48-0.38,0.95c-0.03,0.41,0.68,0.09,0.95,0.19c-0.05,0.84-0.4,1.57,0.57,1.71
	c0.15,0.04,0.38,0.01,0.38,0.19c0.75-0.08,0.81-0.84,1.52-0.95c0.43,0.4,1.23,0.56,2.47,0.57c0.27,1.19,1.71,1.21,2.47,1.9
	c0,0.31,0,0.63,0,0.95c1.36,0.35,2.36,1.06,3.61,1.52C29.24,31.49,28.06,32.28,28.08,34.27z M21.62,22.85
	c0.06,0.82-0.69,0.52-1.14,0.38C20.65,22.9,21.07,22.81,21.62,22.85z M18.19,22.09c0.52-0.83,1.81,0.33,2.28,0.76
	C19.44,22.88,19.29,22.02,18.19,22.09z M28.28,10.87c-1.36-0.39-1.62-2.63-1.21-3.49c-0.1,0.07-0.28,0.05-0.31-0.12
	c0.89-2.53-2.18-1.78-2.67-3.23c0.32-0.25,1.21,0.07,1.14-0.57c-0.03,0-0.05,0.01-0.08,0.01c1.65-0.44,3.4-0.68,5.19-0.68
	c1.06,0,2.09,0.08,3.1,0.24c-0.01,0.02-0.02,0.03-0.03,0.05c0.12,0.02,0.26,0.02,0.41,0.02c0.32,0.06,0.63,0.12,0.95,0.19
	c-0.31,0.14-0.39,0.51-0.79,0.55c-0.14,0.58,0.19,0.69,0.19,1.14c-0.33,0.07-0.49-0.28-0.57,0c0.65,0.84-0.94,1.57,0,2.28
	c-1.39,0.71-3.34,0.85-4.19,2.09C29.01,9.82,28.82,10.52,28.28,10.87z M32.27,10.87c-0.29,0.79-1.22,0.94-1.9,1.33
	c-0.22-0.04-0.11-0.19,0-0.19c-0.03-0.35-0.64-0.12-0.76-0.38C29.42,9.31,32.48,8.77,32.27,10.87z M32.84,8.59
	c0.76,0.19,1.14,0.19,1.9,0c0.03,0.15,0.19,0.19,0.19,0.38c-0.03,0.74-0.74,0.78-1.52,0.76C33.24,9.33,32.83,9.17,32.84,8.59z"/>
</svg>
