<?xml version="1.0" encoding="utf-8"?>
<!-- Generator: Adobe Illustrator 15.1.0, SVG Export Plug-In . SVG Version: 6.00 Build 0)  -->
<!DOCTYPE svg PUBLIC "-//W3C//DTD SVG 1.1//EN" "http://www.w3.org/Graphics/SVG/1.1/DTD/svg11.dtd">
<svg version="1.1" id="Calque_1" xmlns="http://www.w3.org/2000/svg" xmlns:xlink="http://www.w3.org/1999/xlink" x="0px" y="0px"
	 width="104.666px" height="54.667px" viewBox="0 0 104.666 54.667" enable-background="new 0 0 104.666 54.667"
	 xml:space="preserve">
<polygon fill="#DADADA" points="104.133,54.667 104.666,54.667 104.666,0 0,0 0,0.535 "/>
<rect x="23.199" y="4.59" transform="matrix(1 0.0042 -0.0042 1 0.0255 -0.1023)" fill="#C6C6C6" stroke="#C6C6C6" stroke-width="2" width="2.941" height="2.988"/>
<rect x="64.591" y="29.304" transform="matrix(1 0.004 -0.004 1 0.1232 -0.2629)" fill="#C6C6C6" stroke="#C6C6C6" stroke-width="2" width="2.941" height="2.986"/>
<rect x="41.055" y="7.592" transform="matrix(1 0.0043 -0.0043 1 0.0396 -0.1835)" fill="#C6C6C6" stroke="#C6C6C6" stroke-width="2" width="2.941" height="2.986"/>
<rect x="100.525" y="45.262" transform="matrix(1 0.0043 -0.0043 1 0.2026 -0.4395)" fill="#C6C6C6" stroke="#C6C6C6" stroke-width="2" width="2.943" height="2.984"/>
<rect x="97.567" y="23.397" transform="matrix(1 0.0053 -0.0053 1 0.1334 -0.5251)" fill="#C6C6C6" stroke="#C6C6C6" stroke-width="2" width="2.945" height="2.986"/>
<rect x="83.517" y="29.307" transform="matrix(1 0.0046 -0.0046 1 0.144 -0.3944)" fill="#C6C6C6" stroke="#C6C6C6" stroke-width="2" width="2.943" height="2.986"/>
<polyline fill="none" stroke="#C6C6C6" stroke-width="2" points="33.899,18.157 48.712,15 83.31,24.89 92.524,1.583 104.666,15 "/>
<g enable-background="new    ">
	<path fill="#878787" d="M57.942,7.557c0,0.48-0.67,2.391-2.008,5.73c-1.34,3.34-2.009,5.244-2.009,5.713h-2.417
		c0-0.451-0.617-2.364-1.85-5.739s-1.85-5.276-1.85-5.704h2.786c0,0.428,0.393,1.945,1.178,4.553s1.178,4.087,1.178,4.438H53.1
		c0-0.34,0.394-1.767,1.183-4.28c0.787-2.514,1.182-4.084,1.182-4.711H57.942z"/>
</g>
<g enable-background="new    ">
	<path fill="#878787" d="M66.134,13.929c0,0.299-0.018,0.688-0.053,1.169l-5.66,0.097c0.082,0.662,0.366,1.213,0.853,1.652
		s1.125,0.659,1.916,0.659c0.879,0,1.813-0.132,2.804-0.396l-0.176,1.705c-0.809,0.293-1.811,0.439-3.006,0.439
		c-1.512,0-2.67-0.425-3.477-1.274c-0.805-0.85-1.208-1.872-1.208-3.067c0-1.248,0.382-2.33,1.147-3.247
		c0.764-0.917,1.826-1.376,3.186-1.376c1.242,0,2.165,0.337,2.769,1.011S66.134,12.851,66.134,13.929z M64.077,13.85
		c0-1.348-0.574-2.021-1.723-2.021c-1.096,0-1.746,0.697-1.951,2.092L64.077,13.85z"/>
	<path fill="#878787" d="M74.369,17.154l-0.149,1.679c-0.533,0.281-1.257,0.422-2.171,0.422c-1.512,0-2.673-0.422-3.485-1.266
		c-0.811-0.844-1.217-1.857-1.217-3.041c0-1.23,0.425-2.304,1.274-3.222c0.85-0.916,2.013-1.375,3.489-1.375
		c0.721,0,1.362,0.082,1.925,0.246l-0.299,1.793c-0.539-0.223-1.143-0.334-1.811-0.334c-0.709,0-1.269,0.25-1.679,0.752
		c-0.41,0.5-0.615,1.117-0.615,1.85c0,0.797,0.243,1.471,0.729,2.021s1.175,0.826,2.065,0.826
		C72.948,17.506,73.596,17.389,74.369,17.154z"/>
	<path fill="#878787" d="M80.943,17.356l-0.149,1.564c-0.41,0.176-0.926,0.264-1.547,0.264c-0.949,0-1.664-0.258-2.145-0.773
		s-0.721-1.509-0.721-2.979c0-0.885,0.006-1.887,0.018-3.006c-0.299,0-0.703,0.018-1.213,0.053l0.062-1.731
		c0.451,0.035,0.87,0.053,1.257,0.053c0.006-0.311,0.029-1.128,0.07-2.452l2.083-0.255c-0.088,1.166-0.132,2.068-0.132,2.707
		c0.492,0,1.228-0.023,2.206-0.07l-0.07,1.749c-0.891-0.035-1.614-0.053-2.171-0.053c-0.012,0.779-0.018,1.597-0.018,2.452
		c0,1.043,0.105,1.742,0.316,2.097s0.583,0.531,1.116,0.531C80.229,17.506,80.574,17.456,80.943,17.356z"/>
	<path fill="#878787" d="M90.734,14.632c0,1.477-0.454,2.631-1.362,3.463s-1.978,1.248-3.208,1.248
		c-1.172,0-2.177-0.379-3.015-1.138s-1.257-1.827-1.257-3.204c0-1.482,0.457-2.643,1.371-3.48s1.986-1.257,3.217-1.257
		c1.166,0,2.167,0.383,3.001,1.146C90.317,12.176,90.734,13.249,90.734,14.632z M88.44,14.896c0-0.85-0.199-1.562-0.598-2.14
		s-0.917-0.866-1.556-0.866c-0.621,0-1.127,0.27-1.517,0.809s-0.584,1.213-0.584,2.021c0,0.85,0.199,1.563,0.598,2.14
		c0.398,0.578,0.917,0.866,1.556,0.866c0.621,0,1.126-0.27,1.517-0.809C88.245,16.378,88.44,15.704,88.44,14.896z"/>
	<path fill="#878787" d="M98.117,10.65l-0.51,2.057c-0.434-0.176-0.873-0.264-1.318-0.264c-0.861,0-1.43,0.387-1.705,1.16
		c0,2.338,0.018,4.137,0.053,5.396h-2.338c0.1-1.764,0.149-3.205,0.149-4.324c0-1.395-0.146-2.716-0.439-3.964l2.241-0.246
		c0.1,0.645,0.149,1.022,0.149,1.134h0.141c0.539-0.826,1.257-1.239,2.153-1.239C97.115,10.36,97.59,10.457,98.117,10.65z"/>
</g>
<polyline fill="none" stroke="#C6C6C6" stroke-width="2" points="104.666,33.403 95.19,42.153 73.417,38.701 "/>
</svg>
