<?xml version="1.0" encoding="utf-8"?>
<!DOCTYPE svg PUBLIC "-//W3C//DTD SVG 1.1//EN" "http://www.w3.org/Graphics/SVG/1.1/DTD/svg11.dtd">
<svg version="1.1" id="Calque_1" xmlns="http://www.w3.org/2000/svg" xmlns:xlink="http://www.w3.org/1999/xlink" x="0px" y="0px"
	 width="40px" height="40px" viewBox="0 0 40 40" enable-background="new 0 0 40 40" xml:space="preserve">
<rect fill="#C6C6C6" width="40" height="40"/>
<g opacity="0.4">
	<circle fill="#FFFFFF" cx="20" cy="20.67" r="12.73"/>
	<g>
		<g>
			<path fill="#497CA4" d="M20,7.81c-1.98,0-3.85,0.44-5.53,1.21c0,0,0.01-0.01,0.01-0.02c-0.17,0.08-0.34,0.16-0.5,0.25
				c0.01,0,0.02,0,0.03,0.01c-0.03,0.01-0.06,0.03-0.09,0.05C13.9,9.29,13.9,9.29,13.9,9.29c-0.1,0.05-0.19,0.1-0.29,0.15
				c0.01,0,0.02,0,0.03,0c-0.1,0.06-0.2,0.11-0.3,0.17c-0.01,0-0.01-0.01-0.01-0.01c0.06-0.03,0.11-0.07,0.17-0.1
				c-0.05,0.03-0.11,0.06-0.17,0.1h0c-0.02,0.02-0.05,0.03-0.07,0.04c0.01,0,0.02,0.01,0.03,0.01c-0.05,0.03-0.1,0.06-0.15,0.09
				c0-0.01,0.01-0.02,0.01-0.03c0,0,0,0,0,0c0,0,0,0,0,0c-0.01,0.01-0.02,0.01-0.02,0.02c0,0,0.01-0.01,0.02-0.01
				c-0.02,0.01-0.04,0.03-0.06,0.04c0.01,0,0.01-0.01,0.02-0.01c-0.06,0.03-0.12,0.07-0.17,0.1c0.04-0.02,0.07-0.05,0.11-0.07
				c-0.04,0.02-0.07,0.05-0.11,0.07c0,0.01,0,0.02,0,0.02c0,0-0.01,0-0.01,0.01c0,0,0-0.01-0.01-0.02c0.01,0,0.01-0.01,0.02-0.01
				c0,0,0,0,0,0c-0.01,0-0.01,0.01-0.02,0.02c0,0,0,0,0,0c-0.36,0.23-0.7,0.47-1.04,0.73c0,0.01,0.01,0.01,0.01,0.02
				c-2.98,2.36-4.9,5.98-4.9,10.04c0,7.1,5.84,12.87,13.03,12.87c7.2,0,13.03-5.76,13.03-12.87C33.04,13.56,27.2,7.81,20,7.81z
				 M29.36,12.1c0.01,0.02,0.03,0.04,0.04,0.06c-0.34,0.1-0.31-0.17-0.6-0.12c0.12,0.21,0.21,0.64,0.48,0.36
				c0.02,0.16,0.17,0.05,0.29-0.07c1.85,2.07,3.02,4.73,3.18,7.67c-0.16,0-0.31,0-0.47,0c0.76,1.16-0.86,1.67-1.56,2.14
				c0.21,0.49,0.69-0.15,0.96,0.12c-0.12,1.19-0.97,1.65-1.56,2.37c0.03,0.9,0.06,1.15,0,2.02c-1.22,0.82-1.3,3.36-3.25,3.09
				c-0.32-0.87-0.33-2.04-0.72-2.85c0.8-1.14-0.33-1.9-0.24-3.32c-0.16-0.2-0.63-0.09-0.6-0.48c-0.75,0.26-1.29,0.15-2.04,0.24
				c-0.54-0.29-0.76-0.91-1.2-1.3c0.4-1.15-0.26-2.37,1.08-2.85c-0.06-1.41,2.21-1.63,3.13-1.31c0,0.16,0,0.32,0,0.48
				c0.47,0.09,0.7,0.42,1.08,0.59c-0.02-0.3,0.19-0.37,0.36-0.48c0.37,0.23,0.28,0.56,0.84,0.36c0.21,0.07,0.71-0.15,0.72,0.12
				c0.18-0.1,0.17-0.38,0.24-0.59c-0.11-0.41-0.74-0.3-1.09-0.48c-0.16-0.15-0.16-0.56,0-0.71c-0.76-0.06-0.12,0.57-0.6,0.71
				c-0.08,0-0.16,0-0.24,0c0.1-0.38-0.19-0.37-0.24-0.59c-0.36-0.03-0.46,0.81-0.84,0.36c0.86-0.14-0.48-1.19-0.6-0.71
				c-0.02-0.18,0.04-0.44-0.12-0.47c-0.43,0.13-0.71,0.41-1.09,0.59c0,0.16,0,0.32,0,0.48c-0.1,0.05-0.22,0.1-0.24,0.24
				c-0.36,0-0.72,0-1.08,0c-0.01-0.15-0.15-0.16-0.12-0.35c0.18-0.26-0.02-0.88,0.36-0.95c0.35-0.17,0.61,0.32,0.72,0
				c0.04,0,0.08,0,0.12,0c0.05-0.45-0.24-0.56-0.36-0.83c0.01-0.23,0.4-0.08,0.36-0.36c1.03-0.06,1.06-1.09,1.69-1.54
				c-0.1,0.14-0.16,0.32-0.12,0.59c0.44,0.11,0.22-0.63,0.12-0.71c-0.28-0.04-0.46,0.02-0.6,0.12c-0.17-0.15-0.07-0.56-0.24-0.71
				c0.76-0.68,0.99-1.88,2.28-2.02c0.39,0.09,0.74,0.23,1.03,0.41C28.88,11.61,29.12,11.85,29.36,12.1z M23.98,13.47
				c0.63,0.14,0.45,1.06,0.96,1.31c0,0.08,0,0.16,0,0.24c-0.29-0.05-0.26,0.22-0.6,0.12c-0.23-0.03-0.27,0.13-0.48,0.12
				C24.35,14.62,23.72,14.09,23.98,13.47z M23.86,14.89c-0.2,0-0.4,0-0.6,0c-0.05-0.44,0.1-0.7,0.48-0.71
				C23.88,14.32,23.88,14.6,23.86,14.89z M21.94,12.4c-0.11-0.25-0.36-0.35-0.36-0.71c0.48,0.11,0.72,0.11,1.21,0
				c0.02,0.1,0.12,0.12,0.12,0.24C22.88,12.38,22.43,12.41,21.94,12.4z M21.21,13.11c-0.18,0.49-0.77,0.58-1.2,0.83
				c-0.13-0.02-0.07-0.11,0-0.11c-0.02-0.22-0.41-0.08-0.48-0.24C19.41,12.14,21.35,11.8,21.21,13.11z M30.36,27.95
				c-0.3-0.91,0.36-1.28,0.72-2.02c0.36,0.28-0.15,0.72-0.12,1.07c-0.13,0.22-0.29,0.41-0.35,0.69c0,0.01-0.01,0.02-0.01,0.02
				C30.46,27.74,30.41,27.84,30.36,27.95z M21.96,8.21c-0.01,0.01-0.01,0.02-0.02,0.03c0.08,0.01,0.17,0.02,0.26,0.01
				c0.2,0.04,0.4,0.08,0.6,0.12c-0.19,0.09-0.25,0.32-0.5,0.35c-0.09,0.36,0.12,0.43,0.12,0.71c-0.21,0.05-0.31-0.18-0.36,0
				c0.41,0.52-0.59,0.98,0,1.42c-0.88,0.44-2.11,0.53-2.65,1.3c-0.26,0.3-0.38,0.74-0.72,0.95c-0.86-0.25-1.02-1.64-0.76-2.18
				c0.02-0.02,0.04-0.04,0.04-0.08c-0.01,0.02-0.03,0.05-0.04,0.07c-0.07,0.04-0.18,0.03-0.2-0.08c0.56-1.58-1.38-1.11-1.69-2.02
				c0.2-0.16,0.76,0.04,0.72-0.35c-0.02,0-0.03,0.01-0.05,0.01c1.05-0.28,2.15-0.43,3.28-0.43C20.66,8.06,21.32,8.12,21.96,8.21z
				 M14,9.54c0.24,0.08,0.44,0.12,0.72-0.11c-0.16-0.01-0.34,0.01-0.5,0c0.57-0.29,1.16-0.53,1.77-0.73
				c-0.47,0.24-0.77,0.63-1.03,1.08c-0.56,0.05-1,0.11-1.35-0.02C13.74,9.69,13.87,9.61,14,9.54z M13.42,9.87
				c0.03,0.06,0.08,0.09,0.22,0.04c-0.13,0.27-0.37,0.43-0.72,0.48c0.09-0.12,0.13-0.21,0.15-0.29C13.18,10.02,13.3,9.94,13.42,9.87
				z M12.03,10.83c0.01,0.01,0.03,0.02,0.04,0.03c-0.03,0.33-0.45,0.27-0.6,0.48c0.81,0.23,0.84-0.71,1.32-0.12
				c0.05-0.28-0.22-0.26-0.12-0.59c0.15-0.01,0.17-0.15,0.36-0.12c0.06,0.68,0.45,0.37,0.6,0.83c0.03-0.13,0.14-0.19,0.24-0.24
				c0.13-0.44-0.45-0.19-0.36-0.59c0.02-0.66,1.02-0.34,1.44-0.6c0,0.2,0.33,0.07,0.36,0.24c-0.16-0.02-0.87-0.02-0.48,0.12
				c1.23-0.1,1.21,0.81,1.93,1.42c-0.24-0.04-0.24,0.16-0.36,0.24c-0.16,0.02-0.36-0.48-0.48-0.12c0.27,0.02,0.26,0.3,0.24,0.59
				c-0.6-0.19-0.07,0.02-0.37,0.23c-0.45-0.23-0.79-0.56-1.32-0.71c0.3-0.1,0.69-0.1,0.73-0.48c0.09-0.36-0.33-0.23-0.24-0.59
				c-0.18,0-0.98-0.04-0.6,0.12c0.1,0.53-0.35,0.53-0.48,0.83c0.18,0.1,0.38,0.18,0.36,0.48c-0.1-0.06-0.2-0.12-0.36-0.12
				c-0.15,0.03-0.12,0.23,0,0.24c-0.02,0.2-0.57-0.06-0.48-0.36c-0.57,0.19-0.85,0.66-1.2,1.07c0.1,0.45,0.56,0.55,0.96,0.71
				c0.1,0.06,0.19,0.12,0.36,0.11c-0.09,0.36,0.12,0.43,0.12,0.71c0.41-0.96,0.76-0.71,0.72-2.25c0.1,0.02,0.11-0.05,0.12-0.12
				c0.12-0.01,0.29,0.31,0.73,0.24c0.3,0.09,0.06,0.73,0.48,0.71c0.39,0.15,0.09-0.38,0.48-0.24c0.38,1.11,1.03,1.67,1.2,2.73
				c-0.36,0.08-0.44-0.12-0.72-0.12c-0.42,0.1-0.21-0.39-0.12-0.48c0.17-0.06,0.29-0.18,0.36-0.35c-0.45,0.11-0.81,0.73-1.2,0.24
				c0.1,0.33-0.17,0.31-0.12,0.59c-0.02,0.1,0.05,0.11,0.12,0.12c0.09,0.02,0.24,0,0.24,0.12c0,0.04,0,0.08,0,0.12
				c-0.57,0.36-2.06,0.79-2.28,2.14c-0.35,0.01-0.45,0.27-0.6,0.48c-0.25,0.1,0.24,0.83-0.12,1.07c-0.29-0.15-0.39-0.49-0.48-0.83
				c-1.1-0.63-3.08,1.35-1.2,1.78c0.04,0,0.08,0,0.12,0c-0.04-0.38,0.66-0.53,0.72-0.12c-0.18,0.1-0.26,0.3-0.24,0.59
				c-0.02,0.26,0.43,0.06,0.6,0.12c-0.03,0.53-0.26,0.98,0.36,1.07c0.09,0.03,0.24,0.01,0.24,0.12c0.47-0.05,0.51-0.52,0.96-0.59
				c0.27,0.25,0.78,0.35,1.56,0.35c0.17,0.74,1.08,0.75,1.56,1.19c0,0.2,0,0.39,0,0.59c0.86,0.22,1.5,0.66,2.29,0.95
				c-0.11,1.12-0.86,1.61-0.84,2.85c-0.32,0.16-0.64,0.32-0.96,0.48c-0.11,0.78-0.63,1.72-1.32,1.54c-0.05,0.28,0.22,0.25,0.12,0.59
				c-1.23,0.34-0.96,1.08-1.15,2.05c-0.31-0.13-0.62-0.26-0.92-0.41c-0.48-0.93,0.32-2.63,0.03-4.32c-0.22-1.31-2.12-2.07-1.78-3.64
				c0.21-0.26,0.46-0.48,0.59-0.82c-0.87-1.25-2.56-1.69-3.81-2.58c0.03-0.66-0.21-1.05-0.6-1.29c0.02,0.34,0.22,0.49,0.24,0.82
				c-0.84-0.8-1.15-2.08-1.18-3.29C8.6,14.45,10.08,12.36,12.03,10.83z M14.48,20.59c0.04,0.51-0.44,0.32-0.72,0.24
				C13.87,20.62,14.13,20.56,14.48,20.59z M12.31,20.11c0.32-0.52,1.15,0.21,1.44,0.48C13.1,20.6,13.01,20.06,12.31,20.11z"/>
		</g>
	</g>
</g>
<g enable-background="new    ">
	<path fill="#70706F" d="M5.17,26.3l-2.4-10.05h2.08l1.52,6.91l1.84-6.91h2.41l1.76,7.02l1.54-7.02h2.04L13.52,26.3h-2.15l-2-7.52
		l-2,7.52H5.17z"/>
	<path fill="#70706F" d="M16.97,26.3V16.25h3.04l1.82,6.86l1.8-6.86h3.04V26.3h-1.89v-7.92l-2,7.92h-1.96l-1.99-7.92v7.92H16.97z"/>
	<path fill="#70706F" d="M28.18,23.03l1.97-0.19c0.12,0.66,0.36,1.15,0.72,1.46c0.36,0.31,0.85,0.47,1.47,0.47
		c0.65,0,1.15-0.14,1.48-0.42c0.33-0.28,0.5-0.6,0.5-0.97c0-0.24-0.07-0.44-0.21-0.61s-0.38-0.31-0.73-0.44
		c-0.24-0.08-0.78-0.23-1.62-0.44c-1.09-0.27-1.85-0.6-2.29-0.99c-0.62-0.55-0.93-1.23-0.93-2.02c0-0.51,0.15-0.99,0.44-1.44
		c0.29-0.45,0.71-0.79,1.25-1.02c0.55-0.23,1.21-0.35,1.98-0.35c1.26,0,2.21,0.28,2.85,0.83c0.64,0.55,0.97,1.29,1,2.22l-2.03,0.09
		c-0.09-0.52-0.27-0.89-0.56-1.11s-0.71-0.34-1.29-0.34c-0.59,0-1.05,0.12-1.38,0.36c-0.22,0.16-0.32,0.36-0.32,0.62
		c0,0.24,0.1,0.44,0.3,0.61c0.26,0.21,0.88,0.44,1.87,0.67c0.99,0.23,1.72,0.47,2.19,0.72c0.47,0.25,0.84,0.59,1.11,1.02
		c0.27,0.43,0.4,0.97,0.4,1.6c0,0.58-0.16,1.12-0.48,1.62c-0.32,0.5-0.77,0.88-1.36,1.12c-0.58,0.24-1.31,0.37-2.19,0.37
		c-1.27,0-2.25-0.29-2.93-0.88C28.72,25.01,28.31,24.16,28.18,23.03z"/>
</g>
</svg>
