<svg xmlns="http://www.w3.org/2000/svg" width="41.9" height="45" viewBox="0 0 41.9 45"><g fill="#B2DBD3"><path d="M25.62 37.3c-2.1-1.9-2.3-5-.5-7.1 1.8-2.1 5-2.3 7.1-.5 2.1 1.9 2.3 5 .5 7.1-1.8 2.1-5 2.3-7.1.5zM26.22 24.7l-.6-2.7c-6 1.2-9.8 7.1-8.5 13.1l2.7-.6c-.9-4.5 1.9-8.9 6.4-9.8z"/><path opacity=".75" enable-background="new" d="M22.22 17.3l-.602-2.7c-9 1.9-14.7 10.7-12.8 19.7l2.7-.6c-1.598-7.5 3.2-14.8 10.7-16.4z"/><path opacity=".5" enable-background="new" d="M18.02 10l-.5-2.8C5.42 9.8-2.28 21.6.32 33.6l2.8-.6c-2.2-10.5 4.5-20.8 14.9-23z"/></g><path opacity=".25" fill="#B2DBD3" enable-background="new" d="M-.18 7.3v4.1c3.5-4.3 8.4-7.5 14.2-8.7l-.6-2.7c-5.4 1.1-10 3.7-13.6 7.3z"/></svg>