<?xml version="1.0" encoding="utf-8"?>
<!DOCTYPE svg PUBLIC "-//W3C//DTD SVG 1.1//EN" "http://www.w3.org/Graphics/SVG/1.1/DTD/svg11.dtd">
<svg version="1.1" id="Calque_1" xmlns="http://www.w3.org/2000/svg" xmlns:xlink="http://www.w3.org/1999/xlink" x="0px" y="0px"
	 width="41.9px" height="45px" viewBox="0 0 41.9 45" enable-background="new 0 0 41.9 45" xml:space="preserve">
<path opacity="0.5" fill="#77A6B6" enable-background="new    " d="M41.9,37.5c-0.2,0-0.5,0-0.7,0c-0.5-1.4-0.5-3.3-1.1-4.6
	c1.3-1.8-0.5-3-0.4-5.3c-0.3-0.3-1-0.1-0.9-0.8c-1.2,0.4-2,0.2-3.2,0.4c-0.9-0.5-1.2-1.5-1.9-2.1c0.6-1.8-0.4-3.8,1.7-4.6
	c-0.1-2.3,3.5-2.6,4.9-2.1c0,0.2,0,0.5,0,0.8c0.7,0.1,1.1,0.6,1.7,0.9v-2.6c-0.5,0.1-0.7,1.2-1.3,0.6c1.3-0.2-0.8-1.9-1-1.1
	c0-0.3,0.1-0.7-0.2-0.8c-0.7,0.2-1.1,0.7-1.7,1c0,0.2,0,0.5,0,0.8c-0.2,0.1-0.3,0.2-0.4,0.4c-0.6,0-1.1,0-1.7,0
	c0-0.2-0.2-0.3-0.2-0.6c0.3-0.4,0-1.4,0.6-1.5c0.5-0.3,1,0.5,1.1,0c0.1,0,0.1,0,0.2,0c0.1-0.7-0.4-0.9-0.6-1.3
	c0-0.4,0.6-0.1,0.6-0.6c1.6-0.1,1.7-1.8,2.7-2.5c-0.2,0.2-0.2,0.5-0.2,1c0.7,0.2,0.3-1,0.2-1.1c-0.4-0.1-0.7,0-1,0.2
	c-0.3-0.2-0.1-0.9-0.4-1.1c1.1-1,1.5-2.7,3.2-3.1V5.9c-3.3-2.2-7.3-3.5-11.6-3.5c-3.1,0-6.1,0.7-8.7,1.9l0,0
	c-0.3,0.1-0.5,0.2-0.8,0.4l0,0c-0.1,0-0.1,0.1-0.1,0.1l0,0C20.5,4.9,20.4,5,20.2,5l0,0c-0.2,0.1-0.3,0.2-0.5,0.3l0,0
	c0.1-0.1,0.2-0.1,0.3-0.2c-0.1,0-0.2,0.1-0.3,0.2l0,0c0,0-0.1,0-0.1,0.1l0,0c-0.1,0-0.2,0.1-0.2,0.1l0,0l0,0c0,0-0.1,0-0.1,0.1l0,0
	c-0.1,0.1-0.2,0.1-0.3,0.2c0.1,0,0.1-0.1,0.2-0.1c-0.1,0-0.1,0.1-0.2,0.1l0,0l0,0l0,0l0,0l0,0l0,0l0,0c-0.5,0.2-1,0.6-1.5,1.1l0,0
	c-4.7,3.8-7.7,9.6-7.7,16.1c0,11.4,9.2,20.6,20.6,20.6c4.3,0,8.3-1.3,11.6-3.5L41.9,37.5L41.9,37.5L41.9,37.5z M36.6,11.4
	c1,0.2,0.7,1.7,1.5,2.1c0,0.1,0,0.2,0,0.4c-0.5-0.1-0.4,0.3-1,0.2c-0.4,0-0.4,0.2-0.8,0.2C37.2,13.3,36.2,12.5,36.6,11.4z
	 M36.3,12.6c0.2,0.2,0.2,0.7,0.2,1.1c-0.3,0-0.6,0-1,0C35.4,13,35.7,12.6,36.3,12.6z M20.9,5.1C21.2,5.3,21.6,5.4,22,5
	c-0.2,0-0.5,0-0.8,0C22.1,4.5,23,4.1,24,3.8c-0.7,0.4-1.2,1-1.6,1.7c-0.9,0.1-1.6,0.2-2.1,0C20.4,5.4,20.6,5.3,20.9,5.1z M19.4,6
	c0.2-0.1,0.4-0.2,0.6-0.4c0,0.1,0.1,0.1,0.3,0.1c-0.2,0.4-0.6,0.7-1.1,0.8C19.3,6.3,19.4,6.2,19.4,6z M28.1,34.3
	c-0.5,0.2-1,0.5-1.5,0.8c-0.2,1.2-1,2.8-2.1,2.5c-0.1,0.5,0.3,0.4,0.2,1c-2,0.5-1.5,1.7-1.8,3.3c-0.5-0.2-1-0.4-1.5-0.7
	c-0.8-1.5,0.5-4.2,0-6.9C21,32.2,18,31,18.6,28.5c0.3-0.4,0.7-0.8,0.9-1.3c-1.4-2-4.1-2.7-6-4.1c0.1-1.1-0.3-1.7-0.9-2.1
	c0,0.5,0.4,0.8,0.4,1.3C11.7,21,11.2,19,11.1,17c1.2-3.8,3.6-7.2,6.6-9.6c0,0,0,0,0.1,0.1c0,0.5-0.7,0.4-1,0.8
	c1.3,0.4,1.3-1.1,2.1-0.2c0.1-0.5-0.4-0.4-0.2-1c0.2,0,0.3-0.2,0.6-0.2c0.1,0.9,0.7,0.4,1,1.1c0-0.2,0.2-0.3,0.4-0.4
	c0.2-0.7-0.7-0.3-0.6-1c0-1,1.6-0.5,2.3-0.9c0,0.3,0.5,0.1,0.6,0.4c-0.2,0-1.4,0-0.8,0.2c1.9-0.1,1.9,1.3,3,2.3
	c-0.4-0.1-0.4,0.3-0.6,0.4c-0.2,0-0.6-0.8-0.8-0.2c0.4,0,0.4,0.5,0.4,1c-0.9-0.3-0.1,0-0.6,0.4c-0.6-0.5-1.1-1-2-1.2
	c0.5-0.2,1.1-0.2,1.1-0.8c0.1-0.6-0.5-0.4-0.4-1c-0.3,0-1.6-0.1-0.9,0.2c0.2,0.8-0.6,0.8-0.8,1.3C21,9,21.3,9.1,21.2,9.5
	c-0.2-0.1-0.3-0.2-0.6-0.2c-0.2,0-0.2,0.4,0,0.4c0,0.3-0.9-0.1-0.8-0.6c-0.9,0.3-1.3,1.1-1.9,1.7c0.2,0.7,0.9,0.9,1.5,1.1
	c0.2,0.1,0.3,0.2,0.6,0.2c-0.1,0.6,0.2,0.7,0.2,1.1c0.6-1.5,1.2-1.1,1.1-3.6c0.2,0,0.2-0.1,0.2-0.2c0.2,0,0.5,0.5,1.1,0.4
	c0.5,0.1,0.1,1.2,0.8,1.1c0.6,0.2,0.2-0.6,0.8-0.4c0.6,1.8,1.6,2.7,1.9,4.4c-0.6,0.1-0.7-0.2-1.1-0.2c-0.7,0.2-0.3-0.6-0.2-0.8
	c0.3-0.1,0.5-0.3,0.6-0.6c-0.7,0.2-1.3,1.2-1.9,0.4c0.2,0.5-0.3,0.5-0.2,1c0,0.2,0.1,0.2,0.2,0.2c0.2,0,0.4,0,0.4,0.2
	c0,0.1,0,0.1,0,0.2c-0.9,0.6-3.3,1.3-3.6,3.4c-0.6,0-0.7,0.4-1,0.8c-0.4,0.2,0.4,1.3-0.2,1.7c-0.5-0.2-0.6-0.8-0.8-1.3
	c-1.7-1-4.9,2.2-1.9,2.9c0.1,0,0.1,0,0.2,0c-0.1-0.6,1-0.9,1.1-0.2c-0.3,0.2-0.4,0.5-0.4,0.9s0.7,0.1,1,0.2
	c-0.1,0.8-0.4,1.6,0.6,1.7c0.1,0,0.4,0,0.4,0.2c0.8-0.1,0.8-0.8,1.5-1c0.4,0.4,1.2,0.6,2.5,0.6c0.3,1.2,1.7,1.2,2.5,1.9
	c0,0.3,0,0.6,0,0.9c1.4,0.3,2.4,1.1,3.6,1.5C29.2,31.5,28.1,32.3,28.1,34.3z M21.6,22.9c0.1,0.8-0.7,0.5-1.1,0.4
	C20.6,22.9,21.1,22.8,21.6,22.9z M18.2,22.1c0.5-0.8,1.8,0.3,2.3,0.8C19.4,22.9,19.3,22,18.2,22.1z M28.3,10.9
	c-1.4-0.4-1.6-2.6-1.2-3.5c-0.1,0.1-0.3,0.1-0.3-0.1c0.9-2.5-2.2-1.8-2.7-3.2c0.3-0.2,1.2,0.1,1.1-0.6h-0.1c1.6-0.4,3.4-0.7,5.2-0.7
	c1.1,0,2.1,0.1,3.1,0.2c0,0,0,0,0,0.1c0.1,0,0.3,0,0.4,0c0.3,0.1,0.6,0.1,0.9,0.2c-0.3,0.1-0.4,0.5-0.8,0.5
	c-0.1,0.6,0.2,0.7,0.2,1.1c-0.3,0.1-0.5-0.3-0.6,0c0.7,0.8-0.9,1.6,0,2.3c-1.4,0.7-3.3,0.9-4.2,2.1C29,9.8,28.8,10.5,28.3,10.9z
	 M32.3,10.9c-0.3,0.8-1.2,0.9-1.9,1.3c-0.2,0-0.1-0.2,0-0.2c0-0.3-0.6-0.1-0.8-0.4C29.4,9.3,32.5,8.8,32.3,10.9z M32.8,8.6
	c0.8,0.2,1.1,0.2,1.9,0c0,0.2,0.2,0.2,0.2,0.4c0,0.7-0.7,0.8-1.5,0.8C33.2,9.3,32.8,9.2,32.8,8.6z"/>
</svg>
