<?xml version="1.0" encoding="utf-8"?>
<!-- Generator: Adobe Illustrator 15.1.0, SVG Export Plug-In . SVG Version: 6.00 Build 0)  -->
<!DOCTYPE svg PUBLIC "-//W3C//DTD SVG 1.1//EN" "http://www.w3.org/Graphics/SVG/1.1/DTD/svg11.dtd">
<svg version="1.1" id="Calque_1" xmlns="http://www.w3.org/2000/svg" xmlns:xlink="http://www.w3.org/1999/xlink" x="0px" y="0px"
	 width="41.91px" height="45px" viewBox="0 2.369 41.91 45" enable-background="new 0 2.369 41.91 45" xml:space="preserve">
<path opacity="0.5" fill="#77A6B6" enable-background="new    " d="M41.91,37.515c-0.218,0.021-0.445,0.024-0.698-0.013
	c-0.509-1.393-0.529-3.277-1.142-4.564c1.266-1.827-0.517-3.046-0.381-5.328c-0.256-0.313-0.998-0.14-0.95-0.76
	c-1.187,0.409-2.041,0.243-3.235,0.381c-0.855-0.476-1.198-1.465-1.901-2.092c0.643-1.844-0.405-3.798,1.713-4.564
	c-0.102-2.266,3.497-2.624,4.946-2.094c0,0.253,0,0.505,0,0.759c0.719,0.139,1.077,0.632,1.65,0.916v-2.614
	c-0.514,0.057-0.684,1.249-1.268,0.558c1.354-0.221-0.767-1.915-0.951-1.141c-0.033-0.284,0.069-0.702-0.19-0.76
	c-0.676,0.209-1.114,0.66-1.713,0.952c0,0.251,0,0.504,0,0.759c-0.168,0.086-0.34,0.168-0.379,0.38c-0.571,0-1.143,0-1.713,0
	c-0.011-0.245-0.244-0.264-0.19-0.573c0.279-0.417-0.021-1.416,0.573-1.521c0.544-0.265,0.965,0.519,1.138,0
	c0.065,0,0.127,0,0.192,0c0.084-0.719-0.377-0.893-0.571-1.332c0.021-0.358,0.629-0.133,0.571-0.571
	c1.62-0.091,1.668-1.756,2.663-2.473c-0.161,0.219-0.252,0.512-0.19,0.952c0.7,0.173,0.345-1.005,0.19-1.142
	c-0.441-0.062-0.729,0.03-0.952,0.19c-0.263-0.244-0.115-0.897-0.379-1.142c1.106-0.994,1.518-2.683,3.169-3.13V5.919
	c-3.299-2.239-7.279-3.55-11.565-3.55c-3.125,0-6.087,0.7-8.74,1.946c0.002-0.011,0.007-0.019,0.007-0.03
	c-0.268,0.126-0.534,0.255-0.796,0.392c0.014,0.003,0.032,0.005,0.045,0.007c-0.049,0.026-0.1,0.049-0.145,0.075
	C20.71,4.751,20.705,4.748,20.7,4.74c-0.152,0.078-0.303,0.158-0.453,0.242c0.016,0.002,0.028,0.008,0.043,0.009
	c-0.159,0.09-0.317,0.18-0.474,0.272c-0.01-0.007-0.018-0.011-0.024-0.017c0.089-0.053,0.178-0.106,0.265-0.157
	c-0.09,0.052-0.181,0.104-0.271,0.157c0,0,0.002,0,0.003,0.002c-0.038,0.021-0.075,0.043-0.112,0.066
	c0.018-0.004,0.025,0.003,0.042,0.005c-0.081,0.047-0.159,0.1-0.24,0.147c0.005-0.015,0.01-0.03,0.016-0.047
	c-0.008,0.004-0.013,0.008-0.02,0.011c-0.031,0.022-0.063,0.041-0.097,0.06c0.01-0.006,0.02-0.012,0.029-0.018
	c-0.089,0.057-0.181,0.112-0.271,0.169c0.06-0.037,0.121-0.075,0.18-0.11c-0.059,0.037-0.118,0.076-0.18,0.116
	c0,0.011,0.001,0.025,0.003,0.035c-0.006,0.006-0.012,0.009-0.017,0.011c-0.006-0.007-0.01-0.02-0.018-0.026
	c0.012-0.006,0.021-0.013,0.029-0.02c0.001-0.002,0-0.002,0-0.004c-0.011,0.007-0.021,0.015-0.033,0.02
	c0.002,0.002,0.002,0.004,0.002,0.006c-0.568,0.367-1.114,0.759-1.643,1.179c0.006,0.013,0.012,0.021,0.016,0.034
	c-4.716,3.781-7.74,9.583-7.74,16.099c0,11.386,9.227,20.619,20.608,20.619c4.286,0,8.265-1.311,11.563-3.552v-2.536H41.91z
	 M36.644,11.44c0.99,0.214,0.715,1.696,1.522,2.094c0,0.127,0,0.254,0,0.38c-0.458-0.079-0.415,0.347-0.952,0.19
	c-0.358-0.043-0.418,0.212-0.761,0.19C37.222,13.281,36.235,12.446,36.644,11.44z M36.263,12.582
	c0.219,0.223,0.215,0.674,0.19,1.139c-0.317,0-0.635,0-0.952,0C35.427,13.015,35.655,12.606,36.263,12.582z M20.856,5.153
	c0.384,0.127,0.704,0.2,1.138-0.179C21.747,4.958,21.452,4.99,21.2,4.977c0.896-0.458,1.832-0.85,2.8-1.171
	c-0.736,0.382-1.225,1.015-1.623,1.735c-0.889,0.088-1.582,0.175-2.143-0.039C20.442,5.384,20.647,5.264,20.856,5.153z M19.378,6.03
	c0.187-0.123,0.375-0.244,0.566-0.358c0.041,0.092,0.124,0.144,0.34,0.06c-0.203,0.431-0.577,0.692-1.141,0.761
	C19.286,6.308,19.345,6.16,19.378,6.03z M28.083,34.268c-0.511,0.252-1.014,0.512-1.521,0.762c-0.179,1.25-1,2.762-2.094,2.473
	c-0.078,0.457,0.347,0.412,0.19,0.951c-1.947,0.551-1.515,1.735-1.827,3.283c-0.496-0.2-0.981-0.416-1.457-0.651
	c-0.754-1.483,0.508-4.22,0.053-6.924c-0.354-2.106-3.353-3.323-2.82-5.831c0.338-0.413,0.734-0.771,0.938-1.317
	c-1.369-2.016-4.056-2.716-6.017-4.138c0.055-1.057-0.332-1.676-0.941-2.067c0.031,0.533,0.345,0.784,0.378,1.315
	c-1.326-1.293-1.807-3.332-1.863-5.268c1.222-3.841,3.564-7.185,6.642-9.648c0.022,0.017,0.045,0.034,0.067,0.048
	c-0.045,0.522-0.705,0.433-0.95,0.76c1.276,0.379,1.329-1.14,2.091-0.19c0.078-0.457-0.347-0.413-0.188-0.95
	c0.241-0.011,0.262-0.245,0.57-0.189c0.093,1.084,0.71,0.595,0.951,1.331c0.041-0.213,0.212-0.297,0.38-0.379
	c0.202-0.709-0.714-0.302-0.571-0.952c0.025-1.054,1.606-0.551,2.283-0.952c0.003,0.315,0.527,0.105,0.57,0.379
	c-0.25-0.023-1.377-0.027-0.761,0.19c1.941-0.153,1.912,1.292,3.044,2.284c-0.374-0.058-0.379,0.257-0.571,0.379
	c-0.253,0.028-0.574-0.772-0.762-0.19c0.419,0.028,0.41,0.479,0.382,0.952c-0.943-0.31-0.108,0.022-0.573,0.381
	c-0.711-0.369-1.256-0.899-2.092-1.142c0.466-0.166,1.096-0.172,1.141-0.761c0.142-0.584-0.523-0.366-0.381-0.95
	c-0.278,0.002-1.556-0.073-0.949,0.19c0.156,0.853-0.547,0.849-0.762,1.331c0.28,0.166,0.602,0.286,0.571,0.761
	c-0.153-0.1-0.308-0.198-0.571-0.189c-0.239,0.046-0.192,0.377,0,0.379c-0.035,0.323-0.905-0.087-0.762-0.571
	C19.002,9.459,18.558,10.223,18,10.87c0.164,0.724,0.889,0.888,1.523,1.141c0.152,0.1,0.309,0.198,0.57,0.188
	c-0.138,0.583,0.194,0.693,0.189,1.142c0.651-1.531,1.208-1.136,1.143-3.615c0.161,0.034,0.18-0.074,0.189-0.19
	c0.187-0.017,0.452,0.502,1.141,0.378c0.484,0.151,0.104,1.167,0.761,1.144c0.617,0.234,0.146-0.617,0.762-0.382
	c0.595,1.776,1.629,2.68,1.901,4.376c-0.58,0.138-0.692-0.194-1.141-0.188c-0.665,0.168-0.324-0.621-0.189-0.763
	c0.273-0.104,0.464-0.298,0.57-0.569c-0.716,0.179-1.288,1.177-1.901,0.38c0.157,0.537-0.267,0.492-0.188,0.95
	c-0.037,0.161,0.073,0.18,0.188,0.19c0.148,0.043,0.377,0.004,0.38,0.19c0,0.062,0,0.125,0,0.189
	c-0.904,0.584-3.264,1.259-3.614,3.424c-0.558,0.012-0.706,0.435-0.95,0.762c-0.405,0.168,0.375,1.329-0.191,1.711
	c-0.458-0.237-0.615-0.78-0.762-1.333c-1.731-1.004-4.866,2.169-1.902,2.855c0.065,0,0.127,0,0.192,0
	c-0.07-0.604,1.043-0.854,1.14-0.192c-0.282,0.164-0.411,0.479-0.38,0.951c-0.032,0.412,0.676,0.087,0.951,0.19
	c-0.054,0.843-0.403,1.571,0.572,1.711c0.146,0.045,0.375,0.006,0.381,0.19c0.746-0.076,0.812-0.836,1.521-0.95
	c0.426,0.396,1.228,0.556,2.473,0.571c0.267,1.19,1.711,1.206,2.473,1.903c0,0.315,0,0.631,0,0.95
	c1.358,0.354,2.361,1.063,3.613,1.521C29.236,31.49,28.059,32.277,28.083,34.268z M21.616,22.855
	c0.063,0.816-0.694,0.515-1.141,0.38C20.65,22.903,21.068,22.814,21.616,22.855z M18.192,22.094
	c0.515-0.831,1.813,0.332,2.283,0.761C19.439,22.875,19.286,22.015,18.192,22.094z M28.275,10.868
	c-1.357-0.39-1.618-2.631-1.212-3.49c-0.099,0.071-0.276,0.046-0.31-0.125c0.893-2.526-2.177-1.784-2.665-3.232
	c0.317-0.254,1.212,0.068,1.142-0.572c-0.025,0.002-0.051,0.012-0.076,0.014c1.655-0.438,3.396-0.677,5.19-0.677
	c1.056,0,2.091,0.082,3.101,0.237c-0.013,0.017-0.019,0.027-0.034,0.046c0.12,0.023,0.262,0.025,0.412,0.02
	c0.319,0.057,0.635,0.12,0.948,0.188c-0.306,0.14-0.391,0.506-0.787,0.552c-0.14,0.583,0.193,0.692,0.188,1.141
	c-0.327,0.075-0.487-0.283-0.569,0c0.653,0.841-0.936,1.574,0,2.284c-1.386,0.707-3.337,0.847-4.188,2.091
	C29.006,9.822,28.817,10.522,28.275,10.868z M32.268,10.87c-0.291,0.786-1.219,0.936-1.902,1.331c-0.216-0.035-0.106-0.19,0-0.188
	c-0.027-0.352-0.643-0.119-0.761-0.381C29.415,9.307,32.478,8.765,32.268,10.87z M32.84,8.588c0.762,0.185,1.142,0.185,1.903,0
	c0.035,0.153,0.189,0.188,0.188,0.379c-0.026,0.735-0.742,0.78-1.521,0.761C33.242,9.325,32.833,9.167,32.84,8.588z"/>
</svg>
