<?xml version="1.0" encoding="utf-8"?>
<!-- Generator: Adobe Illustrator 15.1.0, SVG Export Plug-In . SVG Version: 6.00 Build 0)  -->
<!DOCTYPE svg PUBLIC "-//W3C//DTD SVG 1.1//EN" "http://www.w3.org/Graphics/SVG/1.1/DTD/svg11.dtd">
<svg version="1.1" id="Calque_1" xmlns="http://www.w3.org/2000/svg" xmlns:xlink="http://www.w3.org/1999/xlink" x="0px" y="0px"
	 width="40px" height="40px" viewBox="0 0 40 40" enable-background="new 0 0 40 40" xml:space="preserve">
<rect fill="#C6C6C6" width="40" height="40"/>
<g opacity="0.4">
	<circle fill="#FFFFFF" cx="20" cy="20.67" r="12.728"/>
	<g>
		<g>
			<path fill="#497CA4" d="M20,7.806c-1.977,0-3.85,0.438-5.53,1.214c0.004-0.005,0.006-0.012,0.006-0.019
				c-0.169,0.078-0.337,0.159-0.503,0.245c0.008,0.004,0.021,0.004,0.029,0.006c-0.031,0.014-0.063,0.029-0.094,0.048
				c-0.005-0.007-0.006-0.009-0.01-0.014c-0.096,0.049-0.192,0.099-0.287,0.152c0.009,0.001,0.018,0.003,0.029,0.005
				c-0.101,0.055-0.203,0.111-0.301,0.17c-0.006-0.002-0.012-0.006-0.015-0.011c0.057-0.033,0.112-0.067,0.166-0.098
				c-0.054,0.033-0.114,0.064-0.169,0.098h0.001c-0.023,0.016-0.049,0.028-0.071,0.042c0.013-0.001,0.017,0.006,0.026,0.006
				c-0.052,0.027-0.101,0.062-0.152,0.092c0.004-0.01,0.009-0.02,0.009-0.03c0,0,0,0,0,0.001c0-0.001,0-0.001,0-0.001
				c-0.009,0.006-0.019,0.011-0.025,0.017c0.004-0.003,0.01-0.006,0.016-0.01c-0.02,0.014-0.043,0.028-0.062,0.038
				c0.006-0.004,0.013-0.007,0.019-0.01c-0.056,0.032-0.116,0.069-0.17,0.104c0.037-0.024,0.075-0.048,0.114-0.07
				c-0.039,0.025-0.075,0.048-0.114,0.074c0,0.006,0,0.016,0,0.021c-0.001,0.004-0.007,0.004-0.01,0.007
				c-0.002-0.005-0.005-0.011-0.009-0.018c0.007-0.003,0.012-0.009,0.018-0.011c0,0,0-0.002,0-0.004
				c-0.006,0.005-0.014,0.009-0.021,0.015c0,0,0,0,0,0.003c-0.357,0.228-0.704,0.473-1.038,0.735
				c0.005,0.008,0.009,0.013,0.013,0.021c-2.984,2.356-4.896,5.98-4.896,10.043c0,7.104,5.836,12.865,13.033,12.865
				c7.198,0,13.033-5.762,13.033-12.865S27.198,7.806,20,7.806z M29.358,12.096c0.01,0.023,0.029,0.042,0.04,0.065
				c-0.342,0.098-0.313-0.168-0.602-0.119c0.122,0.209,0.208,0.636,0.481,0.356c0.025,0.158,0.166,0.05,0.294-0.068
				c1.847,2.066,3.022,4.731,3.181,7.665c-0.156,0-0.312,0-0.468,0c0.759,1.164-0.86,1.665-1.563,2.139
				c0.214,0.488,0.688-0.154,0.962,0.116c-0.119,1.189-0.972,1.652-1.563,2.374c0.029,0.901,0.063,1.146,0,2.018
				c-1.223,0.824-1.303,3.365-3.25,3.086c-0.321-0.87-0.334-2.044-0.722-2.85c0.802-1.138-0.326-1.9-0.239-3.322
				c-0.164-0.196-0.633-0.087-0.603-0.475c-0.75,0.257-1.289,0.151-2.045,0.237c-0.544-0.295-0.759-0.912-1.203-1.305
				c0.405-1.148-0.257-2.369,1.084-2.85c-0.064-1.411,2.213-1.634,3.128-1.307c0,0.16,0,0.318,0,0.476
				c0.472,0.089,0.695,0.423,1.082,0.595c-0.02-0.298,0.186-0.373,0.36-0.476c0.369,0.229,0.277,0.556,0.844,0.356
				c0.21,0.068,0.706-0.145,0.722,0.119c0.177-0.103,0.173-0.383,0.241-0.595c-0.11-0.406-0.742-0.297-1.087-0.476
				c-0.162-0.151-0.162-0.559,0-0.712c-0.763-0.055-0.121,0.572-0.598,0.712c-0.081,0-0.163,0-0.242,0
				c0.104-0.379-0.189-0.366-0.24-0.593c-0.359-0.028-0.458,0.806-0.844,0.356c0.858-0.139-0.481-1.194-0.6-0.712
				c-0.021-0.176,0.043-0.438-0.118-0.474c-0.43,0.13-0.708,0.411-1.087,0.592c0,0.159,0,0.317,0,0.475
				c-0.104,0.053-0.216,0.104-0.24,0.236c-0.359,0-0.721,0-1.083,0c-0.008-0.15-0.15-0.162-0.119-0.354
				c0.178-0.261-0.015-0.885,0.361-0.948c0.346-0.167,0.611,0.321,0.723,0c0.042,0,0.078,0,0.118,0
				c0.055-0.449-0.236-0.559-0.359-0.831c0.012-0.225,0.398-0.085,0.359-0.358c1.027-0.056,1.057-1.094,1.687-1.542
				c-0.102,0.14-0.157,0.317-0.119,0.593c0.441,0.11,0.218-0.626,0.119-0.71c-0.278-0.038-0.462,0.018-0.602,0.117
				c-0.169-0.15-0.074-0.561-0.24-0.711c0.761-0.676,0.986-1.876,2.285-2.02c0.388,0.095,0.735,0.228,1.034,0.406
				C28.881,11.609,29.124,11.849,29.358,12.096z M23.982,13.466c0.627,0.135,0.454,1.058,0.962,1.307c0,0.08,0,0.158,0,0.236
				c-0.288-0.049-0.262,0.217-0.601,0.12c-0.228-0.026-0.266,0.134-0.482,0.117C24.348,14.615,23.725,14.094,23.982,13.466z
				 M23.861,14.89c-0.199,0-0.4,0-0.6,0c-0.049-0.442,0.097-0.695,0.48-0.713C23.88,14.318,23.877,14.599,23.861,14.89z
				 M21.938,12.398c-0.106-0.251-0.365-0.352-0.363-0.712c0.484,0.115,0.725,0.115,1.206,0c0.022,0.097,0.119,0.118,0.119,0.236
				C22.885,12.383,22.432,12.409,21.938,12.398z M21.215,13.111c-0.184,0.489-0.77,0.584-1.202,0.828
				c-0.134-0.021-0.067-0.114,0-0.114c-0.019-0.221-0.405-0.076-0.481-0.241C19.41,12.136,21.345,11.798,21.215,13.111z
				 M30.36,27.948c-0.304-0.912,0.363-1.275,0.721-2.02c0.356,0.281-0.146,0.719-0.123,1.07c-0.129,0.218-0.288,0.408-0.354,0.692
				c-0.004,0.006-0.007,0.015-0.013,0.021C30.464,27.739,30.411,27.842,30.36,27.948z M21.96,8.214
				c-0.009,0.011-0.013,0.018-0.022,0.029c0.078,0.014,0.166,0.016,0.261,0.012c0.201,0.036,0.402,0.075,0.601,0.117
				c-0.194,0.088-0.247,0.316-0.498,0.346c-0.087,0.363,0.122,0.433,0.118,0.712c-0.205,0.047-0.307-0.176-0.36,0
				c0.414,0.525-0.591,0.983,0,1.425c-0.875,0.441-2.109,0.529-2.646,1.304c-0.26,0.298-0.381,0.736-0.723,0.953
				c-0.857-0.247-1.023-1.644-0.764-2.18c0.021-0.018,0.039-0.043,0.039-0.076c-0.014,0.023-0.028,0.048-0.039,0.074
				c-0.066,0.044-0.177,0.032-0.197-0.075c0.564-1.577-1.378-1.113-1.685-2.019c0.2-0.157,0.764,0.044,0.72-0.355
				c-0.016,0.002-0.029,0.009-0.049,0.009C17.766,8.214,18.862,8.065,20,8.065C20.664,8.065,21.321,8.117,21.96,8.214z
				 M13.998,9.543c0.241,0.079,0.443,0.125,0.72-0.111c-0.157-0.008-0.345,0.012-0.501,0.003c0.568-0.285,1.158-0.529,1.771-0.729
				c-0.466,0.236-0.774,0.631-1.026,1.081c-0.561,0.055-1,0.107-1.354-0.025C13.736,9.688,13.865,9.613,13.998,9.543z M13.42,9.866
				c0.027,0.059,0.079,0.091,0.217,0.039c-0.129,0.269-0.365,0.431-0.722,0.475c0.091-0.116,0.127-0.209,0.147-0.29
				C13.18,10.016,13.3,9.938,13.42,9.866z M12.031,10.825c0.014,0.009,0.028,0.021,0.043,0.03c-0.029,0.327-0.449,0.27-0.604,0.476
				c0.807,0.234,0.84-0.714,1.324-0.121c0.049-0.284-0.22-0.257-0.121-0.593c0.153-0.005,0.167-0.15,0.361-0.117
				c0.061,0.676,0.447,0.371,0.602,0.831c0.025-0.134,0.135-0.187,0.24-0.237c0.128-0.444-0.451-0.189-0.361-0.594
				c0.018-0.656,1.02-0.344,1.445-0.595c0.003,0.196,0.334,0.069,0.359,0.237c-0.156-0.015-0.869-0.017-0.48,0.12
				c1.229-0.096,1.209,0.806,1.926,1.424c-0.236-0.035-0.24,0.16-0.361,0.236c-0.16,0.018-0.363-0.481-0.482-0.117
				c0.266,0.017,0.262,0.297,0.243,0.593c-0.599-0.194-0.071,0.015-0.365,0.235c-0.446-0.229-0.792-0.561-1.322-0.711
				c0.298-0.104,0.694-0.105,0.725-0.475c0.089-0.364-0.333-0.227-0.241-0.593c-0.176,0-0.984-0.045-0.603,0.118
				c0.099,0.533-0.347,0.531-0.481,0.832c0.176,0.103,0.381,0.177,0.361,0.476c-0.097-0.064-0.195-0.123-0.361-0.12
				c-0.151,0.03-0.123,0.235,0,0.237c-0.021,0.201-0.572-0.057-0.482-0.356c-0.569,0.188-0.848,0.664-1.201,1.069
				c0.102,0.45,0.559,0.553,0.962,0.714c0.097,0.061,0.194,0.123,0.36,0.114c-0.086,0.364,0.125,0.434,0.121,0.713
				c0.408-0.955,0.764-0.706,0.722-2.254c0.101,0.021,0.111-0.048,0.119-0.119c0.12-0.011,0.286,0.314,0.725,0.237
				c0.305,0.095,0.062,0.728,0.48,0.713c0.388,0.146,0.09-0.384,0.48-0.236c0.376,1.106,1.028,1.669,1.201,2.729
				c-0.364,0.085-0.435-0.12-0.72-0.117c-0.422,0.104-0.205-0.389-0.121-0.478c0.174-0.065,0.295-0.184,0.362-0.354
				c-0.452,0.11-0.815,0.735-1.203,0.236c0.099,0.335-0.167,0.307-0.122,0.594c-0.02,0.1,0.046,0.111,0.122,0.119
				c0.093,0.024,0.237,0.002,0.239,0.118c0,0.04,0,0.08,0,0.118c-0.57,0.363-2.062,0.787-2.285,2.137
				c-0.352,0.007-0.447,0.272-0.602,0.477c-0.252,0.103,0.238,0.827-0.123,1.066c-0.287-0.147-0.385-0.487-0.479-0.831
				c-1.096-0.627-3.078,1.353-1.203,1.781c0.039,0,0.077,0,0.121,0c-0.045-0.377,0.66-0.531,0.721-0.119
				c-0.178,0.101-0.258,0.3-0.242,0.593c-0.018,0.26,0.429,0.055,0.604,0.119c-0.033,0.526-0.256,0.98,0.361,1.067
				c0.094,0.026,0.237,0.006,0.24,0.117c0.471-0.046,0.513-0.52,0.963-0.591c0.269,0.248,0.777,0.349,1.562,0.355
				c0.17,0.744,1.082,0.752,1.563,1.188c0,0.198,0,0.394,0,0.593c0.86,0.222,1.495,0.664,2.286,0.949
				c-0.112,1.115-0.857,1.606-0.84,2.85c-0.324,0.155-0.641,0.317-0.965,0.475c-0.111,0.781-0.629,1.723-1.321,1.543
				c-0.049,0.283,0.218,0.255,0.118,0.592c-1.232,0.345-0.957,1.085-1.154,2.051c-0.315-0.126-0.623-0.261-0.924-0.407
				c-0.477-0.926,0.322-2.635,0.034-4.319c-0.224-1.314-2.119-2.075-1.783-3.639c0.214-0.258,0.464-0.482,0.595-0.824
				c-0.867-1.254-2.564-1.69-3.807-2.579c0.033-0.659-0.21-1.047-0.596-1.293c0.02,0.336,0.218,0.49,0.24,0.822
				c-0.84-0.805-1.145-2.077-1.18-3.287C8.604,14.447,10.084,12.361,12.031,10.825z M14.478,20.588
				c0.042,0.511-0.437,0.322-0.72,0.237C13.867,20.619,14.133,20.562,14.478,20.588z M12.314,20.113
				c0.324-0.517,1.145,0.207,1.443,0.475C13.102,20.602,13.006,20.064,12.314,20.113z"/>
		</g>
	</g>
</g>
<text transform="matrix(1 0 0 1 2.7168 26.3018)" fill="#70706F" font-family="'Arial-BoldMT'" font-size="14.046">WMS</text>
</svg>
