<?xml version="1.0" encoding="utf-8"?>
<!DOCTYPE svg PUBLIC "-//W3C//DTD SVG 1.1//EN" "http://www.w3.org/Graphics/SVG/1.1/DTD/svg11.dtd">
<svg version="1.1" id="Calque_1" xmlns="http://www.w3.org/2000/svg" xmlns:xlink="http://www.w3.org/1999/xlink" x="0px" y="0px"
	 width="104.7px" height="54.7px" viewBox="0 0 104.7 54.7" style="enable-background:new 0 0 104.7 54.7;" xml:space="preserve">
<style type="text/css"><![CDATA[
	.st0{fill:#878787;}	.st1{enable-background:new;} .st2{fill:none;stroke:#C6C6C6;stroke-width:2;} .st3{fill:#C6C6C6;stroke:#C6C6C6;stroke-width:2;} .st4{fill:#DADADA;}
]]></style>
<polygon class="st4" points="104.1,54.7 104.7,54.7 104.7,0 0,0 0,0.5 "/>
<rect x="23.2" y="4.6" transform="matrix(-1 -4.209419e-03 4.209419e-03 -1 49.2744 12.3034)" class="st3" width="2.9" height="3"/>
<rect x="64.6" y="29.3" transform="matrix(-1 -4.040381e-03 4.040381e-03 -1 131.9756 61.8672)" class="st3" width="2.9" height="3"/>
<rect x="41.1" y="7.6" transform="matrix(-1 -4.377740e-03 4.377740e-03 -1 85.0603 18.3864)" class="st3" width="2.9" height="3"/>
<rect x="100.5" y="45.3" transform="matrix(-1 -3.703737e-03 3.703737e-03 -1 203.7273 93.9769)" class="st3" width="2.9" height="3"/>
<rect x="97.6" y="23.4" transform="matrix(-1 -5.370981e-03 5.370981e-03 -1 198.068 50.3332)" class="st3" width="3" height="3"/>
<rect x="83.5" y="29.3" transform="matrix(-1 -4.715338e-03 4.715338e-03 -1 169.7562 62.0008)" class="st3" width="2.9" height="3"/>
<polyline class="st2" points="33.9,18.2 48.7,15 83.3,24.9 92.5,1.6 104.7,15 "/>
<g class="st1">
	<path class="st0" d="M57.9,7.6c0,0.5-0.7,2.4-2,5.7c-1.3,3.3-2,5.2-2,5.7h-2.4c0-0.5-0.6-2.4-1.9-5.7c-1.2-3.4-1.9-5.3-1.9-5.7h2.8
		c0,0.4,0.4,1.9,1.2,4.5c0.8,2.6,1.2,4.1,1.2,4.4h0.2c0-0.3,0.4-1.8,1.2-4.3c0.8-2.5,1.2-4.1,1.2-4.7h2.4V7.6z"/>
</g>
<g class="st1">
	<path class="st0" d="M66.1,13.9c0,0.3,0,0.7,0,1.2l-5.7,0.1c0.1,0.7,0.4,1.2,0.9,1.6c0.5,0.4,1.1,0.7,1.9,0.7
		c0.9,0,1.8-0.1,2.8-0.4l-0.2,1.7c-0.8,0.3-1.8,0.4-3,0.4c-1.5,0-2.7-0.4-3.5-1.3c-0.8-0.9-1.2-1.9-1.2-3.1c0-1.2,0.4-2.3,1.1-3.2
		c0.8-0.9,1.8-1.4,3.2-1.4c1.2,0,2.2,0.3,2.8,1C65.8,12,66.1,12.9,66.1,13.9z M64.1,13.9c0-1.4-0.6-2-1.7-2s-1.8,0.7-2,2.1
		L64.1,13.9z"/>
	<path class="st0" d="M74.4,17.1l-0.2,1.7c-0.5,0.3-1.3,0.4-2.2,0.4c-1.5,0-2.7-0.4-3.5-1.3c-0.8-0.8-1.2-1.9-1.2-3
		c0-1.2,0.4-2.3,1.3-3.2c0.8-0.9,2-1.4,3.5-1.4c0.7,0,1.4,0.1,1.9,0.2l-0.3,1.8c-0.5-0.2-1.1-0.3-1.8-0.3s-1.3,0.2-1.7,0.8
		c-0.4,0.6-0.6,1.1-0.6,1.9c0,0.8,0.2,1.5,0.7,2c0.5,0.6,1.2,0.8,2.1,0.8C73,17.5,73.6,17.4,74.4,17.1z"/>
	<path class="st0" d="M80.9,17.4L80.7,19c-0.4,0.2-0.9,0.3-1.5,0.3c-1,0-1.7-0.3-2.1-0.8c-0.5-0.5-0.7-1.5-0.7-3c0-0.9,0-1.9,0-3
		c-0.3,0-0.7,0-1.2,0.1l0.1-1.7c0.5,0,0.9,0,1.3,0c0-0.3,0-1.1,0.1-2.5l2.1-0.3c-0.1,1.2-0.1,2.1-0.1,2.7c0.5,0,1.2,0,2.2-0.1
		l-0.1,1.8c-0.9,0-1.6-0.1-2.2-0.1c0,0.8,0,1.6,0,2.5c0,1,0.1,1.7,0.3,2.1s0.6,0.5,1.1,0.5C80.2,17.5,80.6,17.5,80.9,17.4z"/>
	<path class="st0" d="M90.7,14.6c0,1.5-0.4,2.6-1.4,3.5s-2,1.2-3.2,1.2c-1.2,0-2.2-0.4-3-1.1c-0.8-0.8-1.3-1.8-1.3-3.2
		c0-1.5,0.5-2.6,1.4-3.5c0.9-0.8,2-1.3,3.2-1.3s2.2,0.4,3,1.2C90.3,12.2,90.7,13.2,90.7,14.6z M88.4,14.9c0-0.9-0.2-1.6-0.6-2.1
		c-0.4-0.6-0.9-0.9-1.6-0.9c-0.6,0-1.1,0.3-1.5,0.8s-0.6,1.2-0.6,2c0,0.8,0.2,1.6,0.6,2.1s0.9,0.9,1.6,0.9c0.6,0,1.1-0.3,1.5-0.8
		C88.2,16.4,88.4,15.7,88.4,14.9z"/>
	<path class="st0" d="M98.1,10.6l-0.5,2.1c-0.4-0.2-0.9-0.3-1.3-0.3c-0.9,0-1.4,0.4-1.7,1.2c0,2.3,0,4.1,0,5.4h-2.3
		c0.1-1.8,0.2-3.2,0.2-4.3c0-1.4-0.2-2.7-0.4-4l2.2-0.2c0.1,0.6,0.1,1,0.1,1.1h0.1c0.5-0.8,1.3-1.2,2.2-1.2
		C97.1,10.4,97.6,10.5,98.1,10.6z"/>
</g>
<polyline class="st2" points="104.7,33.4 95.2,42.1 73.4,38.7 "/>
</svg>
