<?xml version="1.0" encoding="utf-8"?>
<!DOCTYPE svg PUBLIC "-//W3C//DTD SVG 1.1//EN" "http://www.w3.org/Graphics/SVG/1.1/DTD/svg11.dtd">
<svg version="1.1" id="Calque_1" xmlns="http://www.w3.org/2000/svg" xmlns:xlink="http://www.w3.org/1999/xlink" x="0px" y="0px"
	 width="40px" height="40px" viewBox="0 0 40 40" enable-background="new 0 0 40 40" xml:space="preserve">
<rect fill="#C6C6C6" width="40" height="40"/>
<g opacity="0.4">
	<circle fill="#FFFFFF" cx="20" cy="20.7" r="12.7"/>
	<g>
		<g>
			<path fill="#497CA4" d="M20,7.8c-2,0-3.9,0.4-5.5,1.2c0,0,0,0,0,0c-0.2,0.1-0.3,0.2-0.5,0.2c0,0,0,0,0,0c0,0-0.1,0-0.1,0.1
				c0,0,0,0,0,0c-0.1,0-0.2,0.1-0.3,0.1c0,0,0,0,0,0c-0.1,0.1-0.2,0.1-0.3,0.2c0,0,0,0,0,0c0.1,0,0.1-0.1,0.2-0.1
				c0,0-0.1,0.1-0.2,0.1l0,0c0,0-0.1,0-0.1,0c0,0,0,0,0,0c0,0-0.1,0.1-0.1,0.1c0,0,0,0,0,0l0,0l0,0c0,0,0,0,0,0c0,0,0,0,0,0
				c0,0,0,0-0.1,0c0,0,0,0,0,0c-0.1,0-0.1,0.1-0.2,0.1c0,0,0.1-0.1,0.1-0.1c0,0-0.1,0.1-0.1,0.1c0,0,0,0,0,0s0,0,0,0c0,0,0,0,0,0
				c0,0,0,0,0,0l0,0c0,0,0,0,0,0l0,0c-0.4,0.2-0.7,0.5-1,0.7c0,0,0,0,0,0c-3,2.4-4.9,6-4.9,10c0,7.1,5.8,12.9,13,12.9
				c7.2,0,13-5.8,13-12.9C33,13.6,27.2,7.8,20,7.8z M29.4,12.1C29.4,12.1,29.4,12.1,29.4,12.1c-0.3,0.2-0.3-0.1-0.6-0.1
				c0.1,0.2,0.2,0.6,0.5,0.4c0,0.2,0.2,0.1,0.3-0.1c1.8,2.1,3,4.7,3.2,7.7c-0.2,0-0.3,0-0.5,0c0.8,1.2-0.9,1.7-1.6,2.1
				c0.2,0.5,0.7-0.2,1,0.1c-0.1,1.2-1,1.7-1.6,2.4c0,0.9,0.1,1.1,0,2c-1.2,0.8-1.3,3.4-3.2,3.1c-0.3-0.9-0.3-2-0.7-2.8
				c0.8-1.1-0.3-1.9-0.2-3.3c-0.2-0.2-0.6-0.1-0.6-0.5c-0.8,0.3-1.3,0.2-2,0.2c-0.5-0.3-0.8-0.9-1.2-1.3c0.4-1.1-0.3-2.4,1.1-2.8
				c-0.1-1.4,2.2-1.6,3.1-1.3c0,0.2,0,0.3,0,0.5c0.5,0.1,0.7,0.4,1.1,0.6c0-0.3,0.2-0.4,0.4-0.5c0.4,0.2,0.3,0.6,0.8,0.4
				c0.2,0.1,0.7-0.1,0.7,0.1c0.2-0.1,0.2-0.4,0.2-0.6c-0.1-0.4-0.7-0.3-1.1-0.5c-0.2-0.1-0.2-0.6,0-0.7c-0.8-0.1-0.1,0.6-0.6,0.7
				c-0.1,0-0.2,0-0.2,0c0.1-0.4-0.2-0.4-0.2-0.6c-0.4,0-0.5,0.8-0.8,0.4c0.9-0.1-0.5-1.2-0.6-0.7c0-0.2,0-0.4-0.1-0.5
				c-0.4,0.1-0.7,0.4-1.1,0.6c0,0.2,0,0.3,0,0.5c-0.1,0.1-0.2,0.1-0.2,0.2c-0.4,0-0.7,0-1.1,0c0-0.1-0.1-0.2-0.1-0.4
				c0.2-0.3,0-0.9,0.4-0.9c0.4-0.2,0.6,0.3,0.7,0c0,0,0.1,0,0.1,0c0-0.5-0.2-0.6-0.4-0.8c0-0.2,0.4-0.1,0.4-0.4
				c1-0.1,1.1-1.1,1.7-1.5C26,13.9,26,14.1,26,14.3c0.4,0.1,0.2-0.6,0.1-0.7c-0.3,0-0.5,0-0.6,0.1c-0.2-0.2-0.1-0.6-0.2-0.7
				c0.8-0.7,1-1.9,2.3-2c0.4,0.1,0.7,0.2,1,0.4C28.9,11.6,29.1,11.9,29.4,12.1z M24,13.5c0.6,0.1,0.4,1.1,1,1.3c0,0.1,0,0.2,0,0.2
				c-0.3,0-0.3,0.2-0.6,0.1c-0.2,0-0.3,0.1-0.5,0.1C24.3,14.6,23.7,14.1,24,13.5z M23.9,14.9c-0.2,0-0.4,0-0.6,0
				c0-0.4,0.1-0.7,0.5-0.7C23.9,14.3,23.9,14.6,23.9,14.9z M21.9,12.4c-0.1-0.2-0.4-0.4-0.4-0.7c0.5,0.1,0.7,0.1,1.2,0
				c0,0.1,0.1,0.1,0.1,0.2C22.9,12.4,22.4,12.4,21.9,12.4z M21.2,13.1c-0.2,0.5-0.8,0.6-1.2,0.8c-0.1,0-0.1-0.1,0-0.1
				c0-0.2-0.4-0.1-0.5-0.2C19.4,12.1,21.3,11.8,21.2,13.1z M30.4,28c-0.3-0.9,0.4-1.3,0.7-2c0.4,0.3-0.2,0.7-0.1,1.1
				c-0.1,0.2-0.3,0.4-0.4,0.7c0,0,0,0,0,0C30.5,27.7,30.4,27.8,30.4,28z M22,8.2C22,8.2,22,8.2,22,8.2c0.1,0,0.1,0,0.2,0
				c0.2,0,0.4,0.1,0.6,0.1c-0.2,0.1-0.2,0.3-0.5,0.4c-0.1,0.4,0.1,0.4,0.1,0.7c-0.2,0-0.3-0.2-0.4,0c0.4,0.5-0.6,1,0,1.4
				c-0.9,0.4-2.1,0.5-2.7,1.3c-0.3,0.3-0.4,0.7-0.7,1c-0.9-0.2-1-1.6-0.8-2.2c0,0,0,0,0-0.1c0,0,0,0.1,0,0.1c-0.1,0-0.2,0-0.2-0.1
				c0.6-1.6-1.4-1.1-1.7-2c0.2-0.2,0.8,0,0.7-0.4c0,0,0,0,0,0C17.8,8.2,18.9,8,20,8C20.7,8.1,21.3,8.1,22,8.2z M14,9.5
				c0.2,0.1,0.4,0.1,0.7-0.1c-0.2,0-0.3,0-0.5,0c0.6-0.3,1.2-0.5,1.8-0.7c-0.5,0.2-0.8,0.6-1,1.1c-0.6,0.1-1,0.1-1.4,0
				C13.7,9.7,13.9,9.6,14,9.5z M13.4,9.9c0,0.1,0.1,0.1,0.2,0c-0.1,0.3-0.4,0.4-0.7,0.5c0.1-0.1,0.1-0.2,0.1-0.3
				C13.2,10,13.3,9.9,13.4,9.9z M12,10.8C12,10.8,12.1,10.9,12,10.8c0,0.4-0.4,0.3-0.6,0.5c0.8,0.2,0.8-0.7,1.3-0.1
				c0-0.3-0.2-0.3-0.1-0.6c0.1,0,0.2-0.1,0.4-0.1c0.1,0.7,0.5,0.4,0.6,0.8c0-0.1,0.1-0.2,0.2-0.2c0.1-0.4-0.5-0.2-0.4-0.6
				c0-0.7,1-0.3,1.4-0.6c0,0.2,0.3,0.1,0.4,0.2c-0.2,0-0.9,0-0.5,0.1c1.2-0.1,1.2,0.8,1.9,1.4c-0.2,0-0.2,0.2-0.4,0.2
				c-0.2,0-0.4-0.5-0.5-0.1c0.3,0,0.3,0.3,0.2,0.6c-0.6-0.2-0.1,0-0.4,0.2c-0.5-0.2-0.8-0.6-1.3-0.7c0.3-0.1,0.7-0.1,0.7-0.5
				c0.1-0.4-0.3-0.2-0.2-0.6c-0.2,0-1,0-0.6,0.1c0.1,0.5-0.4,0.5-0.5,0.8c0.2,0.1,0.4,0.2,0.4,0.5c-0.1-0.1-0.2-0.1-0.4-0.1
				c-0.1,0-0.1,0.2,0,0.2c0,0.2-0.6-0.1-0.5-0.4c-0.6,0.2-0.9,0.7-1.2,1.1c0.1,0.5,0.6,0.6,1,0.7c0.1,0.1,0.2,0.1,0.4,0.1
				c-0.1,0.4,0.1,0.4,0.1,0.7c0.4-1,0.8-0.7,0.7-2.2c0.1,0,0.1-0.1,0.1-0.1c0.1,0,0.3,0.3,0.7,0.2c0.3,0.1,0.1,0.7,0.5,0.7
				c0.4,0.1,0.1-0.4,0.5-0.2c0.4,1.1,1,1.7,1.2,2.7c-0.4,0.1-0.4-0.1-0.7-0.1c-0.4,0.1-0.2-0.4-0.1-0.5c0.2-0.1,0.3-0.2,0.4-0.4
				c-0.5,0.1-0.8,0.7-1.2,0.2c0.1,0.3-0.2,0.3-0.1,0.6c0,0.1,0.1,0.1,0.1,0.1c0.1,0,0.2,0,0.2,0.1c0,0,0,0.1,0,0.1
				c-0.6,0.4-2.1,0.8-2.3,2.1c-0.4,0-0.4,0.3-0.6,0.5c-0.2,0.1,0.2,0.8-0.1,1.1c-0.3-0.1-0.4-0.5-0.5-0.8c-1.1-0.6-3.1,1.4-1.2,1.8
				c0,0,0.1,0,0.1,0c0-0.4,0.7-0.5,0.7-0.1c-0.2,0.1-0.3,0.3-0.2,0.6c0,0.3,0.4,0.1,0.6,0.1c0,0.5-0.3,1,0.4,1.1
				c0.1,0,0.2,0,0.2,0.1c0.5,0,0.5-0.5,1-0.6c0.3,0.2,0.8,0.4,1.6,0.4c0.2,0.7,1.1,0.8,1.6,1.2c0,0.2,0,0.4,0,0.6
				c0.9,0.2,1.5,0.7,2.3,0.9c-0.1,1.1-0.9,1.6-0.8,2.9c-0.3,0.2-0.6,0.3-1,0.5c-0.1,0.8-0.6,1.7-1.3,1.5c0,0.3,0.2,0.2,0.1,0.6
				c-1.2,0.3-1,1.1-1.1,2c-0.3-0.1-0.6-0.3-0.9-0.4c-0.5-0.9,0.3-2.6,0-4.3c-0.2-1.3-2.1-2.1-1.8-3.6c0.2-0.3,0.5-0.5,0.6-0.8
				c-0.9-1.2-2.6-1.7-3.8-2.6c0-0.7-0.2-1-0.6-1.3c0,0.3,0.2,0.5,0.2,0.8c-0.8-0.8-1.1-2.1-1.2-3.3C8.6,14.5,10.1,12.4,12,10.8z
				 M14.5,20.6c0,0.5-0.4,0.3-0.7,0.2C13.9,20.6,14.1,20.6,14.5,20.6z M12.3,20.1c0.3-0.5,1.1,0.2,1.4,0.5
				C13.1,20.6,13,20.1,12.3,20.1z"/>
		</g>
	</g>
</g>
<g enable-background="new    ">
	<path fill="#70706F" d="M5.2,26.3l-2.4-10h2.1l1.5,6.9l1.8-6.9h2.4l1.8,7l1.5-7h2l-2.4,10h-2.1l-2-7.5l-2,7.5H5.2z"/>
	<path fill="#70706F" d="M17,26.3v-10h3l1.8,6.9l1.8-6.9h3v10h-1.9v-7.9l-2,7.9h-2l-2-7.9v7.9H17z"/>
	<path fill="#70706F" d="M28.2,23l2-0.2c0.1,0.7,0.4,1.2,0.7,1.5s0.9,0.5,1.5,0.5c0.7,0,1.2-0.1,1.5-0.4c0.3-0.3,0.5-0.6,0.5-1
		c0-0.2-0.1-0.4-0.2-0.6c-0.1-0.2-0.4-0.3-0.7-0.4c-0.2-0.1-0.8-0.2-1.6-0.4c-1.1-0.3-1.8-0.6-2.3-1c-0.6-0.6-0.9-1.2-0.9-2
		c0-0.5,0.1-1,0.4-1.4c0.3-0.4,0.7-0.8,1.2-1c0.5-0.2,1.2-0.4,2-0.4c1.3,0,2.2,0.3,2.9,0.8c0.6,0.6,1,1.3,1,2.2l-2,0.1
		c-0.1-0.5-0.3-0.9-0.6-1.1c-0.3-0.2-0.7-0.3-1.3-0.3c-0.6,0-1,0.1-1.4,0.4c-0.2,0.2-0.3,0.4-0.3,0.6c0,0.2,0.1,0.4,0.3,0.6
		c0.3,0.2,0.9,0.4,1.9,0.7s1.7,0.5,2.2,0.7c0.5,0.2,0.8,0.6,1.1,1s0.4,1,0.4,1.6c0,0.6-0.2,1.1-0.5,1.6c-0.3,0.5-0.8,0.9-1.4,1.1
		c-0.6,0.2-1.3,0.4-2.2,0.4c-1.3,0-2.2-0.3-2.9-0.9C28.7,25,28.3,24.2,28.2,23z"/>
</g>
</svg>
