<?xml version="1.0" encoding="utf-8"?>
<!DOCTYPE svg PUBLIC "-//W3C//DTD SVG 1.1//EN" "http://www.w3.org/Graphics/SVG/1.1/DTD/svg11.dtd">
<svg version="1.1" id="Calque_1" xmlns="http://www.w3.org/2000/svg" xmlns:xlink="http://www.w3.org/1999/xlink" x="0px" y="0px"
	 width="40px" height="40px" viewBox="0 0 40 40" enable-background="new 0 0 40 40" xml:space="preserve">
<rect fill="#C6C6C6" width="40" height="40"/>
<path fill="#706F6F" d="M30.14,10.42c-5.29-5.29-13.86-5.29-19.15,0c-5.29,5.29-5.29,13.87,0,19.15c5.29,5.29,13.87,5.29,19.15,0
	C35.44,24.29,35.44,15.71,30.14,10.42z M20.35,8.8c1.43,0,2.59,1.16,2.59,2.59c0,1.44-1.16,2.62-2.59,2.62
	c-1.45,0-2.62-1.17-2.62-2.62C17.73,9.94,18.88,8.8,20.35,8.8z M24.52,27.87c0,0.55-0.27,0.81-0.81,0.81h-6.69
	c-0.55,0-0.81-0.26-0.81-0.81v-1.71c0-0.54,0.27-0.81,0.81-0.81h1.23v-7.2h-1.26c-0.54,0-0.81-0.26-0.81-0.81v-1.7
	c0-0.55,0.27-0.81,0.81-0.81h4.67c0.55,0,0.81,0.26,0.81,0.81v9.71h1.23c0.54,0,0.81,0.26,0.81,0.81L24.52,27.87L24.52,27.87z"/>
</svg>
