<?xml version="1.0" encoding="utf-8"?>
<!DOCTYPE svg PUBLIC "-//W3C//DTD SVG 1.1//EN" "http://www.w3.org/Graphics/SVG/1.1/DTD/svg11.dtd">
<svg version="1.1" id="Calque_1" xmlns="http://www.w3.org/2000/svg" xmlns:xlink="http://www.w3.org/1999/xlink" x="0px" y="0px"
	 width="40px" height="40px" viewBox="0 0 40 40" style="enable-background:new 0 0 40 40;" xml:space="preserve">
<style type="text/css"><![CDATA[
	.st0{fill:#1A769E;}	.st1{fill:#EDEDED;}	.st2{fill:#C6C6C6;}	.st3{fill:#FFFFFF;}	.st4{fill:#70706F;}
]]></style>
<rect class="st2" width="40" height="40"/>
<g>
	<rect x="5.8" y="11.9" class="st3" width="27.7" height="21.3"/>
	<g>
		<rect x="14.9" y="14.9" class="st0" width="3.8" height="3.8"/>
		<rect x="20.6" y="14.9" class="st0" width="3.8" height="3.8"/>
		<rect x="26.3" y="14.9" class="st0" width="3.8" height="3.8"/>
		<rect x="9.2" y="20.6" class="st0" width="3.8" height="3.8"/>
		<rect x="14.9" y="20.6" class="st0" width="3.8" height="3.8"/>
		<rect x="20.6" y="20.6" class="st0" width="3.8" height="3.8"/>
		<rect x="26.3" y="20.6" class="st0" width="3.8" height="3.8"/>
		<rect x="9.2" y="26.3" class="st0" width="3.8" height="3.8"/>
		<rect x="14.9" y="26.3" class="st0" width="3.8" height="3.8"/>
		<rect x="20.6" y="26.3" class="st0" width="3.8" height="3.8"/>
		<path class="st4" d="M9.2,7.3H5.4v26.6h28.5V7.3h-3.8H9.2z M32,32H7.3V13H32V32z"/>
		<path class="st1" d="M12,9.9c0,0.5-0.4,1-0.9,1l0,0c-0.5,0-1-0.4-1-1V6.5c0-0.5,0.4-0.9,1-0.9l0,0C11.6,5.6,12,6,12,6.5V9.9z"/>
		<path class="st1" d="M29.1,9.9c0,0.5-0.4,1-0.9,1l0,0c-0.5,0-1-0.4-1-1V6.5c0-0.5,0.4-0.9,1-0.9l0,0c0.5,0,0.9,0.4,0.9,0.9V9.9z"
			/>
	</g>
</g>
</svg>
