<svg xmlns="http://www.w3.org/2000/svg" width="40" height="40" viewBox="0 0 40 40"><path fill="#C6C6C6" d="M0 0h40v40h-40z"/><g opacity=".4"><circle fill="#fff" cx="20" cy="20.7" r="12.7"/><path fill="#497CA4" d="M20 7.8c-2 0-3.9.4-5.5 1.2-.2.1-.3.2-.5.2 0 0-.1 0-.1.1l-.3.1-.3.2.2-.1s-.1.1-.2.1h-.1l-.1.1h-.1l-.2.1.1-.1-.1.1c-.4.2-.7.5-1 .7-3 2.4-4.9 6-4.9 10 0 7.1 5.8 12.9 13 12.9s13-5.8 13-12.9c.1-6.9-5.7-12.7-12.9-12.7zm9.4 4.3c-.3.2-.3-.1-.6-.1.1.2.2.6.5.4 0 .2.2.1.3-.1 1.8 2.1 3 4.7 3.2 7.7h-.5c.8 1.2-.9 1.7-1.6 2.1.2.5.7-.2 1 .1-.1 1.2-1 1.7-1.6 2.4 0 .9.1 1.1 0 2-1.2.8-1.3 3.4-3.2 3.1-.3-.9-.3-2-.7-2.8.8-1.1-.3-1.9-.2-3.3-.2-.2-.6-.1-.6-.5-.8.3-1.3.2-2 .2-.5-.3-.8-.9-1.2-1.3.4-1.1-.3-2.4 1.1-2.8-.1-1.4 2.2-1.6 3.1-1.3v.5c.5.1.7.4 1.1.6 0-.3.2-.4.4-.5.4.2.3.6.8.4.2.1.7-.1.7.1.2-.1.2-.4.2-.6-.1-.4-.7-.3-1.1-.5-.2-.1-.2-.6 0-.7-.8-.1-.1.6-.6.7h-.2c.1-.4-.2-.4-.2-.6-.4 0-.5.8-.8.4.9-.1-.5-1.2-.6-.7 0-.2 0-.4-.1-.5-.4.1-.7.4-1.1.6v.5c-.1.1-.2.1-.2.2h-1.1c0-.1-.1-.2-.1-.4.2-.3 0-.9.4-.9.4-.2.6.3.7 0h.1c0-.5-.2-.6-.4-.8 0-.2.4-.1.4-.4 1-.1 1.1-1.1 1.7-1.5-.4.1-.4.3-.4.5.4.1.2-.6.1-.7-.3 0-.5 0-.6.1-.2-.2-.1-.6-.2-.7.8-.7 1-1.9 2.3-2 .4.1.7.2 1 .4l.8.7zm-5.4 1.4c.6.1.4 1.1 1 1.3v.2c-.3 0-.3.2-.6.1l-.5.1c.4-.6-.2-1.1.1-1.7zm-.1 1.4h-.6c0-.4.1-.7.5-.7.1.1.1.4.1.7zm-2-2.5c-.1-.2-.4-.4-.4-.7.5.1.7.1 1.2 0l.1.2c.1.5-.4.5-.9.5zm-.7.7c-.2.5-.8.6-1.2.8-.1 0-.1-.1 0-.1 0-.2-.4-.1-.5-.2-.1-1.5 1.8-1.8 1.7-.5zm9.2 14.9c-.3-.9.4-1.3.7-2 .4.3-.2.7-.1 1.1-.1.2-.3.4-.4.7-.1-.1-.2 0-.2.2zm-8.4-19.8h.2l.6.1c-.2.1-.2.3-.5.4-.1.4.1.4.1.7-.2 0-.3-.2-.4 0 .4.5-.6 1 0 1.4-.9.4-2.1.5-2.7 1.3l-.7 1c-.9-.2-1-1.6-.8-2.2v-.1.1c-.1 0-.2 0-.2-.1.6-1.6-1.4-1.1-1.7-2 .2-.2.8 0 .7-.4 1.2-.2 2.3-.4 3.4-.4l2 .2zm-8 1.3c.2.1.4.1.7-.1h-.5c.6-.3 1.2-.5 1.8-.7-.5.2-.8.6-1 1.1-.6.1-1 .1-1.4 0l.4-.3zm-.6.4c0 .1.1.1.2 0-.1.3-.4.4-.7.5.1-.1.1-.2.1-.3.2-.1.3-.2.4-.2zm-1.4.9c0 .4-.4.3-.6.5.8.2.8-.7 1.3-.1 0-.3-.2-.3-.1-.6.1 0 .2-.1.4-.1.1.7.5.4.6.8 0-.1.1-.2.2-.2l-.4-.6c0-.7 1-.3 1.4-.6 0 .2.3.1.4.2-.2 0-.9 0-.5.1 1.2-.1 1.2.8 1.9 1.4l-.4.2s-.4-.5-.5-.1c.3 0 .3.3.2.6-.6-.2-.1 0-.4.2-.5-.2-.8-.6-1.3-.7.3-.1.7-.1.7-.5l-.2-.6c-.2 0-1 0-.6.1.1.5-.4.5-.5.8.2.1.4.2.4.5-.1-.1-.2-.1-.4-.1-.1 0-.1.2 0 .2 0 .2-.6-.1-.5-.4-.6.2-.9.7-1.2 1.1.1.5.6.6 1 .7.1.1.2.1.4.1-.1.4.1.4.1.7.4-1 .8-.7.7-2.2.1 0 .1-.1.1-.1.1 0 .3.3.7.2.3.1.1.7.5.7.4.1.1-.4.5-.2.4 1.1 1 1.7 1.2 2.7-.4.1-.4-.1-.7-.1-.4.1-.2-.4-.1-.5.2-.1.3-.2.4-.4-.5.1-.8.7-1.2.2l-.1.6c0 .1.1.1.1.1.1 0 .2 0 .2.1v.1c-.6.4-2.1.8-2.3 2.1-.4 0-.4.3-.6.5-.2.1.2.8-.1 1.1-.3-.1-.4-.5-.5-.8-1.1-.6-3.1 1.4-1.2 1.8h.1c0-.4.7-.5.7-.1-.2.1-.3.3-.2.6 0 .3.4.1.6.1 0 .5-.3 1 .4 1.1.1 0 .2 0 .2.1.5 0 .5-.5 1-.6.3.2.8.4 1.6.4.2.7 1.1.8 1.6 1.2v.6c.9.2 1.5.7 2.3.9-.1 1.1-.9 1.6-.8 2.9-.3.2-.6.3-1 .5-.1.8-.6 1.7-1.3 1.5 0 .3.2.2.1.6-1.2.3-1 1.1-1.1 2l-.9-.4c-.5-.9.3-2.6 0-4.3-.2-1.3-2.1-2.1-1.8-3.6.2-.3.5-.5.6-.8-.9-1.2-2.6-1.7-3.8-2.6 0-.7-.2-1-.6-1.3l.2.8c-.8-.8-1.1-2.1-1.2-3.3.9-2.1 2.4-4.2 4.3-5.8zm2.5 9.8c0 .5-.4.3-.7.2.1-.2.3-.2.7-.2zm-2.2-.5c.3-.5 1.1.2 1.4.5-.6 0-.7-.5-1.4-.5z"/></g><path d="M5.2 26.3l-2.4-10h2.1l1.5 6.9 1.8-6.9h2.4l1.8 7 1.5-7h2l-2.4 10h-2.1l-2-7.5-2 7.5h-2.2zm11.8 0v-10h3l1.8 6.9 1.8-6.9h3v10h-1.9v-7.9l-2 7.9h-2l-2-7.9v7.9h-1.7zm11.2-3.3l2-.2c.1.7.4 1.2.7 1.5s.9.5 1.5.5c.7 0 1.2-.1 1.5-.4.3-.3.5-.6.5-1 0-.2-.1-.4-.2-.6-.1-.2-.4-.3-.7-.4-.2-.1-.8-.2-1.6-.4-1.1-.3-1.8-.6-2.3-1-.6-.6-.9-1.2-.9-2 0-.5.1-1 .4-1.4.3-.4.7-.8 1.2-1 .5-.2 1.2-.4 2-.4 1.3 0 2.2.3 2.9.8.6.6 1 1.3 1 2.2l-2 .1c-.1-.5-.3-.9-.6-1.1-.3-.2-.7-.3-1.3-.3-.6 0-1 .1-1.4.4-.2.2-.3.4-.3.6 0 .2.1.4.3.6.3.2.9.4 1.9.7s1.7.5 2.2.7c.5.2.8.6 1.1 1s.4 1 .4 1.6c0 .6-.2 1.1-.5 1.6s-.8.9-1.4 1.1c-.6.2-1.3.4-2.2.4-1.3 0-2.2-.3-2.9-.9-.8-.7-1.2-1.5-1.3-2.7z" enable-background="new" fill="#70706F"/></svg>