<svg xmlns="http://www.w3.org/2000/svg" width="43.3" height="33.4" viewBox="0 0 43.3 33.4"><style type="text/css"><![CDATA[
	.st0{fill:#F4F0EA;}
	.st1{fill:#DEDDD9;}
]]></style><path class="st0" d="M39.9 33.7l3.4-28.8-39.2-4.9-4.1 33.7z"/><path class="st1" d="M9.712 7.204l-6.452-.787.787-6.452 6.452.787zm5.726 7.285l-6.452-.787.787-6.452 6.452.787zm-7.273 5.627l-6.452-.787.787-6.452 6.452.787zm14.448-11.266l-6.452-.787.787-6.452 6.452.787zm-1.548 12.911l-6.453-.786.786-6.453 6.453.786zm-7.273 5.628l-6.452-.787.787-6.452 6.452.787zm14.558-11.352l-6.453-.786.786-6.453 6.453.786zm7.173-5.639l-6.453-.786.786-6.453 6.453.786zm-28.905 22.63l-6.452-.787.787-6.452 6.452.787zm4.182.672l-4.2-.6-.1.6zm8.8 0l.7-5.5-6.5-.8-.7 6.3z"/><path class="st0" d="M39.8 33.7l3.5-28.9-7.6-.9-24.3 29.8z"/><path class="st1" d="M26.1 25.8l-3.7-.5.5-3.7 3.7.5zm11.8 7.2l-3.6-.4.4-3.7 3.6.5zm-.7-20.7l-3.6-.4.4-3.6 3.6.5zm4.3 7.8l-.3 2.1-5.6-4.3-9.8 15.8h-2.4l11.9-18.7z"/></svg>