<?xml version="1.0" encoding="utf-8"?>
<!DOCTYPE svg PUBLIC "-//W3C//DTD SVG 1.1//EN" "http://www.w3.org/Graphics/SVG/1.1/DTD/svg11.dtd">
<svg version="1.1" id="Calque_1" xmlns="http://www.w3.org/2000/svg" xmlns:xlink="http://www.w3.org/1999/xlink" x="0px" y="0px"
	 width="40px" height="40px" viewBox="0 0 40 40" enable-background="new 0 0 40 40" xml:space="preserve">
<rect fill="#C6C6C6" width="40" height="40"/>
<g>
	<path fill="#706F6F" d="M14.2,20.8c0.6,1.9,1.9,3,1.9,3l0,3c0,0-0.8,0.5-3.9,1.8C9,30,7.3,31.5,6.3,33c-0.8,1.3-2,7-2,7H20h15.7
		c0,0-0.9-5.5-1.8-6.8c-0.9-1.5-3-3.2-6.1-4.5c-3.1-1.3-3.9-1.8-3.9-1.8l0-3c0.5-0.2,1.3-1.1,1.9-3c0,0,0.6-2,0.6-4.1
		c0-1-0.1-3.5-0.2-4.1c-0.2-2.4-2.6-5-6.3-5s-6,2.6-6.3,5c-0.1,0.7-0.2,3.4-0.2,4.3C13.6,18.5,14.2,20.8,14.2,20.8z"/>
</g>
</svg>
