<?xml version="1.0" encoding="utf-8"?>
<!-- Generator: Adobe Illustrator 15.1.0, SVG Export Plug-In . SVG Version: 6.00 Build 0)  -->
<!DOCTYPE svg PUBLIC "-//W3C//DTD SVG 1.1//EN" "http://www.w3.org/Graphics/SVG/1.1/DTD/svg11.dtd">
<svg version="1.1" id="Calque_1" xmlns="http://www.w3.org/2000/svg" xmlns:xlink="http://www.w3.org/1999/xlink" x="0px" y="0px"
	 width="104.666px" height="54.667px" viewBox="0 0 104.666 54.667" enable-background="new 0 0 104.666 54.667"
	 xml:space="preserve">
<g>
	<polygon fill="#DADADA" points="104.243,54.696 104.776,54.696 104.776,0.029 0.11,0.029 0.11,0.564 	"/>
	<rect x="29.574" y="7.685" fill="#C6C6C6" width="7.521" height="7.715"/>
	<rect x="22.054" y="-0.029" fill="#C6C6C6" width="7.521" height="7.714"/>
	<rect x="37.094" y="-0.029" fill="#C6C6C6" width="7.521" height="7.714"/>
	<rect x="44.615" y="7.685" fill="#C6C6C6" width="7.521" height="7.715"/>
	<rect x="52.135" y="-0.029" fill="#C6C6C6" width="7.521" height="7.714"/>
	<rect x="59.656" y="7.685" fill="#C6C6C6" width="7.52" height="7.715"/>
	<rect x="52.135" y="15.399" fill="#C6C6C6" width="7.521" height="7.715"/>
	<rect x="59.656" y="23.114" fill="#C6C6C6" width="7.52" height="7.713"/>
	<rect x="67.175" y="15.399" fill="#C6C6C6" width="7.521" height="7.715"/>
	<rect x="74.696" y="23.114" fill="#C6C6C6" width="7.521" height="7.713"/>
	<rect x="82.216" y="30.828" fill="#C6C6C6" width="7.521" height="7.715"/>
	<rect x="89.737" y="38.542" fill="#C6C6C6" width="7.521" height="7.715"/>
	<rect x="97.257" y="30.828" fill="#C6C6C6" width="7.52" height="7.715"/>
	<rect x="89.737" y="23.114" fill="#C6C6C6" width="7.521" height="7.713"/>
	<rect x="82.216" y="15.399" fill="#C6C6C6" width="7.521" height="7.715"/>
	<rect x="74.696" y="7.685" fill="#C6C6C6" width="7.521" height="7.715"/>
	<rect x="67.175" y="-0.029" fill="#C6C6C6" width="7.521" height="7.714"/>
	<rect x="82.216" y="-0.029" fill="#C6C6C6" width="7.521" height="7.714"/>
	<rect x="89.737" y="7.685" fill="#C6C6C6" width="7.521" height="7.715"/>
	<rect x="97.257" y="-0.029" fill="#C6C6C6" width="7.52" height="7.714"/>
	<rect x="97.257" y="15.399" fill="#C6C6C6" width="7.52" height="7.715"/>
	<polygon fill="#C6C6C6" points="14.252,7.685 14.534,7.685 14.534,-0.029 7.013,-0.029 7.013,3.921 	"/>
	<polygon fill="#C6C6C6" points="22.055,11.712 22.055,7.685 14.534,7.685 14.534,7.803 	"/>
	<polygon fill="#C6C6C6" points="44.068,23.114 44.615,23.114 44.615,15.399 37.094,15.399 37.094,19.488 	"/>
	<polygon fill="#C6C6C6" points="52.136,27.362 52.136,23.114 44.615,23.114 44.615,23.453 	"/>
	<polygon fill="#C6C6C6" points="59.656,31.138 59.656,30.828 59.062,30.828 	"/>
	<polygon fill="#C6C6C6" points="73.31,38.542 74.696,38.542 74.696,30.828 67.175,30.828 67.175,35.353 	"/>
	<polygon fill="#C6C6C6" points="82.214,43.064 82.214,38.542 74.692,38.542 74.692,39.155 	"/>
	<polygon fill="#C6C6C6" points="103.247,53.97 104.776,53.97 104.776,46.255 97.257,46.255 97.257,50.855 	"/>
</g>
<g enable-background="new    ">
	<path fill="#878787" d="M48.774,16.496l-0.125,1.692c-0.697,0.167-1.383,0.25-2.061,0.25c-1.683,0-2.965-0.464-3.845-1.395
		c-0.881-0.93-1.321-2.059-1.321-3.389c0-1.379,0.467-2.578,1.402-3.599s2.216-1.531,3.845-1.531c0.599,0,1.165,0.069,1.7,0.206
		l-0.258,1.7c-0.579-0.187-1.133-0.279-1.663-0.279c-0.996,0-1.737,0.315-2.223,0.945c-0.486,0.631-0.729,1.397-0.729,2.3
		c0,0.923,0.288,1.723,0.865,2.399c0.576,0.677,1.385,1.016,2.425,1.016C47.396,16.812,48.058,16.707,48.774,16.496z"/>
	<path fill="#878787" d="M57.091,14.583c0,1.236-0.381,2.202-1.141,2.899c-0.761,0.696-1.656,1.045-2.687,1.045
		c-0.981,0-1.823-0.317-2.524-0.953s-1.052-1.529-1.052-2.683c0-1.241,0.383-2.213,1.148-2.914c0.766-0.702,1.664-1.053,2.693-1.053
		c0.977,0,1.814,0.32,2.514,0.961C56.741,12.525,57.091,13.425,57.091,14.583z M55.17,14.804c0-0.712-0.167-1.309-0.501-1.792
		s-0.768-0.726-1.303-0.726c-0.52,0-0.943,0.226-1.269,0.678c-0.326,0.451-0.489,1.016-0.489,1.692c0,0.711,0.167,1.309,0.5,1.792
		c0.333,0.483,0.768,0.725,1.303,0.725c0.52,0,0.943-0.226,1.27-0.677S55.17,15.48,55.17,14.804z"/>
	<path fill="#878787" d="M64.781,11.249c0,0.284-0.439,1.449-1.318,3.495c-0.877,2.046-1.316,3.212-1.316,3.496h-2.009
		c0-0.313-0.391-1.508-1.171-3.58c-0.78-2.073-1.17-3.21-1.17-3.411h2.149c0,0.221,0.241,1.073,0.725,2.558
		c0.483,1.483,0.725,2.355,0.725,2.616h0.096c0-0.236,0.231-1.061,0.692-2.474c0.461-1.412,0.691-2.312,0.691-2.7H64.781z"/>
	<path fill="#878787" d="M72.185,13.994c0,0.25-0.015,0.576-0.044,0.979l-4.739,0.081c0.068,0.555,0.307,1.016,0.714,1.384
		c0.407,0.367,0.942,0.552,1.604,0.552c0.735,0,1.519-0.11,2.348-0.331l-0.147,1.428c-0.677,0.245-1.516,0.368-2.517,0.368
		c-1.266,0-2.236-0.356-2.911-1.067c-0.675-0.712-1.012-1.567-1.012-2.568c0-1.045,0.32-1.951,0.96-2.72
		c0.641-0.768,1.53-1.151,2.668-1.151c1.04,0,1.813,0.282,2.318,0.846C71.933,12.357,72.185,13.091,72.185,13.994z M70.463,13.928
		c0-1.129-0.481-1.692-1.442-1.692c-0.918,0-1.462,0.584-1.634,1.751L70.463,13.928z"/>
	<path fill="#878787" d="M78.366,11.249l-0.427,1.722c-0.363-0.147-0.73-0.221-1.104-0.221c-0.722,0-1.197,0.324-1.428,0.972
		c0,1.957,0.015,3.464,0.044,4.519h-1.958c0.084-1.477,0.126-2.684,0.126-3.621c0-1.167-0.123-2.273-0.368-3.318l1.876-0.207
		c0.084,0.54,0.126,0.856,0.126,0.95h0.117c0.451-0.692,1.053-1.038,1.803-1.038C77.527,11.006,77.925,11.087,78.366,11.249z"/>
	<path fill="#878787" d="M85.307,18.232l-1.737,0.06c-0.078-0.206-0.117-0.393-0.117-0.56h-0.096
		c-0.54,0.461-1.269,0.691-2.186,0.691c-0.613,0-1.123-0.17-1.527-0.511c-0.405-0.341-0.607-0.794-0.607-1.358
		c0-0.745,0.315-1.356,0.946-1.832c0.63-0.476,1.735-0.729,3.315-0.758c0.01-0.089,0.015-0.172,0.015-0.251
		c0-0.529-0.128-0.879-0.383-1.049c-0.256-0.169-0.724-0.254-1.406-0.254c-0.74,0-1.464,0.099-2.171,0.295l0.162-1.354
		c0.667-0.23,1.609-0.346,2.826-0.346c0.888,0,1.573,0.187,2.057,0.56s0.725,1.025,0.725,1.957c0,0.206-0.008,0.582-0.025,1.126
		c-0.018,0.545-0.025,0.908-0.025,1.09C85.071,16.754,85.149,17.585,85.307,18.232z M83.342,16.702
		c-0.029-0.662-0.044-1.234-0.044-1.715c-1.674,0-2.51,0.425-2.51,1.273c0,0.584,0.368,0.876,1.104,0.876
		C82.471,17.137,82.954,16.991,83.342,16.702z"/>
	<path fill="#878787" d="M94.063,10.233l-0.161,1.368c-0.766,0-1.244,0.111-1.436,0.332v0.096c0.29,0.367,0.435,0.779,0.435,1.236
		c0,0.701-0.259,1.3-0.776,1.795c-0.518,0.496-1.289,0.744-2.314,0.744c-0.501,0-0.91-0.04-1.229-0.118
		c-0.26,0.118-0.39,0.272-0.39,0.464c0,0.299,0.155,0.509,0.467,0.629s1.037,0.181,2.175,0.181c1.968,0,2.951,0.67,2.951,2.009
		c0,0.942-0.409,1.69-1.229,2.245c-0.82,0.554-1.815,0.831-2.988,0.831c-2.296,0-3.444-0.721-3.444-2.163
		c0-0.447,0.129-0.826,0.387-1.138c0.257-0.312,0.556-0.502,0.894-0.57v-0.11c-0.412-0.26-0.618-0.657-0.618-1.192
		c0-0.539,0.282-0.99,0.847-1.354v-0.104c-0.795-0.397-1.192-1.018-1.192-1.861c0-0.722,0.273-1.325,0.82-1.811
		c0.548-0.486,1.393-0.729,2.536-0.729c0.779,0,1.412,0.146,1.898,0.441h0.103c0.143-0.928,0.618-1.392,1.428-1.392
		C93.544,10.063,93.823,10.12,94.063,10.233z M91.967,19.514c0-0.363-0.139-0.626-0.416-0.788c-0.277-0.161-0.755-0.242-1.432-0.242
		c-0.55,0-1.104-0.025-1.663-0.074c-0.432,0.256-0.647,0.636-0.647,1.141c0,0.942,0.628,1.413,1.884,1.413
		c0.701,0,1.256-0.132,1.663-0.397C91.763,20.301,91.967,19.95,91.967,19.514z M91.098,13.457c0-0.442-0.142-0.778-0.427-1.009
		c-0.284-0.23-0.61-0.346-0.979-0.346s-0.69,0.111-0.968,0.335c-0.277,0.223-0.416,0.551-0.416,0.982
		c0,0.437,0.143,0.768,0.427,0.993c0.285,0.226,0.616,0.339,0.994,0.339c0.357,0,0.676-0.109,0.953-0.327
		C90.959,14.206,91.098,13.884,91.098,13.457z"/>
	<path fill="#878787" d="M101.416,13.994c0,0.25-0.015,0.576-0.044,0.979l-4.739,0.081c0.068,0.555,0.307,1.016,0.714,1.384
		c0.407,0.367,0.942,0.552,1.604,0.552c0.735,0,1.519-0.11,2.348-0.331l-0.147,1.428c-0.677,0.245-1.516,0.368-2.517,0.368
		c-1.266,0-2.236-0.356-2.911-1.067c-0.675-0.712-1.012-1.567-1.012-2.568c0-1.045,0.32-1.951,0.96-2.72
		c0.641-0.768,1.53-1.151,2.668-1.151c1.04,0,1.813,0.282,2.318,0.846C101.164,12.357,101.416,13.091,101.416,13.994z
		 M99.694,13.928c0-1.129-0.481-1.692-1.442-1.692c-0.918,0-1.462,0.584-1.634,1.751L99.694,13.928z"/>
</g>
</svg>
