<?xml version="1.0" encoding="utf-8"?>
<!DOCTYPE svg PUBLIC "-//W3C//DTD SVG 1.1//EN" "http://www.w3.org/Graphics/SVG/1.1/DTD/svg11.dtd">
<svg version="1.1" id="Calque_1" xmlns="http://www.w3.org/2000/svg" xmlns:xlink="http://www.w3.org/1999/xlink" x="0px" y="0px"
	 width="104.67px" height="54.67px" viewBox="0 0 104.67 54.67" style="enable-background:new 0 0 104.67 54.67;"
	 xml:space="preserve">
<style type="text/css">
<![CDATA[
	.st0{fill:#878787;}
	.st1{enable-background:new    ;}
	.st2{fill:#C6C6C6;}
	.st3{fill:#DADADA;}
]]>
</style>
<g>
	<polygon class="st3" points="104.24,54.7 104.78,54.7 104.78,0.03 0.11,0.03 0.11,0.56 	"/>
	<rect x="29.57" y="7.69" class="st2" width="7.52" height="7.71"/>
	<rect x="22.05" y="-0.03" class="st2" width="7.52" height="7.71"/>
	<rect x="37.09" y="-0.03" class="st2" width="7.52" height="7.71"/>
	<rect x="44.62" y="7.69" class="st2" width="7.52" height="7.71"/>
	<rect x="52.13" y="-0.03" class="st2" width="7.52" height="7.71"/>
	<rect x="59.66" y="7.69" class="st2" width="7.52" height="7.71"/>
	<rect x="52.13" y="15.4" class="st2" width="7.52" height="7.72"/>
	<rect x="59.66" y="23.11" class="st2" width="7.52" height="7.71"/>
	<rect x="67.17" y="15.4" class="st2" width="7.52" height="7.72"/>
	<rect x="74.7" y="23.11" class="st2" width="7.52" height="7.71"/>
	<rect x="82.22" y="30.83" class="st2" width="7.52" height="7.71"/>
	<rect x="89.74" y="38.54" class="st2" width="7.52" height="7.71"/>
	<rect x="97.26" y="30.83" class="st2" width="7.52" height="7.71"/>
	<rect x="89.74" y="23.11" class="st2" width="7.52" height="7.71"/>
	<rect x="82.22" y="15.4" class="st2" width="7.52" height="7.72"/>
	<rect x="74.7" y="7.69" class="st2" width="7.52" height="7.71"/>
	<rect x="67.17" y="-0.03" class="st2" width="7.52" height="7.71"/>
	<rect x="82.22" y="-0.03" class="st2" width="7.52" height="7.71"/>
	<rect x="89.74" y="7.69" class="st2" width="7.52" height="7.71"/>
	<rect x="97.26" y="-0.03" class="st2" width="7.52" height="7.71"/>
	<rect x="97.26" y="15.4" class="st2" width="7.52" height="7.72"/>
	<polygon class="st2" points="14.25,7.69 14.53,7.69 14.53,-0.03 7.01,-0.03 7.01,3.92 	"/>
	<polygon class="st2" points="22.06,11.71 22.06,7.69 14.53,7.69 14.53,7.8 	"/>
	<polygon class="st2" points="44.07,23.11 44.62,23.11 44.62,15.4 37.09,15.4 37.09,19.49 	"/>
	<polygon class="st2" points="52.14,27.36 52.14,23.11 44.62,23.11 44.62,23.45 	"/>
	<polygon class="st2" points="59.66,31.14 59.66,30.83 59.06,30.83 	"/>
	<polygon class="st2" points="73.31,38.54 74.7,38.54 74.7,30.83 67.17,30.83 67.17,35.35 	"/>
	<polygon class="st2" points="82.21,43.06 82.21,38.54 74.69,38.54 74.69,39.15 	"/>
	<polygon class="st2" points="103.25,53.97 104.78,53.97 104.78,46.26 97.26,46.26 97.26,50.85 	"/>
</g>
<g class="st1">
	<path class="st0" d="M48.77,16.5l-0.12,1.69c-0.7,0.17-1.38,0.25-2.06,0.25c-1.68,0-2.96-0.46-3.84-1.4
		c-0.88-0.93-1.32-2.06-1.32-3.39c0-1.38,0.47-2.58,1.4-3.6c0.93-1.02,2.22-1.53,3.84-1.53c0.6,0,1.17,0.07,1.7,0.21l-0.26,1.7
		c-0.58-0.19-1.13-0.28-1.66-0.28c-1,0-1.74,0.31-2.22,0.95c-0.49,0.63-0.73,1.4-0.73,2.3c0,0.92,0.29,1.72,0.86,2.4
		c0.58,0.68,1.39,1.02,2.43,1.02C47.4,16.81,48.06,16.71,48.77,16.5z"/>
	<path class="st0" d="M57.09,14.58c0,1.24-0.38,2.2-1.14,2.9s-1.66,1.04-2.69,1.04c-0.98,0-1.82-0.32-2.52-0.95
		c-0.7-0.64-1.05-1.53-1.05-2.68c0-1.24,0.38-2.21,1.15-2.91s1.66-1.05,2.69-1.05c0.98,0,1.81,0.32,2.51,0.96
		C56.74,12.52,57.09,13.42,57.09,14.58z M55.17,14.8c0-0.71-0.17-1.31-0.5-1.79c-0.33-0.48-0.77-0.73-1.3-0.73
		c-0.52,0-0.94,0.23-1.27,0.68s-0.49,1.02-0.49,1.69c0,0.71,0.17,1.31,0.5,1.79s0.77,0.72,1.3,0.72c0.52,0,0.94-0.23,1.27-0.68
		C55.01,16.04,55.17,15.48,55.17,14.8z"/>
	<path class="st0" d="M64.78,11.25c0,0.28-0.44,1.45-1.32,3.5s-1.32,3.21-1.32,3.5h-2.01c0-0.31-0.39-1.51-1.17-3.58
		c-0.78-2.07-1.17-3.21-1.17-3.41h2.15c0,0.22,0.24,1.07,0.72,2.56c0.48,1.48,0.72,2.35,0.72,2.62h0.1c0-0.24,0.23-1.06,0.69-2.47
		c0.46-1.41,0.69-2.31,0.69-2.7h1.92V11.25z"/>
	<path class="st0" d="M72.18,13.99c0,0.25-0.01,0.58-0.04,0.98l-4.74,0.08c0.07,0.55,0.31,1.02,0.71,1.38
		c0.41,0.37,0.94,0.55,1.6,0.55c0.74,0,1.52-0.11,2.35-0.33l-0.15,1.43c-0.68,0.25-1.52,0.37-2.52,0.37c-1.27,0-2.24-0.36-2.91-1.07
		c-0.68-0.71-1.01-1.57-1.01-2.57c0-1.04,0.32-1.95,0.96-2.72c0.64-0.77,1.53-1.15,2.67-1.15c1.04,0,1.81,0.28,2.32,0.85
		C71.93,12.36,72.18,13.09,72.18,13.99z M70.46,13.93c0-1.13-0.48-1.69-1.44-1.69c-0.92,0-1.46,0.58-1.63,1.75L70.46,13.93z"/>
	<path class="st0" d="M78.37,11.25l-0.43,1.72c-0.36-0.15-0.73-0.22-1.1-0.22c-0.72,0-1.2,0.32-1.43,0.97
		c0,1.96,0.01,3.46,0.04,4.52h-1.96c0.08-1.48,0.13-2.68,0.13-3.62c0-1.17-0.12-2.27-0.37-3.32l1.88-0.21
		c0.08,0.54,0.13,0.86,0.13,0.95h0.12c0.45-0.69,1.05-1.04,1.8-1.04C77.53,11.01,77.92,11.09,78.37,11.25z"/>
	<path class="st0" d="M85.31,18.23l-1.74,0.06c-0.08-0.21-0.12-0.39-0.12-0.56h-0.1c-0.54,0.46-1.27,0.69-2.19,0.69
		c-0.61,0-1.12-0.17-1.53-0.51c-0.4-0.34-0.61-0.79-0.61-1.36c0-0.75,0.32-1.36,0.95-1.83c0.63-0.48,1.73-0.73,3.31-0.76
		c0.01-0.09,0.02-0.17,0.02-0.25c0-0.53-0.13-0.88-0.38-1.05c-0.26-0.17-0.72-0.25-1.41-0.25c-0.74,0-1.46,0.1-2.17,0.29l0.16-1.35
		c0.67-0.23,1.61-0.35,2.83-0.35c0.89,0,1.57,0.19,2.06,0.56c0.48,0.37,0.73,1.02,0.73,1.96c0,0.21-0.01,0.58-0.02,1.13
		c-0.02,0.54-0.03,0.91-0.03,1.09C85.07,16.75,85.15,17.58,85.31,18.23z M83.34,16.7c-0.03-0.66-0.04-1.23-0.04-1.72
		c-1.67,0-2.51,0.43-2.51,1.27c0,0.58,0.37,0.88,1.1,0.88C82.47,17.14,82.95,16.99,83.34,16.7z"/>
	<path class="st0" d="M94.06,10.23L93.9,11.6c-0.77,0-1.24,0.11-1.44,0.33v0.1c0.29,0.37,0.44,0.78,0.44,1.24
		c0,0.7-0.26,1.3-0.78,1.79c-0.52,0.5-1.29,0.74-2.31,0.74c-0.5,0-0.91-0.04-1.23-0.12c-0.26,0.12-0.39,0.27-0.39,0.46
		c0,0.3,0.15,0.51,0.47,0.63c0.31,0.12,1.04,0.18,2.17,0.18c1.97,0,2.95,0.67,2.95,2.01c0,0.94-0.41,1.69-1.23,2.25
		c-0.82,0.55-1.81,0.83-2.99,0.83c-2.29,0-3.44-0.72-3.44-2.16c0-0.45,0.13-0.83,0.39-1.14c0.26-0.31,0.56-0.5,0.89-0.57v-0.11
		c-0.41-0.26-0.62-0.66-0.62-1.19c0-0.54,0.28-0.99,0.85-1.35v-0.1c-0.79-0.4-1.19-1.02-1.19-1.86c0-0.72,0.27-1.33,0.82-1.81
		c0.55-0.49,1.39-0.73,2.54-0.73c0.78,0,1.41,0.15,1.9,0.44h0.1c0.14-0.93,0.62-1.39,1.43-1.39C93.54,10.06,93.82,10.12,94.06,10.23
		z M91.97,19.51c0-0.36-0.14-0.63-0.42-0.79c-0.28-0.16-0.75-0.24-1.43-0.24c-0.55,0-1.1-0.02-1.66-0.07
		c-0.43,0.26-0.65,0.64-0.65,1.14c0,0.94,0.63,1.41,1.88,1.41c0.7,0,1.26-0.13,1.66-0.4C91.76,20.3,91.97,19.95,91.97,19.51z
		 M91.1,13.46c0-0.44-0.14-0.78-0.43-1.01c-0.28-0.23-0.61-0.35-0.98-0.35c-0.37,0-0.69,0.11-0.97,0.33
		c-0.28,0.22-0.42,0.55-0.42,0.98c0,0.44,0.14,0.77,0.43,0.99c0.29,0.23,0.62,0.34,0.99,0.34c0.36,0,0.68-0.11,0.95-0.33
		C90.96,14.21,91.1,13.88,91.1,13.46z"/>
	<path class="st0" d="M101.42,13.99c0,0.25-0.01,0.58-0.04,0.98l-4.74,0.08c0.07,0.55,0.31,1.02,0.71,1.38
		c0.41,0.37,0.94,0.55,1.6,0.55c0.74,0,1.52-0.11,2.35-0.33l-0.15,1.43c-0.68,0.25-1.52,0.37-2.52,0.37c-1.27,0-2.24-0.36-2.91-1.07
		s-1.01-1.57-1.01-2.57c0-1.04,0.32-1.95,0.96-2.72s1.53-1.15,2.67-1.15c1.04,0,1.81,0.28,2.32,0.85
		C101.16,12.36,101.42,13.09,101.42,13.99z M99.69,13.93c0-1.13-0.48-1.69-1.44-1.69c-0.92,0-1.46,0.58-1.63,1.75L99.69,13.93z"/>
</g>
</svg>
