<?xml version="1.0" encoding="utf-8"?>
<!DOCTYPE svg PUBLIC "-//W3C//DTD SVG 1.1//EN" "http://www.w3.org/Graphics/SVG/1.1/DTD/svg11.dtd">
<svg version="1.1" id="Calque_1" xmlns="http://www.w3.org/2000/svg" xmlns:xlink="http://www.w3.org/1999/xlink" x="0px" y="0px"
	 width="41.91px" height="45px" viewBox="0 0 41.91 45" enable-background="new 0 0 41.91 45" xml:space="preserve">
<g style="fill:#B2DBD3;">
	<path d="M8.99,36.82c-1.81-2.08-1.62-5.25,0.47-7.08c2.08-1.83,5.26-1.62,7.09,0.46c1.83,2.08,1.62,5.25-0.47,7.08
		C14,39.12,10.82,38.92,8.99,36.82z"/>
	<path d="M21.88,34.49l2.71,0.57c1.27-5.98-2.55-11.86-8.52-13.14l-0.57,2.71C19.97,25.6,22.83,30.01,21.88,34.49z"
		/>
	<path opacity="0.75" enable-background="new    " d="M30.24,33.73l2.71,0.57c1.9-8.98-3.83-17.79-12.8-19.71
		l-0.58,2.71C27.05,18.9,31.83,26.25,30.24,33.73z"/>
	<path opacity="0.5" enable-background="new    " d="M38.6,32.96l2.82,0.6c2.55-12.03-5.13-23.84-17.15-26.4
		l-0.6,2.82C34.13,12.21,40.81,22.49,38.6,32.96z"/>
</g>
<path opacity="0.25" fill="#B2DBD3" enable-background="new    " d="M41.91,7.3C38.29,3.74,33.65,1.13,28.32,0l-0.58,2.71
	c5.81,1.24,10.71,4.41,14.16,8.7V7.3L41.91,7.3z"/>
</svg>
