<svg xmlns="http://www.w3.org/2000/svg" width="43.3" height="33.4" viewBox="0 0 43.3 33.4"><style type="text/css"><![CDATA[
	.st0{fill:#F4F0EA;}
	.st1{fill:#DEDDD9;}
]]></style><path class="st0" d="M39.9 33.7l3.4-28.8-39.2-4.9-4.1 33.7z"/><path class="st1" d="M9.712 7.204l-6.452-.787.787-6.452 6.452.787zM15.438 14.489l-6.452-.787.787-6.452 6.452.787zM8.165 20.116l-6.452-.787.787-6.452 6.452.787zM22.613 8.85l-6.452-.787.787-6.452 6.452.787zM21.065 21.761l-6.453-.786.786-6.453 6.453.786zM13.792 27.389l-6.452-.787.787-6.452 6.452.787zM28.35 16.037l-6.453-.786.786-6.453 6.453.786zM35.523 10.398l-6.453-.786.786-6.453 6.453.786zM6.618 33.028l-6.452-.787.787-6.452 6.452.787zM10.8 33.7l-4.2-.6-.1.6zM19.6 33.7l.7-5.5-6.5-.8-.7 6.3z"/><path class="st0" d="M39.8 33.7l3.5-28.9-7.6-.9-24.3 29.8z"/><path class="st1" d="M26.1 25.8l-3.7-.5.5-3.7 3.7.5zM37.9 33l-3.6-.4.4-3.7 3.6.5zM37.2 12.3l-3.6-.4.4-3.6 3.6.5zM41.5 20.1l-.3 2.1-5.6-4.3-9.8 15.8h-2.4l11.9-18.7z"/></svg>