<?xml version="1.0" encoding="utf-8"?>
<!DOCTYPE svg PUBLIC "-//W3C//DTD SVG 1.1//EN" "http://www.w3.org/Graphics/SVG/1.1/DTD/svg11.dtd">
<svg version="1.1" id="Calque_1" xmlns="http://www.w3.org/2000/svg" xmlns:xlink="http://www.w3.org/1999/xlink" x="0px" y="0px"
	 width="40px" height="40px" viewBox="0 0 40 40" enable-background="new 0 0 40 40" xml:space="preserve">
<rect fill="#C6C6C6" width="40" height="40"/>
<path fill="#706F6F" d="M30.1,10.4c-5.3-5.3-13.9-5.3-19.2,0c-5.3,5.3-5.3,13.9,0,19.2c5.3,5.3,13.9,5.3,19.2,0
	C35.4,24.3,35.4,15.7,30.1,10.4z M20.4,8.8c1.4,0,2.6,1.2,2.6,2.6c0,1.4-1.2,2.6-2.6,2.6c-1.5,0-2.6-1.2-2.6-2.6
	C17.7,9.9,18.9,8.8,20.4,8.8z M24.5,27.9c0,0.5-0.3,0.8-0.8,0.8H17c-0.5,0-0.8-0.3-0.8-0.8v-1.7c0-0.5,0.3-0.8,0.8-0.8h1.2v-7.2H17
	c-0.5,0-0.8-0.3-0.8-0.8v-1.7c0-0.6,0.3-0.8,0.8-0.8h4.7c0.5,0,0.8,0.3,0.8,0.8v9.7h1.2c0.5,0,0.8,0.3,0.8,0.8L24.5,27.9L24.5,27.9z
	"/>
</svg>
