<?xml version="1.0" encoding="utf-8"?>
<!-- Generator: Adobe Illustrator 15.1.0, SVG Export Plug-In . SVG Version: 6.00 Build 0)  -->
<!DOCTYPE svg PUBLIC "-//W3C//DTD SVG 1.1//EN" "http://www.w3.org/Graphics/SVG/1.1/DTD/svg11.dtd">
<svg version="1.1" id="Calque_1" xmlns="http://www.w3.org/2000/svg" xmlns:xlink="http://www.w3.org/1999/xlink" x="0px" y="0px"
	 width="41.909px" height="45px" viewBox="0 0 41.909 45" enable-background="new 0 0 41.909 45" xml:space="preserve">
<g>
	<path fill="#B2DBD3" d="M8.994,36.824c-1.814-2.076-1.615-5.25,0.471-7.076c2.084-1.83,5.258-1.623,7.086,0.465
		c1.826,2.084,1.617,5.254-0.467,7.084C13.996,39.123,10.824,38.916,8.994,36.824z"/>
	<path fill="#B2DBD3" d="M21.876,34.492l2.711,0.574c1.268-5.98-2.547-11.857-8.523-13.139l-0.574,2.713
		C19.968,25.604,22.826,30.008,21.876,34.492z"/>
	<path opacity="0.75" fill="#B2DBD3" d="M30.242,33.727l2.713,0.574c1.9-8.977-3.828-17.795-12.799-19.709l-0.576,2.711
		C27.054,18.9,31.826,26.248,30.242,33.727z"/>
	<path opacity="0.5" fill="#B2DBD3" d="M38.595,32.959l2.824,0.598c2.547-12.027-5.131-23.842-17.152-26.402l-0.6,2.824
		C34.13,12.209,40.812,22.49,38.595,32.959z"/>
</g>
<path opacity="0.25" fill="#B2DBD3" d="M41.908,7.296C38.287,3.74,33.65,1.134,28.32,0l-0.576,2.711
	c5.809,1.236,10.705,4.41,14.164,8.698V7.296z"/>
</svg>
