<?xml version="1.0" encoding="utf-8"?>
<!DOCTYPE svg PUBLIC "-//W3C//DTD SVG 1.1//EN" "http://www.w3.org/Graphics/SVG/1.1/DTD/svg11.dtd">
<svg version="1.1" id="Calque_1" xmlns="http://www.w3.org/2000/svg" xmlns:xlink="http://www.w3.org/1999/xlink" x="0px" y="0px"
	 width="40px" height="40px" viewBox="0 0 40 40" enable-background="new 0 0 40 40" xml:space="preserve">
<rect fill="#C6C6C6" width="40" height="40"/>
<g>
	<path fill="#706F6F" d="M40,21l-15.9-8.3c-0.2-0.1-0.6,0-0.8,0.4l-7.3,14.2c-0.2,0.3-0.1,0.7,0.1,0.8l18.6,9.6
		c0.2,0.1,0.6,0,0.8-0.4l4.5-8.7V21z"/>
	<path fill="#706F6F" d="M24,12.7c-0.1-0.1-0.2-0.1-0.3,0L14.4,17c-0.2,0.1-0.4,0.4-0.4,0.7l1.9,10c0,0.1,0.1,0.2,0.2,0.3L24,12.7z"
		/>
	<path fill="#C6C6C6" d="M18.9,19.8c-0.3,0.5-0.9,0.7-1.5,0.5c-0.5-0.3-0.8-0.9-0.5-1.5c0.3-0.5,0.9-0.8,1.5-0.5
		C19,18.6,19.2,19.2,18.9,19.8z"/>
	<polygon fill="#DADADA" points="38.4,25.6 24.6,18.4 25.3,16.9 39.1,24.1 	"/>
	<polygon fill="#DADADA" points="36.3,29.7 22.5,22.6 23.3,21 37.1,28.2 	"/>
	<polygon fill="#DADADA" points="34.1,33.9 20.3,26.8 21.1,25.2 34.9,32.4 	"/>
</g>
<path fill="none" stroke="#706F6F" stroke-miterlimit="10" d="M17.9,19.3c0,0-15.4,5.2-13.6-7c1.1-7.6,5.6-5,9.8-2.7
	c3.9,2.1,4.9,6.5,4.9,6.5"/>
</svg>
