<svg xmlns="http://www.w3.org/2000/svg" width="41.9" height="45" viewBox="0 0 41.9 45"><path opacity=".5" fill="#77A6B6" enable-background="new" d="M.1 37.5L0 40.1c3.3 2.2 7.3 3.5 11.6 3.5 11.4 0 20.6-9.2 20.6-20.6 0-6.5-3-12.3-7.7-16.1-.5-.5-1-.9-1.5-1.1-.1 0-.1-.1-.2-.1.1 0 .1.1.2.1-.1-.1-.2-.1-.3-.2 0-.1-.1-.1-.1-.1s-.1-.1-.2-.1c0-.1-.1-.1-.1-.1-.1-.1-.2-.2-.3-.2.1.1.2.1.3.2-.2-.1-.3-.2-.5-.3-.2 0-.3-.1-.5-.2 0 0 0-.1-.1-.1-.302-.2-.5-.3-.802-.4-2.6-1.2-5.6-1.9-8.7-1.9C7.4 2.4 3.4 3.7.1 5.9v1.9C1.8 8.2 2.2 9.9 3.3 10.9c-.3.2-.1.9-.4 1.1-.3-.2-.6-.3-1-.2-.1.1-.5 1.3.2 1.1 0-.5 0-.8-.2-1 1 .7 1.1 2.4 2.7 2.5 0 .5.6.2.6.6-.2.4-.7.6-.6 1.3h.2c.1.5.6-.3 1.1 0 .6.1.3 1.1.6 1.5 0 .3-.2.4-.2.6H4.6c-.1-.2-.2-.3-.4-.4v-.8c-.6-.3-1-.8-1.7-1-.3.1-.2.5-.2.8-.2-.8-2.3.9-1 1.1-.6.6-.8-.5-1.3-.6v2.6c.6-.3 1-.8 1.7-.9v-.8c1.4-.5 5-.2 4.9 2.1 2.1.8 1.1 2.8 1.7 4.6-.7.6-1 1.6-1.9 2.1-1.2-.2-2 0-3.2-.4.1.7-.6.5-.9.8.1 2.302-1.7 3.5-.4 5.302-.6 1.3-.6 3.2-1.1 4.6C.6 37.5.3 37.5.1 37.5zm5.6-23.2c-.4 0-.4-.2-.8-.2-.6.1-.5-.3-1-.2v-.4c.8-.4.5-1.9 1.5-2.1.4 1.1-.6 1.9.3 2.9zm.8-.6h-1c0-.4 0-.9.2-1.1.6 0 .9.4.8 1.1zm15.2-8.2c-.5.2-1.2.1-2.1 0-.4-.7-.9-1.3-1.6-1.7 1 .3 1.9.7 2.8 1.2H20c.4.4.8.3 1.1.1.3.2.5.3.6.4zm1.1 1c-.5-.1-.9-.4-1.1-.8.2 0 .3 0 .3-.1.2.2.4.3.6.4 0 .2.1.3.2.5zm-10.2 23c1.2-.4 2.2-1.2 3.6-1.5v-.9c.8-.7 2.2-.7 2.5-1.9 1.3 0 2.1-.2 2.5-.6.7.2.7.9 1.5 1 0-.2.3-.2.4-.2 1-.1.7-.9.6-1.7.3-.1 1 .2 1-.2s-.1-.7-.4-.9c.1-.7 1.2-.4 1.1.2h.2c3-.7-.2-3.9-1.9-2.9-.2.5-.3 1.1-.8 1.3-.6-.4.2-1.5-.2-1.7-.3-.4-.4-.8-1-.8-.3-2.1-2.7-2.8-3.6-3.4v-.2c0-.2.2-.2.4-.2.1 0 .2 0 .2-.2.1-.5-.4-.5-.2-1-.6.8-1.2-.2-1.9-.4.1.3.3.5.6.6.1.2.5 1-.2.8-.4 0-.5.3-1.1.2.3-1.7 1.3-2.6 1.9-4.4.6-.2.2.6.8.4.7.1.3-1 .8-1.1.6.1.9-.4 1.1-.4 0 .1 0 .2.2.2-.1 2.5.5 2.1 1.1 3.6 0-.4.3-.5.2-1.1.3 0 .4-.1.6-.2.6-.2 1.3-.4 1.5-1.1-.6-.6-1-1.4-1.9-1.7.1.5-.8.9-.8.6.2 0 .2-.4 0-.4-.3 0-.4.1-.6.2-.1-.4.2-.5.6-.8-.2-.5-1-.5-.8-1.3.7-.3-.6-.2-.9-.2.1.6-.5.4-.4 1 0 .6.6.6 1.1.8-.9.2-1.4.7-2 1.2-.5-.4.3-.7-.6-.4 0-.5 0-1 .4-1-.2-.6-.6.2-.8.2-.2-.1-.2-.5-.6-.4 1.1-1 1.1-2.4 3-2.3.6-.2-.6-.2-.8-.2.1-.3.6-.1.6-.4.7.4 2.3-.1 2.3.9.1.7-.8.3-.6 1 .2.1.4.2.4.4.3-.7.9-.2 1-1.1.3 0 .4.2.6.2.2.6-.3.5-.2 1 .8-.9.8.6 2.1.2-.3-.4-1-.3-1-.8l.1-.1c3 2.4 5.4 5.8 6.6 9.6-.1 2-.6 4-1.898 5.3 0-.5.4-.8.4-1.3-.6.4-1 1-.9 2.1-1.9 1.4-4.6 2.1-6 4.1.2.5.6.9.9 1.3C24 31 21 32.2 20.598 34.3c-.5 2.7.8 5.4 0 6.9-.5.3-1 .5-1.5.7-.3-1.6.2-2.8-1.8-3.3-.1-.6.3-.5.2-1-1.1.3-1.9-1.3-2.1-2.5-.5-.3-1-.6-1.5-.8 0-2-1.1-2.8-1.3-4.8zm8.9-6.2c-.4.1-1.2.4-1.1-.4.5-.1 1 0 1.1.4zm0-.4c.5-.5 1.8-1.6 2.3-.8-1.1-.1-1.2.8-2.3.8zM12.7 9.3c-.9-1.2-2.8-1.4-4.2-2.1.9-.7-.7-1.5 0-2.3-.1-.3-.3.1-.6 0 0-.4.3-.5.2-1.1-.4 0-.5-.4-.8-.5.3-.1.6-.1.9-.2h.398V3c1-.1 2-.2 3.1-.2 1.8 0 3.6.3 5.2.7h-.1c-.1.7.8.4 1.1.6-.5 1.4-3.6.7-2.7 3.2 0 .2-.2.2-.3.1.4.9.2 3.1-1.2 3.5-.498-.4-.698-1.1-.998-1.6zm-.3 2.3c-.2.3-.8.1-.8.4.1 0 .2.2 0 .2-.7-.4-1.6-.5-1.9-1.3-.2-2.1 2.9-1.6 2.7.7zM8.6 9.8c-.8 0-1.5-.1-1.5-.8 0-.2.2-.2.2-.4.8.2 1.1.2 1.9 0 0 .6-.4.7-.6 1.2z"/></svg>