<svg xmlns="http://www.w3.org/2000/svg" width="40" height="40" viewBox="0 0 40 40"><path fill="#C6C6C6" d="M0 0h40v40H0z"/><path fill="#706F6F" d="M30.1 10.4c-5.3-5.3-13.9-5.3-19.2 0-5.3 5.3-5.3 13.9 0 19.2 5.3 5.3 13.9 5.3 19.2 0 5.3-5.3 5.3-13.9 0-19.2zm-9.7-1.6c1.4 0 2.6 1.2 2.6 2.6 0 1.4-1.2 2.6-2.6 2.6-1.5 0-2.6-1.2-2.6-2.6-.1-1.5 1.1-2.6 2.6-2.6zm4.1 19.1c0 .5-.3.8-.8.8H17c-.5 0-.8-.3-.8-.8v-1.7c0-.5.3-.8.8-.8h1.2v-7.2H17c-.5 0-.8-.3-.8-.8v-1.7c0-.6.3-.8.8-.8h4.7c.5 0 .8.3.8.8v9.7h1.2c.5 0 .8.3.8.8v1.7z"/></svg>