<?xml version="1.0" encoding="utf-8"?>
<!-- Generator: Adobe Illustrator 15.1.0, SVG Export Plug-In . SVG Version: 6.00 Build 0)  -->
<!DOCTYPE svg PUBLIC "-//W3C//DTD SVG 1.1//EN" "http://www.w3.org/Graphics/SVG/1.1/DTD/svg11.dtd">
<svg version="1.1" id="Calque_1" xmlns="http://www.w3.org/2000/svg" xmlns:xlink="http://www.w3.org/1999/xlink" x="0px" y="0px"
	 width="104.666px" height="54.667px" viewBox="0 0 104.666 54.667" enable-background="new 0 0 104.666 54.667"
	 xml:space="preserve">
<g>
	<polygon fill="#DADADA" points="104.243,54.696 104.776,54.696 104.776,0.029 0.11,0.029 0.11,0.564 	"/>
	<rect x="29.574" y="7.685" fill="#C6C6C6" enable-background="new    " width="7.521" height="7.715"/>
	<rect x="22.054" y="-0.029" fill="#C6C6C6" enable-background="new    " width="7.521" height="7.714"/>
	<rect x="37.094" y="-0.029" fill="#C6C6C6" enable-background="new    " width="7.521" height="7.714"/>
	<rect x="44.615" y="7.685" fill="#C6C6C6" enable-background="new    " width="7.521" height="7.715"/>
	<rect x="52.135" y="-0.029" fill="#C6C6C6" enable-background="new    " width="7.521" height="7.714"/>
	<rect x="59.656" y="7.685" fill="#C6C6C6" enable-background="new    " width="7.52" height="7.715"/>
	<rect x="52.135" y="15.399" fill="#C6C6C6" enable-background="new    " width="7.521" height="7.715"/>
	<rect x="59.656" y="23.114" fill="#C6C6C6" enable-background="new    " width="7.52" height="7.714"/>
	<rect x="67.175" y="15.399" fill="#C6C6C6" enable-background="new    " width="7.521" height="7.715"/>
	<rect x="74.696" y="23.114" fill="#C6C6C6" enable-background="new    " width="7.521" height="7.714"/>
	<rect x="82.216" y="30.828" fill="#C6C6C6" enable-background="new    " width="7.521" height="7.714"/>
	<rect x="89.737" y="38.542" fill="#C6C6C6" enable-background="new    " width="7.521" height="7.715"/>
	<rect x="97.257" y="30.828" fill="#C6C6C6" enable-background="new    " width="7.52" height="7.714"/>
	<rect x="89.737" y="23.114" fill="#C6C6C6" enable-background="new    " width="7.521" height="7.714"/>
	<rect x="82.216" y="15.399" fill="#C6C6C6" enable-background="new    " width="7.521" height="7.715"/>
	<rect x="74.696" y="7.685" fill="#C6C6C6" enable-background="new    " width="7.521" height="7.715"/>
	<rect x="67.175" y="-0.029" fill="#C6C6C6" enable-background="new    " width="7.521" height="7.714"/>
	<rect x="82.216" y="-0.029" fill="#C6C6C6" enable-background="new    " width="7.521" height="7.714"/>
	<rect x="89.737" y="7.685" fill="#C6C6C6" enable-background="new    " width="7.521" height="7.715"/>
	<rect x="97.257" y="-0.029" fill="#C6C6C6" enable-background="new    " width="7.52" height="7.714"/>
	<rect x="97.257" y="15.399" fill="#C6C6C6" enable-background="new    " width="7.52" height="7.715"/>
	<polygon fill="#C6C6C6" enable-background="new    " points="14.252,7.685 14.534,7.685 14.534,-0.029 7.013,-0.029 7.013,3.921 	
		"/>
	<polygon fill="#C6C6C6" enable-background="new    " points="22.055,11.712 22.055,7.685 14.534,7.685 14.534,7.803 	"/>
	<polygon fill="#C6C6C6" enable-background="new    " points="44.068,23.114 44.615,23.114 44.615,15.399 37.094,15.399 
		37.094,19.488 	"/>
	<polygon fill="#C6C6C6" enable-background="new    " points="52.136,27.362 52.136,23.114 44.615,23.114 44.615,23.453 	"/>
	<polygon fill="#C6C6C6" enable-background="new    " points="59.656,31.138 59.656,30.828 59.061,30.828 	"/>
	<polygon fill="#C6C6C6" enable-background="new    " points="73.31,38.542 74.696,38.542 74.696,30.828 67.175,30.828 
		67.175,35.353 	"/>
	<polygon fill="#C6C6C6" enable-background="new    " points="82.214,43.064 82.214,38.542 74.692,38.542 74.692,39.155 	"/>
	<polygon fill="#C6C6C6" enable-background="new    " points="103.247,53.97 104.776,53.97 104.776,46.256 97.257,46.256 
		97.257,50.855 	"/>
</g>
<g>
	<text transform="matrix(1 0 0 1 40.8555 18.2402)" fill="#878787" font-family="'Candara-Bold'" font-size="15.0721">Coverage</text>
</g>
</svg>
