<?xml version="1.0" encoding="utf-8"?>
<!DOCTYPE svg PUBLIC "-//W3C//DTD SVG 1.1//EN" "http://www.w3.org/Graphics/SVG/1.1/DTD/svg11.dtd">
<svg version="1.1" id="Calque_1" xmlns="http://www.w3.org/2000/svg" xmlns:xlink="http://www.w3.org/1999/xlink" x="0px" y="0px"
	 width="40px" height="40px" viewBox="0 0 40 40" enable-background="new 0 0 40 40" xml:space="preserve">
<rect fill="#C6C6C6" width="40" height="40"/>
<g>
	<path fill="#706F6F" d="M40,20.97l-15.89-8.25c-0.25-0.13-0.59,0.03-0.76,0.36l-7.29,14.24c-0.17,0.33-0.1,0.71,0.15,0.84
		l18.58,9.64c0.25,0.13,0.59-0.03,0.76-0.36L40,28.74V20.97z"/>
	<path fill="#706F6F" d="M23.97,12.74c-0.1-0.05-0.22-0.05-0.34,0.01l-9.2,4.3c-0.24,0.11-0.4,0.42-0.35,0.68l1.86,10.04
		c0.02,0.13,0.1,0.23,0.19,0.28L23.97,12.74z"/>
	<path fill="#C6C6C6" d="M18.9,19.77c-0.28,0.54-0.94,0.75-1.47,0.48c-0.54-0.28-0.75-0.94-0.47-1.48c0.27-0.54,0.93-0.75,1.47-0.47
		C18.97,18.57,19.18,19.23,18.9,19.77z"/>
	<polygon fill="#DADADA" points="38.37,25.59 24.56,18.42 25.34,16.9 39.14,24.07 	"/>
	<polygon fill="#DADADA" points="36.29,29.73 22.49,22.57 23.27,21.05 37.07,28.21 	"/>
	<polygon fill="#DADADA" points="34.1,33.92 20.3,26.75 21.08,25.23 34.88,32.4 	"/>
</g>
<path fill="none" stroke="#706F6F" stroke-miterlimit="10" d="M17.93,19.27c0,0-15.4,5.24-13.64-6.96c1.1-7.63,5.61-5,9.79-2.71
	c3.85,2.12,4.94,6.52,4.94,6.52"/>
</svg>
