<?xml version="1.0" encoding="utf-8"?>
<!-- Generator: Adobe Illustrator 15.1.0, SVG Export Plug-In . SVG Version: 6.00 Build 0)  -->
<!DOCTYPE svg PUBLIC "-//W3C//DTD SVG 1.1//EN" "http://www.w3.org/Graphics/SVG/1.1/DTD/svg11.dtd">
<svg version="1.1" id="Calque_1" xmlns="http://www.w3.org/2000/svg" xmlns:xlink="http://www.w3.org/1999/xlink" x="0px" y="0px"
	 width="930px" height="432px" viewBox="-183.1 -135.8 930 432" style="enable-background:new -183.1 -135.8 930 432;"
	 xml:space="preserve">
<style type="text/css">
<![CDATA[
	.st0{fill:#EDEDED;stroke:#BFBFBF;stroke-linecap:round;stroke-linejoin:round;stroke-miterlimit:10;}
	.st1{opacity:0.18;}
	.st2{fill:#EDEDED;}
	.st3{fill:#FAC52B;}
	.st4{fill:#FAC732;}
	.st5{fill:#FAC734;}
	.st6{fill:#FAC836;}
	.st7{fill:#FAC837;}
	.st8{fill:#FACA3C;}
	.st9{fill:#FACA3E;}
	.st10{fill:#FACC44;}
	.st11{fill:#FACC45;}
	.st12{fill:#FACD49;}
	.st13{fill:#FBCF50;}
	.st14{fill:#FBD156;}
	.st15{fill:#FBD35E;}
	.st16{fill:#FBD462;}
	.st17{fill:#FBD76B;}
	.st18{fill:#FCDC80;}
	.st19{fill:#FCE193;}
	.st20{fill:#FDE7A6;}
	.st21{opacity:0.8;}
	.st22{fill:none;}
	.st23{opacity:0.8;fill:#FCE193;enable-background:new    ;}
]]>
</style>
<g>
	<path class="st2" d="M168.3,122.8L168.3,122.8c1.1,1.1,2.3,2.1,3.4,3.2l1.1-1.2c-1.1-1-2.2-2.1-3.4-3.2L168.3,122.8z"/>
	<path class="st2" d="M155.4,14.2l0.2,1.6c1.5-0.1,3-0.3,4.6-0.4l-0.1-1.6C158.5,14,157,14.1,155.4,14.2z"/>
	<path class="st2" d="M161.6,116.4L161.6,116.4c1.1,1.1,2.2,2.2,3.3,3.2l1.1-1.1c-1.1-1.1-2.2-2.1-3.3-3.2L161.6,116.4z"/>
	<path class="st2" d="M142.5,96.1L142.5,96.1c1,1.2,2,2.3,3.1,3.5l1.2-1.1c-1-1.1-2-2.3-3-3.5L142.5,96.1z"/>
	<path class="st2" d="M155,109.8c1.1,1.1,2.2,2.2,3.3,3.3l1.1-1.1c-1.1-1.1-2.2-2.2-3.3-3.3L155,109.8z"/>
	<path class="st2" d="M178.7,13.4L178.7,13.4c-1.4,0-2.9,0-4.3,0H174V15c0.1,0,0.2,0,0.3,0c1.4,0,2.9,0,4.3,0L178.7,13.4z"/>
	<path class="st2" d="M148.6,103.1L148.6,103.1c1.1,1.1,2.1,2.3,3.2,3.4l1.2-1.1c-1.1-1.1-2.1-2.2-3.2-3.4L148.6,103.1z"/>
	<path class="st2" d="M175.1,129.1c1.2,1,2.3,2.1,3.5,3.1l1-1.2c-1.1-1-2.3-2-3.5-3.1L175.1,129.1z"/>
	<path class="st2" d="M197.2,146.2c1.3,0.8,2.7,1.6,4,2.3l0.8-1.4c-1.3-0.7-2.7-1.5-4-2.3L197.2,146.2z"/>
	<path class="st2" d="M215.8,15.6c-1.5-0.1-3.1-0.3-4.6-0.4l-0.1,1.6c1.5,0.1,3.1,0.3,4.6,0.4L215.8,15.6z"/>
	<path class="st2" d="M205.4,150.6c1.4,0.7,2.9,1.3,4.3,1.9l0.6-1.5c-1.4-0.6-2.8-1.2-4.2-1.8L205.4,150.6z"/>
	<path class="st2" d="M182.1,135.2c1.2,1,2.4,2,3.6,2.9l1-1.2c-1.2-0.9-2.4-1.9-3.6-2.9L182.1,135.2z"/>
	<path class="st2" d="M192.6,13.9l-0.1,1.6c1.5,0.1,3.1,0.2,4.6,0.3l0.1-1.6C195.7,14.1,194.1,14,192.6,13.9z"/>
	<path class="st2" d="M183.3,15.1c1.5,0.1,3.1,0.1,4.6,0.2l0.1-1.6c-1.6-0.1-3.1-0.1-4.6-0.2L183.3,15.1z"/>
	<path class="st2" d="M169.4,15v-1.6c-1.6,0-3.1,0.1-4.6,0.2l0.1,1.6C166.3,15.1,167.9,15.1,169.4,15z"/>
	<path class="st2" d="M206.5,14.8L206.5,14.8c-1.5-0.1-3.1-0.2-4.6-0.3l-0.1,1.6c1.5,0.1,3.1,0.2,4.6,0.3L206.5,14.8z"/>
	<path class="st2" d="M118,31.2c0.1-0.2,0.2-0.3,0.4-0.5l-1.2-1l0,0c-0.1,0.2-0.3,0.3-0.4,0.5c-1,1.3-1.8,2.7-2.4,4.2l1.5,0.6
		C116.4,33.6,117.1,32.3,118,31.2z"/>
	<path class="st2" d="M133.2,20.7l-0.6-1.5l0,0c-1.5,0.6-2.9,1.2-4.3,1.9l0.7,1.4C130.4,21.8,131.8,21.2,133.2,20.7z"/>
	<path class="st2" d="M347.5,49.5c-0.8-1.1-1.7-2.2-2.8-3.3l-1.1,1.1c1,1.1,1.9,2.2,2.7,3.2C346.7,50.2,347,49.8,347.5,49.5z"/>
	<path class="st2" d="M341.3,43c-1.2-1-2.4-1.9-3.7-2.9l-0.9,1.3c1.3,0.9,2.5,1.8,3.6,2.8L341.3,43z"/>
	<path class="st2" d="M214.1,154.1L214.1,154.1c1.5,0.5,3,0.9,4.5,1.2l0.4-1.5c-1.5-0.4-3-0.8-4.4-1.2L214.1,154.1z"/>
	<path class="st2" d="M114.6,41.8c0-0.9,0-1.7,0.1-2.6l-1.6-0.2l0,0c-0.1,0.9-0.2,1.8-0.2,2.8c0,0.7,0,1.3,0.1,2l1.6-0.1
		C114.6,43.1,114.6,42.5,114.6,41.8z"/>
	<path class="st2" d="M124.2,23.5c-1.3,0.9-2.6,1.8-3.8,2.9l1,1.2c1.1-1,2.3-1.9,3.6-2.7L124.2,23.5L124.2,23.5L124.2,23.5z"/>
	<path class="st2" d="M136.5,89c1,1.2,1.9,2.4,2.9,3.6l1.2-1c-1-1.2-2-2.4-2.9-3.6L136.5,89z"/>
	<path class="st2" d="M120.8,65.9L120.8,65.9c0.7,1.3,1.5,2.7,2.3,4l1.4-0.8c-0.8-1.3-1.6-2.7-2.3-4L120.8,65.9z"/>
	<path class="st2" d="M113.8,48.5c0.3,1.5,0.7,3,1.2,4.5l1.5-0.5c-0.5-1.5-0.9-3-1.2-4.4L113.8,48.5z"/>
	<path class="st2" d="M116.7,57.5c0.6,1.4,1.2,2.8,1.9,4.3l1.4-0.7c-0.7-1.4-1.3-2.8-1.9-4.2L116.7,57.5z"/>
	<path class="st2" d="M189.5,141L189.5,141c1.3,0.9,2.5,1.8,3.8,2.7l0.9-1.3c-1.2-0.8-2.5-1.7-3.8-2.6L189.5,141z"/>
	<path class="st2" d="M315,118.6l1,1.2l0,0c1.2-1,2.4-2.1,3.5-3.1l-1.1-1.2C317.4,116.6,316.2,117.6,315,118.6z"/>
	<path class="st2" d="M311.5,121.6c-1.2,1-2.4,1.9-3.6,2.9l1,1.2c1.2-1,2.5-1.9,3.7-2.9L311.5,121.6z"/>
	<path class="st2" d="M325.3,33.3c-1.4-0.6-2.8-1.2-4.3-1.8l-0.6,1.5c1.5,0.6,2.9,1.2,4.2,1.8L325.3,33.3z"/>
	<path class="st2" d="M300.4,129.9l0.9,1.3c1.3-0.9,2.5-1.8,3.8-2.7l-0.9-1.3C303,128.2,301.7,129.1,300.4,129.9z"/>
	<path class="st2" d="M293.9,25.3c1.5,0.3,3,0.6,4.5,1l0.3-1.5c-1.5-0.3-3-0.7-4.5-1L293.9,25.3z"/>
	<path class="st2" d="M292.7,135.1l0.8,1.3c1.3-0.8,2.6-1.7,3.9-2.5l-0.9-1.3C295.3,133.4,294,134.2,292.7,135.1z"/>
	<path class="st2" d="M302.9,27.4c1.5,0.4,3,0.8,4.5,1.2l0.4-1.5c-1.5-0.4-3-0.8-4.5-1.2L302.9,27.4z"/>
	<path class="st2" d="M328.8,36.8c1.4,0.7,2.7,1.5,4,2.2l0.8-1.4c-1.3-0.8-2.7-1.5-4.1-2.3L328.8,36.8z"/>
	<path class="st2" d="M234.2,17.3L234.2,17.3c-1.5-0.1-3.1-0.3-4.6-0.4l-0.1,1.6c1.5,0.1,3.1,0.3,4.6,0.4L234.2,17.3z"/>
	<path class="st2" d="M241.7,155.2l0.2,1.6c1.5-0.2,3.1-0.4,4.6-0.6l-0.3-1.6C244.8,154.8,243.2,155,241.7,155.2z"/>
	<path class="st2" d="M243.5,18.1c-1.5-0.1-3.1-0.3-4.6-0.4l-0.1,1.6c1.5,0.1,3.1,0.3,4.6,0.4L243.5,18.1z"/>
	<path class="st2" d="M252.7,18.9c-1.5-0.1-3.1-0.2-4.6-0.4l-0.1,1.6c1.6,0.1,3.1,0.3,4.6,0.4L252.7,18.9z"/>
	<path class="st2" d="M284.8,139.8l0.8,1.4l0,0c1.3-0.8,2.7-1.5,4-2.3l-0.8-1.4C287.5,138.3,286.2,139,284.8,139.8z"/>
	<path class="st2" d="M223.2,156.2c1.5,0.2,3.1,0.4,4.6,0.6l0.1-1.6c-1.5-0.1-3-0.3-4.5-0.6L223.2,156.2z"/>
	<path class="st2" d="M225,16.5c-1.5-0.1-3.1-0.3-4.6-0.4l-0.1,1.6c1.5,0.1,3.1,0.3,4.6,0.4L225,16.5z"/>
	<path class="st2" d="M250.8,153.6l0.4,1.5l0,0c1.5-0.4,3-0.7,4.5-1.2l-0.4-1.5C253.7,152.9,252.2,153.3,250.8,153.6z"/>
	<path class="st2" d="M234.3,155.5c-0.6,0-1.1,0-1.7,0v1.6c0.6,0,1.1,0,1.7,0c1,0,2,0,3-0.1l-0.1-1.6
		C236.2,155.5,235.2,155.5,234.3,155.5z"/>
	<path class="st2" d="M280.4,21.5c-1.5-0.2-3.1-0.4-4.6-0.6l-0.2,1.6c1.6,0.2,3.1,0.4,4.6,0.6L280.4,21.5z"/>
	<path class="st2" d="M276.7,144.1l0.7,1.4c1.4-0.7,2.8-1.4,4.2-2.1l-0.7-1.4C279.4,142.7,278,143.4,276.7,144.1z"/>
	<path class="st2" d="M261.8,21.2l0.1-1.6c-0.4,0-0.8,0-1.1-0.1c-1.2-0.1-2.3-0.2-3.5-0.2l-0.1,1.6c1.2,0.1,2.4,0.2,3.5,0.2
		C261.1,21.1,261.4,21.1,261.8,21.2z"/>
	<path class="st2" d="M289.6,22.9c-1.5-0.3-3-0.5-4.6-0.8l-0.2,1.6c1.6,0.2,3.1,0.5,4.6,0.8L289.6,22.9z"/>
	<path class="st2" d="M268.3,147.9l0.6,1.5l0,0c1.4-0.6,2.9-1.2,4.3-1.9l-0.7-1.4C271.1,146.7,269.7,147.3,268.3,147.9z"/>
	<path class="st2" d="M259.6,151.1l0.5,1.5c1.5-0.5,2.9-1,4.4-1.6l-0.5-1.5C262.5,150.1,261.1,150.6,259.6,151.1z"/>
	<path class="st2" d="M271.2,20.4c-1.5-0.2-3.1-0.3-4.6-0.4l-0.1,1.6c1.6,0.1,3.1,0.3,4.6,0.4L271.2,20.4z"/>
	<path class="st2" d="M223.2,156.2L223.2,156.2L223.2,156.2z"/>
	<path class="st2" d="M341.3,43L341.3,43L341.3,43z"/>
	<path class="st2" d="M280.4,21.5L280.4,21.5L280.4,21.5z"/>
	<path class="st2" d="M225,16.5L225,16.5L225,16.5z"/>
	<path class="st2" d="M188,13.7L188,13.7L188,13.7z"/>
	<path class="st2" d="M169.4,13.4L169.4,13.4L169.4,13.4z"/>
	<g>
		<path class="st2" d="M211.8,66.3H206v-6.2c0-1.1-0.3-2.1-1.1-2.8c-0.8-0.7-1.8-1-2.9-1s-2.1,0.3-2.9,1c-0.8,0.7-1.1,1.8-1.1,2.8
			v6.2h-0.5c-1.1,0-2.1,0.3-2.9,1c-0.8,0.7-1.1,1.8-1.1,2.8c0,1.1,0.3,2.1,1.1,2.8c0.8,0.7,1.8,1,2.9,1h0.5v25
			c0,1.1,0.3,2.1,1.1,2.8c0.8,0.7,1.8,1,2.9,1l0,0c1.1,0,2.1-0.3,2.9-1c0.8-0.7,1.1-1.8,1.1-2.8v-25h5.8c1.1,0,2.1-0.3,2.9-1
			c0.8-0.7,1.1-1.8,1.1-2.8c0-1.1-0.3-2.1-1.1-2.8C213.9,66.6,212.9,66.3,211.8,66.3z"/>
		<path class="st2" d="M39.6,95.2H11.9c-1.2,0-2.1-0.3-2.9-1s-1.1-1.4-1.1-2.4V77.3c0-1,0.3-1.7,1.1-2.4c0.8-0.7,1.7-1,2.9-1h19.6
			c1.1,0,2.1-0.2,2.9-1c0.8-0.7,1.1-1.8,1.1-2.8s-0.3-2.1-1.1-2.8c-0.8-0.7-1.8-1-2.9-1H11.9c-3.2,0-6.1,1.1-8.4,3.2
			s-3.6,4.8-3.6,7.8v14.5c0,3,1.2,5.7,3.6,7.8c2.3,2.1,5.2,3.2,8.4,3.2h27.7c1.1,0,2.1-0.2,2.9-1s1.1-1.8,1.1-2.8
			c0-1.1-0.3-2.1-1.1-2.8S40.6,95.2,39.6,95.2z"/>
		<path class="st2" d="M261.6,69.5c-2.3-2.1-5.2-3.2-8.4-3.2h-19.6c-3.2,0-6.1,1.1-8.4,3.2c-2.3,2.1-3.6,4.8-3.6,7.8v14.5
			c0,3,1.2,5.7,3.6,7.8c2.3,2.1,5.2,3.2,8.4,3.2h19.7c1.1,0,2.1-0.2,2.9-1c0.8-0.7,1.1-1.8,1.1-2.8c0-1.1-0.3-2.1-1.1-2.8
			c-0.8-0.7-1.8-1-2.9-1h-19.6c-1.2,0-2.1-0.3-2.9-1c-0.8-0.7-1.1-1.4-1.1-2.4v-3.5h23.7l0,0c3.1,0,5.9-1,8.2-3
			c2.5-2.1,3.8-4.9,3.8-8C265.2,74.3,263.9,71.5,261.6,69.5z M256,79.7c-0.8,0.7-1.7,1-2.9,1.1h-23.7v-3.5c0-1,0.3-1.7,1.1-2.4
			c0.8-0.7,1.8-1,2.9-1H253c1.2,0,2,0.3,2.8,1c0.9,0.7,1.2,1.5,1.2,2.5C257.2,78.3,256.9,79,256,79.7z"/>
		<path class="st2" d="M185.6,83.9c-2.3-2.1-5.2-3.2-8.4-3.1h-19.6c-1.2,0-2.1-0.3-2.9-1.1c-0.8-0.7-1.1-1.4-1.1-2.4
			s0.3-1.7,1.1-2.4c0.8-0.7,1.7-1,2.9-1.1h19.6c1.1,0,2.1-0.2,2.9-1c0.8-0.7,1.1-1.8,1.1-2.8s-0.3-2.1-1.1-2.8c-0.8-0.7-1.8-1-2.9-1
			h-19.6c-3.2,0-6.1,1.1-8.4,3.2c-2.4,2.1-3.6,4.8-3.6,7.8s1.2,5.8,3.6,7.8c2.3,2.1,5.2,3.1,8.5,3.1h19.6c1.2,0,2.1,0.3,2.9,1.1
			c0.8,0.7,1.1,1.4,1.1,2.4s-0.3,1.7-1.1,2.4c-0.8,0.7-1.7,1-2.9,1h-27.7c-1.1,0-2.1,0.2-2.9,1c-0.8,0.7-1.1,1.8-1.1,2.8
			s0.3,2.1,1.1,2.8c0.8,0.7,1.8,1,2.9,1h27.7c3.1,0,5.9-1,8.2-3c2.5-2,3.8-4.8,3.8-8C189.2,88.7,187.9,86,185.6,83.9z"/>
		<path class="st2" d="M89.3,69.5c-2.3-2.1-5.2-3.2-8.4-3.1H61.3c-3.2,0-6.1,1.1-8.4,3.2c-2.3,2.1-3.6,4.8-3.6,7.8v14.5
			c0,3,1.2,5.7,3.6,7.8c2.3,2.1,5.2,3.2,8.4,3.2H81c3.1,0,5.9-1,8.2-3c2.5-2,3.8-4.8,3.8-8V77.3C92.9,74.3,91.7,71.5,89.3,69.5z
			 M85,91.8c0,1-0.3,1.7-1.2,2.4c-0.8,0.7-1.7,1-2.9,1H61.3c-1.2,0-2.1-0.3-2.9-1c-0.8-0.7-1.1-1.4-1.1-2.4V77.3
			c0-1,0.3-1.7,1.1-2.4c0.8-0.7,1.7-1,2.9-1h19.6c1.2,0,2.1,0.3,2.9,1c0.8,0.7,1.1,1.4,1.1,2.4L85,91.8L85,91.8z"/>
		<path class="st2" d="M439.4,69.5c-2.3-2.1-5.2-3.2-8.5-3.1h-19.6c-3.2,0-6.1,1.1-8.4,3.2c-2.3,2.1-3.6,4.8-3.6,7.8v14.5
			c0,3,1.2,5.7,3.6,7.8c2.3,2.1,5.2,3.2,8.4,3.2H431c3.1,0,5.9-1,8.2-3c2.5-2,3.8-4.8,3.8-8V77.3C443,74.3,441.8,71.5,439.4,69.5z
			 M435,91.8c0,1-0.3,1.7-1.1,2.4c-0.8,0.7-1.7,1-2.9,1h-19.6c-1.2,0-2.1-0.3-2.9-1c-0.8-0.7-1.1-1.4-1.1-2.4V77.3
			c0-1,0.3-1.7,1.1-2.4c0.8-0.7,1.7-1,2.9-1H431c1.2,0,2.1,0.3,2.9,1c0.8,0.7,1.1,1.4,1.1,2.4V91.8z"/>
		<path class="st2" d="M484.8,69.5c-2.3-2.1-5.2-3.2-8.4-3.2h-13c-1.8,0-3.6,0.3-5.2,1c-0.7-0.7-1.8-1.1-2.9-1c-1.1,0-2.1,0.2-2.9,1
			c-0.8,0.7-1.1,1.8-1.1,2.8V99c0,1,0.3,2.1,1.1,2.8c0.8,0.7,1.8,1,2.9,1c1.1,0,2.1-0.3,2.9-1c0.8-0.7,1.1-1.8,1.1-2.8V77.3
			c0-1,0.3-1.7,1.1-2.4c0.8-0.7,1.7-1,2.9-1h13c1.2,0,2.1,0.3,2.9,1c0.8,0.7,1.1,1.4,1.1,2.4V99c0,1,0.3,2.1,1.1,2.8
			c0.8,0.7,1.8,1,2.9,1c1.1,0,2.1-0.3,2.9-1c0.8-0.7,1.1-1.8,1.1-2.8V77.3C488.4,74.3,487.2,71.5,484.8,69.5z"/>
		<path class="st2" d="M292.7,48.4c-1.1,0-2.2,0.3-2.9,1c-0.8,0.7-1.1,1.8-1.1,2.9v46.6c0,1.1,0.3,2.1,1.1,2.9c0.8,0.7,1.8,1,2.9,1
			l0,0c1.1,0,2.1-0.3,2.9-1c0.8-0.7,1.1-1.8,1.1-2.9V52.3c0-1.1-0.3-2.1-1.1-2.9C294.9,48.7,293.8,48.4,292.7,48.4z"/>
		<path class="st2" d="M276.3,48.4c-1.1,0-2.1,0.3-2.9,1c-0.8,0.7-1.1,1.8-1.1,2.9v46.6c0,1.1,0.3,2.1,1.1,2.9c0.8,0.7,1.8,1,2.9,1
			l0,0c1.1,0,2.1-0.3,2.9-1c0.8-0.7,1.1-1.8,1.1-2.9V52.3c0-1.1-0.3-2.1-1.1-2.9C278.4,48.7,277.4,48.4,276.3,48.4z"/>
		<path class="st2" d="M343.9,69.5c-2.3-2.1-5.2-3.2-8.5-3.2h-19.6c-1.1,0-2.1,0.2-2.9,1c-0.8,0.7-1.1,1.8-1.1,2.8
			c0,1.1,0.3,2.1,1.1,2.8c0.8,0.7,1.8,1,2.9,1h19.6c1.2,0,2.1,0.3,2.9,1c0.8,0.7,1.1,1.4,1.1,2.4v3.4h-23.7c-3.2,0-6.1,1.1-8.4,3.2
			c-2.3,2.1-3.6,4.8-3.6,7.9c0,3,1.2,5.7,3.6,7.8c2.3,2.1,5.2,3.2,8.4,3.2h19.6c1.8,0,3.6-0.4,5.1-1.1c0.7,0.7,1.8,1.1,2.9,1.1
			c1.1,0,2.1-0.2,2.9-1c0.8-0.7,1.1-1.8,1.1-2.8V77.3C347.5,74.2,346.3,71.5,343.9,69.5z M338.4,94.1c-0.8,0.7-1.7,1-2.9,1h-19.6
			c-1.2,0-2.1-0.3-2.9-1c-0.8-0.7-1.1-1.4-1.1-2.4s0.3-1.7,1.2-2.4c0.8-0.7,1.7-1.1,2.9-1.1h23.7v3.5l0,0
			C339.5,92.8,339.2,93.4,338.4,94.1z"/>
		<g class="st1">
			<g>
				<g>
					<g class="st21">
						<line class="st22" x1="226" y1="36.6" x2="226" y2="36.6"/>
						<path class="st19" d="M226,36.6c3.7-0.2,6.5-0.1,8.4,0.1l6.4-0.9c-4.5,0.8-9,1.6-13.5,2.5c-12.1,2.4-25.7,5.5-38.7,8.8
							c-13,3.3-25.3,6.8-35,9.6c5.7-1.8,12.5-3.9,18.9-5.7l6.3-1.8c4.1-1.1,7.8-2.1,10.8-2.9l-1.8,0.5c4.4-1.3,8.8-2.6,13.2-3.8
							c4.4-1.1,8.9-2.1,13.4-3.2c-4.5,1-8.9,2.1-13.4,3.2C209.4,40.6,217.6,38.5,226,36.6"/>
						<line class="st22" x1="201.1" y1="42.9" x2="201.1" y2="42.9"/>
						<line class="st22" x1="153.6" y1="56.6" x2="153.6" y2="56.6"/>
						<line class="st22" x1="240.8" y1="35.8" x2="240.8" y2="35.8"/>
						<path class="st19" d="M271.7,107.1l-0.6,0.1l3.2-0.8c12.5-2.9,24.9-6.1,36.3-9.4c13.9-4,28.3-8.4,43.1-13.6
							c3-1,5.9-2.1,8.9-3.2c-5.9,2.4-11.9,4.6-17.9,6.7l-1.8,0.6c-12.9,4.2-24.7,7.7-36.2,10.9C295.1,101.6,283.7,104.4,271.7,107.1
							"/>
						<line class="st22" x1="344.7" y1="86.8" x2="344.7" y2="86.8"/>
						<line class="st22" x1="360.5" y1="79.6" x2="360.5" y2="79.6"/>
						<path class="st15" d="M360.5,79.6c13.5-5.2,27.8-11.2,41.1-18.5l0.1,0.2c-7.3,4-15.5,8-24,11.5c-2.3,1-4.7,1.9-7.1,2.8
							l1.7-0.6C368.4,76.7,364.5,78.2,360.5,79.6"/>
						<path class="st15" d="M390.7,67.4c4.1-2,8.1-4,11.9-6.2l1.6-0.8C399.8,62.8,395.3,65.2,390.7,67.4"/>
						<polyline class="st15" points="269,112.5 265.4,113.2 269.9,112.3 269,112.5 						"/>
						<line class="st22" x1="265.4" y1="113.2" x2="265.4" y2="113.2"/>
						<line class="st22" x1="404.5" y1="70.4" x2="404.5" y2="70.4"/>
						<path class="st15" d="M404.5,70.4c-2,1-3.9,1.9-5.9,2.9C400.6,72.4,402.5,71.4,404.5,70.4"/>
						<polyline class="st15" points="398.6,73.3 397.8,73.7 398.6,73.3 						"/>
						<line class="st22" x1="400.1" y1="24" x2="400.1" y2="24"/>
						<path class="st15" d="M400.1,24c1.5,0.2,2.9,0.5,4.4,0.8C403,24.6,401.5,24.3,400.1,24"/>
						<line class="st22" x1="427.7" y1="54.1" x2="427.7" y2="54.1"/>
						<path class="st15" d="M427.7,54.1c-0.5,0.4-1,0.9-1.5,1.3C426.8,54.9,427.2,54.5,427.7,54.1"/>
						<path class="st15" d="M98.1,121.3c-3.3-0.5-6.6-1.2-9.8-1.9C91.5,120.1,94.8,120.7,98.1,121.3"/>
						<line class="st22" x1="265.4" y1="113.2" x2="265.4" y2="113.2"/>
						<polyline class="st15" points="265.4,113.2 258.2,114.4 265.4,113.2 						"/>
						<line class="st22" x1="411.3" y1="26.7" x2="411.3" y2="26.7"/>
						<line class="st22" x1="411.3" y1="26.7" x2="411.3" y2="26.7"/>
						<path class="st15" d="M411.3,26.7c2,0.5,3.9,1.1,5.8,1.8c-1.6-0.6-3.2-1.1-4.9-1.5L411.3,26.7"/>
						<path class="st15" d="M392,22.9c2.7,0.3,5.4,0.7,8,1.1c-1.8-0.3-3.6-0.5-5.3-0.7L392,22.9"/>
						<line class="st22" x1="400.1" y1="24" x2="400.1" y2="24"/>
						<path class="st15" d="M425.7,44.8c1.8-2.2,2.9-4.7,2.9-6.5c0-0.3,0-0.6,0-0.9c0,0.3,0,0.6,0,0.9c0-0.3,0-0.6,0-0.9l0,0
							c0.1,1,0,2.1-0.5,3.4C427.6,42.1,426.7,43.5,425.7,44.8"/>
						<line class="st22" x1="400" y1="24.3" x2="400" y2="24.3"/>
						<line class="st22" x1="400" y1="24.3" x2="400" y2="24.3"/>
						<path class="st15" d="M400,24.3c3.8,0.6,7.6,1.4,11.3,2.4c2,0.5,3.9,1.1,5.8,1.8c-1.6-0.6-3.2-1.1-4.9-1.5
							c2.7,0.8,5.4,1.7,8,2.8c2.5,1.1,4.9,2.5,6.5,4.2c0.8,0.8,1.3,1.6,1.6,2.4c0,0.1,0.1,0.2,0.1,0.3c0,0.1,0,0.1,0,0.2l0.1,0.3
							v0.2v0.1l0,0c0-0.1,0,0.1,0-0.1l0,0l0,0c0,0.1,0,0.2,0,0.3c0,0.4,0,0.8,0,1.3c-0.3,1.8-1.6,4.2-3.5,6.4
							c-0.3,0.4-0.6,0.8-1,1.3c1.8-1.9,3.4-4,4.1-6c0.4-1,0.5-1.8,0.5-2.6c0-0.2,0-0.4,0-0.6v-0.1l0,0l0,0c0.1,0.3,0,0.1,0,0.1l0,0
							l0,0l0,0l-0.1-0.3c0-0.2-0.1-0.2-0.1-0.3c-0.1-0.3-0.2-0.7-0.5-1.1c0.1,0.2,0.2,0.4,0.3,0.6c0,0.1,0.1,0.2,0.1,0.3
							c0,0.1,0,0,0.1,0.2l0.1,0.3v0.1l0,0l0,0c0,0,0-0.2,0-0.1l0,0l0,0l0,0l0,0v0.1c0,0.1,0,0.2,0,0.3c0,0.2,0,0.5,0,0.7
							c0-0.3,0-0.6,0-0.9v-0.2l0,0c0,0,0.1,0.2,0,0.1l0,0l0,0l0,0l0,0l0,0v-0.1v-0.1v-0.2c-0.1-0.2,0-0.2-0.1-0.4
							c-0.1-0.3-0.2-0.6-0.4-0.9c0.2,0.3,0.3,0.6,0.4,0.9c0.1,0.2,0.1,0.2,0.1,0.3V37v0.1v0.1l0,0l0,0l0,0l0,0l0,0
							c0,0.1,0-0.2,0-0.1l0,0v0.2v-0.1v-0.1l0,0l0,0l0,0c0.1,0.3,0,0.1,0,0.1l0,0v-0.1l-0.1-0.3v-0.1l0,0c0,0-0.1-0.3-0.2-0.5
							c-0.1-0.4-0.3-0.8-0.6-1.2c-0.5-0.8-1.3-1.6-2.2-2.3c-1.9-1.5-4.3-2.8-6.9-3.8c2.1,0.9,4,1.9,5.7,3c-2.1-1.4-4.6-2.6-7.2-3.6
							c0.5,0.2,1.1,0.4,1.6,0.6c-2.3-1-4.8-1.8-7.3-2.5C407.7,25.6,403.9,24.9,400,24.3 M417.1,28.5l-1.6-0.5L417.1,28.5 M428,35.6
							L428,35.6"/>
						<line class="st22" x1="412.1" y1="27" x2="412.1" y2="27"/>
						<path class="st6" d="M412.1,27c1.7,0.5,3.3,1,4.9,1.5C415.5,27.9,413.8,27.4,412.1,27"/>
						<line class="st22" x1="417" y1="28.5" x2="417" y2="28.5"/>
						<line class="st22" x1="428.6" y1="37.4" x2="428.6" y2="37.4"/>
						<path class="st6" d="M428.6,37.4c0,0.3,0,0.6,0,0.9C428.6,38,428.6,37.7,428.6,37.4"/>
						<line class="st22" x1="378.5" y1="22" x2="378.5" y2="22"/>
						<line class="st22" x1="378.5" y1="22" x2="378.5" y2="22"/>
						<path class="st15" d="M378.5,22l4.5,0.3c2.1,0.1,4.2,0.3,6.3,0.5c6.3,0.6,12.5,1.5,18.6,2.9c1.1,0.3,2.3,0.6,3.4,0.9
							c-3.7-0.9-7.5-1.6-11.3-2.2C393,23.2,385.8,22.5,378.5,22"/>
						<line class="st22" x1="411.3" y1="26.6" x2="411.3" y2="26.6"/>
						<line class="st22" x1="428" y1="35.6" x2="428" y2="35.6"/>
						<line class="st22" x1="428" y1="35.6" x2="428" y2="35.6"/>
						<path class="st15" d="M428,35.6c0.2,0.3,0.3,0.6,0.4,0.9c0.1,0.2,0.1,0.2,0.1,0.3V37v0.1v0.1l0,0l0,0l0,0l0,0l0,0
							c0,0.1,0-0.2,0-0.1l0,0v0.2l0,0v-0.2l0,0c0,0,0.1,0.2,0,0.1l0,0l0,0l0,0l0,0l0,0v-0.1V37v-0.2c-0.1-0.2,0-0.1-0.1-0.3
							C428.3,36.2,428.2,35.9,428,35.6"/>
						<line class="st22" x1="428.6" y1="37.4" x2="428.6" y2="37.4"/>
						<path class="st6" d="M428,35.6c0.2,0.3,0.3,0.6,0.4,0.9c0.1,0.2,0.1,0.2,0.1,0.3V37v0.1v0.1l0,0l0,0l0,0l0,0l0,0
							c0,0.1,0-0.2,0-0.1l0,0v0.2v-0.2l0,0c0,0,0,0.2,0,0.1l0,0l0,0l0,0l0,0l0,0v-0.1V37v-0.2c-0.1-0.2,0-0.1-0.1-0.3
							C428.3,36.2,428.2,35.9,428,35.6"/>
						<line class="st22" x1="428.6" y1="37.4" x2="428.6" y2="37.4"/>
						<line class="st22" x1="376.7" y1="21.9" x2="376.7" y2="21.9"/>
						<line class="st22" x1="376.7" y1="21.9" x2="376.7" y2="21.9"/>
						<polyline class="st15" points="376.7,21.9 380.3,22.1 383,22.3 378.5,22 376.7,21.9 						"/>
						<line class="st22" x1="379.4" y1="22" x2="379.4" y2="22"/>
						<line class="st22" x1="379.4" y1="22" x2="379.4" y2="22"/>
						<polyline class="st15" points="379.4,22 380.3,22.1 379.4,22 						"/>
						<path class="st15" d="M381.8,22.1c3.4,0.2,6.8,0.4,10.2,0.8c-1.8-0.2-3.6-0.3-5.4-0.4C385,22.4,383.5,22.3,381.8,22.1"/>
						<line class="st22" x1="383" y1="22.3" x2="383" y2="22.3"/>
						<line class="st22" x1="428.6" y1="37.4" x2="428.6" y2="37.4"/>
						<line class="st22" x1="428.6" y1="37.4" x2="428.6" y2="37.4"/>
						<path class="st6" d="M428.6,37.4c0,0.3,0,0.6,0,0.9C428.6,38,428.6,37.7,428.6,37.4"/>
						<line class="st22" x1="428.6" y1="37.4" x2="428.6" y2="37.4"/>
						<line class="st22" x1="379.4" y1="22" x2="379.4" y2="22"/>
						<line class="st22" x1="379.4" y1="22" x2="379.4" y2="22"/>
						<polyline class="st15" points="379.4,22 381.8,22.1 379.4,22 						"/>
						<path class="st15" d="M380.3,22.1l1.6,0.1c1.6,0.1,3.2,0.2,4.8,0.3l2.7,0.3c-2.1-0.2-4.2-0.4-6.3-0.5c2.1,0.1,4.2,0.3,6.3,0.5
							c-2.1-0.2-4.2-0.4-6.3-0.5L380.3,22.1"/>
						<polyline class="st6" points="379.4,22 381.8,22.1 380.3,22.1 379.4,22 						"/>
						<path class="st6" d="M381.8,22.1c1.6,0.1,3.2,0.2,4.8,0.3C385,22.4,383.5,22.3,381.8,22.1"/>
						<line class="st22" x1="389.3" y1="22.8" x2="389.3" y2="22.8"/>
						<line class="st22" x1="389.3" y1="22.8" x2="389.3" y2="22.8"/>
						<line class="st22" x1="383" y1="22.3" x2="383" y2="22.3"/>
						<path class="st6" d="M383,22.3c2.1,0.1,4.2,0.3,6.3,0.5C387.2,22.6,385.2,22.4,383,22.3"/>
						<line class="st22" x1="386.7" y1="22.5" x2="386.7" y2="22.5"/>
						<line class="st22" x1="386.7" y1="22.5" x2="386.7" y2="22.5"/>
						<line class="st22" x1="386.7" y1="22.5" x2="386.7" y2="22.5"/>
						<line class="st22" x1="386.7" y1="22.5" x2="386.7" y2="22.5"/>
						<path class="st15" d="M386.7,22.5c1.8,0.1,3.6,0.3,5.4,0.4l2.7,0.3C392,23,389.4,22.7,386.7,22.5"/>
						<line class="st22" x1="392" y1="22.9" x2="392" y2="22.9"/>
						<line class="st22" x1="392" y1="22.9" x2="392" y2="22.9"/>
						<polyline class="st6" points="392,22.9 394.7,23.3 392,22.9 						"/>
						<path class="st6" d="M386.7,22.5c1.8,0.1,3.6,0.3,5.4,0.4C390.3,22.8,388.5,22.6,386.7,22.5"/>
						<line class="st22" x1="392" y1="22.9" x2="392" y2="22.9"/>
						<line class="st22" x1="386.7" y1="22.5" x2="386.7" y2="22.5"/>
						<line class="st22" x1="386.7" y1="22.5" x2="386.7" y2="22.5"/>
						<path class="st15" d="M386.7,22.5c2.7,0.2,5.4,0.5,8.1,0.8c1.5,0.2,3,0.5,4.4,0.7c-3-0.5-5.9-0.8-8.9-1.1l-0.9-0.1L386.7,22.5
							"/>
						<line class="st22" x1="394.7" y1="23.3" x2="394.7" y2="23.3"/>
						<line class="st22" x1="399.2" y1="24" x2="399.2" y2="24"/>
						<line class="st22" x1="386.7" y1="22.5" x2="386.7" y2="22.5"/>
						<line class="st22" x1="386.7" y1="22.5" x2="386.7" y2="22.5"/>
						<path class="st6" d="M386.7,22.5c2.7,0.2,5.4,0.5,8.1,0.8C392,23,389.4,22.7,386.7,22.5"/>
						<line class="st22" x1="394.7" y1="23.3" x2="394.7" y2="23.3"/>
						<line class="st22" x1="394.7" y1="23.3" x2="394.7" y2="23.3"/>
						<polyline class="st6" points="415.4,27.9 417.1,28.5 415.4,27.9 						"/>
						<line class="st22" x1="389.3" y1="22.8" x2="389.3" y2="22.8"/>
						<line class="st22" x1="417.1" y1="28.5" x2="417.1" y2="28.5"/>
						<line class="st22" x1="417.1" y1="28.5" x2="417.1" y2="28.5"/>
						<path class="st15" d="M417.1,28.5c0.5,0.2,1.1,0.4,1.6,0.6c2.1,0.9,4,1.8,5.7,3C422.2,30.6,419.7,29.4,417.1,28.5"/>
						<path class="st6" d="M417.1,28.5c0.5,0.2,1.1,0.4,1.6,0.6C418.1,28.8,417.6,28.6,417.1,28.5"/>
						<line class="st22" x1="418.7" y1="29" x2="418.7" y2="29"/>
						<path class="st6" d="M418.7,29c2.1,0.9,4,1.9,5.7,3C422.7,30.9,420.7,29.9,418.7,29"/>
						<line class="st22" x1="418.7" y1="29" x2="418.7" y2="29"/>
						<line class="st22" x1="424.3" y1="32" x2="424.3" y2="32"/>
						<line class="st22" x1="407.9" y1="25.7" x2="407.9" y2="25.7"/>
						<line class="st22" x1="407.9" y1="25.7" x2="407.9" y2="25.7"/>
						<path class="st15" d="M407.9,25.7c1.7,0.4,3.4,0.8,5.1,1.3l-1.7-0.4C410.2,26.2,409.1,26,407.9,25.7"/>
						<line class="st22" x1="389.3" y1="22.8" x2="389.3" y2="22.8"/>
						<line class="st22" x1="389.3" y1="22.8" x2="389.3" y2="22.8"/>
						<path class="st15" d="M389.3,22.8l0.9,0.1c6,0.6,11.9,1.5,17.7,2.8C401.9,24.3,395.6,23.4,389.3,22.8"/>
						<polyline class="st6" points="389.3,22.8 390.2,22.8 389.3,22.8 390.2,22.8 389.3,22.8 						"/>
						<polyline class="st3" points="389.3,22.8 390.2,22.8 389.3,22.8 						"/>
						<line class="st22" x1="407.9" y1="25.7" x2="407.9" y2="25.7"/>
						<path class="st15" d="M420,58.2c-3.8,2.7-7.8,5.1-11.9,7.3c4.6-2.5,9.1-5.3,13.4-8.4L420,58.2"/>
						<line class="st22" x1="408.2" y1="65.5" x2="408.2" y2="65.5"/>
						<path class="st15" d="M414.7,62c-3.7,2.2-7.6,4.2-11.4,6.2c5-2.5,9.8-5.2,14.5-8.2C416.8,60.6,415.8,61.3,414.7,62"/>
						<line class="st22" x1="403.3" y1="68.1" x2="403.3" y2="68.1"/>
						<line class="st22" x1="406.3" y1="67.9" x2="406.3" y2="67.9"/>
						<line class="st22" x1="406.3" y1="67.9" x2="406.3" y2="67.9"/>
						<path class="st15" d="M406.3,67.9c-11.5,6.2-22.5,10.9-32.1,14.5c5.5-2.1,10.9-4.4,16.2-6.8l-0.8,0.4
							C395.3,73.5,400.9,70.8,406.3,67.9"/>
						<line class="st22" x1="390.5" y1="75.6" x2="390.5" y2="75.6"/>
						<line class="st22" x1="390.5" y1="75.6" x2="390.5" y2="75.6"/>
						<line class="st22" x1="374.3" y1="82.3" x2="374.3" y2="82.3"/>
						<line class="st22" x1="406.3" y1="67.9" x2="406.3" y2="67.9"/>
						<line class="st22" x1="406.3" y1="67.9" x2="406.3" y2="67.9"/>
						<path class="st15" d="M406.3,67.9c-5.5,2.9-11.1,5.6-16.7,8.1l0.8-0.4C395.8,73.2,401.1,70.7,406.3,67.9"/>
						<line class="st22" x1="406.3" y1="67.9" x2="406.3" y2="67.9"/>
						<path class="st6" d="M406.3,67.9c-5.5,2.9-11.1,5.6-16.7,8.1C395.3,73.5,400.9,70.8,406.3,67.9"/>
						<line class="st22" x1="389.6" y1="76" x2="389.6" y2="76"/>
						<path class="st15" d="M411.6,64c-1.4,0.8-2.7,1.5-4.1,2.2c2.4-1.3,4.8-2.7,7.2-4.2C413.7,62.6,412.6,63.3,411.6,64"/>
						<line class="st22" x1="407.5" y1="66.2" x2="407.5" y2="66.2"/>
						<line class="st22" x1="434.3" y1="34.4" x2="434.3" y2="34.4"/>
						<path class="st15" d="M434.3,34.4c0.7,2,0.8,4.3,0.3,6.3C435,38.7,435,36.5,434.3,34.4"/>
						<path class="st20" d="M250.8,29.5l-4.5,0.9l-6.3,1.4c9.9-1.8,19.9-3.5,31.7-5.3L268,27c12.7-2,21.8-3,32.8-4.3
							C285.3,24.2,265.3,27.2,250.8,29.5 M268,27L268,27"/>
						<line class="st22" x1="271.7" y1="26.5" x2="271.7" y2="26.5"/>
						<line class="st22" x1="300.8" y1="22.7" x2="300.8" y2="22.7"/>
						<line class="st22" x1="320" y1="20.4" x2="320" y2="20.4"/>
						<polyline class="st15" points="320,20.4 323.6,20.1 320,20.4 						"/>
						<line class="st22" x1="271.7" y1="26.5" x2="271.7" y2="26.5"/>
						<polyline class="st15" points="271.7,26.5 277.1,25.7 271.7,26.5 						"/>
						<line class="st22" x1="314.5" y1="20.9" x2="314.5" y2="20.9"/>
						<polyline class="st15" points="314.5,20.9 320,20.4 314.5,20.9 						"/>
						<path class="st15" d="M434.1,36.6c0.3,2-0.1,4-0.8,5.8c-0.7,1.8-1.8,3.4-3,4.9c1.2-1.5,2.2-3.1,2.9-4.9
							C433.9,40.6,434.3,38.6,434.1,36.6L434.1,36.6"/>
						<path class="st15" d="M434.2,36.6c0.3,2-0.1,4-0.9,5.8C434,40.6,434.4,38.6,434.2,36.6L434.2,36.6"/>
						<line class="st22" x1="433.3" y1="42.4" x2="433.3" y2="42.4"/>
						<line class="st22" x1="434" y1="34.5" x2="434" y2="34.5"/>
						<line class="st22" x1="434" y1="34.5" x2="434" y2="34.5"/>
						<path class="st15" d="M434,34.5c0.5,1.6,0.7,3.5,0.4,5.1c-0.3,2-1.1,3.9-2.2,5.5c-1,1.7-2.2,3.1-3.5,4.5
							c1.6-1.7,3-3.6,4.1-5.8c1.1-2.2,1.8-4.7,1.4-7.3c0-0.3,0-0.7-0.1-1C434.1,35.2,434.1,34.8,434,34.5"/>
						<line class="st22" x1="428.7" y1="49.6" x2="428.7" y2="49.6"/>
						<path class="st15" d="M434,34.5c0.5,1.7,0.7,3.5,0.4,5.1C434.7,38,434.5,36.1,434,34.5L434,34.5"/>
						<line class="st22" x1="434.4" y1="39.6" x2="434.4" y2="39.6"/>
						<line class="st22" x1="433.7" y1="33.5" x2="433.7" y2="33.5"/>
						<line class="st22" x1="433.7" y1="33.5" x2="433.7" y2="33.5"/>
						<path class="st15" d="M433.7,33.5c0.2,0.6,0.4,1.1,0.6,1.8c0.1,0.6,0.2,1.2,0.3,1.8c0.1,1.2,0,2.4-0.3,3.6
							c-0.6,2.3-1.7,4.3-3,6.1c1.5-2.1,2.7-4.5,3.1-7.2c0.3-1.7,0.2-3.5-0.4-5.1C433.9,34.2,433.8,33.8,433.7,33.5"/>
						<line class="st22" x1="431.2" y1="46.8" x2="431.2" y2="46.8"/>
						<line class="st22" x1="434" y1="36.6" x2="434" y2="36.6"/>
						<path class="st20" d="M434,36.6c0.3,2-0.1,4-0.8,5.8c-0.7,1.8-1.7,3.4-2.9,4.9c1.2-1.5,2.2-3.1,3-4.9c-1,2.5-2.6,4.8-4.4,6.8
							c-1.8,2.1-3.9,4-6.1,5.7c-4.3,3.5-9,6.5-13.4,9c4.7-2.8,9.2-5.8,13.4-9.2c1.8-1.5,3.5-3.1,5.1-4.8c1.6-1.7,3.1-3.6,4.2-5.7
							c1.1-2.1,1.9-4.5,1.7-7c0-0.6-0.2-1.2-0.3-1.8c-0.2-0.6-0.4-1.2-0.7-1.7c-0.5-1.1-1.3-2.1-2.1-3
							C432.4,32.2,433.6,34.3,434,36.6"/>
						<path class="st12" d="M434,36.6c0.3,2-0.1,4-0.8,5.8c-0.7,1.8-1.7,3.4-2.9,4.9c1.2-1.5,2.2-3.1,2.9-4.9
							C433.9,40.6,434.3,38.6,434,36.6"/>
						<line class="st22" x1="430.3" y1="47.3" x2="430.3" y2="47.3"/>
						<line class="st22" x1="433.3" y1="42.4" x2="433.3" y2="42.4"/>
						<line class="st22" x1="433.3" y1="42.4" x2="433.3" y2="42.4"/>
						<path class="st15" d="M427.1,27.7c1.5,1,2.9,2.1,4,3.5c1.2,1.4,2.1,3.1,2.4,4.9c0.4,1.8,0.1,3.7-0.5,5.5
							c-0.6,1.7-1.5,3.3-2.5,4.7c-2,2.8-4.5,5.1-6.9,7.1s-4.8,3.6-6.9,5c0.8-0.6,1.6-1.2,2.4-1.7c3.8-2.8,7.2-5.7,9.9-8.9
							c1.3-1.6,2.5-3.3,3.3-5.2c0.8-1.9,1.2-4,0.9-6c-0.3-2.1-1.3-4-2.7-5.5c-1.4-1.6-3.1-2.8-5-3.9c-3.7-2.2-8-3.7-12.7-4.9
							l-1.5-0.4c2.2,0.6,4.8,1.3,7.4,2.3s5.4,2.2,7.9,3.9c2.5,1.6,4.7,3.8,5.7,6.5c1,2.6,0.6,5.4-0.3,7.4c0.7-1.7,1-3.5,0.8-5.3
							c-0.2-1.8-1-3.4-2.1-4.8c-2.2-2.8-5.4-4.7-8.5-6.2c-6.4-2.9-13.2-4.5-20-5.7c4.2,0.7,8.5,1.5,12.6,2.6
							C419.3,23.9,423.4,25.4,427.1,27.7"/>
						<line class="st22" x1="432.3" y1="42.1" x2="432.3" y2="42.1"/>
						<line class="st22" x1="429.6" y1="46.8" x2="429.6" y2="46.8"/>
						<line class="st22" x1="429.6" y1="46.8" x2="429.6" y2="46.8"/>
						<path class="st15" d="M429.6,46.8c-2,2.5-4.4,4.7-6.9,6.7s-5.1,3.8-7.8,5.5c2.3-1.5,4.5-3,6.7-4.7
							C424.5,52,427.3,49.6,429.6,46.8"/>
						<polyline class="st15" points="392.4,71 389.9,72.1 389,72.4 392.4,71 						"/>
						<path class="st15" d="M407.1,63.6c-1.3,0.7-2.7,1.4-4,2.1c-3.5,1.8-7.1,3.5-10.7,5.2l-2.5,1.1
							C395.7,69.5,401.5,66.7,407.1,63.6 M403.1,65.8c-3.5,1.8-7.1,3.5-10.7,5.2C396,69.3,399.5,67.6,403.1,65.8"/>
						<line class="st22" x1="389.9" y1="72.1" x2="389.9" y2="72.1"/>
						<line class="st22" x1="421.6" y1="54.2" x2="421.6" y2="54.2"/>
						<line class="st22" x1="421.6" y1="54.2" x2="421.6" y2="54.2"/>
						<path class="st15" d="M421.6,54.2c-2.1,1.7-4.4,3.2-6.7,4.7c-3.8,2.5-7.8,4.7-11.9,6.8c-3.5,1.8-7.1,3.5-10.7,5.2l-3.3,1.5
							l0.8-0.3c-5.3,2.3-10.7,4.4-16.1,6.4c6.2-2.5,12.4-5.1,18.5-7.9C401.4,66.6,412.9,60.8,421.6,54.2"/>
						<path class="st6" d="M421.6,54.2c-2.1,1.7-4.4,3.2-6.7,4.7C417.2,57.5,419.5,55.9,421.6,54.2"/>
						<line class="st22" x1="414.9" y1="58.9" x2="414.9" y2="58.9"/>
						<line class="st22" x1="392.4" y1="71" x2="392.4" y2="71"/>
						<line class="st22" x1="392.4" y1="71" x2="392.4" y2="71"/>
						<polyline class="st6" points="392.4,71 389,72.4 392.4,71 						"/>
						<line class="st22" x1="389" y1="72.4" x2="389" y2="72.4"/>
						<path class="st6" d="M403.1,65.8c-3.5,1.8-7.1,3.5-10.7,5.2C396,69.3,399.5,67.6,403.1,65.8"/>
						<line class="st22" x1="389.9" y1="72.1" x2="389.9" y2="72.1"/>
						<line class="st22" x1="403.1" y1="65.8" x2="403.1" y2="65.8"/>
						<path class="st6" d="M403.1,65.8c-3.5,1.8-7.1,3.5-10.7,5.2C396,69.3,399.5,67.6,403.1,65.8"/>
						<line class="st22" x1="387.2" y1="72.7" x2="387.2" y2="72.7"/>
						<line class="st22" x1="387.2" y1="72.7" x2="387.2" y2="72.7"/>
						<path class="st15" d="M387.2,72.7c-9.2,4-17.8,7.2-24.7,9.6c6.9-2.5,13.6-5.2,20.3-8.2l-2.5,1.2
							C382.6,74.5,384.9,73.6,387.2,72.7"/>
						<line class="st22" x1="187.4" y1="127" x2="187.4" y2="127"/>
						<line class="st22" x1="187.4" y1="127" x2="187.4" y2="127"/>
						<polyline class="st15" points="187.4,127 179.2,127.6 181.9,127.3 187.4,127 						"/>
						<path class="st13" d="M163.4,47.8c17.9-4.5,32.4-7.3,44.2-9.1c-8.9,2.1-17.9,4.3-26.7,6.8c-14.4,3.8-28.6,8.1-39.2,11.5
							c-10.6,3.4-17.6,5.7-17.6,5.2c0-0.1,0.6-0.5,1.8-1.1C138.9,56,152,51.5,163.4,47.8"/>
						<line class="st22" x1="207.6" y1="38.7" x2="207.6" y2="38.7"/>
						<path class="st15" d="M64.6,96.1c0.9-1,1.8-2,2.7-2.9c-2.3,2.5-3.5,4.2-4.8,6.5c-0.6,1.2-1.3,2.6-1.8,4.7
							c-0.4,2-0.7,4.9,0.8,8.1c-0.1-0.2-0.3-0.6-0.5-1s-0.4-1.1-0.5-1.5c-0.3-1.3-0.5-2.8-0.2-4.4C60.6,102.3,62.5,98.9,64.6,96.1"
							/>
						<line class="st22" x1="93.6" y1="74.9" x2="93.6" y2="74.9"/>
						<path class="st18" d="M93.6,74.9c6.8-3.1,15.8-7.2,25.3-11L126,61c-1.2,0.6-1.8,1-1.8,1.1c0,0.5,7-1.9,17.6-5.2
							c10.6-3.4,24.9-7.6,39.2-11.5c-22,6-43.7,13-64.8,21.7c-7,2.9-14,6.1-20.7,9.5c-4.9,2.5-9.7,5.2-14.4,8.3
							c-4.6,3-9.1,6.4-13,10.4c-1.9,2-3.6,4.3-4.8,6.9c-0.6,1.3-1,2.7-1.1,4.2c-0.1,1.5,0,3,0.6,4.4c1,2.8,3.2,5,5.5,6.6
							c2.3,1.6,4.9,2.8,7.5,3.8c-0.8-0.4-1.7-0.8-2.5-1.3c-2.4-1.1-4.8-2.5-6.8-4.3c-1-0.9-1.9-2-2.6-3.2c-0.7-1.2-1.2-2.5-1.3-3.9
							c-0.3-2.7,0.5-5.4,1.8-7.6c1.3-2.3,3-4.3,4.8-6.1c1.1-1.2,2.3-2.2,3.5-3.3c3.7-3.1,7.6-5.7,11.5-8.2c4-2.4,8-4.6,11.9-6.6
							c8-4,15.8-7.4,23.2-10.3c-11.4,4.8-23,10.1-33.9,16.7c-3.6,2.2-7.2,4.5-10.5,7.1c-3.3,2.6-6.5,5.5-8.9,8.9
							c-1.8,2.5-3.3,5.5-3.1,8.7c0.1,1.6,0.5,3.1,1.3,4.5c0.8,1.3,1.9,2.5,3,3.5c2.4,2,5.1,3.4,7.9,4.6c2.8,1.2,5.7,2.1,8.5,2.8
							c5.7,1.5,11.4,2.5,17,3.2c5.5,0.7,10.9,1.2,16,1.5c7.4,0.5,18.4,0.6,29.5,0.3c-5.2,0.2-10.4,0.3-15.6,0.2l-1.9,0.2
							c7.1,0.2,14.1,0.2,21.2,0.1l-5.5,0.2c-6.8,0.2-13.5,0.2-20.3,0c-6.2-0.1-12.3-0.5-18.5-1c-3.8-0.4-7.6-0.8-11.4-1.4l0,0
							c-5.9-0.9-12-2.1-18-4.2c-3-1.1-6-2.4-8.8-4.4c-1.4-1-2.7-2.2-3.9-3.7c-0.6-0.7-1.1-1.6-1.4-2.5c-0.2-0.5-0.4-0.9-0.5-1.4
							c-0.1-0.3-0.1-0.5-0.2-0.7v-0.2v-0.2l-0.1-0.4l0.1,0.6l0.1,0.5c0.1,0.4,0.2,0.8,0.4,1.2c0.3,0.7,0.6,1.4,1,2.1
							c0.8,1.3,1.8,2.4,2.8,3.4c2.2,1.9,4.6,3.3,7.1,4.5c2.4,1.2,3.7,1.6,3.9,1.8c0.2,0.2-0.7-0.1-2.5-0.7c-1.7-0.6-4.3-1.7-7.1-3.5
							c-1.4-1-2.8-2.2-4.1-3.8c-0.6-0.8-1.2-1.7-1.7-2.7c-0.2-0.5-0.4-1-0.6-1.6l-0.1-0.5l-0.1-0.3v-0.2l-0.1-0.3l-0.1-0.4
							c-0.4-2.3,0-4.5,0.6-6.5c0.7-2,1.6-3.7,2.6-5.1c0.4-0.6,0.8-1.1,1.3-1.6c-2.1,2.8-4,6.1-4.4,9.5c-0.2,1.7-0.1,3.2,0.2,4.4
							c0.1,0.4,0.3,1.1,0.5,1.5c0.2,0.4,0.4,0.8,0.5,1c-1.5-3.2-1.2-6-0.8-8.1c0.5-2,1.2-3.5,1.8-4.7c1.3-2.4,2.5-4,4.8-6.5
							c1-0.9,2-1.7,3-2.4c3.4-2.9,7.1-5.4,10.8-7.6c-2.6,2,0.7-0.2,4.7-2.4c3.9-2.2,8.5-4.5,7.8-3.9c6.6-3.4,13.3-6.4,20.2-9.2
							c3.6-1.7,7.3-3.3,11-4.9c-7.8,2.8-15.8,6-21.6,8.5C97.1,73.7,93.3,75.4,93.6,74.9"/>
						<path class="st7" d="M124.1,62.2c0,0.5,7-1.9,17.6-5.2c10.6-3.4,24.9-7.6,39.2-11.5c-14.4,3.8-28.6,8.1-39.2,11.5
							C131.1,60.3,124.1,62.7,124.1,62.2"/>
						<path class="st9" d="M67.3,93.2c-2.3,2.5-3.5,4.2-4.8,6.5c-0.6,1.2-1.3,2.6-1.8,4.7c-0.4,2-0.7,4.9,0.8,8.1
							c-1.5-3.2-1.2-6-0.8-8.1c0.5-2.1,1.2-3.5,1.8-4.7C63.8,97.4,65,95.7,67.3,93.2"/>
						<line class="st22" x1="63.3" y1="97.7" x2="63.3" y2="97.7"/>
						<line class="st22" x1="67.3" y1="93.2" x2="67.3" y2="93.2"/>
						<line class="st22" x1="126" y1="61.1" x2="126" y2="61.1"/>
						<line class="st22" x1="149.7" y1="128.9" x2="149.7" y2="128.9"/>
						<line class="st22" x1="149.7" y1="128.9" x2="149.7" y2="128.9"/>
						<line class="st22" x1="162.6" y1="128.5" x2="162.6" y2="128.5"/>
						<path class="st15" d="M162.6,128.5c-4.3,0.2-8.6,0.3-12.9,0.4l-5.5,0.2c-6.8,0.2-13.5,0.2-20.3,0H123
							c5.8,0.2,11.7,0.2,17.5,0.2c-6.5,0.2-12.9,0.2-19.4,0c7.4,0.4,16.6,0.4,25.8,0C152.2,129.1,157.4,128.9,162.6,128.5
							 M151.5,129.1L151.5,129.1 M144.2,129.1c-6.8,0.2-13.5,0.2-20.3,0C130.6,129.3,137.4,129.3,144.2,129.1 M144.2,129.1
							L144.2,129.1"/>
						<line class="st22" x1="144.2" y1="129.1" x2="144.2" y2="129.1"/>
						<path class="st6" d="M144.2,129.1c-6.8,0.2-13.5,0.2-20.3,0C130.6,129.3,137.4,129.3,144.2,129.1"/>
						<path class="st15" d="M66.5,93.8l0.8-0.6c-0.9,0.9-1.8,1.9-2.7,2.9C65.2,95.3,65.9,94.6,66.5,93.8"/>
						<line class="st22" x1="67.3" y1="93.2" x2="67.3" y2="93.2"/>
						<line class="st22" x1="145.7" y1="58.8" x2="145.7" y2="58.8"/>
						<polyline class="st15" points="145.7,58.8 146.6,58.7 145.7,58.8 						"/>
						<path class="st23" d="M57.9,102.7c0.7-2,1.5-3.6,2.3-4.8c0.8-1.3,1.6-2.2,2.3-3.1c1.4-1.6,2.5-2.6,3.3-3.3
							c1.6-1.3,2-1.3,1.8-0.8c-0.4,0.9-2.6,4-1.2,3.2c-0.7,0.7-1.3,1.5-1.9,2.3c-0.4,0.5-0.8,1-1.3,1.6c-1,1.5-2,3.2-2.6,5.1
							c-0.7,2-1,4.2-0.6,6.5l0.1,0.4l0.1,0.3v0.2l0.1,0.3l0.1,0.5c0.2,0.6,0.4,1.1,0.6,1.6c0.5,1,1.1,1.9,1.7,2.7
							c1.3,1.6,2.7,2.8,4.1,3.8c2.8,1.9,5.3,2.9,7.1,3.5c1.7,0.6,2.7,0.8,2.5,0.7c-0.2-0.2-1.4-0.6-3.9-1.8
							c-2.5-1.2-4.9-2.5-7.1-4.5c-1.1-1-2.1-2.1-2.8-3.4c-0.4-0.7-0.7-1.3-1-2.1c-0.1-0.3-0.2-0.8-0.4-1.2l-0.1-0.5l-0.1-0.6
							l0.1,0.4v0.2v0.2c0,0.2,0.1,0.4,0.2,0.7c0.1,0.5,0.3,0.9,0.5,1.4c0.4,0.9,0.9,1.7,1.4,2.5c1.1,1.5,2.5,2.7,3.9,3.7
							c2.8,2,5.8,3.3,8.8,4.4c6,2.1,12,3.3,18,4.2c3.8,0.6,7.6,1,11.4,1.4c6.1,0.6,12.3,0.9,18.5,1h-0.9c-5.5-0.2-11.1-0.4-16.6-0.9
							c9.2,1.1,22.2,1.4,34.1,1.1c-6.5,0.2-12.9,0.2-19.4,0c7.4,0.4,16.6,0.4,25.8,0l-2.8,0.2c3.7,0.1,7.4,0.1,11.1,0
							c-7.1,0.3-14.2,0.4-21.2,0.3c-2.5,0.1-4.9,0.2-7.4,0.3c7.4,0.5,16.7,1,31.5,0.5c-9.7,0.4-18.3,0.4-27.8,0.2
							c-4.8-0.1-9.7-0.3-15.2-0.6c-5.5-0.4-11.4-0.8-18.2-1.7h-1.9c-1.8-0.3-3.7-0.7-5.5-1c3.2,0.8,8.3,1.7,13.3,2.4
							c5,0.6,9.9,1.1,12.6,1.4c-5.6-0.4-11.2-0.9-16.7-1.7c0.5,0.2,2.8,0.6,5.3,1l6.7,0.9c-6.9-0.6-10.8-1.4-15-2.2
							c-2.1-0.4-4.3-0.9-6.9-1.5c-2.6-0.6-5.8-1.3-9.7-2.5l-0.7-0.2l-1.1-0.4c-3.5-1.2-6.6-2.5-9.2-4.1c-2.6-1.5-4.7-3.3-6.1-5.3
							c-0.7-1-1.3-2-1.7-2.9c-0.2-0.5-0.4-0.9-0.5-1.5l-0.2-0.6v-0.1v-0.1v-0.2l-0.1-0.3c-0.3-1.6-0.3-2.7-0.4-3.4
							c0-0.7,0-1-0.2-0.9c-0.1,0.1-0.3,0.6-0.4,1.5c-0.1,0.9-0.2,2.2,0,3.8c0.3,1.6,0.9,3.5,2.1,5.3c-1.5-2.1-2.5-5-2.6-7.8
							c-0.1-1.9,0.1-3.3,0.3-4.3c0.2-1,0.4-1.6,0.5-2c0.2-0.8,0.1-0.7-0.1-0.2C58.2,102.4,57.5,104.6,57.9,102.7"/>
						<path class="st14" d="M76.4,123.2c-0.2-0.2-1.4-0.6-3.9-1.8c-2.5-1.2-4.9-2.5-7.1-4.5c-1.1-1-2.1-2.1-2.8-3.4
							c-0.4-0.7-0.7-1.4-1-2.1c-0.1-0.4-0.2-0.8-0.4-1.2l-0.1-0.5l-0.1-0.6l0.1,0.6l0.1,0.5c0.1,0.4,0.2,0.8,0.4,1.2
							c0.3,0.7,0.6,1.4,1,2.1c0.8,1.3,1.8,2.4,2.8,3.4c2.1,1.9,4.6,3.3,7.1,4.5C75,122.6,76.2,123,76.4,123.2"/>
						<path class="st14" d="M61.1,109.1l0.1,0.4v0.2v0.2c0,0.2,0.1,0.4,0.2,0.7c0.1,0.5,0.3,1,0.5,1.4c0.4,0.9,0.9,1.7,1.4,2.5
							c1.1,1.5,2.5,2.7,3.9,3.7c2.8,2,5.8,3.3,8.8,4.4c6,2.1,12,3.3,18,4.2c-5.9-0.9-12-2.1-18-4.2c-3-1.1-6-2.4-8.8-4.4
							c-1.4-1-2.7-2.2-3.9-3.7c-0.6-0.7-1.1-1.6-1.4-2.5c-0.2-0.5-0.4-0.9-0.5-1.4c-0.1-0.3-0.1-0.5-0.2-0.7v-0.2v-0.2L61.1,109.1"
							/>
						<path class="st10" d="M140.5,129.3c-6.5,0.2-12.9,0.2-19.4,0C127.6,129.5,134,129.5,140.5,129.3"/>
						<line class="st22" x1="121.1" y1="129.3" x2="121.1" y2="129.3"/>
						<polyline class="st10" points="122.9,129.1 123.9,129.1 122.9,129.1 						"/>
						<line class="st22" x1="60.5" y1="115.9" x2="60.5" y2="115.9"/>
						<line class="st22" x1="110.8" y1="131.3" x2="110.8" y2="131.3"/>
						<line class="st22" x1="158.1" y1="130.7" x2="158.1" y2="130.7"/>
						<line class="st22" x1="115.4" y1="131.3" x2="115.4" y2="131.3"/>
						<line class="st22" x1="78.4" y1="125" x2="78.4" y2="125"/>
						<line class="st22" x1="95.1" y1="128.5" x2="95.1" y2="128.5"/>
						<line class="st22" x1="155.3" y1="129.6" x2="155.3" y2="129.6"/>
						<line class="st22" x1="140.5" y1="129.3" x2="140.5" y2="129.3"/>
						<line class="st22" x1="122.9" y1="129.1" x2="122.9" y2="129.1"/>
						<line class="st22" x1="176.3" y1="126.5" x2="176.3" y2="126.5"/>
						<path class="st23" d="M176.3,126.5l3.6-0.4l4.6-0.6L179,126l5.5-0.5l0.9-0.3c-4.3,0.3-8.6,0.7-12.8,0.9l7.3-0.6
							c-3.7,0.3-7.3,0.5-11,0.7c4.6-0.3,9.2-0.7,13.7-1.1V125l-4.6,0.3c-11,0.9-22.9,1.7-33,1.9c4.7-0.2,9.4-0.5,14.1-0.8
							c10-0.6,20.2-1.5,30.7-2.6l3.6-0.5c-13.7,1.5-29.3,2.7-39.4,2.8l3-0.2c9.5-0.6,17.5-1.1,25.6-1.8c8.1-0.7,16.1-1.5,25.7-2.9
							l1.5-0.2c-9.1,1.1-23.7,2.6-32.9,3.2c14.6-1.2,28.3-2.6,42-4.4l1.8-0.3c18.2-2.7,34.4-5.7,50.6-9c-6.9,1.4-13.8,2.7-20.8,3.9
							c6.9-1.2,13.9-2.5,20.8-3.9C297.4,105,321.5,99,346,91.2c-6.5,2-13,3.8-19.5,5.5c12.3-3.9,26.3-8.4,37.4-12.6
							c-18.2,6.5-34.1,11-51.8,15.8c17.7-4.7,33.6-9.3,51.8-15.8l3.4-1.3c-7.4,2.6-15.9,5.4-24.4,8c-8.5,2.6-17.2,5.1-24.7,7
							c10.6-2.9,19.5-5.3,31.7-9.4l-3.5,1.1l-5.2,1.7l5.2-1.7c11.3-3.7,20.9-7,30.3-10.7c10.1-4.5,21.7-10,32.7-16.6
							c1.8-1.1,3.6-2.2,5.4-3.4c-3.8,2.5-7.8,4.7-11.9,6.8c1.3-0.7,2.7-1.4,4-2.1c-5.6,3.1-11.4,5.9-17.2,8.4
							c-5.3,2.3-10.7,4.4-16.1,6.4c6.2-2.5,12.4-5.1,18.5-7.9c-1.7,0.7-3.4,1.4-5,2.1c-9.2,4-17.8,7.2-24.7,9.6
							c6.9-2.5,13.6-5.2,20.3-8.2c3.9-1.8,7.7-3.7,11.5-5.6l-1.8,0.4c-7.1,3-18.7,7.8-33,13l-2.6,0.9l1,0.1l-4.4,1.3
							c-2.6,1-5.1,2-7.7,2.9l-7.8,2.5c-4.3,1.6-9.9,3.4-16.1,5.2c-6.2,1.8-12.8,3.5-19,5.1l5.3-1.3c-2.8,0.9-6.2,1.9-9.8,2.8
							c-5.4,1.4-11.2,2.6-16,3.7c-3.6,0.7-7.1,1.5-10.7,2.1l-1,0.2l0.4-0.1l-0.4,0.1c-5.1,1.1-10.2,2.1-15.2,3.1l-8.1,1.4l-4.5,0.7
							l4.5-0.7l5.4-1l-4.5,0.7l9-1.6c-6,1.1-12,2.1-18,3.1l-6.3,1l1.8-0.3l-8.1,1.2c-5.7,0.8-11.5,1.6-17.2,2.3
							c-3.9,0.6-7.8,1.1-11.8,1.6c3.3-0.5,6.6-0.9,10-1.4l5.4-0.8c-6,0.8-12.1,1.6-18.1,2.3l0.9-0.2c-7.3,0.8-16.3,1.7-25.4,2.5
							l-0.9,0.1c-5.1,0.5-10.3,0.8-15.4,1.2c4.5-0.3,9.1-0.7,13.6-1.1l-0.9-0.2c-8.7,0.7-18.1,1.3-27.5,1.6c-2.3,0.1-4.6,0.1-7,0.1
							h1.8c-4.5,0-9.1,0-13.6-0.1c-7.7-0.1-15.1-0.5-22.3-1.3c2,0.3,4,0.6,6,0.9c-2-0.2-4-0.5-6-0.9c-6.4-0.7-12.6-1.8-18.2-3.4
							c-2.8-0.8-5.4-1.8-7.7-3.1c-2.3-1.2-4.1-2.8-5.1-4.4c-0.2-0.4-0.4-0.8-0.6-1.2v-0.1l0,0v-0.1l-0.1-0.2v-0.1c0,0,0-0.1,0,0.1
							l0,0l0,0l0,0c0-0.2-0.1-0.4-0.1-0.6c-0.1-0.9,0-1.8,0.3-2.8c0.5-1.9,1.7-3.9,3.1-5.7c2.8-3.6,6.3-6.6,9.6-9.2
							c-2.5,1.9-4.9,3.8-7.1,5.9c-2.1,2.1-4,4.4-5.2,6.7c-1.2,2.4-1.6,4.7-0.9,6.5c0.6,1.9,2.3,3.6,4.3,4.9c3,2,6.7,3.4,10.4,4.5
							c3.8,1.1,7.8,1.9,11.8,2.5c8.1,1.3,16.4,1.9,24.9,2.2l5.6,0.2c-6.4,0-12.7-0.2-19-0.6l0.9,0.1c-1.5-0.1-3-0.2-4.5-0.3l3.6,0.2
							c-7.2-0.7-13.9-1.6-20.1-3.2c-3.1-0.8-6.1-1.7-8.8-2.8c-2.7-1.2-5.3-2.6-7.1-4.4c-1.8-1.8-2.7-3.9-2.5-6.2
							c0.2-2.3,1.6-4.8,3.3-7.1c3.6-4.5,8.6-8.4,14-11.9c-1.2,0.8-2.4,1.7-3.6,2.6c6.1-4.5,12.8-8.3,19.7-11.8
							c6.9-3.5,13.9-6.7,21.1-9.7c5.3-2.4,10.6-4.7,16-6.9c-4.6,1.6-9.2,3.4-13.7,5.2c2.5-1.1,5.1-2.1,7.6-3.1
							c1.1-0.5,5.5-2.2,5.9-2.4c0.3-0.1-1.1,0.3-6.1,2.1c-2.5,0.9-5.8,2.2-10.3,4c-4.4,1.8-10,4.1-16.7,7.3
							c-4.7,2.2-9.3,4.6-13.8,7.2c7.5-4.4,14.9-8,21.9-11.2c7-3.2,13.5-6,19.5-8.4c-3.8,1.3-7.5,2.7-11.2,4.1
							c-11.3,4.8-23,10.1-33.9,16.7c-3.6,2.2-7.2,4.5-10.5,7.1c-3.3,2.6-6.5,5.5-8.9,8.9c-1.8,2.5-3.3,5.5-3.1,8.7
							c0.1,1.6,0.5,3.1,1.3,4.5c0.8,1.4,1.9,2.5,3,3.5c2.4,2,5.1,3.4,7.9,4.6c2.8,1.2,5.7,2.1,8.5,2.8c5.7,1.5,11.4,2.4,17,3.2
							c5.5,0.7,10.9,1.2,16,1.5c7.4,0.5,18.4,0.6,29.5,0.3l1.8-0.1l-5.5,0.1c2.8,0,5.5-0.1,8.3-0.2c-4.3,0.1-8.6,0.1-12.9,0
							c5.5,0,11-0.1,16.6-0.2l2.8-0.2c-4.6,0.2-9.2,0.3-13.8,0.4c5.2-0.1,10.4-0.2,15.6-0.5l3.7-0.4
							C167.1,127,171.7,126.8,176.3,126.5 M346.8,90.2L346.8,90.2 M346.8,90.2L346.8,90.2 M305.2,101.8c13.4-3.3,25-6.2,41.6-11.6
							C330.2,95.6,318.6,98.5,305.2,101.8l-5.3,1.3l-3.6,0.9l3.6-0.9L305.2,101.8l-0.9,0.3c-4.8,1.2-9.5,2.4-14.3,3.5
							c4.8-1.1,9.5-2.3,14.3-3.5L305.2,101.8 M263.3,112.1L263.3,112.1 M263.3,112.1L263.3,112.1 M230.7,117.8
							c12.7-2.1,20.9-3.2,32.6-5.6C251.6,114.5,243.4,115.6,230.7,117.8 M249.8,114.8L249.8,114.8 M249.8,114.8L249.8,114.8
							 M219.9,119.5l-0.9,0.1l-9.1,1.3l9.1-1.3L219.9,119.5c10.9-1.6,19.1-2.8,29.9-4.7C238.9,116.7,230.8,117.9,219.9,119.5
							 M250.7,114.4L250.7,114.4 M295.5,104.4l-5.3,1.4L295.5,104.4 M222.6,119.1L222.6,119.1 M230.7,117.8L230.7,117.8
							 M219.9,119.5L219.9,119.5 M312.3,99.9L312.3,99.9 M290.1,105.6L290.1,105.6 M407.1,63.6L407.1,63.6 M70.2,96.1
							c2.7-2.8,5.8-5.3,8.9-7.6c3.2-2.3,6.5-4.4,10-6.4c-3.4,2-6.8,4.1-10,6.4C75.9,90.8,72.9,93.3,70.2,96.1 M70.2,96.1
							c2.7-2.8,5.8-5.3,8.9-7.6c3.2-2.3,6.5-4.4,10-6.4c-3.4,2-6.8,4.1-10,6.4C75.9,90.8,72.9,93.3,70.2,96.1 M70.2,96.1
							c-0.8,0.8-1.6,1.7-2.3,2.7c-0.7,0.9-1.4,1.9-1.9,2.9c-0.6,1-1,2-1.4,3.1c-0.3,1-0.4,2-0.4,3v0.3c0,0.2,0,0.5,0.1,0.7
							c0,0.1,0,0.3,0.1,0.3l0.1,0.4c0.1,0.4,0.3,0.9,0.5,1.4c0.5,1,1.1,1.8,1.9,2.6c0.8,0.8,1.6,1.5,2.6,2.2s2,1.2,3,1.7
							c1.1,0.5,2.1,1,3.2,1.4c0.8,0.3,1.7,0.6,2.5,0.9c1.1,0.4,2.3,0.7,3.4,1c1.2,0.3,2.3,0.6,3.5,0.9c1.2,0.3,2.4,0.5,3.5,0.7
							l2.7,0.5c1.2,0.2,2.4,0.4,3.6,0.5l2.7,0.3c-6.9-0.9-13.3-2-19.1-3.9c-2.9-0.9-5.7-2.1-8.1-3.5c-2.4-1.5-4.5-3.4-5.5-5.7
							c-0.1-0.2-0.1-0.3-0.2-0.5c-0.1-0.2-0.1-0.3-0.2-0.5l-0.1-0.4l-0.1-0.4c-0.2-1.2-0.1-2.5,0.3-3.8c0.1-0.3,0.2-0.6,0.3-0.9
							c0.4-1,0.9-2.1,1.5-3c0.3-0.5,0.7-1.1,1.1-1.6C68.3,98.2,69.2,97.1,70.2,96.1 M122.3,66.9l-4.5,1.8l-3.1,1.3l-3.4,1.5L108,73
							l-4.1,1.9l-2,1c-1.8,0.9-3.5,1.8-5.3,2.7h-0.1l-3.2,1.7l3.2-1.7l-3.2,1.7l3.2-1.7l0,0l-3.2,1.8c1.3-0.7,2.7-1.5,4.2-2.2
							l2.3-1.2l4.1-2l1.3-0.6l3.9-1.8l2.3-1l2.4-1.1C116.7,69.3,119.6,68,122.3,66.9 M122.3,66.9L122.3,66.9 M361.3,81.8L361.3,81.8
							 M357.8,82.9L357.8,82.9l3.5-1.1L357.8,82.9"/>
						<path class="st19" d="M70.2,96.1c-1.6,1.7-3.1,3.5-4.2,5.5s-1.9,4.1-1.8,6.2c0-1,0.1-2,0.4-3c0.3-1.1,0.8-2.1,1.4-3.1
							s1.2-2,1.9-2.9C68.6,97.8,69.4,96.9,70.2,96.1"/>
						<path class="st19" d="M67.5,99.3c-0.4,0.5-0.8,1.1-1.1,1.6c-0.6,1-1.1,2-1.5,3c-0.1,0.3-0.2,0.6-0.3,0.9
							C65.1,102.9,66.2,101,67.5,99.3"/>
						<path class="st19" d="M64.2,108c0.2,3.1,2.4,5.8,5.2,7.6c2.8,1.9,6,3.2,9.2,4.2c6.4,2,13,3,19,3.7l-2.7-0.3
							c-1.2-0.2-2.4-0.3-3.6-0.5l-2.7-0.5c-1.2-0.2-2.4-0.5-3.5-0.7s-2.3-0.5-3.5-0.9c-1.2-0.3-2.3-0.6-3.4-1
							c-0.9-0.3-1.7-0.6-2.5-0.9c-1.1-0.4-2.2-0.9-3.2-1.4c-1.1-0.5-2.1-1.1-3-1.7c-0.9-0.6-1.8-1.4-2.6-2.2
							c-0.8-0.8-1.4-1.7-1.9-2.6c-0.2-0.4-0.4-0.9-0.5-1.4l-0.1-0.4c0-0.1,0-0.2-0.1-0.3C64.2,108.5,64.2,108.3,64.2,108"/>
						<path class="st19" d="M64.3,108.6l0.1,0.4l0.1,0.4c0.1,0.2,0.1,0.3,0.2,0.5c0.1,0.2,0.1,0.3,0.2,0.5c-0.1-0.3-0.2-0.6-0.3-0.9
							c0-0.1-0.1-0.4-0.1-0.5L64.3,108.6"/>
						<polyline class="st16" points="270.7,107.3 271.1,107.2 271.7,107.1 270.7,107.3 						"/>
						<line class="st22" x1="104.1" y1="122.1" x2="104.1" y2="122.1"/>
						<path class="st10" d="M104.1,122.1c-2-0.2-4-0.5-6-0.9C100.1,121.6,102.1,121.9,104.1,122.1"/>
						<line class="st22" x1="407.1" y1="63.6" x2="407.1" y2="63.6"/>
						<line class="st22" x1="407.1" y1="63.6" x2="407.1" y2="63.6"/>
						<path class="st10" d="M407.1,63.6c-1.3,0.7-2.7,1.4-4,2.1C404.4,65.1,405.8,64.4,407.1,63.6"/>
						<path class="st10" d="M392.2,70.6c-6.1,2.8-12.2,5.4-18.5,7.9C380,76,386.1,73.4,392.2,70.6"/>
						<line class="st22" x1="373.7" y1="78.5" x2="373.7" y2="78.5"/>
						<path class="st10" d="M362.4,82.3c6.9-2.5,13.6-5.2,20.3-8.2C376.1,77,369.3,79.7,362.4,82.3"/>
						<path class="st11" d="M70.2,96.1c-0.8,0.8-1.6,1.7-2.3,2.7c-0.7,0.9-1.4,1.9-1.9,2.9c-0.6,1-1,2-1.4,3.1c-0.3,1-0.4,2-0.4,3
							c0-1,0.1-2,0.4-3c0.3-1.1,0.8-2.1,1.4-3.1s1.2-2,1.9-2.9C68.6,97.8,69.4,96.9,70.2,96.1"/>
						<path class="st11" d="M67.5,99.3c-0.4,0.5-0.8,1.1-1.1,1.6c-0.6,1-1.1,2-1.5,3c-0.1,0.3-0.2,0.6-0.3,0.9
							c0.1-0.3,0.2-0.6,0.3-0.9c0.4-1,0.9-2.1,1.5-3C66.7,100.3,67.1,99.8,67.5,99.3"/>
						<path class="st11" d="M64.2,108c0,0.2,0,0.5,0.1,0.7c0,0.1,0,0.3,0.1,0.3l0.1,0.4c0.1,0.4,0.3,0.9,0.5,1.4
							c0.5,1,1.1,1.8,1.9,2.6c0.8,0.8,1.6,1.5,2.6,2.2c1,0.7,2,1.2,3,1.7c1.1,0.5,2.1,1,3.2,1.4c0.8,0.3,1.7,0.6,2.5,0.9
							c1.1,0.4,2.3,0.7,3.4,1c1.2,0.3,2.3,0.6,3.5,0.9c1.2,0.3,2.4,0.5,3.5,0.7l2.7,0.5c1.2,0.2,2.4,0.4,3.6,0.5l2.7,0.3l-2.7-0.3
							c-1.2-0.2-2.4-0.3-3.6-0.5l-2.7-0.5c-1.2-0.2-2.4-0.5-3.5-0.7c-1.2-0.3-2.3-0.5-3.5-0.9c-1.2-0.3-2.3-0.6-3.4-1
							c-0.9-0.3-1.7-0.6-2.5-0.9c-1.1-0.4-2.2-0.9-3.2-1.4s-2.1-1.1-3-1.7c-0.9-0.6-1.8-1.4-2.6-2.2c-0.8-0.8-1.4-1.7-1.9-2.6
							c-0.2-0.4-0.4-0.9-0.5-1.4l-0.1-0.4c0-0.1,0-0.2-0.1-0.3C64.2,108.5,64.2,108.3,64.2,108"/>
						<path class="st11" d="M64.3,108.6l0.1,0.4l0.1,0.4c0.1,0.2,0.1,0.3,0.2,0.5c0.1,0.2,0.1,0.3,0.2,0.5c-0.1-0.2-0.1-0.3-0.2-0.5
							c-0.1-0.2-0.1-0.3-0.2-0.5l-0.1-0.4L64.3,108.6"/>
						<path class="st11" d="M89.1,82.1c-3.4,2-6.8,4.1-10,6.4c-3.2,2.3-6.3,4.8-8.9,7.6c2.7-2.8,5.8-5.3,8.9-7.6
							C82.3,86.2,85.7,84.1,89.1,82.1"/>
						<path class="st11" d="M89.1,82.1c-3.4,2-6.8,4.1-10,6.4c-3.2,2.3-6.3,4.8-8.9,7.6c2.7-2.8,5.8-5.3,8.9-7.6
							C82.3,86.2,85.7,84.1,89.1,82.1"/>
						<line class="st22" x1="146" y1="128.3" x2="146" y2="128.3"/>
						<path class="st14" d="M146,128.3c-11,0.4-22.1,0.2-29.5-0.3c-5.1-0.3-10.5-0.8-16-1.5s-11.2-1.7-17-3.2
							c-2.9-0.8-5.7-1.7-8.5-2.8c-2.8-1.2-5.5-2.6-7.9-4.6c-1.2-1-2.2-2.2-3-3.5c-0.8-1.3-1.3-2.9-1.3-4.5c-0.1-3.2,1.3-6.2,3.1-8.7
							c-1.8,2.5-3.3,5.5-3.1,8.7c0.1,1.6,0.5,3.1,1.3,4.5c0.8,1.4,1.9,2.5,3,3.5c2.4,2,5.1,3.4,7.9,4.6s5.7,2.1,8.5,2.8
							c5.7,1.5,11.4,2.5,17,3.2c5.5,0.7,10.9,1.2,16,1.5C123.9,128.6,134.9,128.7,146,128.3"/>
						<path class="st14" d="M119.2,66.6c-11.3,4.8-23,10.1-33.9,16.7C96.3,76.7,107.9,71.3,119.2,66.6"/>
						<line class="st22" x1="147.8" y1="128.3" x2="147.8" y2="128.3"/>
						<line class="st22" x1="147.8" y1="128.3" x2="147.8" y2="128.3"/>
						<line class="st22" x1="150.6" y1="128.1" x2="150.6" y2="128.1"/>
						<line class="st22" x1="154.2" y1="127.9" x2="154.2" y2="127.9"/>
						<line class="st22" x1="184.5" y1="125.4" x2="184.5" y2="125.4"/>
						<line class="st22" x1="346.2" y1="91.3" x2="346.2" y2="91.3"/>
						<line class="st22" x1="158.8" y1="127.5" x2="158.8" y2="127.5"/>
						<line class="st22" x1="179.9" y1="125.5" x2="179.9" y2="125.5"/>
						<line class="st22" x1="182.6" y1="125.1" x2="182.6" y2="125.1"/>
						<line class="st22" x1="271.4" y1="110.6" x2="271.4" y2="110.6"/>
						<line class="st22" x1="364.1" y1="84.2" x2="364.1" y2="84.2"/>
						<line class="st22" x1="189.9" y1="123.8" x2="189.9" y2="123.8"/>
						<line class="st22" x1="119.2" y1="66.6" x2="119.2" y2="66.6"/>
						<line class="st22" x1="376.8" y1="78.9" x2="376.8" y2="78.9"/>
						<line class="st22" x1="208.4" y1="121.3" x2="208.4" y2="121.3"/>
						<line class="st22" x1="304.3" y1="102.1" x2="304.3" y2="102.1"/>
						<line class="st22" x1="350.1" y1="88.5" x2="350.1" y2="88.5"/>
						<line class="st22" x1="403.1" y1="65.8" x2="403.1" y2="65.8"/>
						<line class="st22" x1="102.8" y1="74.9" x2="102.8" y2="74.9"/>
						<path class="st19" d="M111.4,71.5l3.4-1.5c-4.2,1.8-8.5,3.8-12.8,5.9l2-1l4-1.9L111.4,71.5"/>
						<polyline class="st19" points="113.8,70.5 111.4,71.6 109.1,72.6 113.8,70.5 						"/>
						<path class="st19" d="M105.2,74.4l-1.3,0.6l-4.1,2l-2.3,1.2C100,76.9,102.5,75.6,105.2,74.4"/>
						<line class="st22" x1="392.2" y1="70.6" x2="392.2" y2="70.6"/>
						<polyline class="st19" points="96.6,78.6 96.6,78.7 96.6,78.7 96.6,78.6 						"/>
						<line class="st22" x1="79.3" y1="90.2" x2="79.3" y2="90.2"/>
						<line class="st22" x1="302.8" y1="99.8" x2="302.8" y2="99.8"/>
						<line class="st22" x1="252.8" y1="110.8" x2="252.8" y2="110.8"/>
						<line class="st22" x1="257.2" y1="109.9" x2="257.2" y2="109.9"/>
						<line class="st22" x1="132.1" y1="122.6" x2="132.1" y2="122.6"/>
						<polyline class="st15" points="143.1,59.6 141.3,60.3 143.1,59.6 						"/>
						<path class="st13" d="M136,61.8c21.6-7.6,42.8-13.5,65-18.9c-4.4,1.2-8.8,2.5-13.2,3.8l1.8-0.5c-3,0.8-6.7,1.8-10.8,2.9
							l-6.3,1.8c-6.5,1.9-13.3,4-18.9,5.7l-7,2.1l0,0l-0.9,0.1l5.2-1.9c-2.6,0.9-5.2,1.8-7.8,2.8l-1.7,0.6
							c-7.2,2.6-14.3,5.4-21.3,8.4C125.3,66.3,130.7,64,136,61.8"/>
						<path class="st8" d="M178.9,49c4.1-1.1,7.8-2.1,10.8-2.9C186.7,46.9,183,47.9,178.9,49l-6.3,1.8L178.9,49"/>
						<polyline class="st8" points="189.6,46.1 187.9,46.6 189.6,46.1 						"/>
						<polyline class="st4" points="145.7,58.8 146.6,58.6 146.6,58.7 145.7,58.8 						"/>
						<path class="st8" d="M136,61.8c-5.4,2.2-10.7,4.5-16,6.9C125.3,66.3,130.7,64,136,61.8"/>
						<path class="st13" d="M139.1,58.8c13-4.6,29.6-9.5,43.7-13.2c-5.7,1.8-13.6,4.3-21.9,7.1c-8.4,2.8-17.2,6-24.9,9
							c-4.6,1.6-9.2,3.4-13.7,5.2c2.5-1.1,5.1-2.1,7.6-3.1c1.1-0.5,5.5-2.2,5.9-2.4c0.3-0.1-1.1,0.3-6.1,2.1
							c-2.5,0.9-5.8,2.2-10.3,4c-4.4,1.8-10,4.1-16.7,7.3C98,77,93.4,79.4,88.9,82c7.5-4.4,14.9-8,21.9-11.2c7-3.2,13.5-6,19.5-8.4
							c-3.8,1.3-7.5,2.7-11.2,4.1c2.3-0.9,4.5-1.9,6.8-2.8c2.7-1.1,5.9-2.3,9.5-3.6L139.1,58.8"/>
						<path class="st8" d="M130.4,62.4c-5.9,2.4-12.5,5.2-19.5,8.4C103.9,74,96.5,77.6,89,82c7.5-4.4,14.9-8,21.9-11.2
							C117.9,67.6,124.5,64.9,130.4,62.4"/>
						<path class="st8" d="M135.9,61.4c-0.4,0.2-4.8,1.9-5.9,2.4c-2.6,1-5.1,2-7.6,3.1c2.5-1.1,5.1-2.1,7.6-3.1
							C131.1,63.3,135.5,61.6,135.9,61.4"/>
						<line class="st22" x1="95.4" y1="76.7" x2="95.4" y2="76.7"/>
						<path class="st17" d="M95.4,76.7c6.8-3.5,13.7-6.6,20.7-9.5c21.1-8.7,42.8-15.7,64.8-21.7c6.7-1.8,13.3-3.5,20-5.1l6.7-1.6
							c7.3-1.1,13.7-1.8,18.3-2.1c-8.3,2-16.6,4.1-24.9,6.3c-22.2,5.4-43.5,11.3-65,18.9c7.7-3,16.5-6.2,24.9-9
							c8.4-2.8,16.2-5.3,21.9-7.1c-14.1,3.6-30.8,8.6-43.7,13.2l0,0l-3.7,1.3c-3.6,1.3-6.8,2.5-9.4,3.6c-2.3,0.9-4.5,1.8-6.8,2.8
							C111.8,69.6,104,72.9,96,77c-4,2-8,4.2-12,6.6c-3.9,2.4-7.9,5.1-11.5,8.2c-1.2,1-2.4,2.1-3.5,3.2c-1.8,1.8-3.5,3.8-4.8,6.1
							c-1.3,2.3-2.1,4.9-1.8,7.6c0.2,1.4,0.6,2.7,1.3,3.9c0.7,1.2,1.6,2.2,2.6,3.1c2,1.8,4.4,3.2,6.8,4.3c0.8,0.5,1.6,0.9,2.5,1.3
							c-2.6-1-5.2-2.2-7.5-3.8c-2.3-1.6-4.5-3.8-5.5-6.6c-0.5-1.4-0.7-2.9-0.6-4.4s0.6-2.9,1.1-4.2c1.2-2.6,2.9-4.9,4.8-6.9
							C72,91.3,76.4,88,81,85C85.7,82,90.5,79.2,95.4,76.7"/>
						<line class="st22" x1="180.9" y1="45.5" x2="180.9" y2="45.5"/>
						<line class="st22" x1="207.6" y1="38.7" x2="207.6" y2="38.7"/>
						<line class="st22" x1="207.6" y1="38.7" x2="207.6" y2="38.7"/>
						<path class="st10" d="M95.4,76.7c-4.9,2.5-9.7,5.2-14.4,8.3c-4.6,3-9.1,6.4-13,10.4c-1.9,2-3.6,4.3-4.8,6.9
							c-0.6,1.3-1,2.7-1.1,4.2s0,3,0.6,4.4c1,2.8,3.2,5,5.5,6.6c2.3,1.6,4.9,2.8,7.5,3.8c-2.6-1-5.2-2.2-7.5-3.8
							c-2.3-1.6-4.5-3.8-5.5-6.6c-0.5-1.4-0.7-2.9-0.6-4.4s0.6-2.9,1.1-4.2c1.2-2.6,2.9-4.9,4.8-6.9c3.9-4.1,8.3-7.4,13-10.4
							S90.5,79.2,95.4,76.7"/>
						<path class="st10" d="M116.1,67.2c21.1-8.7,42.8-15.7,64.8-21.7C159,51.5,137.2,58.4,116.1,67.2"/>
						<path class="st10" d="M62.5,108.6c-0.3-2.7,0.5-5.3,1.8-7.6c1.3-2.3,3-4.3,4.8-6.1c1.1-1.1,2.3-2.2,3.5-3.2
							c3.6-3.1,7.6-5.7,11.5-8.2c4-2.4,8-4.6,12-6.6c-4,2-8,4.2-12,6.6c-3.9,2.4-7.9,5.1-11.5,8.2c-1.2,1-2.4,2.1-3.5,3.3
							c-1.8,1.8-3.5,3.8-4.8,6.1C63,103.3,62.1,106,62.5,108.6"/>
						<line class="st22" x1="180.9" y1="45.5" x2="180.9" y2="45.5"/>
						<line class="st22" x1="180.9" y1="45.5" x2="180.9" y2="45.5"/>
						<line class="st22" x1="72.6" y1="91.6" x2="72.6" y2="91.6"/>
						<polyline class="st5" points="139.1,58.8 139.1,58.8 135.5,60.2 139.1,58.8 						"/>
						<path class="st5" d="M182.9,45.6c-5.7,1.8-13.6,4.3-21.9,7.1c-8.4,2.8-17.2,6-24.9,9c7.7-3,16.5-6.2,24.9-9
							C169.3,50,177.2,47.5,182.9,45.6"/>
						<line class="st22" x1="207.6" y1="38.7" x2="207.6" y2="38.7"/>
						<line class="st22" x1="180.9" y1="45.5" x2="180.9" y2="45.5"/>
						<line class="st22" x1="180.9" y1="45.5" x2="180.9" y2="45.5"/>
						<path class="st15" d="M180.9,45.5c8.9-2.4,17.8-4.7,26.7-6.8l-6.7,1.6C194.2,42,187.6,43.7,180.9,45.5"/>
						<line class="st22" x1="207.6" y1="38.7" x2="207.6" y2="38.7"/>
						<path class="st4" d="M180.9,45.5c8.9-2.4,17.8-4.7,26.7-6.8C198.7,40.8,189.8,43.1,180.9,45.5"/>
					</g>
				</g>
			</g>
		</g>
		<path class="st2" d="M106.2,121.3c0.9,7.1-4.2,13.7-11.3,14.5c-7.1,0.9-13.6-4.2-14.5-11.3s4.2-13.7,11.3-14.5
			C98.8,109.1,105.3,114.2,106.2,121.3z"/>
		<g>
			<path class="st2" d="M318.7,37.7c-3.7-0.2-6.6-3.3-6.5-7c0.1-3.7,3.3-6.7,7-6.5c3.7,0.1,6.6,3.3,6.5,7
				C325.6,34.9,322.4,37.8,318.7,37.7z"/>
			<path class="st2" d="M313.3,18.6c6.8-2.8,14.5,0.1,17.7,6.6l0,0c0.1,0.3,0.3,0.6,0.4,0.9l0,0l-1.9,0.7c-0.1-0.2-0.2-0.5-0.3-0.7
				l0,0c-2.7-5.5-9.3-8-15.1-5.6l0,0l0,0L313.3,18.6L313.3,18.6z"/>
			<path class="st2" d="M306.7,2.8c15.1-6.3,32.4,0.3,39.5,14.8l0,0c0.3,0.6,0.6,1.3,0.9,1.9l0,0l-1.9,0.8c-0.2-0.6-0.5-1.2-0.8-1.8
				l0,0c-6.7-13.5-22.8-19.7-37-13.8l0,0l0,0L306.7,2.8L306.7,2.8z"/>
			<path class="st2" d="M310.8,12.5L310.8,12.5L310.8,12.5L310.8,12.5L310.8,12.5L310.8,12.5z M310,10.7
				c10.9-4.5,23.4,0.2,28.6,10.7l0,0c0.2,0.5,0.4,0.9,0.6,1.4l0,0l-1.9,0.8c-0.2-0.4-0.4-0.9-0.6-1.3l0,0c-4.7-9.5-16.1-13.8-26-9.7
				l0,0L310,10.7L310,10.7z"/>
		</g>
		<polygon class="st2" points="141,-1.7 146.5,9 158.4,7.1 149.9,15.6 155.3,26.3 144.6,20.9 136.1,29.4 138,17.5 127.2,12 
			139.1,10.1 		"/>
		<polygon class="st2" points="274,157.3 264.4,150.6 265.4,139.1 275.9,134.2 285.4,140.8 284.4,152.3 		"/>
		<path class="st2" d="M92.9,91.8V77.3c0-3.1-1.2-5.8-3.6-7.8c-2.3-2.1-5.2-3.2-8.4-3.2v7.6c1.2,0,2.1,0.3,2.9,1
			c0.8,0.7,1.1,1.4,1.1,2.4v14.5H92.9z M339.1,91.8c0,1-0.3,1.7-1.1,2.4l9.5,0.8V81.1l-8-0.4L339.1,91.8z"/>
		<path class="st2" d="M134.8,69.5c-2.3-2.1-5.2-3.2-8.4-3.2h-13c-1.8,0-3.6,0.3-5.2,1c-0.7-0.7-1.8-1.1-2.9-1c-1.1,0-2.1,0.2-2.9,1
			c-0.8,0.7-1.1,1.8-1.1,2.8V99c0,1,0.3,2.1,1.1,2.8c0.8,0.7,1.8,1,2.9,1c1.1,0,2.1-0.3,2.9-1c0.8-0.7,1.1-1.8,1.1-2.8V77.3
			c0-1,0.3-1.7,1.1-2.4c0.8-0.7,1.7-1,2.9-1h12.9c1.2,0,2.1,0.3,2.9,1c0.8,0.7,1.1,1.4,1.1,2.4V99c0,1,0.3,2.1,1.1,2.8
			c0.8,0.7,1.8,1,2.9,1c1.1,0,2.1-0.3,2.9-1c0.8-0.7,1.1-1.8,1.1-2.8V77.3C138.4,74.2,137.1,71.5,134.8,69.5z"/>
		<path class="st2" d="M386,55c-1.4,0-2.6,0.3-3.5,1.2c-0.9,0.9-1.3,2.1-1.3,3.4c0,1.3,0.4,2.6,1.3,3.4c0.9,0.9,2.2,1.2,3.5,1.2
			c1.3,0,2.6-0.3,3.5-1.2c0.9-0.8,1.3-2.1,1.3-3.4c0-1.3-0.4-2.6-1.3-3.4C388.6,55.3,387.4,55,386,55z"/>
		<path class="st2" d="M386,66.3c-1.1,0-2.1,0.3-2.9,1c-0.8,0.7-1.1,1.8-1.1,2.8V99c0,1.1,0.3,2.1,1.1,2.8s1.8,1,2.9,1
			s2.1-0.3,2.9-1c0.8-0.7,1.1-1.8,1.1-2.8V70.1c0-1.1-0.3-2.1-1.1-2.8C388.2,66.6,387.1,66.3,386,66.3z"/>
		<path class="st2" d="M371.5,66.3h-5.8v-6.2c0-1.1-0.3-2.1-1.1-2.8c-0.8-0.7-1.8-1-2.9-1s-2.1,0.2-2.9,1c-0.8,0.7-1.1,1.8-1.1,2.8
			v6.2h-0.5c-1.1,0-2.1,0.3-2.9,1c-0.8,0.7-1.1,1.8-1.1,2.8c0,1.1,0.3,2.1,1.1,2.8c0.8,0.7,1.8,1,2.9,1h0.5v25
			c0,1.1,0.3,2.1,1.1,2.8c0.8,0.7,1.8,1,2.9,1s2.1-0.3,2.9-1s1.1-1.8,1.1-2.8v-25h5.8c1.1,0,2.2-0.3,2.9-1c0.8-0.7,1.1-1.8,1.1-2.8
			c0-1.1-0.3-2.1-1.1-2.8C373.6,66.6,372.6,66.3,371.5,66.3z"/>
		<path class="st0" d="M42.5,95.9"/>
		<path class="st0" d="M42.5,101.5"/>
		<path class="st0" d="M9,74.6"/>
		<path class="st0" d="M9,93.9"/>
	</g>
</g>
<g>
	<path class="st2" d="M346.8,127.8c0,1.3-0.4,2.5-1.3,3.6c-0.8,1-2,1.9-3.5,2.6s-3.1,1.2-5.1,1.5c-1.9,0.3-4,0.5-6.2,0.5
		c-1.5,0-2.9-0.1-4.2-0.2c-1.3-0.2-2.4-0.3-3.4-0.5s-1.8-0.4-2.5-0.6s-1.1-0.4-1.4-0.6c-0.3-0.2-0.5-0.4-0.6-0.8
		c-0.1-0.3-0.2-0.8-0.2-1.4c0-0.4,0-0.8,0.1-1c0-0.3,0.1-0.5,0.2-0.7s0.2-0.3,0.4-0.4c0.2-0.1,0.4-0.1,0.6-0.1
		c0.3,0,0.8,0.1,1.3,0.3c0.6,0.2,1.3,0.5,2.2,0.7c0.9,0.3,2,0.5,3.2,0.7c1.2,0.2,2.7,0.3,4.3,0.3c1.1,0,2-0.1,2.9-0.2
		c0.8-0.1,1.6-0.4,2.2-0.6c0.6-0.3,1-0.6,1.3-1c0.3-0.4,0.5-0.9,0.5-1.4c0-0.6-0.3-1.1-0.8-1.5s-1.2-0.8-2.1-1.1
		c-0.9-0.3-1.8-0.6-2.9-0.9c-1.1-0.3-2.2-0.6-3.4-0.9c-1.2-0.3-2.3-0.7-3.4-1.1s-2.1-0.9-2.9-1.5c-0.9-0.6-1.6-1.2-2.1-2
		s-0.8-1.7-0.8-2.8c0-1.2,0.4-2.3,1.2-3.2c0.8-0.9,1.8-1.7,3.1-2.3c1.3-0.6,2.8-1.1,4.6-1.4s3.7-0.5,5.6-0.5c1,0,2.1,0,3.1,0.1
		c1,0.1,2,0.2,2.9,0.4s1.7,0.3,2.4,0.5s1.1,0.4,1.4,0.5c0.2,0.1,0.4,0.2,0.4,0.3c0,0.1,0.1,0.2,0.2,0.4c0,0.1,0.1,0.3,0.1,0.6
		c0,0.2,0,0.5,0,0.9s0,0.7,0,1s-0.1,0.5-0.2,0.7s-0.2,0.3-0.3,0.4c-0.2,0.1-0.3,0.1-0.6,0.1s-0.6-0.1-1.2-0.3
		c-0.5-0.2-1.2-0.4-2-0.6c-0.8-0.2-1.7-0.4-2.7-0.6s-2.2-0.3-3.4-0.3c-1,0-1.8,0.1-2.5,0.2c-0.7,0.1-1.3,0.3-1.8,0.6
		c-0.5,0.2-0.8,0.5-1.1,0.9c-0.2,0.4-0.4,0.7-0.4,1.1c0,0.6,0.3,1.1,0.8,1.5c0.5,0.4,1.2,0.8,2.1,1.1c0.9,0.3,1.9,0.6,3,0.9
		c1.1,0.3,2.2,0.6,3.4,0.9c1.2,0.3,2.3,0.7,3.4,1.1c1.1,0.4,2.1,0.9,3,1.5c0.9,0.6,1.6,1.2,2.1,2
		C346.5,125.8,346.8,126.7,346.8,127.8z"/>
	<path class="st2" d="M389.5,122.2c0,2.4-0.5,4.4-1.6,6c-1.1,1.6-2.5,3-4.5,4.1c-1.9,1.1-4.3,1.8-7.1,2.3c-2.8,0.5-6.1,0.8-9.9,0.8
		h-10.3c-0.7,0-1.3-0.1-1.8-0.4s-0.8-0.7-0.8-1.3v-22.4c0-0.6,0.2-1,0.8-1.3c0.6-0.3,1.1-0.4,1.8-0.4h11.1c3.9,0,7.1,0.3,9.8,0.8
		c2.7,0.5,5,1.3,6.8,2.4c1.8,1.1,3.2,2.4,4.2,3.9C389,118.4,389.5,120.2,389.5,122.2z M380.4,122.4c0-1.2-0.2-2.4-0.7-3.4
		s-1.2-2-2.3-2.7c-1.1-0.8-2.4-1.4-4.1-1.8c-1.7-0.4-3.8-0.7-6.5-0.7h-4.5v17.5h4.6c2.4,0,4.4-0.2,6.1-0.6c1.7-0.4,3-0.9,4.1-1.7
		s1.9-1.7,2.5-2.8C380.1,125.2,380.4,123.9,380.4,122.4z"/>
	<path class="st2" d="M405.5,134.8c0,0.1-0.1,0.2-0.2,0.4c-0.1,0.1-0.4,0.2-0.7,0.3s-0.8,0.1-1.3,0.2c-0.6,0-1.3,0.1-2.1,0.1
		c-0.8,0-1.6,0-2.1-0.1c-0.6,0-1-0.1-1.4-0.2c-0.3-0.1-0.6-0.2-0.7-0.3c-0.2-0.1-0.2-0.2-0.2-0.4v-24.3c0-0.1,0.1-0.2,0.2-0.4
		c0.1-0.1,0.4-0.2,0.7-0.3c0.4-0.1,0.8-0.1,1.4-0.2c0.6-0.1,1.3-0.1,2.1-0.1c0.9,0,1.6,0,2.1,0.1c0.6,0,1,0.1,1.3,0.2
		c0.3,0.1,0.6,0.2,0.7,0.3c0.2,0.1,0.2,0.2,0.2,0.4V134.8L405.5,134.8z"/>
</g>
</svg>
