<?xml version="1.0" encoding="utf-8"?>
<!-- Generator: Adobe Illustrator 15.1.0, SVG Export Plug-In . SVG Version: 6.00 Build 0)  -->
<!DOCTYPE svg PUBLIC "-//W3C//DTD SVG 1.1//EN" "http://www.w3.org/Graphics/SVG/1.1/DTD/svg11.dtd">
<svg version="1.1" id="Calque_1" xmlns="http://www.w3.org/2000/svg" xmlns:xlink="http://www.w3.org/1999/xlink" x="0px" y="0px"
	 width="488.675px" height="157.523px" viewBox="0 0 488.675 157.523" enable-background="new 0 0 488.675 157.523"
	 xml:space="preserve">
<g id="Calque_7">
	<g>
		<path fill="#FFFFFF" d="M168.277,122.831v0.002c1.14,1.082,2.266,2.141,3.383,3.179l1.074-1.158
			c-1.111-1.033-2.235-2.089-3.371-3.167L168.277,122.831z"/>
		<path fill="#FFFFFF" d="M155.426,14.24l0.159,1.572c1.507-0.151,3.039-0.28,4.594-0.389l-0.107-1.576
			C158.501,13.959,156.951,14.086,155.426,14.24z"/>
		<path fill="#FFFFFF" d="M161.602,116.381h0.002c1.118,1.098,2.227,2.178,3.322,3.236l1.1-1.135c-1.094-1.058-2.2-2.134-3.315-3.23
			L161.602,116.381z"/>
		<path fill="#FFFFFF" d="M142.449,96.13h0.002c1.008,1.168,2.027,2.334,3.062,3.492l1.18-1.053
			c-1.027-1.152-2.043-2.311-3.046-3.472L142.449,96.13z"/>
		<path fill="#FFFFFF" d="M155.029,109.814c1.085,1.113,2.178,2.215,3.271,3.308l1.115-1.12c-1.089-1.084-2.176-2.184-3.256-3.289
			L155.029,109.814z"/>
		<path fill="#FFFFFF" d="M178.668,13.427h0.002c-1.453-0.022-2.897-0.035-4.327-0.035h-0.322l0.002,1.581
			c0.106,0,0.212-0.002,0.32-0.002c1.421,0,2.856,0.013,4.303,0.035L178.668,13.427z"/>
		<path fill="#FFFFFF" d="M148.63,103.067h0.003c1.047,1.141,2.104,2.272,3.171,3.396l1.146-1.087
			c-1.06-1.119-2.113-2.246-3.156-3.381L148.63,103.067z"/>
		<path fill="#FFFFFF" d="M175.087,129.144c1.171,1.055,2.331,2.08,3.483,3.08l1.034-1.193c-1.145-0.991-2.298-2.013-3.459-3.06
			L175.087,129.144z"/>
		<path fill="#FFFFFF" d="M197.183,146.191c1.345,0.82,2.692,1.603,4.044,2.336l0.755-1.387c-1.327-0.723-2.652-1.488-3.976-2.297
			L197.183,146.191z"/>
		<path fill="#FFFFFF" d="M215.75,15.614c-1.539-0.135-3.08-0.266-4.622-0.394l-0.131,1.575c1.54,0.126,3.079,0.258,4.619,0.393
			L215.75,15.614z"/>
		<path fill="#FFFFFF" d="M205.399,150.644c1.423,0.666,2.854,1.287,4.298,1.854l0.579-1.47c-1.411-0.557-2.812-1.159-4.203-1.813
			L205.399,150.644z"/>
		<path fill="#FFFFFF" d="M182.116,135.236c1.213,1.004,2.421,1.979,3.622,2.922l0.974-1.239c-1.188-0.938-2.383-1.902-3.586-2.898
			L182.116,135.236z"/>
		<path fill="#FFFFFF" d="M192.598,13.927l-0.084,1.577c1.535,0.081,3.076,0.172,4.622,0.27l0.102-1.577
			C195.686,14.098,194.139,14.009,192.598,13.927z"/>
		<path fill="#FFFFFF" d="M183.269,15.112c1.53,0.047,3.072,0.104,4.622,0.171l0.066-1.579c-1.557-0.068-3.104-0.123-4.641-0.171
			L183.269,15.112z"/>
		<path fill="#FFFFFF" d="M169.403,15.022l-0.033-1.579c-1.567,0.033-3.119,0.079-4.649,0.146l0.068,1.579
			C166.308,15.101,167.846,15.052,169.403,15.022z"/>
		<path fill="#FFFFFF" d="M206.503,14.849h-0.002c-1.546-0.119-3.09-0.233-4.63-0.344l-0.112,1.576
			c1.537,0.107,3.076,0.224,4.62,0.343L206.503,14.849z"/>
		<path fill="#FFFFFF" d="M118.01,31.174c0.119-0.15,0.24-0.3,0.362-0.45l-1.22-1.003v-0.002c-0.128,0.159-0.256,0.317-0.384,0.477
			c-1.021,1.295-1.822,2.701-2.414,4.203l1.471,0.579C116.363,33.614,117.087,32.346,118.01,31.174z"/>
		<path fill="#FFFFFF" d="M133.212,20.666l-0.57-1.477v0.003c-1.497,0.581-2.933,1.215-4.307,1.901l0.709,1.413
			C130.37,21.843,131.759,21.228,133.212,20.666z"/>
		<path fill="#FFFFFF" d="M347.488,49.532c-0.82-1.104-1.734-2.2-2.771-3.276l-1.139,1.093c1.025,1.067,1.926,2.148,2.727,3.236
			C346.65,50.19,347.046,49.84,347.488,49.532z"/>
		<path fill="#FFFFFF" d="M341.259,43.042c-1.156-0.968-2.4-1.916-3.734-2.848l-0.906,1.296c1.303,0.905,2.514,1.829,3.631,2.765
			L341.259,43.042z"/>
		<path fill="#FFFFFF" d="M214.112,154.066h0.003c1.486,0.47,2.99,0.89,4.514,1.25l0.367-1.537
			c-1.486-0.354-2.955-0.762-4.406-1.221L214.112,154.066z"/>
		<path fill="#FFFFFF" d="M114.618,41.842c0-0.884,0.049-1.743,0.148-2.573l-1.568-0.188v0.002
			c-0.108,0.897-0.159,1.818-0.159,2.761c-0.002,0.662,0.024,1.334,0.075,2.017l1.577-0.117
			C114.642,43.095,114.618,42.462,114.618,41.842z"/>
		<path fill="#FFFFFF" d="M124.241,23.446c-1.343,0.884-2.604,1.835-3.774,2.864l1.042,1.187c1.113-0.977,2.315-1.885,3.601-2.729
			l-0.868-1.323L124.241,23.446L124.241,23.446z"/>
		<path fill="#FFFFFF" d="M136.503,88.975c0.96,1.204,1.943,2.405,2.941,3.604l1.215-1.01c-0.991-1.191-1.968-2.388-2.922-3.583
			L136.503,88.975z"/>
		<path fill="#FFFFFF" d="M120.755,65.914v0.003c0.731,1.336,1.509,2.688,2.326,4.046l1.354-0.812
			c-0.806-1.343-1.572-2.675-2.295-3.993L120.755,65.914z"/>
		<path fill="#FFFFFF" d="M113.809,48.545c0.323,1.48,0.738,2.999,1.241,4.548l1.505-0.49c-0.491-1.502-0.893-2.969-1.2-4.392
			L113.809,48.545z"/>
		<path fill="#FFFFFF" d="M116.683,57.495c0.581,1.401,1.224,2.826,1.924,4.27l1.422-0.689c-0.689-1.418-1.318-2.812-1.884-4.183
			L116.683,57.495z"/>
		<path fill="#FFFFFF" d="M189.446,140.974l0.003,0.002c1.271,0.932,2.542,1.826,3.812,2.687l0.884-1.312
			c-1.252-0.846-2.505-1.729-3.762-2.649L189.446,140.974z"/>
		<path fill="#FFFFFF" d="M315.037,118.628l1.029,1.198l-0.004,0.003c1.191-1.021,2.357-2.048,3.498-3.078l-1.061-1.173
			C317.371,116.599,316.214,117.617,315.037,118.628z"/>
		<path fill="#FFFFFF" d="M311.494,121.587c-1.189,0.967-2.395,1.926-3.617,2.873l0.969,1.248c1.234-0.955,2.447-1.921,3.645-2.895
			L311.494,121.587z"/>
		<path fill="#FFFFFF" d="M325.283,33.349c-1.381-0.625-2.812-1.234-4.297-1.831l-0.588,1.467c1.465,0.587,2.875,1.188,4.229,1.805
			L325.283,33.349z"/>
		<path fill="#FFFFFF" d="M300.439,129.937l0.904,1.297c1.277-0.895,2.539-1.801,3.783-2.717l-0.938-1.273
			C302.955,128.155,301.703,129.052,300.439,129.937z"/>
		<path fill="#FFFFFF" d="M293.859,25.329c1.535,0.309,3.039,0.629,4.514,0.963l0.348-1.542c-1.485-0.336-3.004-0.66-4.551-0.971
			L293.859,25.329z"/>
		<path fill="#FFFFFF" d="M292.742,135.058l0.844,1.336c1.314-0.83,2.617-1.674,3.91-2.535l-0.875-1.315
			C295.339,133.398,294.044,134.236,292.742,135.058z"/>
		<path fill="#FFFFFF" d="M302.859,27.362c1.52,0.387,3.008,0.783,4.455,1.196l0.432-1.52c-1.465-0.415-2.963-0.819-4.496-1.208
			L302.859,27.362z"/>
		<path fill="#FFFFFF" d="M328.759,36.791c1.406,0.728,2.744,1.469,4.012,2.225l0.809-1.358c-1.297-0.772-2.662-1.527-4.092-2.269
			L328.759,36.791z"/>
		<path fill="#FFFFFF" d="M234.215,17.305v-0.002c-1.531-0.142-3.068-0.285-4.612-0.429l-0.146,1.572
			c1.542,0.145,3.081,0.287,4.612,0.432L234.215,17.305z"/>
		<path fill="#FFFFFF" d="M241.74,155.156l0.166,1.57c1.528-0.162,3.079-0.379,4.64-0.646l-0.268-1.558
			C244.749,154.786,243.233,154.997,241.74,155.156z"/>
		<path fill="#FFFFFF" d="M243.447,18.149c-1.53-0.137-3.067-0.274-4.615-0.417l-0.144,1.572c1.548,0.142,3.087,0.283,4.618,0.418
			L243.447,18.149z"/>
		<path fill="#FFFFFF" d="M252.677,18.931c-1.524-0.122-3.063-0.247-4.614-0.38l-0.135,1.574c1.553,0.133,3.095,0.259,4.625,0.38
			L252.677,18.931z"/>
		<path fill="#FFFFFF" d="M284.817,139.786l0.772,1.377h0.002c1.349-0.759,2.691-1.535,4.025-2.332l-0.81-1.357
			C287.485,138.261,286.153,139.033,284.817,139.786z"/>
		<path fill="#FFFFFF" d="M223.225,156.238c1.526,0.25,3.074,0.445,4.649,0.591l0.141-1.574c-1.534-0.142-3.045-0.332-4.536-0.574
			L223.225,156.238z"/>
		<path fill="#FFFFFF" d="M224.987,16.446c-1.536-0.144-3.074-0.283-4.615-0.421l-0.142,1.572c1.539,0.139,3.079,0.28,4.614,0.422
			L224.987,16.446z"/>
		<path fill="#FFFFFF" d="M250.78,153.617l0.354,1.541l0.002-0.002c1.498-0.346,3.009-0.729,4.527-1.161l-0.431-1.521
			C253.737,152.896,252.253,153.279,250.78,153.617z"/>
		<path fill="#FFFFFF" d="M234.264,155.533c-0.563-0.002-1.122-0.006-1.679-0.02l-0.038,1.58c0.57,0.012,1.143,0.02,1.717,0.02
			c0.978,0,1.968-0.02,2.966-0.059l-0.06-1.58C236.19,155.513,235.222,155.533,234.264,155.533z"/>
		<path fill="#FFFFFF" d="M280.412,21.475c-1.517-0.207-3.053-0.404-4.611-0.59l-0.186,1.57c1.551,0.184,3.078,0.378,4.582,0.583
			L280.412,21.475z"/>
		<path fill="#FFFFFF" d="M276.66,144.085l0.696,1.418c1.388-0.681,2.772-1.388,4.151-2.113l-0.736-1.398
			C279.404,142.712,278.033,143.411,276.66,144.085z"/>
		<path fill="#FFFFFF" d="M261.807,21.176l0.11-1.577c-0.373-0.024-0.746-0.051-1.121-0.075c-1.158-0.075-2.324-0.157-3.502-0.241
			l-0.111,1.577c1.179,0.084,2.35,0.166,3.512,0.241C261.066,21.126,261.439,21.149,261.807,21.176z"/>
		<path fill="#FFFFFF" d="M289.599,22.915c-1.506-0.269-3.033-0.521-4.588-0.766l-0.245,1.561c1.546,0.243,3.063,0.494,4.555,0.762
			L289.599,22.915z"/>
		<path fill="#FFFFFF" d="M268.261,147.898l0.605,1.459h0.002c1.422-0.594,2.848-1.215,4.274-1.86l-0.655-1.438
			C271.08,146.699,269.669,147.312,268.261,147.898z"/>
		<path fill="#FFFFFF" d="M259.632,151.124l0.496,1.502c1.461-0.484,2.93-1.002,4.399-1.554l-0.555-1.479
			C262.523,150.135,261.076,150.648,259.632,151.124z"/>
		<path fill="#FFFFFF" d="M271.179,20.383c-1.521-0.155-3.066-0.296-4.629-0.429l-0.135,1.574c1.559,0.13,3.09,0.273,4.604,0.427
			L271.179,20.383z"/>
		<path fill="#FFFFFF" d="M223.225,156.238v0.002V156.238z"/>
		<rect x="341.261" y="43.041" fill="#FFFFFF" width="0" height="0.003"/>
		<rect x="280.41" y="21.474" fill="#FFFFFF" width="0.002" height="0.002"/>
		<rect x="224.987" y="16.445" fill="#FFFFFF" width="0.002" height="0.004"/>
		<rect x="187.958" y="13.702" fill="#FFFFFF" width="0.002" height="0.004"/>
		<polygon fill="#FFFFFF" points="169.37,13.44 169.372,13.443 169.37,13.443 169.37,13.443 		"/>
		<g>
			<g>
				<path fill="#FFFFFF" d="M211.805,66.311h-5.836v-6.229c0.004-1.062-0.309-2.113-1.086-2.834
					c-0.769-0.72-1.809-0.971-2.904-0.971s-2.126,0.259-2.897,0.971c-0.772,0.727-1.081,1.771-1.074,2.834v6.229h-0.487
					c-1.104,0-2.138,0.261-2.91,0.982c-0.77,0.728-1.084,1.767-1.076,2.826c-0.008,1.062,0.307,2.103,1.076,2.831
					c0.772,0.71,1.807,0.974,2.91,0.974h0.487v25.033c-0.007,1.061,0.302,2.097,1.074,2.82c0.771,0.717,1.8,0.979,2.897,0.974h0.031
					c1.09,0,2.11-0.261,2.873-0.968c0.777-0.723,1.09-1.767,1.086-2.826V73.925h5.836c1.098,0,2.131-0.264,2.901-0.973
					c0.772-0.722,1.087-1.771,1.074-2.832c0.013-1.061-0.302-2.107-1.074-2.826C213.936,66.572,212.903,66.311,211.805,66.311z
					 M80.895,66.317l-19.633-0.006c-3.232-0.004-6.125,1.064-8.449,3.15c-2.332,2.064-3.582,4.789-3.567,7.845v14.457
					c-0.015,3.028,1.241,5.745,3.597,7.822c2.326,2.097,5.213,3.177,8.42,3.166h19.68c3.096,0,5.895-1.025,8.197-3.012
					c2.465-2.049,3.787-4.824,3.768-7.978V77.306c0.011-3.056-1.236-5.772-3.573-7.845C87.018,67.377,84.124,66.307,80.895,66.317z
					 M84.952,91.763c-0.012,0.979-0.332,1.666-1.145,2.382c-0.845,0.709-1.731,1.037-2.912,1.045H61.262
					c-1.184-0.008-2.08-0.336-2.92-1.045c-0.807-0.716-1.123-1.396-1.135-2.382V77.306c0.012-0.98,0.328-1.657,1.135-2.385
					c0.84-0.705,1.741-1.038,2.92-1.048h19.633c1.178,0.01,2.067,0.34,2.912,1.054c0.812,0.722,1.133,1.408,1.145,2.379V91.763z
					 M39.556,95.19H11.88c-1.185-0.008-2.08-0.336-2.921-1.045c-0.798-0.708-1.113-1.39-1.123-2.382V77.306
					c0.01-0.98,0.321-1.664,1.133-2.385c0.838-0.708,1.727-1.038,2.911-1.048h19.638c1.096,0,2.129-0.254,2.903-0.971
					c0.776-0.726,1.087-1.77,1.075-2.831c0.012-1.05-0.304-2.092-1.078-2.805c-0.775-0.706-1.805-0.957-2.9-0.957H11.88
					c-3.227-0.004-6.127,1.064-8.442,3.15C1.1,71.525-0.148,74.25-0.134,77.305v14.458c-0.014,3.037,1.255,5.74,3.595,7.822
					c2.327,2.092,5.187,3.166,8.374,3.166h27.722c1.091,0,2.12-0.251,2.894-0.956c0.775-0.713,1.09-1.751,1.082-2.8
					c0.008-1.067-0.301-2.109-1.067-2.83C41.682,95.445,40.654,95.19,39.556,95.19z M126.352,66.311h-12.949
					c-1.838,0-3.572,0.344-5.165,1.031c-0.74-0.702-1.794-1.062-2.865-1.031c-1.095,0-2.12,0.247-2.898,0.962
					c-0.778,0.713-1.097,1.749-1.084,2.805v28.916c-0.013,1.054,0.306,2.099,1.084,2.803c0.778,0.705,1.804,0.961,2.898,0.961
					c1.094,0,2.125-0.256,2.895-0.961c0.776-0.713,1.095-1.751,1.081-2.803V77.306c0.016-0.98,0.33-1.664,1.139-2.383
					c0.84-0.71,1.744-1.04,2.916-1.055l12.949,0.008c1.167,0.007,2.072,0.337,2.908,1.047c0.807,0.719,1.125,1.401,1.139,2.383
					v21.688c-0.012,1.052,0.307,2.09,1.082,2.803c0.77,0.705,1.799,0.961,2.896,0.961c1.094,0,2.124-0.256,2.896-0.961
					c0.777-0.704,1.094-1.749,1.084-2.803V77.306c0.018-3.061-1.236-5.779-3.571-7.841
					C132.476,67.377,129.576,66.302,126.352,66.311z M253.145,66.311h-19.64c-3.227-0.004-6.12,1.064-8.442,3.15
					c-2.338,2.071-3.585,4.789-3.569,7.845v14.457c-0.016,3.028,1.245,5.745,3.604,7.822c2.307,2.092,5.176,3.166,8.359,3.166
					h19.688c1.094,0,2.129-0.246,2.899-0.956c0.777-0.713,1.097-1.751,1.082-2.8c0.015-1.067-0.305-2.109-1.073-2.83
					c-0.773-0.722-1.813-0.977-2.908-0.977h-19.64c-1.171-0.008-2.073-0.336-2.915-1.045c-0.804-0.716-1.106-1.39-1.129-2.382
					v-3.474l23.684,0.008v-0.008c3.11,0.011,5.92-1.002,8.239-2.967c2.464-2.087,3.796-4.872,3.777-8.018
					c0.019-3.056-1.233-5.779-3.58-7.845C259.268,67.377,256.375,66.307,253.145,66.311z M256.044,79.716
					c-0.83,0.719-1.725,1.052-2.899,1.062l-23.684-0.008v-3.465c0.014-0.987,0.325-1.664,1.129-2.379
					c0.842-0.711,1.749-1.044,2.915-1.054h19.64c1.155,0.01,2.041,0.317,2.853,0.978c0.858,0.741,1.188,1.459,1.207,2.455
					C257.184,78.282,256.867,78.984,256.044,79.716z M177.157,80.779l-19.641-0.008c-1.181-0.004-2.075-0.337-2.91-1.056
					c-0.808-0.725-1.129-1.426-1.143-2.409c0.014-0.98,0.332-1.664,1.133-2.385c0.838-0.705,1.739-1.038,2.92-1.048h19.641
					c1.092,0,2.127-0.254,2.898-0.971c0.775-0.715,1.09-1.765,1.082-2.831c0.008-1.051-0.31-2.092-1.088-2.805
					c-0.769-0.706-1.801-0.957-2.893-0.957h-19.641c-3.209-0.004-6.094,1.071-8.422,3.175c-2.346,2.081-3.614,4.782-3.598,7.82
					c-0.017,3.055,1.238,5.768,3.57,7.842c2.33,2.088,5.223,3.152,8.449,3.143l19.641,0.008c1.167,0.003,2.066,0.343,2.898,1.055
					c0.818,0.74,1.137,1.435,1.15,2.411c-0.014,0.985-0.332,1.666-1.144,2.382c-0.831,0.709-1.734,1.037-2.905,1.045h-27.679
					c-1.095,0-2.128,0.255-2.907,0.977c-0.77,0.721-1.082,1.763-1.074,2.83c-0.008,1.049,0.309,2.087,1.086,2.8
					c0.773,0.71,1.801,0.956,2.896,0.956h27.726c3.086,0,5.891-1.025,8.191-3.012c2.46-2.049,3.787-4.824,3.768-7.978
					c0.01-3.057-1.239-5.773-3.574-7.849C183.279,81.833,180.377,80.767,177.157,80.779z M276.283,48.42
					c-1.103,0-2.138,0.268-2.912,0.994c-0.769,0.729-1.074,1.777-1.064,2.86v46.629c-0.01,1.075,0.297,2.124,1.064,2.856
					c0.772,0.724,1.811,0.997,2.912,0.992h0.034c1.084,0,2.115-0.272,2.879-0.992c0.769-0.732,1.076-1.781,1.063-2.856V52.275
					c0.013-1.083-0.297-2.133-1.063-2.86C278.421,48.687,277.38,48.42,276.283,48.42z M386.007,55.023
					c-1.379,0-2.635,0.322-3.539,1.179c-0.92,0.858-1.301,2.102-1.289,3.432c-0.012,1.333,0.369,2.577,1.289,3.423
					c0.904,0.862,2.16,1.182,3.539,1.182c1.381,0,2.629-0.319,3.547-1.182c0.906-0.853,1.283-2.09,1.271-3.423
					c0.012-1.33-0.365-2.572-1.271-3.432C388.636,55.345,387.388,55.023,386.007,55.023z M386.007,66.311
					c-1.102,0-2.137,0.261-2.914,0.982c-0.77,0.719-1.088,1.767-1.07,2.826v28.838c-0.018,1.061,0.303,2.104,1.08,2.826
					c0.77,0.711,1.805,0.973,2.904,0.973c1.094,0,2.129-0.262,2.902-0.979c0.773-0.725,1.082-1.761,1.07-2.82V70.121
					c0.012-1.061-0.297-2.1-1.07-2.826C388.148,66.572,387.107,66.311,386.007,66.311z M484.853,69.466
					c-2.311-2.09-5.201-3.164-8.438-3.154h-12.953c-1.824,0-3.559,0.344-5.152,1.031c-0.738-0.702-1.797-1.06-2.873-1.031
					c-1.09,0-2.123,0.247-2.895,0.962c-0.781,0.713-1.092,1.749-1.086,2.805v28.916c-0.006,1.052,0.305,2.09,1.086,2.803
					c0.771,0.705,1.805,0.961,2.895,0.961c1.094,0,2.127-0.256,2.898-0.961c0.783-0.713,1.1-1.751,1.084-2.803V77.306
					c0.02-0.98,0.33-1.664,1.141-2.383c0.838-0.71,1.74-1.04,2.902-1.055l12.953,0.008c1.178,0.007,2.088,0.34,2.912,1.047
					c0.811,0.719,1.119,1.396,1.143,2.383v21.688c-0.016,1.052,0.303,2.09,1.074,2.803c0.779,0.705,1.809,0.961,2.904,0.961
					c1.094,0,2.123-0.256,2.895-0.961c0.773-0.713,1.092-1.751,1.076-2.803V77.306C488.441,74.247,487.191,71.527,484.853,69.466z
					 M430.96,66.317l-19.635-0.006c-3.232-0.004-6.127,1.064-8.441,3.15c-2.332,2.064-3.586,4.784-3.568,7.845v14.457
					c-0.018,3.037,1.242,5.745,3.588,7.822c2.332,2.097,5.221,3.177,8.424,3.166h19.68c3.094,0,5.902-1.024,8.203-3.012
					c2.463-2.049,3.787-4.82,3.771-7.978V77.306c0.016-3.056-1.236-5.779-3.574-7.845C437.08,67.377,434.195,66.307,430.96,66.317z
					 M435.017,91.763c-0.02,0.985-0.336,1.674-1.135,2.387c-0.84,0.704-1.732,1.032-2.922,1.04h-19.635
					c-1.176-0.008-2.084-0.336-2.902-1.04c-0.82-0.713-1.129-1.395-1.143-2.387V77.306c0.014-0.98,0.322-1.664,1.143-2.385
					c0.818-0.705,1.729-1.038,2.902-1.048h19.635c1.189,0.01,2.082,0.343,2.922,1.054c0.799,0.715,1.113,1.397,1.135,2.379V91.763z
					 M292.725,48.42c-1.101,0-2.146,0.268-2.916,0.994c-0.772,0.729-1.074,1.777-1.069,2.86v46.629
					c-0.005,1.075,0.297,2.124,1.063,2.856c0.774,0.724,1.821,0.997,2.922,0.992h0.03c1.089,0,2.117-0.272,2.877-0.992
					c0.773-0.732,1.087-1.781,1.064-2.856V52.275c0.021-1.083-0.291-2.133-1.064-2.86C294.865,48.687,293.828,48.42,292.725,48.42z
					 M371.474,66.311h-5.824v-6.229c0.01-1.069-0.305-2.113-1.076-2.834c-0.775-0.712-1.811-0.971-2.902-0.971
					c-1.094,0-2.133,0.251-2.914,0.967c-0.775,0.725-1.086,1.769-1.076,2.838v6.229h-0.48c-1.096,0-2.131,0.261-2.904,0.982
					c-0.77,0.728-1.078,1.767-1.076,2.826c-0.002,1.062,0.307,2.103,1.076,2.831c0.773,0.71,1.811,0.974,2.904,0.974h0.477
					l0.004,25.033c-0.01,1.061,0.303,2.104,1.076,2.826c0.781,0.711,1.82,0.973,2.914,0.973s2.127-0.262,2.902-0.973
					c0.773-0.723,1.086-1.767,1.076-2.826v-25.04l5.826,0.008c1.104,0,2.145-0.264,2.914-0.973c0.773-0.722,1.088-1.771,1.074-2.832
					c0.014-1.061-0.301-2.107-1.074-2.826C373.621,66.572,372.58,66.311,371.474,66.311z M335.496,66.311h-19.639
					c-1.1,0-2.125,0.247-2.893,0.962c-0.781,0.708-1.098,1.749-1.088,2.805c-0.01,1.062,0.299,2.102,1.072,2.826
					c0.777,0.713,1.809,0.971,2.906,0.971h19.639c1.178,0.01,2.068,0.34,2.912,1.05c0.812,0.719,1.125,1.402,1.143,2.383v3.416
					l-23.691,0.006c-3.232-0.008-6.121,1.064-8.438,3.173c-2.34,2.088-3.594,4.806-3.582,7.859
					c-0.012,3.035,1.246,5.745,3.605,7.829c2.324,2.092,5.207,3.172,8.414,3.161l19.639,0.005c1.826,0,3.559-0.351,5.146-1.059
					c0.734,0.72,1.807,1.09,2.896,1.054c1.086,0.005,2.121-0.251,2.891-0.956c0.775-0.715,1.086-1.751,1.08-2.804V77.306
					c0.012-3.061-1.236-5.772-3.568-7.845C341.619,67.377,338.718,66.302,335.496,66.311z M339.548,91.761
					c-0.018,0.988-0.33,1.668-1.143,2.376c-0.834,0.717-1.734,1.045-2.912,1.053l-19.639-0.005c-1.176-0.003-2.08-0.331-2.914-1.04
					c-0.803-0.713-1.121-1.396-1.139-2.384c0.018-0.964,0.34-1.688,1.162-2.438c0.834-0.728,1.73-1.063,2.891-1.071h23.693V91.761
					L339.548,91.761z"/>
				<g>
					<g>
						<g>
							<g opacity="0.8">
								<line fill="none" x1="225.966" y1="36.571" x2="225.966" y2="36.571"/>
								<path fill="#FCE193" d="M225.966,36.571c3.707-0.197,6.525-0.151,8.442,0.106l6.361-0.873
									c-4.521,0.785-9.005,1.596-13.505,2.45c-12.116,2.393-25.728,5.469-38.697,8.749c-12.974,3.269-25.3,6.745-34.963,9.562
									c5.676-1.784,12.455-3.862,18.941-5.738l6.33-1.806c4.075-1.143,7.802-2.14,10.758-2.9l-1.753,0.519
									c4.391-1.297,8.794-2.555,13.21-3.776c4.447-1.091,8.904-2.145,13.37-3.16c-4.466,1.017-8.923,2.069-13.37,3.16
									C209.346,40.637,217.64,38.544,225.966,36.571"/>
								<line fill="none" x1="201.091" y1="42.862" x2="201.091" y2="42.862"/>
								<line fill="none" x1="153.605" y1="56.565" x2="153.605" y2="56.565"/>
								<line fill="none" x1="240.77" y1="35.804" x2="240.77" y2="35.804"/>
								<path fill="#FCE193" d="M271.685,107.079l-0.575,0.11l3.151-0.834c12.472-2.91,24.869-6.117,36.273-9.45
									c13.9-3.99,28.326-8.42,43.15-13.577c2.961-1.033,5.939-2.094,8.938-3.194c-5.928,2.345-11.912,4.573-17.936,6.703
									l-1.781,0.583c-12.873,4.18-24.678,7.709-36.254,10.923C295.074,101.548,283.718,104.427,271.685,107.079"/>
								<line fill="none" x1="344.687" y1="86.836" x2="344.687" y2="86.836"/>
								<line fill="none" x1="360.5" y1="79.636" x2="360.5" y2="79.636"/>
								<path fill="#FBD35E" d="M360.5,79.636c13.551-5.178,27.822-11.156,41.102-18.482l0.115,0.211
									c-7.355,4.047-15.52,7.967-24.002,11.507c-2.334,0.973-4.693,1.919-7.062,2.826l1.701-0.616
									C368.431,76.656,364.478,78.174,360.5,79.636"/>
								<path fill="#FBD35E" d="M390.681,67.384c4.057-1.971,8.047-4.04,11.934-6.236l1.582-0.818
									C399.814,62.838,395.287,65.172,390.681,67.384"/>
								<polyline fill="#FBD35E" points="269.015,112.478 265.398,113.157 269.91,112.26 269.015,112.478 								"/>
								<line fill="none" x1="265.398" y1="113.157" x2="265.398" y2="113.157"/>
								<line fill="none" x1="404.503" y1="70.42" x2="404.503" y2="70.42"/>
								<path fill="#FBD35E" d="M404.503,70.42c-1.949,0.984-3.91,1.937-5.879,2.858C400.593,72.356,402.554,71.405,404.503,70.42"
									/>
								<polyline fill="#FBD35E" points="398.625,73.279 397.789,73.691 398.625,73.279 								"/>
								<line fill="none" x1="400.074" y1="24.031" x2="400.074" y2="24.031"/>
								<path fill="#FBD35E" d="M400.074,24.031c1.471,0.253,2.936,0.527,4.391,0.826C403.009,24.558,401.544,24.284,400.074,24.031
									"/>
								<line fill="none" x1="427.744" y1="54.069" x2="427.744" y2="54.069"/>
								<path fill="#FBD35E" d="M427.744,54.069c-0.488,0.438-0.982,0.861-1.482,1.276C426.759,54.93,427.253,54.506,427.744,54.069
									"/>
								<path fill="#FBD35E" d="M98.1,121.271c-3.306-0.531-6.577-1.16-9.775-1.931C91.523,120.111,94.794,120.74,98.1,121.271"/>
								<line fill="none" x1="265.398" y1="113.157" x2="265.398" y2="113.157"/>
								<polyline fill="#FBD35E" points="265.398,113.157 258.147,114.42 265.398,113.157 								"/>
								<line fill="none" x1="411.289" y1="26.742" x2="411.289" y2="26.742"/>
								<line fill="none" x1="411.289" y1="26.742" x2="411.289" y2="26.742"/>
								<path fill="#FBD35E" d="M411.289,26.742c1.967,0.516,3.898,1.096,5.76,1.766c-1.6-0.569-3.248-1.075-4.93-1.526
									L411.289,26.742"/>
								<path fill="#FBD35E" d="M392.054,22.934c2.689,0.306,5.365,0.668,8.02,1.097c-1.771-0.276-3.551-0.523-5.338-0.744
									L392.054,22.934"/>
								<line fill="none" x1="400.074" y1="24.031" x2="400.074" y2="24.031"/>
								<path fill="#FBD35E" d="M425.673,44.799c1.762-2.243,2.928-4.683,2.93-6.457c0.023-0.323,0.02-0.632-0.016-0.937
									c0.033,0.305,0.039,0.612,0.016,0.937c0.023-0.323,0.02-0.632-0.016-0.937l0.027-0.004c0.148,0.97,0.01,2.106-0.523,3.407
									C427.578,42.1,426.716,43.472,425.673,44.799"/>
								<line fill="none" x1="400.029" y1="24.347" x2="400.029" y2="24.347"/>
								<line fill="none" x1="400.029" y1="24.347" x2="400.029" y2="24.347"/>
								<path fill="#FBD35E" d="M400.029,24.347c3.822,0.631,7.604,1.402,11.26,2.395c1.967,0.516,3.898,1.096,5.76,1.766
									c-1.6-0.569-3.248-1.075-4.93-1.526c2.719,0.766,5.424,1.677,7.957,2.816c2.516,1.131,4.9,2.549,6.49,4.169
									c0.791,0.805,1.334,1.628,1.621,2.397c0.043,0.097,0.062,0.194,0.098,0.29c0.033,0.098,0.021,0.106,0.047,0.161l0.062,0.283
									l0.031,0.15l0.018,0.075l0.002,0.01c-0.014-0.059,0.029,0.144-0.027-0.127l0.002,0.009l0.002,0.019
									c0.008,0.101,0.033,0.195,0.035,0.296c0.037,0.396,0.023,0.811-0.045,1.26c-0.256,1.799-1.611,4.166-3.543,6.358
									c-0.303,0.425-0.619,0.852-0.957,1.271c1.844-1.938,3.389-4.048,4.125-5.972c0.371-0.957,0.525-1.821,0.494-2.578
									c-0.004-0.19-0.021-0.376-0.055-0.561l-0.012-0.068l-0.004-0.034v-0.01c0.057,0.271,0.016,0.072,0.027,0.132l-0.002-0.005
									l-0.002-0.009l-0.008-0.035l-0.062-0.279c-0.051-0.251-0.061-0.217-0.072-0.272c-0.082-0.284-0.252-0.701-0.457-1.055
									c0.125,0.221,0.25,0.436,0.336,0.651c0.055,0.106,0.084,0.217,0.129,0.322c0.033,0.116,0.027,0.055,0.078,0.232l0.08,0.335
									l0.02,0.084l0.006,0.021v0.001c0.006,0.029-0.053-0.252-0.027-0.133v0.001v0.003v0.005l0.004,0.021l0.016,0.083
									c0.023,0.11,0.039,0.223,0.053,0.336c0.027,0.227,0.037,0.46,0.027,0.703c0.023-0.323,0.02-0.632-0.016-0.937l-0.033-0.226
									v-0.001c-0.006-0.029,0.053,0.249,0.027,0.131v-0.001v-0.002l-0.002-0.007l-0.004-0.015l-0.006-0.027l-0.014-0.057
									l-0.023-0.111l-0.049-0.225c-0.059-0.195-0.037-0.146-0.107-0.352c-0.102-0.295-0.23-0.593-0.4-0.896
									c0.174,0.301,0.309,0.597,0.414,0.892c0.072,0.205,0.055,0.155,0.113,0.351l0.051,0.225l0.025,0.111l0.014,0.057
									l0.006,0.027l0.004,0.015l0.002,0.007v0.002v0.001c0.023,0.117-0.033-0.159-0.027-0.131v0.002l0.037,0.226l-0.021-0.142
									l-0.008-0.071l-0.002-0.009v-0.005v0.001c0.055,0.262,0.014,0.07,0.027,0.127l-0.008-0.034l-0.016-0.07l-0.061-0.28
									L428.5,36.78l-0.012-0.033c-0.016-0.054-0.078-0.292-0.152-0.47c-0.143-0.375-0.338-0.758-0.596-1.146
									c-0.514-0.778-1.275-1.572-2.197-2.314c-1.869-1.487-4.309-2.748-6.893-3.784c2.059,0.858,4.02,1.847,5.666,2.988
									c-2.074-1.414-4.605-2.585-7.25-3.563c0.533,0.185,1.061,0.376,1.584,0.575c-2.32-0.968-4.793-1.771-7.318-2.472
									C407.654,25.628,403.861,24.918,400.029,24.347 M417.066,28.457l-1.623-0.531L417.066,28.457 M427.976,35.622
									L427.976,35.622"/>
								<line fill="none" x1="412.119" y1="26.98" x2="412.119" y2="26.98"/>
								<path fill="#FAC836" d="M412.119,26.98c1.682,0.451,3.33,0.957,4.93,1.526C415.449,27.937,413.798,27.431,412.119,26.98"/>
								<line fill="none" x1="417.046" y1="28.507" x2="417.046" y2="28.507"/>
								<line fill="none" x1="428.615" y1="37.402" x2="428.615" y2="37.402"/>
								<path fill="#FAC836" d="M428.587,37.406c0.033,0.305,0.039,0.612,0.016,0.937C428.626,38.018,428.623,37.711,428.587,37.406
									"/>
								<line fill="none" x1="378.517" y1="22.007" x2="378.517" y2="22.007"/>
								<line fill="none" x1="378.517" y1="22.007" x2="378.517" y2="22.007"/>
								<path fill="#FBD35E" d="M378.517,22.007l4.523,0.263c2.107,0.144,4.211,0.311,6.309,0.507
									c6.285,0.641,12.531,1.531,18.568,2.902c1.146,0.275,2.289,0.565,3.414,0.882c-3.678-0.934-7.471-1.644-11.305-2.213
									C392.968,23.176,385.757,22.463,378.517,22.007"/>
								<line fill="none" x1="411.332" y1="26.56" x2="411.332" y2="26.56"/>
								<line fill="none" x1="427.976" y1="35.622" x2="427.976" y2="35.622"/>
								<line fill="none" x1="427.976" y1="35.622" x2="427.976" y2="35.622"/>
								<path fill="#FBD35E" d="M427.976,35.622c0.174,0.3,0.309,0.596,0.414,0.891c0.072,0.205,0.055,0.155,0.113,0.351
									l0.051,0.225l0.025,0.111l0.014,0.057l0.006,0.027l0.004,0.015l0.002,0.007v0.002v0.001
									c0.023,0.117-0.033-0.159-0.027-0.131v0.002l0.037,0.226l-0.025,0.004l-0.035-0.226v-0.001
									c-0.006-0.029,0.055,0.249,0.029,0.131l-0.002-0.001v-0.002l-0.002-0.007l-0.002-0.014l-0.006-0.028l-0.014-0.056
									l-0.023-0.112l-0.049-0.224c-0.059-0.196-0.037-0.146-0.107-0.353C428.277,36.22,428.146,35.923,427.976,35.622"/>
								<line fill="none" x1="428.615" y1="37.402" x2="428.615" y2="37.402"/>
								<path fill="#FAC836" d="M427.976,35.622c0.174,0.3,0.309,0.596,0.414,0.891c0.072,0.205,0.055,0.155,0.113,0.351
									l0.051,0.225l0.025,0.111l0.014,0.057l0.006,0.027l0.004,0.015l0.002,0.007v0.002v0.001
									c0.023,0.117-0.033-0.159-0.027-0.131v0.002l0.037,0.226l-0.037-0.226v-0.002c-0.006-0.028,0.053,0.248,0.027,0.131v-0.001
									v-0.002l-0.002-0.007l-0.004-0.015l-0.006-0.027l-0.014-0.057l-0.025-0.111l-0.051-0.225
									c-0.061-0.194-0.041-0.146-0.113-0.351C428.285,36.217,428.15,35.921,427.976,35.622"/>
								<line fill="none" x1="428.615" y1="37.402" x2="428.615" y2="37.402"/>
								<line fill="none" x1="376.703" y1="21.917" x2="376.703" y2="21.917"/>
								<line fill="none" x1="376.703" y1="21.917" x2="376.703" y2="21.917"/>
								<polyline fill="#FBD35E" points="376.703,21.917 380.259,22.07 383.041,22.269 378.517,22.007 376.703,21.917 								"/>
								<line fill="none" x1="379.419" y1="22.015" x2="379.419" y2="22.015"/>
								<line fill="none" x1="379.419" y1="22.015" x2="379.419" y2="22.015"/>
								<polyline fill="#FBD35E" points="379.419,22.015 380.259,22.07 379.419,22.015 								"/>
								<path fill="#FBD35E" d="M381.841,22.153c3.416,0.188,6.824,0.442,10.213,0.781c-1.795-0.17-3.598-0.314-5.4-0.44
									C385.052,22.363,383.449,22.253,381.841,22.153"/>
								<line fill="none" x1="383.041" y1="22.269" x2="383.041" y2="22.269"/>
								<line fill="none" x1="428.587" y1="37.406" x2="428.587" y2="37.406"/>
								<line fill="none" x1="428.587" y1="37.406" x2="428.587" y2="37.406"/>
								<path fill="#FAC836" d="M428.587,37.406c0.033,0.305,0.039,0.612,0.016,0.937C428.626,38.018,428.623,37.711,428.587,37.406
									"/>
								<line fill="none" x1="428.587" y1="37.406" x2="428.587" y2="37.406"/>
								<line fill="none" x1="379.419" y1="22.015" x2="379.419" y2="22.015"/>
								<line fill="none" x1="379.419" y1="22.015" x2="379.419" y2="22.015"/>
								<polyline fill="#FBD35E" points="379.419,22.015 381.841,22.153 379.419,22.015 								"/>
								<path fill="#FBD35E" d="M380.259,22.07l1.582,0.083c1.607,0.1,3.211,0.21,4.812,0.341l2.695,0.282
									c-2.098-0.196-4.199-0.363-6.309-0.507c2.107,0.144,4.211,0.311,6.309,0.507c-2.098-0.196-4.199-0.363-6.309-0.507
									L380.259,22.07"/>
								<polyline fill="#FAC836" points="379.419,22.015 381.841,22.153 380.259,22.07 379.419,22.015 								"/>
								<path fill="#FAC836" d="M381.841,22.153c1.607,0.1,3.211,0.21,4.812,0.341C385.052,22.363,383.449,22.253,381.841,22.153"/>
								<line fill="none" x1="389.349" y1="22.776" x2="389.349" y2="22.776"/>
								<line fill="none" x1="389.349" y1="22.776" x2="389.349" y2="22.776"/>
								<line fill="none" x1="383.041" y1="22.269" x2="383.041" y2="22.269"/>
								<path fill="#FAC836" d="M383.041,22.269c2.109,0.144,4.211,0.311,6.309,0.507C387.251,22.58,385.15,22.413,383.041,22.269"
									/>
								<line fill="none" x1="386.654" y1="22.494" x2="386.654" y2="22.494"/>
								<line fill="none" x1="386.654" y1="22.494" x2="386.654" y2="22.494"/>
								<line fill="none" x1="386.654" y1="22.494" x2="386.654" y2="22.494"/>
								<line fill="none" x1="386.654" y1="22.494" x2="386.654" y2="22.494"/>
								<path fill="#FBD35E" d="M386.654,22.494c1.805,0.126,3.605,0.271,5.4,0.44l2.682,0.353
									C392.052,22.967,389.357,22.709,386.654,22.494"/>
								<line fill="none" x1="392.054" y1="22.934" x2="392.054" y2="22.934"/>
								<line fill="none" x1="392.054" y1="22.934" x2="392.054" y2="22.934"/>
								<polyline fill="#FAC836" points="392.054,22.934 394.736,23.287 392.054,22.934 								"/>
								<path fill="#FAC836" d="M386.654,22.494c1.805,0.126,3.605,0.271,5.4,0.44C390.259,22.764,388.458,22.62,386.654,22.494"/>
								<line fill="none" x1="392.054" y1="22.934" x2="392.054" y2="22.934"/>
								<line fill="none" x1="386.654" y1="22.494" x2="386.654" y2="22.494"/>
								<line fill="none" x1="386.654" y1="22.494" x2="386.654" y2="22.494"/>
								<path fill="#FBD35E" d="M386.654,22.494c2.703,0.215,5.398,0.474,8.082,0.793c1.484,0.215,2.965,0.446,4.438,0.699
									c-2.953-0.45-5.932-0.825-8.924-1.135l-0.9-0.075L386.654,22.494"/>
								<line fill="none" x1="394.736" y1="23.287" x2="394.736" y2="23.287"/>
								<line fill="none" x1="399.173" y1="23.986" x2="399.173" y2="23.986"/>
								<line fill="none" x1="386.654" y1="22.494" x2="386.654" y2="22.494"/>
								<line fill="none" x1="386.654" y1="22.494" x2="386.654" y2="22.494"/>
								<path fill="#FAC836" d="M386.654,22.494c2.703,0.215,5.398,0.474,8.082,0.793C392.052,22.967,389.357,22.709,386.654,22.494
									"/>
								<line fill="none" x1="394.736" y1="23.287" x2="394.736" y2="23.287"/>
								<line fill="none" x1="394.736" y1="23.287" x2="394.736" y2="23.287"/>
								<polyline fill="#FAC836" points="415.443,27.925 417.066,28.457 415.443,27.925 								"/>
								<line fill="none" x1="389.349" y1="22.776" x2="389.349" y2="22.776"/>
								<line fill="none" x1="417.066" y1="28.457" x2="417.066" y2="28.457"/>
								<line fill="none" x1="417.066" y1="28.457" x2="417.066" y2="28.457"/>
								<path fill="#FBD35E" d="M417.066,28.457c0.533,0.185,1.061,0.376,1.584,0.575c2.059,0.858,4.02,1.847,5.666,2.988
									C422.242,30.606,419.71,29.435,417.066,28.457"/>
								<path fill="#FAC836" d="M417.066,28.457c0.533,0.185,1.061,0.376,1.584,0.575C418.126,28.833,417.599,28.64,417.066,28.457"
									/>
								<line fill="none" x1="418.65" y1="29.032" x2="418.65" y2="29.032"/>
								<path fill="#FAC836" d="M418.65,29.032c2.059,0.858,4.02,1.847,5.666,2.988C422.667,30.878,420.708,29.89,418.65,29.032"/>
								<line fill="none" x1="418.65" y1="29.032" x2="418.65" y2="29.032"/>
								<line fill="none" x1="424.316" y1="32.02" x2="424.316" y2="32.02"/>
								<line fill="none" x1="407.917" y1="25.678" x2="407.917" y2="25.678"/>
								<line fill="none" x1="407.917" y1="25.678" x2="407.917" y2="25.678"/>
								<path fill="#FBD35E" d="M407.917,25.678c1.725,0.384,3.43,0.812,5.104,1.293l-1.689-0.411
									C410.207,26.245,409.066,25.955,407.917,25.678"/>
								<line fill="none" x1="389.349" y1="22.776" x2="389.349" y2="22.776"/>
								<line fill="none" x1="389.349" y1="22.776" x2="389.349" y2="22.776"/>
								<path fill="#FBD35E" d="M389.349,22.776l0.9,0.075c5.979,0.641,11.92,1.513,17.668,2.827
									C401.88,24.307,395.634,23.417,389.349,22.776"/>
								<polyline fill="#FAC836" points="389.349,22.776 390.25,22.851 389.349,22.776 390.25,22.851 389.349,22.776 								"/>
								<polyline fill="#FAC52B" points="389.349,22.776 390.25,22.851 389.349,22.776 								"/>
								<line fill="none" x1="407.917" y1="25.678" x2="407.917" y2="25.678"/>
								<path fill="#FBD35E" d="M420.042,58.199c-3.826,2.685-7.814,5.07-11.877,7.287c4.59-2.537,9.096-5.271,13.359-8.432
									L420.042,58.199"/>
								<line fill="none" x1="408.167" y1="65.486" x2="408.167" y2="65.486"/>
								<path fill="#FBD35E" d="M414.716,61.968c-3.734,2.225-7.562,4.248-11.438,6.146c4.949-2.493,9.82-5.181,14.504-8.247
									C416.771,60.585,415.75,61.287,414.716,61.968"/>
								<line fill="none" x1="403.279" y1="68.114" x2="403.279" y2="68.114"/>
								<line fill="none" x1="406.324" y1="67.891" x2="406.324" y2="67.891"/>
								<line fill="none" x1="406.324" y1="67.891" x2="406.324" y2="67.891"/>
								<path fill="#FBD35E" d="M406.324,67.891c-11.445,6.229-22.543,10.916-32.062,14.457c5.449-2.124,10.859-4.362,16.207-6.763
									l-0.842,0.383C395.269,73.48,400.857,70.828,406.324,67.891"/>
								<line fill="none" x1="390.468" y1="75.586" x2="390.468" y2="75.586"/>
								<line fill="none" x1="390.468" y1="75.586" x2="390.468" y2="75.586"/>
								<line fill="none" x1="374.261" y1="82.348" x2="374.261" y2="82.348"/>
								<line fill="none" x1="406.324" y1="67.891" x2="406.324" y2="67.891"/>
								<line fill="none" x1="406.324" y1="67.891" x2="406.324" y2="67.891"/>
								<path fill="#FBD35E" d="M406.324,67.891c-5.467,2.937-11.055,5.589-16.697,8.077l0.842-0.383
									C395.828,73.211,401.126,70.677,406.324,67.891"/>
								<line fill="none" x1="406.324" y1="67.891" x2="406.324" y2="67.891"/>
								<path fill="#FAC836" d="M406.324,67.891c-5.467,2.937-11.055,5.589-16.697,8.077
									C395.269,73.48,400.857,70.828,406.324,67.891"/>
								<line fill="none" x1="389.625" y1="75.969" x2="389.625" y2="75.969"/>
								<path fill="#FBD35E" d="M411.568,63.956c-1.35,0.762-2.709,1.5-4.076,2.22c2.439-1.333,4.854-2.73,7.225-4.207
									C413.673,62.644,412.625,63.308,411.568,63.956"/>
								<line fill="none" x1="407.492" y1="66.175" x2="407.492" y2="66.175"/>
								<line fill="none" x1="434.287" y1="34.414" x2="434.287" y2="34.414"/>
								<path fill="#FBD35E" d="M434.287,34.414c0.727,2.032,0.768,4.295,0.283,6.312C435.052,38.709,435.013,36.446,434.287,34.414
									"/>
								<path fill="#FDE7A6" d="M250.751,29.455l-4.5,0.923l-6.275,1.431c9.945-1.793,19.915-3.445,31.71-5.266l-3.644,0.477
									c12.697-2.024,21.828-3.054,32.771-4.304C285.274,24.212,265.278,27.17,250.751,29.455 M268.042,27.018L268.042,27.018"/>
								<line fill="none" x1="271.686" y1="26.543" x2="271.686" y2="26.543"/>
								<line fill="none" x1="300.816" y1="22.715" x2="300.816" y2="22.715"/>
								<line fill="none" x1="319.958" y1="20.443" x2="319.958" y2="20.443"/>
								<polyline fill="#FBD35E" points="319.958,20.443 323.623,20.144 319.958,20.443 								"/>
								<line fill="none" x1="271.686" y1="26.543" x2="271.686" y2="26.543"/>
								<polyline fill="#FBD35E" points="271.686,26.543 277.134,25.722 271.686,26.543 								"/>
								<line fill="none" x1="314.468" y1="20.888" x2="314.468" y2="20.888"/>
								<polyline fill="#FBD35E" points="314.468,20.888 319.958,20.443 314.468,20.888 								"/>
								<path fill="#FBD35E" d="M434.095,36.603c0.279,2.007-0.082,4.033-0.791,5.837c-0.738,1.804-1.787,3.413-2.955,4.889
									c1.146-1.49,2.17-3.113,2.881-4.916c0.715-1.791,1.082-3.804,0.812-5.803L434.095,36.603"/>
								<path fill="#FBD35E" d="M434.15,36.595c0.262,2.021-0.119,4.048-0.846,5.845c0.709-1.804,1.07-3.83,0.791-5.837
									L434.15,36.595"/>
								<line fill="none" x1="433.304" y1="42.44" x2="433.304" y2="42.44"/>
								<line fill="none" x1="433.986" y1="34.52" x2="433.986" y2="34.52"/>
								<line fill="none" x1="433.986" y1="34.52" x2="433.986" y2="34.52"/>
								<path fill="#FBD35E" d="M433.986,34.52c0.555,1.639,0.68,3.455,0.402,5.125c-0.338,2.021-1.152,3.858-2.16,5.502
									c-1.01,1.648-2.219,3.124-3.506,4.495c1.588-1.731,3.047-3.632,4.143-5.806c1.082-2.154,1.77-4.692,1.416-7.262
									c-0.012-0.324-0.055-0.723-0.09-1.008C434.142,35.241,434.07,34.843,433.986,34.52"/>
								<line fill="none" x1="428.722" y1="49.642" x2="428.722" y2="49.642"/>
								<path fill="#FBD35E" d="M434.009,34.511c0.549,1.646,0.664,3.465,0.379,5.134c0.275-1.67,0.15-3.486-0.402-5.125
									L434.009,34.511"/>
								<line fill="none" x1="434.388" y1="39.645" x2="434.388" y2="39.645"/>
								<line fill="none" x1="433.685" y1="33.511" x2="433.685" y2="33.511"/>
								<line fill="none" x1="433.685" y1="33.511" x2="433.685" y2="33.511"/>
								<path fill="#FBD35E" d="M433.685,33.511c0.246,0.573,0.451,1.111,0.611,1.766c0.133,0.546,0.252,1.188,0.289,1.789
									c0.092,1.224-0.031,2.444-0.316,3.597c-0.57,2.314-1.715,4.343-3.023,6.149c1.473-2.077,2.729-4.458,3.145-7.167
									c0.283-1.669,0.168-3.488-0.379-5.134C433.923,34.171,433.806,33.841,433.685,33.511"/>
								<line fill="none" x1="431.246" y1="46.812" x2="431.246" y2="46.812"/>
								<line fill="none" x1="434.042" y1="36.61" x2="434.042" y2="36.61"/>
								<path fill="#FDE7A6" d="M434.042,36.61c0.27,1.999-0.1,4.012-0.812,5.803c-0.711,1.803-1.734,3.426-2.881,4.916
									c1.168-1.476,2.217-3.085,2.955-4.889c-0.971,2.5-2.57,4.758-4.389,6.826c-1.832,2.062-3.902,3.953-6.07,5.701
									c-4.342,3.494-9.039,6.463-13.445,8.974c4.656-2.791,9.215-5.779,13.434-9.228c1.807-1.486,3.549-3.062,5.154-4.784
									c1.602-1.722,3.074-3.597,4.207-5.709c1.115-2.099,1.875-4.522,1.66-7.003c-0.049-0.614-0.168-1.23-0.326-1.812
									c-0.168-0.615-0.389-1.181-0.66-1.735c-0.537-1.107-1.266-2.104-2.088-2.99C432.367,32.236,433.634,34.29,434.042,36.61"/>
								<path fill="#FACD49" d="M434.042,36.61c0.27,1.999-0.1,4.012-0.812,5.803c-0.711,1.803-1.734,3.426-2.881,4.916
									c1.146-1.49,2.17-3.113,2.881-4.916C433.945,40.622,434.312,38.609,434.042,36.61"/>
								<line fill="none" x1="430.349" y1="47.329" x2="430.349" y2="47.329"/>
								<line fill="none" x1="433.304" y1="42.44" x2="433.304" y2="42.44"/>
								<line fill="none" x1="433.304" y1="42.44" x2="433.304" y2="42.44"/>
								<path fill="#FBD35E" d="M427.093,27.727c1.465,0.973,2.877,2.118,4.051,3.527c1.178,1.396,2.078,3.101,2.422,4.941
									c0.346,1.842,0.119,3.742-0.471,5.456c-0.58,1.726-1.479,3.288-2.488,4.707c-2.037,2.841-4.498,5.152-6.885,7.138
									c-2.398,1.98-4.762,3.627-6.891,4.986c0.834-0.572,1.635-1.149,2.424-1.727c3.807-2.816,7.17-5.679,9.873-8.925
									c1.34-1.625,2.516-3.354,3.324-5.249c0.814-1.881,1.229-3.974,0.918-6.026c-0.291-2.057-1.316-3.968-2.711-5.52
									c-1.391-1.569-3.111-2.833-4.963-3.922c-3.729-2.157-7.99-3.65-12.672-4.854l-1.5-0.369
									c2.229,0.593,4.777,1.334,7.426,2.324c2.641,0.991,5.395,2.23,7.889,3.898c2.473,1.651,4.717,3.847,5.711,6.488
									c1.033,2.637,0.602,5.392-0.268,7.448c0.668-1.675,0.99-3.486,0.768-5.258c-0.219-1.774-0.986-3.438-2.07-4.844
									c-2.207-2.818-5.346-4.688-8.494-6.185c-6.398-2.926-13.207-4.475-19.996-5.688c4.25,0.647,8.482,1.475,12.639,2.64
									C419.269,23.902,423.39,25.372,427.093,27.727"/>
								<line fill="none" x1="432.283" y1="42.054" x2="432.283" y2="42.054"/>
								<line fill="none" x1="429.625" y1="46.787" x2="429.625" y2="46.787"/>
								<line fill="none" x1="429.625" y1="46.787" x2="429.625" y2="46.787"/>
								<path fill="#FBD35E" d="M429.625,46.787c-1.984,2.502-4.359,4.663-6.848,6.655c-2.498,1.985-5.137,3.795-7.844,5.489
									c2.299-1.484,4.545-3.049,6.693-4.734C424.539,52.013,427.32,49.619,429.625,46.787"/>
								<polyline fill="#FBD35E" points="392.365,70.949 389.873,72.082 389.033,72.435 392.365,70.949 								"/>
								<path fill="#FBD35E" d="M407.111,63.635c-1.336,0.73-2.684,1.444-4.037,2.143c-3.521,1.82-7.098,3.534-10.709,5.171
									l-2.492,1.133C395.728,69.494,401.503,66.719,407.111,63.635 M403.074,65.778c-3.521,1.82-7.098,3.534-10.709,5.171
									C395.976,69.312,399.552,67.598,403.074,65.778"/>
								<line fill="none" x1="389.873" y1="72.082" x2="389.873" y2="72.082"/>
								<line fill="none" x1="421.626" y1="54.197" x2="421.626" y2="54.197"/>
								<line fill="none" x1="421.626" y1="54.197" x2="421.626" y2="54.197"/>
								<path fill="#FBD35E" d="M421.626,54.197c-2.148,1.687-4.395,3.25-6.693,4.734c-3.83,2.478-7.811,4.729-11.859,6.847
									c-3.521,1.82-7.098,3.534-10.709,5.171l-3.332,1.486l0.84-0.354c-5.326,2.279-10.719,4.405-16.154,6.413
									c6.236-2.463,12.41-5.076,18.477-7.906C401.406,66.589,412.916,60.828,421.626,54.197"/>
								<path fill="#FAC836" d="M421.626,54.197c-2.148,1.687-4.395,3.25-6.693,4.734C417.232,57.447,419.478,55.883,421.626,54.197
									"/>
								<line fill="none" x1="414.933" y1="58.931" x2="414.933" y2="58.931"/>
								<line fill="none" x1="392.365" y1="70.949" x2="392.365" y2="70.949"/>
								<line fill="none" x1="392.365" y1="70.949" x2="392.365" y2="70.949"/>
								<polyline fill="#FAC836" points="392.365,70.949 389.033,72.435 392.365,70.949 								"/>
								<line fill="none" x1="389.033" y1="72.435" x2="389.033" y2="72.435"/>
								<path fill="#FAC836" d="M403.074,65.778c-3.521,1.82-7.098,3.534-10.709,5.171
									C395.976,69.312,399.552,67.598,403.074,65.778"/>
								<line fill="none" x1="389.873" y1="72.082" x2="389.873" y2="72.082"/>
								<line fill="none" x1="403.074" y1="65.778" x2="403.074" y2="65.778"/>
								<path fill="#FAC836" d="M403.074,65.778c-3.521,1.82-7.098,3.534-10.709,5.171
									C395.976,69.312,399.552,67.598,403.074,65.778"/>
								<line fill="none" x1="387.146" y1="72.705" x2="387.146" y2="72.705"/>
								<line fill="none" x1="387.146" y1="72.705" x2="387.146" y2="72.705"/>
								<path fill="#FBD35E" d="M387.146,72.705c-9.201,4.033-17.773,7.242-24.709,9.567c6.855-2.551,13.648-5.254,20.34-8.17
									l-2.455,1.221C382.607,74.475,384.88,73.604,387.146,72.705"/>
								<line fill="none" x1="187.442" y1="126.966" x2="187.442" y2="126.966"/>
								<line fill="none" x1="187.442" y1="126.966" x2="187.442" y2="126.966"/>
								<polyline fill="#FBD35E" points="187.442,126.966 179.166,127.597 181.911,127.274 187.442,126.966 								"/>
								<path fill="#FBCF50" d="M163.38,47.813c17.913-4.517,32.414-7.27,44.251-9.113c-8.944,2.101-17.855,4.351-26.722,6.766
									c-14.369,3.846-28.628,8.111-39.228,11.488c-10.603,3.359-17.579,5.742-17.558,5.236c0.008-0.142,0.593-0.518,1.836-1.144
									C138.87,56.001,151.955,51.465,163.38,47.813"/>
								<line fill="none" x1="207.631" y1="38.7" x2="207.631" y2="38.7"/>
								<path fill="#FBD35E" d="M64.6,96.125c0.866-1.025,1.777-1.981,2.716-2.889c-2.342,2.506-3.51,4.178-4.821,6.551
									c-0.623,1.211-1.31,2.615-1.783,4.661c-0.439,2.022-0.679,4.861,0.808,8.062c-0.151-0.244-0.331-0.579-0.513-1.003
									c-0.17-0.354-0.413-1.127-0.512-1.497c-0.327-1.269-0.458-2.756-0.254-4.417C60.638,102.261,62.458,98.883,64.6,96.125"/>
								<line fill="none" x1="93.568" y1="74.873" x2="93.568" y2="74.873"/>
								<path fill="#FCDC80" d="M93.568,74.873c6.806-3.144,15.781-7.168,25.324-11.021l7.068-2.806
									c-1.243,0.626-1.828,1.002-1.836,1.144c-0.021,0.506,6.955-1.877,17.558-5.236c10.6-3.377,24.858-7.644,39.228-11.488
									c-21.957,6.03-43.698,12.972-64.771,21.699c-7.021,2.925-13.95,6.06-20.724,9.544c-4.904,2.527-9.724,5.236-14.359,8.262
									c-4.614,3.043-9.108,6.356-12.954,10.438c-1.904,2.047-3.651,4.311-4.835,6.938c-0.578,1.314-1.007,2.726-1.136,4.196
									c-0.129,1.479,0.05,2.96,0.562,4.369c1.022,2.815,3.182,4.951,5.484,6.562c2.329,1.624,4.886,2.815,7.485,3.812
									c-0.843-0.405-1.67-0.843-2.483-1.299c-2.414-1.117-4.771-2.469-6.782-4.297c-1.001-0.913-1.899-1.961-2.599-3.146
									c-0.692-1.188-1.16-2.522-1.317-3.896c-0.326-2.697,0.554-5.354,1.824-7.62c1.285-2.287,2.965-4.291,4.762-6.126
									c1.128-1.15,2.313-2.226,3.522-3.256c3.652-3.08,7.562-5.743,11.514-8.175c3.956-2.429,7.968-4.618,11.951-6.641
									c7.959-4.027,15.799-7.392,23.171-10.26C107.878,71.35,96.269,76.67,85.323,83.24c-3.621,2.189-7.159,4.532-10.491,7.13
									c-3.313,2.605-6.481,5.452-8.945,8.858c-1.807,2.537-3.267,5.529-3.143,8.714c0.058,1.571,0.525,3.12,1.313,4.474
									c0.786,1.354,1.846,2.528,3.021,3.533c2.365,2.016,5.124,3.441,7.911,4.614c2.8,1.166,5.667,2.065,8.527,2.825
									c5.729,1.501,11.435,2.451,16.964,3.174c5.532,0.715,10.899,1.177,16.035,1.513c7.355,0.486,18.419,0.637,29.457,0.26
									c-5.212,0.177-10.43,0.266-15.648,0.25l-1.845,0.235c7.065,0.219,14.137,0.236,21.205,0.108l-5.526,0.162
									c-6.76,0.17-13.526,0.197-20.294,0.023c-6.152-0.154-12.306-0.472-18.448-1.041c-3.801-0.356-7.603-0.796-11.408-1.364
									l-0.005-0.001c-5.942-0.913-11.956-2.072-17.97-4.197c-2.994-1.083-6.009-2.407-8.822-4.408
									c-1.398-1.003-2.742-2.202-3.864-3.692c-0.56-0.744-1.055-1.567-1.444-2.458c-0.196-0.458-0.361-0.875-0.51-1.406
									c-0.085-0.279-0.126-0.471-0.172-0.667l-0.036-0.15l-0.043-0.233l-0.063-0.365l0.104,0.625l0.104,0.477
									c0.103,0.404,0.225,0.815,0.354,1.167c0.266,0.732,0.604,1.432,0.997,2.085c0.782,1.315,1.779,2.435,2.845,3.413
									c2.151,1.944,4.585,3.34,7.055,4.498c2.444,1.183,3.652,1.639,3.864,1.812c0.224,0.163-0.731-0.056-2.474-0.68
									c-1.734-0.642-4.282-1.652-7.069-3.54c-1.382-0.957-2.832-2.146-4.104-3.746c-0.633-0.798-1.214-1.698-1.683-2.695
									c-0.231-0.516-0.429-0.993-0.608-1.588l-0.132-0.454l-0.081-0.326l-0.038-0.157l-0.056-0.268l-0.074-0.419
									c-0.374-2.256-0.044-4.553,0.625-6.499c0.672-1.962,1.628-3.65,2.63-5.109c0.405-0.556,0.828-1.085,1.261-1.601
									c-2.143,2.759-3.962,6.138-4.359,9.469c-0.204,1.661-0.073,3.149,0.254,4.417c0.099,0.37,0.342,1.144,0.512,1.497
									c0.182,0.424,0.361,0.759,0.513,1.003c-1.486-3.2-1.247-6.039-0.808-8.062c0.474-2.046,1.16-3.45,1.783-4.661
									c1.312-2.373,2.479-4.044,4.821-6.551c0.988-0.855,2.002-1.658,3.03-2.423c3.418-2.882,7.056-5.353,10.772-7.637
									c-2.619,1.976,0.72-0.197,4.66-2.432c3.938-2.247,8.489-4.526,7.755-3.933c6.595-3.36,13.34-6.373,20.159-9.179
									c3.623-1.684,7.273-3.31,10.947-4.878c-7.812,2.797-15.75,5.964-21.619,8.446C97.148,73.671,93.319,75.404,93.568,74.873"/>
								<path fill="#FAC837" d="M124.125,62.19c-0.021,0.506,6.955-1.877,17.558-5.236c10.6-3.377,24.858-7.644,39.228-11.488
									c-14.369,3.846-28.628,8.111-39.228,11.488C131.08,60.313,124.103,62.696,124.125,62.19"/>
								<path fill="#FACA3E" d="M67.316,93.236c-2.342,2.506-3.51,4.178-4.821,6.551c-0.623,1.211-1.31,2.615-1.783,4.661
									c-0.439,2.022-0.679,4.861,0.808,8.062c-1.486-3.2-1.247-6.039-0.808-8.062c0.474-2.046,1.16-3.45,1.783-4.661
									C63.806,97.414,64.974,95.742,67.316,93.236"/>
								<line fill="none" x1="63.339" y1="97.724" x2="63.339" y2="97.724"/>
								<line fill="none" x1="67.316" y1="93.236" x2="67.316" y2="93.236"/>
								<line fill="none" x1="125.96" y1="61.047" x2="125.96" y2="61.047"/>
								<line fill="none" x1="149.685" y1="128.929" x2="149.685" y2="128.929"/>
								<line fill="none" x1="149.685" y1="128.929" x2="149.685" y2="128.929"/>
								<line fill="none" x1="162.591" y1="128.513" x2="162.591" y2="128.513"/>
								<path fill="#FBD35E" d="M162.591,128.513c-4.3,0.189-8.603,0.33-12.906,0.416l-5.526,0.162
									c-6.76,0.17-13.526,0.197-20.294,0.023l-0.926,0.036c5.845,0.189,11.69,0.229,17.532,0.153
									c-6.454,0.151-12.915,0.167-19.38-0.01c7.384,0.387,16.625,0.357,25.844,0.042
									C152.16,129.142,157.378,128.863,162.591,128.513 M151.54,129.084L151.54,129.084 M144.159,129.092
									c-6.76,0.17-13.526,0.197-20.294,0.023C130.632,129.29,137.399,129.261,144.159,129.092 M144.159,129.092L144.159,129.092"
									/>
								<line fill="none" x1="144.159" y1="129.092" x2="144.159" y2="129.092"/>
								<path fill="#FAC836" d="M144.159,129.092c-6.76,0.17-13.526,0.197-20.294,0.023
									C130.632,129.29,137.399,129.261,144.159,129.092"/>
								<path fill="#FBD35E" d="M66.526,93.829l0.79-0.593c-0.938,0.906-1.85,1.862-2.716,2.889
									C65.214,95.322,65.862,94.562,66.526,93.829"/>
								<line fill="none" x1="67.316" y1="93.236" x2="67.316" y2="93.236"/>
								<line fill="none" x1="145.659" y1="58.778" x2="145.659" y2="58.778"/>
								<polyline fill="#FBD35E" points="145.659,58.778 146.586,58.663 145.659,58.778 								"/>
								<path opacity="0.8" fill="#FCE193" enable-background="new    " d="M57.913,102.688c0.672-2.041,1.539-3.578,2.35-4.845
									c0.817-1.265,1.605-2.254,2.316-3.073c1.43-1.629,2.543-2.621,3.345-3.28c1.613-1.294,1.979-1.282,1.817-0.824
									c-0.354,0.903-2.57,3.949-1.215,3.163c-0.664,0.733-1.312,1.493-1.926,2.296c-0.433,0.516-0.855,1.045-1.261,1.601
									c-1.002,1.459-1.958,3.147-2.63,5.109c-0.669,1.946-0.999,4.243-0.625,6.499l0.074,0.419l0.056,0.268l0.038,0.157
									l0.081,0.326l0.132,0.454c0.18,0.595,0.377,1.072,0.608,1.588c0.469,0.997,1.05,1.897,1.683,2.695
									c1.271,1.601,2.722,2.789,4.104,3.746c2.787,1.888,5.335,2.898,7.069,3.54c1.742,0.624,2.697,0.843,2.474,0.68
									c-0.212-0.175-1.42-0.632-3.864-1.812c-2.47-1.158-4.903-2.554-7.055-4.498c-1.065-0.979-2.062-2.098-2.845-3.413
									c-0.393-0.653-0.731-1.353-0.997-2.085c-0.13-0.352-0.252-0.763-0.354-1.167l-0.104-0.477l-0.104-0.625l0.063,0.365
									l0.043,0.233l0.036,0.15c0.046,0.196,0.087,0.388,0.172,0.667c0.148,0.531,0.313,0.948,0.51,1.406
									c0.39,0.891,0.885,1.714,1.444,2.457c1.122,1.491,2.466,2.69,3.864,3.693c2.813,2.001,5.828,3.325,8.822,4.408
									c6.014,2.125,12.027,3.284,17.97,4.197c3.811,0.569,7.612,1.009,11.413,1.365c6.143,0.569,12.296,0.887,18.448,1.041
									l-0.926,0.036c-5.54-0.15-11.081-0.434-16.615-0.921c9.204,1.055,22.164,1.381,34.147,1.074
									c-6.454,0.151-12.915,0.167-19.38-0.01c7.384,0.387,16.625,0.357,25.844,0.042l-2.76,0.232
									c3.694,0.056,7.391,0.065,11.087,0.039c-7.077,0.268-14.161,0.396-21.249,0.341c-2.462,0.113-4.926,0.203-7.393,0.27
									c7.391,0.505,16.673,1.01,31.486,0.506c-9.711,0.365-18.283,0.396-27.783,0.17c-4.75-0.12-9.733-0.311-15.21-0.652
									c-5.476-0.352-11.446-0.828-18.165-1.731l-1.881-0.013c-1.849-0.315-3.695-0.662-5.538-1.055
									c3.2,0.829,8.291,1.73,13.275,2.372c4.984,0.654,9.858,1.092,12.637,1.438c-5.577-0.393-11.155-0.94-16.724-1.743
									c0.448,0.199,2.765,0.599,5.318,0.95l6.738,0.864c-6.887-0.627-10.811-1.386-15.008-2.211
									c-2.099-0.426-4.268-0.876-6.909-1.461c-2.642-0.598-5.759-1.287-9.739-2.471l-0.724-0.222l-1.117-0.36
									c-3.531-1.17-6.598-2.505-9.18-4.062c-2.58-1.542-4.678-3.351-6.146-5.3c-0.731-0.974-1.302-1.968-1.718-2.917
									c-0.208-0.477-0.376-0.914-0.537-1.446l-0.164-0.559l-0.032-0.111l-0.016-0.056l-0.038-0.163l-0.065-0.303
									c-0.345-1.592-0.331-2.739-0.367-3.436c-0.013-0.695-0.053-0.971-0.165-0.864c-0.107,0.105-0.295,0.594-0.435,1.478
									c-0.134,0.874-0.224,2.191,0.046,3.78c0.26,1.629,0.931,3.51,2.067,5.292c-1.476-2.151-2.503-4.968-2.558-7.761
									c-0.102-1.914,0.148-3.307,0.351-4.301c0.221-0.991,0.41-1.623,0.524-2.015c0.228-0.785,0.114-0.665-0.122-0.254
									C58.233,102.402,57.502,104.646,57.913,102.688"/>
								<path fill="#FBD156" d="M76.403,123.207c-0.212-0.175-1.42-0.632-3.864-1.812c-2.47-1.158-4.903-2.554-7.055-4.498
									c-1.065-0.979-2.062-2.098-2.845-3.413c-0.393-0.653-0.731-1.353-0.997-2.085c-0.13-0.352-0.252-0.763-0.354-1.167
									l-0.104-0.477l-0.104-0.625l0.104,0.625l0.104,0.477c0.103,0.404,0.225,0.815,0.354,1.167
									c0.266,0.732,0.604,1.432,0.997,2.085c0.782,1.315,1.779,2.435,2.845,3.413c2.151,1.944,4.585,3.34,7.055,4.498
									C74.983,122.575,76.191,123.032,76.403,123.207"/>
								<path fill="#FBD156" d="M61.079,109.129l0.063,0.365l0.043,0.233l0.036,0.15c0.046,0.196,0.087,0.388,0.172,0.667
									c0.148,0.53,0.313,0.947,0.51,1.405c0.39,0.892,0.885,1.715,1.444,2.458c1.122,1.491,2.466,2.69,3.864,3.693
									c2.813,2.001,5.828,3.325,8.822,4.408c6.014,2.125,12.027,3.284,17.97,4.197c-5.942-0.913-11.956-2.072-17.97-4.197
									c-2.994-1.083-6.009-2.407-8.822-4.408c-1.398-1.003-2.742-2.202-3.864-3.693c-0.56-0.743-1.055-1.566-1.444-2.458
									c-0.196-0.458-0.361-0.875-0.51-1.405c-0.085-0.279-0.126-0.471-0.172-0.667l-0.036-0.15l-0.043-0.233L61.079,109.129"/>
								<path fill="#FACC44" d="M140.471,129.305c-6.454,0.151-12.915,0.167-19.38-0.01
									C127.556,129.472,134.017,129.458,140.471,129.305"/>
								<line fill="none" x1="121.091" y1="129.296" x2="121.091" y2="129.296"/>
								<polyline fill="#FACC44" points="122.939,129.152 123.865,129.116 122.939,129.152 								"/>
								<line fill="none" x1="60.527" y1="115.933" x2="60.527" y2="115.933"/>
								<line fill="none" x1="110.775" y1="131.327" x2="110.775" y2="131.327"/>
								<line fill="none" x1="158.107" y1="130.725" x2="158.107" y2="130.725"/>
								<line fill="none" x1="115.442" y1="131.254" x2="115.442" y2="131.254"/>
								<line fill="none" x1="78.395" y1="124.962" x2="78.395" y2="124.962"/>
								<line fill="none" x1="95.068" y1="128.499" x2="95.068" y2="128.499"/>
								<line fill="none" x1="155.262" y1="129.61" x2="155.262" y2="129.61"/>
								<line fill="none" x1="140.471" y1="129.305" x2="140.471" y2="129.305"/>
								<line fill="none" x1="122.939" y1="129.152" x2="122.939" y2="129.152"/>
								<line fill="none" x1="176.285" y1="126.45" x2="176.285" y2="126.45"/>
								<path opacity="0.8" fill="#FCE193" enable-background="new    " d="M176.285,126.45l3.648-0.397l4.569-0.621l-5.497,0.497
									l5.497-0.497l0.893-0.308c-4.278,0.354-8.559,0.667-12.842,0.937l7.323-0.591c-3.666,0.261-7.335,0.485-11.003,0.683
									c4.584-0.306,9.166-0.657,13.743-1.062l-0.014-0.133l-4.582,0.342c-10.98,0.94-22.904,1.742-33.009,1.925
									c4.705-0.2,9.415-0.448,14.154-0.745c10.019-0.632,20.164-1.483,30.71-2.646l3.642-0.473
									c-13.703,1.482-29.266,2.685-39.364,2.845l2.956-0.172c9.467-0.567,17.502-1.146,25.565-1.848
									c8.062-0.709,16.152-1.546,25.696-2.856l1.519-0.212c-9.121,1.068-23.729,2.606-32.886,3.184
									c14.632-1.155,28.325-2.633,41.983-4.428l1.816-0.277c18.165-2.702,34.437-5.646,50.625-9.021
									c-6.908,1.374-13.832,2.664-20.77,3.869c6.938-1.205,13.86-2.495,20.77-3.869c26.064-5.445,50.15-11.551,74.725-19.282
									c-6.463,1.945-12.953,3.781-19.469,5.519c12.271-3.861,26.271-8.36,37.436-12.629c-18.178,6.48-34.092,11.012-51.82,15.753
									c17.729-4.741,33.643-9.271,51.82-15.753l3.422-1.311c-7.371,2.573-15.865,5.396-24.42,8.022
									c-8.553,2.63-17.164,5.067-24.715,7.021c10.611-2.924,19.477-5.327,31.658-9.389l-3.508,1.061l-5.252,1.682l5.252-1.682
									c11.338-3.701,20.861-7.031,30.289-10.688c10.059-4.49,21.67-10.035,32.674-16.575c1.832-1.088,3.641-2.216,5.412-3.392
									c-3.83,2.479-7.811,4.729-11.859,6.847c1.354-0.697,2.701-1.41,4.037-2.143c-5.605,3.083-11.383,5.857-17.238,8.445
									c-5.326,2.279-10.719,4.405-16.154,6.413c6.236-2.463,12.41-5.076,18.477-7.906c-1.676,0.722-3.357,1.428-5.049,2.116
									c-9.201,4.033-17.771,7.242-24.707,9.567c6.854-2.551,13.646-5.254,20.338-8.17c3.861-1.792,7.688-3.656,11.453-5.61
									l-1.83,0.378c-7.105,3.018-18.736,7.844-33.033,12.99l-2.568,0.923l0.986,0.072l-4.383,1.263
									c-2.555,0.989-5.115,1.961-7.688,2.912l-7.842,2.477c-4.283,1.604-9.953,3.401-16.104,5.167
									c-6.148,1.769-12.787,3.508-18.994,5.082l5.344-1.265c-2.783,0.92-6.172,1.858-9.752,2.762
									c-5.377,1.357-11.158,2.619-15.986,3.681c-3.561,0.738-7.125,1.455-10.694,2.146l-0.964,0.214l0.389-0.104l-0.395,0.076
									c-5.076,1.07-10.154,2.09-15.25,3.069l-8.114,1.397l-4.53,0.702l4.53-0.702l5.407-0.95l-4.522,0.703l9.009-1.612
									c-6.009,1.082-12.02,2.099-18.042,3.051l-6.321,1.017l1.8-0.334l-8.152,1.146c-5.729,0.829-11.465,1.599-17.206,2.302
									c-3.918,0.575-7.84,1.12-11.766,1.633c3.321-0.446,6.64-0.917,9.955-1.408l5.415-0.816
									c-6.029,0.845-12.067,1.619-18.112,2.317l0.892-0.239c-7.264,0.802-16.34,1.726-25.425,2.446l-0.899,0.073
									c-5.145,0.454-10.293,0.842-15.442,1.154c4.542-0.297,9.082-0.653,13.619-1.062l-0.923-0.168
									c-8.743,0.691-18.074,1.354-27.519,1.563c-2.323,0.052-4.654,0.077-6.983,0.066l1.808,0.04
									c-4.534,0.054-9.062,0.028-13.58-0.094c-7.682-0.122-15.119-0.498-22.262-1.289c1.994,0.321,4.002,0.604,6.018,0.857
									c-2.016-0.254-4.023-0.536-6.018-0.857c-6.414-0.718-12.59-1.756-18.171-3.417c-2.776-0.838-5.409-1.837-7.672-3.082
									c-2.261-1.232-4.126-2.753-5.094-4.359c-0.242-0.391-0.446-0.832-0.576-1.193l-0.04-0.107l-0.022-0.053l-0.032-0.126
									l-0.064-0.254l-0.032-0.126c0.008,0.039-0.024-0.109,0.017,0.083l-0.002-0.01l-0.004-0.021l-0.008-0.04
									c-0.048-0.212-0.083-0.426-0.109-0.643c-0.104-0.866-0.006-1.801,0.265-2.77c0.535-1.944,1.74-3.926,3.125-5.72
									c2.833-3.606,6.319-6.604,9.593-9.19c-2.512,1.854-4.925,3.819-7.069,5.933c-2.134,2.104-4.027,4.382-5.232,6.728
									c-1.213,2.356-1.553,4.646-0.871,6.529c0.646,1.899,2.312,3.572,4.282,4.879c2.967,1.996,6.647,3.404,10.417,4.512
									c3.792,1.104,7.747,1.911,11.766,2.555c8.049,1.273,16.358,1.914,24.854,2.251l5.631,0.171
									c-6.36,0.011-12.715-0.157-19.032-0.61l0.901,0.084c-1.506-0.083-3.011-0.181-4.514-0.298l3.612,0.214
									c-7.196-0.688-13.902-1.641-20.107-3.159c-3.095-0.763-6.068-1.67-8.811-2.829c-2.724-1.159-5.271-2.584-7.092-4.391
									c-1.836-1.807-2.732-3.89-2.472-6.199c0.238-2.322,1.581-4.808,3.343-7.053c3.597-4.528,8.603-8.38,14.018-11.949
									c-1.23,0.855-2.44,1.732-3.624,2.636c6.142-4.478,12.854-8.316,19.711-11.855c6.87-3.532,13.933-6.739,21.086-9.744
									c5.271-2.395,10.602-4.677,15.978-6.864c-4.599,1.644-9.171,3.354-13.71,5.147c2.532-1.06,5.076-2.094,7.631-3.104
									c1.105-0.477,5.51-2.172,5.932-2.387c0.266-0.134-1.126,0.297-6.066,2.119c-2.469,0.916-5.822,2.187-10.267,3.983
									c-4.439,1.809-9.98,4.129-16.723,7.332c-4.674,2.244-9.279,4.623-13.765,7.199c7.488-4.382,14.898-8.02,21.868-11.231
									c6.976-3.206,13.53-5.97,19.477-8.411c-3.751,1.328-7.484,2.709-11.198,4.144c-11.339,4.774-22.956,10.097-33.902,16.669
									c-3.619,2.188-7.157,4.529-10.49,7.128c-3.313,2.605-6.482,5.453-8.946,8.859c-1.807,2.537-3.267,5.529-3.143,8.714
									c0.058,1.571,0.525,3.12,1.313,4.474c0.786,1.354,1.846,2.528,3.021,3.534c2.365,2.015,5.124,3.44,7.911,4.613
									c2.8,1.166,5.667,2.065,8.527,2.825c5.729,1.501,11.435,2.451,16.964,3.174c5.532,0.715,10.899,1.177,16.035,1.514
									c7.355,0.485,18.419,0.636,29.457,0.259l1.842-0.071l-5.524,0.061c2.761-0.046,5.521-0.115,8.28-0.207
									c-4.297,0.059-8.594,0.06-12.888-0.003c5.521,0.022,11.041-0.064,16.561-0.235l2.756-0.208
									c-4.601,0.181-9.203,0.304-13.806,0.358c5.215-0.082,10.428-0.253,15.639-0.495l3.668-0.349
									C167.096,126.994,171.692,126.749,176.285,126.45 M346.777,90.242L346.777,90.242 M346.777,90.242L346.777,90.242
									 M305.207,101.82c13.355-3.332,24.945-6.244,41.57-11.578C330.152,95.577,318.562,98.488,305.207,101.82l-5.354,1.296
									l-3.564,0.867l3.564-0.867L305.207,101.82l-0.867,0.311c-4.746,1.204-9.502,2.365-14.269,3.481
									c4.767-1.116,9.521-2.277,14.269-3.481L305.207,101.82 M263.31,112.149L263.31,112.149 M263.31,112.149L263.31,112.149
									 M230.739,117.757c12.665-2.104,20.868-3.25,32.571-5.607C251.607,114.507,243.404,115.653,230.739,117.757 M249.787,114.77
									L249.787,114.77 M249.787,114.77L249.787,114.77 M219.86,119.495l-0.908,0.139l-9.091,1.271l9.091-1.271L219.86,119.495
									c10.903-1.571,19.085-2.764,29.927-4.725C238.945,116.731,230.763,117.923,219.86,119.495 M250.66,114.441L250.66,114.441
									 M295.455,104.437l-5.334,1.382L295.455,104.437 M222.591,119.154L222.591,119.154 M230.739,117.757L230.739,117.757
									 M219.86,119.495L219.86,119.495 M312.3,99.931L312.3,99.931 M290.071,105.612L290.071,105.612 M407.111,63.635
									L407.111,63.635 M70.187,96.052c2.683-2.793,5.751-5.268,8.94-7.565c3.197-2.296,6.538-4.413,9.951-6.413
									c-3.413,2-6.754,4.117-9.951,6.413C75.938,90.786,72.87,93.259,70.187,96.052 M70.187,96.052
									c2.683-2.793,5.751-5.268,8.94-7.565c3.197-2.296,6.538-4.413,9.951-6.413c-3.413,2-6.754,4.117-9.951,6.413
									C75.938,90.786,72.87,93.259,70.187,96.052 M70.187,96.052c-0.826,0.854-1.613,1.742-2.341,2.665
									c-0.721,0.927-1.371,1.895-1.936,2.894c-0.563,0.998-1.033,2.033-1.345,3.092c-0.286,1.002-0.424,2.02-0.384,3.015
									l0.021,0.307c0.02,0.249,0.044,0.497,0.09,0.742c0.021,0.111,0.042,0.271,0.064,0.343l0.1,0.426
									c0.118,0.419,0.301,0.92,0.514,1.365c0.459,0.948,1.108,1.822,1.872,2.615c0.759,0.798,1.63,1.521,2.572,2.17
									c0.947,0.646,1.955,1.223,3.003,1.743c1.046,0.521,2.126,0.991,3.229,1.419c0.826,0.322,1.661,0.63,2.509,0.909
									c1.131,0.371,2.277,0.708,3.434,1.018c1.157,0.311,2.325,0.593,3.499,0.854c1.171,0.258,2.349,0.493,3.53,0.711l2.684,0.445
									c1.191,0.19,2.387,0.365,3.585,0.522l2.7,0.294c-6.924-0.875-13.307-2.04-19.118-3.908
									c-2.892-0.946-5.652-2.068-8.081-3.552c-2.408-1.476-4.521-3.361-5.511-5.704c-0.078-0.167-0.13-0.341-0.197-0.511
									c-0.053-0.171-0.099-0.297-0.151-0.493l-0.106-0.431l-0.078-0.406c-0.195-1.219-0.091-2.504,0.257-3.771
									c0.087-0.301,0.178-0.601,0.288-0.897c0.377-1.04,0.887-2.059,1.493-3.034c0.33-0.551,0.698-1.084,1.078-1.611
									C68.287,98.155,69.198,97.09,70.187,96.052 M122.336,66.927l-4.493,1.818l-3.115,1.312l-3.365,1.453l-3.321,1.506
									l-4.144,1.943l-1.958,0.97c-1.774,0.877-3.539,1.782-5.292,2.714l-0.07,0.039l-3.201,1.74l3.201-1.74l-3.201,1.74
									l3.201-1.74l0.027-0.016l-3.229,1.756c1.288-0.722,2.711-1.485,4.165-2.242l2.289-1.169l4.09-2.003l1.3-0.621l3.877-1.787
									l2.298-1.017l2.388-1.058C116.736,69.25,119.641,68.036,122.336,66.927 M122.336,66.927L122.336,66.927 M361.279,81.762
									L361.279,81.762 M357.785,82.855l0.025,0.075l3.469-1.168L357.785,82.855"/>
								<path fill="#FCE193" d="M70.187,96.052c-1.612,1.686-3.098,3.501-4.226,5.472c-1.121,1.961-1.864,4.108-1.779,6.192
									c-0.04-0.995,0.098-2.013,0.384-3.016c0.312-1.058,0.781-2.093,1.345-3.091c0.564-0.999,1.215-1.967,1.936-2.894
									C68.574,97.795,69.361,96.907,70.187,96.052"/>
								<path fill="#FCE193" d="M67.459,99.28c-0.38,0.527-0.748,1.062-1.078,1.611c-0.606,0.978-1.116,1.994-1.493,3.034
									c-0.11,0.298-0.201,0.598-0.288,0.897C65.13,102.898,66.179,101.021,67.459,99.28"/>
								<path fill="#FCE193" d="M64.203,108.022c0.198,3.131,2.442,5.77,5.19,7.626c2.762,1.892,5.97,3.188,9.169,4.229
									c6.447,2.038,12.987,3.054,19.024,3.722l-2.7-0.294c-1.198-0.157-2.394-0.332-3.585-0.522l-2.684-0.445
									c-1.182-0.218-2.359-0.453-3.53-0.711c-1.174-0.261-2.342-0.543-3.499-0.854c-1.156-0.31-2.303-0.646-3.434-1.018
									c-0.848-0.279-1.683-0.587-2.509-0.909c-1.103-0.428-2.183-0.897-3.229-1.419c-1.048-0.521-2.056-1.099-3.003-1.743
									c-0.942-0.647-1.813-1.372-2.572-2.17c-0.764-0.793-1.413-1.667-1.872-2.615c-0.213-0.445-0.396-0.946-0.514-1.364
									l-0.1-0.427c-0.022-0.072-0.043-0.23-0.064-0.343C64.247,108.519,64.222,108.271,64.203,108.022"/>
								<path fill="#FCE193" d="M64.343,108.594L64.421,109l0.106,0.431c0.053,0.196,0.099,0.322,0.151,0.493
									c0.067,0.17,0.119,0.344,0.197,0.511c-0.128-0.297-0.231-0.604-0.313-0.87c-0.046-0.146-0.091-0.357-0.136-0.534
									L64.343,108.594"/>
								<polyline fill="#FBD462" points="270.721,107.293 271.11,107.189 271.685,107.079 270.721,107.293 								"/>
								<line fill="none" x1="104.118" y1="122.129" x2="104.118" y2="122.129"/>
								<path fill="#FACC44" d="M104.118,122.129c-2.016-0.254-4.023-0.536-6.018-0.857
									C100.094,121.593,102.102,121.876,104.118,122.129"/>
								<line fill="none" x1="407.111" y1="63.635" x2="407.111" y2="63.635"/>
								<line fill="none" x1="407.111" y1="63.635" x2="407.111" y2="63.635"/>
								<path fill="#FACC44" d="M407.111,63.635c-1.336,0.73-2.684,1.444-4.037,2.143C404.427,65.081,405.775,64.367,407.111,63.635
									"/>
								<path fill="#FACC44" d="M392.195,70.588c-6.066,2.83-12.24,5.443-18.479,7.906
									C379.955,76.032,386.126,73.419,392.195,70.588"/>
								<line fill="none" x1="373.716" y1="78.495" x2="373.716" y2="78.495"/>
								<path fill="#FACC44" d="M362.437,82.272c6.855-2.551,13.648-5.254,20.34-8.17C376.085,77.018,369.292,79.721,362.437,82.272
									"/>
								<path fill="#FACC45" d="M70.187,96.052c-0.826,0.854-1.613,1.742-2.341,2.665c-0.721,0.927-1.371,1.895-1.936,2.894
									c-0.563,0.998-1.033,2.033-1.345,3.092c-0.286,1.002-0.424,2.02-0.384,3.015c-0.04-0.995,0.098-2.013,0.384-3.015
									c0.312-1.059,0.781-2.094,1.345-3.092c0.564-0.999,1.215-1.967,1.936-2.894C68.574,97.795,69.361,96.907,70.187,96.052"/>
								<path fill="#FACC45" d="M67.459,99.28c-0.38,0.527-0.748,1.062-1.078,1.611c-0.606,0.978-1.116,1.994-1.493,3.034
									c-0.11,0.298-0.201,0.598-0.288,0.897c0.087-0.301,0.178-0.601,0.288-0.897c0.377-1.04,0.887-2.059,1.493-3.034
									C66.711,100.341,67.08,99.807,67.459,99.28"/>
								<path fill="#FACC45" d="M64.203,108.022c0.02,0.249,0.044,0.497,0.09,0.742c0.021,0.111,0.042,0.27,0.064,0.343l0.1,0.426
									c0.118,0.419,0.301,0.92,0.514,1.365c0.459,0.948,1.108,1.822,1.872,2.615c0.759,0.798,1.63,1.521,2.572,2.17
									c0.947,0.646,1.955,1.223,3.003,1.743c1.046,0.521,2.126,0.991,3.229,1.419c0.826,0.322,1.661,0.63,2.509,0.909
									c1.131,0.371,2.277,0.708,3.434,1.018c1.157,0.311,2.325,0.593,3.499,0.854c1.171,0.258,2.349,0.492,3.53,0.711l2.684,0.445
									c1.191,0.19,2.387,0.365,3.585,0.522l2.7,0.294l-2.7-0.294c-1.198-0.157-2.394-0.332-3.585-0.522l-2.684-0.445
									c-1.182-0.219-2.359-0.453-3.53-0.711c-1.174-0.261-2.342-0.543-3.499-0.854c-1.156-0.31-2.303-0.646-3.434-1.018
									c-0.848-0.279-1.683-0.587-2.509-0.909c-1.103-0.428-2.183-0.897-3.229-1.419c-1.048-0.521-2.056-1.099-3.003-1.743
									c-0.942-0.647-1.813-1.372-2.572-2.17c-0.764-0.793-1.413-1.667-1.872-2.615c-0.213-0.445-0.396-0.946-0.514-1.365
									l-0.1-0.426c-0.022-0.072-0.043-0.23-0.064-0.343C64.247,108.519,64.222,108.271,64.203,108.022"/>
								<path fill="#FACC45" d="M64.343,108.594L64.421,109l0.106,0.431c0.053,0.196,0.099,0.322,0.151,0.493
									c0.067,0.17,0.119,0.344,0.197,0.511c-0.078-0.167-0.13-0.341-0.197-0.511c-0.053-0.171-0.099-0.297-0.151-0.493L64.421,109
									L64.343,108.594"/>
								<path fill="#FACC45" d="M89.079,82.073c-3.413,2-6.754,4.117-9.951,6.413c-3.189,2.3-6.258,4.772-8.94,7.565
									c2.683-2.793,5.751-5.267,8.94-7.565C82.325,86.19,85.666,84.073,89.079,82.073"/>
								<path fill="#FACC45" d="M89.079,82.073c-3.413,2-6.754,4.117-9.951,6.413c-3.189,2.3-6.258,4.772-8.94,7.565
									c2.683-2.793,5.751-5.267,8.94-7.565C82.325,86.19,85.666,84.073,89.079,82.073"/>
								<line fill="none" x1="145.973" y1="128.336" x2="145.973" y2="128.336"/>
								<path fill="#FBD156" d="M145.973,128.336c-11.038,0.377-22.102,0.228-29.457-0.26c-5.136-0.336-10.503-0.798-16.035-1.513
									c-5.529-0.723-11.234-1.673-16.964-3.174c-2.86-0.76-5.728-1.659-8.527-2.825c-2.787-1.173-5.546-2.6-7.911-4.614
									c-1.176-1.005-2.235-2.179-3.021-3.533c-0.788-1.354-1.256-2.901-1.313-4.474c-0.124-3.185,1.336-6.177,3.143-8.714
									c-1.807,2.537-3.267,5.529-3.143,8.714c0.058,1.571,0.525,3.12,1.313,4.474c0.786,1.354,1.846,2.528,3.021,3.533
									c2.365,2.016,5.124,3.441,7.911,4.614c2.8,1.166,5.667,2.065,8.527,2.825c5.729,1.501,11.435,2.451,16.964,3.174
									c5.532,0.715,10.899,1.177,16.035,1.513C123.872,128.562,134.935,128.712,145.973,128.336"/>
								<path fill="#FBD156" d="M119.225,66.573c-11.339,4.774-22.956,10.097-33.902,16.668
									C96.269,76.67,107.878,71.351,119.225,66.573"/>
								<line fill="none" x1="147.815" y1="128.263" x2="147.815" y2="128.263"/>
								<line fill="none" x1="147.815" y1="128.263" x2="147.815" y2="128.263"/>
								<line fill="none" x1="150.571" y1="128.116" x2="150.571" y2="128.116"/>
								<line fill="none" x1="154.244" y1="127.878" x2="154.244" y2="127.878"/>
								<line fill="none" x1="184.502" y1="125.43" x2="184.502" y2="125.43"/>
								<line fill="none" x1="346.154" y1="91.29" x2="346.154" y2="91.29"/>
								<line fill="none" x1="158.833" y1="127.533" x2="158.833" y2="127.533"/>
								<line fill="none" x1="179.876" y1="125.469" x2="179.876" y2="125.469"/>
								<line fill="none" x1="182.617" y1="125.09" x2="182.617" y2="125.09"/>
								<line fill="none" x1="271.429" y1="110.572" x2="271.429" y2="110.572"/>
								<line fill="none" x1="364.121" y1="84.178" x2="364.121" y2="84.178"/>
								<line fill="none" x1="189.876" y1="123.832" x2="189.876" y2="123.832"/>
								<line fill="none" x1="119.225" y1="66.573" x2="119.225" y2="66.573"/>
								<line fill="none" x1="376.847" y1="78.898" x2="376.847" y2="78.898"/>
								<line fill="none" x1="208.372" y1="121.328" x2="208.372" y2="121.328"/>
								<line fill="none" x1="304.337" y1="102.13" x2="304.337" y2="102.13"/>
								<line fill="none" x1="350.066" y1="88.525" x2="350.066" y2="88.525"/>
								<line fill="none" x1="403.074" y1="65.778" x2="403.074" y2="65.778"/>
								<line fill="none" x1="102.843" y1="74.874" x2="102.843" y2="74.874"/>
								<path fill="#FCE193" d="M111.363,71.512l3.365-1.453c-4.229,1.81-8.517,3.758-12.788,5.872l1.958-0.97l4.144-1.943
									L111.363,71.512"/>
								<polyline fill="#FCE193" points="113.783,70.529 111.395,71.586 109.097,72.602 113.783,70.529 								"/>
								<path fill="#FCE193" d="M105.22,74.389l-1.3,0.621l-4.09,2.003l-2.289,1.169C99.954,76.925,102.538,75.652,105.22,74.389"/>
								<line fill="none" x1="392.195" y1="70.588" x2="392.195" y2="70.588"/>
								<polyline fill="#FCE193" points="96.648,78.645 96.605,78.67 96.578,78.684 96.648,78.645 								"/>
								<line fill="none" x1="79.272" y1="90.245" x2="79.272" y2="90.245"/>
								<line fill="none" x1="302.775" y1="99.755" x2="302.775" y2="99.755"/>
								<line fill="none" x1="252.757" y1="110.783" x2="252.757" y2="110.783"/>
								<line fill="none" x1="257.244" y1="109.874" x2="257.244" y2="109.874"/>
								<line fill="none" x1="132.134" y1="122.614" x2="132.134" y2="122.614"/>
								<polyline fill="#FBD35E" points="143.055,59.642 141.333,60.268 143.055,59.642 								"/>
								<path fill="#FBCF50" d="M136.046,61.78c21.578-7.647,42.812-13.47,65.045-18.918c-4.416,1.223-8.819,2.479-13.21,3.776
									l1.753-0.519c-2.956,0.762-6.691,1.762-10.767,2.902l-6.321,1.803c-6.486,1.877-13.266,3.955-18.941,5.739l-7.019,2.098
									l-0.008-0.025l-0.92,0.142l5.169-1.896c-2.599,0.9-5.189,1.821-7.772,2.76l-1.722,0.626
									c-7.16,2.624-14.261,5.4-21.265,8.376C125.339,66.251,130.67,63.968,136.046,61.78"/>
								<path fill="#FACA3C" d="M178.868,49.023c4.075-1.142,7.811-2.142,10.767-2.902c-2.956,0.762-6.683,1.759-10.758,2.9
									l-6.33,1.806L178.868,49.023"/>
								<polyline fill="#FACA3C" points="189.634,46.121 187.881,46.638 189.634,46.121 								"/>
								<polyline fill="#FAC732" points="145.659,58.778 146.579,58.636 146.586,58.663 145.659,58.778 								"/>
								<path fill="#FACA3C" d="M136.046,61.78c-5.376,2.188-10.707,4.471-15.978,6.864C125.339,66.251,130.67,63.968,136.046,61.78
									"/>
								<path fill="#FBCF50" d="M139.15,58.845c12.952-4.604,29.645-9.549,43.717-13.199c-5.688,1.827-13.572,4.302-21.938,7.125
									c-8.367,2.816-17.214,5.988-24.882,9.009c-4.599,1.644-9.171,3.354-13.71,5.147c2.532-1.061,5.076-2.094,7.631-3.104
									c1.105-0.476,5.51-2.171,5.932-2.386c0.266-0.134-1.126,0.297-6.066,2.119c-2.469,0.916-5.822,2.186-10.267,3.983
									c-4.439,1.809-9.98,4.129-16.723,7.332c-4.674,2.243-9.279,4.623-13.765,7.199c7.488-4.382,14.898-8.02,21.868-11.231
									c6.976-3.206,13.53-5.97,19.477-8.411c-3.751,1.328-7.484,2.709-11.198,4.144c2.259-0.948,4.527-1.877,6.803-2.784
									c2.686-1.091,5.883-2.325,9.448-3.624L139.15,58.845"/>
								<path fill="#FACA3C" d="M130.423,62.429c-5.946,2.441-12.501,5.205-19.477,8.411c-6.97,3.213-14.38,6.851-21.868,11.231
									c7.488-4.382,14.898-8.02,21.868-11.231C117.922,67.635,124.477,64.872,130.423,62.429"/>
								<path fill="#FACA3C" d="M135.899,61.438c-0.422,0.215-4.826,1.91-5.932,2.386c-2.555,1.011-5.099,2.045-7.631,3.104
									c2.532-1.06,5.076-2.094,7.631-3.104C131.073,63.348,135.477,61.653,135.899,61.438"/>
								<line fill="none" x1="95.415" y1="76.709" x2="95.415" y2="76.709"/>
								<path fill="#FBD76B" d="M95.415,76.709c6.773-3.484,13.703-6.619,20.724-9.544c21.073-8.729,42.814-15.669,64.771-21.699
									c6.665-1.772,13.346-3.483,20.031-5.133l6.69-1.633c7.301-1.079,13.718-1.845,18.335-2.129
									c-8.326,1.973-16.62,4.066-24.875,6.291c-22.233,5.448-43.467,11.271-65.045,18.918c7.668-3.021,16.515-6.191,24.882-9.009
									c8.366-2.823,16.25-5.298,21.938-7.125c-14.072,3.65-30.765,8.595-43.717,13.199l-0.009,0.004l-3.665,1.314
									c-3.565,1.299-6.763,2.533-9.448,3.624c-2.275,0.907-4.544,1.836-6.803,2.784c-7.372,2.868-15.212,6.231-23.171,10.26
									c-3.983,2.021-7.995,4.212-11.951,6.641c-3.952,2.432-7.862,5.095-11.514,8.175c-1.209,1.029-2.401,2.11-3.522,3.255
									c-1.799,1.838-3.479,3.844-4.764,6.13c-1.271,2.266-2.148,4.923-1.822,7.617c0.157,1.373,0.625,2.708,1.317,3.896
									c0.699,1.186,1.598,2.232,2.599,3.146c2.012,1.828,4.368,3.18,6.782,4.297c0.813,0.456,1.641,0.894,2.483,1.299
									c-2.6-0.996-5.156-2.188-7.485-3.812c-2.303-1.609-4.462-3.745-5.484-6.562c-0.513-1.409-0.691-2.892-0.562-4.369
									c0.129-1.472,0.558-2.882,1.136-4.196c1.184-2.629,2.931-4.893,4.835-6.938c3.846-4.083,8.34-7.396,12.954-10.438
									C85.691,81.945,90.51,79.236,95.415,76.709"/>
								<line fill="none" x1="180.91" y1="45.465" x2="180.91" y2="45.465"/>
								<line fill="none" x1="207.631" y1="38.7" x2="207.631" y2="38.7"/>
								<line fill="none" x1="207.631" y1="38.7" x2="207.631" y2="38.7"/>
								<path fill="#FACC44" d="M95.415,76.709c-4.904,2.527-9.724,5.236-14.359,8.262c-4.614,3.043-9.108,6.356-12.954,10.438
									c-1.904,2.047-3.651,4.311-4.835,6.938c-0.578,1.314-1.007,2.726-1.136,4.196c-0.129,1.479,0.05,2.96,0.562,4.369
									c1.022,2.815,3.182,4.951,5.484,6.562c2.329,1.624,4.886,2.815,7.485,3.812c-2.6-0.996-5.156-2.188-7.485-3.812
									c-2.303-1.609-4.462-3.745-5.484-6.562c-0.513-1.409-0.691-2.892-0.562-4.369c0.129-1.472,0.558-2.882,1.136-4.196
									c1.184-2.629,2.931-4.893,4.835-6.938c3.846-4.082,8.34-7.396,12.954-10.438C85.691,81.945,90.51,79.236,95.415,76.709"/>
								<path fill="#FACC44" d="M116.138,67.165c21.073-8.729,42.814-15.669,64.771-21.699
									C158.953,51.496,137.211,58.436,116.138,67.165"/>
								<path fill="#FACC44" d="M62.481,108.649c-0.326-2.694,0.552-5.353,1.822-7.617c1.285-2.286,2.965-4.292,4.764-6.13
									c1.121-1.145,2.313-2.226,3.522-3.255c3.651-3.08,7.562-5.743,11.514-8.175c3.956-2.429,7.968-4.618,11.951-6.641
									c-3.983,2.021-7.995,4.212-11.951,6.641c-3.951,2.432-7.861,5.095-11.514,8.175c-1.209,1.03-2.395,2.104-3.522,3.256
									c-1.797,1.835-3.477,3.839-4.762,6.126C63.035,103.295,62.155,105.952,62.481,108.649"/>
								<line fill="none" x1="180.91" y1="45.465" x2="180.91" y2="45.465"/>
								<line fill="none" x1="180.91" y1="45.465" x2="180.91" y2="45.465"/>
								<line fill="none" x1="72.589" y1="91.647" x2="72.589" y2="91.647"/>
								<polyline fill="#FAC734" points="139.141,58.849 139.15,58.845 135.476,60.165 139.141,58.849 								"/>
								<path fill="#FAC734" d="M182.867,45.646c-5.688,1.827-13.572,4.302-21.938,7.125c-8.367,2.816-17.214,5.988-24.882,9.009
									c7.668-3.021,16.515-6.191,24.882-9.009C169.294,49.948,177.178,47.473,182.867,45.646"/>
								<line fill="none" x1="207.631" y1="38.7" x2="207.631" y2="38.7"/>
								<line fill="none" x1="180.91" y1="45.465" x2="180.91" y2="45.465"/>
								<line fill="none" x1="180.91" y1="45.465" x2="180.91" y2="45.465"/>
								<path fill="#FBD35E" d="M180.91,45.465c8.866-2.415,17.777-4.665,26.722-6.766l-6.69,1.633
									C194.255,41.981,187.575,43.692,180.91,45.465"/>
								<line fill="none" x1="207.631" y1="38.7" x2="207.631" y2="38.7"/>
								<path fill="#FAC732" d="M180.91,45.465c8.866-2.415,17.777-4.665,26.722-6.766C198.687,40.8,189.776,43.05,180.91,45.465"/>
							</g>
						</g>
					</g>
				</g>
				<path fill="#FFFFFF" d="M106.2,121.346c0.9,7.139-4.156,13.653-11.3,14.552c-7.136,0.904-13.649-4.158-14.552-11.296
					c-0.9-7.138,4.16-13.655,11.301-14.554C98.784,109.15,105.303,114.21,106.2,121.346z"/>
				<g>
					<path fill="#FFFFFF" d="M318.677,37.677c-3.719-0.146-6.639-3.285-6.492-7.021c0.139-3.732,3.283-6.646,7.021-6.504
						c3.732,0.146,6.645,3.288,6.504,7.022C325.56,34.915,322.419,37.827,318.677,37.677z"/>
					<path fill="#FFFFFF" d="M313.261,18.56c6.768-2.812,14.48,0.142,17.691,6.602l0,0c0.135,0.268,0.273,0.557,0.395,0.871l0,0
						l-1.871,0.743c-0.094-0.239-0.205-0.477-0.324-0.718l0,0c-2.74-5.514-9.338-8.04-15.111-5.639l0,0l-0.008,0.002L313.261,18.56
						L313.261,18.56z"/>
					<path fill="#FFFFFF" d="M306.701,2.773c15.107-6.275,32.355,0.307,39.541,14.749l0,0c0.305,0.62,0.607,1.271,0.879,1.945l0,0
						l-1.863,0.756c-0.252-0.621-0.525-1.215-0.826-1.805l0,0c-6.699-13.498-22.83-19.656-36.955-13.785l0,0l-0.002,0.009
						L306.701,2.773L306.701,2.773z"/>
					<path fill="#FFFFFF" d="M310.755,12.533l0.004-0.009l0,0v0.009H310.755L310.755,12.533z M309.988,10.671
						c10.934-4.547,23.412,0.227,28.607,10.671l0,0c0.223,0.454,0.441,0.911,0.639,1.403l0,0l-1.865,0.753
						c-0.18-0.421-0.371-0.851-0.572-1.259l0,0c-4.727-9.502-16.086-13.845-26.037-9.716l0,0L309.988,10.671L309.988,10.671z"/>
				</g>
				<polygon fill="#FFFFFF" points="141.011,-1.746 146.49,8.988 158.382,7.095 149.867,15.615 155.338,26.353 144.598,20.883 
					136.086,29.404 137.967,17.512 127.229,12.039 139.132,10.15 				"/>
				<polygon fill="#FFFFFF" points="273.953,157.269 264.437,150.648 265.428,139.094 275.914,134.174 285.421,140.799 
					284.443,152.347 				"/>
				<path fill="#FFFFFF" d="M211.805,66.311h-5.836v-6.229c0.004-1.062-0.309-2.113-1.086-2.834
					c-0.769-0.72-1.809-0.971-2.904-0.971s-2.126,0.259-2.897,0.971c-0.772,0.727-1.081,1.771-1.074,2.834v6.229h-0.487
					c-1.104,0-2.138,0.261-2.91,0.982c-0.77,0.728-1.084,1.767-1.076,2.826c-0.008,1.062,0.307,2.103,1.076,2.831
					c0.772,0.71,1.807,0.974,2.91,0.974h0.487v25.033c-0.007,1.061,0.302,2.097,1.074,2.82c0.771,0.717,1.8,0.979,2.897,0.974h0.031
					c1.09,0,2.11-0.261,2.873-0.968c0.777-0.723,1.09-1.767,1.086-2.826V73.925h5.836c1.098,0,2.131-0.264,2.901-0.973
					c0.772-0.722,1.087-1.771,1.074-2.832c0.013-1.061-0.302-2.107-1.074-2.826C213.936,66.572,212.903,66.311,211.805,66.311z
					 M185.588,83.916c-2.31-2.083-5.211-3.147-8.432-3.137l-19.641-0.008c-1.181-0.004-2.075-0.337-2.91-1.056
					c-0.808-0.725-1.129-1.426-1.143-2.409c0.014-0.98,0.332-1.664,1.133-2.385c0.838-0.705,1.739-1.038,2.92-1.048h19.641
					c1.092,0,2.127-0.254,2.898-0.971c0.775-0.715,1.09-1.765,1.082-2.831c0.008-1.051-0.31-2.092-1.088-2.805
					c-0.769-0.706-1.801-0.957-2.893-0.957h-19.641c-3.209-0.004-6.094,1.071-8.422,3.175c-2.346,2.081-3.614,4.782-3.598,7.82
					c-0.017,3.055,1.238,5.768,3.57,7.842c2.33,2.088,5.223,3.152,8.449,3.143l19.641,0.008c1.167,0.003,2.066,0.343,2.898,1.055
					c0.818,0.74,1.137,1.435,1.15,2.411c-0.014,0.985-0.332,1.666-1.144,2.382c-0.831,0.709-1.734,1.037-2.905,1.045h-27.679
					c-1.095,0-2.128,0.255-2.907,0.977c-0.77,0.721-1.082,1.763-1.074,2.83c-0.008,1.049,0.309,2.087,1.086,2.8
					c0.773,0.71,1.801,0.956,2.896,0.956h27.726c3.086,0,5.891-1.025,8.191-3.012c2.46-2.049,3.787-4.824,3.768-7.978
					C189.172,88.708,187.923,85.99,185.588,83.916z M261.583,69.462c-2.314-2.086-5.207-3.154-8.438-3.15h-19.64
					c-3.227-0.004-6.12,1.064-8.442,3.15c-2.338,2.071-3.585,4.789-3.569,7.845v14.457c-0.016,3.028,1.245,5.745,3.604,7.822
					c2.307,2.092,5.176,3.166,8.359,3.166h19.688c1.094,0,2.129-0.246,2.899-0.956c0.777-0.713,1.097-1.751,1.082-2.8
					c0.015-1.067-0.305-2.109-1.073-2.83c-0.773-0.722-1.813-0.977-2.908-0.977h-19.64c-1.171-0.008-2.073-0.336-2.915-1.045
					c-0.804-0.716-1.106-1.39-1.129-2.382v-3.474l23.684,0.008v-0.008c3.11,0.011,5.92-1.002,8.239-2.967
					c2.464-2.087,3.796-4.872,3.777-8.018C265.18,74.252,263.928,71.527,261.583,69.462z M256.044,79.716
					c-0.83,0.719-1.725,1.052-2.899,1.062l-23.684-0.008v-3.465c0.014-0.987,0.325-1.664,1.129-2.379
					c0.842-0.711,1.749-1.044,2.915-1.054h19.64c1.155,0.01,2.041,0.317,2.853,0.978c0.858,0.741,1.188,1.459,1.207,2.455
					C257.184,78.282,256.867,78.984,256.044,79.716z M80.942,102.753c3.096,0,5.895-1.025,8.197-3.012
					c2.465-2.049,3.787-4.824,3.768-7.978V77.306c0.011-3.056-1.236-5.772-3.573-7.845c-2.315-2.086-5.21-3.154-8.438-3.146
					L61.263,66.31c-3.232-0.004-6.125,1.064-8.449,3.15c-2.332,2.064-3.582,4.789-3.567,7.845h7.962
					c0.012-0.98,0.328-1.657,1.135-2.385c0.84-0.705,1.741-1.038,2.92-1.048h19.633c1.178,0.01,2.067,0.34,2.912,1.054
					c0.812,0.722,1.133,1.408,1.145,2.379v14.458c-0.012,0.979-0.332,1.666-1.145,2.382c-0.845,0.709-0.731,1.037-1.912,1.045
					 M134.787,69.466c-2.311-2.09-5.211-3.164-8.435-3.154h-12.949c-1.838,0-3.572,0.344-5.165,1.031
					c-0.74-0.702-1.794-1.062-2.865-1.031c-1.095,0-2.12,0.247-2.898,0.962c-0.778,0.713-1.097,1.749-1.084,2.805v28.916
					c-0.013,1.054,0.306,2.099,1.084,2.803c0.778,0.705,1.804,0.961,2.898,0.961c1.094,0,2.125-0.256,2.895-0.961
					c0.776-0.713,1.095-1.751,1.081-2.803V77.306c0.016-0.98,0.33-1.664,1.139-2.383c0.84-0.71,1.744-1.04,2.916-1.055l12.949,0.008
					c1.167,0.007,2.072,0.337,2.908,1.047c0.807,0.719,1.125,1.401,1.139,2.383v21.688c-0.012,1.052,0.307,2.09,1.082,2.803
					c0.77,0.705,1.799,0.961,2.896,0.961c1.094,0,2.124-0.256,2.896-0.961c0.777-0.704,1.094-1.749,1.084-2.803V77.306
					C138.375,74.247,137.122,71.527,134.787,69.466z M276.283,48.42c-1.103,0-2.138,0.268-2.912,0.994
					c-0.769,0.729-1.074,1.777-1.064,2.86v46.629c-0.01,1.075,0.297,2.124,1.064,2.856c0.772,0.724,1.811,0.997,2.912,0.992h0.034
					c1.084,0,2.115-0.272,2.879-0.992c0.769-0.732,1.076-1.781,1.063-2.856V52.275c0.013-1.083-0.297-2.133-1.063-2.86
					C278.421,48.687,277.38,48.42,276.283,48.42z M484.853,69.466c-2.311-2.09-5.201-3.164-8.438-3.154h-12.953
					c-1.824,0-3.559,0.344-5.152,1.031c-0.738-0.702-1.797-1.06-2.873-1.031c-1.09,0-2.123,0.247-2.895,0.962
					c-0.781,0.713-1.092,1.749-1.086,2.805v28.916c-0.006,1.052,0.305,2.09,1.086,2.803c0.771,0.705,1.805,0.961,2.895,0.961
					c1.094,0,2.127-0.256,2.898-0.961c0.783-0.713,1.1-1.751,1.084-2.803V77.306c0.02-0.98,0.33-1.664,1.141-2.383
					c0.838-0.71,1.74-1.04,2.902-1.055l12.953,0.008c1.178,0.007,2.088,0.34,2.912,1.047c0.811,0.719,1.119,1.396,1.143,2.383
					v21.688c-0.016,1.052,0.303,2.09,1.074,2.803c0.779,0.705,1.809,0.961,2.904,0.961l3.971-25.45
					C488.441,74.247,487.191,71.527,484.853,69.466z M386.007,55.023c-1.379,0-2.635,0.322-3.539,1.179
					c-0.92,0.858-1.301,2.102-1.289,3.432c-0.012,1.333,0.369,2.577,1.289,3.423c0.904,0.862,2.16,1.182,3.539,1.182
					c1.381,0,2.629-0.319,3.547-1.182c0.906-0.853,1.283-2.09,1.271-3.423c0.012-1.33-0.365-2.572-1.271-3.432
					C388.636,55.345,387.388,55.023,386.007,55.023z M385.675,66.311c-1.102,0-2.137,0.261-2.914,0.982
					c-0.77,0.719-1.088,1.767-1.072,2.826v28.838c-0.016,1.061,0.303,2.104,1.082,2.826c0.768,0.711,1.803,0.973,2.904,0.973
					c1.094,0,2.129-0.262,2.902-0.979c0.771-0.725,1.082-1.761,1.07-2.82V70.121c0.012-1.061-0.299-2.1-1.07-2.826
					C387.814,66.572,386.773,66.311,385.675,66.311z M371.058,66.311h-5.826v-6.229c0.01-1.069-0.303-2.113-1.076-2.834
					c-0.775-0.712-1.809-0.971-2.902-0.971c-1.092,0-2.133,0.251-2.914,0.967c-0.773,0.725-1.086,1.769-1.076,2.838v6.229h-0.479
					c-1.096,0-2.131,0.261-2.904,0.982c-0.771,0.728-1.078,1.767-1.076,2.826c-0.002,1.062,0.305,2.103,1.076,2.831
					c0.773,0.71,1.809,0.974,2.904,0.974h0.477l0.004,25.033c-0.01,1.061,0.301,2.104,1.076,2.826
					c0.781,0.711,1.82,0.973,2.914,0.973s2.127-0.262,2.902-0.973c0.771-0.723,1.086-1.767,1.076-2.826v-25.04l5.824,0.008
					c1.105,0,2.146-0.264,2.914-0.973c0.773-0.722,1.088-1.771,1.074-2.832c0.014-1.061-0.301-2.107-1.074-2.826
					C373.203,66.572,372.162,66.311,371.058,66.311z M315.439,102.753l19.639,0.005c1.826,0,3.559-0.351,5.148-1.059
					c0.734,0.72,1.805,1.09,2.895,1.054c1.086,0.005,2.121-0.251,2.891-0.956c0.775-0.715,1.086-1.751,1.08-2.803V77.306
					c0.012-3.061-1.234-5.772-3.566-7.845c-2.322-2.086-5.223-3.16-8.445-3.15h-19.639c-1.1,0-2.125,0.247-2.893,0.962
					c-0.781,0.708-1.098,1.749-1.088,2.805c-0.01,1.062,0.299,2.102,1.072,2.826c0.777,0.713,1.809,0.971,2.906,0.971h19.639
					c1.178,0.01,2.068,0.34,2.912,1.05c0.812,0.719,1.125,1.402,1.143,2.383v3.416l-23.691,0.006v7.522h23.691v3.51
					c-0.018,0.988-0.33,1.668-1.143,2.376c-0.834,0.717-1.734,1.045-2.912,1.053"/>
			</g>
		</g>
	</g>
	<g>
		<path fill="#FFFFFF" d="M346.775,127.761c0,1.352-0.426,2.537-1.271,3.558c-0.848,1.021-1.996,1.871-3.445,2.555
			c-1.449,0.683-3.145,1.194-5.086,1.54c-1.939,0.345-4.014,0.517-6.223,0.517c-1.494,0-2.883-0.073-4.164-0.219
			c-1.283-0.146-2.414-0.321-3.396-0.526s-1.801-0.421-2.459-0.646c-0.658-0.227-1.133-0.425-1.422-0.598
			c-0.291-0.172-0.496-0.421-0.617-0.745c-0.123-0.323-0.186-0.792-0.186-1.4c0-0.41,0.021-0.755,0.066-1.033
			s0.117-0.503,0.217-0.676c0.102-0.172,0.234-0.295,0.402-0.367c0.168-0.073,0.361-0.109,0.586-0.109
			c0.311,0,0.752,0.109,1.32,0.327c0.568,0.219,1.299,0.461,2.191,0.727c0.891,0.266,1.957,0.507,3.195,0.726
			c1.236,0.219,2.67,0.328,4.299,0.328c1.068,0,2.027-0.076,2.877-0.229c0.846-0.151,1.564-0.367,2.156-0.646
			s1.043-0.622,1.355-1.033c0.312-0.41,0.467-0.867,0.467-1.371c0-0.583-0.268-1.083-0.803-1.5c-0.535-0.418-1.23-0.788-2.09-1.112
			s-1.836-0.63-2.928-0.914c-1.094-0.285-2.221-0.586-3.379-0.904c-1.16-0.318-2.287-0.679-3.379-1.083
			c-1.094-0.404-2.068-0.888-2.928-1.451c-0.857-0.562-1.557-1.229-2.092-1.997c-0.535-0.768-0.803-1.688-0.803-2.763
			c0-1.231,0.385-2.314,1.154-3.249s1.807-1.709,3.111-2.325c1.303-0.616,2.844-1.076,4.615-1.381
			c1.773-0.305,3.652-0.457,5.637-0.457c1.027,0,2.053,0.046,3.078,0.139c1.025,0.094,1.986,0.22,2.877,0.378
			c0.893,0.159,1.684,0.338,2.377,0.536c0.689,0.199,1.146,0.365,1.371,0.497c0.223,0.133,0.373,0.245,0.451,0.338
			s0.145,0.216,0.201,0.367c0.055,0.153,0.094,0.345,0.115,0.577c0.021,0.23,0.033,0.52,0.033,0.864
			c0,0.385-0.016,0.709-0.049,0.974c-0.033,0.266-0.09,0.483-0.168,0.656c-0.078,0.172-0.189,0.298-0.334,0.377
			c-0.146,0.08-0.34,0.119-0.586,0.119s-0.635-0.093-1.172-0.278c-0.535-0.185-1.193-0.387-1.975-0.605
			c-0.779-0.218-1.684-0.418-2.709-0.597s-2.152-0.268-3.379-0.268c-0.959,0-1.795,0.068-2.51,0.208
			c-0.713,0.14-1.311,0.331-1.789,0.576s-0.836,0.539-1.07,0.885c-0.234,0.345-0.352,0.709-0.352,1.093
			c0,0.57,0.262,1.063,0.787,1.48c0.521,0.418,1.225,0.788,2.105,1.112c0.883,0.325,1.881,0.629,2.994,0.914
			c1.115,0.285,2.252,0.586,3.412,0.904s2.297,0.679,3.412,1.083s2.107,0.888,2.979,1.451c0.869,0.562,1.572,1.226,2.107,1.986
			C346.5,125.832,346.775,126.728,346.775,127.761z"/>
		<path fill="#FFFFFF" d="M389.462,122.237c0,2.358-0.52,4.375-1.557,6.052s-2.525,3.044-4.467,4.104
			c-1.939,1.061-4.299,1.838-7.074,2.335c-2.777,0.497-6.084,0.745-9.92,0.745h-10.338c-0.734,0-1.354-0.129-1.855-0.388
			c-0.502-0.258-0.754-0.68-0.754-1.263v-22.417c0-0.583,0.252-1.004,0.754-1.262c0.502-0.259,1.121-0.388,1.855-0.388h11.107
			c3.857,0,7.131,0.269,9.818,0.805c2.686,0.536,4.951,1.331,6.791,2.385c1.84,1.055,3.238,2.355,4.197,3.905
			C388.982,118.401,389.462,120.197,389.462,122.237z M380.363,122.417c0-1.22-0.24-2.353-0.721-3.398
			c-0.479-1.046-1.248-1.954-2.309-2.723c-1.059-0.77-2.42-1.368-4.08-1.799c-1.662-0.431-3.842-0.646-6.541-0.646h-4.449v17.488
			h4.584c2.408,0,4.438-0.187,6.088-0.558c1.65-0.369,3.027-0.931,4.133-1.679c1.104-0.749,1.93-1.68,2.475-2.792
			C380.089,125.198,380.363,123.899,380.363,122.417z"/>
		<path fill="#FFFFFF" d="M405.519,134.757c0,0.133-0.07,0.252-0.217,0.357c-0.145,0.105-0.385,0.192-0.719,0.259
			c-0.336,0.065-0.781,0.118-1.338,0.158c-0.559,0.04-1.271,0.061-2.143,0.061c-0.848,0-1.557-0.021-2.125-0.061
			c-0.566-0.04-1.02-0.093-1.354-0.158s-0.574-0.152-0.719-0.259c-0.146-0.105-0.219-0.226-0.219-0.357v-24.285
			c0-0.132,0.072-0.251,0.219-0.357c0.145-0.104,0.389-0.19,0.734-0.258c0.346-0.065,0.797-0.12,1.355-0.159
			c0.557-0.04,1.26-0.06,2.105-0.06c0.871,0,1.584,0.02,2.143,0.06c0.557,0.039,1.004,0.094,1.338,0.159
			c0.336,0.066,0.574,0.152,0.719,0.258c0.146,0.106,0.219,0.227,0.219,0.357V134.757L405.519,134.757z"/>
	</g>
</g>
</svg>
