<?xml version="1.0" encoding="utf-8"?>
<!-- Generator: Adobe Illustrator 15.1.0, SVG Export Plug-In . SVG Version: 6.00 Build 0)  -->
<!DOCTYPE svg PUBLIC "-//W3C//DTD SVG 1.1//EN" "http://www.w3.org/Graphics/SVG/1.1/DTD/svg11.dtd">
<svg version="1.1" id="Calque_1" xmlns="http://www.w3.org/2000/svg" xmlns:xlink="http://www.w3.org/1999/xlink" x="0px" y="0px"
	 width="488.675px" height="157.523px" viewBox="0 -5.929 488.675 157.523" enable-background="new 0 -5.929 488.675 157.523"
	 xml:space="preserve">
<g id="Calque_7">
	<g>
		<path fill="#FFFFFF" d="M168.277,116.807v0.002c1.14,1.082,2.266,2.141,3.383,3.179l1.074-1.158
			c-1.111-1.033-2.235-2.089-3.371-3.167L168.277,116.807z"/>
		<path fill="#FFFFFF" d="M155.426,8.217l0.159,1.572c1.507-0.152,3.039-0.28,4.594-0.389l-0.107-1.576
			C158.501,7.935,156.951,8.062,155.426,8.217z"/>
		<path fill="#FFFFFF" d="M161.602,110.357h0.002c1.118,1.098,2.227,2.178,3.322,3.237l1.1-1.135
			c-1.094-1.058-2.2-2.134-3.315-3.231L161.602,110.357z"/>
		<path fill="#FFFFFF" d="M142.449,90.106h0.002c1.008,1.168,2.027,2.334,3.062,3.492l1.18-1.052
			c-1.027-1.153-2.043-2.311-3.046-3.472L142.449,90.106z"/>
		<path fill="#FFFFFF" d="M155.029,103.791c1.085,1.113,2.178,2.215,3.271,3.307l1.115-1.12c-1.089-1.084-2.176-2.183-3.256-3.289
			L155.029,103.791z"/>
		<path fill="#FFFFFF" d="M178.668,7.404h0.002c-1.453-0.022-2.897-0.035-4.327-0.035h-0.322l0.002,1.581
			c0.106,0,0.212-0.002,0.32-0.002c1.421,0,2.856,0.013,4.303,0.035L178.668,7.404z"/>
		<path fill="#FFFFFF" d="M148.63,97.044h0.003c1.047,1.14,2.104,2.272,3.171,3.396l1.146-1.087
			c-1.06-1.119-2.113-2.246-3.156-3.381L148.63,97.044z"/>
		<path fill="#FFFFFF" d="M175.087,123.121c1.171,1.055,2.331,2.08,3.483,3.08l1.034-1.193c-1.145-0.992-2.298-2.013-3.459-3.06
			L175.087,123.121z"/>
		<path fill="#FFFFFF" d="M197.183,140.168c1.345,0.82,2.692,1.602,4.044,2.336l0.755-1.387c-1.327-0.723-2.652-1.488-3.976-2.297
			L197.183,140.168z"/>
		<path fill="#FFFFFF" d="M215.75,9.591c-1.539-0.135-3.08-0.266-4.622-0.394l-0.131,1.575c1.54,0.126,3.079,0.258,4.619,0.393
			L215.75,9.591z"/>
		<path fill="#FFFFFF" d="M205.399,144.621c1.423,0.666,2.854,1.287,4.298,1.854l0.579-1.469c-1.411-0.557-2.812-1.16-4.203-1.814
			L205.399,144.621z"/>
		<path fill="#FFFFFF" d="M182.116,129.213c1.213,1.004,2.421,1.979,3.622,2.922l0.974-1.24c-1.188-0.938-2.383-1.902-3.586-2.898
			L182.116,129.213z"/>
		<path fill="#FFFFFF" d="M192.598,7.903l-0.084,1.577c1.535,0.081,3.076,0.172,4.622,0.27l0.102-1.577
			C195.686,8.075,194.139,7.985,192.598,7.903z"/>
		<path fill="#FFFFFF" d="M183.269,9.089c1.53,0.047,3.072,0.103,4.622,0.171l0.066-1.58c-1.557-0.068-3.104-0.123-4.641-0.17
			L183.269,9.089z"/>
		<path fill="#FFFFFF" d="M169.403,8.999L169.37,7.42c-1.567,0.033-3.119,0.079-4.649,0.146l0.068,1.579
			C166.308,9.078,167.846,9.029,169.403,8.999z"/>
		<path fill="#FFFFFF" d="M206.503,8.826h-0.002c-1.546-0.119-3.09-0.233-4.63-0.344l-0.112,1.576
			c1.537,0.108,3.076,0.224,4.62,0.343L206.503,8.826z"/>
		<path fill="#FFFFFF" d="M118.01,25.15c0.119-0.15,0.24-0.3,0.362-0.45l-1.22-1.003v-0.002c-0.128,0.159-0.256,0.317-0.384,0.477
			c-1.021,1.295-1.822,2.701-2.414,4.203l1.471,0.579C116.363,27.591,117.087,26.323,118.01,25.15z"/>
		<path fill="#FFFFFF" d="M133.212,14.642l-0.57-1.476v0.003c-1.497,0.581-2.933,1.215-4.307,1.901l0.709,1.413
			C130.37,15.819,131.759,15.205,133.212,14.642z"/>
		<path fill="#FFFFFF" d="M347.488,43.509c-0.821-1.105-1.735-2.201-2.771-3.277l-1.14,1.093c1.026,1.067,1.927,2.148,2.728,3.236
			C346.65,44.167,347.047,43.816,347.488,43.509z"/>
		<path fill="#FFFFFF" d="M341.26,37.018c-1.156-0.967-2.401-1.916-3.736-2.847l-0.905,1.296c1.303,0.905,2.513,1.829,3.631,2.764
			L341.26,37.018z"/>
		<path fill="#FFFFFF" d="M214.112,148.043h0.003c1.486,0.469,2.99,0.889,4.514,1.25l0.367-1.537
			c-1.486-0.354-2.955-0.762-4.406-1.221L214.112,148.043z"/>
		<path fill="#FFFFFF" d="M114.618,35.818c0-0.884,0.049-1.743,0.148-2.573l-1.568-0.189v0.002
			c-0.108,0.898-0.159,1.819-0.159,2.761c-0.002,0.662,0.024,1.334,0.075,2.017l1.577-0.117
			C114.642,37.072,114.618,36.438,114.618,35.818z"/>
		<path fill="#FFFFFF" d="M124.241,17.423c-1.343,0.883-2.604,1.835-3.774,2.864l1.042,1.186c1.113-0.976,2.315-1.884,3.601-2.729
			l-0.868-1.323V17.423z"/>
		<path fill="#FFFFFF" d="M136.503,82.952c0.96,1.204,1.943,2.405,2.941,3.604l1.215-1.009c-0.991-1.192-1.968-2.388-2.922-3.583
			L136.503,82.952z"/>
		<path fill="#FFFFFF" d="M120.755,59.89v0.003c0.731,1.336,1.509,2.688,2.326,4.046l1.354-0.812
			c-0.806-1.343-1.572-2.675-2.295-3.993L120.755,59.89z"/>
		<path fill="#FFFFFF" d="M113.809,42.521c0.323,1.481,0.738,2.999,1.241,4.548l1.505-0.49c-0.491-1.502-0.893-2.969-1.2-4.392
			L113.809,42.521z"/>
		<path fill="#FFFFFF" d="M116.683,51.471c0.581,1.402,1.224,2.827,1.924,4.27l1.422-0.689c-0.689-1.418-1.318-2.813-1.884-4.183
			L116.683,51.471z"/>
		<path fill="#FFFFFF" d="M189.446,134.951l0.003,0.002c1.271,0.932,2.542,1.826,3.812,2.686l0.884-1.311
			c-1.252-0.846-2.505-1.729-3.762-2.65L189.446,134.951z"/>
		<path fill="#FFFFFF" d="M315.036,112.604l1.029,1.199l-0.002,0.002c1.19-1.021,2.356-2.047,3.498-3.078l-1.061-1.173
			C317.37,110.576,316.215,111.594,315.036,112.604z"/>
		<path fill="#FFFFFF" d="M311.493,115.563c-1.188,0.967-2.394,1.926-3.617,2.873l0.97,1.248c1.234-0.955,2.447-1.921,3.644-2.894
			L311.493,115.563z"/>
		<path fill="#FFFFFF" d="M325.282,27.326c-1.381-0.625-2.812-1.234-4.296-1.831l-0.588,1.467c1.465,0.587,2.874,1.188,4.229,1.804
			L325.282,27.326z"/>
		<path fill="#FFFFFF" d="M300.439,123.914l0.905,1.297c1.276-0.895,2.538-1.801,3.783-2.717l-0.938-1.274
			C302.955,122.132,301.702,123.028,300.439,123.914z"/>
		<path fill="#FFFFFF" d="M293.859,19.305c1.535,0.309,3.039,0.629,4.513,0.963l0.349-1.542c-1.486-0.336-3.004-0.66-4.552-0.97
			L293.859,19.305z"/>
		<path fill="#FFFFFF" d="M292.742,129.035l0.844,1.336c1.314-0.83,2.617-1.674,3.909-2.535l-0.875-1.316
			C295.339,127.375,294.044,128.213,292.742,129.035z"/>
		<path fill="#FFFFFF" d="M302.859,21.339c1.52,0.386,3.007,0.783,4.455,1.196l0.431-1.52c-1.464-0.415-2.962-0.819-4.496-1.208
			L302.859,21.339z"/>
		<path fill="#FFFFFF" d="M328.76,30.767c1.406,0.728,2.743,1.469,4.011,2.225l0.809-1.358c-1.297-0.773-2.662-1.528-4.093-2.269
			L328.76,30.767z"/>
		<path fill="#FFFFFF" d="M234.215,11.282V11.28c-1.531-0.142-3.068-0.285-4.612-0.429l-0.146,1.573
			c1.542,0.144,3.081,0.287,4.612,0.431L234.215,11.282z"/>
		<path fill="#FFFFFF" d="M241.74,149.133l0.166,1.57c1.528-0.162,3.079-0.379,4.641-0.646l-0.268-1.557
			C244.749,148.762,243.233,148.973,241.74,149.133z"/>
		<path fill="#FFFFFF" d="M243.447,12.126c-1.53-0.137-3.067-0.275-4.615-0.417l-0.144,1.572c1.548,0.142,3.087,0.283,4.618,0.418
			L243.447,12.126z"/>
		<path fill="#FFFFFF" d="M252.677,12.908c-1.524-0.122-3.063-0.247-4.614-0.38l-0.135,1.574c1.553,0.133,3.095,0.259,4.625,0.38
			L252.677,12.908z"/>
		<path fill="#FFFFFF" d="M284.817,133.762l0.773,1.377h0.002c1.348-0.758,2.69-1.535,4.024-2.332l-0.809-1.357
			C287.485,132.238,286.153,133.01,284.817,133.762z"/>
		<path fill="#FFFFFF" d="M223.225,150.215c1.526,0.25,3.074,0.445,4.649,0.59l0.141-1.574c-1.534-0.141-3.045-0.332-4.536-0.574
			L223.225,150.215z"/>
		<path fill="#FFFFFF" d="M224.987,10.423c-1.536-0.144-3.074-0.284-4.615-0.421l-0.142,1.572c1.539,0.139,3.079,0.28,4.614,0.422
			L224.987,10.423z"/>
		<path fill="#FFFFFF" d="M250.78,147.594l0.354,1.541l0.002-0.002c1.498-0.346,3.009-0.73,4.528-1.162l-0.431-1.52
			C253.737,146.873,252.253,147.256,250.78,147.594z"/>
		<path fill="#FFFFFF" d="M234.264,149.51c-0.563-0.002-1.122-0.006-1.679-0.02l-0.038,1.58c0.57,0.012,1.143,0.02,1.717,0.02
			c0.978,0,1.968-0.02,2.966-0.059l-0.06-1.58C236.19,149.49,235.222,149.51,234.264,149.51z"/>
		<path fill="#FFFFFF" d="M280.411,15.452c-1.516-0.207-3.052-0.404-4.611-0.59l-0.186,1.57c1.551,0.184,3.079,0.378,4.583,0.583
			L280.411,15.452z"/>
		<path fill="#FFFFFF" d="M276.659,138.061l0.697,1.418c1.388-0.68,2.772-1.387,4.152-2.113l-0.737-1.398
			C279.404,136.688,278.032,137.387,276.659,138.061z"/>
		<path fill="#FFFFFF" d="M261.807,15.152l0.111-1.577c-0.374-0.024-0.747-0.051-1.122-0.075c-1.158-0.075-2.324-0.157-3.501-0.241
			l-0.112,1.577c1.179,0.084,2.35,0.166,3.512,0.241C261.066,15.102,261.439,15.126,261.807,15.152z"/>
		<path fill="#FFFFFF" d="M289.599,16.891c-1.505-0.268-3.033-0.521-4.588-0.765l-0.245,1.56c1.546,0.243,3.063,0.494,4.555,0.762
			L289.599,16.891z"/>
		<path fill="#FFFFFF" d="M268.261,141.875l0.605,1.459h0.002c1.422-0.594,2.849-1.215,4.275-1.861l-0.655-1.438
			C271.08,140.676,269.67,141.289,268.261,141.875z"/>
		<path fill="#FFFFFF" d="M259.632,145.1l0.497,1.502c1.46-0.484,2.929-1.002,4.399-1.553l-0.555-1.48
			C262.523,144.111,261.075,144.625,259.632,145.1z"/>
		<path fill="#FFFFFF" d="M271.179,14.359c-1.522-0.155-3.066-0.296-4.628-0.429l-0.135,1.575c1.558,0.13,3.09,0.273,4.604,0.426
			L271.179,14.359z"/>
		<polygon fill="#FFFFFF" points="223.225,150.215 223.225,150.217 223.225,150.215 		"/>
		<rect x="341.261" y="37.017" fill="#FFFFFF" width="0.001" height="0.003"/>
		<rect x="280.41" y="15.451" fill="#FFFFFF" width="0.002" height="0.002"/>
		<rect x="224.987" y="10.422" fill="#FFFFFF" width="0.002" height="0.004"/>
		<rect x="187.958" y="7.678" fill="#FFFFFF" width="0.002" height="0.004"/>
		<polygon fill="#FFFFFF" points="169.37,7.417 169.372,7.42 169.37,7.42 169.37,7.42 169.37,7.417 		"/>
		<g>
			<g>
				<path fill="#FFFFFF" d="M211.805,60.288h-5.836v-6.23c0.004-1.062-0.309-2.113-1.086-2.834c-0.769-0.719-1.809-0.97-2.904-0.97
					s-2.126,0.258-2.897,0.97c-0.772,0.727-1.081,1.771-1.074,2.834v6.23h-0.487c-1.104,0-2.138,0.261-2.91,0.982
					c-0.77,0.728-1.084,1.767-1.076,2.826c-0.008,1.062,0.307,2.103,1.076,2.832c0.772,0.709,1.807,0.973,2.91,0.973h0.487v25.033
					c-0.007,1.061,0.302,2.097,1.074,2.821c0.771,0.716,1.8,0.978,2.897,0.973h0.031c1.09,0,2.11-0.26,2.873-0.967
					c0.777-0.723,1.09-1.767,1.086-2.827V67.901h5.836c1.098,0,2.131-0.264,2.901-0.973c0.772-0.721,1.087-1.77,1.074-2.832
					c0.013-1.06-0.302-2.107-1.074-2.826C213.936,60.549,212.903,60.288,211.805,60.288z M80.895,60.294l-19.633-0.006
					c-3.232-0.004-6.125,1.064-8.449,3.15c-2.332,2.065-3.582,4.789-3.567,7.845V85.74c-0.015,3.028,1.241,5.745,3.597,7.822
					c2.326,2.097,5.213,3.177,8.42,3.166h19.68c3.096,0,5.895-1.025,8.197-3.011c2.465-2.049,3.787-4.825,3.768-7.978V71.283
					c0.011-3.056-1.236-5.772-3.573-7.845C87.018,61.353,84.124,60.284,80.895,60.294z M84.952,85.74
					c-0.012,0.979-0.332,1.666-1.145,2.382c-0.845,0.709-1.731,1.037-2.912,1.045H61.262c-1.184-0.008-2.08-0.336-2.92-1.045
					c-0.807-0.716-1.123-1.396-1.135-2.382V71.283c0.012-0.98,0.328-1.657,1.135-2.385c0.84-0.705,1.741-1.038,2.92-1.048h19.633
					c1.178,0.01,2.067,0.34,2.912,1.054c0.812,0.722,1.133,1.408,1.145,2.379V85.74z M39.556,89.167H11.88
					c-1.185-0.008-2.08-0.336-2.921-1.045c-0.798-0.708-1.113-1.39-1.123-2.382V71.283c0.01-0.98,0.321-1.664,1.133-2.385
					c0.838-0.708,1.727-1.038,2.911-1.048h19.638c1.096,0,2.129-0.254,2.903-0.97c0.776-0.726,1.087-1.77,1.075-2.831
					c0.012-1.05-0.304-2.092-1.078-2.805c-0.775-0.706-1.805-0.957-2.9-0.957H11.88c-3.227-0.004-6.127,1.064-8.442,3.15
					c-2.338,2.065-3.586,4.789-3.572,7.845V85.74c-0.014,3.037,1.255,5.74,3.595,7.822c2.327,2.092,5.187,3.166,8.374,3.166h27.722
					c1.091,0,2.12-0.251,2.894-0.956c0.775-0.713,1.09-1.751,1.082-2.8c0.008-1.067-0.301-2.109-1.067-2.83
					C41.682,89.422,40.654,89.167,39.556,89.167z M126.352,60.288h-12.949c-1.838,0-3.572,0.344-5.165,1.031
					c-0.74-0.702-1.794-1.062-2.865-1.031c-1.095,0-2.12,0.247-2.898,0.962c-0.778,0.713-1.097,1.749-1.084,2.804V92.97
					c-0.013,1.054,0.306,2.099,1.084,2.803c0.778,0.705,1.804,0.961,2.898,0.961c1.094,0,2.125-0.256,2.895-0.961
					c0.776-0.713,1.095-1.751,1.081-2.803V71.283c0.016-0.98,0.33-1.664,1.139-2.383c0.84-0.71,1.744-1.04,2.916-1.055l12.949,0.008
					c1.167,0.007,2.072,0.337,2.908,1.047c0.807,0.719,1.125,1.402,1.139,2.383V92.97c-0.012,1.052,0.307,2.09,1.082,2.803
					c0.77,0.705,1.799,0.961,2.896,0.961c1.094,0,2.124-0.256,2.896-0.961c0.777-0.704,1.094-1.749,1.084-2.803V71.283
					c0.018-3.061-1.236-5.779-3.571-7.841C132.476,61.353,129.576,60.278,126.352,60.288z M253.145,60.288h-19.64
					c-3.227-0.004-6.12,1.064-8.442,3.15c-2.338,2.072-3.585,4.789-3.569,7.845V85.74c-0.016,3.028,1.245,5.745,3.604,7.822
					c2.307,2.092,5.176,3.166,8.359,3.166h19.688c1.094,0,2.129-0.246,2.9-0.956c0.777-0.713,1.096-1.751,1.082-2.8
					c0.014-1.067-0.305-2.109-1.074-2.83c-0.773-0.721-1.814-0.976-2.908-0.976h-19.64c-1.171-0.008-2.073-0.336-2.915-1.045
					c-0.804-0.716-1.106-1.39-1.129-2.382v-3.474l23.684,0.008v-0.008c3.111,0.011,5.92-1.002,8.24-2.966
					c2.463-2.087,3.795-4.872,3.777-8.018c0.018-3.056-1.234-5.779-3.58-7.845C259.268,61.353,256.375,60.284,253.145,60.288z
					 M256.045,73.692c-0.83,0.719-1.725,1.052-2.9,1.063l-23.684-0.008v-3.465c0.014-0.987,0.325-1.664,1.129-2.379
					c0.842-0.711,1.749-1.044,2.915-1.054h19.64c1.156,0.01,2.041,0.318,2.852,0.978c0.859,0.741,1.188,1.459,1.207,2.455
					C257.184,72.259,256.866,72.961,256.045,73.692z M177.157,74.756l-19.641-0.008c-1.181-0.004-2.075-0.337-2.91-1.056
					c-0.808-0.724-1.129-1.426-1.143-2.409c0.014-0.98,0.332-1.664,1.133-2.385c0.838-0.705,1.739-1.038,2.92-1.048h19.641
					c1.092,0,2.127-0.254,2.898-0.97c0.775-0.715,1.09-1.765,1.082-2.831c0.008-1.051-0.31-2.092-1.088-2.805
					c-0.769-0.706-1.801-0.957-2.893-0.957h-19.641c-3.209-0.004-6.094,1.071-8.422,3.175c-2.346,2.081-3.614,4.782-3.598,7.82
					c-0.017,3.055,1.238,5.768,3.57,7.842c2.33,2.088,5.223,3.152,8.449,3.142l19.641,0.008c1.167,0.003,2.066,0.343,2.898,1.055
					c0.818,0.74,1.137,1.434,1.15,2.411c-0.014,0.985-0.332,1.666-1.144,2.382c-0.831,0.709-1.734,1.037-2.905,1.045h-27.679
					c-1.095,0-2.128,0.255-2.907,0.976c-0.77,0.721-1.082,1.763-1.074,2.83c-0.008,1.049,0.309,2.087,1.086,2.8
					c0.773,0.71,1.801,0.956,2.896,0.956h27.726c3.086,0,5.891-1.025,8.191-3.011c2.46-2.049,3.787-4.825,3.768-7.978
					c0.01-3.057-1.239-5.773-3.574-7.849C183.279,75.809,180.377,74.744,177.157,74.756z M276.282,42.396
					c-1.102,0-2.137,0.268-2.912,0.994c-0.768,0.729-1.074,1.778-1.064,2.861V92.88c-0.01,1.075,0.297,2.124,1.064,2.856
					c0.773,0.724,1.811,0.997,2.912,0.992h0.035c1.084,0,2.115-0.272,2.879-0.992c0.768-0.732,1.076-1.781,1.064-2.856V46.252
					c0.012-1.083-0.297-2.133-1.064-2.861C278.422,42.664,277.381,42.396,276.282,42.396z M386.008,49
					c-1.379,0-2.635,0.322-3.539,1.178c-0.92,0.859-1.301,2.102-1.289,3.432c-0.012,1.333,0.369,2.577,1.289,3.423
					c0.904,0.862,2.16,1.182,3.539,1.182c1.381,0,2.629-0.32,3.547-1.182c0.906-0.853,1.283-2.09,1.271-3.423
					c0.012-1.33-0.365-2.572-1.271-3.432C388.637,49.322,387.389,49,386.008,49z M386.008,60.288c-1.102,0-2.137,0.261-2.914,0.982
					c-0.77,0.719-1.088,1.767-1.072,2.826v28.838c-0.016,1.061,0.303,2.104,1.082,2.827c0.768,0.71,1.803,0.972,2.904,0.972
					c1.094,0,2.129-0.262,2.902-0.978c0.773-0.725,1.082-1.761,1.07-2.821V64.097c0.012-1.06-0.297-2.099-1.07-2.826
					C388.147,60.549,387.106,60.288,386.008,60.288z M484.854,63.442c-2.312-2.09-5.203-3.164-8.439-3.154h-12.953
					c-1.824,0-3.559,0.344-5.152,1.031c-0.738-0.702-1.797-1.059-2.873-1.031c-1.09,0-2.123,0.247-2.895,0.962
					c-0.781,0.713-1.092,1.749-1.086,2.804V92.97c-0.006,1.052,0.305,2.09,1.086,2.803c0.771,0.705,1.805,0.961,2.895,0.961
					c1.094,0,2.127-0.256,2.898-0.961c0.783-0.713,1.1-1.751,1.084-2.803V71.283c0.02-0.98,0.33-1.664,1.141-2.383
					c0.838-0.71,1.74-1.04,2.902-1.055l12.953,0.008c1.178,0.007,2.088,0.34,2.912,1.047c0.812,0.719,1.119,1.396,1.143,2.383V92.97
					c-0.016,1.052,0.303,2.09,1.074,2.803c0.779,0.705,1.809,0.961,2.904,0.961s2.123-0.256,2.895-0.961
					c0.773-0.713,1.092-1.751,1.076-2.803V71.283C488.44,68.223,487.19,65.504,484.854,63.442z M430.961,60.294l-19.635-0.006
					c-3.232-0.004-6.127,1.064-8.441,3.15c-2.332,2.065-3.586,4.784-3.57,7.845V85.74c-0.016,3.037,1.244,5.745,3.588,7.822
					c2.332,2.097,5.221,3.177,8.424,3.166h19.68c3.094,0,5.902-1.024,8.203-3.011c2.463-2.049,3.787-4.821,3.771-7.978V71.283
					c0.016-3.056-1.236-5.779-3.574-7.845C437.079,61.353,434.194,60.284,430.961,60.294z M435.018,85.74
					c-0.021,0.985-0.336,1.674-1.135,2.387c-0.84,0.704-1.734,1.032-2.922,1.04h-19.635c-1.176-0.008-2.084-0.336-2.902-1.04
					c-0.82-0.713-1.129-1.395-1.143-2.387V71.283c0.014-0.98,0.322-1.664,1.143-2.385c0.818-0.705,1.727-1.038,2.902-1.048h19.635
					c1.188,0.01,2.082,0.343,2.922,1.054c0.799,0.715,1.113,1.398,1.135,2.379V85.74z M292.725,42.396
					c-1.1,0-2.146,0.268-2.916,0.994c-0.773,0.729-1.074,1.778-1.07,2.861V92.88c-0.004,1.075,0.297,2.124,1.064,2.856
					c0.775,0.724,1.822,0.997,2.922,0.992h0.031c1.088,0,2.117-0.272,2.877-0.992c0.773-0.732,1.086-1.781,1.064-2.856V46.252
					c0.021-1.083-0.291-2.133-1.064-2.861C294.864,42.664,293.827,42.396,292.725,42.396z M371.475,60.288h-5.826v-6.23
					c0.01-1.069-0.303-2.113-1.076-2.834c-0.775-0.712-1.809-0.97-2.902-0.97s-2.133,0.251-2.914,0.966
					c-0.775,0.725-1.086,1.769-1.076,2.838v6.23h-0.48c-1.096,0-2.131,0.261-2.904,0.982c-0.771,0.728-1.078,1.767-1.076,2.826
					c-0.002,1.062,0.305,2.103,1.076,2.832c0.773,0.709,1.809,0.973,2.904,0.973h0.477l0.004,25.033
					c-0.01,1.061,0.301,2.104,1.076,2.827c0.781,0.71,1.82,0.972,2.914,0.972s2.127-0.262,2.902-0.972
					c0.773-0.723,1.086-1.767,1.076-2.827V67.894l5.826,0.008c1.104,0,2.145-0.264,2.914-0.973c0.773-0.721,1.088-1.77,1.074-2.832
					c0.014-1.06-0.301-2.107-1.074-2.826C373.62,60.549,372.579,60.288,371.475,60.288z M335.495,60.288h-19.639
					c-1.098,0-2.125,0.247-2.891,0.962c-0.781,0.708-1.098,1.749-1.088,2.804c-0.01,1.062,0.299,2.102,1.072,2.827
					c0.777,0.713,1.809,0.97,2.906,0.97h19.639c1.178,0.01,2.068,0.34,2.912,1.05c0.812,0.719,1.125,1.402,1.143,2.383V74.7
					l-23.693,0.006c-3.232-0.008-6.121,1.064-8.436,3.173c-2.34,2.088-3.594,4.805-3.582,7.859
					c-0.012,3.035,1.246,5.745,3.604,7.829c2.326,2.092,5.207,3.172,8.414,3.161l19.639,0.005c1.826,0,3.559-0.35,5.148-1.058
					c0.734,0.719,1.805,1.089,2.895,1.053c1.086,0.005,2.121-0.251,2.891-0.956c0.775-0.715,1.086-1.751,1.08-2.803V71.283
					c0.012-3.061-1.236-5.772-3.568-7.845C341.618,61.353,338.719,60.278,335.495,60.288z M339.549,85.738
					c-0.018,0.988-0.33,1.668-1.143,2.376c-0.834,0.717-1.734,1.045-2.912,1.053l-19.639-0.005c-1.176-0.003-2.08-0.331-2.914-1.04
					c-0.803-0.713-1.121-1.396-1.139-2.384c0.018-0.964,0.34-1.687,1.162-2.438c0.834-0.728,1.73-1.064,2.891-1.072h23.693V85.738z"
					/>
				<g>
					<g>
						<g>
							<g opacity="0.8">
								<line fill="#FCE193" x1="225.966" y1="30.548" x2="225.966" y2="30.548"/>
								<path fill="#FCE193" d="M225.966,30.548c3.707-0.198,6.525-0.152,8.442,0.106l6.361-0.873
									c-4.521,0.785-9.005,1.596-13.505,2.45c-12.116,2.393-25.728,5.469-38.697,8.749c-12.974,3.269-25.3,6.745-34.963,9.562
									c5.676-1.784,12.455-3.863,18.941-5.739l6.33-1.805c4.075-1.143,7.802-2.14,10.758-2.901l-1.753,0.519
									c4.391-1.297,8.794-2.555,13.21-3.776c4.447-1.091,8.904-2.145,13.37-3.161c-4.466,1.017-8.923,2.07-13.37,3.161
									C209.346,34.614,217.64,32.52,225.966,30.548"/>
								<line fill="#FCE193" x1="201.091" y1="36.839" x2="201.091" y2="36.839"/>
								<line fill="#FCE193" x1="153.605" y1="50.542" x2="153.605" y2="50.542"/>
								<line fill="#FCE193" x1="240.77" y1="29.781" x2="240.77" y2="29.781"/>
								<path fill="#FCE193" d="M271.685,101.055l-0.575,0.111l3.151-0.834c12.472-2.91,24.869-6.117,36.274-9.45
									c13.9-3.991,28.325-8.42,43.15-13.578c2.962-1.033,5.94-2.093,8.937-3.194c-5.928,2.345-11.911,4.573-17.935,6.703
									l-1.782,0.583c-12.872,4.18-24.677,7.709-36.253,10.923C295.074,95.524,283.718,98.404,271.685,101.055"/>
								<line fill="#FCE193" x1="344.688" y1="80.812" x2="344.688" y2="80.812"/>
								<line fill="#FBD35E" x1="360.5" y1="73.613" x2="360.5" y2="73.613"/>
								<path fill="#FBD35E" d="M360.5,73.613c13.551-5.178,27.822-11.156,41.102-18.482l0.114,0.211
									c-7.356,4.046-15.519,7.966-24.002,11.506c-2.333,0.973-4.693,1.919-7.062,2.827l1.702-0.617
									C368.431,70.633,364.478,72.15,360.5,73.613"/>
								<path fill="#FBD35E" d="M390.682,61.36c4.055-1.971,8.046-4.04,11.933-6.236l1.581-0.819
									C399.814,56.814,395.286,59.148,390.682,61.36"/>
								<polyline fill="#FBD35E" points="269.015,106.455 265.398,107.134 269.91,106.237 269.015,106.455 								"/>
								<line fill="#FBD35E" x1="265.398" y1="107.134" x2="265.398" y2="107.134"/>
								<line fill="#FBD35E" x1="404.503" y1="64.396" x2="404.503" y2="64.396"/>
								<path fill="#FBD35E" d="M404.503,64.396c-1.948,0.985-3.909,1.937-5.879,2.859
									C400.594,66.333,402.555,65.382,404.503,64.396"/>
								<polyline fill="#FBD35E" points="398.625,67.256 397.788,67.668 398.625,67.256 								"/>
								<line fill="#FBD35E" x1="400.073" y1="18.008" x2="400.073" y2="18.008"/>
								<path fill="#FBD35E" d="M400.073,18.008c1.472,0.253,2.937,0.527,4.391,0.826C403.009,18.535,401.544,18.261,400.073,18.008
									"/>
								<line fill="#FBD35E" x1="427.743" y1="48.046" x2="427.743" y2="48.046"/>
								<path fill="#FBD35E" d="M427.743,48.046c-0.488,0.437-0.982,0.861-1.481,1.276C426.76,48.907,427.254,48.482,427.743,48.046
									"/>
								<path fill="#FBD35E" d="M98.1,115.248c-3.306-0.531-6.577-1.16-9.775-1.931C91.523,114.088,94.794,114.717,98.1,115.248"/>
								<line fill="#FBD35E" x1="265.398" y1="107.134" x2="265.398" y2="107.134"/>
								<polyline fill="#FBD35E" points="265.398,107.134 258.147,108.396 265.398,107.134 								"/>
								<line fill="#FBD35E" x1="411.288" y1="20.719" x2="411.288" y2="20.719"/>
								<line fill="#FBD35E" x1="411.288" y1="20.719" x2="411.288" y2="20.719"/>
								<path fill="#FBD35E" d="M411.288,20.719c1.967,0.515,3.899,1.095,5.76,1.765c-1.599-0.569-3.248-1.075-4.93-1.526
									L411.288,20.719"/>
								<path fill="#FBD35E" d="M392.055,16.911c2.689,0.306,5.364,0.668,8.018,1.097c-1.771-0.277-3.551-0.524-5.338-0.745
									L392.055,16.911"/>
								<line fill="#FBD35E" x1="400.073" y1="18.008" x2="400.073" y2="18.008"/>
								<path fill="#FBD35E" d="M425.673,38.775c1.763-2.243,2.929-4.682,2.93-6.457c0.023-0.323,0.019-0.632-0.015-0.936
									c0.033,0.304,0.038,0.612,0.015,0.936c0.023-0.323,0.019-0.632-0.015-0.936l0.026-0.004c0.15,0.969,0.01,2.106-0.522,3.407
									C427.578,36.077,426.717,37.449,425.673,38.775"/>
								<line fill="#FBD35E" x1="400.028" y1="18.324" x2="400.028" y2="18.324"/>
								<line fill="#FBD35E" x1="400.028" y1="18.324" x2="400.028" y2="18.324"/>
								<path fill="#FBD35E" d="M400.028,18.324c3.824,0.631,7.604,1.402,11.26,2.395c1.967,0.515,3.899,1.095,5.76,1.765
									c-1.599-0.569-3.248-1.075-4.93-1.526c2.72,0.765,5.425,1.677,7.958,2.816c2.516,1.131,4.9,2.549,6.489,4.169
									c0.792,0.805,1.334,1.628,1.621,2.398c0.043,0.096,0.063,0.194,0.099,0.29c0.032,0.097,0.022,0.106,0.047,0.161l0.062,0.283
									l0.032,0.15l0.017,0.076l0.002,0.009c-0.013-0.058,0.03,0.144-0.027-0.127l0.001,0.009l0.002,0.019
									c0.008,0.1,0.034,0.195,0.036,0.296c0.036,0.396,0.023,0.81-0.045,1.259c-0.256,1.799-1.612,4.166-3.543,6.359
									c-0.303,0.425-0.62,0.851-0.958,1.271c1.844-1.938,3.389-4.048,4.126-5.971c0.371-0.957,0.525-1.822,0.494-2.579
									c-0.005-0.19-0.021-0.376-0.055-0.56l-0.011-0.068l-0.004-0.035l-0.001-0.009c0.057,0.27,0.015,0.072,0.027,0.131
									l-0.001-0.004l-0.002-0.009l-0.008-0.035l-0.062-0.28c-0.052-0.251-0.061-0.216-0.073-0.272
									c-0.082-0.284-0.251-0.701-0.456-1.055c0.124,0.221,0.249,0.436,0.335,0.652c0.054,0.106,0.084,0.216,0.129,0.322
									c0.034,0.116,0.027,0.054,0.078,0.232l0.08,0.335l0.02,0.084l0.005,0.021l0.001,0.001c0.006,0.029-0.054-0.252-0.028-0.133
									v0.001v0.003l0.001,0.005l0.004,0.021l0.015,0.083c0.024,0.11,0.038,0.223,0.052,0.336c0.027,0.227,0.038,0.46,0.028,0.703
									c0.023-0.323,0.019-0.632-0.015-0.936l-0.034-0.226v-0.001c-0.006-0.029,0.053,0.249,0.028,0.131l-0.001-0.001v-0.002
									l-0.002-0.007l-0.003-0.014l-0.006-0.028l-0.013-0.056l-0.024-0.112l-0.049-0.224c-0.058-0.196-0.037-0.146-0.107-0.352
									c-0.102-0.295-0.231-0.593-0.401-0.895c0.174,0.3,0.308,0.596,0.414,0.891c0.072,0.205,0.054,0.155,0.114,0.351l0.051,0.224
									l0.025,0.112l0.013,0.056l0.006,0.028l0.004,0.014l0.001,0.007l0.001,0.002v0.001c0.024,0.117-0.034-0.159-0.028-0.131
									l0.001,0.002l0.037,0.226l-0.021-0.142l-0.009-0.071l-0.001-0.009l-0.001-0.005V31.15c0.056,0.262,0.015,0.07,0.027,0.127
									l-0.008-0.034l-0.015-0.07l-0.06-0.281l-0.029-0.135l-0.013-0.034c-0.014-0.053-0.078-0.292-0.151-0.469
									c-0.143-0.375-0.339-0.758-0.597-1.146c-0.513-0.778-1.274-1.572-2.197-2.314c-1.869-1.488-4.308-2.748-6.893-3.784
									c2.06,0.858,4.02,1.846,5.666,2.988c-2.073-1.414-4.604-2.585-7.25-3.564c0.534,0.185,1.062,0.376,1.584,0.576
									c-2.32-0.968-4.792-1.771-7.317-2.472C407.654,19.604,403.861,18.894,400.028,18.324 M417.065,22.433l-1.623-0.531
									L417.065,22.433 M427.976,29.598L427.976,29.598"/>
								<line fill="#FAC836" x1="412.118" y1="20.957" x2="412.118" y2="20.957"/>
								<path fill="#FAC836" d="M412.118,20.957c1.682,0.451,3.331,0.957,4.93,1.526C415.449,21.914,413.799,21.408,412.118,20.957"
									/>
								<line fill="#FAC836" x1="417.047" y1="22.483" x2="417.047" y2="22.483"/>
								<line fill="#FBD35E" x1="428.615" y1="31.379" x2="428.615" y2="31.379"/>
								<path fill="#FAC836" d="M428.588,31.383c0.033,0.304,0.038,0.612,0.015,0.936C428.626,31.995,428.622,31.687,428.588,31.383
									"/>
								<line fill="#FBD35E" x1="378.517" y1="15.983" x2="378.517" y2="15.983"/>
								<line fill="#FBD35E" x1="378.517" y1="15.983" x2="378.517" y2="15.983"/>
								<path fill="#FBD35E" d="M378.517,15.983l4.523,0.263c2.108,0.143,4.211,0.31,6.309,0.507
									c6.285,0.64,12.531,1.531,18.568,2.902c1.147,0.275,2.289,0.565,3.414,0.882c-3.678-0.934-7.471-1.644-11.304-2.213
									C392.968,17.152,385.758,16.439,378.517,15.983"/>
								<line fill="#FBD35E" x1="411.332" y1="20.537" x2="411.332" y2="20.537"/>
								<line fill="#FAC836" x1="427.976" y1="29.598" x2="427.976" y2="29.598"/>
								<line fill="#FAC836" x1="427.976" y1="29.598" x2="427.976" y2="29.598"/>
								<path fill="#FBD35E" d="M427.976,29.598c0.174,0.3,0.308,0.596,0.414,0.891c0.072,0.205,0.054,0.155,0.114,0.351
									l0.051,0.224l0.025,0.112l0.013,0.056l0.006,0.028l0.004,0.014l0.001,0.007l0.001,0.002v0.001
									c0.024,0.117-0.034-0.159-0.028-0.131l0.001,0.002l0.037,0.226l-0.026,0.004l-0.034-0.226v-0.001
									c-0.006-0.029,0.053,0.249,0.028,0.131l-0.001-0.001v-0.002l-0.002-0.007l-0.003-0.014l-0.006-0.028l-0.013-0.056
									l-0.024-0.112l-0.049-0.224c-0.058-0.196-0.037-0.146-0.107-0.352C428.276,30.197,428.146,29.899,427.976,29.598"/>
								<line fill="#FBD35E" x1="428.615" y1="31.379" x2="428.615" y2="31.379"/>
								<path fill="#FAC836" d="M427.976,29.598c0.174,0.3,0.308,0.596,0.414,0.891c0.072,0.205,0.054,0.155,0.114,0.351
									l0.051,0.224l0.025,0.112l0.013,0.056l0.006,0.028l0.004,0.014l0.001,0.007l0.001,0.002v0.001
									c0.024,0.117-0.034-0.159-0.028-0.131l0.001,0.002l0.037,0.226l-0.037-0.226l-0.001-0.002
									c-0.006-0.028,0.053,0.248,0.028,0.131v-0.001l-0.001-0.002l-0.001-0.007l-0.004-0.014l-0.006-0.028l-0.013-0.056
									l-0.025-0.112l-0.051-0.224c-0.061-0.195-0.042-0.146-0.114-0.351C428.284,30.193,428.15,29.897,427.976,29.598"/>
								<line fill="#FAC836" x1="428.615" y1="31.379" x2="428.615" y2="31.379"/>
								<line fill="#FBD35E" x1="376.703" y1="15.893" x2="376.703" y2="15.893"/>
								<line fill="#FBD35E" x1="376.703" y1="15.893" x2="376.703" y2="15.893"/>
								<polyline fill="#FBD35E" points="376.703,15.893 380.26,16.047 383.041,16.246 378.517,15.983 376.703,15.893 								"/>
								<line fill="#FBD35E" x1="379.42" y1="15.992" x2="379.42" y2="15.992"/>
								<line fill="#FBD35E" x1="379.42" y1="15.992" x2="379.42" y2="15.992"/>
								<polyline fill="#FBD35E" points="379.42,15.992 380.26,16.047 379.42,15.992 								"/>
								<path fill="#FBD35E" d="M381.842,16.13c3.416,0.188,6.824,0.442,10.213,0.781c-1.796-0.17-3.598-0.315-5.402-0.441
									C385.052,16.34,383.449,16.229,381.842,16.13"/>
								<line fill="#FBD35E" x1="383.041" y1="16.246" x2="383.041" y2="16.246"/>
								<line fill="#FAC836" x1="428.588" y1="31.383" x2="428.588" y2="31.383"/>
								<line fill="#FBD35E" x1="428.588" y1="31.383" x2="428.588" y2="31.383"/>
								<path fill="#FAC836" d="M428.588,31.383c0.033,0.304,0.038,0.612,0.015,0.936C428.626,31.995,428.622,31.687,428.588,31.383
									"/>
								<line fill="#FAC836" x1="428.588" y1="31.383" x2="428.588" y2="31.383"/>
								<line fill="#FBD35E" x1="379.42" y1="15.992" x2="379.42" y2="15.992"/>
								<line fill="#FBD35E" x1="379.42" y1="15.992" x2="379.42" y2="15.992"/>
								<polyline fill="#FBD35E" points="379.42,15.992 381.842,16.13 379.42,15.992 								"/>
								<path fill="#FBD35E" d="M380.26,16.047l1.582,0.083c1.606,0.099,3.21,0.21,4.811,0.34l2.696,0.283
									c-2.098-0.197-4.2-0.364-6.309-0.507c2.108,0.143,4.211,0.31,6.309,0.507c-2.098-0.197-4.2-0.364-6.309-0.507L380.26,16.047
									"/>
								<polyline fill="#FAC836" points="379.42,15.992 381.842,16.13 380.26,16.047 379.42,15.992 								"/>
								<path fill="#FAC836" d="M381.842,16.13c1.606,0.099,3.21,0.21,4.811,0.34C385.052,16.34,383.449,16.229,381.842,16.13"/>
								<line fill="#FBD35E" x1="389.349" y1="16.753" x2="389.349" y2="16.753"/>
								<line fill="#FBD35E" x1="389.349" y1="16.753" x2="389.349" y2="16.753"/>
								<line fill="#FAC836" x1="383.041" y1="16.246" x2="383.041" y2="16.246"/>
								<path fill="#FAC836" d="M383.041,16.246c2.108,0.143,4.211,0.31,6.309,0.507C387.251,16.556,385.149,16.389,383.041,16.246"
									/>
								<line fill="#FAC836" x1="386.653" y1="16.47" x2="386.653" y2="16.47"/>
								<line fill="#FAC836" x1="386.653" y1="16.47" x2="386.653" y2="16.47"/>
								<line fill="#FBD35E" x1="386.653" y1="16.47" x2="386.653" y2="16.47"/>
								<line fill="#FAC836" x1="386.653" y1="16.47" x2="386.653" y2="16.47"/>
								<path fill="#FBD35E" d="M386.653,16.47c1.805,0.126,3.606,0.271,5.402,0.441l2.68,0.352
									C392.053,16.943,389.357,16.685,386.653,16.47"/>
								<line fill="#FAC836" x1="392.055" y1="16.911" x2="392.055" y2="16.911"/>
								<line fill="#FAC836" x1="392.055" y1="16.911" x2="392.055" y2="16.911"/>
								<polyline fill="#FAC836" points="392.055,16.911 394.735,17.263 392.055,16.911 								"/>
								<path fill="#FAC836" d="M386.653,16.47c1.805,0.126,3.606,0.271,5.402,0.441C390.259,16.741,388.458,16.596,386.653,16.47"
									/>
								<line fill="#FAC836" x1="392.055" y1="16.911" x2="392.055" y2="16.911"/>
								<line fill="#FAC836" x1="386.653" y1="16.47" x2="386.653" y2="16.47"/>
								<line fill="#FAC836" x1="386.653" y1="16.47" x2="386.653" y2="16.47"/>
								<path fill="#FBD35E" d="M386.653,16.47c2.704,0.215,5.4,0.474,8.082,0.793c1.485,0.215,2.966,0.447,4.439,0.7
									c-2.954-0.451-5.932-0.826-8.925-1.135l-0.9-0.075L386.653,16.47"/>
								<line fill="#FAC836" x1="394.735" y1="17.263" x2="394.735" y2="17.263"/>
								<line fill="#FBD35E" x1="399.174" y1="17.963" x2="399.174" y2="17.963"/>
								<line fill="#FAC836" x1="386.653" y1="16.47" x2="386.653" y2="16.47"/>
								<line fill="#FAC52B" x1="386.653" y1="16.47" x2="386.653" y2="16.47"/>
								<path fill="#FAC836" d="M386.653,16.47c2.704,0.215,5.4,0.474,8.082,0.793C392.053,16.943,389.357,16.685,386.653,16.47"/>
								<line fill="#FAC52B" x1="394.735" y1="17.263" x2="394.735" y2="17.263"/>
								<line fill="#FAC52B" x1="394.735" y1="17.263" x2="394.735" y2="17.263"/>
								<polyline fill="#FAC836" points="415.442,21.901 417.065,22.433 415.442,21.901 								"/>
								<line fill="#FAC836" x1="389.349" y1="16.753" x2="389.349" y2="16.753"/>
								<line fill="#FAC836" x1="417.065" y1="22.433" x2="417.065" y2="22.433"/>
								<line fill="#FAC836" x1="417.065" y1="22.433" x2="417.065" y2="22.433"/>
								<path fill="#FBD35E" d="M417.065,22.433c0.534,0.185,1.062,0.376,1.584,0.576c2.06,0.858,4.02,1.846,5.666,2.988
									C422.242,24.583,419.711,23.412,417.065,22.433"/>
								<path fill="#FAC836" d="M417.065,22.433c0.534,0.185,1.062,0.376,1.584,0.576C418.127,22.809,417.599,22.617,417.065,22.433
									"/>
								<line fill="#FAC836" x1="418.649" y1="23.009" x2="418.649" y2="23.009"/>
								<path fill="#FAC836" d="M418.649,23.009c2.06,0.858,4.02,1.846,5.666,2.988C422.668,24.854,420.708,23.867,418.649,23.009"
									/>
								<line fill="#FAC836" x1="418.649" y1="23.009" x2="418.649" y2="23.009"/>
								<line fill="#FAC836" x1="424.315" y1="25.997" x2="424.315" y2="25.997"/>
								<line fill="#FBD35E" x1="407.917" y1="19.655" x2="407.917" y2="19.655"/>
								<line fill="#FBD35E" x1="407.917" y1="19.655" x2="407.917" y2="19.655"/>
								<path fill="#FBD35E" d="M407.917,19.655c1.726,0.384,3.431,0.812,5.104,1.293l-1.689-0.411
									C410.207,20.221,409.065,19.931,407.917,19.655"/>
								<line fill="#FAC836" x1="389.349" y1="16.753" x2="389.349" y2="16.753"/>
								<line fill="#FAC836" x1="389.349" y1="16.753" x2="389.349" y2="16.753"/>
								<path fill="#FBD35E" d="M389.349,16.753l0.9,0.075c5.98,0.641,11.921,1.513,17.668,2.827
									C401.88,18.284,395.634,17.393,389.349,16.753"/>
								<polyline fill="#FAC836" points="389.349,16.753 390.25,16.828 389.349,16.753 390.25,16.828 389.349,16.753 								"/>
								<polyline fill="#FAC52B" points="389.349,16.753 390.25,16.828 389.349,16.753 								"/>
								<line fill="#FBD35E" x1="407.917" y1="19.655" x2="407.917" y2="19.655"/>
								<path fill="#FBD35E" d="M420.043,52.176c-3.827,2.684-7.814,5.07-11.877,7.287c4.59-2.537,9.096-5.271,13.359-8.432
									L420.043,52.176"/>
								<line fill="#FBD35E" x1="408.167" y1="59.463" x2="408.167" y2="59.463"/>
								<path fill="#FBD35E" d="M414.716,55.944c-3.735,2.225-7.562,4.248-11.438,6.146c4.95-2.494,9.822-5.181,14.505-8.247
									C416.771,54.561,415.75,55.263,414.716,55.944"/>
								<line fill="#FBD35E" x1="403.279" y1="62.091" x2="403.279" y2="62.091"/>
								<line fill="#FBD35E" x1="406.324" y1="61.868" x2="406.324" y2="61.868"/>
								<line fill="#FBD35E" x1="406.324" y1="61.868" x2="406.324" y2="61.868"/>
								<path fill="#FBD35E" d="M406.324,61.868c-11.446,6.229-22.544,10.916-32.062,14.457c5.449-2.124,10.858-4.362,16.207-6.763
									l-0.843,0.383C395.27,67.457,400.856,64.804,406.324,61.868"/>
								<line fill="#FBD35E" x1="390.468" y1="69.562" x2="390.468" y2="69.562"/>
								<line fill="#FBD35E" x1="390.468" y1="69.562" x2="390.468" y2="69.562"/>
								<line fill="#FBD35E" x1="374.261" y1="76.325" x2="374.261" y2="76.325"/>
								<line fill="#FBD35E" x1="406.324" y1="61.868" x2="406.324" y2="61.868"/>
								<line fill="#FBD35E" x1="406.324" y1="61.868" x2="406.324" y2="61.868"/>
								<path fill="#FBD35E" d="M406.324,61.868c-5.468,2.936-11.054,5.589-16.698,8.077l0.843-0.383
									C395.827,67.187,401.127,64.654,406.324,61.868"/>
								<line fill="#FAC836" x1="406.324" y1="61.868" x2="406.324" y2="61.868"/>
								<path fill="#FAC836" d="M406.324,61.868c-5.468,2.936-11.054,5.589-16.698,8.077
									C395.27,67.457,400.856,64.804,406.324,61.868"/>
								<line fill="#FAC836" x1="389.625" y1="69.945" x2="389.625" y2="69.945"/>
								<path fill="#FBD35E" d="M411.567,57.932c-1.349,0.762-2.708,1.5-4.076,2.22c2.441-1.333,4.854-2.73,7.226-4.207
									C413.674,56.621,412.625,57.285,411.567,57.932"/>
								<line fill="#FBD35E" x1="407.491" y1="60.151" x2="407.491" y2="60.151"/>
								<line fill="#FBD35E" x1="434.287" y1="28.39" x2="434.287" y2="28.39"/>
								<path fill="#FBD35E" d="M434.287,28.39c0.727,2.033,0.767,4.295,0.282,6.313C435.053,32.685,435.013,30.423,434.287,28.39"
									/>
								<path fill="#FDE7A6" d="M250.752,23.431l-4.501,0.923l-6.275,1.431c9.946-1.793,19.915-3.445,31.71-5.266l-3.643,0.477
									c12.696-2.025,21.827-3.054,32.771-4.304C285.274,18.188,265.278,21.146,250.752,23.431 M268.043,20.995L268.043,20.995"/>
								<line fill="#FDE7A6" x1="271.686" y1="20.519" x2="271.686" y2="20.519"/>
								<line fill="#FDE7A6" x1="300.815" y1="16.691" x2="300.815" y2="16.691"/>
								<line fill="#FBD35E" x1="319.958" y1="14.42" x2="319.958" y2="14.42"/>
								<polyline fill="#FBD35E" points="319.958,14.42 323.622,14.121 319.958,14.42 								"/>
								<line fill="#FBD35E" x1="271.686" y1="20.519" x2="271.686" y2="20.519"/>
								<polyline fill="#FBD35E" points="271.686,20.519 277.135,19.699 271.686,20.519 								"/>
								<line fill="#FBD35E" x1="314.469" y1="14.865" x2="314.469" y2="14.865"/>
								<polyline fill="#FBD35E" points="314.469,14.865 319.958,14.42 314.469,14.865 								"/>
								<path fill="#FBD35E" d="M434.096,30.58c0.279,2.007-0.082,4.033-0.791,5.837c-0.739,1.803-1.788,3.413-2.956,4.888
									c1.146-1.49,2.171-3.113,2.881-4.916c0.714-1.791,1.082-3.803,0.813-5.802L434.096,30.58"/>
								<path fill="#FBD35E" d="M434.149,30.572c0.263,2.021-0.119,4.048-0.844,5.845c0.709-1.804,1.07-3.83,0.791-5.837
									L434.149,30.572"/>
								<line fill="#FBD35E" x1="433.305" y1="36.417" x2="433.305" y2="36.417"/>
								<line fill="#FBD35E" x1="433.985" y1="28.497" x2="433.985" y2="28.497"/>
								<line fill="#FBD35E" x1="433.985" y1="28.497" x2="433.985" y2="28.497"/>
								<path fill="#FBD35E" d="M433.985,28.497c0.555,1.639,0.68,3.455,0.404,5.125c-0.338,2.02-1.153,3.858-2.16,5.502
									c-1.011,1.648-2.219,3.124-3.506,4.495c1.587-1.732,3.047-3.632,4.141-5.806c1.082-2.154,1.77-4.692,1.417-7.261
									c-0.011-0.325-0.055-0.723-0.09-1.008C434.143,29.218,434.069,28.819,433.985,28.497"/>
								<line fill="#FBD35E" x1="428.723" y1="43.619" x2="428.723" y2="43.619"/>
								<path fill="#FBD35E" d="M434.01,28.488c0.548,1.646,0.663,3.465,0.379,5.134c0.275-1.67,0.15-3.486-0.404-5.125
									L434.01,28.488"/>
								<line fill="#FBD35E" x1="434.389" y1="33.622" x2="434.389" y2="33.622"/>
								<line fill="#FBD35E" x1="433.686" y1="27.488" x2="433.686" y2="27.488"/>
								<line fill="#FBD35E" x1="433.686" y1="27.488" x2="433.686" y2="27.488"/>
								<path fill="#FBD35E" d="M433.686,27.488c0.246,0.573,0.45,1.111,0.61,1.766c0.133,0.546,0.253,1.188,0.289,1.789
									c0.093,1.223-0.03,2.444-0.315,3.596c-0.572,2.315-1.715,4.343-3.025,6.15c1.474-2.077,2.729-4.458,3.145-7.167
									c0.284-1.669,0.169-3.488-0.379-5.134C433.924,28.147,433.807,27.817,433.686,27.488"/>
								<line fill="#FBD35E" x1="431.245" y1="40.789" x2="431.245" y2="40.789"/>
								<line fill="#FDE7A6" x1="434.043" y1="30.587" x2="434.043" y2="30.587"/>
								<path fill="#FDE7A6" d="M434.043,30.587c0.269,1.999-0.1,4.011-0.813,5.802c-0.71,1.803-1.734,3.426-2.881,4.916
									c1.168-1.475,2.217-3.085,2.956-4.888c-0.972,2.5-2.572,4.758-4.389,6.826c-1.833,2.062-3.903,3.953-6.07,5.701
									c-4.342,3.494-9.04,6.463-13.447,8.974c4.657-2.791,9.216-5.78,13.434-9.228c1.807-1.486,3.549-3.062,5.154-4.784
									c1.603-1.722,3.076-3.597,4.207-5.709c1.117-2.099,1.875-4.522,1.661-7.003c-0.049-0.614-0.168-1.23-0.327-1.811
									c-0.168-0.616-0.387-1.181-0.66-1.736c-0.537-1.107-1.265-2.104-2.088-2.99C432.366,26.213,433.635,28.266,434.043,30.587"
									/>
								<path fill="#FACD49" d="M434.043,30.587c0.269,1.999-0.1,4.011-0.813,5.802c-0.71,1.803-1.734,3.426-2.881,4.916
									c1.146-1.49,2.171-3.113,2.881-4.916C433.944,34.598,434.312,32.586,434.043,30.587"/>
								<line fill="#FACD49" x1="430.349" y1="41.305" x2="430.349" y2="41.305"/>
								<line fill="#FDE7A6" x1="433.305" y1="36.417" x2="433.305" y2="36.417"/>
								<line fill="#FDE7A6" x1="433.305" y1="36.417" x2="433.305" y2="36.417"/>
								<path fill="#FBD35E" d="M427.094,21.704c1.464,0.973,2.877,2.118,4.051,3.527c1.177,1.397,2.078,3.101,2.42,4.942
									c0.346,1.841,0.12,3.742-0.469,5.456c-0.581,1.725-1.479,3.288-2.49,4.707c-2.037,2.841-4.497,5.152-6.884,7.137
									c-2.398,1.981-4.761,3.627-6.891,4.987c0.835-0.573,1.635-1.15,2.424-1.727c3.807-2.816,7.171-5.679,9.873-8.925
									c1.341-1.625,2.516-3.354,3.325-5.249c0.815-1.881,1.228-3.973,0.918-6.026c-0.291-2.057-1.317-3.968-2.711-5.52
									c-1.391-1.569-3.112-2.833-4.963-3.921c-3.728-2.158-7.99-3.651-12.672-4.854l-1.501-0.369
									c2.229,0.593,4.779,1.334,7.426,2.324c2.642,0.991,5.396,2.231,7.889,3.899c2.473,1.651,4.718,3.846,5.711,6.488
									c1.034,2.637,0.602,5.391-0.268,7.448c0.669-1.675,0.991-3.486,0.769-5.258c-0.219-1.774-0.987-3.437-2.072-4.843
									c-2.206-2.819-5.344-4.689-8.493-6.185c-6.399-2.926-13.208-4.475-19.996-5.689c4.25,0.648,8.482,1.475,12.639,2.64
									C419.269,17.879,423.391,19.348,427.094,21.704"/>
								<line fill="#FBD35E" x1="432.283" y1="36.031" x2="432.283" y2="36.031"/>
								<line fill="#FBD35E" x1="429.625" y1="40.763" x2="429.625" y2="40.763"/>
								<line fill="#FBD35E" x1="429.625" y1="40.763" x2="429.625" y2="40.763"/>
								<path fill="#FBD35E" d="M429.625,40.763c-1.984,2.502-4.359,4.664-6.849,6.656c-2.498,1.985-5.135,3.795-7.843,5.489
									c2.299-1.484,4.546-3.049,6.694-4.734C424.538,45.99,427.319,43.595,429.625,40.763"/>
								<polyline fill="#FBD35E" points="392.365,64.926 389.872,66.058 389.032,66.412 392.365,64.926 								"/>
								<path fill="#FBD35E" d="M407.11,57.612c-1.336,0.731-2.682,1.444-4.036,2.143c-3.521,1.82-7.097,3.534-10.709,5.171
									l-2.493,1.132C395.728,63.47,401.504,60.695,407.11,57.612 M403.074,59.755c-3.521,1.82-7.097,3.534-10.709,5.171
									C395.977,63.289,399.553,61.575,403.074,59.755"/>
								<line fill="#FBD35E" x1="389.872" y1="66.058" x2="389.872" y2="66.058"/>
								<line fill="#FAC836" x1="421.627" y1="48.174" x2="421.627" y2="48.174"/>
								<line fill="#FAC836" x1="421.627" y1="48.174" x2="421.627" y2="48.174"/>
								<path fill="#FBD35E" d="M421.627,48.174c-2.148,1.686-4.396,3.25-6.694,4.734c-3.83,2.478-7.811,4.729-11.859,6.847
									c-3.521,1.82-7.097,3.534-10.709,5.171l-3.333,1.486l0.84-0.354c-5.326,2.28-10.719,4.406-16.154,6.413
									c6.236-2.462,12.41-5.076,18.477-7.906C401.406,60.565,412.916,54.804,421.627,48.174"/>
								<path fill="#FAC836" d="M421.627,48.174c-2.148,1.686-4.396,3.25-6.694,4.734C417.232,51.424,419.479,49.859,421.627,48.174
									"/>
								<line fill="#FAC836" x1="414.933" y1="52.908" x2="414.933" y2="52.908"/>
								<line fill="#FAC836" x1="392.365" y1="64.926" x2="392.365" y2="64.926"/>
								<line fill="#FAC836" x1="392.365" y1="64.926" x2="392.365" y2="64.926"/>
								<polyline fill="#FAC836" points="392.365,64.926 389.032,66.412 392.365,64.926 								"/>
								<line fill="#FAC836" x1="389.032" y1="66.412" x2="389.032" y2="66.412"/>
								<path fill="#FAC836" d="M403.074,59.755c-3.521,1.82-7.097,3.534-10.709,5.171
									C395.977,63.289,399.553,61.575,403.074,59.755"/>
								<line fill="#FBD35E" x1="389.872" y1="66.058" x2="389.872" y2="66.058"/>
								<line fill="#FAC836" x1="403.074" y1="59.755" x2="403.074" y2="59.755"/>
								<path fill="#FAC836" d="M403.074,59.755c-3.521,1.82-7.097,3.534-10.709,5.171
									C395.977,63.289,399.553,61.575,403.074,59.755"/>
								<line fill="#FBD35E" x1="387.146" y1="66.681" x2="387.146" y2="66.681"/>
								<line fill="#FBD35E" x1="387.146" y1="66.681" x2="387.146" y2="66.681"/>
								<path fill="#FBD35E" d="M387.146,66.681c-9.202,4.034-17.773,7.243-24.708,9.568c6.854-2.551,13.647-5.254,20.338-8.17
									l-2.454,1.221C382.606,68.452,384.881,67.581,387.146,66.681"/>
								<line fill="#FBD35E" x1="187.442" y1="120.942" x2="187.442" y2="120.942"/>
								<line fill="#FBD35E" x1="187.442" y1="120.942" x2="187.442" y2="120.942"/>
								<polyline fill="#FBD35E" points="187.442,120.942 179.166,121.574 181.911,121.251 187.442,120.942 								"/>
								<path fill="#FBCF50" d="M163.38,41.79c17.913-4.517,32.414-7.27,44.251-9.113c-8.944,2.1-17.855,4.35-26.722,6.765
									c-14.369,3.846-28.628,8.111-39.228,11.488c-10.603,3.36-17.579,5.743-17.558,5.237c0.008-0.142,0.593-0.518,1.836-1.144
									C138.87,49.977,151.955,45.441,163.38,41.79"/>
								<line fill="#FBCF50" x1="207.631" y1="32.677" x2="207.631" y2="32.677"/>
								<path fill="#FBD35E" d="M64.6,90.101c0.866-1.025,1.777-1.981,2.716-2.888c-2.342,2.506-3.51,4.177-4.821,6.55
									c-0.623,1.211-1.31,2.616-1.783,4.662c-0.439,2.022-0.679,4.861,0.808,8.062c-0.151-0.244-0.331-0.579-0.513-1.003
									c-0.17-0.354-0.413-1.127-0.512-1.497c-0.327-1.268-0.458-2.756-0.254-4.417C60.638,96.238,62.458,92.859,64.6,90.101"/>
								<line fill="#FCDC80" x1="93.568" y1="68.849" x2="93.568" y2="68.849"/>
								<path fill="#FCDC80" d="M93.568,68.849c6.806-3.143,15.781-7.168,25.324-11.02l7.068-2.806
									c-1.243,0.626-1.828,1.002-1.836,1.144c-0.021,0.506,6.955-1.877,17.558-5.237c10.6-3.377,24.858-7.643,39.228-11.488
									c-21.957,6.03-43.698,12.972-64.771,21.699c-7.021,2.925-13.95,6.06-20.724,9.544c-4.904,2.528-9.724,5.237-14.359,8.262
									c-4.614,3.043-9.108,6.356-12.954,10.439c-1.904,2.046-3.651,4.31-4.835,6.938c-0.578,1.314-1.007,2.726-1.136,4.196
									c-0.129,1.479,0.05,2.96,0.562,4.369c1.022,2.816,3.182,4.952,5.484,6.562c2.329,1.624,4.886,2.815,7.485,3.812
									c-0.843-0.405-1.67-0.842-2.483-1.298c-2.414-1.118-4.771-2.469-6.782-4.297c-1.001-0.913-1.899-1.961-2.599-3.146
									c-0.692-1.188-1.16-2.522-1.317-3.896c-0.326-2.698,0.554-5.355,1.824-7.62c1.285-2.287,2.965-4.291,4.762-6.126
									c1.128-1.151,2.313-2.226,3.522-3.256c3.652-3.08,7.562-5.743,11.514-8.175c3.956-2.429,7.968-4.618,11.951-6.641
									c7.959-4.027,15.799-7.391,23.171-10.259c-11.347,4.778-22.956,10.097-33.902,16.668c-3.621,2.189-7.159,4.532-10.491,7.129
									c-3.313,2.606-6.481,5.453-8.945,8.859c-1.807,2.537-3.267,5.529-3.143,8.714c0.058,1.571,0.525,3.12,1.313,4.473
									c0.786,1.355,1.846,2.529,3.021,3.534c2.365,2.015,5.124,3.441,7.911,4.614c2.8,1.166,5.667,2.065,8.527,2.825
									c5.729,1.501,11.435,2.451,16.964,3.174c5.532,0.715,10.899,1.177,16.035,1.513c7.355,0.486,18.419,0.636,29.457,0.259
									c-5.212,0.177-10.43,0.266-15.648,0.25l-1.845,0.236c7.065,0.218,14.137,0.236,21.205,0.108l-5.526,0.162
									c-6.76,0.17-13.526,0.197-20.294,0.024c-6.152-0.155-12.306-0.472-18.448-1.041c-3.801-0.357-7.603-0.796-11.408-1.365
									l-0.005-0.001c-5.942-0.913-11.956-2.072-17.97-4.197c-2.994-1.083-6.009-2.407-8.822-4.408
									c-1.398-1.003-2.742-2.202-3.864-3.693c-0.56-0.744-1.055-1.567-1.444-2.458c-0.196-0.458-0.361-0.875-0.51-1.406
									c-0.085-0.279-0.126-0.47-0.172-0.667l-0.036-0.15l-0.043-0.234l-0.063-0.365l0.104,0.625l0.104,0.477
									c0.103,0.404,0.225,0.815,0.354,1.167c0.266,0.732,0.604,1.431,0.997,2.085c0.782,1.315,1.779,2.434,2.845,3.413
									c2.151,1.944,4.585,3.34,7.055,4.498c2.444,1.182,3.652,1.639,3.864,1.812c0.224,0.163-0.731-0.055-2.474-0.679
									c-1.734-0.642-4.282-1.653-7.069-3.54c-1.382-0.957-2.832-2.146-4.104-3.746c-0.633-0.798-1.214-1.699-1.683-2.696
									c-0.231-0.515-0.429-0.993-0.608-1.588l-0.132-0.454l-0.081-0.326l-0.038-0.157l-0.056-0.268l-0.074-0.419
									c-0.374-2.256-0.044-4.552,0.625-6.499c0.672-1.962,1.628-3.65,2.63-5.109c0.405-0.556,0.828-1.085,1.261-1.601
									c-2.143,2.759-3.962,6.138-4.359,9.469c-0.204,1.661-0.073,3.149,0.254,4.417c0.099,0.37,0.342,1.144,0.512,1.497
									c0.182,0.424,0.361,0.759,0.513,1.003c-1.486-3.2-1.247-6.039-0.808-8.062c0.474-2.046,1.16-3.451,1.783-4.662
									c1.312-2.373,2.479-4.044,4.821-6.55c0.988-0.856,2.002-1.659,3.03-2.423c3.418-2.882,7.056-5.353,10.772-7.637
									c-2.619,1.976,0.72-0.197,4.66-2.432c3.938-2.247,8.489-4.526,7.755-3.932c6.595-3.361,13.34-6.373,20.159-9.179
									c3.623-1.683,7.273-3.309,10.947-4.878c-7.812,2.797-15.75,5.964-21.619,8.446C97.148,67.647,93.319,69.381,93.568,68.849"
									/>
								<path fill="#FAC837" d="M124.125,56.167c-0.021,0.506,6.955-1.877,17.558-5.237c10.6-3.377,24.858-7.643,39.228-11.488
									c-14.369,3.846-28.628,8.111-39.228,11.488C131.08,54.29,124.103,56.673,124.125,56.167"/>
								<path fill="#FACA3E" d="M67.316,87.213c-2.342,2.506-3.51,4.177-4.821,6.55c-0.623,1.211-1.31,2.616-1.783,4.662
									c-0.439,2.022-0.679,4.861,0.808,8.062c-1.486-3.2-1.247-6.039-0.808-8.062c0.474-2.046,1.16-3.451,1.783-4.662
									C63.806,91.39,64.974,89.719,67.316,87.213"/>
								<line fill="#FCDC80" x1="63.339" y1="91.701" x2="63.339" y2="91.701"/>
								<line fill="#FCDC80" x1="67.316" y1="87.213" x2="67.316" y2="87.213"/>
								<line fill="#FCDC80" x1="125.96" y1="55.023" x2="125.96" y2="55.023"/>
								<line fill="#FCDC80" x1="149.685" y1="122.906" x2="149.685" y2="122.906"/>
								<line fill="#FCDC80" x1="149.685" y1="122.906" x2="149.685" y2="122.906"/>
								<line fill="#FBD35E" x1="162.591" y1="122.49" x2="162.591" y2="122.49"/>
								<path fill="#FBD35E" d="M162.591,122.49c-4.3,0.189-8.603,0.33-12.906,0.416l-5.526,0.162
									c-6.76,0.17-13.526,0.197-20.294,0.024l-0.926,0.036c5.845,0.189,11.69,0.229,17.532,0.153
									c-6.454,0.151-12.915,0.167-19.38-0.01c7.384,0.387,16.625,0.358,25.844,0.042
									C152.16,123.119,157.378,122.84,162.591,122.49 M151.54,123.06L151.54,123.06 M144.159,123.068
									c-6.76,0.17-13.526,0.197-20.294,0.024C130.632,123.266,137.399,123.238,144.159,123.068 M144.159,123.068L144.159,123.068"
									/>
								<line fill="#FAC836" x1="144.159" y1="123.068" x2="144.159" y2="123.068"/>
								<path fill="#FAC836" d="M144.159,123.068c-6.76,0.17-13.526,0.197-20.294,0.024
									C130.632,123.266,137.399,123.238,144.159,123.068"/>
								<path fill="#FBD35E" d="M66.526,87.805l0.79-0.592c-0.938,0.906-1.85,1.862-2.716,2.888
									C65.214,89.299,65.862,88.539,66.526,87.805"/>
								<line fill="#FBD35E" x1="67.316" y1="87.213" x2="67.316" y2="87.213"/>
								<line fill="#FBD35E" x1="145.659" y1="52.755" x2="145.659" y2="52.755"/>
								<polyline fill="#FBD35E" points="145.659,52.755 146.586,52.639 145.659,52.755 								"/>
								<path opacity="0.8" fill="#FCE193" d="M57.913,96.665c0.672-2.041,1.539-3.578,2.35-4.845
									c0.817-1.265,1.605-2.254,2.316-3.073c1.43-1.629,2.543-2.621,3.345-3.28c1.613-1.294,1.979-1.283,1.817-0.825
									c-0.354,0.904-2.57,3.95-1.215,3.163c-0.664,0.734-1.312,1.494-1.926,2.296c-0.433,0.516-0.855,1.045-1.261,1.601
									c-1.002,1.459-1.958,3.147-2.63,5.109c-0.669,1.947-0.999,4.243-0.625,6.499l0.074,0.419l0.056,0.268l0.038,0.157
									l0.081,0.326l0.132,0.454c0.18,0.595,0.377,1.073,0.608,1.588c0.469,0.997,1.05,1.898,1.683,2.696
									c1.271,1.6,2.722,2.789,4.104,3.746c2.787,1.887,5.335,2.898,7.069,3.54c1.742,0.624,2.697,0.842,2.474,0.679
									c-0.212-0.174-1.42-0.631-3.864-1.812c-2.47-1.158-4.903-2.554-7.055-4.498c-1.065-0.979-2.062-2.098-2.845-3.413
									c-0.393-0.654-0.731-1.353-0.997-2.085c-0.13-0.352-0.252-0.763-0.354-1.167l-0.104-0.477l-0.104-0.625l0.063,0.365
									l0.043,0.234l0.036,0.15c0.046,0.197,0.087,0.388,0.172,0.667c0.148,0.531,0.313,0.948,0.51,1.406
									c0.39,0.891,0.885,1.714,1.444,2.458c1.122,1.491,2.466,2.69,3.864,3.693c2.813,2.001,5.828,3.325,8.822,4.408
									c6.014,2.125,12.027,3.284,17.97,4.197c3.811,0.57,7.612,1.009,11.413,1.366c6.143,0.569,12.296,0.886,18.448,1.041
									l-0.926,0.036c-5.54-0.151-11.081-0.434-16.615-0.921c9.204,1.055,22.164,1.381,34.147,1.074
									c-6.454,0.151-12.915,0.167-19.38-0.01c7.384,0.387,16.625,0.358,25.844,0.042l-2.76,0.233
									c3.694,0.055,7.391,0.065,11.087,0.039c-7.077,0.267-14.161,0.396-21.249,0.341c-2.462,0.113-4.926,0.203-7.393,0.269
									c7.391,0.505,16.673,1.01,31.486,0.506c-9.711,0.365-18.283,0.396-27.783,0.17c-4.75-0.12-9.733-0.311-15.21-0.652
									c-5.476-0.352-11.446-0.829-18.165-1.732l-1.881-0.013c-1.849-0.315-3.695-0.662-5.538-1.054
									c3.2,0.829,8.291,1.73,13.275,2.372c4.984,0.654,9.858,1.092,12.637,1.438c-5.577-0.392-11.155-0.94-16.724-1.743
									c0.448,0.199,2.765,0.599,5.318,0.95l6.738,0.865c-6.887-0.627-10.811-1.386-15.008-2.211
									c-2.099-0.426-4.268-0.876-6.909-1.461c-2.642-0.598-5.759-1.287-9.739-2.471l-0.724-0.222l-1.117-0.36
									c-3.531-1.17-6.598-2.505-9.18-4.062c-2.58-1.542-4.678-3.35-6.146-5.299c-0.731-0.974-1.302-1.968-1.718-2.917
									c-0.208-0.477-0.376-0.914-0.537-1.447l-0.164-0.558l-0.032-0.112l-0.016-0.055l-0.038-0.163l-0.065-0.303
									c-0.345-1.592-0.331-2.739-0.367-3.436C59,99.529,58.96,99.254,58.848,99.36c-0.107,0.106-0.295,0.594-0.435,1.478
									c-0.134,0.874-0.224,2.191,0.046,3.78c0.26,1.629,0.931,3.51,2.067,5.292c-1.476-2.151-2.503-4.968-2.558-7.761
									c-0.102-1.914,0.148-3.306,0.351-4.301c0.221-0.991,0.41-1.623,0.524-2.014c0.228-0.785,0.114-0.665-0.122-0.254
									C58.233,96.379,57.502,98.623,57.913,96.665"/>
								<path fill="#FBD156" d="M76.403,117.183c-0.212-0.174-1.42-0.631-3.864-1.812c-2.47-1.158-4.903-2.554-7.055-4.498
									c-1.065-0.979-2.062-2.098-2.845-3.413c-0.393-0.654-0.731-1.353-0.997-2.085c-0.13-0.352-0.252-0.763-0.354-1.167
									l-0.104-0.477l-0.104-0.625l0.104,0.625l0.104,0.477c0.103,0.404,0.225,0.815,0.354,1.167
									c0.266,0.732,0.604,1.431,0.997,2.085c0.782,1.315,1.779,2.434,2.845,3.413c2.151,1.944,4.585,3.34,7.055,4.498
									C74.983,116.552,76.191,117.009,76.403,117.183"/>
								<path fill="#FBD156" d="M61.079,103.105l0.063,0.365l0.043,0.234l0.036,0.15c0.046,0.197,0.087,0.388,0.172,0.667
									c0.148,0.531,0.313,0.948,0.51,1.406c0.39,0.891,0.885,1.714,1.444,2.458c1.122,1.491,2.466,2.69,3.864,3.693
									c2.813,2.001,5.828,3.325,8.822,4.408c6.014,2.125,12.027,3.284,17.97,4.197c-5.942-0.913-11.956-2.072-17.97-4.197
									c-2.994-1.083-6.009-2.407-8.822-4.408c-1.398-1.003-2.742-2.202-3.864-3.693c-0.56-0.744-1.055-1.567-1.444-2.458
									c-0.196-0.458-0.361-0.875-0.51-1.406c-0.085-0.279-0.126-0.47-0.172-0.667l-0.036-0.15l-0.043-0.234L61.079,103.105"/>
								<path fill="#FACC44" d="M140.471,123.282c-6.454,0.151-12.915,0.167-19.38-0.01
									C127.556,123.449,134.017,123.434,140.471,123.282"/>
								<line fill="#FACC44" x1="121.091" y1="123.272" x2="121.091" y2="123.272"/>
								<polyline fill="#FACC44" points="122.939,123.129 123.865,123.093 122.939,123.129 								"/>
								<line fill="#FCE193" x1="60.527" y1="109.91" x2="60.527" y2="109.91"/>
								<line fill="#FCE193" x1="110.775" y1="125.303" x2="110.775" y2="125.303"/>
								<line fill="#FCE193" x1="158.107" y1="124.702" x2="158.107" y2="124.702"/>
								<line fill="#FCE193" x1="115.442" y1="125.23" x2="115.442" y2="125.23"/>
								<line fill="#FCE193" x1="78.395" y1="118.938" x2="78.395" y2="118.938"/>
								<line fill="#FCE193" x1="95.068" y1="122.475" x2="95.068" y2="122.475"/>
								<line fill="#FCE193" x1="155.262" y1="123.587" x2="155.262" y2="123.587"/>
								<line fill="#FACC44" x1="140.471" y1="123.282" x2="140.471" y2="123.282"/>
								<line fill="#FCE193" x1="122.939" y1="123.129" x2="122.939" y2="123.129"/>
								<line fill="#FCE193" x1="176.285" y1="120.427" x2="176.285" y2="120.427"/>
								<path opacity="0.8" fill="#FCE193" d="M176.285,120.427l3.648-0.398l4.569-0.621l-5.497,0.497l5.497-0.497l0.893-0.308
									c-4.278,0.354-8.559,0.667-12.842,0.937l7.323-0.591c-3.666,0.261-7.335,0.485-11.003,0.683
									c4.584-0.306,9.166-0.658,13.743-1.062l-0.014-0.133l-4.582,0.342c-10.98,0.941-22.904,1.742-33.009,1.925
									c4.705-0.2,9.415-0.448,14.154-0.745c10.019-0.632,20.164-1.484,30.71-2.647l3.642-0.472
									c-13.703,1.482-29.266,2.684-39.364,2.844l2.956-0.171c9.467-0.568,17.502-1.146,25.565-1.848
									c8.062-0.709,16.152-1.546,25.696-2.857l1.519-0.211c-9.121,1.068-23.729,2.606-32.886,3.183
									c14.632-1.155,28.325-2.633,41.983-4.428l1.816-0.277c18.165-2.702,34.437-5.646,50.625-9.021
									c-6.908,1.374-13.832,2.664-20.77,3.869c6.938-1.205,13.861-2.495,20.77-3.869c26.064-5.446,50.15-11.551,74.724-19.283
									c-6.462,1.946-12.952,3.782-19.467,5.519c12.271-3.861,26.271-8.36,37.434-12.629c-18.178,6.48-34.092,11.012-51.819,15.753
									c17.728-4.741,33.642-9.272,51.819-15.753l3.423-1.311c-7.372,2.574-15.866,5.396-24.421,8.023
									c-8.553,2.63-17.163,5.067-24.714,7.021c10.612-2.923,19.477-5.327,31.657-9.388l-3.506,1.06l-5.252,1.682l5.252-1.682
									c11.337-3.701,20.861-7.031,30.289-10.687c10.058-4.49,21.669-10.035,32.673-16.575c1.832-1.088,3.64-2.216,5.412-3.392
									c-3.83,2.478-7.811,4.729-11.859,6.847c1.354-0.698,2.7-1.411,4.036-2.143c-5.605,3.083-11.382,5.857-17.238,8.445
									c-5.326,2.28-10.719,4.406-16.154,6.413c6.236-2.462,12.41-5.076,18.477-7.906c-1.676,0.722-3.358,1.428-5.048,2.116
									c-9.202,4.034-17.773,7.243-24.708,9.568c6.854-2.551,13.647-5.254,20.338-8.17c3.862-1.792,7.687-3.656,11.453-5.61
									l-1.831,0.377c-7.104,3.018-18.735,7.844-33.032,12.991l-2.568,0.923l0.986,0.072l-4.383,1.263
									c-2.554,0.989-5.116,1.96-7.687,2.912l-7.842,2.476c-4.283,1.605-9.954,3.402-16.104,5.167
									c-6.149,1.769-12.786,3.508-18.994,5.082l5.344-1.264c-2.783,0.919-6.173,1.858-9.752,2.761
									c-5.377,1.358-11.159,2.619-15.986,3.681c-3.561,0.738-7.126,1.455-10.695,2.146l-0.964,0.214l0.389-0.103l-0.395,0.076
									c-5.076,1.07-10.154,2.09-15.25,3.069l-8.114,1.398l-4.53,0.702l4.53-0.702l5.407-0.95l-4.522,0.703l9.008-1.613
									c-6.008,1.082-12.019,2.099-18.041,3.051l-6.321,1.017l1.8-0.334l-8.152,1.146c-5.729,0.829-11.465,1.599-17.206,2.302
									c-3.918,0.575-7.84,1.12-11.766,1.633c3.321-0.446,6.64-0.917,9.955-1.408l5.415-0.817
									c-6.029,0.845-12.067,1.619-18.112,2.318l0.892-0.24c-7.264,0.802-16.34,1.726-25.425,2.447l-0.899,0.073
									c-5.145,0.454-10.293,0.842-15.442,1.154c4.542-0.297,9.082-0.653,13.619-1.062l-0.923-0.168
									c-8.743,0.691-18.074,1.353-27.519,1.563c-2.323,0.052-4.654,0.077-6.983,0.067l1.808,0.04
									c-4.534,0.053-9.062,0.028-13.58-0.094c-7.682-0.122-15.119-0.498-22.262-1.289c1.994,0.321,4.002,0.604,6.018,0.857
									c-2.016-0.254-4.023-0.536-6.018-0.857c-6.414-0.718-12.59-1.756-18.171-3.417c-2.776-0.838-5.409-1.837-7.672-3.082
									c-2.261-1.233-4.126-2.753-5.094-4.36c-0.242-0.39-0.446-0.832-0.576-1.193l-0.04-0.107l-0.022-0.053l-0.032-0.126
									l-0.064-0.254l-0.032-0.126c0.008,0.039-0.024-0.109,0.017,0.083l-0.002-0.01l-0.004-0.02l-0.008-0.04
									c-0.048-0.212-0.083-0.426-0.109-0.643c-0.104-0.866-0.006-1.801,0.265-2.769c0.535-1.945,1.74-3.926,3.125-5.72
									c2.833-3.607,6.319-6.604,9.593-9.191c-2.512,1.855-4.925,3.82-7.069,5.933c-2.134,2.105-4.027,4.382-5.232,6.728
									c-1.213,2.356-1.553,4.646-0.871,6.529c0.646,1.899,2.312,3.572,4.282,4.879c2.967,1.996,6.647,3.404,10.417,4.512
									c3.792,1.104,7.747,1.911,11.766,2.554c8.049,1.274,16.358,1.914,24.854,2.251l5.631,0.171
									c-6.36,0.011-12.715-0.157-19.032-0.61l0.901,0.084c-1.506-0.083-3.011-0.181-4.514-0.298l3.612,0.214
									c-7.196-0.688-13.902-1.641-20.107-3.159c-3.095-0.763-6.068-1.67-8.811-2.83c-2.724-1.159-5.271-2.584-7.092-4.39
									c-1.836-1.807-2.732-3.89-2.472-6.199c0.238-2.323,1.581-4.808,3.343-7.053c3.597-4.528,8.603-8.38,14.018-11.949
									c-1.23,0.855-2.44,1.732-3.624,2.635c6.142-4.477,12.854-8.316,19.711-11.855c6.87-3.532,13.933-6.739,21.086-9.744
									c5.271-2.395,10.602-4.677,15.978-6.864c-4.599,1.643-9.171,3.354-13.71,5.147c2.532-1.06,5.076-2.094,7.631-3.104
									c1.105-0.476,5.51-2.171,5.932-2.386c0.266-0.134-1.126,0.297-6.066,2.119c-2.469,0.916-5.822,2.186-10.267,3.983
									c-4.439,1.809-9.98,4.129-16.723,7.332c-4.674,2.244-9.279,4.623-13.765,7.2c7.488-4.382,14.898-8.02,21.868-11.232
									c6.976-3.206,13.53-5.97,19.477-8.411c-3.751,1.328-7.484,2.709-11.198,4.144c-11.339,4.774-22.956,10.096-33.902,16.668
									c-3.619,2.188-7.157,4.53-10.49,7.128c-3.313,2.606-6.482,5.454-8.946,8.86c-1.807,2.537-3.267,5.529-3.143,8.714
									c0.058,1.571,0.525,3.12,1.313,4.473c0.786,1.355,1.846,2.529,3.021,3.534c2.365,2.015,5.124,3.441,7.911,4.614
									c2.8,1.166,5.667,2.065,8.527,2.825c5.729,1.501,11.435,2.451,16.964,3.174c5.532,0.715,10.899,1.177,16.035,1.513
									c7.355,0.486,18.419,0.636,29.457,0.259l1.842-0.071l-5.524,0.06c2.761-0.045,5.521-0.115,8.28-0.207
									c-4.297,0.059-8.594,0.06-12.888-0.002c5.521,0.022,11.041-0.065,16.561-0.236l2.756-0.208
									c-4.601,0.181-9.203,0.304-13.806,0.359c5.215-0.082,10.428-0.253,15.639-0.496l3.668-0.348
									C167.096,120.97,171.692,120.725,176.285,120.427 M346.777,84.219L346.777,84.219 M346.777,84.219L346.777,84.219
									 M305.207,95.797c13.355-3.332,24.945-6.244,41.57-11.578C330.152,89.553,318.562,92.465,305.207,95.797l-5.353,1.296
									l-3.566,0.867l3.566-0.867L305.207,95.797l-0.868,0.31c-4.746,1.204-9.501,2.365-14.268,3.482
									c4.767-1.117,9.521-2.278,14.268-3.482L305.207,95.797 M263.31,106.126L263.31,106.126 M263.31,106.126L263.31,106.126
									 M230.739,111.733c12.665-2.104,20.868-3.25,32.571-5.607C251.607,108.483,243.404,109.63,230.739,111.733 M249.787,108.747
									L249.787,108.747 M249.787,108.747L249.787,108.747 M219.86,113.471l-0.908,0.139l-9.091,1.272l9.091-1.272L219.86,113.471
									c10.903-1.571,19.085-2.763,29.927-4.724C238.945,110.708,230.763,111.899,219.86,113.471 M250.66,108.418L250.66,108.418
									 M295.454,98.414l-5.333,1.382L295.454,98.414 M222.591,113.131L222.591,113.131 M230.739,111.733L230.739,111.733
									 M219.86,113.471L219.86,113.471 M312.3,93.908L312.3,93.908 M290.071,99.589L290.071,99.589 M407.11,57.612L407.11,57.612
									 M70.187,90.028c2.683-2.793,5.751-5.267,8.94-7.565c3.197-2.296,6.538-4.413,9.951-6.413c-3.413,2-6.754,4.117-9.951,6.413
									C75.938,84.762,72.87,87.235,70.187,90.028 M70.187,90.028c2.683-2.793,5.751-5.267,8.94-7.565
									c3.197-2.296,6.538-4.413,9.951-6.413c-3.413,2-6.754,4.117-9.951,6.413C75.938,84.762,72.87,87.235,70.187,90.028
									 M70.187,90.028c-0.826,0.855-1.613,1.742-2.341,2.665c-0.721,0.927-1.371,1.895-1.936,2.894
									c-0.563,0.998-1.033,2.033-1.345,3.091c-0.286,1.002-0.424,2.02-0.384,3.015l0.021,0.307c0.02,0.249,0.044,0.497,0.09,0.742
									c0.021,0.111,0.042,0.27,0.064,0.343l0.1,0.426c0.118,0.418,0.301,0.919,0.514,1.365c0.459,0.948,1.108,1.822,1.872,2.615
									c0.759,0.798,1.63,1.521,2.572,2.17c0.947,0.645,1.955,1.223,3.003,1.743c1.046,0.521,2.126,0.991,3.229,1.419
									c0.826,0.322,1.661,0.63,2.509,0.909c1.131,0.371,2.277,0.708,3.434,1.018c1.157,0.31,2.325,0.593,3.499,0.853
									c1.171,0.258,2.349,0.493,3.53,0.711l2.684,0.446c1.191,0.19,2.387,0.365,3.585,0.522l2.7,0.294
									c-6.924-0.875-13.307-2.04-19.118-3.908c-2.892-0.947-5.652-2.069-8.081-3.552c-2.408-1.476-4.521-3.361-5.511-5.704
									c-0.078-0.167-0.13-0.341-0.197-0.511c-0.053-0.171-0.099-0.297-0.151-0.493l-0.106-0.431l-0.078-0.406
									c-0.195-1.219-0.091-2.504,0.257-3.77c0.087-0.301,0.178-0.601,0.288-0.898c0.377-1.04,0.887-2.058,1.493-3.034
									c0.33-0.551,0.698-1.084,1.078-1.611C68.287,92.132,69.198,91.066,70.187,90.028 M122.336,60.904l-4.493,1.818l-3.115,1.313
									l-3.365,1.453l-3.321,1.506l-4.144,1.943l-1.958,0.97c-1.774,0.877-3.539,1.782-5.292,2.714l-0.07,0.039l-3.201,1.74
									l3.201-1.74l-3.201,1.74l3.201-1.74l0.027-0.016l-3.229,1.756c1.288-0.722,2.711-1.485,4.165-2.242l2.289-1.169l4.09-2.003
									l1.3-0.621l3.877-1.787l2.298-1.017l2.388-1.057C116.736,63.226,119.641,62.012,122.336,60.904 M122.336,60.904
									L122.336,60.904 M361.278,75.739L361.278,75.739 M357.784,76.832l0.026,0.075l3.468-1.168L357.784,76.832"/>
								<path fill="#FCE193" d="M70.187,90.028c-1.612,1.686-3.098,3.501-4.226,5.472c-1.121,1.961-1.864,4.108-1.779,6.192
									c-0.04-0.995,0.098-2.013,0.384-3.015c0.312-1.058,0.781-2.093,1.345-3.091c0.564-0.999,1.215-1.967,1.936-2.894
									C68.574,91.771,69.361,90.884,70.187,90.028"/>
								<path fill="#FCE193" d="M67.459,93.257c-0.38,0.527-0.748,1.061-1.078,1.611c-0.606,0.977-1.116,1.994-1.493,3.034
									c-0.11,0.298-0.201,0.598-0.288,0.898C65.13,96.875,66.179,94.998,67.459,93.257"/>
								<path fill="#FCE193" d="M64.203,101.999c0.198,3.131,2.442,5.769,5.19,7.626c2.762,1.891,5.97,3.188,9.169,4.229
									c6.447,2.038,12.987,3.054,19.024,3.722l-2.7-0.294c-1.198-0.157-2.394-0.332-3.585-0.522l-2.684-0.446
									c-1.182-0.218-2.359-0.453-3.53-0.711c-1.174-0.26-2.342-0.543-3.499-0.853c-1.156-0.31-2.303-0.646-3.434-1.018
									c-0.848-0.279-1.683-0.587-2.509-0.909c-1.103-0.428-2.183-0.897-3.229-1.419c-1.048-0.521-2.056-1.099-3.003-1.743
									c-0.942-0.648-1.813-1.372-2.572-2.17c-0.764-0.793-1.413-1.667-1.872-2.615c-0.213-0.446-0.396-0.947-0.514-1.365
									l-0.1-0.426c-0.022-0.073-0.043-0.231-0.064-0.343C64.247,102.496,64.222,102.248,64.203,101.999"/>
								<path fill="#FCE193" d="M64.343,102.57l0.078,0.406l0.106,0.431c0.053,0.196,0.099,0.322,0.151,0.493
									c0.067,0.17,0.119,0.344,0.197,0.511c-0.128-0.297-0.231-0.604-0.313-0.87c-0.046-0.146-0.091-0.358-0.136-0.534
									L64.343,102.57"/>
								<polyline fill="#FBD462" points="270.721,101.269 271.11,101.166 271.685,101.055 270.721,101.269 								"/>
								<line fill="#FACC44" x1="104.118" y1="116.105" x2="104.118" y2="116.105"/>
								<path fill="#FACC44" d="M104.118,116.105c-2.016-0.254-4.023-0.536-6.018-0.857
									C100.094,115.569,102.102,115.852,104.118,116.105"/>
								<line fill="#FACC44" x1="407.11" y1="57.612" x2="407.11" y2="57.612"/>
								<line fill="#FACC44" x1="407.11" y1="57.612" x2="407.11" y2="57.612"/>
								<path fill="#FACC44" d="M407.11,57.612c-1.336,0.731-2.682,1.444-4.036,2.143C404.428,59.057,405.774,58.344,407.11,57.612"
									/>
								<path fill="#FACC44" d="M392.194,64.564c-6.066,2.83-12.24,5.444-18.477,7.906
									C379.954,70.009,386.127,67.395,392.194,64.564"/>
								<line fill="#FACC44" x1="373.717" y1="72.471" x2="373.717" y2="72.471"/>
								<path fill="#FACC44" d="M362.438,76.249c6.854-2.551,13.647-5.254,20.338-8.17
									C376.085,70.995,369.292,73.698,362.438,76.249"/>
								<path fill="#FACC45" d="M70.187,90.028c-0.826,0.855-1.613,1.742-2.341,2.665c-0.721,0.927-1.371,1.895-1.936,2.894
									c-0.563,0.998-1.033,2.033-1.345,3.091c-0.286,1.002-0.424,2.02-0.384,3.015c-0.04-0.995,0.098-2.013,0.384-3.015
									c0.312-1.058,0.781-2.093,1.345-3.091c0.564-0.999,1.215-1.967,1.936-2.894C68.574,91.771,69.361,90.884,70.187,90.028"/>
								<path fill="#FACC45" d="M67.459,93.257c-0.38,0.527-0.748,1.061-1.078,1.611c-0.606,0.977-1.116,1.994-1.493,3.034
									c-0.11,0.298-0.201,0.598-0.288,0.898c0.087-0.301,0.178-0.601,0.288-0.898c0.377-1.04,0.887-2.058,1.493-3.034
									C66.711,94.317,67.08,93.784,67.459,93.257"/>
								<path fill="#FACC45" d="M64.203,101.999c0.02,0.249,0.044,0.497,0.09,0.742c0.021,0.111,0.042,0.27,0.064,0.343l0.1,0.426
									c0.118,0.418,0.301,0.919,0.514,1.365c0.459,0.948,1.108,1.822,1.872,2.615c0.759,0.798,1.63,1.521,2.572,2.17
									c0.947,0.645,1.955,1.223,3.003,1.743c1.046,0.521,2.126,0.991,3.229,1.419c0.826,0.322,1.661,0.63,2.509,0.909
									c1.131,0.371,2.277,0.708,3.434,1.018c1.157,0.31,2.325,0.593,3.499,0.853c1.171,0.258,2.349,0.493,3.53,0.711l2.684,0.446
									c1.191,0.19,2.387,0.365,3.585,0.522l2.7,0.294l-2.7-0.294c-1.198-0.157-2.394-0.332-3.585-0.522l-2.684-0.446
									c-1.182-0.218-2.359-0.453-3.53-0.711c-1.174-0.26-2.342-0.543-3.499-0.853c-1.156-0.31-2.303-0.646-3.434-1.018
									c-0.848-0.279-1.683-0.587-2.509-0.909c-1.103-0.428-2.183-0.897-3.229-1.419c-1.048-0.521-2.056-1.099-3.003-1.743
									c-0.942-0.648-1.813-1.372-2.572-2.17c-0.764-0.793-1.413-1.667-1.872-2.615c-0.213-0.446-0.396-0.947-0.514-1.365
									l-0.1-0.426c-0.022-0.073-0.043-0.231-0.064-0.343C64.247,102.496,64.222,102.248,64.203,101.999"/>
								<path fill="#FACC45" d="M64.343,102.57l0.078,0.406l0.106,0.431c0.053,0.196,0.099,0.322,0.151,0.493
									c0.067,0.17,0.119,0.344,0.197,0.511c-0.078-0.167-0.13-0.341-0.197-0.511c-0.053-0.171-0.099-0.297-0.151-0.493
									l-0.106-0.431L64.343,102.57"/>
								<path fill="#FACC45" d="M89.079,76.05c-3.413,2-6.754,4.117-9.951,6.413c-3.189,2.299-6.258,4.772-8.94,7.565
									c2.683-2.793,5.751-5.267,8.94-7.565C82.325,80.167,85.666,78.05,89.079,76.05"/>
								<path fill="#FACC45" d="M89.079,76.05c-3.413,2-6.754,4.117-9.951,6.413c-3.189,2.299-6.258,4.772-8.94,7.565
									c2.683-2.793,5.751-5.267,8.94-7.565C82.325,80.167,85.666,78.05,89.079,76.05"/>
								<line fill="#FBD156" x1="145.973" y1="122.312" x2="145.973" y2="122.312"/>
								<path fill="#FBD156" d="M145.973,122.312c-11.038,0.377-22.102,0.228-29.457-0.259c-5.136-0.336-10.503-0.798-16.035-1.513
									c-5.529-0.723-11.234-1.673-16.964-3.174c-2.86-0.76-5.728-1.659-8.527-2.825c-2.787-1.173-5.546-2.6-7.911-4.614
									c-1.176-1.005-2.235-2.179-3.021-3.534c-0.788-1.353-1.256-2.901-1.313-4.473c-0.124-3.185,1.336-6.177,3.143-8.714
									c-1.807,2.537-3.267,5.529-3.143,8.714c0.058,1.571,0.525,3.12,1.313,4.473c0.786,1.355,1.846,2.529,3.021,3.534
									c2.365,2.015,5.124,3.441,7.911,4.614c2.8,1.166,5.667,2.065,8.527,2.825c5.729,1.501,11.435,2.451,16.964,3.174
									c5.532,0.715,10.899,1.177,16.035,1.513C123.872,122.539,134.935,122.688,145.973,122.312"/>
								<path fill="#FBD156" d="M119.225,60.55c-11.339,4.774-22.956,10.096-33.902,16.668
									C96.269,70.646,107.878,65.328,119.225,60.55"/>
								<line fill="#FCE193" x1="147.815" y1="122.24" x2="147.815" y2="122.24"/>
								<line fill="#FCE193" x1="147.815" y1="122.24" x2="147.815" y2="122.24"/>
								<line fill="#FCE193" x1="150.571" y1="122.093" x2="150.571" y2="122.093"/>
								<line fill="#FCE193" x1="154.244" y1="121.854" x2="154.244" y2="121.854"/>
								<line fill="#FCE193" x1="184.502" y1="119.407" x2="184.502" y2="119.407"/>
								<line fill="#FCE193" x1="346.153" y1="85.266" x2="346.153" y2="85.266"/>
								<line fill="#FCE193" x1="158.833" y1="121.51" x2="158.833" y2="121.51"/>
								<line fill="#FCE193" x1="179.876" y1="119.445" x2="179.876" y2="119.445"/>
								<line fill="#FCE193" x1="182.617" y1="119.066" x2="182.617" y2="119.066"/>
								<line fill="#FCE193" x1="271.429" y1="104.549" x2="271.429" y2="104.549"/>
								<line fill="#FCE193" x1="364.12" y1="78.155" x2="364.12" y2="78.155"/>
								<line fill="#FCE193" x1="189.876" y1="117.808" x2="189.876" y2="117.808"/>
								<line fill="#FCE193" x1="119.225" y1="60.55" x2="119.225" y2="60.55"/>
								<line fill="#FCE193" x1="376.848" y1="72.875" x2="376.848" y2="72.875"/>
								<line fill="#FCE193" x1="208.372" y1="115.304" x2="208.372" y2="115.304"/>
								<line fill="#FCE193" x1="304.338" y1="96.106" x2="304.338" y2="96.106"/>
								<line fill="#FCE193" x1="350.065" y1="82.502" x2="350.065" y2="82.502"/>
								<line fill="#FACC44" x1="403.074" y1="59.755" x2="403.074" y2="59.755"/>
								<line fill="#FCE193" x1="102.843" y1="68.85" x2="102.843" y2="68.85"/>
								<path fill="#FCE193" d="M111.363,65.489l3.365-1.453c-4.229,1.809-8.517,3.758-12.788,5.872l1.958-0.97l4.144-1.943
									L111.363,65.489"/>
								<polyline fill="#FCE193" points="113.783,64.506 111.395,65.562 109.097,66.579 113.783,64.506 								"/>
								<path fill="#FCE193" d="M105.22,68.366l-1.3,0.621l-4.09,2.003l-2.289,1.169C99.954,70.901,102.538,69.629,105.22,68.366"/>
								<line fill="#FACC44" x1="392.194" y1="64.564" x2="392.194" y2="64.564"/>
								<polyline fill="#FCE193" points="96.648,72.622 96.605,72.646 96.578,72.661 96.648,72.622 								"/>
								<line fill="#FCE193" x1="79.272" y1="84.221" x2="79.272" y2="84.221"/>
								<line fill="#FCE193" x1="302.775" y1="93.731" x2="302.775" y2="93.731"/>
								<line fill="#FCE193" x1="252.758" y1="104.76" x2="252.758" y2="104.76"/>
								<line fill="#FCE193" x1="257.244" y1="103.85" x2="257.244" y2="103.85"/>
								<line fill="#FCE193" x1="132.134" y1="116.591" x2="132.134" y2="116.591"/>
								<polyline fill="#FBD35E" points="143.055,53.619 141.333,54.245 143.055,53.619 								"/>
								<path fill="#FBCF50" d="M136.046,55.757c21.578-7.648,42.812-13.47,65.045-18.918c-4.416,1.222-8.819,2.479-13.21,3.776
									l1.753-0.519c-2.956,0.762-6.691,1.762-10.767,2.903l-6.321,1.803c-6.486,1.876-13.266,3.955-18.941,5.739l-7.019,2.097
									l-0.008-0.025l-0.92,0.142l5.169-1.896c-2.599,0.901-5.189,1.821-7.772,2.76l-1.722,0.626
									c-7.16,2.624-14.261,5.4-21.265,8.376C125.339,60.227,130.67,57.944,136.046,55.757"/>
								<path fill="#FACA3C" d="M178.868,43c4.075-1.142,7.811-2.142,10.767-2.903c-2.956,0.762-6.683,1.759-10.758,2.901
									l-6.33,1.805L178.868,43"/>
								<polyline fill="#FACA3C" points="189.634,40.097 187.881,40.615 189.634,40.097 								"/>
								<polyline fill="#FAC732" points="145.659,52.755 146.579,52.613 146.586,52.639 145.659,52.755 								"/>
								<path fill="#FACA3C" d="M136.046,55.757c-5.376,2.188-10.707,4.47-15.978,6.864
									C125.339,60.227,130.67,57.944,136.046,55.757"/>
								<path fill="#FBCF50" d="M139.15,52.822c12.952-4.604,29.645-9.549,43.717-13.199c-5.688,1.827-13.572,4.302-21.938,7.125
									c-8.367,2.816-17.214,5.988-24.882,9.009c-4.599,1.643-9.171,3.354-13.71,5.147c2.532-1.06,5.076-2.094,7.631-3.104
									c1.105-0.476,5.51-2.171,5.932-2.386c0.266-0.134-1.126,0.297-6.066,2.119c-2.469,0.916-5.822,2.186-10.267,3.983
									c-4.439,1.809-9.98,4.129-16.723,7.332c-4.674,2.244-9.279,4.623-13.765,7.2c7.488-4.382,14.898-8.02,21.868-11.232
									c6.976-3.206,13.53-5.97,19.477-8.411c-3.751,1.328-7.484,2.709-11.198,4.144c2.259-0.949,4.527-1.877,6.803-2.785
									c2.686-1.09,5.883-2.325,9.448-3.624L139.15,52.822"/>
								<path fill="#FACA3C" d="M130.423,56.406c-5.946,2.441-12.501,5.205-19.477,8.411c-6.97,3.213-14.38,6.851-21.868,11.232
									c7.488-4.382,14.898-8.02,21.868-11.232C117.922,61.611,124.477,58.848,130.423,56.406"/>
								<path fill="#FACA3C" d="M135.899,55.415c-0.422,0.215-4.826,1.91-5.932,2.386c-2.555,1.01-5.099,2.044-7.631,3.104
									c2.532-1.06,5.076-2.094,7.631-3.104C131.073,57.325,135.477,55.63,135.899,55.415"/>
								<line fill="#FACC44" x1="95.415" y1="70.685" x2="95.415" y2="70.685"/>
								<path fill="#FBD76B" d="M95.415,70.685c6.773-3.484,13.703-6.619,20.724-9.544c21.073-8.728,42.814-15.669,64.771-21.699
									c6.665-1.772,13.346-3.483,20.031-5.133l6.69-1.632c7.301-1.08,13.718-1.845,18.335-2.129
									c-8.326,1.972-16.62,4.066-24.875,6.291c-22.233,5.448-43.467,11.27-65.045,18.918c7.668-3.021,16.515-6.192,24.882-9.009
									c8.366-2.823,16.25-5.298,21.938-7.125c-14.072,3.65-30.765,8.595-43.717,13.199l-0.009,0.004l-3.665,1.314
									c-3.565,1.299-6.763,2.534-9.448,3.624c-2.275,0.908-4.544,1.836-6.803,2.785c-7.372,2.868-15.212,6.231-23.171,10.259
									c-3.983,2.022-7.995,4.212-11.951,6.641c-3.952,2.432-7.862,5.095-11.514,8.175c-1.209,1.029-2.401,2.11-3.522,3.255
									c-1.799,1.838-3.479,3.843-4.764,6.13c-1.271,2.265-2.148,4.922-1.822,7.617c0.157,1.373,0.625,2.708,1.317,3.896
									c0.699,1.186,1.598,2.233,2.599,3.146c2.012,1.828,4.368,3.179,6.782,4.297c0.813,0.456,1.641,0.893,2.483,1.298
									c-2.6-0.996-5.156-2.188-7.485-3.812c-2.303-1.609-4.462-3.745-5.484-6.562c-0.513-1.409-0.691-2.891-0.562-4.369
									c0.129-1.471,0.558-2.882,1.136-4.196c1.184-2.629,2.931-4.893,4.835-6.938c3.846-4.083,8.34-7.396,12.954-10.439
									C85.691,75.922,90.51,73.213,95.415,70.685"/>
								<line fill="#FAC734" x1="180.91" y1="39.441" x2="180.91" y2="39.441"/>
								<line fill="#FAC734" x1="207.631" y1="32.677" x2="207.631" y2="32.677"/>
								<line fill="#FAC734" x1="207.631" y1="32.677" x2="207.631" y2="32.677"/>
								<path fill="#FACC44" d="M95.415,70.685c-4.904,2.528-9.724,5.237-14.359,8.262c-4.614,3.043-9.108,6.356-12.954,10.439
									c-1.904,2.046-3.651,4.31-4.835,6.938c-0.578,1.314-1.007,2.726-1.136,4.196c-0.129,1.479,0.05,2.96,0.562,4.369
									c1.022,2.816,3.182,4.952,5.484,6.562c2.329,1.624,4.886,2.815,7.485,3.812c-2.6-0.996-5.156-2.188-7.485-3.812
									c-2.303-1.609-4.462-3.745-5.484-6.562c-0.513-1.409-0.691-2.891-0.562-4.369c0.129-1.471,0.558-2.882,1.136-4.196
									c1.184-2.629,2.931-4.893,4.835-6.938c3.846-4.083,8.34-7.396,12.954-10.439C85.691,75.922,90.51,73.213,95.415,70.685"/>
								<path fill="#FACC44" d="M116.138,61.141c21.073-8.728,42.814-15.669,64.771-21.699
									C158.953,45.472,137.211,52.413,116.138,61.141"/>
								<path fill="#FACC44" d="M62.481,102.626c-0.326-2.695,0.552-5.353,1.822-7.617c1.285-2.287,2.965-4.292,4.764-6.13
									c1.121-1.145,2.313-2.226,3.522-3.255c3.651-3.08,7.562-5.743,11.514-8.175c3.956-2.429,7.968-4.618,11.951-6.641
									c-3.983,2.022-7.995,4.212-11.951,6.641c-3.951,2.432-7.861,5.095-11.514,8.175c-1.209,1.03-2.395,2.104-3.522,3.256
									c-1.797,1.835-3.477,3.839-4.762,6.126C63.035,97.271,62.155,99.928,62.481,102.626"/>
								<line fill="#FAC52B" x1="180.91" y1="39.441" x2="180.91" y2="39.441"/>
								<line fill="#FAC52B" x1="180.91" y1="39.441" x2="180.91" y2="39.441"/>
								<line fill="#FACC44" x1="72.589" y1="85.624" x2="72.589" y2="85.624"/>
								<polyline fill="#FAC734" points="139.141,52.826 139.15,52.822 135.476,54.141 139.141,52.826 								"/>
								<path fill="#FAC734" d="M182.867,39.623c-5.688,1.827-13.572,4.302-21.938,7.125c-8.367,2.816-17.214,5.988-24.882,9.009
									c7.668-3.021,16.515-6.192,24.882-9.009C169.294,43.925,177.178,41.45,182.867,39.623"/>
								<line fill="#FBD76B" x1="207.631" y1="32.677" x2="207.631" y2="32.677"/>
								<line fill="#FAC732" x1="180.91" y1="39.441" x2="180.91" y2="39.441"/>
								<line fill="#FAC732" x1="180.91" y1="39.441" x2="180.91" y2="39.441"/>
								<path fill="#FBD35E" d="M180.91,39.441c8.866-2.415,17.777-4.665,26.722-6.765l-6.69,1.632
									C194.255,35.958,187.575,37.669,180.91,39.441"/>
								<line fill="#FBD35E" x1="207.631" y1="32.677" x2="207.631" y2="32.677"/>
								<path fill="#FAC732" d="M180.91,39.441c8.866-2.415,17.777-4.665,26.722-6.765C198.687,34.776,189.776,37.026,180.91,39.441
									"/>
							</g>
						</g>
					</g>
				</g>
				<path fill="#FFFFFF" d="M106.2,115.323c0.9,7.139-4.156,13.653-11.3,14.552c-7.136,0.904-13.649-4.158-14.552-11.296
					c-0.9-7.138,4.16-13.655,11.301-14.554C98.784,103.127,105.303,108.186,106.2,115.323z"/>
				<g>
					<path fill="#FFFFFF" d="M318.678,31.653c-3.72-0.146-6.64-3.285-6.492-7.02c0.138-3.733,3.283-6.647,7.021-6.504
						c3.732,0.145,6.644,3.288,6.503,7.022C325.56,28.891,322.419,31.803,318.678,31.653z"/>
					<path fill="#FFFFFF" d="M313.262,12.537c6.767-2.812,14.48,0.141,17.69,6.601l0,0c0.135,0.268,0.275,0.557,0.396,0.872l0,0
						l-1.871,0.743c-0.094-0.24-0.206-0.477-0.325-0.718l0,0c-2.741-5.514-9.338-8.04-15.111-5.639l0,0l-0.008,0.002L313.262,12.537
						L313.262,12.537z"/>
					<path fill="#FFFFFF" d="M306.701-3.25c15.107-6.276,32.356,0.306,39.541,14.749l0,0c0.305,0.62,0.608,1.27,0.878,1.945l0,0
						l-1.862,0.756c-0.253-0.621-0.527-1.215-0.827-1.805l0,0c-6.7-13.498-22.829-19.656-36.954-13.785l0,0l-0.002,0.009
						L306.701-3.25L306.701-3.25z"/>
					<path fill="#FFFFFF" d="M310.756,6.51l0.003-0.009l0,0V6.51H310.756L310.756,6.51z M309.987,4.647
						C320.922,0.1,333.4,4.874,338.595,15.318l0,0c0.222,0.454,0.441,0.911,0.639,1.403l0,0l-1.866,0.753
						c-0.179-0.421-0.371-0.85-0.571-1.258l0,0c-4.727-9.502-16.086-13.845-26.037-9.716l0,0L309.987,4.647L309.987,4.647z"/>
				</g>
				<polygon fill="#FFFFFF" points="141.011,-7.77 146.49,2.965 158.382,1.072 149.867,9.592 155.338,20.33 144.598,14.859 
					136.086,23.381 137.967,11.489 127.229,6.015 139.132,4.127 				"/>
				<polygon fill="#FFFFFF" points="273.953,151.246 264.437,144.625 265.428,133.07 275.913,128.15 285.422,134.775 
					284.443,146.324 				"/>
				<path fill="#FFFFFF" d="M211.805,60.288h-5.836v-6.23c0.004-1.062-0.309-2.113-1.086-2.834c-0.769-0.719-1.809-0.97-2.904-0.97
					s-2.126,0.258-2.897,0.97c-0.772,0.727-1.081,1.771-1.074,2.834v6.23h-0.487c-1.104,0-2.138,0.261-2.91,0.982
					c-0.77,0.728-1.084,1.767-1.076,2.826c-0.008,1.062,0.307,2.103,1.076,2.832c0.772,0.709,1.807,0.973,2.91,0.973h0.487v25.033
					c-0.007,1.061,0.302,2.097,1.074,2.821c0.771,0.716,1.8,0.978,2.897,0.973h0.031c1.09,0,2.11-0.26,2.873-0.967
					c0.777-0.723,1.09-1.767,1.086-2.827V67.901h5.836c1.098,0,2.131-0.264,2.901-0.973c0.772-0.721,1.087-1.77,1.074-2.832
					c0.013-1.06-0.302-2.107-1.074-2.826C213.936,60.549,212.903,60.288,211.805,60.288z M185.588,77.892
					c-2.31-2.083-5.211-3.147-8.432-3.136l-19.641-0.008c-1.181-0.004-2.075-0.337-2.91-1.056c-0.808-0.724-1.129-1.426-1.143-2.409
					c0.014-0.98,0.332-1.664,1.133-2.385c0.838-0.705,1.739-1.038,2.92-1.048h19.641c1.092,0,2.127-0.254,2.898-0.97
					c0.775-0.715,1.09-1.765,1.082-2.831c0.008-1.051-0.31-2.092-1.088-2.805c-0.769-0.706-1.801-0.957-2.893-0.957h-19.641
					c-3.209-0.004-6.094,1.071-8.422,3.175c-2.346,2.081-3.614,4.782-3.598,7.82c-0.017,3.055,1.238,5.768,3.57,7.842
					c2.33,2.088,5.223,3.152,8.449,3.142l19.641,0.008c1.167,0.003,2.066,0.343,2.898,1.055c0.818,0.74,1.137,1.434,1.15,2.411
					c-0.014,0.985-0.332,1.666-1.144,2.382c-0.831,0.709-1.734,1.037-2.905,1.045h-27.679c-1.095,0-2.128,0.255-2.907,0.976
					c-0.77,0.721-1.082,1.763-1.074,2.83c-0.008,1.049,0.309,2.087,1.086,2.8c0.773,0.71,1.801,0.956,2.896,0.956h27.726
					c3.086,0,5.891-1.025,8.191-3.011c2.46-2.049,3.787-4.825,3.768-7.978C189.172,82.684,187.923,79.967,185.588,77.892z
					 M261.583,63.438c-2.314-2.086-5.207-3.154-8.438-3.15h-19.64c-3.227-0.004-6.12,1.064-8.442,3.15
					c-2.338,2.072-3.585,4.789-3.569,7.845V85.74c-0.016,3.028,1.245,5.745,3.604,7.822c2.307,2.092,5.176,3.166,8.359,3.166h19.688
					c1.094,0,2.129-0.246,2.9-0.956c0.777-0.713,1.096-1.751,1.082-2.8c0.014-1.067-0.305-2.109-1.074-2.83
					c-0.773-0.721-1.814-0.976-2.908-0.976h-19.64c-1.171-0.008-2.073-0.336-2.915-1.045c-0.804-0.716-1.106-1.39-1.129-2.382
					v-3.474l23.684,0.008v-0.008c3.111,0.011,5.92-1.002,8.24-2.966c2.463-2.087,3.795-4.872,3.777-8.018
					C265.18,68.228,263.928,65.504,261.583,63.438z M256.045,73.692c-0.83,0.719-1.725,1.052-2.9,1.063l-23.684-0.008v-3.465
					c0.014-0.987,0.325-1.664,1.129-2.379c0.842-0.711,1.749-1.044,2.915-1.054h19.64c1.156,0.01,2.041,0.318,2.852,0.978
					c0.859,0.741,1.188,1.459,1.207,2.455C257.184,72.259,256.866,72.961,256.045,73.692z M80.942,96.729
					c3.096,0,5.895-1.025,8.197-3.011c2.465-2.049,3.787-4.825,3.768-7.978V71.283c0.011-3.056-1.236-5.772-3.573-7.845
					c-2.315-2.086-5.21-3.154-8.438-3.145l-19.633-0.006c-3.232-0.004-6.125,1.064-8.449,3.15c-2.332,2.065-3.582,4.789-3.567,7.845
					h7.962c0.012-0.98,0.328-1.657,1.135-2.385c0.84-0.705,1.741-1.038,2.92-1.048h19.633c1.178,0.01,2.067,0.34,2.912,1.054
					c0.812,0.722,1.133,1.408,1.145,2.379V85.74c-0.012,0.979-0.332,1.666-1.145,2.382c-0.845,0.709-0.731,1.037-1.912,1.045
					 M134.787,63.442c-2.311-2.09-5.211-3.164-8.435-3.154h-12.949c-1.838,0-3.572,0.344-5.165,1.031
					c-0.74-0.702-1.794-1.062-2.865-1.031c-1.095,0-2.12,0.247-2.898,0.962c-0.778,0.713-1.097,1.749-1.084,2.804V92.97
					c-0.013,1.054,0.306,2.099,1.084,2.803c0.778,0.705,1.804,0.961,2.898,0.961c1.094,0,2.125-0.256,2.895-0.961
					c0.776-0.713,1.095-1.751,1.081-2.803V71.283c0.016-0.98,0.33-1.664,1.139-2.383c0.84-0.71,1.744-1.04,2.916-1.055l12.949,0.008
					c1.167,0.007,2.072,0.337,2.908,1.047c0.807,0.719,1.125,1.402,1.139,2.383V92.97c-0.012,1.052,0.307,2.09,1.082,2.803
					c0.77,0.705,1.799,0.961,2.896,0.961c1.094,0,2.124-0.256,2.896-0.961c0.777-0.704,1.094-1.749,1.084-2.803V71.283
					C138.375,68.223,137.122,65.504,134.787,63.442z M276.282,42.396c-1.102,0-2.137,0.268-2.912,0.994
					c-0.768,0.729-1.074,1.778-1.064,2.861V92.88c-0.01,1.075,0.297,2.124,1.064,2.856c0.773,0.724,1.811,0.997,2.912,0.992h0.035
					c1.084,0,2.115-0.272,2.879-0.992c0.768-0.732,1.076-1.781,1.064-2.856V46.252c0.012-1.083-0.297-2.133-1.064-2.861
					C278.422,42.664,277.381,42.396,276.282,42.396z M484.854,63.442c-2.312-2.09-5.203-3.164-8.439-3.154h-12.953
					c-1.824,0-3.559,0.344-5.152,1.031c-0.738-0.702-1.797-1.059-2.873-1.031c-1.09,0-2.123,0.247-2.895,0.962
					c-0.781,0.713-1.092,1.749-1.086,2.804V92.97c-0.006,1.052,0.305,2.09,1.086,2.803c0.771,0.705,1.805,0.961,2.895,0.961
					c1.094,0,2.127-0.256,2.898-0.961c0.783-0.713,1.1-1.751,1.084-2.803V71.283c0.02-0.98,0.33-1.664,1.141-2.383
					c0.838-0.71,1.74-1.04,2.902-1.055l12.953,0.008c1.178,0.007,2.088,0.34,2.912,1.047c0.812,0.719,1.119,1.396,1.143,2.383V92.97
					c-0.016,1.052,0.303,2.09,1.074,2.803c0.779,0.705,1.809,0.961,2.904,0.961l3.971-25.45
					C488.44,68.223,487.19,65.504,484.854,63.442z M386.008,49c-1.379,0-2.635,0.322-3.539,1.178
					c-0.92,0.859-1.301,2.102-1.289,3.432c-0.012,1.333,0.369,2.577,1.289,3.423c0.904,0.862,2.16,1.182,3.539,1.182
					c1.381,0,2.629-0.32,3.547-1.182c0.906-0.853,1.283-2.09,1.271-3.423c0.012-1.33-0.365-2.572-1.271-3.432
					C388.637,49.322,387.389,49,386.008,49z M385.675,60.288c-1.102,0-2.137,0.261-2.914,0.982c-0.77,0.719-1.088,1.767-1.072,2.826
					v28.838c-0.016,1.061,0.303,2.104,1.082,2.827c0.768,0.71,1.803,0.972,2.904,0.972c1.094,0,2.129-0.262,2.902-0.978
					c0.773-0.725,1.082-1.761,1.07-2.821V64.097c0.012-1.06-0.297-2.099-1.07-2.826C387.814,60.549,386.773,60.288,385.675,60.288z
					 M371.058,60.288h-5.826v-6.23c0.01-1.069-0.303-2.113-1.076-2.834c-0.775-0.712-1.809-0.97-2.902-0.97
					s-2.133,0.251-2.914,0.966c-0.775,0.725-1.086,1.769-1.076,2.838v6.23h-0.48c-1.096,0-2.131,0.261-2.904,0.982
					c-0.771,0.728-1.078,1.767-1.076,2.826c-0.002,1.062,0.305,2.103,1.076,2.832c0.773,0.709,1.809,0.973,2.904,0.973h0.477
					l0.004,25.033c-0.01,1.061,0.301,2.104,1.076,2.827c0.781,0.71,1.82,0.972,2.914,0.972s2.127-0.262,2.902-0.972
					c0.773-0.723,1.086-1.767,1.076-2.827V67.894l5.826,0.008c1.104,0,2.145-0.264,2.914-0.973c0.773-0.721,1.088-1.77,1.074-2.832
					c0.014-1.06-0.301-2.107-1.074-2.826C373.203,60.549,372.162,60.288,371.058,60.288z M315.439,96.729l19.639,0.005
					c1.826,0,3.559-0.35,5.148-1.058c0.734,0.719,1.805,1.089,2.895,1.053c1.086,0.005,2.121-0.251,2.891-0.956
					c0.775-0.715,1.086-1.751,1.08-2.803V71.283c0.012-3.061-1.236-5.772-3.568-7.845c-2.322-2.086-5.221-3.16-8.445-3.15h-19.639
					c-1.098,0-2.125,0.247-2.891,0.962c-0.781,0.708-1.098,1.749-1.088,2.804c-0.01,1.062,0.299,2.102,1.072,2.827
					c0.777,0.713,1.809,0.97,2.906,0.97h19.639c1.178,0.01,2.068,0.34,2.912,1.05c0.812,0.719,1.125,1.402,1.143,2.383V74.7
					l-23.693,0.006v7.522h23.693v3.51c-0.018,0.988-0.33,1.668-1.143,2.376c-0.834,0.717-1.734,1.045-2.912,1.053"/>
			</g>
		</g>
	</g>
	<g>
		<path fill="#FFFFFF" d="M346.775,121.738c0,1.352-0.425,2.537-1.271,3.558c-0.848,1.021-1.996,1.871-3.446,2.554
			s-3.145,1.195-5.085,1.54s-4.015,0.517-6.223,0.517c-1.494,0-2.883-0.073-4.165-0.219s-2.414-0.321-3.396-0.526
			s-1.801-0.421-2.459-0.646c-0.658-0.226-1.132-0.424-1.422-0.597c-0.29-0.172-0.496-0.421-0.618-0.745
			c-0.123-0.324-0.185-0.792-0.185-1.401c0-0.41,0.022-0.755,0.067-1.033c0.044-0.278,0.117-0.503,0.217-0.676
			c0.101-0.172,0.234-0.295,0.401-0.367c0.168-0.073,0.362-0.109,0.586-0.109c0.312,0,0.753,0.109,1.321,0.327
			c0.569,0.219,1.299,0.461,2.191,0.726c0.892,0.266,1.957,0.507,3.195,0.726c1.237,0.219,2.67,0.328,4.299,0.328
			c1.07,0,2.028-0.076,2.877-0.229c0.847-0.152,1.566-0.368,2.157-0.646s1.043-0.622,1.355-1.033
			c0.312-0.41,0.468-0.867,0.468-1.371c0-0.583-0.268-1.083-0.803-1.5c-0.535-0.418-1.232-0.788-2.091-1.113
			c-0.858-0.324-1.835-0.629-2.927-0.914c-1.094-0.285-2.22-0.586-3.379-0.904c-1.16-0.318-2.287-0.679-3.379-1.083
			c-1.094-0.404-2.069-0.888-2.928-1.451c-0.858-0.562-1.556-1.229-2.091-1.997s-0.803-1.689-0.803-2.763
			c0-1.231,0.385-2.314,1.154-3.249c0.77-0.934,1.807-1.709,3.111-2.325s2.844-1.076,4.616-1.381
			c1.773-0.305,3.652-0.457,5.637-0.457c1.026,0,2.052,0.046,3.078,0.139c1.025,0.093,1.985,0.219,2.877,0.378
			s1.684,0.338,2.376,0.536c0.69,0.199,1.147,0.365,1.371,0.497c0.223,0.133,0.373,0.245,0.452,0.338
			c0.077,0.093,0.145,0.216,0.2,0.367c0.056,0.153,0.095,0.345,0.117,0.577c0.021,0.231,0.033,0.52,0.033,0.864
			c0,0.385-0.017,0.709-0.05,0.974c-0.033,0.266-0.09,0.483-0.167,0.656c-0.079,0.172-0.19,0.298-0.335,0.377
			c-0.146,0.08-0.34,0.119-0.586,0.119c-0.245,0-0.635-0.092-1.171-0.278c-0.535-0.185-1.193-0.387-1.974-0.605
			s-1.684-0.418-2.71-0.597c-1.025-0.179-2.152-0.268-3.379-0.268c-0.959,0-1.795,0.069-2.509,0.208
			c-0.714,0.14-1.311,0.331-1.79,0.576c-0.479,0.246-0.836,0.54-1.07,0.885s-0.351,0.709-0.351,1.093c0,0.57,0.262,1.063,0.786,1.48
			c0.523,0.418,1.226,0.789,2.107,1.113c0.881,0.325,1.879,0.629,2.994,0.914s2.252,0.586,3.412,0.904
			c1.159,0.318,2.297,0.679,3.412,1.083s2.107,0.888,2.978,1.451c0.87,0.562,1.572,1.226,2.107,1.987
			S346.775,120.705,346.775,121.738z"/>
		<path fill="#FFFFFF" d="M389.462,116.214c0,2.358-0.519,4.375-1.556,6.051c-1.037,1.677-2.526,3.044-4.467,4.104
			c-1.939,1.06-4.299,1.838-7.075,2.335s-6.083,0.745-9.919,0.745h-10.338c-0.735,0-1.354-0.129-1.856-0.388
			c-0.502-0.258-0.753-0.679-0.753-1.262v-22.417c0-0.583,0.251-1.004,0.753-1.262c0.502-0.259,1.121-0.388,1.856-0.388h11.107
			c3.858,0,7.131,0.269,9.818,0.805s4.951,1.331,6.791,2.385c1.841,1.054,3.239,2.355,4.199,3.905
			C388.982,112.378,389.462,114.174,389.462,116.214z M380.363,116.393c0-1.219-0.24-2.352-0.72-3.398s-1.249-1.954-2.309-2.723
			c-1.059-0.769-2.42-1.368-4.081-1.799c-1.661-0.43-3.842-0.646-6.54-0.646h-4.449v17.488h4.583c2.408,0,4.438-0.186,6.089-0.557
			c1.65-0.37,3.027-0.931,4.131-1.679c1.104-0.749,1.93-1.68,2.476-2.792C380.089,119.175,380.363,117.876,380.363,116.393z"/>
		<path fill="#FFFFFF" d="M405.52,128.733c0,0.133-0.072,0.252-0.218,0.358c-0.145,0.105-0.384,0.192-0.719,0.258
			c-0.335,0.066-0.781,0.119-1.338,0.159c-0.558,0.04-1.271,0.06-2.142,0.06c-0.848,0-1.556-0.02-2.124-0.06
			s-1.021-0.093-1.355-0.159c-0.334-0.065-0.574-0.152-0.719-0.258c-0.146-0.106-0.218-0.226-0.218-0.358v-24.285
			c0-0.132,0.072-0.251,0.218-0.357c0.145-0.105,0.39-0.191,0.736-0.258c0.345-0.066,0.797-0.12,1.354-0.159
			c0.558-0.04,1.26-0.06,2.107-0.06c0.87,0,1.584,0.02,2.142,0.06c0.557,0.039,1.003,0.093,1.338,0.159s0.574,0.152,0.719,0.258
			c0.146,0.106,0.218,0.226,0.218,0.357V128.733z"/>
	</g>
</g>
</svg>
