<svg xmlns="http://www.w3.org/2000/svg" width="488.7" height="157.5" viewBox="0 0 488.7 157.5"><style type="text/css"><![CDATA[
	.st0{fill:#FAC52B;}	.st1{fill:#FAC732;}	.st2{fill:#FAC734;}	.st3{fill:#FAC836;}	.st4{fill:#FAC837;}
	.st5{fill:#FACA3C;}	.st6{fill:#FACA3E;}	.st7{fill:#FACC44;}	.st8{fill:#FACC45;}	.st9{fill:#FACD49;}
	.st10{fill:#FBCF50;}	.st11{fill:#FBD156;}	.st12{fill:#FBD35E;}	.st13{fill:#FBD462;}
	.st14{fill:#FBD76B;}	.st15{fill:#FCDC80;}	.st16{fill:#FCE193;}	.st17{fill:#FDE7A6;}
	.st18{opacity:0.8;}	.st19{fill:#FFFFFF;}	.st20{fill:none;}	.st21{opacity:0.8;fill:#FCE193;enable-background:new    ;}
]]></style><path class="st19" d="M168.3 122.8l3.4 3.2 1.1-1.2c-1.1-1-2.2-2.1-3.4-3.2l-1.1 1.2zm-12.9-108.6l.2 1.6c1.5-.1 3-.3 4.6-.4l-.1-1.6c-1.6.2-3.1.3-4.7.4zm6.2 102.2c1.1 1.1 2.2 2.2 3.3 3.2l1.1-1.1-3.3-3.2-1.1 1.1zm-19.1-20.3c1 1.2 2 2.3 3.1 3.5l1.2-1.1c-1-1.1-2-2.3-3-3.5l-1.3 1.1zm12.5 13.7l3.3 3.3 1.1-1.1-3.3-3.3-1.1 1.1zm23.7-96.4h-4.7v1.6h4.6l.1-1.6zm-30.1 89.7l3.2 3.4 1.2-1.1c-1.1-1.1-2.1-2.2-3.2-3.4l-1.2 1.1zm26.5 26l3.5 3.1 1-1.2c-1.1-1-2.3-2-3.5-3.1l-1 1.2zm22.1 17.1c1.3.8 2.7 1.6 4 2.3l.8-1.4c-1.3-.7-2.7-1.5-4-2.3l-.8 1.4zm18.6-130.6l-4.6-.4-.1 1.6 4.6.4.1-1.6zm-10.4 135c1.4.7 2.9 1.3 4.3 1.9l.6-1.5-4.2-1.8-.7 1.4zm-23.3-15.4c1.2 1 2.4 2 3.6 2.9l1-1.2c-1.2-.9-2.4-1.9-3.6-2.9l-1 1.2zm10.5-121.3l-.1 1.6 4.6.3.1-1.6-4.6-.3zm-9.3 1.2l4.6.2.1-1.6c-1.6-.1-3.1-.1-4.6-.2l-.1 1.6zm-13.9-.1v-1.6c-1.6 0-3.1.1-4.6.2l.1 1.6c1.4-.1 3-.1 4.5-.2zm37.1-.2l-4.6-.3-.1 1.6 4.6.3.1-1.6zm-88.5 16.4c.1-.2.2-.3.4-.5l-1.2-1-.4.5c-1 1.3-1.8 2.7-2.4 4.2l1.5.6c.5-1.4 1.2-2.7 2.1-3.8zm15.2-10.5l-.6-1.5c-1.5.6-2.9 1.2-4.3 1.9l.7 1.4c1.4-.7 2.8-1.3 4.2-1.8zm214.3 28.8c-.8-1.1-1.7-2.2-2.8-3.3l-1.1 1.1c1 1.1 1.9 2.2 2.7 3.2.4-.3.7-.7 1.2-1zm-6.2-6.5c-1.2-1-2.4-1.9-3.7-2.9l-.9 1.3c1.3.9 2.5 1.8 3.6 2.8l1-1.2zm-127.2 111.1c1.5.5 3 .9 4.5 1.2l.4-1.5c-1.5-.4-3-.8-4.4-1.2l-.5 1.5zm-99.5-112.3c0-.9 0-1.7.1-2.6l-1.6-.2c-.1.9-.2 1.8-.2 2.8 0 .7 0 1.3.1 2l1.6-.1v-1.9zm9.6-18.3c-1.3.9-2.6 1.8-3.8 2.9l1 1.2c1.1-1 2.3-1.9 3.6-2.7l-.8-1.4zm12.3 65.5l2.9 3.6 1.2-1c-1-1.2-2-2.4-2.9-3.6l-1.2 1zm-15.7-23.1c.7 1.3 1.5 2.7 2.3 4l1.4-.8c-.8-1.3-1.6-2.7-2.3-4l-1.4.8zm-7-17.4c.3 1.5.7 3 1.2 4.5l1.5-.5c-.5-1.5-.9-3-1.2-4.4l-1.5.4zm2.9 9c.6 1.4 1.2 2.8 1.9 4.3l1.4-.7c-.7-1.4-1.3-2.8-1.9-4.2l-1.4.6zm72.8 83.5l3.8 2.7.9-1.3c-1.2-.8-2.5-1.7-3.8-2.6l-.9 1.2zm125.5-22.4l1 1.2c1.2-1 2.4-2.1 3.5-3.1l-1.1-1.2c-1 1.1-2.2 2.1-3.4 3.1zm-3.5 3l-3.6 2.9 1 1.2 3.7-2.9-1.1-1.2zm13.8-88.3c-1.4-.6-2.8-1.2-4.3-1.8l-.6 1.5c1.5.6 2.9 1.2 4.2 1.8l.7-1.5zm-24.9 96.6l.9 1.3 3.8-2.7-.9-1.3c-1.2 1-2.5 1.9-3.8 2.7zm-6.5-104.6c1.5.3 3 .6 4.5 1l.3-1.5-4.5-1-.3 1.5zm-1.2 109.8l.8 1.3 3.9-2.5-.9-1.3c-1.2.8-2.5 1.6-3.8 2.5zm10.2-107.7l4.5 1.2.4-1.5-4.5-1.2-.4 1.5zm25.9 9.4c1.4.7 2.7 1.5 4 2.2l.8-1.4c-1.3-.8-2.7-1.5-4.1-2.3l-.7 1.5zm-94.6-19.5l-4.6-.4-.1 1.6 4.6.4.1-1.6zm7.5 137.9l.2 1.6 4.6-.6-.3-1.6c-1.4.2-3 .4-4.5.6zm1.8-137.1l-4.6-.4-.1 1.6 4.6.4.1-1.6zm9.2.8c-1.5-.1-3.1-.2-4.6-.4l-.1 1.6c1.6.1 3.1.3 4.6.4l.1-1.6zm32.1 120.9l.8 1.4 4-2.3-.8-1.4c-1.3.8-2.6 1.5-4 2.3zm-61.6 16.4l4.6.6.1-1.6c-1.5-.1-3-.3-4.5-.6l-.2 1.6zm1.8-139.7l-4.6-.4-.1 1.6 4.6.4.1-1.6zm25.8 137.1l.4 1.5c1.5-.4 3-.7 4.5-1.2l-.4-1.5c-1.6.5-3.1.9-4.5 1.2zm-16.5 1.9h-1.7v1.6h1.7c1 0 2 0 3-.1l-.1-1.6c-1 .1-2 .1-2.9.1zm46.1-134l-4.6-.6-.2 1.6c1.6.2 3.1.4 4.6.6l.2-1.6zm-3.7 122.6l.7 1.4 4.2-2.1-.7-1.4c-1.5.7-2.9 1.4-4.2 2.1zm-14.9-122.9l.1-1.6c-.4 0-.8 0-1.1-.1-1.2-.1-2.3-.2-3.5-.2l-.1 1.6c1.2.1 2.4.2 3.5.2.4 0 .7 0 1.1.1zm27.8 1.7c-1.5-.3-3-.5-4.6-.8l-.2 1.6c1.6.2 3.1.5 4.6.8l.2-1.6zm-21.3 125l.6 1.5c1.4-.6 2.9-1.2 4.3-1.9l-.7-1.4-4.2 1.8zm-8.7 3.2l.5 1.5c1.5-.5 2.9-1 4.4-1.6l-.5-1.5c-1.5.6-2.9 1.1-4.4 1.6zm11.6-130.7c-1.5-.2-3.1-.3-4.6-.4l-.1 1.6c1.6.1 3.1.3 4.6.4l.1-1.6zm-48 135.8zm118.1-113.2zm-60.9-21.5zm-55.4-5zm-37-2.8zm-18.6-.3zm42.4 52.9h-5.8v-6.2c0-1.1-.3-2.1-1.1-2.8-.8-.7-1.8-1-2.9-1s-2.1.3-2.9 1c-.8.7-1.1 1.8-1.1 2.8v6.2h-.5c-1.1 0-2.1.3-2.9 1-.8.7-1.1 1.8-1.1 2.8 0 1.1.3 2.1 1.1 2.8.8.7 1.8 1 2.9 1h.5v25c0 1.1.3 2.1 1.1 2.8.8.7 1.8 1 2.9 1 1.1 0 2.1-.3 2.9-1 .8-.7 1.1-1.8 1.1-2.8v-25h5.8c1.1 0 2.1-.3 2.9-1 .8-.7 1.1-1.8 1.1-2.8 0-1.1-.3-2.1-1.1-2.8-.8-.7-1.8-1-2.9-1zm-172.2 28.9h-27.7c-1.2 0-2.1-.3-2.9-1-.8-.7-1.1-1.4-1.1-2.4v-14.5c0-1 .3-1.7 1.1-2.4s1.7-1 2.9-1h19.6c1.1 0 2.1-.2 2.9-1 .8-.7 1.1-1.8 1.1-2.8 0-1-.3-2.1-1.1-2.8-.8-.7-1.8-1-2.9-1h-19.6c-3.2 0-6.1 1.1-8.4 3.2-2.3 2.1-3.6 4.8-3.6 7.8v14.5c0 3 1.2 5.7 3.6 7.8 2.3 2.1 5.2 3.2 8.4 3.2h27.7c1.1 0 2.1-.2 2.9-1s1.1-1.8 1.1-2.8c0-1.1-.3-2.1-1.1-2.8s-1.9-1-2.9-1zm222-25.7c-2.3-2.1-5.2-3.2-8.4-3.2h-19.6c-3.2 0-6.1 1.1-8.4 3.2-2.3 2.1-3.6 4.8-3.6 7.8v14.5c0 3 1.2 5.7 3.6 7.8 2.3 2.1 5.2 3.2 8.4 3.2h19.7c1.1 0 2.1-.2 2.9-1 .8-.7 1.1-1.8 1.1-2.8 0-1.1-.3-2.1-1.1-2.8-.8-.7-1.8-1-2.9-1h-19.6c-1.2 0-2.1-.3-2.9-1-.8-.7-1.1-1.4-1.1-2.4v-3.5h23.7c3.1 0 5.9-1 8.2-3 2.5-2.1 3.8-4.9 3.8-8-.2-3-1.5-5.8-3.8-7.8zm-5.6 10.2c-.8.7-1.7 1-2.9 1.1h-23.7v-3.5c0-1 .3-1.7 1.1-2.4s1.8-1 2.9-1h19.6c1.2 0 2 .3 2.8 1 .9.7 1.2 1.5 1.2 2.5.2.9-.1 1.6-1 2.3zm-70.4 4.2c-2.3-2.1-5.2-3.2-8.4-3.1h-19.6c-1.2 0-2.1-.3-2.9-1.1-.8-.7-1.1-1.4-1.1-2.4s.3-1.7 1.1-2.4 1.7-1 2.9-1.1h19.6c1.1 0 2.1-.2 2.9-1 .8-.7 1.1-1.8 1.1-2.8 0-1-.3-2.1-1.1-2.8-.8-.7-1.8-1-2.9-1h-19.6c-3.2 0-6.1 1.1-8.4 3.2-2.4 2.1-3.6 4.8-3.6 7.8s1.2 5.8 3.6 7.8c2.3 2.1 5.2 3.1 8.5 3.1h19.6c1.2 0 2.1.3 2.9 1.1.8.7 1.1 1.4 1.1 2.4s-.3 1.7-1.1 2.4-1.7 1-2.9 1h-27.7c-1.1 0-2.1.2-2.9 1-.8.7-1.1 1.8-1.1 2.8 0 1 .3 2.1 1.1 2.8.8.7 1.8 1 2.9 1h27.7c3.1 0 5.9-1 8.2-3 2.5-2 3.8-4.8 3.8-8-.1-2.9-1.4-5.6-3.7-7.7zm-96.3-14.4c-2.3-2.1-5.2-3.2-8.4-3.1h-19.6c-3.2 0-6.1 1.1-8.4 3.2-2.3 2.1-3.6 4.8-3.6 7.8v14.5c0 3 1.2 5.7 3.6 7.8 2.3 2.1 5.2 3.2 8.4 3.2h19.7c3.1 0 5.9-1 8.2-3 2.5-2 3.8-4.8 3.8-8v-14.6c-.1-3-1.3-5.8-3.7-7.8zm-4.3 22.3c0 1-.3 1.7-1.2 2.4-.8.7-1.7 1-2.9 1h-19.6c-1.2 0-2.1-.3-2.9-1-.8-.7-1.1-1.4-1.1-2.4v-14.5c0-1 .3-1.7 1.1-2.4s1.7-1 2.9-1h19.6c1.2 0 2.1.3 2.9 1 .8.7 1.1 1.4 1.1 2.4l.1 14.5zm354.4-22.3c-2.3-2.1-5.2-3.2-8.5-3.1h-19.6c-3.2 0-6.1 1.1-8.4 3.2-2.3 2.1-3.6 4.8-3.6 7.8v14.5c0 3 1.2 5.7 3.6 7.8 2.3 2.1 5.2 3.2 8.4 3.2h19.7c3.1 0 5.9-1 8.2-3 2.5-2 3.8-4.8 3.8-8v-14.6c0-3-1.2-5.8-3.6-7.8zm-4.4 22.3c0 1-.3 1.7-1.1 2.4s-1.7 1-2.9 1h-19.6c-1.2 0-2.1-.3-2.9-1-.8-.7-1.1-1.4-1.1-2.4v-14.5c0-1 .3-1.7 1.1-2.4s1.7-1 2.9-1h19.6c1.2 0 2.1.3 2.9 1 .8.7 1.1 1.4 1.1 2.4v14.5zm49.8-22.3c-2.3-2.1-5.2-3.2-8.4-3.2h-13c-1.8 0-3.6.3-5.2 1-.7-.7-1.8-1.1-2.9-1-1.1 0-2.1.2-2.9 1-.8.7-1.1 1.8-1.1 2.8v28.9c0 1 .3 2.1 1.1 2.8.8.7 1.8 1 2.9 1 1.1 0 2.1-.3 2.9-1 .8-.7 1.1-1.8 1.1-2.8v-21.7c0-1 .3-1.7 1.1-2.4s1.7-1 2.9-1h13c1.2 0 2.1.3 2.9 1 .8.7 1.1 1.4 1.1 2.4v21.7c0 1 .3 2.1 1.1 2.8.8.7 1.8 1 2.9 1s2.1-.3 2.9-1c.8-.7 1.1-1.8 1.1-2.8v-21.7c.1-3-1.1-5.8-3.5-7.8zm-192.1-21.1c-1.1 0-2.2.3-2.9 1-.8.7-1.1 1.8-1.1 2.9v46.6c0 1.1.3 2.1 1.1 2.9.8.7 1.8 1 2.9 1 1.1 0 2.1-.3 2.9-1 .8-.7 1.1-1.8 1.1-2.9v-46.6c0-1.1-.3-2.1-1.1-2.9-.7-.7-1.8-1-2.9-1zm-16.4 0c-1.1 0-2.1.3-2.9 1-.8.7-1.1 1.8-1.1 2.9v46.6c0 1.1.3 2.1 1.1 2.9.8.7 1.8 1 2.9 1 1.1 0 2.1-.3 2.9-1 .8-.7 1.1-1.8 1.1-2.9v-46.6c0-1.1-.3-2.1-1.1-2.9-.8-.7-1.8-1-2.9-1zm67.6 21.1c-2.3-2.1-5.2-3.2-8.5-3.2h-19.6c-1.1 0-2.1.2-2.9 1-.8.7-1.1 1.8-1.1 2.8 0 1.1.3 2.1 1.1 2.8.8.7 1.8 1 2.9 1h19.6c1.2 0 2.1.3 2.9 1 .8.7 1.1 1.4 1.1 2.4v3.4h-23.7c-3.2 0-6.1 1.1-8.4 3.2-2.3 2.1-3.6 4.8-3.6 7.9 0 3 1.2 5.7 3.6 7.8 2.3 2.1 5.2 3.2 8.4 3.2h19.6c1.8 0 3.6-.4 5.1-1.1.7.7 1.8 1.1 2.9 1.1 1.1 0 2.1-.2 2.9-1 .8-.7 1.1-1.8 1.1-2.8v-21.7c.2-3.1-1-5.8-3.4-7.8zm-5.5 24.6c-.8.7-1.7 1-2.9 1h-19.6c-1.2 0-2.1-.3-2.9-1-.8-.7-1.1-1.4-1.1-2.4s.3-1.7 1.2-2.4c.8-.7 1.7-1.1 2.9-1.1h23.7v3.5c-.2 1.1-.5 1.7-1.3 2.4z"/><g class="st18"><path class="st20" d="M226 36.6"/><path class="st16" d="M226 36.6c3.7-.2 6.5-.1 8.4.1l6.4-.9c-4.5.8-9 1.6-13.5 2.5-12.1 2.4-25.7 5.5-38.7 8.8-13 3.3-25.3 6.8-35 9.6 5.7-1.8 12.5-3.9 18.9-5.7l6.3-1.8c4.1-1.1 7.8-2.1 10.8-2.9l-1.8.5c4.4-1.3 8.8-2.6 13.2-3.8 4.4-1.1 8.9-2.1 13.4-3.2-4.5 1-8.9 2.1-13.4 3.2 8.4-2.4 16.6-4.5 25-6.4"/><path class="st20" d="M201.1 42.9m-47.5 13.7l87.2-20.8"/><path class="st16" d="M271.7 107.1l-.6.1 3.2-.8c12.5-2.9 24.9-6.1 36.3-9.4 13.9-4 28.3-8.4 43.1-13.6 3-1 5.9-2.1 8.9-3.2-5.9 2.4-11.9 4.6-17.9 6.7l-1.8.6c-12.9 4.2-24.7 7.7-36.2 10.9-11.6 3.2-23 6-35 8.7"/><path class="st20" d="M344.7 86.8m15.8-7.2"/><path class="st12" d="M360.5 79.6c13.5-5.2 27.8-11.2 41.1-18.5l.1.2c-7.3 4-15.5 8-24 11.5-2.3 1-4.7 1.9-7.1 2.8l1.7-.6c-3.9 1.7-7.8 3.2-11.8 4.6m30.2-12.2c4.1-2 8.1-4 11.9-6.2l1.6-.8c-4.4 2.4-8.9 4.8-13.5 7m-121.7 45.1l-3.6.7 4.5-.9-.9.2"/><path class="st20" d="M265.4 113.2m139.1-42.8"/><path class="st12" d="M404.5 70.4l-5.9 2.9c2-.9 3.9-1.9 5.9-2.9m-5.9 2.9l-.8.4.8-.4"/><path class="st20" d="M400.1 24"/><path class="st12" d="M400.1 24c1.5.2 2.9.5 4.4.8-1.5-.2-3-.5-4.4-.8"/><path class="st20" d="M427.7 54.1"/><path class="st12" d="M427.7 54.1l-1.5 1.3c.6-.5 1-.9 1.5-1.3m-329.6 67.2c-3.3-.5-6.6-1.2-9.8-1.9 3.2.7 6.5 1.3 9.8 1.9"/><path class="st20" d="M265.4 113.2"/><path class="st12" d="M265.4 113.2l-7.2 1.2 7.2-1.2"/><path class="st20" d="M411.3 26.7m0 0"/><path class="st12" d="M411.3 26.7c2 .5 3.9 1.1 5.8 1.8-1.6-.6-3.2-1.1-4.9-1.5l-.9-.3m-19.3-3.8c2.7.3 5.4.7 8 1.1-1.8-.3-3.6-.5-5.3-.7l-2.7-.4"/><path class="st20" d="M400.1 24"/><path class="st12" d="M425.7 44.8c1.8-2.2 2.9-4.7 2.9-6.5v-1.8.9c.1 1 0 2.1-.5 3.4-.5 1.3-1.4 2.7-2.4 4"/><path class="st20" d="M400 24.3m0 0"/><path class="st12" d="M400 24.3c3.8.6 7.6 1.4 11.3 2.4 2 .5 3.9 1.1 5.8 1.8-1.6-.6-3.2-1.1-4.9-1.5 2.7.8 5.4 1.7 8 2.8 2.5 1.1 4.9 2.5 6.5 4.2.8.8 1.3 1.6 1.6 2.4l.1.3v.2l.1.3v1.9-.1c-.3 1.8-1.6 4.2-3.5 6.4-.3.4-.6.8-1 1.3 1.8-1.9 3.4-4 4.1-6 .4-1 .5-1.8.5-2.6v-.7c.1.3 0 .1 0 .1l-.1-.3c0-.2-.1-.2-.1-.3-.1-.3-.2-.7-.5-1.1l.3.6.1.3.1.2.1.3v1.2-.1-1.1s.1.2 0 .1v-.4l-.1-.4c-.1-.3-.2-.6-.4-.9.2.3.3.6.4.9.1.2.1.2.1.3v.6-.1-.2c.1.3 0 .1 0 .1v-.1l-.1-.3v-.1s-.1-.3-.2-.5c-.1-.4-.3-.8-.6-1.2-.5-.8-1.3-1.6-2.2-2.3-1.9-1.5-4.3-2.8-6.9-3.8 2.1.9 4 1.9 5.7 3-2.1-1.4-4.6-2.6-7.2-3.6l1.6.6c-2.3-1-4.8-1.8-7.3-2.5-3.6-.8-7.4-1.5-11.3-2.1m17.1 4.2l-1.6-.5 1.6.5m10.9 7.1"/><path class="st20" d="M412.1 27"/><path class="st3" d="M412.1 27c1.7.5 3.3 1 4.9 1.5-1.5-.6-3.2-1.1-4.9-1.5"/><path class="st20" d="M417 28.5m11.6 8.9"/><path class="st3" d="M428.6 37.4v.9-.9"/><path class="st20" d="M378.5 22m0 0"/><path class="st12" d="M378.5 22l4.5.3c2.1.1 4.2.3 6.3.5 6.3.6 12.5 1.5 18.6 2.9l3.4.9c-3.7-.9-7.5-1.6-11.3-2.2-7-1.2-14.2-1.9-21.5-2.4"/><path class="st20" d="M411.3 26.6m16.7 9"/><path class="st12" d="M428 35.6c.2.3.3.6.4.9.1.2.1.2.1.3v.6-.1-.2s.1.2 0 .1v-.4l-.1-.3c-.1-.3-.2-.6-.4-.9"/><path class="st20" d="M428.6 37.4"/><path class="st3" d="M428 35.6c.2.3.3.6.4.9.1.2.1.2.1.3v.7-.1-.2-.4l-.1-.3c-.1-.3-.2-.6-.4-.9"/><path class="st20" d="M428.6 37.4m-51.9-15.5"/><path class="st12" d="M376.7 21.9l3.6.2 2.7.2-4.5-.3-1.8-.1"/><path class="st20" d="M379.4 22m0 0"/><path class="st12" d="M379.4 22l.9.1-.9-.1m2.4.1c3.4.2 6.8.4 10.2.8-1.8-.2-3.6-.3-5.4-.4-1.6-.1-3.1-.2-4.8-.4"/><path class="st20" d="M383 22.3m45.6 15.1"/><path class="st3" d="M428.6 37.4v.9-.9"/><path class="st20" d="M428.6 37.4m-49.2-15.4"/><path class="st12" d="M379.4 22l2.4.1-2.4-.1m.9.1l1.6.1 4.8.3 2.7.3c-2.1-.2-4.2-.4-6.3-.5 2.1.1 4.2.3 6.3.5-2.1-.2-4.2-.4-6.3-.5l-2.8-.2"/><path class="st3" d="M379.4 22l2.4.1h-1.5l-.9-.1m2.4.1l4.8.3c-1.6 0-3.1-.1-4.8-.3"/><path class="st20" d="M389.3 22.8m0 0l-6.3-.5"/><path class="st3" d="M383 22.3c2.1.1 4.2.3 6.3.5-2.1-.2-4.1-.4-6.3-.5"/><path class="st20" d="M386.7 22.5m0 0"/><path class="st12" d="M386.7 22.5l5.4.4 2.7.3c-2.8-.2-5.4-.5-8.1-.7"/><path class="st20" d="M392 22.9m0 0"/><path class="st3" d="M392 22.9l2.7.4-2.7-.4m-5.3-.4l5.4.4-5.4-.4"/><path class="st20" d="M392 22.9m-5.3-.4"/><path class="st12" d="M386.7 22.5c2.7.2 5.4.5 8.1.8 1.5.2 3 .5 4.4.7-3-.5-5.9-.8-8.9-1.1l-.9-.1-2.7-.3"/><path class="st20" d="M394.7 23.3m4.5.7l-12.5-1.5"/><path class="st3" d="M386.7 22.5c2.7.2 5.4.5 8.1.8-2.8-.3-5.4-.6-8.1-.8"/><path class="st20" d="M394.7 23.3m0 0"/><path class="st3" d="M415.4 27.9l1.7.6-1.7-.6"/><path class="st20" d="M389.3 22.8m27.8 5.7"/><path class="st12" d="M417.1 28.5l1.6.6c2.1.9 4 1.8 5.7 3-2.2-1.5-4.7-2.7-7.3-3.6"/><path class="st3" d="M417.1 28.5l1.6.6c-.6-.3-1.1-.5-1.6-.6"/><path class="st20" d="M418.7 29"/><path class="st3" d="M418.7 29c2.1.9 4 1.9 5.7 3-1.7-1.1-3.7-2.1-5.7-3"/><path class="st20" d="M418.7 29m5.6 3l-16.4-6.3"/><path class="st12" d="M407.9 25.7c1.7.4 3.4.8 5.1 1.3l-1.7-.4c-1.1-.4-2.2-.6-3.4-.9"/><path class="st20" d="M389.3 22.8m0 0"/><path class="st12" d="M389.3 22.8l.9.1c6 .6 11.9 1.5 17.7 2.8-6-1.4-12.3-2.3-18.6-2.9"/><path class="st3" d="M389.3 22.8h1.8-.9-.9"/><path class="st0" d="M389.3 22.8h.9-.9"/><path class="st20" d="M407.9 25.7"/><path class="st12" d="M420 58.2c-3.8 2.7-7.8 5.1-11.9 7.3 4.6-2.5 9.1-5.3 13.4-8.4l-1.5 1.1"/><path class="st20" d="M408.2 65.5"/><path class="st12" d="M414.7 62c-3.7 2.2-7.6 4.2-11.4 6.2 5-2.5 9.8-5.2 14.5-8.2-1 .6-2 1.3-3.1 2"/><path class="st20" d="M403.3 68.1m3-.2"/><path class="st12" d="M406.3 67.9c-11.5 6.2-22.5 10.9-32.1 14.5 5.5-2.1 10.9-4.4 16.2-6.8l-.8.4c5.7-2.5 11.3-5.2 16.7-8.1"/><path class="st20" d="M390.5 75.6m0 0l-16.2 6.7 32-14.4"/><path class="st12" d="M406.3 67.9c-5.5 2.9-11.1 5.6-16.7 8.1l.8-.4c5.4-2.4 10.7-4.9 15.9-7.7"/><path class="st20" d="M406.3 67.9"/><path class="st3" d="M406.3 67.9c-5.5 2.9-11.1 5.6-16.7 8.1 5.7-2.5 11.3-5.2 16.7-8.1"/><path class="st20" d="M389.6 76"/><path class="st12" d="M411.6 64c-1.4.8-2.7 1.5-4.1 2.2 2.4-1.3 4.8-2.7 7.2-4.2-1 .6-2.1 1.3-3.1 2"/><path class="st20" d="M407.5 66.2m26.8-31.8"/><path class="st12" d="M434.3 34.4c.7 2 .8 4.3.3 6.3.4-2 .4-4.2-.3-6.3"/><path class="st17" d="M250.8 29.5l-4.5.9-6.3 1.4c9.9-1.8 19.9-3.5 31.7-5.3l-3.7.5c12.7-2 21.8-3 32.8-4.3-15.5 1.5-35.5 4.5-50 6.8m17.2-2.5"/><path class="st20" d="M271.7 26.5m29.1-3.8l19.2-2.3"/><path class="st12" d="M320 20.4l3.6-.3-3.6.3"/><path class="st20" d="M271.7 26.5"/><path class="st12" d="M271.7 26.5l5.4-.8-5.4.8"/><path class="st20" d="M314.5 20.9"/><path class="st12" d="M314.5 20.9l5.5-.5-5.5.5m119.6 15.7c.3 2-.1 4-.8 5.8-.7 1.8-1.8 3.4-3 4.9 1.2-1.5 2.2-3.1 2.9-4.9.7-1.8 1.1-3.8.9-5.8m.1 0c.3 2-.1 4-.9 5.8.7-1.8 1.1-3.8.9-5.8"/><path class="st20" d="M433.3 42.4m.7-7.9"/><path class="st12" d="M434 34.5c.5 1.6.7 3.5.4 5.1-.3 2-1.1 3.9-2.2 5.5-1 1.7-2.2 3.1-3.5 4.5 1.6-1.7 3-3.6 4.1-5.8 1.1-2.2 1.8-4.7 1.4-7.3 0-.3 0-.7-.1-1 0-.3 0-.7-.1-1"/><path class="st20" d="M428.7 49.6"/><path class="st12" d="M434 34.5c.5 1.7.7 3.5.4 5.1.3-1.6.1-3.5-.4-5.1"/><path class="st20" d="M434.4 39.6m-.7-6.1"/><path class="st12" d="M433.7 33.5c.2.6.4 1.1.6 1.8l.3 1.8c.1 1.2 0 2.4-.3 3.6-.6 2.3-1.7 4.3-3 6.1 1.5-2.1 2.7-4.5 3.1-7.2.3-1.7.2-3.5-.4-5.1l-.3-1"/><path class="st20" d="M431.2 46.8m2.8-10.2"/><path class="st17" d="M434 36.6c.3 2-.1 4-.8 5.8-.7 1.8-1.7 3.4-2.9 4.9 1.2-1.5 2.2-3.1 3-4.9-1 2.5-2.6 4.8-4.4 6.8-1.8 2.1-3.9 4-6.1 5.7-4.3 3.5-9 6.5-13.4 9 4.7-2.8 9.2-5.8 13.4-9.2 1.8-1.5 3.5-3.1 5.1-4.8 1.6-1.7 3.1-3.6 4.2-5.7s1.9-4.5 1.7-7c0-.6-.2-1.2-.3-1.8-.2-.6-.4-1.2-.7-1.7-.5-1.1-1.3-2.1-2.1-3 1.7 1.5 2.9 3.6 3.3 5.9"/><path class="st9" d="M434 36.6c.3 2-.1 4-.8 5.8-.7 1.8-1.7 3.4-2.9 4.9 1.2-1.5 2.2-3.1 2.9-4.9.7-1.8 1.1-3.8.8-5.8"/><path class="st20" d="M430.3 47.3m3-4.9"/><path class="st12" d="M427.1 27.7c1.5 1 2.9 2.1 4 3.5 1.2 1.4 2.1 3.1 2.4 4.9.4 1.8.1 3.7-.5 5.5-.6 1.7-1.5 3.3-2.5 4.7-2 2.8-4.5 5.1-6.9 7.1-2.4 2-4.8 3.6-6.9 5 .8-.6 1.6-1.2 2.4-1.7 3.8-2.8 7.2-5.7 9.9-8.9 1.3-1.6 2.5-3.3 3.3-5.2.8-1.9 1.2-4 .9-6-.3-2.1-1.3-4-2.7-5.5-1.4-1.6-3.1-2.8-5-3.9-3.7-2.2-8-3.7-12.7-4.9l-1.5-.4c2.2.6 4.8 1.3 7.4 2.3 2.6 1 5.4 2.2 7.9 3.9 2.5 1.6 4.7 3.8 5.7 6.5 1 2.6.6 5.4-.3 7.4.7-1.7 1-3.5.8-5.3-.2-1.8-1-3.4-2.1-4.8-2.2-2.8-5.4-4.7-8.5-6.2-6.4-2.9-13.2-4.5-20-5.7 4.2.7 8.5 1.5 12.6 2.6 4.5 1.3 8.6 2.8 12.3 5.1"/><path class="st20" d="M432.3 42.1m-2.7 4.7"/><path class="st12" d="M429.6 46.8c-2 2.5-4.4 4.7-6.9 6.7s-5.1 3.8-7.8 5.5c2.3-1.5 4.5-3 6.7-4.7 2.9-2.3 5.7-4.7 8-7.5m-37.2 24.2l-2.5 1.1-.9.3 3.4-1.4m14.7-7.4l-4 2.1c-3.5 1.8-7.1 3.5-10.7 5.2l-2.5 1.1c5.8-2.5 11.6-5.3 17.2-8.4m-4 2.2c-3.5 1.8-7.1 3.5-10.7 5.2 3.6-1.7 7.1-3.4 10.7-5.2"/><path class="st20" d="M389.9 72.1m31.7-17.9"/><path class="st12" d="M421.6 54.2c-2.1 1.7-4.4 3.2-6.7 4.7-3.8 2.5-7.8 4.7-11.9 6.8-3.5 1.8-7.1 3.5-10.7 5.2l-3.3 1.5.8-.3c-5.3 2.3-10.7 4.4-16.1 6.4 6.2-2.5 12.4-5.1 18.5-7.9 9.2-4 20.7-9.8 29.4-16.4"/><path class="st3" d="M421.6 54.2c-2.1 1.7-4.4 3.2-6.7 4.7 2.3-1.4 4.6-3 6.7-4.7"/><path class="st20" d="M414.9 58.9m-22.5 12.1"/><path class="st3" d="M392.4 71l-3.4 1.4 3.4-1.4"/><path class="st20" d="M389 72.4"/><path class="st3" d="M403.1 65.8c-3.5 1.8-7.1 3.5-10.7 5.2 3.6-1.7 7.1-3.4 10.7-5.2"/><path class="st20" d="M389.9 72.1m13.2-6.3"/><path class="st3" d="M403.1 65.8c-3.5 1.8-7.1 3.5-10.7 5.2 3.6-1.7 7.1-3.4 10.7-5.2"/><path class="st20" d="M387.2 72.7m0 0"/><path class="st12" d="M387.2 72.7c-9.2 4-17.8 7.2-24.7 9.6 6.9-2.5 13.6-5.2 20.3-8.2l-2.5 1.2c2.3-.8 4.6-1.7 6.9-2.6"/><path class="st20" d="M187.4 127m0 0"/><path class="st12" d="M187.4 127l-8.2.6 2.7-.3 5.5-.3"/><path class="st10" d="M163.4 47.8c17.9-4.5 32.4-7.3 44.2-9.1-8.9 2.1-17.9 4.3-26.7 6.8-14.4 3.8-28.6 8.1-39.2 11.5-10.6 3.4-17.6 5.7-17.6 5.2 0-.1.6-.5 1.8-1.1 13-5.1 26.1-9.6 37.5-13.3"/><path class="st20" d="M207.6 38.7"/><path class="st12" d="M64.6 96.1c.9-1 1.8-2 2.7-2.9-2.3 2.5-3.5 4.2-4.8 6.5-.6 1.2-1.3 2.6-1.8 4.7-.4 2-.7 4.9.8 8.1l-.5-1c-.2-.4-.4-1.1-.5-1.5-.3-1.3-.5-2.8-.2-4.4.3-3.3 2.2-6.7 4.3-9.5"/><path class="st20" d="M93.6 74.9"/><path class="st15" d="M93.6 74.9c6.8-3.1 15.8-7.2 25.3-11l7.1-2.9c-1.2.6-1.8 1-1.8 1.1 0 .5 7-1.9 17.6-5.2 10.6-3.4 24.9-7.6 39.2-11.5-22 6-43.7 13-64.8 21.7-7 2.9-14 6.1-20.7 9.5-4.9 2.5-9.7 5.2-14.4 8.3-4.6 3-9.1 6.4-13 10.4-1.9 2-3.6 4.3-4.8 6.9-.6 1.3-1 2.7-1.1 4.2-.1 1.5 0 3 .6 4.4 1 2.8 3.2 5 5.5 6.6 2.3 1.6 4.9 2.8 7.5 3.8-.8-.4-1.7-.8-2.5-1.3-2.4-1.1-4.8-2.5-6.8-4.3-1-.9-1.9-2-2.6-3.2-.7-1.2-1.2-2.5-1.3-3.9-.3-2.7.5-5.4 1.8-7.6 1.3-2.3 3-4.3 4.8-6.1 1.1-1.2 2.3-2.2 3.5-3.3 3.7-3.1 7.6-5.7 11.5-8.2 4-2.4 8-4.6 11.9-6.6 8-4 15.8-7.4 23.2-10.3-11.4 4.8-23 10.1-33.9 16.7-3.6 2.2-7.2 4.5-10.5 7.1-3.3 2.6-6.5 5.5-8.9 8.9-1.8 2.5-3.3 5.5-3.1 8.7.1 1.6.5 3.1 1.3 4.5.8 1.3 1.9 2.5 3 3.5 2.4 2 5.1 3.4 7.9 4.6 2.8 1.2 5.7 2.1 8.5 2.8 5.7 1.5 11.4 2.5 17 3.2 5.5.7 10.9 1.2 16 1.5 7.4.5 18.4.6 29.5.3-5.2.2-10.4.3-15.6.2l-1.9.2c7.1.2 14.1.2 21.2.1l-5.5.2c-6.8.2-13.5.2-20.3 0-6.2-.1-12.3-.5-18.5-1-3.8-.4-7.6-.8-11.4-1.4-5.9-.9-12-2.1-18-4.2-3-1.1-6-2.4-8.8-4.4-1.4-1-2.7-2.2-3.9-3.7-.6-.7-1.1-1.6-1.4-2.5-.2-.5-.4-.9-.5-1.4-.1-.3-.1-.5-.2-.7v-.4l-.1-.4.1.6.1.5c.1.4.2.8.4 1.2.3.7.6 1.4 1 2.1.8 1.3 1.8 2.4 2.8 3.4 2.2 1.9 4.6 3.3 7.1 4.5 2.4 1.2 3.7 1.6 3.9 1.8.2.2-.7-.1-2.5-.7-1.7-.6-4.3-1.7-7.1-3.5-1.4-1-2.8-2.2-4.1-3.8-.6-.8-1.2-1.7-1.7-2.7-.2-.5-.4-1-.6-1.6l-.1-.5-.1-.3v-.2l-.1-.3-.1-.4c-.4-2.3 0-4.5.6-6.5.7-2 1.6-3.7 2.6-5.1.4-.6.8-1.1 1.3-1.6-2.1 2.8-4 6.1-4.4 9.5-.2 1.7-.1 3.2.2 4.4.1.4.3 1.1.5 1.5l.5 1c-1.5-3.2-1.2-6-.8-8.1.5-2 1.2-3.5 1.8-4.7 1.3-2.4 2.5-4 4.8-6.5 1-.9 2-1.7 3-2.4 3.4-2.9 7.1-5.4 10.8-7.6-2.6 2 .7-.2 4.7-2.4 3.9-2.2 8.5-4.5 7.8-3.9 6.6-3.4 13.3-6.4 20.2-9.2 3.6-1.7 7.3-3.3 11-4.9-7.8 2.8-15.8 6-21.6 8.5-6.1 2.8-9.9 4.5-9.6 4"/><path class="st4" d="M124.1 62.2c0 .5 7-1.9 17.6-5.2 10.6-3.4 24.9-7.6 39.2-11.5-14.4 3.8-28.6 8.1-39.2 11.5-10.6 3.3-17.6 5.7-17.6 5.2"/><path class="st6" d="M67.3 93.2c-2.3 2.5-3.5 4.2-4.8 6.5-.6 1.2-1.3 2.6-1.8 4.7-.4 2-.7 4.9.8 8.1-1.5-3.2-1.2-6-.8-8.1.5-2.1 1.2-3.5 1.8-4.7 1.3-2.3 2.5-4 4.8-6.5"/><path class="st20" d="M63.3 97.7m4-4.5l58.7-32.1 23.7 67.8 12.9-.4"/><path class="st12" d="M162.6 128.5c-4.3.2-8.6.3-12.9.4l-5.5.2c-6.8.2-13.5.2-20.3 0h-.9c5.8.2 11.7.2 17.5.2-6.5.2-12.9.2-19.4 0 7.4.4 16.6.4 25.8 0 5.3-.2 10.5-.4 15.7-.8m-18.4.6c-6.8.2-13.5.2-20.3 0 6.7.2 13.5.2 20.3 0m0 0"/><path class="st20" d="M144.2 129.1"/><path class="st3" d="M144.2 129.1c-6.8.2-13.5.2-20.3 0 6.7.2 13.5.2 20.3 0"/><path class="st12" d="M66.5 93.8l.8-.6c-.9.9-1.8 1.9-2.7 2.9l1.9-2.3"/><path class="st20" d="M67.3 93.2m78.4-34.4"/><path class="st12" d="M145.7 58.8l.9-.1-.9.1"/><path class="st21" d="M57.9 102.7c.7-2 1.5-3.6 2.3-4.8.8-1.3 1.6-2.2 2.3-3.1 1.4-1.6 2.5-2.6 3.3-3.3 1.6-1.3 2-1.3 1.8-.8-.4.9-2.6 4-1.2 3.2-.7.7-1.3 1.5-1.9 2.3-.4.5-.8 1-1.3 1.6-1 1.5-2 3.2-2.6 5.1-.7 2-1 4.2-.6 6.5l.1.4.1.3v.2l.1.3.1.5c.2.6.4 1.1.6 1.6.5 1 1.1 1.9 1.7 2.7 1.3 1.6 2.7 2.8 4.1 3.8 2.8 1.9 5.3 2.9 7.1 3.5 1.7.6 2.7.8 2.5.7-.2-.2-1.4-.6-3.9-1.8-2.5-1.2-4.9-2.5-7.1-4.5-1.1-1-2.1-2.1-2.8-3.4-.4-.7-.7-1.3-1-2.1-.1-.3-.2-.8-.4-1.2l-.1-.5-.1-.6.1.4v.4c0 .2.1.4.2.7.1.5.3.9.5 1.4.4.9.9 1.7 1.4 2.5 1.1 1.5 2.5 2.7 3.9 3.7 2.8 2 5.8 3.3 8.8 4.4 6 2.1 12 3.3 18 4.2 3.8.6 7.6 1 11.4 1.4 6.1.6 12.3.9 18.5 1h-.9c-5.5-.2-11.1-.4-16.6-.9 9.2 1.1 22.2 1.4 34.1 1.1-6.5.2-12.9.2-19.4 0 7.4.4 16.6.4 25.8 0l-2.8.2c3.7.1 7.4.1 11.1 0-7.1.3-14.2.4-21.2.3l-7.4.3c7.4.5 16.7 1 31.5.5-9.7.4-18.3.4-27.8.2-4.8-.1-9.7-.3-15.2-.6-5.5-.4-11.4-.8-18.2-1.7h-1.9l-5.5-1c3.2.8 8.3 1.7 13.3 2.4 5 .6 9.9 1.1 12.6 1.4-5.6-.4-11.2-.9-16.7-1.7.5.2 2.8.6 5.3 1l6.7.9c-6.9-.6-10.8-1.4-15-2.2-2.1-.4-4.3-.9-6.9-1.5-2.6-.6-5.8-1.3-9.7-2.5l-.7-.2-1.1-.4c-3.5-1.2-6.6-2.5-9.2-4.1-2.6-1.5-4.7-3.3-6.1-5.3-.7-1-1.3-2-1.7-2.9-.2-.5-.4-.9-.5-1.5l-.2-.6v-.4l-.1-.3c-.3-1.6-.3-2.7-.4-3.4 0-.7 0-1-.2-.9-.1.1-.3.6-.4 1.5-.1.9-.2 2.2 0 3.8.3 1.6.9 3.5 2.1 5.3-1.5-2.1-2.5-5-2.6-7.8-.1-1.9.1-3.3.3-4.3.2-1 .4-1.6.5-2 .2-.8.1-.7-.1-.2-.4.5-1.1 2.7-.7.8"/><path class="st11" d="M76.4 123.2c-.2-.2-1.4-.6-3.9-1.8-2.5-1.2-4.9-2.5-7.1-4.5-1.1-1-2.1-2.1-2.8-3.4-.4-.7-.7-1.4-1-2.1-.1-.4-.2-.8-.4-1.2l-.1-.5-.1-.6.1.6.1.5c.1.4.2.8.4 1.2.3.7.6 1.4 1 2.1.8 1.3 1.8 2.4 2.8 3.4 2.1 1.9 4.6 3.3 7.1 4.5 2.5 1.2 3.7 1.6 3.9 1.8m-15.3-14.1l.1.4v.4c0 .2.1.4.2.7.1.5.3 1 .5 1.4.4.9.9 1.7 1.4 2.5 1.1 1.5 2.5 2.7 3.9 3.7 2.8 2 5.8 3.3 8.8 4.4 6 2.1 12 3.3 18 4.2-5.9-.9-12-2.1-18-4.2-3-1.1-6-2.4-8.8-4.4-1.4-1-2.7-2.2-3.9-3.7-.6-.7-1.1-1.6-1.4-2.5-.2-.5-.4-.9-.5-1.4-.1-.3-.1-.5-.2-.7v-.4l-.1-.4"/><path class="st7" d="M140.5 129.3c-6.5.2-12.9.2-19.4 0 6.5.2 12.9.2 19.4 0"/><path class="st20" d="M121.1 129.3"/><path class="st7" d="M122.9 129.1h1-1"/><path class="st20" d="M60.5 115.9m50.3 15.4l47.3-.6-42.7.6-37-6.3 16.7 3.5 60.2 1.1-14.8-.3-17.6-.2 53.4-2.6"/><path class="st21" d="M176.3 126.5l3.6-.4 4.6-.6-5.5.5 5.5-.5.9-.3c-4.3.3-8.6.7-12.8.9l7.3-.6c-3.7.3-7.3.5-11 .7 4.6-.3 9.2-.7 13.7-1.1v-.1l-4.6.3c-11 .9-22.9 1.7-33 1.9 4.7-.2 9.4-.5 14.1-.8 10-.6 20.2-1.5 30.7-2.6l3.6-.5c-13.7 1.5-29.3 2.7-39.4 2.8l3-.2c9.5-.6 17.5-1.1 25.6-1.8 8.1-.7 16.1-1.5 25.7-2.9l1.5-.2c-9.1 1.1-23.7 2.6-32.9 3.2 14.6-1.2 28.3-2.6 42-4.4l1.8-.3c18.2-2.7 34.4-5.7 50.6-9-6.9 1.4-13.8 2.7-20.8 3.9 6.9-1.2 13.9-2.5 20.8-3.9 26.1-5.5 50.2-11.5 74.7-19.3-6.5 2-13 3.8-19.5 5.5 12.3-3.9 26.3-8.4 37.4-12.6-18.2 6.5-34.1 11-51.8 15.8 17.7-4.7 33.6-9.3 51.8-15.8l3.4-1.3c-7.4 2.6-15.9 5.4-24.4 8-8.5 2.6-17.2 5.1-24.7 7 10.6-2.9 19.5-5.3 31.7-9.4l-3.5 1.1-5.2 1.7 5.2-1.7c11.3-3.7 20.9-7 30.3-10.7 10.1-4.5 21.7-10 32.7-16.6 1.8-1.1 3.6-2.2 5.4-3.4-3.8 2.5-7.8 4.7-11.9 6.8l4-2.1c-5.6 3.1-11.4 5.9-17.2 8.4-5.3 2.3-10.7 4.4-16.1 6.4 6.2-2.5 12.4-5.1 18.5-7.9-1.7.7-3.4 1.4-5 2.1-9.2 4-17.8 7.2-24.7 9.6 6.9-2.5 13.6-5.2 20.3-8.2 3.9-1.8 7.7-3.7 11.5-5.6l-1.8.4c-7.1 3-18.7 7.8-33 13l-2.6.9 1 .1-4.4 1.3c-2.6 1-5.1 2-7.7 2.9l-7.8 2.5c-4.3 1.6-9.9 3.4-16.1 5.2-6.2 1.8-12.8 3.5-19 5.1l5.3-1.3c-2.8.9-6.2 1.9-9.8 2.8-5.4 1.4-11.2 2.6-16 3.7-3.6.7-7.1 1.5-10.7 2.1l-1 .2.4-.1-.4.1c-5.1 1.1-10.2 2.1-15.2 3.1l-8.1 1.4-4.5.7 4.5-.7 5.4-1-4.5.7 9-1.6c-6 1.1-12 2.1-18 3.1l-6.3 1 1.8-.3-8.1 1.2c-5.7.8-11.5 1.6-17.2 2.3-3.9.6-7.8 1.1-11.8 1.6 3.3-.5 6.6-.9 10-1.4l5.4-.8c-6 .8-12.1 1.6-18.1 2.3l.9-.2c-7.3.8-16.3 1.7-25.4 2.5l-.9.1c-5.1.5-10.3.8-15.4 1.2 4.5-.3 9.1-.7 13.6-1.1l-.9-.2c-8.7.7-18.1 1.3-27.5 1.6-2.3.1-4.6.1-7 .1h1.8c-4.5 0-9.1 0-13.6-.1-7.7-.1-15.1-.5-22.3-1.3l6 .9c-2-.2-4-.5-6-.9-6.4-.7-12.6-1.8-18.2-3.4-2.8-.8-5.4-1.8-7.7-3.1-2.3-1.2-4.1-2.8-5.1-4.4l-.6-1.2v-.2l-.1-.2v-.1.1l-.1-.6c-.1-.9 0-1.8.3-2.8.5-1.9 1.7-3.9 3.1-5.7 2.8-3.6 6.3-6.6 9.6-9.2-2.5 1.9-4.9 3.8-7.1 5.9-2.1 2.1-4 4.4-5.2 6.7-1.2 2.4-1.6 4.7-.9 6.5.6 1.9 2.3 3.6 4.3 4.9 3 2 6.7 3.4 10.4 4.5 3.8 1.1 7.8 1.9 11.8 2.5 8.1 1.3 16.4 1.9 24.9 2.2l5.6.2c-6.4 0-12.7-.2-19-.6l.9.1-4.5-.3 3.6.2c-7.2-.7-13.9-1.6-20.1-3.2-3.1-.8-6.1-1.7-8.8-2.8-2.7-1.2-5.3-2.6-7.1-4.4-1.8-1.8-2.7-3.9-2.5-6.2.2-2.3 1.6-4.8 3.3-7.1 3.6-4.5 8.6-8.4 14-11.9-1.2.8-2.4 1.7-3.6 2.6 6.1-4.5 12.8-8.3 19.7-11.8 6.9-3.5 13.9-6.7 21.1-9.7 5.3-2.4 10.6-4.7 16-6.9-4.6 1.6-9.2 3.4-13.7 5.2 2.5-1.1 5.1-2.1 7.6-3.1 1.1-.5 5.5-2.2 5.9-2.4.3-.1-1.1.3-6.1 2.1-2.5.9-5.8 2.2-10.3 4-4.4 1.8-10 4.1-16.7 7.3-4.7 2.2-9.3 4.6-13.8 7.2 7.5-4.4 14.9-8 21.9-11.2 7-3.2 13.5-6 19.5-8.4-3.8 1.3-7.5 2.7-11.2 4.1-11.3 4.8-23 10.1-33.9 16.7-3.6 2.2-7.2 4.5-10.5 7.1-3.3 2.6-6.5 5.5-8.9 8.9-1.8 2.5-3.3 5.5-3.1 8.7.1 1.6.5 3.1 1.3 4.5s1.9 2.5 3 3.5c2.4 2 5.1 3.4 7.9 4.6 2.8 1.2 5.7 2.1 8.5 2.8 5.7 1.5 11.4 2.4 17 3.2 5.5.7 10.9 1.2 16 1.5 7.4.5 18.4.6 29.5.3l1.8-.1-5.5.1c2.8 0 5.5-.1 8.3-.2-4.3.1-8.6.1-12.9 0 5.5 0 11-.1 16.6-.2l2.8-.2c-4.6.2-9.2.3-13.8.4 5.2-.1 10.4-.2 15.6-.5l3.7-.4c4.4-.5 9-.7 13.6-1m128.9-24.7c13.4-3.3 25-6.2 41.6-11.6-16.6 5.4-28.2 8.3-41.6 11.6l-5.3 1.3-3.6.9 3.6-.9 5.3-1.3-.9.3c-4.8 1.2-9.5 2.4-14.3 3.5 4.8-1.1 9.5-2.3 14.3-3.5l.9-.3m-74.5 16c12.7-2.1 20.9-3.2 32.6-5.6-11.7 2.3-19.9 3.4-32.6 5.6m-10.8 1.7l-.9.1-9.1 1.3 9.1-1.3.9-.1c10.9-1.6 19.1-2.8 29.9-4.7-10.9 1.9-19 3.1-29.9 4.7m75.6-15.1l-5.3 1.4 5.3-1.4m-225.3-8.3c2.7-2.8 5.8-5.3 8.9-7.6 3.2-2.3 6.5-4.4 10-6.4-3.4 2-6.8 4.1-10 6.4-3.2 2.3-6.2 4.8-8.9 7.6m0 0c2.7-2.8 5.8-5.3 8.9-7.6 3.2-2.3 6.5-4.4 10-6.4-3.4 2-6.8 4.1-10 6.4-3.2 2.3-6.2 4.8-8.9 7.6m0 0c-.8.8-1.6 1.7-2.3 2.7-.7.9-1.4 1.9-1.9 2.9-.6 1-1 2-1.4 3.1-.3 1-.4 2-.4 3v.3c0 .2 0 .5.1.7 0 .1 0 .3.1.3l.1.4c.1.4.3.9.5 1.4.5 1 1.1 1.8 1.9 2.6.8.8 1.6 1.5 2.6 2.2 1 .7 2 1.2 3 1.7 1.1.5 2.1 1 3.2 1.4l2.5.9c1.1.4 2.3.7 3.4 1l3.5.9c1.2.3 2.4.5 3.5.7l2.7.5c1.2.2 2.4.4 3.6.5l2.7.3c-6.9-.9-13.3-2-19.1-3.9-2.9-.9-5.7-2.1-8.1-3.5-2.4-1.5-4.5-3.4-5.5-5.7l-.2-.5s-.1-.3-.2-.5l-.1-.4-.1-.4c-.2-1.2-.1-2.5.3-3.8l.3-.9c.4-1 .9-2.1 1.5-3 .3-.5.7-1.1 1.1-1.6.8-1.2 1.7-2.3 2.7-3.3m52.1-29.2l-4.5 1.8-3.1 1.3-3.4 1.5-3.3 1.5-4.1 1.9-2 1-5.3 2.7h-.1l-3.2 1.7 3.2-1.7-3.2 1.7 3.2-1.7-3.2 1.8c1.3-.7 2.7-1.5 4.2-2.2l2.3-1.2 4.1-2 1.3-.6 3.9-1.8 2.3-1 2.4-1.1c2.9-1.2 5.8-2.5 8.5-3.6m235.5 16l3.5-1.1-3.5 1.1"/><path class="st16" d="M70.2 96.1c-1.6 1.7-3.1 3.5-4.2 5.5s-1.9 4.1-1.8 6.2c0-1 .1-2 .4-3 .3-1.1.8-2.1 1.4-3.1.6-1 1.2-2 1.9-2.9.7-1 1.5-1.9 2.3-2.7m-2.7 3.2c-.4.5-.8 1.1-1.1 1.6-.6 1-1.1 2-1.5 3l-.3.9c.5-1.9 1.6-3.8 2.9-5.5m-3.3 8.7c.2 3.1 2.4 5.8 5.2 7.6 2.8 1.9 6 3.2 9.2 4.2 6.4 2 13 3 19 3.7l-2.7-.3-3.6-.5-2.7-.5c-1.2-.2-2.4-.5-3.5-.7s-2.3-.5-3.5-.9c-1.2-.3-2.3-.6-3.4-1-.9-.3-1.7-.6-2.5-.9-1.1-.4-2.2-.9-3.2-1.4-1.1-.5-2.1-1.1-3-1.7-.9-.6-1.8-1.4-2.6-2.2-.8-.8-1.4-1.7-1.9-2.6-.2-.4-.4-.9-.5-1.4l-.1-.4c0-.1 0-.2-.1-.3-.1-.2-.1-.4-.1-.7m.1.6l.1.4.1.4.2.5s.1.3.2.5l-.3-.9-.1-.5-.2-.4"/><path class="st13" d="M270.7 107.3l.4-.1.6-.1-1 .2"/><path class="st20" d="M104.1 122.1"/><path class="st7" d="M104.1 122.1c-2-.2-4-.5-6-.9 2 .4 4 .7 6 .9"/><path class="st20" d="M407.1 63.6m0 0"/><path class="st7" d="M407.1 63.6l-4 2.1c1.3-.6 2.7-1.3 4-2.1m-14.9 7c-6.1 2.8-12.2 5.4-18.5 7.9 6.3-2.5 12.4-5.1 18.5-7.9"/><path class="st20" d="M373.7 78.5"/><path class="st7" d="M362.4 82.3c6.9-2.5 13.6-5.2 20.3-8.2-6.6 2.9-13.4 5.6-20.3 8.2"/><path class="st8" d="M70.2 96.1c-.8.8-1.6 1.7-2.3 2.7-.7.9-1.4 1.9-1.9 2.9-.6 1-1 2-1.4 3.1-.3 1-.4 2-.4 3 0-1 .1-2 .4-3 .3-1.1.8-2.1 1.4-3.1.6-1 1.2-2 1.9-2.9.7-1 1.5-1.9 2.3-2.7m-2.7 3.2c-.4.5-.8 1.1-1.1 1.6-.6 1-1.1 2-1.5 3l-.3.9.3-.9c.4-1 .9-2.1 1.5-3 .3-.6.7-1.1 1.1-1.6m-3.3 8.7c0 .2 0 .5.1.7 0 .1 0 .3.1.3l.1.4c.1.4.3.9.5 1.4.5 1 1.1 1.8 1.9 2.6.8.8 1.6 1.5 2.6 2.2 1 .7 2 1.2 3 1.7 1.1.5 2.1 1 3.2 1.4l2.5.9c1.1.4 2.3.7 3.4 1l3.5.9c1.2.3 2.4.5 3.5.7l2.7.5c1.2.2 2.4.4 3.6.5l2.7.3-2.7-.3-3.6-.5-2.7-.5c-1.2-.2-2.4-.5-3.5-.7-1.2-.3-2.3-.5-3.5-.9-1.2-.3-2.3-.6-3.4-1-.9-.3-1.7-.6-2.5-.9-1.1-.4-2.2-.9-3.2-1.4-1-.5-2.1-1.1-3-1.7-.9-.6-1.8-1.4-2.6-2.2-.8-.8-1.4-1.7-1.9-2.6-.2-.4-.4-.9-.5-1.4l-.1-.4c0-.1 0-.2-.1-.3-.1-.2-.1-.4-.1-.7m.1.6l.1.4.1.4.2.5s.1.3.2.5l-.2-.5s-.1-.3-.2-.5l-.1-.4-.1-.4m24.8-26.5c-3.4 2-6.8 4.1-10 6.4-3.2 2.3-6.3 4.8-8.9 7.6 2.7-2.8 5.8-5.3 8.9-7.6 3.2-2.3 6.6-4.4 10-6.4m0 0c-3.4 2-6.8 4.1-10 6.4-3.2 2.3-6.3 4.8-8.9 7.6 2.7-2.8 5.8-5.3 8.9-7.6 3.2-2.3 6.6-4.4 10-6.4"/><path class="st20" d="M146 128.3"/><path class="st11" d="M146 128.3c-11 .4-22.1.2-29.5-.3-5.1-.3-10.5-.8-16-1.5s-11.2-1.7-17-3.2c-2.9-.8-5.7-1.7-8.5-2.8-2.8-1.2-5.5-2.6-7.9-4.6-1.2-1-2.2-2.2-3-3.5-.8-1.3-1.3-2.9-1.3-4.5-.1-3.2 1.3-6.2 3.1-8.7-1.8 2.5-3.3 5.5-3.1 8.7.1 1.6.5 3.1 1.3 4.5s1.9 2.5 3 3.5c2.4 2 5.1 3.4 7.9 4.6 2.8 1.2 5.7 2.1 8.5 2.8 5.7 1.5 11.4 2.5 17 3.2 5.5.7 10.9 1.2 16 1.5 7.4.6 18.4.7 29.5.3m-26.8-61.7c-11.3 4.8-23 10.1-33.9 16.7 11-6.6 22.6-12 33.9-16.7"/><path class="st20" d="M147.8 128.3m0 0l2.8-.2 3.6-.2 30.3-2.5 161.7-34.1-187.4 36.2 21.1-2 2.7-.4 88.8-14.5 92.7-26.4-174.2 39.6-70.7-57.2 257.6 12.3-168.4 42.4 95.9-19.2 45.8-13.6 53-22.7-300.3 9.1"/><path class="st16" d="M111.4 71.5l3.4-1.5c-4.2 1.8-8.5 3.8-12.8 5.9l2-1 4-1.9 3.4-1.5m2.4-1l-2.4 1.1-2.3 1 4.7-2.1m-8.6 3.9l-1.3.6-4.1 2-2.3 1.2c2.5-1.3 5-2.6 7.7-3.8"/><path class="st20" d="M392.2 70.6"/><path class="st16" d="M96.6 78.6v.1-.1"/><path class="st20" d="M79.3 90.2m223.5 9.6l-50 11 4.4-.9-125.1 12.7"/><path class="st12" d="M143.1 59.6l-1.8.7 1.8-.7"/><path class="st10" d="M136 61.8c21.6-7.6 42.8-13.5 65-18.9-4.4 1.2-8.8 2.5-13.2 3.8l1.8-.5c-3 .8-6.7 1.8-10.8 2.9l-6.3 1.8c-6.5 1.9-13.3 4-18.9 5.7l-7 2.1-.9.1 5.2-1.9c-2.6.9-5.2 1.8-7.8 2.8l-1.7.6c-7.2 2.6-14.3 5.4-21.3 8.4 5.2-2.4 10.6-4.7 15.9-6.9"/><path class="st5" d="M178.9 49c4.1-1.1 7.8-2.1 10.8-2.9-3 .8-6.7 1.8-10.8 2.9l-6.3 1.8 6.3-1.8m10.7-2.9l-1.7.5 1.7-.5"/><path class="st1" d="M145.7 58.8l.9-.2v.1l-.9.1"/><path class="st5" d="M136 61.8c-5.4 2.2-10.7 4.5-16 6.9 5.3-2.4 10.7-4.7 16-6.9"/><path class="st10" d="M139.1 58.8c13-4.6 29.6-9.5 43.7-13.2-5.7 1.8-13.6 4.3-21.9 7.1-8.4 2.8-17.2 6-24.9 9-4.6 1.6-9.2 3.4-13.7 5.2 2.5-1.1 5.1-2.1 7.6-3.1 1.1-.5 5.5-2.2 5.9-2.4.3-.1-1.1.3-6.1 2.1-2.5.9-5.8 2.2-10.3 4-4.4 1.8-10 4.1-16.7 7.3-4.7 2.2-9.3 4.6-13.8 7.2 7.5-4.4 14.9-8 21.9-11.2 7-3.2 13.5-6 19.5-8.4-3.8 1.3-7.5 2.7-11.2 4.1l6.8-2.8c2.7-1.1 5.9-2.3 9.5-3.6l3.7-1.3"/><path class="st5" d="M130.4 62.4c-5.9 2.4-12.5 5.2-19.5 8.4s-14.4 6.8-21.9 11.2c7.5-4.4 14.9-8 21.9-11.2 7-3.2 13.6-5.9 19.5-8.4m5.5-1c-.4.2-4.8 1.9-5.9 2.4-2.6 1-5.1 2-7.6 3.1 2.5-1.1 5.1-2.1 7.6-3.1 1.1-.5 5.5-2.2 5.9-2.4"/><path class="st20" d="M95.4 76.7"/><path class="st14" d="M95.4 76.7c6.8-3.5 13.7-6.6 20.7-9.5 21.1-8.7 42.8-15.7 64.8-21.7 6.7-1.8 13.3-3.5 20-5.1l6.7-1.6c7.3-1.1 13.7-1.8 18.3-2.1-8.3 2-16.6 4.1-24.9 6.3-22.2 5.4-43.5 11.3-65 18.9 7.7-3 16.5-6.2 24.9-9 8.4-2.8 16.2-5.3 21.9-7.1-14.1 3.6-30.8 8.6-43.7 13.2l-3.7 1.3c-3.6 1.3-6.8 2.5-9.4 3.6-2.3.9-4.5 1.8-6.8 2.8-7.4 2.9-15.2 6.2-23.2 10.3-4 2-8 4.2-12 6.6-3.9 2.4-7.9 5.1-11.5 8.2-1.2 1-2.4 2.1-3.5 3.2-1.8 1.8-3.5 3.8-4.8 6.1-1.3 2.3-2.1 4.9-1.8 7.6.2 1.4.6 2.7 1.3 3.9.7 1.2 1.6 2.2 2.6 3.1 2 1.8 4.4 3.2 6.8 4.3.8.5 1.6.9 2.5 1.3-2.6-1-5.2-2.2-7.5-3.8-2.3-1.6-4.5-3.8-5.5-6.6-.5-1.4-.7-2.9-.6-4.4.1-1.5.6-2.9 1.1-4.2 1.2-2.6 2.9-4.9 4.8-6.9 4.1-4.1 8.5-7.4 13.1-10.4 4.7-3 9.5-5.8 14.4-8.3"/><path class="st20" d="M180.9 45.5m26.7-6.8"/><path class="st7" d="M95.4 76.7c-4.9 2.5-9.7 5.2-14.4 8.3-4.6 3-9.1 6.4-13 10.4-1.9 2-3.6 4.3-4.8 6.9-.6 1.3-1 2.7-1.1 4.2-.1 1.5 0 3 .6 4.4 1 2.8 3.2 5 5.5 6.6 2.3 1.6 4.9 2.8 7.5 3.8-2.6-1-5.2-2.2-7.5-3.8-2.3-1.6-4.5-3.8-5.5-6.6-.5-1.4-.7-2.9-.6-4.4.1-1.5.6-2.9 1.1-4.2 1.2-2.6 2.9-4.9 4.8-6.9 3.9-4.1 8.3-7.4 13-10.4 4.7-3 9.5-5.8 14.4-8.3m20.7-9.5c21.1-8.7 42.8-15.7 64.8-21.7-21.9 6-43.7 12.9-64.8 21.7m-53.6 41.4c-.3-2.7.5-5.3 1.8-7.6s3-4.3 4.8-6.1c1.1-1.1 2.3-2.2 3.5-3.2 3.6-3.1 7.6-5.7 11.5-8.2 4-2.4 8-4.6 12-6.6-4 2-8 4.2-12 6.6-3.9 2.4-7.9 5.1-11.5 8.2-1.2 1-2.4 2.1-3.5 3.3-1.8 1.8-3.5 3.8-4.8 6.1-1.3 2.2-2.2 4.9-1.8 7.5"/><path class="st20" d="M180.9 45.5m0 0l-108.3 46.1"/><path class="st2" d="M139.1 58.8l-3.6 1.4 3.6-1.4m43.8-13.2c-5.7 1.8-13.6 4.3-21.9 7.1-8.4 2.8-17.2 6-24.9 9 7.7-3 16.5-6.2 24.9-9 8.3-2.7 16.2-5.2 21.9-7.1"/><path class="st20" d="M207.6 38.7m-26.7 6.8"/><path class="st12" d="M180.9 45.5c8.9-2.4 17.8-4.7 26.7-6.8l-6.7 1.6c-6.7 1.7-13.3 3.4-20 5.2"/><path class="st20" d="M207.6 38.7"/><path class="st1" d="M180.9 45.5c8.9-2.4 17.8-4.7 26.7-6.8-8.9 2.1-17.8 4.4-26.7 6.8"/></g><path class="st19" d="M106.2 121.3c.9 7.1-4.2 13.7-11.3 14.5-7.1.9-13.6-4.2-14.5-11.3-.9-7.1 4.2-13.7 11.3-14.5 7.1-.9 13.6 4.2 14.5 11.3zm212.5-83.6c-3.7-.2-6.6-3.3-6.5-7 .1-3.7 3.3-6.7 7-6.5 3.7.1 6.6 3.3 6.5 7-.1 3.7-3.3 6.6-7 6.5zm-5.4-19.1c6.8-2.8 14.5.1 17.7 6.6l.4.9-1.9.7-.3-.7c-2.7-5.5-9.3-8-15.1-5.6l-.8-1.9zm-6.6-15.8c15.1-6.3 32.4.3 39.5 14.8l.9 1.9-1.9.8c-.2-.6-.5-1.2-.8-1.8-6.7-13.5-22.8-19.7-37-13.8l-.7-1.9zm4.1 9.7zm-.8-1.8c10.9-4.5 23.4.2 28.6 10.7l.6 1.4-1.9.8-.6-1.3c-4.7-9.5-16.1-13.8-26-9.7l-.7-1.9zm-169-12.4l5.5 10.7 11.9-1.9-8.5 8.5 5.4 10.7-10.7-5.4-8.5 8.5 1.9-11.9-10.8-5.5 11.9-1.9zm133 159l-9.6-6.7 1-11.5 10.5-4.9 9.5 6.6-1 11.5zm-181.1-65.5v-14.5c0-3.1-1.2-5.8-3.6-7.8-2.3-2.1-5.2-3.2-8.4-3.2v7.6c1.2 0 2.1.3 2.9 1 .8.7 1.1 1.4 1.1 2.4v14.5h8zm246.2 0c0 1-.3 1.7-1.1 2.4l9.5.8v-13.9l-8-.4-.4 11.1zm-204.3-22.3c-2.3-2.1-5.2-3.2-8.4-3.2h-13c-1.8 0-3.6.3-5.2 1-.7-.7-1.8-1.1-2.9-1-1.1 0-2.1.2-2.9 1-.8.7-1.1 1.8-1.1 2.8v28.9c0 1 .3 2.1 1.1 2.8.8.7 1.8 1 2.9 1 1.1 0 2.1-.3 2.9-1 .8-.7 1.1-1.8 1.1-2.8v-21.7c0-1 .3-1.7 1.1-2.4s1.7-1 2.9-1h12.9c1.2 0 2.1.3 2.9 1 .8.7 1.1 1.4 1.1 2.4v21.7c0 1 .3 2.1 1.1 2.8.8.7 1.8 1 2.9 1 1.1 0 2.1-.3 2.9-1 .8-.7 1.1-1.8 1.1-2.8v-21.7c.2-3.1-1.1-5.8-3.4-7.8zm251.2-14.5c-1.4 0-2.6.3-3.5 1.2-.9.9-1.3 2.1-1.3 3.4 0 1.3.4 2.6 1.3 3.4.9.9 2.2 1.2 3.5 1.2s2.6-.3 3.5-1.2c.9-.8 1.3-2.1 1.3-3.4 0-1.3-.4-2.6-1.3-3.4-.9-.9-2.1-1.2-3.5-1.2zm0 11.3c-1.1 0-2.1.3-2.9 1-.8.7-1.1 1.8-1.1 2.8v28.9c0 1.1.3 2.1 1.1 2.8.8.7 1.8 1 2.9 1 1.1 0 2.1-.3 2.9-1 .8-.7 1.1-1.8 1.1-2.8v-28.9c0-1.1-.3-2.1-1.1-2.8-.7-.7-1.8-1-2.9-1zm-14.5 0h-5.8v-6.2c0-1.1-.3-2.1-1.1-2.8-.8-.7-1.8-1-2.9-1s-2.1.2-2.9 1c-.8.7-1.1 1.8-1.1 2.8v6.2h-.5c-1.1 0-2.1.3-2.9 1-.8.7-1.1 1.8-1.1 2.8 0 1.1.3 2.1 1.1 2.8.8.7 1.8 1 2.9 1h.5v25c0 1.1.3 2.1 1.1 2.8.8.7 1.8 1 2.9 1s2.1-.3 2.9-1c.8-.7 1.1-1.8 1.1-2.8v-25h5.8c1.1 0 2.2-.3 2.9-1 .8-.7 1.1-1.8 1.1-2.8 0-1.1-.3-2.1-1.1-2.8-.8-.7-1.8-1-2.9-1zm-24.7 61.5c0 1.3-.4 2.5-1.3 3.6-.8 1-2 1.9-3.5 2.6-1.5.7-3.1 1.2-5.1 1.5-1.9.3-4 .5-6.2.5-1.5 0-2.9-.1-4.2-.2-1.3-.2-2.4-.3-3.4-.5s-1.8-.4-2.5-.6c-.7-.2-1.1-.4-1.4-.6-.3-.2-.5-.4-.6-.8-.1-.3-.2-.8-.2-1.4 0-.4 0-.8.1-1 0-.3.1-.5.2-.7.1-.2.2-.3.4-.4.2-.1.4-.1.6-.1.3 0 .8.1 1.3.3.6.2 1.3.5 2.2.7.9.3 2 .5 3.2.7 1.2.2 2.7.3 4.3.3 1.1 0 2-.1 2.9-.2.8-.1 1.6-.4 2.2-.6.6-.3 1-.6 1.3-1 .3-.4.5-.9.5-1.4 0-.6-.3-1.1-.8-1.5-.5-.4-1.2-.8-2.1-1.1-.9-.3-1.8-.6-2.9-.9-1.1-.3-2.2-.6-3.4-.9-1.2-.3-2.3-.7-3.4-1.1-1.1-.4-2.1-.9-2.9-1.5-.9-.6-1.6-1.2-2.1-2s-.8-1.7-.8-2.8c0-1.2.4-2.3 1.2-3.2.8-.9 1.8-1.7 3.1-2.3 1.3-.6 2.8-1.1 4.6-1.4 1.8-.3 3.7-.5 5.6-.5 1 0 2.1 0 3.1.1s2 .2 2.9.4c.9.2 1.7.3 2.4.5s1.1.4 1.4.5c.2.1.4.2.4.3l.2.4c0 .1.1.3.1.6v1.9c0 .3-.1.5-.2.7-.1.2-.2.3-.3.4-.2.1-.3.1-.6.1s-.6-.1-1.2-.3c-.5-.2-1.2-.4-2-.6-.8-.2-1.7-.4-2.7-.6-1-.2-2.2-.3-3.4-.3-1 0-1.8.1-2.5.2s-1.3.3-1.8.6c-.5.2-.8.5-1.1.9-.2.4-.4.7-.4 1.1 0 .6.3 1.1.8 1.5.5.4 1.2.8 2.1 1.1.9.3 1.9.6 3 .9 1.1.3 2.2.6 3.4.9 1.2.3 2.3.7 3.4 1.1 1.1.4 2.1.9 3 1.5.9.6 1.6 1.2 2.1 2 .7.6 1 1.5 1 2.6zm42.7-5.6c0 2.4-.5 4.4-1.6 6s-2.5 3-4.5 4.1c-1.9 1.1-4.3 1.8-7.1 2.3-2.8.5-6.1.8-9.9.8h-10.3c-.7 0-1.3-.1-1.8-.4-.5-.3-.8-.7-.8-1.3v-22.4c0-.6.2-1 .8-1.3s1.1-.4 1.8-.4h11.1c3.9 0 7.1.3 9.8.8 2.7.5 5 1.3 6.8 2.4 1.8 1.1 3.2 2.4 4.2 3.9 1 1.7 1.5 3.5 1.5 5.5zm-9.1.2c0-1.2-.2-2.4-.7-3.4-.5-1-1.2-2-2.3-2.7-1.1-.8-2.4-1.4-4.1-1.8-1.7-.4-3.8-.7-6.5-.7h-4.5v17.5h4.6c2.4 0 4.4-.2 6.1-.6 1.7-.4 3-.9 4.1-1.7 1.1-.8 1.9-1.7 2.5-2.8.5-1 .8-2.3.8-3.8zm25.1 12.4c0 .1-.1.2-.2.4-.1.1-.4.2-.7.3s-.8.1-1.3.2c-.6 0-1.3.1-2.1.1s-1.6 0-2.1-.1c-.6 0-1-.1-1.4-.2-.3-.1-.6-.2-.7-.3-.2-.1-.2-.2-.2-.4v-24.3c0-.1.1-.2.2-.4.1-.1.4-.2.7-.3.4-.1.8-.1 1.4-.2s1.3-.1 2.1-.1c.9 0 1.6 0 2.1.1.6 0 1 .1 1.3.2.3.1.6.2.7.3.2.1.2.2.2.4v24.3z"/></svg>