<?xml version="1.0" encoding="utf-8"?>
<!DOCTYPE svg PUBLIC "-//W3C//DTD SVG 1.1//EN" "http://www.w3.org/Graphics/SVG/1.1/DTD/svg11.dtd">
<svg version="1.1" id="Calque_1" xmlns="http://www.w3.org/2000/svg" xmlns:xlink="http://www.w3.org/1999/xlink" x="0px" y="0px"
	 width="363.2px" height="145px" viewBox="0 0 363.2 145" style="enable-background:new 0 0 363.2 145;" xml:space="preserve">
<style type="text/css"><![CDATA[
	.st0{fill:url(#SVGID_1_);}	.st1{fill:url(#SVGID_2_);}	.st2{fill:url(#SVGID_3_);}	.st3{fill:url(#SVGID_4_);}
	.st4{fill:url(#SVGID_5_);}	.st5{fill:url(#SVGID_6_);}	.st6{fill:url(#SVGID_7_);}	.st7{fill:url(#SVGID_8_);}
	.st8{fill:url(#SVGID_9_);}	.st9{fill:#FAC017;}	.st10{fill:#FAC019;}	.st11{fill:#FAC226;}
	.st12{fill:#FBC842;}	.st13{fill:#FDD36F;}	.st14{opacity:0.8;}	.st15{fill:#FEDC91;}
	.st16{fill:#FEE4AC;}	.st17{fill:none;}	.st18{opacity:0.8;fill:#FEDC91;enable-background:new    ;}
	.st19{fill:#3187C4;}	.st20{fill:url(#SVGID_10_);}
	.st21{fill:url(#SVGID_11_);}	.st22{fill:url(#SVGID_12_);}	.st23{fill:url(#SVGID_13_);}	.st24{fill:url(#SVGID_14_);}
	.st25{fill:url(#SVGID_15_);}	.st26{fill:url(#SVGID_16_);}	.st27{fill:url(#SVGID_17_);}	.st28{fill:url(#SVGID_18_);}
	.st29{fill:url(#SVGID_19_);}	.st30{fill:url(#SVGID_20_);}	.st31{fill:url(#SVGID_21_);}	.st32{fill:url(#SVGID_22_);}
	.st33{fill:url(#SVGID_23_);}	.st34{fill:url(#SVGID_24_);}	.st35{fill:url(#SVGID_25_);}	.st36{fill:url(#SVGID_26_);}
	.st37{fill:url(#SVGID_27_);}	.st38{fill:url(#SVGID_28_);}	.st39{fill:url(#SVGID_29_);}	.st40{fill:url(#SVGID_30_);}
	.st41{fill:url(#SVGID_31_);}	.st42{fill:url(#SVGID_32_);}	.st43{fill:url(#SVGID_33_);}	.st44{fill:url(#SVGID_34_);}
	.st45{fill:url(#SVGID_35_);}	.st46{fill:url(#SVGID_36_);}	.st47{fill:url(#SVGID_37_);}	.st48{fill:url(#SVGID_38_);}
]]></style>
<g>
		<linearGradient id="SVGID_1_" gradientUnits="userSpaceOnUse" x1="1047.9395" y1="-987.375" x2="1047.9395" y2="-1061.7922" gradientTransform="matrix(1 0 0 -1 -867 -962.5)">
		<stop  offset="0" style="stop-color:#CBDFED"/>
		<stop  offset="9.500000e-03" style="stop-color:#C4DBEC"/>
		<stop  offset="7.370000e-02" style="stop-color:#99C1E3"/>
		<stop  offset="0.1357" style="stop-color:#73AEDB"/>
		<stop  offset="0.1943" style="stop-color:#51A0D6"/>
		<stop  offset="0.2479" style="stop-color:#3898D2"/>
		<stop  offset="0.2921" style="stop-color:#2C96D1"/>
		<stop  offset="0.6461" style="stop-color:#256D9A"/>
		<stop  offset="0.8106" style="stop-color:#304D7A"/>
		<stop  offset="1" style="stop-color:#322A59"/>
	</linearGradient>
	<path class="st0" d="M157.1,56.7h-3.6v-3.9c0-0.9-0.3-1.9-1-2.6c-0.7-0.7-1.7-0.9-2.6-0.9c-0.9,0-1.9,0.2-2.6,0.9
		c-0.8,0.7-1,1.7-1,2.6c0,0,0,0,0,0l0,0v3.9c-0.8,0.1-1.6,0.3-2.3,0.9c-0.7,0.7-1,1.7-1,2.6c0,0,0,0,0,0s0,0,0,0
		c0,0.9,0.3,1.9,1,2.6c0.7,0.6,1.5,0.9,2.3,0.9v17.8v0c0,0.9,0.3,1.9,1,2.6c0.7,0.7,1.6,0.9,2.5,0.9l0,0h0.2c0.9,0,1.9-0.2,2.6-0.9
		c0.7-0.6,1-1.5,1-2.3l0,0v-18h3.6c0.9,0,1.9-0.2,2.6-0.9c0.7-0.7,1-1.7,1-2.6v0c0,0,0,0,0,0c0-0.9-0.3-1.9-1-2.6
		C159,57,158,56.7,157.1,56.7z M138.2,69.9c-1.8-1.6-4.1-2.5-6.7-2.5c0,0,0,0-0.1,0H117c-0.7,0-1.2-0.2-1.7-0.6
		c-0.5-0.5-0.6-0.7-0.6-1.3c0-0.6,0.1-0.8,0.6-1.2c0.5-0.4,0.9-0.6,1.7-0.6h14.5c0.9,0,1.9-0.2,2.6-0.9c0.7-0.7,1-1.6,1-2.5v-0.1
		c0,0,0,0,0,0c0-0.9-0.3-1.9-1-2.5c-0.7-0.7-1.7-0.9-2.6-0.9H117c-2.5,0-4.8,0.9-6.7,2.5c-1.8,1.6-2.9,3.8-2.9,6.2c0,0,0,0,0,0.1v0
		c0,2.4,1,4.6,2.9,6.2c1.8,1.6,4.1,2.5,6.6,2.5l0,0l14.6,0c0.7,0,1.2,0.2,1.7,0.6c0.5,0.5,0.6,0.7,0.6,1.3c0,0.6-0.1,0.8-0.6,1.2
		c-0.5,0.4-1,0.6-1.7,0.6h-20.4c-0.9,0-1.9,0.2-2.6,0.9c-0.7,0.7-1,1.7-1,2.6c0,0,0,0,0,0c0,0,0,0,0,0c0,0.9,0.3,1.8,1,2.5
		c0.8,0.7,1.7,0.9,2.6,0.9h20.5h0c2.4,0,4.7-0.8,6.5-2.4c1.9-1.6,3-3.8,3-6.4v0c0-0.1,0-0.1,0-0.1C141.1,73.7,140,71.5,138.2,69.9z
		 M32.6,78.9C31.9,78.2,30.9,78,30,78l0,0H9.6c-0.8,0-1.2-0.2-1.7-0.6c-0.5-0.5-0.6-0.7-0.6-1.2V65.5c0-0.6,0.1-0.8,0.6-1.2
		c0.5-0.4,0.9-0.6,1.7-0.6H24c0.9,0,1.9-0.2,2.6-0.9c0.7-0.7,1-1.6,1-2.5v-0.1c0,0,0,0,0,0c0-0.9-0.3-1.9-1-2.5
		c-0.8-0.7-1.7-0.9-2.6-0.9H9.5l0,0c-2.5,0-4.8,0.9-6.7,2.5C1,60.9,0,63.1,0,65.5c0,0,0,0,0,0.1v10.6v0c0,2.4,1,4.6,2.9,6.2
		C4.7,84.1,7,85,9.5,85H30c0.9,0,1.9-0.2,2.6-0.9c0.7-0.7,1-1.6,1-2.5v-0.1c0,0,0,0,0,0C33.6,80.6,33.3,79.6,32.6,78.9z M67.2,59.2
		c-1.8-1.6-4.1-2.5-6.7-2.5h0c0,0,0,0-0.1,0H46c0,0,0,0-0.1,0c-2.5,0-4.9,0.9-6.7,2.5c-1.8,1.6-2.9,3.8-2.9,6.3c0,0,0,0,0,0.1v10.6
		v0c0,2.4,1,4.6,2.9,6.2c1.8,1.6,4.1,2.5,6.6,2.5h0h14.6c2.4,0,4.7-0.8,6.5-2.4c1.9-1.6,3-3.8,3-6.3l0,0V65.5c0,0,0,0,0,0
		C70,63.1,69,60.9,67.2,59.2z M62.8,76.2c0,0.6-0.1,0.8-0.6,1.2c-0.5,0.4-0.9,0.6-1.7,0.6H46c-0.8,0-1.2-0.2-1.7-0.6
		c-0.5-0.4-0.6-0.7-0.6-1.2V65.5c0-0.6,0.1-0.8,0.6-1.2c0.5-0.4,0.9-0.6,1.7-0.6h14.5c0.7,0,1.2,0.2,1.7,0.6
		c0.5,0.5,0.6,0.7,0.6,1.2V76.2L62.8,76.2z M100.7,59.2c-1.8-1.7-4.1-2.5-6.6-2.5c0,0,0,0,0,0c0,0,0,0,0,0h-9.5
		c-1.3,0-2.5,0.2-3.7,0.7c-0.6-0.4-1.4-0.7-2.1-0.7c0,0-0.1,0-0.1,0c-0.9,0-1.8,0.2-2.6,0.9c-0.7,0.7-1,1.6-1,2.5c0,0,0,0,0,0.1
		v21.2v0c0,0.9,0.3,1.9,1,2.5c0.8,0.7,1.7,0.9,2.6,0.9c0.9,0,1.9-0.2,2.6-0.9c0.7-0.7,1-1.6,1-2.5v-16c0-0.6,0.1-0.8,0.6-1.2
		c0.5-0.4,1-0.6,1.7-0.6l9.5,0c0.7,0,1.2,0.2,1.7,0.6c0.5,0.5,0.6,0.7,0.6,1.2v16c0,0,0,0,0,0c0,0.9,0.3,1.8,1,2.5
		C98.1,84.8,99,85,100,85s1.9-0.2,2.6-0.9c0.7-0.7,1-1.6,1-2.5v-16c0,0,0,0,0,0C103.6,63.1,102.6,60.9,100.7,59.2z M288.7,48.6
		c-0.9-0.8-2-1.1-3.1-1.1c-1.1,0-2.2,0.3-3.1,1.1c-0.8,0.8-1.2,1.9-1.2,3c0,0,0,0,0,0.1v0c0,1.1,0.3,2.2,1.2,3
		c0.8,0.8,2,1.1,3.1,1.1c1.1,0,2.2-0.3,3.1-1.1c0.8-0.8,1.1-1.9,1.1-2.9v0v-0.1c0,0,0-0.1,0-0.1C289.9,50.4,289.5,49.3,288.7,48.6z
		 M325.5,59.2c-1.8-1.6-4.1-2.5-6.7-2.5c0,0,0,0,0,0c0,0,0,0-0.1,0h-14.4c0,0,0,0,0,0c-2.5,0-4.8,0.9-6.7,2.5
		c-1.8,1.6-2.9,3.8-2.9,6.2c0,0,0,0,0,0v10.6c0,0,0,0,0,0c0,0,0,0,0,0.1c0,2.4,1,4.6,2.9,6.2c1.8,1.6,4.1,2.5,6.6,2.5h14.6
		c2.4,0,4.7-0.8,6.5-2.4c1.9-1.6,3-3.8,3-6.3v0V65.5c0,0,0,0,0,0C328.3,63.1,327.3,60.9,325.5,59.2z M321.1,76.2
		c0,0.6-0.1,0.8-0.6,1.2c-0.5,0.4-1,0.6-1.7,0.6h-14.5c-0.7,0-1.2-0.2-1.7-0.6c-0.5-0.5-0.6-0.7-0.6-1.2V65.5c0-0.6,0.1-0.8,0.6-1.2
		c0.5-0.4,1-0.6,1.7-0.6h14.5c0.8,0,1.2,0.2,1.7,0.6c0.5,0.4,0.6,0.7,0.6,1.2V76.2L321.1,76.2z M194.3,59.2
		c-1.8-1.6-4.1-2.5-6.6-2.5l0,0h0c0,0,0,0-0.1,0h-14.4c-2.5,0-4.8,0.8-6.7,2.5c-1.9,1.6-2.9,3.8-2.9,6.2c0,0,0,0,0,0.1v10.6v0
		c0,2.4,1,4.6,2.9,6.2c1.8,1.6,4.1,2.5,6.6,2.5h14.5c0.9,0,1.9-0.2,2.6-0.9c0.7-0.7,1-1.6,1-2.5v0c0,0,0,0,0,0c0-0.9-0.3-1.9-1-2.6
		c-0.8-0.7-1.7-0.9-2.6-0.9h-14.5c-0.7,0-1.2-0.2-1.7-0.6c-0.5-0.4-0.6-0.6-0.6-1.2v-1.8l17.5,0v0c2.2-0.1,4.2-0.9,5.8-2.3
		c2-1.6,3-3.9,3-6.4l0,0c0-0.1,0-0.1,0-0.1C197.2,63.1,196.1,60.9,194.3,59.2z M189.3,66.8L189.3,66.8c-0.5,0.4-0.9,0.6-1.7,0.6
		h-16.8v-1.9c0-0.6,0.1-0.8,0.6-1.2c0.5-0.4,1-0.6,1.7-0.6h14.5c0.7,0,1.2,0.2,1.7,0.6c0.5,0.5,0.6,0.7,0.6,1.3
		C189.8,66.1,189.8,66.3,189.3,66.8z M289.2,60.2c0-0.9-0.3-1.8-1-2.5c-0.7-0.7-1.7-0.9-2.6-0.9c-0.9,0-1.9,0.2-2.6,0.9
		c-0.7,0.7-1,1.6-1,2.5c0,0,0,0,0,0.1v21.2v0.1c0,0.9,0.3,1.8,1,2.5s1.7,0.9,2.6,0.9h0c0.9,0,1.9-0.2,2.6-0.9c0.7-0.7,1-1.6,1-2.5v0
		L289.2,60.2C289.2,60.2,289.2,60.2,289.2,60.2L289.2,60.2L289.2,60.2z M361.9,65.5c0-2.4-1-4.6-2.9-6.2c-1.8-1.6-4.1-2.5-6.6-2.5
		c0,0,0,0,0,0c0,0,0,0-0.1,0h-9.5c-1.3,0-2.5,0.2-3.7,0.7c-0.6-0.4-1.4-0.7-2.2-0.7h0c0,0-0.1,0-0.1,0c-0.9,0-1.8,0.2-2.6,0.9
		c-0.8,0.7-1,1.7-1,2.6v0c0,0,0,0,0,0.1v21.2c0,0,0,0,0,0c0,0.9,0.3,1.9,1,2.6c0.7,0.7,1.7,0.9,2.6,0.9c0.9,0,1.9-0.2,2.6-0.9
		c0.7-0.7,1-1.6,1-2.5v0v-16c0-0.6,0.1-0.8,0.6-1.2c0.5-0.4,1-0.6,1.7-0.6l9.6,0c0.7,0,1.2,0.2,1.7,0.6c0.5,0.5,0.6,0.6,0.6,1.2v16
		c0,0,0,0,0,0.1c0,0.9,0.3,1.8,1,2.5c0.8,0.7,1.7,0.9,2.6,0.9h0c0.9,0,1.9-0.2,2.6-0.9c0.7-0.7,1-1.6,1-2.5v0L361.9,65.5
		C361.9,65.5,361.9,65.5,361.9,65.5z M277.5,57.6c-0.7-0.7-1.7-0.9-2.6-0.9h-3.6v-3.9c0,0,0,0,0,0l0,0l0,0c0-0.9-0.3-1.9-1-2.5
		c-0.8-0.7-1.7-0.9-2.6-0.9c-0.9,0-1.9,0.2-2.6,0.9c-0.8,0.7-1,1.7-1,2.6c0,0,0,0,0,0.1v3.9c-0.8,0-1.6,0.3-2.3,0.9
		c-0.8,0.7-1,1.7-1,2.6c0,0,0,0,0,0c0,0.9,0.3,1.9,1,2.5c0.7,0.6,1.5,0.8,2.3,0.9v17.8l0,0c0,0,0,0,0,0c0,0.9,0.3,1.9,1,2.6
		c0.8,0.7,1.7,0.9,2.6,0.9h0c0.9,0,1.9-0.2,2.6-0.9c0.7-0.7,1-1.6,1-2.5v0V63.7h3.6c0.9,0,1.9-0.2,2.6-0.9c0.7-0.7,1-1.6,1-2.5v0
		v-0.1c0-0.1,0-0.1,0-0.1C278.5,59.3,278.2,58.3,277.5,57.6z M208.3,47c0-0.9-0.3-1.9-1-2.6c-0.8-0.7-1.7-0.9-2.6-0.9
		c-0.9,0-1.9,0.2-2.6,0.9c-0.7,0.7-1,1.7-1,2.6v34.5c0,0.9,0.3,1.9,1,2.6c0.7,0.7,1.6,0.9,2.5,0.9l0,0h0.1c0,0,0,0,0,0c0,0,0,0,0,0
		h0c0.9,0,1.9-0.2,2.6-0.9c0.7-0.7,1-1.7,1-2.6l0,0V47C208.3,47,208.3,47,208.3,47z M255,59.2c-1.8-1.7-4.1-2.5-6.7-2.5c0,0,0,0,0,0
		c0,0,0,0-0.1,0h-14.5c-0.9,0-1.9,0.2-2.6,0.9c-0.8,0.7-1,1.6-1,2.5v0.1c0,0.9,0.3,1.9,1,2.6c0.8,0.7,1.7,0.9,2.6,0.9h14.5
		c0.7,0,1.2,0.2,1.7,0.6c0.5,0.5,0.6,0.7,0.6,1.2v1.8l-16.8,0c0,0,0,0-0.1,0c-2.5,0-4.8,0.9-6.7,2.5c-1.8,1.6-2.9,3.8-2.9,6.3
		c0,0,0,0,0,0v0c0,2.4,1,4.6,2.9,6.3c1.8,1.6,4.1,2.5,6.6,2.5h0h14.6h0c1.3,0,2.5-0.2,3.7-0.7c0.6,0.4,1.4,0.7,2.2,0.7
		c0.1,0,0.1,0,0.1,0h0c0.9,0,1.8-0.2,2.6-0.9c0.7-0.6,1-1.5,1-2.4l0,0v-0.1c0,0,0,0,0,0v-16c0,0,0,0,0,0
		C257.9,63.1,256.9,60.9,255,59.2z M250.7,76.2c0,0.6-0.1,0.8-0.6,1.2c-0.5,0.4-1,0.6-1.7,0.6l-14.5,0c-0.7,0-1.2-0.2-1.7-0.6
		c-0.5-0.5-0.6-0.7-0.6-1.2c0-0.5,0.1-0.8,0.6-1.3c0.5-0.4,0.9-0.6,1.7-0.6h16.8V76.2L250.7,76.2z M220.4,47c0-0.9-0.3-1.8-1-2.5
		c-0.7-0.7-1.7-0.9-2.6-0.9c-0.9,0-1.9,0.2-2.6,0.9c-0.8,0.7-1,1.7-1,2.6v34.4c0,0.9,0.3,1.9,1,2.6c0.7,0.7,1.6,0.9,2.5,0.9h0h0.1
		c0.9,0,1.9-0.2,2.6-0.9c0.7-0.7,1-1.6,1-2.5v0l0,0L220.4,47C220.4,47,220.4,47,220.4,47z"/>
	<path class="st19" d="M117.4,113.3L117.4,113.3c1.1,1,2.1,2,3.1,2.9l1-1.1c-1-1-2.1-1.9-3.1-2.9L117.4,113.3z"/>
	<path class="st19" d="M105.5,12.9l0.1,1.4c1.4-0.1,2.8-0.3,4.2-0.4l-0.1-1.5C108.3,12.7,106.9,12.8,105.5,12.9z"/>
	<path class="st19" d="M111.2,107.3L111.2,107.3c1,1,2.1,2,3.1,3l1-1c-1-1-2-2-3.1-3L111.2,107.3z"/>
	<path class="st19" d="M93.5,88.6L93.5,88.6c0.9,1.1,1.9,2.2,2.8,3.2l1.1-1c-0.9-1.1-1.9-2.1-2.8-3.2L93.5,88.6z"/>
	<path class="st19" d="M105.1,101.3c1,1,2,2.1,3,3.1l1-1c-1-1-2-2-3-3L105.1,101.3z"/>
	<path class="st19" d="M127,12.2L127,12.2c-1.3,0-2.7,0-4,0h-0.3v1.5c0.1,0,0.2,0,0.3,0c1.3,0,2.6,0,4,0L127,12.2z"/>
	<path class="st19" d="M99.2,95L99.2,95c1,1,1.9,2.1,2.9,3.1l1.1-1c-1-1-2-2.1-2.9-3.1L99.2,95z"/>
	<path class="st19" d="M123.7,119.2c1.1,1,2.1,1.9,3.2,2.8l1-1.1c-1.1-0.9-2.1-1.9-3.2-2.8L123.7,119.2z"/>
	<path class="st19" d="M144.1,134.9c1.2,0.8,2.5,1.5,3.7,2.2l0.7-1.3c-1.2-0.7-2.4-1.4-3.7-2.1L144.1,134.9z"/>
	<path class="st19" d="M161.3,14.2c-1.4-0.1-2.8-0.2-4.3-0.4l-0.1,1.5c1.4,0.1,2.9,0.2,4.3,0.4L161.3,14.2z"/>
	<path class="st19" d="M151.7,139c1.3,0.6,2.6,1.2,4,1.7l0.5-1.4c-1.3-0.5-2.6-1.1-3.9-1.7L151.7,139z"/>
	<path class="st19" d="M130.2,124.8c1.1,0.9,2.2,1.8,3.4,2.7l0.9-1.2c-1.1-0.9-2.2-1.8-3.3-2.7L130.2,124.8z"/>
	<path class="st19" d="M139.9,12.6l-0.1,1.5c1.4,0.1,2.9,0.2,4.3,0.2l0.1-1.5C142.7,12.8,141.3,12.7,139.9,12.6z"/>
	<path class="st19" d="M131.2,13.7c1.4,0,2.9,0.1,4.3,0.2l0.1-1.5c-1.4-0.1-2.9-0.1-4.3-0.2L131.2,13.7z"/>
	<path class="st19" d="M118.4,13.6l0-1.5c-1.5,0-2.9,0.1-4.3,0.1l0.1,1.5C115.5,13.7,117,13.7,118.4,13.6z"/>
	<path class="st19" d="M152.7,13.5L152.7,13.5c-1.4-0.1-2.9-0.2-4.3-0.3l-0.1,1.5c1.4,0.1,2.9,0.2,4.3,0.3L152.7,13.5z"/>
	<path class="st19" d="M70.8,28.6c0.1-0.1,0.2-0.3,0.3-0.4L70,27.2l0,0c-0.1,0.1-0.2,0.3-0.4,0.4c-0.9,1.2-1.7,2.5-2.2,3.9l1.4,0.5
		C69.3,30.8,70,29.7,70.8,28.6z"/>
	<path class="st19" d="M84.9,18.9l-0.5-1.4l0,0c-1.4,0.5-2.7,1.1-4,1.8l0.7,1.3C82.3,20,83.6,19.4,84.9,18.9z"/>
	<path class="st19" d="M283.2,45.5c-0.8-1-1.6-2-2.6-3l-1.1,1c1,1,1.8,2,2.5,3C282.5,46.2,282.8,45.8,283.2,45.5z"/>
	<path class="st19" d="M277.5,39.5c-1.1-0.9-2.2-1.8-3.5-2.6l-0.8,1.2c1.2,0.8,2.3,1.7,3.4,2.5L277.5,39.5z"/>
	<path class="st19" d="M159.8,142.2L159.8,142.2c1.4,0.4,2.8,0.8,4.2,1.2l0.3-1.4c-1.4-0.3-2.7-0.7-4.1-1.1L159.8,142.2z"/>
	<path class="st19" d="M67.7,38.4c0-0.8,0-1.6,0.1-2.4l-1.4-0.2l0,0c-0.1,0.8-0.1,1.7-0.1,2.5c0,0.6,0,1.2,0.1,1.9l1.5-0.1
		C67.7,39.6,67.7,39,67.7,38.4z"/>
	<path class="st19" d="M76.6,21.4c-1.2,0.8-2.4,1.7-3.5,2.6l1,1.1c1-0.9,2.1-1.7,3.3-2.5L76.6,21.4L76.6,21.4L76.6,21.4z"/>
	<path class="st19" d="M88,82c0.9,1.1,1.8,2.2,2.7,3.3l1.1-0.9c-0.9-1.1-1.8-2.2-2.7-3.3L88,82z"/>
	<path class="st19" d="M67,44.6c0.3,1.4,0.7,2.8,1.1,4.2l1.4-0.4c-0.5-1.4-0.8-2.8-1.1-4.1L67,44.6z"/>
	<path class="st19" d="M69.6,52.9c0.5,1.3,1.1,2.6,1.8,3.9l1.3-0.6c-0.6-1.3-1.2-2.6-1.7-3.9L69.6,52.9z"/>
	<path class="st19" d="M137,130.1L137,130.1c1.2,0.9,2.3,1.7,3.5,2.5l0.8-1.2c-1.2-0.8-2.3-1.6-3.5-2.4L137,130.1z"/>
	<path class="st19" d="M253.2,109.4l1,1.1l0,0c1.1-0.9,2.2-1.9,3.2-2.8l-1-1.1C255.3,107.5,254.3,108.5,253.2,109.4z"/>
	<path class="st19" d="M249.9,112.2c-1.1,0.9-2.2,1.8-3.3,2.7l0.9,1.2c1.1-0.9,2.3-1.8,3.4-2.7L249.9,112.2z"/>
	<path class="st19" d="M262.7,30.6c-1.3-0.6-2.6-1.1-4-1.7l-0.5,1.3c1.3,0.5,2.7,1.1,3.9,1.7L262.7,30.6z"/>
	<path class="st19" d="M239.7,119.9l0.8,1.2c1.2-0.8,2.4-1.7,3.5-2.5l-0.9-1.2C242,118.2,240.8,119.1,239.7,119.9z"/>
	<path class="st19" d="M233.6,23.2c1.4,0.3,2.8,0.6,4.2,0.9l0.3-1.4c-1.4-0.3-2.8-0.6-4.2-0.9L233.6,23.2z"/>
	<path class="st19" d="M232.5,124.6l0.8,1.2c1.2-0.8,2.4-1.5,3.6-2.3l-0.8-1.2C235,123.1,233.8,123.8,232.5,124.6z"/>
	<path class="st19" d="M241.9,25.1c1.4,0.4,2.8,0.7,4.1,1.1l0.4-1.4c-1.3-0.4-2.7-0.8-4.2-1.1L241.9,25.1z"/>
	<path class="st19" d="M265.9,33.8c1.3,0.7,2.5,1.4,3.7,2.1l0.8-1.3c-1.2-0.7-2.5-1.4-3.8-2.1L265.9,33.8z"/>
	<path class="st19" d="M178.4,15.8L178.4,15.8c-1.4-0.1-2.8-0.3-4.3-0.4l-0.1,1.5c1.4,0.1,2.9,0.3,4.3,0.4L178.4,15.8z"/>
	<path class="st19" d="M185.3,143.2l0.2,1.5c1.4-0.2,2.8-0.4,4.3-0.6l-0.2-1.4C188.1,142.8,186.7,143,185.3,143.2z"/>
	<path class="st19" d="M186.9,16.5c-1.4-0.1-2.8-0.2-4.3-0.4l-0.1,1.5c1.4,0.1,2.9,0.3,4.3,0.4L186.9,16.5z"/>
	<path class="st19" d="M195.5,17.3c-1.4-0.1-2.8-0.2-4.3-0.4l-0.1,1.5c1.4,0.1,2.9,0.2,4.3,0.4L195.5,17.3z"/>
	<path class="st19" d="M225.2,129l0.7,1.3l0,0c1.2-0.7,2.5-1.4,3.7-2.2l-0.8-1.3C227.7,127.6,226.5,128.3,225.2,129z"/>
	<path class="st19" d="M168.2,144.2c1.4,0.2,2.9,0.4,4.3,0.6l0.1-1.5c-1.4-0.1-2.8-0.3-4.2-0.5L168.2,144.2z"/>
	<path class="st19" d="M169.9,15c-1.4-0.1-2.8-0.3-4.3-0.4l-0.1,1.4c1.4,0.1,2.8,0.3,4.3,0.4L169.9,15z"/>
	<path class="st19" d="M193.7,141.8l0.3,1.4l0,0c1.4-0.3,2.8-0.7,4.2-1.1l-0.4-1.4C196.5,141.1,195.1,141.5,193.7,141.8z"/>
	<path class="st19" d="M178.4,143.5c-0.5,0-1,0-1.6,0l0,1.5c0.5,0,1.1,0,1.6,0c0.9,0,1.8,0,2.7,0l-0.1-1.5
		C180.2,143.5,179.3,143.5,178.4,143.5z"/>
	<path class="st19" d="M221.1,19.6c-1.4-0.2-2.8-0.4-4.3-0.5l-0.2,1.4c1.4,0.2,2.8,0.4,4.2,0.5L221.1,19.6z"/>
	<path class="st19" d="M217.7,133l0.7,1.3c1.3-0.6,2.6-1.3,3.8-2l-0.7-1.3C220.2,131.7,218.9,132.3,217.7,133z"/>
	<path class="st19" d="M203.9,19.3l0.1-1.5c-0.3,0-0.7,0-1-0.1c-1.1-0.1-2.2-0.1-3.2-0.2l-0.1,1.5c1.1,0.1,2.2,0.2,3.2,0.2
		C203.2,19.3,203.6,19.3,203.9,19.3z"/>
	<path class="st19" d="M229.7,21c-1.4-0.2-2.8-0.5-4.2-0.7l-0.2,1.4c1.4,0.2,2.8,0.5,4.2,0.7L229.7,21z"/>
	<path class="st19" d="M209.9,136.5l0.6,1.3l0,0c1.3-0.6,2.6-1.1,4-1.7l-0.6-1.3C212.5,135.4,211.2,135.9,209.9,136.5z"/>
	<path class="st19" d="M201.9,139.5l0.5,1.4c1.4-0.4,2.7-0.9,4.1-1.4l-0.5-1.4C204.6,138.5,203.2,139,201.9,139.5z"/>
	<path class="st19" d="M212.6,18.6c-1.4-0.1-2.8-0.3-4.3-0.4l-0.1,1.5c1.4,0.1,2.9,0.2,4.3,0.4L212.6,18.6z"/>
	<path class="st19" d="M168.2,144.2L168.2,144.2L168.2,144.2z"/>
	<path class="st19" d="M277.5,39.5L277.5,39.5L277.5,39.5z"/>
	<path class="st19" d="M221.1,19.6L221.1,19.6L221.1,19.6z"/>
	<path class="st19" d="M169.9,15L169.9,15L169.9,15z"/>
	<path class="st19" d="M135.6,12.4L135.6,12.4L135.6,12.4z"/>
	<path class="st19" d="M118.4,12.2L118.4,12.2L118.4,12.2z"/>
	<g>
		<g>
			<g>
				<g class="st14">
					<line class="st17" x1="169.8" y1="30.8" x2="169.8" y2="30.8"/>
					<path class="st15" d="M169.8,30.8c3.4-0.1,6.1,0,7.9,0.2l5.9-0.8c-4.2,0.7-8.4,1.5-12.5,2.2c-11.2,2.2-23.9,5.1-35.9,8.1
						c-12,3-23.5,6.3-32.4,8.9c5.3-1.7,11.5-3.6,17.5-5.4l5.9-1.7c3.8-1.1,7.2-2,10-2.7l-1.6,0.5c4.1-1.2,8.2-2.4,12.2-3.6
						c4.1-1,8.3-2,12.4-2.9c-4.1,1-8.3,1.9-12.4,2.9C154.4,34.6,162.1,32.7,169.8,30.8"/>
					<line class="st17" x1="146.8" y1="36.7" x2="146.8" y2="36.7"/>
					<line class="st17" x1="102.7" y1="49.5" x2="102.7" y2="49.5"/>
					<line class="st17" x1="183.6" y1="30.3" x2="183.6" y2="30.3"/>
					<path class="st15" d="M212.6,97.8L212,98l2.9-0.8c11.6-2.7,23-5.7,33.6-8.8c12.9-3.8,26.2-7.9,40-12.7c2.7-1,5.5-2,8.3-3
						c-5.5,2.2-11,4.3-16.6,6.3l-1.7,0.5c-11.9,3.9-22.9,7.2-33.6,10.2C234.2,92.7,223.7,95.4,212.6,97.8"/>
					<line class="st17" x1="280.2" y1="78.9" x2="280.2" y2="78.9"/>
					<line class="st17" x1="294.8" y1="72" x2="294.8" y2="72"/>
					<path class="st10" d="M294.8,72c12.5-4.9,25.7-10.5,37.9-17.4l0.1,0.2c-6.8,3.8-14.3,7.5-22.1,10.8c-2.2,0.9-4.3,1.8-6.5,2.6
						l1.6-0.6C302.1,69.2,298.5,70.6,294.8,72"/>
					<path class="st10" d="M322.7,60.5c3.7-1.9,7.4-3.8,11-5.9l1.5-0.8C331.1,56.2,326.9,58.4,322.7,60.5"/>
					<polyline class="st10" points="210.2,103.3 206.8,103.9 211,103.1 210.2,103.3 					"/>
					<line class="st17" x1="206.8" y1="103.9" x2="206.8" y2="103.9"/>
					<line class="st17" x1="335.9" y1="63.9" x2="335.9" y2="63.9"/>
					<path class="st10" d="M335.9,63.9c-1.8,0.9-3.6,1.8-5.5,2.7C332.2,65.8,334.1,64.9,335.9,63.9"/>
					<polyline class="st10" points="330.4,66.6 329.7,67 330.4,66.6 					"/>
					<line class="st17" x1="331.2" y1="20" x2="331.2" y2="20"/>
					<path class="st10" d="M331.2,20c1.4,0.2,2.7,0.5,4,0.8C334,20.5,332.6,20.2,331.2,20"/>
					<line class="st17" x1="357.3" y1="48.4" x2="357.3" y2="48.4"/>
					<path class="st10" d="M357.3,48.4c-0.5,0.4-0.9,0.8-1.4,1.2C356.4,49.2,356.8,48.8,357.3,48.4"/>
					<path class="st10" d="M51.6,110.3c-3-0.5-6.1-1.2-9-1.9C45.6,109.2,48.6,109.8,51.6,110.3"/>
					<line class="st17" x1="206.8" y1="103.9" x2="206.8" y2="103.9"/>
					<polyline class="st10" points="206.8,103.9 200.1,105 206.8,103.9 					"/>
					<line class="st17" x1="341.6" y1="22.7" x2="341.6" y2="22.7"/>
					<line class="st17" x1="341.6" y1="22.7" x2="341.6" y2="22.7"/>
					<path class="st10" d="M341.6,22.7c1.8,0.5,3.6,1.1,5.3,1.7c-1.5-0.6-3-1-4.5-1.5L341.6,22.7"/>
					<path class="st10" d="M323.8,18.9c2.5,0.3,5,0.7,7.4,1.1c-1.6-0.3-3.3-0.5-4.9-0.8L323.8,18.9"/>
					<line class="st17" x1="331.2" y1="20" x2="331.2" y2="20"/>
					<path class="st10" d="M354.7,39.4c1.6-2.1,2.5-4.3,2.5-5.9c0-0.3,0-0.6,0-0.8c0,0.3,0,0.5,0,0.8c0-0.3,0-0.6,0-0.8h0
						c0.1,0.9,0,1.9-0.4,3C356.3,36.9,355.6,38.1,354.7,39.4"/>
					<line class="st17" x1="331.2" y1="20.3" x2="331.2" y2="20.3"/>
					<line class="st17" x1="331.2" y1="20.3" x2="331.2" y2="20.3"/>
					<path class="st10" d="M331.2,20.3c3.5,0.6,7,1.4,10.4,2.4c1.8,0.5,3.6,1.1,5.3,1.7c-1.5-0.6-3-1-4.5-1.5c2.5,0.8,5,1.6,7.3,2.7
						c2.3,1.1,4.4,2.4,5.8,3.9c0.7,0.7,1.2,1.5,1.4,2.2c0,0.1,0,0.2,0.1,0.3c0,0.1,0,0.1,0,0.1l0.1,0.3l0,0.1l0,0.1v0v0
						c0,0.1,0-0.2,0-0.1v0c0,0.1,0,0.2,0,0.3c0,0.4,0,0.7,0,1.1c-0.2,1.6-1.4,3.7-3.1,5.8c-0.3,0.4-0.5,0.8-0.8,1.2
						c1.6-1.8,3-3.7,3.6-5.5c0.3-0.9,0.4-1.6,0.4-2.3c0-0.2,0-0.3,0-0.5l0-0.1v0c0-0.1,0,0.2,0,0.1l0,0v0v0l0,0l-0.1-0.3
						c-0.1-0.2-0.1-0.2-0.1-0.2c-0.1-0.2-0.2-0.6-0.4-0.9c0.1,0.2,0.2,0.4,0.3,0.6c0,0.1,0.1,0.2,0.1,0.3c0,0.1,0,0,0.1,0.2l0.1,0.3
						l0,0.1v0v0l0,0l0,0c0,0,0-0.2,0-0.1l0,0v0l0,0.1c0,0.1,0,0.2,0,0.3c0,0.2,0,0.4,0,0.6c0-0.3,0-0.6,0-0.8l0-0.1l0-0.1v0v0v0l0,0
						c0,0,0,0.2,0,0.1l0,0l0,0v0l-0.1-0.4c0-0.2,0-0.1-0.1-0.3c-0.1-0.3-0.2-0.5-0.3-0.8c0.2,0.3,0.3,0.5,0.4,0.8
						c0.1,0.2,0,0.1,0.1,0.3l0.1,0.4v0l0,0l0,0c0,0.1,0-0.2,0-0.1l0,0v0v0v0l0,0.1l0,0.1l0-0.1l0-0.1l0,0l0,0c0-0.1,0,0.2,0,0.1v0
						l0,0l0-0.1l0-0.3l0-0.1l0,0c0,0-0.1-0.2-0.1-0.4c-0.1-0.3-0.3-0.7-0.5-1c-0.4-0.7-1.1-1.4-1.9-2.1c-1.6-1.4-3.8-2.6-6.2-3.6
						c1.9,0.8,3.6,1.8,5.1,2.8c-1.8-1.3-4.1-2.5-6.5-3.4c0.5,0.2,1,0.4,1.4,0.6c-2.1-0.9-4.4-1.7-6.7-2.4
						C338.2,21.6,334.7,20.9,331.2,20.3 M346.9,24.4c-0.5-0.2-1-0.4-1.5-0.5C345.9,24,346.4,24.2,346.9,24.4 M356.6,31.1L356.6,31.1
						"/>
					<line class="st17" x1="342.3" y1="22.9" x2="342.3" y2="22.9"/>
					<path class="st9" d="M342.3,22.9c1.5,0.4,3,0.9,4.5,1.5C345.4,23.9,343.9,23.4,342.3,22.9"/>
					<line class="st17" x1="346.8" y1="24.4" x2="346.8" y2="24.4"/>
					<line class="st17" x1="357.2" y1="32.6" x2="357.2" y2="32.6"/>
					<path class="st9" d="M357.2,32.7c0,0.3,0,0.5,0,0.8C357.2,33.2,357.2,32.9,357.2,32.7"/>
					<line class="st17" x1="311.3" y1="17.9" x2="311.3" y2="17.9"/>
					<line class="st17" x1="311.3" y1="17.9" x2="311.3" y2="17.9"/>
					<path class="st10" d="M311.3,17.9l4.2,0.3c2,0.1,3.9,0.3,5.8,0.5c5.8,0.7,11.6,1.5,17.1,2.9c1.1,0.3,2.1,0.6,3.1,0.9
						c-3.4-0.9-6.9-1.6-10.4-2.2C324.7,19.1,318,18.4,311.3,17.9"/>
					<line class="st17" x1="341.6" y1="22.5" x2="341.6" y2="22.5"/>
					<line class="st17" x1="356.6" y1="31.1" x2="356.6" y2="31.1"/>
					<line class="st17" x1="356.6" y1="31.1" x2="356.6" y2="31.1"/>
					<path class="st10" d="M356.6,31.1c0.2,0.3,0.3,0.5,0.4,0.8c0.1,0.2,0,0.1,0.1,0.3l0.1,0.4v0l0,0l0,0c0,0.1,0-0.2,0-0.1l0,0v0v0
						v0l0,0l0,0.1h0l0-0.1l0,0v0v0v0l0,0c0,0,0,0.2,0,0.1l0,0l0,0v0l-0.1-0.4c0-0.2,0-0.1-0.1-0.3C356.9,31.6,356.8,31.3,356.6,31.1
						"/>
					<line class="st17" x1="357.2" y1="32.6" x2="357.2" y2="32.6"/>
					<path class="st9" d="M356.6,31.1c0.2,0.3,0.3,0.5,0.4,0.8c0.1,0.2,0,0.1,0.1,0.3l0.1,0.4v0l0,0l0,0c0,0.1,0-0.2,0-0.1l0,0v0v0
						v0l0,0l0,0.1l0-0.1l0,0v0v0v0l0,0c0,0,0.1,0.2,0,0.1l0,0l0,0v0l-0.1-0.4c0-0.2,0-0.1-0.1-0.3C356.9,31.6,356.8,31.3,356.6,31.1
						"/>
					<line class="st17" x1="357.2" y1="32.6" x2="357.2" y2="32.6"/>
					<line class="st17" x1="309.6" y1="17.8" x2="309.6" y2="17.8"/>
					<line class="st17" x1="309.6" y1="17.8" x2="309.6" y2="17.8"/>
					<polyline class="st10" points="309.6,17.8 312.9,18 315.5,18.2 311.3,17.9 309.6,17.8 					"/>
					<line class="st17" x1="312.2" y1="17.9" x2="312.2" y2="17.9"/>
					<line class="st17" x1="312.2" y1="17.9" x2="312.2" y2="17.9"/>
					<polyline class="st10" points="312.2,17.9 312.9,18 312.2,17.9 					"/>
					<path class="st10" d="M314.4,18.1c3.2,0.2,6.3,0.5,9.4,0.8c-1.7-0.2-3.3-0.3-5-0.5C317.4,18.3,315.9,18.2,314.4,18.1"/>
					<line class="st17" x1="315.5" y1="18.2" x2="315.5" y2="18.2"/>
					<line class="st17" x1="357.2" y1="32.7" x2="357.2" y2="32.7"/>
					<line class="st17" x1="357.2" y1="32.7" x2="357.2" y2="32.7"/>
					<path class="st9" d="M357.2,32.7c0,0.3,0,0.5,0,0.8C357.2,33.2,357.2,32.9,357.2,32.7"/>
					<line class="st17" x1="357.2" y1="32.7" x2="357.2" y2="32.7"/>
					<line class="st17" x1="312.2" y1="17.9" x2="312.2" y2="17.9"/>
					<line class="st17" x1="312.2" y1="17.9" x2="312.2" y2="17.9"/>
					<polyline class="st10" points="312.2,17.9 314.4,18.1 312.2,17.9 					"/>
					<path class="st10" d="M312.9,18l1.5,0.1c1.5,0.1,3,0.2,4.4,0.4l2.5,0.3c-1.9-0.2-3.9-0.4-5.8-0.5c2,0.1,3.9,0.3,5.8,0.5
						c-1.9-0.2-3.9-0.4-5.8-0.5L312.9,18"/>
					<polyline class="st9" points="312.2,17.9 314.4,18.1 312.9,18 312.2,17.9 					"/>
					<path class="st9" d="M314.4,18.1c1.5,0.1,3,0.2,4.4,0.4C317.4,18.3,315.9,18.2,314.4,18.1"/>
					<line class="st17" x1="321.3" y1="18.7" x2="321.3" y2="18.7"/>
					<line class="st17" x1="321.3" y1="18.7" x2="321.3" y2="18.7"/>
					<line class="st17" x1="315.5" y1="18.2" x2="315.5" y2="18.2"/>
					<path class="st9" d="M315.5,18.2c2,0.1,3.9,0.3,5.8,0.5C319.4,18.5,317.5,18.4,315.5,18.2"/>
					<line class="st17" x1="318.8" y1="18.4" x2="318.8" y2="18.4"/>
					<line class="st17" x1="318.8" y1="18.4" x2="318.8" y2="18.4"/>
					<line class="st17" x1="318.8" y1="18.4" x2="318.8" y2="18.4"/>
					<line class="st17" x1="318.8" y1="18.4" x2="318.8" y2="18.4"/>
					<path class="st10" d="M318.8,18.4c1.7,0.1,3.3,0.3,5,0.5l2.5,0.4C323.8,18.9,321.3,18.7,318.8,18.4"/>
					<line class="st17" x1="323.8" y1="18.9" x2="323.8" y2="18.9"/>
					<line class="st17" x1="323.8" y1="18.9" x2="323.8" y2="18.9"/>
					<polyline class="st9" points="323.8,18.9 326.3,19.2 323.8,18.9 					"/>
					<path class="st9" d="M318.8,18.4c1.7,0.1,3.3,0.3,5,0.5C322.2,18.7,320.5,18.6,318.8,18.4"/>
					<line class="st17" x1="323.8" y1="18.9" x2="323.8" y2="18.9"/>
					<line class="st17" x1="318.8" y1="18.4" x2="318.8" y2="18.4"/>
					<line class="st17" x1="318.8" y1="18.4" x2="318.8" y2="18.4"/>
					<path class="st10" d="M318.8,18.4c2.5,0.2,5,0.5,7.5,0.8c1.4,0.2,2.7,0.5,4.1,0.7c-2.7-0.5-5.5-0.8-8.2-1.1l-0.8-0.1
						L318.8,18.4"/>
					<line class="st17" x1="326.3" y1="19.2" x2="326.3" y2="19.2"/>
					<line class="st17" x1="330.4" y1="20" x2="330.4" y2="20"/>
					<line class="st17" x1="318.8" y1="18.4" x2="318.8" y2="18.4"/>
					<line class="st17" x1="318.8" y1="18.4" x2="318.8" y2="18.4"/>
					<path class="st9" d="M318.8,18.4c2.5,0.2,5,0.5,7.5,0.8C323.8,18.9,321.3,18.7,318.8,18.4"/>
					<line class="st17" x1="326.3" y1="19.2" x2="326.3" y2="19.2"/>
					<line class="st17" x1="326.3" y1="19.2" x2="326.3" y2="19.2"/>
					<path class="st9" d="M345.4,23.8c0.5,0.2,1,0.3,1.5,0.5C346.4,24.2,345.9,24,345.4,23.8"/>
					<line class="st17" x1="321.3" y1="18.7" x2="321.3" y2="18.7"/>
					<line class="st17" x1="346.9" y1="24.4" x2="346.9" y2="24.4"/>
					<line class="st17" x1="346.9" y1="24.4" x2="346.9" y2="24.4"/>
					<path class="st10" d="M346.9,24.4c0.5,0.2,1,0.4,1.4,0.5c1.9,0.8,3.6,1.8,5.1,2.9C351.6,26.4,349.3,25.3,346.9,24.4"/>
					<path class="st9" d="M346.9,24.4c0.5,0.2,1,0.4,1.4,0.5C347.8,24.7,347.3,24.5,346.9,24.4"/>
					<line class="st17" x1="348.3" y1="24.9" x2="348.3" y2="24.9"/>
					<path class="st9" d="M348.3,24.9c1.9,0.8,3.6,1.8,5.1,2.9C351.9,26.7,350.2,25.7,348.3,24.9"/>
					<line class="st17" x1="348.3" y1="24.9" x2="348.3" y2="24.9"/>
					<line class="st17" x1="353.4" y1="27.8" x2="353.4" y2="27.8"/>
					<line class="st17" x1="338.5" y1="21.6" x2="338.5" y2="21.6"/>
					<line class="st17" x1="338.5" y1="21.6" x2="338.5" y2="21.6"/>
					<path class="st10" d="M338.5,21.6c1.6,0.4,3.1,0.8,4.7,1.3l-1.5-0.4C340.6,22.2,339.5,21.9,338.5,21.6"/>
					<line class="st17" x1="321.3" y1="18.7" x2="321.3" y2="18.7"/>
					<line class="st17" x1="321.3" y1="18.7" x2="321.3" y2="18.7"/>
					<path class="st10" d="M321.3,18.7l0.8,0.1c5.5,0.7,11,1.5,16.3,2.8C332.9,20.3,327.2,19.4,321.3,18.7"/>
					<polyline class="st9" points="321.3,18.7 322.2,18.8 321.3,18.7 322.2,18.8 321.3,18.7 					"/>
					<polyline class="st9" points="321.3,18.7 322.2,18.8 321.3,18.7 					"/>
					<line class="st17" x1="338.5" y1="21.6" x2="338.5" y2="21.6"/>
					<path class="st10" d="M350.1,52.2c-3.5,2.5-7.2,4.8-11,6.9c4.2-2.4,8.4-5,12.3-8L350.1,52.2"/>
					<line class="st17" x1="339.1" y1="59.1" x2="339.1" y2="59.1"/>
					<path class="st10" d="M345.2,55.8c-3.5,2.1-7,4-10.6,5.8c4.6-2.3,9.1-4.9,13.4-7.8C347.1,54.5,346.1,55.1,345.2,55.8"/>
					<line class="st17" x1="334.6" y1="61.6" x2="334.6" y2="61.6"/>
					<line class="st17" x1="337.5" y1="61.5" x2="337.5" y2="61.5"/>
					<line class="st17" x1="337.5" y1="61.5" x2="337.5" y2="61.5"/>
					<path class="st10" d="M337.5,61.5c-10.6,5.9-20.9,10.3-29.7,13.6c5-2,10.1-4.1,15-6.4l-0.8,0.4
						C327.3,66.7,332.4,64.2,337.5,61.5"/>
					<line class="st17" x1="322.8" y1="68.7" x2="322.8" y2="68.7"/>
					<line class="st17" x1="322.8" y1="68.7" x2="322.8" y2="68.7"/>
					<line class="st17" x1="307.8" y1="75.1" x2="307.8" y2="75.1"/>
					<line class="st17" x1="337.5" y1="61.5" x2="337.5" y2="61.5"/>
					<line class="st17" x1="337.5" y1="61.5" x2="337.5" y2="61.5"/>
					<path class="st10" d="M337.5,61.5c-5.1,2.8-10.2,5.3-15.5,7.6l0.8-0.4C327.8,66.5,332.7,64.1,337.5,61.5"/>
					<line class="st17" x1="337.5" y1="61.5" x2="337.5" y2="61.5"/>
					<path class="st9" d="M337.5,61.5c-5.1,2.8-10.2,5.3-15.5,7.6C327.3,66.7,332.4,64.2,337.5,61.5"/>
					<line class="st17" x1="322" y1="69.1" x2="322" y2="69.1"/>
					<path class="st10" d="M342.3,57.7c-1.2,0.7-2.5,1.4-3.8,2.1c2.3-1.3,4.5-2.6,6.7-4C344.2,56.4,343.3,57.1,342.3,57.7"/>
					<line class="st17" x1="338.5" y1="59.8" x2="338.5" y2="59.8"/>
					<line class="st17" x1="363" y1="29.8" x2="363" y2="29.8"/>
					<path class="st10" d="M363,29.8c0.1,0.2,0.2,0.5,0.2,0.8c0.1,0.3,0.1,0.4,0.2,0.7c0.1,0.6,0.2,1,0.2,1.5c0,1,0,2-0.2,3
						c0.2-1,0.3-2,0.2-3c0-0.5-0.1-1-0.2-1.5c0-0.2-0.1-0.4-0.2-0.7C363.1,30.2,363.1,30,363,29.8"/>
					<path class="st16" d="M192.8,24l-4.2,0.9l-5.8,1.3c9.2-1.7,18.5-3.2,29.4-4.8l-3.4,0.4c11.8-1.9,20.3-2.8,30.4-3.9
						C224.8,19.3,206.3,22,192.8,24 M208.8,21.8L208.8,21.8"/>
					<line class="st17" x1="212.2" y1="21.4" x2="212.2" y2="21.4"/>
					<line class="st17" x1="239.2" y1="17.9" x2="239.2" y2="17.9"/>
					<line class="st17" x1="257" y1="15.9" x2="257" y2="15.9"/>
					<polyline class="st10" points="257,15.9 260.4,15.6 257,15.9 					"/>
					<line class="st17" x1="212.2" y1="21.4" x2="212.2" y2="21.4"/>
					<polyline class="st10" points="212.2,21.4 217.3,20.7 212.2,21.4 					"/>
					<line class="st17" x1="251.9" y1="16.2" x2="251.9" y2="16.2"/>
					<polyline class="st10" points="251.9,16.2 257,15.9 251.9,16.2 					"/>
					<path class="st10" d="M362.8,31.8c0.3,1.9,0,3.8-0.7,5.5c-0.6,1.7-1.6,3.2-2.7,4.6c1-1.4,1.9-2.9,2.6-4.6
						C362.7,35.6,363,33.7,362.8,31.8L362.8,31.8"/>
					<path class="st10" d="M362.8,31.8c0.2,1.9-0.1,3.8-0.7,5.5C362.7,35.6,363,33.7,362.8,31.8L362.8,31.8"/>
					<line class="st17" x1="362.1" y1="37.3" x2="362.1" y2="37.3"/>
					<line class="st17" x1="362.7" y1="29.9" x2="362.7" y2="29.9"/>
					<line class="st17" x1="362.7" y1="29.9" x2="362.7" y2="29.9"/>
					<path class="st10" d="M362.7,29.9c0.5,1.5,0.6,3.2,0.4,4.8c-0.3,1.9-1,3.6-1.9,5.2c-0.9,1.6-2,3-3.2,4.3
						c1.4-1.6,2.8-3.4,3.7-5.5c1-2,1.5-4.4,1.2-6.8c0-0.2,0-0.3,0-0.5l0-0.4C362.8,30.5,362.8,30.2,362.7,29.9"/>
					<line class="st17" x1="358" y1="44.1" x2="358" y2="44.1"/>
					<path class="st10" d="M362.7,29.9c0.5,1.5,0.6,3.2,0.4,4.8C363.3,33.1,363.2,31.4,362.7,29.9L362.7,29.9"/>
					<line class="st17" x1="363.1" y1="34.6" x2="363.1" y2="34.6"/>
					<line class="st17" x1="362.4" y1="28.9" x2="362.4" y2="28.9"/>
					<line class="st17" x1="362.4" y1="28.9" x2="362.4" y2="28.9"/>
					<path class="st10" d="M362.4,28.9c0.2,0.5,0.4,1,0.6,1.6c0.1,0.5,0.2,1.1,0.3,1.7c0.1,1.1,0,2.3-0.2,3.4
						c-0.5,2.2-1.5,4.1-2.7,5.8c1.3-2,2.5-4.2,2.8-6.8c0.2-1.6,0.1-3.2-0.4-4.8C362.6,29.5,362.5,29.2,362.4,28.9"/>
					<line class="st17" x1="360.3" y1="41.4" x2="360.3" y2="41.4"/>
					<line class="st17" x1="362.7" y1="31.8" x2="362.7" y2="31.8"/>
					<path class="st16" d="M362.7,31.8c0.2,1.9-0.1,3.7-0.7,5.4s-1.5,3.2-2.6,4.6c1.1-1.4,2-2.9,2.7-4.6c-0.8,2.4-2.3,4.5-3.9,6.5
						c-1.7,2-3.6,3.7-5.5,5.4c-4,3.3-8.3,6.1-12.4,8.5c4.3-2.6,8.5-5.5,12.3-8.7c3.3-2.8,6.5-5.9,8.5-9.9c1-2,1.6-4.2,1.4-6.6
						c0-0.6-0.2-1.1-0.3-1.7c-0.2-0.6-0.4-1.1-0.6-1.6c-0.5-1-1.1-2-1.9-2.8C361.1,27.8,362.3,29.7,362.7,31.8"/>
					<path class="st9" d="M362.7,31.8c0.2,1.9-0.1,3.7-0.7,5.4s-1.5,3.2-2.6,4.6c1-1.4,2-2.9,2.6-4.6
						C362.7,35.6,363,33.7,362.7,31.8"/>
					<line class="st17" x1="359.4" y1="41.9" x2="359.4" y2="41.9"/>
					<line class="st17" x1="362.1" y1="37.3" x2="362.1" y2="37.3"/>
					<line class="st17" x1="362.1" y1="37.3" x2="362.1" y2="37.3"/>
					<path class="st10" d="M356.3,23.5c1.3,0.9,2.6,2,3.7,3.4c1.1,1.3,1.9,2.9,2.2,4.6c0.3,1.7,0.2,3.5-0.4,5.1
						c-0.5,1.6-1.3,3.1-2.2,4.4c-1.8,2.7-4.1,4.9-6.3,6.8c-2.2,1.9-4.4,3.4-6.3,4.7c0.8-0.5,1.5-1.1,2.2-1.6c3.5-2.7,6.6-5.4,9-8.4
						c1.2-1.5,2.3-3.2,3-4.9c0.7-1.8,1.1-3.7,0.8-5.6c-0.3-1.9-1.2-3.7-2.5-5.2c-1.3-1.5-2.8-2.7-4.5-3.8c-3.4-2.1-7.3-3.5-11.7-4.7
						l-1.4-0.4c4.1,1.2,9.5,2.9,14.1,6.1c2.3,1.6,4.3,3.7,5.2,6.1c0.9,2.5,0.6,5-0.2,6.9c0.6-1.6,0.9-3.2,0.6-4.9
						c-0.2-1.6-0.9-3.2-1.9-4.5c-2-2.7-4.9-4.5-7.8-5.9c-5.9-2.8-12.2-4.4-18.5-5.6c3.9,0.6,7.9,1.5,11.7,2.6
						C349.1,19.8,352.9,21.2,356.3,23.5"/>
					<line class="st17" x1="361" y1="36.9" x2="361" y2="36.9"/>
					<line class="st17" x1="358.7" y1="41.4" x2="358.7" y2="41.4"/>
					<line class="st17" x1="358.7" y1="41.4" x2="358.7" y2="41.4"/>
					<path class="st10" d="M358.7,41.4c-1.8,2.4-4,4.4-6.2,6.3c-2.3,1.9-4.7,3.6-7.2,5.2c2.1-1.4,4.2-2.9,6.1-4.5
						C354.1,46.3,356.6,44,358.7,41.4"/>
					<polyline class="st10" points="324.4,64.1 322.1,65.2 321.3,65.5 324.4,64.1 					"/>
					<path class="st10" d="M338,57.2c-1.2,0.7-2.5,1.4-3.7,2c-3.2,1.7-6.6,3.3-9.9,4.9l-2.3,1.1C327.5,62.8,332.9,60.1,338,57.2
						 M334.3,59.3c-3.2,1.7-6.6,3.3-9.9,4.9C327.8,62.6,331.1,61,334.3,59.3"/>
					<line class="st17" x1="322.1" y1="65.2" x2="322.1" y2="65.2"/>
					<line class="st17" x1="351.4" y1="48.3" x2="351.4" y2="48.3"/>
					<line class="st17" x1="351.4" y1="48.3" x2="351.4" y2="48.3"/>
					<path class="st10" d="M351.4,48.3c-2,1.6-4,3.1-6.1,4.5c-3.5,2.3-7.2,4.5-10.9,6.5c-3.2,1.7-6.6,3.3-9.9,4.9l-3.1,1.4l0.8-0.3
						c-4.9,2.1-9.9,4.1-15,6c5.8-2.3,11.5-4.8,17.1-7.4C332.8,60,343.4,54.6,351.4,48.3"/>
					<path class="st9" d="M351.4,48.3c-2,1.6-4,3.1-6.1,4.5C347.4,51.4,349.4,49.9,351.4,48.3"/>
					<line class="st17" x1="345.2" y1="52.8" x2="345.2" y2="52.8"/>
					<line class="st17" x1="324.4" y1="64.1" x2="324.4" y2="64.1"/>
					<line class="st17" x1="324.4" y1="64.1" x2="324.4" y2="64.1"/>
					<polyline class="st9" points="324.4,64.1 321.3,65.5 324.4,64.1 					"/>
					<line class="st17" x1="321.3" y1="65.5" x2="321.3" y2="65.5"/>
					<path class="st9" d="M334.3,59.3c-3.2,1.7-6.6,3.3-9.9,4.9C327.8,62.6,331.1,61,334.3,59.3"/>
					<line class="st17" x1="322.1" y1="65.2" x2="322.1" y2="65.2"/>
					<line class="st17" x1="334.3" y1="59.3" x2="334.3" y2="59.3"/>
					<path class="st9" d="M334.3,59.3c-3.2,1.7-6.6,3.3-9.9,4.9C327.8,62.6,331.1,61,334.3,59.3"/>
					<line class="st17" x1="319.6" y1="65.7" x2="319.6" y2="65.7"/>
					<line class="st17" x1="319.6" y1="65.7" x2="319.6" y2="65.7"/>
					<path class="st10" d="M319.6,65.7c-8.5,3.8-16.4,6.8-22.9,9c6.3-2.4,12.6-4.9,18.8-7.7l-2.3,1.2
						C315.4,67.4,317.5,66.6,319.6,65.7"/>
					<line class="st17" x1="134.5" y1="116.7" x2="134.5" y2="116.7"/>
					<line class="st17" x1="134.5" y1="116.7" x2="134.5" y2="116.7"/>
					<polyline class="st10" points="134.5,116.7 126.8,117.3 129.3,117 134.5,116.7 					"/>
					<path class="st9" d="M111.6,41c16.6-4.2,30.1-6.7,41.1-8.3c-8.3,1.9-16.6,4-24.8,6.3c-13.3,3.6-26.6,7.6-36.4,10.7
						c-9.8,3.1-16.3,5.3-16.3,4.8c0-0.1,0.5-0.5,1.7-1.1C88.9,48.7,101,44.4,111.6,41"/>
					<line class="st17" x1="152.8" y1="32.6" x2="152.8" y2="32.6"/>
					<path class="st10" d="M20.2,86.6c0.8-1,1.6-1.9,2.5-2.8c-2.1,2.4-3.2,4-4.4,6.2c-0.6,1.1-1.2,2.5-1.6,4.4
						c-0.4,1.9-0.5,4.5,0.8,7.5c-0.1-0.2-0.3-0.5-0.5-0.9c-0.2-0.3-0.4-1.1-0.5-1.4c-0.3-1.2-0.4-2.6-0.3-4.1
						c0.2-1.5,0.6-3.2,1.3-4.7C18.4,89.4,19.3,88,20.2,86.6"/>
					<line class="st17" x1="46.9" y1="66.4" x2="46.9" y2="66.4"/>
					<path class="st13" d="M46.9,66.4c6.3-3,14.6-6.8,23.5-10.4l6.5-2.6c-1.1,0.6-1.7,1-1.7,1.1c0,0.5,6.5-1.7,16.3-4.9
						c9.8-3.1,23.1-7.1,36.4-10.7c-20.4,5.6-40.5,12.1-60,20.4c-6.5,2.8-12.9,5.7-19.2,9c-4.5,2.4-9,4.9-13.2,7.8
						c-4.2,2.9-8.4,6-11.9,9.9c-1.7,1.9-3.3,4.1-4.4,6.6c-0.5,1.2-0.9,2.6-1,3.9c-0.1,1.4,0.1,2.8,0.5,4.1c0.9,2.6,2.9,4.7,5,6.2
						c2.1,1.6,4.5,2.7,6.9,3.7c-0.8-0.4-1.5-0.8-2.3-1.3c-2.2-1.1-4.4-2.4-6.2-4.1c-1.8-1.7-3.3-4-3.6-6.6c-0.3-2.5,0.4-5,1.6-7.1
						c1.1-2.2,2.7-4.1,4.3-5.8c1-1.1,2.1-2.1,3.2-3.1c3.3-2.9,6.9-5.4,10.6-7.7c3.7-2.3,7.4-4.4,11-6.3c7.4-3.8,14.6-7,21.4-9.7
						c-10.5,4.5-21.2,9.5-31.3,15.7c-3.3,2.1-6.6,4.3-9.7,6.7c-3,2.5-5.9,5.2-8.1,8.4c-1.6,2.4-2.9,5.2-2.8,8.1
						c0.1,1.5,0.5,2.9,1.2,4.2s1.7,2.4,2.7,3.3c2.1,1.9,4.7,3.3,7.2,4.4c2.6,1.1,5.2,2,7.9,2.8c5.3,1.5,10.6,2.4,15.7,3.2
						c5.1,0.7,10.1,1.2,14.9,1.6c6.8,0.5,17.1,0.7,27.3,0.4c-4.8,0.1-9.7,0.2-14.5,0.1l-1.7,0.2c6.6,0.3,13.1,0.3,19.7,0.3l-5.1,0.1
						c-6.3,0.1-12.6,0.1-18.8-0.1c-5.7-0.2-11.4-0.5-17.1-1.1c-3.5-0.4-7-0.8-10.6-1.4l0,0c-5.5-0.9-11.1-2.1-16.7-4.1
						c-2.8-1.1-5.6-2.3-8.1-4.3c-1.3-1-2.5-2.1-3.5-3.5c-0.5-0.7-1-1.5-1.3-2.3c-0.2-0.4-0.3-0.8-0.5-1.3c-0.1-0.3-0.1-0.4-0.2-0.6
						l0-0.1l0-0.2l-0.1-0.3c0,0.2,0.1,0.3,0.1,0.6l0.1,0.4c0.1,0.4,0.2,0.8,0.3,1.1c0.2,0.7,0.5,1.3,0.9,2c0.7,1.2,1.6,2.3,2.6,3.2
						c2,1.9,4.2,3.2,6.5,4.3c2.3,1.2,3.4,1.6,3.6,1.8c0.2,0.2-0.7,0-2.3-0.6c-1.6-0.6-4-1.6-6.6-3.4c-1.3-0.9-2.6-2.1-3.8-3.6
						c-0.6-0.8-1.1-1.6-1.5-2.5c-0.2-0.5-0.4-0.9-0.6-1.5l-0.1-0.4l-0.1-0.3l0-0.2l-0.1-0.2l-0.1-0.4c-0.4-2.1-0.1-4.3,0.5-6.1
						c0.6-1.9,1.5-3.5,2.4-4.9c0.4-0.5,0.8-1,1.1-1.5c-1,1.3-1.9,2.8-2.5,4.3c-0.7,1.5-1.2,3.1-1.3,4.7c-0.2,1.6,0,3,0.3,4.1
						c0.1,0.3,0.3,1.1,0.5,1.4c0.2,0.4,0.3,0.7,0.5,0.9c-1.4-3-1.2-5.6-0.8-7.6c0.4-1.9,1-3.3,1.6-4.4c1.2-2.3,2.2-3.8,4.4-6.2
						c0.9-0.8,1.9-1.6,2.8-2.3c3.1-2.7,6.5-5.1,9.9-7.2c-2.4,1.9,0.7-0.2,4.3-2.3c3.6-2.1,7.9-4.3,7.2-3.7c6.1-3.2,12.3-6,18.7-8.6
						c3.3-1.6,6.7-3.1,10.1-4.6c-7.2,2.6-14.6,5.6-20,7.9C50.3,65.3,46.7,67,46.9,66.4"/>
					<path class="st9" d="M75.3,54.5c0,0.5,6.5-1.7,16.3-4.9c9.8-3.1,23.1-7.1,36.4-10.7c-13.3,3.6-26.6,7.6-36.4,10.7
						C81.8,52.8,75.3,55,75.3,54.5"/>
					<path class="st9" d="M22.8,83.9c-2.1,2.4-3.2,4-4.4,6.2c-0.6,1.1-1.2,2.5-1.6,4.4c-0.4,1.9-0.6,4.5,0.8,7.5
						c-1.4-3-1.2-5.6-0.8-7.5c0.4-1.9,1-3.3,1.6-4.4C19.5,87.9,20.6,86.3,22.8,83.9"/>
					<line class="st17" x1="19.1" y1="88.2" x2="19.1" y2="88.2"/>
					<line class="st17" x1="22.8" y1="83.9" x2="22.8" y2="83.9"/>
					<line class="st17" x1="77" y1="53.4" x2="77" y2="53.4"/>
					<line class="st17" x1="99.4" y1="118.3" x2="99.4" y2="118.3"/>
					<line class="st17" x1="99.4" y1="118.3" x2="99.4" y2="118.3"/>
					<line class="st17" x1="111.4" y1="118" x2="111.4" y2="118"/>
					<path class="st10" d="M111.4,118c-4,0.2-8,0.2-12,0.3l-5.1,0.1c-6.3,0.1-12.6,0.1-18.8-0.1l-0.9,0c5.4,0.2,10.9,0.3,16.3,0.3
						c-6,0.1-12,0.1-18-0.1c6.9,0.4,15.4,0.5,24,0.2C101.7,118.5,106.5,118.3,111.4,118 M101.1,118.5L101.1,118.5 M94.2,118.4
						c-6.3,0.1-12.6,0.1-18.8-0.1C81.7,118.5,88,118.5,94.2,118.4 M94.2,118.4L94.2,118.4"/>
					<line class="st17" x1="94.2" y1="118.4" x2="94.2" y2="118.4"/>
					<path class="st9" d="M94.2,118.4c-6.3,0.1-12.6,0.1-18.8-0.1C81.7,118.5,88,118.5,94.2,118.4"/>
					<path class="st10" d="M22,84.5l0.7-0.6c-0.9,0.9-1.7,1.8-2.5,2.8C20.8,85.9,21.4,85.2,22,84.5"/>
					<line class="st17" x1="22.8" y1="83.9" x2="22.8" y2="83.9"/>
					<line class="st17" x1="95.4" y1="51.6" x2="95.4" y2="51.6"/>
					<polyline class="st10" points="95.4,51.6 96.2,51.5 95.4,51.6 					"/>
					<path class="st18" d="M13.9,92.9c0.6-1.9,1.4-3.4,2.1-4.6c0.8-1.2,1.5-2.2,2.1-2.9c1.3-1.6,2.4-2.5,3.1-3.1
						c1.5-1.2,1.9-1.2,1.7-0.8c-0.3,0.9-2.3,3.8-1,3.1c-0.6,0.7-1.2,1.4-1.8,2.2c-0.4,0.5-0.8,1-1.1,1.5c-0.9,1.4-1.8,3-2.4,4.9
						c-0.6,1.9-0.8,4-0.5,6.1l0.1,0.4l0.1,0.2l0,0.2l0.1,0.3l0.1,0.4c0.2,0.6,0.4,1,0.6,1.5c0.4,0.9,1,1.8,1.5,2.5
						c1.2,1.5,2.5,2.7,3.8,3.6c2.6,1.8,4.9,2.8,6.6,3.4c1.6,0.6,2.5,0.8,2.3,0.7c-0.2-0.2-1.3-0.6-3.6-1.8c-2.3-1.1-4.5-2.5-6.5-4.4
						c-1-0.9-1.9-2-2.6-3.2c-0.4-0.6-0.7-1.3-0.9-2c-0.1-0.3-0.2-0.7-0.3-1.1l-0.1-0.4c0-0.3-0.1-0.4-0.1-0.6l0.1,0.3l0,0.2l0,0.1
						c0,0.2,0.1,0.4,0.2,0.6c0.1,0.5,0.3,0.9,0.5,1.3c0.4,0.8,0.8,1.6,1.3,2.3c1,1.4,2.3,2.6,3.5,3.5c2.6,1.9,5.4,3.2,8.1,4.3
						c5.6,2.1,11.2,3.2,16.7,4.1c3.5,0.6,7.1,1,10.6,1.4c5.7,0.6,11.4,0.9,17.1,1.1l-0.9,0c-5.1-0.2-10.3-0.5-15.4-1
						c8.5,1.1,20.6,1.5,31.7,1.2c-6,0.1-12,0.1-18-0.1c6.9,0.4,15.4,0.5,24,0.2l-2.6,0.2c3.4,0.1,6.9,0.1,10.3,0.1
						c-6.6,0.2-13.1,0.3-19.7,0.2c-2.3,0.1-4.6,0.2-6.9,0.2c6.9,0.5,15.5,1.1,29.2,0.8c-9,0.3-17,0.2-25.8,0
						c-4.4-0.1-9-0.4-14.1-0.7c-5.1-0.4-10.6-0.9-16.9-1.8l-1.8,0c-1.7-0.3-3.4-0.7-5.1-1.1c3,0.8,7.7,1.7,12.3,2.4
						c4.6,0.7,9.2,1.1,11.7,1.5c-5.2-0.4-10.4-1-15.5-1.8c0.4,0.2,2.6,0.6,4.9,1l6.3,0.9c-6.4-0.7-10-1.4-13.9-2.3
						c-2-0.4-4-0.9-6.4-1.5c-2.4-0.6-5.3-1.3-9-2.4l-0.7-0.2l-1-0.4c-3.3-1.1-6.1-2.5-8.5-4c-2.4-1.5-4.3-3.2-5.7-5.1
						c-0.7-0.9-1.2-1.9-1.6-2.8c-0.2-0.5-0.4-0.9-0.5-1.4l-0.2-0.5l0-0.1l0,0l0,0l0-0.1l-0.1-0.3c-0.3-1.5-0.4-2.6-0.4-3.2
						c0-1.3-0.3-1.1-0.6,0.6c-0.1,0.8-0.2,2.1,0.1,3.5c0.2,1.5,0.8,3.3,1.9,5c-0.7-1-1.2-2.2-1.7-3.4c-0.1-0.3-0.2-0.7-0.3-1
						l-0.1-0.3l0-0.2l-0.1-0.3l0-0.2l0-0.1l0-0.1l0-0.2c0-0.2,0-0.3-0.1-0.5c0-0.3-0.1-0.6-0.1-1c-0.1-1.8,0.1-3.1,0.3-4.1
						c0.2-0.9,0.4-1.5,0.5-1.9c0.2-0.8,0.1-0.6-0.1-0.2C14.2,92.6,13.6,94.8,13.9,92.9"/>
					<path class="st9" d="M31.4,112.4c-0.2-0.2-1.3-0.6-3.6-1.8c-2.3-1.1-4.5-2.5-6.5-4.4c-1-0.9-1.9-2-2.6-3.2
						c-0.4-0.6-0.7-1.3-0.9-2c-0.1-0.3-0.2-0.7-0.3-1.1l-0.1-0.4c0-0.3-0.1-0.4-0.1-0.6c0,0.2,0.1,0.3,0.1,0.6l0.1,0.4
						c0.1,0.4,0.2,0.8,0.3,1.1c0.2,0.7,0.5,1.3,0.9,2c0.7,1.2,1.6,2.3,2.6,3.2c2,1.9,4.2,3.2,6.5,4.4
						C30,111.8,31.2,112.2,31.4,112.4"/>
					<path class="st9" d="M17.3,98.9l0.1,0.3l0,0.2l0,0.1c0,0.2,0.1,0.4,0.2,0.6c0.1,0.5,0.3,0.9,0.5,1.3c0.4,0.8,0.8,1.6,1.3,2.3
						c1,1.4,2.3,2.6,3.5,3.5c2.6,1.9,5.4,3.2,8.1,4.3c5.6,2.1,11.1,3.2,16.7,4.1c-5.5-0.9-11.1-2.1-16.7-4.1
						c-2.8-1.1-5.6-2.3-8.1-4.3c-1.3-1-2.5-2.1-3.5-3.5c-0.5-0.7-1-1.5-1.3-2.3c-0.2-0.4-0.3-0.8-0.5-1.3c-0.1-0.3-0.1-0.4-0.2-0.6
						l0-0.1l0-0.2L17.3,98.9"/>
					<path class="st9" d="M90.8,118.6c-6,0.1-12,0.1-18-0.1C78.8,118.7,84.8,118.7,90.8,118.6"/>
					<line class="st17" x1="72.8" y1="118.5" x2="72.8" y2="118.5"/>
					<polyline class="st9" points="74.5,118.4 75.4,118.3 74.5,118.4 					"/>
					<line class="st17" x1="16.5" y1="105.4" x2="16.5" y2="105.4"/>
					<line class="st17" x1="63.2" y1="120.5" x2="63.2" y2="120.5"/>
					<line class="st17" x1="107.2" y1="120.2" x2="107.2" y2="120.2"/>
					<line class="st17" x1="67.6" y1="120.5" x2="67.6" y2="120.5"/>
					<line class="st17" x1="33.2" y1="114.1" x2="33.2" y2="114.1"/>
					<line class="st17" x1="48.6" y1="117.6" x2="48.6" y2="117.6"/>
					<line class="st17" x1="104.6" y1="119.1" x2="104.6" y2="119.1"/>
					<line class="st17" x1="90.8" y1="118.6" x2="90.8" y2="118.6"/>
					<line class="st17" x1="74.5" y1="118.4" x2="74.5" y2="118.4"/>
					<line class="st17" x1="124.1" y1="116.1" x2="124.1" y2="116.1"/>
					<path class="st18" d="M124.1,116.1l3.4-0.4l4.2-0.6l-5.1,0.4l5.1-0.4l0.8-0.3c-4,0.3-8,0.6-11.9,0.8l6.8-0.5
						c-3.4,0.2-6.8,0.4-10.2,0.6c4.3-0.3,8.5-0.6,12.8-0.9l0-0.1l-4.2,0.3c-10.2,0.8-21.3,1.5-30.6,1.6c4.4-0.2,8.7-0.4,13.1-0.6
						c9.3-0.6,18.7-1.3,28.5-2.3l3.4-0.4c-12.7,1.3-27.2,2.4-36.5,2.5l2.7-0.2c8.8-0.5,16.2-1,23.7-1.6c7.5-0.6,15-1.4,23.9-2.6
						l1.4-0.2c-8.5,0.9-22,2.3-30.5,2.8c13.6-1,26.3-2.3,39-4l1.7-0.2c16.9-2.5,32-5.2,47-8.3c-6.4,1.3-12.8,2.5-19.3,3.6
						c6.4-1.1,12.9-2.3,19.3-3.6c24.2-5,46.5-10.7,69.3-18c-6,1.8-12,3.5-18.1,5.1c11.4-3.6,24.3-7.9,34.7-11.9
						c-16.8,6.1-31.6,10.3-48,14.7c16.4-4.4,31.2-8.7,48-14.7l3.2-1.2c-6.8,2.4-14.7,5.1-22.6,7.5c-7.9,2.5-15.9,4.7-22.9,6.6
						c9.8-2.7,18.1-5,29.3-8.8l-3.2,1l-4.9,1.6l4.9-1.6c10.5-3.5,19.3-6.6,28.1-10c9.3-4.2,20-9.5,30.2-15.7c1.7-1,3.3-2.1,5-3.2
						c-3.5,2.3-7.2,4.5-10.9,6.5c1.2-0.6,2.5-1.3,3.7-2c-5.2,2.9-10.5,5.5-15.9,7.9c-4.9,2.1-9.9,4.1-15,6
						c5.8-2.3,11.5-4.8,17.1-7.4c-1.5,0.7-3.1,1.3-4.7,2c-8.5,3.8-16.5,6.8-22.9,9c6.3-2.4,12.6-4.9,18.8-7.7
						c3.6-1.7,7.1-3.5,10.6-5.3l-1.7,0.3c-6.6,2.8-17.3,7.4-30.6,12.2l-2.4,0.9l0.9,0.1l-4.1,1.2c-2.4,0.9-4.7,1.9-7.1,2.8l-7.3,2.3
						c-4,1.5-9.2,3.2-14.9,4.9c-5.7,1.6-11.8,3.3-17.6,4.7l5-1.2c-2.6,0.9-5.7,1.8-9,2.6c-5,1.3-10.3,2.4-14.8,3.4
						c-3.3,0.7-6.6,1.3-9.9,2l-0.9,0.2l0.4-0.1l-0.4,0.1c-4.7,1-9.4,1.9-14.2,2.8l-7.5,1.3l-4.2,0.6l4.2-0.6l5-0.9l-4.2,0.6l8.4-1.5
						c-5.6,1-11.2,1.9-16.7,2.8l-5.9,0.9l1.7-0.3l-7.6,1c-5.3,0.8-10.6,1.5-16,2.1c-3.6,0.5-7.3,1-10.9,1.5c3.1-0.4,6.2-0.8,9.2-1.3
						l5-0.8c-5.6,0.8-11.2,1.5-16.8,2.1l0.8-0.2c-6.7,0.7-15.1,1.5-23.6,2.2l-0.8,0.1c-4.8,0.4-9.5,0.8-14.3,1
						c4.2-0.3,8.4-0.6,12.6-0.9l-0.9-0.2c-8.1,0.6-16.8,1.2-25.5,1.3c-2.2,0-4.3,0-6.5,0l1.7,0c-4.2,0-8.4,0-12.6-0.2
						c-7.1-0.2-14-0.6-20.6-1.3c1.8,0.3,3.7,0.6,5.6,0.9c-1.9-0.3-3.7-0.5-5.6-0.9c-5.9-0.7-11.6-1.7-16.7-3.3
						c-2.5-0.8-4.9-1.8-7-2.9c-2-1.2-3.7-2.6-4.6-4c-0.2-0.3-0.4-0.8-0.5-1.1l0-0.1l0,0l0-0.1l-0.1-0.2l0-0.1v0c0,0,0-0.1,0,0.1v0
						l0,0c0-0.2-0.1-0.4-0.1-0.6c-0.1-0.8,0-1.6,0.2-2.5c0.4-1.8,1.5-3.6,2.7-5.3c2.5-3.4,5.7-6.2,8.7-8.7c-2.3,1.8-4.5,3.6-6.4,5.6
						c-1.9,2-3.6,4.1-4.6,6.3c-1.1,2.2-1.3,4.2-0.7,6c0.6,1.7,2,3.3,3.8,4.5c2.7,1.9,6,3.2,9.5,4.3c3.5,1.1,7.1,1.9,10.8,2.5
						c7.4,1.3,15.1,1.9,23,2.3c1.7,0.1,3.5,0.2,5.2,0.2c-5.9,0-11.8-0.2-17.6-0.7l0.8,0.1c-1.4-0.1-2.8-0.2-4.2-0.3l3.3,0.2
						c-6.7-0.7-12.9-1.6-18.6-3.1c-2.9-0.7-5.6-1.6-8.1-2.7c-2.5-1.1-4.8-2.5-6.4-4.2c-1.6-1.7-2.4-3.6-2.2-5.7
						c0.2-2.1,1.3-4.4,2.9-6.5c3.2-4.2,7.8-7.9,12.7-11.2c-1.1,0.8-2.2,1.6-3.3,2.5c5.6-4.2,11.8-7.8,18.1-11.2
						c6.3-3.3,12.9-6.4,19.5-9.2c4.9-2.3,9.8-4.4,14.8-6.5c-4.3,1.5-8.5,3.1-12.7,4.8c2.3-1,4.7-2,7.1-2.9c1-0.4,5.1-2,5.5-2.2
						c0.2-0.1-1,0.3-5.6,2c-2.3,0.9-5.4,2.1-9.5,3.8c-4.1,1.7-9.2,3.9-15.5,6.9c-4.3,2.1-8.6,4.4-12.7,6.8
						c6.9-4.1,13.7-7.6,20.2-10.6c6.4-3,12.5-5.6,18-8c-3.5,1.2-6.9,2.5-10.4,3.9c-10.5,4.5-21.2,9.5-31.3,15.7
						c-3.3,2.1-6.6,4.3-9.6,6.7c-3,2.5-5.9,5.2-8.1,8.4c-1.6,2.4-2.9,5.2-2.8,8.2c0.1,1.5,0.5,2.9,1.2,4.2c0.7,1.3,1.7,2.4,2.7,3.3
						c2.1,1.9,4.7,3.3,7.2,4.4c2.6,1.1,5.2,2,7.9,2.8c5.3,1.5,10.6,2.4,15.7,3.2c5.1,0.7,10.1,1.2,14.9,1.6
						c6.8,0.5,17.1,0.7,27.3,0.4l1.7-0.1l-5.1,0c2.6,0,5.1-0.1,7.7-0.1c-4,0-8,0-12-0.1c5.1,0.1,10.2,0,15.4-0.1l2.6-0.2
						c-4.3,0.1-8.5,0.2-12.8,0.2c4.8,0,9.7-0.2,14.5-0.4l3.4-0.3C115.5,116.5,119.8,116.3,124.1,116.1 M282.3,82.4L282.3,82.4
						 M282.3,82.4L282.3,82.4 M243.7,93.2c12.4-3.1,23.1-5.8,38.6-10.8C266.8,87.4,256.1,90.1,243.7,93.2l-5,1.2l-3.3,0.8l3.3-0.8
						L243.7,93.2l-0.8,0.3c-4.4,1.1-8.8,2.2-13.2,3.2c4.4-1,8.8-2.1,13.2-3.2L243.7,93.2 M204.8,102.8L204.8,102.8 M204.8,102.8
						L204.8,102.8 M174.6,108c11.7-1.9,19.4-3,30.2-5.2C194,105,186.4,106,174.6,108 M192.3,105.2L192.3,105.2 M192.3,105.2
						L192.3,105.2 M164.5,109.6l-0.8,0.1l-8.4,1.2l8.4-1.2L164.5,109.6c10.1-1.4,17.7-2.5,27.8-4.3
						C182.2,107.1,174.6,108.1,164.5,109.6 M193.1,104.9L193.1,104.9 M234.7,95.6l-5,1.3L234.7,95.6 M167.1,109.3L167.1,109.3
						 M174.6,108L174.6,108 M164.5,109.6L164.5,109.6 M250.3,91.4L250.3,91.4 M229.7,96.7L229.7,96.7 M338,57.2L338,57.2 M25.7,86.7
						c2.4-2.6,5.2-5,8.1-7.1c2.9-2.2,6-4.2,9.1-6.1c-3.1,1.9-6.2,3.9-9.1,6.1C30.9,81.7,28.1,84.1,25.7,86.7 M25.7,86.7
						c2.4-2.6,5.2-5,8.1-7.1c2.9-2.2,6-4.2,9.1-6.1c-3.1,1.9-6.2,3.9-9.1,6.1C30.9,81.7,28.1,84.1,25.7,86.7 M25.7,86.7
						c-0.8,0.8-1.5,1.6-2.1,2.5c-0.6,0.9-1.2,1.8-1.7,2.7c-0.5,0.9-0.9,1.9-1.2,2.9c-0.2,0.9-0.4,1.9-0.3,2.8l0,0.3
						c0,0.2,0,0.5,0.1,0.7l0,0.2c0,0,0,0.1,0,0l0,0.1l0.1,0.4c0.1,0.4,0.3,0.8,0.5,1.3c0.4,0.9,1,1.7,1.7,2.4
						c0.7,0.8,1.5,1.4,2.3,2.1c0.9,0.6,1.8,1.2,2.7,1.7s1.9,0.9,3,1.4c0.8,0.3,1.5,0.6,2.3,0.9c1,0.4,2.1,0.7,3.2,1s2.1,0.6,3.2,0.8
						c1.1,0.2,2.2,0.5,3.3,0.7l2.5,0.4c1.1,0.2,2.2,0.4,3.3,0.5l2.5,0.3c-6.4-0.9-12.3-2-17.6-3.8c-2.7-0.9-5.2-2-7.4-3.4
						c-2.2-1.4-4.1-3.2-5-5.3c-0.1-0.2-0.1-0.3-0.2-0.5l-0.1-0.4l-0.1-0.4l-0.1-0.4c-0.2-1.1-0.1-2.3,0.2-3.5
						c0.1-0.3,0.1-0.6,0.2-0.8c0.3-1,0.8-1.9,1.3-2.8c0.3-0.5,0.6-1,1-1.5C24,88.7,24.8,87.7,25.7,86.7 M73.8,59.2l-4.2,1.7
						l-2.9,1.2l-3.1,1.4L60.5,65l-3.8,1.8l-1.8,0.9c-1.6,0.8-3.3,1.7-4.9,2.6l-0.1,0L47,72l3-1.7L47,72l3-1.7l0,0L47,72
						c1.2-0.7,2.5-1.4,3.8-2.1l2.1-1.1l3.8-1.9l1.2-0.6l3.6-1.7l2.1-1l2.2-1C68.6,61.4,71.3,60.3,73.8,59.2 M73.8,59.2L73.8,59.2
						 M295.6,74.2L295.6,74.2 M292.3,75.2L292.3,75.2l3.2-1L292.3,75.2"/>
					<path class="st15" d="M25.7,86.7c-1.5,1.6-2.8,3.3-3.8,5.1c-1,1.8-1.6,3.8-1.5,5.7c-0.1-0.9,0.1-1.8,0.3-2.8
						c0.3-1,0.7-1.9,1.2-2.9c0.5-0.9,1.1-1.8,1.7-2.7C24.2,88.3,25,87.5,25.7,86.7"/>
					<path class="st15" d="M23.3,89.7c-0.3,0.5-0.7,1-1,1.5c-0.5,0.9-1,1.9-1.3,2.8c-0.1,0.3-0.2,0.5-0.2,0.8
						C21.2,93.1,22.1,91.4,23.3,89.7"/>
					<path class="st15" d="M20.4,97.9c0.2,2.9,2.2,5.3,4.7,7.1c2.5,1.8,5.4,3.1,8.4,4.1c5.9,2,12,3,17.6,3.7l-2.5-0.3
						c-1.1-0.2-2.2-0.3-3.3-0.5l-2.5-0.4c-1.1-0.2-2.2-0.4-3.3-0.7c-1.1-0.2-2.2-0.5-3.2-0.8c-1.1-0.3-2.1-0.6-3.2-1
						c-0.8-0.3-1.6-0.6-2.3-0.9c-1-0.4-2-0.9-3-1.4s-1.9-1.1-2.7-1.7c-0.9-0.6-1.7-1.3-2.3-2c-0.7-0.7-1.3-1.6-1.7-2.4
						c-0.2-0.4-0.4-0.9-0.5-1.3l-0.1-0.4l0-0.1c0,0,0,0,0,0l0-0.2C20.5,98.3,20.5,98.1,20.4,97.9"/>
					<path class="st15" d="M20.6,98.4l0.1,0.4l0.1,0.4l0.1,0.4c0.1,0.2,0.1,0.3,0.2,0.5c-0.1-0.3-0.2-0.6-0.3-0.8
						c0-0.1-0.1-0.3-0.1-0.5L20.6,98.4"/>
					<polyline class="st11" points="211.7,98 212,98 212.6,97.8 211.7,98 					"/>
					<line class="st17" x1="57.2" y1="111.2" x2="57.2" y2="111.2"/>
					<path class="st9" d="M57.2,111.2c-1.9-0.3-3.7-0.5-5.6-0.9C53.5,110.6,55.3,110.9,57.2,111.2"/>
					<line class="st17" x1="338" y1="57.2" x2="338" y2="57.2"/>
					<line class="st17" x1="338" y1="57.2" x2="338" y2="57.2"/>
					<path class="st9" d="M338,57.2c-1.2,0.7-2.5,1.4-3.7,2C335.6,58.6,336.8,57.9,338,57.2"/>
					<path class="st9" d="M324.2,63.8c-5.6,2.7-11.3,5.1-17.1,7.4C312.9,68.9,318.6,66.4,324.2,63.8"/>
					<line class="st17" x1="307.2" y1="71.2" x2="307.2" y2="71.2"/>
					<path class="st9" d="M296.7,74.7c6.3-2.4,12.6-4.9,18.8-7.7C309.3,69.8,303,72.3,296.7,74.7"/>
					<path class="st9" d="M25.7,86.7c-0.8,0.8-1.5,1.6-2.1,2.5c-0.6,0.9-1.2,1.8-1.7,2.7c-0.5,0.9-0.9,1.9-1.2,2.9
						c-0.2,0.9-0.4,1.9-0.3,2.8c0-0.9,0.1-1.8,0.3-2.8c0.3-1,0.7-1.9,1.2-2.9c0.5-0.9,1.1-1.8,1.7-2.7C24.2,88.3,25,87.5,25.7,86.7"
						/>
					<path class="st9" d="M23.3,89.7c-0.3,0.5-0.7,1-1,1.5c-0.5,0.9-1,1.9-1.3,2.8c-0.1,0.3-0.2,0.5-0.2,0.8
						c0.1-0.3,0.2-0.6,0.2-0.8c0.3-1,0.8-1.9,1.3-2.8C22.6,90.7,22.9,90.2,23.3,89.7"/>
					<path class="st9" d="M20.4,97.9c0,0.2,0,0.5,0.1,0.7l0,0.2c0,0,0,0.1,0,0l0,0.1l0.1,0.4c0.1,0.4,0.3,0.8,0.5,1.3
						c0.4,0.9,1,1.7,1.7,2.4c0.7,0.8,1.5,1.4,2.3,2.1c0.9,0.6,1.8,1.2,2.7,1.7s1.9,0.9,3,1.4c0.8,0.3,1.5,0.6,2.3,0.9
						c1,0.4,2.1,0.7,3.2,1s2.1,0.6,3.2,0.8c1.1,0.2,2.2,0.5,3.3,0.7l2.5,0.4c1.1,0.2,2.2,0.4,3.3,0.5l2.5,0.3l-2.5-0.3
						c-1.1-0.2-2.2-0.3-3.3-0.5l-2.5-0.4c-1.1-0.2-2.2-0.5-3.3-0.7s-2.2-0.5-3.2-0.8c-1.1-0.3-2.1-0.6-3.2-1
						c-0.8-0.3-1.5-0.6-2.3-0.9c-1-0.4-2-0.9-3-1.4s-1.9-1.1-2.7-1.7c-0.9-0.6-1.6-1.3-2.3-2.1c-0.7-0.7-1.3-1.6-1.7-2.4
						c-0.2-0.4-0.4-0.9-0.5-1.3l-0.1-0.4l0-0.1c0,0.1,0,0,0,0l0-0.2C20.5,98.3,20.5,98.1,20.4,97.9"/>
					<path class="st9" d="M20.6,98.4l0.1,0.4l0.1,0.4l0.1,0.4c0.1,0.2,0.1,0.3,0.2,0.5c-0.1-0.2-0.1-0.3-0.2-0.5l-0.1-0.4l-0.1-0.4
						L20.6,98.4"/>
					<path class="st9" d="M43,73.5c-3.1,1.9-6.2,3.9-9.1,6.1c-2.9,2.2-5.7,4.5-8.1,7.2c2.4-2.6,5.2-5,8.1-7.2
						C36.8,77.4,39.9,75.4,43,73.5"/>
					<path class="st9" d="M43,73.5c-3.1,1.9-6.2,3.9-9.1,6.1c-2.9,2.2-5.7,4.5-8.1,7.2c2.4-2.6,5.2-5,8.1-7.2
						C36.8,77.4,39.9,75.4,43,73.5"/>
					<line class="st17" x1="95.9" y1="117.7" x2="95.9" y2="117.7"/>
					<path class="st9" d="M95.9,117.7c-10.2,0.3-20.5,0.1-27.3-0.4c-4.8-0.4-9.7-0.8-14.9-1.6c-5.1-0.7-10.4-1.7-15.7-3.2
						c-2.6-0.8-5.3-1.6-7.9-2.8c-2.6-1.1-5.1-2.5-7.2-4.4c-1.1-1-2-2.1-2.7-3.3c-0.7-1.3-1.1-2.7-1.2-4.2c-0.1-3,1.1-5.8,2.8-8.2
						c-1.6,2.4-2.9,5.2-2.8,8.2c0.1,1.5,0.5,2.9,1.2,4.2c0.7,1.3,1.7,2.4,2.7,3.3c2.1,1.9,4.7,3.3,7.2,4.4c2.6,1.1,5.2,2,7.9,2.8
						c5.3,1.5,10.6,2.4,15.7,3.2c5.1,0.7,10.1,1.2,14.9,1.6C75.4,117.8,85.7,118,95.9,117.7"/>
					<path class="st9" d="M70.8,58.8c-10.5,4.5-21.2,9.5-31.3,15.7C49.6,68.3,60.3,63.3,70.8,58.8"/>
					<line class="st17" x1="97.6" y1="117.6" x2="97.6" y2="117.6"/>
					<line class="st17" x1="97.6" y1="117.6" x2="97.6" y2="117.6"/>
					<line class="st17" x1="100.2" y1="117.5" x2="100.2" y2="117.5"/>
					<line class="st17" x1="103.6" y1="117.3" x2="103.6" y2="117.3"/>
					<line class="st17" x1="131.7" y1="115.1" x2="131.7" y2="115.1"/>
					<line class="st17" x1="281.7" y1="83.4" x2="281.7" y2="83.4"/>
					<line class="st17" x1="107.9" y1="117" x2="107.9" y2="117"/>
					<line class="st17" x1="127.4" y1="115.1" x2="127.4" y2="115.1"/>
					<line class="st17" x1="130" y1="114.8" x2="130" y2="114.8"/>
					<line class="st17" x1="212.4" y1="101.4" x2="212.4" y2="101.4"/>
					<line class="st17" x1="298.3" y1="76.7" x2="298.3" y2="76.7"/>
					<line class="st17" x1="136.7" y1="113.6" x2="136.7" y2="113.6"/>
					<line class="st17" x1="70.8" y1="58.8" x2="70.8" y2="58.8"/>
					<line class="st17" x1="310.1" y1="71.7" x2="310.1" y2="71.7"/>
					<line class="st17" x1="153.9" y1="111.3" x2="153.9" y2="111.3"/>
					<line class="st17" x1="242.9" y1="93.5" x2="242.9" y2="93.5"/>
					<line class="st17" x1="285.3" y1="80.7" x2="285.3" y2="80.7"/>
					<line class="st17" x1="334.3" y1="59.3" x2="334.3" y2="59.3"/>
					<line class="st17" x1="55.7" y1="66.7" x2="55.7" y2="66.7"/>
					<path class="st15" d="M63.6,63.5l3.1-1.4c-3.9,1.7-7.9,3.5-11.8,5.5l1.8-0.9l3.8-1.8L63.6,63.5"/>
					<polyline class="st15" points="65.9,62.6 63.6,63.6 61.5,64.6 65.9,62.6 					"/>
					<path class="st15" d="M57.9,66.3l-1.2,0.6L53,68.7l-2.1,1.1C53.1,68.6,55.5,67.5,57.9,66.3"/>
					<line class="st17" x1="324.2" y1="63.8" x2="324.2" y2="63.8"/>
					<polyline class="st15" points="50,70.3 50,70.3 50,70.3 50,70.3 					"/>
					<line class="st17" x1="34.1" y1="81.3" x2="34.1" y2="81.3"/>
					<line class="st17" x1="241.4" y1="91" x2="241.4" y2="91"/>
					<line class="st17" x1="195" y1="101.3" x2="195" y2="101.3"/>
					<line class="st17" x1="199.2" y1="100.4" x2="199.2" y2="100.4"/>
					<line class="st17" x1="83.1" y1="111.8" x2="83.1" y2="111.8"/>
					<polyline class="st10" points="93,52.4 91.4,53 93,52.4 					"/>
					<path class="st9" d="M86.5,54.4c20-7.2,39.7-12.6,60.3-17.7c-4.1,1.1-8.2,2.3-12.2,3.6l1.6-0.5c-2.7,0.7-6.2,1.7-10,2.7
						l-5.9,1.7c-6,1.8-12.3,3.7-17.5,5.4l-6.5,2l0,0l-0.9,0.1l4.8-1.8c-2.4,0.9-4.8,1.7-7.2,2.6L91.4,53c-6.6,2.5-13.2,5.1-19.7,7.9
						C76.6,58.6,81.5,56.5,86.5,54.4"/>
					<path class="st9" d="M126.1,42.5c3.8-1.1,7.2-2,10-2.7C133.4,40.5,129.9,41.4,126.1,42.5l-5.9,1.7L126.1,42.5"/>
					<polyline class="st9" points="136.1,39.8 134.5,40.3 136.1,39.8 					"/>
					<polyline class="st9" points="95.4,51.6 96.2,51.5 96.2,51.5 95.4,51.6 					"/>
					<path class="st9" d="M86.5,54.4c-5,2.1-9.9,4.2-14.8,6.5C76.6,58.6,81.5,56.5,86.5,54.4"/>
					<path class="st9" d="M89.3,51.5c12-4.3,27.5-9,40.5-12.4c-5.3,1.7-12.6,4.1-20.3,6.7c-7.8,2.6-15.9,5.6-23,8.5
						c-4.3,1.5-8.5,3.1-12.7,4.8c2.3-1,4.7-2,7.1-2.9c1-0.4,5.1-2,5.5-2.2c0.2-0.1-1,0.3-5.6,2c-2.3,0.9-5.4,2.1-9.5,3.8
						c-4.1,1.7-9.2,3.9-15.5,6.9c-4.3,2.1-8.6,4.4-12.7,6.8c6.9-4.1,13.7-7.6,20.2-10.6c6.4-3,12.5-5.6,18-8
						c-3.5,1.2-6.9,2.5-10.4,3.9c2.1-0.9,4.2-1.8,6.3-2.6c2.5-1,5.4-2.2,8.8-3.4L89.3,51.5"/>
					<path class="st9" d="M81.2,54.9c-5.5,2.3-11.6,4.9-18,7.9c-6.4,3-13.3,6.5-20.2,10.6c6.9-4.1,13.7-7.6,20.2-10.6
						C69.6,59.8,75.7,57.2,81.2,54.9"/>
					<path class="st9" d="M86.3,54c-0.4,0.2-4.5,1.8-5.5,2.2c-2.4,1-4.7,1.9-7.1,2.9c2.3-1,4.7-2,7.1-2.9
						C81.8,55.9,85.9,54.2,86.3,54"/>
					<line class="st17" x1="48.8" y1="68.3" x2="48.8" y2="68.3"/>
					<path class="st12" d="M48.8,68.3c6.3-3.3,12.7-6.2,19.2-9c19.5-8.2,39.7-14.7,60-20.4c6.2-1.7,12.4-3.2,18.6-4.8l6.2-1.5
						c6.8-1,12.8-1.6,17.1-1.8c-7.7,1.9-15.4,3.8-23.1,5.9c-20.6,5.1-40.3,10.5-60.3,17.7c7.1-2.9,15.3-5.9,23-8.5
						c7.8-2.7,15-5,20.3-6.7c-13,3.4-28.5,8-40.5,12.3h0l-3.4,1.2c-3.3,1.2-6.3,2.4-8.8,3.4c-2.1,0.8-4.2,1.7-6.3,2.6
						c-6.8,2.7-14.1,5.9-21.4,9.7c-3.7,1.9-7.4,4-11,6.3c-3.6,2.3-7.2,4.8-10.6,7.7c-1.1,1-2.2,2-3.2,3.1c-1.6,1.7-3.2,3.6-4.3,5.8
						c-1.1,2.1-1.9,4.6-1.6,7.1c0.3,2.6,1.7,4.9,3.6,6.6c1.8,1.7,4,3,6.2,4.1c0.7,0.5,1.5,0.9,2.3,1.3c-2.4-1-4.8-2.1-6.9-3.7
						c-2.1-1.5-4.1-3.6-5-6.2c-0.5-1.3-0.6-2.7-0.5-4.1c0.1-1.4,0.5-2.7,1-3.9c1-2.5,2.6-4.6,4.4-6.6c3.5-3.9,7.6-7,11.9-9.9
						C39.8,73.3,44.2,70.7,48.8,68.3"/>
					<line class="st17" x1="128" y1="39" x2="128" y2="39"/>
					<line class="st17" x1="152.8" y1="32.6" x2="152.8" y2="32.6"/>
					<line class="st17" x1="152.8" y1="32.6" x2="152.8" y2="32.6"/>
					<path class="st9" d="M48.8,68.3c-4.5,2.4-9,4.9-13.2,7.8c-4.2,2.9-8.4,6-11.9,9.9c-1.7,1.9-3.3,4.1-4.4,6.6
						c-0.5,1.2-0.9,2.6-1,3.9c-0.1,1.4,0.1,2.8,0.5,4.1c0.9,2.6,2.9,4.7,5,6.2c2.1,1.6,4.5,2.7,6.9,3.7c-2.4-1-4.8-2.1-6.9-3.7
						c-2.1-1.5-4.1-3.6-5-6.2c-0.5-1.3-0.6-2.7-0.5-4.1c0.1-1.4,0.5-2.7,1-3.9c1-2.5,2.6-4.6,4.4-6.6c3.5-3.9,7.6-7,11.9-9.9
						C39.8,73.3,44.2,70.7,48.8,68.3"/>
					<path class="st9" d="M67.9,59.3c19.5-8.2,39.7-14.7,60-20.4C107.6,44.6,87.5,51.1,67.9,59.3"/>
					<path class="st9" d="M18.7,98.5c-0.3-2.5,0.4-5,1.6-7.1c1.1-2.2,2.7-4,4.3-5.8c1-1.1,2.1-2.1,3.2-3.1c3.3-2.9,6.9-5.4,10.6-7.7
						c3.6-2.3,7.4-4.4,11-6.3c-3.7,1.9-7.4,4-11,6.3c-3.6,2.3-7.2,4.8-10.6,7.7c-1.1,1-2.2,2-3.2,3.1c-1.6,1.7-3.2,3.6-4.3,5.8
						C19.1,93.5,18.4,96,18.7,98.5"/>
					<line class="st17" x1="128" y1="39" x2="128" y2="39"/>
					<line class="st17" x1="128" y1="39" x2="128" y2="39"/>
					<line class="st17" x1="27.8" y1="82.5" x2="27.8" y2="82.5"/>
					<polyline class="st9" points="89.3,51.5 89.3,51.5 85.9,52.8 89.3,51.5 					"/>
					<path class="st9" d="M129.8,39.2c-5.3,1.7-12.6,4.1-20.3,6.7c-7.8,2.6-15.9,5.6-23,8.5c7.1-2.9,15.3-5.9,23-8.5
						C117.2,43.2,124.5,40.9,129.8,39.2"/>
					<line class="st17" x1="152.8" y1="32.6" x2="152.8" y2="32.6"/>
					<line class="st17" x1="128" y1="39" x2="128" y2="39"/>
					<line class="st17" x1="128" y1="39" x2="128" y2="39"/>
					<path class="st10" d="M128,39c8.2-2.3,16.5-4.4,24.8-6.3l-6.2,1.5C140.4,35.7,134.1,37.3,128,39"/>
					<line class="st17" x1="152.8" y1="32.6" x2="152.8" y2="32.6"/>
					<path class="st9" d="M128,39c8.2-2.3,16.5-4.4,24.8-6.3C144.5,34.6,136.2,36.7,128,39"/>
				</g>
			</g>
		</g>
	</g>
	
		<linearGradient id="SVGID_2_" gradientUnits="userSpaceOnUse" x1="940.6221" y1="-946.3755" x2="964.7393" y2="-946.3755" gradientTransform="matrix(0.9922 -0.1249 -0.1249 -0.9922 -1015.5173 -704.7087)">
		<stop  offset="0" style="stop-color:#CBDFED"/>
		<stop  offset="9.500000e-03" style="stop-color:#C4DBEC"/>
		<stop  offset="7.370000e-02" style="stop-color:#99C1E3"/>
		<stop  offset="0.1357" style="stop-color:#73AEDB"/>
		<stop  offset="0.1943" style="stop-color:#51A0D6"/>
		<stop  offset="0.2479" style="stop-color:#3898D2"/>
		<stop  offset="0.2921" style="stop-color:#2C96D1"/>
		<stop  offset="0.6461" style="stop-color:#256D9A"/>
		<stop  offset="0.8106" style="stop-color:#304D7A"/>
		<stop  offset="1" style="stop-color:#322A59"/>
	</linearGradient>
	<path class="st1" d="M59.9,113.8c0.8,6.6-3.9,12.6-10.5,13.5c-6.6,0.8-12.6-3.8-13.5-10.4c-0.8-6.6,3.8-12.6,10.5-13.5
		C53,102.5,59.1,107.2,59.9,113.8z"/>
	<g>
		
			<linearGradient id="SVGID_3_" gradientUnits="userSpaceOnUse" x1="1103.7617" y1="-1275.2817" x2="1116.2822" y2="-1275.2817" gradientTransform="matrix(0.4785 0.8781 0.8781 -0.4785 845.4873 -1554.7418)">
			<stop  offset="0" style="stop-color:#CBDFED"/>
			<stop  offset="9.500000e-03" style="stop-color:#C4DBEC"/>
			<stop  offset="7.370000e-02" style="stop-color:#99C1E3"/>
			<stop  offset="0.1357" style="stop-color:#73AEDB"/>
			<stop  offset="0.1943" style="stop-color:#51A0D6"/>
			<stop  offset="0.2479" style="stop-color:#3898D2"/>
			<stop  offset="0.2921" style="stop-color:#2C96D1"/>
			<stop  offset="0.6461" style="stop-color:#256D9A"/>
			<stop  offset="0.8106" style="stop-color:#304D7A"/>
			<stop  offset="1" style="stop-color:#322A59"/>
		</linearGradient>
		<path class="st2" d="M256.6,36.4c-3.4-0.1-6.2-3-6-6.5c0.1-3.5,3-6.2,6.5-6c3.5,0.1,6.2,3,6,6.5C262.9,33.9,260,36.6,256.6,36.4z"
			/>
		
			<linearGradient id="SVGID_4_" gradientUnits="userSpaceOnUse" x1="1097.4785" y1="-1268.8047" x2="1111.5557" y2="-1268.8047" gradientTransform="matrix(0.4785 0.8781 0.8781 -0.4785 845.4873 -1554.7418)">
			<stop  offset="0" style="stop-color:#CBDFED"/>
			<stop  offset="9.500000e-03" style="stop-color:#C4DBEC"/>
			<stop  offset="7.370000e-02" style="stop-color:#99C1E3"/>
			<stop  offset="0.1357" style="stop-color:#73AEDB"/>
			<stop  offset="0.1943" style="stop-color:#51A0D6"/>
			<stop  offset="0.2479" style="stop-color:#3898D2"/>
			<stop  offset="0.2921" style="stop-color:#2C96D1"/>
			<stop  offset="0.6461" style="stop-color:#256D9A"/>
			<stop  offset="0.8106" style="stop-color:#304D7A"/>
			<stop  offset="1" style="stop-color:#322A59"/>
		</linearGradient>
		<path class="st3" d="M251.5,18.8c6.3-2.6,13.4,0.1,16.4,6.1l0,0c0.1,0.2,0.2,0.5,0.4,0.8l0,0l-1.7,0.7c-0.1-0.2-0.2-0.4-0.3-0.7
			l0,0c-2.5-5.1-8.6-7.4-14-5.2l0,0h0L251.5,18.8L251.5,18.8z"/>
		
			<linearGradient id="SVGID_5_" gradientUnits="userSpaceOnUse" x1="1081.7627" y1="-1260.0605" x2="1113.2119" y2="-1260.0605" gradientTransform="matrix(0.4785 0.8781 0.8781 -0.4785 845.4873 -1554.7418)">
			<stop  offset="0" style="stop-color:#CBDFED"/>
			<stop  offset="9.500000e-03" style="stop-color:#C4DBEC"/>
			<stop  offset="7.370000e-02" style="stop-color:#99C1E3"/>
			<stop  offset="0.1357" style="stop-color:#73AEDB"/>
			<stop  offset="0.1943" style="stop-color:#51A0D6"/>
			<stop  offset="0.2479" style="stop-color:#3898D2"/>
			<stop  offset="0.2921" style="stop-color:#2C96D1"/>
			<stop  offset="0.6461" style="stop-color:#256D9A"/>
			<stop  offset="0.8106" style="stop-color:#304D7A"/>
			<stop  offset="1" style="stop-color:#322A59"/>
		</linearGradient>
		<path class="st4" d="M245.5,4.2c14-5.8,29.9,0.3,36.6,13.6l0,0c0.3,0.6,0.6,1.2,0.8,1.8l0,0l-1.7,0.7c-0.2-0.6-0.5-1.1-0.8-1.7
			l0,0c-6.2-12.5-21.1-18.2-34.2-12.7l0,0l0,0L245.5,4.2L245.5,4.2z"/>
		
			<linearGradient id="SVGID_6_" gradientUnits="userSpaceOnUse" x1="1089.627" y1="-1264.4326" x2="1112.3789" y2="-1264.4326" gradientTransform="matrix(0.4785 0.8781 0.8781 -0.4785 845.4873 -1554.7418)">
			<stop  offset="0" style="stop-color:#CBDFED"/>
			<stop  offset="9.500000e-03" style="stop-color:#C4DBEC"/>
			<stop  offset="7.370000e-02" style="stop-color:#99C1E3"/>
			<stop  offset="0.1357" style="stop-color:#73AEDB"/>
			<stop  offset="0.1943" style="stop-color:#51A0D6"/>
			<stop  offset="0.2479" style="stop-color:#3898D2"/>
			<stop  offset="0.2921" style="stop-color:#2C96D1"/>
			<stop  offset="0.6461" style="stop-color:#256D9A"/>
			<stop  offset="0.8106" style="stop-color:#304D7A"/>
			<stop  offset="1" style="stop-color:#322A59"/>
		</linearGradient>
		<path class="st5" d="M249.2,13.2L249.2,13.2L249.2,13.2L249.2,13.2L249.2,13.2L249.2,13.2z M248.5,11.5
			c10.1-4.2,21.7,0.2,26.5,9.9l0,0c0.2,0.4,0.4,0.8,0.6,1.3l0,0l-1.7,0.7c-0.2-0.4-0.3-0.8-0.5-1.2l0,0c-4.4-8.8-14.9-12.8-24.1-9
			l0,0L248.5,11.5L248.5,11.5z"/>
	</g>
	
		<linearGradient id="SVGID_7_" gradientUnits="userSpaceOnUse" x1="666.6621" y1="-941.7041" x2="695.8516" y2="-941.7041" gradientTransform="matrix(0.9864 -0.1645 -0.1645 -0.9864 -732.5711 -803.1048)">
		<stop  offset="0" style="stop-color:#CBDFED"/>
		<stop  offset="9.500000e-03" style="stop-color:#C4DBEC"/>
		<stop  offset="7.370000e-02" style="stop-color:#99C1E3"/>
		<stop  offset="0.1357" style="stop-color:#73AEDB"/>
		<stop  offset="0.1943" style="stop-color:#51A0D6"/>
		<stop  offset="0.2479" style="stop-color:#3898D2"/>
		<stop  offset="0.2921" style="stop-color:#2C96D1"/>
		<stop  offset="0.6461" style="stop-color:#256D9A"/>
		<stop  offset="0.8106" style="stop-color:#304D7A"/>
		<stop  offset="1" style="stop-color:#322A59"/>
	</linearGradient>
	<polygon class="st6" points="92.1,0 97.2,9.9 108.2,8.2 100.3,16 105.4,26 95.4,20.9 87.6,28.8 89.3,17.8 79.4,12.7 90.4,11 	"/>
	
		<linearGradient id="SVGID_8_" gradientUnits="userSpaceOnUse" x1="660.627" y1="-998.6011" x2="682.0859" y2="-998.6011" gradientTransform="matrix(0.9053 -0.4249 -0.4249 -0.9053 -816.3486 -484.7983)">
		<stop  offset="0" style="stop-color:#CBDFED"/>
		<stop  offset="9.500000e-03" style="stop-color:#C4DBEC"/>
		<stop  offset="7.370000e-02" style="stop-color:#99C1E3"/>
		<stop  offset="0.1357" style="stop-color:#73AEDB"/>
		<stop  offset="0.1943" style="stop-color:#51A0D6"/>
		<stop  offset="0.2479" style="stop-color:#3898D2"/>
		<stop  offset="0.2921" style="stop-color:#2C96D1"/>
		<stop  offset="0.6461" style="stop-color:#256D9A"/>
		<stop  offset="0.8106" style="stop-color:#304D7A"/>
		<stop  offset="1" style="stop-color:#322A59"/>
	</linearGradient>
	<polygon class="st7" points="214.8,144.7 206,138.5 206.9,127.8 216.6,123.3 225.5,129.4 224.5,140.1 	"/>
	<g>
		
			<linearGradient id="SVGID_9_" gradientUnits="userSpaceOnUse" x1="1080.6348" y1="-1049.6953" x2="1080.6348" y2="-1063.0178" gradientTransform="matrix(1 0 0 -1 -867 -962.5)">
			<stop  offset="0" style="stop-color:#CBDFED"/>
			<stop  offset="9.500000e-03" style="stop-color:#C4DBEC"/>
			<stop  offset="7.370000e-02" style="stop-color:#99C1E3"/>
			<stop  offset="0.1357" style="stop-color:#73AEDB"/>
			<stop  offset="0.1943" style="stop-color:#51A0D6"/>
			<stop  offset="0.2479" style="stop-color:#3898D2"/>
			<stop  offset="0.2921" style="stop-color:#2C96D1"/>
			<stop  offset="0.6461" style="stop-color:#256D9A"/>
			<stop  offset="0.8106" style="stop-color:#304D7A"/>
			<stop  offset="1" style="stop-color:#322A59"/>
		</linearGradient>
		<path class="st8" d="M211.2,99.1c0.5,0.3,1.3,0.6,2.1,0.6c1.2,0,1.9-0.6,1.9-1.5c0-0.9-0.5-1.3-1.7-1.8c-1.5-0.5-2.4-1.3-2.4-2.6
			c0-1.4,1.2-2.5,2.9-2.5c0.9,0,1.6,0.2,2,0.5l-0.3,1c-0.3-0.2-0.9-0.4-1.7-0.4c-1.2,0-1.7,0.7-1.7,1.4c0,0.9,0.6,1.3,1.8,1.8
			c1.5,0.6,2.3,1.3,2.3,2.7c0,1.4-1,2.6-3.2,2.6c-0.9,0-1.8-0.3-2.3-0.6L211.2,99.1z"/>
		
			<linearGradient id="SVGID_10_" gradientUnits="userSpaceOnUse" x1="1088.0098" y1="-1049.6978" x2="1088.0098" y2="-1063.019" gradientTransform="matrix(1 0 0 -1 -867 -962.5)">
			<stop  offset="0" style="stop-color:#CBDFED"/>
			<stop  offset="9.500000e-03" style="stop-color:#C4DBEC"/>
			<stop  offset="7.370000e-02" style="stop-color:#99C1E3"/>
			<stop  offset="0.1357" style="stop-color:#73AEDB"/>
			<stop  offset="0.1943" style="stop-color:#51A0D6"/>
			<stop  offset="0.2479" style="stop-color:#3898D2"/>
			<stop  offset="0.2921" style="stop-color:#2C96D1"/>
			<stop  offset="0.6461" style="stop-color:#256D9A"/>
			<stop  offset="0.8106" style="stop-color:#304D7A"/>
			<stop  offset="1" style="stop-color:#322A59"/>
		</linearGradient>
		<path class="st20" d="M218,96.1c0-0.8,0-1.5-0.1-2.1h1.1l0,1.1h0c0.5-0.8,1.2-1.3,2.3-1.3c1.6,0,2.8,1.3,2.8,3.3
			c0,2.3-1.4,3.5-3,3.5c-0.9,0-1.6-0.4-2-1h0v3.5H218V96.1L218,96.1z M219.1,97.9c0,0.2,0,0.3,0.1,0.5c0.2,0.8,0.9,1.4,1.8,1.4
			c1.3,0,2-1,2-2.5c0-1.3-0.7-2.4-2-2.4c-0.8,0-1.6,0.6-1.8,1.5c0,0.2-0.1,0.3-0.1,0.5V97.9z"/>
		
			<linearGradient id="SVGID_11_" gradientUnits="userSpaceOnUse" x1="1094.7344" y1="-1049.6978" x2="1094.7344" y2="-1063.0177" gradientTransform="matrix(1 0 0 -1 -867 -962.5)">
			<stop  offset="0" style="stop-color:#CBDFED"/>
			<stop  offset="9.500000e-03" style="stop-color:#C4DBEC"/>
			<stop  offset="7.370000e-02" style="stop-color:#99C1E3"/>
			<stop  offset="0.1357" style="stop-color:#73AEDB"/>
			<stop  offset="0.1943" style="stop-color:#51A0D6"/>
			<stop  offset="0.2479" style="stop-color:#3898D2"/>
			<stop  offset="0.2921" style="stop-color:#2C96D1"/>
			<stop  offset="0.6461" style="stop-color:#256D9A"/>
			<stop  offset="0.8106" style="stop-color:#304D7A"/>
			<stop  offset="1" style="stop-color:#322A59"/>
		</linearGradient>
		<path class="st21" d="M230.2,99c0,0.6,0,1.1,0.1,1.6h-1.1l-0.1-0.8h0c-0.4,0.5-1.1,1-2,1c-1.3,0-2-0.9-2-1.9
			c0-1.6,1.4-2.4,3.9-2.4v-0.1c0-0.5-0.2-1.5-1.5-1.5c-0.6,0-1.2,0.2-1.7,0.5l-0.3-0.8c0.5-0.3,1.3-0.6,2.2-0.6c2,0,2.5,1.4,2.5,2.7
			L230.2,99L230.2,99z M229.1,97.2c-1.3,0-2.8,0.2-2.8,1.5c0,0.8,0.5,1.1,1.1,1.1c0.9,0,1.4-0.5,1.6-1.1c0-0.1,0.1-0.3,0.1-0.4V97.2
			L229.1,97.2z"/>
		
			<linearGradient id="SVGID_12_" gradientUnits="userSpaceOnUse" x1="1100.2939" y1="-1049.6987" x2="1100.2939" y2="-1063.0188" gradientTransform="matrix(1 0 0 -1 -867 -962.5)">
			<stop  offset="0" style="stop-color:#CBDFED"/>
			<stop  offset="9.500000e-03" style="stop-color:#C4DBEC"/>
			<stop  offset="7.370000e-02" style="stop-color:#99C1E3"/>
			<stop  offset="0.1357" style="stop-color:#73AEDB"/>
			<stop  offset="0.1943" style="stop-color:#51A0D6"/>
			<stop  offset="0.2479" style="stop-color:#3898D2"/>
			<stop  offset="0.2921" style="stop-color:#2C96D1"/>
			<stop  offset="0.6461" style="stop-color:#256D9A"/>
			<stop  offset="0.8106" style="stop-color:#304D7A"/>
			<stop  offset="1" style="stop-color:#322A59"/>
		</linearGradient>
		<path class="st22" d="M233.5,92.4V94h1.7v0.9h-1.7v3.5c0,0.8,0.2,1.3,0.9,1.3c0.3,0,0.5,0,0.7-0.1l0.1,0.9
			c-0.2,0.1-0.6,0.2-1.1,0.2c-0.5,0-1-0.2-1.3-0.5c-0.3-0.4-0.5-0.9-0.5-1.7v-3.6h-1V94h1v-1.2L233.5,92.4z"/>
		
			<linearGradient id="SVGID_13_" gradientUnits="userSpaceOnUse" x1="1104.1641" y1="-1049.6987" x2="1104.1641" y2="-1063.0168" gradientTransform="matrix(1 0 0 -1 -867 -962.5)">
			<stop  offset="0" style="stop-color:#CBDFED"/>
			<stop  offset="9.500000e-03" style="stop-color:#C4DBEC"/>
			<stop  offset="7.370000e-02" style="stop-color:#99C1E3"/>
			<stop  offset="0.1357" style="stop-color:#73AEDB"/>
			<stop  offset="0.1943" style="stop-color:#51A0D6"/>
			<stop  offset="0.2479" style="stop-color:#3898D2"/>
			<stop  offset="0.2921" style="stop-color:#2C96D1"/>
			<stop  offset="0.6461" style="stop-color:#256D9A"/>
			<stop  offset="0.8106" style="stop-color:#304D7A"/>
			<stop  offset="1" style="stop-color:#322A59"/>
		</linearGradient>
		<path class="st23" d="M237.9,92.2c0,0.4-0.3,0.7-0.8,0.7c-0.4,0-0.7-0.3-0.7-0.7c0-0.4,0.3-0.7,0.7-0.7
			C237.6,91.4,237.9,91.7,237.9,92.2z M236.6,100.5V94h1.2v6.5H236.6z"/>
		
			<linearGradient id="SVGID_14_" gradientUnits="userSpaceOnUse" x1="1108.834" y1="-1049.6978" x2="1108.834" y2="-1063.0177" gradientTransform="matrix(1 0 0 -1 -867 -962.5)">
			<stop  offset="0" style="stop-color:#CBDFED"/>
			<stop  offset="9.500000e-03" style="stop-color:#C4DBEC"/>
			<stop  offset="7.370000e-02" style="stop-color:#99C1E3"/>
			<stop  offset="0.1357" style="stop-color:#73AEDB"/>
			<stop  offset="0.1943" style="stop-color:#51A0D6"/>
			<stop  offset="0.2479" style="stop-color:#3898D2"/>
			<stop  offset="0.2921" style="stop-color:#2C96D1"/>
			<stop  offset="0.6461" style="stop-color:#256D9A"/>
			<stop  offset="0.8106" style="stop-color:#304D7A"/>
			<stop  offset="1" style="stop-color:#322A59"/>
		</linearGradient>
		<path class="st24" d="M244.3,99c0,0.6,0,1.1,0.1,1.6h-1.1l-0.1-0.8h0c-0.4,0.5-1.1,1-2,1c-1.3,0-2-0.9-2-1.9
			c0-1.6,1.4-2.4,3.9-2.4v-0.1c0-0.5-0.2-1.5-1.5-1.5c-0.6,0-1.2,0.2-1.7,0.5l-0.3-0.8c0.5-0.3,1.3-0.6,2.1-0.6c2,0,2.5,1.4,2.5,2.7
			L244.3,99L244.3,99z M243.2,97.2c-1.3,0-2.8,0.2-2.8,1.5c0,0.8,0.5,1.1,1.1,1.1c0.9,0,1.4-0.5,1.6-1.1c0-0.1,0.1-0.3,0.1-0.4V97.2
			L243.2,97.2z"/>
		
			<linearGradient id="SVGID_15_" gradientUnits="userSpaceOnUse" x1="1113.8438" y1="-1049.6973" x2="1113.8438" y2="-1063.0189" gradientTransform="matrix(1 0 0 -1 -867 -962.5)">
			<stop  offset="0" style="stop-color:#CBDFED"/>
			<stop  offset="9.500000e-03" style="stop-color:#C4DBEC"/>
			<stop  offset="7.370000e-02" style="stop-color:#99C1E3"/>
			<stop  offset="0.1357" style="stop-color:#73AEDB"/>
			<stop  offset="0.1943" style="stop-color:#51A0D6"/>
			<stop  offset="0.2479" style="stop-color:#3898D2"/>
			<stop  offset="0.2921" style="stop-color:#2C96D1"/>
			<stop  offset="0.6461" style="stop-color:#256D9A"/>
			<stop  offset="0.8106" style="stop-color:#304D7A"/>
			<stop  offset="1" style="stop-color:#322A59"/>
		</linearGradient>
		<path class="st25" d="M246.2,90.9h1.2v9.6h-1.2V90.9z"/>
		
			<linearGradient id="SVGID_16_" gradientUnits="userSpaceOnUse" x1="1123.084" y1="-1049.6943" x2="1123.084" y2="-1063.0193" gradientTransform="matrix(1 0 0 -1 -867 -962.5)">
			<stop  offset="0" style="stop-color:#CBDFED"/>
			<stop  offset="9.500000e-03" style="stop-color:#C4DBEC"/>
			<stop  offset="7.370000e-02" style="stop-color:#99C1E3"/>
			<stop  offset="0.1357" style="stop-color:#73AEDB"/>
			<stop  offset="0.1943" style="stop-color:#51A0D6"/>
			<stop  offset="0.2479" style="stop-color:#3898D2"/>
			<stop  offset="0.2921" style="stop-color:#2C96D1"/>
			<stop  offset="0.6461" style="stop-color:#256D9A"/>
			<stop  offset="0.8106" style="stop-color:#304D7A"/>
			<stop  offset="1" style="stop-color:#322A59"/>
		</linearGradient>
		<path class="st26" d="M252.3,91.5c0.7-0.1,1.6-0.2,2.5-0.2c1.7,0,2.9,0.4,3.7,1.1c0.8,0.7,1.3,1.8,1.3,3.3c0,1.5-0.5,2.7-1.3,3.5
			c-0.8,0.9-2.3,1.3-4,1.3c-0.8,0-1.5,0-2.1-0.1V91.5z M253.5,99.6c0.3,0.1,0.7,0.1,1.2,0.1c2.5,0,3.9-1.4,3.9-3.9
			c0-2.1-1.2-3.5-3.7-3.5c-0.6,0-1.1,0-1.4,0.1V99.6L253.5,99.6z"/>
		
			<linearGradient id="SVGID_17_" gradientUnits="userSpaceOnUse" x1="1130.4043" y1="-1049.6978" x2="1130.4043" y2="-1063.0177" gradientTransform="matrix(1 0 0 -1 -867 -962.5)">
			<stop  offset="0" style="stop-color:#CBDFED"/>
			<stop  offset="9.500000e-03" style="stop-color:#C4DBEC"/>
			<stop  offset="7.370000e-02" style="stop-color:#99C1E3"/>
			<stop  offset="0.1357" style="stop-color:#73AEDB"/>
			<stop  offset="0.1943" style="stop-color:#51A0D6"/>
			<stop  offset="0.2479" style="stop-color:#3898D2"/>
			<stop  offset="0.2921" style="stop-color:#2C96D1"/>
			<stop  offset="0.6461" style="stop-color:#256D9A"/>
			<stop  offset="0.8106" style="stop-color:#304D7A"/>
			<stop  offset="1" style="stop-color:#322A59"/>
		</linearGradient>
		<path class="st27" d="M265.9,99c0,0.6,0,1.1,0.1,1.6h-1.1l-0.1-0.8h0c-0.4,0.5-1.1,1-2,1c-1.3,0-2-0.9-2-1.9
			c0-1.6,1.4-2.4,3.9-2.4v-0.1c0-0.5-0.2-1.5-1.5-1.5c-0.6,0-1.2,0.2-1.7,0.5l-0.3-0.8c0.5-0.3,1.3-0.6,2.2-0.6c2,0,2.5,1.4,2.5,2.7
			L265.9,99L265.9,99z M264.8,97.2c-1.3,0-2.8,0.2-2.8,1.5c0,0.8,0.5,1.1,1.1,1.1c0.9,0,1.4-0.5,1.6-1.1c0-0.1,0.1-0.3,0.1-0.4V97.2
			L264.8,97.2z"/>
		
			<linearGradient id="SVGID_18_" gradientUnits="userSpaceOnUse" x1="1135.9648" y1="-1049.6987" x2="1135.9648" y2="-1063.0188" gradientTransform="matrix(1 0 0 -1 -867 -962.5)">
			<stop  offset="0" style="stop-color:#CBDFED"/>
			<stop  offset="9.500000e-03" style="stop-color:#C4DBEC"/>
			<stop  offset="7.370000e-02" style="stop-color:#99C1E3"/>
			<stop  offset="0.1357" style="stop-color:#73AEDB"/>
			<stop  offset="0.1943" style="stop-color:#51A0D6"/>
			<stop  offset="0.2479" style="stop-color:#3898D2"/>
			<stop  offset="0.2921" style="stop-color:#2C96D1"/>
			<stop  offset="0.6461" style="stop-color:#256D9A"/>
			<stop  offset="0.8106" style="stop-color:#304D7A"/>
			<stop  offset="1" style="stop-color:#322A59"/>
		</linearGradient>
		<path class="st28" d="M269.2,92.4V94h1.7v0.9h-1.7v3.5c0,0.8,0.2,1.3,0.9,1.3c0.3,0,0.5,0,0.7-0.1l0.1,0.9
			c-0.2,0.1-0.6,0.2-1.1,0.2c-0.5,0-1-0.2-1.3-0.5c-0.3-0.4-0.5-0.9-0.5-1.7v-3.6h-1V94h1v-1.2L269.2,92.4z"/>
		
			<linearGradient id="SVGID_19_" gradientUnits="userSpaceOnUse" x1="1141.3281" y1="-1049.6978" x2="1141.3281" y2="-1063.0177" gradientTransform="matrix(1 0 0 -1 -867 -962.5)">
			<stop  offset="0" style="stop-color:#CBDFED"/>
			<stop  offset="9.500000e-03" style="stop-color:#C4DBEC"/>
			<stop  offset="7.370000e-02" style="stop-color:#99C1E3"/>
			<stop  offset="0.1357" style="stop-color:#73AEDB"/>
			<stop  offset="0.1943" style="stop-color:#51A0D6"/>
			<stop  offset="0.2479" style="stop-color:#3898D2"/>
			<stop  offset="0.2921" style="stop-color:#2C96D1"/>
			<stop  offset="0.6461" style="stop-color:#256D9A"/>
			<stop  offset="0.8106" style="stop-color:#304D7A"/>
			<stop  offset="1" style="stop-color:#322A59"/>
		</linearGradient>
		<path class="st29" d="M276.8,99c0,0.6,0,1.1,0.1,1.6h-1.1l-0.1-0.8h0c-0.4,0.5-1.1,1-2,1c-1.3,0-2-0.9-2-1.9
			c0-1.6,1.4-2.4,3.9-2.4v-0.1c0-0.5-0.2-1.5-1.5-1.5c-0.6,0-1.2,0.2-1.7,0.5l-0.3-0.8c0.5-0.3,1.3-0.6,2.1-0.6c2,0,2.5,1.4,2.5,2.7
			L276.8,99L276.8,99z M275.7,97.2c-1.3,0-2.8,0.2-2.8,1.5c0,0.8,0.5,1.1,1.1,1.1c0.9,0,1.4-0.5,1.6-1.1c0-0.1,0.1-0.3,0.1-0.4V97.2
			L275.7,97.2z"/>
		
			<linearGradient id="SVGID_20_" gradientUnits="userSpaceOnUse" x1="1149.2393" y1="-1049.6982" x2="1149.2393" y2="-1063.0176" gradientTransform="matrix(1 0 0 -1 -867 -962.5)">
			<stop  offset="0" style="stop-color:#CBDFED"/>
			<stop  offset="9.500000e-03" style="stop-color:#C4DBEC"/>
			<stop  offset="7.370000e-02" style="stop-color:#99C1E3"/>
			<stop  offset="0.1357" style="stop-color:#73AEDB"/>
			<stop  offset="0.1943" style="stop-color:#51A0D6"/>
			<stop  offset="0.2479" style="stop-color:#3898D2"/>
			<stop  offset="0.2921" style="stop-color:#2C96D1"/>
			<stop  offset="0.6461" style="stop-color:#256D9A"/>
			<stop  offset="0.8106" style="stop-color:#304D7A"/>
			<stop  offset="1" style="stop-color:#322A59"/>
		</linearGradient>
		<path class="st30" d="M282.8,91.4v9.1h-1.2v-9.1H282.8z"/>
		
			<linearGradient id="SVGID_21_" gradientUnits="userSpaceOnUse" x1="1154.7383" y1="-1049.6987" x2="1154.7383" y2="-1063.0178" gradientTransform="matrix(1 0 0 -1 -867 -962.5)">
			<stop  offset="0" style="stop-color:#CBDFED"/>
			<stop  offset="9.500000e-03" style="stop-color:#C4DBEC"/>
			<stop  offset="7.370000e-02" style="stop-color:#99C1E3"/>
			<stop  offset="0.1357" style="stop-color:#73AEDB"/>
			<stop  offset="0.1943" style="stop-color:#51A0D6"/>
			<stop  offset="0.2479" style="stop-color:#3898D2"/>
			<stop  offset="0.2921" style="stop-color:#2C96D1"/>
			<stop  offset="0.6461" style="stop-color:#256D9A"/>
			<stop  offset="0.8106" style="stop-color:#304D7A"/>
			<stop  offset="1" style="stop-color:#322A59"/>
		</linearGradient>
		<path class="st31" d="M285,95.8c0-0.7,0-1.2-0.1-1.8h1.1l0.1,1.1h0c0.3-0.6,1.1-1.2,2.2-1.2c0.9,0,2.3,0.5,2.3,2.8v3.9h-1.2v-3.8
			c0-1-0.4-1.9-1.5-1.9c-0.8,0-1.4,0.5-1.6,1.2c0,0.2-0.1,0.4-0.1,0.6v3.9H285L285,95.8L285,95.8z"/>
		
			<linearGradient id="SVGID_22_" gradientUnits="userSpaceOnUse" x1="1160.8184" y1="-1049.6997" x2="1160.8184" y2="-1063.0168" gradientTransform="matrix(1 0 0 -1 -867 -962.5)">
			<stop  offset="0" style="stop-color:#CBDFED"/>
			<stop  offset="9.500000e-03" style="stop-color:#C4DBEC"/>
			<stop  offset="7.370000e-02" style="stop-color:#99C1E3"/>
			<stop  offset="0.1357" style="stop-color:#73AEDB"/>
			<stop  offset="0.1943" style="stop-color:#51A0D6"/>
			<stop  offset="0.2479" style="stop-color:#3898D2"/>
			<stop  offset="0.2921" style="stop-color:#2C96D1"/>
			<stop  offset="0.6461" style="stop-color:#256D9A"/>
			<stop  offset="0.8106" style="stop-color:#304D7A"/>
			<stop  offset="1" style="stop-color:#322A59"/>
		</linearGradient>
		<path class="st32" d="M292.6,100.5v-5.6h-0.9V94h0.9v-0.3c0-0.9,0.2-1.8,0.8-2.3c0.4-0.4,1-0.6,1.6-0.6c0.4,0,0.8,0.1,1,0.2
			l-0.2,0.9c-0.2-0.1-0.4-0.2-0.8-0.2c-1,0-1.3,0.9-1.3,1.9V94h1.6v0.9h-1.6v5.6H292.6L292.6,100.5z"/>
		
			<linearGradient id="SVGID_23_" gradientUnits="userSpaceOnUse" x1="1165.0098" y1="-1049.6987" x2="1165.0098" y2="-1063.0178" gradientTransform="matrix(1 0 0 -1 -867 -962.5)">
			<stop  offset="0" style="stop-color:#CBDFED"/>
			<stop  offset="9.500000e-03" style="stop-color:#C4DBEC"/>
			<stop  offset="7.370000e-02" style="stop-color:#99C1E3"/>
			<stop  offset="0.1357" style="stop-color:#73AEDB"/>
			<stop  offset="0.1943" style="stop-color:#51A0D6"/>
			<stop  offset="0.2479" style="stop-color:#3898D2"/>
			<stop  offset="0.2921" style="stop-color:#2C96D1"/>
			<stop  offset="0.6461" style="stop-color:#256D9A"/>
			<stop  offset="0.8106" style="stop-color:#304D7A"/>
			<stop  offset="1" style="stop-color:#322A59"/>
		</linearGradient>
		<path class="st33" d="M296.4,96c0-0.8,0-1.4,0-2h1l0,1.3h0c0.3-0.9,1-1.4,1.8-1.4c0.1,0,0.2,0,0.3,0V95c-0.1,0-0.2,0-0.4,0
			c-0.8,0-1.4,0.6-1.6,1.5c0,0.2-0.1,0.3-0.1,0.5v3.5h-1.2L296.4,96L296.4,96z"/>
		
			<linearGradient id="SVGID_24_" gradientUnits="userSpaceOnUse" x1="1169.874" y1="-1049.6978" x2="1169.874" y2="-1063.0177" gradientTransform="matrix(1 0 0 -1 -867 -962.5)">
			<stop  offset="0" style="stop-color:#CBDFED"/>
			<stop  offset="9.500000e-03" style="stop-color:#C4DBEC"/>
			<stop  offset="7.370000e-02" style="stop-color:#99C1E3"/>
			<stop  offset="0.1357" style="stop-color:#73AEDB"/>
			<stop  offset="0.1943" style="stop-color:#51A0D6"/>
			<stop  offset="0.2479" style="stop-color:#3898D2"/>
			<stop  offset="0.2921" style="stop-color:#2C96D1"/>
			<stop  offset="0.6461" style="stop-color:#256D9A"/>
			<stop  offset="0.8106" style="stop-color:#304D7A"/>
			<stop  offset="1" style="stop-color:#322A59"/>
		</linearGradient>
		<path class="st34" d="M305.4,99c0,0.6,0,1.1,0.1,1.6h-1.1l-0.1-0.8h0c-0.4,0.5-1.1,1-2,1c-1.3,0-2-0.9-2-1.9
			c0-1.6,1.4-2.4,3.9-2.4v-0.1c0-0.5-0.2-1.5-1.5-1.5c-0.6,0-1.2,0.2-1.7,0.5l-0.3-0.8c0.5-0.3,1.3-0.6,2.1-0.6c2,0,2.5,1.4,2.5,2.7
			L305.4,99L305.4,99z M304.2,97.2c-1.3,0-2.8,0.2-2.8,1.5c0,0.8,0.5,1.1,1.1,1.1c0.8,0,1.4-0.5,1.6-1.1c0-0.1,0.1-0.3,0.1-0.4V97.2
			L304.2,97.2z"/>
		
			<linearGradient id="SVGID_25_" gradientUnits="userSpaceOnUse" x1="1175.9492" y1="-1049.6987" x2="1175.9492" y2="-1063.0178" gradientTransform="matrix(1 0 0 -1 -867 -962.5)">
			<stop  offset="0" style="stop-color:#CBDFED"/>
			<stop  offset="9.500000e-03" style="stop-color:#C4DBEC"/>
			<stop  offset="7.370000e-02" style="stop-color:#99C1E3"/>
			<stop  offset="0.1357" style="stop-color:#73AEDB"/>
			<stop  offset="0.1943" style="stop-color:#51A0D6"/>
			<stop  offset="0.2479" style="stop-color:#3898D2"/>
			<stop  offset="0.2921" style="stop-color:#2C96D1"/>
			<stop  offset="0.6461" style="stop-color:#256D9A"/>
			<stop  offset="0.8106" style="stop-color:#304D7A"/>
			<stop  offset="1" style="stop-color:#322A59"/>
		</linearGradient>
		<path class="st35" d="M307.1,99.3c0.3,0.2,1,0.5,1.6,0.5c0.9,0,1.3-0.4,1.3-1c0-0.6-0.3-0.9-1.2-1.2c-1.2-0.4-1.7-1.1-1.7-1.8
			c0-1,0.9-1.9,2.3-1.9c0.7,0,1.2,0.2,1.6,0.4l-0.3,0.9c-0.3-0.2-0.7-0.4-1.3-0.4c-0.7,0-1.1,0.4-1.1,0.9c0,0.5,0.4,0.8,1.2,1.1
			c1.1,0.4,1.7,1,1.7,2c0,1.1-0.9,2-2.4,2c-0.7,0-1.4-0.2-1.8-0.5L307.1,99.3z"/>
		
			<linearGradient id="SVGID_26_" gradientUnits="userSpaceOnUse" x1="1180.834" y1="-1049.6987" x2="1180.834" y2="-1063.0188" gradientTransform="matrix(1 0 0 -1 -867 -962.5)">
			<stop  offset="0" style="stop-color:#CBDFED"/>
			<stop  offset="9.500000e-03" style="stop-color:#C4DBEC"/>
			<stop  offset="7.370000e-02" style="stop-color:#99C1E3"/>
			<stop  offset="0.1357" style="stop-color:#73AEDB"/>
			<stop  offset="0.1943" style="stop-color:#51A0D6"/>
			<stop  offset="0.2479" style="stop-color:#3898D2"/>
			<stop  offset="0.2921" style="stop-color:#2C96D1"/>
			<stop  offset="0.6461" style="stop-color:#256D9A"/>
			<stop  offset="0.8106" style="stop-color:#304D7A"/>
			<stop  offset="1" style="stop-color:#322A59"/>
		</linearGradient>
		<path class="st36" d="M314.1,92.4V94h1.7v0.9h-1.7v3.5c0,0.8,0.2,1.3,0.9,1.3c0.3,0,0.5,0,0.7-0.1l0.1,0.9c-0.2,0.1-0.6,0.2-1,0.2
			c-0.6,0-1-0.2-1.3-0.5c-0.3-0.4-0.5-0.9-0.5-1.7v-3.6h-1V94h1v-1.2L314.1,92.4z"/>
		
			<linearGradient id="SVGID_27_" gradientUnits="userSpaceOnUse" x1="1185.6934" y1="-1049.6987" x2="1185.6934" y2="-1063.0178" gradientTransform="matrix(1 0 0 -1 -867 -962.5)">
			<stop  offset="0" style="stop-color:#CBDFED"/>
			<stop  offset="9.500000e-03" style="stop-color:#C4DBEC"/>
			<stop  offset="7.370000e-02" style="stop-color:#99C1E3"/>
			<stop  offset="0.1357" style="stop-color:#73AEDB"/>
			<stop  offset="0.1943" style="stop-color:#51A0D6"/>
			<stop  offset="0.2479" style="stop-color:#3898D2"/>
			<stop  offset="0.2921" style="stop-color:#2C96D1"/>
			<stop  offset="0.6461" style="stop-color:#256D9A"/>
			<stop  offset="0.8106" style="stop-color:#304D7A"/>
			<stop  offset="1" style="stop-color:#322A59"/>
		</linearGradient>
		<path class="st37" d="M317.1,96c0-0.8,0-1.4-0.1-2h1l0,1.3h0.1c0.3-0.9,1-1.4,1.8-1.4c0.1,0,0.2,0,0.3,0V95c-0.1,0-0.2,0-0.4,0
			c-0.8,0-1.4,0.6-1.6,1.5c0,0.2,0,0.3,0,0.5v3.5h-1.2L317.1,96L317.1,96z"/>
		
			<linearGradient id="SVGID_28_" gradientUnits="userSpaceOnUse" x1="1191.2734" y1="-1049.6997" x2="1191.2734" y2="-1063.0178" gradientTransform="matrix(1 0 0 -1 -867 -962.5)">
			<stop  offset="0" style="stop-color:#CBDFED"/>
			<stop  offset="9.500000e-03" style="stop-color:#C4DBEC"/>
			<stop  offset="7.370000e-02" style="stop-color:#99C1E3"/>
			<stop  offset="0.1357" style="stop-color:#73AEDB"/>
			<stop  offset="0.1943" style="stop-color:#51A0D6"/>
			<stop  offset="0.2479" style="stop-color:#3898D2"/>
			<stop  offset="0.2921" style="stop-color:#2C96D1"/>
			<stop  offset="0.6461" style="stop-color:#256D9A"/>
			<stop  offset="0.8106" style="stop-color:#304D7A"/>
			<stop  offset="1" style="stop-color:#322A59"/>
		</linearGradient>
		<path class="st38" d="M327,98.7c0,0.7,0,1.3,0,1.8h-1l-0.1-1.1h0c-0.3,0.5-1,1.2-2.2,1.2c-1,0-2.2-0.6-2.2-2.9V94h1.2v3.6
			c0,1.2,0.4,2.1,1.5,2.1c0.8,0,1.3-0.5,1.6-1.1c0.1-0.2,0.1-0.4,0.1-0.6v-4h1.2V98.7L327,98.7z"/>
		
			<linearGradient id="SVGID_29_" gradientUnits="userSpaceOnUse" x1="1198.0889" y1="-1049.6987" x2="1198.0889" y2="-1063.0179" gradientTransform="matrix(1 0 0 -1 -867 -962.5)">
			<stop  offset="0" style="stop-color:#CBDFED"/>
			<stop  offset="9.500000e-03" style="stop-color:#C4DBEC"/>
			<stop  offset="7.370000e-02" style="stop-color:#99C1E3"/>
			<stop  offset="0.1357" style="stop-color:#73AEDB"/>
			<stop  offset="0.1943" style="stop-color:#51A0D6"/>
			<stop  offset="0.2479" style="stop-color:#3898D2"/>
			<stop  offset="0.2921" style="stop-color:#2C96D1"/>
			<stop  offset="0.6461" style="stop-color:#256D9A"/>
			<stop  offset="0.8106" style="stop-color:#304D7A"/>
			<stop  offset="1" style="stop-color:#322A59"/>
		</linearGradient>
		<path class="st39" d="M333.6,100.3c-0.3,0.2-1,0.4-1.9,0.4c-2,0-3.2-1.3-3.2-3.3c0-2,1.4-3.5,3.5-3.5c0.7,0,1.3,0.2,1.7,0.3
			l-0.3,0.9c-0.3-0.2-0.7-0.3-1.4-0.3c-1.5,0-2.3,1.1-2.3,2.5c0,1.5,1,2.4,2.3,2.4c0.7,0,1.1-0.2,1.5-0.3L333.6,100.3z"/>
		
			<linearGradient id="SVGID_30_" gradientUnits="userSpaceOnUse" x1="1203.4043" y1="-1049.6987" x2="1203.4043" y2="-1063.0188" gradientTransform="matrix(1 0 0 -1 -867 -962.5)">
			<stop  offset="0" style="stop-color:#CBDFED"/>
			<stop  offset="9.500000e-03" style="stop-color:#C4DBEC"/>
			<stop  offset="7.370000e-02" style="stop-color:#99C1E3"/>
			<stop  offset="0.1357" style="stop-color:#73AEDB"/>
			<stop  offset="0.1943" style="stop-color:#51A0D6"/>
			<stop  offset="0.2479" style="stop-color:#3898D2"/>
			<stop  offset="0.2921" style="stop-color:#2C96D1"/>
			<stop  offset="0.6461" style="stop-color:#256D9A"/>
			<stop  offset="0.8106" style="stop-color:#304D7A"/>
			<stop  offset="1" style="stop-color:#322A59"/>
		</linearGradient>
		<path class="st40" d="M336.6,92.4V94h1.7v0.9h-1.7v3.5c0,0.8,0.2,1.3,0.9,1.3c0.3,0,0.5,0,0.7-0.1l0,0.9c-0.2,0.1-0.6,0.2-1,0.2
			c-0.6,0-1-0.2-1.3-0.5c-0.3-0.4-0.5-0.9-0.5-1.7v-3.6h-1V94h1v-1.2L336.6,92.4z"/>
		
			<linearGradient id="SVGID_31_" gradientUnits="userSpaceOnUse" x1="1209.4189" y1="-1049.6997" x2="1209.4189" y2="-1063.0178" gradientTransform="matrix(1 0 0 -1 -867 -962.5)">
			<stop  offset="0" style="stop-color:#CBDFED"/>
			<stop  offset="9.500000e-03" style="stop-color:#C4DBEC"/>
			<stop  offset="7.370000e-02" style="stop-color:#99C1E3"/>
			<stop  offset="0.1357" style="stop-color:#73AEDB"/>
			<stop  offset="0.1943" style="stop-color:#51A0D6"/>
			<stop  offset="0.2479" style="stop-color:#3898D2"/>
			<stop  offset="0.2921" style="stop-color:#2C96D1"/>
			<stop  offset="0.6461" style="stop-color:#256D9A"/>
			<stop  offset="0.8106" style="stop-color:#304D7A"/>
			<stop  offset="1" style="stop-color:#322A59"/>
		</linearGradient>
		<path class="st41" d="M345.2,98.7c0,0.7,0,1.3,0,1.8h-1l-0.1-1.1h0c-0.3,0.5-1,1.2-2.2,1.2c-1,0-2.2-0.6-2.2-2.9V94h1.2v3.6
			c0,1.2,0.4,2.1,1.5,2.1c0.8,0,1.3-0.5,1.6-1.1c0.1-0.2,0.1-0.4,0.1-0.6v-4h1.2V98.7L345.2,98.7z"/>
		
			<linearGradient id="SVGID_32_" gradientUnits="userSpaceOnUse" x1="1215.709" y1="-1049.6987" x2="1215.709" y2="-1063.0178" gradientTransform="matrix(1 0 0 -1 -867 -962.5)">
			<stop  offset="0" style="stop-color:#CBDFED"/>
			<stop  offset="9.500000e-03" style="stop-color:#C4DBEC"/>
			<stop  offset="7.370000e-02" style="stop-color:#99C1E3"/>
			<stop  offset="0.1357" style="stop-color:#73AEDB"/>
			<stop  offset="0.1943" style="stop-color:#51A0D6"/>
			<stop  offset="0.2479" style="stop-color:#3898D2"/>
			<stop  offset="0.2921" style="stop-color:#2C96D1"/>
			<stop  offset="0.6461" style="stop-color:#256D9A"/>
			<stop  offset="0.8106" style="stop-color:#304D7A"/>
			<stop  offset="1" style="stop-color:#322A59"/>
		</linearGradient>
		<path class="st42" d="M347.1,96c0-0.8,0-1.4,0-2h1l0,1.3h0c0.3-0.9,1-1.4,1.8-1.4c0.1,0,0.2,0,0.3,0V95c-0.1,0-0.2,0-0.4,0
			c-0.8,0-1.4,0.6-1.6,1.5c0,0.2-0.1,0.3-0.1,0.5v3.5h-1.2L347.1,96L347.1,96z"/>
		
			<linearGradient id="SVGID_33_" gradientUnits="userSpaceOnUse" x1="1220.8145" y1="-1049.6978" x2="1220.8145" y2="-1063.0177" gradientTransform="matrix(1 0 0 -1 -867 -962.5)">
			<stop  offset="0" style="stop-color:#CBDFED"/>
			<stop  offset="9.500000e-03" style="stop-color:#C4DBEC"/>
			<stop  offset="7.370000e-02" style="stop-color:#99C1E3"/>
			<stop  offset="0.1357" style="stop-color:#73AEDB"/>
			<stop  offset="0.1943" style="stop-color:#51A0D6"/>
			<stop  offset="0.2479" style="stop-color:#3898D2"/>
			<stop  offset="0.2921" style="stop-color:#2C96D1"/>
			<stop  offset="0.6461" style="stop-color:#256D9A"/>
			<stop  offset="0.8106" style="stop-color:#304D7A"/>
			<stop  offset="1" style="stop-color:#322A59"/>
		</linearGradient>
		<path class="st43" d="M352.1,97.5c0,1.6,1,2.3,2.2,2.3c0.9,0,1.4-0.2,1.8-0.3l0.2,0.8c-0.4,0.2-1.1,0.4-2.2,0.4
			c-2,0-3.2-1.3-3.2-3.3s1.2-3.5,3.1-3.5c2.1,0,2.7,1.9,2.7,3.1c0,0.2,0,0.4,0,0.6L352.1,97.5L352.1,97.5z M355.5,96.6
			c0-0.8-0.3-1.9-1.6-1.9c-1.2,0-1.7,1.1-1.8,1.9H355.5z"/>
		
			<linearGradient id="SVGID_34_" gradientUnits="userSpaceOnUse" x1="1226.8594" y1="-1049.6987" x2="1226.8594" y2="-1063.0178" gradientTransform="matrix(1 0 0 -1 -867 -962.5)">
			<stop  offset="0" style="stop-color:#CBDFED"/>
			<stop  offset="9.500000e-03" style="stop-color:#C4DBEC"/>
			<stop  offset="7.370000e-02" style="stop-color:#99C1E3"/>
			<stop  offset="0.1357" style="stop-color:#73AEDB"/>
			<stop  offset="0.1943" style="stop-color:#51A0D6"/>
			<stop  offset="0.2479" style="stop-color:#3898D2"/>
			<stop  offset="0.2921" style="stop-color:#2C96D1"/>
			<stop  offset="0.6461" style="stop-color:#256D9A"/>
			<stop  offset="0.8106" style="stop-color:#304D7A"/>
			<stop  offset="1" style="stop-color:#322A59"/>
		</linearGradient>
		<path class="st44" d="M358,99.3c0.4,0.2,1,0.5,1.6,0.5c0.9,0,1.3-0.4,1.3-1c0-0.6-0.3-0.9-1.2-1.2c-1.2-0.4-1.7-1.1-1.7-1.8
			c0-1,0.8-1.9,2.2-1.9c0.7,0,1.2,0.2,1.6,0.4l-0.3,0.9c-0.3-0.2-0.7-0.4-1.3-0.4c-0.7,0-1.1,0.4-1.1,0.9c0,0.5,0.4,0.8,1.2,1.1
			c1.1,0.4,1.7,1,1.7,2c0,1.1-0.9,2-2.4,2c-0.7,0-1.4-0.2-1.8-0.5L358,99.3z"/>
	</g>
	
		<linearGradient id="SVGID_35_" gradientUnits="userSpaceOnUse" x1="920.2344" y1="-987.373" x2="920.2344" y2="-1061.7943" gradientTransform="matrix(1 0 0 -1 -867 -962.5)">
		<stop  offset="0" style="stop-color:#CBDFED"/>
		<stop  offset="9.500000e-03" style="stop-color:#C4DBEC"/>
		<stop  offset="7.370000e-02" style="stop-color:#99C1E3"/>
		<stop  offset="0.1357" style="stop-color:#73AEDB"/>
		<stop  offset="0.1943" style="stop-color:#51A0D6"/>
		<stop  offset="0.2479" style="stop-color:#3898D2"/>
		<stop  offset="0.2921" style="stop-color:#2C96D1"/>
		<stop  offset="0.6461" style="stop-color:#256D9A"/>
		<stop  offset="0.8106" style="stop-color:#304D7A"/>
		<stop  offset="1" style="stop-color:#322A59"/>
	</linearGradient>
	<path class="st45" d="M43.7,65.5c0-0.6,0.1-0.8,0.6-1.2c0.5-0.4,0.9-0.6,1.7-0.6h14.5c0.7,0,1.2,0.2,1.7,0.6
		c0.5,0.5,0.6,0.7,0.6,1.2v10.6c0,0.6-0.1,0.8-0.6,1.2c-0.5,0.4-0.9,0.6-1.7,0.6H46.8c0,0.1,0,0.1-0.1,0.2c0.2,0.3,0.4,0.6,0.5,1
		c0.8,1.8,1.4,3.8,1.3,5.7c0.1,0.1,0.1,0.1,0.2,0.1h11.8c2.4,0,4.7-0.8,6.5-2.4c1.9-1.6,3-3.8,3-6.3l0,0V65.5c0,0,0,0,0,0
		c0-2.4-1-4.6-2.9-6.3c-1.8-1.6-4.1-2.5-6.7-2.5h0c0,0,0,0-0.1,0H46c0,0,0,0-0.1,0c-2.5,0-4.9,0.8-6.7,2.5c-1.8,1.6-2.9,3.8-2.9,6.3
		c0,0,0,0,0,0.1v3.6c0.4-0.1,0.8-0.2,1.1-0.3c0.1,0,0.1,0,0.2-0.1c0.2-0.1,0.4-0.1,0.5-0.2c0.1,0,0.2-0.1,0.3-0.1"/>
	
		<linearGradient id="SVGID_36_" gradientUnits="userSpaceOnUse" x1="1178.5439" y1="-987.3745" x2="1178.5439" y2="-1061.7941" gradientTransform="matrix(1 0 0 -1 -867 -962.5)">
		<stop  offset="0" style="stop-color:#CBDFED"/>
		<stop  offset="9.500000e-03" style="stop-color:#C4DBEC"/>
		<stop  offset="7.370000e-02" style="stop-color:#99C1E3"/>
		<stop  offset="0.1357" style="stop-color:#73AEDB"/>
		<stop  offset="0.1943" style="stop-color:#51A0D6"/>
		<stop  offset="0.2479" style="stop-color:#3898D2"/>
		<stop  offset="0.2921" style="stop-color:#2C96D1"/>
		<stop  offset="0.6461" style="stop-color:#256D9A"/>
		<stop  offset="0.8106" style="stop-color:#304D7A"/>
		<stop  offset="1" style="stop-color:#322A59"/>
	</linearGradient>
	<path class="st46" d="M328.3,65.5c0-2.4-1-4.6-2.9-6.2c-1.8-1.6-4.1-2.5-6.7-2.5c0,0,0,0,0,0c0,0,0,0-0.1,0h-14.4c0,0,0,0,0,0
		c-2.5,0-4.8,0.9-6.7,2.5c-1.8,1.6-2.9,3.8-2.9,6.2c0,0,0,0,0,0v0.8c1.1-0.8,2.4-1.3,4-1.3c0.7,0,1.5,0.1,2.2,0.4
		c1.1-1.4,2.8-2.3,5.1-2.3c1.1,0,2.1,0.2,3,0.6h9.8c0.8,0,1.2,0.2,1.7,0.6c0.5,0.4,0.6,0.7,0.6,1.2v10.6l0,0c0,0.6-0.1,0.8-0.6,1.2
		c-0.5,0.4-1,0.6-1.7,0.6h-13c0,0.1,0,0.1,0,0.2c-0.3,2.9-1.8,5.4-4.3,6.4c0.9,0.2,1.8,0.4,2.8,0.4h14.6c2.4,0,4.7-0.8,6.5-2.4
		c1.9-1.6,3-3.8,3-6.3v0V65.5C328.3,65.5,328.3,65.5,328.3,65.5z"/>
	
		<linearGradient id="SVGID_37_" gradientUnits="userSpaceOnUse" x1="1214.5488" y1="-987.3774" x2="1214.5488" y2="-1061.7908" gradientTransform="matrix(1 0 0 -1 -867 -962.5)">
		<stop  offset="0" style="stop-color:#CBDFED"/>
		<stop  offset="9.500000e-03" style="stop-color:#C4DBEC"/>
		<stop  offset="7.370000e-02" style="stop-color:#99C1E3"/>
		<stop  offset="0.1357" style="stop-color:#73AEDB"/>
		<stop  offset="0.1943" style="stop-color:#51A0D6"/>
		<stop  offset="0.2479" style="stop-color:#3898D2"/>
		<stop  offset="0.2921" style="stop-color:#2C96D1"/>
		<stop  offset="0.6461" style="stop-color:#256D9A"/>
		<stop  offset="0.8106" style="stop-color:#304D7A"/>
		<stop  offset="1" style="stop-color:#322A59"/>
	</linearGradient>
	<path class="st47" d="M361.9,65.5c0-2.4-1-4.6-2.9-6.2c-1.8-1.6-4.1-2.5-6.6-2.5c0,0,0,0,0,0c0,0,0,0-0.1,0h-9.5
		c-1.3,0-2.5,0.2-3.7,0.7c-0.6-0.4-1.4-0.7-2.2-0.7h0c0,0-0.1,0-0.1,0c-0.9,0-1.8,0.2-2.6,0.9c-0.8,0.7-1,1.7-1,2.6v0c0,0,0,0,0,0.1
		v21.2c0,0,0,0,0,0c0,0.9,0.3,1.9,1,2.6c0.7,0.7,1.7,0.9,2.6,0.9c0.9,0,1.9-0.2,2.6-0.9c0.7-0.7,1-1.6,1-2.5v0v-16
		c0-0.6,0.1-0.8,0.6-1.2c0.5-0.4,1-0.6,1.7-0.6l9.6,0c0.7,0,1.2,0.2,1.7,0.6c0.5,0.5,0.6,0.6,0.6,1.2v16c0,0,0,0,0,0.1
		c0,0.9,0.3,1.8,1,2.5c0.8,0.7,1.7,0.9,2.6,0.9h0c0.9,0,1.9-0.2,2.6-0.9c0.7-0.7,1-1.6,1-2.5v0L361.9,65.5
		C361.9,65.5,361.9,65.5,361.9,65.5z"/>
	
		<linearGradient id="SVGID_38_" gradientUnits="userSpaceOnUse" x1="956.2598" y1="-987.374" x2="956.2598" y2="-1061.7953" gradientTransform="matrix(1 0 0 -1 -867 -962.5)">
		<stop  offset="0" style="stop-color:#CBDFED"/>
		<stop  offset="9.500000e-03" style="stop-color:#C4DBEC"/>
		<stop  offset="7.370000e-02" style="stop-color:#99C1E3"/>
		<stop  offset="0.1357" style="stop-color:#73AEDB"/>
		<stop  offset="0.1943" style="stop-color:#51A0D6"/>
		<stop  offset="0.2479" style="stop-color:#3898D2"/>
		<stop  offset="0.2921" style="stop-color:#2C96D1"/>
		<stop  offset="0.6461" style="stop-color:#256D9A"/>
		<stop  offset="0.8106" style="stop-color:#304D7A"/>
		<stop  offset="1" style="stop-color:#322A59"/>
	</linearGradient>
	<path class="st48" d="M100.7,59.2c-1.8-1.7-4.1-2.5-6.6-2.5c0,0,0,0,0,0c0,0,0,0,0,0h-9.5c-1.3,0-2.5,0.2-3.7,0.7
		c-0.6-0.4-1.4-0.7-2.1-0.7c0,0-0.1,0-0.1,0c-0.9,0-1.8,0.2-2.6,0.9c-0.7,0.7-1,1.6-1,2.5c0,0,0,0,0,0.1v21.2v0c0,0.9,0.3,1.9,1,2.5
		c0.8,0.7,1.7,0.9,2.6,0.9c0.9,0,1.9-0.2,2.6-0.9c0.7-0.7,1-1.6,1-2.5v-16c0-0.6,0.1-0.8,0.6-1.2c0.5-0.4,1-0.6,1.7-0.6l9.5,0
		c0.7,0,1.2,0.2,1.7,0.6c0.5,0.5,0.6,0.7,0.6,1.2v16c0,0,0,0,0,0c0,0.9,0.3,1.8,1,2.5C98.1,84.8,99,85,100,85s1.9-0.2,2.6-0.9
		c0.7-0.7,1-1.6,1-2.5v-16c0,0,0,0,0,0C103.6,63.1,102.6,60.9,100.7,59.2z"/>
</g>
</svg>
