<svg xmlns="http://www.w3.org/2000/svg" width="363.2" height="145" viewBox="0 0 363.2 145"><style type="text/css"><![CDATA[
	.st0{fill:url(#SVGID_1_);}	.st1{fill:url(#SVGID_2_);}	.st2{fill:url(#SVGID_3_);}	.st3{fill:url(#SVGID_4_);}
	.st4{fill:url(#SVGID_5_);}	.st5{fill:url(#SVGID_6_);}	.st6{fill:url(#SVGID_7_);}	.st7{fill:url(#SVGID_8_);}
	.st8{fill:url(#SVGID_9_);}	.st9{fill:#FAC017;}	.st10{fill:#FAC019;}	.st11{fill:#FAC226;}
	.st12{fill:#FBC842;}	.st13{fill:#FDD36F;}	.st14{opacity:0.8;}	.st15{fill:#FEDC91;}
	.st16{fill:#FEE4AC;}	.st17{fill:none;}	.st18{opacity:0.8;fill:#FEDC91;enable-background:new    ;}
	.st19{fill:#3187C4;}	.st20{fill:url(#SVGID_10_);}
	.st21{fill:url(#SVGID_11_);}	.st22{fill:url(#SVGID_12_);}	.st23{fill:url(#SVGID_13_);}	.st24{fill:url(#SVGID_14_);}
	.st25{fill:url(#SVGID_15_);}	.st26{fill:url(#SVGID_16_);}	.st27{fill:url(#SVGID_17_);}	.st28{fill:url(#SVGID_18_);}
	.st29{fill:url(#SVGID_19_);}	.st30{fill:url(#SVGID_20_);}	.st31{fill:url(#SVGID_21_);}	.st32{fill:url(#SVGID_22_);}
	.st33{fill:url(#SVGID_23_);}	.st34{fill:url(#SVGID_24_);}	.st35{fill:url(#SVGID_25_);}	.st36{fill:url(#SVGID_26_);}
	.st37{fill:url(#SVGID_27_);}	.st38{fill:url(#SVGID_28_);}	.st39{fill:url(#SVGID_29_);}	.st40{fill:url(#SVGID_30_);}
	.st41{fill:url(#SVGID_31_);}	.st42{fill:url(#SVGID_32_);}	.st43{fill:url(#SVGID_33_);}	.st44{fill:url(#SVGID_34_);}
	.st45{fill:url(#SVGID_35_);}	.st46{fill:url(#SVGID_36_);}	.st47{fill:url(#SVGID_37_);}	.st48{fill:url(#SVGID_38_);}
]]></style><linearGradient id="SVGID_1_" gradientUnits="userSpaceOnUse" x1="1047.939" y1="-987.375" x2="1047.939" y2="-1061.792" gradientTransform="matrix(1 0 0 -1 -867 -962.5)"><stop offset="0" stop-color="#CBDFED"/><stop offset=".009" stop-color="#C4DBEC"/><stop offset=".074" stop-color="#99C1E3"/><stop offset=".136" stop-color="#73AEDB"/><stop offset=".194" stop-color="#51A0D6"/><stop offset=".248" stop-color="#3898D2"/><stop offset=".292" stop-color="#2C96D1"/><stop offset=".646" stop-color="#256D9A"/><stop offset=".811" stop-color="#304D7A"/><stop offset="1" stop-color="#322A59"/></linearGradient><path class="st0" d="M157.1 56.7h-3.6v-3.9c0-.9-.3-1.9-1-2.6-.7-.7-1.7-.9-2.6-.9-.9 0-1.9.2-2.6.9-.8.7-1 1.7-1 2.6v3.9c-.8.1-1.6.3-2.3.9-.7.7-1 1.7-1 2.6 0 .9.3 1.9 1 2.6.7.6 1.5.9 2.3.9v17.8c0 .9.3 1.9 1 2.6.7.7 1.6.9 2.5.9h.2c.9 0 1.9-.2 2.6-.9.7-.6 1-1.5 1-2.3v-18h3.6c.9 0 1.9-.2 2.6-.9.7-.7 1-1.7 1-2.6 0-.9-.3-1.9-1-2.6-.8-.7-1.8-1-2.7-1zm-18.9 13.2c-1.8-1.6-4.1-2.5-6.7-2.5h-14.5c-.7 0-1.2-.2-1.7-.6-.5-.5-.6-.7-.6-1.3 0-.6.1-.8.6-1.2.5-.4.9-.6 1.7-.6h14.5c.9 0 1.9-.2 2.6-.9.7-.7 1-1.6 1-2.5v-.1c0-.9-.3-1.9-1-2.5-.7-.7-1.7-.9-2.6-.9h-14.5c-2.5 0-4.8.9-6.7 2.5-1.8 1.6-2.9 3.8-2.9 6.2v.1c0 2.4 1 4.6 2.9 6.2 1.8 1.6 4.1 2.5 6.6 2.5h14.6c.7 0 1.2.2 1.7.6.5.5.6.7.6 1.3 0 .6-.1.8-.6 1.2-.5.4-1 .6-1.7.6h-20.4c-.9 0-1.9.2-2.6.9-.7.7-1 1.7-1 2.6 0 .9.3 1.8 1 2.5.8.7 1.7.9 2.6.9h20.5c2.4 0 4.7-.8 6.5-2.4 1.9-1.6 3-3.8 3-6.4v-.1c0-2.3-1.1-4.5-2.9-6.1zm-105.6 9c-.7-.7-1.7-.9-2.6-.9h-20.4c-.8 0-1.2-.2-1.7-.6-.5-.5-.6-.7-.6-1.2v-10.7c0-.6.1-.8.6-1.2.5-.4.9-.6 1.7-.6h14.4c.9 0 1.9-.2 2.6-.9.7-.7 1-1.6 1-2.5v-.1c0-.9-.3-1.9-1-2.5-.8-.7-1.7-.9-2.6-.9h-14.5c-2.5 0-4.8.9-6.7 2.5-1.8 1.6-2.8 3.8-2.8 6.2v10.7c0 2.4 1 4.6 2.9 6.2 1.8 1.7 4.1 2.6 6.6 2.6h20.5c.9 0 1.9-.2 2.6-.9.7-.7 1-1.6 1-2.5v-.1c0-.9-.3-1.9-1-2.6zm34.6-19.7c-1.8-1.6-4.1-2.5-6.7-2.5h-14.6c-2.5 0-4.9.9-6.7 2.5-1.8 1.6-2.9 3.8-2.9 6.3v10.7c0 2.4 1 4.6 2.9 6.2 1.8 1.6 4.1 2.5 6.6 2.5h14.6c2.4 0 4.7-.8 6.5-2.4 1.9-1.6 3-3.8 3-6.3v-10.7c.1-2.4-.9-4.6-2.7-6.3zm-4.4 17c0 .6-.1.8-.6 1.2-.5.4-.9.6-1.7.6h-14.5c-.8 0-1.2-.2-1.7-.6-.5-.4-.6-.7-.6-1.2v-10.7c0-.6.1-.8.6-1.2.5-.4.9-.6 1.7-.6h14.5c.7 0 1.2.2 1.7.6.5.5.6.7.6 1.2v10.7zm37.9-17c-1.8-1.7-4.1-2.5-6.6-2.5h-9.5c-1.3 0-2.5.2-3.7.7-.6-.4-1.4-.7-2.1-.7h-.1c-.9 0-1.8.2-2.6.9-.7.7-1 1.6-1 2.5v21.3c0 .9.3 1.9 1 2.5.8.7 1.7.9 2.6.9.9 0 1.9-.2 2.6-.9.7-.7 1-1.6 1-2.5v-16c0-.6.1-.8.6-1.2.5-.4 1-.6 1.7-.6h9.5c.7 0 1.2.2 1.7.6.5.5.6.7.6 1.2v16c0 .9.3 1.8 1 2.5.7.9 1.6 1.1 2.6 1.1s1.9-.2 2.6-.9c.7-.7 1-1.6 1-2.5v-16c0-2.5-1-4.7-2.9-6.4zm188-10.6c-.9-.8-2-1.1-3.1-1.1s-2.2.3-3.1 1.1c-.8.8-1.2 1.9-1.2 3v.1c0 1.1.3 2.2 1.2 3 .8.8 2 1.1 3.1 1.1s2.2-.3 3.1-1.1c.8-.8 1.1-1.9 1.1-2.9v-.2c.1-1.2-.3-2.3-1.1-3zm36.8 10.6c-1.8-1.6-4.1-2.5-6.7-2.5h-14.5c-2.5 0-4.8.9-6.7 2.5-1.8 1.6-2.9 3.8-2.9 6.2v10.7c0 2.4 1 4.6 2.9 6.2 1.8 1.6 4.1 2.5 6.6 2.5h14.6c2.4 0 4.7-.8 6.5-2.4 1.9-1.6 3-3.8 3-6.3v-10.6c0-2.4-1-4.6-2.8-6.3zm-4.4 17c0 .6-.1.8-.6 1.2-.5.4-1 .6-1.7.6h-14.5c-.7 0-1.2-.2-1.7-.6-.5-.5-.6-.7-.6-1.2v-10.7c0-.6.1-.8.6-1.2.5-.4 1-.6 1.7-.6h14.5c.8 0 1.2.2 1.7.6.5.4.6.7.6 1.2v10.7zm-126.8-17c-1.8-1.6-4.1-2.5-6.6-2.5h-14.5c-2.5 0-4.8.8-6.7 2.5-1.9 1.6-2.9 3.8-2.9 6.2v10.7c0 2.4 1 4.6 2.9 6.2 1.8 1.6 4.1 2.5 6.6 2.5h14.5c.9 0 1.9-.2 2.6-.9.7-.7 1-1.6 1-2.5 0-.9-.3-1.9-1-2.6-.8-.7-1.7-.9-2.6-.9h-14.5c-.7 0-1.2-.2-1.7-.6-.5-.4-.6-.6-.6-1.2v-1.8h17.5c2.2-.1 4.2-.9 5.8-2.3 2-1.6 3-3.9 3-6.4v-.1c.1-2.4-1-4.6-2.8-6.3zm-5 7.6c-.5.4-.9.6-1.7.6h-16.8v-1.9c0-.6.1-.8.6-1.2.5-.4 1-.6 1.7-.6h14.5c.7 0 1.2.2 1.7.6.5.5.6.7.6 1.3-.1.5-.1.7-.6 1.2zm99.9-6.6c0-.9-.3-1.8-1-2.5s-1.7-.9-2.6-.9c-.9 0-1.9.2-2.6.9-.7.7-1 1.6-1 2.5v21.4c0 .9.3 1.8 1 2.5s1.7.9 2.6.9c.9 0 1.9-.2 2.6-.9.7-.7 1-1.6 1-2.5v-21.4zm72.7 5.3c0-2.4-1-4.6-2.9-6.2-1.8-1.6-4.1-2.5-6.6-2.5h-9.6c-1.3 0-2.5.2-3.7.7-.6-.4-1.4-.7-2.2-.7h-.1c-.9 0-1.8.2-2.6.9s-1 1.7-1 2.6v21.3c0 .9.3 1.9 1 2.6.7.7 1.7.9 2.6.9.9 0 1.9-.2 2.6-.9.7-.7 1-1.6 1-2.5v-16c0-.6.1-.8.6-1.2.5-.4 1-.6 1.7-.6h9.6c.7 0 1.2.2 1.7.6.5.5.6.6.6 1.2v16.1c0 .9.3 1.8 1 2.5.8.7 1.7.9 2.6.9.9 0 1.9-.2 2.6-.9.7-.7 1-1.6 1-2.5l.1-16.3zm-84.4-7.9c-.7-.7-1.7-.9-2.6-.9h-3.6v-3.9c0-.9-.3-1.9-1-2.5-.8-.7-1.7-.9-2.6-.9-.9 0-1.9.2-2.6.9-.8.7-1 1.7-1 2.6v4c-.8 0-1.6.3-2.3.9-.8.7-1 1.7-1 2.6 0 .9.3 1.9 1 2.5.7.6 1.5.8 2.3.9v17.8c0 .9.3 1.9 1 2.6.8.7 1.7.9 2.6.9.9 0 1.9-.2 2.6-.9.7-.7 1-1.6 1-2.5v-18h3.6c.9 0 1.9-.2 2.6-.9.7-.7 1-1.6 1-2.5v-.2c0-.8-.3-1.8-1-2.5zm-69.2-10.6c0-.9-.3-1.9-1-2.6-.8-.7-1.7-.9-2.6-.9-.9 0-1.9.2-2.6.9-.7.7-1 1.7-1 2.6v34.5c0 .9.3 1.9 1 2.6.7.7 1.6.9 2.5.9h.1c.9 0 1.9-.2 2.6-.9.7-.7 1-1.7 1-2.6v-34.5zm46.7 12.2c-1.8-1.7-4.1-2.5-6.7-2.5h-14.6c-.9 0-1.9.2-2.6.9-.8.7-1 1.6-1 2.5v.1c0 .9.3 1.9 1 2.6.8.7 1.7.9 2.6.9h14.5c.7 0 1.2.2 1.7.6.5.5.6.7.6 1.2v1.8h-16.9c-2.5 0-4.8.9-6.7 2.5-1.8 1.6-2.9 3.8-2.9 6.3 0 2.4 1 4.6 2.9 6.3 1.8 1.6 4.1 2.5 6.6 2.5h14.6c1.3 0 2.5-.2 3.7-.7.6.4 1.4.7 2.2.7h.1c.9 0 1.8-.2 2.6-.9.7-.6 1-1.5 1-2.4v-16.1c.2-2.4-.8-4.6-2.7-6.3zm-4.3 17c0 .6-.1.8-.6 1.2-.5.4-1 .6-1.7.6h-14.5c-.7 0-1.2-.2-1.7-.6-.5-.5-.6-.7-.6-1.2s.1-.8.6-1.3c.5-.4.9-.6 1.7-.6h16.8v1.9zm-30.3-29.2c0-.9-.3-1.8-1-2.5s-1.7-.9-2.6-.9c-.9 0-1.9.2-2.6.9-.8.7-1 1.7-1 2.6v34.4c0 .9.3 1.9 1 2.6.7.7 1.6.9 2.5.9h.1c.9 0 1.9-.2 2.6-.9.7-.7 1-1.6 1-2.5v-34.6z"/><path class="st19" d="M117.4 113.3c1.1 1 2.1 2 3.1 2.9l1-1.1-3.1-2.9-1 1.1zm-11.9-100.4l.1 1.4 4.2-.4-.1-1.5c-1.4.3-2.8.4-4.2.5zm5.7 94.4l3.1 3 1-1c-1-1-2-2-3.1-3l-1 1zm-17.7-18.7c.9 1.1 1.9 2.2 2.8 3.2l1.1-1-2.8-3.2-1.1 1zm11.6 12.7l3 3.1 1-1-3-3-1 .9zm21.9-89.1h-4.3v1.5h4.3v-1.5zm-27.8 82.8l2.9 3.1 1.1-1c-1-1-2-2.1-2.9-3.1l-1.1 1zm24.5 24.2c1.1 1 2.1 1.9 3.2 2.8l1-1.1-3.2-2.8-1 1.1zm20.4 15.7c1.2.8 2.5 1.5 3.7 2.2l.7-1.3c-1.2-.7-2.4-1.4-3.7-2.1l-.7 1.2zm17.2-120.7c-1.4-.1-2.8-.2-4.3-.4l-.1 1.5c1.4.1 2.9.2 4.3.4l.1-1.5zm-9.6 124.8c1.3.6 2.6 1.2 4 1.7l.5-1.4c-1.3-.5-2.6-1.1-3.9-1.7l-.6 1.4zm-21.5-14.2c1.1.9 2.2 1.8 3.4 2.7l.9-1.2-3.3-2.7-1 1.2zm9.7-112.2l-.1 1.5c1.4.1 2.9.2 4.3.2l.1-1.5c-1.5 0-2.9-.1-4.3-.2zm-8.7 1.1c1.4 0 2.9.1 4.3.2l.1-1.5-4.3-.2-.1 1.5zm-12.8-.1v-1.5c-1.5 0-2.9.1-4.3.1l.1 1.5c1.3 0 2.8 0 4.2-.1zm34.3-.1l-4.3-.3-.1 1.5 4.3.3.1-1.5zm-81.9 15.1l.3-.4-1.1-1c-.1.1-.2.3-.4.4-.9 1.2-1.7 2.5-2.2 3.9l1.4.5c.5-1.2 1.2-2.3 2-3.4zm14.1-9.7l-.5-1.4c-1.4.5-2.7 1.1-4 1.8l.7 1.3c1.2-.6 2.5-1.2 3.8-1.7zm198.3 26.6c-.8-1-1.6-2-2.6-3l-1.1 1c1 1 1.8 2 2.5 3 .5-.3.8-.7 1.2-1zm-5.7-6c-1.1-.9-2.2-1.8-3.5-2.6l-.8 1.2c1.2.8 2.3 1.7 3.4 2.5l.9-1.1zm-117.7 102.7l4.2 1.2.3-1.4c-1.4-.3-2.7-.7-4.1-1.1l-.4 1.3zm-92.1-103.8c0-.8 0-1.6.1-2.4l-1.4-.2c-.1.8-.1 1.7-.1 2.5 0 .6 0 1.2.1 1.9l1.5-.1c-.2-.5-.2-1.1-.2-1.7zm8.9-17c-1.2.8-2.4 1.7-3.5 2.6l1 1.1c1-.9 2.1-1.7 3.3-2.5l-.8-1.2zm11.4 60.6l2.7 3.3 1.1-.9-2.7-3.3-1.1.9zm-21-37.4c.3 1.4.7 2.8 1.1 4.2l1.4-.4c-.5-1.4-.8-2.8-1.1-4.1l-1.4.3zm2.6 8.3c.5 1.3 1.1 2.6 1.8 3.9l1.3-.6c-.6-1.3-1.2-2.6-1.7-3.9l-1.4.6zm67.4 77.2c1.2.9 2.3 1.7 3.5 2.5l.8-1.2-3.5-2.4-.8 1.1zm116.2-20.7l1 1.1c1.1-.9 2.2-1.9 3.2-2.8l-1-1.1-3.2 2.8zm-3.3 2.8l-3.3 2.7.9 1.2 3.4-2.7-1-1.2zm12.8-81.6c-1.3-.6-2.6-1.1-4-1.7l-.5 1.3c1.3.5 2.7 1.1 3.9 1.7l.6-1.3zm-23 89.3l.8 1.2c1.2-.8 2.4-1.7 3.5-2.5l-.9-1.2-3.4 2.5zm-6.1-96.7l4.2.9.3-1.4-4.2-.9-.3 1.4zm-1.1 101.4l.8 1.2 3.6-2.3-.8-1.2c-1.1.8-2.3 1.5-3.6 2.3zm9.4-99.5c1.4.4 2.8.7 4.1 1.1l.4-1.4c-1.3-.4-2.7-.8-4.2-1.1l-.3 1.4zm24 8.7c1.3.7 2.5 1.4 3.7 2.1l.8-1.3c-1.2-.7-2.5-1.4-3.8-2.1l-.7 1.3zm-87.5-18c-1.4-.1-2.8-.3-4.3-.4l-.1 1.5 4.3.4.1-1.5zm6.9 127.4l.2 1.5c1.4-.2 2.8-.4 4.3-.6l-.2-1.4c-1.5.1-2.9.3-4.3.5zm1.6-126.7c-1.4-.1-2.8-.2-4.3-.4l-.1 1.5 4.3.4.1-1.5zm8.6.8c-1.4-.1-2.8-.2-4.3-.4l-.1 1.5c1.4.1 2.9.2 4.3.4l.1-1.5zm29.7 111.7l.7 1.3c1.2-.7 2.5-1.4 3.7-2.2l-.8-1.3c-1.1.8-2.3 1.5-3.6 2.2zm-57 15.2l4.3.6.1-1.5c-1.4-.1-2.8-.3-4.2-.5l-.2 1.4zm1.7-129.2c-1.4-.1-2.8-.3-4.3-.4l-.1 1.4c1.4.1 2.8.3 4.3.4l.1-1.4zm23.8 126.8l.3 1.4c1.4-.3 2.8-.7 4.2-1.1l-.4-1.4c-1.3.4-2.7.8-4.1 1.1zm-15.3 1.7h-1.6v1.5h4.3l-.1-1.5h-2.6zm42.7-123.9c-1.4-.2-2.8-.4-4.3-.5l-.2 1.4c1.4.2 2.8.4 4.2.5l.3-1.4zm-3.4 113.4l.7 1.3c1.3-.6 2.6-1.3 3.8-2l-.7-1.3c-1.3.7-2.6 1.3-3.8 2zm-13.8-113.7l.1-1.5c-.3 0-.7 0-1-.1-1.1-.1-2.2-.1-3.2-.2l-.1 1.5c1.1.1 2.2.2 3.2.2.3.1.7.1 1 .1zm25.8 1.7l-4.2-.7-.2 1.4 4.2.7.2-1.4zm-19.8 115.5l.6 1.3c1.3-.6 2.6-1.1 4-1.7l-.6-1.3c-1.4.6-2.7 1.1-4 1.7zm-8 3l.5 1.4c1.4-.4 2.7-.9 4.1-1.4l-.5-1.4c-1.4.4-2.8.9-4.1 1.4zm10.7-120.9c-1.4-.1-2.8-.3-4.3-.4l-.1 1.5c1.4.1 2.9.2 4.3.4l.1-1.5zm-44.4 125.6zm109.3-104.7zm-56.4-19.9zm-51.2-4.6zm-34.3-2.6zm-17.2-.2z"/><g class="st14"><path class="st17" d="M169.8 30.8"/><path class="st15" d="M169.8 30.8c3.4-.1 6.1 0 7.9.2l5.9-.8c-4.2.7-8.4 1.5-12.5 2.2-11.2 2.2-23.9 5.1-35.9 8.1s-23.5 6.3-32.4 8.9c5.3-1.7 11.5-3.6 17.5-5.4l5.9-1.7c3.8-1.1 7.2-2 10-2.7l-1.6.5c4.1-1.2 8.2-2.4 12.2-3.6 4.1-1 8.3-2 12.4-2.9l-12.4 2.9c7.6-1.9 15.3-3.8 23-5.7"/><path class="st17" d="M146.8 36.7m-44.1 12.8l80.9-19.2"/><path class="st15" d="M212.6 97.8l-.6.2 2.9-.8c11.6-2.7 23-5.7 33.6-8.8 12.9-3.8 26.2-7.9 40-12.7 2.7-1 5.5-2 8.3-3-5.5 2.2-11 4.3-16.6 6.3l-1.7.5c-11.9 3.9-22.9 7.2-33.6 10.2-10.7 3-21.2 5.7-32.3 8.1"/><path class="st17" d="M280.2 78.9m14.6-6.9"/><path class="st10" d="M294.8 72c12.5-4.9 25.7-10.5 37.9-17.4l.1.2c-6.8 3.8-14.3 7.5-22.1 10.8-2.2.9-4.3 1.8-6.5 2.6l1.6-.6c-3.7 1.6-7.3 3-11 4.4m27.9-11.5c3.7-1.9 7.4-3.8 11-5.9l1.5-.8c-4.1 2.4-8.3 4.6-12.5 6.7m-112.5 42.8l-3.4.6 4.2-.8-.8.2"/><path class="st17" d="M206.8 103.9m129.1-40"/><path class="st10" d="M335.9 63.9c-1.8.9-3.6 1.8-5.5 2.7 1.8-.8 3.7-1.7 5.5-2.7m-5.5 2.7l-.7.4.7-.4"/><path class="st17" d="M331.2 20"/><path class="st10" d="M331.2 20c1.4.2 2.7.5 4 .8-1.2-.3-2.6-.6-4-.8"/><path class="st17" d="M357.3 48.4"/><path class="st10" d="M357.3 48.4l-1.4 1.2 1.4-1.2m-305.7 61.9c-3-.5-6.1-1.2-9-1.9 3 .8 6 1.4 9 1.9"/><path class="st17" d="M206.8 103.9"/><path class="st10" d="M206.8 103.9l-6.7 1.1 6.7-1.1"/><path class="st17" d="M341.6 22.7m0 0"/><path class="st10" d="M341.6 22.7c1.8.5 3.6 1.1 5.3 1.7-1.5-.6-3-1-4.5-1.5l-.8-.2m-17.8-3.8c2.5.3 5 .7 7.4 1.1l-4.9-.8-2.5-.3"/><path class="st17" d="M331.2 20"/><path class="st10" d="M354.7 39.4c1.6-2.1 2.5-4.3 2.5-5.9v-1.6.8c.1.9 0 1.9-.4 3-.5 1.2-1.2 2.4-2.1 3.7"/><path class="st17" d="M331.2 20.3m0 0"/><path class="st10" d="M331.2 20.3c3.5.6 7 1.4 10.4 2.4 1.8.5 3.6 1.1 5.3 1.7-1.5-.6-3-1-4.5-1.5 2.5.8 5 1.6 7.3 2.7s4.4 2.4 5.8 3.9c.7.7 1.2 1.5 1.4 2.2 0 .1 0 .2.1.3v.1l.1.3v1.6-.1c-.2 1.6-1.4 3.7-3.1 5.8l-.8 1.2c1.6-1.8 3-3.7 3.6-5.5.3-.9.4-1.6.4-2.3v-.6.1l-.1-.3-.1-.2c-.1-.2-.2-.6-.4-.9l.3.6.1.3.1.2.1.3v1.2-.1-1l-.1-.4c0-.2 0-.1-.1-.3l-.3-.8c.2.3.3.5.4.8l.1.3.1.4v-.8.2.1s-.1-.2-.1-.4c-.1-.3-.3-.7-.5-1-.4-.7-1.1-1.4-1.9-2.1-1.6-1.4-3.8-2.6-6.2-3.6 1.9.8 3.6 1.8 5.1 2.8-1.8-1.3-4.1-2.5-6.5-3.4.5.2 1 .4 1.4.6-2.1-.9-4.4-1.7-6.7-2.4-3.7-1.1-7.2-1.8-10.7-2.4m15.7 4.1c-.5-.2-1-.4-1.5-.5.5.1 1 .3 1.5.5m9.7 6.7"/><path class="st17" d="M342.3 22.9"/><path class="st9" d="M342.3 22.9c1.5.4 3 .9 4.5 1.5-1.4-.5-2.9-1-4.5-1.5"/><path class="st17" d="M346.8 24.4m10.4 8.2"/><path class="st9" d="M357.2 32.7v.8-.8"/><path class="st17" d="M311.3 17.9m0 0"/><path class="st10" d="M311.3 17.9l4.2.3c2 .1 3.9.3 5.8.5 5.8.7 11.6 1.5 17.1 2.9 1.1.3 2.1.6 3.1.9-3.4-.9-6.9-1.6-10.4-2.2-6.4-1.2-13.1-1.9-19.8-2.4"/><path class="st17" d="M341.6 22.5m15 8.6"/><path class="st10" d="M356.6 31.1c.2.3.3.5.4.8l.1.3.1.4v-.2.1.1l-.1-.4c0-.2 0-.1-.1-.3-.1-.3-.2-.6-.4-.8"/><path class="st17" d="M357.2 32.6"/><path class="st9" d="M356.6 31.1c.2.3.3.5.4.8l.1.3.1.4v-.2.1s.1.2 0 .1l-.1-.4c0-.2 0-.1-.1-.3-.1-.3-.2-.6-.4-.8"/><path class="st17" d="M357.2 32.6m-47.6-14.8"/><path class="st10" d="M309.6 17.8l3.3.2 2.6.2-4.2-.3-1.7-.1"/><path class="st17" d="M312.2 17.9m0 0"/><path class="st10" d="M312.2 17.9l.7.1-.7-.1m2.2.2c3.2.2 6.3.5 9.4.8l-5-.5c-1.4-.1-2.9-.2-4.4-.3"/><path class="st17" d="M315.5 18.2m41.7 14.5"/><path class="st9" d="M357.2 32.7v.8-.8"/><path class="st17" d="M357.2 32.7m-45-14.8"/><path class="st10" d="M312.2 17.9l2.2.2-2.2-.2m.7.1l1.5.1c1.5.1 3 .2 4.4.4l2.5.3c-1.9-.2-3.9-.4-5.8-.5 2 .1 3.9.3 5.8.5-1.9-.2-3.9-.4-5.8-.5l-2.6-.3"/><path class="st9" d="M312.2 17.9l2.2.2-1.5-.1-.7-.1m2.2.2c1.5.1 3 .2 4.4.4-1.4-.2-2.9-.3-4.4-.4"/><path class="st17" d="M321.3 18.7m0 0l-5.8-.5"/><path class="st9" d="M315.5 18.2c2 .1 3.9.3 5.8.5-1.9-.2-3.8-.3-5.8-.5"/><path class="st17" d="M318.8 18.4m0 0"/><path class="st10" d="M318.8 18.4c1.7.1 3.3.3 5 .5l2.5.4c-2.5-.4-5-.6-7.5-.9"/><path class="st17" d="M323.8 18.9m0 0"/><path class="st9" d="M323.8 18.9l2.5.3-2.5-.3m-5-.5c1.7.1 3.3.3 5 .5-1.6-.2-3.3-.3-5-.5"/><path class="st17" d="M323.8 18.9m-5-.5"/><path class="st10" d="M318.8 18.4c2.5.2 5 .5 7.5.8l4.1.7c-2.7-.5-5.5-.8-8.2-1.1l-.8-.1-2.6-.3"/><path class="st17" d="M326.3 19.2m4.1.8l-11.6-1.6"/><path class="st9" d="M318.8 18.4c2.5.2 5 .5 7.5.8l-7.5-.8"/><path class="st17" d="M326.3 19.2m0 0"/><path class="st9" d="M345.4 23.8l1.5.5c-.5-.1-1-.3-1.5-.5"/><path class="st17" d="M321.3 18.7m25.6 5.7"/><path class="st10" d="M346.9 24.4c.5.2 1 .4 1.4.5 1.9.8 3.6 1.8 5.1 2.9-1.8-1.4-4.1-2.5-6.5-3.4"/><path class="st9" d="M346.9 24.4c.5.2 1 .4 1.4.5-.5-.2-1-.4-1.4-.5"/><path class="st17" d="M348.3 24.9"/><path class="st9" d="M348.3 24.9c1.9.8 3.6 1.8 5.1 2.9-1.5-1.1-3.2-2.1-5.1-2.9"/><path class="st17" d="M348.3 24.9m5.1 2.9l-14.9-6.2"/><path class="st10" d="M338.5 21.6c1.6.4 3.1.8 4.7 1.3l-1.5-.4c-1.1-.3-2.2-.6-3.2-.9"/><path class="st17" d="M321.3 18.7m0 0"/><path class="st10" d="M321.3 18.7l.8.1c5.5.7 11 1.5 16.3 2.8-5.5-1.3-11.2-2.2-17.1-2.9"/><path class="st9" d="M321.3 18.7l.9.1-.9-.1.9.1-.9-.1m0 0l.9.1-.9-.1"/><path class="st17" d="M338.5 21.6"/><path class="st10" d="M350.1 52.2c-3.5 2.5-7.2 4.8-11 6.9 4.2-2.4 8.4-5 12.3-8l-1.3 1.1"/><path class="st17" d="M339.1 59.1"/><path class="st10" d="M345.2 55.8c-3.5 2.1-7 4-10.6 5.8 4.6-2.3 9.1-4.9 13.4-7.8l-2.8 2"/><path class="st17" d="M334.6 61.6m2.9-.1"/><path class="st10" d="M337.5 61.5c-10.6 5.9-20.9 10.3-29.7 13.6 5-2 10.1-4.1 15-6.4l-.8.4c5.3-2.4 10.4-4.9 15.5-7.6"/><path class="st17" d="M322.8 68.7m0 0l-15 6.4 29.7-13.6"/><path class="st10" d="M337.5 61.5c-5.1 2.8-10.2 5.3-15.5 7.6l.8-.4c5-2.2 9.9-4.6 14.7-7.2"/><path class="st17" d="M337.5 61.5"/><path class="st9" d="M337.5 61.5c-5.1 2.8-10.2 5.3-15.5 7.6 5.3-2.4 10.4-4.9 15.5-7.6"/><path class="st17" d="M322 69.1"/><path class="st10" d="M342.3 57.7c-1.2.7-2.5 1.4-3.8 2.1 2.3-1.3 4.5-2.6 6.7-4l-2.9 1.9"/><path class="st17" d="M338.5 59.8m24.5-30"/><path class="st10" d="M363 29.8c.1.2.2.5.2.8l.2.7c.1.6.2 1 .2 1.5 0 1 0 2-.2 3 .2-1 .3-2 .2-3 0-.5-.1-1-.2-1.5 0-.2-.1-.4-.2-.7-.1-.4-.1-.6-.2-.8"/><path class="st16" d="M192.8 24l-4.2.9-5.8 1.3c9.2-1.7 18.5-3.2 29.4-4.8l-3.4.4c11.8-1.9 20.3-2.8 30.4-3.9-14.4 1.4-32.9 4.1-46.4 6.1m16-2.2"/><path class="st17" d="M212.2 21.4m27-3.5l17.8-2"/><path class="st10" d="M257 15.9l3.4-.3-3.4.3"/><path class="st17" d="M212.2 21.4"/><path class="st10" d="M212.2 21.4l5.1-.7-5.1.7"/><path class="st17" d="M251.9 16.2"/><path class="st10" d="M251.9 16.2l5.1-.3-5.1.3m110.9 15.6c.3 1.9 0 3.8-.7 5.5-.6 1.7-1.6 3.2-2.7 4.6 1-1.4 1.9-2.9 2.6-4.6.7-1.7 1-3.6.8-5.5m0 0c.2 1.9-.1 3.8-.7 5.5.6-1.7.9-3.6.7-5.5"/><path class="st17" d="M362.1 37.3m.6-7.4"/><path class="st10" d="M362.7 29.9c.5 1.5.6 3.2.4 4.8-.3 1.9-1 3.6-1.9 5.2-.9 1.6-2 3-3.2 4.3 1.4-1.6 2.8-3.4 3.7-5.5 1-2 1.5-4.4 1.2-6.8v-.9c-.1-.5-.1-.8-.2-1.1"/><path class="st17" d="M358 44.1"/><path class="st10" d="M362.7 29.9c.5 1.5.6 3.2.4 4.8.2-1.6.1-3.3-.4-4.8"/><path class="st17" d="M363.1 34.6m-.7-5.7"/><path class="st10" d="M362.4 28.9c.2.5.4 1 .6 1.6.1.5.2 1.1.3 1.7.1 1.1 0 2.3-.2 3.4-.5 2.2-1.5 4.1-2.7 5.8 1.3-2 2.5-4.2 2.8-6.8.2-1.6.1-3.2-.4-4.8-.2-.3-.3-.6-.4-.9"/><path class="st17" d="M360.3 41.4m2.4-9.6"/><path class="st16" d="M362.7 31.8c.2 1.9-.1 3.7-.7 5.4s-1.5 3.2-2.6 4.6c1.1-1.4 2-2.9 2.7-4.6-.8 2.4-2.3 4.5-3.9 6.5-1.7 2-3.6 3.7-5.5 5.4-4 3.3-8.3 6.1-12.4 8.5 4.3-2.6 8.5-5.5 12.3-8.7 3.3-2.8 6.5-5.9 8.5-9.9 1-2 1.6-4.2 1.4-6.6 0-.6-.2-1.1-.3-1.7-.2-.6-.4-1.1-.6-1.6-.5-1-1.1-2-1.9-2.8 1.4 1.5 2.6 3.4 3 5.5"/><path class="st9" d="M362.7 31.8c.2 1.9-.1 3.7-.7 5.4s-1.5 3.2-2.6 4.6c1-1.4 2-2.9 2.6-4.6.7-1.6 1-3.5.7-5.4"/><path class="st17" d="M359.4 41.9m2.7-4.6"/><path class="st10" d="M356.3 23.5c1.3.9 2.6 2 3.7 3.4 1.1 1.3 1.9 2.9 2.2 4.6.3 1.7.2 3.5-.4 5.1-.5 1.6-1.3 3.1-2.2 4.4-1.8 2.7-4.1 4.9-6.3 6.8-2.2 1.9-4.4 3.4-6.3 4.7.8-.5 1.5-1.1 2.2-1.6 3.5-2.7 6.6-5.4 9-8.4 1.2-1.5 2.3-3.2 3-4.9.7-1.8 1.1-3.7.8-5.6-.3-1.9-1.2-3.7-2.5-5.2s-2.8-2.7-4.5-3.8c-3.4-2.1-7.3-3.5-11.7-4.7l-1.4-.4c4.1 1.2 9.5 2.9 14.1 6.1 2.3 1.6 4.3 3.7 5.2 6.1.9 2.5.6 5-.2 6.9.6-1.6.9-3.2.6-4.9-.2-1.6-.9-3.2-1.9-4.5-2-2.7-4.9-4.5-7.8-5.9-5.9-2.8-12.2-4.4-18.5-5.6 3.9.6 7.9 1.5 11.7 2.6 4 1.1 7.8 2.5 11.2 4.8"/><path class="st17" d="M361 36.9m-2.3 4.5"/><path class="st10" d="M358.7 41.4c-1.8 2.4-4 4.4-6.2 6.3-2.3 1.9-4.7 3.6-7.2 5.2 2.1-1.4 4.2-2.9 6.1-4.5 2.7-2.1 5.2-4.4 7.3-7m-34.3 22.7l-2.3 1.1-.8.3 3.1-1.4m13.6-6.9c-1.2.7-2.5 1.4-3.7 2-3.2 1.7-6.6 3.3-9.9 4.9l-2.3 1.1c5.4-2.4 10.8-5.1 15.9-8m-3.7 2.1c-3.2 1.7-6.6 3.3-9.9 4.9 3.4-1.6 6.7-3.2 9.9-4.9"/><path class="st17" d="M322.1 65.2m29.3-16.9"/><path class="st10" d="M351.4 48.3c-2 1.6-4 3.1-6.1 4.5-3.5 2.3-7.2 4.5-10.9 6.5-3.2 1.7-6.6 3.3-9.9 4.9l-3.1 1.4.8-.3c-4.9 2.1-9.9 4.1-15 6 5.8-2.3 11.5-4.8 17.1-7.4 8.5-3.9 19.1-9.3 27.1-15.6"/><path class="st9" d="M351.4 48.3c-2 1.6-4 3.1-6.1 4.5 2.1-1.4 4.1-2.9 6.1-4.5"/><path class="st17" d="M345.2 52.8m-20.8 11.3"/><path class="st9" d="M324.4 64.1l-3.1 1.4 3.1-1.4"/><path class="st17" d="M321.3 65.5"/><path class="st9" d="M334.3 59.3c-3.2 1.7-6.6 3.3-9.9 4.9 3.4-1.6 6.7-3.2 9.9-4.9"/><path class="st17" d="M322.1 65.2m12.2-5.9"/><path class="st9" d="M334.3 59.3c-3.2 1.7-6.6 3.3-9.9 4.9 3.4-1.6 6.7-3.2 9.9-4.9"/><path class="st17" d="M319.6 65.7m0 0"/><path class="st10" d="M319.6 65.7c-8.5 3.8-16.4 6.8-22.9 9 6.3-2.4 12.6-4.9 18.8-7.7l-2.3 1.2c2.2-.8 4.3-1.6 6.4-2.5"/><path class="st17" d="M134.5 116.7m0 0"/><path class="st10" d="M134.5 116.7l-7.7.6 2.5-.3 5.2-.3"/><path class="st9" d="M111.6 41c16.6-4.2 30.1-6.7 41.1-8.3-8.3 1.9-16.6 4-24.8 6.3-13.3 3.6-26.6 7.6-36.4 10.7-9.8 3.1-16.3 5.3-16.3 4.8 0-.1.5-.5 1.7-1.1 12-4.7 24.1-9 34.7-12.4"/><path class="st17" d="M152.8 32.6"/><path class="st10" d="M20.2 86.6c.8-1 1.6-1.9 2.5-2.8-2.1 2.4-3.2 4-4.4 6.2-.6 1.1-1.2 2.5-1.6 4.4-.4 1.9-.5 4.5.8 7.5-.1-.2-.3-.5-.5-.9-.2-.3-.4-1.1-.5-1.4-.3-1.2-.4-2.6-.3-4.1.2-1.5.6-3.2 1.3-4.7l2.7-4.2"/><path class="st17" d="M46.9 66.4"/><path class="st13" d="M46.9 66.4c6.3-3 14.6-6.8 23.5-10.4l6.5-2.6c-1.1.6-1.7 1-1.7 1.1 0 .5 6.5-1.7 16.3-4.9 9.8-3.1 23.1-7.1 36.4-10.7-20.4 5.6-40.5 12.1-60 20.4-6.5 2.8-12.9 5.7-19.2 9-4.5 2.4-9 4.9-13.2 7.8-4.2 2.9-8.4 6-11.9 9.9-1.7 1.9-3.3 4.1-4.4 6.6-.5 1.2-.9 2.6-1 3.9-.1 1.4.1 2.8.5 4.1.9 2.6 2.9 4.7 5 6.2 2.1 1.6 4.5 2.7 6.9 3.7-.8-.4-1.5-.8-2.3-1.3-2.2-1.1-4.4-2.4-6.2-4.1-1.8-1.7-3.3-4-3.6-6.6-.3-2.5.4-5 1.6-7.1 1.1-2.2 2.7-4.1 4.3-5.8 1-1.1 2.1-2.1 3.2-3.1 3.3-2.9 6.9-5.4 10.6-7.7 3.7-2.3 7.4-4.4 11-6.3 7.4-3.8 14.6-7 21.4-9.7-10.5 4.5-21.2 9.5-31.3 15.7-3.3 2.1-6.6 4.3-9.7 6.7-3 2.5-5.9 5.2-8.1 8.4-1.6 2.4-2.9 5.2-2.8 8.1.1 1.5.5 2.9 1.2 4.2s1.7 2.4 2.7 3.3c2.1 1.9 4.7 3.3 7.2 4.4 2.6 1.1 5.2 2 7.9 2.8 5.3 1.5 10.6 2.4 15.7 3.2 5.1.7 10.1 1.2 14.9 1.6 6.8.5 17.1.7 27.3.4-4.8.1-9.7.2-14.5.1l-1.7.2c6.6.3 13.1.3 19.7.3l-5.1.1c-6.3.1-12.6.1-18.8-.1-5.7-.2-11.4-.5-17.1-1.1-3.5-.4-7-.8-10.6-1.4-5.5-.9-11.1-2.1-16.7-4.1-2.8-1.1-5.6-2.3-8.1-4.3-1.3-1-2.5-2.1-3.5-3.5-.5-.7-1-1.5-1.3-2.3-.2-.4-.3-.8-.5-1.3-.1-.3-.1-.4-.2-.6v-.3l-.1-.3c0 .2.1.3.1.6l.1.4c.1.4.2.8.3 1.1.2.7.5 1.3.9 2 .7 1.2 1.6 2.3 2.6 3.2 2 1.9 4.2 3.2 6.5 4.3 2.3 1.2 3.4 1.6 3.6 1.8.2.2-.7 0-2.3-.6-1.6-.6-4-1.6-6.6-3.4-1.3-.9-2.6-2.1-3.8-3.6-.6-.8-1.1-1.6-1.5-2.5-.2-.5-.4-.9-.6-1.5l-.1-.4-.1-.3v-.2l-.1-.2-.1-.4c-.4-2.1-.1-4.3.5-6.1.6-1.9 1.5-3.5 2.4-4.9.4-.5.8-1 1.1-1.5-1 1.3-1.9 2.8-2.5 4.3-.7 1.5-1.2 3.1-1.3 4.7-.2 1.6 0 3 .3 4.1.1.3.3 1.1.5 1.4.2.4.3.7.5.9-1.4-3-1.2-5.6-.8-7.6.4-1.9 1-3.3 1.6-4.4 1.2-2.3 2.2-3.8 4.4-6.2.9-.8 1.9-1.6 2.8-2.3 3.1-2.7 6.5-5.1 9.9-7.2-2.4 1.9.7-.2 4.3-2.3 3.6-2.1 7.9-4.3 7.2-3.7 6.1-3.2 12.3-6 18.7-8.6 3.3-1.6 6.7-3.1 10.1-4.6-7.2 2.6-14.6 5.6-20 7.9-5.4 2.1-9 3.8-8.8 3.2"/><path class="st9" d="M75.3 54.5c0 .5 6.5-1.7 16.3-4.9 9.8-3.1 23.1-7.1 36.4-10.7-13.3 3.6-26.6 7.6-36.4 10.7-9.8 3.2-16.3 5.4-16.3 4.9m-52.5 29.4c-2.1 2.4-3.2 4-4.4 6.2-.6 1.1-1.2 2.5-1.6 4.4-.4 1.9-.6 4.5.8 7.5-1.4-3-1.2-5.6-.8-7.5.4-1.9 1-3.3 1.6-4.4 1.1-2.2 2.2-3.8 4.4-6.2"/><path class="st17" d="M19.1 88.2m3.7-4.3l54.2-30.5 22.4 64.9 12-.3"/><path class="st10" d="M111.4 118c-4 .2-8 .2-12 .3l-5.1.1c-6.3.1-12.6.1-18.8-.1h-.9c5.4.2 10.9.3 16.3.3-6 .1-12 .1-18-.1 6.9.4 15.4.5 24 .2 4.8-.2 9.6-.4 14.5-.7m-17.2.4c-6.3.1-12.6.1-18.8-.1 6.3.2 12.6.2 18.8.1m0 0"/><path class="st17" d="M94.2 118.4"/><path class="st9" d="M94.2 118.4c-6.3.1-12.6.1-18.8-.1 6.3.2 12.6.2 18.8.1"/><path class="st10" d="M22 84.5l.7-.6c-.9.9-1.7 1.8-2.5 2.8.6-.8 1.2-1.5 1.8-2.2"/><path class="st17" d="M22.8 83.9m72.6-32.3"/><path class="st10" d="M95.4 51.6l.8-.1-.8.1"/><path class="st18" d="M13.9 92.9c.6-1.9 1.4-3.4 2.1-4.6.8-1.2 1.5-2.2 2.1-2.9 1.3-1.6 2.4-2.5 3.1-3.1 1.5-1.2 1.9-1.2 1.7-.8-.3.9-2.3 3.8-1 3.1-.6.7-1.2 1.4-1.8 2.2-.4.5-.8 1-1.1 1.5-.9 1.4-1.8 3-2.4 4.9-.6 1.9-.8 4-.5 6.1l.1.4.1.2v.2l.1.3.1.4c.2.6.4 1 .6 1.5.4.9 1 1.8 1.5 2.5 1.2 1.5 2.5 2.7 3.8 3.6 2.6 1.8 4.9 2.8 6.6 3.4 1.6.6 2.5.8 2.3.7-.2-.2-1.3-.6-3.6-1.8-2.3-1.1-4.5-2.5-6.5-4.4-1-.9-1.9-2-2.6-3.2-.4-.6-.7-1.3-.9-2-.1-.3-.2-.7-.3-1.1l-.1-.4c0-.3-.1-.4-.1-.6l.1.3v.3c0 .2.1.4.2.6.1.5.3.9.5 1.3.4.8.8 1.6 1.3 2.3 1 1.4 2.3 2.6 3.5 3.5 2.6 1.9 5.4 3.2 8.1 4.3 5.6 2.1 11.2 3.2 16.7 4.1 3.5.6 7.1 1 10.6 1.4 5.7.6 11.4.9 17.1 1.1h-.9c-5.1-.2-10.3-.5-15.4-1 8.5 1.1 20.6 1.5 31.7 1.2-6 .1-12 .1-18-.1 6.9.4 15.4.5 24 .2l-2.6.2c3.4.1 6.9.1 10.3.1-6.6.2-13.1.3-19.7.2-2.3.1-4.6.2-6.9.2 6.9.5 15.5 1.1 29.2.8-9 .3-17 .2-25.8 0-4.4-.1-9-.4-14.1-.7-5.1-.4-10.6-.9-16.9-1.8h-1.8c-1.7-.3-3.4-.7-5.1-1.1 3 .8 7.7 1.7 12.3 2.4 4.6.7 9.2 1.1 11.7 1.5-5.2-.4-10.4-1-15.5-1.8.4.2 2.6.6 4.9 1l6.3.9c-6.4-.7-10-1.4-13.9-2.3-2-.4-4-.9-6.4-1.5-2.4-.6-5.3-1.3-9-2.4l-.7-.2-1-.4c-3.3-1.1-6.1-2.5-8.5-4-2.4-1.5-4.3-3.2-5.7-5.1-.7-.9-1.2-1.9-1.6-2.8-.2-.5-.4-.9-.5-1.4l-.2-.5v-.2l-.1-.3c-.3-1.5-.4-2.6-.4-3.2 0-1.3-.3-1.1-.6.6-.1.8-.2 2.1.1 3.5.2 1.5.8 3.3 1.9 5-.7-1-1.2-2.2-1.7-3.4l-.3-1-.1-.3v-.2l-.1-.3v-.6c0-.2 0-.3-.1-.5 0-.3-.1-.6-.1-1-.1-1.8.1-3.1.3-4.1.2-.9.4-1.5.5-1.9.2-.8.1-.6-.1-.2-.5.9-1.1 3.1-.8 1.2"/><path class="st9" d="M31.4 112.4c-.2-.2-1.3-.6-3.6-1.8-2.3-1.1-4.5-2.5-6.5-4.4-1-.9-1.9-2-2.6-3.2-.4-.6-.7-1.3-.9-2-.1-.3-.2-.7-.3-1.1l-.1-.4c0-.3-.1-.4-.1-.6 0 .2.1.3.1.6l.1.4c.1.4.2.8.3 1.1.2.7.5 1.3.9 2 .7 1.2 1.6 2.3 2.6 3.2 2 1.9 4.2 3.2 6.5 4.4 2.2 1.2 3.4 1.6 3.6 1.8m-14.1-13.5l.1.3v.3c0 .2.1.4.2.6.1.5.3.9.5 1.3.4.8.8 1.6 1.3 2.3 1 1.4 2.3 2.6 3.5 3.5 2.6 1.9 5.4 3.2 8.1 4.3 5.6 2.1 11.1 3.2 16.7 4.1-5.5-.9-11.1-2.1-16.7-4.1-2.8-1.1-5.6-2.3-8.1-4.3-1.3-1-2.5-2.1-3.5-3.5-.5-.7-1-1.5-1.3-2.3-.2-.4-.3-.8-.5-1.3-.1-.3-.1-.4-.2-.6v-.3l-.1-.3m73.5 19.7c-6 .1-12 .1-18-.1 6 .2 12 .2 18 .1"/><path class="st17" d="M72.8 118.5"/><path class="st9" d="M74.5 118.4l.9-.1-.9.1"/><path class="st17" d="M16.5 105.4m46.7 15.1l44-.3-39.6.3-34.4-6.4 15.4 3.5 56 1.5-13.8-.5-16.3-.2 49.6-2.3"/><path class="st18" d="M124.1 116.1l3.4-.4 4.2-.6-5.1.4 5.1-.4.8-.3c-4 .3-8 .6-11.9.8l6.8-.5-10.2.6 12.8-.9v-.1l-4.2.3c-10.2.8-21.3 1.5-30.6 1.6l13.1-.6c9.3-.6 18.7-1.3 28.5-2.3l3.4-.4c-12.7 1.3-27.2 2.4-36.5 2.5l2.7-.2c8.8-.5 16.2-1 23.7-1.6 7.5-.6 15-1.4 23.9-2.6l1.4-.2c-8.5.9-22 2.3-30.5 2.8 13.6-1 26.3-2.3 39-4l1.7-.2c16.9-2.5 32-5.2 47-8.3-6.4 1.3-12.8 2.5-19.3 3.6 6.4-1.1 12.9-2.3 19.3-3.6 24.2-5 46.5-10.7 69.3-18-6 1.8-12 3.5-18.1 5.1 11.4-3.6 24.3-7.9 34.7-11.9-16.8 6.1-31.6 10.3-48 14.7 16.4-4.4 31.2-8.7 48-14.7l3.2-1.2c-6.8 2.4-14.7 5.1-22.6 7.5-7.9 2.5-15.9 4.7-22.9 6.6 9.8-2.7 18.1-5 29.3-8.8l-3.2 1-4.9 1.6 4.9-1.6c10.5-3.5 19.3-6.6 28.1-10 9.3-4.2 20-9.5 30.2-15.7 1.7-1 3.3-2.1 5-3.2-3.5 2.3-7.2 4.5-10.9 6.5 1.2-.6 2.5-1.3 3.7-2-5.2 2.9-10.5 5.5-15.9 7.9-4.9 2.1-9.9 4.1-15 6 5.8-2.3 11.5-4.8 17.1-7.4-1.5.7-3.1 1.3-4.7 2-8.5 3.8-16.5 6.8-22.9 9 6.3-2.4 12.6-4.9 18.8-7.7 3.6-1.7 7.1-3.5 10.6-5.3l-1.7.3c-6.6 2.8-17.3 7.4-30.6 12.2l-2.4.9.9.1-4.1 1.2-7.1 2.8-7.3 2.3c-4 1.5-9.2 3.2-14.9 4.9-5.7 1.6-11.8 3.3-17.6 4.7l5-1.2c-2.6.9-5.7 1.8-9 2.6-5 1.3-10.3 2.4-14.8 3.4l-9.9 2-.9.2.4-.1-.4.1c-4.7 1-9.4 1.9-14.2 2.8l-7.5 1.3-4.2.6 4.2-.6 5-.9-4.2.6 8.4-1.5c-5.6 1-11.2 1.9-16.7 2.8l-5.9.9 1.7-.3-7.6 1c-5.3.8-10.6 1.5-16 2.1l-10.9 1.5c3.1-.4 6.2-.8 9.2-1.3l5-.8c-5.6.8-11.2 1.5-16.8 2.1l.8-.2c-6.7.7-15.1 1.5-23.6 2.2l-.8.1c-4.8.4-9.5.8-14.3 1l12.6-.9-.9-.2c-8.1.6-16.8 1.2-25.5 1.3h-6.5 1.7c-4.2 0-8.4 0-12.6-.2-7.1-.2-14-.6-20.6-1.3 1.8.3 3.7.6 5.6.9-1.9-.3-3.7-.5-5.6-.9-5.9-.7-11.6-1.7-16.7-3.3-2.5-.8-4.9-1.8-7-2.9-2-1.2-3.7-2.6-4.6-4-.2-.3-.4-.8-.5-1.1v-.2l-.1-.2v-.1.1l-.1-.6c-.1-.8 0-1.6.2-2.5.4-1.8 1.5-3.6 2.7-5.3 2.5-3.4 5.7-6.2 8.7-8.7-2.3 1.8-4.5 3.6-6.4 5.6-1.9 2-3.6 4.1-4.6 6.3-1.1 2.2-1.3 4.2-.7 6 .6 1.7 2 3.3 3.8 4.5 2.7 1.9 6 3.2 9.5 4.3 3.5 1.1 7.1 1.9 10.8 2.5 7.4 1.3 15.1 1.9 23 2.3 1.7.1 3.5.2 5.2.2-5.9 0-11.8-.2-17.6-.7l.8.1-4.2-.3 3.3.2c-6.7-.7-12.9-1.6-18.6-3.1-2.9-.7-5.6-1.6-8.1-2.7s-4.8-2.5-6.4-4.2c-1.6-1.7-2.4-3.6-2.2-5.7.2-2.1 1.3-4.4 2.9-6.5 3.2-4.2 7.8-7.9 12.7-11.2-1.1.8-2.2 1.6-3.3 2.5 5.6-4.2 11.8-7.8 18.1-11.2 6.3-3.3 12.9-6.4 19.5-9.2 4.9-2.3 9.8-4.4 14.8-6.5-4.3 1.5-8.5 3.1-12.7 4.8 2.3-1 4.7-2 7.1-2.9 1-.4 5.1-2 5.5-2.2.2-.1-1 .3-5.6 2-2.3.9-5.4 2.1-9.5 3.8-4.1 1.7-9.2 3.9-15.5 6.9-4.3 2.1-8.6 4.4-12.7 6.8 6.9-4.1 13.7-7.6 20.2-10.6 6.4-3 12.5-5.6 18-8-3.5 1.2-6.9 2.5-10.4 3.9-10.5 4.5-21.2 9.5-31.3 15.7-3.3 2.1-6.6 4.3-9.6 6.7-3 2.5-5.9 5.2-8.1 8.4-1.6 2.4-2.9 5.2-2.8 8.2.1 1.5.5 2.9 1.2 4.2.7 1.3 1.7 2.4 2.7 3.3 2.1 1.9 4.7 3.3 7.2 4.4 2.6 1.1 5.2 2 7.9 2.8 5.3 1.5 10.6 2.4 15.7 3.2 5.1.7 10.1 1.2 14.9 1.6 6.8.5 17.1.7 27.3.4l1.7-.1h-5.1l7.7-.1c-4 0-8 0-12-.1 5.1.1 10.2 0 15.4-.1l2.6-.2c-4.3.1-8.5.2-12.8.2 4.8 0 9.7-.2 14.5-.4l3.4-.3c3.9-.6 8.2-.8 12.5-1m119.6-22.9c12.4-3.1 23.1-5.8 38.6-10.8-15.5 5-26.2 7.7-38.6 10.8l-5 1.2-3.3.8 3.3-.8 5-1.2-.8.3c-4.4 1.1-8.8 2.2-13.2 3.2 4.4-1 8.8-2.1 13.2-3.2l.8-.3m-69.1 14.8c11.7-1.9 19.4-3 30.2-5.2-10.8 2.2-18.4 3.2-30.2 5.2m-10.1 1.6l-.8.1-8.4 1.2 8.4-1.2.8-.1c10.1-1.4 17.7-2.5 27.8-4.3-10.1 1.8-17.7 2.8-27.8 4.3m70.2-14l-5 1.3 5-1.3m-209-8.9c2.4-2.6 5.2-5 8.1-7.1 2.9-2.2 6-4.2 9.1-6.1-3.1 1.9-6.2 3.9-9.1 6.1-2.9 2.1-5.7 4.5-8.1 7.1m0 0c2.4-2.6 5.2-5 8.1-7.1 2.9-2.2 6-4.2 9.1-6.1-3.1 1.9-6.2 3.9-9.1 6.1-2.9 2.1-5.7 4.5-8.1 7.1m0 0c-.8.8-1.5 1.6-2.1 2.5-.6.9-1.2 1.8-1.7 2.7-.5.9-.9 1.9-1.2 2.9-.2.9-.4 1.9-.3 2.8v.3c0 .2 0 .5.1.7v.3l.1.4c.1.4.3.8.5 1.3.4.9 1 1.7 1.7 2.4.7.8 1.5 1.4 2.3 2.1.9.6 1.8 1.2 2.7 1.7s1.9.9 3 1.4l2.3.9c1 .4 2.1.7 3.2 1s2.1.6 3.2.8l3.3.7 2.5.4c1.1.2 2.2.4 3.3.5l2.5.3c-6.4-.9-12.3-2-17.6-3.8-2.7-.9-5.2-2-7.4-3.4s-4.1-3.2-5-5.3l-.2-.5-.1-.4-.1-.4-.1-.4c-.2-1.1-.1-2.3.2-3.5.1-.3.1-.6.2-.8.3-1 .8-1.9 1.3-2.8.3-.5.6-1 1-1.5.7-1.3 1.5-2.3 2.4-3.3m48.1-27.5l-4.2 1.7-2.9 1.2-3.1 1.4-3.1 1.5-3.8 1.8-1.8.9c-1.6.8-3.3 1.7-4.9 2.6h-.1l-2.9 1.7 3-1.7-3 1.7 3-1.7-3 1.7c1.2-.7 2.5-1.4 3.8-2.1l2.1-1.1 3.8-1.9 1.2-.6 3.6-1.7 2.1-1 2.2-1c2.8-1.2 5.5-2.3 8-3.4m218.5 16l3.2-1-3.2 1"/><path class="st15" d="M25.7 86.7c-1.5 1.6-2.8 3.3-3.8 5.1-1 1.8-1.6 3.8-1.5 5.7-.1-.9.1-1.8.3-2.8.3-1 .7-1.9 1.2-2.9.5-.9 1.1-1.8 1.7-2.7.6-.8 1.4-1.6 2.1-2.4m-2.4 3l-1 1.5c-.5.9-1 1.9-1.3 2.8-.1.3-.2.5-.2.8.4-1.7 1.3-3.4 2.5-5.1m-2.9 8.2c.2 2.9 2.2 5.3 4.7 7.1 2.5 1.8 5.4 3.1 8.4 4.1 5.9 2 12 3 17.6 3.7l-2.5-.3-3.3-.5-2.5-.4c-1.1-.2-2.2-.4-3.3-.7-1.1-.2-2.2-.5-3.2-.8-1.1-.3-2.1-.6-3.2-1-.8-.3-1.6-.6-2.3-.9-1-.4-2-.9-3-1.4s-1.9-1.1-2.7-1.7c-.9-.6-1.7-1.3-2.3-2-.7-.7-1.3-1.6-1.7-2.4-.2-.4-.4-.9-.5-1.3l-.1-.4v-.3c0-.4 0-.6-.1-.8m.2.5l.1.4.1.4.1.4.2.5c-.1-.3-.2-.6-.3-.8 0-.1-.1-.3-.1-.5l-.1-.4"/><path class="st11" d="M211.7 98h.3l.6-.2-.9.2"/><path class="st17" d="M57.2 111.2"/><path class="st9" d="M57.2 111.2c-1.9-.3-3.7-.5-5.6-.9l5.6.9"/><path class="st17" d="M338 57.2m0 0"/><path class="st9" d="M338 57.2c-1.2.7-2.5 1.4-3.7 2 1.3-.6 2.5-1.3 3.7-2m-13.8 6.6c-5.6 2.7-11.3 5.1-17.1 7.4 5.8-2.3 11.5-4.8 17.1-7.4"/><path class="st17" d="M307.2 71.2"/><path class="st9" d="M296.7 74.7c6.3-2.4 12.6-4.9 18.8-7.7-6.2 2.8-12.5 5.3-18.8 7.7m-271 12c-.8.8-1.5 1.6-2.1 2.5-.6.9-1.2 1.8-1.7 2.7-.5.9-.9 1.9-1.2 2.9-.2.9-.4 1.9-.3 2.8 0-.9.1-1.8.3-2.8.3-1 .7-1.9 1.2-2.9.5-.9 1.1-1.8 1.7-2.7.6-.9 1.4-1.7 2.1-2.5m-2.4 3l-1 1.5c-.5.9-1 1.9-1.3 2.8-.1.3-.2.5-.2.8.1-.3.2-.6.2-.8.3-1 .8-1.9 1.3-2.8.3-.5.6-1 1-1.5m-2.9 8.2c0 .2 0 .5.1.7v.3l.1.4c.1.4.3.8.5 1.3.4.9 1 1.7 1.7 2.4.7.8 1.5 1.4 2.3 2.1.9.6 1.8 1.2 2.7 1.7s1.9.9 3 1.4l2.3.9c1 .4 2.1.7 3.2 1s2.1.6 3.2.8l3.3.7 2.5.4c1.1.2 2.2.4 3.3.5l2.5.3-2.5-.3-3.3-.5-2.5-.4-3.3-.7s-2.2-.5-3.2-.8c-1.1-.3-2.1-.6-3.2-1l-2.3-.9c-1-.4-2-.9-3-1.4s-1.9-1.1-2.7-1.7c-.9-.6-1.6-1.3-2.3-2.1-.7-.7-1.3-1.6-1.7-2.4-.2-.4-.4-.9-.5-1.3l-.1-.4v-.3c0-.3 0-.5-.1-.7m.2.5l.1.4.1.4.1.4.2.5-.2-.5-.1-.4-.1-.4-.1-.4m22.4-24.9c-3.1 1.9-6.2 3.9-9.1 6.1-2.9 2.2-5.7 4.5-8.1 7.2 2.4-2.6 5.2-5 8.1-7.2 2.9-2.2 6-4.2 9.1-6.1m0 0c-3.1 1.9-6.2 3.9-9.1 6.1-2.9 2.2-5.7 4.5-8.1 7.2 2.4-2.6 5.2-5 8.1-7.2 2.9-2.2 6-4.2 9.1-6.1"/><path class="st17" d="M95.9 117.7"/><path class="st9" d="M95.9 117.7c-10.2.3-20.5.1-27.3-.4-4.8-.4-9.7-.8-14.9-1.6-5.1-.7-10.4-1.7-15.7-3.2-2.6-.8-5.3-1.6-7.9-2.8-2.6-1.1-5.1-2.5-7.2-4.4-1.1-1-2-2.1-2.7-3.3-.7-1.3-1.1-2.7-1.2-4.2-.1-3 1.1-5.8 2.8-8.2-1.6 2.4-2.9 5.2-2.8 8.2.1 1.5.5 2.9 1.2 4.2.7 1.3 1.7 2.4 2.7 3.3 2.1 1.9 4.7 3.3 7.2 4.4 2.6 1.1 5.2 2 7.9 2.8 5.3 1.5 10.6 2.4 15.7 3.2 5.1.7 10.1 1.2 14.9 1.6 6.8.5 17.1.7 27.3.4m-25.1-58.9c-10.5 4.5-21.2 9.5-31.3 15.7 10.1-6.2 20.8-11.2 31.3-15.7"/><path class="st17" d="M97.6 117.6m0 0l2.6-.1 3.4-.2 28.1-2.2 150-31.7-173.8 33.6 19.5-1.9 2.6-.3 82.4-13.4 85.9-24.7-161.6 36.9-65.9-54.8 239.3 12.9-156.2 39.6 89-17.8 42.4-12.8 49-21.4-278.6 7.4"/><path class="st15" d="M63.6 63.5l3.1-1.4c-3.9 1.7-7.9 3.5-11.8 5.5l1.8-.9 3.8-1.8 3.1-1.4m2.3-.9l-2.3 1-2.1 1 4.4-2m-8 3.7l-1.2.6-3.7 1.8-2.1 1.1c2.2-1.2 4.6-2.3 7-3.5"/><path class="st17" d="M324.2 63.8"/><path class="st15" d="M50 70.3"/><path class="st17" d="M34.1 81.3m207.3 9.7l-46.4 10.3 4.2-.9-116.1 11.4"/><path class="st10" d="M93 52.4l-1.6.6 1.6-.6"/><path class="st9" d="M86.5 54.4c20-7.2 39.7-12.6 60.3-17.7-4.1 1.1-8.2 2.3-12.2 3.6l1.6-.5c-2.7.7-6.2 1.7-10 2.7l-5.9 1.7c-6 1.8-12.3 3.7-17.5 5.4l-6.5 2-.9.1 4.8-1.8-7.2 2.6-1.6.5c-6.6 2.5-13.2 5.1-19.7 7.9 4.9-2.3 9.8-4.4 14.8-6.5m39.6-11.9c3.8-1.1 7.2-2 10-2.7-2.7.7-6.2 1.6-10 2.7l-5.9 1.7 5.9-1.7m10-2.7l-1.6.5 1.6-.5m-40.7 11.8l.8-.1-.8.1m-8.9 2.8c-5 2.1-9.9 4.2-14.8 6.5 4.9-2.3 9.8-4.4 14.8-6.5m2.8-2.9c12-4.3 27.5-9 40.5-12.4-5.3 1.7-12.6 4.1-20.3 6.7-7.8 2.6-15.9 5.6-23 8.5-4.3 1.5-8.5 3.1-12.7 4.8 2.3-1 4.7-2 7.1-2.9 1-.4 5.1-2 5.5-2.2.2-.1-1 .3-5.6 2-2.3.9-5.4 2.1-9.5 3.8-4.1 1.7-9.2 3.9-15.5 6.9-4.3 2.1-8.6 4.4-12.7 6.8 6.9-4.1 13.7-7.6 20.2-10.6 6.4-3 12.5-5.6 18-8-3.5 1.2-6.9 2.5-10.4 3.9 2.1-.9 4.2-1.8 6.3-2.6 2.5-1 5.4-2.2 8.8-3.4l3.3-1.3m-8.1 3.4c-5.5 2.3-11.6 4.9-18 7.9s-13.3 6.5-20.2 10.6c6.9-4.1 13.7-7.6 20.2-10.6 6.4-3 12.5-5.6 18-7.9m5.1-.9c-.4.2-4.5 1.8-5.5 2.2l-7.1 2.9c2.3-1 4.7-2 7.1-2.9 1-.3 5.1-2 5.5-2.2"/><path class="st17" d="M48.8 68.3"/><path class="st12" d="M48.8 68.3c6.3-3.3 12.7-6.2 19.2-9 19.5-8.2 39.7-14.7 60-20.4 6.2-1.7 12.4-3.2 18.6-4.8l6.2-1.5c6.8-1 12.8-1.6 17.1-1.8-7.7 1.9-15.4 3.8-23.1 5.9-20.6 5.1-40.3 10.5-60.3 17.7 7.1-2.9 15.3-5.9 23-8.5 7.8-2.7 15-5 20.3-6.7-13 3.4-28.5 8-40.5 12.3l-3.4 1.2c-3.3 1.2-6.3 2.4-8.8 3.4-2.1.8-4.2 1.7-6.3 2.6-6.8 2.7-14.1 5.9-21.4 9.7-3.7 1.9-7.4 4-11 6.3-3.6 2.3-7.2 4.8-10.6 7.7-1.1 1-2.2 2-3.2 3.1-1.6 1.7-3.2 3.6-4.3 5.8-1.1 2.1-1.9 4.6-1.6 7.1.3 2.6 1.7 4.9 3.6 6.6 1.8 1.7 4 3 6.2 4.1.7.5 1.5.9 2.3 1.3-2.4-1-4.8-2.1-6.9-3.7-2.1-1.5-4.1-3.6-5-6.2-.5-1.3-.6-2.7-.5-4.1.1-1.4.5-2.7 1-3.9 1-2.5 2.6-4.6 4.4-6.6 3.5-3.9 7.6-7 11.9-9.9 4.1-2.7 8.5-5.3 13.1-7.7"/><path class="st17" d="M128 39m24.8-6.4"/><path class="st9" d="M48.8 68.3c-4.5 2.4-9 4.9-13.2 7.8-4.2 2.9-8.4 6-11.9 9.9-1.7 1.9-3.3 4.1-4.4 6.6-.5 1.2-.9 2.6-1 3.9-.1 1.4.1 2.8.5 4.1.9 2.6 2.9 4.7 5 6.2 2.1 1.6 4.5 2.7 6.9 3.7-2.4-1-4.8-2.1-6.9-3.7-2.1-1.5-4.1-3.6-5-6.2-.5-1.3-.6-2.7-.5-4.1.1-1.4.5-2.7 1-3.9 1-2.5 2.6-4.6 4.4-6.6 3.5-3.9 7.6-7 11.9-9.9 4.2-2.8 8.6-5.4 13.2-7.8m19.1-9c19.5-8.2 39.7-14.7 60-20.4-20.3 5.7-40.4 12.2-60 20.4m-49.2 39.2c-.3-2.5.4-5 1.6-7.1 1.1-2.2 2.7-4 4.3-5.8 1-1.1 2.1-2.1 3.2-3.1 3.3-2.9 6.9-5.4 10.6-7.7 3.6-2.3 7.4-4.4 11-6.3-3.7 1.9-7.4 4-11 6.3-3.6 2.3-7.2 4.8-10.6 7.7-1.1 1-2.2 2-3.2 3.1-1.6 1.7-3.2 3.6-4.3 5.8-1.2 2.1-1.9 4.6-1.6 7.1"/><path class="st17" d="M128 39m0 0l-100.2 43.5"/><path class="st9" d="M89.3 51.5l-3.4 1.3 3.4-1.3m40.5-12.3c-5.3 1.7-12.6 4.1-20.3 6.7-7.8 2.6-15.9 5.6-23 8.5 7.1-2.9 15.3-5.9 23-8.5 7.7-2.7 15-5 20.3-6.7"/><path class="st17" d="M152.8 32.6m-24.8 6.4"/><path class="st10" d="M128 39c8.2-2.3 16.5-4.4 24.8-6.3l-6.2 1.5c-6.2 1.5-12.5 3.1-18.6 4.8"/><path class="st17" d="M152.8 32.6"/><path class="st9" d="M128 39c8.2-2.3 16.5-4.4 24.8-6.3-8.3 1.9-16.6 4-24.8 6.3"/></g><linearGradient id="SVGID_2_" gradientUnits="userSpaceOnUse" x1="940.622" y1="-946.375" x2="964.739" y2="-946.375" gradientTransform="matrix(.992 -.125 -.125 -.992 -1015.517 -704.709)"><stop offset="0" stop-color="#CBDFED"/><stop offset=".009" stop-color="#C4DBEC"/><stop offset=".074" stop-color="#99C1E3"/><stop offset=".136" stop-color="#73AEDB"/><stop offset=".194" stop-color="#51A0D6"/><stop offset=".248" stop-color="#3898D2"/><stop offset=".292" stop-color="#2C96D1"/><stop offset=".646" stop-color="#256D9A"/><stop offset=".811" stop-color="#304D7A"/><stop offset="1" stop-color="#322A59"/></linearGradient><path class="st1" d="M59.9 113.8c.8 6.6-3.9 12.6-10.5 13.5-6.6.8-12.6-3.8-13.5-10.4-.8-6.6 3.8-12.6 10.5-13.5 6.6-.9 12.7 3.8 13.5 10.4z"/><linearGradient id="SVGID_3_" gradientUnits="userSpaceOnUse" x1="1103.762" y1="-1275.282" x2="1116.282" y2="-1275.282" gradientTransform="matrix(.478 .878 .878 -.478 845.487 -1554.742)"><stop offset="0" stop-color="#CBDFED"/><stop offset=".009" stop-color="#C4DBEC"/><stop offset=".074" stop-color="#99C1E3"/><stop offset=".136" stop-color="#73AEDB"/><stop offset=".194" stop-color="#51A0D6"/><stop offset=".248" stop-color="#3898D2"/><stop offset=".292" stop-color="#2C96D1"/><stop offset=".646" stop-color="#256D9A"/><stop offset=".811" stop-color="#304D7A"/><stop offset="1" stop-color="#322A59"/></linearGradient><path class="st2" d="M256.6 36.4c-3.4-.1-6.2-3-6-6.5.1-3.5 3-6.2 6.5-6 3.5.1 6.2 3 6 6.5-.2 3.5-3.1 6.2-6.5 6z"/><linearGradient id="SVGID_4_" gradientUnits="userSpaceOnUse" x1="1097.478" y1="-1268.805" x2="1111.556" y2="-1268.805" gradientTransform="matrix(.478 .878 .878 -.478 845.487 -1554.742)"><stop offset="0" stop-color="#CBDFED"/><stop offset=".009" stop-color="#C4DBEC"/><stop offset=".074" stop-color="#99C1E3"/><stop offset=".136" stop-color="#73AEDB"/><stop offset=".194" stop-color="#51A0D6"/><stop offset=".248" stop-color="#3898D2"/><stop offset=".292" stop-color="#2C96D1"/><stop offset=".646" stop-color="#256D9A"/><stop offset=".811" stop-color="#304D7A"/><stop offset="1" stop-color="#322A59"/></linearGradient><path class="st3" d="M251.5 18.8c6.3-2.6 13.4.1 16.4 6.1.1.2.2.5.4.8l-1.7.7c-.1-.2-.2-.4-.3-.7-2.5-5.1-8.6-7.4-14-5.2l-.8-1.7z"/><linearGradient id="SVGID_5_" gradientUnits="userSpaceOnUse" x1="1081.763" y1="-1260.061" x2="1113.212" y2="-1260.061" gradientTransform="matrix(.478 .878 .878 -.478 845.487 -1554.742)"><stop offset="0" stop-color="#CBDFED"/><stop offset=".009" stop-color="#C4DBEC"/><stop offset=".074" stop-color="#99C1E3"/><stop offset=".136" stop-color="#73AEDB"/><stop offset=".194" stop-color="#51A0D6"/><stop offset=".248" stop-color="#3898D2"/><stop offset=".292" stop-color="#2C96D1"/><stop offset=".646" stop-color="#256D9A"/><stop offset=".811" stop-color="#304D7A"/><stop offset="1" stop-color="#322A59"/></linearGradient><path class="st4" d="M245.5 4.2c14-5.8 29.9.3 36.6 13.6.3.6.6 1.2.8 1.8l-1.7.7c-.2-.6-.5-1.1-.8-1.7-6.2-12.5-21.1-18.2-34.2-12.7l-.7-1.7z"/><linearGradient id="SVGID_6_" gradientUnits="userSpaceOnUse" x1="1089.627" y1="-1264.433" x2="1112.379" y2="-1264.433" gradientTransform="matrix(.478 .878 .878 -.478 845.487 -1554.742)"><stop offset="0" stop-color="#CBDFED"/><stop offset=".009" stop-color="#C4DBEC"/><stop offset=".074" stop-color="#99C1E3"/><stop offset=".136" stop-color="#73AEDB"/><stop offset=".194" stop-color="#51A0D6"/><stop offset=".248" stop-color="#3898D2"/><stop offset=".292" stop-color="#2C96D1"/><stop offset=".646" stop-color="#256D9A"/><stop offset=".811" stop-color="#304D7A"/><stop offset="1" stop-color="#322A59"/></linearGradient><path class="st5" d="M249.2 13.2zm-.7-1.7c10.1-4.2 21.7.2 26.5 9.9.2.4.4.8.6 1.3l-1.7.7-.5-1.2c-4.4-8.8-14.9-12.8-24.1-9l-.8-1.7z"/><linearGradient id="SVGID_7_" gradientUnits="userSpaceOnUse" x1="666.662" y1="-941.704" x2="695.852" y2="-941.704" gradientTransform="matrix(.986 -.165 -.165 -.986 -732.571 -803.105)"><stop offset="0" stop-color="#CBDFED"/><stop offset=".009" stop-color="#C4DBEC"/><stop offset=".074" stop-color="#99C1E3"/><stop offset=".136" stop-color="#73AEDB"/><stop offset=".194" stop-color="#51A0D6"/><stop offset=".248" stop-color="#3898D2"/><stop offset=".292" stop-color="#2C96D1"/><stop offset=".646" stop-color="#256D9A"/><stop offset=".811" stop-color="#304D7A"/><stop offset="1" stop-color="#322A59"/></linearGradient><path class="st6" d="M92.1 0l5.1 9.9 11-1.7-7.9 7.8 5.1 10-10-5.1-7.8 7.9 1.7-11-9.9-5.1 11-1.7z"/><linearGradient id="SVGID_8_" gradientUnits="userSpaceOnUse" x1="660.627" y1="-998.601" x2="682.086" y2="-998.601" gradientTransform="matrix(.905 -.425 -.425 -.905 -816.349 -484.798)"><stop offset="0" stop-color="#CBDFED"/><stop offset=".009" stop-color="#C4DBEC"/><stop offset=".074" stop-color="#99C1E3"/><stop offset=".136" stop-color="#73AEDB"/><stop offset=".194" stop-color="#51A0D6"/><stop offset=".248" stop-color="#3898D2"/><stop offset=".292" stop-color="#2C96D1"/><stop offset=".646" stop-color="#256D9A"/><stop offset=".811" stop-color="#304D7A"/><stop offset="1" stop-color="#322A59"/></linearGradient><path class="st7" d="M214.8 144.7l-8.8-6.2.9-10.7 9.7-4.5 8.9 6.1-1 10.7z"/><linearGradient id="SVGID_9_" gradientUnits="userSpaceOnUse" x1="1080.635" y1="-1049.695" x2="1080.635" y2="-1063.018" gradientTransform="matrix(1 0 0 -1 -867 -962.5)"><stop offset="0" stop-color="#CBDFED"/><stop offset=".009" stop-color="#C4DBEC"/><stop offset=".074" stop-color="#99C1E3"/><stop offset=".136" stop-color="#73AEDB"/><stop offset=".194" stop-color="#51A0D6"/><stop offset=".248" stop-color="#3898D2"/><stop offset=".292" stop-color="#2C96D1"/><stop offset=".646" stop-color="#256D9A"/><stop offset=".811" stop-color="#304D7A"/><stop offset="1" stop-color="#322A59"/></linearGradient><path class="st8" d="M211.2 99.1c.5.3 1.3.6 2.1.6 1.2 0 1.9-.6 1.9-1.5s-.5-1.3-1.7-1.8c-1.5-.5-2.4-1.3-2.4-2.6 0-1.4 1.2-2.5 2.9-2.5.9 0 1.6.2 2 .5l-.3 1c-.3-.2-.9-.4-1.7-.4-1.2 0-1.7.7-1.7 1.4 0 .9.6 1.3 1.8 1.8 1.5.6 2.3 1.3 2.3 2.7 0 1.4-1 2.6-3.2 2.6-.9 0-1.8-.3-2.3-.6l.3-1.2z"/><linearGradient id="SVGID_10_" gradientUnits="userSpaceOnUse" x1="1088.01" y1="-1049.698" x2="1088.01" y2="-1063.019" gradientTransform="matrix(1 0 0 -1 -867 -962.5)"><stop offset="0" stop-color="#CBDFED"/><stop offset=".009" stop-color="#C4DBEC"/><stop offset=".074" stop-color="#99C1E3"/><stop offset=".136" stop-color="#73AEDB"/><stop offset=".194" stop-color="#51A0D6"/><stop offset=".248" stop-color="#3898D2"/><stop offset=".292" stop-color="#2C96D1"/><stop offset=".646" stop-color="#256D9A"/><stop offset=".811" stop-color="#304D7A"/><stop offset="1" stop-color="#322A59"/></linearGradient><path class="st20" d="M218 96.1c0-.8 0-1.5-.1-2.1h1.1v1.1c.5-.8 1.2-1.3 2.3-1.3 1.6 0 2.8 1.3 2.8 3.3 0 2.3-1.4 3.5-3 3.5-.9 0-1.6-.4-2-1v3.5h-1.1v-7zm1.1 1.8c0 .2 0 .3.1.5.2.8.9 1.4 1.8 1.4 1.3 0 2-1 2-2.5 0-1.3-.7-2.4-2-2.4-.8 0-1.6.6-1.8 1.5l-.1.5v1z"/><linearGradient id="SVGID_11_" gradientUnits="userSpaceOnUse" x1="1094.734" y1="-1049.698" x2="1094.734" y2="-1063.018" gradientTransform="matrix(1 0 0 -1 -867 -962.5)"><stop offset="0" stop-color="#CBDFED"/><stop offset=".009" stop-color="#C4DBEC"/><stop offset=".074" stop-color="#99C1E3"/><stop offset=".136" stop-color="#73AEDB"/><stop offset=".194" stop-color="#51A0D6"/><stop offset=".248" stop-color="#3898D2"/><stop offset=".292" stop-color="#2C96D1"/><stop offset=".646" stop-color="#256D9A"/><stop offset=".811" stop-color="#304D7A"/><stop offset="1" stop-color="#322A59"/></linearGradient><path class="st21" d="M230.2 99c0 .6 0 1.1.1 1.6h-1.1l-.1-.8c-.4.5-1.1 1-2 1-1.3 0-2-.9-2-1.9 0-1.6 1.4-2.4 3.9-2.4v-.1c0-.5-.2-1.5-1.5-1.5-.6 0-1.2.2-1.7.5l-.3-.8c.5-.3 1.3-.6 2.2-.6 2 0 2.5 1.4 2.5 2.7v2.3zm-1.1-1.8c-1.3 0-2.8.2-2.8 1.5 0 .8.5 1.1 1.1 1.1.9 0 1.4-.5 1.6-1.1l.1-.4v-1.1z"/><linearGradient id="SVGID_12_" gradientUnits="userSpaceOnUse" x1="1100.294" y1="-1049.699" x2="1100.294" y2="-1063.019" gradientTransform="matrix(1 0 0 -1 -867 -962.5)"><stop offset="0" stop-color="#CBDFED"/><stop offset=".009" stop-color="#C4DBEC"/><stop offset=".074" stop-color="#99C1E3"/><stop offset=".136" stop-color="#73AEDB"/><stop offset=".194" stop-color="#51A0D6"/><stop offset=".248" stop-color="#3898D2"/><stop offset=".292" stop-color="#2C96D1"/><stop offset=".646" stop-color="#256D9A"/><stop offset=".811" stop-color="#304D7A"/><stop offset="1" stop-color="#322A59"/></linearGradient><path class="st22" d="M233.5 92.4v1.6h1.7v.9h-1.7v3.5c0 .8.2 1.3.9 1.3.3 0 .5 0 .7-.1l.1.9c-.2.1-.6.2-1.1.2-.5 0-1-.2-1.3-.5-.3-.4-.5-.9-.5-1.7v-3.6h-1v-.9h1v-1.2l1.2-.4z"/><linearGradient id="SVGID_13_" gradientUnits="userSpaceOnUse" x1="1104.164" y1="-1049.699" x2="1104.164" y2="-1063.017" gradientTransform="matrix(1 0 0 -1 -867 -962.5)"><stop offset="0" stop-color="#CBDFED"/><stop offset=".009" stop-color="#C4DBEC"/><stop offset=".074" stop-color="#99C1E3"/><stop offset=".136" stop-color="#73AEDB"/><stop offset=".194" stop-color="#51A0D6"/><stop offset=".248" stop-color="#3898D2"/><stop offset=".292" stop-color="#2C96D1"/><stop offset=".646" stop-color="#256D9A"/><stop offset=".811" stop-color="#304D7A"/><stop offset="1" stop-color="#322A59"/></linearGradient><path class="st23" d="M237.9 92.2c0 .4-.3.7-.8.7-.4 0-.7-.3-.7-.7 0-.4.3-.7.7-.7.5-.1.8.2.8.7zm-1.3 8.3v-6.5h1.2v6.5h-1.2z"/><linearGradient id="SVGID_14_" gradientUnits="userSpaceOnUse" x1="1108.834" y1="-1049.698" x2="1108.834" y2="-1063.018" gradientTransform="matrix(1 0 0 -1 -867 -962.5)"><stop offset="0" stop-color="#CBDFED"/><stop offset=".009" stop-color="#C4DBEC"/><stop offset=".074" stop-color="#99C1E3"/><stop offset=".136" stop-color="#73AEDB"/><stop offset=".194" stop-color="#51A0D6"/><stop offset=".248" stop-color="#3898D2"/><stop offset=".292" stop-color="#2C96D1"/><stop offset=".646" stop-color="#256D9A"/><stop offset=".811" stop-color="#304D7A"/><stop offset="1" stop-color="#322A59"/></linearGradient><path class="st24" d="M244.3 99c0 .6 0 1.1.1 1.6h-1.1l-.1-.8c-.4.5-1.1 1-2 1-1.3 0-2-.9-2-1.9 0-1.6 1.4-2.4 3.9-2.4v-.1c0-.5-.2-1.5-1.5-1.5-.6 0-1.2.2-1.7.5l-.3-.8c.5-.3 1.3-.6 2.1-.6 2 0 2.5 1.4 2.5 2.7l.1 2.3zm-1.1-1.8c-1.3 0-2.8.2-2.8 1.5 0 .8.5 1.1 1.1 1.1.9 0 1.4-.5 1.6-1.1l.1-.4v-1.1z"/><linearGradient id="SVGID_15_" gradientUnits="userSpaceOnUse" x1="1113.844" y1="-1049.697" x2="1113.844" y2="-1063.019" gradientTransform="matrix(1 0 0 -1 -867 -962.5)"><stop offset="0" stop-color="#CBDFED"/><stop offset=".009" stop-color="#C4DBEC"/><stop offset=".074" stop-color="#99C1E3"/><stop offset=".136" stop-color="#73AEDB"/><stop offset=".194" stop-color="#51A0D6"/><stop offset=".248" stop-color="#3898D2"/><stop offset=".292" stop-color="#2C96D1"/><stop offset=".646" stop-color="#256D9A"/><stop offset=".811" stop-color="#304D7A"/><stop offset="1" stop-color="#322A59"/></linearGradient><path class="st25" d="M246.2 90.9h1.2v9.6h-1.2v-9.6z"/><linearGradient id="SVGID_16_" gradientUnits="userSpaceOnUse" x1="1123.084" y1="-1049.694" x2="1123.084" y2="-1063.019" gradientTransform="matrix(1 0 0 -1 -867 -962.5)"><stop offset="0" stop-color="#CBDFED"/><stop offset=".009" stop-color="#C4DBEC"/><stop offset=".074" stop-color="#99C1E3"/><stop offset=".136" stop-color="#73AEDB"/><stop offset=".194" stop-color="#51A0D6"/><stop offset=".248" stop-color="#3898D2"/><stop offset=".292" stop-color="#2C96D1"/><stop offset=".646" stop-color="#256D9A"/><stop offset=".811" stop-color="#304D7A"/><stop offset="1" stop-color="#322A59"/></linearGradient><path class="st26" d="M252.3 91.5c.7-.1 1.6-.2 2.5-.2 1.7 0 2.9.4 3.7 1.1.8.7 1.3 1.8 1.3 3.3 0 1.5-.5 2.7-1.3 3.5-.8.9-2.3 1.3-4 1.3-.8 0-1.5 0-2.1-.1v-8.9zm1.2 8.1c.3.1.7.1 1.2.1 2.5 0 3.9-1.4 3.9-3.9 0-2.1-1.2-3.5-3.7-3.5-.6 0-1.1 0-1.4.1v7.2z"/><linearGradient id="SVGID_17_" gradientUnits="userSpaceOnUse" x1="1130.404" y1="-1049.698" x2="1130.404" y2="-1063.018" gradientTransform="matrix(1 0 0 -1 -867 -962.5)"><stop offset="0" stop-color="#CBDFED"/><stop offset=".009" stop-color="#C4DBEC"/><stop offset=".074" stop-color="#99C1E3"/><stop offset=".136" stop-color="#73AEDB"/><stop offset=".194" stop-color="#51A0D6"/><stop offset=".248" stop-color="#3898D2"/><stop offset=".292" stop-color="#2C96D1"/><stop offset=".646" stop-color="#256D9A"/><stop offset=".811" stop-color="#304D7A"/><stop offset="1" stop-color="#322A59"/></linearGradient><path class="st27" d="M265.9 99c0 .6 0 1.1.1 1.6h-1.1l-.1-.8c-.4.5-1.1 1-2 1-1.3 0-2-.9-2-1.9 0-1.6 1.4-2.4 3.9-2.4v-.1c0-.5-.2-1.5-1.5-1.5-.6 0-1.2.2-1.7.5l-.3-.8c.5-.3 1.3-.6 2.2-.6 2 0 2.5 1.4 2.5 2.7v2.3zm-1.1-1.8c-1.3 0-2.8.2-2.8 1.5 0 .8.5 1.1 1.1 1.1.9 0 1.4-.5 1.6-1.1l.1-.4v-1.1z"/><linearGradient id="SVGID_18_" gradientUnits="userSpaceOnUse" x1="1135.965" y1="-1049.699" x2="1135.965" y2="-1063.019" gradientTransform="matrix(1 0 0 -1 -867 -962.5)"><stop offset="0" stop-color="#CBDFED"/><stop offset=".009" stop-color="#C4DBEC"/><stop offset=".074" stop-color="#99C1E3"/><stop offset=".136" stop-color="#73AEDB"/><stop offset=".194" stop-color="#51A0D6"/><stop offset=".248" stop-color="#3898D2"/><stop offset=".292" stop-color="#2C96D1"/><stop offset=".646" stop-color="#256D9A"/><stop offset=".811" stop-color="#304D7A"/><stop offset="1" stop-color="#322A59"/></linearGradient><path class="st28" d="M269.2 92.4v1.6h1.7v.9h-1.7v3.5c0 .8.2 1.3.9 1.3.3 0 .5 0 .7-.1l.1.9c-.2.1-.6.2-1.1.2-.5 0-1-.2-1.3-.5-.3-.4-.5-.9-.5-1.7v-3.6h-1v-.9h1v-1.2l1.2-.4z"/><linearGradient id="SVGID_19_" gradientUnits="userSpaceOnUse" x1="1141.328" y1="-1049.698" x2="1141.328" y2="-1063.018" gradientTransform="matrix(1 0 0 -1 -867 -962.5)"><stop offset="0" stop-color="#CBDFED"/><stop offset=".009" stop-color="#C4DBEC"/><stop offset=".074" stop-color="#99C1E3"/><stop offset=".136" stop-color="#73AEDB"/><stop offset=".194" stop-color="#51A0D6"/><stop offset=".248" stop-color="#3898D2"/><stop offset=".292" stop-color="#2C96D1"/><stop offset=".646" stop-color="#256D9A"/><stop offset=".811" stop-color="#304D7A"/><stop offset="1" stop-color="#322A59"/></linearGradient><path class="st29" d="M276.8 99c0 .6 0 1.1.1 1.6h-1.1l-.1-.8c-.4.5-1.1 1-2 1-1.3 0-2-.9-2-1.9 0-1.6 1.4-2.4 3.9-2.4v-.1c0-.5-.2-1.5-1.5-1.5-.6 0-1.2.2-1.7.5l-.3-.8c.5-.3 1.3-.6 2.1-.6 2 0 2.5 1.4 2.5 2.7l.1 2.3zm-1.1-1.8c-1.3 0-2.8.2-2.8 1.5 0 .8.5 1.1 1.1 1.1.9 0 1.4-.5 1.6-1.1l.1-.4v-1.1z"/><linearGradient id="SVGID_20_" gradientUnits="userSpaceOnUse" x1="1149.239" y1="-1049.698" x2="1149.239" y2="-1063.018" gradientTransform="matrix(1 0 0 -1 -867 -962.5)"><stop offset="0" stop-color="#CBDFED"/><stop offset=".009" stop-color="#C4DBEC"/><stop offset=".074" stop-color="#99C1E3"/><stop offset=".136" stop-color="#73AEDB"/><stop offset=".194" stop-color="#51A0D6"/><stop offset=".248" stop-color="#3898D2"/><stop offset=".292" stop-color="#2C96D1"/><stop offset=".646" stop-color="#256D9A"/><stop offset=".811" stop-color="#304D7A"/><stop offset="1" stop-color="#322A59"/></linearGradient><path class="st30" d="M282.8 91.4v9.1h-1.2v-9.1h1.2z"/><linearGradient id="SVGID_21_" gradientUnits="userSpaceOnUse" x1="1154.738" y1="-1049.699" x2="1154.738" y2="-1063.018" gradientTransform="matrix(1 0 0 -1 -867 -962.5)"><stop offset="0" stop-color="#CBDFED"/><stop offset=".009" stop-color="#C4DBEC"/><stop offset=".074" stop-color="#99C1E3"/><stop offset=".136" stop-color="#73AEDB"/><stop offset=".194" stop-color="#51A0D6"/><stop offset=".248" stop-color="#3898D2"/><stop offset=".292" stop-color="#2C96D1"/><stop offset=".646" stop-color="#256D9A"/><stop offset=".811" stop-color="#304D7A"/><stop offset="1" stop-color="#322A59"/></linearGradient><path class="st31" d="M285 95.8c0-.7 0-1.2-.1-1.8h1.1l.1 1.1c.3-.6 1.1-1.2 2.2-1.2.9 0 2.3.5 2.3 2.8v3.9h-1.2v-3.8c0-1-.4-1.9-1.5-1.9-.8 0-1.4.5-1.6 1.2l-.1.6v3.9h-1.2v-4.8z"/><linearGradient id="SVGID_22_" gradientUnits="userSpaceOnUse" x1="1160.818" y1="-1049.7" x2="1160.818" y2="-1063.017" gradientTransform="matrix(1 0 0 -1 -867 -962.5)"><stop offset="0" stop-color="#CBDFED"/><stop offset=".009" stop-color="#C4DBEC"/><stop offset=".074" stop-color="#99C1E3"/><stop offset=".136" stop-color="#73AEDB"/><stop offset=".194" stop-color="#51A0D6"/><stop offset=".248" stop-color="#3898D2"/><stop offset=".292" stop-color="#2C96D1"/><stop offset=".646" stop-color="#256D9A"/><stop offset=".811" stop-color="#304D7A"/><stop offset="1" stop-color="#322A59"/></linearGradient><path class="st32" d="M292.6 100.5v-5.6h-.9v-.9h.9v-.3c0-.9.2-1.8.8-2.3.4-.4 1-.6 1.6-.6.4 0 .8.1 1 .2l-.2.9c-.2-.1-.4-.2-.8-.2-1 0-1.3.9-1.3 1.9v.4h1.6v.9h-1.6v5.6h-1.1z"/><linearGradient id="SVGID_23_" gradientUnits="userSpaceOnUse" x1="1165.01" y1="-1049.699" x2="1165.01" y2="-1063.018" gradientTransform="matrix(1 0 0 -1 -867 -962.5)"><stop offset="0" stop-color="#CBDFED"/><stop offset=".009" stop-color="#C4DBEC"/><stop offset=".074" stop-color="#99C1E3"/><stop offset=".136" stop-color="#73AEDB"/><stop offset=".194" stop-color="#51A0D6"/><stop offset=".248" stop-color="#3898D2"/><stop offset=".292" stop-color="#2C96D1"/><stop offset=".646" stop-color="#256D9A"/><stop offset=".811" stop-color="#304D7A"/><stop offset="1" stop-color="#322A59"/></linearGradient><path class="st33" d="M296.4 96v-2h1v1.3c.3-.9 1-1.4 1.8-1.4h.3v1.1h-.4c-.8 0-1.4.6-1.6 1.5l-.1.5v3.5h-1.2l.2-4.5z"/><linearGradient id="SVGID_24_" gradientUnits="userSpaceOnUse" x1="1169.874" y1="-1049.698" x2="1169.874" y2="-1063.018" gradientTransform="matrix(1 0 0 -1 -867 -962.5)"><stop offset="0" stop-color="#CBDFED"/><stop offset=".009" stop-color="#C4DBEC"/><stop offset=".074" stop-color="#99C1E3"/><stop offset=".136" stop-color="#73AEDB"/><stop offset=".194" stop-color="#51A0D6"/><stop offset=".248" stop-color="#3898D2"/><stop offset=".292" stop-color="#2C96D1"/><stop offset=".646" stop-color="#256D9A"/><stop offset=".811" stop-color="#304D7A"/><stop offset="1" stop-color="#322A59"/></linearGradient><path class="st34" d="M305.4 99c0 .6 0 1.1.1 1.6h-1.1l-.1-.8c-.4.5-1.1 1-2 1-1.3 0-2-.9-2-1.9 0-1.6 1.4-2.4 3.9-2.4v-.1c0-.5-.2-1.5-1.5-1.5-.6 0-1.2.2-1.7.5l-.3-.8c.5-.3 1.3-.6 2.1-.6 2 0 2.5 1.4 2.5 2.7l.1 2.3zm-1.2-1.8c-1.3 0-2.8.2-2.8 1.5 0 .8.5 1.1 1.1 1.1.8 0 1.4-.5 1.6-1.1l.1-.4v-1.1z"/><linearGradient id="SVGID_25_" gradientUnits="userSpaceOnUse" x1="1175.949" y1="-1049.699" x2="1175.949" y2="-1063.018" gradientTransform="matrix(1 0 0 -1 -867 -962.5)"><stop offset="0" stop-color="#CBDFED"/><stop offset=".009" stop-color="#C4DBEC"/><stop offset=".074" stop-color="#99C1E3"/><stop offset=".136" stop-color="#73AEDB"/><stop offset=".194" stop-color="#51A0D6"/><stop offset=".248" stop-color="#3898D2"/><stop offset=".292" stop-color="#2C96D1"/><stop offset=".646" stop-color="#256D9A"/><stop offset=".811" stop-color="#304D7A"/><stop offset="1" stop-color="#322A59"/></linearGradient><path class="st35" d="M307.1 99.3c.3.2 1 .5 1.6.5.9 0 1.3-.4 1.3-1s-.3-.9-1.2-1.2c-1.2-.4-1.7-1.1-1.7-1.8 0-1 .9-1.9 2.3-1.9.7 0 1.2.2 1.6.4l-.3.9c-.3-.2-.7-.4-1.3-.4-.7 0-1.1.4-1.1.9s.4.8 1.2 1.1c1.1.4 1.7 1 1.7 2 0 1.1-.9 2-2.4 2-.7 0-1.4-.2-1.8-.5l.1-1z"/><linearGradient id="SVGID_26_" gradientUnits="userSpaceOnUse" x1="1180.834" y1="-1049.699" x2="1180.834" y2="-1063.019" gradientTransform="matrix(1 0 0 -1 -867 -962.5)"><stop offset="0" stop-color="#CBDFED"/><stop offset=".009" stop-color="#C4DBEC"/><stop offset=".074" stop-color="#99C1E3"/><stop offset=".136" stop-color="#73AEDB"/><stop offset=".194" stop-color="#51A0D6"/><stop offset=".248" stop-color="#3898D2"/><stop offset=".292" stop-color="#2C96D1"/><stop offset=".646" stop-color="#256D9A"/><stop offset=".811" stop-color="#304D7A"/><stop offset="1" stop-color="#322A59"/></linearGradient><path class="st36" d="M314.1 92.4v1.6h1.7v.9h-1.7v3.5c0 .8.2 1.3.9 1.3.3 0 .5 0 .7-.1l.1.9c-.2.1-.6.2-1 .2-.6 0-1-.2-1.3-.5-.3-.4-.5-.9-.5-1.7v-3.6h-1v-.9h1v-1.2l1.1-.4z"/><linearGradient id="SVGID_27_" gradientUnits="userSpaceOnUse" x1="1185.693" y1="-1049.699" x2="1185.693" y2="-1063.018" gradientTransform="matrix(1 0 0 -1 -867 -962.5)"><stop offset="0" stop-color="#CBDFED"/><stop offset=".009" stop-color="#C4DBEC"/><stop offset=".074" stop-color="#99C1E3"/><stop offset=".136" stop-color="#73AEDB"/><stop offset=".194" stop-color="#51A0D6"/><stop offset=".248" stop-color="#3898D2"/><stop offset=".292" stop-color="#2C96D1"/><stop offset=".646" stop-color="#256D9A"/><stop offset=".811" stop-color="#304D7A"/><stop offset="1" stop-color="#322A59"/></linearGradient><path class="st37" d="M317.1 96c0-.8 0-1.4-.1-2h1v1.3h.1c.3-.9 1-1.4 1.8-1.4h.3v1.1h-.4c-.8 0-1.4.6-1.6 1.5v4h-1.2l.1-4.5z"/><linearGradient id="SVGID_28_" gradientUnits="userSpaceOnUse" x1="1191.273" y1="-1049.7" x2="1191.273" y2="-1063.018" gradientTransform="matrix(1 0 0 -1 -867 -962.5)"><stop offset="0" stop-color="#CBDFED"/><stop offset=".009" stop-color="#C4DBEC"/><stop offset=".074" stop-color="#99C1E3"/><stop offset=".136" stop-color="#73AEDB"/><stop offset=".194" stop-color="#51A0D6"/><stop offset=".248" stop-color="#3898D2"/><stop offset=".292" stop-color="#2C96D1"/><stop offset=".646" stop-color="#256D9A"/><stop offset=".811" stop-color="#304D7A"/><stop offset="1" stop-color="#322A59"/></linearGradient><path class="st38" d="M327 98.7v1.8h-1l-.1-1.1c-.3.5-1 1.2-2.2 1.2-1 0-2.2-.6-2.2-2.9v-3.7h1.2v3.6c0 1.2.4 2.1 1.5 2.1.8 0 1.3-.5 1.6-1.1.1-.2.1-.4.1-.6v-4h1.2v4.7h-.1z"/><linearGradient id="SVGID_29_" gradientUnits="userSpaceOnUse" x1="1198.089" y1="-1049.699" x2="1198.089" y2="-1063.018" gradientTransform="matrix(1 0 0 -1 -867 -962.5)"><stop offset="0" stop-color="#CBDFED"/><stop offset=".009" stop-color="#C4DBEC"/><stop offset=".074" stop-color="#99C1E3"/><stop offset=".136" stop-color="#73AEDB"/><stop offset=".194" stop-color="#51A0D6"/><stop offset=".248" stop-color="#3898D2"/><stop offset=".292" stop-color="#2C96D1"/><stop offset=".646" stop-color="#256D9A"/><stop offset=".811" stop-color="#304D7A"/><stop offset="1" stop-color="#322A59"/></linearGradient><path class="st39" d="M333.6 100.3c-.3.2-1 .4-1.9.4-2 0-3.2-1.3-3.2-3.3 0-2 1.4-3.5 3.5-3.5.7 0 1.3.2 1.7.3l-.3.9c-.3-.2-.7-.3-1.4-.3-1.5 0-2.3 1.1-2.3 2.5 0 1.5 1 2.4 2.3 2.4.7 0 1.1-.2 1.5-.3l.1.9z"/><linearGradient id="SVGID_30_" gradientUnits="userSpaceOnUse" x1="1203.404" y1="-1049.699" x2="1203.404" y2="-1063.019" gradientTransform="matrix(1 0 0 -1 -867 -962.5)"><stop offset="0" stop-color="#CBDFED"/><stop offset=".009" stop-color="#C4DBEC"/><stop offset=".074" stop-color="#99C1E3"/><stop offset=".136" stop-color="#73AEDB"/><stop offset=".194" stop-color="#51A0D6"/><stop offset=".248" stop-color="#3898D2"/><stop offset=".292" stop-color="#2C96D1"/><stop offset=".646" stop-color="#256D9A"/><stop offset=".811" stop-color="#304D7A"/><stop offset="1" stop-color="#322A59"/></linearGradient><path class="st40" d="M336.6 92.4v1.6h1.7v.9h-1.7v3.5c0 .8.2 1.3.9 1.3.3 0 .5 0 .7-.1v.9c-.2.1-.6.2-1 .2-.6 0-1-.2-1.3-.5-.3-.4-.5-.9-.5-1.7v-3.6h-1v-.9h1v-1.2l1.2-.4z"/><linearGradient id="SVGID_31_" gradientUnits="userSpaceOnUse" x1="1209.419" y1="-1049.7" x2="1209.419" y2="-1063.018" gradientTransform="matrix(1 0 0 -1 -867 -962.5)"><stop offset="0" stop-color="#CBDFED"/><stop offset=".009" stop-color="#C4DBEC"/><stop offset=".074" stop-color="#99C1E3"/><stop offset=".136" stop-color="#73AEDB"/><stop offset=".194" stop-color="#51A0D6"/><stop offset=".248" stop-color="#3898D2"/><stop offset=".292" stop-color="#2C96D1"/><stop offset=".646" stop-color="#256D9A"/><stop offset=".811" stop-color="#304D7A"/><stop offset="1" stop-color="#322A59"/></linearGradient><path class="st41" d="M345.2 98.7v1.8h-1l-.1-1.1c-.3.5-1 1.2-2.2 1.2-1 0-2.2-.6-2.2-2.9v-3.7h1.2v3.6c0 1.2.4 2.1 1.5 2.1.8 0 1.3-.5 1.6-1.1.1-.2.1-.4.1-.6v-4h1.2v4.7h-.1z"/><linearGradient id="SVGID_32_" gradientUnits="userSpaceOnUse" x1="1215.709" y1="-1049.699" x2="1215.709" y2="-1063.018" gradientTransform="matrix(1 0 0 -1 -867 -962.5)"><stop offset="0" stop-color="#CBDFED"/><stop offset=".009" stop-color="#C4DBEC"/><stop offset=".074" stop-color="#99C1E3"/><stop offset=".136" stop-color="#73AEDB"/><stop offset=".194" stop-color="#51A0D6"/><stop offset=".248" stop-color="#3898D2"/><stop offset=".292" stop-color="#2C96D1"/><stop offset=".646" stop-color="#256D9A"/><stop offset=".811" stop-color="#304D7A"/><stop offset="1" stop-color="#322A59"/></linearGradient><path class="st42" d="M347.1 96v-2h1v1.3c.3-.9 1-1.4 1.8-1.4h.3v1.1h-.4c-.8 0-1.4.6-1.6 1.5l-.1.5v3.5h-1.2l.2-4.5z"/><linearGradient id="SVGID_33_" gradientUnits="userSpaceOnUse" x1="1220.814" y1="-1049.698" x2="1220.814" y2="-1063.018" gradientTransform="matrix(1 0 0 -1 -867 -962.5)"><stop offset="0" stop-color="#CBDFED"/><stop offset=".009" stop-color="#C4DBEC"/><stop offset=".074" stop-color="#99C1E3"/><stop offset=".136" stop-color="#73AEDB"/><stop offset=".194" stop-color="#51A0D6"/><stop offset=".248" stop-color="#3898D2"/><stop offset=".292" stop-color="#2C96D1"/><stop offset=".646" stop-color="#256D9A"/><stop offset=".811" stop-color="#304D7A"/><stop offset="1" stop-color="#322A59"/></linearGradient><path class="st43" d="M352.1 97.5c0 1.6 1 2.3 2.2 2.3.9 0 1.4-.2 1.8-.3l.2.8c-.4.2-1.1.4-2.2.4-2 0-3.2-1.3-3.2-3.3s1.2-3.5 3.1-3.5c2.1 0 2.7 1.9 2.7 3.1v.6l-4.6-.1zm3.4-.9c0-.8-.3-1.9-1.6-1.9-1.2 0-1.7 1.1-1.8 1.9h3.4z"/><linearGradient id="SVGID_34_" gradientUnits="userSpaceOnUse" x1="1226.859" y1="-1049.699" x2="1226.859" y2="-1063.018" gradientTransform="matrix(1 0 0 -1 -867 -962.5)"><stop offset="0" stop-color="#CBDFED"/><stop offset=".009" stop-color="#C4DBEC"/><stop offset=".074" stop-color="#99C1E3"/><stop offset=".136" stop-color="#73AEDB"/><stop offset=".194" stop-color="#51A0D6"/><stop offset=".248" stop-color="#3898D2"/><stop offset=".292" stop-color="#2C96D1"/><stop offset=".646" stop-color="#256D9A"/><stop offset=".811" stop-color="#304D7A"/><stop offset="1" stop-color="#322A59"/></linearGradient><path class="st44" d="M358 99.3c.4.2 1 .5 1.6.5.9 0 1.3-.4 1.3-1s-.3-.9-1.2-1.2c-1.2-.4-1.7-1.1-1.7-1.8 0-1 .8-1.9 2.2-1.9.7 0 1.2.2 1.6.4l-.3.9c-.3-.2-.7-.4-1.3-.4-.7 0-1.1.4-1.1.9s.4.8 1.2 1.1c1.1.4 1.7 1 1.7 2 0 1.1-.9 2-2.4 2-.7 0-1.4-.2-1.8-.5l.2-1z"/><linearGradient id="SVGID_35_" gradientUnits="userSpaceOnUse" x1="920.234" y1="-987.373" x2="920.234" y2="-1061.794" gradientTransform="matrix(1 0 0 -1 -867 -962.5)"><stop offset="0" stop-color="#CBDFED"/><stop offset=".009" stop-color="#C4DBEC"/><stop offset=".074" stop-color="#99C1E3"/><stop offset=".136" stop-color="#73AEDB"/><stop offset=".194" stop-color="#51A0D6"/><stop offset=".248" stop-color="#3898D2"/><stop offset=".292" stop-color="#2C96D1"/><stop offset=".646" stop-color="#256D9A"/><stop offset=".811" stop-color="#304D7A"/><stop offset="1" stop-color="#322A59"/></linearGradient><path class="st45" d="M43.7 65.5c0-.6.1-.8.6-1.2.5-.4.9-.6 1.7-.6h14.5c.7 0 1.2.2 1.7.6.5.5.6.7.6 1.2v10.6c0 .6-.1.8-.6 1.2-.5.4-.9.6-1.7.6h-13.7c0 .1 0 .1-.1.2.2.3.4.6.5 1 .8 1.8 1.4 3.8 1.3 5.7.1.1.1.1.2.1h11.8c2.4 0 4.7-.8 6.5-2.4 1.9-1.6 3-3.8 3-6.3v-10.7c0-2.4-1-4.6-2.9-6.3-1.8-1.6-4.1-2.5-6.7-2.5h-14.5c-2.5 0-4.9.8-6.7 2.5-1.8 1.6-2.9 3.8-2.9 6.3v3.7c.4-.1.8-.2 1.1-.3.1 0 .1 0 .2-.1.2-.1.4-.1.5-.2l.3-.1"/><linearGradient id="SVGID_36_" gradientUnits="userSpaceOnUse" x1="1178.544" y1="-987.375" x2="1178.544" y2="-1061.794" gradientTransform="matrix(1 0 0 -1 -867 -962.5)"><stop offset="0" stop-color="#CBDFED"/><stop offset=".009" stop-color="#C4DBEC"/><stop offset=".074" stop-color="#99C1E3"/><stop offset=".136" stop-color="#73AEDB"/><stop offset=".194" stop-color="#51A0D6"/><stop offset=".248" stop-color="#3898D2"/><stop offset=".292" stop-color="#2C96D1"/><stop offset=".646" stop-color="#256D9A"/><stop offset=".811" stop-color="#304D7A"/><stop offset="1" stop-color="#322A59"/></linearGradient><path class="st46" d="M328.3 65.5c0-2.4-1-4.6-2.9-6.2-1.8-1.6-4.1-2.5-6.7-2.5h-14.5c-2.5 0-4.8.9-6.7 2.5-1.8 1.6-2.9 3.8-2.9 6.2v.8c1.1-.8 2.4-1.3 4-1.3.7 0 1.5.1 2.2.4 1.1-1.4 2.8-2.3 5.1-2.3 1.1 0 2.1.2 3 .6h9.8c.8 0 1.2.2 1.7.6.5.4.6.7.6 1.2v10.6c0 .6-.1.8-.6 1.2-.5.4-1 .6-1.7.6h-13v.2c-.3 2.9-1.8 5.4-4.3 6.4.9.2 1.8.4 2.8.4h14.6c2.4 0 4.7-.8 6.5-2.4 1.9-1.6 3-3.8 3-6.3v-10.7z"/><linearGradient id="SVGID_37_" gradientUnits="userSpaceOnUse" x1="1214.549" y1="-987.377" x2="1214.549" y2="-1061.791" gradientTransform="matrix(1 0 0 -1 -867 -962.5)"><stop offset="0" stop-color="#CBDFED"/><stop offset=".009" stop-color="#C4DBEC"/><stop offset=".074" stop-color="#99C1E3"/><stop offset=".136" stop-color="#73AEDB"/><stop offset=".194" stop-color="#51A0D6"/><stop offset=".248" stop-color="#3898D2"/><stop offset=".292" stop-color="#2C96D1"/><stop offset=".646" stop-color="#256D9A"/><stop offset=".811" stop-color="#304D7A"/><stop offset="1" stop-color="#322A59"/></linearGradient><path class="st47" d="M361.9 65.5c0-2.4-1-4.6-2.9-6.2-1.8-1.6-4.1-2.5-6.6-2.5h-9.6c-1.3 0-2.5.2-3.7.7-.6-.4-1.4-.7-2.2-.7h-.1c-.9 0-1.8.2-2.6.9s-1 1.7-1 2.6v21.3c0 .9.3 1.9 1 2.6.7.7 1.7.9 2.6.9.9 0 1.9-.2 2.6-.9.7-.7 1-1.6 1-2.5v-16c0-.6.1-.8.6-1.2.5-.4 1-.6 1.7-.6h9.6c.7 0 1.2.2 1.7.6.5.5.6.6.6 1.2v16.1c0 .9.3 1.8 1 2.5.8.7 1.7.9 2.6.9.9 0 1.9-.2 2.6-.9.7-.7 1-1.6 1-2.5l.1-16.3z"/><linearGradient id="SVGID_38_" gradientUnits="userSpaceOnUse" x1="956.26" y1="-987.374" x2="956.26" y2="-1061.795" gradientTransform="matrix(1 0 0 -1 -867 -962.5)"><stop offset="0" stop-color="#CBDFED"/><stop offset=".009" stop-color="#C4DBEC"/><stop offset=".074" stop-color="#99C1E3"/><stop offset=".136" stop-color="#73AEDB"/><stop offset=".194" stop-color="#51A0D6"/><stop offset=".248" stop-color="#3898D2"/><stop offset=".292" stop-color="#2C96D1"/><stop offset=".646" stop-color="#256D9A"/><stop offset=".811" stop-color="#304D7A"/><stop offset="1" stop-color="#322A59"/></linearGradient><path class="st48" d="M100.7 59.2c-1.8-1.7-4.1-2.5-6.6-2.5h-9.5c-1.3 0-2.5.2-3.7.7-.6-.4-1.4-.7-2.1-.7h-.1c-.9 0-1.8.2-2.6.9-.7.7-1 1.6-1 2.5v21.3c0 .9.3 1.9 1 2.5.8.7 1.7.9 2.6.9.9 0 1.9-.2 2.6-.9.7-.7 1-1.6 1-2.5v-16c0-.6.1-.8.6-1.2.5-.4 1-.6 1.7-.6h9.5c.7 0 1.2.2 1.7.6.5.5.6.7.6 1.2v16c0 .9.3 1.8 1 2.5.7.9 1.6 1.1 2.6 1.1s1.9-.2 2.6-.9c.7-.7 1-1.6 1-2.5v-16c0-2.5-1-4.7-2.9-6.4z"/></svg>