<?xml version="1.0" encoding="utf-8"?>
<!DOCTYPE svg PUBLIC "-//W3C//DTD SVG 1.1//EN" "http://www.w3.org/Graphics/SVG/1.1/DTD/svg11.dtd">
<svg version="1.1" id="Calque_1" xmlns="http://www.w3.org/2000/svg" xmlns:xlink="http://www.w3.org/1999/xlink" x="0px" y="0px"
	 width="488.68px" height="157.52px" viewBox="0 0 488.68 157.52" enable-background="new 0 0 488.68 157.52" xml:space="preserve">
<g>
	<path fill="#FFFFFF" d="M168.28,122.83L168.28,122.83c1.14,1.08,2.27,2.14,3.38,3.18l1.07-1.16c-1.11-1.03-2.23-2.09-3.37-3.17
		L168.28,122.83z"/>
	<path fill="#FFFFFF" d="M155.43,14.24l0.16,1.57c1.51-0.15,3.04-0.28,4.59-0.39l-0.11-1.58C158.5,13.96,156.95,14.09,155.43,14.24z
		"/>
	<path fill="#FFFFFF" d="M161.6,116.38L161.6,116.38c1.12,1.1,2.23,2.18,3.32,3.24l1.1-1.13c-1.09-1.06-2.2-2.13-3.31-3.23
		L161.6,116.38z"/>
	<path fill="#FFFFFF" d="M142.45,96.13L142.45,96.13c1.01,1.17,2.03,2.33,3.06,3.49l1.18-1.05c-1.03-1.15-2.04-2.31-3.05-3.47
		L142.45,96.13z"/>
	<path fill="#FFFFFF" d="M155.03,109.81c1.09,1.11,2.18,2.21,3.27,3.31l1.12-1.12c-1.09-1.08-2.18-2.18-3.26-3.29L155.03,109.81z"/>
	<path fill="#FFFFFF" d="M178.67,13.43L178.67,13.43c-1.45-0.02-2.9-0.03-4.33-0.03h-0.32v1.58c0.11,0,0.21,0,0.32,0
		c1.42,0,2.86,0.01,4.3,0.03L178.67,13.43z"/>
	<path fill="#FFFFFF" d="M148.63,103.07L148.63,103.07c1.05,1.14,2.11,2.27,3.17,3.4l1.15-1.09c-1.06-1.12-2.11-2.25-3.16-3.38
		L148.63,103.07z"/>
	<path fill="#FFFFFF" d="M175.09,129.14c1.17,1.05,2.33,2.08,3.48,3.08l1.03-1.19c-1.15-0.99-2.3-2.01-3.46-3.06L175.09,129.14z"/>
	<path fill="#FFFFFF" d="M197.18,146.19c1.34,0.82,2.69,1.6,4.04,2.34l0.75-1.39c-1.33-0.72-2.65-1.49-3.98-2.3L197.18,146.19z"/>
	<path fill="#FFFFFF" d="M215.75,15.61c-1.54-0.13-3.08-0.27-4.62-0.39L211,16.79c1.54,0.13,3.08,0.26,4.62,0.39L215.75,15.61z"/>
	<path fill="#FFFFFF" d="M205.4,150.64c1.42,0.67,2.85,1.29,4.3,1.85l0.58-1.47c-1.41-0.56-2.81-1.16-4.2-1.81L205.4,150.64z"/>
	<path fill="#FFFFFF" d="M182.12,135.24c1.21,1,2.42,1.98,3.62,2.92l0.97-1.24c-1.19-0.94-2.38-1.9-3.59-2.9L182.12,135.24z"/>
	<path fill="#FFFFFF" d="M192.6,13.93l-0.08,1.58c1.53,0.08,3.08,0.17,4.62,0.27l0.1-1.58C195.69,14.1,194.14,14.01,192.6,13.93z"/>
	<path fill="#FFFFFF" d="M183.27,15.11c1.53,0.05,3.07,0.1,4.62,0.17l0.07-1.58c-1.56-0.07-3.1-0.12-4.64-0.17L183.27,15.11z"/>
	<path fill="#FFFFFF" d="M169.4,15.02l-0.03-1.58c-1.57,0.03-3.12,0.08-4.65,0.15l0.07,1.58C166.31,15.1,167.85,15.05,169.4,15.02z"
		/>
	<path fill="#FFFFFF" d="M206.5,14.85L206.5,14.85c-1.55-0.12-3.09-0.23-4.63-0.34l-0.11,1.58c1.54,0.11,3.08,0.22,4.62,0.34
		L206.5,14.85z"/>
	<path fill="#FFFFFF" d="M118.01,31.17c0.12-0.15,0.24-0.3,0.36-0.45l-1.22-1l0,0c-0.13,0.16-0.26,0.32-0.38,0.48
		c-1.02,1.29-1.82,2.7-2.41,4.2l1.47,0.58C116.36,33.61,117.09,32.35,118.01,31.17z"/>
	<path fill="#FFFFFF" d="M133.21,20.67l-0.57-1.48l0,0c-1.5,0.58-2.93,1.21-4.31,1.9l0.71,1.41
		C130.37,21.84,131.76,21.23,133.21,20.67z"/>
	<path fill="#FFFFFF" d="M347.49,49.53c-0.82-1.1-1.73-2.2-2.77-3.28l-1.14,1.09c1.03,1.07,1.93,2.15,2.73,3.24
		C346.65,50.19,347.05,49.84,347.49,49.53z"/>
	<path fill="#FFFFFF" d="M341.26,43.04c-1.16-0.97-2.4-1.92-3.73-2.85l-0.91,1.3c1.3,0.91,2.51,1.83,3.63,2.76L341.26,43.04z"/>
	<path fill="#FFFFFF" d="M214.11,154.07L214.11,154.07c1.49,0.47,2.99,0.89,4.52,1.25l0.37-1.54c-1.49-0.35-2.96-0.76-4.41-1.22
		L214.11,154.07z"/>
	<path fill="#FFFFFF" d="M114.62,41.84c0-0.88,0.05-1.74,0.15-2.57l-1.57-0.19l0,0c-0.11,0.9-0.16,1.82-0.16,2.76
		c0,0.66,0.02,1.33,0.07,2.02l1.58-0.12C114.64,43.1,114.62,42.46,114.62,41.84z"/>
	<path fill="#FFFFFF" d="M124.24,23.45c-1.34,0.88-2.6,1.83-3.77,2.86l1.04,1.19c1.11-0.98,2.32-1.88,3.6-2.73L124.24,23.45
		L124.24,23.45L124.24,23.45z"/>
	<path fill="#FFFFFF" d="M136.5,88.98c0.96,1.2,1.94,2.4,2.94,3.6l1.22-1.01c-0.99-1.19-1.97-2.39-2.92-3.58L136.5,88.98z"/>
	<path fill="#FFFFFF" d="M120.75,65.91L120.75,65.91c0.73,1.34,1.51,2.69,2.33,4.05l1.35-0.81c-0.81-1.34-1.57-2.67-2.29-3.99
		L120.75,65.91z"/>
	<path fill="#FFFFFF" d="M113.81,48.54c0.32,1.48,0.74,3,1.24,4.55l1.51-0.49c-0.49-1.5-0.89-2.97-1.2-4.39L113.81,48.54z"/>
	<path fill="#FFFFFF" d="M116.68,57.49c0.58,1.4,1.22,2.83,1.92,4.27l1.42-0.69c-0.69-1.42-1.32-2.81-1.88-4.18L116.68,57.49z"/>
	<path fill="#FFFFFF" d="M189.45,140.97L189.45,140.97c1.27,0.93,2.55,1.83,3.82,2.69l0.88-1.31c-1.25-0.85-2.5-1.73-3.76-2.65
		L189.45,140.97z"/>
	<path fill="#FFFFFF" d="M315.04,118.63l1.03,1.2l0,0c1.19-1.02,2.36-2.05,3.5-3.08l-1.06-1.17
		C317.37,116.6,316.21,117.62,315.04,118.63z"/>
	<path fill="#FFFFFF" d="M311.49,121.59c-1.19,0.97-2.39,1.93-3.62,2.87l0.97,1.25c1.23-0.96,2.45-1.92,3.65-2.89L311.49,121.59z"/>
	<path fill="#FFFFFF" d="M325.28,33.35c-1.38-0.62-2.81-1.23-4.3-1.83l-0.59,1.47c1.46,0.59,2.88,1.19,4.23,1.8L325.28,33.35z"/>
	<path fill="#FFFFFF" d="M300.44,129.94l0.9,1.3c1.28-0.9,2.54-1.8,3.78-2.72l-0.94-1.27C302.95,128.16,301.7,129.05,300.44,129.94z
		"/>
	<path fill="#FFFFFF" d="M293.86,25.33c1.54,0.31,3.04,0.63,4.51,0.96l0.35-1.54c-1.48-0.34-3-0.66-4.55-0.97L293.86,25.33z"/>
	<path fill="#FFFFFF" d="M292.74,135.06l0.84,1.34c1.31-0.83,2.62-1.67,3.91-2.54l-0.88-1.32
		C295.34,133.4,294.04,134.24,292.74,135.06z"/>
	<path fill="#FFFFFF" d="M302.86,27.36c1.52,0.39,3.01,0.78,4.46,1.2l0.43-1.52c-1.46-0.42-2.96-0.82-4.5-1.21L302.86,27.36z"/>
	<path fill="#FFFFFF" d="M328.76,36.79c1.41,0.73,2.74,1.47,4.01,2.23l0.81-1.36c-1.3-0.77-2.66-1.53-4.09-2.27L328.76,36.79z"/>
	<path fill="#FFFFFF" d="M234.21,17.31L234.21,17.31c-1.53-0.14-3.07-0.29-4.61-0.43l-0.15,1.57c1.54,0.14,3.08,0.29,4.61,0.43
		L234.21,17.31z"/>
	<path fill="#FFFFFF" d="M241.74,155.16l0.17,1.57c1.53-0.16,3.08-0.38,4.64-0.65l-0.27-1.56
		C244.75,154.79,243.23,155,241.74,155.16z"/>
	<path fill="#FFFFFF" d="M243.45,18.15c-1.53-0.14-3.07-0.27-4.61-0.42l-0.14,1.57c1.55,0.14,3.09,0.28,4.62,0.42L243.45,18.15z"/>
	<path fill="#FFFFFF" d="M252.68,18.93c-1.52-0.12-3.06-0.25-4.61-0.38l-0.13,1.57c1.55,0.13,3.09,0.26,4.62,0.38L252.68,18.93z"/>
	<path fill="#FFFFFF" d="M284.82,139.79l0.77,1.38l0,0c1.35-0.76,2.69-1.54,4.03-2.33l-0.81-1.36
		C287.48,138.26,286.15,139.03,284.82,139.79z"/>
	<path fill="#FFFFFF" d="M223.23,156.24c1.53,0.25,3.07,0.45,4.65,0.59l0.14-1.57c-1.53-0.14-3.04-0.33-4.54-0.57L223.23,156.24z"/>
	<path fill="#FFFFFF" d="M224.99,16.45c-1.54-0.14-3.07-0.28-4.61-0.42l-0.14,1.57c1.54,0.14,3.08,0.28,4.61,0.42L224.99,16.45z"/>
	<path fill="#FFFFFF" d="M250.78,153.62l0.35,1.54l0,0c1.5-0.35,3.01-0.73,4.53-1.16l-0.43-1.52
		C253.74,152.9,252.25,153.28,250.78,153.62z"/>
	<path fill="#FFFFFF" d="M234.26,155.53c-0.56,0-1.12-0.01-1.68-0.02l-0.04,1.58c0.57,0.01,1.14,0.02,1.72,0.02
		c0.98,0,1.97-0.02,2.97-0.06l-0.06-1.58C236.19,155.51,235.22,155.53,234.26,155.53z"/>
	<path fill="#FFFFFF" d="M280.41,21.48c-1.52-0.21-3.05-0.4-4.61-0.59l-0.19,1.57c1.55,0.18,3.08,0.38,4.58,0.58L280.41,21.48z"/>
	<path fill="#FFFFFF" d="M276.66,144.08l0.7,1.42c1.39-0.68,2.77-1.39,4.15-2.11l-0.74-1.4
		C279.4,142.71,278.03,143.41,276.66,144.08z"/>
	<path fill="#FFFFFF" d="M261.81,21.18l0.11-1.58c-0.37-0.02-0.75-0.05-1.12-0.08c-1.16-0.08-2.32-0.16-3.5-0.24l-0.11,1.58
		c1.18,0.08,2.35,0.17,3.51,0.24C261.07,21.13,261.44,21.15,261.81,21.18z"/>
	<path fill="#FFFFFF" d="M289.6,22.91c-1.51-0.27-3.03-0.52-4.59-0.77l-0.25,1.56c1.55,0.24,3.06,0.49,4.55,0.76L289.6,22.91z"/>
	<path fill="#FFFFFF" d="M268.26,147.9l0.61,1.46l0,0c1.42-0.59,2.85-1.21,4.27-1.86l-0.66-1.44
		C271.08,146.7,269.67,147.31,268.26,147.9z"/>
	<path fill="#FFFFFF" d="M259.63,151.12l0.5,1.5c1.46-0.48,2.93-1,4.4-1.55l-0.55-1.48C262.52,150.13,261.08,150.65,259.63,151.12z"
		/>
	<path fill="#FFFFFF" d="M271.18,20.38c-1.52-0.15-3.07-0.3-4.63-0.43l-0.13,1.57c1.56,0.13,3.09,0.27,4.6,0.43L271.18,20.38z"/>
	<path fill="#FFFFFF" d="M223.23,156.24L223.23,156.24L223.23,156.24z"/>
	<polygon fill="#FFFFFF" points="341.26,43.04 341.26,43.04 341.26,43.04 	"/>
	<polygon fill="#FFFFFF" points="280.41,21.47 280.41,21.47 280.41,21.47 	"/>
	<polygon fill="#FFFFFF" points="224.99,16.45 224.99,16.45 224.99,16.45 	"/>
	<polygon fill="#FFFFFF" points="187.96,13.7 187.96,13.7 187.96,13.7 	"/>
	<polygon fill="#FFFFFF" points="169.37,13.44 169.37,13.44 169.37,13.44 	"/>
	<g>
		<path fill="#FFFFFF" d="M211.81,66.31h-5.84v-6.23c0-1.06-0.31-2.11-1.09-2.83c-0.77-0.72-1.81-0.97-2.9-0.97s-2.13,0.26-2.9,0.97
			c-0.77,0.73-1.08,1.77-1.07,2.83v6.23h-0.49c-1.1,0-2.14,0.26-2.91,0.98c-0.77,0.73-1.08,1.77-1.08,2.83
			c-0.01,1.06,0.31,2.1,1.08,2.83c0.77,0.71,1.81,0.97,2.91,0.97h0.49v25.03c-0.01,1.06,0.3,2.1,1.07,2.82
			c0.77,0.72,1.8,0.98,2.9,0.97h0.03c1.09,0,2.11-0.26,2.87-0.97c0.78-0.72,1.09-1.77,1.09-2.83V73.92h5.84
			c1.1,0,2.13-0.26,2.9-0.97c0.77-0.72,1.09-1.77,1.07-2.83c0.01-1.06-0.3-2.11-1.07-2.83C213.94,66.57,212.9,66.31,211.81,66.31z"
			/>
		<path fill="#FFFFFF" d="M39.56,95.19H11.88c-1.19-0.01-2.08-0.34-2.92-1.04c-0.8-0.71-1.11-1.39-1.12-2.38V77.31
			c0.01-0.98,0.32-1.66,1.13-2.39c0.84-0.71,1.73-1.04,2.91-1.05h19.64c1.1,0,2.13-0.25,2.9-0.97c0.78-0.73,1.09-1.77,1.08-2.83
			c0.01-1.05-0.3-2.09-1.08-2.8c-0.77-0.71-1.81-0.96-2.9-0.96H11.88c-3.23,0-6.13,1.06-8.44,3.15c-2.34,2.07-3.59,4.79-3.57,7.85
			v14.46c-0.01,3.04,1.25,5.74,3.59,7.82c2.33,2.09,5.19,3.17,8.37,3.17h27.72c1.09,0,2.12-0.25,2.89-0.96s1.09-1.75,1.08-2.8
			c0.01-1.07-0.3-2.11-1.07-2.83S40.65,95.19,39.56,95.19z"/>
		<path fill="#FFFFFF" d="M261.58,69.46c-2.31-2.08-5.21-3.15-8.44-3.15H233.5c-3.23,0-6.12,1.06-8.44,3.15
			c-2.34,2.07-3.58,4.79-3.57,7.85v14.46c-0.02,3.03,1.24,5.74,3.6,7.82c2.31,2.09,5.18,3.17,8.36,3.17h19.69
			c1.09,0,2.13-0.25,2.9-0.96c0.78-0.71,1.1-1.75,1.08-2.8c0.01-1.07-0.31-2.11-1.07-2.83c-0.77-0.72-1.81-0.98-2.91-0.98H233.5
			c-1.17-0.01-2.07-0.34-2.92-1.04c-0.8-0.72-1.11-1.39-1.13-2.38V88.3l23.68,0.01V88.3c3.11,0.01,5.92-1,8.24-2.97
			c2.46-2.09,3.8-4.87,3.78-8.02C265.18,74.25,263.93,71.52,261.58,69.46z M256.04,79.72c-0.83,0.72-1.73,1.05-2.9,1.06l-23.68-0.01
			v-3.46c0.01-0.99,0.33-1.66,1.13-2.38c0.84-0.71,1.75-1.04,2.92-1.05h19.64c1.16,0.01,2.04,0.32,2.85,0.98
			c0.86,0.74,1.19,1.46,1.21,2.46C257.18,78.28,256.87,78.98,256.04,79.72z"/>
		<path fill="#FFFFFF" d="M185.59,83.91c-2.31-2.08-5.21-3.15-8.43-3.13l-19.64-0.01c-1.18,0-2.08-0.34-2.91-1.06
			c-0.81-0.72-1.13-1.43-1.14-2.41c0.01-0.98,0.33-1.66,1.13-2.39c0.84-0.71,1.74-1.04,2.92-1.05h19.64c1.09,0,2.13-0.25,2.9-0.97
			c0.77-0.71,1.09-1.76,1.08-2.83c0.01-1.05-0.31-2.09-1.09-2.8c-0.77-0.71-1.8-0.96-2.89-0.96h-19.64c-3.21,0-6.09,1.07-8.42,3.17
			c-2.35,2.08-3.61,4.78-3.6,7.82c-0.02,3.05,1.24,5.77,3.57,7.84c2.33,2.09,5.22,3.15,8.45,3.14l19.64,0.01
			c1.17,0,2.07,0.34,2.9,1.06c0.82,0.74,1.14,1.43,1.15,2.41c-0.01,0.98-0.33,1.67-1.14,2.38c-0.83,0.71-1.73,1.04-2.91,1.04h-27.68
			c-1.1,0-2.13,0.25-2.91,0.98c-0.77,0.72-1.08,1.76-1.07,2.83c-0.01,1.05,0.31,2.09,1.09,2.8c0.77,0.71,1.8,0.96,2.9,0.96h27.73
			c3.09,0,5.89-1.02,8.19-3.01c2.46-2.05,3.79-4.82,3.77-7.98C189.17,88.71,187.92,85.99,185.59,83.91z"/>
		<path fill="#FFFFFF" d="M89.33,69.46c-2.32-2.08-5.21-3.15-8.44-3.14l-19.63-0.01c-3.23,0-6.12,1.06-8.45,3.15
			c-2.33,2.06-3.58,4.79-3.57,7.85v14.46c-0.02,3.03,1.24,5.74,3.6,7.82c2.33,2.1,5.21,3.18,8.42,3.17h19.68
			c3.1,0,5.9-1.02,8.2-3.01c2.46-2.05,3.79-4.82,3.77-7.98V77.31C92.92,74.25,91.67,71.53,89.33,69.46z M84.95,91.76
			c-0.01,0.98-0.33,1.67-1.15,2.38c-0.85,0.71-1.73,1.04-2.91,1.04H61.26c-1.18-0.01-2.08-0.34-2.92-1.04
			c-0.81-0.72-1.12-1.4-1.13-2.38V77.31c0.01-0.98,0.33-1.66,1.13-2.39c0.84-0.71,1.74-1.04,2.92-1.05H80.9
			c1.18,0.01,2.07,0.34,2.91,1.05c0.81,0.72,1.13,1.41,1.15,2.38L84.95,91.76L84.95,91.76z"/>
		<path fill="#FFFFFF" d="M439.41,69.46c-2.33-2.08-5.21-3.15-8.45-3.14l-19.63-0.01c-3.23,0-6.13,1.06-8.44,3.15
			c-2.33,2.06-3.59,4.78-3.57,7.85v14.46c-0.02,3.04,1.24,5.74,3.59,7.82c2.33,2.1,5.22,3.18,8.42,3.17h19.68
			c3.09,0,5.9-1.02,8.2-3.01c2.46-2.05,3.79-4.82,3.77-7.98V77.31C443,74.25,441.75,71.53,439.41,69.46z M435.02,91.76
			c-0.02,0.98-0.34,1.67-1.13,2.39c-0.84,0.7-1.73,1.03-2.92,1.04h-19.63c-1.18-0.01-2.08-0.34-2.9-1.04
			c-0.82-0.71-1.13-1.4-1.14-2.39V77.31c0.01-0.98,0.32-1.66,1.14-2.39c0.82-0.71,1.73-1.04,2.9-1.05h19.63
			c1.19,0.01,2.08,0.34,2.92,1.05c0.8,0.72,1.11,1.4,1.13,2.38V91.76z"/>
		<path fill="#FFFFFF" d="M484.85,69.47c-2.31-2.09-5.2-3.16-8.44-3.15h-12.95c-1.82,0-3.56,0.34-5.15,1.03
			c-0.74-0.7-1.8-1.06-2.87-1.03c-1.09,0-2.12,0.25-2.89,0.96c-0.78,0.71-1.09,1.75-1.09,2.8V99c-0.01,1.05,0.3,2.09,1.09,2.8
			c0.77,0.71,1.8,0.96,2.89,0.96c1.09,0,2.13-0.26,2.9-0.96c0.78-0.71,1.1-1.75,1.08-2.8V77.31c0.02-0.98,0.33-1.66,1.14-2.38
			c0.84-0.71,1.74-1.04,2.9-1.05l12.95,0.01c1.18,0.01,2.09,0.34,2.91,1.05c0.81,0.72,1.12,1.4,1.14,2.38v21.69
			c-0.02,1.05,0.3,2.09,1.07,2.8c0.78,0.71,1.81,0.96,2.9,0.96s2.12-0.26,2.89-0.96c0.77-0.71,1.09-1.75,1.08-2.8v-21.7
			C488.44,74.25,487.19,71.53,484.85,69.47z"/>
		<path fill="#FFFFFF" d="M292.73,48.42c-1.1,0-2.15,0.27-2.92,0.99c-0.77,0.73-1.07,1.78-1.07,2.86V98.9c0,1.08,0.3,2.12,1.06,2.86
			c0.77,0.72,1.82,1,2.92,0.99h0.03c1.09,0,2.12-0.27,2.88-0.99c0.77-0.73,1.09-1.78,1.06-2.86V52.28c0.02-1.08-0.29-2.13-1.06-2.86
			C294.86,48.69,293.83,48.42,292.73,48.42z"/>
		<path fill="#FFFFFF" d="M276.28,48.42c-1.1,0-2.14,0.27-2.91,0.99c-0.77,0.73-1.07,1.78-1.06,2.86V98.9
			c-0.01,1.08,0.3,2.12,1.06,2.86c0.77,0.72,1.81,1,2.91,0.99h0.03c1.08,0,2.12-0.27,2.88-0.99c0.77-0.73,1.08-1.78,1.06-2.86V52.28
			c0.01-1.08-0.3-2.13-1.06-2.86C278.42,48.69,277.38,48.42,276.28,48.42z"/>
		<path fill="#FFFFFF" d="M343.94,69.46c-2.32-2.08-5.22-3.16-8.45-3.15h-19.64c-1.1,0-2.12,0.25-2.89,0.96
			c-0.78,0.71-1.1,1.75-1.09,2.8c-0.01,1.06,0.3,2.1,1.07,2.83c0.78,0.71,1.81,0.97,2.9,0.97h19.64c1.18,0.01,2.07,0.34,2.91,1.05
			c0.81,0.72,1.12,1.4,1.14,2.38v3.42l-23.69,0.01c-3.23-0.01-6.12,1.06-8.44,3.17c-2.34,2.09-3.59,4.81-3.58,7.86
			c-0.01,3.03,1.25,5.74,3.61,7.83c2.32,2.09,5.21,3.17,8.41,3.16h19.64c1.83,0,3.56-0.35,5.14-1.06c0.73,0.72,1.81,1.09,2.9,1.05
			c1.09,0,2.12-0.25,2.89-0.96c0.78-0.71,1.09-1.75,1.08-2.8V77.31C347.52,74.24,346.27,71.53,343.94,69.46z M338.41,94.14
			c-0.83,0.72-1.73,1.04-2.91,1.05h-19.64c-1.18,0-2.08-0.33-2.91-1.04c-0.8-0.71-1.12-1.4-1.14-2.38c0.02-0.96,0.34-1.69,1.16-2.44
			c0.83-0.73,1.73-1.06,2.89-1.07h23.69v3.51l0,0C339.53,92.75,339.22,93.43,338.41,94.14z"/>
		<g>
			<g>
				<g>
					<g opacity="0.8">
						<line fill="none" x1="225.97" y1="36.57" x2="225.97" y2="36.57"/>
						<path fill="#FCE193" d="M225.97,36.57c3.71-0.2,6.53-0.15,8.44,0.11l6.36-0.87c-4.52,0.78-9,1.6-13.5,2.45
							c-12.12,2.39-25.73,5.47-38.7,8.75c-12.97,3.27-25.3,6.75-34.96,9.56c5.68-1.78,12.46-3.86,18.94-5.74l6.33-1.81
							c4.08-1.14,7.8-2.14,10.76-2.9l-1.75,0.52c4.39-1.3,8.79-2.56,13.21-3.78c4.45-1.09,8.9-2.15,13.37-3.16
							c-4.47,1.02-8.92,2.07-13.37,3.16C209.35,40.64,217.64,38.54,225.97,36.57"/>
						<line fill="none" x1="201.09" y1="42.86" x2="201.09" y2="42.86"/>
						<line fill="none" x1="153.6" y1="56.57" x2="153.6" y2="56.57"/>
						<line fill="none" x1="240.77" y1="35.8" x2="240.77" y2="35.8"/>
						<path fill="#FCE193" d="M271.69,107.08l-0.58,0.11l3.15-0.83c12.47-2.91,24.87-6.12,36.27-9.45
							c13.9-3.99,28.33-8.42,43.15-13.58c2.96-1.03,5.94-2.09,8.94-3.19c-5.93,2.35-11.91,4.57-17.94,6.7l-1.78,0.58
							c-12.87,4.18-24.68,7.71-36.25,10.92C295.07,101.55,283.72,104.43,271.69,107.08"/>
						<line fill="none" x1="344.69" y1="86.84" x2="344.69" y2="86.84"/>
						<line fill="none" x1="360.5" y1="79.64" x2="360.5" y2="79.64"/>
						<path fill="#FBD35E" d="M360.5,79.64c13.55-5.18,27.82-11.16,41.1-18.48l0.12,0.21c-7.35,4.05-15.52,7.97-24,11.51
							c-2.33,0.97-4.69,1.92-7.06,2.83l1.7-0.62C368.43,76.66,364.48,78.17,360.5,79.64"/>
						<path fill="#FBD35E" d="M390.68,67.38c4.06-1.97,8.05-4.04,11.93-6.24l1.58-0.82C399.81,62.84,395.29,65.17,390.68,67.38"/>
						<polyline fill="#FBD35E" points="269.02,112.48 265.4,113.16 269.91,112.26 269.02,112.48 						"/>
						<line fill="none" x1="265.4" y1="113.16" x2="265.4" y2="113.16"/>
						<line fill="none" x1="404.5" y1="70.42" x2="404.5" y2="70.42"/>
						<path fill="#FBD35E" d="M404.5,70.42c-1.95,0.98-3.91,1.94-5.88,2.86C400.59,72.36,402.55,71.41,404.5,70.42"/>
						<polyline fill="#FBD35E" points="398.62,73.28 397.79,73.69 398.62,73.28 						"/>
						<line fill="none" x1="400.07" y1="24.03" x2="400.07" y2="24.03"/>
						<path fill="#FBD35E" d="M400.07,24.03c1.47,0.25,2.94,0.53,4.39,0.83C403.01,24.56,401.54,24.28,400.07,24.03"/>
						<line fill="none" x1="427.74" y1="54.07" x2="427.74" y2="54.07"/>
						<path fill="#FBD35E" d="M427.74,54.07c-0.49,0.44-0.98,0.86-1.48,1.28C426.76,54.93,427.25,54.51,427.74,54.07"/>
						<path fill="#FBD35E" d="M98.1,121.27c-3.31-0.53-6.58-1.16-9.77-1.93C91.52,120.11,94.79,120.74,98.1,121.27"/>
						<line fill="none" x1="265.4" y1="113.16" x2="265.4" y2="113.16"/>
						<polyline fill="#FBD35E" points="265.4,113.16 258.15,114.42 265.4,113.16 						"/>
						<line fill="none" x1="411.29" y1="26.74" x2="411.29" y2="26.74"/>
						<line fill="none" x1="411.29" y1="26.74" x2="411.29" y2="26.74"/>
						<path fill="#FBD35E" d="M411.29,26.74c1.97,0.52,3.9,1.1,5.76,1.77c-1.6-0.57-3.25-1.07-4.93-1.53L411.29,26.74"/>
						<path fill="#FBD35E" d="M392.05,22.93c2.69,0.31,5.37,0.67,8.02,1.1c-1.77-0.28-3.55-0.52-5.34-0.74L392.05,22.93"/>
						<line fill="none" x1="400.07" y1="24.03" x2="400.07" y2="24.03"/>
						<path fill="#FBD35E" d="M425.67,44.8c1.76-2.24,2.93-4.68,2.93-6.46c0.02-0.32,0.02-0.63-0.02-0.94
							c0.03,0.3,0.04,0.61,0.02,0.94c0.02-0.32,0.02-0.63-0.02-0.94h0.03c0.15,0.97,0.01,2.11-0.52,3.41
							C427.58,42.1,426.72,43.47,425.67,44.8"/>
						<line fill="none" x1="400.03" y1="24.35" x2="400.03" y2="24.35"/>
						<line fill="none" x1="400.03" y1="24.35" x2="400.03" y2="24.35"/>
						<path fill="#FBD35E" d="M400.03,24.35c3.82,0.63,7.6,1.4,11.26,2.39c1.97,0.52,3.9,1.1,5.76,1.77
							c-1.6-0.57-3.25-1.07-4.93-1.53c2.72,0.77,5.42,1.68,7.96,2.82c2.52,1.13,4.9,2.55,6.49,4.17c0.79,0.81,1.33,1.63,1.62,2.4
							c0.04,0.1,0.06,0.19,0.1,0.29c0.03,0.1,0.02,0.11,0.05,0.16l0.06,0.28l0.03,0.15l0.02,0.08v0.01
							c-0.01-0.06,0.03,0.14-0.03-0.13v0.01v0.02c0.01,0.1,0.03,0.2,0.04,0.3c0.04,0.4,0.02,0.81-0.04,1.26
							c-0.26,1.8-1.61,4.17-3.54,6.36c-0.3,0.42-0.62,0.85-0.96,1.27c1.84-1.94,3.39-4.05,4.12-5.97c0.37-0.96,0.53-1.82,0.49-2.58
							c0-0.19-0.02-0.38-0.05-0.56l-0.01-0.07v-0.03V37.2c0.06,0.27,0.02,0.07,0.03,0.13l0,0v-0.01l-0.01-0.04L428.41,37
							c-0.05-0.25-0.06-0.22-0.07-0.27c-0.08-0.28-0.25-0.7-0.46-1.06c0.12,0.22,0.25,0.44,0.34,0.65c0.05,0.11,0.08,0.22,0.13,0.32
							c0.03,0.12,0.03,0.05,0.08,0.23l0.08,0.33l0.02,0.08l0.01,0.02l0,0c0.01,0.03-0.05-0.25-0.03-0.13l0,0l0,0l0,0v0.02l0.02,0.08
							c0.02,0.11,0.04,0.22,0.05,0.34c0.03,0.23,0.04,0.46,0.03,0.7c0.02-0.32,0.02-0.63-0.02-0.94l-0.03-0.23l0,0
							c-0.01-0.03,0.05,0.25,0.03,0.13l0,0l0,0v-0.01v-0.01l-0.01-0.03l-0.01-0.06l-0.02-0.11l-0.05-0.22
							c-0.06-0.2-0.04-0.15-0.11-0.35c-0.1-0.29-0.23-0.59-0.4-0.9c0.18,0.3,0.31,0.6,0.41,0.89c0.07,0.21,0.06,0.16,0.11,0.35
							l0.05,0.22l0.03,0.11l0.01,0.06l0.01,0.03l0.01,0.01v0.01l0,0l0,0c0.02,0.12-0.03-0.16-0.03-0.13l0,0l0.04,0.23l-0.02-0.14
							l-0.01-0.07v-0.01l0,0l0,0c0.05,0.26,0.01,0.07,0.03,0.13l-0.01-0.03l-0.02-0.07l-0.06-0.28l-0.03-0.13l-0.01-0.03
							c-0.02-0.05-0.08-0.29-0.15-0.47c-0.14-0.38-0.34-0.76-0.6-1.15c-0.51-0.78-1.28-1.57-2.2-2.31
							c-1.87-1.49-4.31-2.75-6.89-3.78c2.06,0.86,4.02,1.85,5.67,2.99c-2.07-1.41-4.61-2.58-7.25-3.56
							c0.53,0.19,1.06,0.38,1.58,0.58c-2.32-0.97-4.79-1.77-7.32-2.47C407.65,25.63,403.86,24.92,400.03,24.35 M417.07,28.46
							l-1.62-0.53L417.07,28.46 M427.98,35.62L427.98,35.62"/>
						<line fill="none" x1="412.12" y1="26.98" x2="412.12" y2="26.98"/>
						<path fill="#FAC836" d="M412.12,26.98c1.68,0.45,3.33,0.96,4.93,1.53C415.45,27.94,413.8,27.43,412.12,26.98"/>
						<line fill="none" x1="417.05" y1="28.51" x2="417.05" y2="28.51"/>
						<line fill="none" x1="428.61" y1="37.4" x2="428.61" y2="37.4"/>
						<path fill="#FAC836" d="M428.59,37.41c0.03,0.3,0.04,0.61,0.02,0.94C428.63,38.02,428.62,37.71,428.59,37.41"/>
						<line fill="none" x1="378.52" y1="22.01" x2="378.52" y2="22.01"/>
						<line fill="none" x1="378.52" y1="22.01" x2="378.52" y2="22.01"/>
						<path fill="#FBD35E" d="M378.52,22.01l4.52,0.26c2.11,0.14,4.21,0.31,6.31,0.51c6.29,0.64,12.53,1.53,18.57,2.9
							c1.14,0.27,2.29,0.56,3.41,0.88c-3.68-0.93-7.47-1.64-11.3-2.21C392.97,23.18,385.76,22.46,378.52,22.01"/>
						<line fill="none" x1="411.33" y1="26.56" x2="411.33" y2="26.56"/>
						<line fill="none" x1="427.98" y1="35.62" x2="427.98" y2="35.62"/>
						<line fill="none" x1="427.98" y1="35.62" x2="427.98" y2="35.62"/>
						<path fill="#FBD35E" d="M427.98,35.62c0.17,0.3,0.31,0.6,0.41,0.89c0.07,0.2,0.05,0.15,0.11,0.35l0.05,0.22l0.03,0.11
							l0.01,0.06l0.01,0.03v0.01v0.01l0,0l0,0c0.02,0.12-0.03-0.16-0.03-0.13l0,0l0.04,0.23h-0.03l-0.04-0.23l0,0
							c-0.01-0.03,0.06,0.25,0.03,0.13l0,0l0,0v-0.01v-0.01l-0.01-0.03l-0.01-0.06l-0.02-0.11l-0.05-0.22
							c-0.06-0.2-0.04-0.15-0.11-0.35C428.28,36.22,428.15,35.92,427.98,35.62"/>
						<line fill="none" x1="428.61" y1="37.4" x2="428.61" y2="37.4"/>
						<path fill="#FAC836" d="M427.98,35.62c0.17,0.3,0.31,0.6,0.41,0.89c0.07,0.2,0.05,0.15,0.11,0.35l0.05,0.22l0.03,0.11
							l0.01,0.06l0.01,0.03v0.01v0.01l0,0l0,0c0.02,0.12-0.03-0.16-0.03-0.13l0,0l0.04,0.23l-0.04-0.23l0,0
							c-0.01-0.03,0.05,0.25,0.03,0.13l0,0l0,0v-0.01v-0.01l-0.01-0.03l-0.01-0.06l-0.03-0.11l-0.05-0.22
							c-0.06-0.19-0.04-0.15-0.11-0.35C428.28,36.22,428.15,35.92,427.98,35.62"/>
						<line fill="none" x1="428.61" y1="37.4" x2="428.61" y2="37.4"/>
						<line fill="none" x1="376.7" y1="21.92" x2="376.7" y2="21.92"/>
						<line fill="none" x1="376.7" y1="21.92" x2="376.7" y2="21.92"/>
						<polyline fill="#FBD35E" points="376.7,21.92 380.26,22.07 383.04,22.27 378.52,22.01 376.7,21.92 						"/>
						<line fill="none" x1="379.42" y1="22.02" x2="379.42" y2="22.02"/>
						<line fill="none" x1="379.42" y1="22.02" x2="379.42" y2="22.02"/>
						<polyline fill="#FBD35E" points="379.42,22.02 380.26,22.07 379.42,22.02 						"/>
						<path fill="#FBD35E" d="M381.84,22.15c3.42,0.19,6.82,0.44,10.21,0.78c-1.79-0.17-3.6-0.31-5.4-0.44
							C385.05,22.36,383.45,22.25,381.84,22.15"/>
						<line fill="none" x1="383.04" y1="22.27" x2="383.04" y2="22.27"/>
						<line fill="none" x1="428.59" y1="37.41" x2="428.59" y2="37.41"/>
						<line fill="none" x1="428.59" y1="37.41" x2="428.59" y2="37.41"/>
						<path fill="#FAC836" d="M428.59,37.41c0.03,0.3,0.04,0.61,0.02,0.94C428.63,38.02,428.62,37.71,428.59,37.41"/>
						<line fill="none" x1="428.59" y1="37.41" x2="428.59" y2="37.41"/>
						<line fill="none" x1="379.42" y1="22.02" x2="379.42" y2="22.02"/>
						<line fill="none" x1="379.42" y1="22.02" x2="379.42" y2="22.02"/>
						<polyline fill="#FBD35E" points="379.42,22.02 381.84,22.15 379.42,22.02 						"/>
						<path fill="#FBD35E" d="M380.26,22.07l1.58,0.08c1.61,0.1,3.21,0.21,4.81,0.34l2.69,0.28c-2.1-0.2-4.2-0.36-6.31-0.51
							c2.11,0.14,4.21,0.31,6.31,0.51c-2.1-0.2-4.2-0.36-6.31-0.51L380.26,22.07"/>
						<polyline fill="#FAC836" points="379.42,22.02 381.84,22.15 380.26,22.07 379.42,22.02 						"/>
						<path fill="#FAC836" d="M381.84,22.15c1.61,0.1,3.21,0.21,4.81,0.34C385.05,22.36,383.45,22.25,381.84,22.15"/>
						<line fill="none" x1="389.35" y1="22.78" x2="389.35" y2="22.78"/>
						<line fill="none" x1="389.35" y1="22.78" x2="389.35" y2="22.78"/>
						<line fill="none" x1="383.04" y1="22.27" x2="383.04" y2="22.27"/>
						<path fill="#FAC836" d="M383.04,22.27c2.11,0.14,4.21,0.31,6.31,0.51C387.25,22.58,385.15,22.41,383.04,22.27"/>
						<line fill="none" x1="386.65" y1="22.49" x2="386.65" y2="22.49"/>
						<line fill="none" x1="386.65" y1="22.49" x2="386.65" y2="22.49"/>
						<line fill="none" x1="386.65" y1="22.49" x2="386.65" y2="22.49"/>
						<line fill="none" x1="386.65" y1="22.49" x2="386.65" y2="22.49"/>
						<path fill="#FBD35E" d="M386.65,22.49c1.8,0.13,3.61,0.27,5.4,0.44l2.68,0.35C392.05,22.97,389.36,22.71,386.65,22.49"/>
						<line fill="none" x1="392.05" y1="22.93" x2="392.05" y2="22.93"/>
						<line fill="none" x1="392.05" y1="22.93" x2="392.05" y2="22.93"/>
						<polyline fill="#FAC836" points="392.05,22.93 394.74,23.29 392.05,22.93 						"/>
						<path fill="#FAC836" d="M386.65,22.49c1.8,0.13,3.61,0.27,5.4,0.44C390.26,22.76,388.46,22.62,386.65,22.49"/>
						<line fill="none" x1="392.05" y1="22.93" x2="392.05" y2="22.93"/>
						<line fill="none" x1="386.65" y1="22.49" x2="386.65" y2="22.49"/>
						<line fill="none" x1="386.65" y1="22.49" x2="386.65" y2="22.49"/>
						<path fill="#FBD35E" d="M386.65,22.49c2.7,0.21,5.4,0.47,8.08,0.79c1.48,0.21,2.96,0.45,4.44,0.7
							c-2.95-0.45-5.93-0.83-8.92-1.13l-0.9-0.08L386.65,22.49"/>
						<line fill="none" x1="394.74" y1="23.29" x2="394.74" y2="23.29"/>
						<line fill="none" x1="399.17" y1="23.99" x2="399.17" y2="23.99"/>
						<line fill="none" x1="386.65" y1="22.49" x2="386.65" y2="22.49"/>
						<line fill="none" x1="386.65" y1="22.49" x2="386.65" y2="22.49"/>
						<path fill="#FAC836" d="M386.65,22.49c2.7,0.21,5.4,0.47,8.08,0.79C392.05,22.97,389.36,22.71,386.65,22.49"/>
						<line fill="none" x1="394.74" y1="23.29" x2="394.74" y2="23.29"/>
						<line fill="none" x1="394.74" y1="23.29" x2="394.74" y2="23.29"/>
						<polyline fill="#FAC836" points="415.44,27.92 417.07,28.46 415.44,27.92 						"/>
						<line fill="none" x1="389.35" y1="22.78" x2="389.35" y2="22.78"/>
						<line fill="none" x1="417.07" y1="28.46" x2="417.07" y2="28.46"/>
						<line fill="none" x1="417.07" y1="28.46" x2="417.07" y2="28.46"/>
						<path fill="#FBD35E" d="M417.07,28.46c0.53,0.19,1.06,0.38,1.58,0.58c2.06,0.86,4.02,1.85,5.67,2.99
							C422.24,30.61,419.71,29.44,417.07,28.46"/>
						<path fill="#FAC836" d="M417.07,28.46c0.53,0.19,1.06,0.38,1.58,0.58C418.13,28.83,417.6,28.64,417.07,28.46"/>
						<line fill="none" x1="418.65" y1="29.03" x2="418.65" y2="29.03"/>
						<path fill="#FAC836" d="M418.65,29.03c2.06,0.86,4.02,1.85,5.67,2.99C422.67,30.88,420.71,29.89,418.65,29.03"/>
						<line fill="none" x1="418.65" y1="29.03" x2="418.65" y2="29.03"/>
						<line fill="none" x1="424.32" y1="32.02" x2="424.32" y2="32.02"/>
						<line fill="none" x1="407.92" y1="25.68" x2="407.92" y2="25.68"/>
						<line fill="none" x1="407.92" y1="25.68" x2="407.92" y2="25.68"/>
						<path fill="#FBD35E" d="M407.92,25.68c1.72,0.38,3.43,0.81,5.1,1.29l-1.69-0.41C410.21,26.24,409.07,25.95,407.92,25.68"/>
						<line fill="none" x1="389.35" y1="22.78" x2="389.35" y2="22.78"/>
						<line fill="none" x1="389.35" y1="22.78" x2="389.35" y2="22.78"/>
						<path fill="#FBD35E" d="M389.35,22.78l0.9,0.08c5.98,0.64,11.92,1.51,17.67,2.83C401.88,24.31,395.63,23.42,389.35,22.78"/>
						<polyline fill="#FAC836" points="389.35,22.78 390.25,22.85 389.35,22.78 390.25,22.85 389.35,22.78 						"/>
						<polyline fill="#FAC52B" points="389.35,22.78 390.25,22.85 389.35,22.78 						"/>
						<line fill="none" x1="407.92" y1="25.68" x2="407.92" y2="25.68"/>
						<path fill="#FBD35E" d="M420.04,58.2c-3.83,2.68-7.81,5.07-11.88,7.29c4.59-2.54,9.1-5.27,13.36-8.43L420.04,58.2"/>
						<line fill="none" x1="408.17" y1="65.49" x2="408.17" y2="65.49"/>
						<path fill="#FBD35E" d="M414.72,61.97c-3.73,2.23-7.56,4.25-11.44,6.15c4.95-2.49,9.82-5.18,14.5-8.25
							C416.77,60.58,415.75,61.29,414.72,61.97"/>
						<line fill="none" x1="403.28" y1="68.11" x2="403.28" y2="68.11"/>
						<line fill="none" x1="406.32" y1="67.89" x2="406.32" y2="67.89"/>
						<line fill="none" x1="406.32" y1="67.89" x2="406.32" y2="67.89"/>
						<path fill="#FBD35E" d="M406.32,67.89c-11.45,6.23-22.54,10.92-32.06,14.46c5.45-2.12,10.86-4.36,16.21-6.76l-0.84,0.38
							C395.27,73.48,400.86,70.83,406.32,67.89"/>
						<line fill="none" x1="390.47" y1="75.59" x2="390.47" y2="75.59"/>
						<line fill="none" x1="390.47" y1="75.59" x2="390.47" y2="75.59"/>
						<line fill="none" x1="374.26" y1="82.35" x2="374.26" y2="82.35"/>
						<line fill="none" x1="406.32" y1="67.89" x2="406.32" y2="67.89"/>
						<line fill="none" x1="406.32" y1="67.89" x2="406.32" y2="67.89"/>
						<path fill="#FBD35E" d="M406.32,67.89c-5.47,2.94-11.05,5.59-16.7,8.08l0.84-0.38C395.83,73.21,401.13,70.68,406.32,67.89"/>
						<line fill="none" x1="406.32" y1="67.89" x2="406.32" y2="67.89"/>
						<path fill="#FAC836" d="M406.32,67.89c-5.47,2.94-11.05,5.59-16.7,8.08C395.27,73.48,400.86,70.83,406.32,67.89"/>
						<line fill="none" x1="389.62" y1="75.97" x2="389.62" y2="75.97"/>
						<path fill="#FBD35E" d="M411.57,63.96c-1.35,0.76-2.71,1.5-4.08,2.22c2.44-1.33,4.85-2.73,7.22-4.21
							C413.67,62.64,412.62,63.31,411.57,63.96"/>
						<line fill="none" x1="407.49" y1="66.17" x2="407.49" y2="66.17"/>
						<line fill="none" x1="434.29" y1="34.41" x2="434.29" y2="34.41"/>
						<path fill="#FBD35E" d="M434.29,34.41c0.73,2.03,0.77,4.29,0.28,6.31C435.05,38.71,435.01,36.45,434.29,34.41"/>
						<path fill="#FDE7A6" d="M250.75,29.45l-4.5,0.92l-6.28,1.43c9.95-1.79,19.92-3.45,31.71-5.27l-3.64,0.48
							c12.7-2.02,21.83-3.05,32.77-4.3C285.27,24.21,265.28,27.17,250.75,29.45 M268.04,27.02L268.04,27.02"/>
						<line fill="none" x1="271.69" y1="26.54" x2="271.69" y2="26.54"/>
						<line fill="none" x1="300.82" y1="22.71" x2="300.82" y2="22.71"/>
						<line fill="none" x1="319.96" y1="20.44" x2="319.96" y2="20.44"/>
						<polyline fill="#FBD35E" points="319.96,20.44 323.62,20.14 319.96,20.44 						"/>
						<line fill="none" x1="271.69" y1="26.54" x2="271.69" y2="26.54"/>
						<polyline fill="#FBD35E" points="271.69,26.54 277.13,25.72 271.69,26.54 						"/>
						<line fill="none" x1="314.47" y1="20.89" x2="314.47" y2="20.89"/>
						<polyline fill="#FBD35E" points="314.47,20.89 319.96,20.44 314.47,20.89 						"/>
						<path fill="#FBD35E" d="M434.1,36.6c0.28,2.01-0.08,4.03-0.79,5.84c-0.74,1.8-1.79,3.41-2.96,4.89
							c1.15-1.49,2.17-3.11,2.88-4.92c0.71-1.79,1.08-3.8,0.81-5.8L434.1,36.6"/>
						<path fill="#FBD35E" d="M434.15,36.6c0.26,2.02-0.12,4.05-0.85,5.84c0.71-1.8,1.07-3.83,0.79-5.84H434.15"/>
						<line fill="none" x1="433.3" y1="42.44" x2="433.3" y2="42.44"/>
						<line fill="none" x1="433.99" y1="34.52" x2="433.99" y2="34.52"/>
						<line fill="none" x1="433.99" y1="34.52" x2="433.99" y2="34.52"/>
						<path fill="#FBD35E" d="M433.99,34.52c0.55,1.64,0.68,3.46,0.4,5.12c-0.34,2.02-1.15,3.86-2.16,5.5
							c-1.01,1.65-2.22,3.12-3.51,4.5c1.59-1.73,3.05-3.63,4.14-5.81c1.08-2.15,1.77-4.69,1.42-7.26c-0.01-0.32-0.05-0.72-0.09-1.01
							C434.14,35.24,434.07,34.84,433.99,34.52"/>
						<line fill="none" x1="428.72" y1="49.64" x2="428.72" y2="49.64"/>
						<path fill="#FBD35E" d="M434.01,34.51c0.55,1.65,0.66,3.47,0.38,5.13c0.28-1.67,0.15-3.49-0.4-5.12L434.01,34.51"/>
						<line fill="none" x1="434.39" y1="39.65" x2="434.39" y2="39.65"/>
						<line fill="none" x1="433.69" y1="33.51" x2="433.69" y2="33.51"/>
						<line fill="none" x1="433.69" y1="33.51" x2="433.69" y2="33.51"/>
						<path fill="#FBD35E" d="M433.69,33.51c0.25,0.57,0.45,1.11,0.61,1.77c0.13,0.55,0.25,1.19,0.29,1.79
							c0.09,1.22-0.03,2.44-0.32,3.6c-0.57,2.31-1.71,4.34-3.02,6.15c1.47-2.08,2.73-4.46,3.14-7.17c0.28-1.67,0.17-3.49-0.38-5.13
							C433.92,34.17,433.81,33.84,433.69,33.51"/>
						<line fill="none" x1="431.25" y1="46.81" x2="431.25" y2="46.81"/>
						<line fill="none" x1="434.04" y1="36.61" x2="434.04" y2="36.61"/>
						<path fill="#FDE7A6" d="M434.04,36.61c0.27,2-0.1,4.01-0.81,5.8c-0.71,1.8-1.73,3.43-2.88,4.92c1.17-1.48,2.22-3.08,2.96-4.89
							c-0.97,2.5-2.57,4.76-4.39,6.83c-1.83,2.06-3.9,3.95-6.07,5.7c-4.34,3.49-9.04,6.46-13.45,8.97
							c4.66-2.79,9.21-5.78,13.43-9.23c1.81-1.49,3.55-3.06,5.15-4.78c1.6-1.72,3.07-3.6,4.21-5.71c1.12-2.1,1.88-4.52,1.66-7
							c-0.05-0.61-0.17-1.23-0.33-1.81c-0.17-0.62-0.39-1.18-0.66-1.74c-0.54-1.11-1.27-2.1-2.09-2.99
							C432.37,32.24,433.63,34.29,434.04,36.61"/>
						<path fill="#FACD49" d="M434.04,36.61c0.27,2-0.1,4.01-0.81,5.8c-0.71,1.8-1.73,3.43-2.88,4.92c1.15-1.49,2.17-3.11,2.88-4.92
							C433.94,40.62,434.31,38.61,434.04,36.61"/>
						<line fill="none" x1="430.35" y1="47.33" x2="430.35" y2="47.33"/>
						<line fill="none" x1="433.3" y1="42.44" x2="433.3" y2="42.44"/>
						<line fill="none" x1="433.3" y1="42.44" x2="433.3" y2="42.44"/>
						<path fill="#FBD35E" d="M427.09,27.73c1.46,0.97,2.88,2.12,4.05,3.53c1.18,1.4,2.08,3.1,2.42,4.94
							c0.35,1.84,0.12,3.74-0.47,5.46c-0.58,1.73-1.48,3.29-2.49,4.71c-2.04,2.84-4.5,5.15-6.88,7.14c-2.4,1.98-4.76,3.63-6.89,4.99
							c0.83-0.57,1.63-1.15,2.42-1.73c3.81-2.82,7.17-5.68,9.87-8.92c1.34-1.62,2.52-3.35,3.32-5.25c0.81-1.88,1.23-3.97,0.92-6.03
							c-0.29-2.06-1.32-3.97-2.71-5.52c-1.39-1.57-3.11-2.83-4.96-3.92c-3.73-2.16-7.99-3.65-12.67-4.85l-1.5-0.37
							c2.23,0.59,4.78,1.33,7.43,2.32c2.64,0.99,5.39,2.23,7.89,3.9c2.47,1.65,4.72,3.85,5.71,6.49c1.03,2.64,0.6,5.39-0.27,7.45
							c0.67-1.67,0.99-3.49,0.77-5.26c-0.22-1.77-0.99-3.44-2.07-4.84c-2.21-2.82-5.35-4.69-8.49-6.19c-6.4-2.93-13.21-4.47-20-5.69
							c4.25,0.65,8.48,1.47,12.64,2.64C419.27,23.9,423.39,25.37,427.09,27.73"/>
						<line fill="none" x1="432.28" y1="42.05" x2="432.28" y2="42.05"/>
						<line fill="none" x1="429.62" y1="46.79" x2="429.62" y2="46.79"/>
						<line fill="none" x1="429.62" y1="46.79" x2="429.62" y2="46.79"/>
						<path fill="#FBD35E" d="M429.62,46.79c-1.98,2.5-4.36,4.66-6.85,6.66c-2.5,1.98-5.14,3.79-7.84,5.49
							c2.3-1.48,4.54-3.05,6.69-4.73C424.54,52.01,427.32,49.62,429.62,46.79"/>
						<polyline fill="#FBD35E" points="392.36,70.95 389.87,72.08 389.03,72.44 392.36,70.95 						"/>
						<path fill="#FBD35E" d="M407.11,63.63c-1.34,0.73-2.68,1.44-4.04,2.14c-3.52,1.82-7.1,3.53-10.71,5.17l-2.49,1.13
							C395.73,69.49,401.5,66.72,407.11,63.63 M403.07,65.78c-3.52,1.82-7.1,3.53-10.71,5.17C395.98,69.31,399.55,67.6,403.07,65.78
							"/>
						<line fill="none" x1="389.87" y1="72.08" x2="389.87" y2="72.08"/>
						<line fill="none" x1="421.63" y1="54.2" x2="421.63" y2="54.2"/>
						<line fill="none" x1="421.63" y1="54.2" x2="421.63" y2="54.2"/>
						<path fill="#FBD35E" d="M421.63,54.2c-2.15,1.69-4.39,3.25-6.69,4.73c-3.83,2.48-7.81,4.73-11.86,6.85
							c-3.52,1.82-7.1,3.53-10.71,5.17l-3.33,1.49l0.84-0.35c-5.33,2.28-10.72,4.41-16.15,6.41c6.24-2.46,12.41-5.08,18.48-7.91
							C401.41,66.59,412.92,60.83,421.63,54.2"/>
						<path fill="#FAC836" d="M421.63,54.2c-2.15,1.69-4.39,3.25-6.69,4.73C417.23,57.45,419.48,55.88,421.63,54.2"/>
						<line fill="none" x1="414.93" y1="58.93" x2="414.93" y2="58.93"/>
						<line fill="none" x1="392.36" y1="70.95" x2="392.36" y2="70.95"/>
						<line fill="none" x1="392.36" y1="70.95" x2="392.36" y2="70.95"/>
						<polyline fill="#FAC836" points="392.36,70.95 389.03,72.44 392.36,70.95 						"/>
						<line fill="none" x1="389.03" y1="72.44" x2="389.03" y2="72.44"/>
						<path fill="#FAC836" d="M403.07,65.78c-3.52,1.82-7.1,3.53-10.71,5.17C395.98,69.31,399.55,67.6,403.07,65.78"/>
						<line fill="none" x1="389.87" y1="72.08" x2="389.87" y2="72.08"/>
						<line fill="none" x1="403.07" y1="65.78" x2="403.07" y2="65.78"/>
						<path fill="#FAC836" d="M403.07,65.78c-3.52,1.82-7.1,3.53-10.71,5.17C395.98,69.31,399.55,67.6,403.07,65.78"/>
						<line fill="none" x1="387.15" y1="72.7" x2="387.15" y2="72.7"/>
						<line fill="none" x1="387.15" y1="72.7" x2="387.15" y2="72.7"/>
						<path fill="#FBD35E" d="M387.15,72.7c-9.2,4.03-17.77,7.24-24.71,9.57c6.86-2.55,13.65-5.25,20.34-8.17l-2.46,1.22
							C382.61,74.48,384.88,73.6,387.15,72.7"/>
						<line fill="none" x1="187.44" y1="126.97" x2="187.44" y2="126.97"/>
						<line fill="none" x1="187.44" y1="126.97" x2="187.44" y2="126.97"/>
						<polyline fill="#FBD35E" points="187.44,126.97 179.17,127.6 181.91,127.27 187.44,126.97 						"/>
						<path fill="#FBCF50" d="M163.38,47.81c17.91-4.52,32.41-7.27,44.25-9.11c-8.94,2.1-17.85,4.35-26.72,6.77
							c-14.37,3.85-28.63,8.11-39.23,11.49c-10.6,3.36-17.58,5.74-17.56,5.24c0.01-0.14,0.59-0.52,1.84-1.14
							C138.87,56,151.96,51.46,163.38,47.81"/>
						<line fill="none" x1="207.63" y1="38.7" x2="207.63" y2="38.7"/>
						<path fill="#FBD35E" d="M64.6,96.12c0.87-1.02,1.78-1.98,2.72-2.89c-2.34,2.51-3.51,4.18-4.82,6.55
							c-0.62,1.21-1.31,2.62-1.78,4.66c-0.44,2.02-0.68,4.86,0.81,8.06c-0.15-0.24-0.33-0.58-0.51-1c-0.17-0.35-0.41-1.13-0.51-1.5
							c-0.33-1.27-0.46-2.76-0.25-4.42C60.64,102.26,62.46,98.88,64.6,96.12"/>
						<line fill="none" x1="93.57" y1="74.87" x2="93.57" y2="74.87"/>
						<path fill="#FCDC80" d="M93.57,74.87c6.81-3.14,15.78-7.17,25.32-11.02l7.07-2.81c-1.24,0.63-1.83,1-1.84,1.14
							c-0.02,0.51,6.96-1.88,17.56-5.24c10.6-3.38,24.86-7.64,39.23-11.49c-21.96,6.03-43.7,12.97-64.77,21.7
							c-7.02,2.92-13.95,6.06-20.72,9.54c-4.9,2.53-9.72,5.24-14.36,8.26c-4.61,3.04-9.11,6.36-12.95,10.44
							c-1.9,2.05-3.65,4.31-4.83,6.94c-0.58,1.31-1.01,2.73-1.14,4.2c-0.13,1.48,0.05,2.96,0.56,4.37c1.02,2.82,3.18,4.95,5.48,6.56
							c2.33,1.62,4.89,2.81,7.49,3.81c-0.84-0.41-1.67-0.84-2.48-1.3c-2.41-1.12-4.77-2.47-6.78-4.3c-1-0.91-1.9-1.96-2.6-3.15
							c-0.69-1.19-1.16-2.52-1.32-3.9c-0.33-2.7,0.55-5.35,1.82-7.62c1.28-2.29,2.96-4.29,4.76-6.13c1.13-1.15,2.31-2.23,3.52-3.26
							c3.65-3.08,7.56-5.74,11.51-8.17c3.96-2.43,7.97-4.62,11.95-6.64c7.96-4.03,15.8-7.39,23.17-10.26
							c-11.35,4.78-22.96,10.1-33.9,16.67c-3.62,2.19-7.16,4.53-10.49,7.13c-3.31,2.61-6.48,5.45-8.94,8.86
							c-1.81,2.54-3.27,5.53-3.14,8.71c0.06,1.57,0.52,3.12,1.31,4.47c0.79,1.35,1.85,2.53,3.02,3.53c2.36,2.02,5.12,3.44,7.91,4.61
							c2.8,1.17,5.67,2.06,8.53,2.83c5.73,1.5,11.44,2.45,16.96,3.17c5.53,0.71,10.9,1.18,16.04,1.51
							c7.35,0.49,18.42,0.64,29.46,0.26c-5.21,0.18-10.43,0.27-15.65,0.25l-1.85,0.24c7.06,0.22,14.14,0.24,21.21,0.11l-5.53,0.16
							c-6.76,0.17-13.53,0.2-20.29,0.02c-6.15-0.15-12.31-0.47-18.45-1.04c-3.8-0.36-7.6-0.8-11.41-1.36l0,0
							c-5.94-0.91-11.96-2.07-17.97-4.2c-2.99-1.08-6.01-2.41-8.82-4.41c-1.4-1-2.74-2.2-3.86-3.69c-0.56-0.74-1.06-1.57-1.44-2.46
							c-0.2-0.46-0.36-0.88-0.51-1.41c-0.08-0.28-0.13-0.47-0.17-0.67l-0.04-0.15l-0.04-0.23l-0.06-0.37l0.1,0.62l0.1,0.48
							c0.1,0.4,0.23,0.81,0.35,1.17c0.27,0.73,0.6,1.43,1,2.08c0.78,1.31,1.78,2.43,2.84,3.41c2.15,1.94,4.58,3.34,7.06,4.5
							c2.44,1.18,3.65,1.64,3.86,1.81c0.22,0.16-0.73-0.06-2.47-0.68c-1.73-0.64-4.28-1.65-7.07-3.54c-1.38-0.96-2.83-2.15-4.1-3.75
							c-0.63-0.8-1.21-1.7-1.68-2.7c-0.23-0.52-0.43-0.99-0.61-1.59l-0.13-0.45l-0.08-0.33l-0.04-0.16l-0.06-0.27l-0.07-0.42
							c-0.37-2.26-0.04-4.55,0.62-6.5c0.67-1.96,1.63-3.65,2.63-5.11c0.41-0.56,0.83-1.08,1.26-1.6c-2.14,2.76-3.96,6.14-4.36,9.47
							c-0.2,1.66-0.07,3.15,0.25,4.42c0.1,0.37,0.34,1.14,0.51,1.5c0.18,0.42,0.36,0.76,0.51,1c-1.49-3.2-1.25-6.04-0.81-8.06
							c0.47-2.05,1.16-3.45,1.78-4.66c1.31-2.37,2.48-4.04,4.82-6.55c0.99-0.86,2-1.66,3.03-2.42c3.42-2.88,7.06-5.35,10.77-7.64
							c-2.62,1.98,0.72-0.2,4.66-2.43c3.94-2.25,8.49-4.53,7.76-3.93c6.59-3.36,13.34-6.37,20.16-9.18
							c3.62-1.68,7.27-3.31,10.95-4.88c-7.81,2.8-15.75,5.96-21.62,8.45C97.15,73.67,93.32,75.4,93.57,74.87"/>
						<path fill="#FAC837" d="M124.12,62.19c-0.02,0.51,6.96-1.88,17.56-5.24c10.6-3.38,24.86-7.64,39.23-11.49
							c-14.37,3.85-28.63,8.11-39.23,11.49C131.08,60.31,124.1,62.7,124.12,62.19"/>
						<path fill="#FACA3E" d="M67.32,93.24c-2.34,2.51-3.51,4.18-4.82,6.55c-0.62,1.21-1.31,2.62-1.78,4.66
							c-0.44,2.02-0.68,4.86,0.81,8.06c-1.49-3.2-1.25-6.04-0.81-8.06c0.47-2.05,1.16-3.45,1.78-4.66
							C63.81,97.41,64.97,95.74,67.32,93.24"/>
						<line fill="none" x1="63.34" y1="97.72" x2="63.34" y2="97.72"/>
						<line fill="none" x1="67.32" y1="93.24" x2="67.32" y2="93.24"/>
						<line fill="none" x1="125.96" y1="61.05" x2="125.96" y2="61.05"/>
						<line fill="none" x1="149.69" y1="128.93" x2="149.69" y2="128.93"/>
						<line fill="none" x1="149.69" y1="128.93" x2="149.69" y2="128.93"/>
						<line fill="none" x1="162.59" y1="128.51" x2="162.59" y2="128.51"/>
						<path fill="#FBD35E" d="M162.59,128.51c-4.3,0.19-8.6,0.33-12.91,0.42l-5.53,0.16c-6.76,0.17-13.53,0.2-20.29,0.02l-0.93,0.04
							c5.85,0.19,11.69,0.23,17.53,0.15c-6.45,0.15-12.92,0.17-19.38-0.01c7.38,0.39,16.62,0.36,25.84,0.04
							C152.16,129.14,157.38,128.86,162.59,128.51 M151.54,129.08L151.54,129.08 M144.16,129.09c-6.76,0.17-13.53,0.2-20.29,0.02
							C130.63,129.29,137.4,129.26,144.16,129.09 M144.16,129.09L144.16,129.09"/>
						<line fill="none" x1="144.16" y1="129.09" x2="144.16" y2="129.09"/>
						<path fill="#FAC836" d="M144.16,129.09c-6.76,0.17-13.53,0.2-20.29,0.02C130.63,129.29,137.4,129.26,144.16,129.09"/>
						<path fill="#FBD35E" d="M66.53,93.83l0.79-0.59c-0.94,0.91-1.85,1.86-2.72,2.89C65.21,95.32,65.86,94.56,66.53,93.83"/>
						<line fill="none" x1="67.32" y1="93.24" x2="67.32" y2="93.24"/>
						<line fill="none" x1="145.66" y1="58.78" x2="145.66" y2="58.78"/>
						<polyline fill="#FBD35E" points="145.66,58.78 146.59,58.66 145.66,58.78 						"/>
						<path opacity="0.8" fill="#FCE193" enable-background="new    " d="M57.91,102.69c0.67-2.04,1.54-3.58,2.35-4.85
							c0.82-1.26,1.6-2.25,2.32-3.07c1.43-1.63,2.54-2.62,3.34-3.28c1.61-1.29,1.98-1.28,1.82-0.82c-0.35,0.9-2.57,3.95-1.22,3.16
							c-0.66,0.73-1.31,1.49-1.93,2.3c-0.43,0.52-0.85,1.04-1.26,1.6c-1,1.46-1.96,3.15-2.63,5.11c-0.67,1.95-1,4.24-0.62,6.5
							l0.07,0.42l0.06,0.27l0.04,0.16l0.08,0.33l0.13,0.45c0.18,0.6,0.38,1.07,0.61,1.59c0.47,1,1.05,1.9,1.68,2.7
							c1.27,1.6,2.72,2.79,4.1,3.75c2.79,1.89,5.33,2.9,7.07,3.54c1.74,0.62,2.7,0.84,2.47,0.68c-0.21-0.17-1.42-0.63-3.86-1.81
							c-2.47-1.16-4.9-2.55-7.06-4.5c-1.06-0.98-2.06-2.1-2.84-3.41c-0.39-0.65-0.73-1.35-1-2.08c-0.13-0.35-0.25-0.76-0.35-1.17
							l-0.1-0.48l-0.1-0.62l0.06,0.37l0.04,0.23l0.04,0.15c0.05,0.2,0.09,0.39,0.17,0.67c0.15,0.53,0.31,0.95,0.51,1.41
							c0.39,0.89,0.89,1.71,1.44,2.46c1.12,1.49,2.47,2.69,3.86,3.69c2.81,2,5.83,3.32,8.82,4.41c6.01,2.12,12.03,3.28,17.97,4.2
							c3.81,0.57,7.61,1.01,11.41,1.37c6.14,0.57,12.3,0.89,18.45,1.04l-0.93,0.04c-5.54-0.15-11.08-0.43-16.61-0.92
							c9.2,1.05,22.16,1.38,34.15,1.07c-6.45,0.15-12.92,0.17-19.38-0.01c7.38,0.39,16.62,0.36,25.84,0.04l-2.76,0.23
							c3.69,0.06,7.39,0.06,11.09,0.04c-7.08,0.27-14.16,0.4-21.25,0.34c-2.46,0.11-4.93,0.2-7.39,0.27
							c7.39,0.51,16.67,1.01,31.49,0.51c-9.71,0.36-18.28,0.4-27.78,0.17c-4.75-0.12-9.73-0.31-15.21-0.65
							c-5.48-0.35-11.45-0.83-18.16-1.73l-1.88-0.01c-1.85-0.31-3.69-0.66-5.54-1.05c3.2,0.83,8.29,1.73,13.28,2.37
							c4.98,0.65,9.86,1.09,12.64,1.44c-5.58-0.39-11.15-0.94-16.72-1.74c0.45,0.2,2.77,0.6,5.32,0.95l6.74,0.86
							c-6.89-0.63-10.81-1.39-15.01-2.21c-2.1-0.43-4.27-0.88-6.91-1.46c-2.64-0.6-5.76-1.29-9.74-2.47l-0.72-0.22l-1.12-0.36
							c-3.53-1.17-6.6-2.51-9.18-4.06c-2.58-1.54-4.68-3.35-6.15-5.3c-0.73-0.97-1.3-1.97-1.72-2.92c-0.21-0.48-0.38-0.91-0.54-1.45
							l-0.16-0.56l-0.03-0.11l-0.02-0.06l-0.04-0.16l-0.06-0.3c-0.34-1.59-0.33-2.74-0.37-3.44c-0.01-0.7-0.05-0.97-0.17-0.86
							c-0.11,0.11-0.29,0.59-0.44,1.48c-0.13,0.87-0.22,2.19,0.05,3.78c0.26,1.63,0.93,3.51,2.07,5.29
							c-1.48-2.15-2.5-4.97-2.56-7.76c-0.1-1.91,0.15-3.31,0.35-4.3c0.22-0.99,0.41-1.62,0.52-2.01c0.23-0.79,0.11-0.67-0.12-0.25
							C58.23,102.4,57.5,104.65,57.91,102.69"/>
						<path fill="#FBD156" d="M76.4,123.21c-0.21-0.17-1.42-0.63-3.86-1.81c-2.47-1.16-4.9-2.55-7.06-4.5
							c-1.06-0.98-2.06-2.1-2.84-3.41c-0.39-0.65-0.73-1.35-1-2.08c-0.13-0.35-0.25-0.76-0.35-1.17l-0.1-0.48l-0.1-0.62l0.1,0.62
							l0.1,0.48c0.1,0.4,0.23,0.81,0.35,1.17c0.27,0.73,0.6,1.43,1,2.08c0.78,1.31,1.78,2.43,2.84,3.41
							c2.15,1.94,4.58,3.34,7.06,4.5C74.98,122.57,76.19,123.03,76.4,123.21"/>
						<path fill="#FBD156" d="M61.08,109.13l0.06,0.37l0.04,0.23l0.04,0.15c0.05,0.2,0.09,0.39,0.17,0.67
							c0.15,0.53,0.31,0.95,0.51,1.41c0.39,0.89,0.89,1.71,1.44,2.46c1.12,1.49,2.47,2.69,3.86,3.69c2.81,2,5.83,3.32,8.82,4.41
							c6.01,2.12,12.03,3.28,17.97,4.2c-5.94-0.91-11.96-2.07-17.97-4.2c-2.99-1.08-6.01-2.41-8.82-4.41c-1.4-1-2.74-2.2-3.86-3.69
							c-0.56-0.74-1.06-1.57-1.44-2.46c-0.2-0.46-0.36-0.88-0.51-1.41c-0.08-0.28-0.13-0.47-0.17-0.67l-0.04-0.15l-0.04-0.23
							L61.08,109.13"/>
						<path fill="#FACC44" d="M140.47,129.31c-6.45,0.15-12.92,0.17-19.38-0.01C127.56,129.47,134.02,129.46,140.47,129.31"/>
						<line fill="none" x1="121.09" y1="129.3" x2="121.09" y2="129.3"/>
						<polyline fill="#FACC44" points="122.94,129.15 123.87,129.12 122.94,129.15 						"/>
						<line fill="none" x1="60.53" y1="115.93" x2="60.53" y2="115.93"/>
						<line fill="none" x1="110.77" y1="131.33" x2="110.77" y2="131.33"/>
						<line fill="none" x1="158.11" y1="130.73" x2="158.11" y2="130.73"/>
						<line fill="none" x1="115.44" y1="131.25" x2="115.44" y2="131.25"/>
						<line fill="none" x1="78.4" y1="124.96" x2="78.4" y2="124.96"/>
						<line fill="none" x1="95.07" y1="128.5" x2="95.07" y2="128.5"/>
						<line fill="none" x1="155.26" y1="129.61" x2="155.26" y2="129.61"/>
						<line fill="none" x1="140.47" y1="129.31" x2="140.47" y2="129.31"/>
						<line fill="none" x1="122.94" y1="129.15" x2="122.94" y2="129.15"/>
						<line fill="none" x1="176.29" y1="126.45" x2="176.29" y2="126.45"/>
						<path opacity="0.8" fill="#FCE193" enable-background="new    " d="M176.29,126.45l3.65-0.4l4.57-0.62l-5.5,0.5l5.5-0.5
							l0.89-0.31c-4.28,0.35-8.56,0.67-12.84,0.94l7.32-0.59c-3.67,0.26-7.33,0.49-11,0.68c4.58-0.31,9.17-0.66,13.74-1.06
							l-0.01-0.13l-4.58,0.34c-10.98,0.94-22.9,1.74-33.01,1.93c4.71-0.2,9.42-0.45,14.15-0.75c10.02-0.63,20.16-1.48,30.71-2.65
							l3.64-0.47c-13.7,1.48-29.27,2.68-39.36,2.84l2.96-0.17c9.47-0.57,17.5-1.15,25.56-1.85c8.06-0.71,16.15-1.55,25.7-2.86
							l1.52-0.21c-9.12,1.07-23.73,2.61-32.89,3.18c14.63-1.15,28.33-2.63,41.98-4.43l1.82-0.28c18.17-2.7,34.44-5.65,50.63-9.02
							c-6.91,1.37-13.83,2.66-20.77,3.87c6.94-1.21,13.86-2.5,20.77-3.87c26.06-5.45,50.15-11.55,74.72-19.28
							c-6.46,1.95-12.95,3.78-19.47,5.52c12.27-3.86,26.27-8.36,37.44-12.63c-18.18,6.48-34.09,11.01-51.82,15.75
							c17.73-4.74,33.64-9.27,51.82-15.75l3.42-1.31c-7.37,2.57-15.87,5.4-24.42,8.02c-8.55,2.63-17.16,5.07-24.71,7.02
							c10.61-2.92,19.48-5.33,31.66-9.39l-3.51,1.06l-5.25,1.68l5.25-1.68c11.34-3.7,20.86-7.03,30.29-10.69
							c10.06-4.49,21.67-10.04,32.67-16.58c1.83-1.09,3.64-2.22,5.41-3.39c-3.83,2.48-7.81,4.73-11.86,6.85
							c1.35-0.7,2.7-1.41,4.04-2.14c-5.61,3.08-11.38,5.86-17.24,8.44c-5.33,2.28-10.72,4.41-16.15,6.41
							c6.24-2.46,12.41-5.08,18.48-7.91c-1.68,0.72-3.36,1.43-5.05,2.12c-9.2,4.03-17.77,7.24-24.71,9.57
							c6.86-2.55,13.65-5.25,20.34-8.17c3.86-1.79,7.69-3.66,11.45-5.61l-1.83,0.38c-7.11,3.02-18.74,7.84-33.03,12.99l-2.57,0.92
							l0.99,0.07l-4.38,1.26c-2.56,0.99-5.12,1.96-7.69,2.91l-7.84,2.48c-4.28,1.6-9.95,3.4-16.1,5.17
							c-6.15,1.77-12.79,3.51-18.99,5.08l5.34-1.26c-2.78,0.92-6.17,1.86-9.75,2.76c-5.38,1.36-11.16,2.62-15.99,3.68
							c-3.56,0.74-7.12,1.46-10.69,2.15l-0.96,0.21l0.39-0.1l-0.4,0.08c-5.08,1.07-10.15,2.09-15.25,3.07l-8.11,1.4l-4.53,0.7
							l4.53-0.7l5.41-0.95l-4.52,0.7l9.01-1.61c-6.01,1.08-12.02,2.1-18.04,3.05l-6.32,1.02l1.8-0.33l-8.15,1.15
							c-5.73,0.83-11.47,1.6-17.21,2.3c-3.92,0.57-7.84,1.12-11.77,1.63c3.32-0.45,6.64-0.92,9.96-1.41l5.42-0.82
							c-6.03,0.85-12.07,1.62-18.11,2.32l0.89-0.24c-7.26,0.8-16.34,1.73-25.42,2.45l-0.9,0.07c-5.14,0.45-10.29,0.84-15.44,1.15
							c4.54-0.3,9.08-0.65,13.62-1.06l-0.92-0.17c-8.74,0.69-18.07,1.35-27.52,1.56c-2.32,0.05-4.65,0.08-6.98,0.07l1.81,0.04
							c-4.53,0.05-9.06,0.03-13.58-0.09c-7.68-0.12-15.12-0.5-22.26-1.29c1.99,0.32,4,0.6,6.02,0.86c-2.02-0.25-4.02-0.54-6.02-0.86
							c-6.41-0.72-12.59-1.76-18.17-3.42c-2.78-0.84-5.41-1.84-7.67-3.08c-2.26-1.23-4.13-2.75-5.09-4.36
							c-0.24-0.39-0.45-0.83-0.58-1.19l-0.04-0.11l-0.02-0.05l-0.03-0.13l-0.06-0.25l-0.03-0.13c0.01,0.04-0.02-0.11,0.02,0.08
							v-0.01v-0.02l-0.01-0.04c-0.05-0.21-0.08-0.43-0.11-0.64c-0.1-0.87-0.01-1.8,0.27-2.77c0.53-1.94,1.74-3.93,3.12-5.72
							c2.83-3.61,6.32-6.6,9.59-9.19c-2.51,1.85-4.92,3.82-7.07,5.93c-2.13,2.1-4.03,4.38-5.23,6.73c-1.21,2.36-1.55,4.65-0.87,6.53
							c0.65,1.9,2.31,3.57,4.28,4.88c2.97,2,6.65,3.4,10.42,4.51c3.79,1.1,7.75,1.91,11.77,2.55c8.05,1.27,16.36,1.91,24.85,2.25
							l5.63,0.17c-6.36,0.01-12.72-0.16-19.03-0.61l0.9,0.08c-1.51-0.08-3.01-0.18-4.51-0.3l3.61,0.21
							c-7.2-0.69-13.9-1.64-20.11-3.16c-3.1-0.76-6.07-1.67-8.81-2.83c-2.72-1.16-5.27-2.58-7.09-4.39
							c-1.84-1.81-2.73-3.89-2.47-6.2c0.24-2.32,1.58-4.81,3.34-7.05c3.6-4.53,8.6-8.38,14.02-11.95c-1.23,0.85-2.44,1.73-3.62,2.64
							c6.14-4.48,12.85-8.32,19.71-11.85c6.87-3.53,13.93-6.74,21.09-9.74c5.27-2.4,10.6-4.68,15.98-6.86
							c-4.6,1.64-9.17,3.35-13.71,5.15c2.53-1.06,5.08-2.09,7.63-3.1c1.1-0.48,5.51-2.17,5.93-2.39c0.27-0.13-1.13,0.3-6.07,2.12
							c-2.47,0.92-5.82,2.19-10.27,3.98c-4.44,1.81-9.98,4.13-16.72,7.33c-4.67,2.24-9.28,4.62-13.77,7.2
							c7.49-4.38,14.9-8.02,21.87-11.23c6.98-3.21,13.53-5.97,19.48-8.41c-3.75,1.33-7.48,2.71-11.2,4.14
							c-11.34,4.77-22.96,10.1-33.9,16.67c-3.62,2.19-7.16,4.53-10.49,7.13c-3.31,2.61-6.48,5.45-8.95,8.86
							c-1.81,2.54-3.27,5.53-3.14,8.71c0.06,1.57,0.52,3.12,1.31,4.47c0.79,1.35,1.85,2.53,3.02,3.53c2.37,2.01,5.12,3.44,7.91,4.61
							c2.8,1.17,5.67,2.06,8.53,2.83c5.73,1.5,11.44,2.45,16.96,3.17c5.53,0.71,10.9,1.18,16.04,1.51
							c7.35,0.49,18.42,0.64,29.46,0.26l1.84-0.07l-5.52,0.06c2.76-0.05,5.52-0.12,8.28-0.21c-4.3,0.06-8.59,0.06-12.89,0
							c5.52,0.02,11.04-0.06,16.56-0.24l2.76-0.21c-4.6,0.18-9.2,0.3-13.81,0.36c5.21-0.08,10.43-0.25,15.64-0.5l3.67-0.35
							C167.1,126.99,171.69,126.75,176.29,126.45 M346.78,90.24L346.78,90.24 M346.78,90.24L346.78,90.24 M305.21,101.82
							c13.36-3.33,24.95-6.24,41.57-11.58C330.15,95.58,318.56,98.49,305.21,101.82l-5.35,1.3l-3.56,0.87l3.56-0.87L305.21,101.82
							l-0.87,0.31c-4.75,1.2-9.5,2.37-14.27,3.48c4.77-1.12,9.52-2.28,14.27-3.48L305.21,101.82 M263.31,112.15L263.31,112.15
							 M263.31,112.15L263.31,112.15 M230.74,117.76c12.67-2.1,20.87-3.25,32.57-5.61C251.61,114.51,243.4,115.65,230.74,117.76
							 M249.79,114.77L249.79,114.77 M249.79,114.77L249.79,114.77 M219.86,119.49l-0.91,0.14l-9.09,1.27l9.09-1.27L219.86,119.49
							c10.9-1.57,19.08-2.76,29.93-4.72C238.94,116.73,230.76,117.92,219.86,119.49 M250.66,114.44L250.66,114.44 M295.45,104.44
							l-5.33,1.38L295.45,104.44 M222.59,119.15L222.59,119.15 M230.74,117.76L230.74,117.76 M219.86,119.49L219.86,119.49
							 M312.3,99.93L312.3,99.93 M290.07,105.61L290.07,105.61 M407.11,63.63L407.11,63.63 M70.19,96.05
							c2.68-2.79,5.75-5.27,8.94-7.56c3.2-2.3,6.54-4.41,9.95-6.41c-3.41,2-6.75,4.12-9.95,6.41
							C75.94,90.79,72.87,93.26,70.19,96.05 M70.19,96.05c2.68-2.79,5.75-5.27,8.94-7.56c3.2-2.3,6.54-4.41,9.95-6.41
							c-3.41,2-6.75,4.12-9.95,6.41C75.94,90.79,72.87,93.26,70.19,96.05 M70.19,96.05c-0.83,0.85-1.61,1.74-2.34,2.67
							c-0.72,0.93-1.37,1.9-1.94,2.89c-0.56,1-1.03,2.03-1.35,3.09c-0.29,1-0.42,2.02-0.38,3.01l0.02,0.31
							c0.02,0.25,0.04,0.5,0.09,0.74c0.02,0.11,0.04,0.27,0.06,0.34l0.1,0.43c0.12,0.42,0.3,0.92,0.51,1.37
							c0.46,0.95,1.11,1.82,1.87,2.62c0.76,0.8,1.63,1.52,2.57,2.17c0.95,0.65,1.96,1.22,3,1.74c1.05,0.52,2.13,0.99,3.23,1.42
							c0.83,0.32,1.66,0.63,2.51,0.91c1.13,0.37,2.28,0.71,3.43,1.02c1.16,0.31,2.33,0.59,3.5,0.85c1.17,0.26,2.35,0.49,3.53,0.71
							l2.68,0.45c1.19,0.19,2.39,0.37,3.59,0.52l2.7,0.29c-6.92-0.88-13.31-2.04-19.12-3.91c-2.89-0.95-5.65-2.07-8.08-3.55
							c-2.41-1.48-4.52-3.36-5.51-5.7c-0.08-0.17-0.13-0.34-0.2-0.51c-0.05-0.17-0.1-0.3-0.15-0.49L64.42,109l-0.08-0.41
							c-0.2-1.22-0.09-2.5,0.26-3.77c0.09-0.3,0.18-0.6,0.29-0.9c0.38-1.04,0.89-2.06,1.49-3.03c0.33-0.55,0.7-1.08,1.08-1.61
							C68.29,98.16,69.2,97.09,70.19,96.05 M122.34,66.93l-4.49,1.82l-3.11,1.31l-3.37,1.45l-3.32,1.51l-4.14,1.94l-1.96,0.97
							c-1.77,0.88-3.54,1.78-5.29,2.71l-0.07,0.04l-3.2,1.74l3.2-1.74l-3.2,1.74l3.2-1.74l0.03-0.02l-3.23,1.76
							c1.29-0.72,2.71-1.48,4.17-2.24l2.29-1.17l4.09-2l1.3-0.62l3.88-1.79l2.3-1.02l2.39-1.06
							C116.74,69.25,119.64,68.04,122.34,66.93 M122.34,66.93L122.34,66.93 M361.28,81.76L361.28,81.76 M357.78,82.86l0.03,0.08
							l3.47-1.17L357.78,82.86"/>
						<path fill="#FCE193" d="M70.19,96.05c-1.61,1.69-3.1,3.5-4.23,5.47c-1.12,1.96-1.86,4.11-1.78,6.19
							c-0.04-0.99,0.1-2.01,0.38-3.02c0.31-1.06,0.78-2.09,1.35-3.09c0.56-1,1.21-1.97,1.94-2.89
							C68.57,97.79,69.36,96.91,70.19,96.05"/>
						<path fill="#FCE193" d="M67.46,99.28c-0.38,0.53-0.75,1.06-1.08,1.61c-0.61,0.98-1.12,1.99-1.49,3.03
							c-0.11,0.3-0.2,0.6-0.29,0.9C65.13,102.9,66.18,101.02,67.46,99.28"/>
						<path fill="#FCE193" d="M64.2,108.02c0.2,3.13,2.44,5.77,5.19,7.63c2.76,1.89,5.97,3.19,9.17,4.23
							c6.45,2.04,12.99,3.05,19.02,3.72l-2.7-0.29c-1.2-0.16-2.39-0.33-3.59-0.52l-2.68-0.45c-1.18-0.22-2.36-0.45-3.53-0.71
							s-2.34-0.54-3.5-0.85c-1.16-0.31-2.3-0.65-3.43-1.02c-0.85-0.28-1.68-0.59-2.51-0.91c-1.1-0.43-2.18-0.9-3.23-1.42
							c-1.05-0.52-2.06-1.1-3-1.74c-0.94-0.65-1.81-1.37-2.57-2.17c-0.76-0.79-1.41-1.67-1.87-2.62c-0.21-0.45-0.4-0.95-0.51-1.36
							l-0.1-0.43c-0.02-0.07-0.04-0.23-0.06-0.34C64.25,108.52,64.22,108.27,64.2,108.02"/>
						<path fill="#FCE193" d="M64.34,108.59l0.08,0.41l0.11,0.43c0.05,0.2,0.1,0.32,0.15,0.49c0.07,0.17,0.12,0.34,0.2,0.51
							c-0.13-0.3-0.23-0.6-0.31-0.87c-0.05-0.15-0.09-0.36-0.14-0.53L64.34,108.59"/>
						<polyline fill="#FBD462" points="270.72,107.29 271.11,107.19 271.69,107.08 270.72,107.29 						"/>
						<line fill="none" x1="104.12" y1="122.13" x2="104.12" y2="122.13"/>
						<path fill="#FACC44" d="M104.12,122.13c-2.02-0.25-4.02-0.54-6.02-0.86C100.09,121.59,102.1,121.88,104.12,122.13"/>
						<line fill="none" x1="407.11" y1="63.63" x2="407.11" y2="63.63"/>
						<line fill="none" x1="407.11" y1="63.63" x2="407.11" y2="63.63"/>
						<path fill="#FACC44" d="M407.11,63.63c-1.34,0.73-2.68,1.44-4.04,2.14C404.43,65.08,405.77,64.37,407.11,63.63"/>
						<path fill="#FACC44" d="M392.19,70.59c-6.07,2.83-12.24,5.44-18.48,7.91C379.95,76.03,386.13,73.42,392.19,70.59"/>
						<line fill="none" x1="373.72" y1="78.49" x2="373.72" y2="78.49"/>
						<path fill="#FACC44" d="M362.44,82.27c6.86-2.55,13.65-5.25,20.34-8.17C376.09,77.02,369.29,79.72,362.44,82.27"/>
						<path fill="#FACC45" d="M70.19,96.05c-0.83,0.85-1.61,1.74-2.34,2.67c-0.72,0.93-1.37,1.9-1.94,2.89
							c-0.56,1-1.03,2.03-1.35,3.09c-0.29,1-0.42,2.02-0.38,3.01c-0.04-0.99,0.1-2.01,0.38-3.01c0.31-1.06,0.78-2.09,1.35-3.09
							c0.56-1,1.21-1.97,1.94-2.89C68.57,97.79,69.36,96.91,70.19,96.05"/>
						<path fill="#FACC45" d="M67.46,99.28c-0.38,0.53-0.75,1.06-1.08,1.61c-0.61,0.98-1.12,1.99-1.49,3.03
							c-0.11,0.3-0.2,0.6-0.29,0.9c0.09-0.3,0.18-0.6,0.29-0.9c0.38-1.04,0.89-2.06,1.49-3.03C66.71,100.34,67.08,99.81,67.46,99.28
							"/>
						<path fill="#FACC45" d="M64.2,108.02c0.02,0.25,0.04,0.5,0.09,0.74c0.02,0.11,0.04,0.27,0.06,0.34l0.1,0.43
							c0.12,0.42,0.3,0.92,0.51,1.37c0.46,0.95,1.11,1.82,1.87,2.62c0.76,0.8,1.63,1.52,2.57,2.17c0.95,0.65,1.96,1.22,3,1.74
							c1.05,0.52,2.13,0.99,3.23,1.42c0.83,0.32,1.66,0.63,2.51,0.91c1.13,0.37,2.28,0.71,3.43,1.02c1.16,0.31,2.33,0.59,3.5,0.85
							c1.17,0.26,2.35,0.49,3.53,0.71l2.68,0.45c1.19,0.19,2.39,0.37,3.58,0.52l2.7,0.29l-2.7-0.29c-1.2-0.16-2.39-0.33-3.58-0.52
							l-2.68-0.45c-1.18-0.22-2.36-0.45-3.53-0.71c-1.17-0.26-2.34-0.54-3.5-0.85c-1.16-0.31-2.3-0.65-3.43-1.02
							c-0.85-0.28-1.68-0.59-2.51-0.91c-1.1-0.43-2.18-0.9-3.23-1.42c-1.05-0.52-2.06-1.1-3-1.74c-0.94-0.65-1.81-1.37-2.57-2.17
							c-0.76-0.79-1.41-1.67-1.87-2.62c-0.21-0.45-0.4-0.95-0.51-1.37l-0.1-0.43c-0.02-0.07-0.04-0.23-0.06-0.34
							C64.25,108.52,64.22,108.27,64.2,108.02"/>
						<path fill="#FACC45" d="M64.34,108.59l0.08,0.41l0.11,0.43c0.05,0.2,0.1,0.32,0.15,0.49c0.07,0.17,0.12,0.34,0.2,0.51
							c-0.08-0.17-0.13-0.34-0.2-0.51c-0.05-0.17-0.1-0.3-0.15-0.49L64.42,109L64.34,108.59"/>
						<path fill="#FACC45" d="M89.08,82.07c-3.41,2-6.75,4.12-9.95,6.41c-3.19,2.3-6.26,4.77-8.94,7.56
							c2.68-2.79,5.75-5.27,8.94-7.56C82.33,86.19,85.67,84.07,89.08,82.07"/>
						<path fill="#FACC45" d="M89.08,82.07c-3.41,2-6.75,4.12-9.95,6.41c-3.19,2.3-6.26,4.77-8.94,7.56
							c2.68-2.79,5.75-5.27,8.94-7.56C82.33,86.19,85.67,84.07,89.08,82.07"/>
						<line fill="none" x1="145.97" y1="128.34" x2="145.97" y2="128.34"/>
						<path fill="#FBD156" d="M145.97,128.34c-11.04,0.38-22.1,0.23-29.46-0.26c-5.14-0.34-10.5-0.8-16.04-1.51
							c-5.53-0.72-11.23-1.67-16.96-3.17c-2.86-0.76-5.73-1.66-8.53-2.83c-2.79-1.17-5.55-2.6-7.91-4.61
							c-1.18-1-2.24-2.18-3.02-3.53c-0.79-1.35-1.26-2.9-1.31-4.47c-0.12-3.19,1.34-6.18,3.14-8.71c-1.81,2.54-3.27,5.53-3.14,8.71
							c0.06,1.57,0.52,3.12,1.31,4.47s1.85,2.53,3.02,3.53c2.36,2.02,5.12,3.44,7.91,4.61c2.8,1.17,5.67,2.06,8.53,2.83
							c5.73,1.5,11.44,2.45,16.96,3.17c5.53,0.71,10.9,1.18,16.04,1.51C123.87,128.56,134.94,128.71,145.97,128.34"/>
						<path fill="#FBD156" d="M119.23,66.57c-11.34,4.77-22.96,10.1-33.9,16.67C96.27,76.67,107.88,71.35,119.23,66.57"/>
						<line fill="none" x1="147.81" y1="128.26" x2="147.81" y2="128.26"/>
						<line fill="none" x1="147.81" y1="128.26" x2="147.81" y2="128.26"/>
						<line fill="none" x1="150.57" y1="128.12" x2="150.57" y2="128.12"/>
						<line fill="none" x1="154.24" y1="127.88" x2="154.24" y2="127.88"/>
						<line fill="none" x1="184.5" y1="125.43" x2="184.5" y2="125.43"/>
						<line fill="none" x1="346.15" y1="91.29" x2="346.15" y2="91.29"/>
						<line fill="none" x1="158.83" y1="127.53" x2="158.83" y2="127.53"/>
						<line fill="none" x1="179.88" y1="125.47" x2="179.88" y2="125.47"/>
						<line fill="none" x1="182.62" y1="125.09" x2="182.62" y2="125.09"/>
						<line fill="none" x1="271.43" y1="110.57" x2="271.43" y2="110.57"/>
						<line fill="none" x1="364.12" y1="84.18" x2="364.12" y2="84.18"/>
						<line fill="none" x1="189.88" y1="123.83" x2="189.88" y2="123.83"/>
						<line fill="none" x1="119.23" y1="66.57" x2="119.23" y2="66.57"/>
						<line fill="none" x1="376.85" y1="78.9" x2="376.85" y2="78.9"/>
						<line fill="none" x1="208.37" y1="121.33" x2="208.37" y2="121.33"/>
						<line fill="none" x1="304.34" y1="102.13" x2="304.34" y2="102.13"/>
						<line fill="none" x1="350.07" y1="88.53" x2="350.07" y2="88.53"/>
						<line fill="none" x1="403.07" y1="65.78" x2="403.07" y2="65.78"/>
						<line fill="none" x1="102.84" y1="74.87" x2="102.84" y2="74.87"/>
						<path fill="#FCE193" d="M111.36,71.51l3.37-1.45c-4.23,1.81-8.52,3.76-12.79,5.87l1.96-0.97l4.14-1.94L111.36,71.51"/>
						<polyline fill="#FCE193" points="113.78,70.53 111.4,71.59 109.1,72.6 113.78,70.53 						"/>
						<path fill="#FCE193" d="M105.22,74.39l-1.3,0.62l-4.09,2l-2.29,1.17C99.95,76.92,102.54,75.65,105.22,74.39"/>
						<line fill="none" x1="392.19" y1="70.59" x2="392.19" y2="70.59"/>
						<polyline fill="#FCE193" points="96.65,78.65 96.6,78.67 96.58,78.68 96.65,78.65 						"/>
						<line fill="none" x1="79.27" y1="90.24" x2="79.27" y2="90.24"/>
						<line fill="none" x1="302.77" y1="99.75" x2="302.77" y2="99.75"/>
						<line fill="none" x1="252.76" y1="110.78" x2="252.76" y2="110.78"/>
						<line fill="none" x1="257.24" y1="109.87" x2="257.24" y2="109.87"/>
						<line fill="none" x1="132.13" y1="122.61" x2="132.13" y2="122.61"/>
						<polyline fill="#FBD35E" points="143.06,59.64 141.33,60.27 143.06,59.64 						"/>
						<path fill="#FBCF50" d="M136.05,61.78c21.58-7.65,42.81-13.47,65.04-18.92c-4.42,1.22-8.82,2.48-13.21,3.78l1.75-0.52
							c-2.96,0.76-6.69,1.76-10.77,2.9l-6.32,1.8c-6.49,1.88-13.27,3.96-18.94,5.74l-7.02,2.1l-0.01-0.03l-0.92,0.14l5.17-1.9
							c-2.6,0.9-5.19,1.82-7.77,2.76l-1.72,0.63c-7.16,2.62-14.26,5.4-21.27,8.38C125.34,66.25,130.67,63.97,136.05,61.78"/>
						<path fill="#FACA3C" d="M178.87,49.02c4.07-1.14,7.81-2.14,10.77-2.9C186.68,46.88,182.95,47.88,178.87,49.02l-6.32,1.8
							L178.87,49.02"/>
						<polyline fill="#FACA3C" points="189.63,46.12 187.88,46.64 189.63,46.12 						"/>
						<polyline fill="#FAC732" points="145.66,58.78 146.58,58.64 146.59,58.66 145.66,58.78 						"/>
						<path fill="#FACA3C" d="M136.05,61.78c-5.38,2.19-10.71,4.47-15.98,6.86C125.34,66.25,130.67,63.97,136.05,61.78"/>
						<path fill="#FBCF50" d="M139.15,58.85c12.95-4.6,29.65-9.55,43.72-13.2c-5.69,1.83-13.57,4.3-21.94,7.12
							c-8.37,2.82-17.21,5.99-24.88,9.01c-4.6,1.64-9.17,3.35-13.71,5.15c2.53-1.06,5.08-2.09,7.63-3.1
							c1.1-0.48,5.51-2.17,5.93-2.39c0.27-0.13-1.13,0.3-6.07,2.12c-2.47,0.92-5.82,2.19-10.27,3.98
							c-4.44,1.81-9.98,4.13-16.72,7.33c-4.67,2.24-9.28,4.62-13.76,7.2c7.49-4.38,14.9-8.02,21.87-11.23
							c6.98-3.21,13.53-5.97,19.48-8.41c-3.75,1.33-7.48,2.71-11.2,4.14c2.26-0.95,4.53-1.88,6.8-2.78
							c2.69-1.09,5.88-2.33,9.45-3.62L139.15,58.85"/>
						<path fill="#FACA3C" d="M130.42,62.43c-5.95,2.44-12.5,5.2-19.48,8.41c-6.97,3.21-14.38,6.85-21.87,11.23
							c7.49-4.38,14.9-8.02,21.87-11.23C117.92,67.63,124.48,64.87,130.42,62.43"/>
						<path fill="#FACA3C" d="M135.9,61.44c-0.42,0.21-4.83,1.91-5.93,2.39c-2.55,1.01-5.1,2.04-7.63,3.1
							c2.53-1.06,5.08-2.09,7.63-3.1C131.07,63.35,135.48,61.65,135.9,61.44"/>
						<line fill="none" x1="95.42" y1="76.71" x2="95.42" y2="76.71"/>
						<path fill="#FBD76B" d="M95.42,76.71c6.77-3.48,13.7-6.62,20.72-9.54c21.07-8.73,42.81-15.67,64.77-21.7
							c6.67-1.77,13.35-3.48,20.03-5.13l6.69-1.63c7.3-1.08,13.72-1.84,18.33-2.13c-8.33,1.97-16.62,4.07-24.88,6.29
							c-22.23,5.45-43.47,11.27-65.04,18.92c7.67-3.02,16.52-6.19,24.88-9.01c8.37-2.82,16.25-5.3,21.94-7.12
							c-14.07,3.65-30.77,8.59-43.72,13.2h-0.01l-3.67,1.31c-3.56,1.3-6.76,2.53-9.45,3.62c-2.27,0.91-4.54,1.84-6.8,2.78
							c-7.37,2.87-15.21,6.23-23.17,10.26c-3.98,2.02-8,4.21-11.95,6.64c-3.95,2.43-7.86,5.09-11.51,8.17
							c-1.21,1.03-2.4,2.11-3.52,3.25c-1.8,1.84-3.48,3.84-4.76,6.13c-1.27,2.27-2.15,4.92-1.82,7.62c0.16,1.37,0.62,2.71,1.32,3.9
							c0.7,1.19,1.6,2.23,2.6,3.15c2.01,1.83,4.37,3.18,6.78,4.3c0.81,0.46,1.64,0.89,2.48,1.3c-2.6-1-5.16-2.19-7.49-3.81
							c-2.3-1.61-4.46-3.75-5.48-6.56c-0.51-1.41-0.69-2.89-0.56-4.37c0.13-1.47,0.56-2.88,1.14-4.2c1.18-2.63,2.93-4.89,4.83-6.94
							c3.85-4.08,8.34-7.4,12.95-10.44C85.69,81.95,90.51,79.24,95.42,76.71"/>
						<line fill="none" x1="180.91" y1="45.46" x2="180.91" y2="45.46"/>
						<line fill="none" x1="207.63" y1="38.7" x2="207.63" y2="38.7"/>
						<line fill="none" x1="207.63" y1="38.7" x2="207.63" y2="38.7"/>
						<path fill="#FACC44" d="M95.42,76.71c-4.9,2.53-9.72,5.24-14.36,8.26c-4.61,3.04-9.11,6.36-12.95,10.44
							c-1.9,2.05-3.65,4.31-4.83,6.94c-0.58,1.31-1.01,2.73-1.14,4.2c-0.13,1.48,0.05,2.96,0.56,4.37c1.02,2.82,3.18,4.95,5.48,6.56
							c2.33,1.62,4.89,2.81,7.49,3.81c-2.6-1-5.16-2.19-7.49-3.81c-2.3-1.61-4.46-3.75-5.48-6.56c-0.51-1.41-0.69-2.89-0.56-4.37
							c0.13-1.47,0.56-2.88,1.14-4.2c1.18-2.63,2.93-4.89,4.83-6.94c3.85-4.08,8.34-7.4,12.95-10.44
							C85.69,81.95,90.51,79.24,95.42,76.71"/>
						<path fill="#FACC44" d="M116.14,67.16c21.07-8.73,42.81-15.67,64.77-21.7C158.95,51.5,137.21,58.44,116.14,67.16"/>
						<path fill="#FACC44" d="M62.48,108.65c-0.33-2.69,0.55-5.35,1.82-7.62c1.28-2.29,2.96-4.29,4.76-6.13
							c1.12-1.15,2.31-2.23,3.52-3.25c3.65-3.08,7.56-5.74,11.51-8.17c3.96-2.43,7.97-4.62,11.95-6.64c-3.98,2.02-8,4.21-11.95,6.64
							c-3.95,2.43-7.86,5.09-11.51,8.17c-1.21,1.03-2.4,2.1-3.52,3.26c-1.8,1.83-3.48,3.84-4.76,6.13
							C63.04,103.29,62.15,105.95,62.48,108.65"/>
						<line fill="none" x1="180.91" y1="45.46" x2="180.91" y2="45.46"/>
						<line fill="none" x1="180.91" y1="45.46" x2="180.91" y2="45.46"/>
						<line fill="none" x1="72.59" y1="91.65" x2="72.59" y2="91.65"/>
						<polyline fill="#FAC734" points="139.14,58.85 139.15,58.85 135.48,60.16 139.14,58.85 						"/>
						<path fill="#FAC734" d="M182.87,45.65c-5.69,1.83-13.57,4.3-21.94,7.12c-8.37,2.82-17.21,5.99-24.88,9.01
							c7.67-3.02,16.52-6.19,24.88-9.01C169.29,49.95,177.18,47.47,182.87,45.65"/>
						<line fill="none" x1="207.63" y1="38.7" x2="207.63" y2="38.7"/>
						<line fill="none" x1="180.91" y1="45.46" x2="180.91" y2="45.46"/>
						<line fill="none" x1="180.91" y1="45.46" x2="180.91" y2="45.46"/>
						<path fill="#FBD35E" d="M180.91,45.46c8.87-2.42,17.78-4.67,26.72-6.77l-6.69,1.63C194.25,41.98,187.58,43.69,180.91,45.46"/>
						<line fill="none" x1="207.63" y1="38.7" x2="207.63" y2="38.7"/>
						<path fill="#FAC732" d="M180.91,45.46c8.87-2.42,17.78-4.67,26.72-6.77C198.69,40.8,189.78,43.05,180.91,45.46"/>
					</g>
				</g>
			</g>
		</g>
		<path fill="#FFFFFF" d="M106.2,121.35c0.9,7.14-4.16,13.65-11.3,14.55c-7.14,0.9-13.65-4.16-14.55-11.3
			c-0.9-7.14,4.16-13.66,11.3-14.55C98.78,109.15,105.3,114.21,106.2,121.35z"/>
		<g>
			<path fill="#FFFFFF" d="M318.68,37.68c-3.72-0.15-6.64-3.28-6.49-7.02c0.14-3.73,3.28-6.65,7.02-6.5
				c3.73,0.15,6.64,3.29,6.5,7.02C325.56,34.91,322.42,37.83,318.68,37.68z"/>
			<path fill="#FFFFFF" d="M313.26,18.56c6.77-2.81,14.48,0.14,17.69,6.6l0,0c0.13,0.27,0.27,0.56,0.39,0.87l0,0l-1.87,0.74
				c-0.09-0.24-0.21-0.48-0.32-0.72l0,0c-2.74-5.51-9.34-8.04-15.11-5.64l0,0h-0.01L313.26,18.56L313.26,18.56z"/>
			<path fill="#FFFFFF" d="M306.7,2.77c15.11-6.28,32.36,0.31,39.54,14.75l0,0c0.3,0.62,0.61,1.27,0.88,1.94l0,0l-1.86,0.76
				c-0.25-0.62-0.52-1.22-0.83-1.81l0,0c-6.7-13.5-22.83-19.66-36.96-13.79l0,0v0.01L306.7,2.77L306.7,2.77z"/>
			<path fill="#FFFFFF" d="M310.76,12.53L310.76,12.53L310.76,12.53L310.76,12.53L310.76,12.53L310.76,12.53z M309.99,10.67
				c10.93-4.55,23.41,0.23,28.61,10.67l0,0c0.22,0.45,0.44,0.91,0.64,1.4l0,0l-1.87,0.75c-0.18-0.42-0.37-0.85-0.57-1.26l0,0
				c-4.73-9.5-16.09-13.84-26.04-9.72l0,0L309.99,10.67L309.99,10.67z"/>
		</g>
		<polygon fill="#FFFFFF" points="141.01,-1.75 146.49,8.99 158.38,7.1 149.87,15.61 155.34,26.35 144.6,20.88 136.09,29.4 
			137.97,17.51 127.23,12.04 139.13,10.15 		"/>
		<polygon fill="#FFFFFF" points="273.95,157.27 264.44,150.65 265.43,139.09 275.91,134.17 285.42,140.8 284.44,152.35 		"/>
		<path fill="#FFFFFF" d="M92.91,91.76V77.31c0.01-3.06-1.24-5.77-3.57-7.85c-2.31-2.09-5.21-3.15-8.44-3.15v7.56
			c1.18,0.01,2.07,0.34,2.91,1.05c0.81,0.72,1.13,1.41,1.15,2.38v14.46H92.91z M339.13,91.76c-0.02,0.99-0.33,1.67-1.14,2.38
			l9.5,0.75V81.14l-8.03-0.41L339.13,91.76z"/>
		<path fill="#FFFFFF" d="M134.79,69.46c-2.31-2.09-5.21-3.16-8.44-3.15H113.4c-1.84,0-3.57,0.34-5.17,1.03
			c-0.74-0.7-1.79-1.06-2.86-1.03c-1.1,0-2.12,0.25-2.9,0.96c-0.78,0.71-1.1,1.75-1.08,2.8v28.92c-0.01,1.05,0.31,2.1,1.08,2.8
			c0.78,0.71,1.8,0.96,2.9,0.96c1.09,0,2.12-0.26,2.9-0.96c0.78-0.71,1.09-1.75,1.08-2.8V77.31c0.02-0.98,0.33-1.66,1.14-2.38
			c0.84-0.71,1.74-1.04,2.92-1.05l12.95,0.01c1.17,0.01,2.07,0.34,2.91,1.05c0.81,0.72,1.12,1.4,1.14,2.38v21.69
			c-0.01,1.05,0.31,2.09,1.08,2.8c0.77,0.71,1.8,0.96,2.9,0.96c1.09,0,2.12-0.26,2.9-0.96c0.78-0.7,1.09-1.75,1.08-2.8v-21.7
			C138.38,74.24,137.12,71.53,134.79,69.46z"/>
		<path fill="#FFFFFF" d="M386.01,55.02c-1.38,0-2.63,0.32-3.54,1.18c-0.92,0.86-1.3,2.1-1.29,3.43c-0.01,1.33,0.37,2.58,1.29,3.42
			c0.9,0.86,2.16,1.18,3.54,1.18s2.63-0.32,3.55-1.18c0.91-0.85,1.28-2.09,1.27-3.42c0.01-1.33-0.37-2.57-1.27-3.43
			C388.64,55.35,387.39,55.02,386.01,55.02z"/>
		<path fill="#FFFFFF" d="M386.01,66.31c-1.1,0-2.14,0.26-2.91,0.98c-0.77,0.72-1.09,1.77-1.07,2.83v28.84
			c-0.02,1.06,0.3,2.1,1.08,2.83c0.77,0.71,1.8,0.97,2.9,0.97c1.09,0,2.13-0.26,2.9-0.98c0.77-0.73,1.08-1.76,1.07-2.82V70.12
			c0.01-1.06-0.3-2.1-1.07-2.83C388.15,66.57,387.11,66.31,386.01,66.31z"/>
		<path fill="#FFFFFF" d="M371.47,66.31h-5.82v-6.23c0.01-1.07-0.3-2.11-1.08-2.83c-0.78-0.71-1.81-0.97-2.9-0.97
			s-2.13,0.25-2.91,0.97c-0.77,0.72-1.09,1.77-1.08,2.84v6.23h-0.48c-1.1,0-2.13,0.26-2.9,0.98c-0.77,0.73-1.08,1.77-1.08,2.83
			c0,1.06,0.31,2.1,1.08,2.83c0.77,0.71,1.81,0.97,2.9,0.97h0.48v25.03c-0.01,1.06,0.3,2.1,1.08,2.83c0.78,0.71,1.82,0.97,2.91,0.97
			s2.13-0.26,2.9-0.97c0.77-0.72,1.09-1.77,1.08-2.83V73.92l5.82,0.01c1.11,0,2.15-0.26,2.91-0.97c0.77-0.72,1.09-1.77,1.07-2.83
			c0.01-1.06-0.3-2.11-1.07-2.83C373.62,66.57,372.58,66.31,371.47,66.31z"/>
	</g>
</g>
<g>
	<path fill="#FFFFFF" d="M346.77,127.76c0,1.35-0.43,2.54-1.27,3.56c-0.85,1.02-2,1.87-3.45,2.55c-1.45,0.68-3.14,1.19-5.09,1.54
		c-1.94,0.34-4.01,0.52-6.22,0.52c-1.49,0-2.88-0.07-4.16-0.22c-1.28-0.15-2.41-0.32-3.39-0.53c-0.98-0.21-1.8-0.42-2.46-0.65
		c-0.66-0.23-1.13-0.42-1.42-0.6c-0.29-0.17-0.5-0.42-0.62-0.75c-0.12-0.32-0.19-0.79-0.19-1.4c0-0.41,0.02-0.75,0.07-1.03
		c0.04-0.28,0.12-0.5,0.22-0.68c0.1-0.17,0.23-0.29,0.4-0.37c0.17-0.07,0.36-0.11,0.59-0.11c0.31,0,0.75,0.11,1.32,0.33
		c0.57,0.22,1.3,0.46,2.19,0.73c0.89,0.27,1.96,0.51,3.2,0.73c1.23,0.22,2.67,0.33,4.3,0.33c1.07,0,2.03-0.08,2.88-0.23
		c0.85-0.15,1.56-0.37,2.16-0.65c0.59-0.28,1.04-0.62,1.35-1.03c0.31-0.41,0.47-0.87,0.47-1.37c0-0.58-0.27-1.08-0.8-1.5
		c-0.54-0.42-1.23-0.79-2.09-1.11c-0.86-0.32-1.84-0.63-2.93-0.91c-1.09-0.29-2.22-0.59-3.38-0.9c-1.16-0.32-2.29-0.68-3.38-1.08
		c-1.09-0.4-2.07-0.89-2.93-1.45c-0.86-0.56-1.56-1.23-2.09-2c-0.54-0.77-0.8-1.69-0.8-2.76c0-1.23,0.38-2.31,1.15-3.25
		c0.77-0.93,1.81-1.71,3.11-2.32c1.3-0.62,2.84-1.08,4.62-1.38c1.77-0.31,3.65-0.46,5.64-0.46c1.03,0,2.05,0.05,3.08,0.14
		c1.03,0.09,1.99,0.22,2.88,0.38c0.89,0.16,1.68,0.34,2.38,0.54c0.69,0.2,1.15,0.37,1.37,0.5c0.22,0.13,0.37,0.25,0.45,0.34
		s0.14,0.22,0.2,0.37c0.05,0.15,0.09,0.34,0.12,0.58c0.02,0.23,0.03,0.52,0.03,0.86c0,0.38-0.02,0.71-0.05,0.97
		c-0.03,0.26-0.09,0.48-0.17,0.66c-0.08,0.17-0.19,0.3-0.33,0.38c-0.15,0.08-0.34,0.12-0.59,0.12s-0.63-0.09-1.17-0.28
		c-0.54-0.19-1.19-0.39-1.98-0.61c-0.78-0.22-1.68-0.42-2.71-0.6c-1.02-0.18-2.15-0.27-3.38-0.27c-0.96,0-1.79,0.07-2.51,0.21
		c-0.71,0.14-1.31,0.33-1.79,0.58c-0.48,0.25-0.84,0.54-1.07,0.88c-0.23,0.35-0.35,0.71-0.35,1.09c0,0.57,0.26,1.06,0.79,1.48
		c0.52,0.42,1.22,0.79,2.11,1.11c0.88,0.33,1.88,0.63,2.99,0.91c1.12,0.29,2.25,0.59,3.41,0.9c1.16,0.32,2.3,0.68,3.41,1.08
		c1.12,0.4,2.11,0.89,2.98,1.45c0.87,0.56,1.57,1.23,2.11,1.99C346.5,125.83,346.77,126.73,346.77,127.76z"/>
	<path fill="#FFFFFF" d="M389.46,122.24c0,2.36-0.52,4.38-1.56,6.05s-2.53,3.04-4.47,4.1c-1.94,1.06-4.3,1.84-7.07,2.33
		c-2.78,0.5-6.08,0.75-9.92,0.75H356.1c-0.73,0-1.35-0.13-1.85-0.39c-0.5-0.26-0.75-0.68-0.75-1.26V111.4c0-0.58,0.25-1,0.75-1.26
		s1.12-0.39,1.85-0.39h11.11c3.86,0,7.13,0.27,9.82,0.81c2.69,0.54,4.95,1.33,6.79,2.38c1.84,1.05,3.24,2.35,4.2,3.91
		C388.98,118.4,389.46,120.2,389.46,122.24z M380.36,122.42c0-1.22-0.24-2.35-0.72-3.4c-0.48-1.05-1.25-1.95-2.31-2.72
		c-1.06-0.77-2.42-1.37-4.08-1.8c-1.66-0.43-3.84-0.65-6.54-0.65h-4.45v17.49h4.58c2.41,0,4.44-0.19,6.09-0.56
		c1.65-0.37,3.03-0.93,4.13-1.68c1.1-0.75,1.93-1.68,2.47-2.79C380.09,125.2,380.36,123.9,380.36,122.42z"/>
	<path fill="#FFFFFF" d="M405.52,134.76c0,0.13-0.07,0.25-0.22,0.36c-0.14,0.1-0.38,0.19-0.72,0.26s-0.78,0.12-1.34,0.16
		c-0.56,0.04-1.27,0.06-2.14,0.06c-0.85,0-1.56-0.02-2.12-0.06c-0.56-0.04-1.02-0.09-1.35-0.16c-0.33-0.06-0.57-0.15-0.72-0.26
		c-0.15-0.11-0.22-0.23-0.22-0.36v-24.28c0-0.13,0.07-0.25,0.22-0.36c0.14-0.1,0.39-0.19,0.73-0.26c0.35-0.07,0.8-0.12,1.36-0.16
		s1.26-0.06,2.1-0.06c0.87,0,1.58,0.02,2.14,0.06c0.56,0.04,1,0.09,1.34,0.16c0.34,0.07,0.57,0.15,0.72,0.26
		c0.15,0.11,0.22,0.23,0.22,0.36V134.76L405.52,134.76z"/>
</g>
</svg>
