<svg xmlns="http://www.w3.org/2000/svg" width="872" height="576.6" viewBox="0 0 872 576.6"><style type="text/css"><![CDATA[
	.st0{fill:#4A4949;}	.st1{fill:#E6E6E6;}	.st2{fill:#E8C7A7;}	.st3{opacity:0.18;}
	.st4{fill:#EBD1B9;}	.st5{fill:#535252;}	.st6{opacity:0.75;fill:#3D3D3C;enable-background:new;}
	.st7{opacity:0.13;fill:none;stroke:#010202;stroke-width:0.75;enable-background:new;}
	.st8{fill:none;stroke:#CEB39A;stroke-width:2;}	.st9{fill:#FFFFFF;}
	.st10{opacity:0.1;fill:#3D3D3C;enable-background:new;}
	.st11{fill:#CFCFCF;}	.st12{fill:none;stroke:#444444;stroke-width:2;}
	.st13{fill:#545454;enable-background:new;}	.st14{fill:#3D3D3C;}
	.st15{opacity:0.5;fill:#3D3D3C;enable-background:new;}
	.st16{opacity:0.25;fill:#3D3D3C;enable-background:new;}
]]></style><path class="st2" d="M.1 0h872v72H.1zM.2 72h872v72H.2z"/><path class="st8" d="M817.016 85.594l2.9.014-.014 3-2.9-.014zM804.413 110.695l2.9.012-.012 3-2.9-.012zM797.416 95.394l2.9.014-.014 3-2.9-.014zM859.317 104.594l2.9.014-.015 3-2.9-.014zM838.92 110.894l2.9.015-.016 3-2.9-.016zM721.715 122.994l3 .014-.014 3-3-.014zM759.315 109.294l2.9.014-.014 3-2.9-.014zM741.518 101.294l3 .015-.016 3-3-.016zM771.316 75.794l2.9.014-.015 3-2.9-.014zM688.115 87.094l3 .014-.014 3-3-.014zM620.014 113.794l2.9.014-.014 3-2.9-.014zM607.415 79.094l2.9.014-.015 3-2.9-.014zM573.313 120.094l2.9.014-.014 3-2.9-.014zM545.815 88.494l2.9.014-.016 3-2.9-.014zM534.312 123.795l2.9.013-.013 3-2.9-.013zM503.112 131.195l2.9.013-.014 3-2.9-.013zM560.015 102.694l3 .015-.015 3-3-.016zM652.016 79.094l2.9.014-.015 3-2.9-.014zM702.317 132.694l3 .016-.015 3-3-.016zM504.5 95.4l43.7 20.8 50.5-4L620 87l49.1 6.5 19.6-21.8M620 142.7l32-31.9 89 3 19.3 13.5 38.5-55.6M871.6 135.7l-39-46.4-15.1 40.4-39.2-2.4-11 15.4"/><path class="st8" d="M656.818 122.994l2.9.016-.017 3-2.9-.016zM707.913 80.494l2.9.013-.013 3-2.9-.013z"/><path class="st0" d="M.2 360.2h872v72H.2z"/><path class="st12" d="M817.016 373.797l2.9.014-.014 3-2.9-.013zM804.413 398.997l2.9.012-.012 3-2.9-.013zM797.416 383.597l2.9.014-.014 3-2.9-.013zM859.317 392.798l2.9.013-.015 3-2.9-.012zM838.92 399.098l2.9.016-.016 3-2.9-.016zM721.714 411.197l3 .014-.013 3-3-.013zM759.316 397.498l2.9.013-.015 3-2.9-.012zM741.518 389.497l3 .016-.016 3-3-.016zM771.316 363.997l2.9.014-.015 3-2.9-.013zM688.114 375.297l3 .014-.014 3-3-.013zM620.014 401.998l2.9.013-.014 3L620 405zM607.417 367.297l2.9.016-.016 3-2.9-.016zM573.313 408.298l2.9.013-.014 3-2.9-.012zM545.816 376.698l2.9.015-.016 3-2.9-.015zM534.313 411.998l2.9.013-.014 3-2.9-.012zM560.015 390.898l3 .015-.015 3-3-.015zM652.018 367.298l2.9.015-.017 3-2.9-.015zM702.317 420.898l3 .015-.015 3-3-.015zM620 430.9l32-31.9 89 3 19.3 13.5 38.5-55.6M871.6 423.9l-39-46.4-15.1 40.4-39.2-2.4-11 15.4"/><path class="st7" d="M729.3 361.3"/><path class="st12" d="M656.818 411.198l2.9.016-.017 3-2.9-.016zM707.912 368.697l2.9.012-.012 3-2.9-.013z"/><path class="st0" d="M.1 431.9h872v72H.1z"/><path class="st5" d="M503 463.5h7.5v7.7H503zM495.5 471.2h7.5v7.7h-7.5zM503 479h7.5v7.7H503zM509.6 471.2h7.5v7.7h-7.5zM518.1 479h7.5v7.7h-7.5zM510.6 455.8h7.5v7.7h-7.5zM518.1 463.5h7.5v7.7h-7.5zM570.7 471.2h7.5v7.7h-7.5zM495.5 486.7h7.5v7.7h-7.5zM488 495.1h7.5v7.7H488zM510.6 486.7h7.5v7.7h-7.5zM570.7 486.7h7.5v7.7h-7.5zM578.2 479h7.5v7.7h-7.5zM585.7 486.7h7.5v7.7h-7.5zM585.7 471.2h7.5v7.7h-7.5zM578.2 463.5h7.5v7.7h-7.5zM570.7 455.8h7.5v7.7h-7.5zM518.1 448.1h7.5v7.7h-7.5zM510.6 440.4h7.5v7.7h-7.5zM518.1 432.7h7.5v7.7h-7.5zM570.7 440.4h7.5v7.7h-7.5zM578.2 432.7h7.5v7.7h-7.5zM585.7 440.4h7.5v7.7h-7.5zM578.2 448.1h7.5v7.7h-7.5zM585.7 455.8h7.5v7.7h-7.5zM593.3 432.7h7.5v7.7h-7.5zM600.8 440.4h7.5v7.7h-7.5zM608.3 448.1h7.5v7.7h-7.5zM600.8 455.8h7.5v7.7h-7.5zM608.3 463.5h7.5v7.7h-7.5zM600.8 471.2h7.5v7.7h-7.5zM608.3 479h7.5v7.7h-7.5zM593.3 448.1h7.5v7.7h-7.5zM593.3 463.5h7.5v7.7h-7.5zM593.3 479h7.5v7.7h-7.5zM614.8 471.2h7.5v7.7h-7.5zM623.3 479h7.5v7.7h-7.5zM615.8 455.8h7.5v7.7h-7.5zM623.3 463.5h7.5v7.7h-7.5zM630.8 471.2h7.5v7.7h-7.5zM600.8 486.7h7.5v7.7h-7.5zM615.8 486.7h7.5v7.7h-7.5zM630.8 486.7h7.5v7.7h-7.5zM638.4 479h7.5v7.7h-7.5zM645.9 486.7h7.5v7.7h-7.5zM645.9 471.2h7.5v7.7h-7.5zM638.4 463.5h7.5v7.7h-7.5zM630.8 455.8h7.5v7.7h-7.5zM623.3 448.1h7.5v7.7h-7.5zM615.8 440.4h7.5v7.7h-7.5zM608.3 432.7h7.5v7.7h-7.5zM623.3 432.7h7.5v7.7h-7.5zM630.8 440.4h7.5v7.7h-7.5zM638.4 432.7h7.5v7.7h-7.5zM645.9 440.4h7.5v7.7h-7.5zM638.4 448.1h7.5v7.7h-7.5zM645.9 455.8h7.5v7.7h-7.5zM653.4 432.7h7.5v7.7h-7.5zM660.9 440.4h7.5v7.7h-7.5zM668.5 448.1h7.5v7.7h-7.5zM660.9 455.8h7.5v7.7h-7.5zM668.5 463.5h7.5v7.7h-7.5zM660.9 471.2h7.5v7.7h-7.5zM668.5 479h7.5v7.7h-7.5zM653.4 448.1h7.5v7.7h-7.5zM653.4 463.5h7.5v7.7h-7.5zM653.4 479h7.5v7.7h-7.5zM675 471.2h7.5v7.7H675zM683.5 479h7.5v7.7h-7.5zM676 455.8h7.5v7.7H676zM683.5 463.5h7.5v7.7h-7.5zM691 471.2h7.5v7.7H691zM660.9 486.7h7.5v7.7h-7.5zM676 486.7h7.5v7.7H676zM691 486.7h7.5v7.7H691zM698.5 479h7.5v7.7h-7.5zM706 486.7h7.5v7.7H706zM706 471.2h7.5v7.7H706zM698.5 463.5h7.5v7.7h-7.5zM691 455.8h7.5v7.7H691zM683.5 448.1h7.5v7.7h-7.5zM676 440.4h7.5v7.7H676zM668.5 432.7h7.5v7.7h-7.5zM683.5 432.7h7.5v7.7h-7.5zM691 440.4h7.5v7.7H691zM698.5 432.7h7.5v7.7h-7.5zM706 440.4h7.5v7.7H706zM698.5 448.1h7.5v7.7h-7.5zM706 455.8h7.5v7.7H706zM713.6 432.7h7.5v7.7h-7.5zM721.1 440.4h7.5v7.7h-7.5zM728.6 448.1h7.5v7.7h-7.5zM721.1 455.8h7.5v7.7h-7.5zM728.6 463.5h7.5v7.7h-7.5zM721.1 471.2h7.5v7.7h-7.5zM728.6 479h7.5v7.7h-7.5zM713.6 448.1h7.5v7.7h-7.5zM713.6 463.5h7.5v7.7h-7.5zM713.6 479h7.5v7.7h-7.5zM735.1 471.2h7.5v7.7h-7.5zM743.7 479h7.5v7.7h-7.5zM736.1 455.8h7.5v7.7h-7.5zM743.7 463.5h7.5v7.7h-7.5zM751.2 471.2h7.5v7.7h-7.5zM721.1 486.7h7.5v7.7h-7.5zM736.1 486.7h7.5v7.7h-7.5zM751.2 486.7h7.5v7.7h-7.5zM758.7 479h7.5v7.7h-7.5zM766.2 486.7h7.5v7.7h-7.5zM766.2 471.2h7.5v7.7h-7.5zM758.7 463.5h7.5v7.7h-7.5zM751.2 455.8h7.5v7.7h-7.5zM743.7 448.1h7.5v7.7h-7.5zM736.1 440.4h7.5v7.7h-7.5zM728.6 432.7h7.5v7.7h-7.5zM743.7 432.7h7.5v7.7h-7.5zM751.2 440.4h7.5v7.7h-7.5zM758.7 432.7h7.5v7.7h-7.5zM766.2 440.4h7.5v7.7h-7.5zM758.7 448.1h7.5v7.7h-7.5zM766.2 455.8h7.5v7.7h-7.5zM773.7 432.7h7.5v7.7h-7.5zM781.3 440.4h7.5v7.7h-7.5zM788.8 448.1h7.5v7.7h-7.5zM781.3 455.8h7.5v7.7h-7.5zM788.8 463.5h7.5v7.7h-7.5zM781.3 471.2h7.5v7.7h-7.5zM788.8 479h7.5v7.7h-7.5zM773.7 448.1h7.5v7.7h-7.5zM773.7 463.5h7.5v7.7h-7.5zM773.7 479h7.5v7.7h-7.5zM795.3 471.2h7.5v7.7h-7.5zM803.8 479h7.5v7.7h-7.5zM796.3 455.8h7.5v7.7h-7.5zM803.8 463.5h7.5v7.7h-7.5zM811.3 471.2h7.5v7.7h-7.5zM781.3 486.7h7.5v7.7h-7.5zM796.3 486.7h7.5v7.7h-7.5zM811.3 486.7h7.5v7.7h-7.5zM818.9 479h7.5v7.7h-7.5zM826.4 486.7h7.5v7.7h-7.5zM826.4 471.2h7.5v7.7h-7.5zM818.9 463.5h7.5v7.7h-7.5zM811.3 455.8h7.5v7.7h-7.5zM803.8 448.1h7.5v7.7h-7.5zM796.3 440.4h7.5v7.7h-7.5zM788.8 432.7h7.5v7.7h-7.5zM803.8 432.7h7.5v7.7h-7.5zM811.3 440.4h7.5v7.7h-7.5zM818.9 432.7h7.5v7.7h-7.5zM826.4 440.4h7.5v7.7h-7.5zM818.9 448.1h7.5v7.7h-7.5zM826.4 455.8h7.5v7.7h-7.5zM833.9 448.1h7.5v7.7h-7.5zM833.9 463.5h7.5v7.7h-7.5zM833.9 479h7.5v7.7h-7.5zM840.4 471.2h7.5v7.7h-7.5zM848.9 479h7.5v7.7h-7.5zM841.4 455.8h7.5v7.7h-7.5zM848.9 463.5h7.5v7.7h-7.5zM856.5 471.2h7.5v7.7h-7.5zM841.4 486.7h7.5v7.7h-7.5zM856.5 486.7h7.5v7.7h-7.5zM864 479h7.5v7.7H864zM864 463.5h7.5v7.7H864zM856.5 455.8h7.5v7.7h-7.5zM848.9 448.1h7.5v7.7h-7.5zM841.4 440.4h7.5v7.7h-7.5zM833.9 432.7h7.5v7.7h-7.5zM848.9 432.7h7.5v7.7h-7.5zM856.5 440.4h7.5v7.7h-7.5zM864 432.7h7.5v7.7H864zM864 448.1h7.5v7.7H864zM503 495.1h7.5v7.7H503zM518.1 495.1h7.5v7.7h-7.5zM578.2 495.1h7.5v7.7h-7.5zM608.3 495.1h7.5v7.7h-7.5zM593.3 495.1h7.5v7.7h-7.5zM623.3 495.1h7.5v7.7h-7.5zM525.5 486.7h7.5v7.7h-7.5zM525.5 471.2h7.5v7.7h-7.5zM525.5 440.4h7.5v7.7h-7.5zM525.5 455.8h7.5v7.7h-7.5zM533.1 432.7h7.5v7.7h-7.5zM540.6 440.4h7.5v7.7h-7.5zM548.1 448.1h7.5v7.7h-7.5zM540.6 455.8h7.5v7.7h-7.5zM548.1 463.5h7.5v7.7h-7.5zM540.6 471.2h7.5v7.7h-7.5zM548.1 479h7.5v7.7h-7.5zM533.1 448.1h7.5v7.7h-7.5zM533.1 463.5h7.5v7.7h-7.5zM533.1 479h7.5v7.7h-7.5zM554.6 471.2h7.5v7.7h-7.5zM563.1 479h7.5v7.7h-7.5zM555.6 455.8h7.5v7.7h-7.5zM563.1 463.5h7.5v7.7h-7.5zM540.6 486.7h7.5v7.7h-7.5zM555.6 486.7h7.5v7.7h-7.5zM563.1 448.1h7.5v7.7h-7.5zM555.6 440.4h7.5v7.7h-7.5zM548.1 432.7h7.5v7.7h-7.5zM563.1 432.7h7.5v7.7h-7.5zM548.1 495.1h7.5v7.7h-7.5zM533.1 495.1h7.5v7.7h-7.5zM563.1 495.1h7.5v7.7h-7.5zM638.4 495.1h7.5v7.7h-7.5zM668.5 495.1h7.5v7.7h-7.5zM653.4 495.1h7.5v7.7h-7.5zM683.5 495.1h7.5v7.7h-7.5zM698.5 495.1h7.5v7.7h-7.5zM728.6 495.1h7.5v7.7h-7.5zM713.6 495.1h7.5v7.7h-7.5zM743.7 495.1h7.5v7.7h-7.5zM758.7 495.1h7.5v7.7h-7.5zM788.8 495.1h7.5v7.7h-7.5zM773.7 495.1h7.5v7.7h-7.5zM803.8 495.1h7.5v7.7h-7.5zM818.9 495.1h7.5v7.7h-7.5zM833.9 495.1h7.5v7.7h-7.5zM848.9 495.1h7.5v7.7h-7.5zM864 495.1h7.5v7.7H864z"/><path class="st0" d="M.4 504.1h872v72H.4z"/><path class="st14" d="M853.3 552.3c-.9 7.8-8 13.4-15.9 12.5-7.9-.9-13.5-8-12.5-15.9.9-7.8 8-13.5 15.9-12.5 7.8.9 13.4 8 12.5 15.9zM823.8 529.5l-4-6.8c-15.1 8.7-20.2 28-11.5 43.1l6.8-4c-6.5-11.3-2.6-25.8 8.7-32.3z"/><path class="st6" d="M806.2 513.2l-4-6.8c-22.6 13.1-30.4 42-17.3 64.7l6.8-4c-10.8-18.8-4.4-43 14.5-53.9z"/><path class="st10" d="M690.1 576.6c-12.2-22.6-13.3-48.7-4.7-71.6H677c-7.8 23-6.8 48.7 4.2 71.6h8.9zM717.9 575.1c-10.3-22.9-9.8-48.3-.3-70.2H709c-8.7 22.1-9 47.2.3 70.2h8.6z"/><path class="st16" d="M743.9 575.1c-12-22.8-10.3-49.5 2.5-70.2h-9.1c-11.4 21.3-12.8 47.2-2.2 70.2h8.8z"/><path class="st15" d="M763.3 575.4l5.1-3c-13-22.5-8.3-50.3 9.6-67.5h-11.1c-15.7 19.5-18.9 47.3-6.2 70.4l2.6.1z"/><path class="st4" d="M524.6 0l-39.1 71.7H-.1V0zM524.6 72l-39.1 71.7H-.1V72z"/><path class="st2" d="M.4 215.9h872v72H.4z"/><g class="st3"><path class="st14" d="M853.3 264.1c-.9 7.8-8 13.4-15.9 12.5-7.9-.9-13.5-8-12.5-15.9.9-7.8 8-13.5 15.9-12.5 7.8.9 13.4 8 12.5 15.9zM823.8 241.3l-4-6.8c-15.1 8.7-20.2 28-11.5 43.1l6.8-4c-6.5-11.3-2.6-25.8 8.7-32.3z"/><path class="st6" d="M806.2 224.9l-4-6.8c-22.6 13.1-30.4 42-17.3 64.7l6.8-4c-10.8-18.7-4.4-42.9 14.5-53.9z"/><path class="st10" d="M690.1 288.4c-12.2-22.6-13.3-48.7-4.7-71.6H677c-7.8 23-6.8 48.7 4.2 71.6h8.9zM717.9 286.9c-10.3-22.9-9.8-48.3-.3-70.2H709c-8.7 22.1-9 47.2.3 70.2h8.6z"/><path class="st16" d="M743.9 286.9c-12-22.8-10.3-49.5 2.5-70.2h-9.1c-11.4 21.3-12.8 47.2-2.2 70.2h8.8z"/><path class="st15" d="M763.3 287.2l5.1-3c-13-22.5-8.3-50.3 9.6-67.5h-11.1c-15.7 19.5-18.9 47.3-6.2 70.4l2.6.1z"/></g><path class="st9" d="M564.5 72l-7.2-53.5 84.3-13 25.5 21.1 4.7 45.4"/><path class="st1" d="M560.2 20.4l34.7-5.4.3 1.9-34.8 5.5z"/><path class="st11" d="M670.8 72h1.9L668 26.1 641.8 4.5l-85.6 13.2 7.3 54.3h2l-.6-4.1 103.8-16.2 2.1 20.3zM558.4 19.3l83.1-12.8 1.2 10.8L559.8 30l-1.4-10.7zm1.7 12.9l82.7-13.1 1.2 11 22-3.1 1.2 11.4-104.1 16.2-3-22.4zm4.5 33.7l-1.2-9.3 104.1-16.2 1 9.3-103.9 16.2z"/><path class="st9" d="M556.3 71.5l-6.2-46 84.3-13 25.5 21.1 4 37.9"/><path class="st1" d="M553 27.4l34.8-5.4.3 1.9-34.8 5.5z"/><path class="st11" d="M551.3 26.3l83.1-12.8 1.2 10.8L552.7 37l-1.4-10.7zm1.7 12.9l82.7-13.1 1.2 11 22-3.1 1.2 11.4L556 61.6l-3-22.4zm4.3 32.3l-1.1-7.9 104.1-16.2 1 9.3L567 71.4h12.8l81.8-12.7 1.3 13.3h1.9l-4-38.9-26.2-21.7L549 24.6l6.3 46.8 2 .1z"/><path class="st9" d="M548.8 72.1l-5.3-39.5 84.3-13 25.5 21.1 3.4 31.4"/><path class="st1" d="M551.9 72.1l-.1-.7 30.1-4.6.4 2-21.8 3.3zM551.5 65.7l17.2-2.7.4 2-17.3 2.6zM550.9 63l9.8-1.5.3 1.9-9.8 1.5zM550.4 60.4l11.7-1.9.3 2-11.7 1.7zM549.9 57.5l13.3-2.2.3 2-13.4 2zM549.3 54.4l18.9-3 .3 2-18.9 3zM548.7 51.4l10.6-1.6.3 2-10.6 1.6zM547 37.7l10.6-1.6.3 2-10.7 1.6zM548.3 47.2l13.6-2.1.3 2-13.7 2.1zM547.5 40.9l21.8-3.5.3 2-21.8 3.4zM598.7 32.9l24.4-3.8.3 2-24.4 3.8zM598.7 44l16.8-2.6.3 2L599 46zM600.8 55.6l16.3-2.5.3 2-16.3 2.5zM599.8 50l13.4-2.1.3 2-13.4 2.1zM600.3 52.9l28.8-4.5.3 2-28.8 4.5zM599.2 47l19-3 .3 2-19 3zM546.4 34.5l34.7-5.4.3 2-34.8 5.4zM636.9 74.6"/><path class="st11" d="M544.6 33.4l83.1-12.8 1.2 10.8L546 44.1l-1.4-10.7zm1.7 12.9L629 33.2l1.2 11 22-3.1 1.2 11.4-104.1 16.2-3-22.4zm3.5 25.8l-.2-1.4 104.1-16.2 1 9.3-53.3 8.3h13.2l40.3-6.3.7 6.3h1.9l-3.3-31.8L628 18.6l-85.6 13.2 5.4 40.3"/><path class="st9" d="M564.5 143.3l-7.2-53.5 84.3-13 25.5 21.1 4.7 45.4"/><path class="st1" d="M560.2 91.7l34.7-5.4.3 2-34.8 5.4z"/><path class="st11" d="M670.8 143.3h1.9L668 97.5l-26.2-21.7L556.2 89l7.3 54.3h2l-.6-4.1L668.7 123l2.1 20.3zM558.4 90.6l83.1-12.8 1.2 10.8-82.8 12.7-1.5-10.7zm1.7 13l82.7-13.1 1.2 11 22-3.1 1.2 11.4L563.1 126l-3-22.4zm4.5 33.6l-1.2-9.3 104.1-16.2 1 9.3-103.9 16.2z"/><path class="st9" d="M556.3 142.8l-6.2-46 84.3-13 25.5 21.1 4 37.9"/><path class="st1" d="M553 98.8l34.8-5.4.3 1.9-34.8 5.4z"/><path class="st11" d="M551.3 97.7l83.1-12.8 1.2 10.8-82.8 12.7-1.5-10.7zm1.7 12.9l82.7-13.1 1.2 11 22-3.1 1.2 11.4L556 133l-3-22.4zm4.3 32.2l-1.1-7.9 104.1-16.2 1 9.3-94.3 14.8h12.8l81.8-12.7 1.3 13.3h1.9l-4-38.9-26.2-21.7L549.1 96l6.3 46.8h1.9z"/><path class="st9" d="M548.8 143.5l-5.3-39.6 84.3-13 25.5 21.1 3.4 31.5"/><path class="st1" d="M551.9 143.4l-.1-.7 30.1-4.5.4 1.9-21.8 3.3zM551.5 137l17.2-2.6.4 1.9-17.3 2.7zM550.9 134.4l9.8-1.6.3 2-9.8 1.5zM550.4 131.7l11.7-1.8.3 1.9-11.7 1.8zM549.9 128.8l13.3-2.1.3 1.9-13.4 2.1zM549.3 125.7l18.9-2.9.3 1.9-18.9 3zM548.7 122.8l10.6-1.6.3 1.9-10.6 1.6zM547 109.1l10.6-1.6.3 1.9-10.7 1.7zM548.3 118.5l13.6-2 .3 1.9-13.7 2.1zM547.5 112.2l21.8-3.4.3 1.9-21.8 3.5zM598.7 104.2l24.4-3.7.3 1.9-24.4 3.8zM598.7 115.3l16.8-2.5.3 1.9-16.8 2.6zM600.8 127l16.3-2.5.3 1.9-16.3 2.6zM599.8 121.3l13.4-2 .3 1.9-13.4 2.1zM600.3 124.2l28.8-4.4.3 1.9-28.8 4.5zM599.2 118.4l19-3 .3 1.9-19 3.1zM546.4 105.9l34.7-5.4.3 1.9-34.8 5.4zM636.9 146"/><path class="st11" d="M544.6 104.8L627.7 92l1.2 10.8-82.9 12.6-1.4-10.6zm1.7 12.9l82.7-13.1 1.2 11 22-3.1 1.2 11.4-104.2 16.2-2.9-22.4zm3.5 25.8l-.2-1.4 104.1-16.2 1 9.3-53.3 8.3h13.2l40.3-6.3.7 6.3h1.9l-3.3-31.8L628 89.9l-85.6 13.2 5.4 40.3"/><path class="st0" d="M.5 288h872v72H.5z"/><path class="st13" d="M525 288l-39.1 71.7H.3V288z"/><path class="st9" d="M564.9 360l-7.2-53.5 84.3-13 25.5 21.1 4.7 45.4"/><path class="st1" d="M560.6 308.4l34.7-5.4.3 1.9-34.8 5.5z"/><path class="st11" d="M671.2 360h1.9l-4.7-45.8-26.2-21.7-85.6 13.2 7.3 54.3h2l-.6-4.1 103.8-16.2 2.1 20.3zm-112.4-52.7l83.1-12.8 1.2 10.8-82.9 12.7-1.4-10.7zm1.7 12.9l82.7-13.1 1.2 11 22-3.1 1.2 11.4-104.2 16.2-2.9-22.4zm4.5 33.7l-1.2-9.3 104.1-16.2 1 9.3L565 353.9z"/><path class="st9" d="M556.7 359.5l-6.2-46 84.3-13 25.5 21.1 4 37.9"/><path class="st1" d="M553.4 315.4l34.8-5.4.3 1.9-34.8 5.5z"/><path class="st11" d="M551.7 314.3l83.1-12.8 1.2 10.8-82.9 12.7-1.4-10.7zm1.7 12.9l82.7-13.1 1.2 11 22-3.1 1.2 11.4-104.2 16.2-2.9-22.4zm4.3 32.3l-1.1-7.9 104.1-16.2 1 9.3-94.4 14.7h12.8l81.8-12.7 1.3 13.3h1.9l-4-38.9-26.2-21.7-85.6 13.2 6.3 46.8h2.1v.1z"/><path class="st9" d="M549.2 360.1l-5.3-39.5 84.3-13 25.5 21.1 3.4 31.4"/><path class="st1" d="M552.3 360.1l-.1-.7 30.1-4.6.4 2-21.8 3.3zM551.9 353.7l17.2-2.7.4 2-17.3 2.6zM551.3 351l9.8-1.5.3 1.9-9.8 1.5zM550.8 348.4l11.7-1.9.3 1.9-11.7 1.8zM550.3 345.5l13.3-2.2.3 1.9-13.4 2.1zM549.7 342.4l18.9-3 .3 1.9-18.9 3.1zM549.1 339.4l10.6-1.6.3 1.9-10.6 1.7zM547.4 325.7l10.6-1.6.3 2-10.7 1.6zM548.7 335.2l13.6-2.1.3 1.9-13.7 2.2zM547.9 328.9l21.8-3.5.3 1.9-21.8 3.5zM599.1 320.9l24.4-3.8.3 1.9-24.4 3.9zM599.1 332l16.8-2.6.3 1.9-16.8 2.7zM601.2 343.6l16.3-2.5.3 1.9-16.3 2.6zM600.2 338l13.4-2.1.3 1.9-13.4 2.2zM600.7 340.9l28.8-4.5.3 1.9-28.8 4.6zM599.6 335l19-3 .3 1.9-19 3.1zM546.8 322.5l34.7-5.4.3 1.9-34.8 5.5zM637.3 362.6"/><path class="st11" d="M545 321.4l83.1-12.8 1.2 10.8-82.8 12.7-1.5-10.7zm1.7 12.9l82.7-13.1 1.2 11 22-3.1 1.2 11.4-104.2 16.2-2.9-22.4zm3.5 25.8l-.2-1.4 104.1-16.2 1 9.3-53.3 8.3H615l40.3-6.3.7 6.3h1.9l-3.3-31.8-26.2-21.7-85.6 13.2 5.4 40.3"/><path class="st13" d="M525 431.8l-39.1 71.7H.3v-71.7z"/><path class="st9" d="M564.9 503.8l-7.2-53.5 84.3-13 25.5 21.1 4.7 45.4"/><path class="st1" d="M560.6 452.2l34.7-5.4.3 1.9-34.8 5.5z"/><path class="st11" d="M671.2 503.8h1.9l-4.7-45.8-26.2-21.7-85.6 13.2 7.3 54.3h2l-.6-4.1 103.8-16.2 2.1 20.3zm-112.4-52.7l83.1-12.8 1.2 10.8-82.8 12.7-1.5-10.7zm1.7 12.9l82.7-13.1 1.2 11 22-3.1 1.2 11.4-104.2 16.2-2.9-22.4zm4.5 33.7l-1.2-9.3 104.1-16.2 1 9.3L565 497.7z"/><path class="st9" d="M556.7 503.2l-6.2-45.9 84.3-13 25.5 21.1 4 37.8"/><path class="st1" d="M553.4 459.2l34.8-5.4.3 1.9-34.8 5.5z"/><path class="st11" d="M551.7 458.1l83.1-12.8 1.2 10.8-82.8 12.7-1.5-10.7zm1.7 12.9l82.7-13.1 1.2 11 22-3.1 1.2 11.4-104.2 16.2-2.9-22.4zm4.3 32.2l-1.1-7.9 104.1-16.2 1 9.3-94.4 14.7h12.8l81.8-12.7 1.3 13.3h1.9l-4-38.9-26.2-21.7-85.6 13.2 6.3 46.8h2.1v.1z"/><path class="st9" d="M549.2 503.9l-5.3-39.5 84.3-13 25.5 21.1 3.4 31.4"/><path class="st1" d="M552.3 503.9l-.1-.7 30.1-4.6.4 1.9-21.8 3.4zM551.9 497.4l17.2-2.6.4 1.9-17.3 2.7zM551.3 494.8l9.8-1.5.3 1.9-9.8 1.5zM550.8 492.2l11.7-1.9.3 1.9-11.7 1.8zM550.3 489.3l13.3-2.2.3 1.9-13.4 2.1zM549.7 486.1l18.9-2.9.3 1.9-18.9 3.1zM549.1 483.2l10.6-1.6.3 1.9-10.6 1.7zM547.4 469.5l10.6-1.6.3 2-10.7 1.6zM548.7 479l13.6-2.1.3 1.9-13.7 2.2zM547.9 472.6l21.8-3.4.3 1.9-21.8 3.5zM599.1 464.7l24.4-3.8.3 1.9-24.4 3.9zM599.1 475.8l16.8-2.6.3 1.9-16.8 2.7zM601.2 487.4l16.3-2.5.3 1.9-16.3 2.6zM600.2 481.8l13.4-2.1.3 1.9-13.4 2.1zM600.7 484.7l28.8-4.5.3 1.9-28.8 4.5zM599.6 478.8l19-3 .3 1.9-19 3.1zM546.8 466.3l34.7-5.4.3 1.9-34.8 5.5zM637.3 506.4"/><path class="st11" d="M545 465.2l83.1-12.8 1.2 10.8-82.8 12.7-1.5-10.7zm1.7 12.9l82.7-13.1 1.2 11 22-3.1 1.2 11.4-104.2 16.2-2.9-22.4zm3.5 25.8l-.2-1.4 104.1-16.2 1 9.3-53.3 8.3H615l40.3-6.3.7 6.3h1.9l-3.3-31.8-26.2-21.7-85.6 13.2 5.4 40.3"/><path class="st13" d="M525 504l-39.1 71.7H.3V504z"/><path class="st9" d="M564.9 576l-7.2-53.5 84.3-13 25.5 21.1 4.7 45.4"/><path class="st1" d="M560.6 524.4l34.7-5.4.3 1.9-34.8 5.5z"/><path class="st11" d="M671.2 576h1.9l-4.7-45.8-26.2-21.7-85.6 13.2 7.3 54.3h2l-.6-4.1 103.8-16.2 2.1 20.3zm-112.4-52.7l83.1-12.8 1.2 10.8-82.9 12.7-1.4-10.7zm1.7 12.9l82.7-13.1 1.2 11 22-3.1 1.2 11.4-104.2 16.2-2.9-22.4zm4.5 33.7l-1.2-9.3 104.1-16.2 1 9.3L565 569.9z"/><path class="st9" d="M556.7 575.5l-6.2-46 84.3-13 25.5 21.1 4 37.9"/><path class="st1" d="M553.4 531.4l34.8-5.4.3 2-34.8 5.4z"/><path class="st11" d="M551.7 530.3l83.1-12.8 1.2 10.8-82.9 12.7-1.4-10.7zm1.7 12.9l82.7-13.1 1.2 11 22-3.1 1.2 11.4-104.2 16.2-2.9-22.4zm4.3 32.3l-1.1-7.9 104.1-16.2 1 9.3-94.4 14.7h12.8l81.8-12.7 1.3 13.3h1.9l-4-38.9-26.2-21.7-85.6 13.2 6.3 46.8 2.1.1z"/><path class="st9" d="M549.2 576.1l-5.3-39.5 84.3-13 25.5 21.1 3.4 31.4"/><path class="st1" d="M552.3 576.1l-.1-.7 30.1-4.6.4 2-21.8 3.3zM551.9 569.7l17.2-2.7.4 2-17.3 2.6zM551.3 567l9.8-1.5.3 1.9-9.8 1.5zM550.8 564.4l11.7-1.9.3 2-11.7 1.7zM550.3 561.5l13.3-2.2.3 2-13.4 2zM549.7 558.4l18.9-3 .3 2-18.9 3zM549.1 555.4l10.6-1.6.3 2-10.6 1.6zM547.4 541.7l10.6-1.5.3 1.9-10.7 1.6zM548.7 551.2l13.6-2.1.3 2-13.7 2.1zM547.9 544.9l21.8-3.5.3 2-21.8 3.4zM599.1 536.9l24.4-3.8.3 2-24.4 3.8zM599.1 548l16.8-2.6.3 2-16.8 2.6zM601.2 559.6l16.3-2.5.3 2-16.3 2.5zM600.2 554l13.4-2.1.3 2-13.4 2.1zM600.7 556.9l28.8-4.5.3 2-28.8 4.5zM599.6 551l19-3 .3 2-19 3zM546.8 538.5l34.7-5.4.3 2-34.8 5.4zM637.3 578.6"/><path class="st11" d="M545 537.4l83.1-12.8 1.2 10.8-82.8 12.7-1.5-10.7zm1.7 12.9l82.7-13.1 1.2 11 22-3.1 1.2 11.4-104.2 16.2-2.9-22.4zm3.5 25.8l-.2-1.4 104.1-16.2 1 9.3-53.3 8.3H615l40.3-6.3.7 6.3h1.9l-3.3-31.8-26.2-21.7-85.6 13.2 5.4 40.3"/><path class="st2" d="M.1 143.7h872v72H.1z"/><path class="st10" d="M494.7 183h7.5v7.7h-7.5zM494.7 198.5h7.5v7.7h-7.5zM578.2 190.8h7.5v7.7h-7.5zM585.7 198.5h7.5v7.7h-7.5zM585.7 183h7.5v7.7h-7.5zM578.2 175.3h7.5v7.7h-7.5zM578.2 144.5h7.5v7.7h-7.5zM585.7 152.2h7.5v7.7h-7.5zM578.2 159.9h7.5v7.7h-7.5zM585.7 167.6h7.5v7.7h-7.5zM593.3 144.5h7.5v7.7h-7.5zM600.8 152.2h7.5v7.7h-7.5zM608.3 159.9h7.5v7.7h-7.5zM600.8 167.6h7.5v7.7h-7.5zM608.3 175.3h7.5v7.7h-7.5zM600.8 183h7.5v7.7h-7.5zM608.3 190.8h7.5v7.7h-7.5zM593.3 159.9h7.5v7.7h-7.5zM593.3 175.3h7.5v7.7h-7.5zM593.3 190.8h7.5v7.7h-7.5zM614.8 183h7.5v7.7h-7.5zM623.3 190.8h7.5v7.7h-7.5zM615.8 167.6h7.5v7.7h-7.5zM623.3 175.3h7.5v7.7h-7.5zM630.8 183h7.5v7.7h-7.5zM600.8 198.5h7.5v7.7h-7.5zM615.8 198.5h7.5v7.7h-7.5zM630.8 198.5h7.5v7.7h-7.5zM638.4 190.8h7.5v7.7h-7.5zM645.9 198.5h7.5v7.7h-7.5zM645.9 183h7.5v7.7h-7.5zM638.4 175.3h7.5v7.7h-7.5zM630.8 167.6h7.5v7.7h-7.5zM623.3 159.9h7.5v7.7h-7.5zM615.8 152.2h7.5v7.7h-7.5zM608.3 144.5h7.5v7.7h-7.5zM623.3 144.5h7.5v7.7h-7.5zM630.8 152.2h7.5v7.7h-7.5zM638.4 144.5h7.5v7.7h-7.5zM645.9 152.2h7.5v7.7h-7.5zM638.4 159.9h7.5v7.7h-7.5zM645.9 167.6h7.5v7.7h-7.5zM653.4 144.5h7.5v7.7h-7.5zM660.9 152.2h7.5v7.7h-7.5zM668.5 159.9h7.5v7.7h-7.5zM660.9 167.6h7.5v7.7h-7.5zM668.5 175.3h7.5v7.7h-7.5zM660.9 183h7.5v7.7h-7.5zM668.5 190.8h7.5v7.7h-7.5zM653.4 159.9h7.5v7.7h-7.5zM653.4 175.3h7.5v7.7h-7.5zM653.4 190.8h7.5v7.7h-7.5zM675 183h7.5v7.7H675zM683.5 190.8h7.5v7.7h-7.5zM676 167.6h7.5v7.7H676zM683.5 175.3h7.5v7.7h-7.5zM691 183h7.5v7.7H691zM660.9 198.5h7.5v7.7h-7.5zM676 198.5h7.5v7.7H676zM691 198.5h7.5v7.7H691zM698.5 190.8h7.5v7.7h-7.5zM706 198.5h7.5v7.7H706zM706 183h7.5v7.7H706zM698.5 175.3h7.5v7.7h-7.5zM691 167.6h7.5v7.7H691zM683.5 159.9h7.5v7.7h-7.5zM676 152.2h7.5v7.7H676zM668.5 144.5h7.5v7.7h-7.5zM683.5 144.5h7.5v7.7h-7.5zM691 152.2h7.5v7.7H691zM698.5 144.5h7.5v7.7h-7.5zM706 152.2h7.5v7.7H706zM698.5 159.9h7.5v7.7h-7.5zM706 167.6h7.5v7.7H706zM713.6 144.5h7.5v7.7h-7.5zM721.1 152.2h7.5v7.7h-7.5zM728.6 159.9h7.5v7.7h-7.5zM721.1 167.6h7.5v7.7h-7.5zM728.6 175.3h7.5v7.7h-7.5zM721.1 183h7.5v7.7h-7.5zM728.6 190.8h7.5v7.7h-7.5zM713.6 159.9h7.5v7.7h-7.5zM713.6 175.3h7.5v7.7h-7.5zM713.6 190.8h7.5v7.7h-7.5zM735.1 183h7.5v7.7h-7.5zM743.7 190.8h7.5v7.7h-7.5zM736.1 167.6h7.5v7.7h-7.5zM743.7 175.3h7.5v7.7h-7.5zM751.2 183h7.5v7.7h-7.5zM721.1 198.5h7.5v7.7h-7.5zM736.1 198.5h7.5v7.7h-7.5zM751.2 198.5h7.5v7.7h-7.5zM758.7 190.8h7.5v7.7h-7.5zM766.2 198.5h7.5v7.7h-7.5zM766.2 183h7.5v7.7h-7.5zM758.7 175.3h7.5v7.7h-7.5zM751.2 167.6h7.5v7.7h-7.5zM743.7 159.9h7.5v7.7h-7.5zM736.1 152.2h7.5v7.7h-7.5zM728.6 144.5h7.5v7.7h-7.5zM743.7 144.5h7.5v7.7h-7.5zM751.2 152.2h7.5v7.7h-7.5zM758.7 144.5h7.5v7.7h-7.5zM766.2 152.2h7.5v7.7h-7.5zM758.7 159.9h7.5v7.7h-7.5zM766.2 167.6h7.5v7.7h-7.5zM773.7 144.5h7.5v7.7h-7.5zM781.3 152.2h7.5v7.7h-7.5zM788.8 159.9h7.5v7.7h-7.5zM781.3 167.6h7.5v7.7h-7.5zM788.8 175.3h7.5v7.7h-7.5zM781.3 183h7.5v7.7h-7.5zM788.8 190.8h7.5v7.7h-7.5zM773.7 159.9h7.5v7.7h-7.5zM773.7 175.3h7.5v7.7h-7.5zM773.7 190.8h7.5v7.7h-7.5zM795.3 183h7.5v7.7h-7.5zM803.8 190.8h7.5v7.7h-7.5zM796.3 167.6h7.5v7.7h-7.5zM803.8 175.3h7.5v7.7h-7.5zM811.3 183h7.5v7.7h-7.5zM781.3 198.5h7.5v7.7h-7.5zM796.3 198.5h7.5v7.7h-7.5zM811.3 198.5h7.5v7.7h-7.5zM818.9 190.8h7.5v7.7h-7.5zM826.4 198.5h7.5v7.7h-7.5zM826.4 183h7.5v7.7h-7.5zM818.9 175.3h7.5v7.7h-7.5zM811.3 167.6h7.5v7.7h-7.5zM803.8 159.9h7.5v7.7h-7.5zM796.3 152.2h7.5v7.7h-7.5zM788.8 144.5h7.5v7.7h-7.5zM803.8 144.5h7.5v7.7h-7.5zM811.3 152.2h7.5v7.7h-7.5zM818.9 144.5h7.5v7.7h-7.5zM826.4 152.2h7.5v7.7h-7.5zM818.9 159.9h7.5v7.7h-7.5zM826.4 167.6h7.5v7.7h-7.5zM833.9 159.9h7.5v7.7h-7.5zM833.9 175.3h7.5v7.7h-7.5zM833.9 190.8h7.5v7.7h-7.5zM840.4 183h7.5v7.7h-7.5zM848.9 190.8h7.5v7.7h-7.5zM841.4 167.6h7.5v7.7h-7.5zM848.9 175.3h7.5v7.7h-7.5zM856.5 183h7.5v7.7h-7.5zM841.4 198.5h7.5v7.7h-7.5zM856.5 198.5h7.5v7.7h-7.5zM864 190.8h7.5v7.7H864zM864 175.3h7.5v7.7H864zM856.5 167.6h7.5v7.7h-7.5zM848.9 159.9h7.5v7.7h-7.5zM841.4 152.2h7.5v7.7h-7.5zM833.9 144.5h7.5v7.7h-7.5zM848.9 144.5h7.5v7.7h-7.5zM856.5 152.2h7.5v7.7h-7.5zM864 144.5h7.5v7.7H864zM864 159.9h7.5v7.7H864zM487.2 206.9h7.5v7.7h-7.5zM578.2 206.9h7.5v7.7h-7.5zM608.3 206.9h7.5v7.7h-7.5zM593.3 206.9h7.5v7.7h-7.5zM623.3 206.9h7.5v7.7h-7.5zM638.4 206.9h7.5v7.7h-7.5zM668.5 206.9h7.5v7.7h-7.5zM653.4 206.9h7.5v7.7h-7.5zM509.5 183h7.5v7.7h-7.5zM518 190.8h7.5v7.7H518zM510.5 167.6h7.5v7.7h-7.5zM518 175.3h7.5v7.7H518zM525.5 183h7.5v7.7h-7.5zM510.5 198.5h7.5v7.7h-7.5zM525.5 198.5h7.5v7.7h-7.5zM533.1 190.8h7.5v7.7h-7.5zM540.6 198.5h7.5v7.7h-7.5zM540.6 183h7.5v7.7h-7.5zM533.1 175.3h7.5v7.7h-7.5zM525.5 167.6h7.5v7.7h-7.5zM518 159.9h7.5v7.7H518zM510.5 152.2h7.5v7.7h-7.5zM518 144.5h7.5v7.7H518zM525.5 152.2h7.5v7.7h-7.5zM533.1 144.5h7.5v7.7h-7.5zM540.6 152.2h7.5v7.7h-7.5zM533.1 159.9h7.5v7.7h-7.5zM540.6 167.6h7.5v7.7h-7.5zM548.1 144.5h7.5v7.7h-7.5zM555.6 152.2h7.5v7.7h-7.5zM563.2 159.9h7.5v7.7h-7.5zM555.6 167.6h7.5v7.7h-7.5zM563.2 175.3h7.5v7.7h-7.5zM555.6 183h7.5v7.7h-7.5zM563.2 190.8h7.5v7.7h-7.5zM548.1 159.9h7.5v7.7h-7.5zM548.1 175.3h7.5v7.7h-7.5zM548.1 190.8h7.5v7.7h-7.5zM569.7 183h7.5v7.7h-7.5zM570.7 167.6h7.5v7.7h-7.5zM555.6 198.5h7.5v7.7h-7.5zM570.7 198.5h7.5v7.7h-7.5zM570.7 152.2h7.5v7.7h-7.5zM563.2 144.5h7.5v7.7h-7.5zM518 206.9h7.5v7.7H518zM502.2 190.8h7.5v7.7h-7.5zM502.2 175.3h7.5v7.7h-7.5zM502.2 206.9h7.5v7.7h-7.5zM533.1 206.9h7.5v7.7h-7.5zM563.2 206.9h7.5v7.7h-7.5zM548.1 206.9h7.5v7.7h-7.5zM683.5 206.9h7.5v7.7h-7.5zM698.5 206.9h7.5v7.7h-7.5zM728.6 206.9h7.5v7.7h-7.5zM713.6 206.9h7.5v7.7h-7.5zM743.7 206.9h7.5v7.7h-7.5zM758.7 206.9h7.5v7.7h-7.5zM788.8 206.9h7.5v7.7h-7.5zM773.7 206.9h7.5v7.7h-7.5zM803.8 206.9h7.5v7.7h-7.5zM818.9 206.9h7.5v7.7h-7.5zM833.9 206.9h7.5v7.7h-7.5zM848.9 206.9h7.5v7.7h-7.5zM864 206.9h7.5v7.7H864z"/><path class="st12" d="M534.313 411.798l2.9.013-.014 3-2.9-.012zM503.11 419.198l2.9.012-.012 3-2.9-.012zM504.5 383.5l43.7 20.8 50.5-4 21.3-25.2 49.1 6.5 19.6-21.8"/><path class="st9" d="M564.9 432.2l-7.2-53.5 84.3-13 25.5 21.1 4.7 45.4"/><path class="st1" d="M560.6 380.6l34.7-5.4.3 1.9-34.8 5.5z"/><path class="st11" d="M671.2 432.2h1.9l-4.7-45.8-26.2-21.7-85.6 13.2 7.3 54.3h2l-.6-4.1 103.8-16.2 2.1 20.3zm-112.4-52.7l83.1-12.8 1.2 10.8-82.8 12.7-1.5-10.7zm1.7 12.9l82.7-13.1 1.2 11 22-3.1 1.2 11.4-104.2 16.2-2.9-22.4zm4.5 33.7l-1.2-9.3 104.1-16.2 1 9.3L565 426.1z"/><path class="st9" d="M556.7 431.6l-6.2-45.9 84.3-13 25.5 21.1 4 37.8"/><path class="st1" d="M553.4 387.6l34.8-5.4.3 1.9-34.8 5.5z"/><path class="st11" d="M551.7 386.5l83.1-12.8 1.2 10.8-82.8 12.7-1.5-10.7zm1.7 12.9l82.7-13.1 1.2 11 22-3.1 1.2 11.4-104.2 16.2-2.9-22.4zm4.3 32.2l-1.1-7.9 104.1-16.2 1 9.3-94.4 14.7h12.8l81.8-12.7 1.3 13.3h1.9l-4-38.9-26.2-21.7-85.6 13.2 6.3 46.8 2.1.1z"/><path class="st9" d="M549.2 432.3l-5.3-39.5 84.3-13 25.5 21.1 3.4 31.4"/><path class="st1" d="M552.3 432.3l-.1-.7 30.1-4.6.4 2-21.8 3.3zM551.9 425.9l17.2-2.7.4 1.9-17.3 2.7zM551.3 423.2l9.8-1.5.3 1.9-9.8 1.5zM550.8 420.6l11.7-1.9.3 1.9-11.7 1.8zM550.3 417.7l13.3-2.2.3 1.9-13.4 2.1zM549.7 414.6l18.9-3 .3 1.9-18.9 3.1zM549.1 411.6l10.6-1.6.3 1.9-10.6 1.7zM547.4 397.9l10.6-1.6.3 2-10.7 1.6zM548.7 407.4l13.6-2.1.3 1.9-13.7 2.2zM547.9 401.1l21.8-3.5.3 1.9-21.8 3.5zM599.1 393.1l24.4-3.8.3 1.9-24.4 3.9zM599.1 404.2l16.8-2.6.3 1.9-16.8 2.7zM601.2 415.8l16.3-2.5.3 1.9-16.3 2.6zM600.2 410.2l13.4-2.1.3 1.9-13.4 2.1zM600.7 413.1l28.8-4.5.3 1.9L601 415zM599.6 407.2l19-3 .3 1.9-19 3.1zM546.8 394.7l34.7-5.4.3 1.9-34.8 5.5zM637.3 434.8"/><path class="st11" d="M545 393.6l83.1-12.8 1.2 10.8-82.8 12.7-1.5-10.7zm1.7 12.9l82.7-13.1 1.2 11 22-3.1 1.2 11.4-104.2 16.2-2.9-22.4zm3.5 25.8l-.2-1.4 104.1-16.2 1 9.3-53.3 8.3H615l40.3-6.3.7 6.3h1.9l-3.3-31.8-26.2-21.7-85.6 13.2 5.4 40.3"/><path class="st13" d="M525 360.2l-39.1 71.7H.3v-71.7z"/><path class="st4" d="M524.6 143.9l-39.1 71.7H-.1v-71.7z"/><path class="st9" d="M564.5 215.4l-7.2-53.5 84.3-13 25.5 21.1 4.7 45.4"/><path class="st1" d="M560.2 163.8l34.7-5.3.3 1.9-34.8 5.4z"/><path class="st11" d="M670.8 215.4h1.9l-4.7-45.8-26.2-21.7-85.6 13.2 7.3 54.3h2l-.6-4.1 103.8-16.2 2.1 20.3zm-112.4-52.7l83.1-12.8 1.2 10.8-82.8 12.7-1.5-10.7zm1.7 13l82.7-13.1 1.2 11 22-3.1 1.2 11.4L563 198.1l-2.9-22.4zm4.5 33.6l-1.2-9.3 104.1-16.2 1 9.3-103.9 16.2z"/><path class="st9" d="M556.3 214.9l-6.2-46 84.3-13 25.5 21.1 4 37.9"/><path class="st1" d="M553 170.9l34.8-5.4.3 1.9-34.8 5.4z"/><path class="st11" d="M551.3 169.8l83.1-12.8 1.2 10.8-82.8 12.7-1.5-10.7zm1.7 12.9l82.7-13.1 1.2 11 22-3.1 1.2 11.4L556 205.1l-3-22.4zm4.3 32.2l-1.1-7.9 104.1-16.2 1 9.3-94.3 14.8h12.8l81.8-12.7 1.3 13.3h1.9l-4-38.9-26.2-21.7-85.6 13.2 6.3 46.8h2z"/><path class="st9" d="M548.8 215.6l-5.3-39.6 84.3-13 25.5 21.1 3.4 31.5"/><path class="st1" d="M551.9 215.5l-.1-.7 30.1-4.5.4 1.9-21.8 3.3zM551.5 209.1l17.2-2.6.4 1.9-17.3 2.7zM550.9 206.5l9.8-1.6.3 2-9.8 1.5zM550.4 203.8l11.7-1.8.3 1.9-11.7 1.8zM549.9 200.9l13.3-2.1.3 1.9-13.4 2.1zM549.3 197.8l18.9-2.9.3 1.9-18.9 3zM548.7 194.9l10.6-1.6.3 1.9-10.6 1.6zM547 181.2l10.6-1.6.3 1.9-10.7 1.7zM548.3 190.6l13.6-2 .3 1.9-13.7 2.1zM547.5 184.3l21.8-3.4.3 1.9-21.8 3.5zM598.7 176.3l24.4-3.7.3 1.9-24.4 3.8zM598.7 187.5l16.8-2.6.3 1.9-16.8 2.6zM600.8 199.1l16.3-2.5.3 1.9-16.3 2.6zM599.8 193.4l13.4-2 .3 1.9-13.4 2.1zM600.3 196.3l28.8-4.4.3 1.9-28.8 4.5zM599.2 190.5l19-3 .3 1.9-19 3.1zM546.4 178l34.7-5.4.3 1.9-34.8 5.4zM636.9 218.1"/><path class="st11" d="M544.6 176.9l83.1-12.8 1.2 10.8-82.9 12.6-1.4-10.6zm1.7 12.9l82.7-13.1 1.2 11 22-3.1 1.2 11.4-104.2 16.2-2.9-22.4zm3.5 25.8l-.2-1.4L653.7 198l1 9.3-53.3 8.3h13.2l40.3-6.3.7 6.3h1.9l-3.3-31.8L628 162l-85.6 13.2 5.4 40.3"/><path class="st4" d="M524.6 215.8l-39.1 71.7H-.1v-71.7z"/><path class="st9" d="M564.5 287.4l-7.2-53.5 84.3-13 25.5 21.1 4.7 45.4"/><path class="st1" d="M560.2 235.8l34.7-5.4.3 1.9-34.8 5.5z"/><path class="st11" d="M670.8 287.4h1.9l-4.7-45.8-26.2-21.7-85.6 13.2 7.3 54.3h2l-.6-4.1 103.8-16.2 2.1 20.3zm-112.4-52.7l83.1-12.8 1.2 10.8-82.8 12.7-1.5-10.7zm1.7 12.9l82.7-13.1 1.2 11 22-3.1 1.2 11.4L563.1 270l-3-22.4zm4.5 33.7l-1.2-9.3 104.1-16.2 1 9.3-103.9 16.2z"/><path class="st9" d="M556.3 286.9l-6.2-46 84.3-13 25.5 21.1 4 37.9"/><path class="st1" d="M553 242.8l34.8-5.4.3 1.9-34.8 5.5z"/><path class="st11" d="M551.3 241.7l83.1-12.8 1.2 10.8-82.8 12.7-1.5-10.7zm1.7 12.9l82.7-13.1 1.2 11 22-3.1 1.2 11.4L556 277l-3-22.4zm4.3 32.3l-1.1-7.9 104.1-16.2 1 9.3-94.3 14.7h12.8l81.8-12.7 1.3 13.3h1.9l-4-38.9-26.2-21.7L549 240l6.3 46.8 2 .1z"/><path class="st9" d="M548.8 287.5l-5.3-39.5 84.3-13 25.5 21.1 3.4 31.4"/><path class="st1" d="M551.9 287.5l-.1-.7 30.1-4.6.4 2-21.8 3.3zM551.5 281.1l17.2-2.7.4 2-17.3 2.6zM550.9 278.4l9.8-1.5.3 1.9-9.8 1.5zM550.4 275.8l11.7-1.9.3 2-11.7 1.7zM549.9 272.9l13.3-2.2.3 2-13.4 2zM549.3 269.8l18.9-3 .3 2-18.9 3zM548.7 266.8l10.6-1.6.3 2-10.6 1.6zM547 253.1l10.6-1.6.3 2-10.7 1.6zM548.3 262.6l13.6-2.1.3 2-13.7 2.1zM547.5 256.3l21.8-3.5.3 2-21.8 3.4zM598.7 248.3l24.4-3.8.3 2-24.4 3.8zM598.7 259.4l16.8-2.6.3 2-16.8 2.6zM600.8 271l16.3-2.5.3 2-16.3 2.5zM599.8 265.4l13.4-2.1.3 2-13.4 2.1zM600.3 268.3l28.8-4.5.3 2-28.8 4.5zM599.2 262.4l19-3 .3 2-19 3zM546.4 249.9l34.7-5.4.3 2-34.8 5.4zM636.9 290"/><path class="st11" d="M544.6 248.8l83.1-12.8 1.2 10.8-82.9 12.7-1.4-10.7zm1.7 12.9l82.7-13.1 1.2 11 22-3.1 1.2 11.4-104.2 16.2-2.9-22.4zm3.5 25.8l-.2-1.4 104.1-16.2 1 9.3-53.3 8.3h13.2l40.3-6.3.7 6.3h1.9l-3.3-31.8L628 234l-85.6 13.2 5.4 40.3"/></svg>