<svg xmlns="http://www.w3.org/2000/svg" width="872" height="576.6" viewBox="0 0 872 576.6"><style type="text/css"><![CDATA[
	.st0{opacity:0.13;fill:none;stroke:#010202;stroke-width:2;enable-background:new;}
	.st1{fill:#4A4949;}	.st2{opacity:0.18;}	.st3{fill:#B5D3E0;}	.st4{fill:#EDEDED;}
	.st5{fill:#535252;}	.st6{fill:#8C8C8C;}	.st7{opacity:0.75;fill:#3D3D3C;enable-background:new;}
	.st8{opacity:0.13;fill:none;stroke:#010202;stroke-width:0.75;enable-background:new;}
	.st9{fill:#969696;}	.st10{fill:#C8C8C8;} .st11{opacity:0.1;fill:#3D3D3C;enable-background:new;}
	.st12{fill:#CEE3EB;} .st13{fill:#545454;enable-background:new;}	.st15{fill:#3D3D3C;}
	.st14{fill:none;stroke:#444444;stroke-width:2;enable-background:new;}
	.st16{opacity:0.5;fill:#3D3D3C;enable-background:new;}
	.st17{opacity:0.25;fill:#3D3D3C;enable-background:new;}
]]></style><path class="st3" d="M.1 0h872v72h-872zm.1 72h872v72h-872z"/><path class="st0" d="M819.903 88.608l-2.9-.014.014-3 2.9.014zm-12.603 25.099l-2.9-.01.013-3 2.9.01zm-6.998-15.297l-2.9-.015.014-3 2.9.014zm61.901 9.2l-2.9-.015.014-3 2.9.014zm-20.4 6.3l-2.9-.016.017-3 2.9.016zm-117.103 12.1l-3-.015.015-3 3 .014zm37.5-13.702l-2.9-.013.015-3 2.9.013zm-17.698-7.998l-3-.016.015-3 3 .015zm29.698-25.5l-2.9-.015.015-3 2.9.014zm-83.1 11.3l-3-.015.014-3 3 .014zm-68.2 26.698l-2.9-.014.013-3 2.9.014zm-12.6-34.7l-2.9-.014.015-3 2.9.014zm-34.1 41.002l-2.9-.015.013-3 2.9.014zm-27.5-31.6l-2.9-.016.014-3 2.9.015zm-11.502 35.298l-2.9-.013.014-3 2.9.013zm-31.228 7.386l-2.9-.013.015-3 2.9.014zm57.03-28.484l-3-.016.015-3 3 .015zm91.9-23.602l-2.9-.014.015-3 2.9.014zm50.402 53.602l-3-.015.015-3 3 .015zm-200.802-40.31l43.7 20.8 50.5-4 21.3-25.2 49.1 6.5 19.6-21.8m-68.7 71l32-31.9 89 3 19.3 13.5 38.5-55.6m72.8 64l-39-46.4-15.1 40.4-39.2-2.4-11 15.4"/><path class="st0" d="M659.7 126.01l-2.9-.016.017-3 2.9.016zm51.1-42.502l-2.9-.013.013-3 2.9.013z"/><path class="st1" d="M.2 360.2h872v72h-872z"/><path class="st14" d="M819.903 376.814l-2.9-.014.014-3 2.9.014zm-12.603 25.2l-2.9-.01.012-3 2.9.01zm-6.998-15.398l-2.9-.014.014-3 2.9.014zm61.901 9.198l-2.9-.014.014-3 2.9.014zm-20.399 6.303l-2.9-.016.016-3 2.9.017zm-117.102 12.098l-3-.014.013-3 3 .015zm37.498-13.699l-2.9-.014.015-3 2.9.014zm-17.698-7.998l-3-.015.015-3 3 .015zm29.7-25.502l-2.9-.013.014-3 2.9.013zm-83.102 11.298l-3-.013.015-3 3 .014zm-68.2 26.702l-2.9-.014.015-3 2.9.014zm-12.602-34.7l-2.9-.016.016-3 2.9.016zm-34.098 40.998l-2.9-.014.013-3 2.9.014zm-27.5-31.598l-2.9-.015.017-3 2.9.016zm-11.5 35.3l-2.9-.014.014-3 2.9.014zm25.8-21.096l-3-.017.016-3 3 .016zm91.898-23.604l-2.9-.016.017-3 2.9.016zm50.404 53.604l-3-.017.015-3 3 .016zm-85.302 6.98l32-31.9 89 3 19.3 13.5 38.5-55.6m72.8 64l-39-46.4-15.1 40.4-39.2-2.4-11 15.4"/><path class="st8" d="M729.3 361.3"/><path class="st14" d="M659.7 414.22l-2.9-.016.017-3 2.9.016zm51.102-42.507l-2.9-.012.012-3 2.9.013z"/><path class="st1" d="M.1 431.9h872v72h-872z"/><path class="st5" d="M503 463.5h7.5v7.7h-7.5zm-7.5 7.7h7.5v7.7h-7.5zm7.5 7.8h7.5v7.7h-7.5zm6.6-7.8h7.5v7.7h-7.5zm8.5 7.8h7.5v7.7h-7.5zm-7.5-23.2h7.5v7.7h-7.5zm7.5 7.7h7.5v7.7h-7.5zm52.6 7.7h7.5v7.7h-7.5zm-75.2 15.5h7.5v7.7h-7.5zm-7.5 8.4h7.5v7.7h-7.5zm22.6-8.4h7.5v7.7h-7.5zm60.1 0h7.5v7.7h-7.5zm7.5-7.7h7.5v7.7h-7.5zm7.5 7.7h7.5v7.7h-7.5zm0-15.5h7.5v7.7h-7.5zm-7.5-7.7h7.5v7.7h-7.5zm-7.5-7.7h7.5v7.7h-7.5zm-52.6-7.7h7.5v7.7h-7.5zm-7.5-7.7h7.5v7.7h-7.5zm7.5-7.7h7.5v7.7h-7.5zm52.6 7.7h7.5v7.7h-7.5zm7.5-7.7h7.5v7.7h-7.5zm7.5 7.7h7.5v7.7h-7.5zm-7.5 7.7h7.5v7.7h-7.5zm7.5 7.7h7.5v7.7h-7.5zm7.6-23.1h7.5v7.7h-7.5zm7.5 7.7h7.5v7.7h-7.5zm7.5 7.7h7.5v7.7h-7.5zm-7.5 7.7h7.5v7.7h-7.5zm7.5 7.7h7.5v7.7h-7.5zm-7.5 7.7h7.5v7.7h-7.5zm7.5 7.8h7.5v7.7h-7.5zm-15-30.9h7.5v7.7h-7.5zm0 15.4h7.5v7.7h-7.5zm0 15.5h7.5v7.7h-7.5zm21.5-7.8h7.5v7.7h-7.5zm8.5 7.8h7.5v7.7h-7.5zm-7.5-23.2h7.5v7.7h-7.5zm7.5 7.7h7.5v7.7h-7.5zm7.5 7.7h7.5v7.7h-7.5zm-30 15.5h7.5v7.7h-7.5zm15 0h7.5v7.7h-7.5zm15 0h7.5v7.7h-7.5zm7.6-7.7h7.5v7.7h-7.5zm7.5 7.7h7.5v7.7h-7.5zm0-15.5h7.5v7.7h-7.5zm-7.5-7.7h7.5v7.7h-7.5zm-7.6-7.7h7.5v7.7h-7.5zm-7.5-7.7h7.5v7.7h-7.5zm-7.5-7.7h7.5v7.7h-7.5zm-7.5-7.7h7.5v7.7h-7.5zm15 0h7.5v7.7h-7.5zm7.5 7.7h7.5v7.7h-7.5zm7.6-7.7h7.5v7.7h-7.5zm7.5 7.7h7.5v7.7h-7.5zm-7.5 7.7h7.5v7.7h-7.5zm7.5 7.7h7.5v7.7h-7.5zm7.5-23.1h7.5v7.7h-7.5zm7.5 7.7h7.5v7.7h-7.5zm7.6 7.7h7.5v7.7h-7.5zm-7.6 7.7h7.5v7.7h-7.5zm7.6 7.7h7.5v7.7h-7.5zm-7.6 7.7h7.5v7.7h-7.5zm7.6 7.8h7.5v7.7h-7.5zm-15.1-30.9h7.5v7.7h-7.5zm0 15.4h7.5v7.7h-7.5zm0 15.5h7.5v7.7h-7.5zm21.6-7.8h7.5v7.7h-7.5zm8.5 7.8h7.5v7.7h-7.5zm-7.5-23.2h7.5v7.7h-7.5zm7.5 7.7h7.5v7.7h-7.5zm7.5 7.7h7.5v7.7h-7.5zm-30.1 15.5h7.5v7.7h-7.5zm15.1 0h7.5v7.7h-7.5zm15 0h7.5v7.7h-7.5zm7.5-7.7h7.5v7.7h-7.5zm7.5 7.7h7.5v7.7h-7.5zm0-15.5h7.5v7.7h-7.5zm-7.5-7.7h7.5v7.7h-7.5zm-7.5-7.7h7.5v7.7h-7.5zm-7.5-7.7h7.5v7.7h-7.5zm-7.5-7.7h7.5v7.7h-7.5zm-7.5-7.7h7.5v7.7h-7.5zm15 0h7.5v7.7h-7.5zm7.5 7.7h7.5v7.7h-7.5zm7.5-7.7h7.5v7.7h-7.5zm7.5 7.7h7.5v7.7h-7.5zm-7.5 7.7h7.5v7.7h-7.5zm7.5 7.7h7.5v7.7h-7.5zm7.6-23.1h7.5v7.7h-7.5zm7.5 7.7h7.5v7.7h-7.5zm7.5 7.7h7.5v7.7h-7.5zm-7.5 7.7h7.5v7.7h-7.5zm7.5 7.7h7.5v7.7h-7.5zm-7.5 7.7h7.5v7.7h-7.5zm7.5 7.8h7.5v7.7h-7.5zm-15-30.9h7.5v7.7h-7.5zm0 15.4h7.5v7.7h-7.5zm0 15.5h7.5v7.7h-7.5zm21.5-7.8h7.5v7.7h-7.5zm8.6 7.8h7.5v7.7h-7.5zm-7.6-23.2h7.5v7.7h-7.5zm7.6 7.7h7.5v7.7h-7.5zm7.5 7.7h7.5v7.7h-7.5zm-30.1 15.5h7.5v7.7h-7.5zm15 0h7.5v7.7h-7.5zm15.1 0h7.5v7.7h-7.5zm7.5-7.7h7.5v7.7h-7.5zm7.5 7.7h7.5v7.7h-7.5zm0-15.5h7.5v7.7h-7.5zm-7.5-7.7h7.5v7.7h-7.5zm-7.5-7.7h7.5v7.7h-7.5zm-7.5-7.7h7.5v7.7h-7.5zm-7.6-7.7h7.5v7.7h-7.5zm-7.5-7.7h7.5v7.7h-7.5zm15.1 0h7.5v7.7h-7.5zm7.5 7.7h7.5v7.7h-7.5zm7.5-7.7h7.5v7.7h-7.5zm7.5 7.7h7.5v7.7h-7.5zm-7.5 7.7h7.5v7.7h-7.5zm7.5 7.7h7.5v7.7h-7.5zm7.5-23.1h7.5v7.7h-7.5zm7.6 7.7h7.5v7.7h-7.5zm7.5 7.7h7.5v7.7h-7.5zm-7.5 7.7h7.5v7.7h-7.5zm7.5 7.7h7.5v7.7h-7.5zm-7.5 7.7h7.5v7.7h-7.5zm7.5 7.8h7.5v7.7h-7.5zm-15.1-30.9h7.5v7.7h-7.5zm0 15.4h7.5v7.7h-7.5zm0 15.5h7.5v7.7h-7.5zm21.6-7.8h7.5v7.7h-7.5zm8.5 7.8h7.5v7.7h-7.5zm-7.5-23.2h7.5v7.7h-7.5zm7.5 7.7h7.5v7.7h-7.5zm7.5 7.7h7.5v7.7h-7.5zm-30 15.5h7.5v7.7h-7.5zm15 0h7.5v7.7h-7.5zm15 0h7.5v7.7h-7.5zm7.6-7.7h7.5v7.7h-7.5zm7.5 7.7h7.5v7.7h-7.5zm0-15.5h7.5v7.7h-7.5zm-7.5-7.7h7.5v7.7h-7.5zm-7.6-7.7h7.5v7.7h-7.5zm-7.5-7.7h7.5v7.7h-7.5zm-7.5-7.7h7.5v7.7h-7.5zm-7.5-7.7h7.5v7.7h-7.5zm15 0h7.5v7.7h-7.5zm7.5 7.7h7.5v7.7h-7.5zm7.6-7.7h7.5v7.7h-7.5zm7.5 7.7h7.5v7.7h-7.5zm-7.5 7.7h7.5v7.7h-7.5zm7.5 7.7h7.5v7.7h-7.5zm7.5-7.7h7.5v7.7h-7.5zm0 15.4h7.5v7.7h-7.5zm0 15.5h7.5v7.7h-7.5zm6.5-7.8h7.5v7.7h-7.5zm8.5 7.8h7.5v7.7h-7.5zm-7.5-23.2h7.5v7.7h-7.5zm7.5 7.7h7.5v7.7h-7.5zm7.6 7.7h7.5v7.7h-7.5zm-15.1 15.5h7.5v7.7h-7.5zm15.1 0h7.5v7.7h-7.5zm7.5-7.7h7.5v7.7h-7.5zm0-15.5h7.5v7.7h-7.5zm-7.5-7.7h7.5v7.7h-7.5zm-7.6-7.7h7.5v7.7h-7.5zm-7.5-7.7h7.5v7.7h-7.5zm-7.5-7.7h7.5v7.7h-7.5zm15 0h7.5v7.7h-7.5zm7.6 7.7h7.5v7.7h-7.5zm7.5-7.7h7.5v7.7h-7.5zm0 15.4h7.5v7.7h-7.5zm-361 47h7.5v7.7h-7.5zm15.1 0h7.5v7.7h-7.5zm60.1 0h7.5v7.7h-7.5zm30.1 0h7.5v7.7h-7.5zm-15 0h7.5v7.7h-7.5zm30 0h7.5v7.7h-7.5zm-97.8-8.4h7.5v7.7h-7.5zm0-15.5h7.5v7.7h-7.5zm0-30.8h7.5v7.7h-7.5zm0 15.4h7.5v7.7h-7.5zm7.6-23.1h7.5v7.7h-7.5zm7.5 7.7h7.5v7.7h-7.5zm7.5 7.7h7.5v7.7h-7.5zm-7.5 7.7h7.5v7.7h-7.5zm7.5 7.7h7.5v7.7h-7.5zm-7.5 7.7h7.5v7.7h-7.5zm7.5 7.8h7.5v7.7h-7.5zm-15-30.9h7.5v7.7h-7.5zm0 15.4h7.5v7.7h-7.5zm0 15.5h7.5v7.7h-7.5zm21.5-7.8h7.5v7.7h-7.5zm8.5 7.8h7.5v7.7h-7.5zm-7.5-23.2h7.5v7.7h-7.5zm7.5 7.7h7.5v7.7h-7.5zm-22.5 23.2h7.5v7.7h-7.5zm15 0h7.5v7.7h-7.5zm7.5-38.6h7.5v7.7h-7.5zm-7.5-7.7h7.5v7.7h-7.5zm-7.5-7.7h7.5v7.7h-7.5zm15 0h7.5v7.7h-7.5zm-15 62.4h7.5v7.7h-7.5zm-15 0h7.5v7.7h-7.5zm30 0h7.5v7.7h-7.5zm75.3 0h7.5v7.7h-7.5zm30.1 0h7.5v7.7h-7.5zm-15.1 0h7.5v7.7h-7.5zm30.1 0h7.5v7.7h-7.5zm15 0h7.5v7.7h-7.5zm30.1 0h7.5v7.7h-7.5zm-15 0h7.5v7.7h-7.5zm30.1 0h7.5v7.7h-7.5zm15 0h7.5v7.7h-7.5zm30.1 0h7.5v7.7h-7.5zm-15.1 0h7.5v7.7h-7.5zm30.1 0h7.5v7.7h-7.5zm15.1 0h7.5v7.7h-7.5zm15 0h7.5v7.7h-7.5zm15 0h7.5v7.7h-7.5zm15.1 0h7.5v7.7h-7.5z"/><path class="st1" d="M.4 504.1h872v72h-872z"/><path class="st15" d="M853.3 552.3c-.9 7.8-8 13.4-15.9 12.5-7.9-.9-13.5-8-12.5-15.9.9-7.8 8-13.5 15.9-12.5 7.8.9 13.4 8 12.5 15.9zm-29.5-22.8l-4-6.8c-15.1 8.7-20.2 28-11.5 43.1l6.8-4c-6.5-11.3-2.6-25.8 8.7-32.3z"/><path class="st7" d="M806.2 513.2l-4-6.8c-22.6 13.1-30.4 42-17.3 64.7l6.8-4c-10.8-18.8-4.4-43 14.5-53.9z"/><path class="st11" d="M690.1 576.6c-12.2-22.6-13.3-48.7-4.7-71.6h-8.4c-7.8 23-6.8 48.7 4.2 71.6h8.9zm27.8-1.5c-10.3-22.9-9.8-48.3-.3-70.2h-8.6c-8.7 22.1-9 47.2.3 70.2h8.6z"/><path class="st17" d="M743.9 575.1c-12-22.8-10.3-49.5 2.5-70.2h-9.1c-11.4 21.3-12.8 47.2-2.2 70.2h8.8z"/><path class="st16" d="M763.3 575.4l5.1-3c-13-22.5-8.3-50.3 9.6-67.5h-11.1c-15.7 19.5-18.9 47.3-6.2 70.4l2.6.1z"/><path class="st12" d="M524.6 0l-39.1 71.7h-485.6v-71.7zm0 72l-39.1 71.7h-485.6v-71.7z"/><path class="st3" d="M.4 215.9h872v72h-872z"/><g class="st2"><path class="st15" d="M853.3 264.1c-.9 7.8-8 13.4-15.9 12.5-7.9-.9-13.5-8-12.5-15.9.9-7.8 8-13.5 15.9-12.5 7.8.9 13.4 8 12.5 15.9zm-29.5-22.8l-4-6.8c-15.1 8.7-20.2 28-11.5 43.1l6.8-4c-6.5-11.3-2.6-25.8 8.7-32.3z"/><path class="st7" d="M806.2 224.9l-4-6.8c-22.6 13.1-30.4 42-17.3 64.7l6.8-4c-10.8-18.7-4.4-42.9 14.5-53.9z"/><path class="st11" d="M690.1 288.4c-12.2-22.6-13.3-48.7-4.7-71.6h-8.4c-7.8 23-6.8 48.7 4.2 71.6h8.9zm27.8-1.5c-10.3-22.9-9.8-48.3-.3-70.2h-8.6c-8.7 22.1-9 47.2.3 70.2h8.6z"/><path class="st17" d="M743.9 286.9c-12-22.8-10.3-49.5 2.5-70.2h-9.1c-11.4 21.3-12.8 47.2-2.2 70.2h8.8z"/><path class="st16" d="M763.3 287.2l5.1-3c-13-22.5-8.3-50.3 9.6-67.5h-11.1c-15.7 19.5-18.9 47.3-6.2 70.4l2.6.1z"/></g><path class="st1" d="M.5 288h872v72h-872z"/><path class="st13" d="M525 288l-39.1 71.7h-485.6v-71.7zm0 143.8l-39.1 71.7h-485.6v-71.7zm0 72.2l-39.1 71.7h-485.6v-71.7z"/><path class="st3" d="M.1 143.7h872v72h-872z"/><path class="st11" d="M494.7 183h7.5v7.7h-7.5zm0 15.5h7.5v7.7h-7.5zm83.5-7.7h7.5v7.7h-7.5zm7.5 7.7h7.5v7.7h-7.5zm0-15.5h7.5v7.7h-7.5zm-7.5-7.7h7.5v7.7h-7.5zm0-30.8h7.5v7.7h-7.5zm7.5 7.7h7.5v7.7h-7.5zm-7.5 7.7h7.5v7.7h-7.5zm7.5 7.7h7.5v7.7h-7.5zm7.6-23.1h7.5v7.7h-7.5zm7.5 7.7h7.5v7.7h-7.5zm7.5 7.7h7.5v7.7h-7.5zm-7.5 7.7h7.5v7.7h-7.5zm7.5 7.7h7.5v7.7h-7.5zm-7.5 7.7h7.5v7.7h-7.5zm7.5 7.8h7.5v7.7h-7.5zm-15-30.9h7.5v7.7h-7.5zm0 15.4h7.5v7.7h-7.5zm0 15.5h7.5v7.7h-7.5zm21.5-7.8h7.5v7.7h-7.5zm8.5 7.8h7.5v7.7h-7.5zm-7.5-23.2h7.5v7.7h-7.5zm7.5 7.7h7.5v7.7h-7.5zm7.5 7.7h7.5v7.7h-7.5zm-30 15.5h7.5v7.7h-7.5zm15 0h7.5v7.7h-7.5zm15 0h7.5v7.7h-7.5zm7.6-7.7h7.5v7.7h-7.5zm7.5 7.7h7.5v7.7h-7.5zm0-15.5h7.5v7.7h-7.5zm-7.5-7.7h7.5v7.7h-7.5zm-7.6-7.7h7.5v7.7h-7.5zm-7.5-7.7h7.5v7.7h-7.5zm-7.5-7.7h7.5v7.7h-7.5zm-7.5-7.7h7.5v7.7h-7.5zm15 0h7.5v7.7h-7.5zm7.5 7.7h7.5v7.7h-7.5zm7.6-7.7h7.5v7.7h-7.5zm7.5 7.7h7.5v7.7h-7.5zm-7.5 7.7h7.5v7.7h-7.5zm7.5 7.7h7.5v7.7h-7.5zm7.5-23.1h7.5v7.7h-7.5zm7.5 7.7h7.5v7.7h-7.5zm7.6 7.7h7.5v7.7h-7.5zm-7.6 7.7h7.5v7.7h-7.5zm7.6 7.7h7.5v7.7h-7.5zm-7.6 7.7h7.5v7.7h-7.5zm7.6 7.8h7.5v7.7h-7.5zm-15.1-30.9h7.5v7.7h-7.5zm0 15.4h7.5v7.7h-7.5zm0 15.5h7.5v7.7h-7.5zm21.6-7.8h7.5v7.7h-7.5zm8.5 7.8h7.5v7.7h-7.5zm-7.5-23.2h7.5v7.7h-7.5zm7.5 7.7h7.5v7.7h-7.5zm7.5 7.7h7.5v7.7h-7.5zm-30.1 15.5h7.5v7.7h-7.5zm15.1 0h7.5v7.7h-7.5zm15 0h7.5v7.7h-7.5zm7.5-7.7h7.5v7.7h-7.5zm7.5 7.7h7.5v7.7h-7.5zm0-15.5h7.5v7.7h-7.5zm-7.5-7.7h7.5v7.7h-7.5zm-7.5-7.7h7.5v7.7h-7.5zm-7.5-7.7h7.5v7.7h-7.5zm-7.5-7.7h7.5v7.7h-7.5zm-7.5-7.7h7.5v7.7h-7.5zm15 0h7.5v7.7h-7.5zm7.5 7.7h7.5v7.7h-7.5zm7.5-7.7h7.5v7.7h-7.5zm7.5 7.7h7.5v7.7h-7.5zm-7.5 7.7h7.5v7.7h-7.5zm7.5 7.7h7.5v7.7h-7.5zm7.6-23.1h7.5v7.7h-7.5zm7.5 7.7h7.5v7.7h-7.5zm7.5 7.7h7.5v7.7h-7.5zm-7.5 7.7h7.5v7.7h-7.5zm7.5 7.7h7.5v7.7h-7.5zm-7.5 7.7h7.5v7.7h-7.5zm7.5 7.8h7.5v7.7h-7.5zm-15-30.9h7.5v7.7h-7.5zm0 15.4h7.5v7.7h-7.5zm0 15.5h7.5v7.7h-7.5zm21.5-7.8h7.5v7.7h-7.5zm8.6 7.8h7.5v7.7h-7.5zm-7.6-23.2h7.5v7.7h-7.5zm7.6 7.7h7.5v7.7h-7.5zm7.5 7.7h7.5v7.7h-7.5zm-30.1 15.5h7.5v7.7h-7.5zm15 0h7.5v7.7h-7.5zm15.1 0h7.5v7.7h-7.5zm7.5-7.7h7.5v7.7h-7.5zm7.5 7.7h7.5v7.7h-7.5zm0-15.5h7.5v7.7h-7.5zm-7.5-7.7h7.5v7.7h-7.5zm-7.5-7.7h7.5v7.7h-7.5zm-7.5-7.7h7.5v7.7h-7.5zm-7.6-7.7h7.5v7.7h-7.5zm-7.5-7.7h7.5v7.7h-7.5zm15.1 0h7.5v7.7h-7.5zm7.5 7.7h7.5v7.7h-7.5zm7.5-7.7h7.5v7.7h-7.5zm7.5 7.7h7.5v7.7h-7.5zm-7.5 7.7h7.5v7.7h-7.5zm7.5 7.7h7.5v7.7h-7.5zm7.5-23.1h7.5v7.7h-7.5zm7.6 7.7h7.5v7.7h-7.5zm7.5 7.7h7.5v7.7h-7.5zm-7.5 7.7h7.5v7.7h-7.5zm7.5 7.7h7.5v7.7h-7.5zm-7.5 7.7h7.5v7.7h-7.5zm7.5 7.8h7.5v7.7h-7.5zm-15.1-30.9h7.5v7.7h-7.5zm0 15.4h7.5v7.7h-7.5zm0 15.5h7.5v7.7h-7.5zm21.6-7.8h7.5v7.7h-7.5zm8.5 7.8h7.5v7.7h-7.5zm-7.5-23.2h7.5v7.7h-7.5zm7.5 7.7h7.5v7.7h-7.5zm7.5 7.7h7.5v7.7h-7.5zm-30 15.5h7.5v7.7h-7.5zm15 0h7.5v7.7h-7.5zm15 0h7.5v7.7h-7.5zm7.6-7.7h7.5v7.7h-7.5zm7.5 7.7h7.5v7.7h-7.5zm0-15.5h7.5v7.7h-7.5zm-7.5-7.7h7.5v7.7h-7.5zm-7.6-7.7h7.5v7.7h-7.5zm-7.5-7.7h7.5v7.7h-7.5zm-7.5-7.7h7.5v7.7h-7.5zm-7.5-7.7h7.5v7.7h-7.5zm15 0h7.5v7.7h-7.5zm7.5 7.7h7.5v7.7h-7.5zm7.6-7.7h7.5v7.7h-7.5zm7.5 7.7h7.5v7.7h-7.5zm-7.5 7.7h7.5v7.7h-7.5zm7.5 7.7h7.5v7.7h-7.5zm7.5-7.7h7.5v7.7h-7.5zm0 15.4h7.5v7.7h-7.5zm0 15.5h7.5v7.7h-7.5zm6.5-7.8h7.5v7.7h-7.5zm8.5 7.8h7.5v7.7h-7.5zm-7.5-23.2h7.5v7.7h-7.5zm7.5 7.7h7.5v7.7h-7.5zm7.6 7.7h7.5v7.7h-7.5zm-15.1 15.5h7.5v7.7h-7.5zm15.1 0h7.5v7.7h-7.5zm7.5-7.7h7.5v7.7h-7.5zm0-15.5h7.5v7.7h-7.5zm-7.5-7.7h7.5v7.7h-7.5zm-7.6-7.7h7.5v7.7h-7.5zm-7.5-7.7h7.5v7.7h-7.5zm-7.5-7.7h7.5v7.7h-7.5zm15 0h7.5v7.7h-7.5zm7.6 7.7h7.5v7.7h-7.5zm7.5-7.7h7.5v7.7h-7.5zm0 15.4h7.5v7.7h-7.5zm-376.8 47h7.5v7.7h-7.5zm91 0h7.5v7.7h-7.5zm30.1 0h7.5v7.7h-7.5zm-15 0h7.5v7.7h-7.5zm30 0h7.5v7.7h-7.5zm15.1 0h7.5v7.7h-7.5zm30.1 0h7.5v7.7h-7.5zm-15.1 0h7.5v7.7h-7.5zm-143.9-23.9h7.5v7.7h-7.5zm8.5 7.8h7.5v7.7h-7.5zm-7.5-23.2h7.5v7.7h-7.5zm7.5 7.7h7.5v7.7h-7.5zm7.5 7.7h7.5v7.7h-7.5zm-15 15.5h7.5v7.7h-7.5zm15 0h7.5v7.7h-7.5zm7.6-7.7h7.5v7.7h-7.5zm7.5 7.7h7.5v7.7h-7.5zm0-15.5h7.5v7.7h-7.5zm-7.5-7.7h7.5v7.7h-7.5zm-7.6-7.7h7.5v7.7h-7.5zm-7.5-7.7h7.5v7.7h-7.5zm-7.5-7.7h7.5v7.7h-7.5zm7.5-7.7h7.5v7.7h-7.5zm7.5 7.7h7.5v7.7h-7.5zm7.6-7.7h7.5v7.7h-7.5zm7.5 7.7h7.5v7.7h-7.5zm-7.5 7.7h7.5v7.7h-7.5zm7.5 7.7h7.5v7.7h-7.5zm7.5-23.1h7.5v7.7h-7.5zm7.5 7.7h7.5v7.7h-7.5zm7.6 7.7h7.5v7.7h-7.5zm-7.6 7.7h7.5v7.7h-7.5zm7.6 7.7h7.5v7.7h-7.5zm-7.6 7.7h7.5v7.7h-7.5zm7.6 7.8h7.5v7.7h-7.5zm-15.1-30.9h7.5v7.7h-7.5zm0 15.4h7.5v7.7h-7.5zm0 15.5h7.5v7.7h-7.5zm21.6-7.8h7.5v7.7h-7.5zm1-15.4h7.5v7.7h-7.5zm-15.1 30.9h7.5v7.7h-7.5zm15.1 0h7.5v7.7h-7.5zm0-46.3h7.5v7.7h-7.5zm-7.5-7.7h7.5v7.7h-7.5zm-45.2 62.4h7.5v7.7h-7.5zm-15.8-16.1h7.5v7.7h-7.5zm0-15.5h7.5v7.7h-7.5zm0 31.6h7.5v7.7h-7.5zm30.9 0h7.5v7.7h-7.5zm30.1 0h7.5v7.7h-7.5zm-15.1 0h7.5v7.7h-7.5zm135.4 0h7.5v7.7h-7.5zm15 0h7.5v7.7h-7.5zm30.1 0h7.5v7.7h-7.5zm-15 0h7.5v7.7h-7.5zm30.1 0h7.5v7.7h-7.5zm15 0h7.5v7.7h-7.5zm30.1 0h7.5v7.7h-7.5zm-15.1 0h7.5v7.7h-7.5zm30.1 0h7.5v7.7h-7.5zm15.1 0h7.5v7.7h-7.5zm15 0h7.5v7.7h-7.5zm15 0h7.5v7.7h-7.5zm15.1 0h7.5v7.7h-7.5z"/><path class="st14" d="M537.198 414.82l-2.9-.015.014-3 2.9.014zm-31.226 7.385l-2.9-.012.013-3 2.9.012zm-1.472-38.705l43.7 20.8 50.5-4 21.3-25.2 49.1 6.5 19.6-21.8"/><path class="st13" d="M525 360.2l-39.1 71.7h-485.6v-71.7z"/><path class="st12" d="M524.6 143.9l-39.1 71.7h-485.6v-71.7zm0 71.9l-39.1 71.7h-485.6v-71.7z"/><path class="st9" d="M643.8 72.8l2.1-40-44.7-2.3-7-11.4-32.1-1.7-2.9 55.4z"/><path class="st6" d="M574.3 72.8l3.4-29.1-17.5 12.5-.9 16.6z"/><path class="st4" d="M623.3 15.7l-17 3.2 6 32.3 26.2-4.9-4.3-23-10.9-7.6z"/><path class="st10" d="M624.9 25l9.3-1.7-11-7.5z"/><path class="st4" d="M661.3 7.8l-12.3-4.6-8.7 23.4 19 7.1 6.2-16.7-4.2-9.2z"/><path class="st10" d="M658.7 14.5l6.7 2.5-4.2-9.2zm-14.2 58.3l12.7-31.5-78.5-4.2-14.1 35.7z"/><path class="st9" d="M643.8 144.1l2.1-40-44.7-2.3-7-11.4-32.1-1.7-2.9 55.4z"/><path class="st6" d="M574.3 144.1l3.4-29.1-17.5 12.5-.9 16.6z"/><path class="st4" d="M623.3 87.1l-17 3.2 6 32.3 26.2-4.9-4.3-23-10.9-7.6z"/><path class="st10" d="M624.9 96.3l9.3-1.7-11-7.5z"/><path class="st4" d="M661.3 79.1l-12.3-4.6-8.7 23.5 19 7.1 6.2-16.7-4.2-9.3z"/><path class="st10" d="M658.7 85.8l6.7 2.5-4.2-9.2zm-14.2 58.3l12.7-31.5-78.5-4.1-14.1 35.6z"/><path class="st9" d="M643.8 214.9l2.1-39.9-44.7-2.4-7-11.3-32.1-1.7-2.9 55.3z"/><path class="st6" d="M574.3 214.9l3.4-29-17.5 12.4-.9 16.6z"/><path class="st4" d="M623.3 157.9l-17 3.2 6 32.3 26.2-4.9-4.3-23-10.9-7.6z"/><path class="st10" d="M624.9 167.2l9.3-1.7-11-7.6z"/><path class="st4" d="M661.3 150l-12.3-4.6-8.7 23.4 19 7.1 6.2-16.7-4.2-9.2z"/><path class="st10" d="M658.7 156.6l6.7 2.5-4.2-9.2zm-14.2 58.3l12.7-31.4-78.5-4.2-14.1 35.6z"/><path class="st9" d="M643.8 287.4l2.1-39.9-44.7-2.4-7-11.4-32.1-1.7-2.9 55.4z"/><path class="st6" d="M574.3 287.4l3.4-29.1-17.5 12.5-.9 16.6z"/><path class="st4" d="M623.3 230.4l-17 3.2 6 32.3 26.2-4.9-4.3-23-10.9-7.6z"/><path class="st10" d="M624.9 239.6l9.3-1.7-11-7.5z"/><path class="st4" d="M661.3 222.4l-12.3-4.6-8.7 23.4 19 7.1 6.2-16.7-4.2-9.2z"/><path class="st10" d="M658.7 229.1l6.7 2.5-4.2-9.2zm-14.2 58.3l12.7-31.5-78.5-4.1-14.1 35.6z"/><path class="st9" d="M643.8 359.8l2.1-40-44.7-2.3-7-11.4-32.1-1.7-2.9 55.4z"/><path class="st6" d="M574.3 359.8l3.4-29.1-17.5 12.5-.9 16.6z"/><path class="st4" d="M623.3 302.8l-17 3.2 6 32.3 26.2-4.9-4.3-23-10.9-7.6z"/><path class="st10" d="M624.9 312l9.3-1.7-11-7.5z"/><path class="st4" d="M661.3 294.8l-12.3-4.6-8.7 23.4 19 7.1 6.2-16.7-4.2-9.2z"/><path class="st10" d="M658.7 301.5l6.7 2.5-4.2-9.2zm-14.2 58.3l12.7-31.5-78.5-4.1-14.1 35.6z"/><path class="st9" d="M643.8 432.3l2.1-39.9-44.7-2.4-7-11.4-32.1-1.7-2.9 55.4z"/><path class="st6" d="M574.3 432.3l3.4-29.1-17.5 12.5-.9 16.6z"/><path class="st4" d="M623.3 375.3l-17 3.2 6 32.3 26.2-4.9-4.3-23-10.9-7.6z"/><path class="st10" d="M624.9 384.5l9.3-1.7-11-7.5z"/><path class="st4" d="M661.3 367.3l-12.3-4.6-8.7 23.4 19 7.1 6.2-16.7-4.2-9.2z"/><path class="st10" d="M658.7 374l6.7 2.5-4.2-9.2zm-14.2 58.3l12.7-31.5-78.5-4.1-14.1 35.6z"/><path class="st9" d="M643.8 503.7l2.1-39.9-44.7-2.4-7-11.4-32.1-1.7-2.9 55.4z"/><path class="st6" d="M574.3 503.7l3.4-29.1-17.5 12.5-.9 16.6z"/><path class="st4" d="M623.3 446.7l-17 3.2 6 32.3 26.2-4.9-4.3-23-10.9-7.6z"/><path class="st10" d="M624.9 456l9.3-1.8-11-7.5z"/><path class="st4" d="M661.3 438.7l-12.3-4.6-8.7 23.4 19 7.1 6.2-16.7-4.2-9.2z"/><path class="st10" d="M658.7 445.4l6.7 2.5-4.2-9.2zm-14.2 58.3l12.7-31.5-78.5-4.1-14.1 35.6z"/><path class="st9" d="M643.8 576.6l2.1-39.9-44.7-2.4-7-11.3-32.1-1.7-2.9 55.3z"/><path class="st6" d="M574.3 576.6l3.4-29-17.5 12.4-.9 16.6z"/><path class="st4" d="M623.3 519.6l-17 3.2 6 32.3 26.2-4.9-4.3-23-10.9-7.6z"/><path class="st10" d="M624.9 528.9l9.3-1.7-11-7.6z"/><path class="st4" d="M661.3 511.6l-12.3-4.6-8.7 23.4 19 7.1 6.2-16.7-4.2-9.2z"/><path class="st10" d="M658.7 518.3l6.7 2.5-4.2-9.2zm-14.2 58.3l12.7-31.4-78.5-4.2-14.1 35.6z"/></svg>