<svg xmlns="http://www.w3.org/2000/svg" width="872" height="576.6" viewBox="0 0 872 576.6"><style type="text/css"><![CDATA[
	.st0{fill:#4A4949;}	.st1{fill:#E6E6E6;}	.st2{fill:#E8C7A7;}	.st3{opacity:0.18;}
	.st4{fill:#EBD1B9;}	.st5{fill:#535252;}	.st6{opacity:0.75;fill:#3D3D3C;enable-background:new;}
	.st7{opacity:0.13;fill:none;stroke:#010202;stroke-width:0.75;enable-background:new;}
	.st8{fill:none;stroke:#CEB39A;stroke-width:2;}	.st9{fill:#FFFFFF;}
	.st10{opacity:0.1;fill:#3D3D3C;enable-background:new;}
	.st11{fill:#CFCFCF;}	.st12{fill:none;stroke:#444444;stroke-width:2;}
	.st13{fill:#545454;enable-background:new;}	.st14{fill:#3D3D3C;}
	.st15{opacity:0.5;fill:#3D3D3C;enable-background:new;}
	.st16{opacity:0.25;fill:#3D3D3C;enable-background:new;}
]]></style><path class="st2" d="M.1 0h872v72h-872zm.1 72h872v72h-872z"/><path class="st8" d="M817.016 85.594l2.9.014-.014 3-2.9-.014zm-12.603 25.101l2.9.012-.012 3-2.9-.012zm-6.997-15.301l2.9.014-.014 3-2.9-.014zm61.901 9.2l2.9.014-.015 3-2.9-.014zm-20.397 6.3l2.9.015-.016 3-2.9-.016zm-117.205 12.1l3 .014-.014 3-3-.014zm37.6-13.7l2.9.014-.014 3-2.9-.014zm-17.797-8l3 .015-.016 3-3-.016zm29.798-25.5l2.9.014-.015 3-2.9-.014zm-83.201 11.3l3 .014-.014 3-3-.014zm-68.101 26.7l2.9.014-.014 3-2.9-.014zm-12.599-34.7l2.9.014-.015 3-2.9-.014zm-34.102 41l2.9.014-.014 3-2.9-.014zm-27.498-31.6l2.9.014-.016 3-2.9-.014zm-11.503 35.301l2.9.013-.013 3-2.9-.013zm-31.2 7.4l2.9.013-.014 3-2.9-.013zm56.903-28.501l3 .015-.015 3-3-.016zm92.001-23.6l2.9.014-.015 3-2.9-.014zm50.301 53.6l3 .016-.015 3-3-.016zm-197.817-37.294l43.7 20.8 50.5-4 21.3-25.2 49.1 6.5 19.6-21.8m-68.7 71l32-31.9 89 3 19.3 13.5 38.5-55.6m72.8 64l-39-46.4-15.1 40.4-39.2-2.4-11 15.4"/><path class="st8" d="M656.818 122.994l2.9.016-.017 3-2.9-.016zm51.095-42.5l2.9.013-.013 3-2.9-.013z"/><path class="st0" d="M.2 360.2h872v72h-872z"/><path class="st12" d="M817.016 373.797l2.9.014-.014 3-2.9-.013zm-12.603 25.2l2.9.012-.012 3-2.9-.013zm-6.997-15.4l2.9.014-.014 3-2.9-.013zm61.901 9.201l2.9.013-.015 3-2.9-.012zm-20.397 6.3l2.9.016-.016 3-2.9-.016zm-117.206 12.099l3 .014-.013 3-3-.013zm37.602-13.699l2.9.013-.015 3-2.9-.012zm-17.798-8.001l3 .016-.016 3-3-.016zm29.798-25.5l2.9.014-.015 3-2.9-.013zm-83.202 11.3l3 .014-.014 3-3-.013zm-68.1 26.701l2.9.013-.014 3-2.9-.011zm-12.597-34.701l2.9.016-.016 3-2.9-.016zm-34.104 41.001l2.9.013-.014 3-2.9-.012zm-27.497-31.6l2.9.015-.016 3-2.9-.015zm-11.503 35.3l2.9.013-.014 3-2.9-.012zm25.702-21.1l3 .015-.015 3-3-.015zm92.003-23.6l2.9.015-.017 3-2.9-.015zm50.299 53.6l3 .015-.015 3-3-.015zm-82.317 10.002l32-31.9 89 3 19.3 13.5 38.5-55.6m72.8 64l-39-46.4-15.1 40.4-39.2-2.4-11 15.4"/><path class="st7" d="M729.3 361.3"/><path class="st12" d="M656.818 411.198l2.9.016-.017 3-2.9-.016zm51.094-42.501l2.9.012-.012 3-2.9-.013z"/><path class="st0" d="M.1 431.9h872v72h-872z"/><path class="st5" d="M503 463.5h7.5v7.7h-7.5zm-7.5 7.7h7.5v7.7h-7.5zm7.5 7.8h7.5v7.7h-7.5zm6.6-7.8h7.5v7.7h-7.5zm8.5 7.8h7.5v7.7h-7.5zm-7.5-23.2h7.5v7.7h-7.5zm7.5 7.7h7.5v7.7h-7.5zm52.6 7.7h7.5v7.7h-7.5zm-75.2 15.5h7.5v7.7h-7.5zm-7.5 8.4h7.5v7.7h-7.5zm22.6-8.4h7.5v7.7h-7.5zm60.1 0h7.5v7.7h-7.5zm7.5-7.7h7.5v7.7h-7.5zm7.5 7.7h7.5v7.7h-7.5zm0-15.5h7.5v7.7h-7.5zm-7.5-7.7h7.5v7.7h-7.5zm-7.5-7.7h7.5v7.7h-7.5zm-52.6-7.7h7.5v7.7h-7.5zm-7.5-7.7h7.5v7.7h-7.5zm7.5-7.7h7.5v7.7h-7.5zm52.6 7.7h7.5v7.7h-7.5zm7.5-7.7h7.5v7.7h-7.5zm7.5 7.7h7.5v7.7h-7.5zm-7.5 7.7h7.5v7.7h-7.5zm7.5 7.7h7.5v7.7h-7.5zm7.6-23.1h7.5v7.7h-7.5zm7.5 7.7h7.5v7.7h-7.5zm7.5 7.7h7.5v7.7h-7.5zm-7.5 7.7h7.5v7.7h-7.5zm7.5 7.7h7.5v7.7h-7.5zm-7.5 7.7h7.5v7.7h-7.5zm7.5 7.8h7.5v7.7h-7.5zm-15-30.9h7.5v7.7h-7.5zm0 15.4h7.5v7.7h-7.5zm0 15.5h7.5v7.7h-7.5zm21.5-7.8h7.5v7.7h-7.5zm8.5 7.8h7.5v7.7h-7.5zm-7.5-23.2h7.5v7.7h-7.5zm7.5 7.7h7.5v7.7h-7.5zm7.5 7.7h7.5v7.7h-7.5zm-30 15.5h7.5v7.7h-7.5zm15 0h7.5v7.7h-7.5zm15 0h7.5v7.7h-7.5zm7.6-7.7h7.5v7.7h-7.5zm7.5 7.7h7.5v7.7h-7.5zm0-15.5h7.5v7.7h-7.5zm-7.5-7.7h7.5v7.7h-7.5zm-7.6-7.7h7.5v7.7h-7.5zm-7.5-7.7h7.5v7.7h-7.5zm-7.5-7.7h7.5v7.7h-7.5zm-7.5-7.7h7.5v7.7h-7.5zm15 0h7.5v7.7h-7.5zm7.5 7.7h7.5v7.7h-7.5zm7.6-7.7h7.5v7.7h-7.5zm7.5 7.7h7.5v7.7h-7.5zm-7.5 7.7h7.5v7.7h-7.5zm7.5 7.7h7.5v7.7h-7.5zm7.5-23.1h7.5v7.7h-7.5zm7.5 7.7h7.5v7.7h-7.5zm7.6 7.7h7.5v7.7h-7.5zm-7.6 7.7h7.5v7.7h-7.5zm7.6 7.7h7.5v7.7h-7.5zm-7.6 7.7h7.5v7.7h-7.5zm7.6 7.8h7.5v7.7h-7.5zm-15.1-30.9h7.5v7.7h-7.5zm0 15.4h7.5v7.7h-7.5zm0 15.5h7.5v7.7h-7.5zm21.6-7.8h7.5v7.7h-7.5zm8.5 7.8h7.5v7.7h-7.5zm-7.5-23.2h7.5v7.7h-7.5zm7.5 7.7h7.5v7.7h-7.5zm7.5 7.7h7.5v7.7h-7.5zm-30.1 15.5h7.5v7.7h-7.5zm15.1 0h7.5v7.7h-7.5zm15 0h7.5v7.7h-7.5zm7.5-7.7h7.5v7.7h-7.5zm7.5 7.7h7.5v7.7h-7.5zm0-15.5h7.5v7.7h-7.5zm-7.5-7.7h7.5v7.7h-7.5zm-7.5-7.7h7.5v7.7h-7.5zm-7.5-7.7h7.5v7.7h-7.5zm-7.5-7.7h7.5v7.7h-7.5zm-7.5-7.7h7.5v7.7h-7.5zm15 0h7.5v7.7h-7.5zm7.5 7.7h7.5v7.7h-7.5zm7.5-7.7h7.5v7.7h-7.5zm7.5 7.7h7.5v7.7h-7.5zm-7.5 7.7h7.5v7.7h-7.5zm7.5 7.7h7.5v7.7h-7.5zm7.6-23.1h7.5v7.7h-7.5zm7.5 7.7h7.5v7.7h-7.5zm7.5 7.7h7.5v7.7h-7.5zm-7.5 7.7h7.5v7.7h-7.5zm7.5 7.7h7.5v7.7h-7.5zm-7.5 7.7h7.5v7.7h-7.5zm7.5 7.8h7.5v7.7h-7.5zm-15-30.9h7.5v7.7h-7.5zm0 15.4h7.5v7.7h-7.5zm0 15.5h7.5v7.7h-7.5zm21.5-7.8h7.5v7.7h-7.5zm8.6 7.8h7.5v7.7h-7.5zm-7.6-23.2h7.5v7.7h-7.5zm7.6 7.7h7.5v7.7h-7.5zm7.5 7.7h7.5v7.7h-7.5zm-30.1 15.5h7.5v7.7h-7.5zm15 0h7.5v7.7h-7.5zm15.1 0h7.5v7.7h-7.5zm7.5-7.7h7.5v7.7h-7.5zm7.5 7.7h7.5v7.7h-7.5zm0-15.5h7.5v7.7h-7.5zm-7.5-7.7h7.5v7.7h-7.5zm-7.5-7.7h7.5v7.7h-7.5zm-7.5-7.7h7.5v7.7h-7.5zm-7.6-7.7h7.5v7.7h-7.5zm-7.5-7.7h7.5v7.7h-7.5zm15.1 0h7.5v7.7h-7.5zm7.5 7.7h7.5v7.7h-7.5zm7.5-7.7h7.5v7.7h-7.5zm7.5 7.7h7.5v7.7h-7.5zm-7.5 7.7h7.5v7.7h-7.5zm7.5 7.7h7.5v7.7h-7.5zm7.5-23.1h7.5v7.7h-7.5zm7.6 7.7h7.5v7.7h-7.5zm7.5 7.7h7.5v7.7h-7.5zm-7.5 7.7h7.5v7.7h-7.5zm7.5 7.7h7.5v7.7h-7.5zm-7.5 7.7h7.5v7.7h-7.5zm7.5 7.8h7.5v7.7h-7.5zm-15.1-30.9h7.5v7.7h-7.5zm0 15.4h7.5v7.7h-7.5zm0 15.5h7.5v7.7h-7.5zm21.6-7.8h7.5v7.7h-7.5zm8.5 7.8h7.5v7.7h-7.5zm-7.5-23.2h7.5v7.7h-7.5zm7.5 7.7h7.5v7.7h-7.5zm7.5 7.7h7.5v7.7h-7.5zm-30 15.5h7.5v7.7h-7.5zm15 0h7.5v7.7h-7.5zm15 0h7.5v7.7h-7.5zm7.6-7.7h7.5v7.7h-7.5zm7.5 7.7h7.5v7.7h-7.5zm0-15.5h7.5v7.7h-7.5zm-7.5-7.7h7.5v7.7h-7.5zm-7.6-7.7h7.5v7.7h-7.5zm-7.5-7.7h7.5v7.7h-7.5zm-7.5-7.7h7.5v7.7h-7.5zm-7.5-7.7h7.5v7.7h-7.5zm15 0h7.5v7.7h-7.5zm7.5 7.7h7.5v7.7h-7.5zm7.6-7.7h7.5v7.7h-7.5zm7.5 7.7h7.5v7.7h-7.5zm-7.5 7.7h7.5v7.7h-7.5zm7.5 7.7h7.5v7.7h-7.5zm7.5-7.7h7.5v7.7h-7.5zm0 15.4h7.5v7.7h-7.5zm0 15.5h7.5v7.7h-7.5zm6.5-7.8h7.5v7.7h-7.5zm8.5 7.8h7.5v7.7h-7.5zm-7.5-23.2h7.5v7.7h-7.5zm7.5 7.7h7.5v7.7h-7.5zm7.6 7.7h7.5v7.7h-7.5zm-15.1 15.5h7.5v7.7h-7.5zm15.1 0h7.5v7.7h-7.5zm7.5-7.7h7.5v7.7h-7.5zm0-15.5h7.5v7.7h-7.5zm-7.5-7.7h7.5v7.7h-7.5zm-7.6-7.7h7.5v7.7h-7.5zm-7.5-7.7h7.5v7.7h-7.5zm-7.5-7.7h7.5v7.7h-7.5zm15 0h7.5v7.7h-7.5zm7.6 7.7h7.5v7.7h-7.5zm7.5-7.7h7.5v7.7h-7.5zm0 15.4h7.5v7.7h-7.5zm-361 47h7.5v7.7h-7.5zm15.1 0h7.5v7.7h-7.5zm60.1 0h7.5v7.7h-7.5zm30.1 0h7.5v7.7h-7.5zm-15 0h7.5v7.7h-7.5zm30 0h7.5v7.7h-7.5zm-97.8-8.4h7.5v7.7h-7.5zm0-15.5h7.5v7.7h-7.5zm0-30.8h7.5v7.7h-7.5zm0 15.4h7.5v7.7h-7.5zm7.6-23.1h7.5v7.7h-7.5zm7.5 7.7h7.5v7.7h-7.5zm7.5 7.7h7.5v7.7h-7.5zm-7.5 7.7h7.5v7.7h-7.5zm7.5 7.7h7.5v7.7h-7.5zm-7.5 7.7h7.5v7.7h-7.5zm7.5 7.8h7.5v7.7h-7.5zm-15-30.9h7.5v7.7h-7.5zm0 15.4h7.5v7.7h-7.5zm0 15.5h7.5v7.7h-7.5zm21.5-7.8h7.5v7.7h-7.5zm8.5 7.8h7.5v7.7h-7.5zm-7.5-23.2h7.5v7.7h-7.5zm7.5 7.7h7.5v7.7h-7.5zm-22.5 23.2h7.5v7.7h-7.5zm15 0h7.5v7.7h-7.5zm7.5-38.6h7.5v7.7h-7.5zm-7.5-7.7h7.5v7.7h-7.5zm-7.5-7.7h7.5v7.7h-7.5zm15 0h7.5v7.7h-7.5zm-15 62.4h7.5v7.7h-7.5zm-15 0h7.5v7.7h-7.5zm30 0h7.5v7.7h-7.5zm75.3 0h7.5v7.7h-7.5zm30.1 0h7.5v7.7h-7.5zm-15.1 0h7.5v7.7h-7.5zm30.1 0h7.5v7.7h-7.5zm15 0h7.5v7.7h-7.5zm30.1 0h7.5v7.7h-7.5zm-15 0h7.5v7.7h-7.5zm30.1 0h7.5v7.7h-7.5zm15 0h7.5v7.7h-7.5zm30.1 0h7.5v7.7h-7.5zm-15.1 0h7.5v7.7h-7.5zm30.1 0h7.5v7.7h-7.5zm15.1 0h7.5v7.7h-7.5zm15 0h7.5v7.7h-7.5zm15 0h7.5v7.7h-7.5zm15.1 0h7.5v7.7h-7.5z"/><path class="st0" d="M.4 504.1h872v72h-872z"/><path class="st14" d="M853.3 552.3c-.9 7.8-8 13.4-15.9 12.5-7.9-.9-13.5-8-12.5-15.9.9-7.8 8-13.5 15.9-12.5 7.8.9 13.4 8 12.5 15.9zm-29.5-22.8l-4-6.8c-15.1 8.7-20.2 28-11.5 43.1l6.8-4c-6.5-11.3-2.6-25.8 8.7-32.3z"/><path class="st6" d="M806.2 513.2l-4-6.8c-22.6 13.1-30.4 42-17.3 64.7l6.8-4c-10.8-18.8-4.4-43 14.5-53.9z"/><path class="st10" d="M690.1 576.6c-12.2-22.6-13.3-48.7-4.7-71.6h-8.4c-7.8 23-6.8 48.7 4.2 71.6h8.9zm27.8-1.5c-10.3-22.9-9.8-48.3-.3-70.2h-8.6c-8.7 22.1-9 47.2.3 70.2h8.6z"/><path class="st16" d="M743.9 575.1c-12-22.8-10.3-49.5 2.5-70.2h-9.1c-11.4 21.3-12.8 47.2-2.2 70.2h8.8z"/><path class="st15" d="M763.3 575.4l5.1-3c-13-22.5-8.3-50.3 9.6-67.5h-11.1c-15.7 19.5-18.9 47.3-6.2 70.4l2.6.1z"/><path class="st4" d="M524.6 0l-39.1 71.7h-485.6v-71.7zm0 72l-39.1 71.7h-485.6v-71.7z"/><path class="st2" d="M.4 215.9h872v72h-872z"/><g class="st3"><path class="st14" d="M853.3 264.1c-.9 7.8-8 13.4-15.9 12.5-7.9-.9-13.5-8-12.5-15.9.9-7.8 8-13.5 15.9-12.5 7.8.9 13.4 8 12.5 15.9zm-29.5-22.8l-4-6.8c-15.1 8.7-20.2 28-11.5 43.1l6.8-4c-6.5-11.3-2.6-25.8 8.7-32.3z"/><path class="st6" d="M806.2 224.9l-4-6.8c-22.6 13.1-30.4 42-17.3 64.7l6.8-4c-10.8-18.7-4.4-42.9 14.5-53.9z"/><path class="st10" d="M690.1 288.4c-12.2-22.6-13.3-48.7-4.7-71.6h-8.4c-7.8 23-6.8 48.7 4.2 71.6h8.9zm27.8-1.5c-10.3-22.9-9.8-48.3-.3-70.2h-8.6c-8.7 22.1-9 47.2.3 70.2h8.6z"/><path class="st16" d="M743.9 286.9c-12-22.8-10.3-49.5 2.5-70.2h-9.1c-11.4 21.3-12.8 47.2-2.2 70.2h8.8z"/><path class="st15" d="M763.3 287.2l5.1-3c-13-22.5-8.3-50.3 9.6-67.5h-11.1c-15.7 19.5-18.9 47.3-6.2 70.4l2.6.1z"/></g><path class="st9" d="M564.5 72l-7.2-53.5 84.3-13 25.5 21.1 4.7 45.4"/><path class="st1" d="M560.2 20.4l34.7-5.4.3 1.9-34.8 5.5z"/><path class="st11" d="M670.8 72h1.9l-4.7-45.9-26.2-21.6-85.6 13.2 7.3 54.3h2l-.6-4.1 103.8-16.2 2.1 20.3zm-112.4-52.7l83.1-12.8 1.2 10.8-82.9 12.7-1.4-10.7zm1.7 12.9l82.7-13.1 1.2 11 22-3.1 1.2 11.4-104.1 16.2-3-22.4zm4.5 33.7l-1.2-9.3 104.1-16.2 1 9.3-103.9 16.2z"/><path class="st9" d="M556.3 71.5l-6.2-46 84.3-13 25.5 21.1 4 37.9"/><path class="st1" d="M553 27.4l34.8-5.4.3 1.9-34.8 5.5z"/><path class="st11" d="M551.3 26.3l83.1-12.8 1.2 10.8-82.9 12.7-1.4-10.7zm1.7 12.9l82.7-13.1 1.2 11 22-3.1 1.2 11.4-104.1 16.2-3-22.4zm4.3 32.3l-1.1-7.9 104.1-16.2 1 9.3-94.3 14.7h12.8l81.8-12.7 1.3 13.3h1.9l-4-38.9-26.2-21.7-85.6 13.2 6.3 46.8 2 .1z"/><path class="st9" d="M548.8 72.1l-5.3-39.5 84.3-13 25.5 21.1 3.4 31.4"/><path class="st1" d="M551.9 72.1l-.1-.7 30.1-4.6.4 2-21.8 3.3zm-.4-6.4l17.2-2.7.4 2-17.3 2.6zm-.6-2.7l9.8-1.5.3 1.9-9.8 1.5zm-.5-2.6l11.7-1.9.3 2-11.7 1.7zm-.5-2.9l13.3-2.2.3 2-13.4 2zm-.6-3.1l18.9-3 .3 2-18.9 3zm-.6-3l10.6-1.6.3 2-10.6 1.6zm-1.7-13.7l10.6-1.6.3 2-10.7 1.6zm1.3 9.5l13.6-2.1.3 2-13.7 2.1zm-.8-6.3l21.8-3.5.3 2-21.8 3.4zm51.2-8l24.4-3.8.3 2-24.4 3.8zm0 11.1l16.8-2.6.3 2-16.8 2.6zm2.1 11.6l16.3-2.5.3 2-16.3 2.5zm-1-5.6l13.4-2.1.3 2-13.4 2.1zm.5 2.9l28.8-4.5.3 2-28.8 4.5zm-1.1-5.9l19-3 .3 2-19 3zm-52.8-12.5l34.7-5.4.3 2-34.8 5.4zm90.5 40.1"/><path class="st11" d="M544.6 33.4l83.1-12.8 1.2 10.8-82.9 12.7-1.4-10.7zm1.7 12.9l82.7-13.1 1.2 11 22-3.1 1.2 11.4-104.1 16.2-3-22.4zm3.5 25.8l-.2-1.4 104.1-16.2 1 9.3-53.3 8.3h13.2l40.3-6.3.7 6.3h1.9l-3.3-31.8-26.2-21.7-85.6 13.2 5.4 40.3"/><path class="st9" d="M564.5 143.3l-7.2-53.5 84.3-13 25.5 21.1 4.7 45.4"/><path class="st1" d="M560.2 91.7l34.7-5.4.3 2-34.8 5.4z"/><path class="st11" d="M670.8 143.3h1.9l-4.7-45.8-26.2-21.7-85.6 13.2 7.3 54.3h2l-.6-4.1 103.8-16.2 2.1 20.3zm-112.4-52.7l83.1-12.8 1.2 10.8-82.8 12.7-1.5-10.7zm1.7 13l82.7-13.1 1.2 11 22-3.1 1.2 11.4-104.1 16.2-3-22.4zm4.5 33.6l-1.2-9.3 104.1-16.2 1 9.3-103.9 16.2z"/><path class="st9" d="M556.3 142.8l-6.2-46 84.3-13 25.5 21.1 4 37.9"/><path class="st1" d="M553 98.8l34.8-5.4.3 1.9-34.8 5.4z"/><path class="st11" d="M551.3 97.7l83.1-12.8 1.2 10.8-82.8 12.7-1.5-10.7zm1.7 12.9l82.7-13.1 1.2 11 22-3.1 1.2 11.4-104.1 16.2-3-22.4zm4.3 32.2l-1.1-7.9 104.1-16.2 1 9.3-94.3 14.8h12.8l81.8-12.7 1.3 13.3h1.9l-4-38.9-26.2-21.7-85.5 13.2 6.3 46.8h1.9z"/><path class="st9" d="M548.8 143.5l-5.3-39.6 84.3-13 25.5 21.1 3.4 31.5"/><path class="st1" d="M551.9 143.4l-.1-.7 30.1-4.5.4 1.9-21.8 3.3zm-.4-6.4l17.2-2.6.4 1.9-17.3 2.7zm-.6-2.6l9.8-1.6.3 2-9.8 1.5zm-.5-2.7l11.7-1.8.3 1.9-11.7 1.8zm-.5-2.9l13.3-2.1.3 1.9-13.4 2.1zm-.6-3.1l18.9-2.9.3 1.9-18.9 3zm-.6-2.9l10.6-1.6.3 1.9-10.6 1.6zm-1.7-13.7l10.6-1.6.3 1.9-10.7 1.7zm1.3 9.4l13.6-2 .3 1.9-13.7 2.1zm-.8-6.3l21.8-3.4.3 1.9-21.8 3.5zm51.2-8l24.4-3.7.3 1.9-24.4 3.8zm0 11.1l16.8-2.5.3 1.9-16.8 2.6zm2.1 11.7l16.3-2.5.3 1.9-16.3 2.6zm-1-5.7l13.4-2 .3 1.9-13.4 2.1zm.5 2.9l28.8-4.4.3 1.9-28.8 4.5zm-1.1-5.8l19-3 .3 1.9-19 3.1zm-52.8-12.5l34.7-5.4.3 1.9-34.8 5.4zm90.5 40.1"/><path class="st11" d="M544.6 104.8l83.1-12.8 1.2 10.8-82.9 12.6-1.4-10.6zm1.7 12.9l82.7-13.1 1.2 11 22-3.1 1.2 11.4-104.2 16.2-2.9-22.4zm3.5 25.8l-.2-1.4 104.1-16.2 1 9.3-53.3 8.3h13.2l40.3-6.3.7 6.3h1.9l-3.3-31.8-26.2-21.8-85.6 13.2 5.4 40.3"/><path class="st0" d="M.5 288h872v72h-872z"/><path class="st13" d="M525 288l-39.1 71.7h-485.6v-71.7z"/><path class="st9" d="M564.9 360l-7.2-53.5 84.3-13 25.5 21.1 4.7 45.4"/><path class="st1" d="M560.6 308.4l34.7-5.4.3 1.9-34.8 5.5z"/><path class="st11" d="M671.2 360h1.9l-4.7-45.8-26.2-21.7-85.6 13.2 7.3 54.3h2l-.6-4.1 103.8-16.2 2.1 20.3zm-112.4-52.7l83.1-12.8 1.2 10.8-82.9 12.7-1.4-10.7zm1.7 12.9l82.7-13.1 1.2 11 22-3.1 1.2 11.4-104.2 16.2-2.9-22.4zm4.5 33.7l-1.2-9.3 104.1-16.2 1 9.3-103.9 16.2z"/><path class="st9" d="M556.7 359.5l-6.2-46 84.3-13 25.5 21.1 4 37.9"/><path class="st1" d="M553.4 315.4l34.8-5.4.3 1.9-34.8 5.5z"/><path class="st11" d="M551.7 314.3l83.1-12.8 1.2 10.8-82.9 12.7-1.4-10.7zm1.7 12.9l82.7-13.1 1.2 11 22-3.1 1.2 11.4-104.2 16.2-2.9-22.4zm4.3 32.3l-1.1-7.9 104.1-16.2 1 9.3-94.4 14.7h12.8l81.8-12.7 1.3 13.3h1.9l-4-38.9-26.2-21.7-85.6 13.2 6.3 46.8h2.1v.1z"/><path class="st9" d="M549.2 360.1l-5.3-39.5 84.3-13 25.5 21.1 3.4 31.4"/><path class="st1" d="M552.3 360.1l-.1-.7 30.1-4.6.4 2-21.8 3.3zm-.4-6.4l17.2-2.7.4 2-17.3 2.6zm-.6-2.7l9.8-1.5.3 1.9-9.8 1.5zm-.5-2.6l11.7-1.9.3 1.9-11.7 1.8zm-.5-2.9l13.3-2.2.3 1.9-13.4 2.1zm-.6-3.1l18.9-3 .3 1.9-18.9 3.1zm-.6-3l10.6-1.6.3 1.9-10.6 1.7zm-1.7-13.7l10.6-1.6.3 2-10.7 1.6zm1.3 9.5l13.6-2.1.3 1.9-13.7 2.2zm-.8-6.3l21.8-3.5.3 1.9-21.8 3.5zm51.2-8l24.4-3.8.3 1.9-24.4 3.9zm0 11.1l16.8-2.6.3 1.9-16.8 2.7zm2.1 11.6l16.3-2.5.3 1.9-16.3 2.6zm-1-5.6l13.4-2.1.3 1.9-13.4 2.2zm.5 2.9l28.8-4.5.3 1.9-28.8 4.6zm-1.1-5.9l19-3 .3 1.9-19 3.1zm-52.8-12.5l34.7-5.4.3 1.9-34.8 5.5zm90.5 40.1"/><path class="st11" d="M545 321.4l83.1-12.8 1.2 10.8-82.8 12.7-1.5-10.7zm1.7 12.9l82.7-13.1 1.2 11 22-3.1 1.2 11.4-104.2 16.2-2.9-22.4zm3.5 25.8l-.2-1.4 104.1-16.2 1 9.3-53.3 8.3h13.2l40.3-6.3.7 6.3h1.9l-3.3-31.8-26.2-21.7-85.6 13.2 5.4 40.3"/><path class="st13" d="M525 431.8l-39.1 71.7h-485.6v-71.7z"/><path class="st9" d="M564.9 503.8l-7.2-53.5 84.3-13 25.5 21.1 4.7 45.4"/><path class="st1" d="M560.6 452.2l34.7-5.4.3 1.9-34.8 5.5z"/><path class="st11" d="M671.2 503.8h1.9l-4.7-45.8-26.2-21.7-85.6 13.2 7.3 54.3h2l-.6-4.1 103.8-16.2 2.1 20.3zm-112.4-52.7l83.1-12.8 1.2 10.8-82.8 12.7-1.5-10.7zm1.7 12.9l82.7-13.1 1.2 11 22-3.1 1.2 11.4-104.2 16.2-2.9-22.4zm4.5 33.7l-1.2-9.3 104.1-16.2 1 9.3-103.9 16.2z"/><path class="st9" d="M556.7 503.2l-6.2-45.9 84.3-13 25.5 21.1 4 37.8"/><path class="st1" d="M553.4 459.2l34.8-5.4.3 1.9-34.8 5.5z"/><path class="st11" d="M551.7 458.1l83.1-12.8 1.2 10.8-82.8 12.7-1.5-10.7zm1.7 12.9l82.7-13.1 1.2 11 22-3.1 1.2 11.4-104.2 16.2-2.9-22.4zm4.3 32.2l-1.1-7.9 104.1-16.2 1 9.3-94.4 14.7h12.8l81.8-12.7 1.3 13.3h1.9l-4-38.9-26.2-21.7-85.6 13.2 6.3 46.8h2.1v.1z"/><path class="st9" d="M549.2 503.9l-5.3-39.5 84.3-13 25.5 21.1 3.4 31.4"/><path class="st1" d="M552.3 503.9l-.1-.7 30.1-4.6.4 1.9-21.8 3.4zm-.4-6.5l17.2-2.6.4 1.9-17.3 2.7zm-.6-2.6l9.8-1.5.3 1.9-9.8 1.5zm-.5-2.6l11.7-1.9.3 1.9-11.7 1.8zm-.5-2.9l13.3-2.2.3 1.9-13.4 2.1zm-.6-3.2l18.9-2.9.3 1.9-18.9 3.1zm-.6-2.9l10.6-1.6.3 1.9-10.6 1.7zm-1.7-13.7l10.6-1.6.3 2-10.7 1.6zm1.3 9.5l13.6-2.1.3 1.9-13.7 2.2zm-.8-6.4l21.8-3.4.3 1.9-21.8 3.5zm51.2-7.9l24.4-3.8.3 1.9-24.4 3.9zm0 11.1l16.8-2.6.3 1.9-16.8 2.7zm2.1 11.6l16.3-2.5.3 1.9-16.3 2.6zm-1-5.6l13.4-2.1.3 1.9-13.4 2.1zm.5 2.9l28.8-4.5.3 1.9-28.8 4.5zm-1.1-5.9l19-3 .3 1.9-19 3.1zm-52.8-12.5l34.7-5.4.3 1.9-34.8 5.5zm90.5 40.1"/><path class="st11" d="M545 465.2l83.1-12.8 1.2 10.8-82.8 12.7-1.5-10.7zm1.7 12.9l82.7-13.1 1.2 11 22-3.1 1.2 11.4-104.2 16.2-2.9-22.4zm3.5 25.8l-.2-1.4 104.1-16.2 1 9.3-53.3 8.3h13.2l40.3-6.3.7 6.3h1.9l-3.3-31.8-26.2-21.7-85.6 13.2 5.4 40.3"/><path class="st13" d="M525 504l-39.1 71.7h-485.6v-71.7z"/><path class="st9" d="M564.9 576l-7.2-53.5 84.3-13 25.5 21.1 4.7 45.4"/><path class="st1" d="M560.6 524.4l34.7-5.4.3 1.9-34.8 5.5z"/><path class="st11" d="M671.2 576h1.9l-4.7-45.8-26.2-21.7-85.6 13.2 7.3 54.3h2l-.6-4.1 103.8-16.2 2.1 20.3zm-112.4-52.7l83.1-12.8 1.2 10.8-82.9 12.7-1.4-10.7zm1.7 12.9l82.7-13.1 1.2 11 22-3.1 1.2 11.4-104.2 16.2-2.9-22.4zm4.5 33.7l-1.2-9.3 104.1-16.2 1 9.3-103.9 16.2z"/><path class="st9" d="M556.7 575.5l-6.2-46 84.3-13 25.5 21.1 4 37.9"/><path class="st1" d="M553.4 531.4l34.8-5.4.3 2-34.8 5.4z"/><path class="st11" d="M551.7 530.3l83.1-12.8 1.2 10.8-82.9 12.7-1.4-10.7zm1.7 12.9l82.7-13.1 1.2 11 22-3.1 1.2 11.4-104.2 16.2-2.9-22.4zm4.3 32.3l-1.1-7.9 104.1-16.2 1 9.3-94.4 14.7h12.8l81.8-12.7 1.3 13.3h1.9l-4-38.9-26.2-21.7-85.6 13.2 6.3 46.8 2.1.1z"/><path class="st9" d="M549.2 576.1l-5.3-39.5 84.3-13 25.5 21.1 3.4 31.4"/><path class="st1" d="M552.3 576.1l-.1-.7 30.1-4.6.4 2-21.8 3.3zm-.4-6.4l17.2-2.7.4 2-17.3 2.6zm-.6-2.7l9.8-1.5.3 1.9-9.8 1.5zm-.5-2.6l11.7-1.9.3 2-11.7 1.7zm-.5-2.9l13.3-2.2.3 2-13.4 2zm-.6-3.1l18.9-3 .3 2-18.9 3zm-.6-3l10.6-1.6.3 2-10.6 1.6zm-1.7-13.7l10.6-1.5.3 1.9-10.7 1.6zm1.3 9.5l13.6-2.1.3 2-13.7 2.1zm-.8-6.3l21.8-3.5.3 2-21.8 3.4zm51.2-8l24.4-3.8.3 2-24.4 3.8zm0 11.1l16.8-2.6.3 2-16.8 2.6zm2.1 11.6l16.3-2.5.3 2-16.3 2.5zm-1-5.6l13.4-2.1.3 2-13.4 2.1zm.5 2.9l28.8-4.5.3 2-28.8 4.5zm-1.1-5.9l19-3 .3 2-19 3zm-52.8-12.5l34.7-5.4.3 2-34.8 5.4zm90.5 40.1"/><path class="st11" d="M545 537.4l83.1-12.8 1.2 10.8-82.8 12.7-1.5-10.7zm1.7 12.9l82.7-13.1 1.2 11 22-3.1 1.2 11.4-104.2 16.2-2.9-22.4zm3.5 25.8l-.2-1.4 104.1-16.2 1 9.3-53.3 8.3h13.2l40.3-6.3.7 6.3h1.9l-3.3-31.8-26.2-21.7-85.6 13.2 5.4 40.3"/><path class="st2" d="M.1 143.7h872v72h-872z"/><path class="st10" d="M494.7 183h7.5v7.7h-7.5zm0 15.5h7.5v7.7h-7.5zm83.5-7.7h7.5v7.7h-7.5zm7.5 7.7h7.5v7.7h-7.5zm0-15.5h7.5v7.7h-7.5zm-7.5-7.7h7.5v7.7h-7.5zm0-30.8h7.5v7.7h-7.5zm7.5 7.7h7.5v7.7h-7.5zm-7.5 7.7h7.5v7.7h-7.5zm7.5 7.7h7.5v7.7h-7.5zm7.6-23.1h7.5v7.7h-7.5zm7.5 7.7h7.5v7.7h-7.5zm7.5 7.7h7.5v7.7h-7.5zm-7.5 7.7h7.5v7.7h-7.5zm7.5 7.7h7.5v7.7h-7.5zm-7.5 7.7h7.5v7.7h-7.5zm7.5 7.8h7.5v7.7h-7.5zm-15-30.9h7.5v7.7h-7.5zm0 15.4h7.5v7.7h-7.5zm0 15.5h7.5v7.7h-7.5zm21.5-7.8h7.5v7.7h-7.5zm8.5 7.8h7.5v7.7h-7.5zm-7.5-23.2h7.5v7.7h-7.5zm7.5 7.7h7.5v7.7h-7.5zm7.5 7.7h7.5v7.7h-7.5zm-30 15.5h7.5v7.7h-7.5zm15 0h7.5v7.7h-7.5zm15 0h7.5v7.7h-7.5zm7.6-7.7h7.5v7.7h-7.5zm7.5 7.7h7.5v7.7h-7.5zm0-15.5h7.5v7.7h-7.5zm-7.5-7.7h7.5v7.7h-7.5zm-7.6-7.7h7.5v7.7h-7.5zm-7.5-7.7h7.5v7.7h-7.5zm-7.5-7.7h7.5v7.7h-7.5zm-7.5-7.7h7.5v7.7h-7.5zm15 0h7.5v7.7h-7.5zm7.5 7.7h7.5v7.7h-7.5zm7.6-7.7h7.5v7.7h-7.5zm7.5 7.7h7.5v7.7h-7.5zm-7.5 7.7h7.5v7.7h-7.5zm7.5 7.7h7.5v7.7h-7.5zm7.5-23.1h7.5v7.7h-7.5zm7.5 7.7h7.5v7.7h-7.5zm7.6 7.7h7.5v7.7h-7.5zm-7.6 7.7h7.5v7.7h-7.5zm7.6 7.7h7.5v7.7h-7.5zm-7.6 7.7h7.5v7.7h-7.5zm7.6 7.8h7.5v7.7h-7.5zm-15.1-30.9h7.5v7.7h-7.5zm0 15.4h7.5v7.7h-7.5zm0 15.5h7.5v7.7h-7.5zm21.6-7.8h7.5v7.7h-7.5zm8.5 7.8h7.5v7.7h-7.5zm-7.5-23.2h7.5v7.7h-7.5zm7.5 7.7h7.5v7.7h-7.5zm7.5 7.7h7.5v7.7h-7.5zm-30.1 15.5h7.5v7.7h-7.5zm15.1 0h7.5v7.7h-7.5zm15 0h7.5v7.7h-7.5zm7.5-7.7h7.5v7.7h-7.5zm7.5 7.7h7.5v7.7h-7.5zm0-15.5h7.5v7.7h-7.5zm-7.5-7.7h7.5v7.7h-7.5zm-7.5-7.7h7.5v7.7h-7.5zm-7.5-7.7h7.5v7.7h-7.5zm-7.5-7.7h7.5v7.7h-7.5zm-7.5-7.7h7.5v7.7h-7.5zm15 0h7.5v7.7h-7.5zm7.5 7.7h7.5v7.7h-7.5zm7.5-7.7h7.5v7.7h-7.5zm7.5 7.7h7.5v7.7h-7.5zm-7.5 7.7h7.5v7.7h-7.5zm7.5 7.7h7.5v7.7h-7.5zm7.6-23.1h7.5v7.7h-7.5zm7.5 7.7h7.5v7.7h-7.5zm7.5 7.7h7.5v7.7h-7.5zm-7.5 7.7h7.5v7.7h-7.5zm7.5 7.7h7.5v7.7h-7.5zm-7.5 7.7h7.5v7.7h-7.5zm7.5 7.8h7.5v7.7h-7.5zm-15-30.9h7.5v7.7h-7.5zm0 15.4h7.5v7.7h-7.5zm0 15.5h7.5v7.7h-7.5zm21.5-7.8h7.5v7.7h-7.5zm8.6 7.8h7.5v7.7h-7.5zm-7.6-23.2h7.5v7.7h-7.5zm7.6 7.7h7.5v7.7h-7.5zm7.5 7.7h7.5v7.7h-7.5zm-30.1 15.5h7.5v7.7h-7.5zm15 0h7.5v7.7h-7.5zm15.1 0h7.5v7.7h-7.5zm7.5-7.7h7.5v7.7h-7.5zm7.5 7.7h7.5v7.7h-7.5zm0-15.5h7.5v7.7h-7.5zm-7.5-7.7h7.5v7.7h-7.5zm-7.5-7.7h7.5v7.7h-7.5zm-7.5-7.7h7.5v7.7h-7.5zm-7.6-7.7h7.5v7.7h-7.5zm-7.5-7.7h7.5v7.7h-7.5zm15.1 0h7.5v7.7h-7.5zm7.5 7.7h7.5v7.7h-7.5zm7.5-7.7h7.5v7.7h-7.5zm7.5 7.7h7.5v7.7h-7.5zm-7.5 7.7h7.5v7.7h-7.5zm7.5 7.7h7.5v7.7h-7.5zm7.5-23.1h7.5v7.7h-7.5zm7.6 7.7h7.5v7.7h-7.5zm7.5 7.7h7.5v7.7h-7.5zm-7.5 7.7h7.5v7.7h-7.5zm7.5 7.7h7.5v7.7h-7.5zm-7.5 7.7h7.5v7.7h-7.5zm7.5 7.8h7.5v7.7h-7.5zm-15.1-30.9h7.5v7.7h-7.5zm0 15.4h7.5v7.7h-7.5zm0 15.5h7.5v7.7h-7.5zm21.6-7.8h7.5v7.7h-7.5zm8.5 7.8h7.5v7.7h-7.5zm-7.5-23.2h7.5v7.7h-7.5zm7.5 7.7h7.5v7.7h-7.5zm7.5 7.7h7.5v7.7h-7.5zm-30 15.5h7.5v7.7h-7.5zm15 0h7.5v7.7h-7.5zm15 0h7.5v7.7h-7.5zm7.6-7.7h7.5v7.7h-7.5zm7.5 7.7h7.5v7.7h-7.5zm0-15.5h7.5v7.7h-7.5zm-7.5-7.7h7.5v7.7h-7.5zm-7.6-7.7h7.5v7.7h-7.5zm-7.5-7.7h7.5v7.7h-7.5zm-7.5-7.7h7.5v7.7h-7.5zm-7.5-7.7h7.5v7.7h-7.5zm15 0h7.5v7.7h-7.5zm7.5 7.7h7.5v7.7h-7.5zm7.6-7.7h7.5v7.7h-7.5zm7.5 7.7h7.5v7.7h-7.5zm-7.5 7.7h7.5v7.7h-7.5zm7.5 7.7h7.5v7.7h-7.5zm7.5-7.7h7.5v7.7h-7.5zm0 15.4h7.5v7.7h-7.5zm0 15.5h7.5v7.7h-7.5zm6.5-7.8h7.5v7.7h-7.5zm8.5 7.8h7.5v7.7h-7.5zm-7.5-23.2h7.5v7.7h-7.5zm7.5 7.7h7.5v7.7h-7.5zm7.6 7.7h7.5v7.7h-7.5zm-15.1 15.5h7.5v7.7h-7.5zm15.1 0h7.5v7.7h-7.5zm7.5-7.7h7.5v7.7h-7.5zm0-15.5h7.5v7.7h-7.5zm-7.5-7.7h7.5v7.7h-7.5zm-7.6-7.7h7.5v7.7h-7.5zm-7.5-7.7h7.5v7.7h-7.5zm-7.5-7.7h7.5v7.7h-7.5zm15 0h7.5v7.7h-7.5zm7.6 7.7h7.5v7.7h-7.5zm7.5-7.7h7.5v7.7h-7.5zm0 15.4h7.5v7.7h-7.5zm-376.8 47h7.5v7.7h-7.5zm91 0h7.5v7.7h-7.5zm30.1 0h7.5v7.7h-7.5zm-15 0h7.5v7.7h-7.5zm30 0h7.5v7.7h-7.5zm15.1 0h7.5v7.7h-7.5zm30.1 0h7.5v7.7h-7.5zm-15.1 0h7.5v7.7h-7.5zm-143.9-23.9h7.5v7.7h-7.5zm8.5 7.8h7.5v7.7h-7.5zm-7.5-23.2h7.5v7.7h-7.5zm7.5 7.7h7.5v7.7h-7.5zm7.5 7.7h7.5v7.7h-7.5zm-15 15.5h7.5v7.7h-7.5zm15 0h7.5v7.7h-7.5zm7.6-7.7h7.5v7.7h-7.5zm7.5 7.7h7.5v7.7h-7.5zm0-15.5h7.5v7.7h-7.5zm-7.5-7.7h7.5v7.7h-7.5zm-7.6-7.7h7.5v7.7h-7.5zm-7.5-7.7h7.5v7.7h-7.5zm-7.5-7.7h7.5v7.7h-7.5zm7.5-7.7h7.5v7.7h-7.5zm7.5 7.7h7.5v7.7h-7.5zm7.6-7.7h7.5v7.7h-7.5zm7.5 7.7h7.5v7.7h-7.5zm-7.5 7.7h7.5v7.7h-7.5zm7.5 7.7h7.5v7.7h-7.5zm7.5-23.1h7.5v7.7h-7.5zm7.5 7.7h7.5v7.7h-7.5zm7.6 7.7h7.5v7.7h-7.5zm-7.6 7.7h7.5v7.7h-7.5zm7.6 7.7h7.5v7.7h-7.5zm-7.6 7.7h7.5v7.7h-7.5zm7.6 7.8h7.5v7.7h-7.5zm-15.1-30.9h7.5v7.7h-7.5zm0 15.4h7.5v7.7h-7.5zm0 15.5h7.5v7.7h-7.5zm21.6-7.8h7.5v7.7h-7.5zm1-15.4h7.5v7.7h-7.5zm-15.1 30.9h7.5v7.7h-7.5zm15.1 0h7.5v7.7h-7.5zm0-46.3h7.5v7.7h-7.5zm-7.5-7.7h7.5v7.7h-7.5zm-45.2 62.4h7.5v7.7h-7.5zm-15.8-16.1h7.5v7.7h-7.5zm0-15.5h7.5v7.7h-7.5zm0 31.6h7.5v7.7h-7.5zm30.9 0h7.5v7.7h-7.5zm30.1 0h7.5v7.7h-7.5zm-15.1 0h7.5v7.7h-7.5zm135.4 0h7.5v7.7h-7.5zm15 0h7.5v7.7h-7.5zm30.1 0h7.5v7.7h-7.5zm-15 0h7.5v7.7h-7.5zm30.1 0h7.5v7.7h-7.5zm15 0h7.5v7.7h-7.5zm30.1 0h7.5v7.7h-7.5zm-15.1 0h7.5v7.7h-7.5zm30.1 0h7.5v7.7h-7.5zm15.1 0h7.5v7.7h-7.5zm15 0h7.5v7.7h-7.5zm15 0h7.5v7.7h-7.5zm15.1 0h7.5v7.7h-7.5z"/><path class="st12" d="M534.313 411.798l2.9.013-.014 3-2.9-.012zm-31.203 7.4l2.9.012-.012 3-2.9-.012zm1.39-35.698l43.7 20.8 50.5-4 21.3-25.2 49.1 6.5 19.6-21.8"/><path class="st9" d="M564.9 432.2l-7.2-53.5 84.3-13 25.5 21.1 4.7 45.4"/><path class="st1" d="M560.6 380.6l34.7-5.4.3 1.9-34.8 5.5z"/><path class="st11" d="M671.2 432.2h1.9l-4.7-45.8-26.2-21.7-85.6 13.2 7.3 54.3h2l-.6-4.1 103.8-16.2 2.1 20.3zm-112.4-52.7l83.1-12.8 1.2 10.8-82.8 12.7-1.5-10.7zm1.7 12.9l82.7-13.1 1.2 11 22-3.1 1.2 11.4-104.2 16.2-2.9-22.4zm4.5 33.7l-1.2-9.3 104.1-16.2 1 9.3-103.9 16.2z"/><path class="st9" d="M556.7 431.6l-6.2-45.9 84.3-13 25.5 21.1 4 37.8"/><path class="st1" d="M553.4 387.6l34.8-5.4.3 1.9-34.8 5.5z"/><path class="st11" d="M551.7 386.5l83.1-12.8 1.2 10.8-82.8 12.7-1.5-10.7zm1.7 12.9l82.7-13.1 1.2 11 22-3.1 1.2 11.4-104.2 16.2-2.9-22.4zm4.3 32.2l-1.1-7.9 104.1-16.2 1 9.3-94.4 14.7h12.8l81.8-12.7 1.3 13.3h1.9l-4-38.9-26.2-21.7-85.6 13.2 6.3 46.8 2.1.1z"/><path class="st9" d="M549.2 432.3l-5.3-39.5 84.3-13 25.5 21.1 3.4 31.4"/><path class="st1" d="M552.3 432.3l-.1-.7 30.1-4.6.4 2-21.8 3.3zm-.4-6.4l17.2-2.7.4 1.9-17.3 2.7zm-.6-2.7l9.8-1.5.3 1.9-9.8 1.5zm-.5-2.6l11.7-1.9.3 1.9-11.7 1.8zm-.5-2.9l13.3-2.2.3 1.9-13.4 2.1zm-.6-3.1l18.9-3 .3 1.9-18.9 3.1zm-.6-3l10.6-1.6.3 1.9-10.6 1.7zm-1.7-13.7l10.6-1.6.3 2-10.7 1.6zm1.3 9.5l13.6-2.1.3 1.9-13.7 2.2zm-.8-6.3l21.8-3.5.3 1.9-21.8 3.5zm51.2-8l24.4-3.8.3 1.9-24.4 3.9zm0 11.1l16.8-2.6.3 1.9-16.8 2.7zm2.1 11.6l16.3-2.5.3 1.9-16.3 2.6zm-1-5.6l13.4-2.1.3 1.9-13.4 2.1zm.5 2.9l28.8-4.5.3 1.9-28.8 4.5zm-1.1-5.9l19-3 .3 1.9-19 3.1zm-52.8-12.5l34.7-5.4.3 1.9-34.8 5.5zm90.5 40.1"/><path class="st11" d="M545 393.6l83.1-12.8 1.2 10.8-82.8 12.7-1.5-10.7zm1.7 12.9l82.7-13.1 1.2 11 22-3.1 1.2 11.4-104.2 16.2-2.9-22.4zm3.5 25.8l-.2-1.4 104.1-16.2 1 9.3-53.3 8.3h13.2l40.3-6.3.7 6.3h1.9l-3.3-31.8-26.2-21.7-85.6 13.2 5.4 40.3"/><path class="st13" d="M525 360.2l-39.1 71.7h-485.6v-71.7z"/><path class="st4" d="M524.6 143.9l-39.1 71.7h-485.6v-71.7z"/><path class="st9" d="M564.5 215.4l-7.2-53.5 84.3-13 25.5 21.1 4.7 45.4"/><path class="st1" d="M560.2 163.8l34.7-5.3.3 1.9-34.8 5.4z"/><path class="st11" d="M670.8 215.4h1.9l-4.7-45.8-26.2-21.7-85.6 13.2 7.3 54.3h2l-.6-4.1 103.8-16.2 2.1 20.3zm-112.4-52.7l83.1-12.8 1.2 10.8-82.8 12.7-1.5-10.7zm1.7 13l82.7-13.1 1.2 11 22-3.1 1.2 11.4-104.2 16.2-2.9-22.4zm4.5 33.6l-1.2-9.3 104.1-16.2 1 9.3-103.9 16.2z"/><path class="st9" d="M556.3 214.9l-6.2-46 84.3-13 25.5 21.1 4 37.9"/><path class="st1" d="M553 170.9l34.8-5.4.3 1.9-34.8 5.4z"/><path class="st11" d="M551.3 169.8l83.1-12.8 1.2 10.8-82.8 12.7-1.5-10.7zm1.7 12.9l82.7-13.1 1.2 11 22-3.1 1.2 11.4-104.1 16.2-3-22.4zm4.3 32.2l-1.1-7.9 104.1-16.2 1 9.3-94.3 14.8h12.8l81.8-12.7 1.3 13.3h1.9l-4-38.9-26.2-21.7-85.6 13.2 6.3 46.8h2z"/><path class="st9" d="M548.8 215.6l-5.3-39.6 84.3-13 25.5 21.1 3.4 31.5"/><path class="st1" d="M551.9 215.5l-.1-.7 30.1-4.5.4 1.9-21.8 3.3zm-.4-6.4l17.2-2.6.4 1.9-17.3 2.7zm-.6-2.6l9.8-1.6.3 2-9.8 1.5zm-.5-2.7l11.7-1.8.3 1.9-11.7 1.8zm-.5-2.9l13.3-2.1.3 1.9-13.4 2.1zm-.6-3.1l18.9-2.9.3 1.9-18.9 3zm-.6-2.9l10.6-1.6.3 1.9-10.6 1.6zm-1.7-13.7l10.6-1.6.3 1.9-10.7 1.7zm1.3 9.4l13.6-2 .3 1.9-13.7 2.1zm-.8-6.3l21.8-3.4.3 1.9-21.8 3.5zm51.2-8l24.4-3.7.3 1.9-24.4 3.8zm0 11.2l16.8-2.6.3 1.9-16.8 2.6zm2.1 11.6l16.3-2.5.3 1.9-16.3 2.6zm-1-5.7l13.4-2 .3 1.9-13.4 2.1zm.5 2.9l28.8-4.4.3 1.9-28.8 4.5zm-1.1-5.8l19-3 .3 1.9-19 3.1zm-52.8-12.5l34.7-5.4.3 1.9-34.8 5.4zm90.5 40.1"/><path class="st11" d="M544.6 176.9l83.1-12.8 1.2 10.8-82.9 12.6-1.4-10.6zm1.7 12.9l82.7-13.1 1.2 11 22-3.1 1.2 11.4-104.2 16.2-2.9-22.4zm3.5 25.8l-.2-1.4 104.1-16.2 1 9.3-53.3 8.3h13.2l40.3-6.3.7 6.3h1.9l-3.3-31.8-26.2-21.8-85.6 13.2 5.4 40.3"/><path class="st4" d="M524.6 215.8l-39.1 71.7h-485.6v-71.7z"/><path class="st9" d="M564.5 287.4l-7.2-53.5 84.3-13 25.5 21.1 4.7 45.4"/><path class="st1" d="M560.2 235.8l34.7-5.4.3 1.9-34.8 5.5z"/><path class="st11" d="M670.8 287.4h1.9l-4.7-45.8-26.2-21.7-85.6 13.2 7.3 54.3h2l-.6-4.1 103.8-16.2 2.1 20.3zm-112.4-52.7l83.1-12.8 1.2 10.8-82.8 12.7-1.5-10.7zm1.7 12.9l82.7-13.1 1.2 11 22-3.1 1.2 11.4-104.1 16.2-3-22.4zm4.5 33.7l-1.2-9.3 104.1-16.2 1 9.3-103.9 16.2z"/><path class="st9" d="M556.3 286.9l-6.2-46 84.3-13 25.5 21.1 4 37.9"/><path class="st1" d="M553 242.8l34.8-5.4.3 1.9-34.8 5.5z"/><path class="st11" d="M551.3 241.7l83.1-12.8 1.2 10.8-82.8 12.7-1.5-10.7zm1.7 12.9l82.7-13.1 1.2 11 22-3.1 1.2 11.4-104.1 16.2-3-22.4zm4.3 32.3l-1.1-7.9 104.1-16.2 1 9.3-94.3 14.7h12.8l81.8-12.7 1.3 13.3h1.9l-4-38.9-26.2-21.7-85.6 13.2 6.3 46.8 2 .1z"/><path class="st9" d="M548.8 287.5l-5.3-39.5 84.3-13 25.5 21.1 3.4 31.4"/><path class="st1" d="M551.9 287.5l-.1-.7 30.1-4.6.4 2-21.8 3.3zm-.4-6.4l17.2-2.7.4 2-17.3 2.6zm-.6-2.7l9.8-1.5.3 1.9-9.8 1.5zm-.5-2.6l11.7-1.9.3 2-11.7 1.7zm-.5-2.9l13.3-2.2.3 2-13.4 2zm-.6-3.1l18.9-3 .3 2-18.9 3zm-.6-3l10.6-1.6.3 2-10.6 1.6zm-1.7-13.7l10.6-1.6.3 2-10.7 1.6zm1.3 9.5l13.6-2.1.3 2-13.7 2.1zm-.8-6.3l21.8-3.5.3 2-21.8 3.4zm51.2-8l24.4-3.8.3 2-24.4 3.8zm0 11.1l16.8-2.6.3 2-16.8 2.6zm2.1 11.6l16.3-2.5.3 2-16.3 2.5zm-1-5.6l13.4-2.1.3 2-13.4 2.1zm.5 2.9l28.8-4.5.3 2-28.8 4.5zm-1.1-5.9l19-3 .3 2-19 3zm-52.8-12.5l34.7-5.4.3 2-34.8 5.4zm90.5 40.1"/><path class="st11" d="M544.6 248.8l83.1-12.8 1.2 10.8-82.9 12.7-1.4-10.7zm1.7 12.9l82.7-13.1 1.2 11 22-3.1 1.2 11.4-104.2 16.2-2.9-22.4zm3.5 25.8l-.2-1.4 104.1-16.2 1 9.3-53.3 8.3h13.2l40.3-6.3.7 6.3h1.9l-3.3-31.8-26.2-21.7-85.6 13.2 5.4 40.3"/></svg>