<?xml version="1.0" encoding="utf-8"?>
<!DOCTYPE svg PUBLIC "-//W3C//DTD SVG 1.1//EN" "http://www.w3.org/Graphics/SVG/1.1/DTD/svg11.dtd">
<svg version="1.1" id="Calque_1" xmlns="http://www.w3.org/2000/svg" xmlns:xlink="http://www.w3.org/1999/xlink" x="0px" y="0px"
	 width="872px" height="576.6px" viewBox="0 0 872 576.6" style="enable-background:new 0 0 872 576.6;" xml:space="preserve">
<style type="text/css"><![CDATA[
	.st0{opacity:0.13;fill:none;stroke:#010202;stroke-width:2;enable-background:new;}
	.st1{fill:#4A4949;}	.st2{opacity:0.18;}	.st3{fill:#B5D3E0;}	.st4{fill:#EDEDED;}
	.st5{fill:#535252;}	.st6{fill:#8C8C8C;}	.st7{opacity:0.75;fill:#3D3D3C;enable-background:new;}
	.st8{opacity:0.13;fill:none;stroke:#010202;stroke-width:0.75;enable-background:new;}
	.st9{fill:#969696;}	.st10{fill:#C8C8C8;} .st11{opacity:0.1;fill:#3D3D3C;enable-background:new;}
	.st12{fill:#CEE3EB;} .st13{fill:#545454;enable-background:new;}	.st15{fill:#3D3D3C;}
	.st14{fill:none;stroke:#444444;stroke-width:2;enable-background:new;}
	.st16{opacity:0.5;fill:#3D3D3C;enable-background:new;}
	.st17{opacity:0.25;fill:#3D3D3C;enable-background:new;}
]]></style>
<rect x="0.1" class="st3" width="872" height="72"/>
<rect x="0.2" y="72" class="st3" width="872" height="72"/>
<rect x="817" y="85.6" transform="matrix(-1 -4.715338e-03 4.715338e-03 -1 1636.4991 178.0605)" class="st0" width="2.9" height="3"/>
<rect x="804.4" y="110.7" transform="matrix(-1 -4.041812e-03 4.041812e-03 -1 1611.2538 227.6586)" class="st0" width="2.9" height="3"/>
<rect x="797.4" y="95.4" transform="matrix(-1 -4.713669e-03 4.713669e-03 -1 1597.2522 197.5672)" class="st0" width="2.9" height="3"/>
<rect x="859.3" y="104.6" transform="matrix(-1 -4.713669e-03 4.713669e-03 -1 1721.0099 216.2593)" class="st0" width="2.9" height="3"/>
<rect x="838.9" y="110.9" transform="matrix(-1 -5.387193e-03 5.387193e-03 -1 1680.106 229.3293)" class="st0" width="2.9" height="3"/>
<rect x="721.7" y="123" transform="matrix(-1 -4.720106e-03 4.720106e-03 -1 1445.8203 252.4156)" class="st0" width="3" height="3"/>
<rect x="759.3" y="109.3" transform="matrix(-1 -4.713669e-03 4.713669e-03 -1 1520.9858 225.1873)" class="st0" width="2.9" height="3"/>
<rect x="741.5" y="101.3" transform="matrix(-1 -5.045543e-03 5.045543e-03 -1 1485.4905 209.3506)" class="st0" width="3" height="3"/>
<rect x="771.3" y="75.8" transform="matrix(-1 -4.713669e-03 4.713669e-03 -1 1545.1437 158.2442)" class="st0" width="2.9" height="3"/>
<rect x="688.1" y="87.1" transform="matrix(-1 -4.720106e-03 4.720106e-03 -1 1378.7889 180.4567)" class="st0" width="3" height="3"/>
<rect x="620" y="113.8" transform="matrix(-1 -4.713669e-03 4.713669e-03 -1 1242.3627 233.5306)" class="st0" width="2.9" height="3"/>
<rect x="607.4" y="79.1" transform="matrix(-1 -5.050550e-03 5.050550e-03 -1 1217.3 164.2762)" class="st0" width="2.9" height="3"/>
<rect x="573.3" y="120.1" transform="matrix(-1 -4.713669e-03 4.713669e-03 -1 1148.9331 245.911)" class="st0" width="2.9" height="3"/>
<rect x="545.8" y="88.5" transform="matrix(-1 -5.050550e-03 5.050550e-03 -1 1094.0522 182.7657)" class="st0" width="2.9" height="3"/>
<rect x="534.3" y="123.8" transform="matrix(-1 -4.547016e-03 4.547016e-03 -1 1070.9354 253.0378)" class="st0" width="2.9" height="3"/>
<rect x="503.1" y="131.2" transform="matrix(-1 -4.547016e-03 4.547016e-03 -1 1008.4745 267.6819)" class="st0" width="2.9" height="3"/>
<rect x="560" y="102.7" transform="matrix(-1 -5.045543e-03 5.045543e-03 -1 1122.4817 211.2346)" class="st0" width="3" height="3"/>
<rect x="652" y="79.1" transform="matrix(-1 -5.050550e-03 5.050550e-03 -1 1306.5005 164.5014)" class="st0" width="2.9" height="3"/>
<rect x="702.3" y="132.7" transform="matrix(-1 -5.208381e-03 5.208381e-03 -1 1406.9106 272.0682)" class="st0" width="3" height="3"/>
<polyline class="st0" points="504.5,95.4 548.2,116.2 598.7,112.2 620,87 669.1,93.5 688.7,71.7 "/>
<polyline class="st0" points="620,142.7 652,110.8 741,113.8 760.3,127.3 798.8,71.7 "/>
<polyline class="st0" points="871.6,135.7 832.6,89.3 817.5,129.7 778.3,127.3 767.3,142.7 "/>
<rect x="656.8" y="123" transform="matrix(-1 -5.387193e-03 5.387193e-03 -1 1315.8384 252.5483)" class="st0" width="2.9" height="3"/>
<rect x="707.9" y="80.5" transform="matrix(-1 -4.377025e-03 4.377025e-03 -1 1418.3472 167.106)" class="st0" width="2.9" height="3"/>
<rect x="0.2" y="360.2" class="st1" width="872" height="72"/>
<rect x="817" y="373.8" transform="matrix(-1 -4.715338e-03 4.715338e-03 -1 1635.1401 754.4664)" class="st14" width="2.9" height="3"/>
<rect x="804.4" y="399" transform="matrix(-1 -4.040381e-03 4.040381e-03 -1 1610.0881 804.2644)" class="st14" width="2.9" height="3"/>
<rect x="797.4" y="383.6" transform="matrix(-1 -4.713669e-03 4.713669e-03 -1 1595.8937 773.9742)" class="st14" width="2.9" height="3"/>
<rect x="859.3" y="392.8" transform="matrix(-1 -4.713669e-03 4.713669e-03 -1 1719.6514 792.6643)" class="st14" width="2.9" height="3"/>
<rect x="838.9" y="399.1" transform="matrix(-1 -5.387193e-03 5.387193e-03 -1 1678.5543 805.7362)" class="st14" width="2.9" height="3"/>
<rect x="721.7" y="411.2" transform="matrix(-1 -4.557268e-03 4.557268e-03 -1 1444.5277 828.7037)" class="st14" width="3" height="3"/>
<rect x="759.3" y="397.5" transform="matrix(-1 -4.713669e-03 4.713669e-03 -1 1519.6274 801.5952)" class="st14" width="2.9" height="3"/>
<rect x="741.5" y="389.5" transform="matrix(-1 -5.208381e-03 5.208381e-03 -1 1483.9729 785.8802)" class="st14" width="3" height="3"/>
<rect x="771.3" y="364" transform="matrix(-1 -4.713669e-03 4.713669e-03 -1 1543.7861 734.6521)" class="st14" width="2.9" height="3"/>
<rect x="688.1" y="375.3" transform="matrix(-1 -4.557268e-03 4.557268e-03 -1 1377.4905 756.7501)" class="st14" width="3" height="3"/>
<rect x="620" y="402" transform="matrix(-1 -4.715338e-03 4.715338e-03 -1 1241.0055 809.9396)" class="st14" width="2.9" height="3"/>
<rect x="607.4" y="367.3" transform="matrix(-1 -5.387193e-03 5.387193e-03 -1 1215.7192 740.8879)" class="st14" width="2.9" height="3"/>
<rect x="573.3" y="408.3" transform="matrix(-1 -4.713669e-03 4.713669e-03 -1 1147.5747 822.316)" class="st14" width="2.9" height="3"/>
<rect x="545.8" y="376.7" transform="matrix(-1 -5.388862e-03 5.388862e-03 -1 1092.4706 759.3577)" class="st14" width="2.9" height="3"/>
<rect x="534.3" y="412" transform="matrix(-1 -4.715338e-03 4.715338e-03 -1 1069.5569 829.5353)" class="st14" width="2.9" height="3"/>
<rect x="560" y="390.9" transform="matrix(-1 -5.208381e-03 5.208381e-03 -1 1120.9641 787.7356)" class="st14" width="3" height="3"/>
<rect x="652" y="367.3" transform="matrix(-1 -5.387193e-03 5.387193e-03 -1 1304.9197 741.1282)" class="st14" width="2.9" height="3"/>
<rect x="702.3" y="420.9" transform="matrix(-1 -5.208381e-03 5.208381e-03 -1 1405.4094 848.4764)" class="st14" width="3" height="3"/>
<polyline class="st14" points="620,430.9 652,399 741,402 760.3,415.5 798.8,359.9 "/>
<polyline class="st14" points="871.6,423.9 832.6,377.5 817.5,417.9 778.3,415.5 767.3,430.9 "/>
<path class="st8" d="M729.3,361.3"/>
<rect x="656.8" y="411.2" transform="matrix(-1 -5.387193e-03 5.387193e-03 -1 1314.2856 828.9581)" class="st14" width="2.9" height="3"/>
<rect x="707.9" y="368.7" transform="matrix(-1 -4.040381e-03 4.040381e-03 -1 1417.2123 743.2732)" class="st14" width="2.9" height="3"/>
<rect x="0.1" y="431.9" class="st1" width="872" height="72"/>
<rect x="503" y="463.5" class="st5" width="7.5" height="7.7"/>
<rect x="495.5" y="471.2" class="st5" width="7.5" height="7.7"/>
<rect x="503" y="479" class="st5" width="7.5" height="7.7"/>
<rect x="509.6" y="471.2" class="st5" width="7.5" height="7.7"/>
<rect x="518.1" y="479" class="st5" width="7.5" height="7.7"/>
<rect x="510.6" y="455.8" class="st5" width="7.5" height="7.7"/>
<rect x="518.1" y="463.5" class="st5" width="7.5" height="7.7"/>
<rect x="570.7" y="471.2" class="st5" width="7.5" height="7.7"/>
<rect x="495.5" y="486.7" class="st5" width="7.5" height="7.7"/>
<rect x="488" y="495.1" class="st5" width="7.5" height="7.7"/>
<rect x="510.6" y="486.7" class="st5" width="7.5" height="7.7"/>
<rect x="570.7" y="486.7" class="st5" width="7.5" height="7.7"/>
<rect x="578.2" y="479" class="st5" width="7.5" height="7.7"/>
<rect x="585.7" y="486.7" class="st5" width="7.5" height="7.7"/>
<rect x="585.7" y="471.2" class="st5" width="7.5" height="7.7"/>
<rect x="578.2" y="463.5" class="st5" width="7.5" height="7.7"/>
<rect x="570.7" y="455.8" class="st5" width="7.5" height="7.7"/>
<rect x="518.1" y="448.1" class="st5" width="7.5" height="7.7"/>
<rect x="510.6" y="440.4" class="st5" width="7.5" height="7.7"/>
<rect x="518.1" y="432.7" class="st5" width="7.5" height="7.7"/>
<rect x="570.7" y="440.4" class="st5" width="7.5" height="7.7"/>
<rect x="578.2" y="432.7" class="st5" width="7.5" height="7.7"/>
<rect x="585.7" y="440.4" class="st5" width="7.5" height="7.7"/>
<rect x="578.2" y="448.1" class="st5" width="7.5" height="7.7"/>
<rect x="585.7" y="455.8" class="st5" width="7.5" height="7.7"/>
<rect x="593.3" y="432.7" class="st5" width="7.5" height="7.7"/>
<rect x="600.8" y="440.4" class="st5" width="7.5" height="7.7"/>
<rect x="608.3" y="448.1" class="st5" width="7.5" height="7.7"/>
<rect x="600.8" y="455.8" class="st5" width="7.5" height="7.7"/>
<rect x="608.3" y="463.5" class="st5" width="7.5" height="7.7"/>
<rect x="600.8" y="471.2" class="st5" width="7.5" height="7.7"/>
<rect x="608.3" y="479" class="st5" width="7.5" height="7.7"/>
<rect x="593.3" y="448.1" class="st5" width="7.5" height="7.7"/>
<rect x="593.3" y="463.5" class="st5" width="7.5" height="7.7"/>
<rect x="593.3" y="479" class="st5" width="7.5" height="7.7"/>
<rect x="614.8" y="471.2" class="st5" width="7.5" height="7.7"/>
<rect x="623.3" y="479" class="st5" width="7.5" height="7.7"/>
<rect x="615.8" y="455.8" class="st5" width="7.5" height="7.7"/>
<rect x="623.3" y="463.5" class="st5" width="7.5" height="7.7"/>
<rect x="630.8" y="471.2" class="st5" width="7.5" height="7.7"/>
<rect x="600.8" y="486.7" class="st5" width="7.5" height="7.7"/>
<rect x="615.8" y="486.7" class="st5" width="7.5" height="7.7"/>
<rect x="630.8" y="486.7" class="st5" width="7.5" height="7.7"/>
<rect x="638.4" y="479" class="st5" width="7.5" height="7.7"/>
<rect x="645.9" y="486.7" class="st5" width="7.5" height="7.7"/>
<rect x="645.9" y="471.2" class="st5" width="7.5" height="7.7"/>
<rect x="638.4" y="463.5" class="st5" width="7.5" height="7.7"/>
<rect x="630.8" y="455.8" class="st5" width="7.5" height="7.7"/>
<rect x="623.3" y="448.1" class="st5" width="7.5" height="7.7"/>
<rect x="615.8" y="440.4" class="st5" width="7.5" height="7.7"/>
<rect x="608.3" y="432.7" class="st5" width="7.5" height="7.7"/>
<rect x="623.3" y="432.7" class="st5" width="7.5" height="7.7"/>
<rect x="630.8" y="440.4" class="st5" width="7.5" height="7.7"/>
<rect x="638.4" y="432.7" class="st5" width="7.5" height="7.7"/>
<rect x="645.9" y="440.4" class="st5" width="7.5" height="7.7"/>
<rect x="638.4" y="448.1" class="st5" width="7.5" height="7.7"/>
<rect x="645.9" y="455.8" class="st5" width="7.5" height="7.7"/>
<rect x="653.4" y="432.7" class="st5" width="7.5" height="7.7"/>
<rect x="660.9" y="440.4" class="st5" width="7.5" height="7.7"/>
<rect x="668.5" y="448.1" class="st5" width="7.5" height="7.7"/>
<rect x="660.9" y="455.8" class="st5" width="7.5" height="7.7"/>
<rect x="668.5" y="463.5" class="st5" width="7.5" height="7.7"/>
<rect x="660.9" y="471.2" class="st5" width="7.5" height="7.7"/>
<rect x="668.5" y="479" class="st5" width="7.5" height="7.7"/>
<rect x="653.4" y="448.1" class="st5" width="7.5" height="7.7"/>
<rect x="653.4" y="463.5" class="st5" width="7.5" height="7.7"/>
<rect x="653.4" y="479" class="st5" width="7.5" height="7.7"/>
<rect x="675" y="471.2" class="st5" width="7.5" height="7.7"/>
<rect x="683.5" y="479" class="st5" width="7.5" height="7.7"/>
<rect x="676" y="455.8" class="st5" width="7.5" height="7.7"/>
<rect x="683.5" y="463.5" class="st5" width="7.5" height="7.7"/>
<rect x="691" y="471.2" class="st5" width="7.5" height="7.7"/>
<rect x="660.9" y="486.7" class="st5" width="7.5" height="7.7"/>
<rect x="676" y="486.7" class="st5" width="7.5" height="7.7"/>
<rect x="691" y="486.7" class="st5" width="7.5" height="7.7"/>
<rect x="698.5" y="479" class="st5" width="7.5" height="7.7"/>
<rect x="706" y="486.7" class="st5" width="7.5" height="7.7"/>
<rect x="706" y="471.2" class="st5" width="7.5" height="7.7"/>
<rect x="698.5" y="463.5" class="st5" width="7.5" height="7.7"/>
<rect x="691" y="455.8" class="st5" width="7.5" height="7.7"/>
<rect x="683.5" y="448.1" class="st5" width="7.5" height="7.7"/>
<rect x="676" y="440.4" class="st5" width="7.5" height="7.7"/>
<rect x="668.5" y="432.7" class="st5" width="7.5" height="7.7"/>
<rect x="683.5" y="432.7" class="st5" width="7.5" height="7.7"/>
<rect x="691" y="440.4" class="st5" width="7.5" height="7.7"/>
<rect x="698.5" y="432.7" class="st5" width="7.5" height="7.7"/>
<rect x="706" y="440.4" class="st5" width="7.5" height="7.7"/>
<rect x="698.5" y="448.1" class="st5" width="7.5" height="7.7"/>
<rect x="706" y="455.8" class="st5" width="7.5" height="7.7"/>
<rect x="713.6" y="432.7" class="st5" width="7.5" height="7.7"/>
<rect x="721.1" y="440.4" class="st5" width="7.5" height="7.7"/>
<rect x="728.6" y="448.1" class="st5" width="7.5" height="7.7"/>
<rect x="721.1" y="455.8" class="st5" width="7.5" height="7.7"/>
<rect x="728.6" y="463.5" class="st5" width="7.5" height="7.7"/>
<rect x="721.1" y="471.2" class="st5" width="7.5" height="7.7"/>
<rect x="728.6" y="479" class="st5" width="7.5" height="7.7"/>
<rect x="713.6" y="448.1" class="st5" width="7.5" height="7.7"/>
<rect x="713.6" y="463.5" class="st5" width="7.5" height="7.7"/>
<rect x="713.6" y="479" class="st5" width="7.5" height="7.7"/>
<rect x="735.1" y="471.2" class="st5" width="7.5" height="7.7"/>
<rect x="743.7" y="479" class="st5" width="7.5" height="7.7"/>
<rect x="736.1" y="455.8" class="st5" width="7.5" height="7.7"/>
<rect x="743.7" y="463.5" class="st5" width="7.5" height="7.7"/>
<rect x="751.2" y="471.2" class="st5" width="7.5" height="7.7"/>
<rect x="721.1" y="486.7" class="st5" width="7.5" height="7.7"/>
<rect x="736.1" y="486.7" class="st5" width="7.5" height="7.7"/>
<rect x="751.2" y="486.7" class="st5" width="7.5" height="7.7"/>
<rect x="758.7" y="479" class="st5" width="7.5" height="7.7"/>
<rect x="766.2" y="486.7" class="st5" width="7.5" height="7.7"/>
<rect x="766.2" y="471.2" class="st5" width="7.5" height="7.7"/>
<rect x="758.7" y="463.5" class="st5" width="7.5" height="7.7"/>
<rect x="751.2" y="455.8" class="st5" width="7.5" height="7.7"/>
<rect x="743.7" y="448.1" class="st5" width="7.5" height="7.7"/>
<rect x="736.1" y="440.4" class="st5" width="7.5" height="7.7"/>
<rect x="728.6" y="432.7" class="st5" width="7.5" height="7.7"/>
<rect x="743.7" y="432.7" class="st5" width="7.5" height="7.7"/>
<rect x="751.2" y="440.4" class="st5" width="7.5" height="7.7"/>
<rect x="758.7" y="432.7" class="st5" width="7.5" height="7.7"/>
<rect x="766.2" y="440.4" class="st5" width="7.5" height="7.7"/>
<rect x="758.7" y="448.1" class="st5" width="7.5" height="7.7"/>
<rect x="766.2" y="455.8" class="st5" width="7.5" height="7.7"/>
<rect x="773.7" y="432.7" class="st5" width="7.5" height="7.7"/>
<rect x="781.3" y="440.4" class="st5" width="7.5" height="7.7"/>
<rect x="788.8" y="448.1" class="st5" width="7.5" height="7.7"/>
<rect x="781.3" y="455.8" class="st5" width="7.5" height="7.7"/>
<rect x="788.8" y="463.5" class="st5" width="7.5" height="7.7"/>
<rect x="781.3" y="471.2" class="st5" width="7.5" height="7.7"/>
<rect x="788.8" y="479" class="st5" width="7.5" height="7.7"/>
<rect x="773.7" y="448.1" class="st5" width="7.5" height="7.7"/>
<rect x="773.7" y="463.5" class="st5" width="7.5" height="7.7"/>
<rect x="773.7" y="479" class="st5" width="7.5" height="7.7"/>
<rect x="795.3" y="471.2" class="st5" width="7.5" height="7.7"/>
<rect x="803.8" y="479" class="st5" width="7.5" height="7.7"/>
<rect x="796.3" y="455.8" class="st5" width="7.5" height="7.7"/>
<rect x="803.8" y="463.5" class="st5" width="7.5" height="7.7"/>
<rect x="811.3" y="471.2" class="st5" width="7.5" height="7.7"/>
<rect x="781.3" y="486.7" class="st5" width="7.5" height="7.7"/>
<rect x="796.3" y="486.7" class="st5" width="7.5" height="7.7"/>
<rect x="811.3" y="486.7" class="st5" width="7.5" height="7.7"/>
<rect x="818.9" y="479" class="st5" width="7.5" height="7.7"/>
<rect x="826.4" y="486.7" class="st5" width="7.5" height="7.7"/>
<rect x="826.4" y="471.2" class="st5" width="7.5" height="7.7"/>
<rect x="818.9" y="463.5" class="st5" width="7.5" height="7.7"/>
<rect x="811.3" y="455.8" class="st5" width="7.5" height="7.7"/>
<rect x="803.8" y="448.1" class="st5" width="7.5" height="7.7"/>
<rect x="796.3" y="440.4" class="st5" width="7.5" height="7.7"/>
<rect x="788.8" y="432.7" class="st5" width="7.5" height="7.7"/>
<rect x="803.8" y="432.7" class="st5" width="7.5" height="7.7"/>
<rect x="811.3" y="440.4" class="st5" width="7.5" height="7.7"/>
<rect x="818.9" y="432.7" class="st5" width="7.5" height="7.7"/>
<rect x="826.4" y="440.4" class="st5" width="7.5" height="7.7"/>
<rect x="818.9" y="448.1" class="st5" width="7.5" height="7.7"/>
<rect x="826.4" y="455.8" class="st5" width="7.5" height="7.7"/>
<rect x="833.9" y="448.1" class="st5" width="7.5" height="7.7"/>
<rect x="833.9" y="463.5" class="st5" width="7.5" height="7.7"/>
<rect x="833.9" y="479" class="st5" width="7.5" height="7.7"/>
<rect x="840.4" y="471.2" class="st5" width="7.5" height="7.7"/>
<rect x="848.9" y="479" class="st5" width="7.5" height="7.7"/>
<rect x="841.4" y="455.8" class="st5" width="7.5" height="7.7"/>
<rect x="848.9" y="463.5" class="st5" width="7.5" height="7.7"/>
<rect x="856.5" y="471.2" class="st5" width="7.5" height="7.7"/>
<rect x="841.4" y="486.7" class="st5" width="7.5" height="7.7"/>
<rect x="856.5" y="486.7" class="st5" width="7.5" height="7.7"/>
<rect x="864" y="479" class="st5" width="7.5" height="7.7"/>
<rect x="864" y="463.5" class="st5" width="7.5" height="7.7"/>
<rect x="856.5" y="455.8" class="st5" width="7.5" height="7.7"/>
<rect x="848.9" y="448.1" class="st5" width="7.5" height="7.7"/>
<rect x="841.4" y="440.4" class="st5" width="7.5" height="7.7"/>
<rect x="833.9" y="432.7" class="st5" width="7.5" height="7.7"/>
<rect x="848.9" y="432.7" class="st5" width="7.5" height="7.7"/>
<rect x="856.5" y="440.4" class="st5" width="7.5" height="7.7"/>
<rect x="864" y="432.7" class="st5" width="7.5" height="7.7"/>
<rect x="864" y="448.1" class="st5" width="7.5" height="7.7"/>
<rect x="503" y="495.1" class="st5" width="7.5" height="7.7"/>
<rect x="518.1" y="495.1" class="st5" width="7.5" height="7.7"/>
<rect x="578.2" y="495.1" class="st5" width="7.5" height="7.7"/>
<rect x="608.3" y="495.1" class="st5" width="7.5" height="7.7"/>
<rect x="593.3" y="495.1" class="st5" width="7.5" height="7.7"/>
<rect x="623.3" y="495.1" class="st5" width="7.5" height="7.7"/>
<rect x="525.5" y="486.7" class="st5" width="7.5" height="7.7"/>
<rect x="525.5" y="471.2" class="st5" width="7.5" height="7.7"/>
<rect x="525.5" y="440.4" class="st5" width="7.5" height="7.7"/>
<rect x="525.5" y="455.8" class="st5" width="7.5" height="7.7"/>
<rect x="533.1" y="432.7" class="st5" width="7.5" height="7.7"/>
<rect x="540.6" y="440.4" class="st5" width="7.5" height="7.7"/>
<rect x="548.1" y="448.1" class="st5" width="7.5" height="7.7"/>
<rect x="540.6" y="455.8" class="st5" width="7.5" height="7.7"/>
<rect x="548.1" y="463.5" class="st5" width="7.5" height="7.7"/>
<rect x="540.6" y="471.2" class="st5" width="7.5" height="7.7"/>
<rect x="548.1" y="479" class="st5" width="7.5" height="7.7"/>
<rect x="533.1" y="448.1" class="st5" width="7.5" height="7.7"/>
<rect x="533.1" y="463.5" class="st5" width="7.5" height="7.7"/>
<rect x="533.1" y="479" class="st5" width="7.5" height="7.7"/>
<rect x="554.6" y="471.2" class="st5" width="7.5" height="7.7"/>
<rect x="563.1" y="479" class="st5" width="7.5" height="7.7"/>
<rect x="555.6" y="455.8" class="st5" width="7.5" height="7.7"/>
<rect x="563.1" y="463.5" class="st5" width="7.5" height="7.7"/>
<rect x="540.6" y="486.7" class="st5" width="7.5" height="7.7"/>
<rect x="555.6" y="486.7" class="st5" width="7.5" height="7.7"/>
<rect x="563.1" y="448.1" class="st5" width="7.5" height="7.7"/>
<rect x="555.6" y="440.4" class="st5" width="7.5" height="7.7"/>
<rect x="548.1" y="432.7" class="st5" width="7.5" height="7.7"/>
<rect x="563.1" y="432.7" class="st5" width="7.5" height="7.7"/>
<rect x="548.1" y="495.1" class="st5" width="7.5" height="7.7"/>
<rect x="533.1" y="495.1" class="st5" width="7.5" height="7.7"/>
<rect x="563.1" y="495.1" class="st5" width="7.5" height="7.7"/>
<rect x="638.4" y="495.1" class="st5" width="7.5" height="7.7"/>
<rect x="668.5" y="495.1" class="st5" width="7.5" height="7.7"/>
<rect x="653.4" y="495.1" class="st5" width="7.5" height="7.7"/>
<rect x="683.5" y="495.1" class="st5" width="7.5" height="7.7"/>
<rect x="698.5" y="495.1" class="st5" width="7.5" height="7.7"/>
<rect x="728.6" y="495.1" class="st5" width="7.5" height="7.7"/>
<rect x="713.6" y="495.1" class="st5" width="7.5" height="7.7"/>
<rect x="743.7" y="495.1" class="st5" width="7.5" height="7.7"/>
<rect x="758.7" y="495.1" class="st5" width="7.5" height="7.7"/>
<rect x="788.8" y="495.1" class="st5" width="7.5" height="7.7"/>
<rect x="773.7" y="495.1" class="st5" width="7.5" height="7.7"/>
<rect x="803.8" y="495.1" class="st5" width="7.5" height="7.7"/>
<rect x="818.9" y="495.1" class="st5" width="7.5" height="7.7"/>
<rect x="833.9" y="495.1" class="st5" width="7.5" height="7.7"/>
<rect x="848.9" y="495.1" class="st5" width="7.5" height="7.7"/>
<rect x="864" y="495.1" class="st5" width="7.5" height="7.7"/>
<rect x="0.4" y="504.1" class="st1" width="872" height="72"/>
<path class="st15" d="M853.3,552.3c-0.9,7.8-8,13.4-15.9,12.5c-7.9-0.9-13.5-8-12.5-15.9c0.9-7.8,8-13.5,15.9-12.5
	C848.6,537.3,854.2,544.4,853.3,552.3z"/>
<path class="st15" d="M823.8,529.5l-4-6.8c-15.1,8.7-20.2,28-11.5,43.1l6.8-4C808.6,550.5,812.5,536,823.8,529.5z"/>
<path class="st7" d="M806.2,513.2l-4-6.8c-22.6,13.1-30.4,42-17.3,64.7l6.8-4C780.9,548.3,787.3,524.1,806.2,513.2z"/>
<path class="st11" d="M690.1,576.6c-12.2-22.6-13.3-48.7-4.7-71.6H677c-7.8,23-6.8,48.7,4.2,71.6H690.1z"/>
<path class="st11" d="M717.9,575.1c-10.3-22.9-9.8-48.3-0.3-70.2H709c-8.7,22.1-9,47.2,0.3,70.2H717.9z"/>
<path class="st17" d="M743.9,575.1c-12-22.8-10.3-49.5,2.5-70.2h-9.1c-11.4,21.3-12.8,47.2-2.2,70.2H743.9z"/>
<path class="st16" d="M763.3,575.4l5.1-3c-13-22.5-8.3-50.3,9.6-67.5h-11.1c-15.7,19.5-18.9,47.3-6.2,70.4L763.3,575.4L763.3,575.4z
	"/>
<polygon class="st12" points="524.6,0 485.5,71.7 -0.1,71.7 -0.1,0 "/>
<polygon class="st12" points="524.6,72 485.5,143.7 -0.1,143.7 -0.1,72 "/>
<rect x="0.4" y="215.9" class="st3" width="872" height="72"/>
<g class="st2">
	<path class="st15" d="M853.3,264.1c-0.9,7.8-8,13.4-15.9,12.5c-7.9-0.9-13.5-8-12.5-15.9c0.9-7.8,8-13.5,15.9-12.5
		C848.6,249.1,854.2,256.2,853.3,264.1z"/>
	<path class="st15" d="M823.8,241.3l-4-6.8c-15.1,8.7-20.2,28-11.5,43.1l6.8-4C808.6,262.3,812.5,247.8,823.8,241.3z"/>
	<path class="st7" d="M806.2,224.9l-4-6.8c-22.6,13.1-30.4,42-17.3,64.7l6.8-4C780.9,260.1,787.3,235.9,806.2,224.9z"/>
	<path class="st11" d="M690.1,288.4c-12.2-22.6-13.3-48.7-4.7-71.6H677c-7.8,23-6.8,48.7,4.2,71.6H690.1z"/>
	<path class="st11" d="M717.9,286.9c-10.3-22.9-9.8-48.3-0.3-70.2H709c-8.7,22.1-9,47.2,0.3,70.2H717.9z"/>
	<path class="st17" d="M743.9,286.9c-12-22.8-10.3-49.5,2.5-70.2h-9.1c-11.4,21.3-12.8,47.2-2.2,70.2H743.9z"/>
	<path class="st16" d="M763.3,287.2l5.1-3c-13-22.5-8.3-50.3,9.6-67.5h-11.1c-15.7,19.5-18.9,47.3-6.2,70.4L763.3,287.2L763.3,287.2
		z"/>
</g>
<rect x="0.5" y="288" class="st1" width="872" height="72"/>
<polygon class="st13" points="525,288 485.9,359.7 0.3,359.7 0.3,288 "/>
<polygon class="st13" points="525,431.8 485.9,503.5 0.3,503.5 0.3,431.8 "/>
<polygon class="st13" points="525,504 485.9,575.7 0.3,575.7 0.3,504 "/>
<rect x="0.1" y="143.7" class="st3" width="872" height="72"/>
<rect x="494.7" y="183" class="st11" width="7.5" height="7.7"/>
<rect x="494.7" y="198.5" class="st11" width="7.5" height="7.7"/>
<rect x="578.2" y="190.8" class="st11" width="7.5" height="7.7"/>
<rect x="585.7" y="198.5" class="st11" width="7.5" height="7.7"/>
<rect x="585.7" y="183" class="st11" width="7.5" height="7.7"/>
<rect x="578.2" y="175.3" class="st11" width="7.5" height="7.7"/>
<rect x="578.2" y="144.5" class="st11" width="7.5" height="7.7"/>
<rect x="585.7" y="152.2" class="st11" width="7.5" height="7.7"/>
<rect x="578.2" y="159.9" class="st11" width="7.5" height="7.7"/>
<rect x="585.7" y="167.6" class="st11" width="7.5" height="7.7"/>
<rect x="593.3" y="144.5" class="st11" width="7.5" height="7.7"/>
<rect x="600.8" y="152.2" class="st11" width="7.5" height="7.7"/>
<rect x="608.3" y="159.9" class="st11" width="7.5" height="7.7"/>
<rect x="600.8" y="167.6" class="st11" width="7.5" height="7.7"/>
<rect x="608.3" y="175.3" class="st11" width="7.5" height="7.7"/>
<rect x="600.8" y="183" class="st11" width="7.5" height="7.7"/>
<rect x="608.3" y="190.8" class="st11" width="7.5" height="7.7"/>
<rect x="593.3" y="159.9" class="st11" width="7.5" height="7.7"/>
<rect x="593.3" y="175.3" class="st11" width="7.5" height="7.7"/>
<rect x="593.3" y="190.8" class="st11" width="7.5" height="7.7"/>
<rect x="614.8" y="183" class="st11" width="7.5" height="7.7"/>
<rect x="623.3" y="190.8" class="st11" width="7.5" height="7.7"/>
<rect x="615.8" y="167.6" class="st11" width="7.5" height="7.7"/>
<rect x="623.3" y="175.3" class="st11" width="7.5" height="7.7"/>
<rect x="630.8" y="183" class="st11" width="7.5" height="7.7"/>
<rect x="600.8" y="198.5" class="st11" width="7.5" height="7.7"/>
<rect x="615.8" y="198.5" class="st11" width="7.5" height="7.7"/>
<rect x="630.8" y="198.5" class="st11" width="7.5" height="7.7"/>
<rect x="638.4" y="190.8" class="st11" width="7.5" height="7.7"/>
<rect x="645.9" y="198.5" class="st11" width="7.5" height="7.7"/>
<rect x="645.9" y="183" class="st11" width="7.5" height="7.7"/>
<rect x="638.4" y="175.3" class="st11" width="7.5" height="7.7"/>
<rect x="630.8" y="167.6" class="st11" width="7.5" height="7.7"/>
<rect x="623.3" y="159.9" class="st11" width="7.5" height="7.7"/>
<rect x="615.8" y="152.2" class="st11" width="7.5" height="7.7"/>
<rect x="608.3" y="144.5" class="st11" width="7.5" height="7.7"/>
<rect x="623.3" y="144.5" class="st11" width="7.5" height="7.7"/>
<rect x="630.8" y="152.2" class="st11" width="7.5" height="7.7"/>
<rect x="638.4" y="144.5" class="st11" width="7.5" height="7.7"/>
<rect x="645.9" y="152.2" class="st11" width="7.5" height="7.7"/>
<rect x="638.4" y="159.9" class="st11" width="7.5" height="7.7"/>
<rect x="645.9" y="167.6" class="st11" width="7.5" height="7.7"/>
<rect x="653.4" y="144.5" class="st11" width="7.5" height="7.7"/>
<rect x="660.9" y="152.2" class="st11" width="7.5" height="7.7"/>
<rect x="668.5" y="159.9" class="st11" width="7.5" height="7.7"/>
<rect x="660.9" y="167.6" class="st11" width="7.5" height="7.7"/>
<rect x="668.5" y="175.3" class="st11" width="7.5" height="7.7"/>
<rect x="660.9" y="183" class="st11" width="7.5" height="7.7"/>
<rect x="668.5" y="190.8" class="st11" width="7.5" height="7.7"/>
<rect x="653.4" y="159.9" class="st11" width="7.5" height="7.7"/>
<rect x="653.4" y="175.3" class="st11" width="7.5" height="7.7"/>
<rect x="653.4" y="190.8" class="st11" width="7.5" height="7.7"/>
<rect x="675" y="183" class="st11" width="7.5" height="7.7"/>
<rect x="683.5" y="190.8" class="st11" width="7.5" height="7.7"/>
<rect x="676" y="167.6" class="st11" width="7.5" height="7.7"/>
<rect x="683.5" y="175.3" class="st11" width="7.5" height="7.7"/>
<rect x="691" y="183" class="st11" width="7.5" height="7.7"/>
<rect x="660.9" y="198.5" class="st11" width="7.5" height="7.7"/>
<rect x="676" y="198.5" class="st11" width="7.5" height="7.7"/>
<rect x="691" y="198.5" class="st11" width="7.5" height="7.7"/>
<rect x="698.5" y="190.8" class="st11" width="7.5" height="7.7"/>
<rect x="706" y="198.5" class="st11" width="7.5" height="7.7"/>
<rect x="706" y="183" class="st11" width="7.5" height="7.7"/>
<rect x="698.5" y="175.3" class="st11" width="7.5" height="7.7"/>
<rect x="691" y="167.6" class="st11" width="7.5" height="7.7"/>
<rect x="683.5" y="159.9" class="st11" width="7.5" height="7.7"/>
<rect x="676" y="152.2" class="st11" width="7.5" height="7.7"/>
<rect x="668.5" y="144.5" class="st11" width="7.5" height="7.7"/>
<rect x="683.5" y="144.5" class="st11" width="7.5" height="7.7"/>
<rect x="691" y="152.2" class="st11" width="7.5" height="7.7"/>
<rect x="698.5" y="144.5" class="st11" width="7.5" height="7.7"/>
<rect x="706" y="152.2" class="st11" width="7.5" height="7.7"/>
<rect x="698.5" y="159.9" class="st11" width="7.5" height="7.7"/>
<rect x="706" y="167.6" class="st11" width="7.5" height="7.7"/>
<rect x="713.6" y="144.5" class="st11" width="7.5" height="7.7"/>
<rect x="721.1" y="152.2" class="st11" width="7.5" height="7.7"/>
<rect x="728.6" y="159.9" class="st11" width="7.5" height="7.7"/>
<rect x="721.1" y="167.6" class="st11" width="7.5" height="7.7"/>
<rect x="728.6" y="175.3" class="st11" width="7.5" height="7.7"/>
<rect x="721.1" y="183" class="st11" width="7.5" height="7.7"/>
<rect x="728.6" y="190.8" class="st11" width="7.5" height="7.7"/>
<rect x="713.6" y="159.9" class="st11" width="7.5" height="7.7"/>
<rect x="713.6" y="175.3" class="st11" width="7.5" height="7.7"/>
<rect x="713.6" y="190.8" class="st11" width="7.5" height="7.7"/>
<rect x="735.1" y="183" class="st11" width="7.5" height="7.7"/>
<rect x="743.7" y="190.8" class="st11" width="7.5" height="7.7"/>
<rect x="736.1" y="167.6" class="st11" width="7.5" height="7.7"/>
<rect x="743.7" y="175.3" class="st11" width="7.5" height="7.7"/>
<rect x="751.2" y="183" class="st11" width="7.5" height="7.7"/>
<rect x="721.1" y="198.5" class="st11" width="7.5" height="7.7"/>
<rect x="736.1" y="198.5" class="st11" width="7.5" height="7.7"/>
<rect x="751.2" y="198.5" class="st11" width="7.5" height="7.7"/>
<rect x="758.7" y="190.8" class="st11" width="7.5" height="7.7"/>
<rect x="766.2" y="198.5" class="st11" width="7.5" height="7.7"/>
<rect x="766.2" y="183" class="st11" width="7.5" height="7.7"/>
<rect x="758.7" y="175.3" class="st11" width="7.5" height="7.7"/>
<rect x="751.2" y="167.6" class="st11" width="7.5" height="7.7"/>
<rect x="743.7" y="159.9" class="st11" width="7.5" height="7.7"/>
<rect x="736.1" y="152.2" class="st11" width="7.5" height="7.7"/>
<rect x="728.6" y="144.5" class="st11" width="7.5" height="7.7"/>
<rect x="743.7" y="144.5" class="st11" width="7.5" height="7.7"/>
<rect x="751.2" y="152.2" class="st11" width="7.5" height="7.7"/>
<rect x="758.7" y="144.5" class="st11" width="7.5" height="7.7"/>
<rect x="766.2" y="152.2" class="st11" width="7.5" height="7.7"/>
<rect x="758.7" y="159.9" class="st11" width="7.5" height="7.7"/>
<rect x="766.2" y="167.6" class="st11" width="7.5" height="7.7"/>
<rect x="773.7" y="144.5" class="st11" width="7.5" height="7.7"/>
<rect x="781.3" y="152.2" class="st11" width="7.5" height="7.7"/>
<rect x="788.8" y="159.9" class="st11" width="7.5" height="7.7"/>
<rect x="781.3" y="167.6" class="st11" width="7.5" height="7.7"/>
<rect x="788.8" y="175.3" class="st11" width="7.5" height="7.7"/>
<rect x="781.3" y="183" class="st11" width="7.5" height="7.7"/>
<rect x="788.8" y="190.8" class="st11" width="7.5" height="7.7"/>
<rect x="773.7" y="159.9" class="st11" width="7.5" height="7.7"/>
<rect x="773.7" y="175.3" class="st11" width="7.5" height="7.7"/>
<rect x="773.7" y="190.8" class="st11" width="7.5" height="7.7"/>
<rect x="795.3" y="183" class="st11" width="7.5" height="7.7"/>
<rect x="803.8" y="190.8" class="st11" width="7.5" height="7.7"/>
<rect x="796.3" y="167.6" class="st11" width="7.5" height="7.7"/>
<rect x="803.8" y="175.3" class="st11" width="7.5" height="7.7"/>
<rect x="811.3" y="183" class="st11" width="7.5" height="7.7"/>
<rect x="781.3" y="198.5" class="st11" width="7.5" height="7.7"/>
<rect x="796.3" y="198.5" class="st11" width="7.5" height="7.7"/>
<rect x="811.3" y="198.5" class="st11" width="7.5" height="7.7"/>
<rect x="818.9" y="190.8" class="st11" width="7.5" height="7.7"/>
<rect x="826.4" y="198.5" class="st11" width="7.5" height="7.7"/>
<rect x="826.4" y="183" class="st11" width="7.5" height="7.7"/>
<rect x="818.9" y="175.3" class="st11" width="7.5" height="7.7"/>
<rect x="811.3" y="167.6" class="st11" width="7.5" height="7.7"/>
<rect x="803.8" y="159.9" class="st11" width="7.5" height="7.7"/>
<rect x="796.3" y="152.2" class="st11" width="7.5" height="7.7"/>
<rect x="788.8" y="144.5" class="st11" width="7.5" height="7.7"/>
<rect x="803.8" y="144.5" class="st11" width="7.5" height="7.7"/>
<rect x="811.3" y="152.2" class="st11" width="7.5" height="7.7"/>
<rect x="818.9" y="144.5" class="st11" width="7.5" height="7.7"/>
<rect x="826.4" y="152.2" class="st11" width="7.5" height="7.7"/>
<rect x="818.9" y="159.9" class="st11" width="7.5" height="7.7"/>
<rect x="826.4" y="167.6" class="st11" width="7.5" height="7.7"/>
<rect x="833.9" y="159.9" class="st11" width="7.5" height="7.7"/>
<rect x="833.9" y="175.3" class="st11" width="7.5" height="7.7"/>
<rect x="833.9" y="190.8" class="st11" width="7.5" height="7.7"/>
<rect x="840.4" y="183" class="st11" width="7.5" height="7.7"/>
<rect x="848.9" y="190.8" class="st11" width="7.5" height="7.7"/>
<rect x="841.4" y="167.6" class="st11" width="7.5" height="7.7"/>
<rect x="848.9" y="175.3" class="st11" width="7.5" height="7.7"/>
<rect x="856.5" y="183" class="st11" width="7.5" height="7.7"/>
<rect x="841.4" y="198.5" class="st11" width="7.5" height="7.7"/>
<rect x="856.5" y="198.5" class="st11" width="7.5" height="7.7"/>
<rect x="864" y="190.8" class="st11" width="7.5" height="7.7"/>
<rect x="864" y="175.3" class="st11" width="7.5" height="7.7"/>
<rect x="856.5" y="167.6" class="st11" width="7.5" height="7.7"/>
<rect x="848.9" y="159.9" class="st11" width="7.5" height="7.7"/>
<rect x="841.4" y="152.2" class="st11" width="7.5" height="7.7"/>
<rect x="833.9" y="144.5" class="st11" width="7.5" height="7.7"/>
<rect x="848.9" y="144.5" class="st11" width="7.5" height="7.7"/>
<rect x="856.5" y="152.2" class="st11" width="7.5" height="7.7"/>
<rect x="864" y="144.5" class="st11" width="7.5" height="7.7"/>
<rect x="864" y="159.9" class="st11" width="7.5" height="7.7"/>
<rect x="487.2" y="206.9" class="st11" width="7.5" height="7.7"/>
<rect x="578.2" y="206.9" class="st11" width="7.5" height="7.7"/>
<rect x="608.3" y="206.9" class="st11" width="7.5" height="7.7"/>
<rect x="593.3" y="206.9" class="st11" width="7.5" height="7.7"/>
<rect x="623.3" y="206.9" class="st11" width="7.5" height="7.7"/>
<rect x="638.4" y="206.9" class="st11" width="7.5" height="7.7"/>
<rect x="668.5" y="206.9" class="st11" width="7.5" height="7.7"/>
<rect x="653.4" y="206.9" class="st11" width="7.5" height="7.7"/>
<rect x="509.5" y="183" class="st11" width="7.5" height="7.7"/>
<rect x="518" y="190.8" class="st11" width="7.5" height="7.7"/>
<rect x="510.5" y="167.6" class="st11" width="7.5" height="7.7"/>
<rect x="518" y="175.3" class="st11" width="7.5" height="7.7"/>
<rect x="525.5" y="183" class="st11" width="7.5" height="7.7"/>
<rect x="510.5" y="198.5" class="st11" width="7.5" height="7.7"/>
<rect x="525.5" y="198.5" class="st11" width="7.5" height="7.7"/>
<rect x="533.1" y="190.8" class="st11" width="7.5" height="7.7"/>
<rect x="540.6" y="198.5" class="st11" width="7.5" height="7.7"/>
<rect x="540.6" y="183" class="st11" width="7.5" height="7.7"/>
<rect x="533.1" y="175.3" class="st11" width="7.5" height="7.7"/>
<rect x="525.5" y="167.6" class="st11" width="7.5" height="7.7"/>
<rect x="518" y="159.9" class="st11" width="7.5" height="7.7"/>
<rect x="510.5" y="152.2" class="st11" width="7.5" height="7.7"/>
<rect x="518" y="144.5" class="st11" width="7.5" height="7.7"/>
<rect x="525.5" y="152.2" class="st11" width="7.5" height="7.7"/>
<rect x="533.1" y="144.5" class="st11" width="7.5" height="7.7"/>
<rect x="540.6" y="152.2" class="st11" width="7.5" height="7.7"/>
<rect x="533.1" y="159.9" class="st11" width="7.5" height="7.7"/>
<rect x="540.6" y="167.6" class="st11" width="7.5" height="7.7"/>
<rect x="548.1" y="144.5" class="st11" width="7.5" height="7.7"/>
<rect x="555.6" y="152.2" class="st11" width="7.5" height="7.7"/>
<rect x="563.2" y="159.9" class="st11" width="7.5" height="7.7"/>
<rect x="555.6" y="167.6" class="st11" width="7.5" height="7.7"/>
<rect x="563.2" y="175.3" class="st11" width="7.5" height="7.7"/>
<rect x="555.6" y="183" class="st11" width="7.5" height="7.7"/>
<rect x="563.2" y="190.8" class="st11" width="7.5" height="7.7"/>
<rect x="548.1" y="159.9" class="st11" width="7.5" height="7.7"/>
<rect x="548.1" y="175.3" class="st11" width="7.5" height="7.7"/>
<rect x="548.1" y="190.8" class="st11" width="7.5" height="7.7"/>
<rect x="569.7" y="183" class="st11" width="7.5" height="7.7"/>
<rect x="570.7" y="167.6" class="st11" width="7.5" height="7.7"/>
<rect x="555.6" y="198.5" class="st11" width="7.5" height="7.7"/>
<rect x="570.7" y="198.5" class="st11" width="7.5" height="7.7"/>
<rect x="570.7" y="152.2" class="st11" width="7.5" height="7.7"/>
<rect x="563.2" y="144.5" class="st11" width="7.5" height="7.7"/>
<rect x="518" y="206.9" class="st11" width="7.5" height="7.7"/>
<rect x="502.2" y="190.8" class="st11" width="7.5" height="7.7"/>
<rect x="502.2" y="175.3" class="st11" width="7.5" height="7.7"/>
<rect x="502.2" y="206.9" class="st11" width="7.5" height="7.7"/>
<rect x="533.1" y="206.9" class="st11" width="7.5" height="7.7"/>
<rect x="563.2" y="206.9" class="st11" width="7.5" height="7.7"/>
<rect x="548.1" y="206.9" class="st11" width="7.5" height="7.7"/>
<rect x="683.5" y="206.9" class="st11" width="7.5" height="7.7"/>
<rect x="698.5" y="206.9" class="st11" width="7.5" height="7.7"/>
<rect x="728.6" y="206.9" class="st11" width="7.5" height="7.7"/>
<rect x="713.6" y="206.9" class="st11" width="7.5" height="7.7"/>
<rect x="743.7" y="206.9" class="st11" width="7.5" height="7.7"/>
<rect x="758.7" y="206.9" class="st11" width="7.5" height="7.7"/>
<rect x="788.8" y="206.9" class="st11" width="7.5" height="7.7"/>
<rect x="773.7" y="206.9" class="st11" width="7.5" height="7.7"/>
<rect x="803.8" y="206.9" class="st11" width="7.5" height="7.7"/>
<rect x="818.9" y="206.9" class="st11" width="7.5" height="7.7"/>
<rect x="833.9" y="206.9" class="st11" width="7.5" height="7.7"/>
<rect x="848.9" y="206.9" class="st11" width="7.5" height="7.7"/>
<rect x="864" y="206.9" class="st11" width="7.5" height="7.7"/>
<rect x="534.3" y="411.9" transform="matrix(-1 -4.715338e-03 4.715338e-03 -1 1069.5557 829.2385)" class="st14" width="2.9" height="3"/>
<rect x="503.1" y="419.3" transform="matrix(-1 -4.378456e-03 4.378456e-03 -1 1007.2359 843.708)" class="st14" width="2.9" height="3"/>
<polyline class="st14" points="504.5,383.5 548.2,404.3 598.7,400.3 620,375.1 669.1,381.6 688.7,359.8 "/>
<polygon class="st13" points="525,360.2 485.9,431.9 0.3,431.9 0.3,360.2 "/>
<polygon class="st12" points="524.6,143.9 485.5,215.6 -0.1,215.6 -0.1,143.9 "/>
<polygon class="st12" points="524.6,215.8 485.5,287.5 -0.1,287.5 -0.1,215.8 "/>
<polygon class="st9" points="643.8,72.8 645.9,32.8 601.2,30.5 594.2,19.1 562.1,17.4 559.2,72.8 "/>
<polygon class="st6" points="574.3,72.8 577.7,43.7 577.7,43.7 560.2,56.2 559.3,72.8 "/>
<path class="st4" d="M623.3,15.7l-17,3.2l6,32.3l26.2-4.9l-4.3-23L623.3,15.7z"/>
<polygon class="st10" points="624.9,25 634.2,23.3 623.2,15.8 "/>
<path class="st4" d="M661.3,7.8L649,3.2l-8.7,23.4l19,7.1l6.2-16.7L661.3,7.8z"/>
<polygon class="st10" points="658.7,14.5 665.4,17 661.2,7.8 "/>
<polygon class="st10" points="644.5,72.8 657.2,41.3 578.7,37.1 564.6,72.8 "/>
<polygon class="st9" points="643.8,144.1 645.9,104.1 601.2,101.8 594.2,90.4 562.1,88.7 559.2,144.1 "/>
<polygon class="st6" points="574.3,144.1 577.7,115 577.7,115 560.2,127.5 559.3,144.1 "/>
<path class="st4" d="M623.3,87.1l-17,3.2l6,32.3l26.2-4.9l-4.3-23L623.3,87.1z"/>
<polygon class="st10" points="624.9,96.3 634.2,94.6 623.2,87.1 "/>
<path class="st4" d="M661.3,79.1L649,74.5L640.3,98l19,7.1l6.2-16.7L661.3,79.1z"/>
<polygon class="st10" points="658.7,85.8 665.4,88.3 661.2,79.1 "/>
<polygon class="st10" points="644.5,144.1 657.2,112.6 578.7,108.5 564.6,144.1 "/>
<polygon class="st9" points="643.8,214.9 645.9,175 601.2,172.6 594.2,161.3 562.1,159.6 559.2,214.9 "/>
<polygon class="st6" points="574.3,214.9 577.7,185.9 577.7,185.9 560.2,198.3 559.3,214.9 "/>
<path class="st4" d="M623.3,157.9l-17,3.2l6,32.3l26.2-4.9l-4.3-23L623.3,157.9z"/>
<polygon class="st10" points="624.9,167.2 634.2,165.5 623.2,157.9 "/>
<path class="st4" d="M661.3,150l-12.3-4.6l-8.7,23.4l19,7.1l6.2-16.7L661.3,150z"/>
<polygon class="st10" points="658.7,156.6 665.4,159.1 661.2,149.9 "/>
<polygon class="st10" points="644.5,214.9 657.2,183.5 578.7,179.3 564.6,214.9 "/>
<polygon class="st9" points="643.8,287.4 645.9,247.5 601.2,245.1 594.2,233.7 562.1,232 559.2,287.4 "/>
<polygon class="st6" points="574.3,287.4 577.7,258.3 577.7,258.3 560.2,270.8 559.3,287.4 "/>
<path class="st4" d="M623.3,230.4l-17,3.2l6,32.3l26.2-4.9l-4.3-23L623.3,230.4z"/>
<polygon class="st10" points="624.9,239.6 634.2,237.9 623.2,230.4 "/>
<path class="st4" d="M661.3,222.4l-12.3-4.6l-8.7,23.4l19,7.1l6.2-16.7L661.3,222.4z"/>
<polygon class="st10" points="658.7,229.1 665.4,231.6 661.2,222.4 "/>
<polygon class="st10" points="644.5,287.4 657.2,255.9 578.7,251.8 564.6,287.4 "/>
<polygon class="st9" points="643.8,359.8 645.9,319.8 601.2,317.5 594.2,306.1 562.1,304.4 559.2,359.8 "/>
<polygon class="st6" points="574.3,359.8 577.7,330.7 577.7,330.7 560.2,343.2 559.3,359.8 "/>
<path class="st4" d="M623.3,302.8l-17,3.2l6,32.3l26.2-4.9l-4.3-23L623.3,302.8z"/>
<polygon class="st10" points="624.9,312 634.2,310.3 623.2,302.8 "/>
<path class="st4" d="M661.3,294.8l-12.3-4.6l-8.7,23.4l19,7.1l6.2-16.7L661.3,294.8z"/>
<polygon class="st10" points="658.7,301.5 665.4,304 661.2,294.8 "/>
<polygon class="st10" points="644.5,359.8 657.2,328.3 578.7,324.2 564.6,359.8 "/>
<polygon class="st9" points="643.8,432.3 645.9,392.4 601.2,390 594.2,378.6 562.1,376.9 559.2,432.3 "/>
<polygon class="st6" points="574.3,432.3 577.7,403.2 577.7,403.2 560.2,415.7 559.3,432.3 "/>
<path class="st4" d="M623.3,375.3l-17,3.2l6,32.3l26.2-4.9l-4.3-23L623.3,375.3z"/>
<polygon class="st10" points="624.9,384.5 634.2,382.8 623.2,375.3 "/>
<path class="st4" d="M661.3,367.3l-12.3-4.6l-8.7,23.4l19,7.1l6.2-16.7L661.3,367.3z"/>
<polygon class="st10" points="658.7,374 665.4,376.5 661.2,367.3 "/>
<polygon class="st10" points="644.5,432.3 657.2,400.8 578.7,396.7 564.6,432.3 "/>
<polygon class="st9" points="643.8,503.7 645.9,463.8 601.2,461.4 594.2,450 562.1,448.3 559.2,503.7 "/>
<polygon class="st6" points="574.3,503.7 577.7,474.6 577.7,474.6 560.2,487.1 559.3,503.7 "/>
<path class="st4" d="M623.3,446.7l-17,3.2l6,32.3l26.2-4.9l-4.3-23L623.3,446.7z"/>
<polygon class="st10" points="624.9,456 634.2,454.2 623.2,446.7 "/>
<path class="st4" d="M661.3,438.7l-12.3-4.6l-8.7,23.4l19,7.1l6.2-16.7L661.3,438.7z"/>
<polygon class="st10" points="658.7,445.4 665.4,447.9 661.2,438.7 "/>
<polygon class="st10" points="644.5,503.7 657.2,472.2 578.7,468.1 564.6,503.7 "/>
<polygon class="st9" points="643.8,576.6 645.9,536.7 601.2,534.3 594.2,523 562.1,521.3 559.2,576.6 "/>
<polygon class="st6" points="574.3,576.6 577.7,547.6 577.7,547.6 560.2,560 559.3,576.6 "/>
<path class="st4" d="M623.3,519.6l-17,3.2l6,32.3l26.2-4.9l-4.3-23L623.3,519.6z"/>
<polygon class="st10" points="624.9,528.9 634.2,527.2 623.2,519.6 "/>
<path class="st4" d="M661.3,511.6l-12.3-4.6l-8.7,23.4l19,7.1l6.2-16.7L661.3,511.6z"/>
<polygon class="st10" points="658.7,518.3 665.4,520.8 661.2,511.6 "/>
<polygon class="st10" points="644.5,576.6 657.2,545.2 578.7,541 564.6,576.6 "/>
</svg>
