<svg xmlns="http://www.w3.org/2000/svg" width="872" height="576.6" viewBox="0 0 872 576.6"><style type="text/css"><![CDATA[
	.st0{opacity:0.13;fill:none;stroke:#010202;stroke-width:2;enable-background:new;}
	.st1{fill:#4A4949;}	.st2{opacity:0.18;}	.st3{fill:#B5D3E0;}	.st4{fill:#EDEDED;}
	.st5{fill:#535252;}	.st6{fill:#8C8C8C;}	.st7{opacity:0.75;fill:#3D3D3C;enable-background:new;}
	.st8{opacity:0.13;fill:none;stroke:#010202;stroke-width:0.75;enable-background:new;}
	.st9{fill:#969696;}	.st10{fill:#C8C8C8;} .st11{opacity:0.1;fill:#3D3D3C;enable-background:new;}
	.st12{fill:#CEE3EB;} .st13{fill:#545454;enable-background:new;}	.st15{fill:#3D3D3C;}
	.st14{fill:none;stroke:#444444;stroke-width:2;enable-background:new;}
	.st16{opacity:0.5;fill:#3D3D3C;enable-background:new;}
	.st17{opacity:0.25;fill:#3D3D3C;enable-background:new;}
]]></style><path class="st3" d="M.1 0h872v72H.1zM.2 72h872v72H.2z"/><path class="st0" d="M819.903 88.608l-2.9-.014.014-3 2.9.014zM807.3 113.707l-2.9-.01.013-3 2.9.01zM800.302 98.41l-2.9-.015.014-3 2.9.014zM862.203 107.61l-2.9-.015.014-3 2.9.014zM841.803 113.91l-2.9-.016.017-3 2.9.016zM724.7 126.01l-3-.015.015-3 3 .014zM762.2 112.308l-2.9-.013.015-3 2.9.013zM744.502 104.31l-3-.016.015-3 3 .015zM774.2 78.81l-2.9-.015.015-3 2.9.014zM691.1 90.11l-3-.015.014-3 3 .014zM622.9 116.808l-2.9-.014.013-3 2.9.014zM610.3 82.108l-2.9-.014.015-3 2.9.014zM576.2 123.11l-2.9-.015.013-3 2.9.014zM548.7 91.51l-2.9-.016.014-3 2.9.015zM537.198 126.808l-2.9-.013.014-3 2.9.013zM505.97 134.194l-2.9-.013.015-3 2.9.014zM563 105.71l-3-.016.015-3 3 .015zM654.9 82.108l-2.9-.014.015-3 2.9.014zM705.302 135.71l-3-.015.015-3 3 .015zM504.5 95.4l43.7 20.8 50.5-4L620 87l49.1 6.5 19.6-21.8M620 142.7l32-31.9 89 3 19.3 13.5 38.5-55.6M871.6 135.7l-39-46.4-15.1 40.4-39.2-2.4-11 15.4"/><path class="st0" d="M659.7 126.01l-2.9-.016.017-3 2.9.016zM710.8 83.508l-2.9-.013.013-3 2.9.013z"/><path class="st1" d="M.2 360.2h872v72H.2z"/><path class="st14" d="M819.903 376.814l-2.9-.014.014-3 2.9.014zM807.3 402.014l-2.9-.01.012-3 2.9.01zM800.302 386.616l-2.9-.014.014-3 2.9.014zM862.203 395.814l-2.9-.014.014-3 2.9.014zM841.804 402.117l-2.9-.016.016-3 2.9.017zM724.702 414.215l-3-.014.013-3 3 .015zM762.2 400.516l-2.9-.014.015-3 2.9.014zM744.502 392.518l-3-.015.015-3 3 .015zM774.202 367.016l-2.9-.013.014-3 2.9.013zM691.1 378.314l-3-.013.015-3 3 .014zM622.9 405.016l-2.9-.014.015-3 2.9.014zM610.298 370.316l-2.9-.016.016-3 2.9.016zM576.2 411.314l-2.9-.014.013-3 2.9.014zM548.7 379.716l-2.9-.015.017-3 2.9.016zM537.2 415.016l-2.9-.014.014-3 2.9.014zM563 393.92l-3-.017.016-3 3 .016zM654.898 370.316l-2.9-.016.017-3 2.9.016zM705.302 423.92l-3-.017.015-3 3 .016zM620 430.9l32-31.9 89 3 19.3 13.5 38.5-55.6M871.6 423.9l-39-46.4-15.1 40.4-39.2-2.4-11 15.4"/><path class="st8" d="M729.3 361.3"/><path class="st14" d="M659.7 414.22l-2.9-.016.017-3 2.9.016zM710.802 371.713l-2.9-.012.012-3 2.9.013z"/><path class="st1" d="M.1 431.9h872v72H.1z"/><path class="st5" d="M503 463.5h7.5v7.7H503zM495.5 471.2h7.5v7.7h-7.5zM503 479h7.5v7.7H503zM509.6 471.2h7.5v7.7h-7.5zM518.1 479h7.5v7.7h-7.5zM510.6 455.8h7.5v7.7h-7.5zM518.1 463.5h7.5v7.7h-7.5zM570.7 471.2h7.5v7.7h-7.5zM495.5 486.7h7.5v7.7h-7.5zM488 495.1h7.5v7.7H488zM510.6 486.7h7.5v7.7h-7.5zM570.7 486.7h7.5v7.7h-7.5zM578.2 479h7.5v7.7h-7.5zM585.7 486.7h7.5v7.7h-7.5zM585.7 471.2h7.5v7.7h-7.5zM578.2 463.5h7.5v7.7h-7.5zM570.7 455.8h7.5v7.7h-7.5zM518.1 448.1h7.5v7.7h-7.5zM510.6 440.4h7.5v7.7h-7.5zM518.1 432.7h7.5v7.7h-7.5zM570.7 440.4h7.5v7.7h-7.5zM578.2 432.7h7.5v7.7h-7.5zM585.7 440.4h7.5v7.7h-7.5zM578.2 448.1h7.5v7.7h-7.5zM585.7 455.8h7.5v7.7h-7.5zM593.3 432.7h7.5v7.7h-7.5zM600.8 440.4h7.5v7.7h-7.5zM608.3 448.1h7.5v7.7h-7.5zM600.8 455.8h7.5v7.7h-7.5zM608.3 463.5h7.5v7.7h-7.5zM600.8 471.2h7.5v7.7h-7.5zM608.3 479h7.5v7.7h-7.5zM593.3 448.1h7.5v7.7h-7.5zM593.3 463.5h7.5v7.7h-7.5zM593.3 479h7.5v7.7h-7.5zM614.8 471.2h7.5v7.7h-7.5zM623.3 479h7.5v7.7h-7.5zM615.8 455.8h7.5v7.7h-7.5zM623.3 463.5h7.5v7.7h-7.5zM630.8 471.2h7.5v7.7h-7.5zM600.8 486.7h7.5v7.7h-7.5zM615.8 486.7h7.5v7.7h-7.5zM630.8 486.7h7.5v7.7h-7.5zM638.4 479h7.5v7.7h-7.5zM645.9 486.7h7.5v7.7h-7.5zM645.9 471.2h7.5v7.7h-7.5zM638.4 463.5h7.5v7.7h-7.5zM630.8 455.8h7.5v7.7h-7.5zM623.3 448.1h7.5v7.7h-7.5zM615.8 440.4h7.5v7.7h-7.5zM608.3 432.7h7.5v7.7h-7.5zM623.3 432.7h7.5v7.7h-7.5zM630.8 440.4h7.5v7.7h-7.5zM638.4 432.7h7.5v7.7h-7.5zM645.9 440.4h7.5v7.7h-7.5zM638.4 448.1h7.5v7.7h-7.5zM645.9 455.8h7.5v7.7h-7.5zM653.4 432.7h7.5v7.7h-7.5zM660.9 440.4h7.5v7.7h-7.5zM668.5 448.1h7.5v7.7h-7.5zM660.9 455.8h7.5v7.7h-7.5zM668.5 463.5h7.5v7.7h-7.5zM660.9 471.2h7.5v7.7h-7.5zM668.5 479h7.5v7.7h-7.5zM653.4 448.1h7.5v7.7h-7.5zM653.4 463.5h7.5v7.7h-7.5zM653.4 479h7.5v7.7h-7.5zM675 471.2h7.5v7.7H675zM683.5 479h7.5v7.7h-7.5zM676 455.8h7.5v7.7H676zM683.5 463.5h7.5v7.7h-7.5zM691 471.2h7.5v7.7H691zM660.9 486.7h7.5v7.7h-7.5zM676 486.7h7.5v7.7H676zM691 486.7h7.5v7.7H691zM698.5 479h7.5v7.7h-7.5zM706 486.7h7.5v7.7H706zM706 471.2h7.5v7.7H706zM698.5 463.5h7.5v7.7h-7.5zM691 455.8h7.5v7.7H691zM683.5 448.1h7.5v7.7h-7.5zM676 440.4h7.5v7.7H676zM668.5 432.7h7.5v7.7h-7.5zM683.5 432.7h7.5v7.7h-7.5zM691 440.4h7.5v7.7H691zM698.5 432.7h7.5v7.7h-7.5zM706 440.4h7.5v7.7H706zM698.5 448.1h7.5v7.7h-7.5zM706 455.8h7.5v7.7H706zM713.6 432.7h7.5v7.7h-7.5zM721.1 440.4h7.5v7.7h-7.5zM728.6 448.1h7.5v7.7h-7.5zM721.1 455.8h7.5v7.7h-7.5zM728.6 463.5h7.5v7.7h-7.5zM721.1 471.2h7.5v7.7h-7.5zM728.6 479h7.5v7.7h-7.5zM713.6 448.1h7.5v7.7h-7.5zM713.6 463.5h7.5v7.7h-7.5zM713.6 479h7.5v7.7h-7.5zM735.1 471.2h7.5v7.7h-7.5zM743.7 479h7.5v7.7h-7.5zM736.1 455.8h7.5v7.7h-7.5zM743.7 463.5h7.5v7.7h-7.5zM751.2 471.2h7.5v7.7h-7.5zM721.1 486.7h7.5v7.7h-7.5zM736.1 486.7h7.5v7.7h-7.5zM751.2 486.7h7.5v7.7h-7.5zM758.7 479h7.5v7.7h-7.5zM766.2 486.7h7.5v7.7h-7.5zM766.2 471.2h7.5v7.7h-7.5zM758.7 463.5h7.5v7.7h-7.5zM751.2 455.8h7.5v7.7h-7.5zM743.7 448.1h7.5v7.7h-7.5zM736.1 440.4h7.5v7.7h-7.5zM728.6 432.7h7.5v7.7h-7.5zM743.7 432.7h7.5v7.7h-7.5zM751.2 440.4h7.5v7.7h-7.5zM758.7 432.7h7.5v7.7h-7.5zM766.2 440.4h7.5v7.7h-7.5zM758.7 448.1h7.5v7.7h-7.5zM766.2 455.8h7.5v7.7h-7.5zM773.7 432.7h7.5v7.7h-7.5zM781.3 440.4h7.5v7.7h-7.5zM788.8 448.1h7.5v7.7h-7.5zM781.3 455.8h7.5v7.7h-7.5zM788.8 463.5h7.5v7.7h-7.5zM781.3 471.2h7.5v7.7h-7.5zM788.8 479h7.5v7.7h-7.5zM773.7 448.1h7.5v7.7h-7.5zM773.7 463.5h7.5v7.7h-7.5zM773.7 479h7.5v7.7h-7.5zM795.3 471.2h7.5v7.7h-7.5zM803.8 479h7.5v7.7h-7.5zM796.3 455.8h7.5v7.7h-7.5zM803.8 463.5h7.5v7.7h-7.5zM811.3 471.2h7.5v7.7h-7.5zM781.3 486.7h7.5v7.7h-7.5zM796.3 486.7h7.5v7.7h-7.5zM811.3 486.7h7.5v7.7h-7.5zM818.9 479h7.5v7.7h-7.5zM826.4 486.7h7.5v7.7h-7.5zM826.4 471.2h7.5v7.7h-7.5zM818.9 463.5h7.5v7.7h-7.5zM811.3 455.8h7.5v7.7h-7.5zM803.8 448.1h7.5v7.7h-7.5zM796.3 440.4h7.5v7.7h-7.5zM788.8 432.7h7.5v7.7h-7.5zM803.8 432.7h7.5v7.7h-7.5zM811.3 440.4h7.5v7.7h-7.5zM818.9 432.7h7.5v7.7h-7.5zM826.4 440.4h7.5v7.7h-7.5zM818.9 448.1h7.5v7.7h-7.5zM826.4 455.8h7.5v7.7h-7.5zM833.9 448.1h7.5v7.7h-7.5zM833.9 463.5h7.5v7.7h-7.5zM833.9 479h7.5v7.7h-7.5zM840.4 471.2h7.5v7.7h-7.5zM848.9 479h7.5v7.7h-7.5zM841.4 455.8h7.5v7.7h-7.5zM848.9 463.5h7.5v7.7h-7.5zM856.5 471.2h7.5v7.7h-7.5zM841.4 486.7h7.5v7.7h-7.5zM856.5 486.7h7.5v7.7h-7.5zM864 479h7.5v7.7H864zM864 463.5h7.5v7.7H864zM856.5 455.8h7.5v7.7h-7.5zM848.9 448.1h7.5v7.7h-7.5zM841.4 440.4h7.5v7.7h-7.5zM833.9 432.7h7.5v7.7h-7.5zM848.9 432.7h7.5v7.7h-7.5zM856.5 440.4h7.5v7.7h-7.5zM864 432.7h7.5v7.7H864zM864 448.1h7.5v7.7H864zM503 495.1h7.5v7.7H503zM518.1 495.1h7.5v7.7h-7.5zM578.2 495.1h7.5v7.7h-7.5zM608.3 495.1h7.5v7.7h-7.5zM593.3 495.1h7.5v7.7h-7.5zM623.3 495.1h7.5v7.7h-7.5zM525.5 486.7h7.5v7.7h-7.5zM525.5 471.2h7.5v7.7h-7.5zM525.5 440.4h7.5v7.7h-7.5zM525.5 455.8h7.5v7.7h-7.5zM533.1 432.7h7.5v7.7h-7.5zM540.6 440.4h7.5v7.7h-7.5zM548.1 448.1h7.5v7.7h-7.5zM540.6 455.8h7.5v7.7h-7.5zM548.1 463.5h7.5v7.7h-7.5zM540.6 471.2h7.5v7.7h-7.5zM548.1 479h7.5v7.7h-7.5zM533.1 448.1h7.5v7.7h-7.5zM533.1 463.5h7.5v7.7h-7.5zM533.1 479h7.5v7.7h-7.5zM554.6 471.2h7.5v7.7h-7.5zM563.1 479h7.5v7.7h-7.5zM555.6 455.8h7.5v7.7h-7.5zM563.1 463.5h7.5v7.7h-7.5zM540.6 486.7h7.5v7.7h-7.5zM555.6 486.7h7.5v7.7h-7.5zM563.1 448.1h7.5v7.7h-7.5zM555.6 440.4h7.5v7.7h-7.5zM548.1 432.7h7.5v7.7h-7.5zM563.1 432.7h7.5v7.7h-7.5zM548.1 495.1h7.5v7.7h-7.5zM533.1 495.1h7.5v7.7h-7.5zM563.1 495.1h7.5v7.7h-7.5zM638.4 495.1h7.5v7.7h-7.5zM668.5 495.1h7.5v7.7h-7.5zM653.4 495.1h7.5v7.7h-7.5zM683.5 495.1h7.5v7.7h-7.5zM698.5 495.1h7.5v7.7h-7.5zM728.6 495.1h7.5v7.7h-7.5zM713.6 495.1h7.5v7.7h-7.5zM743.7 495.1h7.5v7.7h-7.5zM758.7 495.1h7.5v7.7h-7.5zM788.8 495.1h7.5v7.7h-7.5zM773.7 495.1h7.5v7.7h-7.5zM803.8 495.1h7.5v7.7h-7.5zM818.9 495.1h7.5v7.7h-7.5zM833.9 495.1h7.5v7.7h-7.5zM848.9 495.1h7.5v7.7h-7.5zM864 495.1h7.5v7.7H864z"/><path class="st1" d="M.4 504.1h872v72H.4z"/><path class="st15" d="M853.3 552.3c-.9 7.8-8 13.4-15.9 12.5-7.9-.9-13.5-8-12.5-15.9.9-7.8 8-13.5 15.9-12.5 7.8.9 13.4 8 12.5 15.9zM823.8 529.5l-4-6.8c-15.1 8.7-20.2 28-11.5 43.1l6.8-4c-6.5-11.3-2.6-25.8 8.7-32.3z"/><path class="st7" d="M806.2 513.2l-4-6.8c-22.6 13.1-30.4 42-17.3 64.7l6.8-4c-10.8-18.8-4.4-43 14.5-53.9z"/><path class="st11" d="M690.1 576.6c-12.2-22.6-13.3-48.7-4.7-71.6H677c-7.8 23-6.8 48.7 4.2 71.6h8.9zM717.9 575.1c-10.3-22.9-9.8-48.3-.3-70.2H709c-8.7 22.1-9 47.2.3 70.2h8.6z"/><path class="st17" d="M743.9 575.1c-12-22.8-10.3-49.5 2.5-70.2h-9.1c-11.4 21.3-12.8 47.2-2.2 70.2h8.8z"/><path class="st16" d="M763.3 575.4l5.1-3c-13-22.5-8.3-50.3 9.6-67.5h-11.1c-15.7 19.5-18.9 47.3-6.2 70.4l2.6.1z"/><path class="st12" d="M524.6 0l-39.1 71.7H-.1V0zM524.6 72l-39.1 71.7H-.1V72z"/><path class="st3" d="M.4 215.9h872v72H.4z"/><g class="st2"><path class="st15" d="M853.3 264.1c-.9 7.8-8 13.4-15.9 12.5-7.9-.9-13.5-8-12.5-15.9.9-7.8 8-13.5 15.9-12.5 7.8.9 13.4 8 12.5 15.9zM823.8 241.3l-4-6.8c-15.1 8.7-20.2 28-11.5 43.1l6.8-4c-6.5-11.3-2.6-25.8 8.7-32.3z"/><path class="st7" d="M806.2 224.9l-4-6.8c-22.6 13.1-30.4 42-17.3 64.7l6.8-4c-10.8-18.7-4.4-42.9 14.5-53.9z"/><path class="st11" d="M690.1 288.4c-12.2-22.6-13.3-48.7-4.7-71.6H677c-7.8 23-6.8 48.7 4.2 71.6h8.9zM717.9 286.9c-10.3-22.9-9.8-48.3-.3-70.2H709c-8.7 22.1-9 47.2.3 70.2h8.6z"/><path class="st17" d="M743.9 286.9c-12-22.8-10.3-49.5 2.5-70.2h-9.1c-11.4 21.3-12.8 47.2-2.2 70.2h8.8z"/><path class="st16" d="M763.3 287.2l5.1-3c-13-22.5-8.3-50.3 9.6-67.5h-11.1c-15.7 19.5-18.9 47.3-6.2 70.4l2.6.1z"/></g><path class="st1" d="M.5 288h872v72H.5z"/><path class="st13" d="M525 288l-39.1 71.7H.3V288zM525 431.8l-39.1 71.7H.3v-71.7zM525 504l-39.1 71.7H.3V504z"/><path class="st3" d="M.1 143.7h872v72H.1z"/><path class="st11" d="M494.7 183h7.5v7.7h-7.5zM494.7 198.5h7.5v7.7h-7.5zM578.2 190.8h7.5v7.7h-7.5zM585.7 198.5h7.5v7.7h-7.5zM585.7 183h7.5v7.7h-7.5zM578.2 175.3h7.5v7.7h-7.5zM578.2 144.5h7.5v7.7h-7.5zM585.7 152.2h7.5v7.7h-7.5zM578.2 159.9h7.5v7.7h-7.5zM585.7 167.6h7.5v7.7h-7.5zM593.3 144.5h7.5v7.7h-7.5zM600.8 152.2h7.5v7.7h-7.5zM608.3 159.9h7.5v7.7h-7.5zM600.8 167.6h7.5v7.7h-7.5zM608.3 175.3h7.5v7.7h-7.5zM600.8 183h7.5v7.7h-7.5zM608.3 190.8h7.5v7.7h-7.5zM593.3 159.9h7.5v7.7h-7.5zM593.3 175.3h7.5v7.7h-7.5zM593.3 190.8h7.5v7.7h-7.5zM614.8 183h7.5v7.7h-7.5zM623.3 190.8h7.5v7.7h-7.5zM615.8 167.6h7.5v7.7h-7.5zM623.3 175.3h7.5v7.7h-7.5zM630.8 183h7.5v7.7h-7.5zM600.8 198.5h7.5v7.7h-7.5zM615.8 198.5h7.5v7.7h-7.5zM630.8 198.5h7.5v7.7h-7.5zM638.4 190.8h7.5v7.7h-7.5zM645.9 198.5h7.5v7.7h-7.5zM645.9 183h7.5v7.7h-7.5zM638.4 175.3h7.5v7.7h-7.5zM630.8 167.6h7.5v7.7h-7.5zM623.3 159.9h7.5v7.7h-7.5zM615.8 152.2h7.5v7.7h-7.5zM608.3 144.5h7.5v7.7h-7.5zM623.3 144.5h7.5v7.7h-7.5zM630.8 152.2h7.5v7.7h-7.5zM638.4 144.5h7.5v7.7h-7.5zM645.9 152.2h7.5v7.7h-7.5zM638.4 159.9h7.5v7.7h-7.5zM645.9 167.6h7.5v7.7h-7.5zM653.4 144.5h7.5v7.7h-7.5zM660.9 152.2h7.5v7.7h-7.5zM668.5 159.9h7.5v7.7h-7.5zM660.9 167.6h7.5v7.7h-7.5zM668.5 175.3h7.5v7.7h-7.5zM660.9 183h7.5v7.7h-7.5zM668.5 190.8h7.5v7.7h-7.5zM653.4 159.9h7.5v7.7h-7.5zM653.4 175.3h7.5v7.7h-7.5zM653.4 190.8h7.5v7.7h-7.5zM675 183h7.5v7.7H675zM683.5 190.8h7.5v7.7h-7.5zM676 167.6h7.5v7.7H676zM683.5 175.3h7.5v7.7h-7.5zM691 183h7.5v7.7H691zM660.9 198.5h7.5v7.7h-7.5zM676 198.5h7.5v7.7H676zM691 198.5h7.5v7.7H691zM698.5 190.8h7.5v7.7h-7.5zM706 198.5h7.5v7.7H706zM706 183h7.5v7.7H706zM698.5 175.3h7.5v7.7h-7.5zM691 167.6h7.5v7.7H691zM683.5 159.9h7.5v7.7h-7.5zM676 152.2h7.5v7.7H676zM668.5 144.5h7.5v7.7h-7.5zM683.5 144.5h7.5v7.7h-7.5zM691 152.2h7.5v7.7H691zM698.5 144.5h7.5v7.7h-7.5zM706 152.2h7.5v7.7H706zM698.5 159.9h7.5v7.7h-7.5zM706 167.6h7.5v7.7H706zM713.6 144.5h7.5v7.7h-7.5zM721.1 152.2h7.5v7.7h-7.5zM728.6 159.9h7.5v7.7h-7.5zM721.1 167.6h7.5v7.7h-7.5zM728.6 175.3h7.5v7.7h-7.5zM721.1 183h7.5v7.7h-7.5zM728.6 190.8h7.5v7.7h-7.5zM713.6 159.9h7.5v7.7h-7.5zM713.6 175.3h7.5v7.7h-7.5zM713.6 190.8h7.5v7.7h-7.5zM735.1 183h7.5v7.7h-7.5zM743.7 190.8h7.5v7.7h-7.5zM736.1 167.6h7.5v7.7h-7.5zM743.7 175.3h7.5v7.7h-7.5zM751.2 183h7.5v7.7h-7.5zM721.1 198.5h7.5v7.7h-7.5zM736.1 198.5h7.5v7.7h-7.5zM751.2 198.5h7.5v7.7h-7.5zM758.7 190.8h7.5v7.7h-7.5zM766.2 198.5h7.5v7.7h-7.5zM766.2 183h7.5v7.7h-7.5zM758.7 175.3h7.5v7.7h-7.5zM751.2 167.6h7.5v7.7h-7.5zM743.7 159.9h7.5v7.7h-7.5zM736.1 152.2h7.5v7.7h-7.5zM728.6 144.5h7.5v7.7h-7.5zM743.7 144.5h7.5v7.7h-7.5zM751.2 152.2h7.5v7.7h-7.5zM758.7 144.5h7.5v7.7h-7.5zM766.2 152.2h7.5v7.7h-7.5zM758.7 159.9h7.5v7.7h-7.5zM766.2 167.6h7.5v7.7h-7.5zM773.7 144.5h7.5v7.7h-7.5zM781.3 152.2h7.5v7.7h-7.5zM788.8 159.9h7.5v7.7h-7.5zM781.3 167.6h7.5v7.7h-7.5zM788.8 175.3h7.5v7.7h-7.5zM781.3 183h7.5v7.7h-7.5zM788.8 190.8h7.5v7.7h-7.5zM773.7 159.9h7.5v7.7h-7.5zM773.7 175.3h7.5v7.7h-7.5zM773.7 190.8h7.5v7.7h-7.5zM795.3 183h7.5v7.7h-7.5zM803.8 190.8h7.5v7.7h-7.5zM796.3 167.6h7.5v7.7h-7.5zM803.8 175.3h7.5v7.7h-7.5zM811.3 183h7.5v7.7h-7.5zM781.3 198.5h7.5v7.7h-7.5zM796.3 198.5h7.5v7.7h-7.5zM811.3 198.5h7.5v7.7h-7.5zM818.9 190.8h7.5v7.7h-7.5zM826.4 198.5h7.5v7.7h-7.5zM826.4 183h7.5v7.7h-7.5zM818.9 175.3h7.5v7.7h-7.5zM811.3 167.6h7.5v7.7h-7.5zM803.8 159.9h7.5v7.7h-7.5zM796.3 152.2h7.5v7.7h-7.5zM788.8 144.5h7.5v7.7h-7.5zM803.8 144.5h7.5v7.7h-7.5zM811.3 152.2h7.5v7.7h-7.5zM818.9 144.5h7.5v7.7h-7.5zM826.4 152.2h7.5v7.7h-7.5zM818.9 159.9h7.5v7.7h-7.5zM826.4 167.6h7.5v7.7h-7.5zM833.9 159.9h7.5v7.7h-7.5zM833.9 175.3h7.5v7.7h-7.5zM833.9 190.8h7.5v7.7h-7.5zM840.4 183h7.5v7.7h-7.5zM848.9 190.8h7.5v7.7h-7.5zM841.4 167.6h7.5v7.7h-7.5zM848.9 175.3h7.5v7.7h-7.5zM856.5 183h7.5v7.7h-7.5zM841.4 198.5h7.5v7.7h-7.5zM856.5 198.5h7.5v7.7h-7.5zM864 190.8h7.5v7.7H864zM864 175.3h7.5v7.7H864zM856.5 167.6h7.5v7.7h-7.5zM848.9 159.9h7.5v7.7h-7.5zM841.4 152.2h7.5v7.7h-7.5zM833.9 144.5h7.5v7.7h-7.5zM848.9 144.5h7.5v7.7h-7.5zM856.5 152.2h7.5v7.7h-7.5zM864 144.5h7.5v7.7H864zM864 159.9h7.5v7.7H864zM487.2 206.9h7.5v7.7h-7.5zM578.2 206.9h7.5v7.7h-7.5zM608.3 206.9h7.5v7.7h-7.5zM593.3 206.9h7.5v7.7h-7.5zM623.3 206.9h7.5v7.7h-7.5zM638.4 206.9h7.5v7.7h-7.5zM668.5 206.9h7.5v7.7h-7.5zM653.4 206.9h7.5v7.7h-7.5zM509.5 183h7.5v7.7h-7.5zM518 190.8h7.5v7.7H518zM510.5 167.6h7.5v7.7h-7.5zM518 175.3h7.5v7.7H518zM525.5 183h7.5v7.7h-7.5zM510.5 198.5h7.5v7.7h-7.5zM525.5 198.5h7.5v7.7h-7.5zM533.1 190.8h7.5v7.7h-7.5zM540.6 198.5h7.5v7.7h-7.5zM540.6 183h7.5v7.7h-7.5zM533.1 175.3h7.5v7.7h-7.5zM525.5 167.6h7.5v7.7h-7.5zM518 159.9h7.5v7.7H518zM510.5 152.2h7.5v7.7h-7.5zM518 144.5h7.5v7.7H518zM525.5 152.2h7.5v7.7h-7.5zM533.1 144.5h7.5v7.7h-7.5zM540.6 152.2h7.5v7.7h-7.5zM533.1 159.9h7.5v7.7h-7.5zM540.6 167.6h7.5v7.7h-7.5zM548.1 144.5h7.5v7.7h-7.5zM555.6 152.2h7.5v7.7h-7.5zM563.2 159.9h7.5v7.7h-7.5zM555.6 167.6h7.5v7.7h-7.5zM563.2 175.3h7.5v7.7h-7.5zM555.6 183h7.5v7.7h-7.5zM563.2 190.8h7.5v7.7h-7.5zM548.1 159.9h7.5v7.7h-7.5zM548.1 175.3h7.5v7.7h-7.5zM548.1 190.8h7.5v7.7h-7.5zM569.7 183h7.5v7.7h-7.5zM570.7 167.6h7.5v7.7h-7.5zM555.6 198.5h7.5v7.7h-7.5zM570.7 198.5h7.5v7.7h-7.5zM570.7 152.2h7.5v7.7h-7.5zM563.2 144.5h7.5v7.7h-7.5zM518 206.9h7.5v7.7H518zM502.2 190.8h7.5v7.7h-7.5zM502.2 175.3h7.5v7.7h-7.5zM502.2 206.9h7.5v7.7h-7.5zM533.1 206.9h7.5v7.7h-7.5zM563.2 206.9h7.5v7.7h-7.5zM548.1 206.9h7.5v7.7h-7.5zM683.5 206.9h7.5v7.7h-7.5zM698.5 206.9h7.5v7.7h-7.5zM728.6 206.9h7.5v7.7h-7.5zM713.6 206.9h7.5v7.7h-7.5zM743.7 206.9h7.5v7.7h-7.5zM758.7 206.9h7.5v7.7h-7.5zM788.8 206.9h7.5v7.7h-7.5zM773.7 206.9h7.5v7.7h-7.5zM803.8 206.9h7.5v7.7h-7.5zM818.9 206.9h7.5v7.7h-7.5zM833.9 206.9h7.5v7.7h-7.5zM848.9 206.9h7.5v7.7h-7.5zM864 206.9h7.5v7.7H864z"/><path class="st14" d="M537.198 414.82l-2.9-.015.014-3 2.9.014zM505.972 422.205l-2.9-.012.013-3 2.9.012zM504.5 383.5l43.7 20.8 50.5-4 21.3-25.2 49.1 6.5 19.6-21.8"/><path class="st13" d="M525 360.2l-39.1 71.7H.3v-71.7z"/><path class="st12" d="M524.6 143.9l-39.1 71.7H-.1v-71.7zM524.6 215.8l-39.1 71.7H-.1v-71.7z"/><path class="st9" d="M643.8 72.8l2.1-40-44.7-2.3-7-11.4-32.1-1.7-2.9 55.4z"/><path class="st6" d="M574.3 72.8l3.4-29.1-17.5 12.5-.9 16.6z"/><path class="st4" d="M623.3 15.7l-17 3.2 6 32.3 26.2-4.9-4.3-23-10.9-7.6z"/><path class="st10" d="M624.9 25l9.3-1.7-11-7.5z"/><path class="st4" d="M661.3 7.8L649 3.2l-8.7 23.4 19 7.1 6.2-16.7-4.2-9.2z"/><path class="st10" d="M658.7 14.5l6.7 2.5-4.2-9.2zM644.5 72.8l12.7-31.5-78.5-4.2-14.1 35.7z"/><path class="st9" d="M643.8 144.1l2.1-40-44.7-2.3-7-11.4-32.1-1.7-2.9 55.4z"/><path class="st6" d="M574.3 144.1l3.4-29.1-17.5 12.5-.9 16.6z"/><path class="st4" d="M623.3 87.1l-17 3.2 6 32.3 26.2-4.9-4.3-23-10.9-7.6z"/><path class="st10" d="M624.9 96.3l9.3-1.7-11-7.5z"/><path class="st4" d="M661.3 79.1L649 74.5 640.3 98l19 7.1 6.2-16.7-4.2-9.3z"/><path class="st10" d="M658.7 85.8l6.7 2.5-4.2-9.2zM644.5 144.1l12.7-31.5-78.5-4.1-14.1 35.6z"/><path class="st9" d="M643.8 214.9l2.1-39.9-44.7-2.4-7-11.3-32.1-1.7-2.9 55.3z"/><path class="st6" d="M574.3 214.9l3.4-29-17.5 12.4-.9 16.6z"/><path class="st4" d="M623.3 157.9l-17 3.2 6 32.3 26.2-4.9-4.3-23-10.9-7.6z"/><path class="st10" d="M624.9 167.2l9.3-1.7-11-7.6z"/><path class="st4" d="M661.3 150l-12.3-4.6-8.7 23.4 19 7.1 6.2-16.7-4.2-9.2z"/><path class="st10" d="M658.7 156.6l6.7 2.5-4.2-9.2zM644.5 214.9l12.7-31.4-78.5-4.2-14.1 35.6z"/><path class="st9" d="M643.8 287.4l2.1-39.9-44.7-2.4-7-11.4-32.1-1.7-2.9 55.4z"/><path class="st6" d="M574.3 287.4l3.4-29.1-17.5 12.5-.9 16.6z"/><path class="st4" d="M623.3 230.4l-17 3.2 6 32.3 26.2-4.9-4.3-23-10.9-7.6z"/><path class="st10" d="M624.9 239.6l9.3-1.7-11-7.5z"/><path class="st4" d="M661.3 222.4l-12.3-4.6-8.7 23.4 19 7.1 6.2-16.7-4.2-9.2z"/><path class="st10" d="M658.7 229.1l6.7 2.5-4.2-9.2zM644.5 287.4l12.7-31.5-78.5-4.1-14.1 35.6z"/><path class="st9" d="M643.8 359.8l2.1-40-44.7-2.3-7-11.4-32.1-1.7-2.9 55.4z"/><path class="st6" d="M574.3 359.8l3.4-29.1-17.5 12.5-.9 16.6z"/><path class="st4" d="M623.3 302.8l-17 3.2 6 32.3 26.2-4.9-4.3-23-10.9-7.6z"/><path class="st10" d="M624.9 312l9.3-1.7-11-7.5z"/><path class="st4" d="M661.3 294.8l-12.3-4.6-8.7 23.4 19 7.1 6.2-16.7-4.2-9.2z"/><path class="st10" d="M658.7 301.5l6.7 2.5-4.2-9.2zM644.5 359.8l12.7-31.5-78.5-4.1-14.1 35.6z"/><path class="st9" d="M643.8 432.3l2.1-39.9-44.7-2.4-7-11.4-32.1-1.7-2.9 55.4z"/><path class="st6" d="M574.3 432.3l3.4-29.1-17.5 12.5-.9 16.6z"/><path class="st4" d="M623.3 375.3l-17 3.2 6 32.3 26.2-4.9-4.3-23-10.9-7.6z"/><path class="st10" d="M624.9 384.5l9.3-1.7-11-7.5z"/><path class="st4" d="M661.3 367.3l-12.3-4.6-8.7 23.4 19 7.1 6.2-16.7-4.2-9.2z"/><path class="st10" d="M658.7 374l6.7 2.5-4.2-9.2zM644.5 432.3l12.7-31.5-78.5-4.1-14.1 35.6z"/><path class="st9" d="M643.8 503.7l2.1-39.9-44.7-2.4-7-11.4-32.1-1.7-2.9 55.4z"/><path class="st6" d="M574.3 503.7l3.4-29.1-17.5 12.5-.9 16.6z"/><path class="st4" d="M623.3 446.7l-17 3.2 6 32.3 26.2-4.9-4.3-23-10.9-7.6z"/><path class="st10" d="M624.9 456l9.3-1.8-11-7.5z"/><path class="st4" d="M661.3 438.7l-12.3-4.6-8.7 23.4 19 7.1 6.2-16.7-4.2-9.2z"/><path class="st10" d="M658.7 445.4l6.7 2.5-4.2-9.2zM644.5 503.7l12.7-31.5-78.5-4.1-14.1 35.6z"/><path class="st9" d="M643.8 576.6l2.1-39.9-44.7-2.4-7-11.3-32.1-1.7-2.9 55.3z"/><path class="st6" d="M574.3 576.6l3.4-29-17.5 12.4-.9 16.6z"/><path class="st4" d="M623.3 519.6l-17 3.2 6 32.3 26.2-4.9-4.3-23-10.9-7.6z"/><path class="st10" d="M624.9 528.9l9.3-1.7-11-7.6z"/><path class="st4" d="M661.3 511.6L649 507l-8.7 23.4 19 7.1 6.2-16.7-4.2-9.2z"/><path class="st10" d="M658.7 518.3l6.7 2.5-4.2-9.2zM644.5 576.6l12.7-31.4-78.5-4.2-14.1 35.6z"/></svg>