<?xml version="1.0" encoding="utf-8"?>
<!DOCTYPE svg PUBLIC "-//W3C//DTD SVG 1.1//EN" "http://www.w3.org/Graphics/SVG/1.1/DTD/svg11.dtd">
<svg version="1.1" id="Calque_1" xmlns="http://www.w3.org/2000/svg" xmlns:xlink="http://www.w3.org/1999/xlink" x="0px" y="0px"
	 width="872px" height="576.6px" viewBox="0 0 872 576.6" style="enable-background:new 0 0 872 576.6;" xml:space="preserve">
<style type="text/css"><![CDATA[
	.st0{fill:#4A4949;}	.st1{fill:#E6E6E6;}	.st2{fill:#E8C7A7;}	.st3{opacity:0.18;}
	.st4{fill:#EBD1B9;}	.st5{fill:#535252;}	.st6{opacity:0.75;fill:#3D3D3C;enable-background:new;}
	.st7{opacity:0.13;fill:none;stroke:#010202;stroke-width:0.75;enable-background:new;}
	.st8{fill:none;stroke:#CEB39A;stroke-width:2;}	.st9{fill:#FFFFFF;}
	.st10{opacity:0.1;fill:#3D3D3C;enable-background:new;}
	.st11{fill:#CFCFCF;}	.st12{fill:none;stroke:#444444;stroke-width:2;}
	.st13{fill:#545454;enable-background:new;}	.st14{fill:#3D3D3C;}
	.st15{opacity:0.5;fill:#3D3D3C;enable-background:new;}
	.st16{opacity:0.25;fill:#3D3D3C;enable-background:new;}
]]></style>
<rect x="0.1" class="st2" width="872" height="72"/>
<rect x="0.2" y="72" class="st2" width="872" height="72"/>
<rect x="817" y="85.6" transform="matrix(1 4.715340e-03 -4.715340e-03 1 0.4198 -3.8583)" class="st8" width="2.9" height="3"/>
<rect x="804.4" y="110.7" transform="matrix(1 4.041732e-03 -4.041732e-03 1 0.4601 -3.2561)" class="st8" width="2.9" height="3"/>
<rect x="797.4" y="95.4" transform="matrix(1 4.715340e-03 -4.715340e-03 1 0.4658 -3.7658)" class="st8" width="2.9" height="3"/>
<rect x="859.3" y="104.6" transform="matrix(1 4.713753e-03 -4.713753e-03 1 0.5096 -4.0562)" class="st8" width="2.9" height="3"/>
<rect x="838.9" y="110.9" transform="matrix(1 5.387127e-03 -5.387127e-03 1 0.6177 -4.5255)" class="st8" width="2.9" height="3"/>
<rect x="721.7" y="123" transform="matrix(1 4.719999e-03 -4.719999e-03 1 0.5957 -3.4122)" class="st8" width="3" height="3"/>
<rect x="759.3" y="109.3" transform="matrix(1 4.713753e-03 -4.713753e-03 1 0.5307 -3.5848)" class="st8" width="2.9" height="3"/>
<rect x="741.5" y="101.3" transform="matrix(1 5.208263e-03 -5.208263e-03 1 0.5455 -3.8684)" class="st8" width="3" height="3"/>
<rect x="771.3" y="75.8" transform="matrix(1 4.713753e-03 -4.713753e-03 1 0.3729 -3.6417)" class="st8" width="2.9" height="3"/>
<rect x="688.1" y="87.1" transform="matrix(1 4.719999e-03 -4.719999e-03 1 0.4259 -3.254)" class="st8" width="3" height="3"/>
<rect x="620" y="113.8" transform="matrix(1 4.713753e-03 -4.713753e-03 1 0.5504 -2.9281)" class="st8" width="2.9" height="3"/>
<rect x="607.4" y="79.1" transform="matrix(1 5.050441e-03 -5.050441e-03 1 0.4148 -3.074)" class="st8" width="2.9" height="3"/>
<rect x="573.3" y="120.1" transform="matrix(1 4.713753e-03 -4.713753e-03 1 0.5795 -2.7079)" class="st8" width="2.9" height="3"/>
<rect x="545.8" y="88.5" transform="matrix(1 5.050441e-03 -5.050441e-03 1 0.4615 -2.7627)" class="st8" width="2.9" height="3"/>
<rect x="534.3" y="123.8" transform="matrix(1 4.546938e-03 -4.546938e-03 1 0.5753 -2.4348)" class="st8" width="2.9" height="3"/>
<rect x="503.1" y="131.2" transform="matrix(1 4.546938e-03 -4.546938e-03 1 0.6085 -2.2927)" class="st8" width="2.9" height="3"/>
<rect x="560" y="102.7" transform="matrix(1 5.045509e-03 -5.045509e-03 1 0.5329 -2.8318)" class="st8" width="3" height="3"/>
<rect x="652" y="79.1" transform="matrix(1 5.050441e-03 -5.050441e-03 1 0.4154 -3.2992)" class="st8" width="2.9" height="3"/>
<rect x="702.3" y="132.7" transform="matrix(1 5.208263e-03 -5.208263e-03 1 0.7086 -3.6638)" class="st8" width="3" height="3"/>
<polyline class="st8" points="504.5,95.4 548.2,116.2 598.7,112.2 620,87 669.1,93.5 688.7,71.7 "/>
<polyline class="st8" points="620,142.7 652,110.8 741,113.8 760.3,127.3 798.8,71.7 "/>
<polyline class="st8" points="871.6,135.7 832.6,89.3 817.5,129.7 778.3,127.3 767.3,142.7 "/>
<rect x="656.8" y="123" transform="matrix(1 5.387127e-03 -5.387127e-03 1 0.6802 -3.5443)" class="st8" width="2.9" height="3"/>
<rect x="707.9" y="80.5" transform="matrix(1 4.377062e-03 -4.377062e-03 1 0.3658 -3.1041)" class="st8" width="2.9" height="3"/>
<rect x="0.2" y="360.2" class="st0" width="872" height="72"/>
<rect x="817" y="373.8" transform="matrix(1 4.715340e-03 -4.715340e-03 1 1.7788 -3.8551)" class="st12" width="2.9" height="3"/>
<rect x="804.4" y="399" transform="matrix(1 4.041732e-03 -4.041732e-03 1 1.6254 -3.2538)" class="st12" width="2.9" height="3"/>
<rect x="797.4" y="383.6" transform="matrix(1 4.713753e-03 -4.713753e-03 1 1.8242 -3.7614)" class="st12" width="2.9" height="3"/>
<rect x="859.3" y="392.8" transform="matrix(1 4.713753e-03 -4.713753e-03 1 1.8682 -4.053)" class="st12" width="2.9" height="3"/>
<rect x="838.9" y="399.1" transform="matrix(1 5.387127e-03 -5.387127e-03 1 2.1703 -4.5213)" class="st12" width="2.9" height="3"/>
<rect x="721.7" y="411.2" transform="matrix(1 4.557244e-03 -4.557244e-03 1 1.8883 -3.2916)" class="st12" width="3" height="3"/>
<rect x="759.3" y="397.5" transform="matrix(1 4.713753e-03 -4.713753e-03 1 1.8893 -3.5816)" class="st12" width="2.9" height="3"/>
<rect x="741.5" y="389.5" transform="matrix(1 5.208263e-03 -5.208263e-03 1 2.0466 -3.8645)" class="st12" width="3" height="3"/>
<rect x="771.3" y="364" transform="matrix(1 4.713753e-03 -4.713753e-03 1 1.7314 -3.6385)" class="st12" width="2.9" height="3"/>
<rect x="688.1" y="375.3" transform="matrix(1 4.557244e-03 -4.557244e-03 1 1.7244 -3.1388)" class="st12" width="3" height="3"/>
<rect x="620" y="402" transform="matrix(1 4.713753e-03 -4.713753e-03 1 1.9089 -2.9249)" class="st12" width="2.9" height="3"/>
<rect x="607.4" y="367.3" transform="matrix(1 5.387127e-03 -5.387127e-03 1 1.9956 -3.2747)" class="st12" width="2.9" height="3"/>
<rect x="573.3" y="408.3" transform="matrix(1 4.713753e-03 -4.713753e-03 1 1.938 -2.7047)" class="st12" width="2.9" height="3"/>
<rect x="545.8" y="376.7" transform="matrix(1 5.388942e-03 -5.388942e-03 1 2.0461 -2.9437)" class="st12" width="2.9" height="3"/>
<rect x="534.3" y="412" transform="matrix(1 4.715340e-03 -4.715340e-03 1 1.9558 -2.5217)" class="st12" width="2.9" height="3"/>
<rect x="560" y="390.9" transform="matrix(1 5.208263e-03 -5.208263e-03 1 2.0514 -2.9191)" class="st12" width="3" height="3"/>
<rect x="652" y="367.3" transform="matrix(1 5.387127e-03 -5.387127e-03 1 1.9963 -3.5149)" class="st12" width="2.9" height="3"/>
<rect x="702.3" y="420.9" transform="matrix(1 5.208263e-03 -5.208263e-03 1 2.2096 -3.6599)" class="st12" width="3" height="3"/>
<polyline class="st12" points="620,430.9 652,399 741,402 760.3,415.5 798.8,359.9 "/>
<polyline class="st12" points="871.6,423.9 832.6,377.5 817.5,417.9 778.3,415.5 767.3,430.9 "/>
<path class="st7" d="M729.3,361.3"/>
<rect x="656.8" y="411.2" transform="matrix(1 5.387127e-03 -5.387127e-03 1 2.2328 -3.5401)" class="st12" width="2.9" height="3"/>
<rect x="707.9" y="368.7" transform="matrix(1 4.041732e-03 -4.041732e-03 1 1.5021 -2.864)" class="st12" width="2.9" height="3"/>
<rect x="0.1" y="431.9" class="st0" width="872" height="72"/>
<rect x="503" y="463.5" class="st5" width="7.5" height="7.7"/>
<rect x="495.5" y="471.2" class="st5" width="7.5" height="7.7"/>
<rect x="503" y="479" class="st5" width="7.5" height="7.7"/>
<rect x="509.6" y="471.2" class="st5" width="7.5" height="7.7"/>
<rect x="518.1" y="479" class="st5" width="7.5" height="7.7"/>
<rect x="510.6" y="455.8" class="st5" width="7.5" height="7.7"/>
<rect x="518.1" y="463.5" class="st5" width="7.5" height="7.7"/>
<rect x="570.7" y="471.2" class="st5" width="7.5" height="7.7"/>
<rect x="495.5" y="486.7" class="st5" width="7.5" height="7.7"/>
<rect x="488" y="495.1" class="st5" width="7.5" height="7.7"/>
<rect x="510.6" y="486.7" class="st5" width="7.5" height="7.7"/>
<rect x="570.7" y="486.7" class="st5" width="7.5" height="7.7"/>
<rect x="578.2" y="479" class="st5" width="7.5" height="7.7"/>
<rect x="585.7" y="486.7" class="st5" width="7.5" height="7.7"/>
<rect x="585.7" y="471.2" class="st5" width="7.5" height="7.7"/>
<rect x="578.2" y="463.5" class="st5" width="7.5" height="7.7"/>
<rect x="570.7" y="455.8" class="st5" width="7.5" height="7.7"/>
<rect x="518.1" y="448.1" class="st5" width="7.5" height="7.7"/>
<rect x="510.6" y="440.4" class="st5" width="7.5" height="7.7"/>
<rect x="518.1" y="432.7" class="st5" width="7.5" height="7.7"/>
<rect x="570.7" y="440.4" class="st5" width="7.5" height="7.7"/>
<rect x="578.2" y="432.7" class="st5" width="7.5" height="7.7"/>
<rect x="585.7" y="440.4" class="st5" width="7.5" height="7.7"/>
<rect x="578.2" y="448.1" class="st5" width="7.5" height="7.7"/>
<rect x="585.7" y="455.8" class="st5" width="7.5" height="7.7"/>
<rect x="593.3" y="432.7" class="st5" width="7.5" height="7.7"/>
<rect x="600.8" y="440.4" class="st5" width="7.5" height="7.7"/>
<rect x="608.3" y="448.1" class="st5" width="7.5" height="7.7"/>
<rect x="600.8" y="455.8" class="st5" width="7.5" height="7.7"/>
<rect x="608.3" y="463.5" class="st5" width="7.5" height="7.7"/>
<rect x="600.8" y="471.2" class="st5" width="7.5" height="7.7"/>
<rect x="608.3" y="479" class="st5" width="7.5" height="7.7"/>
<rect x="593.3" y="448.1" class="st5" width="7.5" height="7.7"/>
<rect x="593.3" y="463.5" class="st5" width="7.5" height="7.7"/>
<rect x="593.3" y="479" class="st5" width="7.5" height="7.7"/>
<rect x="614.8" y="471.2" class="st5" width="7.5" height="7.7"/>
<rect x="623.3" y="479" class="st5" width="7.5" height="7.7"/>
<rect x="615.8" y="455.8" class="st5" width="7.5" height="7.7"/>
<rect x="623.3" y="463.5" class="st5" width="7.5" height="7.7"/>
<rect x="630.8" y="471.2" class="st5" width="7.5" height="7.7"/>
<rect x="600.8" y="486.7" class="st5" width="7.5" height="7.7"/>
<rect x="615.8" y="486.7" class="st5" width="7.5" height="7.7"/>
<rect x="630.8" y="486.7" class="st5" width="7.5" height="7.7"/>
<rect x="638.4" y="479" class="st5" width="7.5" height="7.7"/>
<rect x="645.9" y="486.7" class="st5" width="7.5" height="7.7"/>
<rect x="645.9" y="471.2" class="st5" width="7.5" height="7.7"/>
<rect x="638.4" y="463.5" class="st5" width="7.5" height="7.7"/>
<rect x="630.8" y="455.8" class="st5" width="7.5" height="7.7"/>
<rect x="623.3" y="448.1" class="st5" width="7.5" height="7.7"/>
<rect x="615.8" y="440.4" class="st5" width="7.5" height="7.7"/>
<rect x="608.3" y="432.7" class="st5" width="7.5" height="7.7"/>
<rect x="623.3" y="432.7" class="st5" width="7.5" height="7.7"/>
<rect x="630.8" y="440.4" class="st5" width="7.5" height="7.7"/>
<rect x="638.4" y="432.7" class="st5" width="7.5" height="7.7"/>
<rect x="645.9" y="440.4" class="st5" width="7.5" height="7.7"/>
<rect x="638.4" y="448.1" class="st5" width="7.5" height="7.7"/>
<rect x="645.9" y="455.8" class="st5" width="7.5" height="7.7"/>
<rect x="653.4" y="432.7" class="st5" width="7.5" height="7.7"/>
<rect x="660.9" y="440.4" class="st5" width="7.5" height="7.7"/>
<rect x="668.5" y="448.1" class="st5" width="7.5" height="7.7"/>
<rect x="660.9" y="455.8" class="st5" width="7.5" height="7.7"/>
<rect x="668.5" y="463.5" class="st5" width="7.5" height="7.7"/>
<rect x="660.9" y="471.2" class="st5" width="7.5" height="7.7"/>
<rect x="668.5" y="479" class="st5" width="7.5" height="7.7"/>
<rect x="653.4" y="448.1" class="st5" width="7.5" height="7.7"/>
<rect x="653.4" y="463.5" class="st5" width="7.5" height="7.7"/>
<rect x="653.4" y="479" class="st5" width="7.5" height="7.7"/>
<rect x="675" y="471.2" class="st5" width="7.5" height="7.7"/>
<rect x="683.5" y="479" class="st5" width="7.5" height="7.7"/>
<rect x="676" y="455.8" class="st5" width="7.5" height="7.7"/>
<rect x="683.5" y="463.5" class="st5" width="7.5" height="7.7"/>
<rect x="691" y="471.2" class="st5" width="7.5" height="7.7"/>
<rect x="660.9" y="486.7" class="st5" width="7.5" height="7.7"/>
<rect x="676" y="486.7" class="st5" width="7.5" height="7.7"/>
<rect x="691" y="486.7" class="st5" width="7.5" height="7.7"/>
<rect x="698.5" y="479" class="st5" width="7.5" height="7.7"/>
<rect x="706" y="486.7" class="st5" width="7.5" height="7.7"/>
<rect x="706" y="471.2" class="st5" width="7.5" height="7.7"/>
<rect x="698.5" y="463.5" class="st5" width="7.5" height="7.7"/>
<rect x="691" y="455.8" class="st5" width="7.5" height="7.7"/>
<rect x="683.5" y="448.1" class="st5" width="7.5" height="7.7"/>
<rect x="676" y="440.4" class="st5" width="7.5" height="7.7"/>
<rect x="668.5" y="432.7" class="st5" width="7.5" height="7.7"/>
<rect x="683.5" y="432.7" class="st5" width="7.5" height="7.7"/>
<rect x="691" y="440.4" class="st5" width="7.5" height="7.7"/>
<rect x="698.5" y="432.7" class="st5" width="7.5" height="7.7"/>
<rect x="706" y="440.4" class="st5" width="7.5" height="7.7"/>
<rect x="698.5" y="448.1" class="st5" width="7.5" height="7.7"/>
<rect x="706" y="455.8" class="st5" width="7.5" height="7.7"/>
<rect x="713.6" y="432.7" class="st5" width="7.5" height="7.7"/>
<rect x="721.1" y="440.4" class="st5" width="7.5" height="7.7"/>
<rect x="728.6" y="448.1" class="st5" width="7.5" height="7.7"/>
<rect x="721.1" y="455.8" class="st5" width="7.5" height="7.7"/>
<rect x="728.6" y="463.5" class="st5" width="7.5" height="7.7"/>
<rect x="721.1" y="471.2" class="st5" width="7.5" height="7.7"/>
<rect x="728.6" y="479" class="st5" width="7.5" height="7.7"/>
<rect x="713.6" y="448.1" class="st5" width="7.5" height="7.7"/>
<rect x="713.6" y="463.5" class="st5" width="7.5" height="7.7"/>
<rect x="713.6" y="479" class="st5" width="7.5" height="7.7"/>
<rect x="735.1" y="471.2" class="st5" width="7.5" height="7.7"/>
<rect x="743.7" y="479" class="st5" width="7.5" height="7.7"/>
<rect x="736.1" y="455.8" class="st5" width="7.5" height="7.7"/>
<rect x="743.7" y="463.5" class="st5" width="7.5" height="7.7"/>
<rect x="751.2" y="471.2" class="st5" width="7.5" height="7.7"/>
<rect x="721.1" y="486.7" class="st5" width="7.5" height="7.7"/>
<rect x="736.1" y="486.7" class="st5" width="7.5" height="7.7"/>
<rect x="751.2" y="486.7" class="st5" width="7.5" height="7.7"/>
<rect x="758.7" y="479" class="st5" width="7.5" height="7.7"/>
<rect x="766.2" y="486.7" class="st5" width="7.5" height="7.7"/>
<rect x="766.2" y="471.2" class="st5" width="7.5" height="7.7"/>
<rect x="758.7" y="463.5" class="st5" width="7.5" height="7.7"/>
<rect x="751.2" y="455.8" class="st5" width="7.5" height="7.7"/>
<rect x="743.7" y="448.1" class="st5" width="7.5" height="7.7"/>
<rect x="736.1" y="440.4" class="st5" width="7.5" height="7.7"/>
<rect x="728.6" y="432.7" class="st5" width="7.5" height="7.7"/>
<rect x="743.7" y="432.7" class="st5" width="7.5" height="7.7"/>
<rect x="751.2" y="440.4" class="st5" width="7.5" height="7.7"/>
<rect x="758.7" y="432.7" class="st5" width="7.5" height="7.7"/>
<rect x="766.2" y="440.4" class="st5" width="7.5" height="7.7"/>
<rect x="758.7" y="448.1" class="st5" width="7.5" height="7.7"/>
<rect x="766.2" y="455.8" class="st5" width="7.5" height="7.7"/>
<rect x="773.7" y="432.7" class="st5" width="7.5" height="7.7"/>
<rect x="781.3" y="440.4" class="st5" width="7.5" height="7.7"/>
<rect x="788.8" y="448.1" class="st5" width="7.5" height="7.7"/>
<rect x="781.3" y="455.8" class="st5" width="7.5" height="7.7"/>
<rect x="788.8" y="463.5" class="st5" width="7.5" height="7.7"/>
<rect x="781.3" y="471.2" class="st5" width="7.5" height="7.7"/>
<rect x="788.8" y="479" class="st5" width="7.5" height="7.7"/>
<rect x="773.7" y="448.1" class="st5" width="7.5" height="7.7"/>
<rect x="773.7" y="463.5" class="st5" width="7.5" height="7.7"/>
<rect x="773.7" y="479" class="st5" width="7.5" height="7.7"/>
<rect x="795.3" y="471.2" class="st5" width="7.5" height="7.7"/>
<rect x="803.8" y="479" class="st5" width="7.5" height="7.7"/>
<rect x="796.3" y="455.8" class="st5" width="7.5" height="7.7"/>
<rect x="803.8" y="463.5" class="st5" width="7.5" height="7.7"/>
<rect x="811.3" y="471.2" class="st5" width="7.5" height="7.7"/>
<rect x="781.3" y="486.7" class="st5" width="7.5" height="7.7"/>
<rect x="796.3" y="486.7" class="st5" width="7.5" height="7.7"/>
<rect x="811.3" y="486.7" class="st5" width="7.5" height="7.7"/>
<rect x="818.9" y="479" class="st5" width="7.5" height="7.7"/>
<rect x="826.4" y="486.7" class="st5" width="7.5" height="7.7"/>
<rect x="826.4" y="471.2" class="st5" width="7.5" height="7.7"/>
<rect x="818.9" y="463.5" class="st5" width="7.5" height="7.7"/>
<rect x="811.3" y="455.8" class="st5" width="7.5" height="7.7"/>
<rect x="803.8" y="448.1" class="st5" width="7.5" height="7.7"/>
<rect x="796.3" y="440.4" class="st5" width="7.5" height="7.7"/>
<rect x="788.8" y="432.7" class="st5" width="7.5" height="7.7"/>
<rect x="803.8" y="432.7" class="st5" width="7.5" height="7.7"/>
<rect x="811.3" y="440.4" class="st5" width="7.5" height="7.7"/>
<rect x="818.9" y="432.7" class="st5" width="7.5" height="7.7"/>
<rect x="826.4" y="440.4" class="st5" width="7.5" height="7.7"/>
<rect x="818.9" y="448.1" class="st5" width="7.5" height="7.7"/>
<rect x="826.4" y="455.8" class="st5" width="7.5" height="7.7"/>
<rect x="833.9" y="448.1" class="st5" width="7.5" height="7.7"/>
<rect x="833.9" y="463.5" class="st5" width="7.5" height="7.7"/>
<rect x="833.9" y="479" class="st5" width="7.5" height="7.7"/>
<rect x="840.4" y="471.2" class="st5" width="7.5" height="7.7"/>
<rect x="848.9" y="479" class="st5" width="7.5" height="7.7"/>
<rect x="841.4" y="455.8" class="st5" width="7.5" height="7.7"/>
<rect x="848.9" y="463.5" class="st5" width="7.5" height="7.7"/>
<rect x="856.5" y="471.2" class="st5" width="7.5" height="7.7"/>
<rect x="841.4" y="486.7" class="st5" width="7.5" height="7.7"/>
<rect x="856.5" y="486.7" class="st5" width="7.5" height="7.7"/>
<rect x="864" y="479" class="st5" width="7.5" height="7.7"/>
<rect x="864" y="463.5" class="st5" width="7.5" height="7.7"/>
<rect x="856.5" y="455.8" class="st5" width="7.5" height="7.7"/>
<rect x="848.9" y="448.1" class="st5" width="7.5" height="7.7"/>
<rect x="841.4" y="440.4" class="st5" width="7.5" height="7.7"/>
<rect x="833.9" y="432.7" class="st5" width="7.5" height="7.7"/>
<rect x="848.9" y="432.7" class="st5" width="7.5" height="7.7"/>
<rect x="856.5" y="440.4" class="st5" width="7.5" height="7.7"/>
<rect x="864" y="432.7" class="st5" width="7.5" height="7.7"/>
<rect x="864" y="448.1" class="st5" width="7.5" height="7.7"/>
<rect x="503" y="495.1" class="st5" width="7.5" height="7.7"/>
<rect x="518.1" y="495.1" class="st5" width="7.5" height="7.7"/>
<rect x="578.2" y="495.1" class="st5" width="7.5" height="7.7"/>
<rect x="608.3" y="495.1" class="st5" width="7.5" height="7.7"/>
<rect x="593.3" y="495.1" class="st5" width="7.5" height="7.7"/>
<rect x="623.3" y="495.1" class="st5" width="7.5" height="7.7"/>
<rect x="525.5" y="486.7" class="st5" width="7.5" height="7.7"/>
<rect x="525.5" y="471.2" class="st5" width="7.5" height="7.7"/>
<rect x="525.5" y="440.4" class="st5" width="7.5" height="7.7"/>
<rect x="525.5" y="455.8" class="st5" width="7.5" height="7.7"/>
<rect x="533.1" y="432.7" class="st5" width="7.5" height="7.7"/>
<rect x="540.6" y="440.4" class="st5" width="7.5" height="7.7"/>
<rect x="548.1" y="448.1" class="st5" width="7.5" height="7.7"/>
<rect x="540.6" y="455.8" class="st5" width="7.5" height="7.7"/>
<rect x="548.1" y="463.5" class="st5" width="7.5" height="7.7"/>
<rect x="540.6" y="471.2" class="st5" width="7.5" height="7.7"/>
<rect x="548.1" y="479" class="st5" width="7.5" height="7.7"/>
<rect x="533.1" y="448.1" class="st5" width="7.5" height="7.7"/>
<rect x="533.1" y="463.5" class="st5" width="7.5" height="7.7"/>
<rect x="533.1" y="479" class="st5" width="7.5" height="7.7"/>
<rect x="554.6" y="471.2" class="st5" width="7.5" height="7.7"/>
<rect x="563.1" y="479" class="st5" width="7.5" height="7.7"/>
<rect x="555.6" y="455.8" class="st5" width="7.5" height="7.7"/>
<rect x="563.1" y="463.5" class="st5" width="7.5" height="7.7"/>
<rect x="540.6" y="486.7" class="st5" width="7.5" height="7.7"/>
<rect x="555.6" y="486.7" class="st5" width="7.5" height="7.7"/>
<rect x="563.1" y="448.1" class="st5" width="7.5" height="7.7"/>
<rect x="555.6" y="440.4" class="st5" width="7.5" height="7.7"/>
<rect x="548.1" y="432.7" class="st5" width="7.5" height="7.7"/>
<rect x="563.1" y="432.7" class="st5" width="7.5" height="7.7"/>
<rect x="548.1" y="495.1" class="st5" width="7.5" height="7.7"/>
<rect x="533.1" y="495.1" class="st5" width="7.5" height="7.7"/>
<rect x="563.1" y="495.1" class="st5" width="7.5" height="7.7"/>
<rect x="638.4" y="495.1" class="st5" width="7.5" height="7.7"/>
<rect x="668.5" y="495.1" class="st5" width="7.5" height="7.7"/>
<rect x="653.4" y="495.1" class="st5" width="7.5" height="7.7"/>
<rect x="683.5" y="495.1" class="st5" width="7.5" height="7.7"/>
<rect x="698.5" y="495.1" class="st5" width="7.5" height="7.7"/>
<rect x="728.6" y="495.1" class="st5" width="7.5" height="7.7"/>
<rect x="713.6" y="495.1" class="st5" width="7.5" height="7.7"/>
<rect x="743.7" y="495.1" class="st5" width="7.5" height="7.7"/>
<rect x="758.7" y="495.1" class="st5" width="7.5" height="7.7"/>
<rect x="788.8" y="495.1" class="st5" width="7.5" height="7.7"/>
<rect x="773.7" y="495.1" class="st5" width="7.5" height="7.7"/>
<rect x="803.8" y="495.1" class="st5" width="7.5" height="7.7"/>
<rect x="818.9" y="495.1" class="st5" width="7.5" height="7.7"/>
<rect x="833.9" y="495.1" class="st5" width="7.5" height="7.7"/>
<rect x="848.9" y="495.1" class="st5" width="7.5" height="7.7"/>
<rect x="864" y="495.1" class="st5" width="7.5" height="7.7"/>
<rect x="0.4" y="504.1" class="st0" width="872" height="72"/>
<path class="st14" d="M853.3,552.3c-0.9,7.8-8,13.4-15.9,12.5c-7.9-0.9-13.5-8-12.5-15.9c0.9-7.8,8-13.5,15.9-12.5
	C848.6,537.3,854.2,544.4,853.3,552.3z"/>
<path class="st14" d="M823.8,529.5l-4-6.8c-15.1,8.7-20.2,28-11.5,43.1l6.8-4C808.6,550.5,812.5,536,823.8,529.5z"/>
<path class="st6" d="M806.2,513.2l-4-6.8c-22.6,13.1-30.4,42-17.3,64.7l6.8-4C780.9,548.3,787.3,524.1,806.2,513.2z"/>
<path class="st10" d="M690.1,576.6c-12.2-22.6-13.3-48.7-4.7-71.6H677c-7.8,23-6.8,48.7,4.2,71.6H690.1z"/>
<path class="st10" d="M717.9,575.1c-10.3-22.9-9.8-48.3-0.3-70.2H709c-8.7,22.1-9,47.2,0.3,70.2H717.9z"/>
<path class="st16" d="M743.9,575.1c-12-22.8-10.3-49.5,2.5-70.2h-9.1c-11.4,21.3-12.8,47.2-2.2,70.2H743.9z"/>
<path class="st15" d="M763.3,575.4l5.1-3c-13-22.5-8.3-50.3,9.6-67.5h-11.1c-15.7,19.5-18.9,47.3-6.2,70.4L763.3,575.4L763.3,575.4z
	"/>
<polygon class="st4" points="524.6,0 485.5,71.7 -0.1,71.7 -0.1,0 "/>
<polygon class="st4" points="524.6,72 485.5,143.7 -0.1,143.7 -0.1,72 "/>
<rect x="0.4" y="215.9" class="st2" width="872" height="72"/>
<g class="st3">
	<path class="st14" d="M853.3,264.1c-0.9,7.8-8,13.4-15.9,12.5c-7.9-0.9-13.5-8-12.5-15.9c0.9-7.8,8-13.5,15.9-12.5
		C848.6,249.1,854.2,256.2,853.3,264.1z"/>
	<path class="st14" d="M823.8,241.3l-4-6.8c-15.1,8.7-20.2,28-11.5,43.1l6.8-4C808.6,262.3,812.5,247.8,823.8,241.3z"/>
	<path class="st6" d="M806.2,224.9l-4-6.8c-22.6,13.1-30.4,42-17.3,64.7l6.8-4C780.9,260.1,787.3,235.9,806.2,224.9z"/>
	<path class="st10" d="M690.1,288.4c-12.2-22.6-13.3-48.7-4.7-71.6H677c-7.8,23-6.8,48.7,4.2,71.6H690.1z"/>
	<path class="st10" d="M717.9,286.9c-10.3-22.9-9.8-48.3-0.3-70.2H709c-8.7,22.1-9,47.2,0.3,70.2H717.9z"/>
	<path class="st16" d="M743.9,286.9c-12-22.8-10.3-49.5,2.5-70.2h-9.1c-11.4,21.3-12.8,47.2-2.2,70.2H743.9z"/>
	<path class="st15" d="M763.3,287.2l5.1-3c-13-22.5-8.3-50.3,9.6-67.5h-11.1c-15.7,19.5-18.9,47.3-6.2,70.4L763.3,287.2L763.3,287.2
		z"/>
</g>
<g>
	<polyline class="st9" points="564.5,72 557.3,18.5 641.6,5.5 667.1,26.6 671.8,72"/>
	<polygon class="st1" points="560.2,20.4 594.9,15 595.2,16.9 560.4,22.4"/>
	<path class="st11" d="M670.8,72h1.9L668,26.1L641.8,4.5l-85.6,13.2l7.3,54.3h2l-0.6-4.1l103.8-16.2L670.8,72z M558.4,19.3
		l83.1-12.8l1.2,10.8L559.8,30L558.4,19.3z M560.1,32.2l82.7-13.1l1.2,11l22-3.1l1.2,11.4L563.1,54.6L560.1,32.2z M564.6,65.9
		l-1.2-9.3l104.1-16.2l1,9.3L564.6,65.9z"/>
</g>
<g>
	<polyline class="st9" points="556.3,71.5 550.1,25.5 634.4,12.5 659.9,33.6 663.9,71.5"/>
	<polygon class="st1" points="553,27.4 587.8,22 588.1,23.9 553.3,29.4"/>
	<path class="st11" d="M551.3,26.3l83.1-12.8l1.2,10.8L552.7,37L551.3,26.3z M553,39.2l82.7-13.1l1.2,11l22-3.1l1.2,11.4L556,61.6
		L553,39.2z M557.3,71.5l-1.1-7.9l104.1-16.2l1,9.3L567,71.4h12.8l81.8-12.7l1.3,13.3h1.9l-4-38.9l-26.2-21.7L549,24.6l6.3,46.8
		L557.3,71.5z"/>
</g>
<g>
	<polyline class="st9" points="548.8,72.1 543.5,32.6 627.8,19.6 653.3,40.7 656.7,72.1"/>
	<polygon class="st1" points="551.9,72.1 551.8,71.4 581.9,66.8 582.3,68.8 560.5,72.1"/>
	<polygon class="st1" points="551.5,65.7 568.7,63 569.1,65 551.8,67.6"/>
	<polygon class="st1" points="550.9,63 560.7,61.5 561,63.4 551.2,64.9"/>
	<polygon class="st1" points="550.4,60.4 562.1,58.5 562.4,60.5 550.7,62.2"/>
	<polygon class="st1" points="549.9,57.5 563.2,55.3 563.5,57.3 550.1,59.3"/>
	<polygon class="st1" points="549.3,54.4 568.2,51.4 568.5,53.4 549.6,56.4"/>
	<polygon class="st1" points="548.7,51.4 559.3,49.8 559.6,51.8 549,53.4"/>
	<polygon class="st1" points="547,37.7 557.6,36.1 557.9,38.1 547.2,39.7"/>
	<polygon class="st1" points="548.3,47.2 561.9,45.1 562.2,47.1 548.5,49.2"/>
	<polygon class="st1" points="547.5,40.9 569.3,37.4 569.6,39.4 547.8,42.8"/>
	<polygon class="st1" points="598.7,32.9 623.1,29.1 623.4,31.1 599,34.9"/>
	<polygon class="st1" points="598.7,44 615.5,41.4 615.8,43.4 599,46"/>
	<polygon class="st1" points="600.8,55.6 617.1,53.1 617.4,55.1 601.1,57.6"/>
	<polygon class="st1" points="599.8,50 613.2,47.9 613.5,49.9 600.1,52"/>
	<polygon class="st1" points="600.3,52.9 629.1,48.4 629.4,50.4 600.6,54.9"/>
	<polygon class="st1" points="599.2,47 618.2,44 618.5,46 599.5,49"/>
	<polygon class="st1" points="546.4,34.5 581.1,29.1 581.4,31.1 546.6,36.5"/>
	<path class="st1" d="M636.9,74.6"/>
	<path class="st11" d="M544.6,33.4l83.1-12.8l1.2,10.8L546,44.1L544.6,33.4z M546.3,46.3L629,33.2l1.2,11l22-3.1l1.2,11.4
		L549.3,68.7L546.3,46.3z M549.8,72.1l-0.2-1.4l104.1-16.2l1,9.3l-53.3,8.3h13.2l40.3-6.3l0.7,6.3h1.9l-3.3-31.8L628,18.6
		l-85.6,13.2l5.4,40.3"/>
</g>
<g>
	<polyline class="st9" points="564.5,143.3 557.3,89.8 641.6,76.8 667.1,97.9 671.8,143.3"/>
	<polygon class="st1" points="560.2,91.7 594.9,86.3 595.2,88.3 560.4,93.7"/>
	<path class="st11" d="M670.8,143.3h1.9L668,97.5l-26.2-21.7L556.2,89l7.3,54.3h2l-0.6-4.1L668.7,123L670.8,143.3z M558.4,90.6
		l83.1-12.8l1.2,10.8l-82.8,12.7L558.4,90.6z M560.1,103.6l82.7-13.1l1.2,11l22-3.1l1.2,11.4L563.1,126L560.1,103.6z M564.6,137.2
		l-1.2-9.3l104.1-16.2l1,9.3L564.6,137.2z"/>
</g>
<g>
	<polyline class="st9" points="556.3,142.8 550.1,96.8 634.4,83.8 659.9,104.9 663.9,142.8"/>
	<polygon class="st1" points="553,98.8 587.8,93.4 588.1,95.3 553.3,100.7"/>
	<path class="st11" d="M551.3,97.7l83.1-12.8l1.2,10.8l-82.8,12.7L551.3,97.7z M553,110.6l82.7-13.1l1.2,11l22-3.1l1.2,11.4L556,133
		L553,110.6z M557.3,142.8l-1.1-7.9l104.1-16.2l1,9.3L567,142.8h12.8l81.8-12.7l1.3,13.3h1.9l-4-38.9l-26.2-21.7L549.1,96l6.3,46.8
		H557.3z"/>
</g>
<g>
	<polyline class="st9" points="548.8,143.5 543.5,103.9 627.8,90.9 653.3,112 656.7,143.5"/>
	<polygon class="st1" points="551.9,143.4 551.8,142.7 581.9,138.2 582.3,140.1 560.5,143.4"/>
	<polygon class="st1" points="551.5,137 568.7,134.4 569.1,136.3 551.8,139"/>
	<polygon class="st1" points="550.9,134.4 560.7,132.8 561,134.8 551.2,136.3"/>
	<polygon class="st1" points="550.4,131.7 562.1,129.9 562.4,131.8 550.7,133.6"/>
	<polygon class="st1" points="549.9,128.8 563.2,126.7 563.5,128.6 550.1,130.7"/>
	<polygon class="st1" points="549.3,125.7 568.2,122.8 568.5,124.7 549.6,127.7"/>
	<polygon class="st1" points="548.7,122.8 559.3,121.2 559.6,123.1 549,124.7"/>
	<polygon class="st1" points="547,109.1 557.6,107.5 557.9,109.4 547.2,111.1"/>
	<polygon class="st1" points="548.3,118.5 561.9,116.5 562.2,118.4 548.5,120.5"/>
	<polygon class="st1" points="547.5,112.2 569.3,108.8 569.6,110.7 547.8,114.2"/>
	<polygon class="st1" points="598.7,104.2 623.1,100.5 623.4,102.4 599,106.2"/>
	<polygon class="st1" points="598.7,115.3 615.5,112.8 615.8,114.7 599,117.3"/>
	<polygon class="st1" points="600.8,127 617.1,124.5 617.4,126.4 601.1,129"/>
	<polygon class="st1" points="599.8,121.3 613.2,119.3 613.5,121.2 600.1,123.3"/>
	<polygon class="st1" points="600.3,124.2 629.1,119.8 629.4,121.7 600.6,126.2"/>
	<polygon class="st1" points="599.2,118.4 618.2,115.4 618.5,117.3 599.5,120.4"/>
	<polygon class="st1" points="546.4,105.9 581.1,100.5 581.4,102.4 546.6,107.8"/>
	<path class="st1" d="M636.9,146"/>
	<path class="st11" d="M544.6,104.8L627.7,92l1.2,10.8L546,115.4L544.6,104.8z M546.3,117.7l82.7-13.1l1.2,11l22-3.1l1.2,11.4
		l-104.2,16.2L546.3,117.7z M549.8,143.5l-0.2-1.4l104.1-16.2l1,9.3l-53.3,8.3h13.2l40.3-6.3l0.7,6.3h1.9l-3.3-31.8L628,89.9
		l-85.6,13.2l5.4,40.3"/>
</g>
<rect x="0.5" y="288" class="st0" width="872" height="72"/>
<polygon class="st13" points="525,288 485.9,359.7 0.3,359.7 0.3,288 "/>
<g>
	<polyline class="st9" points="564.9,360 557.7,306.5 642,293.5 667.5,314.6 672.2,360"/>
	<polygon class="st1" points="560.6,308.4 595.3,303 595.6,304.9 560.8,310.4"/>
	<path class="st11" d="M671.2,360h1.9l-4.7-45.8l-26.2-21.7l-85.6,13.2l7.3,54.3h2l-0.6-4.1l103.8-16.2L671.2,360z M558.8,307.3
		l83.1-12.8l1.2,10.8L560.2,318L558.8,307.3z M560.5,320.2l82.7-13.1l1.2,11l22-3.1l1.2,11.4l-104.2,16.2L560.5,320.2z M565,353.9
		l-1.2-9.3l104.1-16.2l1,9.3L565,353.9z"/>
</g>
<g>
	<polyline class="st9" points="556.7,359.5 550.5,313.5 634.8,300.5 660.3,321.6 664.3,359.5"/>
	<polygon class="st1" points="553.4,315.4 588.2,310 588.5,311.9 553.7,317.4"/>
	<path class="st11" d="M551.7,314.3l83.1-12.8l1.2,10.8L553.1,325L551.7,314.3z M553.4,327.2l82.7-13.1l1.2,11l22-3.1l1.2,11.4
		l-104.2,16.2L553.4,327.2z M557.7,359.5l-1.1-7.9l104.1-16.2l1,9.3l-94.4,14.7h12.8l81.8-12.7l1.3,13.3h1.9l-4-38.9l-26.2-21.7
		l-85.6,13.2l6.3,46.8h2.1V359.5z"/>
</g>
<g>
	<polyline class="st9" points="549.2,360.1 543.9,320.6 628.2,307.6 653.7,328.7 657.1,360.1"/>
	<polygon class="st1" points="552.3,360.1 552.2,359.4 582.3,354.8 582.7,356.8 560.9,360.1"/>
	<polygon class="st1" points="551.9,353.7 569.1,351 569.5,353 552.2,355.6"/>
	<polygon class="st1" points="551.3,351 561.1,349.5 561.4,351.4 551.6,352.9"/>
	<polygon class="st1" points="550.8,348.4 562.5,346.5 562.8,348.4 551.1,350.2"/>
	<polygon class="st1" points="550.3,345.5 563.6,343.3 563.9,345.2 550.5,347.3"/>
	<polygon class="st1" points="549.7,342.4 568.6,339.4 568.9,341.3 550,344.4"/>
	<polygon class="st1" points="549.1,339.4 559.7,337.8 560,339.7 549.4,341.4"/>
	<polygon class="st1" points="547.4,325.7 558,324.1 558.3,326.1 547.6,327.7"/>
	<polygon class="st1" points="548.7,335.2 562.3,333.1 562.6,335 548.9,337.2"/>
	<polygon class="st1" points="547.9,328.9 569.7,325.4 570,327.3 548.2,330.8"/>
	<polygon class="st1" points="599.1,320.9 623.5,317.1 623.8,319 599.4,322.9"/>
	<polygon class="st1" points="599.1,332 615.9,329.4 616.2,331.3 599.4,334"/>
	<polygon class="st1" points="601.2,343.6 617.5,341.1 617.8,343 601.5,345.6"/>
	<polygon class="st1" points="600.2,338 613.6,335.9 613.9,337.8 600.5,340"/>
	<polygon class="st1" points="600.7,340.9 629.5,336.4 629.8,338.3 601,342.9"/>
	<polygon class="st1" points="599.6,335 618.6,332 618.9,333.9 599.9,337"/>
	<polygon class="st1" points="546.8,322.5 581.5,317.1 581.8,319 547,324.5"/>
	<path class="st1" d="M637.3,362.6"/>
	<path class="st11" d="M545,321.4l83.1-12.8l1.2,10.8l-82.8,12.7L545,321.4z M546.7,334.3l82.7-13.1l1.2,11l22-3.1l1.2,11.4
		l-104.2,16.2L546.7,334.3z M550.2,360.1l-0.2-1.4l104.1-16.2l1,9.3l-53.3,8.3H615l40.3-6.3l0.7,6.3h1.9l-3.3-31.8l-26.2-21.7
		l-85.6,13.2l5.4,40.3"/>
</g>
<polygon class="st13" points="525,431.8 485.9,503.5 0.3,503.5 0.3,431.8 "/>
<g>
	<polyline class="st9" points="564.9,503.8 557.7,450.3 642,437.3 667.5,458.4 672.2,503.8"/>
	<polygon class="st1" points="560.6,452.2 595.3,446.8 595.6,448.7 560.8,454.2"/>
	<path class="st11" d="M671.2,503.8h1.9l-4.7-45.8l-26.2-21.7l-85.6,13.2l7.3,54.3h2l-0.6-4.1l103.8-16.2L671.2,503.8z M558.8,451.1
		l83.1-12.8l1.2,10.8l-82.8,12.7L558.8,451.1z M560.5,464l82.7-13.1l1.2,11l22-3.1l1.2,11.4l-104.2,16.2L560.5,464z M565,497.7
		l-1.2-9.3l104.1-16.2l1,9.3L565,497.7z"/>
</g>
<g>
	<polyline class="st9" points="556.7,503.2 550.5,457.3 634.8,444.3 660.3,465.4 664.3,503.2"/>
	<polygon class="st1" points="553.4,459.2 588.2,453.8 588.5,455.7 553.7,461.2"/>
	<path class="st11" d="M551.7,458.1l83.1-12.8l1.2,10.8l-82.8,12.7L551.7,458.1z M553.4,471l82.7-13.1l1.2,11l22-3.1l1.2,11.4
		l-104.2,16.2L553.4,471z M557.7,503.2l-1.1-7.9l104.1-16.2l1,9.3l-94.4,14.7h12.8l81.8-12.7l1.3,13.3h1.9l-4-38.9l-26.2-21.7
		l-85.6,13.2l6.3,46.8h2.1V503.2z"/>
</g>
<g>
	<polyline class="st9" points="549.2,503.9 543.9,464.4 628.2,451.4 653.7,472.5 657.1,503.9"/>
	<polygon class="st1" points="552.3,503.9 552.2,503.2 582.3,498.6 582.7,500.5 560.9,503.9"/>
	<polygon class="st1" points="551.9,497.4 569.1,494.8 569.5,496.7 552.2,499.4"/>
	<polygon class="st1" points="551.3,494.8 561.1,493.3 561.4,495.2 551.6,496.7"/>
	<polygon class="st1" points="550.8,492.2 562.5,490.3 562.8,492.2 551.1,494"/>
	<polygon class="st1" points="550.3,489.3 563.6,487.1 563.9,489 550.5,491.1"/>
	<polygon class="st1" points="549.7,486.1 568.6,483.2 568.9,485.1 550,488.2"/>
	<polygon class="st1" points="549.1,483.2 559.7,481.6 560,483.5 549.4,485.2"/>
	<polygon class="st1" points="547.4,469.5 558,467.9 558.3,469.9 547.6,471.5"/>
	<polygon class="st1" points="548.7,479 562.3,476.9 562.6,478.8 548.9,481"/>
	<polygon class="st1" points="547.9,472.6 569.7,469.2 570,471.1 548.2,474.6"/>
	<polygon class="st1" points="599.1,464.7 623.5,460.9 623.8,462.8 599.4,466.7"/>
	<polygon class="st1" points="599.1,475.8 615.9,473.2 616.2,475.1 599.4,477.8"/>
	<polygon class="st1" points="601.2,487.4 617.5,484.9 617.8,486.8 601.5,489.4"/>
	<polygon class="st1" points="600.2,481.8 613.6,479.7 613.9,481.6 600.5,483.7"/>
	<polygon class="st1" points="600.7,484.7 629.5,480.2 629.8,482.1 601,486.6"/>
	<polygon class="st1" points="599.6,478.8 618.6,475.8 618.9,477.7 599.9,480.8"/>
	<polygon class="st1" points="546.8,466.3 581.5,460.9 581.8,462.8 547,468.3"/>
	<path class="st1" d="M637.3,506.4"/>
	<path class="st11" d="M545,465.2l83.1-12.8l1.2,10.8l-82.8,12.7L545,465.2z M546.7,478.1l82.7-13.1l1.2,11l22-3.1l1.2,11.4
		l-104.2,16.2L546.7,478.1z M550.2,503.9l-0.2-1.4l104.1-16.2l1,9.3l-53.3,8.3H615l40.3-6.3l0.7,6.3h1.9l-3.3-31.8l-26.2-21.7
		l-85.6,13.2l5.4,40.3"/>
</g>
<polygon class="st13" points="525,504 485.9,575.7 0.3,575.7 0.3,504 "/>
<g>
	<polyline class="st9" points="564.9,576 557.7,522.5 642,509.5 667.5,530.6 672.2,576"/>
	<polygon class="st1" points="560.6,524.4 595.3,519 595.6,520.9 560.8,526.4"/>
	<path class="st11" d="M671.2,576h1.9l-4.7-45.8l-26.2-21.7l-85.6,13.2l7.3,54.3h2l-0.6-4.1l103.8-16.2L671.2,576z M558.8,523.3
		l83.1-12.8l1.2,10.8L560.2,534L558.8,523.3z M560.5,536.2l82.7-13.1l1.2,11l22-3.1l1.2,11.4l-104.2,16.2L560.5,536.2z M565,569.9
		l-1.2-9.3l104.1-16.2l1,9.3L565,569.9z"/>
</g>
<g>
	<polyline class="st9" points="556.7,575.5 550.5,529.5 634.8,516.5 660.3,537.6 664.3,575.5"/>
	<polygon class="st1" points="553.4,531.4 588.2,526 588.5,528 553.7,533.4"/>
	<path class="st11" d="M551.7,530.3l83.1-12.8l1.2,10.8L553.1,541L551.7,530.3z M553.4,543.2l82.7-13.1l1.2,11l22-3.1l1.2,11.4
		l-104.2,16.2L553.4,543.2z M557.7,575.5l-1.1-7.9l104.1-16.2l1,9.3l-94.4,14.7h12.8l81.8-12.7l1.3,13.3h1.9l-4-38.9l-26.2-21.7
		l-85.6,13.2l6.3,46.8L557.7,575.5L557.7,575.5z"/>
</g>
<g>
	<polyline class="st9" points="549.2,576.1 543.9,536.6 628.2,523.6 653.7,544.7 657.1,576.1"/>
	<polygon class="st1" points="552.3,576.1 552.2,575.4 582.3,570.8 582.7,572.8 560.9,576.1"/>
	<polygon class="st1" points="551.9,569.7 569.1,567 569.5,569 552.2,571.6"/>
	<polygon class="st1" points="551.3,567 561.1,565.5 561.4,567.4 551.6,568.9"/>
	<polygon class="st1" points="550.8,564.4 562.5,562.5 562.8,564.5 551.1,566.2"/>
	<polygon class="st1" points="550.3,561.5 563.6,559.3 563.9,561.3 550.5,563.3"/>
	<polygon class="st1" points="549.7,558.4 568.6,555.4 568.9,557.4 550,560.4"/>
	<polygon class="st1" points="549.1,555.4 559.7,553.8 560,555.8 549.4,557.4"/>
	<polygon class="st1" points="547.4,541.7 558,540.2 558.3,542.1 547.6,543.7"/>
	<polygon class="st1" points="548.7,551.2 562.3,549.1 562.6,551.1 548.9,553.2"/>
	<polygon class="st1" points="547.9,544.9 569.7,541.4 570,543.4 548.2,546.8"/>
	<polygon class="st1" points="599.1,536.9 623.5,533.1 623.8,535.1 599.4,538.9"/>
	<polygon class="st1" points="599.1,548 615.9,545.4 616.2,547.4 599.4,550"/>
	<polygon class="st1" points="601.2,559.6 617.5,557.1 617.8,559.1 601.5,561.6"/>
	<polygon class="st1" points="600.2,554 613.6,551.9 613.9,553.9 600.5,556"/>
	<polygon class="st1" points="600.7,556.9 629.5,552.4 629.8,554.4 601,558.9"/>
	<polygon class="st1" points="599.6,551 618.6,548 618.9,550 599.9,553"/>
	<polygon class="st1" points="546.8,538.5 581.5,533.1 581.8,535.1 547,540.5"/>
	<path class="st1" d="M637.3,578.6"/>
	<path class="st11" d="M545,537.4l83.1-12.8l1.2,10.8l-82.8,12.7L545,537.4z M546.7,550.3l82.7-13.1l1.2,11l22-3.1l1.2,11.4
		l-104.2,16.2L546.7,550.3z M550.2,576.1l-0.2-1.4l104.1-16.2l1,9.3l-53.3,8.3H615l40.3-6.3l0.7,6.3h1.9l-3.3-31.8l-26.2-21.7
		l-85.6,13.2l5.4,40.3"/>
</g>
<rect x="0.1" y="143.7" class="st2" width="872" height="72"/>
<rect x="494.7" y="183" class="st10" width="7.5" height="7.7"/>
<rect x="494.7" y="198.5" class="st10" width="7.5" height="7.7"/>
<rect x="578.2" y="190.8" class="st10" width="7.5" height="7.7"/>
<rect x="585.7" y="198.5" class="st10" width="7.5" height="7.7"/>
<rect x="585.7" y="183" class="st10" width="7.5" height="7.7"/>
<rect x="578.2" y="175.3" class="st10" width="7.5" height="7.7"/>
<rect x="578.2" y="144.5" class="st10" width="7.5" height="7.7"/>
<rect x="585.7" y="152.2" class="st10" width="7.5" height="7.7"/>
<rect x="578.2" y="159.9" class="st10" width="7.5" height="7.7"/>
<rect x="585.7" y="167.6" class="st10" width="7.5" height="7.7"/>
<rect x="593.3" y="144.5" class="st10" width="7.5" height="7.7"/>
<rect x="600.8" y="152.2" class="st10" width="7.5" height="7.7"/>
<rect x="608.3" y="159.9" class="st10" width="7.5" height="7.7"/>
<rect x="600.8" y="167.6" class="st10" width="7.5" height="7.7"/>
<rect x="608.3" y="175.3" class="st10" width="7.5" height="7.7"/>
<rect x="600.8" y="183" class="st10" width="7.5" height="7.7"/>
<rect x="608.3" y="190.8" class="st10" width="7.5" height="7.7"/>
<rect x="593.3" y="159.9" class="st10" width="7.5" height="7.7"/>
<rect x="593.3" y="175.3" class="st10" width="7.5" height="7.7"/>
<rect x="593.3" y="190.8" class="st10" width="7.5" height="7.7"/>
<rect x="614.8" y="183" class="st10" width="7.5" height="7.7"/>
<rect x="623.3" y="190.8" class="st10" width="7.5" height="7.7"/>
<rect x="615.8" y="167.6" class="st10" width="7.5" height="7.7"/>
<rect x="623.3" y="175.3" class="st10" width="7.5" height="7.7"/>
<rect x="630.8" y="183" class="st10" width="7.5" height="7.7"/>
<rect x="600.8" y="198.5" class="st10" width="7.5" height="7.7"/>
<rect x="615.8" y="198.5" class="st10" width="7.5" height="7.7"/>
<rect x="630.8" y="198.5" class="st10" width="7.5" height="7.7"/>
<rect x="638.4" y="190.8" class="st10" width="7.5" height="7.7"/>
<rect x="645.9" y="198.5" class="st10" width="7.5" height="7.7"/>
<rect x="645.9" y="183" class="st10" width="7.5" height="7.7"/>
<rect x="638.4" y="175.3" class="st10" width="7.5" height="7.7"/>
<rect x="630.8" y="167.6" class="st10" width="7.5" height="7.7"/>
<rect x="623.3" y="159.9" class="st10" width="7.5" height="7.7"/>
<rect x="615.8" y="152.2" class="st10" width="7.5" height="7.7"/>
<rect x="608.3" y="144.5" class="st10" width="7.5" height="7.7"/>
<rect x="623.3" y="144.5" class="st10" width="7.5" height="7.7"/>
<rect x="630.8" y="152.2" class="st10" width="7.5" height="7.7"/>
<rect x="638.4" y="144.5" class="st10" width="7.5" height="7.7"/>
<rect x="645.9" y="152.2" class="st10" width="7.5" height="7.7"/>
<rect x="638.4" y="159.9" class="st10" width="7.5" height="7.7"/>
<rect x="645.9" y="167.6" class="st10" width="7.5" height="7.7"/>
<rect x="653.4" y="144.5" class="st10" width="7.5" height="7.7"/>
<rect x="660.9" y="152.2" class="st10" width="7.5" height="7.7"/>
<rect x="668.5" y="159.9" class="st10" width="7.5" height="7.7"/>
<rect x="660.9" y="167.6" class="st10" width="7.5" height="7.7"/>
<rect x="668.5" y="175.3" class="st10" width="7.5" height="7.7"/>
<rect x="660.9" y="183" class="st10" width="7.5" height="7.7"/>
<rect x="668.5" y="190.8" class="st10" width="7.5" height="7.7"/>
<rect x="653.4" y="159.9" class="st10" width="7.5" height="7.7"/>
<rect x="653.4" y="175.3" class="st10" width="7.5" height="7.7"/>
<rect x="653.4" y="190.8" class="st10" width="7.5" height="7.7"/>
<rect x="675" y="183" class="st10" width="7.5" height="7.7"/>
<rect x="683.5" y="190.8" class="st10" width="7.5" height="7.7"/>
<rect x="676" y="167.6" class="st10" width="7.5" height="7.7"/>
<rect x="683.5" y="175.3" class="st10" width="7.5" height="7.7"/>
<rect x="691" y="183" class="st10" width="7.5" height="7.7"/>
<rect x="660.9" y="198.5" class="st10" width="7.5" height="7.7"/>
<rect x="676" y="198.5" class="st10" width="7.5" height="7.7"/>
<rect x="691" y="198.5" class="st10" width="7.5" height="7.7"/>
<rect x="698.5" y="190.8" class="st10" width="7.5" height="7.7"/>
<rect x="706" y="198.5" class="st10" width="7.5" height="7.7"/>
<rect x="706" y="183" class="st10" width="7.5" height="7.7"/>
<rect x="698.5" y="175.3" class="st10" width="7.5" height="7.7"/>
<rect x="691" y="167.6" class="st10" width="7.5" height="7.7"/>
<rect x="683.5" y="159.9" class="st10" width="7.5" height="7.7"/>
<rect x="676" y="152.2" class="st10" width="7.5" height="7.7"/>
<rect x="668.5" y="144.5" class="st10" width="7.5" height="7.7"/>
<rect x="683.5" y="144.5" class="st10" width="7.5" height="7.7"/>
<rect x="691" y="152.2" class="st10" width="7.5" height="7.7"/>
<rect x="698.5" y="144.5" class="st10" width="7.5" height="7.7"/>
<rect x="706" y="152.2" class="st10" width="7.5" height="7.7"/>
<rect x="698.5" y="159.9" class="st10" width="7.5" height="7.7"/>
<rect x="706" y="167.6" class="st10" width="7.5" height="7.7"/>
<rect x="713.6" y="144.5" class="st10" width="7.5" height="7.7"/>
<rect x="721.1" y="152.2" class="st10" width="7.5" height="7.7"/>
<rect x="728.6" y="159.9" class="st10" width="7.5" height="7.7"/>
<rect x="721.1" y="167.6" class="st10" width="7.5" height="7.7"/>
<rect x="728.6" y="175.3" class="st10" width="7.5" height="7.7"/>
<rect x="721.1" y="183" class="st10" width="7.5" height="7.7"/>
<rect x="728.6" y="190.8" class="st10" width="7.5" height="7.7"/>
<rect x="713.6" y="159.9" class="st10" width="7.5" height="7.7"/>
<rect x="713.6" y="175.3" class="st10" width="7.5" height="7.7"/>
<rect x="713.6" y="190.8" class="st10" width="7.5" height="7.7"/>
<rect x="735.1" y="183" class="st10" width="7.5" height="7.7"/>
<rect x="743.7" y="190.8" class="st10" width="7.5" height="7.7"/>
<rect x="736.1" y="167.6" class="st10" width="7.5" height="7.7"/>
<rect x="743.7" y="175.3" class="st10" width="7.5" height="7.7"/>
<rect x="751.2" y="183" class="st10" width="7.5" height="7.7"/>
<rect x="721.1" y="198.5" class="st10" width="7.5" height="7.7"/>
<rect x="736.1" y="198.5" class="st10" width="7.5" height="7.7"/>
<rect x="751.2" y="198.5" class="st10" width="7.5" height="7.7"/>
<rect x="758.7" y="190.8" class="st10" width="7.5" height="7.7"/>
<rect x="766.2" y="198.5" class="st10" width="7.5" height="7.7"/>
<rect x="766.2" y="183" class="st10" width="7.5" height="7.7"/>
<rect x="758.7" y="175.3" class="st10" width="7.5" height="7.7"/>
<rect x="751.2" y="167.6" class="st10" width="7.5" height="7.7"/>
<rect x="743.7" y="159.9" class="st10" width="7.5" height="7.7"/>
<rect x="736.1" y="152.2" class="st10" width="7.5" height="7.7"/>
<rect x="728.6" y="144.5" class="st10" width="7.5" height="7.7"/>
<rect x="743.7" y="144.5" class="st10" width="7.5" height="7.7"/>
<rect x="751.2" y="152.2" class="st10" width="7.5" height="7.7"/>
<rect x="758.7" y="144.5" class="st10" width="7.5" height="7.7"/>
<rect x="766.2" y="152.2" class="st10" width="7.5" height="7.7"/>
<rect x="758.7" y="159.9" class="st10" width="7.5" height="7.7"/>
<rect x="766.2" y="167.6" class="st10" width="7.5" height="7.7"/>
<rect x="773.7" y="144.5" class="st10" width="7.5" height="7.7"/>
<rect x="781.3" y="152.2" class="st10" width="7.5" height="7.7"/>
<rect x="788.8" y="159.9" class="st10" width="7.5" height="7.7"/>
<rect x="781.3" y="167.6" class="st10" width="7.5" height="7.7"/>
<rect x="788.8" y="175.3" class="st10" width="7.5" height="7.7"/>
<rect x="781.3" y="183" class="st10" width="7.5" height="7.7"/>
<rect x="788.8" y="190.8" class="st10" width="7.5" height="7.7"/>
<rect x="773.7" y="159.9" class="st10" width="7.5" height="7.7"/>
<rect x="773.7" y="175.3" class="st10" width="7.5" height="7.7"/>
<rect x="773.7" y="190.8" class="st10" width="7.5" height="7.7"/>
<rect x="795.3" y="183" class="st10" width="7.5" height="7.7"/>
<rect x="803.8" y="190.8" class="st10" width="7.5" height="7.7"/>
<rect x="796.3" y="167.6" class="st10" width="7.5" height="7.7"/>
<rect x="803.8" y="175.3" class="st10" width="7.5" height="7.7"/>
<rect x="811.3" y="183" class="st10" width="7.5" height="7.7"/>
<rect x="781.3" y="198.5" class="st10" width="7.5" height="7.7"/>
<rect x="796.3" y="198.5" class="st10" width="7.5" height="7.7"/>
<rect x="811.3" y="198.5" class="st10" width="7.5" height="7.7"/>
<rect x="818.9" y="190.8" class="st10" width="7.5" height="7.7"/>
<rect x="826.4" y="198.5" class="st10" width="7.5" height="7.7"/>
<rect x="826.4" y="183" class="st10" width="7.5" height="7.7"/>
<rect x="818.9" y="175.3" class="st10" width="7.5" height="7.7"/>
<rect x="811.3" y="167.6" class="st10" width="7.5" height="7.7"/>
<rect x="803.8" y="159.9" class="st10" width="7.5" height="7.7"/>
<rect x="796.3" y="152.2" class="st10" width="7.5" height="7.7"/>
<rect x="788.8" y="144.5" class="st10" width="7.5" height="7.7"/>
<rect x="803.8" y="144.5" class="st10" width="7.5" height="7.7"/>
<rect x="811.3" y="152.2" class="st10" width="7.5" height="7.7"/>
<rect x="818.9" y="144.5" class="st10" width="7.5" height="7.7"/>
<rect x="826.4" y="152.2" class="st10" width="7.5" height="7.7"/>
<rect x="818.9" y="159.9" class="st10" width="7.5" height="7.7"/>
<rect x="826.4" y="167.6" class="st10" width="7.5" height="7.7"/>
<rect x="833.9" y="159.9" class="st10" width="7.5" height="7.7"/>
<rect x="833.9" y="175.3" class="st10" width="7.5" height="7.7"/>
<rect x="833.9" y="190.8" class="st10" width="7.5" height="7.7"/>
<rect x="840.4" y="183" class="st10" width="7.5" height="7.7"/>
<rect x="848.9" y="190.8" class="st10" width="7.5" height="7.7"/>
<rect x="841.4" y="167.6" class="st10" width="7.5" height="7.7"/>
<rect x="848.9" y="175.3" class="st10" width="7.5" height="7.7"/>
<rect x="856.5" y="183" class="st10" width="7.5" height="7.7"/>
<rect x="841.4" y="198.5" class="st10" width="7.5" height="7.7"/>
<rect x="856.5" y="198.5" class="st10" width="7.5" height="7.7"/>
<rect x="864" y="190.8" class="st10" width="7.5" height="7.7"/>
<rect x="864" y="175.3" class="st10" width="7.5" height="7.7"/>
<rect x="856.5" y="167.6" class="st10" width="7.5" height="7.7"/>
<rect x="848.9" y="159.9" class="st10" width="7.5" height="7.7"/>
<rect x="841.4" y="152.2" class="st10" width="7.5" height="7.7"/>
<rect x="833.9" y="144.5" class="st10" width="7.5" height="7.7"/>
<rect x="848.9" y="144.5" class="st10" width="7.5" height="7.7"/>
<rect x="856.5" y="152.2" class="st10" width="7.5" height="7.7"/>
<rect x="864" y="144.5" class="st10" width="7.5" height="7.7"/>
<rect x="864" y="159.9" class="st10" width="7.5" height="7.7"/>
<rect x="487.2" y="206.9" class="st10" width="7.5" height="7.7"/>
<rect x="578.2" y="206.9" class="st10" width="7.5" height="7.7"/>
<rect x="608.3" y="206.9" class="st10" width="7.5" height="7.7"/>
<rect x="593.3" y="206.9" class="st10" width="7.5" height="7.7"/>
<rect x="623.3" y="206.9" class="st10" width="7.5" height="7.7"/>
<rect x="638.4" y="206.9" class="st10" width="7.5" height="7.7"/>
<rect x="668.5" y="206.9" class="st10" width="7.5" height="7.7"/>
<rect x="653.4" y="206.9" class="st10" width="7.5" height="7.7"/>
<rect x="509.5" y="183" class="st10" width="7.5" height="7.7"/>
<rect x="518" y="190.8" class="st10" width="7.5" height="7.7"/>
<rect x="510.5" y="167.6" class="st10" width="7.5" height="7.7"/>
<rect x="518" y="175.3" class="st10" width="7.5" height="7.7"/>
<rect x="525.5" y="183" class="st10" width="7.5" height="7.7"/>
<rect x="510.5" y="198.5" class="st10" width="7.5" height="7.7"/>
<rect x="525.5" y="198.5" class="st10" width="7.5" height="7.7"/>
<rect x="533.1" y="190.8" class="st10" width="7.5" height="7.7"/>
<rect x="540.6" y="198.5" class="st10" width="7.5" height="7.7"/>
<rect x="540.6" y="183" class="st10" width="7.5" height="7.7"/>
<rect x="533.1" y="175.3" class="st10" width="7.5" height="7.7"/>
<rect x="525.5" y="167.6" class="st10" width="7.5" height="7.7"/>
<rect x="518" y="159.9" class="st10" width="7.5" height="7.7"/>
<rect x="510.5" y="152.2" class="st10" width="7.5" height="7.7"/>
<rect x="518" y="144.5" class="st10" width="7.5" height="7.7"/>
<rect x="525.5" y="152.2" class="st10" width="7.5" height="7.7"/>
<rect x="533.1" y="144.5" class="st10" width="7.5" height="7.7"/>
<rect x="540.6" y="152.2" class="st10" width="7.5" height="7.7"/>
<rect x="533.1" y="159.9" class="st10" width="7.5" height="7.7"/>
<rect x="540.6" y="167.6" class="st10" width="7.5" height="7.7"/>
<rect x="548.1" y="144.5" class="st10" width="7.5" height="7.7"/>
<rect x="555.6" y="152.2" class="st10" width="7.5" height="7.7"/>
<rect x="563.2" y="159.9" class="st10" width="7.5" height="7.7"/>
<rect x="555.6" y="167.6" class="st10" width="7.5" height="7.7"/>
<rect x="563.2" y="175.3" class="st10" width="7.5" height="7.7"/>
<rect x="555.6" y="183" class="st10" width="7.5" height="7.7"/>
<rect x="563.2" y="190.8" class="st10" width="7.5" height="7.7"/>
<rect x="548.1" y="159.9" class="st10" width="7.5" height="7.7"/>
<rect x="548.1" y="175.3" class="st10" width="7.5" height="7.7"/>
<rect x="548.1" y="190.8" class="st10" width="7.5" height="7.7"/>
<rect x="569.7" y="183" class="st10" width="7.5" height="7.7"/>
<rect x="570.7" y="167.6" class="st10" width="7.5" height="7.7"/>
<rect x="555.6" y="198.5" class="st10" width="7.5" height="7.7"/>
<rect x="570.7" y="198.5" class="st10" width="7.5" height="7.7"/>
<rect x="570.7" y="152.2" class="st10" width="7.5" height="7.7"/>
<rect x="563.2" y="144.5" class="st10" width="7.5" height="7.7"/>
<rect x="518" y="206.9" class="st10" width="7.5" height="7.7"/>
<rect x="502.2" y="190.8" class="st10" width="7.5" height="7.7"/>
<rect x="502.2" y="175.3" class="st10" width="7.5" height="7.7"/>
<rect x="502.2" y="206.9" class="st10" width="7.5" height="7.7"/>
<rect x="533.1" y="206.9" class="st10" width="7.5" height="7.7"/>
<rect x="563.2" y="206.9" class="st10" width="7.5" height="7.7"/>
<rect x="548.1" y="206.9" class="st10" width="7.5" height="7.7"/>
<rect x="683.5" y="206.9" class="st10" width="7.5" height="7.7"/>
<rect x="698.5" y="206.9" class="st10" width="7.5" height="7.7"/>
<rect x="728.6" y="206.9" class="st10" width="7.5" height="7.7"/>
<rect x="713.6" y="206.9" class="st10" width="7.5" height="7.7"/>
<rect x="743.7" y="206.9" class="st10" width="7.5" height="7.7"/>
<rect x="758.7" y="206.9" class="st10" width="7.5" height="7.7"/>
<rect x="788.8" y="206.9" class="st10" width="7.5" height="7.7"/>
<rect x="773.7" y="206.9" class="st10" width="7.5" height="7.7"/>
<rect x="803.8" y="206.9" class="st10" width="7.5" height="7.7"/>
<rect x="818.9" y="206.9" class="st10" width="7.5" height="7.7"/>
<rect x="833.9" y="206.9" class="st10" width="7.5" height="7.7"/>
<rect x="848.9" y="206.9" class="st10" width="7.5" height="7.7"/>
<rect x="864" y="206.9" class="st10" width="7.5" height="7.7"/>
<rect x="534.3" y="411.8" transform="matrix(1 4.713753e-03 -4.713753e-03 1 1.9542 -2.5208)" class="st12" width="2.9" height="3"/>
<rect x="503.1" y="419.2" transform="matrix(1 4.378537e-03 -4.378537e-03 1 1.8469 -2.2051)" class="st12" width="2.9" height="3"/>
<polyline class="st12" points="504.5,383.5 548.2,404.3 598.7,400.3 620,375.1 669.1,381.6 688.7,359.8 "/>
<g>
	<polyline class="st9" points="564.9,432.2 557.7,378.7 642,365.7 667.5,386.8 672.2,432.2"/>
	<polygon class="st1" points="560.6,380.6 595.3,375.2 595.6,377.1 560.8,382.6"/>
	<path class="st11" d="M671.2,432.2h1.9l-4.7-45.8l-26.2-21.7l-85.6,13.2l7.3,54.3h2l-0.6-4.1l103.8-16.2L671.2,432.2z M558.8,379.5
		l83.1-12.8l1.2,10.8l-82.8,12.7L558.8,379.5z M560.5,392.4l82.7-13.1l1.2,11l22-3.1l1.2,11.4l-104.2,16.2L560.5,392.4z M565,426.1
		l-1.2-9.3l104.1-16.2l1,9.3L565,426.1z"/>
</g>
<g>
	<polyline class="st9" points="556.7,431.6 550.5,385.7 634.8,372.7 660.3,393.8 664.3,431.6"/>
	<polygon class="st1" points="553.4,387.6 588.2,382.2 588.5,384.1 553.7,389.6"/>
	<path class="st11" d="M551.7,386.5l83.1-12.8l1.2,10.8l-82.8,12.7L551.7,386.5z M553.4,399.4l82.7-13.1l1.2,11l22-3.1l1.2,11.4
		l-104.2,16.2L553.4,399.4z M557.7,431.6l-1.1-7.9l104.1-16.2l1,9.3l-94.4,14.7h12.8l81.8-12.7l1.3,13.3h1.9l-4-38.9l-26.2-21.7
		l-85.6,13.2l6.3,46.8L557.7,431.6L557.7,431.6z"/>
</g>
<g>
	<polyline class="st9" points="549.2,432.3 543.9,392.8 628.2,379.8 653.7,400.9 657.1,432.3"/>
	<polygon class="st1" points="552.3,432.3 552.2,431.6 582.3,427 582.7,429 560.9,432.3"/>
	<polygon class="st1" points="551.9,425.9 569.1,423.2 569.5,425.1 552.2,427.8"/>
	<polygon class="st1" points="551.3,423.2 561.1,421.7 561.4,423.6 551.6,425.1"/>
	<polygon class="st1" points="550.8,420.6 562.5,418.7 562.8,420.6 551.1,422.4"/>
	<polygon class="st1" points="550.3,417.7 563.6,415.5 563.9,417.4 550.5,419.5"/>
	<polygon class="st1" points="549.7,414.6 568.6,411.6 568.9,413.5 550,416.6"/>
	<polygon class="st1" points="549.1,411.6 559.7,410 560,411.9 549.4,413.6"/>
	<polygon class="st1" points="547.4,397.9 558,396.3 558.3,398.3 547.6,399.9"/>
	<polygon class="st1" points="548.7,407.4 562.3,405.3 562.6,407.2 548.9,409.4"/>
	<polygon class="st1" points="547.9,401.1 569.7,397.6 570,399.5 548.2,403"/>
	<polygon class="st1" points="599.1,393.1 623.5,389.3 623.8,391.2 599.4,395.1"/>
	<polygon class="st1" points="599.1,404.2 615.9,401.6 616.2,403.5 599.4,406.2"/>
	<polygon class="st1" points="601.2,415.8 617.5,413.3 617.8,415.2 601.5,417.8"/>
	<polygon class="st1" points="600.2,410.2 613.6,408.1 613.9,410 600.5,412.1"/>
	<polygon class="st1" points="600.7,413.1 629.5,408.6 629.8,410.5 601,415"/>
	<polygon class="st1" points="599.6,407.2 618.6,404.2 618.9,406.1 599.9,409.2"/>
	<polygon class="st1" points="546.8,394.7 581.5,389.3 581.8,391.2 547,396.7"/>
	<path class="st1" d="M637.3,434.8"/>
	<path class="st11" d="M545,393.6l83.1-12.8l1.2,10.8l-82.8,12.7L545,393.6z M546.7,406.5l82.7-13.1l1.2,11l22-3.1l1.2,11.4
		l-104.2,16.2L546.7,406.5z M550.2,432.3l-0.2-1.4l104.1-16.2l1,9.3l-53.3,8.3H615l40.3-6.3l0.7,6.3h1.9l-3.3-31.8l-26.2-21.7
		L542.8,392l5.4,40.3"/>
</g>
<polygon class="st13" points="525,360.2 485.9,431.9 0.3,431.9 0.3,360.2 "/>
<polygon class="st4" points="524.6,143.9 485.5,215.6 -0.1,215.6 -0.1,143.9 "/>
<g>
	<polyline class="st9" points="564.5,215.4 557.3,161.9 641.6,148.9 667.1,170 671.8,215.4"/>
	<polygon class="st1" points="560.2,163.8 594.9,158.5 595.2,160.4 560.4,165.8"/>
	<path class="st11" d="M670.8,215.4h1.9l-4.7-45.8l-26.2-21.7l-85.6,13.2l7.3,54.3h2l-0.6-4.1l103.8-16.2L670.8,215.4z M558.4,162.7
		l83.1-12.8l1.2,10.8l-82.8,12.7L558.4,162.7z M560.1,175.7l82.7-13.1l1.2,11l22-3.1l1.2,11.4L563,198.1L560.1,175.7z M564.6,209.3
		l-1.2-9.3l104.1-16.2l1,9.3L564.6,209.3z"/>
</g>
<g>
	<polyline class="st9" points="556.3,214.9 550.1,168.9 634.4,155.9 659.9,177 663.9,214.9"/>
	<polygon class="st1" points="553,170.9 587.8,165.5 588.1,167.4 553.3,172.8"/>
	<path class="st11" d="M551.3,169.8l83.1-12.8l1.2,10.8l-82.8,12.7L551.3,169.8z M553,182.7l82.7-13.1l1.2,11l22-3.1l1.2,11.4
		L556,205.1L553,182.7z M557.3,214.9l-1.1-7.9l104.1-16.2l1,9.3L567,214.9h12.8l81.8-12.7l1.3,13.3h1.9l-4-38.9l-26.2-21.7
		L549,168.1l6.3,46.8H557.3z"/>
</g>
<g>
	<polyline class="st9" points="548.8,215.6 543.5,176 627.8,163 653.3,184.1 656.7,215.6"/>
	<polygon class="st1" points="551.9,215.5 551.8,214.8 581.9,210.3 582.3,212.2 560.5,215.5"/>
	<polygon class="st1" points="551.5,209.1 568.7,206.5 569.1,208.4 551.8,211.1"/>
	<polygon class="st1" points="550.9,206.5 560.7,204.9 561,206.9 551.2,208.4"/>
	<polygon class="st1" points="550.4,203.8 562.1,202 562.4,203.9 550.7,205.7"/>
	<polygon class="st1" points="549.9,200.9 563.2,198.8 563.5,200.7 550.1,202.8"/>
	<polygon class="st1" points="549.3,197.8 568.2,194.9 568.5,196.8 549.6,199.8"/>
	<polygon class="st1" points="548.7,194.9 559.3,193.3 559.6,195.2 549,196.8"/>
	<polygon class="st1" points="547,181.2 557.6,179.6 557.9,181.5 547.2,183.2"/>
	<polygon class="st1" points="548.3,190.6 561.9,188.6 562.2,190.5 548.5,192.6"/>
	<polygon class="st1" points="547.5,184.3 569.3,180.9 569.6,182.8 547.8,186.3"/>
	<polygon class="st1" points="598.7,176.3 623.1,172.6 623.4,174.5 599,178.3"/>
	<polygon class="st1" points="598.7,187.5 615.5,184.9 615.8,186.8 599,189.4"/>
	<polygon class="st1" points="600.8,199.1 617.1,196.6 617.4,198.5 601.1,201.1"/>
	<polygon class="st1" points="599.8,193.4 613.2,191.4 613.5,193.3 600.1,195.4"/>
	<polygon class="st1" points="600.3,196.3 629.1,191.9 629.4,193.8 600.6,198.3"/>
	<polygon class="st1" points="599.2,190.5 618.2,187.5 618.5,189.4 599.5,192.5"/>
	<polygon class="st1" points="546.4,178 581.1,172.6 581.4,174.5 546.6,179.9"/>
	<path class="st1" d="M636.9,218.1"/>
	<path class="st11" d="M544.6,176.9l83.1-12.8l1.2,10.8L546,187.5L544.6,176.9z M546.3,189.8l82.7-13.1l1.2,11l22-3.1l1.2,11.4
		l-104.2,16.2L546.3,189.8z M549.8,215.6l-0.2-1.4L653.7,198l1,9.3l-53.3,8.3h13.2l40.3-6.3l0.7,6.3h1.9l-3.3-31.8L628,162
		l-85.6,13.2l5.4,40.3"/>
</g>
<polygon class="st4" points="524.6,215.8 485.5,287.5 -0.1,287.5 -0.1,215.8 "/>
<g>
	<polyline class="st9" points="564.5,287.4 557.3,233.9 641.6,220.9 667.1,242 671.8,287.4"/>
	<polygon class="st1" points="560.2,235.8 594.9,230.4 595.2,232.3 560.4,237.8"/>
	<path class="st11" d="M670.8,287.4h1.9l-4.7-45.8l-26.2-21.7l-85.6,13.2l7.3,54.3h2l-0.6-4.1l103.8-16.2L670.8,287.4z M558.4,234.7
		l83.1-12.8l1.2,10.8l-82.8,12.7L558.4,234.7z M560.1,247.6l82.7-13.1l1.2,11l22-3.1l1.2,11.4L563.1,270L560.1,247.6z M564.6,281.3
		l-1.2-9.3l104.1-16.2l1,9.3L564.6,281.3z"/>
</g>
<g>
	<polyline class="st9" points="556.3,286.9 550.1,240.9 634.4,227.9 659.9,249 663.9,286.9"/>
	<polygon class="st1" points="553,242.8 587.8,237.4 588.1,239.3 553.3,244.8"/>
	<path class="st11" d="M551.3,241.7l83.1-12.8l1.2,10.8l-82.8,12.7L551.3,241.7z M553,254.6l82.7-13.1l1.2,11l22-3.1l1.2,11.4
		L556,277L553,254.6z M557.3,286.9l-1.1-7.9l104.1-16.2l1,9.3L567,286.8h12.8l81.8-12.7l1.3,13.3h1.9l-4-38.9l-26.2-21.7L549,240
		l6.3,46.8L557.3,286.9z"/>
</g>
<g>
	<polyline class="st9" points="548.8,287.5 543.5,248 627.8,235 653.3,256.1 656.7,287.5"/>
	<polygon class="st1" points="551.9,287.5 551.8,286.8 581.9,282.2 582.3,284.2 560.5,287.5"/>
	<polygon class="st1" points="551.5,281.1 568.7,278.4 569.1,280.4 551.8,283"/>
	<polygon class="st1" points="550.9,278.4 560.7,276.9 561,278.8 551.2,280.3"/>
	<polygon class="st1" points="550.4,275.8 562.1,273.9 562.4,275.9 550.7,277.6"/>
	<polygon class="st1" points="549.9,272.9 563.2,270.7 563.5,272.7 550.1,274.7"/>
	<polygon class="st1" points="549.3,269.8 568.2,266.8 568.5,268.8 549.6,271.8"/>
	<polygon class="st1" points="548.7,266.8 559.3,265.2 559.6,267.2 549,268.8"/>
	<polygon class="st1" points="547,253.1 557.6,251.5 557.9,253.5 547.2,255.1"/>
	<polygon class="st1" points="548.3,262.6 561.9,260.5 562.2,262.5 548.5,264.6"/>
	<polygon class="st1" points="547.5,256.3 569.3,252.8 569.6,254.8 547.8,258.2"/>
	<polygon class="st1" points="598.7,248.3 623.1,244.5 623.4,246.5 599,250.3"/>
	<polygon class="st1" points="598.7,259.4 615.5,256.8 615.8,258.8 599,261.4"/>
	<polygon class="st1" points="600.8,271 617.1,268.5 617.4,270.5 601.1,273"/>
	<polygon class="st1" points="599.8,265.4 613.2,263.3 613.5,265.3 600.1,267.4"/>
	<polygon class="st1" points="600.3,268.3 629.1,263.8 629.4,265.8 600.6,270.3"/>
	<polygon class="st1" points="599.2,262.4 618.2,259.4 618.5,261.4 599.5,264.4"/>
	<polygon class="st1" points="546.4,249.9 581.1,244.5 581.4,246.5 546.6,251.9"/>
	<path class="st1" d="M636.9,290"/>
	<path class="st11" d="M544.6,248.8l83.1-12.8l1.2,10.8L546,259.5L544.6,248.8z M546.3,261.7l82.7-13.1l1.2,11l22-3.1l1.2,11.4
		l-104.2,16.2L546.3,261.7z M549.8,287.5l-0.2-1.4l104.1-16.2l1,9.3l-53.3,8.3h13.2l40.3-6.3l0.7,6.3h1.9l-3.3-31.8L628,234
		l-85.6,13.2l5.4,40.3"/>
</g>
</svg>
