<?xml version="1.0" encoding="utf-8"?>
<!DOCTYPE svg PUBLIC "-//W3C//DTD SVG 1.1//EN" "http://www.w3.org/Graphics/SVG/1.1/DTD/svg11.dtd">
<svg version="1.1" id="Calque_1" xmlns="http://www.w3.org/2000/svg" xmlns:xlink="http://www.w3.org/1999/xlink" x="0px" y="0px"
	 width="21px" height="21px" viewBox="0 0 21 21" enable-background="new 0 0 21 21" xml:space="preserve">
<g><circle fill="#FFFFFF" cx="10.5" cy="10.5" r="10.5"/></g>
<g><g>
		<path fill="#A6A6A6" d="M17.8,8.9h-2.3c-0.1-0.4-0.3-0.9-0.6-1.2l1.5-1.5c0.4-0.4,0.4-0.9,0-1.3l-0.6-0.6c-0.4-0.4-0.9-0.4-1.3,0
			L13,5.8c-0.4-0.2-0.9-0.4-1.4-0.5v-2c0-0.5-0.4-0.9-0.9-0.9H9.8c-0.5,0-0.9,0.4-0.9,0.9v2c-0.5,0.1-1,0.4-1.5,0.6L6.1,4.5
			c-0.4-0.4-0.9-0.4-1.3,0L4.2,5.2c-0.4,0.3-0.4,0.9,0,1.3l1.3,1.3C5.2,8.3,5,8.8,4.9,9.4H3.2c-0.5,0-0.9,0.4-0.9,0.9v0.9
			c0,0.5,0.4,0.9,0.9,0.9H5c0.2,0.6,0.4,1.1,0.7,1.5l-1.2,1.2c-0.4,0.4-0.4,0.9,0,1.3l0.6,0.6c0.4,0.4,0.9,0.4,1.3,0l1.4-1.4
			c0.5,0.2,1,0.4,1.5,0.5v1.9c0,0.5,0.4,0.9,0.9,0.9h0.9c0.5,0,0.9-0.4,0.9-0.9v-2.1c0.5-0.2,0.9-0.4,1.3-0.7l1.5,1.5
			c0.4,0.4,0.9,0.4,1.3,0l0.6-0.6c0.4-0.3,0.4-0.9,0-1.3l-1.6-1.6c0.2-0.4,0.3-0.8,0.4-1.3h2.2c0.5,0,0.9-0.4,0.9-0.9V9.8
			C18.7,9.3,18.3,8.9,17.8,8.9z M10.3,12.8c-1.2,0-2.3-1-2.3-2.3s1-2.3,2.3-2.3c1.3,0,2.3,1,2.3,2.3C12.5,11.8,11.5,12.8,10.3,12.8z
			"/>
</g></g>
</svg>
