<?xml version="1.0" encoding="utf-8"?>
<!DOCTYPE svg PUBLIC "-//W3C//DTD SVG 1.1//EN" "http://www.w3.org/Graphics/SVG/1.1/DTD/svg11.dtd">
<svg version="1.1" id="Calque_1" xmlns="http://www.w3.org/2000/svg" xmlns:xlink="http://www.w3.org/1999/xlink" x="0px" y="0px"
	 width="14px" height="12px" viewBox="0 0 14 12" enable-background="new 0 0 14 12" xml:space="preserve">
<circle fill="#707070" cx="10.38" cy="6.49" r="1.13"/>
<path fill="#707070" d="M7.78,9.96c0,0-1.84-1.06-1.73-3.55c0.11-2.49,1.74-3.4,1.74-3.4l1.32,1.07c0,0-1.32,0.96-1.35,2.4
	C7.73,7.92,8.99,8.98,8.99,8.98L7.78,9.96z"/>
<path fill="#707070" d="M5.27,12c0,0-2.85-2.38-2.75-5.46C2.62,3.16,5.29,1,5.29,1l1.32,1.07c0,0-2.41,1.54-2.39,4.54
	c0.02,2.65,2.25,4.41,2.25,4.41L5.27,12z"/>
</svg>
