<?xml version="1.0" encoding="utf-8"?>
<!DOCTYPE svg PUBLIC "-//W3C//DTD SVG 1.1//EN" "http://www.w3.org/Graphics/SVG/1.1/DTD/svg11.dtd">
<svg version="1.1" id="Calque_1" xmlns="http://www.w3.org/2000/svg" xmlns:xlink="http://www.w3.org/1999/xlink" x="0px" y="0px"
	 width="21px" height="21px" viewBox="0 0 21 21" enable-background="new 0 0 21 21" xml:space="preserve">
<g>
	<circle fill="#FFFFFF" cx="10.5" cy="10.5" r="10.5"/>
</g>
<g>
	<g>
		<path fill="#A6A6A6" d="M17.79,8.9H15.5c-0.14-0.44-0.33-0.85-0.56-1.24l1.51-1.52c0.36-0.35,0.36-0.93,0-1.29l-0.64-0.64
			c-0.36-0.35-0.93-0.35-1.29,0l-1.54,1.54c-0.42-0.24-0.87-0.42-1.35-0.54v-2c0-0.5-0.4-0.91-0.91-0.91H9.82
			c-0.5,0-0.91,0.41-0.91,0.91v2C8.38,5.35,7.89,5.56,7.44,5.83L6.15,4.54c-0.35-0.35-0.94-0.35-1.29,0L4.22,5.18
			c-0.35,0.35-0.35,0.93,0,1.29l1.31,1.31C5.25,8.27,5.05,8.8,4.93,9.36H3.21c-0.5,0-0.91,0.41-0.91,0.91v0.91
			c0,0.5,0.41,0.91,0.91,0.91h1.83c0.17,0.55,0.42,1.06,0.74,1.52l-1.24,1.24c-0.36,0.36-0.36,0.94,0,1.29l0.64,0.64
			c0.36,0.35,0.94,0.35,1.29,0l1.38-1.38c0.47,0.23,0.97,0.4,1.5,0.48v1.91c0,0.5,0.41,0.91,0.91,0.91h0.91
			c0.5,0,0.91-0.41,0.91-0.91v-2.14c0.46-0.16,0.89-0.38,1.29-0.66l1.47,1.47c0.36,0.36,0.93,0.36,1.29,0l0.64-0.64
			c0.36-0.35,0.36-0.93,0-1.29l-1.61-1.61c0.2-0.4,0.35-0.82,0.45-1.27h2.17c0.5,0,0.91-0.41,0.91-0.91V9.81
			C18.7,9.31,18.29,8.9,17.79,8.9z M10.27,12.78C9.02,12.78,8,11.76,8,10.5c0-1.26,1.02-2.27,2.28-2.27c1.26,0,2.28,1.02,2.28,2.27
			C12.55,11.76,11.53,12.78,10.27,12.78z"/>
	</g>
</g>
</svg>
