<?xml version="1.0" encoding="utf-8"?>
<!DOCTYPE svg PUBLIC "-//W3C//DTD SVG 1.1//EN" "http://www.w3.org/Graphics/SVG/1.1/DTD/svg11.dtd">
<svg version="1.1" id="Calque_1" xmlns="http://www.w3.org/2000/svg" xmlns:xlink="http://www.w3.org/1999/xlink" x="0px" y="0px"
	 width="21px" height="21px" viewBox="0 0 21 21" style="enable-background:new 0 0 21 21;" xml:space="preserve">
<style type="text/css"><![CDATA[.st0{fill:#7DA21B;} .st1{fill:#FFFFFF;}]]></style>
<g><circle class="st1" cx="10.5" cy="10.5" r="10.5"/></g>
<circle class="st0" cx="16.7" cy="10.4" r="1.8"/>
<path class="st0" d="M12.7,15.7c0,0-2.9-1.6-2.7-5.5C10.2,6.4,12.7,5,12.7,5l2,1.6c0,0-2,1.5-2.1,3.7c0,2.2,1.9,3.9,1.9,3.9
	L12.7,15.7z"/>
<path class="st0" d="M8.8,18.9c0,0-4.4-3.7-4.2-8.4c0.2-5.2,4.3-8.6,4.3-8.6l2,1.6c0,0-3.7,2.4-3.7,7c0,4.1,3.5,6.8,3.5,6.8
	L8.8,18.9z"/>
</svg>
