<?xml version="1.0" encoding="utf-8"?>
<!DOCTYPE svg PUBLIC "-//W3C//DTD SVG 1.1//EN" "http://www.w3.org/Graphics/SVG/1.1/DTD/svg11.dtd">
<svg version="1.1" id="Calque_1" xmlns="http://www.w3.org/2000/svg" xmlns:xlink="http://www.w3.org/1999/xlink" x="0px" y="0px"
	 width="18px" height="18px" viewBox="0 0 18 18" enable-background="new 0 0 18 18" xml:space="preserve">
<g>
	<path fill="#333333" d="M6.85,7.35c0.2,0.69,0.7,1.12,0.7,1.12L7.53,9.59c0,0-0.28,0.17-1.44,0.65c-1.16,0.48-1.8,1.04-2.15,1.59
		c-0.31,0.49-0.75,2.61-0.75,2.61H9h5.81c0,0-0.34-2.04-0.65-2.52c-0.35-0.54-1.1-1.19-2.26-1.67c-1.16-0.49-1.44-0.65-1.44-0.65
		l-0.01-1.11c0.18-0.09,0.49-0.43,0.69-1.1c0,0,0.22-0.73,0.24-1.51c0.01-0.36-0.04-1.27-0.06-1.52C11.23,3.46,10.35,2.51,9,2.51
		c-1.35,0-2.24,0.95-2.32,1.84C6.65,4.6,6.58,5.61,6.6,5.93C6.63,6.48,6.85,7.35,6.85,7.35z"/>
</g>
<g>
	<path fill="#333333" d="M12.83,8.96c0.13,0.45,0.45,0.73,0.45,0.73l-0.01,0.72c0,0-0.18,0.11-0.93,0.42
		c-0.75,0.31-1.17,0.68-1.4,1.03c-0.2,0.32-0.49,1.69-0.49,1.69h3.77H18c0,0-0.22-1.32-0.42-1.64c-0.22-0.35-0.71-0.77-1.46-1.09
		s-0.93-0.42-0.93-0.42l-0.01-0.72c0.11-0.06,0.32-0.28,0.45-0.71c0,0,0.15-0.47,0.15-0.98c0-0.23-0.02-0.83-0.04-0.99
		c-0.06-0.58-0.63-1.19-1.51-1.19c-0.88,0-1.45,0.61-1.51,1.19c-0.02,0.16-0.06,0.82-0.05,1.03C12.69,8.39,12.83,8.96,12.83,8.96z"
		/>
</g>
<g>
	<path fill="#333333" d="M2.66,8.4c0.15,0.5,0.51,0.82,0.51,0.82l-0.01,0.81c0,0-0.2,0.12-1.05,0.48c-0.85,0.35-1.31,0.76-1.57,1.16
		C0.32,12.02,0,13.56,0,13.56h4.23h4.23c0,0-0.24-1.48-0.47-1.84c-0.25-0.4-0.8-0.87-1.64-1.22C5.5,10.15,5.3,10.03,5.3,10.03
		L5.29,9.21C5.42,9.15,5.65,8.9,5.8,8.41c0,0,0.16-0.53,0.17-1.1c0-0.26-0.03-0.93-0.05-1.11c-0.06-0.65-0.7-1.34-1.69-1.34
		c-0.99,0-1.63,0.69-1.69,1.34C2.52,6.38,2.47,7.12,2.48,7.36C2.5,7.76,2.66,8.4,2.66,8.4z"/>
</g>
</svg>
