<?xml version="1.0" encoding="utf-8"?>
<!DOCTYPE svg PUBLIC "-//W3C//DTD SVG 1.1//EN" "http://www.w3.org/Graphics/SVG/1.1/DTD/svg11.dtd">
<svg version="1.1" id="Calque_1" xmlns="http://www.w3.org/2000/svg" xmlns:xlink="http://www.w3.org/1999/xlink" x="0px" y="0px"
	 width="14px" height="12px" viewBox="0 0 14 12" enable-background="new 0 0 14 12" xml:space="preserve">
<path fill="#F7F6F6" d="M3.32,4.41c0.19,0.63,0.64,1.02,0.64,1.02L3.95,6.45c0,0-0.25,0.15-1.31,0.59C1.58,7.48,1,7.99,0.68,8.49
	C0.4,8.93,0,10.86,0,10.86h5.28h5.28c0,0-0.31-1.85-0.59-2.3c-0.32-0.5-1-1.08-2.05-1.52C6.87,6.6,6.62,6.45,6.62,6.45L6.61,5.43
	c0.16-0.08,0.45-0.39,0.63-1c0,0,0.2-0.67,0.22-1.37C7.46,2.74,7.42,1.9,7.4,1.68C7.32,0.87,6.52,0.01,5.28,0.01
	c-1.23,0-2.04,0.86-2.11,1.67C3.15,1.9,3.08,2.83,3.1,3.12C3.13,3.62,3.32,4.41,3.32,4.41z"/>
<polygon fill="#666565" points="14,7.9 11.54,7.9 11.54,5.43 9.9,5.43 9.9,7.9 7.44,7.9 7.44,9.54 9.9,9.54 9.9,12 11.54,12 
	11.54,9.54 14,9.54 "/>
</svg>
