<?xml version="1.0" encoding="utf-8"?>
<!DOCTYPE svg PUBLIC "-//W3C//DTD SVG 1.1//EN" "http://www.w3.org/Graphics/SVG/1.1/DTD/svg11.dtd">
<svg version="1.1" id="Calque_1" xmlns="http://www.w3.org/2000/svg" xmlns:xlink="http://www.w3.org/1999/xlink" x="0px" y="0px"
	 width="21px" height="21px" viewBox="0 0 21 21" style="enable-background:new 0 0 21 21;" xml:space="preserve">
<style type="text/css"><![CDATA[.st0{fill:#FFFFFF;} .st1{fill:#A6A6A6;}]]></style>
<circle class="st0" cx="10.5" cy="10.6" r="10.5"/>
<circle class="st1" cx="16.6" cy="10.9" r="1.7"/>
<path class="st1" d="M12.6,16.2c0,0-2.9-1.6-2.7-5.5c0.2-3.9,2.7-5.2,2.7-5.2l2,1.6c0,0-2,1.5-2.1,3.7c0,2.2,1.9,3.9,1.9,3.9
	L12.6,16.2z"/>
<path class="st1" d="M8.7,19.4c0,0-4.4-3.7-4.2-8.4c0.2-5.2,4.3-8.6,4.3-8.6l2,1.6c0,0-3.7,2.4-3.7,7c0,4.1,3.5,6.8,3.5,6.8
	L8.7,19.4z"/>
</svg>
