<?xml version="1.0" encoding="utf-8"?>
<!DOCTYPE svg PUBLIC "-//W3C//DTD SVG 1.1//EN" "http://www.w3.org/Graphics/SVG/1.1/DTD/svg11.dtd">
<svg version="1.1" id="Calque_1" xmlns="http://www.w3.org/2000/svg" xmlns:xlink="http://www.w3.org/1999/xlink" x="0px" y="0px"
	 width="14px" height="12px" viewBox="0 0 14 12" enable-background="new 0 0 14 12" xml:space="preserve">
<path fill="#F7F6F6" d="M3.3,4.4C3.5,5,4,5.4,4,5.4l0,1c0,0-0.2,0.1-1.3,0.6S1,8,0.7,8.5C0.4,8.9,0,10.9,0,10.9h5.3h5.3
	c0,0-0.3-1.8-0.6-2.3C9.7,8.1,9,7.5,7.9,7c-1-0.4-1.3-0.6-1.3-0.6l0-1c0.2-0.1,0.5-0.4,0.6-1c0,0,0.2-0.7,0.2-1.4
	c0-0.3,0-1.2-0.1-1.4C7.3,0.9,6.5,0,5.3,0C4,0,3.2,0.9,3.2,1.7c0,0.2-0.1,1.1-0.1,1.4C3.1,3.6,3.3,4.4,3.3,4.4z"/>
<polygon fill="#666565" points="14,7.9 11.5,7.9 11.5,5.4 9.9,5.4 9.9,7.9 7.4,7.9 7.4,9.5 9.9,9.5 9.9,12 11.5,12 11.5,9.5 14,9.5 
	"/>
</svg>
