<?xml version="1.0" encoding="utf-8"?>
<!DOCTYPE svg PUBLIC "-//W3C//DTD SVG 1.1//EN" "http://www.w3.org/Graphics/SVG/1.1/DTD/svg11.dtd">
<svg version="1.1" id="Calque_1" xmlns="http://www.w3.org/2000/svg" xmlns:xlink="http://www.w3.org/1999/xlink" x="0px" y="0px"
	 width="14px" height="12px" viewBox="0 0 14 12" style="enable-background:new 0 0 14 12;" xml:space="preserve">
<style type="text/css"><![CDATA[.st0{fill:#E3E3E3;}]]></style>
<circle class="st0" cx="10.4" cy="6" r="1.1"/>
<path class="st0" d="M7.8,9.5c0,0-1.8-1.1-1.7-3.6c0.1-2.5,1.7-3.4,1.7-3.4l1.3,1.1c0,0-1.3,1-1.3,2.4C7.7,7.4,9,8.5,9,8.5L7.8,9.5z
	"/>
<path class="st0" d="M5.3,11.5c0,0-2.9-2.4-2.8-5.5c0.1-3.4,2.8-5.5,2.8-5.5l1.3,1.1c0,0-2.4,1.5-2.4,4.5c0,2.6,2.2,4.4,2.2,4.4
	L5.3,11.5z"/>
</svg>
