<?xml version="1.0" encoding="utf-8"?>
<!DOCTYPE svg PUBLIC "-//W3C//DTD SVG 1.1//EN" "http://www.w3.org/Graphics/SVG/1.1/DTD/svg11.dtd">
<svg version="1.1" id="Calque_1" xmlns="http://www.w3.org/2000/svg" xmlns:xlink="http://www.w3.org/1999/xlink" x="0px" y="0px"
	 width="21px" height="21px" viewBox="0 0 21 21" enable-background="new 0 0 21 21" xml:space="preserve">
<g>
	<circle fill="#FFFFFF" cx="10.5" cy="10.5" r="10.5"/>
</g>
<circle fill="#7DA21B" cx="16.72" cy="10.37" r="1.75"/>
<path fill="#7DA21B" d="M12.7,15.73c0,0-2.85-1.63-2.67-5.48C10.2,6.4,12.71,5,12.71,5l2.04,1.65c0,0-2.04,1.48-2.08,3.71
	c-0.04,2.22,1.91,3.85,1.91,3.85L12.7,15.73z"/>
<path fill="#7DA21B" d="M8.81,18.88c0,0-4.4-3.68-4.25-8.45c0.16-5.21,4.29-8.55,4.29-8.55l2.04,1.65c0,0-3.73,2.37-3.69,7.01
	c0.04,4.09,3.48,6.82,3.48,6.82L8.81,18.88z"/>
</svg>
