<svg xmlns="http://www.w3.org/2000/svg" width="21" height="21" viewBox="0 0 21 21"><circle fill="#fff" cx="10.5" cy="10.5" r="10.5"/><path fill="#A6A6A6" d="M17.8 8.9h-2.3c-.1-.4-.3-.9-.6-1.2l1.5-1.5c.4-.4.4-.9 0-1.3l-.6-.6c-.4-.4-.9-.4-1.3 0L13 5.8c-.4-.2-.9-.4-1.4-.5v-2c0-.5-.4-.9-.9-.9h-.9c-.5 0-.9.4-.9.9v2c-.5.1-1 .4-1.5.6L6.1 4.5c-.4-.4-.9-.4-1.3 0l-.6.7c-.4.3-.4.9 0 1.3l1.3 1.3c-.3.5-.5 1-.6 1.6H3.2c-.5 0-.9.4-.9.9v.9c0 .5.4.9.9.9H5c.2.6.4 1.1.7 1.5l-1.2 1.2c-.4.4-.4.9 0 1.3l.6.6c.4.4.9.4 1.3 0l1.4-1.4c.5.2 1 .4 1.5.5v1.9c0 .5.4.9.9.9h.9c.5 0 .9-.4.9-.9v-2.1c.5-.2.9-.4 1.3-.7l1.5 1.5c.4.4.9.4 1.3 0l.6-.6c.4-.3.4-.9 0-1.3l-1.6-1.6c.2-.4.3-.8.4-1.3h2.2c.5 0 .9-.4.9-.9v-.9c.1-.5-.3-.9-.8-.9zm-7.5 3.9c-1.2 0-2.3-1-2.3-2.3s1-2.3 2.3-2.3c1.3 0 2.3 1 2.3 2.3-.1 1.3-1.1 2.3-2.3 2.3z"/></svg>