<?xml version="1.0" encoding="utf-8"?>
<!-- Generator: Adobe Illustrator 15.1.0, SVG Export Plug-In . SVG Version: 6.00 Build 0)  -->
<!DOCTYPE svg PUBLIC "-//W3C//DTD SVG 1.1//EN" "http://www.w3.org/Graphics/SVG/1.1/DTD/svg11.dtd">
<svg version="1.1" id="Calque_1" xmlns="http://www.w3.org/2000/svg" xmlns:xlink="http://www.w3.org/1999/xlink" x="0px" y="0px"
	 width="21px" height="21px" viewBox="0 0 21 21" style="enable-background:new 0 0 21 21;" xml:space="preserve">
<style type="text/css">
<![CDATA[
	.st0{fill:none;stroke:#8B8B8B;stroke-width:0.5;stroke-linecap:round;stroke-linejoin:round;stroke-miterlimit:10;}
	.st1{fill:#FFFFFF;}
	.st2{fill:#CCCCCC;}
	.st3{fill:none;stroke:#A6A6A6;stroke-linecap:round;stroke-linejoin:round;stroke-miterlimit:10;}
]]>
</style>
<circle class="st1" cx="10.5" cy="10.6" r="10.5"/>
<path class="st2" d="M-251.3,100"/>
<polygon class="st3" points="10.5,2.9 2.5,12.1 10.5,17.3 18.5,12.1 "/>
<line class="st3" x1="10.5" y1="2.9" x2="10.5" y2="17.3"/>
<line class="st0" x1="10.5" y1="2.9" x2="4.8" y2="13.6"/>
<line class="st0" x1="10.5" y1="2.9" x2="7.4" y2="15.2"/>
<line class="st0" x1="10.5" y1="2.9" x2="13.4" y2="15.4"/>
<line class="st0" x1="10.5" y1="2.9" x2="16.2" y2="13.6"/>
<line class="st0" x1="16.7" y1="10" x2="10.4" y2="13.6"/>
<line class="st0" x1="14.9" y1="7.9" x2="10.4" y2="10.5"/>
<line class="st0" x1="13" y1="5.7" x2="10.4" y2="7.2"/>
<line class="st0" x1="10.4" y1="13.6" x2="4.3" y2="10.1"/>
<line class="st0" x1="10.4" y1="10.5" x2="5.9" y2="7.9"/>
<line class="st0" x1="10.4" y1="7.2" x2="8.2" y2="6.1"/>
</svg>
