<?xml version="1.0" encoding="utf-8"?>
<!-- Generator: Adobe Illustrator 15.1.0, SVG Export Plug-In . SVG Version: 6.00 Build 0)  -->
<!DOCTYPE svg PUBLIC "-//W3C//DTD SVG 1.1//EN" "http://www.w3.org/Graphics/SVG/1.1/DTD/svg11.dtd">
<svg version="1.1" id="Calque_1" xmlns="http://www.w3.org/2000/svg" xmlns:xlink="http://www.w3.org/1999/xlink" x="0px" y="0px"
	 width="21px" height="21px" viewBox="0 0 21 21" enable-background="new 0 0 21 21" xml:space="preserve">
<g>
	<circle fill="#FFFFFF" cx="10.5" cy="10.5" r="10.5"/>
</g>
<g>
	<g>
		<path fill="#A6A6A6" d="M17.788,8.904h-2.285c-0.136-0.438-0.325-0.852-0.56-1.236l1.515-1.52c0.358-0.354,0.358-0.932,0-1.287
			L15.816,4.22c-0.357-0.355-0.934-0.354-1.288,0l-1.543,1.539c-0.416-0.237-0.867-0.421-1.348-0.545V3.211
			c0-0.502-0.405-0.911-0.91-0.911H9.816c-0.501,0-0.91,0.409-0.91,0.911v2.002C8.383,5.346,7.893,5.555,7.441,5.829L6.152,4.54
			c-0.355-0.354-0.935-0.355-1.289,0L4.216,5.184c-0.355,0.354-0.351,0.934,0.003,1.29l1.313,1.313
			C5.254,8.271,5.046,8.801,4.927,9.359H3.212c-0.504,0-0.913,0.409-0.913,0.912v0.911c0,0.501,0.409,0.909,0.913,0.909h1.832
			c0.166,0.549,0.416,1.058,0.736,1.518l-1.239,1.239c-0.356,0.356-0.356,0.936-0.002,1.29l0.644,0.642
			c0.358,0.354,0.936,0.354,1.291,0l1.384-1.384c0.467,0.231,0.973,0.399,1.504,0.485v1.906c0,0.503,0.408,0.91,0.911,0.912h0.91
			c0.503-0.002,0.912-0.409,0.912-0.912v-2.141c0.458-0.163,0.894-0.38,1.288-0.656l1.466,1.468c0.357,0.356,0.933,0.356,1.291,0
			l0.643-0.644c0.357-0.354,0.357-0.932-0.003-1.29l-1.606-1.612c0.197-0.397,0.35-0.824,0.445-1.274h2.17
			c0.505,0,0.912-0.406,0.913-0.912V9.815C18.7,9.313,18.293,8.904,17.788,8.904z M10.273,12.776c-1.257,0-2.277-1.016-2.277-2.278
			c0-1.258,1.02-2.275,2.277-2.275c1.259,0,2.279,1.018,2.279,2.275C12.553,11.761,11.532,12.776,10.273,12.776z"/>
	</g>
</g>
</svg>
