<?xml version="1.0" encoding="utf-8"?>
<!DOCTYPE svg PUBLIC "-//W3C//DTD SVG 1.1//EN" "http://www.w3.org/Graphics/SVG/1.1/DTD/svg11.dtd">
<svg version="1.1" id="Calque_1" xmlns="http://www.w3.org/2000/svg" xmlns:xlink="http://www.w3.org/1999/xlink" x="0px" y="0px"
	 width="21px" height="21px" viewBox="0 0 21 21" enable-background="new 0 0 21 21" xml:space="preserve">
<circle fill="#FFFFFF" cx="10.5" cy="10.62" r="10.5"/>
<circle fill="#A6A6A6" cx="16.6" cy="10.86" r="1.75"/>
<path fill="#A6A6A6" d="M12.57,16.23c0,0-2.85-1.63-2.67-5.48c0.17-3.85,2.68-5.25,2.68-5.25l2.04,1.65c0,0-2.04,1.48-2.08,3.71
	c-0.04,2.22,1.91,3.85,1.91,3.85L12.57,16.23z"/>
<path fill="#A6A6A6" d="M8.69,19.38c0,0-4.4-3.68-4.25-8.45C4.6,5.72,8.73,2.38,8.73,2.38l2.04,1.65c0,0-3.73,2.37-3.69,7.01
	c0.04,4.09,3.48,6.82,3.48,6.82L8.69,19.38z"/>
</svg>
