<?xml version="1.0" encoding="utf-8"?>
<!-- Generator: Adobe Illustrator 15.1.0, SVG Export Plug-In . SVG Version: 6.00 Build 0)  -->
<!DOCTYPE svg PUBLIC "-//W3C//DTD SVG 1.1//EN" "http://www.w3.org/Graphics/SVG/1.1/DTD/svg11.dtd">
<svg version="1.1" id="Calque_1" xmlns="http://www.w3.org/2000/svg" xmlns:xlink="http://www.w3.org/1999/xlink" x="0px" y="0px"
	 width="14px" height="12px" viewBox="0 0 14 12" enable-background="new 0 0 14 12" xml:space="preserve">
<path fill="#F7F6F6" d="M3.323,4.414c0.186,0.629,0.636,1.019,0.636,1.019l-0.01,1.014c0,0-0.25,0.153-1.307,0.594
	C1.584,7.48,1.002,7.993,0.684,8.486C0.399,8.934,0,10.861,0,10.861h5.284h5.282c0,0-0.305-1.853-0.588-2.297
	C9.66,8.068,8.982,7.48,7.925,7.041C6.869,6.6,6.618,6.447,6.618,6.447L6.609,5.433c0.159-0.084,0.446-0.387,0.63-0.999
	c0,0,0.202-0.665,0.216-1.372c0.007-0.326-0.036-1.16-0.059-1.383C7.318,0.866,6.517,0.006,5.284,0.006
	c-1.234,0-2.035,0.86-2.113,1.673c-0.023,0.224-0.086,1.146-0.07,1.442C3.126,3.618,3.323,4.414,3.323,4.414z"/>
<polygon fill="#666565" points="14,7.896 11.537,7.896 11.537,5.434 9.896,5.434 9.896,7.896 7.435,7.896 7.435,9.537 9.896,9.537 
	9.896,12 11.537,12 11.537,9.537 14,9.537 "/>
</svg>
