<?xml version="1.0" encoding="utf-8"?>
<!DOCTYPE svg PUBLIC "-//W3C//DTD SVG 1.1//EN" "http://www.w3.org/Graphics/SVG/1.1/DTD/svg11.dtd">
<svg version="1.1" id="Calque_1" xmlns="http://www.w3.org/2000/svg" xmlns:xlink="http://www.w3.org/1999/xlink" x="0px" y="0px"
	 width="18px" height="18px" viewBox="0 0 18 18" enable-background="new 0 0 18 18" xml:space="preserve">
<g>
	<path fill="#333333" d="M6.9,7.4C7,8,7.5,8.5,7.5,8.5l0,1.1c0,0-0.3,0.2-1.4,0.7c-1.2,0.5-1.8,1-2.1,1.6c-0.3,0.5-0.8,2.6-0.8,2.6
		H9h5.8c0,0-0.3-2-0.7-2.5c-0.3-0.5-1.1-1.2-2.3-1.7c-1.2-0.5-1.4-0.7-1.4-0.7l0-1.1c0.2-0.1,0.5-0.4,0.7-1.1c0,0,0.2-0.7,0.2-1.5
		c0-0.4,0-1.3-0.1-1.5c-0.1-0.9-1-1.9-2.3-1.9c-1.4,0-2.2,1-2.3,1.8c0,0.2-0.1,1.3-0.1,1.6C6.6,6.5,6.9,7.4,6.9,7.4z"/>
</g>
<g>
	<path fill="#333333" d="M12.8,9c0.1,0.5,0.4,0.7,0.4,0.7l0,0.7c0,0-0.2,0.1-0.9,0.4s-1.2,0.7-1.4,1c-0.2,0.3-0.5,1.7-0.5,1.7h3.8
		H18c0,0-0.2-1.3-0.4-1.6c-0.2-0.3-0.7-0.8-1.5-1.1s-0.9-0.4-0.9-0.4l0-0.7c0.1-0.1,0.3-0.3,0.5-0.7c0,0,0.1-0.5,0.1-1
		c0-0.2,0-0.8,0-1c-0.1-0.6-0.6-1.2-1.5-1.2c-0.9,0-1.5,0.6-1.5,1.2c0,0.2-0.1,0.8-0.1,1C12.7,8.4,12.8,9,12.8,9z"/>
</g>
<g>
	<path fill="#333333" d="M2.7,8.4c0.1,0.5,0.5,0.8,0.5,0.8l0,0.8c0,0-0.2,0.1-1.1,0.5c-0.9,0.3-1.3,0.8-1.6,1.2
		C0.3,12,0,13.6,0,13.6h4.2h4.2c0,0-0.2-1.5-0.5-1.8c-0.2-0.4-0.8-0.9-1.6-1.2C5.5,10.2,5.3,10,5.3,10l0-0.8
		c0.1-0.1,0.4-0.3,0.5-0.8c0,0,0.2-0.5,0.2-1.1c0-0.3,0-0.9-0.1-1.1C5.9,5.5,5.2,4.9,4.2,4.9c-1,0-1.6,0.7-1.7,1.3
		c0,0.2-0.1,0.9-0.1,1.2C2.5,7.8,2.7,8.4,2.7,8.4z"/>
</g>
</svg>
