<svg xmlns="http://www.w3.org/2000/svg" width="18" height="18" viewBox="0 0 18 18"><path fill="#333" d="M6.9 7.4c.1.6.6 1.1.6 1.1v1.1s-.3.2-1.4.7c-1.2.5-1.8 1-2.1 1.6-.3.5-.8 2.6-.8 2.6h11.6s-.3-2-.7-2.5c-.3-.5-1.1-1.2-2.3-1.7-1.2-.5-1.4-.7-1.4-.7v-1.1c.2-.1.5-.4.7-1.1 0 0 .2-.7.2-1.5 0-.4 0-1.3-.1-1.5-.1-.9-1-1.9-2.3-1.9-1.4 0-2.2 1-2.3 1.8 0 .2-.1 1.3-.1 1.6.1.6.4 1.5.4 1.5zm5.9 1.6c.1.5.4.7.4.7v.7s-.2.1-.9.4-1.2.7-1.4 1c-.2.3-.5 1.7-.5 1.7h7.6s-.2-1.3-.4-1.6c-.2-.3-.7-.8-1.5-1.1l-.9-.4v-.7c.1-.1.3-.3.5-.7 0 0 .1-.5.1-1v-1c-.1-.6-.6-1.2-1.5-1.2s-1.5.6-1.5 1.2l-.1 1c0 .4.1 1 .1 1zm-10.1-.6c.1.5.5.8.5.8v.8s-.2.1-1.1.5c-.9.3-1.3.8-1.6 1.2-.2.3-.5 1.9-.5 1.9h8.4s-.2-1.5-.5-1.8c-.2-.4-.8-.9-1.6-1.2-.8-.4-1-.6-1-.6v-.8c.1-.1.4-.3.5-.8 0 0 .2-.5.2-1.1 0-.3 0-.9-.1-1.1 0-.7-.7-1.3-1.7-1.3s-1.6.7-1.7 1.3c0 .2-.1.9-.1 1.2.1.4.3 1 .3 1z"/></svg>