<?xml version="1.0" encoding="utf-8"?>
<!-- Generator: Adobe Illustrator 15.1.0, SVG Export Plug-In . SVG Version: 6.00 Build 0)  -->
<!DOCTYPE svg PUBLIC "-//W3C//DTD SVG 1.1//EN" "http://www.w3.org/Graphics/SVG/1.1/DTD/svg11.dtd">
<svg version="1.1" id="Calque_1" xmlns="http://www.w3.org/2000/svg" xmlns:xlink="http://www.w3.org/1999/xlink" x="0px" y="0px"
	 width="66px" height="66px" viewBox="0 0 66 66" enable-background="new 0 0 66 66" xml:space="preserve">
<g>
	<g>
		<path fill="#D3D3D3" d="M62.324,26.581H53.13c-0.547-1.768-1.313-3.43-2.251-4.975l6.097-6.116c1.44-1.422,1.44-3.749,0-5.181
			l-2.588-2.584c-1.433-1.429-3.756-1.422-5.182,0l-6.205,6.196c-1.676-0.956-3.491-1.696-5.427-2.193V3.665
			C37.574,1.645,35.942,0,33.912,0h-3.666c-2.018,0-3.66,1.644-3.66,3.665v8.062C24.479,12.26,22.505,13.1,20.69,14.2L15.5,9.012
			c-1.428-1.422-3.76-1.428-5.188,0l-2.6,2.592c-1.429,1.427-1.413,3.76,0.011,5.194l5.285,5.283
			c-1.117,1.951-1.956,4.081-2.435,6.331H3.671C1.643,28.412,0,30.056,0,32.081v3.671c0,2.013,1.643,3.657,3.671,3.657h7.372
			c0.666,2.209,1.676,4.25,2.964,6.105L9.023,50.5c-1.435,1.437-1.435,3.764-0.011,5.192l2.589,2.588
			c1.439,1.423,3.766,1.423,5.192-0.007l5.568-5.568c1.879,0.936,3.913,1.61,6.055,1.956v7.673c0,2.022,1.641,3.661,3.665,3.666
			h3.667c2.02-0.005,3.665-1.644,3.665-3.666v-8.62c1.846-0.651,3.599-1.523,5.185-2.637l5.9,5.907c1.434,1.43,3.749,1.43,5.189,0
			l2.589-2.592c1.438-1.429,1.438-3.753-0.012-5.19l-6.467-6.486c0.795-1.603,1.413-3.32,1.794-5.133h8.732
			c2.031,0,3.669-1.633,3.676-3.673v-3.664C65.993,28.224,64.355,26.581,62.324,26.581z M32.087,42.159
			c-5.06,0-9.163-4.087-9.163-9.165c0-5.062,4.104-9.161,9.163-9.161c5.065,0,9.169,4.099,9.169,9.161
			C41.256,38.072,37.152,42.159,32.087,42.159z"/>
	</g>
</g>
</svg>
