<?xml version="1.0" encoding="utf-8"?>
<!DOCTYPE svg PUBLIC "-//W3C//DTD SVG 1.1//EN" "http://www.w3.org/Graphics/SVG/1.1/DTD/svg11.dtd">
<svg version="1.1" id="Calque_1" xmlns="http://www.w3.org/2000/svg" xmlns:xlink="http://www.w3.org/1999/xlink" x="0px" y="0px"
	 width="66px" height="66px" viewBox="0 0 66 66" enable-background="new 0 0 66 66" xml:space="preserve">
<g>
	<path fill="#D3D3D3" d="M20.76,26.8c1.16,3.83,3.97,6.19,3.97,6.19l-0.06,6.17c0,0-1.56,0.93-8.17,3.61
		c-6.6,2.67-10.24,5.79-12.23,8.79C2.49,54.27,0,66,0,66h33h33c0,0-1.9-11.26-3.68-13.96c-1.98-3.01-6.22-6.59-12.82-9.26
		s-8.17-3.61-8.17-3.61L41.28,33c0.99-0.51,2.79-2.35,3.94-6.07c0,0,1.27-4.04,1.35-8.34c0.04-1.98-0.23-7.05-0.37-8.41
		C45.71,5.23,40.7,0,33,0c-7.7,0-12.71,5.23-13.2,10.17c-0.14,1.36-0.53,6.96-0.43,8.77C19.53,21.96,20.76,26.8,20.76,26.8z"/>
</g>
</svg>
