<?xml version="1.0" encoding="utf-8"?>
<!DOCTYPE svg PUBLIC "-//W3C//DTD SVG 1.1//EN" "http://www.w3.org/Graphics/SVG/1.1/DTD/svg11.dtd">
<svg version="1.1" id="Calque_1" xmlns="http://www.w3.org/2000/svg" xmlns:xlink="http://www.w3.org/1999/xlink" x="0px" y="0px"
	 width="66px" height="66px" viewBox="0 0 66 66" enable-background="new 0 0 66 66" xml:space="preserve">
<g>
	<path fill="#D3D3D3" d="M33,0c-5,0-9.8,1.1-14,3.1c0,0,0,0,0,0c-0.4,0.2-0.9,0.4-1.3,0.6c0,0,0,0,0.1,0c-0.1,0-0.2,0.1-0.2,0.1
		c0,0,0,0,0,0c-0.2,0.1-0.5,0.3-0.7,0.4c0,0,0,0,0.1,0c-0.3,0.1-0.5,0.3-0.8,0.4c0,0,0,0,0,0c0.1-0.1,0.3-0.2,0.4-0.2
		c-0.1,0.1-0.3,0.2-0.4,0.2l0,0c-0.1,0-0.1,0.1-0.2,0.1c0,0,0,0,0.1,0c-0.1,0.1-0.2,0.2-0.4,0.2c0,0,0-0.1,0-0.1c0,0,0,0,0,0
		c0,0,0,0,0,0c0,0-0.1,0-0.1,0c0,0,0,0,0,0c0,0-0.1,0.1-0.2,0.1c0,0,0,0,0,0c-0.1,0.1-0.3,0.2-0.4,0.3c0.1-0.1,0.2-0.1,0.3-0.2
		c-0.1,0.1-0.2,0.1-0.3,0.2c0,0,0,0,0,0.1c0,0,0,0,0,0c0,0,0,0,0,0c0,0,0,0,0,0c0,0,0,0,0,0c0,0,0,0,0,0c0,0,0,0,0,0
		c-0.9,0.6-1.8,1.2-2.6,1.9c0,0,0,0,0,0C4.8,13.3,0,22.6,0,33c0,18.2,14.8,33,33,33c18.2,0,33-14.8,33-33C66,14.8,51.2,0,33,0z
		 M56.7,11c0,0.1,0.1,0.1,0.1,0.2c-0.9,0.2-0.8-0.4-1.5-0.3c0.3,0.5,0.5,1.6,1.2,0.9c0.1,0.4,0.4,0.1,0.7-0.2
		c4.7,5.3,7.7,12.1,8.1,19.7c-0.4,0-0.8,0-1.2,0c1.9,3-2.2,4.3-4,5.5c0.5,1.2,1.7-0.4,2.4,0.3c-0.3,3-2.5,4.2-4,6.1
		c0.1,2.3,0.2,2.9,0,5.2c-3.1,2.1-3.3,8.6-8.2,7.9c-0.8-2.2-0.8-5.2-1.8-7.3c2-2.9-0.8-4.9-0.6-8.5c-0.4-0.5-1.6-0.2-1.5-1.2
		c-1.9,0.7-3.3,0.4-5.2,0.6c-1.4-0.8-1.9-2.3-3-3.3c1-2.9-0.7-6.1,2.8-7.3c-0.2-3.6,5.6-4.2,7.9-3.4c0,0.4,0,0.8,0,1.2
		c1.2,0.2,1.8,1.1,2.7,1.5c0-0.8,0.5-1,0.9-1.2c0.9,0.6,0.7,1.4,2.1,0.9c0.5,0.2,1.8-0.4,1.8,0.3c0.5-0.3,0.4-1,0.6-1.5
		c-0.3-1-1.9-0.8-2.8-1.2c-0.4-0.4-0.4-1.4,0-1.8c-1.9-0.1-0.3,1.5-1.5,1.8c-0.2,0-0.4,0-0.6,0c0.3-1-0.5-0.9-0.6-1.5
		c-0.9-0.1-1.2,2.1-2.1,0.9c2.2-0.4-1.2-3.1-1.5-1.8c-0.1-0.4,0.1-1.1-0.3-1.2c-1.1,0.3-1.8,1.1-2.8,1.5c0,0.4,0,0.8,0,1.2
		c-0.3,0.1-0.5,0.3-0.6,0.6c-0.9,0-1.8,0-2.7,0c0-0.4-0.4-0.4-0.3-0.9c0.5-0.7,0-2.3,0.9-2.4c0.9-0.4,1.5,0.8,1.8,0
		c0.1,0,0.2,0,0.3,0c0.1-1.1-0.6-1.4-0.9-2.1c0-0.6,1-0.2,0.9-0.9c2.6-0.1,2.7-2.8,4.3-4c-0.3,0.4-0.4,0.8-0.3,1.5
		c1.1,0.3,0.5-1.6,0.3-1.8c-0.7-0.1-1.2,0-1.5,0.3c-0.4-0.4-0.2-1.4-0.6-1.8c1.9-1.7,2.5-4.8,5.8-5.2c1,0.2,1.9,0.6,2.6,1
		C55.5,9.8,56.1,10.4,56.7,11z M43.1,14.5c1.6,0.4,1.2,2.7,2.4,3.4c0,0.2,0,0.4,0,0.6c-0.7-0.1-0.7,0.6-1.5,0.3
		c-0.6-0.1-0.7,0.3-1.2,0.3C44,17.5,42.4,16.1,43.1,14.5z M42.8,18.2c-0.5,0-1,0-1.5,0c-0.1-1.1,0.2-1.8,1.2-1.8
		C42.8,16.7,42.8,17.4,42.8,18.2z M37.9,11.8C37.6,11.1,37,10.9,37,10c1.2,0.3,1.8,0.3,3,0c0.1,0.2,0.3,0.3,0.3,0.6
		C40.3,11.7,39.2,11.8,37.9,11.8z M36.1,13.6c-0.5,1.2-2,1.5-3,2.1c-0.3,0-0.2-0.3,0-0.3c0-0.6-1-0.2-1.2-0.6
		C31.5,11.1,36.4,10.2,36.1,13.6z M59.2,51.7c-0.8-2.3,0.9-3.3,1.8-5.2c0.9,0.7-0.4,1.8-0.3,2.7c-0.3,0.6-0.7,1-0.9,1.8
		c0,0,0,0,0,0.1C59.5,51.1,59.4,51.4,59.2,51.7z M38,1C37.9,1.1,37.9,1.1,38,1c0.1,0.1,0.4,0.1,0.6,0.1c0.5,0.1,1,0.2,1.5,0.3
		c-0.5,0.2-0.6,0.8-1.3,0.9c-0.2,0.9,0.3,1.1,0.3,1.8c-0.5,0.1-0.8-0.4-0.9,0c1,1.4-1.5,2.5,0,3.7C36,9,32.9,9.2,31.5,11.2
		c-0.7,0.8-1,1.9-1.8,2.4C27.5,13,27.1,9.4,27.8,8c0.1,0,0.1-0.1,0.1-0.2c0,0.1-0.1,0.1-0.1,0.2c-0.2,0.1-0.4,0.1-0.5-0.2
		c1.4-4-3.5-2.9-4.3-5.2c0.5-0.4,1.9,0.1,1.8-0.9c0,0-0.1,0-0.1,0C27.4,1,30.1,0.7,33,0.7C34.7,0.7,36.3,0.8,38,1z M17.8,4.5
		c0.6,0.2,1.1,0.3,1.8-0.3c-0.4,0-0.9,0-1.3,0c1.4-0.7,2.9-1.4,4.5-1.9c-1.2,0.6-2,1.6-2.6,2.8c-1.4,0.1-2.5,0.3-3.4-0.1
		C17.1,4.8,17.5,4.6,17.8,4.5z M16.3,5.3c0.1,0.2,0.2,0.2,0.6,0.1c-0.3,0.7-0.9,1.1-1.8,1.2c0.2-0.3,0.3-0.5,0.4-0.7
		C15.7,5.7,16,5.5,16.3,5.3z M12.8,7.7c0,0,0.1,0,0.1,0.1c-0.1,0.8-1.1,0.7-1.5,1.2c2.1,0.6,2.1-1.8,3.4-0.3
		c0.1-0.7-0.5-0.7-0.3-1.5c0.4,0,0.4-0.4,0.9-0.3c0.1,1.7,1.1,0.9,1.5,2.1c0.1-0.3,0.3-0.5,0.6-0.6c0.3-1.1-1.1-0.5-0.9-1.5
		c0-1.7,2.6-0.9,3.7-1.5c0,0.5,0.8,0.2,0.9,0.6c-0.4,0-2.2,0-1.2,0.3C23,6,23,8.4,24.8,10c-0.6-0.1-0.6,0.4-0.9,0.6
		c-0.4,0-0.9-1.2-1.2-0.3c0.7,0,0.7,0.8,0.6,1.5c-1.5-0.5-0.2,0-0.9,0.6c-1.1-0.6-2-1.4-3.4-1.8c0.8-0.3,1.8-0.3,1.8-1.2
		c0.2-0.9-0.8-0.6-0.6-1.5c-0.4,0-2.5-0.1-1.5,0.3c0.2,1.4-0.9,1.4-1.2,2.1c0.5,0.3,1,0.5,0.9,1.2c-0.2-0.2-0.5-0.3-0.9-0.3
		c-0.4,0.1-0.3,0.6,0,0.6c0,0.5-1.4-0.1-1.2-0.9c-1.4,0.5-2.1,1.7-3,2.7c0.3,1.1,1.4,1.4,2.4,1.8c0.2,0.1,0.5,0.3,0.9,0.3
		c-0.2,0.9,0.3,1.1,0.3,1.8c1-2.4,1.9-1.8,1.8-5.8c0.3,0.1,0.3-0.1,0.3-0.3c0.3,0,0.7,0.8,1.8,0.6c0.8,0.2,0.2,1.9,1.2,1.8
		c1,0.4,0.2-1,1.2-0.6c0.9,2.8,2.6,4.3,3,7c-0.9,0.2-1.1-0.3-1.8-0.3c-1.1,0.3-0.5-1-0.3-1.2c0.4-0.2,0.7-0.5,0.9-0.9
		c-1.1,0.3-2.1,1.9-3.1,0.6c0.2,0.9-0.4,0.8-0.3,1.5c0,0.2,0.1,0.3,0.3,0.3c0.2,0.1,0.6,0,0.6,0.3c0,0.1,0,0.2,0,0.3
		c-1.4,0.9-5.2,2-5.8,5.5c-0.9,0-1.1,0.7-1.5,1.2c-0.6,0.3,0.6,2.1-0.3,2.7c-0.7-0.4-1-1.2-1.2-2.1c-2.8-1.6-7.8,3.5-3,4.6
		c0.1,0,0.2,0,0.3,0c-0.1-1,1.7-1.4,1.8-0.3c-0.5,0.3-0.7,0.8-0.6,1.5c0,0.7,1.1,0.1,1.5,0.3c-0.1,1.3-0.6,2.5,0.9,2.7
		c0.2,0.1,0.6,0,0.6,0.3c1.2-0.1,1.3-1.3,2.4-1.5c0.7,0.6,2,0.9,4,0.9c0.4,1.9,2.7,1.9,4,3c0,0.5,0,1,0,1.5c2.2,0.6,3.8,1.7,5.8,2.4
		c-0.3,2.9-2.2,4.1-2.1,7.3c-0.8,0.4-1.6,0.8-2.4,1.2c-0.3,2-1.6,4.4-3.4,4c-0.1,0.7,0.6,0.6,0.3,1.5c-3.1,0.9-2.4,2.8-2.9,5.3
		c-0.8-0.3-1.6-0.7-2.3-1c-1.2-2.4,0.8-6.8,0.1-11.1c-0.6-3.4-5.4-5.3-4.5-9.3c0.5-0.7,1.2-1.2,1.5-2.1c-2.2-3.2-6.5-4.3-9.6-6.6
		c0.1-1.7-0.5-2.7-1.5-3.3c0.1,0.9,0.6,1.3,0.6,2.1c-2.1-2.1-2.9-5.3-3-8.4C4.1,17,7.9,11.7,12.8,7.7z M19,32.8
		c0.1,1.3-1.1,0.8-1.8,0.6C17.5,32.9,18.1,32.7,19,32.8z M13.5,31.6c0.8-1.3,2.9,0.5,3.7,1.2C15.5,32.8,15.3,31.4,13.5,31.6z"/>
</g>
</svg>
