<?xml version="1.0" encoding="utf-8"?>
<!DOCTYPE svg PUBLIC "-//W3C//DTD SVG 1.1//EN" "http://www.w3.org/Graphics/SVG/1.1/DTD/svg11.dtd">
<svg version="1.1" id="Calque_1" xmlns="http://www.w3.org/2000/svg" xmlns:xlink="http://www.w3.org/1999/xlink" x="0px" y="0px"
	 width="66px" height="66px" viewBox="0 0 66 66" enable-background="new 0 0 66 66" xml:space="preserve">
<g>
	<path fill="#D3D3D3" d="M33,0c-5,0-9.75,1.12-14,3.11c0.01-0.01,0.02-0.03,0.02-0.05c-0.43,0.2-0.85,0.41-1.27,0.63
		c0.02,0.01,0.05,0.01,0.07,0.01c-0.08,0.04-0.16,0.08-0.24,0.12c-0.01-0.02-0.01-0.02-0.02-0.04c-0.24,0.13-0.49,0.26-0.73,0.39
		c0.02,0,0.04,0.01,0.07,0.01c-0.26,0.14-0.51,0.29-0.76,0.44c-0.01-0.01-0.03-0.01-0.04-0.02c0.14-0.08,0.29-0.17,0.42-0.25
		c-0.14,0.08-0.29,0.17-0.43,0.25h0c-0.06,0.04-0.12,0.07-0.18,0.11c0.03,0,0.04,0.01,0.07,0.02c-0.13,0.07-0.25,0.16-0.38,0.24
		c0.01-0.02,0.02-0.05,0.02-0.08c0,0,0,0,0,0.01c0-0.01,0-0.01,0-0.01c-0.02,0.02-0.05,0.03-0.07,0.04
		c0.01-0.01,0.03-0.02,0.04-0.03c-0.05,0.04-0.11,0.07-0.16,0.1c0.02-0.01,0.03-0.02,0.05-0.02c-0.14,0.08-0.29,0.18-0.43,0.27
		c0.09-0.06,0.19-0.12,0.29-0.18c-0.1,0.06-0.19,0.13-0.29,0.19c0,0.02,0,0.04,0,0.06c0,0.01-0.02,0.01-0.03,0.02
		c0-0.01-0.01-0.03-0.02-0.04c0.02-0.01,0.03-0.02,0.05-0.03c0,0,0,0,0-0.01C15.04,5.26,15.02,5.27,15,5.28c0,0,0,0,0,0.01
		c-0.91,0.58-1.78,1.21-2.63,1.89c0.01,0.02,0.02,0.03,0.03,0.05C4.84,13.28,0,22.57,0,32.99c0,18.22,14.77,33,33,33
		c18.23,0,33-14.78,33-33C66,14.77,51.23,0,33,0z M56.7,11c0.03,0.06,0.07,0.11,0.1,0.17c-0.86,0.25-0.79-0.43-1.52-0.31
		c0.31,0.54,0.53,1.63,1.22,0.91c0.07,0.41,0.42,0.13,0.74-0.17c4.68,5.3,7.65,12.14,8.06,19.66c-0.4,0-0.79,0-1.18,0
		c1.92,2.99-2.18,4.27-3.96,5.48c0.54,1.25,1.74-0.39,2.44,0.3c-0.3,3.05-2.46,4.24-3.96,6.09c0.07,2.31,0.16,2.94,0,5.18
		c-3.1,2.11-3.3,8.63-8.23,7.91c-0.81-2.23-0.85-5.24-1.83-7.31c2.03-2.92-0.82-4.87-0.61-8.52c-0.42-0.5-1.6-0.22-1.52-1.22
		c-1.9,0.66-3.26,0.39-5.18,0.61c-1.37-0.76-1.92-2.34-3.05-3.35c1.03-2.95-0.65-6.08,2.75-7.31c-0.17-3.62,5.6-4.19,7.92-3.35
		c0,0.41,0,0.81,0,1.22c1.19,0.23,1.76,1.08,2.74,1.52c-0.05-0.76,0.47-0.96,0.91-1.22c0.94,0.59,0.7,1.43,2.14,0.92
		c0.53,0.17,1.79-0.37,1.83,0.3c0.45-0.26,0.44-0.98,0.61-1.52c-0.28-1.04-1.88-0.76-2.75-1.22c-0.41-0.39-0.41-1.44,0-1.83
		c-1.93-0.14-0.31,1.47-1.52,1.83c-0.21,0-0.41,0-0.61,0c0.26-0.97-0.48-0.94-0.61-1.52c-0.91-0.07-1.16,2.07-2.13,0.92
		c2.17-0.36-1.22-3.06-1.52-1.83c-0.05-0.45,0.11-1.12-0.3-1.21c-1.09,0.33-1.79,1.06-2.75,1.52c0,0.41,0,0.81,0,1.22
		c-0.26,0.14-0.55,0.27-0.61,0.61c-0.91,0-1.82,0-2.74,0c-0.02-0.39-0.38-0.42-0.3-0.91c0.45-0.67-0.04-2.27,0.92-2.43
		c0.88-0.43,1.55,0.83,1.83,0c0.11,0,0.2,0,0.3,0c0.13-1.15-0.6-1.43-0.91-2.13c0.03-0.58,1.01-0.22,0.91-0.92
		c2.6-0.14,2.67-2.81,4.27-3.96c-0.26,0.36-0.4,0.81-0.3,1.52c1.12,0.28,0.55-1.61,0.3-1.82c-0.7-0.1-1.17,0.04-1.52,0.3
		c-0.43-0.38-0.19-1.44-0.61-1.82c1.93-1.73,2.5-4.81,5.79-5.18c0.98,0.24,1.86,0.58,2.62,1.04C55.48,9.75,56.1,10.37,56.7,11z
		 M43.08,14.52c1.59,0.35,1.15,2.72,2.44,3.35c0,0.2,0,0.4,0,0.61c-0.73-0.12-0.66,0.56-1.52,0.31c-0.58-0.07-0.67,0.34-1.22,0.3
		C44.01,17.46,42.43,16.13,43.08,14.52z M42.78,18.17c-0.51,0-1.02,0-1.52,0c-0.12-1.13,0.25-1.79,1.22-1.83
		C42.83,16.7,42.82,17.42,42.78,18.17z M37.91,11.78c-0.27-0.64-0.93-0.9-0.92-1.83c1.22,0.3,1.83,0.3,3.05,0
		c0.06,0.25,0.3,0.3,0.3,0.61C40.3,11.73,39.16,11.81,37.91,11.78z M36.08,13.61c-0.47,1.25-1.95,1.5-3.04,2.12
		c-0.34-0.05-0.17-0.29,0-0.29c-0.05-0.57-1.03-0.19-1.22-0.62C31.5,11.1,36.4,10.24,36.08,13.61z M59.23,51.67
		c-0.77-2.34,0.92-3.27,1.83-5.18c0.9,0.72-0.37,1.84-0.31,2.74c-0.33,0.56-0.73,1.05-0.9,1.78c-0.01,0.02-0.02,0.04-0.03,0.06
		C59.49,51.13,59.36,51.39,59.23,51.67z M37.96,1.04c-0.02,0.03-0.03,0.04-0.05,0.08c0.19,0.03,0.42,0.04,0.66,0.03
		c0.51,0.09,1.02,0.19,1.52,0.3c-0.49,0.23-0.62,0.81-1.26,0.89c-0.22,0.93,0.31,1.11,0.3,1.83c-0.52,0.12-0.78-0.45-0.91,0
		c1.05,1.35-1.49,2.52,0,3.66c-2.22,1.13-5.34,1.36-6.7,3.35c-0.66,0.76-0.97,1.89-1.83,2.44c-2.17-0.63-2.59-4.21-1.93-5.59
		c0.06-0.05,0.1-0.11,0.1-0.19c-0.03,0.06-0.07,0.12-0.1,0.19c-0.17,0.11-0.45,0.08-0.5-0.2c1.43-4.04-3.49-2.86-4.27-5.18
		c0.51-0.4,1.93,0.11,1.82-0.91c-0.04,0.01-0.08,0.02-0.12,0.02c2.66-0.71,5.44-1.09,8.31-1.09C34.68,0.66,36.35,0.79,37.96,1.04z
		 M17.8,4.45c0.61,0.2,1.12,0.32,1.82-0.28c-0.4-0.02-0.87,0.03-1.27,0.01c1.44-0.73,2.94-1.36,4.48-1.87
		c-1.18,0.61-1.96,1.62-2.6,2.77c-1.42,0.14-2.53,0.28-3.43-0.06C17.14,4.82,17.47,4.63,17.8,4.45z M16.34,5.28
		c0.07,0.15,0.2,0.23,0.55,0.1c-0.33,0.69-0.93,1.1-1.83,1.22c0.23-0.3,0.32-0.53,0.37-0.74C15.73,5.66,16.04,5.47,16.34,5.28z
		 M12.83,7.74c0.03,0.02,0.07,0.05,0.1,0.08c-0.07,0.84-1.13,0.69-1.53,1.22c2.05,0.6,2.13-1.83,3.35-0.31
		C14.88,8,14.2,8.07,14.45,7.21c0.39-0.01,0.42-0.39,0.92-0.3c0.15,1.74,1.13,0.95,1.52,2.13c0.06-0.34,0.34-0.48,0.61-0.61
		c0.32-1.14-1.14-0.49-0.91-1.53c0.04-1.68,2.58-0.88,3.66-1.52c0.01,0.5,0.84,0.18,0.91,0.61c-0.4-0.04-2.2-0.04-1.22,0.31
		c3.11-0.25,3.06,2.07,4.88,3.65c-0.6-0.09-0.61,0.41-0.91,0.61c-0.41,0.04-0.92-1.24-1.22-0.3c0.67,0.04,0.66,0.76,0.62,1.52
		c-1.51-0.5-0.18,0.04-0.92,0.6c-1.13-0.59-2.01-1.44-3.35-1.82c0.75-0.27,1.76-0.27,1.83-1.22c0.23-0.93-0.84-0.58-0.61-1.52
		c-0.45,0-2.49-0.12-1.53,0.3c0.25,1.37-0.88,1.36-1.22,2.13c0.45,0.26,0.96,0.45,0.91,1.22c-0.24-0.17-0.49-0.32-0.91-0.31
		c-0.38,0.08-0.31,0.6,0,0.61c-0.05,0.52-1.45-0.14-1.22-0.91c-1.44,0.49-2.15,1.71-3.04,2.74c0.26,1.15,1.42,1.42,2.44,1.83
		c0.24,0.15,0.5,0.32,0.92,0.29c-0.22,0.93,0.31,1.11,0.3,1.83c1.04-2.45,1.94-1.81,1.83-5.78c0.26,0.06,0.28-0.12,0.3-0.3
		c0.3-0.03,0.73,0.8,1.83,0.61c0.77,0.24,0.16,1.87,1.22,1.83c0.98,0.38,0.23-0.98,1.22-0.6c0.95,2.84,2.6,4.28,3.04,7
		c-0.92,0.22-1.1-0.31-1.82-0.3c-1.07,0.27-0.52-1-0.31-1.22c0.44-0.17,0.74-0.48,0.92-0.91c-1.15,0.28-2.06,1.89-3.05,0.61
		c0.25,0.86-0.42,0.79-0.31,1.52c-0.05,0.25,0.12,0.28,0.31,0.3c0.24,0.06,0.6,0.01,0.61,0.3c0,0.1,0,0.2,0,0.3
		c-1.44,0.94-5.22,2.02-5.79,5.49c-0.89,0.02-1.13,0.69-1.52,1.22c-0.64,0.27,0.6,2.12-0.31,2.74c-0.73-0.38-0.98-1.25-1.21-2.13
		c-2.77-1.61-7.79,3.47-3.04,4.57c0.1,0,0.2,0,0.31,0c-0.11-0.97,1.67-1.37,1.83-0.31c-0.45,0.26-0.65,0.77-0.61,1.52
		c-0.05,0.66,1.08,0.14,1.52,0.3c-0.08,1.35-0.65,2.52,0.92,2.74c0.24,0.07,0.6,0.02,0.61,0.3c1.19-0.12,1.3-1.33,2.44-1.52
		c0.68,0.64,1.97,0.89,3.96,0.91c0.43,1.91,2.74,1.93,3.96,3.04c0,0.51,0,1.01,0,1.52c2.18,0.57,3.79,1.7,5.79,2.44
		c-0.28,2.86-2.17,4.12-2.12,7.31c-0.82,0.4-1.62,0.81-2.44,1.22c-0.28,2-1.59,4.42-3.35,3.96c-0.12,0.73,0.55,0.65,0.3,1.52
		c-3.12,0.89-2.42,2.78-2.93,5.26c-0.79-0.32-1.57-0.67-2.34-1.04c-1.21-2.37,0.82-6.76,0.09-11.08c-0.56-3.37-5.36-5.32-4.51-9.33
		c0.54-0.66,1.18-1.24,1.5-2.11c-2.19-3.22-6.49-4.34-9.64-6.62c0.09-1.69-0.53-2.69-1.51-3.32c0.05,0.86,0.55,1.26,0.61,2.11
		c-2.12-2.06-2.9-5.33-2.98-8.43C4.15,17.03,7.9,11.68,12.83,7.74z M19.02,32.79c0.11,1.31-1.11,0.82-1.82,0.61
		C17.47,32.87,18.14,32.72,19.02,32.79z M13.54,31.57c0.82-1.32,2.9,0.53,3.66,1.22C15.53,32.82,15.29,31.44,13.54,31.57z"/>
</g>
</svg>
