<svg xmlns="http://www.w3.org/2000/svg" width="294.5" height="141" viewBox="0 0 294.5 141"><style type="text/css"><![CDATA[
	.st2{fill:#F5F5F5;} .st3{fill:#2E8BBF;} .st4{fill:#D3D3D3;}
]]></style><path class="st4" d="M50.7 9.5L23.8 0l-18 51.3L47.4 66l12.9-36.6-9.6-19.9z"/><path fill="#B2B2B2" d="M50.7 9.5l-5.1 14.7 14.6 5.2"/><path class="st4" d="M138.3 26.6h-9.2c-.5-1.8-1.3-3.4-2.2-5l6.1-6.1c1.4-1.4 1.4-3.8 0-5.2l-2.6-2.6c-1.4-1.4-3.8-1.4-5.2 0l-6.2 6.2c-1.7-1-3.5-1.7-5.4-2.2v-8c0-2-1.6-3.7-3.7-3.7h-3.7c-2 0-3.7 1.6-3.7 3.7v8.1c-2.1.5-4.1 1.4-5.9 2.5L91.5 9c-1.4-1.4-3.8-1.4-5.2 0l-2.6 2.6c-1.4 1.4-1.4 3.8 0 5.2l5.3 5.3c-1.1 2-2 4.1-2.4 6.3h-6.9c-2 0-3.7 1.7-3.7 3.7v3.7c0 2 1.6 3.7 3.7 3.7H87c.7 2.2 1.7 4.2 3 6.1l-5 5c-1.4 1.4-1.4 3.8 0 5.2l2.6 2.6c1.4 1.4 3.8 1.4 5.2 0l5.6-5.6c1.9.9 3.9 1.6 6.1 2v7.7c0 2 1.6 3.7 3.7 3.7h3.7c2 0 3.7-1.6 3.7-3.7v-8.6c1.8-.6 3.6-1.5 5.2-2.6l5.9 5.9c1.4 1.4 3.8 1.4 5.2 0l2.6-2.6c1.4-1.4 1.4-3.8 0-5.2l-6.5-6.5c.8-1.6 1.4-3.3 1.8-5.1h8.7c2 0 3.7-1.6 3.7-3.7v-3.7c-.2-2.2-1.8-3.8-3.9-3.8zm-30.2 15.6c-5.1 0-9.2-4.1-9.2-9.2s4.1-9.2 9.2-9.2 9.2 4.1 9.2 9.2-4.1 9.2-9.2 9.2zM33 75c-5 0-9.8 1.1-14 3.1-.4.2-.9.4-1.3.6h.1c-.1 0-.2.1-.2.1-.2.1-.5.3-.7.4h.1c-.3.1-.5.3-.8.4.1-.1.3-.2.4-.2-.1.1-.3.2-.4.2-.1 0-.1.1-.2.1h.1c-.1.1-.2.2-.4.2v-.1h-.1s-.1.1-.2.1c-.1.1-.3.2-.4.3.1-.1.2-.1.3-.2-.1.1-.2.1-.3.2v.1c-.9.6-1.8 1.2-2.6 1.9C4.8 88.3 0 97.6 0 108c0 18.2 14.8 33 33 33s33-14.8 33-33-14.8-33-33-33zm23.7 11c0 .1.1.1.1.2-.9.2-.8-.4-1.5-.3.3.5.5 1.6 1.2.9.1.4.4.1.7-.2 4.7 5.3 7.7 12.1 8.1 19.7h-1.2c1.9 3-2.2 4.3-4 5.5.5 1.2 1.7-.4 2.4.3-.3 3-2.5 4.2-4 6.1.1 2.3.2 2.9 0 5.2-3.1 2.1-3.3 8.6-8.2 7.9-.8-2.2-.8-5.2-1.8-7.3 2-2.9-.8-4.9-.6-8.5-.4-.5-1.6-.2-1.5-1.2-1.9.7-3.3.4-5.2.6-1.4-.8-1.9-2.3-3-3.3 1-2.9-.7-6.1 2.8-7.3-.2-3.6 5.6-4.2 7.9-3.4v1.2c1.2.2 1.8 1.1 2.7 1.5 0-.8.5-1 .9-1.2.9.6.7 1.4 2.1.9.5.2 1.8-.4 1.8.3.5-.3.4-1 .6-1.5-.3-1-1.9-.8-2.8-1.2-.4-.4-.4-1.4 0-1.8-1.9-.1-.3 1.5-1.5 1.8h-.6c.3-1-.5-.9-.6-1.5-.9-.1-1.2 2.1-2.1.9 2.2-.4-1.2-3.1-1.5-1.8-.1-.4.1-1.1-.3-1.2-1.1.3-1.8 1.1-2.8 1.5v1.2c-.3.1-.5.3-.6.6h-2.7c0-.4-.4-.4-.3-.9.5-.7 0-2.3.9-2.4.9-.4 1.5.8 1.8 0h.3c.1-1.1-.6-1.4-.9-2.1 0-.6 1-.2.9-.9 2.6-.1 2.7-2.8 4.3-4-.3.4-.4.8-.3 1.5 1.1.3.5-1.6.3-1.8-.7-.1-1.2 0-1.5.3-.4-.4-.2-1.4-.6-1.8 1.9-1.7 2.5-4.8 5.8-5.2 1 .2 1.9.6 2.6 1 .7.5 1.3 1.1 1.9 1.7zm-13.6 3.5c1.6.4 1.2 2.7 2.4 3.4v.6c-.7-.1-.7.6-1.5.3-.6-.1-.7.3-1.2.3 1.2-1.6-.4-3 .3-4.6zm-.3 3.7h-1.5c-.1-1.1.2-1.8 1.2-1.8.3.3.3 1 .3 1.8zm-4.9-6.4c-.3-.7-.9-.9-.9-1.8 1.2.3 1.8.3 3 0 .1.2.3.3.3.6 0 1.1-1.1 1.2-2.4 1.2zm-1.8 1.8c-.5 1.2-2 1.5-3 2.1-.3 0-.2-.3 0-.3 0-.6-1-.2-1.2-.6-.4-3.7 4.5-4.6 4.2-1.2zm23.1 38.1c-.8-2.3.9-3.3 1.8-5.2.9.7-.4 1.8-.3 2.7-.3.6-.7 1-.9 1.8v.1c-.3 0-.4.3-.6.6zM38 76c-.1.1-.1.1 0 0 .1.1.4.1.6.1l1.5.3c-.5.2-.6.8-1.3.9-.2.9.3 1.1.3 1.8-.5.1-.8-.4-.9 0 1 1.4-1.5 2.5 0 3.7-2.2 1.2-5.3 1.4-6.7 3.4-.7.8-1 1.9-1.8 2.4-2.2-.6-2.6-4.2-1.9-5.6.1 0 .1-.1.1-.2 0 .1-.1.1-.1.2-.2.1-.4.1-.5-.2 1.4-4-3.5-2.9-4.3-5.2.5-.4 1.9.1 1.8-.9h-.1c2.7-.7 5.4-1 8.3-1 1.7 0 3.3.1 5 .3zm-20.2 3.5c.6.2 1.1.3 1.8-.3h-1.3c1.4-.7 2.9-1.4 4.5-1.9-1.2.6-2 1.6-2.6 2.8-1.4.1-2.5.3-3.4-.1.3-.2.7-.4 1-.5zm-1.5.8c.1.2.2.2.6.1-.3.7-.9 1.1-1.8 1.2.2-.3.3-.5.4-.7.2-.2.5-.4.8-.6zm-3.5 2.4s.1 0 .1.1c-.1.8-1.1.7-1.5 1.2 2.1.6 2.1-1.8 3.4-.3.1-.7-.5-.7-.3-1.5.4 0 .4-.4.9-.3.1 1.7 1.1.9 1.5 2.1.1-.3.3-.5.6-.6.3-1.1-1.1-.5-.9-1.5 0-1.7 2.6-.9 3.7-1.5 0 .5.8.2.9.6-.4 0-2.2 0-1.2.3 3-.3 3 2.1 4.8 3.7-.6-.1-.6.4-.9.6-.4 0-.9-1.2-1.2-.3.7 0 .7.8.6 1.5-1.5-.5-.2 0-.9.6-1.1-.6-2-1.4-3.4-1.8.8-.3 1.8-.3 1.8-1.2.2-.9-.8-.6-.6-1.5-.4 0-2.5-.1-1.5.3.2 1.4-.9 1.4-1.2 2.1.5.3 1 .5.9 1.2-.2-.2-.5-.3-.9-.3-.4.1-.3.6 0 .6 0 .5-1.4-.1-1.2-.9-1.4.5-2.1 1.7-3 2.7.3 1.1 1.4 1.4 2.4 1.8.2.1.5.3.9.3-.2.9.3 1.1.3 1.8 1-2.4 1.9-1.8 1.8-5.8.3.1.3-.1.3-.3.3 0 .7.8 1.8.6.8.2.2 1.9 1.2 1.8 1 .4.2-1 1.2-.6.9 2.8 2.6 4.3 3 7-.9.2-1.1-.3-1.8-.3-1.1.3-.5-1-.3-1.2.4-.2.7-.5.9-.9-1.1.3-2.1 1.9-3.1.6.2.9-.4.8-.3 1.5 0 .2.1.3.3.3.2.1.6 0 .6.3v.3c-1.4.9-5.2 2-5.8 5.5-.9 0-1.1.7-1.5 1.2-.6.3.6 2.1-.3 2.7-.7-.4-1-1.2-1.2-2.1-2.8-1.6-7.8 3.5-3 4.6h.3c-.1-1 1.7-1.4 1.8-.3-.5.3-.7.8-.6 1.5 0 .7 1.1.1 1.5.3-.1 1.3-.6 2.5.9 2.7.2.1.6 0 .6.3 1.2-.1 1.3-1.3 2.4-1.5.7.6 2 .9 4 .9.4 1.9 2.7 1.9 4 3v1.5c2.2.6 3.8 1.7 5.8 2.4-.3 2.9-2.2 4.1-2.1 7.3l-2.4 1.2c-.3 2-1.6 4.4-3.4 4-.1.7.6.6.3 1.5-3.1.9-2.4 2.8-2.9 5.3-.8-.3-1.6-.7-2.3-1-1.2-2.4.8-6.8.1-11.1-.6-3.4-5.4-5.3-4.5-9.3.5-.7 1.2-1.2 1.5-2.1-2.2-3.2-6.5-4.3-9.6-6.6.1-1.7-.5-2.7-1.5-3.3.1.9.6 1.3.6 2.1-2.1-2.1-2.9-5.3-3-8.4C4.1 92 7.9 86.7 12.8 82.7zm6.2 25.1c.1 1.3-1.1.8-1.8.6.3-.5.9-.7 1.8-.6zm-5.5-1.2c.8-1.3 2.9.5 3.7 1.2-1.7 0-1.9-1.4-3.7-1.2zM96.9 101.8c1.2 3.8 4 6.2 4 6.2l-.1 6.2s-1.6.9-8.2 3.6-10.2 5.8-12.2 8.8c-1.8 2.7-4.3 14.4-4.3 14.4h66s-1.9-11.3-3.7-14c-2-3-6.2-6.6-12.8-9.3s-8.2-3.6-8.2-3.6V108c1-.5 2.8-2.4 3.9-6.1 0 0 1.3-4 1.3-8.3 0-2-.2-7-.4-8.4-.4-5-5.4-10.2-13.1-10.2s-12.7 5.2-13.2 10.2c-.1 1.4-.5 7-.4 8.8.1 3 1.4 7.8 1.4 7.8z"/><path class="st3" d="M193.4.5h-34.2v65h52.7V19.1L193.4.5z"/><path class="st2" d="M167.4 33h35.2v4.1h-35.2zM167.4 23.1h20.1v4.1h-20.1zM167.4 42.9h35.2V47h-35.2z"/><path fill="#1C79AD" d="M193.4.5v18.6H212"/><circle class="st3" cx="205" cy="107.9" r="6.7"/><path class="st3" d="M189.6 128.5s-10.9-6.2-10.3-21c.7-14.8 10.3-20.1 10.3-20.1l7.8 6.3s-7.8 5.7-8 14.2c-.1 8.5 7.3 14.8 7.3 14.8l-7.1 5.8zM174.7 140.6s-16.9-14.1-16.3-32.4c.6-20 16.4-32.8 16.4-32.8l7.8 6.3s-14.3 9.1-14.1 26.9c.1 15.7 13.4 26.1 13.4 26.1l-7.2 5.9zM262 .5c-4.9 0-9.6 1.1-13.8 3.1l-1.2.6h.1c-.1 0-.2.1-.2.1-.2.1-.5.2-.7.4h.1c-.2.1-.5.3-.8.4.1-.1.3-.2.4-.2-.1.1-.3.2-.4.2-.1 0-.1.1-.2.1h.1c-.1.1-.2.1-.4.2v-.1h-.1c-.1 0-.1.1-.2.1h.1c-.2.1-.3.2-.5.3.1-.1.2-.2.3-.2-.1 0-.2.1-.3.2v.1c-.9.6-1.8 1.2-2.6 1.9v.1c-7.4 5.8-12.2 14.9-12.2 25.2 0 18 14.5 32.5 32.5 32.5S294.5 51 294.5 33 280 .5 262 .5zm23.3 10.8c0 .1.1.1.1.2-.8.2-.8-.4-1.5-.3.3.5.5 1.6 1.2.9.1.4.4.1.7-.2 4.6 5.2 7.5 12 7.9 19.4h-1.2c1.9 2.9-2.1 4.2-3.9 5.4.5 1.2 1.7-.4 2.4.3-.3 3-2.4 4.2-3.9 6 .1 2.3.2 2.9 0 5.1-3.1 2.1-3.2 8.5-8.1 7.8-.8-2.2-.8-5.2-1.8-7.2 2-2.9-.8-4.8-.6-8.4-.4-.5-1.6-.2-1.5-1.2-1.9.7-3.2.4-5.1.6-1.4-.8-1.9-2.3-3-3.3 1-2.9-.6-6 2.7-7.2-.2-3.6 5.5-4.1 7.8-3.3v1.2c1.2.2 1.7 1.1 2.7 1.5-.1-.8.5-.9.9-1.2.9.6.7 1.4 2.1.9.5.2 1.8-.4 1.8.3.4-.3.4-1 .6-1.5-.3-1-1.9-.8-2.7-1.2-.4-.4-.4-1.4 0-1.8-1.9-.1-.3 1.4-1.5 1.8h-.6c.3-1-.5-.9-.6-1.5-.9-.1-1.1 2-2.1.9 2.1-.3-1.2-3-1.5-1.8-.1-.4.1-1.1-.3-1.2-1.1.3-1.8 1-2.7 1.5V25c-.3.1-.5.3-.6.6h-2.7c0-.4-.4-.4-.3-.9.5-.7 0-2.2.9-2.4.9-.4 1.5.8 1.8 0h.3c.1-1.1-.6-1.4-.9-2.1 0-.6 1-.2.9-.9 2.6-.1 2.6-2.8 4.2-3.9-.2.3-.4.8-.3 1.5 1.1.3.5-1.6.3-1.8-.7-.1-1.2 0-1.5.3-.4-.4-.2-1.4-.6-1.8 1.9-1.7 2.5-4.7 5.7-5.1 1 .2 1.8.6 2.6 1 .7.6 1.3 1.2 1.9 1.8zm-13.4 3.5c1.6.3 1.1 2.7 2.4 3.3v.6c-.7-.1-.7.5-1.5.3-.6-.1-.7.3-1.2.3 1.2-1.6-.3-2.9.3-4.5zm-.3 3.6h-1.5c-.1-1.1.2-1.8 1.2-1.8.4.4.4 1.1.3 1.8zm-4.8-6.3c-.3-.6-.9-.9-.9-1.8 1.2.3 1.8.3 3 0 .1.2.3.3.3.6 0 1.2-1.1 1.2-2.4 1.2zm-1.8 1.8c-.5 1.2-1.9 1.5-3 2.1-.3-.1-.2-.3 0-.3 0-.6-1-.2-1.2-.6-.3-3.7 4.5-4.5 4.2-1.2zm22.8 37.5c-.8-2.3.9-3.2 1.8-5.1.9.7-.4 1.8-.3 2.7-.3.5-.7 1-.9 1.8v.1c-.3 0-.4.2-.6.5zM266.9 1.5c0 .1 0 .1 0 0 .1.1.4.1.6.1l1.5.3c-.5.2-.6.8-1.2.9-.2.9.3 1.1.3 1.8-.5.1-.8-.4-.9 0 1 1.3-1.5 2.5 0 3.6-2.2 1.1-5.3 1.3-6.7 3.3-.6.8-.9 1.9-1.8 2.4-2.1-.6-2.5-4.1-1.9-5.5.1 0 .1-.1.1-.2 0 .1-.1.1-.1.2-.1.1-.4.1-.5-.2 1.4-4-3.4-2.8-4.2-5.1.5-.4 1.9.1 1.8-.9h-.1c2.6-.7 5.4-1.1 8.2-1.1 1.7.1 3.3.2 4.9.4zM247 4.9c.6.2 1.1.3 1.8-.3h-1.2c1.4-.7 2.9-1.3 4.4-1.8-1.2.6-1.9 1.6-2.6 2.7-1.4.1-2.5.3-3.4-.1.4-.1.7-.3 1-.5zm-1.4.8c.1.1.2.2.5.1-.3.7-.9 1.1-1.8 1.2.2-.3.3-.5.4-.7l.9-.6zm-3.5 2.4l.1.1c-.1.8-1.1.7-1.5 1.2 2 .6 2.1-1.8 3.3-.3.1-.7-.5-.6-.3-1.5.4 0 .4-.4.9-.3.1 1.7 1.1.9 1.5 2.1.1-.3.3-.5.6-.6.3-1.1-1.1-.5-.9-1.5 0-1.7 2.5-.9 3.6-1.5 0 .5.8.2.9.6-.4 0-2.2 0-1.2.3 3.1-.2 3 2 4.8 3.6-.6-.1-.6.4-.9.6-.4 0-.9-1.2-1.2-.3.7 0 .7.8.6 1.5-1.5-.5-.2 0-.9.6-1.1-.6-2-1.4-3.3-1.8.7-.3 1.7-.3 1.8-1.2.2-.9-.8-.6-.6-1.5-.4 0-2.5-.1-1.5.3.2 1.4-.9 1.3-1.2 2.1.4.3 1 .4.9 1.2-.2-.2-.5-.3-.9-.3-.4.1-.3.6 0 .6 0 .5-1.4-.1-1.2-.9-1.4.5-2.1 1.7-3 2.7.3 1.1 1.4 1.4 2.4 1.8.2.1.5.3.9.3-.2.9.3 1.1.3 1.8 1-2.4 1.9-1.8 1.8-5.7.2.1.3-.1.3-.3.3 0 .7.8 1.8.6.8.2.1 1.8 1.2 1.8 1 .4.2-1 1.2-.6.9 2.8 2.6 4.2 3 6.9-.9.2-1.1-.3-1.8-.3-1 .3-.5-1-.3-1.2.4-.2.7-.5.9-.9-1.1.3-2 1.9-3 .6.2.8-.4.8-.3 1.5-.1.2.1.3.3.3.2.1.6 0 .6.3v.3c-1.4.9-5.1 2-5.7 5.4-.9 0-1.1.7-1.5 1.2-.6.3.6 2.1-.3 2.7-.7-.4-1-1.2-1.2-2.1-2.7-1.6-7.7 3.4-3 4.5h.3c-.1-.9 1.6-1.3 1.8-.3-.4.2-.6.8-.6 1.5 0 .6 1.1.1 1.5.3-.1 1.3-.6 2.5.9 2.7.2.1.6 0 .6.3 1.2-.1 1.3-1.3 2.4-1.5.7.6 1.9.9 3.9.9.4 1.9 2.7 1.9 3.9 3v1.5c2.2.6 3.7 1.7 5.7 2.4-.3 2.8-2.1 4.1-2.1 7.2L256 52c-.3 2-1.6 4.3-3.3 3.9-.1.7.5.6.3 1.5-3.1.9-2.4 2.7-2.9 5.2-.8-.3-1.6-.7-2.3-1-1.2-2.3.8-6.7.1-10.9-.6-3.3-5.3-5.2-4.4-9.2.5-.7 1.2-1.2 1.5-2.1-2.2-3.2-6.4-4.3-9.5-6.5.1-1.7-.5-2.6-1.5-3.3 0 .9.5 1.2.6 2.1-2.1-2.1-2.9-5.3-3-8.3 2-6.1 5.7-11.4 10.5-15.3zm6.1 24.7c.1 1.3-1.1.8-1.8.6.3-.5 1-.7 1.8-.6zm-5.4-1.2c.8-1.3 2.9.5 3.6 1.2-1.6 0-1.8-1.3-3.6-1.2z"/></svg>