<?xml version="1.0" encoding="utf-8"?>
<!DOCTYPE svg PUBLIC "-//W3C//DTD SVG 1.1//EN" "http://www.w3.org/Graphics/SVG/1.1/DTD/svg11.dtd">
<svg version="1.1" id="Calque_1" xmlns="http://www.w3.org/2000/svg" xmlns:xlink="http://www.w3.org/1999/xlink" x="0px" y="0px"
	 width="66px" height="66px" viewBox="0 0 66 66" enable-background="new 0 0 66 66" xml:space="preserve">
<g>
	<g>
		<path fill="#D3D3D3" d="M62.3,26.6h-9.2c-0.5-1.8-1.3-3.4-2.2-5l6.1-6.1c1.4-1.4,1.4-3.8,0-5.2l-2.6-2.6c-1.4-1.4-3.8-1.4-5.2,0
			L43,13.9c-1.7-1-3.5-1.7-5.4-2.2V3.7c0-2-1.6-3.7-3.7-3.7h-3.7c-2,0-3.7,1.6-3.7,3.7v8.1c-2.1,0.5-4.1,1.4-5.9,2.5L15.5,9
			c-1.4-1.4-3.8-1.4-5.2,0l-2.6,2.6c-1.4,1.4-1.4,3.8,0,5.2l5.3,5.3c-1.1,2-2,4.1-2.4,6.3H3.7c-2,0-3.7,1.7-3.7,3.7v3.7
			c0,2,1.6,3.7,3.7,3.7H11c0.7,2.2,1.7,4.2,3,6.1l-5,5c-1.4,1.4-1.4,3.8,0,5.2l2.6,2.6c1.4,1.4,3.8,1.4,5.2,0l5.6-5.6
			c1.9,0.9,3.9,1.6,6.1,2v7.7c0,2,1.6,3.7,3.7,3.7h3.7c2,0,3.7-1.6,3.7-3.7v-8.6c1.8-0.6,3.6-1.5,5.2-2.6l5.9,5.9
			c1.4,1.4,3.8,1.4,5.2,0l2.6-2.6c1.4-1.4,1.4-3.8,0-5.2l-6.5-6.5c0.8-1.6,1.4-3.3,1.8-5.1h8.7c2,0,3.7-1.6,3.7-3.7v-3.7
			C66,28.2,64.4,26.6,62.3,26.6z M32.1,42.2c-5.1,0-9.2-4.1-9.2-9.2c0-5.1,4.1-9.2,9.2-9.2c5.1,0,9.2,4.1,9.2,9.2
			C41.3,38.1,37.2,42.2,32.1,42.2z"/>
	</g>
</g>
</svg>
