<?xml version="1.0" encoding="utf-8"?>
<!DOCTYPE svg PUBLIC "-//W3C//DTD SVG 1.1//EN" "http://www.w3.org/Graphics/SVG/1.1/DTD/svg11.dtd">
<svg version="1.1" id="Calque_1" xmlns="http://www.w3.org/2000/svg" xmlns:xlink="http://www.w3.org/1999/xlink" x="0px" y="0px"
	 width="66px" height="66px" viewBox="0 0 66 66" enable-background="new 0 0 66 66" xml:space="preserve">
<g>
	<path fill="#D3D3D3" d="M20.8,26.8c1.2,3.8,4,6.2,4,6.2l-0.1,6.2c0,0-1.6,0.9-8.2,3.6c-6.6,2.7-10.2,5.8-12.2,8.8
		C2.5,54.3,0,66,0,66h33h33c0,0-1.9-11.3-3.7-14c-2-3-6.2-6.6-12.8-9.3c-6.6-2.7-8.2-3.6-8.2-3.6L41.3,33c1-0.5,2.8-2.4,3.9-6.1
		c0,0,1.3-4,1.3-8.3c0-2-0.2-7-0.4-8.4C45.7,5.2,40.7,0,33,0S20.3,5.2,19.8,10.2c-0.1,1.4-0.5,7-0.4,8.8
		C19.5,22,20.8,26.8,20.8,26.8z"/>
</g>
</svg>
