<?xml version="1.0" encoding="utf-8"?>
<!DOCTYPE svg PUBLIC "-//W3C//DTD SVG 1.1//EN" "http://www.w3.org/Graphics/SVG/1.1/DTD/svg11.dtd">
<svg version="1.1" id="Calque_1" xmlns="http://www.w3.org/2000/svg" xmlns:xlink="http://www.w3.org/1999/xlink" x="0px" y="0px"
	 width="66px" height="66px" viewBox="0 0 66 66" enable-background="new 0 0 66 66" xml:space="preserve">
<g><g>
		<path fill="#D3D3D3" d="M62.32,26.58h-9.19c-0.55-1.77-1.31-3.43-2.25-4.98l6.1-6.12c1.44-1.42,1.44-3.75,0-5.18l-2.59-2.58
			c-1.43-1.43-3.76-1.42-5.18,0L43,13.92c-1.68-0.96-3.49-1.7-5.43-2.19V3.67c0-2.02-1.63-3.67-3.66-3.67h-3.67
			c-2.02,0-3.66,1.64-3.66,3.67v8.06c-2.11,0.53-4.08,1.37-5.9,2.47L15.5,9.01c-1.43-1.42-3.76-1.43-5.19,0l-2.6,2.59
			c-1.43,1.43-1.41,3.76,0.01,5.19l5.28,5.28c-1.12,1.95-1.96,4.08-2.43,6.33h-6.9C1.64,28.41,0,30.06,0,32.08v3.67
			c0,2.01,1.64,3.66,3.67,3.66h7.37c0.67,2.21,1.68,4.25,2.96,6.1L9.02,50.5c-1.44,1.44-1.44,3.76-0.01,5.19l2.59,2.59
			c1.44,1.42,3.77,1.42,5.19-0.01l5.57-5.57c1.88,0.94,3.91,1.61,6.06,1.96v7.67c0,2.02,1.64,3.66,3.67,3.67h3.67
			c2.02,0,3.67-1.64,3.67-3.67v-8.62c1.85-0.65,3.6-1.52,5.18-2.64l5.9,5.91c1.43,1.43,3.75,1.43,5.19,0l2.59-2.59
			c1.44-1.43,1.44-3.75-0.01-5.19l-6.47-6.49c0.79-1.6,1.41-3.32,1.79-5.13h8.73c2.03,0,3.67-1.63,3.68-3.67v-3.66
			C65.99,28.22,64.36,26.58,62.32,26.58z M32.09,42.16c-5.06,0-9.16-4.09-9.16-9.17c0-5.06,4.1-9.16,9.16-9.16
			c5.07,0,9.17,4.1,9.17,9.16C41.26,38.07,37.15,42.16,32.09,42.16z"/>
</g></g>
</svg>
