<?xml version="1.0" encoding="utf-8"?><!DOCTYPE svg PUBLIC "-//W3C//DTD SVG 1.1//EN" "http://www.w3.org/Graphics/SVG/1.1/DTD/svg11.dtd">
<svg version="1.1" id="Calque_1" xmlns="http://www.w3.org/2000/svg" xmlns:xlink="http://www.w3.org/1999/xlink" x="0px" y="0px"
	 width="294.5px" height="141px" viewBox="0 0 294.5 141" style="enable-background:new 0 0 294.5 141;" xml:space="preserve">
<style type="text/css"><![CDATA[
	.st2{fill:#F5F5F5;} .st3{fill:#2E8BBF;} .st4{fill:#D3D3D3;}
]]></style>
<path class="st4" d="M50.7,9.5L23.8,0l-18,51.3L47.4,66l12.9-36.6L50.7,9.5z"/>
<polyline fill="#B2B2B2" points="50.7,9.5 45.6,24.2 60.2,29.4 "/>
<g>
	<g>
		<path class="st4" d="M138.3,26.6h-9.2c-0.5-1.8-1.3-3.4-2.2-5l6.1-6.1c1.4-1.4,1.4-3.8,0-5.2l-2.6-2.6c-1.4-1.4-3.8-1.4-5.2,0
			l-6.2,6.2c-1.7-1-3.5-1.7-5.4-2.2v-8c0-2-1.6-3.7-3.7-3.7h-3.7c-2,0-3.7,1.6-3.7,3.7v8.1c-2.1,0.5-4.1,1.4-5.9,2.5L91.5,9
			c-1.4-1.4-3.8-1.4-5.2,0l-2.6,2.6c-1.4,1.4-1.4,3.8,0,5.2l5.3,5.3c-1.1,2-2,4.1-2.4,6.3h-6.9c-2,0-3.7,1.7-3.7,3.7v3.7
			c0,2,1.6,3.7,3.7,3.7H87c0.7,2.2,1.7,4.2,3,6.1l-5,5c-1.4,1.4-1.4,3.8,0,5.2l2.6,2.6c1.4,1.4,3.8,1.4,5.2,0l5.6-5.6
			c1.9,0.9,3.9,1.6,6.1,2v7.7c0,2,1.6,3.7,3.7,3.7h3.7c2,0,3.7-1.6,3.7-3.7v-8.6c1.8-0.6,3.6-1.5,5.2-2.6l5.9,5.9
			c1.4,1.4,3.8,1.4,5.2,0l2.6-2.6c1.4-1.4,1.4-3.8,0-5.2l-6.5-6.5c0.8-1.6,1.4-3.3,1.8-5.1h8.7c2,0,3.7-1.6,3.7-3.7v-3.7
			C142,28.2,140.4,26.6,138.3,26.6z M108.1,42.2c-5.1,0-9.2-4.1-9.2-9.2c0-5.1,4.1-9.2,9.2-9.2c5.1,0,9.2,4.1,9.2,9.2
			C117.3,38.1,113.2,42.2,108.1,42.2z"/>
	</g>
</g>
<g>
	<path class="st4" d="M33,75c-5,0-9.8,1.1-14,3.1l0,0c-0.4,0.2-0.9,0.4-1.3,0.6c0,0,0,0,0.1,0c-0.1,0-0.2,0.1-0.2,0.1l0,0
		c-0.2,0.1-0.5,0.3-0.7,0.4c0,0,0,0,0.1,0c-0.3,0.1-0.5,0.3-0.8,0.4l0,0c0.1-0.1,0.3-0.2,0.4-0.2c-0.1,0.1-0.3,0.2-0.4,0.2l0,0
		c-0.1,0-0.1,0.1-0.2,0.1c0,0,0,0,0.1,0c-0.1,0.1-0.2,0.2-0.4,0.2v-0.1l0,0l0,0h-0.1l0,0c0,0-0.1,0.1-0.2,0.1l0,0
		c-0.1,0.1-0.3,0.2-0.4,0.3c0.1-0.1,0.2-0.1,0.3-0.2c-0.1,0.1-0.2,0.1-0.3,0.2c0,0,0,0,0,0.1l0,0l0,0l0,0l0,0l0,0l0,0
		c-0.9,0.6-1.8,1.2-2.6,1.9l0,0C4.8,88.3,0,97.6,0,108c0,18.2,14.8,33,33,33s33-14.8,33-33S51.2,75,33,75z M56.7,86
		c0,0.1,0.1,0.1,0.1,0.2c-0.9,0.2-0.8-0.4-1.5-0.3c0.3,0.5,0.5,1.6,1.2,0.9c0.1,0.4,0.4,0.1,0.7-0.2c4.7,5.3,7.7,12.1,8.1,19.7
		c-0.4,0-0.8,0-1.2,0c1.9,3-2.2,4.3-4,5.5c0.5,1.2,1.7-0.4,2.4,0.3c-0.3,3-2.5,4.2-4,6.1c0.1,2.3,0.2,2.9,0,5.2
		c-3.1,2.1-3.3,8.6-8.2,7.9c-0.8-2.2-0.8-5.2-1.8-7.3c2-2.9-0.8-4.9-0.6-8.5c-0.4-0.5-1.6-0.2-1.5-1.2c-1.9,0.7-3.3,0.4-5.2,0.6
		c-1.4-0.8-1.9-2.3-3-3.3c1-2.9-0.7-6.1,2.8-7.3c-0.2-3.6,5.6-4.2,7.9-3.4c0,0.4,0,0.8,0,1.2c1.2,0.2,1.8,1.1,2.7,1.5
		c0-0.8,0.5-1,0.9-1.2c0.9,0.6,0.7,1.4,2.1,0.9c0.5,0.2,1.8-0.4,1.8,0.3c0.5-0.3,0.4-1,0.6-1.5c-0.3-1-1.9-0.8-2.8-1.2
		c-0.4-0.4-0.4-1.4,0-1.8c-1.9-0.1-0.3,1.5-1.5,1.8c-0.2,0-0.4,0-0.6,0c0.3-1-0.5-0.9-0.6-1.5c-0.9-0.1-1.2,2.1-2.1,0.9
		c2.2-0.4-1.2-3.1-1.5-1.8c-0.1-0.4,0.1-1.1-0.3-1.2c-1.1,0.3-1.8,1.1-2.8,1.5c0,0.4,0,0.8,0,1.2c-0.3,0.1-0.5,0.3-0.6,0.6
		c-0.9,0-1.8,0-2.7,0c0-0.4-0.4-0.4-0.3-0.9c0.5-0.7,0-2.3,0.9-2.4c0.9-0.4,1.5,0.8,1.8,0c0.1,0,0.2,0,0.3,0
		c0.1-1.1-0.6-1.4-0.9-2.1c0-0.6,1-0.2,0.9-0.9c2.6-0.1,2.7-2.8,4.3-4c-0.3,0.4-0.4,0.8-0.3,1.5c1.1,0.3,0.5-1.6,0.3-1.8
		c-0.7-0.1-1.2,0-1.5,0.3c-0.4-0.4-0.2-1.4-0.6-1.8c1.9-1.7,2.5-4.8,5.8-5.2c1,0.2,1.9,0.6,2.6,1C55.5,84.8,56.1,85.4,56.7,86z
		 M43.1,89.5c1.6,0.4,1.2,2.7,2.4,3.4c0,0.2,0,0.4,0,0.6c-0.7-0.1-0.7,0.6-1.5,0.3c-0.6-0.1-0.7,0.3-1.2,0.3
		C44,92.5,42.4,91.1,43.1,89.5z M42.8,93.2c-0.5,0-1,0-1.5,0c-0.1-1.1,0.2-1.8,1.2-1.8C42.8,91.7,42.8,92.4,42.8,93.2z M37.9,86.8
		C37.6,86.1,37,85.9,37,85c1.2,0.3,1.8,0.3,3,0c0.1,0.2,0.3,0.3,0.3,0.6C40.3,86.7,39.2,86.8,37.9,86.8z M36.1,88.6
		c-0.5,1.2-2,1.5-3,2.1c-0.3,0-0.2-0.3,0-0.3c0-0.6-1-0.2-1.2-0.6C31.5,86.1,36.4,85.2,36.1,88.6z M59.2,126.7
		c-0.8-2.3,0.9-3.3,1.8-5.2c0.9,0.7-0.4,1.8-0.3,2.7c-0.3,0.6-0.7,1-0.9,1.8c0,0,0,0,0,0.1C59.5,126.1,59.4,126.4,59.2,126.7z
		 M38,76C37.9,76.1,37.9,76.1,38,76c0.1,0.1,0.4,0.1,0.6,0.1c0.5,0.1,1,0.2,1.5,0.3c-0.5,0.2-0.6,0.8-1.3,0.9
		c-0.2,0.9,0.3,1.1,0.3,1.8c-0.5,0.1-0.8-0.4-0.9,0c1,1.4-1.5,2.5,0,3.7c-2.2,1.2-5.3,1.4-6.7,3.4c-0.7,0.8-1,1.9-1.8,2.4
		c-2.2-0.6-2.6-4.2-1.9-5.6c0.1,0,0.1-0.1,0.1-0.2c0,0.1-0.1,0.1-0.1,0.2c-0.2,0.1-0.4,0.1-0.5-0.2c1.4-4-3.5-2.9-4.3-5.2
		c0.5-0.4,1.9,0.1,1.8-0.9h-0.1c2.7-0.7,5.4-1,8.3-1C34.7,75.7,36.3,75.8,38,76z M17.8,79.5c0.6,0.2,1.1,0.3,1.8-0.3
		c-0.4,0-0.9,0-1.3,0c1.4-0.7,2.9-1.4,4.5-1.9c-1.2,0.6-2,1.6-2.6,2.8c-1.4,0.1-2.5,0.3-3.4-0.1C17.1,79.8,17.5,79.6,17.8,79.5z
		 M16.3,80.3c0.1,0.2,0.2,0.2,0.6,0.1c-0.3,0.7-0.9,1.1-1.8,1.2c0.2-0.3,0.3-0.5,0.4-0.7C15.7,80.7,16,80.5,16.3,80.3z M12.8,82.7
		c0,0,0.1,0,0.1,0.1c-0.1,0.8-1.1,0.7-1.5,1.2c2.1,0.6,2.1-1.8,3.4-0.3c0.1-0.7-0.5-0.7-0.3-1.5c0.4,0,0.4-0.4,0.9-0.3
		c0.1,1.7,1.1,0.9,1.5,2.1c0.1-0.3,0.3-0.5,0.6-0.6c0.3-1.1-1.1-0.5-0.9-1.5c0-1.7,2.6-0.9,3.7-1.5c0,0.5,0.8,0.2,0.9,0.6
		c-0.4,0-2.2,0-1.2,0.3c3-0.3,3,2.1,4.8,3.7c-0.6-0.1-0.6,0.4-0.9,0.6c-0.4,0-0.9-1.2-1.2-0.3c0.7,0,0.7,0.8,0.6,1.5
		c-1.5-0.5-0.2,0-0.9,0.6c-1.1-0.6-2-1.4-3.4-1.8c0.8-0.3,1.8-0.3,1.8-1.2c0.2-0.9-0.8-0.6-0.6-1.5c-0.4,0-2.5-0.1-1.5,0.3
		c0.2,1.4-0.9,1.4-1.2,2.1c0.5,0.3,1,0.5,0.9,1.2c-0.2-0.2-0.5-0.3-0.9-0.3c-0.4,0.1-0.3,0.6,0,0.6c0,0.5-1.4-0.1-1.2-0.9
		c-1.4,0.5-2.1,1.7-3,2.7c0.3,1.1,1.4,1.4,2.4,1.8c0.2,0.1,0.5,0.3,0.9,0.3c-0.2,0.9,0.3,1.1,0.3,1.8c1-2.4,1.9-1.8,1.8-5.8
		c0.3,0.1,0.3-0.1,0.3-0.3c0.3,0,0.7,0.8,1.8,0.6c0.8,0.2,0.2,1.9,1.2,1.8c1,0.4,0.2-1,1.2-0.6c0.9,2.8,2.6,4.3,3,7
		c-0.9,0.2-1.1-0.3-1.8-0.3c-1.1,0.3-0.5-1-0.3-1.2c0.4-0.2,0.7-0.5,0.9-0.9c-1.1,0.3-2.1,1.9-3.1,0.6c0.2,0.9-0.4,0.8-0.3,1.5
		c0,0.2,0.1,0.3,0.3,0.3c0.2,0.1,0.6,0,0.6,0.3c0,0.1,0,0.2,0,0.3c-1.4,0.9-5.2,2-5.8,5.5c-0.9,0-1.1,0.7-1.5,1.2
		c-0.6,0.3,0.6,2.1-0.3,2.7c-0.7-0.4-1-1.2-1.2-2.1c-2.8-1.6-7.8,3.5-3,4.6c0.1,0,0.2,0,0.3,0c-0.1-1,1.7-1.4,1.8-0.3
		c-0.5,0.3-0.7,0.8-0.6,1.5c0,0.7,1.1,0.1,1.5,0.3c-0.1,1.3-0.6,2.5,0.9,2.7c0.2,0.1,0.6,0,0.6,0.3c1.2-0.1,1.3-1.3,2.4-1.5
		c0.7,0.6,2,0.9,4,0.9c0.4,1.9,2.7,1.9,4,3c0,0.5,0,1,0,1.5c2.2,0.6,3.8,1.7,5.8,2.4c-0.3,2.9-2.2,4.1-2.1,7.3
		c-0.8,0.4-1.6,0.8-2.4,1.2c-0.3,2-1.6,4.4-3.4,4c-0.1,0.7,0.6,0.6,0.3,1.5c-3.1,0.9-2.4,2.8-2.9,5.3c-0.8-0.3-1.6-0.7-2.3-1
		c-1.2-2.4,0.8-6.8,0.1-11.1c-0.6-3.4-5.4-5.3-4.5-9.3c0.5-0.7,1.2-1.2,1.5-2.1c-2.2-3.2-6.5-4.3-9.6-6.6c0.1-1.7-0.5-2.7-1.5-3.3
		c0.1,0.9,0.6,1.3,0.6,2.1c-2.1-2.1-2.9-5.3-3-8.4C4.1,92,7.9,86.7,12.8,82.7z M19,107.8c0.1,1.3-1.1,0.8-1.8,0.6
		C17.5,107.9,18.1,107.7,19,107.8z M13.5,106.6c0.8-1.3,2.9,0.5,3.7,1.2C15.5,107.8,15.3,106.4,13.5,106.6z"/>
</g>
<g>
	<path class="st4" d="M96.9,101.8c1.2,3.8,4,6.2,4,6.2l-0.1,6.2c0,0-1.6,0.9-8.2,3.6s-10.2,5.8-12.2,8.8c-1.8,2.7-4.3,14.4-4.3,14.4
		h33h33c0,0-1.9-11.3-3.7-14c-2-3-6.2-6.6-12.8-9.3s-8.2-3.6-8.2-3.6V108c1-0.5,2.8-2.4,3.9-6.1c0,0,1.3-4,1.3-8.3
		c0-2-0.2-7-0.4-8.4c-0.4-5-5.4-10.2-13.1-10.2s-12.7,5.2-13.2,10.2c-0.1,1.4-0.5,7-0.4,8.8C95.6,97,96.9,101.8,96.9,101.8z"/>
</g>
<g>
	<path class="st3" d="M193.4,0.5h-34.2v65h52.7V19.1L193.4,0.5z"/>
	<rect x="167.4" y="33" class="st2" width="35.2" height="4.1"/>
	<rect x="167.4" y="23.1" class="st2" width="20.1" height="4.1"/>
	<rect x="167.4" y="42.9" class="st2" width="35.2" height="4.1"/>
	<polyline fill="#1C79AD" points="193.4,0.5 193.4,19.1 212,19.1 	"/>
</g>
<circle class="st3" cx="205" cy="107.9" r="6.7"/>
<path class="st3" d="M189.6,128.5c0,0-10.9-6.2-10.3-21c0.7-14.8,10.3-20.1,10.3-20.1l7.8,6.3c0,0-7.8,5.7-8,14.2
	c-0.1,8.5,7.3,14.8,7.3,14.8L189.6,128.5z"/>
<path class="st3" d="M174.7,140.6c0,0-16.9-14.1-16.3-32.4c0.6-20,16.4-32.8,16.4-32.8l7.8,6.3c0,0-14.3,9.1-14.1,26.9
	c0.1,15.7,13.4,26.1,13.4,26.1L174.7,140.6z"/>
<g>
	<path class="st3" d="M262,0.5c-4.9,0-9.6,1.1-13.8,3.1l0,0c-0.4,0.2-0.8,0.4-1.2,0.6c0,0,0,0,0.1,0c-0.1,0-0.2,0.1-0.2,0.1l0,0
		c-0.2,0.1-0.5,0.2-0.7,0.4c0,0,0,0,0.1,0c-0.2,0.1-0.5,0.3-0.8,0.4l0,0c0.1-0.1,0.3-0.2,0.4-0.2c-0.1,0.1-0.3,0.2-0.4,0.2l0,0
		c-0.1,0-0.1,0.1-0.2,0.1c0,0,0,0,0.1,0c-0.1,0.1-0.2,0.1-0.4,0.2V5.3l0,0l0,0c0,0,0,0-0.1,0l0,0c-0.1,0-0.1,0.1-0.2,0.1
		c0,0,0,0,0.1,0c-0.2,0.1-0.3,0.2-0.5,0.3c0.1-0.1,0.2-0.2,0.3-0.2c-0.1,0-0.2,0.1-0.3,0.2c0,0,0,0,0,0.1l0,0l0,0l0,0l0,0l0,0l0,0
		c-0.9,0.6-1.8,1.2-2.6,1.9c0,0,0,0,0,0.1c-7.4,5.8-12.2,14.9-12.2,25.2c0,18,14.5,32.5,32.5,32.5S294.5,51,294.5,33
		S280,0.5,262,0.5z M285.3,11.3c0,0.1,0.1,0.1,0.1,0.2c-0.8,0.2-0.8-0.4-1.5-0.3c0.3,0.5,0.5,1.6,1.2,0.9c0.1,0.4,0.4,0.1,0.7-0.2
		c4.6,5.2,7.5,12,7.9,19.4c-0.4,0-0.8,0-1.2,0c1.9,2.9-2.1,4.2-3.9,5.4c0.5,1.2,1.7-0.4,2.4,0.3c-0.3,3-2.4,4.2-3.9,6
		c0.1,2.3,0.2,2.9,0,5.1c-3.1,2.1-3.2,8.5-8.1,7.8c-0.8-2.2-0.8-5.2-1.8-7.2c2-2.9-0.8-4.8-0.6-8.4c-0.4-0.5-1.6-0.2-1.5-1.2
		c-1.9,0.7-3.2,0.4-5.1,0.6c-1.4-0.8-1.9-2.3-3-3.3c1-2.9-0.6-6,2.7-7.2c-0.2-3.6,5.5-4.1,7.8-3.3c0,0.4,0,0.8,0,1.2
		c1.2,0.2,1.7,1.1,2.7,1.5c-0.1-0.8,0.5-0.9,0.9-1.2c0.9,0.6,0.7,1.4,2.1,0.9c0.5,0.2,1.8-0.4,1.8,0.3c0.4-0.3,0.4-1,0.6-1.5
		c-0.3-1-1.9-0.8-2.7-1.2c-0.4-0.4-0.4-1.4,0-1.8c-1.9-0.1-0.3,1.4-1.5,1.8c-0.2,0-0.4,0-0.6,0c0.3-1-0.5-0.9-0.6-1.5
		c-0.9-0.1-1.1,2-2.1,0.9c2.1-0.3-1.2-3-1.5-1.8c-0.1-0.4,0.1-1.1-0.3-1.2c-1.1,0.3-1.8,1-2.7,1.5c0,0.4,0,0.8,0,1.2
		c-0.3,0.1-0.5,0.3-0.6,0.6c-0.9,0-1.8,0-2.7,0c0-0.4-0.4-0.4-0.3-0.9c0.5-0.7,0-2.2,0.9-2.4c0.9-0.4,1.5,0.8,1.8,0
		c0.1,0,0.2,0,0.3,0c0.1-1.1-0.6-1.4-0.9-2.1c0-0.6,1-0.2,0.9-0.9c2.6-0.1,2.6-2.8,4.2-3.9c-0.2,0.3-0.4,0.8-0.3,1.5
		c1.1,0.3,0.5-1.6,0.3-1.8c-0.7-0.1-1.2,0-1.5,0.3c-0.4-0.4-0.2-1.4-0.6-1.8c1.9-1.7,2.5-4.7,5.7-5.1c1,0.2,1.8,0.6,2.6,1
		C284.1,10.1,284.7,10.7,285.3,11.3z M271.9,14.8c1.6,0.3,1.1,2.7,2.4,3.3c0,0.2,0,0.4,0,0.6c-0.7-0.1-0.7,0.5-1.5,0.3
		c-0.6-0.1-0.7,0.3-1.2,0.3C272.8,17.7,271.3,16.4,271.9,14.8z M271.6,18.4c-0.5,0-1,0-1.5,0c-0.1-1.1,0.2-1.8,1.2-1.8
		C271.7,17,271.7,17.7,271.6,18.4z M266.8,12.1c-0.3-0.6-0.9-0.9-0.9-1.8c1.2,0.3,1.8,0.3,3,0c0.1,0.2,0.3,0.3,0.3,0.6
		C269.2,12.1,268.1,12.1,266.8,12.1z M265,13.9c-0.5,1.2-1.9,1.5-3,2.1c-0.3-0.1-0.2-0.3,0-0.3c0-0.6-1-0.2-1.2-0.6
		C260.5,11.4,265.3,10.6,265,13.9z M287.8,51.4c-0.8-2.3,0.9-3.2,1.8-5.1c0.9,0.7-0.4,1.8-0.3,2.7c-0.3,0.5-0.7,1-0.9,1.8
		c0,0,0,0,0,0.1C288.1,50.9,288,51.1,287.8,51.4z M266.9,1.5C266.9,1.6,266.9,1.6,266.9,1.5c0.1,0.1,0.4,0.1,0.6,0.1
		c0.5,0.1,1,0.2,1.5,0.3c-0.5,0.2-0.6,0.8-1.2,0.9c-0.2,0.9,0.3,1.1,0.3,1.8c-0.5,0.1-0.8-0.4-0.9,0c1,1.3-1.5,2.5,0,3.6
		c-2.2,1.1-5.3,1.3-6.7,3.3c-0.6,0.8-0.9,1.9-1.8,2.4c-2.1-0.6-2.5-4.1-1.9-5.5c0.1,0,0.1-0.1,0.1-0.2c0,0.1-0.1,0.1-0.1,0.2
		c-0.1,0.1-0.4,0.1-0.5-0.2c1.4-4-3.4-2.8-4.2-5.1c0.5-0.4,1.9,0.1,1.8-0.9h-0.1c2.6-0.7,5.4-1.1,8.2-1.1
		C263.7,1.2,265.3,1.3,266.9,1.5z M247,4.9c0.6,0.2,1.1,0.3,1.8-0.3c-0.4,0-0.9,0-1.2,0c1.4-0.7,2.9-1.3,4.4-1.8
		c-1.2,0.6-1.9,1.6-2.6,2.7c-1.4,0.1-2.5,0.3-3.4-0.1C246.4,5.3,246.7,5.1,247,4.9z M245.6,5.7c0.1,0.1,0.2,0.2,0.5,0.1
		c-0.3,0.7-0.9,1.1-1.8,1.2c0.2-0.3,0.3-0.5,0.4-0.7C245,6.1,245.3,5.9,245.6,5.7z M242.1,8.1l0.1,0.1c-0.1,0.8-1.1,0.7-1.5,1.2
		c2,0.6,2.1-1.8,3.3-0.3c0.1-0.7-0.5-0.6-0.3-1.5c0.4,0,0.4-0.4,0.9-0.3c0.1,1.7,1.1,0.9,1.5,2.1c0.1-0.3,0.3-0.5,0.6-0.6
		c0.3-1.1-1.1-0.5-0.9-1.5c0-1.7,2.5-0.9,3.6-1.5c0,0.5,0.8,0.2,0.9,0.6c-0.4,0-2.2,0-1.2,0.3c3.1-0.2,3,2,4.8,3.6
		c-0.6-0.1-0.6,0.4-0.9,0.6c-0.4,0-0.9-1.2-1.2-0.3c0.7,0,0.7,0.8,0.6,1.5c-1.5-0.5-0.2,0-0.9,0.6c-1.1-0.6-2-1.4-3.3-1.8
		c0.7-0.3,1.7-0.3,1.8-1.2c0.2-0.9-0.8-0.6-0.6-1.5c-0.4,0-2.5-0.1-1.5,0.3c0.2,1.4-0.9,1.3-1.2,2.1c0.4,0.3,1,0.4,0.9,1.2
		c-0.2-0.2-0.5-0.3-0.9-0.3c-0.4,0.1-0.3,0.6,0,0.6c0,0.5-1.4-0.1-1.2-0.9c-1.4,0.5-2.1,1.7-3,2.7c0.3,1.1,1.4,1.4,2.4,1.8
		c0.2,0.1,0.5,0.3,0.9,0.3c-0.2,0.9,0.3,1.1,0.3,1.8c1-2.4,1.9-1.8,1.8-5.7c0.2,0.1,0.3-0.1,0.3-0.3c0.3,0,0.7,0.8,1.8,0.6
		c0.8,0.2,0.1,1.8,1.2,1.8c1,0.4,0.2-1,1.2-0.6c0.9,2.8,2.6,4.2,3,6.9c-0.9,0.2-1.1-0.3-1.8-0.3c-1,0.3-0.5-1-0.3-1.2
		c0.4-0.2,0.7-0.5,0.9-0.9c-1.1,0.3-2,1.9-3,0.6c0.2,0.8-0.4,0.8-0.3,1.5c-0.1,0.2,0.1,0.3,0.3,0.3c0.2,0.1,0.6,0,0.6,0.3
		c0,0.1,0,0.2,0,0.3c-1.4,0.9-5.1,2-5.7,5.4c-0.9,0-1.1,0.7-1.5,1.2c-0.6,0.3,0.6,2.1-0.3,2.7c-0.7-0.4-1-1.2-1.2-2.1
		c-2.7-1.6-7.7,3.4-3,4.5c0.1,0,0.2,0,0.3,0c-0.1-0.9,1.6-1.3,1.8-0.3c-0.4,0.2-0.6,0.8-0.6,1.5c0,0.6,1.1,0.1,1.5,0.3
		c-0.1,1.3-0.6,2.5,0.9,2.7c0.2,0.1,0.6,0,0.6,0.3c1.2-0.1,1.3-1.3,2.4-1.5c0.7,0.6,1.9,0.9,3.9,0.9c0.4,1.9,2.7,1.9,3.9,3
		c0,0.5,0,1,0,1.5c2.2,0.6,3.7,1.7,5.7,2.4c-0.3,2.8-2.1,4.1-2.1,7.2c-0.8,0.4-1.6,0.8-2.4,1.2c-0.3,2-1.6,4.3-3.3,3.9
		c-0.1,0.7,0.5,0.6,0.3,1.5c-3.1,0.9-2.4,2.7-2.9,5.2c-0.8-0.3-1.6-0.7-2.3-1c-1.2-2.3,0.8-6.7,0.1-10.9c-0.6-3.3-5.3-5.2-4.4-9.2
		c0.5-0.7,1.2-1.2,1.5-2.1c-2.2-3.2-6.4-4.3-9.5-6.5c0.1-1.7-0.5-2.6-1.5-3.3c0,0.9,0.5,1.2,0.6,2.1c-2.1-2.1-2.9-5.3-3-8.3
		C233.6,17.3,237.3,12,242.1,8.1z M248.2,32.8c0.1,1.3-1.1,0.8-1.8,0.6C246.7,32.9,247.4,32.7,248.2,32.8z M242.8,31.6
		c0.8-1.3,2.9,0.5,3.6,1.2C244.8,32.8,244.6,31.5,242.8,31.6z"/>
</g>
</svg>
