<?xml version="1.0" encoding="utf-8"?>
<!DOCTYPE svg PUBLIC "-//W3C//DTD SVG 1.1//EN" "http://www.w3.org/Graphics/SVG/1.1/DTD/svg11.dtd">
<svg version="1.1" id="Calque_1" xmlns="http://www.w3.org/2000/svg" xmlns:xlink="http://www.w3.org/1999/xlink" x="0px" y="0px"
	 width="872px" height="72px" viewBox="0 0 872 72" style="enable-background:new 0 0 872 72;" xml:space="preserve">
<style type="text/css"><![CDATA[
	.st0{opacity:3.000000e-02;fill:#3D3D3C;enable-background:new;} .st1{opacity:0.75;} .st2{fill:#F2EEE7;} .st3{fill:#F3F0E9;} .st4{opacity:0.13;fill:none;stroke:#000000;stroke-width:0.75;enable-background:new;} .st5{fill:#DEDBD6;stroke:#D5D5D3;stroke-miterlimit:10;} .st6{opacity:0.13;fill:none;stroke:#000000;stroke-width:2;enable-background:new;} .st7{opacity:0.1;}
	.st8{opacity:0.1;fill:#3D3D3C;enable-background:new;} .st9{fill:#3D3D3C;} .st10{opacity:0.1;enable-background:new;} 
	.st11{opacity:0.13;fill:#3D3D3C;stroke:#000000;stroke-width:2;enable-background:new;}
]]></style>
<rect x="0.2" y="0.2" class="st3" width="872" height="72"/>
<g class="st1">
		<rect x="818.8" y="15.2" transform="matrix(-1 -4.651204e-03 4.651204e-03 -1 1640.511 37.2454)" class="st11" width="2.9" height="3"/>
		<rect x="806.3" y="40.3" transform="matrix(-1 -3.986738e-03 3.986738e-03 -1 1615.3601 86.8509)" class="st11" width="2.9" height="3"/>
		<rect x="799.2" y="25.1" transform="matrix(-1 -4.651204e-03 4.651204e-03 -1 1601.3054 56.8144)" class="st11" width="2.9" height="3"/>
		<rect x="861.2" y="34.2" transform="matrix(-1 -4.317421e-03 4.317421e-03 -1 1725.2334 75.155)" class="st11" width="2.9" height="3"/>
		<rect x="840.8" y="40.5" transform="matrix(-1 -5.296118e-03 5.296118e-03 -1 1684.2592 88.3917)" class="st11" width="3" height="3"/>
		<rect x="723.6" y="52.6" transform="matrix(-1 -4.634276e-03 4.634276e-03 -1 1449.8674 111.5803)" class="st11" width="3" height="3"/>
		<rect x="761.2" y="38.9" transform="matrix(-1 -4.651204e-03 4.651204e-03 -1 1525.1008 84.2773)" class="st11" width="2.9" height="3"/>
		<rect x="743.4" y="30.9" transform="matrix(-1 -4.634276e-03 4.634276e-03 -1 1489.6477 68.2022)" class="st11" width="3" height="3"/>
		<rect x="773.2" y="5.4" transform="matrix(-1 -4.649535e-03 4.649535e-03 -1 1549.3159 17.4319)" class="st11" width="2.9" height="3"/>
		<rect x="704.2" y="62.3" transform="matrix(-1 -4.649535e-03 4.649535e-03 -1 1410.9905 130.9218)" class="st11" width="2.9" height="3"/>
	<polyline class="st6" points="700.8,42 742.8,43.4 762.1,56.9 800.7,1.3 	"/>
	<polyline class="st6" points="873.5,65.3 834.4,18.9 819.3,59.3 780.2,56.9 769.1,72.3 	"/>
	<path class="st4" d="M731.2,2.7"/>
</g>
<polygon class="st2" points="724.9,0.3 687.6,72 144.7,71.2 144.7,-0.4 "/>
<g>
	<rect x="554.9" y="32" class="st8" width="7.5" height="7.7"/>
	<rect x="554.9" y="47.5" class="st8" width="7.5" height="7.7"/>
	<rect x="547.3" y="39.8" class="st8" width="7.5" height="7.7"/>
	<rect x="562.4" y="39.8" class="st8" width="7.5" height="7.7"/>
	<rect x="570" y="47.5" class="st8" width="7.5" height="7.7"/>
	<rect x="562.4" y="24.3" class="st8" width="7.5" height="7.7"/>
	<rect x="562.4" y="8.9" class="st8" width="7.5" height="7.7"/>
	<rect x="570" y="32" class="st8" width="7.5" height="7.7"/>
	<rect x="577.5" y="39.8" class="st8" width="7.5" height="7.7"/>
	<rect x="547.4" y="55.2" class="st8" width="7.5" height="7.7"/>
	<rect x="539.8" y="47.6" class="st8" width="7.5" height="7.7"/>
	<rect x="539.9" y="63.6" class="st8" width="7.5" height="7.7"/>
	<rect x="562.4" y="55.2" class="st8" width="7.5" height="7.7"/>
	<rect x="577.5" y="55.2" class="st8" width="7.5" height="7.7"/>
	<rect x="585" y="47.5" class="st8" width="7.5" height="7.7"/>
	<rect x="592.5" y="55.2" class="st8" width="7.5" height="7.7"/>
	<rect x="592.5" y="39.8" class="st8" width="7.5" height="7.7"/>
	<rect x="585" y="32" class="st8" width="7.5" height="7.7"/>
	<rect x="577.5" y="24.3" class="st8" width="7.5" height="7.7"/>
	<rect x="570" y="16.6" class="st8" width="7.5" height="7.7"/>
	<rect x="577.5" y="8.9" class="st8" width="7.5" height="7.7"/>
	<rect x="570" y="1.2" class="st8" width="7.5" height="7.7"/>
	<rect x="585" y="1.2" class="st8" width="7.5" height="7.7"/>
	<rect x="592.5" y="8.9" class="st8" width="7.5" height="7.7"/>
	<rect x="585" y="16.6" class="st8" width="7.5" height="7.7"/>
	<rect x="592.5" y="24.3" class="st8" width="7.5" height="7.7"/>
	<rect x="600" y="1.2" class="st8" width="7.5" height="7.7"/>
	<rect x="607.6" y="8.9" class="st8" width="7.5" height="7.7"/>
	<rect x="615.1" y="16.6" class="st8" width="7.5" height="7.7"/>
	<rect x="607.6" y="24.3" class="st8" width="7.5" height="7.7"/>
	<rect x="615.1" y="32" class="st8" width="7.5" height="7.7"/>
	<rect x="607.6" y="39.8" class="st8" width="7.5" height="7.7"/>
	<rect x="615.1" y="47.5" class="st8" width="7.5" height="7.7"/>
	<rect x="600" y="16.6" class="st8" width="7.5" height="7.7"/>
	<rect x="600" y="32" class="st8" width="7.5" height="7.7"/>
	<rect x="600" y="47.5" class="st8" width="7.5" height="7.7"/>
	<rect x="622.6" y="39.8" class="st8" width="7.5" height="7.7"/>
	<rect x="630.1" y="47.5" class="st8" width="7.5" height="7.7"/>
	<rect x="622.6" y="24.3" class="st8" width="7.5" height="7.7"/>
	<rect x="630.1" y="32" class="st8" width="7.5" height="7.7"/>
	<rect x="637.6" y="39.8" class="st8" width="7.5" height="7.7"/>
	<rect x="607.6" y="55.2" class="st8" width="7.5" height="7.7"/>
	<rect x="622.6" y="55.2" class="st8" width="7.5" height="7.7"/>
	<rect x="637.6" y="55.2" class="st8" width="7.5" height="7.7"/>
	<rect x="645.2" y="47.5" class="st8" width="7.5" height="7.7"/>
	<rect x="652.7" y="55.2" class="st8" width="7.5" height="7.7"/>
	<rect x="652.7" y="39.8" class="st8" width="7.5" height="7.7"/>
	<rect x="645.2" y="32" class="st8" width="7.5" height="7.7"/>
	<rect x="637.6" y="24.3" class="st8" width="7.5" height="7.7"/>
	<rect x="630.1" y="16.6" class="st8" width="7.5" height="7.7"/>
	<rect x="622.6" y="8.9" class="st8" width="7.5" height="7.7"/>
	<rect x="615.1" y="1.2" class="st8" width="7.5" height="7.7"/>
	<rect x="630.1" y="1.2" class="st8" width="7.5" height="7.7"/>
	<rect x="637.6" y="8.9" class="st8" width="7.5" height="7.7"/>
	<rect x="645.2" y="1.2" class="st8" width="7.5" height="7.7"/>
	<rect x="652.7" y="8.9" class="st8" width="7.5" height="7.7"/>
	<rect x="645.2" y="16.6" class="st8" width="7.5" height="7.7"/>
	<rect x="652.7" y="24.3" class="st8" width="7.5" height="7.7"/>
	<rect x="660.2" y="1.2" class="st8" width="7.5" height="7.7"/>
	<rect x="667.7" y="8.9" class="st8" width="7.5" height="7.7"/>
	<rect x="675.2" y="16.6" class="st8" width="7.5" height="7.7"/>
	<rect x="667.7" y="24.3" class="st8" width="7.5" height="7.7"/>
	<rect x="675.2" y="32" class="st8" width="7.5" height="7.7"/>
	<rect x="667.7" y="39.8" class="st8" width="7.5" height="7.7"/>
	<rect x="675.2" y="47.5" class="st8" width="7.5" height="7.7"/>
	<rect x="660.2" y="16.6" class="st8" width="7.5" height="7.7"/>
	<rect x="660.2" y="32" class="st8" width="7.5" height="7.7"/>
	<rect x="660.2" y="47.5" class="st8" width="7.5" height="7.7"/>
	<rect x="682.8" y="39.8" class="st8" width="7.5" height="7.7"/>
	<rect x="682.8" y="24.3" class="st8" width="7.5" height="7.7"/>
	<rect x="690.3" y="32" class="st8" width="7.5" height="7.7"/>
	<rect x="667.7" y="55.2" class="st8" width="7.5" height="7.7"/>
	<rect x="682.8" y="55.2" class="st8" width="7.5" height="7.7"/>
	<rect x="697.8" y="24.3" class="st8" width="7.5" height="7.7"/>
	<rect x="690.3" y="16.6" class="st8" width="7.5" height="7.7"/>
	<rect x="682.8" y="8.9" class="st8" width="7.5" height="7.7"/>
	<rect x="675.2" y="1.2" class="st8" width="7.5" height="7.7"/>
	<rect x="690.3" y="1.2" class="st8" width="7.5" height="7.7"/>
	<rect x="697.8" y="8.9" class="st8" width="7.5" height="7.7"/>
	<rect x="705.3" y="1.2" class="st8" width="7.5" height="7.7"/>
	<rect x="705.3" y="16.6" class="st8" width="7.5" height="7.7"/>
	<rect x="554.9" y="63.6" class="st8" width="7.5" height="7.7"/>
	<rect x="570" y="63.6" class="st8" width="7.5" height="7.7"/>
	<rect x="585" y="63.6" class="st8" width="7.5" height="7.7"/>
	<rect x="615.1" y="63.6" class="st8" width="7.5" height="7.7"/>
	<rect x="600" y="63.6" class="st8" width="7.5" height="7.7"/>
	<rect x="630.1" y="63.6" class="st8" width="7.5" height="7.7"/>
	<rect x="645.2" y="63.6" class="st8" width="7.5" height="7.7"/>
	<rect x="675.2" y="63.6" class="st8" width="7.5" height="7.7"/>
	<rect x="660.2" y="63.6" class="st8" width="7.5" height="7.7"/>
	<polygon class="st8" points="690.3,47.3 690.3,55 696.1,55 697.8,51.6 697.8,47.3 	"/>
	<polygon class="st8" points="697.8,39.8 697.8,47.5 699.9,47.5 703.9,39.8 	"/>
	<polygon class="st8" points="712.6,8.9 712.6,16.6 715.8,16.6 719.7,8.9 	"/>
	<polygon class="st8" points="719.7,1.2 719.7,8.1 723.3,1.2 	"/>
	<g class="st7">
		<polygon class="st0" points="690.3,63.6 690.3,66.7 691.9,63.6 		"/>
		<polygon class="st0" points="690.3,71.3 697.8,71.3 697.8,71.3 		"/>
	</g>
	<g class="st10">
		<polygon class="st0" points="707.1,31.9 705.4,31.9 705.4,35.2 		"/>
		<polygon class="st9" points="705.4,32.1 707.4,32.1 705.4,35.4 		"/>
	</g>
	<g class="st10">
		<polygon class="st0" points="691.8,62.9 690.1,62.9 690.1,66.2 		"/>
		<polygon class="st9" points="690.1,63 692.1,63 690.1,66.3 		"/>
	</g>
</g>
<polygon class="st5" points="574.5,0.3 537.7,72 1.1,71.2 1.1,-0.4 "/>
</svg>
