<?xml version="1.0" encoding="utf-8"?>
<!DOCTYPE svg PUBLIC "-//W3C//DTD SVG 1.1//EN" "http://www.w3.org/Graphics/SVG/1.1/DTD/svg11.dtd">
<svg version="1.1" id="Calque_1" xmlns="http://www.w3.org/2000/svg" xmlns:xlink="http://www.w3.org/1999/xlink" x="0px" y="0px"
	 width="872px" height="72px" viewBox="0 0 872 72" style="enable-background:new 0 0 872 72;" xml:space="preserve">
<style type="text/css"><![CDATA[
	.st0{opacity:0.13;fill:#3D3D3C;stroke:#CCCCCC;stroke-width:2;enable-background:new;} 
	.st1{opacity:0.13;fill:none;stroke:#CCCCCC;stroke-width:0.75;enable-background:new;}
	.st2{fill:#4D4D4D;} .st3{opacity:0.75;} .st4{opacity:3.000000e-02;fill:#CCCCCC;enable-background:new;} .st5{fill:#5B5B5B;}
	.st6{opacity:0.13;fill:none;stroke:#000000;stroke-width:2;enable-background:new;}
	.st7{opacity:0.13;fill:none;stroke:#CCCCCC;stroke-width:2;enable-background:new;}
	.st8{opacity:0.1;} .st9{fill:#CCCCCC;} .st10{opacity:0.1;fill:#CCCCCC;enable-background:new;}
	.st11{opacity:0.1;enable-background:new;} .st12{opacity:0.13;fill:#3D3D3C;stroke:#000000;stroke-width:2;enable-background:new;}
]]></style>
<rect x="-0.9" y="0.2" class="st2" width="872" height="72"/>
<g class="st3">
	<rect x="817.7" y="15.2" transform="matrix(1 4.649568e-03 -4.649568e-03 1 8.654785e-02 -3.8087)" class="st0" width="2.9" height="3"/>
	<rect x="805.2" y="40.3" transform="matrix(1 3.986679e-03 -3.986679e-03 1 0.1731 -3.2156)" class="st0" width="2.9" height="3"/>
	<rect x="798.1" y="25" transform="matrix(1 4.651112e-03 -4.651112e-03 1 0.1321 -3.7188)" class="st0" width="2.9" height="3"/>
	<rect x="860.1" y="34.2" transform="matrix(1 4.649568e-03 -4.649568e-03 1 0.1754 -4.0057)" class="st0" width="2.9" height="3"/>
	<rect x="839.7" y="40.5" transform="matrix(1 5.315539e-03 -5.315539e-03 1 0.235 -4.4705)" class="st0" width="2.9" height="3"/>
	<rect x="722.5" y="52.6" transform="matrix(1 4.634177e-03 -4.634177e-03 1 0.2585 -3.3544)" class="st0" width="3" height="3"/>
	<rect x="760.1" y="38.9" transform="matrix(1 4.651112e-03 -4.651112e-03 1 0.196 -3.5416)" class="st0" width="2.9" height="3"/>
	<rect x="742.3" y="30.9" transform="matrix(1 4.634177e-03 -4.634177e-03 1 0.158 -3.4465)" class="st0" width="3" height="3"/>
	<rect x="772.1" y="5.4" transform="matrix(1 4.318897e-03 -4.318897e-03 1 3.698730e-02 -3.3409)" class="st0" width="2.9" height="3"/>
	<rect x="688.9" y="16.7" transform="matrix(1 4.634177e-03 -4.634177e-03 1 9.173584e-02 -3.1991)" class="st12" width="3" height="3"/>
	<rect x="620.8" y="43.4" transform="matrix(1 4.651112e-03 -4.651112e-03 1 0.2155 -2.8936)" class="st12" width="2.9" height="3"/>
	<rect x="608.2" y="8.7" transform="matrix(1 4.483515e-03 -4.483515e-03 1 5.175781e-02 -2.7334)" class="st12" width="2.9" height="3"/>
	<rect x="574.1" y="49.7" transform="matrix(1 4.651112e-03 -4.651112e-03 1 0.2441 -2.6766)" class="st12" width="2.9" height="3"/>
	<rect x="529.5" y="10.2" transform="matrix(1 4.317462e-03 -4.317462e-03 1 5.541992e-02 -2.2925)" class="st12" width="2.9" height="3"/>
	<rect x="546.6" y="18.2" transform="matrix(1 5.315539e-03 -5.315539e-03 1 0.1123 -2.9128)" class="st12" width="2.9" height="3"/>
	<rect x="535.1" y="53.4" transform="matrix(1 4.649568e-03 -4.649568e-03 1 0.261 -2.4941)" class="st12" width="2.9" height="3"/>
	<rect x="560.7" y="32.4" transform="matrix(1 4.634177e-03 -4.634177e-03 1 0.163 -2.6051)" class="st12" width="3" height="3"/>
	<rect x="505.5" y="51.2" transform="matrix(1 4.634177e-03 -4.634177e-03 1 0.2495 -2.3487)" class="st12" width="3" height="3"/>
	<rect x="652.8" y="8.7" transform="matrix(1 4.649568e-03 -4.649568e-03 1 5.438232e-02 -3.042)" class="st12" width="2.9" height="3"/>
	<rect x="703.1" y="62.3" transform="matrix(1 4.634177e-03 -4.634177e-03 1 0.3033 -3.2643)" class="st0" width="3" height="3"/>
	<polyline class="st6" points="501.4,21.1 549,45.8 599.5,41.8 620.8,16.6 669.9,23.1 689.5,1.3 	"/>
	<polyline class="st7" points="620.8,72.3 652.8,40.5 741.8,43.4 761,56.9 799.6,1.3 	"/>
	<polyline class="st7" points="872.4,65.3 833.3,18.9 818.2,59.3 779.1,56.9 768,72.3 	"/>
	<path class="st1" d="M730.1,2.7"/>
	<rect x="657.6" y="52.6" transform="matrix(1 5.315539e-03 -5.315539e-03 1 0.297 -3.5025)" class="st12" width="2.9" height="3"/>
	<rect x="708.7" y="10.2" transform="matrix(1 4.485005e-03 -4.485005e-03 1 5.957031e-02 -3.1851)" class="st0" width="2.9" height="3"/>
</g>
<polygon class="st2" points="717,0.3 680.2,72 143.6,71.2 143.6,-0.4 "/>
<g>
	<rect x="547.8" y="32" class="st10" width="7.5" height="7.7"/>
	<rect x="547.8" y="47.5" class="st10" width="7.5" height="7.7"/>
	<rect x="555.3" y="39.8" class="st10" width="7.5" height="7.7"/>
	<rect x="562.8" y="47.5" class="st10" width="7.5" height="7.7"/>
	<rect x="555.3" y="24.3" class="st10" width="7.5" height="7.7"/>
	<rect x="562.8" y="32" class="st10" width="7.5" height="7.7"/>
	<rect x="570.3" y="39.8" class="st10" width="7.5" height="7.7"/>
	<rect x="540.2" y="55.2" class="st10" width="7.5" height="7.7"/>
	<rect x="532.7" y="63.6" class="st10" width="7.5" height="7.7"/>
	<rect x="555.3" y="55.2" class="st10" width="7.5" height="7.7"/>
	<rect x="570.3" y="55.2" class="st10" width="7.5" height="7.7"/>
	<rect x="577.8" y="47.5" class="st10" width="7.5" height="7.7"/>
	<rect x="585.4" y="55.2" class="st10" width="7.5" height="7.7"/>
	<rect x="585.4" y="39.8" class="st10" width="7.5" height="7.7"/>
	<rect x="577.8" y="32" class="st10" width="7.5" height="7.7"/>
	<rect x="570.3" y="24.3" class="st10" width="7.5" height="7.7"/>
	<rect x="562.8" y="16.6" class="st10" width="7.5" height="7.7"/>
	<rect x="570.3" y="8.9" class="st10" width="7.5" height="7.7"/>
	<rect x="577.8" y="1.2" class="st10" width="7.5" height="7.7"/>
	<rect x="585.4" y="8.9" class="st10" width="7.5" height="7.7"/>
	<rect x="577.8" y="16.6" class="st10" width="7.5" height="7.7"/>
	<rect x="585.4" y="24.3" class="st10" width="7.5" height="7.7"/>
	<rect x="592.9" y="1.2" class="st10" width="7.5" height="7.7"/>
	<rect x="600.4" y="8.9" class="st10" width="7.5" height="7.7"/>
	<rect x="607.9" y="16.6" class="st10" width="7.5" height="7.7"/>
	<rect x="600.4" y="24.3" class="st10" width="7.5" height="7.7"/>
	<rect x="607.9" y="32" class="st10" width="7.5" height="7.7"/>
	<rect x="600.4" y="39.8" class="st10" width="7.5" height="7.7"/>
	<rect x="607.9" y="47.5" class="st10" width="7.5" height="7.7"/>
	<rect x="592.9" y="16.6" class="st10" width="7.5" height="7.7"/>
	<rect x="592.9" y="32" class="st10" width="7.5" height="7.7"/>
	<rect x="592.9" y="47.5" class="st10" width="7.5" height="7.7"/>
	<rect x="615.5" y="39.8" class="st10" width="7.5" height="7.7"/>
	<rect x="623" y="47.5" class="st10" width="7.5" height="7.7"/>
	<rect x="615.5" y="24.3" class="st10" width="7.5" height="7.7"/>
	<rect x="623" y="32" class="st10" width="7.5" height="7.7"/>
	<rect x="630.5" y="39.8" class="st10" width="7.5" height="7.7"/>
	<rect x="600.4" y="55.2" class="st10" width="7.5" height="7.7"/>
	<rect x="615.5" y="55.2" class="st10" width="7.5" height="7.7"/>
	<rect x="630.5" y="55.2" class="st10" width="7.5" height="7.7"/>
	<rect x="638" y="47.5" class="st10" width="7.5" height="7.7"/>
	<rect x="645.5" y="55.2" class="st10" width="7.5" height="7.7"/>
	<rect x="645.5" y="39.8" class="st10" width="7.5" height="7.7"/>
	<rect x="638" y="32" class="st10" width="7.5" height="7.7"/>
	<rect x="630.5" y="24.3" class="st10" width="7.5" height="7.7"/>
	<rect x="623" y="16.6" class="st10" width="7.5" height="7.7"/>
	<rect x="615.5" y="8.9" class="st10" width="7.5" height="7.7"/>
	<rect x="607.9" y="1.2" class="st10" width="7.5" height="7.7"/>
	<rect x="623" y="1.2" class="st10" width="7.5" height="7.7"/>
	<rect x="630.5" y="8.9" class="st10" width="7.5" height="7.7"/>
	<rect x="638" y="1.2" class="st10" width="7.5" height="7.7"/>
	<rect x="645.5" y="8.9" class="st10" width="7.5" height="7.7"/>
	<rect x="638" y="16.6" class="st10" width="7.5" height="7.7"/>
	<rect x="645.5" y="24.3" class="st10" width="7.5" height="7.7"/>
	<rect x="653.1" y="1.2" class="st10" width="7.5" height="7.7"/>
	<rect x="660.6" y="8.9" class="st10" width="7.5" height="7.7"/>
	<rect x="668.1" y="16.6" class="st10" width="7.5" height="7.7"/>
	<rect x="660.6" y="24.3" class="st10" width="7.5" height="7.7"/>
	<rect x="668.1" y="32" class="st10" width="7.5" height="7.7"/>
	<rect x="660.6" y="39.8" class="st10" width="7.5" height="7.7"/>
	<rect x="668.1" y="47.5" class="st10" width="7.5" height="7.7"/>
	<rect x="653.1" y="16.6" class="st10" width="7.5" height="7.7"/>
	<rect x="653.1" y="32" class="st10" width="7.5" height="7.7"/>
	<rect x="653.1" y="47.5" class="st10" width="7.5" height="7.7"/>
	<rect x="675.6" y="39.8" class="st10" width="7.5" height="7.7"/>
	<rect x="675.6" y="24.3" class="st10" width="7.5" height="7.7"/>
	<rect x="683.1" y="32" class="st10" width="7.5" height="7.7"/>
	<rect x="660.6" y="55.2" class="st10" width="7.5" height="7.7"/>
	<rect x="675.6" y="55.2" class="st10" width="7.5" height="7.7"/>
	<rect x="690.7" y="24.3" class="st10" width="7.5" height="7.7"/>
	<rect x="683.1" y="16.6" class="st10" width="7.5" height="7.7"/>
	<rect x="675.6" y="8.9" class="st10" width="7.5" height="7.7"/>
	<rect x="668.1" y="1.2" class="st10" width="7.5" height="7.7"/>
	<rect x="683.1" y="1.2" class="st10" width="7.5" height="7.7"/>
	<rect x="690.7" y="8.9" class="st10" width="7.5" height="7.7"/>
	<rect x="698.2" y="1.2" class="st10" width="7.5" height="7.7"/>
	<rect x="698.2" y="16.6" class="st10" width="7.5" height="7.7"/>
	<rect x="547.8" y="63.6" class="st10" width="7.5" height="7.7"/>
	<rect x="562.8" y="63.6" class="st10" width="7.5" height="7.7"/>
	<rect x="577.8" y="63.6" class="st10" width="7.5" height="7.7"/>
	<rect x="607.9" y="63.6" class="st10" width="7.5" height="7.7"/>
	<rect x="592.9" y="63.6" class="st10" width="7.5" height="7.7"/>
	<rect x="623" y="63.6" class="st10" width="7.5" height="7.7"/>
	<rect x="638" y="63.6" class="st10" width="7.5" height="7.7"/>
	<rect x="668.1" y="63.6" class="st10" width="7.5" height="7.7"/>
	<rect x="653.1" y="63.6" class="st10" width="7.5" height="7.7"/>
	<polygon class="st10" points="683.1,47.3 683.1,55 688.9,55 690.7,51.6 690.7,47.3 	"/>
	<polygon class="st10" points="690.7,39.8 690.7,47.5 692.8,47.5 696.7,39.8 	"/>
	<polygon class="st10" points="705.4,8.9 705.4,16.6 708.6,16.6 712.6,8.9 	"/>
	<polygon class="st10" points="712.6,1.2 712.6,8.1 716.2,1.2 	"/>
	<g class="st8">
		<polygon class="st4" points="683.1,63.6 683.1,66.7 684.7,63.6 		"/>
		<polygon class="st4" points="683.1,71.3 690.7,71.3 690.7,71.3 		"/>
	</g>
	<g class="st11">
		<polygon class="st4" points="700,31.9 698.2,31.9 698.2,35.2 		"/>
		<polygon class="st9" points="698.2,32.1 700.2,32.1 698.2,35.4 		"/>
	</g>
	<g class="st11">
		<polygon class="st4" points="684.7,62.9 682.9,62.9 682.9,66.2 		"/>
		<polygon class="st9" points="682.9,63 685,63 682.9,66.3 		"/>
	</g>
</g>
<polygon class="st5" points="573.4,0.3 536.6,72 0,71.2 0,-0.4 "/>
</svg>
