<?xml version="1.0" encoding="utf-8"?>
<!DOCTYPE svg PUBLIC "-//W3C//DTD SVG 1.1//EN" "http://www.w3.org/Graphics/SVG/1.1/DTD/svg11.dtd">
<svg version="1.1" id="Calque_1" xmlns="http://www.w3.org/2000/svg" xmlns:xlink="http://www.w3.org/1999/xlink" x="0px" y="0px"
	 width="872px" height="72px" viewBox="0 0 872 72" enable-background="new 0 0 872 72" xml:space="preserve">
<rect x="-0.854" y="0.248" fill="#4D4D4D" width="872" height="72"/>
<g opacity="0.75">
		<rect x="817.739" y="15.177" transform="matrix(-1 -0.0046 0.0046 -1 1638.3335 37.1484)" opacity="0.13" fill="#3D3D3C" stroke="#CCCCCC" stroke-width="2" enable-background="new    " width="2.941" height="2.986"/>
		<rect x="805.208" y="40.335" transform="matrix(-1 -0.004 0.004 -1 1613.1833 86.8727)" opacity="0.13" fill="#3D3D3C" stroke="#CCCCCC" stroke-width="2" enable-background="new    " width="2.94" height="2.988"/>
		<rect x="798.153" y="25.011" transform="matrix(-1 -0.0046 0.0046 -1 1599.1172 56.7239)" opacity="0.13" fill="#3D3D3C" stroke="#CCCCCC" stroke-width="2" enable-background="new    " width="2.942" height="2.986"/>
		<rect x="860.137" y="34.181" transform="matrix(-1 -0.0046 0.0046 -1 1723.0428 75.3495)" opacity="0.13" fill="#3D3D3C" stroke="#CCCCCC" stroke-width="2" enable-background="new    " width="2.944" height="2.987"/>
		<rect x="839.679" y="40.468" transform="matrix(-1 -0.0053 0.0053 -1 1682.0673 88.3849)" opacity="0.13" fill="#3D3D3C" stroke="#CCCCCC" stroke-width="2" enable-background="new    " width="2.944" height="2.986"/>
		<rect x="722.502" y="52.59" transform="matrix(-1 -0.0046 0.0046 -1 1447.6914 111.5229)" opacity="0.13" fill="#3D3D3C" stroke="#CCCCCC" stroke-width="2" enable-background="new    " width="2.946" height="2.984"/>
		<rect x="760.087" y="38.834" transform="matrix(-1 -0.0046 0.0046 -1 1522.9226 84.19)" opacity="0.13" fill="#3D3D3C" stroke="#CCCCCC" stroke-width="2" enable-background="new    " width="2.944" height="2.986"/>
		<rect x="742.333" y="30.851" transform="matrix(-1 -0.0046 0.0046 -1 1487.4532 68.1396)" opacity="0.13" fill="#3D3D3C" stroke="#CCCCCC" stroke-width="2" enable-background="new    " width="2.946" height="2.986"/>
		<rect x="772.114" y="5.385" transform="matrix(-1 -0.0043 0.0043 -1 1547.135 17.0943)" opacity="0.13" fill="#3D3D3C" stroke="#CCCCCC" stroke-width="2" enable-background="new    " width="2.943" height="2.988"/>
		<rect x="688.9" y="16.67" transform="matrix(-1 -0.0046 0.0046 -1 1380.6543 39.5314)" opacity="0.13" fill="#3D3D3C" stroke="#000000" stroke-width="2" enable-background="new    " width="2.946" height="2.987"/>
		<rect x="620.777" y="43.35" transform="matrix(-1 -0.0046 0.0046 -1 1244.2832 92.5744)" opacity="0.13" fill="#3D3D3C" stroke="#000000" stroke-width="2" enable-background="new    " width="2.944" height="2.986"/>
		<rect x="608.215" y="8.652" transform="matrix(-1 -0.0046 0.0046 -1 1219.3193 23.1219)" opacity="0.13" fill="#3D3D3C" stroke="#000000" stroke-width="2" enable-background="new    " width="2.943" height="2.986"/>
		<rect x="574.136" y="49.635" transform="matrix(-1 -0.0046 0.0046 -1 1150.969 104.9269)" opacity="0.13" fill="#3D3D3C" stroke="#000000" stroke-width="2" enable-background="new    " width="2.941" height="2.982"/>
		<rect x="529.532" y="10.18" transform="matrix(-1 -0.0043 0.0043 -1 1061.9535 25.6361)" opacity="0.13" fill="#3D3D3C" stroke="#000000" stroke-width="2" enable-background="new    " width="2.944" height="2.987"/>
		<rect x="546.572" y="18.165" transform="matrix(-1 -0.0053 0.0053 -1 1095.9758 42.2234)" opacity="0.13" fill="#3D3D3C" stroke="#000000" stroke-width="2" enable-background="new    " width="2.944" height="2.986"/>
		<rect x="535.078" y="53.379" transform="matrix(-1 -0.0046 0.0046 -1 1072.8401 112.233)" opacity="0.13" fill="#3D3D3C" stroke="#000000" stroke-width="2" enable-background="new    " width="2.944" height="2.984"/>
		<rect x="560.76" y="32.341" transform="matrix(-1 -0.0046 0.0046 -1 1124.3027 70.2784)" opacity="0.13" fill="#3D3D3C" stroke="#000000" stroke-width="2" enable-background="new    " width="2.945" height="2.986"/>
		<rect x="505.474" y="51.145" transform="matrix(-1 -0.0046 0.0046 -1 1013.6448 107.6272)" opacity="0.13" fill="#3D3D3C" stroke="#000000" stroke-width="2" enable-background="new    " width="2.946" height="2.986"/>
		<rect x="652.818" y="8.652" transform="matrix(-1 -0.0046 0.0046 -1 1308.5259 23.3291)" opacity="0.13" fill="#3D3D3C" stroke="#000000" stroke-width="2" enable-background="new    " width="2.943" height="2.986"/>
		<rect x="703.087" y="62.307" transform="matrix(-1 -0.0046 0.0046 -1 1408.8164 130.8663)" opacity="0.13" fill="#3D3D3C" stroke="#CCCCCC" stroke-width="2" enable-background="new    " width="2.946" height="2.984"/>
	<polyline opacity="0.13" fill="none" stroke="#000000" stroke-width="2" enable-background="new    " points="501.422,21.131 
		548.999,45.847 599.45,41.782 620.769,16.629 669.902,23.149 689.447,1.313 	"/>
	<polyline opacity="0.13" fill="none" stroke="#CCCCCC" stroke-width="2" enable-background="new    " points="620.769,72.349 
		652.802,40.448 741.75,43.378 761.027,56.905 799.616,1.313 	"/>
	<polyline opacity="0.13" fill="none" stroke="#CCCCCC" stroke-width="2" enable-background="new    " points="872.372,65.263 
		833.339,18.937 818.228,59.345 779.069,56.905 768.034,72.349 	"/>
	<path opacity="0.13" fill="none" stroke="#CCCCCC" stroke-width="0.75" enable-background="new    " d="M730.068,2.717"/>
		<rect x="657.598" y="52.614" transform="matrix(-1 -0.0053 0.0053 -1 1317.8433 111.7095)" opacity="0.13" fill="#3D3D3C" stroke="#000000" stroke-width="2" enable-background="new    " width="2.944" height="2.984"/>
		<rect x="708.73" y="10.152" transform="matrix(-1 -0.0046 0.0046 -1 1420.3406 26.592)" opacity="0.13" fill="#3D3D3C" stroke="#CCCCCC" stroke-width="2" enable-background="new    " width="2.941" height="2.987"/>
</g>
<polygon fill="#4D4D4D" points="716.979,0.324 680.183,71.981 143.581,71.146 143.602,-0.349 "/>
<g>
	<rect x="547.771" y="32.031" opacity="0.1" fill="#CCCCCC" enable-background="new    " width="7.521" height="7.714"/>
	<rect x="547.771" y="47.459" opacity="0.1" fill="#CCCCCC" enable-background="new    " width="7.521" height="7.714"/>
	<rect x="555.29" y="39.745" opacity="0.1" fill="#CCCCCC" enable-background="new    " width="7.52" height="7.715"/>
	<rect x="562.812" y="47.459" opacity="0.1" fill="#CCCCCC" enable-background="new    " width="7.521" height="7.714"/>
	<rect x="555.292" y="24.317" opacity="0.1" fill="#CCCCCC" enable-background="new    " width="7.521" height="7.714"/>
	<rect x="562.812" y="32.031" opacity="0.1" fill="#CCCCCC" enable-background="new    " width="7.521" height="7.714"/>
	<rect x="570.333" y="39.745" opacity="0.1" fill="#CCCCCC" enable-background="new    " width="7.521" height="7.715"/>
	<rect x="540.251" y="55.173" opacity="0.1" fill="#CCCCCC" enable-background="new    " width="7.521" height="7.715"/>
	<rect x="532.731" y="63.563" opacity="0.1" fill="#CCCCCC" enable-background="new    " width="7.521" height="7.715"/>
	<rect x="555.292" y="55.173" opacity="0.1" fill="#CCCCCC" enable-background="new    " width="7.521" height="7.715"/>
	<rect x="570.333" y="55.173" opacity="0.1" fill="#CCCCCC" enable-background="new    " width="7.521" height="7.715"/>
	<rect x="577.854" y="47.459" opacity="0.1" fill="#CCCCCC" enable-background="new    " width="7.521" height="7.714"/>
	<rect x="585.374" y="55.173" opacity="0.1" fill="#CCCCCC" enable-background="new    " width="7.521" height="7.715"/>
	<rect x="585.374" y="39.745" opacity="0.1" fill="#CCCCCC" enable-background="new    " width="7.521" height="7.715"/>
	<rect x="577.854" y="32.031" opacity="0.1" fill="#CCCCCC" enable-background="new    " width="7.521" height="7.714"/>
	<rect x="570.333" y="24.317" opacity="0.1" fill="#CCCCCC" enable-background="new    " width="7.521" height="7.714"/>
	<rect x="562.812" y="16.602" opacity="0.1" fill="#CCCCCC" enable-background="new    " width="7.521" height="7.715"/>
	<rect x="570.333" y="8.888" opacity="0.1" fill="#CCCCCC" enable-background="new    " width="7.521" height="7.714"/>
	<rect x="577.854" y="1.174" opacity="0.1" fill="#CCCCCC" enable-background="new    " width="7.521" height="7.714"/>
	<rect x="585.374" y="8.888" opacity="0.1" fill="#CCCCCC" enable-background="new    " width="7.521" height="7.714"/>
	<rect x="577.854" y="16.602" opacity="0.1" fill="#CCCCCC" enable-background="new    " width="7.521" height="7.715"/>
	<rect x="585.374" y="24.317" opacity="0.1" fill="#CCCCCC" enable-background="new    " width="7.521" height="7.714"/>
	<rect x="592.893" y="1.174" opacity="0.1" fill="#CCCCCC" enable-background="new    " width="7.521" height="7.714"/>
	<rect x="600.414" y="8.888" opacity="0.1" fill="#CCCCCC" enable-background="new    " width="7.521" height="7.714"/>
	<rect x="607.934" y="16.602" opacity="0.1" fill="#CCCCCC" enable-background="new    " width="7.521" height="7.715"/>
	<rect x="600.414" y="24.317" opacity="0.1" fill="#CCCCCC" enable-background="new    " width="7.521" height="7.714"/>
	<rect x="607.934" y="32.031" opacity="0.1" fill="#CCCCCC" enable-background="new    " width="7.521" height="7.714"/>
	<rect x="600.414" y="39.745" opacity="0.1" fill="#CCCCCC" enable-background="new    " width="7.521" height="7.715"/>
	<rect x="607.934" y="47.459" opacity="0.1" fill="#CCCCCC" enable-background="new    " width="7.521" height="7.714"/>
	<rect x="592.893" y="16.602" opacity="0.1" fill="#CCCCCC" enable-background="new    " width="7.521" height="7.715"/>
	<rect x="592.893" y="32.031" opacity="0.1" fill="#CCCCCC" enable-background="new    " width="7.521" height="7.714"/>
	<rect x="592.893" y="47.459" opacity="0.1" fill="#CCCCCC" enable-background="new    " width="7.521" height="7.714"/>
	<rect x="615.452" y="39.745" opacity="0.1" fill="#CCCCCC" enable-background="new    " width="7.521" height="7.715"/>
	<rect x="622.975" y="47.459" opacity="0.1" fill="#CCCCCC" enable-background="new    " width="7.521" height="7.714"/>
	<rect x="615.455" y="24.317" opacity="0.1" fill="#CCCCCC" enable-background="new    " width="7.521" height="7.714"/>
	<rect x="622.975" y="32.031" opacity="0.1" fill="#CCCCCC" enable-background="new    " width="7.521" height="7.714"/>
	<rect x="630.496" y="39.745" opacity="0.1" fill="#CCCCCC" enable-background="new    " width="7.52" height="7.715"/>
	<rect x="600.414" y="55.173" opacity="0.1" fill="#CCCCCC" enable-background="new    " width="7.521" height="7.715"/>
	<rect x="615.455" y="55.173" opacity="0.1" fill="#CCCCCC" enable-background="new    " width="7.521" height="7.715"/>
	<rect x="630.496" y="55.173" opacity="0.1" fill="#CCCCCC" enable-background="new    " width="7.52" height="7.715"/>
	<rect x="638.015" y="47.459" opacity="0.1" fill="#CCCCCC" enable-background="new    " width="7.521" height="7.714"/>
	<rect x="645.536" y="55.173" opacity="0.1" fill="#CCCCCC" enable-background="new    " width="7.521" height="7.715"/>
	<rect x="645.536" y="39.745" opacity="0.1" fill="#CCCCCC" enable-background="new    " width="7.521" height="7.715"/>
	<rect x="638.015" y="32.031" opacity="0.1" fill="#CCCCCC" enable-background="new    " width="7.521" height="7.714"/>
	<rect x="630.496" y="24.317" opacity="0.1" fill="#CCCCCC" enable-background="new    " width="7.52" height="7.714"/>
	<rect x="622.975" y="16.602" opacity="0.1" fill="#CCCCCC" enable-background="new    " width="7.521" height="7.715"/>
	<rect x="615.455" y="8.888" opacity="0.1" fill="#CCCCCC" enable-background="new    " width="7.521" height="7.714"/>
	<rect x="607.934" y="1.174" opacity="0.1" fill="#CCCCCC" enable-background="new    " width="7.521" height="7.714"/>
	<rect x="622.975" y="1.174" opacity="0.1" fill="#CCCCCC" enable-background="new    " width="7.521" height="7.714"/>
	<rect x="630.496" y="8.888" opacity="0.1" fill="#CCCCCC" enable-background="new    " width="7.52" height="7.714"/>
	<rect x="638.015" y="1.174" opacity="0.1" fill="#CCCCCC" enable-background="new    " width="7.521" height="7.714"/>
	<rect x="645.536" y="8.888" opacity="0.1" fill="#CCCCCC" enable-background="new    " width="7.521" height="7.714"/>
	<rect x="638.015" y="16.602" opacity="0.1" fill="#CCCCCC" enable-background="new    " width="7.521" height="7.715"/>
	<rect x="645.536" y="24.317" opacity="0.1" fill="#CCCCCC" enable-background="new    " width="7.521" height="7.714"/>
	<rect x="653.056" y="1.174" opacity="0.1" fill="#CCCCCC" enable-background="new    " width="7.521" height="7.714"/>
	<rect x="660.577" y="8.888" opacity="0.1" fill="#CCCCCC" enable-background="new    " width="7.521" height="7.714"/>
	<rect x="668.097" y="16.602" opacity="0.1" fill="#CCCCCC" enable-background="new    " width="7.521" height="7.715"/>
	<rect x="660.577" y="24.317" opacity="0.1" fill="#CCCCCC" enable-background="new    " width="7.521" height="7.714"/>
	<rect x="668.097" y="32.031" opacity="0.1" fill="#CCCCCC" enable-background="new    " width="7.521" height="7.714"/>
	<rect x="660.577" y="39.745" opacity="0.1" fill="#CCCCCC" enable-background="new    " width="7.521" height="7.715"/>
	<rect x="668.097" y="47.459" opacity="0.1" fill="#CCCCCC" enable-background="new    " width="7.521" height="7.714"/>
	<rect x="653.056" y="16.602" opacity="0.1" fill="#CCCCCC" enable-background="new    " width="7.521" height="7.715"/>
	<rect x="653.056" y="32.031" opacity="0.1" fill="#CCCCCC" enable-background="new    " width="7.521" height="7.714"/>
	<rect x="653.056" y="47.459" opacity="0.1" fill="#CCCCCC" enable-background="new    " width="7.521" height="7.714"/>
	<rect x="675.615" y="39.745" opacity="0.1" fill="#CCCCCC" enable-background="new    " width="7.52" height="7.715"/>
	<rect x="675.617" y="24.317" opacity="0.1" fill="#CCCCCC" enable-background="new    " width="7.521" height="7.714"/>
	<rect x="683.137" y="32.031" opacity="0.1" fill="#CCCCCC" enable-background="new    " width="7.521" height="7.714"/>
	<rect x="660.577" y="55.173" opacity="0.1" fill="#CCCCCC" enable-background="new    " width="7.521" height="7.715"/>
	<rect x="675.617" y="55.173" opacity="0.1" fill="#CCCCCC" enable-background="new    " width="7.521" height="7.715"/>
	<rect x="690.658" y="24.317" opacity="0.1" fill="#CCCCCC" enable-background="new    " width="7.521" height="7.714"/>
	<rect x="683.137" y="16.602" opacity="0.1" fill="#CCCCCC" enable-background="new    " width="7.521" height="7.715"/>
	<rect x="675.617" y="8.888" opacity="0.1" fill="#CCCCCC" enable-background="new    " width="7.521" height="7.714"/>
	<rect x="668.097" y="1.174" opacity="0.1" fill="#CCCCCC" enable-background="new    " width="7.521" height="7.714"/>
	<rect x="683.137" y="1.174" opacity="0.1" fill="#CCCCCC" enable-background="new    " width="7.521" height="7.714"/>
	<rect x="690.658" y="8.888" opacity="0.1" fill="#CCCCCC" enable-background="new    " width="7.521" height="7.714"/>
	<rect x="698.178" y="1.174" opacity="0.1" fill="#CCCCCC" enable-background="new    " width="7.521" height="7.714"/>
	<rect x="698.178" y="16.602" opacity="0.1" fill="#CCCCCC" enable-background="new    " width="7.521" height="7.715"/>
	<rect x="547.771" y="63.563" opacity="0.1" fill="#CCCCCC" enable-background="new    " width="7.521" height="7.713"/>
	<rect x="562.812" y="63.563" opacity="0.1" fill="#CCCCCC" enable-background="new    " width="7.521" height="7.713"/>
	<rect x="577.854" y="63.563" opacity="0.1" fill="#CCCCCC" enable-background="new    " width="7.521" height="7.713"/>
	<rect x="607.934" y="63.563" opacity="0.1" fill="#CCCCCC" enable-background="new    " width="7.521" height="7.713"/>
	<rect x="592.893" y="63.563" opacity="0.1" fill="#CCCCCC" enable-background="new    " width="7.521" height="7.713"/>
	<rect x="622.975" y="63.563" opacity="0.1" fill="#CCCCCC" enable-background="new    " width="7.521" height="7.713"/>
	<rect x="638.015" y="63.563" opacity="0.1" fill="#CCCCCC" enable-background="new    " width="7.521" height="7.713"/>
	<rect x="668.097" y="63.563" opacity="0.1" fill="#CCCCCC" enable-background="new    " width="7.521" height="7.713"/>
	<rect x="653.056" y="63.563" opacity="0.1" fill="#CCCCCC" enable-background="new    " width="7.521" height="7.713"/>
	<polygon opacity="0.1" fill="#CCCCCC" enable-background="new    " points="683.137,47.269 683.137,54.981 688.913,54.981 
		690.658,51.582 690.658,47.269 	"/>
	<polygon opacity="0.1" fill="#CCCCCC" enable-background="new    " points="690.658,39.745 690.658,47.46 692.774,47.46 
		696.736,39.745 	"/>
	<polygon opacity="0.1" fill="#CCCCCC" enable-background="new    " points="705.44,8.888 705.44,16.602 708.621,16.602 
		712.582,8.888 	"/>
	<polygon opacity="0.1" fill="#CCCCCC" enable-background="new    " points="712.582,1.174 712.582,8.129 716.153,1.174 	"/>
	<g opacity="0.1">
		<polygon opacity="0.03" fill="#CCCCCC" enable-background="new    " points="683.137,63.563 683.137,66.66 684.727,63.563 		"/>
		<rect x="683.137" y="71.276" opacity="0.03" fill="#CCCCCC" enable-background="new    " width="7.521" height="0.002"/>
	</g>
	<g opacity="0.1" enable-background="new    ">
		<polygon opacity="0.03" fill="#CCCCCC" enable-background="new    " points="699.962,31.898 698.239,31.898 698.239,35.2 		"/>
		<polygon fill="#CCCCCC" points="698.225,32.055 700.252,32.055 698.239,35.356 		"/>
	</g>
	<g opacity="0.1" enable-background="new    ">
		<polygon opacity="0.03" fill="#CCCCCC" enable-background="new    " points="684.655,62.888 682.933,62.888 682.933,66.19 		"/>
		<polygon fill="#CCCCCC" points="682.918,63.045 684.945,63.045 682.933,66.347 		"/>
	</g>
</g>
<polygon fill="#5B5B5B" points="573.395,0.324 536.598,71.981 -0.004,71.146 0.017,-0.349 "/>
</svg>
