<?xml version="1.0" encoding="utf-8"?>
<!DOCTYPE svg PUBLIC "-//W3C//DTD SVG 1.1//EN" "http://www.w3.org/Graphics/SVG/1.1/DTD/svg11.dtd">
<svg version="1.1" id="Calque_1" xmlns="http://www.w3.org/2000/svg" xmlns:xlink="http://www.w3.org/1999/xlink" x="0px" y="0px"
	 width="22px" height="22px" viewBox="0 0 22 22" enable-background="new 0 0 22 22" xml:space="preserve">
<g>
	<path fill="#93908D" d="M11.19,1.56c0,0.86,0.7,1.57,1.56,1.57h3.28l-5.85,5.85c-0.61,0.61-0.61,1.6,0,2.21
		c0.61,0.61,1.61,0.61,2.21,0l6.1-6.1v3.78c0,0.86,0.7,1.57,1.57,1.57c0.86,0,1.57-0.71,1.57-1.57V3.13V2.61V0h-3.65h-0.52h-4.7
		C11.9,0,11.19,0.7,11.19,1.56z"/>
	<path fill="#93908D" d="M6.7,0H0.49v22h21.02v-5.73c0-1.25-0.63-1.62-1.57-1.62c-0.88,0-1.62,0.38-1.62,1.56v2.48
		c0,0,0.06,0.41-0.41,0.41c-0.47,0-14.27,0-14.27,0s-0.38,0.11-0.38-0.44s0-15.17,0-15.17S3.21,2.97,3.63,2.97s2.37,0,3.07,0
		c1.38,0,1.61-0.75,1.65-1.37C8.37,1.1,8.14,0,6.7,0z"/>
</g>
</svg>
