<?xml version="1.0" encoding="utf-8"?>
<!DOCTYPE svg PUBLIC "-//W3C//DTD SVG 1.1//EN" "http://www.w3.org/Graphics/SVG/1.1/DTD/svg11.dtd">
<svg version="1.1" id="Calque_1" xmlns="http://www.w3.org/2000/svg" xmlns:xlink="http://www.w3.org/1999/xlink" x="0px" y="0px"
	 width="22px" height="22px" viewBox="0 0 22 22" style="enable-background:new 0 0 22 22;" xml:space="preserve">
<style type="text/css"><![CDATA[.st0{fill:#93908D;}]]></style>
<g>
	<path class="st0" d="M11.2,1.6c0,0.9,0.7,1.6,1.6,1.6H16L10.2,9c-0.6,0.6-0.6,1.6,0,2.2c0.6,0.6,1.6,0.6,2.2,0l6.1-6.1v3.8
		c0,0.9,0.7,1.6,1.6,1.6c0.9,0,1.6-0.7,1.6-1.6V3.1V2.6V0H18h-0.5h-4.7C11.9,0,11.2,0.7,11.2,1.6z"/>
	<path class="st0" d="M6.7,0H0.5v22h21v-5.7c0-1.2-0.6-1.6-1.6-1.6c-0.9,0-1.6,0.4-1.6,1.6v2.5c0,0,0.1,0.4-0.4,0.4
		c-0.5,0-14.3,0-14.3,0s-0.4,0.1-0.4-0.4c0-0.6,0-15.2,0-15.2S3.2,3,3.6,3S6,3,6.7,3c1.4,0,1.6-0.8,1.6-1.4C8.4,1.1,8.1,0,6.7,0z"/>
</g>
</svg>
