<?xml version="1.0" encoding="utf-8"?>
<!-- Generator: Adobe Illustrator 15.1.0, SVG Export Plug-In . SVG Version: 6.00 Build 0)  -->
<!DOCTYPE svg PUBLIC "-//W3C//DTD SVG 1.1//EN" "http://www.w3.org/Graphics/SVG/1.1/DTD/svg11.dtd">
<svg version="1.1" id="Calque_1" xmlns="http://www.w3.org/2000/svg" xmlns:xlink="http://www.w3.org/1999/xlink" x="0px" y="0px"
	 width="768.977px" height="240.088px" viewBox="0 0 768.977 240.088" enable-background="new 0 0 768.977 240.088"
	 xml:space="preserve">
<g>
	<path fill="#69696B" d="M252.054,201.802c-26.192,0-46.342-17.211-46.342-46.154c0-28.939,19.049-47.44,47.991-47.44
		c27.289,0,45.608,18.869,45.608,45.98c0,32.602-23.264,47.614-47.074,47.614H252.054z M252.602,181.841
		c10.992,0,17.769-10.808,17.769-26.926c0-13.185-5.13-26.742-17.769-26.742c-13.187,0-18.316,13.558-18.316,26.927
		c0,15.201,6.413,26.741,18.135,26.741H252.602z"/>
	<path fill="#69696B" d="M108.799,194.114c-8.61,2.93-24.911,6.961-41.211,6.961c-22.529,0-38.83-5.676-50.186-16.483
		C6.226,173.784,0,157.666,0,139.534c0.182-41.029,30.038-64.475,70.518-64.475c15.934,0,28.207,3.111,34.25,5.854l-5.859,22.536
		c-6.777-3.115-15.021-5.313-28.573-5.313c-23.262,0-41.03,13.19-41.03,39.933c0,25.636,16.12,40.474,39.015,40.474
		c6.229,0,11.358-0.727,13.553-1.649v-26.004H62.824v-21.794h45.975V194.114z"/>
	<path fill="#69696B" d="M144.724,163.705c0.917,11.725,12.272,17.221,25.277,17.221c9.527,0,17.22-1.276,24.727-3.847l3.665,18.869
		c-9.161,3.841-20.332,5.675-32.422,5.675c-30.404,0-47.804-17.584-47.804-45.791c0-22.716,14.285-47.809,45.243-47.809
		c28.937,0,39.926,22.531,39.926,44.7c0,4.758-0.548,8.974-0.915,11.166L144.724,163.705z M177.51,144.656
		c0-6.587-2.93-18.132-15.565-18.132c-11.906,0-16.672,10.808-17.402,18.132H177.51z"/>
	<path fill="#69696B" d="M304.309,138.796c0-11.177-0.369-20.509-0.73-28.576h23.62l1.102,12.272h0.551
		c3.846-5.854,11.908-14.285,27.11-14.285c11.72,0,20.693,6.049,24.54,15.392h0.369c3.483-4.769,7.324-8.431,11.722-10.992
		c4.944-2.75,10.443-4.399,17.033-4.399c17.217,0,30.227,12.093,30.227,38.835v52.746h-27.11v-48.541
		c0-12.995-4.218-20.509-13.192-20.509c-6.59,0-10.986,4.395-12.999,9.707c-0.551,2.013-0.915,4.763-0.915,6.965v52.378h-27.11
		v-50.185c0-11.176-4.028-18.865-13.002-18.865c-7.148,0-11.358,5.496-13.007,9.891c-0.919,2.197-1.101,4.764-1.101,7.141v52.019
		h-27.106V138.796z"/>
	<path fill="#69696B" d="M528.738,178.173c0,8.432,0.364,16.673,1.463,21.615H505.11l-1.649-8.973h-0.55
		c-5.862,7.14-15.016,10.986-25.641,10.986c-18.132,0-28.938-13.179-28.938-27.47c0-23.264,20.88-34.246,52.562-34.246v-1.105
		c0-4.759-2.563-11.535-16.298-11.535c-9.161,0-18.868,3.108-24.728,6.587l-5.126-17.763c6.228-3.479,18.497-8.062,34.793-8.062
		c29.859,0,39.201,17.589,39.201,38.65V178.173z M501.814,157.481c-14.656,0-26.009,3.479-26.009,14.102
		c0,7.145,4.758,10.628,10.988,10.628c6.78,0,12.64-4.579,14.471-10.26c0.363-1.464,0.55-3.109,0.55-4.769V157.481z"/>
	<path fill="#69696B" d="M571.447,85.864v24.356h19.961v20.519h-19.961v32.607c0,10.807,2.745,15.75,10.987,15.75
		c3.847,0,5.68-0.185,8.243-0.737l0.183,21.072c-3.479,1.274-10.257,2.371-17.95,2.371c-8.974,0-16.485-3.109-21.064-7.688
		c-5.127-5.316-7.691-13.927-7.691-26.562v-36.812h-11.905V110.22h11.905V93.368L571.447,85.864z"/>
	<path fill="#3084B5" d="M673.336,129.013c-1.669,0.458-3.454,0.167-4.892-0.798l-11.289-7.575l-8.384,33.548
		c-1.28,5.127-2.746,11.898-4.029,16.656h-0.547c-1.103-4.758-2.93-11.346-4.398-16.656l-13.371-43.968h-30.954l32.968,81.88
		c0.919,2.193,1.102,3.668,1.102,4.575c0,1.28-0.552,2.566-1.466,4.03c-2.568,4.39-7.326,8.975-11.542,11.177
		c-4.21,2.377-8.604,4.021-12.088,4.758l5.865,23.448c7.143-0.736,17.397-3.852,26.923-12.271
		c10.075-8.975,18.681-23.075,31.501-58.616L684,126.085C678.804,127.512,673.336,129.013,673.336,129.013z"/>
	<path fill="#69696B" d="M728.444,145.208c-7.47-2.615-11.466-4.469-13.263-6.767c-0.546-0.17-1.072-0.412-1.557-0.737
		c0,0-19.057-12.804-20.871-14.022c-0.419,0.115-1.13,0.311-2.027,0.557c-2.272,3.99-3.497,8.544-3.497,13.461
		c-0.179,10.439,6.964,20.693,25.648,26.742c10.257,3.479,13.003,5.676,13.003,10.438c0,4.585-3.476,7.33-11.909,7.33
		c-8.24,0-18.861-3.483-23.988-6.592l-4.948,19.78c6.781,3.663,17.22,6.403,28.937,6.403c25.648,0,38.651-12.272,38.651-29.124
		C752.44,159.683,745.481,150.889,728.444,145.208z"/>
</g>
<g>
	<g enable-background="new    ">
		<g>
			<polygon fill="#7F8500" points="702.396,36.332 693.008,52.949 692.276,32.454 701.662,15.839 			"/>
		</g>
		<g>
			<polygon fill="#8E9300" points="724.253,51.008 714.865,67.623 693.008,52.949 702.396,36.332 			"/>
		</g>
		<g>
			<polygon fill="#8F9400" points="745.403,45.198 736.016,61.815 714.865,67.623 724.253,51.008 			"/>
		</g>
		<g>
			<polygon fill="#D0D500" points="722.817,10.032 744.682,24.722 745.403,45.198 724.253,51.008 702.396,36.332 701.662,15.839 			
				"/>
		</g>
		<g>
			<polygon fill="#00628B" points="656.847,26.307 647.46,42.92 646.741,22.418 656.132,5.803 			"/>
		</g>
		<g>
			<polygon fill="#006E9B" points="699.865,35.19 690.479,51.803 669.342,57.607 678.73,40.996 			"/>
		</g>
		<g>
			<polygon fill="#006D9A" points="678.73,40.996 669.342,57.607 647.46,42.92 656.847,26.307 			"/>
		</g>
		<g>
			<polygon fill="#009DE1" points="677.266,0 699.151,14.686 699.865,35.19 678.73,40.996 656.847,26.307 656.132,5.803 			"/>
		</g>
		<g>
			<polygon fill="#7F8500" points="725.966,73.038 716.58,89.647 715.848,69.155 725.238,52.545 			"/>
		</g>
		<g>
			<polygon fill="#8F9400" points="768.977,81.904 759.59,98.519 738.434,104.325 747.823,87.712 			"/>
		</g>
		<g>
			<polygon fill="#D0D500" points="746.389,46.729 768.254,61.42 768.977,81.904 747.823,87.712 725.966,73.038 725.238,52.545 			
				"/>
		</g>
		<g>
			<polygon fill="#8E9300" points="747.823,87.712 738.434,104.325 716.58,89.647 725.966,73.038 			"/>
		</g>
		<g>
			<polygon fill="#808080" points="680.219,63.702 670.829,80.317 670.1,59.824 679.485,43.209 			"/>
		</g>
		<g>
			<polygon fill="#949494" points="702.071,78.379 692.686,94.992 670.829,80.317 680.219,63.702 			"/>
		</g>
		<g>
			<polygon fill="#959595" points="723.225,72.57 713.839,89.185 692.686,94.992 702.071,78.379 			"/>
		</g>
		<g>
			<polygon fill="#FAFAFA" points="700.637,37.399 722.505,52.09 723.225,72.57 702.071,78.379 680.219,63.702 679.485,43.209 			
				"/>
		</g>
		<g>
			<polygon fill="#935B00" points="635.006,54.205 625.619,70.82 624.913,50.332 634.3,33.717 			"/>
		</g>
		<g>
			<polygon fill="#A36500" points="656.89,68.892 647.503,85.505 625.619,70.82 635.006,54.205 			"/>
		</g>
		<g>
			<polygon fill="#A46600" points="678.022,63.087 668.635,79.697 647.503,85.505 656.89,68.892 			"/>
		</g>
		<g>
			<polygon fill="#F09000" points="655.437,27.915 677.31,42.583 678.022,63.087 656.89,68.892 635.006,54.205 634.3,33.717 			"/>
		</g>
		<g>
			<polygon fill="#00628B" points="704.466,101.462 695.077,118.073 694.355,97.595 703.743,80.982 			"/>
		</g>
		<g>
			<polygon fill="#006D9A" points="726.333,116.152 716.944,132.765 695.077,118.073 704.466,101.462 			"/>
		</g>
		<g>
			<polygon fill="#006E9B" points="747.485,110.346 738.096,126.956 716.944,132.765 726.333,116.152 			"/>
		</g>
		<g>
			<polygon fill="#009DE1" points="724.897,75.171 746.755,89.845 747.485,110.346 726.333,116.152 704.466,101.462 703.743,80.982 
							"/>
		</g>
		<g>
			<polygon fill="#935B00" points="659.266,91.978 649.877,108.588 649.164,88.089 658.552,71.478 			"/>
		</g>
		<g>
			<polygon fill="#A36500" points="681.149,106.665 671.761,123.274 649.877,108.588 659.266,91.978 			"/>
		</g>
		<g>
			<polygon fill="#A46600" points="702.282,100.861 692.896,117.471 671.761,123.274 681.149,106.665 			"/>
		</g>
		<g>
			<polygon fill="#F09000" points="679.686,65.673 701.568,80.357 702.282,100.861 681.149,106.665 659.266,91.978 658.552,71.478 
							"/>
		</g>
	</g>
</g>
</svg>
