<?xml version="1.0" encoding="utf-8"?>
<!DOCTYPE svg PUBLIC "-//W3C//DTD SVG 1.1//EN" "http://www.w3.org/Graphics/SVG/1.1/DTD/svg11.dtd">
<svg version="1.1" id="Calque_1" xmlns="http://www.w3.org/2000/svg" xmlns:xlink="http://www.w3.org/1999/xlink" x="0px" y="0px"
	 width="769px" height="240.1px" viewBox="0 0 769 240.1" style="enable-background:new 0 0 769 240.1;" xml:space="preserve">
<style type="text/css"><![CDATA[
	.st0{fill:#7F8500;} .st1{fill:#808080;} .st2{enable-background:new;} .st3{fill:#8E9300;} .st4{fill:#8F9400;}
	.st5{fill:#F09000;} .st6{fill:#935B00;} .st7{fill:#949494;} .st8{fill:#959595;} .st9{fill:#FAFAFA;} .st10{fill:#69696B;}
	.st11{fill:#3084B5;} .st12{fill:#00628B;} .st13{fill:#006D9A;} .st14{fill:#006E9B;} .st15{fill:#009DE1;} .st16{fill:#D0D500;}
	.st17{fill:#A36500;} .st18{fill:#A46600;}
]]></style>
<g>
	<path class="st10" d="M252,201.8c-26.2,0-46.3-17.2-46.3-46.1c0-28.9,19-47.4,48-47.4c27.3,0,45.6,18.9,45.6,46
		c0,32.6-23.3,47.6-47.1,47.6H252L252,201.8z M252.6,181.8c11,0,17.8-10.8,17.8-26.9c0-13.2-5.1-26.7-17.8-26.7
		c-13.2,0-18.3,13.6-18.3,26.9c0,15.2,6.4,26.7,18.1,26.7H252.6L252.6,181.8z"/>
	<path class="st10" d="M108.8,194.1c-8.6,2.9-24.9,7-41.2,7c-22.5,0-38.8-5.7-50.2-16.5C6.2,173.8,0,157.7,0,139.5
		c0.2-41,30-64.5,70.5-64.5c15.9,0,28.2,3.1,34.2,5.9l-5.9,22.5c-6.8-3.1-15-5.3-28.6-5.3c-23.3,0-41,13.2-41,39.9
		c0,25.6,16.1,40.5,39,40.5c6.2,0,11.4-0.7,13.6-1.6v-26H62.8v-21.8h46L108.8,194.1L108.8,194.1z"/>
	<path class="st10" d="M144.7,163.7c0.9,11.7,12.3,17.2,25.3,17.2c9.5,0,17.2-1.3,24.7-3.8l3.7,18.9c-9.2,3.8-20.3,5.7-32.4,5.7
		c-30.4,0-47.8-17.6-47.8-45.8c0-22.7,14.3-47.8,45.2-47.8c28.9,0,39.9,22.5,39.9,44.7c0,4.8-0.6,9-0.9,11.2L144.7,163.7z
		 M177.5,144.7c0-6.6-2.9-18.1-15.6-18.1c-11.9,0-16.7,10.8-17.4,18.1H177.5z"/>
	<path class="st10" d="M304.3,138.8c0-11.2-0.4-20.5-0.7-28.6h23.6l1.1,12.3h0.5c3.9-5.9,11.9-14.3,27.1-14.3
		c11.7,0,20.7,6,24.5,15.4h0.4c3.5-4.8,7.3-8.4,11.7-11c4.9-2.8,10.4-4.4,17-4.4c17.2,0,30.2,12.1,30.2,38.8v52.8h-27.1v-48.5
		c0-13-4.2-20.5-13.2-20.5c-6.6,0-11,4.4-13,9.7c-0.5,2-0.9,4.8-0.9,7v52.4h-27.1v-50.2c0-11.2-4-18.9-13-18.9
		c-7.1,0-11.4,5.5-13,9.9c-0.9,2.2-1.1,4.8-1.1,7.1v52h-27.1L304.3,138.8L304.3,138.8z"/>
	<path class="st10" d="M528.7,178.2c0,8.4,0.4,16.7,1.5,21.6h-25.1l-1.7-9h-0.5c-5.9,7.1-15,11-25.6,11c-18.1,0-28.9-13.2-28.9-27.5
		c0-23.3,20.9-34.2,52.6-34.2V139c0-4.8-2.6-11.5-16.3-11.5c-9.2,0-18.9,3.1-24.7,6.6l-5.1-17.8c6.2-3.5,18.5-8.1,34.8-8.1
		c29.9,0,39.2,17.6,39.2,38.6L528.7,178.2L528.7,178.2z M501.8,157.5c-14.7,0-26,3.5-26,14.1c0,7.1,4.8,10.6,11,10.6
		c6.8,0,12.6-4.6,14.5-10.3c0.4-1.5,0.5-3.1,0.5-4.8V157.5L501.8,157.5z"/>
	<path class="st10" d="M571.5,85.9v24.4h20v20.5h-20v32.6c0,10.8,2.8,15.8,11,15.8c3.8,0,5.7-0.2,8.2-0.7l0.2,21.1
		c-3.5,1.3-10.3,2.4-18,2.4c-9,0-16.5-3.1-21.1-7.7c-5.1-5.3-7.7-13.9-7.7-26.6v-36.8h-11.9v-20.5h11.9V93.4L571.5,85.9z"/>
	<path class="st11" d="M673.3,129c-1.7,0.5-3.5,0.2-4.9-0.8l-11.3-7.6l-8.4,33.5c-1.3,5.1-2.8,11.9-4,16.7h-0.5
		c-1.1-4.8-2.9-11.3-4.4-16.7l-13.4-44h-30.9l33,81.9c0.9,2.2,1.1,3.7,1.1,4.6c0,1.3-0.5,2.6-1.5,4c-2.6,4.4-7.3,9-11.5,11.2
		c-4.2,2.4-8.6,4-12.1,4.8l5.9,23.5c7.1-0.7,17.4-3.8,26.9-12.3c10.1-9,18.7-23.1,31.5-58.6l15.3-43.1
		C678.8,127.5,673.3,129,673.3,129z"/>
	<path class="st10" d="M728.4,145.2c-7.5-2.6-11.5-4.5-13.3-6.8c-0.5-0.2-1.1-0.4-1.6-0.7c0,0-19.1-12.8-20.9-14
		c-0.4,0.1-1.1,0.3-2,0.6c-2.3,4-3.5,8.5-3.5,13.5c-0.2,10.4,7,20.7,25.7,26.7c10.3,3.5,13,5.7,13,10.4c0,4.6-3.5,7.3-11.9,7.3
		c-8.2,0-18.9-3.5-24-6.6l-5,19.8c6.8,3.7,17.2,6.4,28.9,6.4c25.7,0,38.7-12.3,38.7-29.1C752.4,159.7,745.5,150.9,728.4,145.2z"/>
</g>
<g>
	<g class="st2">
		<g><polygon class="st0" points="702.4,36.3 693,53 692.3,32.5 701.7,15.8"/></g>
		<g><polygon class="st3" points="724.2,51 714.9,67.6 693,53 702.4,36.3"/></g>
		<g><polygon class="st4" points="745.4,45.2 736,61.8 714.9,67.6 724.2,51"/></g>
		<g><polygon class="st16" points="722.8,10 744.7,24.7 745.4,45.2 724.2,51 702.4,36.3 701.7,15.8"/></g>
		<g><polygon class="st12" points="656.8,26.3 647.5,42.9 646.7,22.4 656.1,5.8"/></g>
		<g><polygon class="st14" points="699.9,35.2 690.5,51.8 669.3,57.6 678.7,41"/></g>
		<g><polygon class="st13" points="678.7,41 669.3,57.6 647.5,42.9 656.8,26.3"/></g>
		<g><polygon class="st15" points="677.3,0 699.2,14.7 699.9,35.2 678.7,41 656.8,26.3 656.1,5.8"/></g>
		<g><polygon class="st0" points="726,73 716.6,89.6 715.8,69.1 725.2,52.5"/></g>
		<g><polygon class="st4" points="769,81.9 759.6,98.5 738.4,104.3 747.8,87.7"/></g>
		<g><polygon class="st16" points="746.4,46.7 768.2,61.4 769,81.9 747.8,87.7 726,73 725.2,52.5"/></g>
		<g><polygon class="st3" points="747.8,87.7 738.4,104.3 716.6,89.6 726,73"/></g>
		<g><polygon class="st1" points="680.2,63.7 670.8,80.3 670.1,59.8 679.5,43.2"/></g>
		<g><polygon class="st7" points="702.1,78.4 692.7,95 670.8,80.3 680.2,63.7"/></g>
		<g><polygon class="st8" points="723.2,72.6 713.8,80.9 692.7,86.7 702.1,78.4"/></g>
		<g><polygon class="st9" points="700.6,37.4 722.5,52.1 723.2,72.6 702.1,78.4 680.2,63.7 679.5,43.2"/></g>
		<g><polygon class="st6" points="635,54.2 625.6,70.8 624.9,50.3 634.3,33.7"/></g>
		<g><polygon class="st17" points="656.9,68.9 647.5,85.5 625.6,70.8 635,54.2"/></g>
		<g><polygon class="st18" points="678,63.1 668.6,79.7 647.5,85.5 656.9,68.9"/></g>
		<g><polygon class="st5" points="655.4,27.9 677.3,42.6 678,63.1 656.9,68.9 635,54.2 634.3,33.7"/></g>
		<g><polygon class="st12" points="704.5,101.5 695.1,118.1 694.4,97.6 703.7,81"/></g>
		<g><polygon class="st13" points="726.3,116.1 716.9,132.8 695.1,118.1 704.5,101.5"/></g>
		<g><polygon class="st14" points="747.5,110.4 738.1,127 716.9,132.8 726.3,116.1"/></g>
		<g><polygon class="st15" points="724.9,75.2 746.8,89.9 747.5,110.4 726.3,116.1 704.5,101.5 703.7,81"/></g>
		<g><polygon class="st6" points="659.3,92 649.9,108.6 649.2,88.1 658.5,71.5"/></g>
		<g><polygon class="st17" points="681.2,106.7 671.8,123.3 649.9,108.6 659.3,92"/></g>
		<g><polygon class="st18" points="702.3,100.9 692.9,117.5 671.8,123.3 681.2,106.7"/></g>
		<g><polygon class="st5" points="679.7,65.7 701.6,80.4 702.3,100.9 681.2,106.7 659.3,92 658.5,71.5"/></g>
	</g>
</g>
</svg>
