<?xml version="1.0" encoding="utf-8"?>
<!DOCTYPE svg PUBLIC "-//W3C//DTD SVG 1.1//EN" "http://www.w3.org/Graphics/SVG/1.1/DTD/svg11.dtd">
<svg version="1.1" id="Calque_1" xmlns="http://www.w3.org/2000/svg" xmlns:xlink="http://www.w3.org/1999/xlink" x="0px" y="0px"
	 width="768.98px" height="240.09px" viewBox="0 0 768.98 240.09" enable-background="new 0 0 768.98 240.09" xml:space="preserve">
<g>
	<path fill="#69696B" d="M252.05,201.8c-26.19,0-46.34-17.21-46.34-46.15c0-28.94,19.05-47.44,47.99-47.44
		c27.29,0,45.61,18.87,45.61,45.98c0,32.6-23.26,47.61-47.07,47.61H252.05z M252.6,181.84c10.99,0,17.77-10.81,17.77-26.93
		c0-13.19-5.13-26.74-17.77-26.74c-13.19,0-18.32,13.56-18.32,26.93c0,15.2,6.41,26.74,18.13,26.74H252.6z"/>
	<path fill="#69696B" d="M108.8,194.11c-8.61,2.93-24.91,6.96-41.21,6.96c-22.53,0-38.83-5.68-50.19-16.48
		C6.23,173.78,0,157.67,0,139.53C0.18,98.5,30.04,75.06,70.52,75.06c15.93,0,28.21,3.11,34.25,5.85l-5.86,22.54
		c-6.78-3.12-15.02-5.31-28.57-5.31c-23.26,0-41.03,13.19-41.03,39.93c0,25.64,16.12,40.47,39.01,40.47
		c6.23,0,11.36-0.73,13.55-1.65v-26H62.82V129.1h45.97V194.11L108.8,194.11z"/>
	<path fill="#69696B" d="M144.72,163.71c0.92,11.73,12.27,17.22,25.28,17.22c9.53,0,17.22-1.28,24.73-3.85l3.67,18.87
		c-9.16,3.84-20.33,5.67-32.42,5.67c-30.4,0-47.8-17.58-47.8-45.79c0-22.72,14.29-47.81,45.24-47.81c28.94,0,39.93,22.53,39.93,44.7
		c0,4.76-0.55,8.97-0.92,11.17L144.72,163.71z M177.51,144.66c0-6.59-2.93-18.13-15.56-18.13c-11.91,0-16.67,10.81-17.4,18.13
		H177.51z"/>
	<path fill="#69696B" d="M304.31,138.8c0-11.18-0.37-20.51-0.73-28.58h23.62l1.1,12.27h0.55c3.85-5.85,11.91-14.29,27.11-14.29
		c11.72,0,20.69,6.05,24.54,15.39h0.37c3.48-4.77,7.32-8.43,11.72-10.99c4.94-2.75,10.44-4.4,17.03-4.4
		c17.22,0,30.23,12.09,30.23,38.83v52.75h-27.11v-48.54c0-13-4.22-20.51-13.19-20.51c-6.59,0-10.99,4.39-13,9.71
		c-0.55,2.01-0.92,4.76-0.92,6.96v52.38h-27.11V149.6c0-11.18-4.03-18.87-13-18.87c-7.15,0-11.36,5.5-13.01,9.89
		c-0.92,2.2-1.1,4.76-1.1,7.14v52.02h-27.11L304.31,138.8L304.31,138.8z"/>
	<path fill="#69696B" d="M528.74,178.17c0,8.43,0.36,16.67,1.46,21.62h-25.09l-1.65-8.97h-0.55c-5.86,7.14-15.02,10.99-25.64,10.99
		c-18.13,0-28.94-13.18-28.94-27.47c0-23.26,20.88-34.25,52.56-34.25v-1.11c0-4.76-2.56-11.54-16.3-11.54
		c-9.16,0-18.87,3.11-24.73,6.59l-5.13-17.76c6.23-3.48,18.5-8.06,34.79-8.06c29.86,0,39.2,17.59,39.2,38.65L528.74,178.17
		L528.74,178.17z M501.81,157.48c-14.66,0-26.01,3.48-26.01,14.1c0,7.14,4.76,10.63,10.99,10.63c6.78,0,12.64-4.58,14.47-10.26
		c0.36-1.46,0.55-3.11,0.55-4.77V157.48z"/>
	<path fill="#69696B" d="M571.45,85.86v24.36h19.96v20.52h-19.96v32.61c0,10.81,2.75,15.75,10.99,15.75c3.85,0,5.68-0.19,8.24-0.74
		l0.18,21.07c-3.48,1.27-10.26,2.37-17.95,2.37c-8.97,0-16.49-3.11-21.06-7.69c-5.13-5.32-7.69-13.93-7.69-26.56v-36.81h-11.91
		v-20.52h11.91V93.37L571.45,85.86z"/>
	<path fill="#3084B5" d="M673.34,129.01c-1.67,0.46-3.45,0.17-4.89-0.8l-11.29-7.58l-8.38,33.55c-1.28,5.13-2.75,11.9-4.03,16.66
		h-0.55c-1.1-4.76-2.93-11.35-4.4-16.66l-13.37-43.97h-30.95l32.97,81.88c0.92,2.19,1.1,3.67,1.1,4.57c0,1.28-0.55,2.57-1.47,4.03
		c-2.57,4.39-7.33,8.98-11.54,11.18c-4.21,2.38-8.6,4.02-12.09,4.76l5.86,23.45c7.14-0.74,17.4-3.85,26.92-12.27
		c10.07-8.98,18.68-23.08,31.5-58.62L684,126.08C678.8,127.51,673.34,129.01,673.34,129.01z"/>
	<path fill="#69696B" d="M728.44,145.21c-7.47-2.62-11.47-4.47-13.26-6.77c-0.55-0.17-1.07-0.41-1.56-0.74
		c0,0-19.06-12.8-20.87-14.02c-0.42,0.11-1.13,0.31-2.03,0.56c-2.27,3.99-3.5,8.54-3.5,13.46c-0.18,10.44,6.96,20.69,25.65,26.74
		c10.26,3.48,13,5.68,13,10.44c0,4.58-3.48,7.33-11.91,7.33c-8.24,0-18.86-3.48-23.99-6.59l-4.95,19.78
		c6.78,3.66,17.22,6.4,28.94,6.4c25.65,0,38.65-12.27,38.65-29.12C752.44,159.68,745.48,150.89,728.44,145.21z"/>
</g>
<g>
	<g enable-background="new    ">
		<g>
			<polygon fill="#7F8500" points="702.4,36.33 693.01,52.95 692.28,32.45 701.66,15.84 			"/>
		</g>
		<g>
			<polygon fill="#8E9300" points="724.25,51.01 714.87,67.62 693.01,52.95 702.4,36.33 			"/>
		</g>
		<g>
			<polygon fill="#8F9400" points="745.4,45.2 736.02,61.81 714.87,67.62 724.25,51.01 			"/>
		</g>
		<g>
			<polygon fill="#D0D500" points="722.82,10.03 744.68,24.72 745.4,45.2 724.25,51.01 702.4,36.33 701.66,15.84 			"/>
		</g>
		<g>
			<polygon fill="#00628B" points="656.85,26.31 647.46,42.92 646.74,22.42 656.13,5.8 			"/>
		</g>
		<g>
			<polygon fill="#006E9B" points="699.87,35.19 690.48,51.8 669.34,57.61 678.73,41 			"/>
		</g>
		<g>
			<polygon fill="#006D9A" points="678.73,41 669.34,57.61 647.46,42.92 656.85,26.31 			"/>
		</g>
		<g>
			<polygon fill="#009DE1" points="677.27,0 699.15,14.69 699.87,35.19 678.73,41 656.85,26.31 656.13,5.8 			"/>
		</g>
		<g>
			<polygon fill="#7F8500" points="725.97,73.04 716.58,89.65 715.85,69.15 725.24,52.54 			"/>
		</g>
		<g>
			<polygon fill="#8F9400" points="768.98,81.9 759.59,98.52 738.43,104.33 747.82,87.71 			"/>
		</g>
		<g>
			<polygon fill="#D0D500" points="746.39,46.73 768.25,61.42 768.98,81.9 747.82,87.71 725.97,73.04 725.24,52.54 			"/>
		</g>
		<g>
			<polygon fill="#8E9300" points="747.82,87.71 738.43,104.33 716.58,89.65 725.97,73.04 			"/>
		</g>
		<g>
			<polygon fill="#808080" points="680.22,63.7 670.83,80.32 670.1,59.82 679.49,43.21 			"/>
		</g>
		<g>
			<polygon fill="#949494" points="702.07,78.38 692.69,94.99 670.83,80.32 680.22,63.7 			"/>
		</g>
		<g>
			<polygon fill="#959595" points="723.22,72.57 713.84,80.88 692.69,86.68 702.07,78.38 			"/>
		</g>
		<g>
			<polygon fill="#FAFAFA" points="700.64,37.4 722.5,52.09 723.22,72.57 702.07,78.38 680.22,63.7 679.49,43.21 			"/>
		</g>
		<g>
			<polygon fill="#935B00" points="635.01,54.21 625.62,70.82 624.91,50.33 634.3,33.72 			"/>
		</g>
		<g>
			<polygon fill="#A36500" points="656.89,68.89 647.5,85.5 625.62,70.82 635.01,54.21 			"/>
		</g>
		<g>
			<polygon fill="#A46600" points="678.02,63.09 668.63,79.7 647.5,85.5 656.89,68.89 			"/>
		</g>
		<g>
			<polygon fill="#F09000" points="655.44,27.92 677.31,42.58 678.02,63.09 656.89,68.89 635.01,54.21 634.3,33.72 			"/>
		</g>
		<g>
			<polygon fill="#00628B" points="704.47,101.46 695.08,118.07 694.36,97.6 703.74,80.98 			"/>
		</g>
		<g>
			<polygon fill="#006D9A" points="726.33,116.15 716.94,132.76 695.08,118.07 704.47,101.46 			"/>
		</g>
		<g>
			<polygon fill="#006E9B" points="747.49,110.35 738.1,126.96 716.94,132.76 726.33,116.15 			"/>
		</g>
		<g>
			<polygon fill="#009DE1" points="724.9,75.17 746.75,89.85 747.49,110.35 726.33,116.15 704.47,101.46 703.74,80.98 			"/>
		</g>
		<g>
			<polygon fill="#935B00" points="659.27,91.98 649.88,108.59 649.16,88.09 658.55,71.48 			"/>
		</g>
		<g>
			<polygon fill="#A36500" points="681.15,106.67 671.76,123.27 649.88,108.59 659.27,91.98 			"/>
		</g>
		<g>
			<polygon fill="#A46600" points="702.28,100.86 692.9,117.47 671.76,123.27 681.15,106.67 			"/>
		</g>
		<g>
			<polygon fill="#F09000" points="679.69,65.67 701.57,80.36 702.28,100.86 681.15,106.67 659.27,91.98 658.55,71.48 			"/>
		</g>
	</g>
</g>
</svg>
