<?xml version="1.0" encoding="utf-8"?>
<!-- Generator: Adobe Illustrator 15.1.0, SVG Export Plug-In . SVG Version: 6.00 Build 0)  -->
<!DOCTYPE svg PUBLIC "-//W3C//DTD SVG 1.1//EN" "http://www.w3.org/Graphics/SVG/1.1/DTD/svg11.dtd">
<svg version="1.1" id="Calque_1" xmlns="http://www.w3.org/2000/svg" xmlns:xlink="http://www.w3.org/1999/xlink" x="0px" y="0px"
	 width="77.9px" height="24.3px" viewBox="0 0 77.9 24.3" style="enable-background:new 0 0 77.9 24.3;" xml:space="preserve">
<style type="text/css">
<![CDATA[
	.st0{fill:#808081;}
	.st1{fill:#808624;}
	.st2{fill:#B2B2B2;}
	.st3{fill:#1B9BD8;}
	.st4{enable-background:new    ;}
	.st5{fill:#8E9322;}
	.st6{fill:#8F9422;}
	.st7{fill:#F09106;}
	.st8{fill:#945D14;}
	.st9{fill:#949494;}
	.st10{fill:#969596;}
	.st11{fill:#FBFBFB;}
	.st12{fill:#CFD506;}
	.st13{fill:#026E9B;}
	.st14{fill:#05638C;}
	.st15{fill:#056F9C;}
	.st16{fill:#A36615;}
	.st17{fill:#A46715;}
]]>
</style>
<g>
	<g class="st4">
		<path class="st1" d="M71.1,3.7l-0.9,1.7l-0.1-2.1l1-1.7L71.1,3.7z"/>
		<path class="st5" d="M73.4,5.2l-0.9,1.7l-2.2-1.5l0.9-1.7L73.4,5.2z"/>
		<path class="st6" d="M75.5,4.6l-1,1.7l-2.1,0.6l0.9-1.7L75.5,4.6z"/>
		<path class="st12" d="M73.2,1l2.2,1.5l0.1,2.1l-2.2,0.6l-2.2-1.5l-0.1-2.1L73.2,1z"/>
		<path class="st14" d="M66.5,2.7l-1,1.7l-0.1-2.1l0.9-1.7L66.5,2.7z"/>
		<path class="st15" d="M70.9,3.6l-0.9,1.7l-2.2,0.6l1-1.7L70.9,3.6z"/>
		<path class="st13" d="M68.8,4.1l-1,1.7l-2.2-1.5l1-1.7L68.8,4.1z"/>
		<path class="st3" d="M68.6,0l2.2,1.5l0.1,2.1l-2.1,0.6l-2.2-1.4l-0.1-2.1L68.6,0z"/>
		<path class="st1" d="M73.6,7.4l-1,1.7L72.5,7l0.9-1.7L73.6,7.4z"/>
		<path class="st6" d="M77.9,8.3L77,10l-2.2,0.6l0.9-1.7L77.9,8.3z"/>
		<path class="st12" d="M75.6,4.7l2.2,1.5l0.1,2.1l-2.2,0.6l-2.2-1.5l-0.1-2.1L75.6,4.7z"/>
		<path class="st5" d="M75.7,8.9l-0.9,1.7l-2.2-1.5l1-1.7L75.7,8.9z"/>
		<path class="st0" d="M68.9,6.4l-1,1.7L67.9,6l0.9-1.7L68.9,6.4z"/>
		<path class="st9" d="M71.1,7.9l-1,1.7l-2.2-1.5l1-1.7L71.1,7.9z"/>
		<path class="st10" d="M73.2,7.3L72.3,9l-2.2,0.6l1-1.7L73.2,7.3z"/>
		<path class="st11" d="M71,3.8l2.2,1.5l0.1,2.1l-2.1,0.6l-2.2-1.5l-0.1-2.1L71,3.8z"/>
		<path class="st8" d="M64.3,5.5l-0.9,1.7l-0.1-2.1l1-1.7L64.3,5.5z"/>
		<path class="st16" d="M66.5,7l-1,1.7l-2.2-1.5l0.9-1.7L66.5,7z"/>
		<path class="st17" d="M68.7,6.4L67.7,8l-2.2,0.6l1-1.7L68.7,6.4z"/>
		<path class="st7" d="M66.4,2.8l2.2,1.5l0.1,2.1L66.5,7l-2.2-1.5l-0.1-2.1L66.4,2.8z"/>
		<path class="st14" d="M71.3,10.3L70.4,12l-0.1-2.1l1-1.7L71.3,10.3z"/>
		<path class="st13" d="M73.6,11.8l-0.9,1.7L70.4,12l0.9-1.7L73.6,11.8z"/>
		<path class="st15" d="M75.7,11.2l-1,1.7l-2.1,0.6l0.9-1.7L75.7,11.2z"/>
		<path class="st3" d="M73.4,7.6l2.2,1.4l0.1,2.1l-2.2,0.6l-2.2-1.5l-0.1-2.1L73.4,7.6z"/>
		<path class="st8" d="M66.8,9.3l-1,1.7l-0.1-2.1l0.9-1.7L66.8,9.3z"/>
		<path class="st16" d="M69,10.8l-1,1.7L65.8,11l1-1.7L69,10.8z"/>
		<path class="st17" d="M71.1,10.2l-0.9,1.7L68,12.5l1-1.7L71.1,10.2z"/>
		<path class="st7" d="M68.9,6.7l2.2,1.5l0.1,2.1L69,10.8l-2.2-1.4l-0.1-2.1L68.9,6.7z"/>
	</g>
	<path class="st2" d="M25.5,20.4c-2.6,0-4.7-1.8-4.7-4.7s1.9-4.8,4.8-4.8c2.8,0,4.6,1.9,4.6,4.6C30.3,18.9,28,20.4,25.5,20.4z
		 M25.6,18.4c1.1,0,1.8-1.1,1.8-2.7c0-1.3-0.5-2.7-1.8-2.7c-1.3,0-1.9,1.4-1.9,2.7C23.7,17.2,24.4,18.4,25.6,18.4z M11,19.7
		c-0.9,0.3-2.5,0.7-4.2,0.7c-2.3,0-3.9-0.6-5.1-1.7C0.6,17.6,0,16,0,14.1C0,10,3,7.6,7.1,7.6c1.6,0,2.8,0.3,3.5,0.6L10,10.4
		c-0.7-0.3-1.5-0.5-2.9-0.5c-2.4,0-4.2,1.3-4.2,4c0,2.6,1.7,4.1,4,4.1C7.5,18,8,18,8.3,17.8v-2.6H6.3V13H11L11,19.7L11,19.7z
		 M14.7,16.6c0.1,1.2,1.2,1.8,2.6,1.8c1,0,1.8-0.1,2.5-0.4l0.4,1.9c-0.9,0.4-2.1,0.6-3.3,0.6c-3.1,0-4.8-1.8-4.8-4.6
		c0-2.3,1.4-4.8,4.6-4.8c2.9,0,4,2.3,4,4.5c0,0.5-0.1,0.9-0.1,1.1H14.7z M18,14.6c0-0.7-0.3-1.9-1.6-1.9c-1.2,0-1.7,1.1-1.8,1.9H18z
		 M30.8,14.1c0-1.1-0.1-2.1-0.1-2.9h2.4l0.1,1.2h0.1c0.4-0.6,1.2-1.4,2.7-1.4c1.2,0,2.1,0.6,2.5,1.5h0.1c0.4-0.5,0.7-0.9,1.2-1.1
		c0.5-0.3,1-0.5,1.7-0.5c1.8,0,3,1.2,3,3.9v5.4h-2.7v-4.9c0-1.3-0.4-2.1-1.3-2.1c-0.7,0-1.1,0.5-1.3,1C39,14.4,39,14.7,39,15v5.3
		h-2.7v-5.1c0-1.1-0.4-1.9-1.3-1.9c-0.7,0-1.1,0.6-1.3,1c-0.1,0.2-0.1,0.5-0.1,0.7v5.3h-2.7v-6.1H30.8z M53.5,18.1
		c0,0.9,0.1,1.7,0.2,2.2h-2.5L51,19.3H51c-0.6,0.7-1.5,1.1-2.6,1.1c-1.9,0-2.9-1.3-2.9-2.8c0-2.4,2.1-3.5,5.3-3.5v-0.1
		c0-0.5-0.3-1.2-1.7-1.2c-0.9,0-1.9,0.3-2.5,0.7l-0.5-1.8c0.6-0.4,1.9-0.8,3.5-0.8c3,0,4,1.8,4,3.9V18.1L53.5,18.1z M50.8,15.9
		c-1.5,0-2.6,0.4-2.6,1.4c0,0.7,0.5,1.1,1.1,1.1c0.7,0,1.3-0.5,1.4-1c0.1-0.2,0.1-0.3,0.1-0.5V15.9z M57.9,8.7v2.5h2v2.1h-2v3.3
		c0,1.1,0.3,1.6,1.1,1.6c0.4,0,0.6,0,0.8-0.1v2.1c-0.4,0.1-1,0.3-1.8,0.3c-0.9,0-1.6-0.3-2.1-0.8c-0.5-0.5-0.8-1.4-0.8-2.7v-3.7H54
		v-2.1h1.2V9.5L57.9,8.7z"/>
	<path class="st13" d="M68.2,13.1c-0.2,0.1-0.4,0-0.5-0.1l-1.1-0.8l-0.8,3.4l-0.4,1.7h-0.1c-0.1-0.5-0.3-1.1-0.5-1.7l-1.3-4.4h-3.1
		l3.4,8.3c0.1,0.2,0.1,0.4,0.1,0.5c0,0.2-0.1,0.3-0.2,0.4c-0.3,0.5-0.7,0.9-1.2,1.1c-0.4,0.3-0.9,0.4-1.2,0.5l0.6,2.4
		c0.7-0.1,1.8-0.4,2.7-1.2c1-0.9,1.9-2.3,3.2-5.9l1.5-4.4C68.8,12.9,68.2,13.1,68.2,13.1L68.2,13.1z"/>
	<path class="st2" d="M73.8,14.7c-0.8-0.3-1.2-0.5-1.3-0.7L72.3,14c0,0-1.9-1.3-2.1-1.4c-0.1,0-0.1,0.1-0.2,0.1
		c-0.2,0.4-0.4,0.9-0.4,1.3c0,1,0.7,2.1,2.6,2.7c1,0.4,1.3,0.6,1.3,1c0,0.5-0.4,0.7-1.2,0.7c-0.8,0-1.9-0.4-2.4-0.7l-0.5,2
		c0.7,0.4,1.8,0.7,2.9,0.7c2.6,0,3.9-1.2,3.9-2.9C76.2,16.2,75.5,15.3,73.8,14.7z"/>
</g>
</svg>
