<?xml version="1.0" encoding="utf-8"?>
<!-- Generator: Adobe Illustrator 15.1.0, SVG Export Plug-In . SVG Version: 6.00 Build 0)  -->
<!DOCTYPE svg PUBLIC "-//W3C//DTD SVG 1.1//EN" "http://www.w3.org/Graphics/SVG/1.1/DTD/svg11.dtd">
<svg version="1.1" id="Calque_1" xmlns="http://www.w3.org/2000/svg" xmlns:xlink="http://www.w3.org/1999/xlink" x="0px" y="0px"
	 width="101.4px" height="39.9px" viewBox="0 0 101.4 39.9" style="enable-background:new 0 0 101.4 39.9;" xml:space="preserve">
<style type="text/css">
<![CDATA[
	.st0{opacity:0.8;fill:#FEDC92;enable-background:new    ;}
	.st1{fill:#B2B2B2;}
	.st2{fill:#FAC019;}
	.st3{fill:#FAC01C;}
	.st4{fill:#FAC228;}
	.st5{fill:#FBC843;}
	.st6{opacity:0.8;}
	.st7{fill:#FED471;}
	.st8{fill:#FEDC92;}
	.st9{fill:#FFE5AD;}
	.st10{fill:none;}
]]>
</style>
<g>
	<path class="st1" d="M43.8,15.3h-1v-1.1c0-0.3-0.1-0.5-0.3-0.7c-0.2-0.2-0.5-0.3-0.7-0.3c-0.3,0-0.5,0.1-0.7,0.3
		c-0.2,0.2-0.3,0.5-0.3,0.7c0,0,0,0,0,0l0,0v1.1c-0.2,0-0.5,0.1-0.6,0.2c-0.2,0.2-0.3,0.5-0.3,0.7c0,0,0,0,0,0c0,0,0,0,0,0
		c0,0.3,0.1,0.5,0.3,0.7c0.2,0.2,0.4,0.2,0.6,0.2v5c0,0,0,0,0,0c0,0.3,0.1,0.5,0.3,0.7c0.2,0.2,0.4,0.2,0.7,0.3h0h0.1
		c0.3,0,0.5-0.1,0.7-0.2c0.2-0.2,0.3-0.4,0.3-0.6l0,0v-5h1c0.3,0,0.5-0.1,0.7-0.3c0.2-0.2,0.3-0.5,0.3-0.7v0c0,0,0,0,0,0
		c0-0.3-0.1-0.5-0.3-0.7C44.3,15.3,44.1,15.3,43.8,15.3z M38.5,18.9c-0.5-0.5-1.2-0.7-1.9-0.7c0,0,0,0,0,0l-4,0
		c-0.2,0-0.3,0-0.5-0.2C32,17.9,32,17.9,32,17.7c0-0.2,0-0.2,0.2-0.3c0.1-0.1,0.3-0.2,0.5-0.2h4c0.3,0,0.5-0.1,0.7-0.2
		c0.2-0.2,0.3-0.5,0.3-0.7v0c0,0,0,0,0,0c0-0.2-0.1-0.5-0.3-0.7c-0.2-0.2-0.5-0.2-0.7-0.2h-4c-0.7,0-1.3,0.2-1.9,0.7
		C30.3,16.4,30,17,30,17.7c0,0,0,0,0,0v0c0,0.7,0.3,1.3,0.8,1.7c0.5,0.5,1.1,0.7,1.8,0.7h0l4.1,0c0.2,0,0.3,0.1,0.5,0.2
		c0.1,0.1,0.2,0.2,0.2,0.4c0,0.2,0,0.2-0.2,0.3c-0.1,0.1-0.3,0.2-0.5,0.2H31c-0.3,0-0.5,0.1-0.7,0.3C30,21.7,30,21.9,30,22.2
		c0,0,0,0,0,0c0,0,0,0,0,0c0,0.3,0.1,0.5,0.3,0.7c0.2,0.2,0.5,0.2,0.7,0.2h5.7h0c0.7,0,1.3-0.2,1.8-0.7c0.5-0.4,0.8-1.1,0.8-1.8v0
		c0,0,0,0,0,0C39.3,20,39,19.4,38.5,18.9z M9.1,21.5c-0.2-0.2-0.5-0.3-0.7-0.3l0,0H2.7c-0.2,0-0.3,0-0.5-0.2C2.1,20.9,2,20.9,2,20.7
		v-3c0-0.2,0-0.2,0.2-0.3c0.1-0.1,0.3-0.2,0.5-0.2h4c0.3,0,0.5-0.1,0.7-0.2c0.2-0.2,0.3-0.5,0.3-0.7v0c0,0,0,0,0,0
		c0-0.3-0.1-0.5-0.3-0.7c-0.2-0.2-0.5-0.2-0.7-0.2l-4,0h0c-0.7,0-1.4,0.2-1.9,0.7C0.3,16.4,0,17,0,17.7c0,0,0,0,0,0l0,3v0
		c0,0.7,0.3,1.3,0.8,1.7c0.5,0.5,1.2,0.7,1.9,0.7h5.7c0.3,0,0.5-0.1,0.7-0.2c0.2-0.2,0.3-0.5,0.3-0.7v0c0,0,0,0,0,0
		C9.4,21.9,9.3,21.7,9.1,21.5z M18.7,16c-0.5-0.5-1.2-0.7-1.9-0.7h0c0,0,0,0,0,0h-4c0,0,0,0,0,0c-0.7,0-1.4,0.2-1.9,0.7
		c-0.5,0.5-0.8,1.1-0.8,1.7c0,0,0,0,0,0l0,3v0c0,0.7,0.3,1.3,0.8,1.7c0.5,0.5,1.1,0.7,1.8,0.7h0h4.1c0.7,0,1.3-0.2,1.8-0.7
		c0.5-0.4,0.8-1.1,0.8-1.8h0l0-3c0,0,0,0,0,0C19.5,17,19.2,16.4,18.7,16z M17.5,20.7c0,0.2,0,0.2-0.2,0.3c-0.1,0.1-0.3,0.2-0.5,0.2
		h-4c-0.2,0-0.3,0-0.5-0.2c-0.1-0.1-0.2-0.2-0.2-0.3l0-3c0-0.2,0-0.2,0.2-0.3c0.1-0.1,0.3-0.2,0.5-0.2h4c0.2,0,0.3,0.1,0.5,0.2
		c0.1,0.1,0.2,0.2,0.2,0.3V20.7z M28.1,16c-0.5-0.5-1.2-0.7-1.9-0.7c0,0,0,0,0,0c0,0,0,0,0,0h-2.7c-0.4,0-0.7,0.1-1,0.2
		c-0.2-0.1-0.4-0.2-0.6-0.2c0,0,0,0,0,0c-0.2,0-0.5,0.1-0.7,0.2c-0.2,0.2-0.3,0.5-0.3,0.7c0,0,0,0,0,0l0,5.9v0
		c0,0.2,0.1,0.5,0.3,0.7c0.2,0.2,0.5,0.2,0.7,0.2c0.3,0,0.5-0.1,0.7-0.2c0.2-0.2,0.3-0.5,0.3-0.7v-4.5c0-0.2,0-0.2,0.2-0.3
		c0.1-0.1,0.3-0.2,0.5-0.2l2.7,0c0.2,0,0.3,0.1,0.5,0.2c0.1,0.1,0.2,0.2,0.2,0.3v4.5c0,0,0,0,0,0c0,0.2,0.1,0.5,0.3,0.7
		c0.2,0.2,0.5,0.2,0.7,0.2c0.3,0,0.5-0.1,0.7-0.2c0.2-0.2,0.3-0.5,0.3-0.7v-4.5c0,0,0,0,0,0C28.9,17,28.6,16.4,28.1,16z M80.5,13
		c-0.2-0.2-0.6-0.3-0.9-0.3c-0.3,0-0.6,0.1-0.9,0.3c-0.2,0.2-0.3,0.5-0.3,0.8c0,0,0,0,0,0v0c0,0.3,0.1,0.6,0.3,0.8
		c0.2,0.2,0.5,0.3,0.9,0.3c0.3,0,0.6-0.1,0.9-0.3c0.2-0.2,0.3-0.5,0.3-0.8l0,0v0c0,0,0,0,0,0C80.8,13.5,80.7,13.2,80.5,13z M90.8,16
		c-0.5-0.5-1.2-0.7-1.9-0.7c0,0,0,0,0,0s0,0,0,0h-4c0,0,0,0,0,0c-0.7,0-1.4,0.2-1.9,0.7c-0.5,0.5-0.8,1.1-0.8,1.7c0,0,0,0,0,0v3
		c0,0,0,0,0,0c0,0,0,0,0,0c0,0.7,0.3,1.3,0.8,1.7c0.5,0.5,1.2,0.7,1.9,0.7h4.1c0.7,0,1.3-0.2,1.8-0.7c0.5-0.4,0.8-1.1,0.8-1.8l0,0
		v-3c0,0,0,0,0,0C91.6,17,91.3,16.4,90.8,16z M89.5,20.7c0,0.2,0,0.2-0.2,0.3c-0.1,0.1-0.3,0.2-0.5,0.2h-4c-0.2,0-0.3-0.1-0.5-0.2
		c-0.1-0.1-0.2-0.2-0.2-0.3v-3c0-0.2,0-0.2,0.2-0.3c0.1-0.1,0.3-0.2,0.5-0.2h4c0.2,0,0.3,0.1,0.5,0.2c0.1,0.1,0.2,0.2,0.2,0.3
		L89.5,20.7L89.5,20.7z M54.2,16c-0.5-0.5-1.2-0.7-1.9-0.7c0,0,0,0,0,0h0c0,0,0,0,0,0h-4c-0.7,0-1.4,0.2-1.9,0.7
		c-0.5,0.5-0.8,1.1-0.8,1.7c0,0,0,0,0,0l0,3v0c0,0.7,0.3,1.3,0.8,1.7c0.5,0.5,1.1,0.7,1.8,0.7h4.1c0.3,0,0.5-0.1,0.7-0.2
		c0.2-0.2,0.3-0.5,0.3-0.7v0c0,0,0,0,0,0c0-0.3-0.1-0.5-0.3-0.7c-0.2-0.2-0.5-0.3-0.7-0.3h-4c-0.2,0-0.3,0-0.5-0.2
		c-0.1-0.1-0.2-0.2-0.2-0.3v-0.5l4.9,0v0c0.6,0,1.2-0.3,1.6-0.7c0.5-0.5,0.8-1.1,0.8-1.8l0,0c0,0,0,0,0,0C55,17,54.7,16.4,54.2,16z
		 M52.8,18.1L52.8,18.1c-0.1,0.1-0.3,0.2-0.5,0.2l-4.7,0v-0.5c0-0.2,0-0.2,0.2-0.3c0.1-0.1,0.3-0.2,0.5-0.2h4c0.2,0,0.3,0,0.5,0.2
		c0.1,0.1,0.2,0.2,0.2,0.4C52.9,17.9,52.9,17.9,52.8,18.1z M80.6,16.2c0-0.2-0.1-0.5-0.3-0.7c-0.2-0.2-0.5-0.3-0.7-0.3
		c-0.3,0-0.5,0.1-0.7,0.3c-0.2,0.2-0.3,0.5-0.3,0.7c0,0,0,0,0,0l0,5.9v0c0,0.2,0.1,0.5,0.3,0.7c0.2,0.2,0.5,0.3,0.7,0.3h0
		c0.3,0,0.5-0.1,0.7-0.3c0.2-0.2,0.3-0.5,0.3-0.7l0,0L80.6,16.2C80.6,16.2,80.6,16.2,80.6,16.2L80.6,16.2L80.6,16.2z M100.9,17.7
		c0-0.7-0.3-1.3-0.8-1.7c-0.5-0.5-1.2-0.7-1.9-0.7c0,0,0,0,0,0c0,0,0,0,0,0h-2.7c-0.4,0-0.7,0.1-1,0.2c-0.2-0.1-0.4-0.2-0.6-0.2h0
		c0,0,0,0,0,0c-0.2,0-0.5,0.1-0.7,0.2c-0.2,0.2-0.3,0.5-0.3,0.7v0c0,0,0,0,0,0v5.9c0,0,0,0,0,0c0,0.2,0.1,0.5,0.3,0.7
		c0.2,0.2,0.5,0.2,0.7,0.2c0.3,0,0.5-0.1,0.7-0.2c0.2-0.2,0.3-0.4,0.3-0.7l0,0v-4.5c0-0.2,0-0.2,0.2-0.3c0.1-0.1,0.3-0.2,0.5-0.2
		l2.7,0c0.2,0,0.3,0.1,0.5,0.2c0.1,0.1,0.2,0.2,0.2,0.3v4.5c0,0,0,0,0,0c0,0.2,0.1,0.5,0.3,0.7c0.2,0.2,0.5,0.2,0.7,0.2h0
		c0.3,0,0.5-0.1,0.7-0.2c0.2-0.2,0.3-0.5,0.3-0.7l0,0L100.9,17.7C100.9,17.7,100.9,17.7,100.9,17.7z M77.4,15.5
		c-0.2-0.2-0.5-0.3-0.7-0.3h-1v-1.1c0,0,0,0,0,0l0,0v0c0-0.3-0.1-0.5-0.3-0.7c-0.2-0.2-0.5-0.3-0.7-0.3c-0.3,0-0.5,0.1-0.7,0.2
		c-0.2,0.2-0.3,0.5-0.3,0.7c0,0,0,0,0,0v1.1c-0.2,0-0.5,0.1-0.6,0.3c-0.2,0.2-0.3,0.5-0.3,0.7c0,0,0,0,0,0c0,0.2,0.1,0.5,0.3,0.7
		c0.2,0.2,0.4,0.2,0.6,0.2v5h0c0,0,0,0,0,0c0,0.2,0.1,0.5,0.3,0.7c0.2,0.2,0.5,0.3,0.7,0.3h0c0.3,0,0.5-0.1,0.7-0.2
		c0.2-0.2,0.3-0.4,0.3-0.7l0,0v-5l1,0c0.3,0,0.5-0.1,0.7-0.3c0.2-0.2,0.3-0.5,0.3-0.7l0,0v0c0,0,0,0,0,0
		C77.7,16,77.6,15.7,77.4,15.5z M58.1,12.6c0-0.3-0.1-0.5-0.3-0.7c-0.2-0.2-0.5-0.3-0.7-0.3c-0.3,0-0.5,0.1-0.7,0.3
		c-0.2,0.2-0.3,0.5-0.3,0.7v9.6c0,0.3,0.1,0.5,0.3,0.7c0.2,0.2,0.5,0.3,0.7,0.3h0h0c0,0,0,0,0,0c0,0,0,0,0,0h0
		c0.3,0,0.5-0.1,0.7-0.3c0.2-0.2,0.3-0.5,0.3-0.7l0,0V12.6C58.1,12.6,58.1,12.6,58.1,12.6z M71.1,16c-0.5-0.5-1.2-0.7-1.9-0.7
		c0,0,0,0,0,0s0,0,0,0h-4c-0.3,0-0.5,0.1-0.7,0.2c-0.2,0.2-0.3,0.5-0.3,0.7v0c0,0.2,0.1,0.5,0.3,0.7c0.2,0.2,0.5,0.3,0.7,0.2h4
		c0.2,0,0.3,0.1,0.5,0.2c0.1,0.1,0.2,0.2,0.2,0.3v0.5l-4.7,0c0,0,0,0,0,0c-0.7,0-1.3,0.2-1.9,0.7c-0.5,0.5-0.8,1.1-0.8,1.8
		c0,0,0,0,0,0v0c0,0.7,0.3,1.3,0.8,1.7c0.5,0.5,1.1,0.7,1.8,0.7l0,0h4.1h0c0.4,0,0.7-0.1,1-0.2c0.2,0.1,0.4,0.2,0.6,0.2c0,0,0,0,0,0
		h0c0.2,0,0.5-0.1,0.7-0.2c0.2-0.2,0.3-0.4,0.3-0.7v0v0c0,0,0,0,0,0v-4.5c0,0,0,0,0,0C71.9,17,71.6,16.4,71.1,16z M69.9,20.7
		c0,0.2,0,0.2-0.2,0.3c-0.1,0.1-0.3,0.2-0.5,0.2l-4,0c-0.2,0-0.3,0-0.5-0.2c-0.1-0.1-0.2-0.2-0.2-0.3c0-0.2,0-0.2,0.2-0.4
		c0.1-0.1,0.3-0.2,0.5-0.2h4.7V20.7L69.9,20.7z M61.5,12.6c0-0.3-0.1-0.5-0.3-0.7c-0.2-0.2-0.5-0.3-0.7-0.3s-0.5,0.1-0.7,0.3
		c-0.2,0.2-0.3,0.5-0.3,0.7v9.6c0,0.3,0.1,0.5,0.3,0.7c0.2,0.2,0.5,0.3,0.7,0.3h0h0c0.3,0,0.5-0.1,0.7-0.3c0.2-0.2,0.3-0.5,0.3-0.7
		v0h0V12.6C61.5,12.6,61.5,12.6,61.5,12.6z"/>
	<path class="st1" d="M38.5,18.9c-0.5-0.5-1.2-0.7-1.9-0.7c0,0,0,0,0,0l-4,0c-0.2,0-0.3,0-0.5-0.2C32,17.9,32,17.9,32,17.7
		c0-0.2,0-0.2,0.2-0.3c0.1-0.1,0.3-0.2,0.5-0.2h4c0.3,0,0.5-0.1,0.7-0.2c0.2-0.2,0.3-0.5,0.3-0.7v0c0,0,0,0,0,0
		c0-0.2-0.1-0.5-0.3-0.7c-0.2-0.2-0.5-0.2-0.7-0.2h-4c-0.7,0-1.3,0.2-1.9,0.7C30.3,16.4,30,17,30,17.7c0,0,0,0,0,0v0
		c0,0.7,0.3,1.3,0.8,1.7c0.5,0.5,1.1,0.7,1.8,0.7h0l4.1,0c0.2,0,0.3,0.1,0.5,0.2c0.1,0.1,0.2,0.2,0.2,0.4c0,0.2,0,0.2-0.2,0.3
		c-0.1,0.1-0.3,0.2-0.5,0.2H31c-0.3,0-0.5,0.1-0.7,0.3C30,21.7,30,21.9,30,22.2c0,0,0,0,0,0c0,0,0,0,0,0c0,0.3,0.1,0.5,0.3,0.7
		c0.2,0.2,0.5,0.2,0.7,0.2h5.7h0c0.7,0,1.3-0.2,1.8-0.7c0.5-0.4,0.8-1.1,0.8-1.8v0c0,0,0,0,0,0C39.3,20,39,19.4,38.5,18.9z"/>
	<path class="st1" d="M43.8,15.3h-1v-1.1c0-0.3-0.1-0.5-0.3-0.7c-0.2-0.2-0.5-0.3-0.7-0.3c-0.3,0-0.5,0.1-0.7,0.3
		c-0.2,0.2-0.3,0.5-0.3,0.7c0,0,0,0,0,0l0,0v1.1c-0.2,0-0.5,0.1-0.6,0.2c-0.2,0.2-0.3,0.5-0.3,0.7c0,0,0,0,0,0c0,0,0,0,0,0
		c0,0.3,0.1,0.5,0.3,0.7c0.2,0.2,0.4,0.2,0.6,0.2v5c0,0,0,0,0,0c0,0.3,0.1,0.5,0.3,0.7c0.2,0.2,0.4,0.2,0.7,0.3h0h0.1
		c0.3,0,0.5-0.1,0.7-0.2c0.2-0.2,0.3-0.4,0.3-0.6l0,0v-5h1c0.3,0,0.5-0.1,0.7-0.3c0.2-0.2,0.3-0.5,0.3-0.7v0c0,0,0,0,0,0
		c0-0.3-0.1-0.5-0.3-0.7C44.3,15.3,44.1,15.3,43.8,15.3z"/>
	<path class="st1" d="M3.2,23.1c0.5-0.7,1-1.4,1.7-1.9H2.7c-0.2,0-0.3,0-0.5-0.2C2.1,20.9,2,20.9,2,20.7v-3c0-0.2,0-0.2,0.2-0.3
		c0.1-0.1,0.3-0.2,0.5-0.2h4c0.3,0,0.5-0.1,0.7-0.2c0.2-0.2,0.3-0.5,0.3-0.7v0c0,0,0,0,0,0c0-0.3-0.1-0.5-0.3-0.7
		c-0.2-0.2-0.5-0.2-0.7-0.2l-4,0h0c-0.7,0-1.4,0.2-1.9,0.7C0.3,16.4,0,17,0,17.7c0,0,0,0,0,0l0,3v0c0,0.7,0.3,1.3,0.8,1.7
		c0.5,0.5,1.2,0.7,1.9,0.7H3.2L3.2,23.1z"/>
	<path class="st1" d="M54.2,16c-0.5-0.5-1.2-0.7-1.9-0.7c0,0,0,0,0,0h0c0,0,0,0,0,0h-4c-0.7,0-1.4,0.2-1.9,0.7
		c-0.5,0.5-0.8,1.1-0.8,1.7c0,0,0,0,0,0l0,3v0c0,0.7,0.3,1.3,0.8,1.7c0.5,0.5,1.1,0.7,1.8,0.7h4.1c0.3,0,0.5-0.1,0.7-0.2
		c0.2-0.2,0.3-0.5,0.3-0.7v0c0,0,0,0,0,0c0-0.3-0.1-0.5-0.3-0.7c-0.2-0.2-0.5-0.3-0.7-0.3h-4c-0.2,0-0.3,0-0.5-0.2
		c-0.1-0.1-0.2-0.2-0.2-0.3v-0.5l4.9,0v0c0.6,0,1.2-0.3,1.6-0.7c0.5-0.5,0.8-1.1,0.8-1.8l0,0c0,0,0,0,0,0C55,17,54.7,16.4,54.2,16z
		 M52.8,18.1c-0.1,0.1-0.3,0.2-0.5,0.2l-4.7,0v-0.5c0-0.2,0-0.2,0.2-0.3c0.1-0.1,0.3-0.2,0.5-0.2h4c0.2,0,0.3,0,0.5,0.2
		c0.1,0.1,0.2,0.2,0.2,0.4C52.9,17.9,52.9,17.9,52.8,18.1z"/>
	<path class="st1" d="M78.6,19.5C78.6,19.5,78.6,19.5,78.6,19.5c0.5-0.3,1-0.3,1.5-0.2c0.2,0.1,0.4,0.1,0.5,0.2v-3.2c0,0,0,0,0,0v0
		c0-0.2-0.1-0.5-0.3-0.7c-0.2-0.2-0.5-0.3-0.7-0.3c-0.3,0-0.5,0.1-0.7,0.3c-0.2,0.2-0.3,0.5-0.3,0.7c0,0,0,0,0,0L78.6,19.5z"/>
	<path class="st1" d="M77.7,16.2c0-0.2-0.1-0.5-0.3-0.7c-0.2-0.2-0.5-0.3-0.7-0.3h-1v-1.1c0,0,0,0,0,0l0,0v0c0-0.3-0.1-0.5-0.3-0.7
		c-0.2-0.2-0.5-0.3-0.7-0.3c-0.3,0-0.5,0.1-0.7,0.2c-0.2,0.2-0.3,0.5-0.3,0.7c0,0,0,0,0,0v1.1c-0.2,0-0.5,0.1-0.6,0.3
		c-0.2,0.2-0.3,0.5-0.3,0.7c0,0,0,0,0,0c0,0.2,0.1,0.5,0.3,0.7c0.2,0.2,0.4,0.2,0.6,0.2V21c0.3-0.1,0.5-0.2,0.8-0.2c0,0,0,0,0,0
		c0.3,0,0.7,0.1,1,0.3c0.1,0.1,0.2,0.1,0.2,0.2v-4l1,0c0.3,0,0.5-0.1,0.7-0.3C77.6,16.8,77.7,16.5,77.7,16.2L77.7,16.2L77.7,16.2
		C77.7,16.2,77.7,16.2,77.7,16.2z"/>
	<path class="st1" d="M58.1,12.6c0-0.3-0.1-0.5-0.3-0.7c-0.2-0.2-0.5-0.3-0.7-0.3c-0.3,0-0.5,0.1-0.7,0.3c-0.2,0.2-0.3,0.5-0.3,0.7
		v9.6c0,0.3,0.1,0.5,0.3,0.7c0.2,0.2,0.5,0.3,0.7,0.3h0h0c0,0,0,0,0,0c0,0,0,0,0,0h0c0.3,0,0.5-0.1,0.7-0.3c0.2-0.2,0.3-0.5,0.3-0.7
		l0,0V12.6C58.1,12.6,58.1,12.6,58.1,12.6z"/>
	<path class="st1" d="M61.5,12.6c0-0.3-0.1-0.5-0.3-0.7c-0.2-0.2-0.5-0.3-0.7-0.3s-0.5,0.1-0.7,0.3c-0.2,0.2-0.3,0.5-0.3,0.7v9.6
		c0,0.3,0.1,0.5,0.3,0.7c0.2,0.2,0.5,0.3,0.7,0.3h0h0c0.3,0,0.5-0.1,0.7-0.3c0.2-0.2,0.3-0.5,0.3-0.7v0h0V12.6
		C61.5,12.6,61.5,12.6,61.5,12.6z"/>
	<path class="st1" d="M71.1,16c-0.5-0.5-1.2-0.7-1.9-0.7c0,0,0,0,0,0s0,0,0,0h-4c-0.3,0-0.5,0.1-0.7,0.2c-0.2,0.2-0.3,0.5-0.3,0.7v0
		c0,0.2,0.1,0.5,0.3,0.7c0.2,0.2,0.5,0.3,0.7,0.2h4c0.2,0,0.3,0.1,0.5,0.2c0.1,0.1,0.2,0.2,0.2,0.3v0.5l-4.7,0c0,0,0,0,0,0
		c-0.7,0-1.3,0.2-1.9,0.7c-0.5,0.5-0.8,1.1-0.8,1.8c0,0,0,0,0,0v0c0,0.7,0.3,1.3,0.8,1.7c0.5,0.5,1.1,0.7,1.8,0.7l0,0h4.1h0
		c0.4,0,0.7-0.1,1-0.2c0.2,0.1,0.4,0.2,0.6,0.2c0,0,0,0,0,0h0c0.2,0,0.5-0.1,0.7-0.2c0.2-0.2,0.3-0.4,0.3-0.7v0v0c0,0,0,0,0,0v-4.5
		c0,0,0,0,0,0C71.9,17,71.6,16.4,71.1,16z M69.9,20.7c0,0.2,0,0.2-0.2,0.3c-0.1,0.1-0.3,0.2-0.5,0.2l-4,0c-0.2,0-0.3,0-0.5-0.2
		c-0.1-0.1-0.2-0.2-0.2-0.3c0-0.2,0-0.2,0.2-0.4c0.1-0.1,0.3-0.2,0.5-0.2h4.7V20.7L69.9,20.7z"/>
	<path class="st1" d="M32.7,31L32.7,31c0.3,0.3,0.6,0.6,0.9,0.8l0.3-0.3c-0.3-0.3-0.6-0.5-0.9-0.8L32.7,31z"/>
	<path class="st1" d="M29.4,3.1l0,0.4c0.4,0,0.8-0.1,1.2-0.1l0-0.4C30.2,3,29.8,3,29.4,3.1z"/>
	<path class="st1" d="M31,29.4L31,29.4c0.3,0.3,0.6,0.6,0.9,0.8l0.3-0.3c-0.3-0.3-0.6-0.6-0.9-0.8L31,29.4z"/>
	<path class="st1" d="M26.1,24.2L26.1,24.2c0.3,0.3,0.5,0.6,0.8,0.9l0.3-0.3c-0.3-0.3-0.5-0.6-0.8-0.9L26.1,24.2z"/>
	<path class="st1" d="M29.3,27.7c0.3,0.3,0.6,0.6,0.8,0.9l0.3-0.3c-0.3-0.3-0.6-0.6-0.8-0.8L29.3,27.7z"/>
	<path class="st1" d="M35.4,2.8L35.4,2.8c-0.4,0-0.7,0-1.1,0h-0.1v0.4c0,0,0.1,0,0.1,0c0.4,0,0.7,0,1.1,0L35.4,2.8z"/>
	<path class="st1" d="M27.7,25.9L27.7,25.9c0.3,0.3,0.5,0.6,0.8,0.9l0.3-0.3c-0.3-0.3-0.5-0.6-0.8-0.9L27.7,25.9z"/>
	<path class="st1" d="M34.5,32.7c0.3,0.3,0.6,0.5,0.9,0.8l0.3-0.3c-0.3-0.3-0.6-0.5-0.9-0.8L34.5,32.7z"/>
	<path class="st1" d="M40.2,37.1c0.3,0.2,0.7,0.4,1,0.6l0.2-0.4c-0.3-0.2-0.7-0.4-1-0.6L40.2,37.1z"/>
	<path class="st1" d="M45,3.4c-0.4,0-0.8-0.1-1.2-0.1l0,0.4c0.4,0,0.8,0.1,1.2,0.1L45,3.4z"/>
	<path class="st1" d="M42.3,38.2c0.4,0.2,0.7,0.3,1.1,0.5l0.1-0.4c-0.4-0.1-0.7-0.3-1.1-0.5L42.3,38.2z"/>
	<path class="st1" d="M36.3,34.2c0.3,0.3,0.6,0.5,0.9,0.8l0.3-0.3c-0.3-0.2-0.6-0.5-0.9-0.7L36.3,34.2z"/>
	<path class="st1" d="M39,3l0,0.4c0.4,0,0.8,0,1.2,0.1l0-0.4C39.8,3,39.4,3,39,3z"/>
	<path class="st1" d="M36.6,3.3c0.4,0,0.8,0,1.2,0l0-0.4c-0.4,0-0.8,0-1.2,0L36.6,3.3z"/>
	<path class="st1" d="M33,3.3l0-0.4c-0.4,0-0.8,0-1.2,0l0,0.4C32.2,3.3,32.6,3.3,33,3.3z"/>
	<path class="st1" d="M42.6,3.2L42.6,3.2c-0.4,0-0.8-0.1-1.2-0.1l0,0.4c0.4,0,0.8,0.1,1.2,0.1L42.6,3.2z"/>
	<path class="st1" d="M19.8,7.4c0,0,0.1-0.1,0.1-0.1L19.5,7v0c0,0-0.1,0.1-0.1,0.1c-0.3,0.3-0.5,0.7-0.6,1.1l0.4,0.2
		C19.3,8,19.5,7.7,19.8,7.4z"/>
	<path class="st1" d="M23.7,4.7l-0.1-0.4v0c-0.4,0.2-0.8,0.3-1.1,0.5l0.2,0.4C22.9,5,23.3,4.9,23.7,4.7z"/>
	<path class="st1" d="M79,12.1c-0.2-0.3-0.4-0.6-0.7-0.8L78,11.6c0.3,0.3,0.5,0.6,0.7,0.8C78.8,12.3,78.9,12.2,79,12.1z"/>
	<path class="st1" d="M77.4,10.5c-0.3-0.2-0.6-0.5-1-0.7l-0.2,0.3c0.3,0.2,0.6,0.5,0.9,0.7L77.4,10.5z"/>
	<path class="st1" d="M44.6,39.1L44.6,39.1c0.4,0.1,0.8,0.2,1.2,0.3l0.1-0.4c-0.4-0.1-0.8-0.2-1.1-0.3L44.6,39.1z"/>
	<path class="st1" d="M18.9,10.2c0-0.2,0-0.4,0-0.7l-0.4,0l0,0c0,0.2,0,0.5,0,0.7c0,0.2,0,0.3,0,0.5l0.4,0
		C18.9,10.5,18.9,10.3,18.9,10.2z"/>
	<path class="st1" d="M21.4,5.4c-0.3,0.2-0.7,0.5-1,0.7l0.3,0.3c0.3-0.3,0.6-0.5,0.9-0.7L21.4,5.4L21.4,5.4L21.4,5.4z"/>
	<path class="st1" d="M24.5,22.3c0.2,0.3,0.5,0.6,0.8,0.9l0.3-0.3c-0.3-0.3-0.5-0.6-0.8-0.9L24.5,22.3z"/>
	<path class="st1" d="M18.7,11.9c0.1,0.4,0.2,0.8,0.3,1.2l0.4-0.1c-0.1-0.4-0.2-0.8-0.3-1.1L18.7,11.9z"/>
	<path class="st1" d="M19.4,14.2c0.1,0.4,0.3,0.7,0.5,1.1l0.4-0.2c-0.2-0.4-0.3-0.7-0.5-1.1L19.4,14.2z"/>
	<path class="st1" d="M38.2,35.7L38.2,35.7c0.3,0.2,0.7,0.5,1,0.7l0.2-0.3c-0.3-0.2-0.6-0.4-1-0.7L38.2,35.7z"/>
	<path class="st1" d="M70.6,30l0.3,0.3l0,0c0.3-0.3,0.6-0.5,0.9-0.8l-0.3-0.3C71.2,29.4,70.9,29.7,70.6,30z"/>
	<path class="st1" d="M69.7,30.7c-0.3,0.2-0.6,0.5-0.9,0.7l0.2,0.3c0.3-0.2,0.6-0.5,0.9-0.7L69.7,30.7z"/>
	<path class="st1" d="M73.2,8c-0.4-0.2-0.7-0.3-1.1-0.5L72,7.9c0.4,0.2,0.7,0.3,1.1,0.5L73.2,8z"/>
	<path class="st1" d="M66.8,32.9l0.2,0.3c0.3-0.2,0.7-0.5,1-0.7l-0.2-0.3C67.5,32.4,67.2,32.6,66.8,32.9z"/>
	<path class="st1" d="M65.1,5.9c0.4,0.1,0.8,0.2,1.2,0.2l0.1-0.4c-0.4-0.1-0.8-0.2-1.2-0.3L65.1,5.9z"/>
	<path class="st1" d="M64.8,34.2l0.2,0.3c0.3-0.2,0.7-0.4,1-0.7l-0.2-0.3C65.5,33.8,65.2,34,64.8,34.2z"/>
	<path class="st1" d="M67.5,6.4c0.4,0.1,0.8,0.2,1.2,0.3l0.1-0.4C68.3,6.2,68,6.1,67.6,6L67.5,6.4z"/>
	<path class="st1" d="M74.1,8.9c0.4,0.2,0.7,0.4,1,0.6l0.2-0.4c-0.3-0.2-0.7-0.4-1.1-0.6L74.1,8.9z"/>
	<path class="st1" d="M49.7,3.8L49.7,3.8c-0.4,0-0.8-0.1-1.2-0.1l0,0.4c0.4,0,0.8,0.1,1.2,0.1L49.7,3.8z"/>
	<path class="st1" d="M51.7,39.4l0,0.4c0.4,0,0.8-0.1,1.2-0.2l-0.1-0.4C52.5,39.3,52.1,39.3,51.7,39.4z"/>
	<path class="st1" d="M52.1,4.1C51.7,4,51.3,4,50.9,4l0,0.4c0.4,0,0.8,0.1,1.2,0.1L52.1,4.1z"/>
	<path class="st1" d="M54.5,4.3c-0.4,0-0.8-0.1-1.2-0.1l0,0.4c0.4,0,0.8,0.1,1.2,0.1L54.5,4.3z"/>
	<path class="st1" d="M62.8,35.4l0.2,0.4l0,0c0.3-0.2,0.7-0.4,1-0.6l-0.2-0.3C63.5,35,63.1,35.2,62.8,35.4z"/>
	<path class="st1" d="M46.9,39.7c0.4,0.1,0.8,0.1,1.2,0.2l0-0.4c-0.4,0-0.8-0.1-1.2-0.1L46.9,39.7z"/>
	<path class="st1" d="M47.4,3.6c-0.4,0-0.8-0.1-1.2-0.1l0,0.4C46.5,4,46.9,4,47.3,4L47.4,3.6z"/>
	<path class="st1" d="M54,39l0.1,0.4l0,0c0.4-0.1,0.8-0.2,1.2-0.3l-0.1-0.4C54.8,38.8,54.4,38.9,54,39z"/>
	<path class="st1" d="M49.8,39.5c-0.1,0-0.3,0-0.4,0l0,0.4c0.1,0,0.3,0,0.4,0c0.3,0,0.5,0,0.8,0l0-0.4C50.2,39.5,50,39.5,49.8,39.5z
		"/>
	<path class="st1" d="M61.7,4.9c-0.4-0.1-0.8-0.1-1.2-0.2l0,0.4c0.4,0,0.8,0.1,1.2,0.1L61.7,4.9z"/>
	<path class="st1" d="M60.7,36.5l0.2,0.4c0.4-0.2,0.7-0.4,1.1-0.5L61.8,36C61.4,36.2,61,36.3,60.7,36.5z"/>
	<path class="st1" d="M56.9,4.8l0-0.4c-0.1,0-0.2,0-0.3,0c-0.3,0-0.6,0-0.9-0.1l0,0.4c0.3,0,0.6,0,0.9,0.1
		C56.7,4.8,56.8,4.8,56.9,4.8z"/>
	<path class="st1" d="M64,5.3c-0.4-0.1-0.8-0.1-1.2-0.2l-0.1,0.4c0.4,0.1,0.8,0.1,1.2,0.2L64,5.3z"/>
	<path class="st1" d="M58.5,37.5l0.2,0.4l0,0c0.4-0.2,0.7-0.3,1.1-0.5L59.6,37C59.3,37.2,58.9,37.4,58.5,37.5z"/>
	<path class="st1" d="M56.3,38.3l0.1,0.4c0.4-0.1,0.8-0.3,1.1-0.4l-0.1-0.4C57,38.1,56.7,38.2,56.3,38.3z"/>
	<path class="st1" d="M59.3,4.6c-0.4,0-0.8-0.1-1.2-0.1l0,0.4C58.5,5,58.8,5,59.2,5L59.3,4.6z"/>
	<path class="st1" d="M46.9,39.7L46.9,39.7L46.9,39.7z"/>
	<rect x="77.4" y="10.5" class="st1" width="0" height="0"/>
	<rect x="61.7" y="4.9" class="st1" width="0" height="0"/>
	<rect x="47.4" y="3.6" class="st1" width="0" height="0"/>
	<rect x="37.8" y="2.9" class="st1" width="0" height="0"/>
	<polygon class="st1" points="33,2.8 33,2.8 33,2.8 33,2.8 	"/>
	<g>
		<g>
			<g>
				<g class="st6">
					<line class="st10" x1="47.3" y1="8" x2="47.3" y2="8"/>
					<path class="st8" d="M47.3,8c1,0,1.7,0,2.2,0.1l1.6-0.2c-1.2,0.2-2.3,0.4-3.5,0.6c-3.1,0.6-6.7,1.4-10,2.3
						c-3.4,0.8-6.5,1.8-9,2.5c1.5-0.5,3.2-1,4.9-1.5l1.6-0.5c1.1-0.3,2-0.6,2.8-0.8l-0.5,0.1c1.1-0.3,2.3-0.7,3.4-1
						c1.1-0.3,2.3-0.6,3.5-0.8c-1.2,0.3-2.3,0.5-3.5,0.8C43.1,9.1,45.2,8.6,47.3,8"/>
					<line class="st10" x1="40.9" y1="9.7" x2="40.9" y2="9.7"/>
					<line class="st10" x1="28.6" y1="13.3" x2="28.6" y2="13.3"/>
					<line class="st10" x1="51.2" y1="7.9" x2="51.2" y2="7.9"/>
					<path class="st8" d="M59.3,26.7l-0.1,0l0.8-0.2c3.2-0.8,6.4-1.6,9.4-2.5c3.6-1,7.3-2.2,11.1-3.6c0.8-0.3,1.5-0.5,2.3-0.8
						c-1.5,0.6-3.1,1.2-4.6,1.8l-0.5,0.2c-3.3,1.1-6.4,2-9.4,2.9C65.3,25.3,62.4,26,59.3,26.7"/>
					<line class="st10" x1="78.1" y1="21.4" x2="78.1" y2="21.4"/>
					<line class="st10" x1="82.2" y1="19.5" x2="82.2" y2="19.5"/>
					<path class="st3" d="M82.2,19.5c3.5-1.4,7.2-2.9,10.6-4.9l0,0.1c-1.9,1.1-4,2.1-6.2,3c-0.6,0.3-1.2,0.5-1.8,0.7l0.4-0.2
						C84.2,18.8,83.2,19.1,82.2,19.5"/>
					<path class="st3" d="M90,16.3c1-0.5,2.1-1.1,3.1-1.6l0.4-0.2C92.3,15.1,91.2,15.7,90,16.3"/>
					<polyline class="st3" points="58.6,28.2 57.7,28.4 58.8,28.2 58.6,28.2 					"/>
					<line class="st10" x1="57.7" y1="28.4" x2="57.7" y2="28.4"/>
					<line class="st10" x1="93.7" y1="17.3" x2="93.7" y2="17.3"/>
					<path class="st3" d="M93.7,17.3c-0.5,0.3-1,0.5-1.5,0.8C92.6,17.8,93.1,17.5,93.7,17.3"/>
					<polyline class="st3" points="92.1,18 91.9,18.1 92.1,18 					"/>
					<line class="st10" x1="92.4" y1="5" x2="92.4" y2="5"/>
					<path class="st3" d="M92.4,5c0.4,0.1,0.8,0.1,1.1,0.2C93.1,5.2,92.7,5.1,92.4,5"/>
					<line class="st10" x1="99.6" y1="12.9" x2="99.6" y2="12.9"/>
					<path class="st3" d="M99.6,12.9c-0.1,0.1-0.3,0.2-0.4,0.3C99.4,13.2,99.5,13,99.6,12.9"/>
					<path class="st3" d="M14.4,30.2c-0.9-0.1-1.7-0.3-2.5-0.5C12.7,29.9,13.5,30.1,14.4,30.2"/>
					<line class="st10" x1="57.7" y1="28.4" x2="57.7" y2="28.4"/>
					<polyline class="st3" points="57.7,28.4 55.8,28.7 57.7,28.4 					"/>
					<line class="st10" x1="95.2" y1="5.8" x2="95.2" y2="5.8"/>
					<line class="st10" x1="95.2" y1="5.8" x2="95.2" y2="5.8"/>
					<path class="st3" d="M95.2,5.8c0.5,0.1,1,0.3,1.5,0.5c-0.4-0.2-0.8-0.3-1.3-0.4L95.2,5.8"/>
					<path class="st3" d="M90.3,4.7C91,4.8,91.7,4.9,92.4,5c-0.5-0.1-0.9-0.1-1.4-0.2L90.3,4.7"/>
					<line class="st10" x1="92.4" y1="5" x2="92.4" y2="5"/>
					<path class="st3" d="M98.9,10.4c0.4-0.6,0.7-1.2,0.7-1.6c0-0.1,0-0.2,0-0.2c0,0.1,0,0.2,0,0.2c0-0.1,0-0.2,0-0.2l0,0
						c0,0.2,0,0.5-0.1,0.9C99.4,9.7,99.2,10.1,98.9,10.4"/>
					<line class="st10" x1="92.4" y1="5.1" x2="92.4" y2="5.1"/>
					<line class="st10" x1="92.4" y1="5.1" x2="92.4" y2="5.1"/>
					<path class="st3" d="M92.4,5.1c1,0.2,2,0.4,2.9,0.7c0.5,0.1,1,0.3,1.5,0.5c-0.4-0.2-0.8-0.3-1.3-0.4c0.7,0.2,1.4,0.5,2,0.8
						c0.6,0.3,1.2,0.7,1.6,1.1c0.2,0.2,0.3,0.4,0.4,0.6c0,0,0,0,0,0.1c0,0,0,0,0,0l0,0.1l0,0l0,0l0,0v0c0,0,0-0.1,0,0l0,0
						c0,0,0,0,0,0.1c0,0.1,0,0.2,0,0.3c-0.1,0.4-0.4,1-0.9,1.6c-0.1,0.1-0.2,0.2-0.2,0.3c0.5-0.5,0.8-1,1-1.5
						c0.1-0.2,0.1-0.5,0.1-0.6c0,0,0-0.1,0-0.1l0,0l0,0c0,0,0,0,0,0l0,0v0l0,0l0,0l0-0.1c0-0.1,0-0.1,0-0.1c0-0.1-0.1-0.2-0.1-0.3
						c0,0.1,0.1,0.1,0.1,0.2c0,0,0,0.1,0,0.1c0,0,0,0,0,0.1l0,0.1l0,0l0,0l0,0v0l0,0c0-0.1,0,0,0,0v0v0l0,0c0,0,0,0.1,0,0.1
						c0,0.1,0,0.1,0,0.2c0-0.1,0-0.2,0-0.2l0,0l0,0l0,0v0v0v0c0,0,0,0,0,0v0l0,0v0l0-0.1c0-0.1,0,0,0-0.1c0-0.1-0.1-0.1-0.1-0.2
						c0,0.1,0.1,0.1,0.1,0.2c0,0.1,0,0,0,0.1l0,0.1v0v0l0,0c0-0.1,0,0,0,0l0,0v0l0,0v0l0,0l0,0l0,0l0,0l0,0v0c0,0,0,0,0,0l0,0l0,0
						l0,0l0-0.1l0,0l0,0c0,0,0-0.1,0-0.1c0-0.1-0.1-0.2-0.1-0.3c-0.1-0.2-0.3-0.4-0.5-0.6c-0.5-0.4-1.1-0.7-1.7-1
						c0.5,0.2,1,0.5,1.4,0.8c-0.5-0.4-1.2-0.7-1.8-0.9c0.1,0,0.3,0.1,0.4,0.2c-0.6-0.3-1.2-0.5-1.9-0.7C94.3,5.5,93.3,5.3,92.4,5.1
						 M96.7,6.2c-0.1-0.1-0.3-0.1-0.4-0.1C96.4,6.1,96.6,6.2,96.7,6.2 M99.4,8.1L99.4,8.1"/>
					<line class="st10" x1="95.5" y1="5.8" x2="95.5" y2="5.8"/>
					<path class="st2" d="M95.5,5.8c0.4,0.1,0.9,0.3,1.3,0.4C96.3,6.1,95.9,6,95.5,5.8"/>
					<line class="st10" x1="96.7" y1="6.3" x2="96.7" y2="6.3"/>
					<line class="st10" x1="99.6" y1="8.6" x2="99.6" y2="8.6"/>
					<path class="st2" d="M99.6,8.6c0,0.1,0,0.2,0,0.2C99.6,8.7,99.6,8.6,99.6,8.6"/>
					<line class="st10" x1="86.8" y1="4.4" x2="86.8" y2="4.4"/>
					<line class="st10" x1="86.8" y1="4.4" x2="86.8" y2="4.4"/>
					<path class="st3" d="M86.8,4.4L88,4.5c0.5,0,1.1,0.1,1.6,0.1c1.6,0.2,3.2,0.4,4.8,0.8c0.3,0.1,0.6,0.2,0.9,0.2
						c-0.9-0.3-1.9-0.5-2.9-0.6C90.5,4.8,88.7,4.6,86.8,4.4"/>
					<line class="st10" x1="95.3" y1="5.7" x2="95.3" y2="5.7"/>
					<line class="st10" x1="99.4" y1="8.1" x2="99.4" y2="8.1"/>
					<line class="st10" x1="99.4" y1="8.1" x2="99.4" y2="8.1"/>
					<path class="st3" d="M99.4,8.1c0,0.1,0.1,0.1,0.1,0.2c0,0.1,0,0,0,0.1l0,0.1v0l0,0l0,0c0-0.1,0,0,0,0l0,0v0v0l0,0l0,0l0,0l0,0
						l0,0l0,0l0,0l0,0v0l0,0c0,0,0,0,0,0v0l0,0v0l0-0.1c0-0.1,0,0,0-0.1C99.5,8.3,99.5,8.2,99.4,8.1"/>
					<line class="st10" x1="99.6" y1="8.6" x2="99.6" y2="8.6"/>
					<path class="st2" d="M99.4,8.1c0,0.1,0.1,0.1,0.1,0.2c0,0.1,0,0,0,0.1l0,0.1v0l0,0l0,0c0-0.1,0,0,0,0l0,0v0v0l0,0l0,0l0,0l0,0
						l0,0l0,0v0v0l0,0c0,0,0,0,0,0l0,0l0,0v0l0-0.1c0-0.1,0,0,0-0.1C99.5,8.3,99.5,8.2,99.4,8.1"/>
					<line class="st10" x1="99.6" y1="8.6" x2="99.6" y2="8.6"/>
					<line class="st10" x1="86.3" y1="4.4" x2="86.3" y2="4.4"/>
					<line class="st10" x1="86.3" y1="4.4" x2="86.3" y2="4.4"/>
					<polyline class="st3" points="86.3,4.4 87.3,4.5 88,4.5 86.8,4.4 86.3,4.4 					"/>
					<line class="st10" x1="87" y1="4.4" x2="87" y2="4.4"/>
					<line class="st10" x1="87" y1="4.4" x2="87" y2="4.4"/>
					<polyline class="st3" points="87,4.4 87.3,4.5 87,4.4 					"/>
					<path class="st3" d="M87.7,4.5c0.9,0.1,1.8,0.1,2.6,0.2c-0.5,0-0.9-0.1-1.4-0.1C88.5,4.5,88.1,4.5,87.7,4.5"/>
					<line class="st10" x1="88" y1="4.5" x2="88" y2="4.5"/>
					<line class="st10" x1="99.6" y1="8.6" x2="99.6" y2="8.6"/>
					<line class="st10" x1="99.6" y1="8.6" x2="99.6" y2="8.6"/>
					<path class="st2" d="M99.6,8.6c0,0.1,0,0.2,0,0.2C99.6,8.7,99.6,8.6,99.6,8.6"/>
					<line class="st10" x1="99.6" y1="8.6" x2="99.6" y2="8.6"/>
					<line class="st10" x1="87" y1="4.4" x2="87" y2="4.4"/>
					<line class="st10" x1="87" y1="4.4" x2="87" y2="4.4"/>
					<polyline class="st3" points="87,4.4 87.7,4.5 87,4.4 					"/>
					<path class="st3" d="M87.3,4.5l0.4,0c0.4,0,0.8,0.1,1.2,0.1l0.7,0.1c-0.5-0.1-1.1-0.1-1.6-0.1c0.5,0,1.1,0.1,1.6,0.1
						c-0.5-0.1-1.1-0.1-1.6-0.1L87.3,4.5"/>
					<polyline class="st2" points="87,4.4 87.7,4.5 87.3,4.5 87,4.4 					"/>
					<path class="st2" d="M87.7,4.5c0.4,0,0.8,0.1,1.2,0.1C88.5,4.5,88.1,4.5,87.7,4.5"/>
					<line class="st10" x1="89.6" y1="4.7" x2="89.6" y2="4.7"/>
					<line class="st10" x1="89.6" y1="4.7" x2="89.6" y2="4.7"/>
					<line class="st10" x1="88" y1="4.5" x2="88" y2="4.5"/>
					<path class="st2" d="M88,4.5c0.5,0,1.1,0.1,1.6,0.1C89.1,4.6,88.5,4.6,88,4.5"/>
					<line class="st10" x1="88.9" y1="4.6" x2="88.9" y2="4.6"/>
					<line class="st10" x1="88.9" y1="4.6" x2="88.9" y2="4.6"/>
					<line class="st10" x1="88.9" y1="4.6" x2="88.9" y2="4.6"/>
					<line class="st10" x1="88.9" y1="4.6" x2="88.9" y2="4.6"/>
					<path class="st3" d="M88.9,4.6c0.5,0,0.9,0.1,1.4,0.1L91,4.8C90.3,4.7,89.6,4.6,88.9,4.6"/>
					<line class="st10" x1="90.3" y1="4.7" x2="90.3" y2="4.7"/>
					<line class="st10" x1="90.3" y1="4.7" x2="90.3" y2="4.7"/>
					<polyline class="st2" points="90.3,4.7 91,4.8 90.3,4.7 					"/>
					<path class="st2" d="M88.9,4.6c0.5,0,0.9,0.1,1.4,0.1C89.8,4.7,89.4,4.6,88.9,4.6"/>
					<line class="st10" x1="90.3" y1="4.7" x2="90.3" y2="4.7"/>
					<line class="st10" x1="88.9" y1="4.6" x2="88.9" y2="4.6"/>
					<line class="st10" x1="88.9" y1="4.6" x2="88.9" y2="4.6"/>
					<path class="st3" d="M88.9,4.6c0.7,0.1,1.4,0.1,2.1,0.2c0.4,0.1,0.8,0.1,1.1,0.2c-0.8-0.1-1.5-0.2-2.3-0.3l-0.2,0L88.9,4.6"/>
					<line class="st10" x1="91" y1="4.8" x2="91" y2="4.8"/>
					<line class="st10" x1="92.1" y1="5" x2="92.1" y2="5"/>
					<line class="st10" x1="88.9" y1="4.6" x2="88.9" y2="4.6"/>
					<line class="st10" x1="88.9" y1="4.6" x2="88.9" y2="4.6"/>
					<path class="st2" d="M88.9,4.6c0.7,0.1,1.4,0.1,2.1,0.2C90.3,4.7,89.6,4.6,88.9,4.6"/>
					<line class="st10" x1="91" y1="4.8" x2="91" y2="4.8"/>
					<line class="st10" x1="91" y1="4.8" x2="91" y2="4.8"/>
					<path class="st2" d="M96.3,6.1c0.1,0,0.3,0.1,0.4,0.1C96.6,6.2,96.4,6.1,96.3,6.1"/>
					<line class="st10" x1="89.6" y1="4.7" x2="89.6" y2="4.7"/>
					<line class="st10" x1="96.7" y1="6.2" x2="96.7" y2="6.2"/>
					<line class="st10" x1="96.7" y1="6.2" x2="96.7" y2="6.2"/>
					<path class="st3" d="M96.7,6.2c0.1,0,0.3,0.1,0.4,0.2c0.5,0.2,1,0.5,1.4,0.8C98,6.8,97.4,6.5,96.7,6.2"/>
					<path class="st2" d="M96.7,6.2c0.1,0,0.3,0.1,0.4,0.2C97,6.3,96.9,6.3,96.7,6.2"/>
					<line class="st10" x1="97.1" y1="6.4" x2="97.1" y2="6.4"/>
					<path class="st2" d="M97.1,6.4c0.5,0.2,1,0.5,1.4,0.8C98.1,6.9,97.6,6.6,97.1,6.4"/>
					<line class="st10" x1="97.1" y1="6.4" x2="97.1" y2="6.4"/>
					<line class="st10" x1="98.5" y1="7.2" x2="98.5" y2="7.2"/>
					<line class="st10" x1="94.4" y1="5.5" x2="94.4" y2="5.5"/>
					<line class="st10" x1="94.4" y1="5.5" x2="94.4" y2="5.5"/>
					<path class="st3" d="M94.4,5.5c0.4,0.1,0.9,0.2,1.3,0.4l-0.4-0.1C95,5.6,94.7,5.6,94.4,5.5"/>
					<line class="st10" x1="89.6" y1="4.7" x2="89.6" y2="4.7"/>
					<line class="st10" x1="89.6" y1="4.7" x2="89.6" y2="4.7"/>
					<path class="st3" d="M89.6,4.7l0.2,0c1.5,0.2,3.1,0.4,4.5,0.8C92.8,5.1,91.2,4.9,89.6,4.7"/>
					<polyline class="st2" points="89.6,4.7 89.8,4.7 89.6,4.7 89.8,4.7 89.6,4.7 					"/>
					<polyline class="st2" points="89.6,4.7 89.8,4.7 89.6,4.7 					"/>
					<line class="st10" x1="94.4" y1="5.5" x2="94.4" y2="5.5"/>
					<path class="st3" d="M97.6,14c-1,0.7-2,1.3-3.1,1.9c1.2-0.7,2.3-1.4,3.4-2.2L97.6,14"/>
					<line class="st10" x1="94.6" y1="15.9" x2="94.6" y2="15.9"/>
					<path class="st3" d="M96.3,15c-1,0.6-2,1.1-3,1.6c1.3-0.7,2.5-1.4,3.7-2.2C96.8,14.6,96.5,14.8,96.3,15"/>
					<line class="st10" x1="93.3" y1="16.6" x2="93.3" y2="16.6"/>
					<line class="st10" x1="94.1" y1="16.6" x2="94.1" y2="16.6"/>
					<line class="st10" x1="94.1" y1="16.6" x2="94.1" y2="16.6"/>
					<path class="st3" d="M94.1,16.6c-3,1.6-5.8,2.9-8.3,3.8c1.4-0.6,2.8-1.1,4.2-1.8l-0.2,0.1C91.3,18.1,92.7,17.4,94.1,16.6"/>
					<line class="st10" x1="90" y1="18.6" x2="90" y2="18.6"/>
					<line class="st10" x1="90" y1="18.6" x2="90" y2="18.6"/>
					<line class="st10" x1="85.8" y1="20.4" x2="85.8" y2="20.4"/>
					<line class="st10" x1="94.1" y1="16.6" x2="94.1" y2="16.6"/>
					<line class="st10" x1="94.1" y1="16.6" x2="94.1" y2="16.6"/>
					<path class="st3" d="M94.1,16.6c-1.4,0.8-2.9,1.5-4.3,2.1l0.2-0.1C91.4,18,92.8,17.3,94.1,16.6"/>
					<line class="st10" x1="94.1" y1="16.6" x2="94.1" y2="16.6"/>
					<path class="st2" d="M94.1,16.6c-1.4,0.8-2.9,1.5-4.3,2.1C91.3,18.1,92.7,17.4,94.1,16.6"/>
					<line class="st10" x1="89.8" y1="18.7" x2="89.8" y2="18.7"/>
					<path class="st3" d="M95.4,15.5c-0.3,0.2-0.7,0.4-1.1,0.6c0.6-0.4,1.2-0.7,1.9-1.1C96,15.2,95.7,15.4,95.4,15.5"/>
					<line class="st10" x1="94.4" y1="16.1" x2="94.4" y2="16.1"/>
					<line class="st10" x1="101.2" y1="7.7" x2="101.2" y2="7.7"/>
					<path class="st3" d="M101.2,7.7c0,0.1,0,0.1,0.1,0.2c0,0.1,0,0.1,0,0.2c0,0.2,0,0.3,0.1,0.4c0,0.3,0,0.6-0.1,0.8
						c0.1-0.3,0.1-0.5,0.1-0.8c0-0.1,0-0.3-0.1-0.4c0-0.1,0-0.1,0-0.2C101.3,7.9,101.2,7.8,101.2,7.7"/>
					<path class="st9" d="M53.8,6.2l-1.2,0.2L51,6.8c2.6-0.5,5.2-0.9,8.2-1.3l-0.9,0.1c3.3-0.5,5.7-0.8,8.5-1.1
						C62.7,4.8,57.5,5.6,53.8,6.2 M58.2,5.5L58.2,5.5"/>
					<line class="st10" x1="59.2" y1="5.4" x2="59.2" y2="5.4"/>
					<line class="st10" x1="66.7" y1="4.4" x2="66.7" y2="4.4"/>
					<line class="st10" x1="71.7" y1="3.9" x2="71.7" y2="3.9"/>
					<polyline class="st3" points="71.7,3.9 72.6,3.8 71.7,3.9 					"/>
					<line class="st10" x1="59.2" y1="5.4" x2="59.2" y2="5.4"/>
					<polyline class="st3" points="59.2,5.4 60.6,5.2 59.2,5.4 					"/>
					<line class="st10" x1="70.2" y1="4" x2="70.2" y2="4"/>
					<polyline class="st3" points="70.2,4 71.7,3.9 70.2,4 					"/>
					<path class="st3" d="M101.1,8.3c0.1,0.5,0,1-0.2,1.5c-0.2,0.5-0.4,0.9-0.7,1.3c0.3-0.4,0.5-0.8,0.7-1.3
						C101.1,9.4,101.2,8.8,101.1,8.3L101.1,8.3"/>
					<path class="st3" d="M101.2,8.3c0.1,0.5,0,1.1-0.2,1.5C101.1,9.4,101.2,8.8,101.2,8.3L101.2,8.3"/>
					<line class="st10" x1="101" y1="9.8" x2="101" y2="9.8"/>
					<line class="st10" x1="101.1" y1="7.8" x2="101.1" y2="7.8"/>
					<line class="st10" x1="101.1" y1="7.8" x2="101.1" y2="7.8"/>
					<path class="st3" d="M101.1,7.8c0.1,0.4,0.2,0.9,0.1,1.3c-0.1,0.5-0.3,1-0.5,1.4c-0.3,0.4-0.6,0.8-0.9,1.2c0.4-0.5,0.8-1,1-1.5
						c0.3-0.6,0.4-1.2,0.3-1.9c0,0,0-0.1,0-0.1l0-0.1C101.2,8,101.1,7.9,101.1,7.8"/>
					<line class="st10" x1="99.8" y1="11.7" x2="99.8" y2="11.7"/>
					<path class="st3" d="M101.1,7.8c0.1,0.4,0.2,0.9,0.1,1.3C101.3,8.7,101.3,8.2,101.1,7.8L101.1,7.8"/>
					<line class="st10" x1="101.2" y1="9.1" x2="101.2" y2="9.1"/>
					<line class="st10" x1="101.1" y1="7.5" x2="101.1" y2="7.5"/>
					<line class="st10" x1="101.1" y1="7.5" x2="101.1" y2="7.5"/>
					<path class="st3" d="M101.1,7.5c0.1,0.2,0.1,0.3,0.2,0.5c0,0.1,0.1,0.3,0.1,0.5c0,0.3,0,0.6-0.1,0.9c-0.1,0.6-0.4,1.1-0.8,1.6
						c0.4-0.5,0.7-1.2,0.8-1.9c0.1-0.4,0-0.9-0.1-1.3C101.1,7.7,101.1,7.6,101.1,7.5"/>
					<line class="st10" x1="100.5" y1="11" x2="100.5" y2="11"/>
					<line class="st10" x1="101.1" y1="8.3" x2="101.1" y2="8.3"/>
					<path class="st9" d="M101.1,8.3c0.1,0.5,0,1-0.2,1.5c-0.2,0.5-0.4,0.9-0.7,1.3c0.3-0.4,0.6-0.8,0.7-1.3
						c-0.2,0.7-0.6,1.3-1.1,1.8c-0.5,0.5-1,1-1.5,1.5c-1.1,0.9-2.3,1.7-3.5,2.4c1.2-0.7,2.4-1.5,3.4-2.4c0.9-0.8,1.8-1.7,2.4-2.8
						c0.3-0.6,0.5-1.2,0.4-1.8c0-0.2,0-0.3-0.1-0.5c0-0.2-0.1-0.3-0.2-0.5c-0.1-0.3-0.3-0.6-0.5-0.8C100.7,7.2,101,7.7,101.1,8.3"/>
					<path class="st2" d="M101.1,8.3c0.1,0.5,0,1-0.2,1.5c-0.2,0.5-0.4,0.9-0.7,1.3c0.3-0.4,0.5-0.8,0.7-1.3
						C101.1,9.4,101.2,8.8,101.1,8.3"/>
					<line class="st10" x1="100.2" y1="11.1" x2="100.2" y2="11.1"/>
					<line class="st10" x1="101" y1="9.8" x2="101" y2="9.8"/>
					<line class="st10" x1="101" y1="9.8" x2="101" y2="9.8"/>
					<path class="st3" d="M99.4,6c0.4,0.3,0.7,0.6,1,0.9c0.3,0.4,0.5,0.8,0.6,1.3c0.1,0.5,0,1-0.1,1.4c-0.1,0.5-0.4,0.9-0.6,1.2
						c-0.5,0.7-1.1,1.4-1.7,1.9c-0.6,0.5-1.2,1-1.8,1.3c0.2-0.2,0.4-0.3,0.6-0.5c1-0.7,1.8-1.5,2.5-2.4c0.3-0.4,0.6-0.9,0.8-1.4
						c0.2-0.5,0.3-1,0.2-1.6c-0.1-0.5-0.3-1-0.7-1.4c-0.4-0.4-0.8-0.8-1.3-1c-1-0.6-2-1-3.3-1.3l-0.4-0.1c1.1,0.3,2.6,0.8,3.9,1.7
						c0.6,0.4,1.2,1,1.4,1.7c0.3,0.7,0.2,1.4-0.1,1.9c0.2-0.4,0.2-0.9,0.2-1.4c-0.1-0.5-0.2-0.9-0.5-1.3c-0.6-0.7-1.4-1.2-2.2-1.7
						c-1.6-0.8-3.4-1.2-5.2-1.6c1.1,0.2,2.2,0.4,3.3,0.7C97.3,5,98.4,5.4,99.4,6"/>
					<line class="st10" x1="100.7" y1="9.7" x2="100.7" y2="9.7"/>
					<line class="st10" x1="100" y1="11" x2="100" y2="11"/>
					<line class="st10" x1="100" y1="11" x2="100" y2="11"/>
					<path class="st3" d="M100,11c-0.5,0.7-1.1,1.2-1.7,1.7c-0.6,0.5-1.3,1-2,1.4c0.6-0.4,1.2-0.8,1.7-1.2
						C98.7,12.3,99.4,11.7,100,11"/>
					<polyline class="st3" points="90.5,17.3 89.8,17.6 89.6,17.7 90.5,17.3 					"/>
					<path class="st3" d="M94.3,15.4c-0.3,0.2-0.7,0.4-1,0.6c-0.9,0.5-1.8,0.9-2.8,1.4l-0.6,0.3C91.3,16.9,92.8,16.2,94.3,15.4
						 M93.2,16c-0.9,0.5-1.8,0.9-2.8,1.4C91.4,16.9,92.3,16.5,93.2,16"/>
					<line class="st10" x1="89.8" y1="17.6" x2="89.8" y2="17.6"/>
					<line class="st10" x1="98" y1="12.9" x2="98" y2="12.9"/>
					<line class="st10" x1="98" y1="12.9" x2="98" y2="12.9"/>
					<path class="st3" d="M98,12.9c-0.5,0.4-1.1,0.9-1.7,1.2c-1,0.7-2,1.2-3,1.8c-0.9,0.5-1.8,0.9-2.8,1.4l-0.9,0.4l0.2-0.1
						c-1.4,0.6-2.8,1.2-4.2,1.7c1.6-0.6,3.2-1.3,4.8-2.1C92.8,16.2,95.8,14.7,98,12.9"/>
					<path class="st2" d="M98,12.9c-0.5,0.4-1.1,0.9-1.7,1.2C96.9,13.8,97.4,13.4,98,12.9"/>
					<line class="st10" x1="96.3" y1="14.2" x2="96.3" y2="14.2"/>
					<line class="st10" x1="90.5" y1="17.3" x2="90.5" y2="17.3"/>
					<line class="st10" x1="90.5" y1="17.3" x2="90.5" y2="17.3"/>
					<polyline class="st2" points="90.5,17.3 89.6,17.7 90.5,17.3 					"/>
					<line class="st10" x1="89.6" y1="17.7" x2="89.6" y2="17.7"/>
					<path class="st2" d="M93.2,16c-0.9,0.5-1.8,0.9-2.8,1.4C91.4,16.9,92.3,16.5,93.2,16"/>
					<line class="st10" x1="89.8" y1="17.6" x2="89.8" y2="17.6"/>
					<line class="st10" x1="93.2" y1="16" x2="93.2" y2="16"/>
					<path class="st2" d="M93.2,16c-0.9,0.5-1.8,0.9-2.8,1.4C91.4,16.9,92.3,16.5,93.2,16"/>
					<line class="st10" x1="89.1" y1="17.8" x2="89.1" y2="17.8"/>
					<line class="st10" x1="89.1" y1="17.8" x2="89.1" y2="17.8"/>
					<path class="st3" d="M89.1,17.8c-2.4,1.1-4.6,1.9-6.4,2.5c1.8-0.7,3.5-1.4,5.2-2.1l-0.6,0.3C87.9,18.2,88.5,18,89.1,17.8"/>
					<line class="st10" x1="37.5" y1="32" x2="37.5" y2="32"/>
					<line class="st10" x1="37.5" y1="32" x2="37.5" y2="32"/>
					<polyline class="st3" points="37.5,32 35.3,32.1 36.1,32.1 37.5,32 					"/>
					<path class="st2" d="M31.1,10.9c4.6-1.2,8.4-1.9,11.5-2.3c-2.3,0.5-4.6,1.1-6.9,1.8c-3.7,1-7.4,2.1-10.1,3
						c-2.7,0.9-4.5,1.5-4.5,1.4c0,0,0.2-0.1,0.5-0.3C24.8,13,28.2,11.8,31.1,10.9"/>
					<line class="st10" x1="42.6" y1="8.5" x2="42.6" y2="8.5"/>
					<path class="st3" d="M5.6,23.6c0.2-0.3,0.5-0.5,0.7-0.8c-0.6,0.7-0.9,1.1-1.2,1.7c-0.2,0.3-0.3,0.7-0.4,1.2
						c-0.1,0.5-0.2,1.3,0.2,2.1c0-0.1-0.1-0.2-0.1-0.3c0-0.1-0.1-0.3-0.1-0.4c-0.1-0.3-0.1-0.7-0.1-1.2c0-0.4,0.2-0.9,0.4-1.3
						C5.1,24.4,5.4,24,5.6,23.6"/>
					<line class="st10" x1="13.1" y1="18" x2="13.1" y2="18"/>
					<path class="st7" d="M13.1,18c1.8-0.8,4.1-1.9,6.5-2.9l1.8-0.7c-0.3,0.2-0.5,0.3-0.5,0.3c0,0.1,1.8-0.5,4.5-1.4
						c2.7-0.9,6.4-2,10.1-3C30,11.9,24.4,13.7,18.9,16c-1.8,0.8-3.6,1.6-5.3,2.5c-1.3,0.7-2.5,1.4-3.7,2.2c-1.2,0.8-2.3,1.7-3.3,2.8
						c-0.5,0.5-0.9,1.1-1.2,1.8c-0.1,0.3-0.2,0.7-0.3,1.1c0,0.4,0,0.8,0.2,1.1c0.3,0.7,0.8,1.3,1.4,1.7c0.6,0.4,1.3,0.8,1.9,1
						c-0.2-0.1-0.4-0.2-0.6-0.4c-0.6-0.3-1.2-0.7-1.7-1.2c-0.5-0.5-0.9-1.1-1-1.8c-0.1-0.7,0.1-1.4,0.4-2c0.3-0.6,0.7-1.1,1.2-1.6
						c0.3-0.3,0.6-0.6,0.9-0.9c0.9-0.8,1.9-1.5,3-2.2c1-0.6,2-1.2,3.1-1.8c2.1-1.1,4.1-1.9,6-2.7c-2.9,1.3-5.9,2.7-8.7,4.4
						c-0.9,0.6-1.8,1.2-2.7,1.9c-0.8,0.7-1.7,1.4-2.3,2.3c-0.5,0.7-0.8,1.5-0.8,2.3c0,0.4,0.1,0.8,0.3,1.2c0.2,0.4,0.5,0.7,0.8,0.9
						c0.6,0.5,1.3,0.9,2,1.2c0.7,0.3,1.5,0.6,2.2,0.8c1.5,0.4,3,0.7,4.4,0.9c1.4,0.2,2.8,0.3,4.1,0.4c1.9,0.1,4.8,0.2,7.6,0.1
						c-1.3,0-2.7,0.1-4,0l-0.5,0.1c1.8,0.1,3.7,0.1,5.5,0.1l-1.4,0c-1.8,0-3.5,0-5.3,0c-1.6-0.1-3.2-0.1-4.8-0.3c-1-0.1-2-0.2-3-0.4
						h0c-1.5-0.3-3.1-0.6-4.6-1.2c-0.8-0.3-1.6-0.7-2.3-1.2c-0.4-0.3-0.7-0.6-1-1C5.3,28.2,5.1,28,5,27.8c-0.1-0.1-0.1-0.2-0.1-0.4
						c0-0.1,0-0.1,0-0.2l0,0l0-0.1l0-0.1c0,0.1,0,0.1,0,0.2l0,0.1c0,0.1,0.1,0.2,0.1,0.3C5,27.8,5.1,28,5.2,28.2
						c0.2,0.3,0.5,0.6,0.7,0.9c0.5,0.5,1.2,0.9,1.8,1.2c0.6,0.3,0.9,0.4,1,0.5c0.1,0-0.2,0-0.6-0.2c-0.4-0.2-1.1-0.4-1.8-1
						c-0.4-0.3-0.7-0.6-1.1-1c-0.2-0.2-0.3-0.5-0.4-0.7c-0.1-0.1-0.1-0.3-0.2-0.4l0-0.1l0-0.1l0,0l0-0.1l0-0.1
						c-0.1-0.6,0-1.2,0.1-1.7c0.2-0.5,0.4-1,0.7-1.4c0.1-0.1,0.2-0.3,0.3-0.4c-0.3,0.4-0.5,0.8-0.7,1.2c-0.2,0.4-0.3,0.9-0.4,1.3
						c0,0.4,0,0.8,0.1,1.2c0,0.1,0.1,0.3,0.1,0.4c0,0.1,0.1,0.2,0.1,0.3c-0.4-0.8-0.3-1.6-0.2-2.1c0.1-0.5,0.3-0.9,0.4-1.2
						c0.3-0.6,0.6-1.1,1.2-1.7c0.3-0.2,0.5-0.4,0.8-0.6c0.9-0.8,1.8-1.4,2.8-2c-0.7,0.5,0.2-0.1,1.2-0.6c1-0.6,2.2-1.2,2-1
						c1.7-0.9,3.4-1.7,5.2-2.4c0.9-0.4,1.9-0.9,2.8-1.3c-2,0.7-4.1,1.6-5.6,2.2C14,17.7,13,18.1,13.1,18"/>
					<path class="st2" d="M21,14.7c0,0.1,1.8-0.5,4.5-1.4c2.7-0.9,6.4-2,10.1-3c-3.7,1-7.4,2.1-10.1,3C22.8,14.2,21,14.8,21,14.7"/>
					<path class="st2" d="M6.3,22.8c-0.6,0.7-0.9,1.1-1.2,1.7c-0.2,0.3-0.3,0.7-0.4,1.2c-0.1,0.5-0.2,1.3,0.2,2.1
						c-0.4-0.8-0.3-1.6-0.2-2.1c0.1-0.5,0.3-0.9,0.4-1.2C5.5,23.9,5.7,23.5,6.3,22.8"/>
					<line class="st10" x1="5.3" y1="24" x2="5.3" y2="24"/>
					<line class="st10" x1="6.3" y1="22.8" x2="6.3" y2="22.8"/>
					<line class="st10" x1="21.5" y1="14.3" x2="21.5" y2="14.3"/>
					<line class="st10" x1="27.7" y1="32.4" x2="27.7" y2="32.4"/>
					<line class="st10" x1="27.7" y1="32.4" x2="27.7" y2="32.4"/>
					<line class="st10" x1="31.1" y1="32.4" x2="31.1" y2="32.4"/>
					<path class="st3" d="M31.1,32.4c-1.1,0-2.2,0.1-3.3,0.1l-1.4,0c-1.8,0-3.5,0-5.3,0l-0.2,0c1.5,0.1,3,0.1,4.5,0.1
						c-1.7,0-3.3,0-5,0c1.9,0.1,4.3,0.1,6.7,0.1C28.4,32.5,29.7,32.4,31.1,32.4 M28.2,32.5L28.2,32.5 M26.3,32.5c-1.8,0-3.5,0-5.3,0
						C22.8,32.5,24.5,32.5,26.3,32.5 M26.3,32.5L26.3,32.5"/>
					<line class="st10" x1="26.3" y1="32.5" x2="26.3" y2="32.5"/>
					<path class="st2" d="M26.3,32.5c-1.8,0-3.5,0-5.3,0C22.8,32.5,24.5,32.5,26.3,32.5"/>
					<path class="st3" d="M6.1,23l0.2-0.2c-0.2,0.2-0.5,0.5-0.7,0.8C5.8,23.4,6,23.2,6.1,23"/>
					<line class="st10" x1="6.3" y1="22.8" x2="6.3" y2="22.8"/>
					<line class="st10" x1="26.6" y1="13.8" x2="26.6" y2="13.8"/>
					<polyline class="st3" points="26.6,13.8 26.8,13.8 26.6,13.8 					"/>
					<path class="st0" d="M3.9,25.4c0.2-0.5,0.4-1,0.6-1.3c0.2-0.3,0.4-0.6,0.6-0.8c0.4-0.4,0.7-0.7,0.9-0.9C6.4,22,6.5,22,6.4,22.1
						c-0.1,0.2-0.6,1.1-0.3,0.9c-0.2,0.2-0.3,0.4-0.5,0.6c-0.1,0.1-0.2,0.3-0.3,0.4c-0.3,0.4-0.5,0.8-0.7,1.4
						c-0.2,0.5-0.2,1.1-0.1,1.7l0,0.1l0,0.1l0,0l0,0.1l0,0.1c0,0.2,0.1,0.3,0.2,0.4c0.1,0.3,0.3,0.5,0.4,0.7c0.3,0.4,0.7,0.7,1.1,1
						c0.7,0.5,1.4,0.8,1.8,1c0.5,0.2,0.7,0.2,0.6,0.2c-0.1,0-0.4-0.2-1-0.5c-0.6-0.3-1.3-0.7-1.8-1.2c-0.3-0.3-0.5-0.6-0.7-0.9
						C5.1,28,5,27.8,5,27.6c0-0.1-0.1-0.2-0.1-0.3l0-0.1c0-0.1,0-0.1,0-0.2l0,0.1l0,0.1l0,0c0,0.1,0,0.1,0,0.2
						c0,0.1,0.1,0.2,0.1,0.4c0.1,0.2,0.2,0.4,0.4,0.6c0.3,0.4,0.6,0.7,1,1c0.7,0.5,1.5,0.9,2.3,1.2c1.6,0.6,3.1,0.9,4.6,1.2
						c1,0.2,2,0.3,3,0.4c1.6,0.2,3.2,0.3,4.8,0.3l-0.2,0c-1.4-0.1-2.9-0.1-4.3-0.3c2.4,0.3,5.7,0.4,8.8,0.3c-1.7,0-3.3,0-5,0
						c1.9,0.1,4.3,0.1,6.7,0.1l-0.7,0.1c1,0,1.9,0,2.9,0c-1.8,0.1-3.7,0.1-5.5,0c-0.6,0-1.3,0-1.9,0.1c1.9,0.2,4.3,0.3,8.2,0.2
						c-2.5,0.1-4.7,0.1-7.2,0c-1.2,0-2.5-0.1-3.9-0.2c-1.4-0.1-3-0.2-4.7-0.5l-0.5,0c-0.5-0.1-1-0.2-1.4-0.3
						c0.8,0.2,2.1,0.5,3.4,0.7c1.3,0.2,2.6,0.3,3.3,0.4c-1.4-0.1-2.9-0.3-4.3-0.5c0.1,0.1,0.7,0.2,1.4,0.3l1.7,0.2
						c-1.8-0.2-2.8-0.4-3.9-0.6c-0.5-0.1-1.1-0.2-1.8-0.4c-0.7-0.2-1.5-0.4-2.5-0.7l-0.2-0.1L9,31.2c-0.9-0.3-1.7-0.7-2.4-1.1
						c-0.7-0.4-1.2-0.9-1.6-1.4c-0.2-0.3-0.3-0.5-0.4-0.8c-0.1-0.1-0.1-0.2-0.1-0.4l0-0.1l0,0l0,0l0,0l0,0l0-0.1
						c-0.1-0.4-0.1-0.7-0.1-0.9c0-0.4-0.1-0.3-0.2,0.2c0,0.2-0.1,0.6,0,1c0.1,0.4,0.2,0.9,0.5,1.4c-0.2-0.3-0.3-0.6-0.5-1
						c0-0.1-0.1-0.2-0.1-0.3l0-0.1l0,0l0-0.1l0-0.1l0,0l0,0l0-0.1c0,0,0-0.1,0-0.1c0-0.1,0-0.2,0-0.3c0-0.5,0-0.9,0.1-1.1
						c0.1-0.3,0.1-0.4,0.1-0.5c0.1-0.2,0-0.2,0-0.1C4,25.3,3.8,25.9,3.9,25.4"/>
					<path class="st2" d="M8.7,30.8c-0.1,0-0.4-0.2-1-0.5c-0.6-0.3-1.3-0.7-1.8-1.2c-0.3-0.3-0.5-0.6-0.7-0.9C5.1,28,5,27.8,5,27.6
						c0-0.1-0.1-0.2-0.1-0.3l0-0.1c0-0.1,0-0.1,0-0.2c0,0.1,0,0.1,0,0.2l0,0.1c0,0.1,0.1,0.2,0.1,0.3C5,27.8,5.1,28,5.2,28.2
						c0.2,0.3,0.5,0.6,0.7,0.9c0.5,0.5,1.2,0.9,1.8,1.2C8.4,30.6,8.7,30.7,8.7,30.8"/>
					<path class="st2" d="M4.8,27L4.8,27l0,0.2l0,0c0,0.1,0,0.1,0,0.2c0,0.1,0.1,0.2,0.1,0.4c0.1,0.2,0.2,0.4,0.4,0.6
						c0.3,0.4,0.6,0.7,1,1c0.7,0.5,1.5,0.9,2.3,1.2c1.6,0.6,3.1,0.9,4.6,1.2c-1.5-0.3-3.1-0.6-4.6-1.2c-0.8-0.3-1.6-0.7-2.3-1.2
						c-0.4-0.3-0.7-0.6-1-1C5.3,28.2,5.1,28,5,27.8c-0.1-0.1-0.1-0.2-0.1-0.4c0-0.1,0-0.1,0-0.2l0,0L4.8,27L4.8,27"/>
					<path class="st2" d="M25.3,32.5c-1.7,0-3.3,0-5,0C22,32.5,23.7,32.6,25.3,32.5"/>
					<line class="st10" x1="20.3" y1="32.5" x2="20.3" y2="32.5"/>
					<polyline class="st2" points="20.8,32.5 21,32.4 20.8,32.5 					"/>
					<line class="st10" x1="4.6" y1="28.8" x2="4.6" y2="28.8"/>
					<line class="st10" x1="17.6" y1="33.1" x2="17.6" y2="33.1"/>
					<line class="st10" x1="29.9" y1="33" x2="29.9" y2="33"/>
					<line class="st10" x1="18.8" y1="33" x2="18.8" y2="33"/>
					<line class="st10" x1="9.2" y1="31.3" x2="9.2" y2="31.3"/>
					<line class="st10" x1="13.6" y1="32.2" x2="13.6" y2="32.2"/>
					<line class="st10" x1="29.2" y1="32.6" x2="29.2" y2="32.6"/>
					<line class="st10" x1="25.3" y1="32.5" x2="25.3" y2="32.5"/>
					<line class="st10" x1="20.8" y1="32.5" x2="20.8" y2="32.5"/>
					<line class="st10" x1="34.6" y1="31.8" x2="34.6" y2="31.8"/>
					<path class="st0" d="M34.6,31.8l0.9-0.1l1.2-0.2l-1.4,0.1l1.4-0.1l0.2-0.1c-1.1,0.1-2.2,0.2-3.3,0.2l1.9-0.1
						c-0.9,0.1-1.9,0.1-2.8,0.2c1.2-0.1,2.4-0.2,3.6-0.3l0,0L35,31.5c-2.8,0.2-5.9,0.4-8.5,0.5c1.2,0,2.4-0.1,3.7-0.2
						c2.6-0.2,5.2-0.4,7.9-0.7l0.9-0.1c-3.5,0.4-7.6,0.7-10.2,0.7l0.8,0c2.4-0.1,4.5-0.3,6.6-0.4c2.1-0.2,4.2-0.4,6.7-0.7l0.4-0.1
						c-2.4,0.3-6.1,0.6-8.5,0.8c3.8-0.3,7.3-0.6,10.9-1.1l0.5-0.1c4.7-0.7,8.9-1.4,13.1-2.3c-1.8,0.4-3.6,0.7-5.4,1
						c1.8-0.3,3.6-0.6,5.4-1c6.7-1.4,13-3,19.3-5c-1.7,0.5-3.4,1-5,1.4c3.2-1,6.8-2.2,9.7-3.3c-4.7,1.7-8.8,2.9-13.4,4.1
						c4.6-1.2,8.7-2.4,13.4-4.1l0.9-0.3c-1.9,0.7-4.1,1.4-6.3,2.1c-2.2,0.7-4.4,1.3-6.4,1.8c2.7-0.8,5-1.4,8.2-2.4l-0.9,0.3
						l-1.4,0.4l1.4-0.4c2.9-1,5.4-1.8,7.8-2.8c2.6-1.2,5.6-2.6,8.4-4.4c0.5-0.3,0.9-0.6,1.4-0.9c-1,0.7-2,1.2-3,1.8
						c0.3-0.2,0.7-0.4,1-0.6c-1.4,0.8-2.9,1.5-4.4,2.2c-1.4,0.6-2.8,1.2-4.2,1.7c1.6-0.6,3.2-1.3,4.8-2.1c-0.4,0.2-0.9,0.4-1.3,0.6
						c-2.4,1.1-4.6,1.9-6.4,2.5c1.8-0.7,3.5-1.4,5.2-2.1c1-0.5,2-1,2.9-1.5l-0.5,0.1c-1.8,0.8-4.8,2-8.5,3.4l-0.7,0.2l0.3,0
						l-1.1,0.3c-0.7,0.3-1.3,0.5-2,0.8l-2,0.6c-1.1,0.4-2.6,0.9-4.2,1.4c-1.6,0.5-3.3,0.9-4.9,1.3l1.4-0.3c-0.7,0.2-1.6,0.5-2.5,0.7
						c-1.4,0.4-2.9,0.7-4.1,1c-0.9,0.2-1.8,0.4-2.8,0.6L59,26.8l0.1,0l-0.1,0c-1.3,0.3-2.6,0.5-3.9,0.8L53,27.9l-1.2,0.2l1.2-0.2
						l1.4-0.2l-1.2,0.2l2.3-0.4c-1.6,0.3-3.1,0.5-4.7,0.8l-1.6,0.3l0.5-0.1l-2.1,0.3c-1.5,0.2-3,0.4-4.5,0.6c-1,0.1-2,0.3-3,0.4
						c0.9-0.1,1.7-0.2,2.6-0.4l1.4-0.2c-1.6,0.2-3.1,0.4-4.7,0.6l0.2-0.1c-1.9,0.2-4.2,0.4-6.6,0.6l-0.2,0c-1.3,0.1-2.7,0.2-4,0.3
						c1.2-0.1,2.3-0.2,3.5-0.3l-0.2,0c-2.3,0.2-4.7,0.3-7.1,0.4c-0.6,0-1.2,0-1.8,0l0.5,0c-1.2,0-2.3,0-3.5,0c-2,0-3.9-0.2-5.7-0.4
						c0.5,0.1,1,0.2,1.5,0.2c-0.5-0.1-1-0.2-1.5-0.2c-1.7-0.2-3.2-0.5-4.7-0.9C9,29,8.4,28.8,7.8,28.5c-0.6-0.3-1-0.7-1.3-1.1
						c-0.1-0.1-0.1-0.2-0.1-0.3l0,0l0,0l0,0l0-0.1l0,0l0,0c0,0,0,0,0,0l0,0l0,0c0-0.1,0-0.1,0-0.2c0-0.2,0-0.5,0.1-0.7
						c0.1-0.5,0.4-1,0.8-1.5c0.7-0.9,1.6-1.7,2.4-2.4c-0.6,0.5-1.3,1-1.8,1.6c-0.5,0.6-1,1.1-1.3,1.8c-0.3,0.6-0.4,1.2-0.2,1.7
						c0.2,0.5,0.6,0.9,1.1,1.3C8,28.9,9,29.2,9.9,29.5c1,0.3,2,0.5,3,0.7c2.1,0.4,4.2,0.5,6.4,0.6c0.5,0,1,0,1.5,0.1
						c-1.6,0-3.3-0.1-4.9-0.2l0.2,0c-0.4,0-0.8-0.1-1.2-0.1l0.9,0.1c-1.9-0.2-3.6-0.5-5.2-0.9c-0.8-0.2-1.6-0.5-2.3-0.8
						c-0.7-0.3-1.3-0.7-1.8-1.2c-0.5-0.5-0.7-1-0.6-1.6c0-0.6,0.4-1.2,0.8-1.8c0.9-1.2,2.2-2.2,3.6-3.1c-0.3,0.2-0.6,0.5-0.9,0.7
						c1.6-1.2,3.3-2.2,5.1-3.1c1.8-0.9,3.6-1.8,5.4-2.6c1.4-0.6,2.7-1.2,4.1-1.8c-1.2,0.4-2.4,0.9-3.5,1.3c0.7-0.3,1.3-0.6,2-0.8
						c0.3-0.1,1.4-0.6,1.5-0.6c0.1,0-0.3,0.1-1.6,0.6c-0.6,0.2-1.5,0.6-2.6,1c-1.1,0.5-2.6,1.1-4.3,1.9c-1.2,0.6-2.4,1.2-3.5,1.9
						c1.9-1.2,3.8-2.1,5.6-3c1.8-0.8,3.5-1.6,5-2.2c-1,0.3-1.9,0.7-2.9,1.1c-2.9,1.3-5.9,2.7-8.7,4.4c-0.9,0.6-1.8,1.2-2.7,1.9
						c-0.8,0.7-1.7,1.4-2.3,2.3c-0.5,0.7-0.8,1.5-0.8,2.3c0,0.4,0.1,0.8,0.3,1.2c0.2,0.4,0.5,0.7,0.8,0.9c0.6,0.5,1.3,0.9,2,1.2
						c0.7,0.3,1.5,0.6,2.2,0.8c1.5,0.4,3,0.7,4.4,0.9c1.4,0.2,2.8,0.3,4.1,0.4c1.9,0.1,4.8,0.2,7.6,0.1l0.5,0l-1.4,0
						c0.7,0,1.4,0,2.1,0c-1.1,0-2.2,0-3.3,0c1.4,0,2.9,0,4.3,0l0.7-0.1c-1.2,0-2.4,0.1-3.6,0.1c1.3,0,2.7,0,4-0.1L31,32
						C32.2,31.9,33.4,31.9,34.6,31.8 M78.7,22.4L78.7,22.4 M78.7,22.4L78.7,22.4 M68,25.4c3.5-0.9,6.5-1.6,10.8-3
						C74.4,23.8,71.4,24.6,68,25.4l-1.4,0.3L65.6,26l0.9-0.2L68,25.4l-0.2,0.1c-1.2,0.3-2.5,0.6-3.7,0.9c1.2-0.3,2.5-0.6,3.7-0.9
						L68,25.4 M57.1,28.1L57.1,28.1 M57.1,28.1L57.1,28.1 M48.7,29.6c3.3-0.5,5.4-0.8,8.4-1.4C54.1,28.7,52,29,48.7,29.6 M53.6,28.8
						L53.6,28.8 M53.6,28.8L53.6,28.8 M45.9,30l-0.2,0l-2.4,0.3l2.4-0.3L45.9,30c2.8-0.4,4.9-0.7,7.7-1.2
						C50.8,29.3,48.7,29.6,45.9,30 M53.8,28.7L53.8,28.7 M65.4,26.1l-1.4,0.4L65.4,26.1 M46.6,29.9L46.6,29.9 M48.7,29.6L48.7,29.6
						 M45.9,30L45.9,30 M69.8,24.9L69.8,24.9 M64,26.4L64,26.4 M94.3,15.4L94.3,15.4 M7.2,23.6c0.7-0.7,1.5-1.4,2.3-2
						c0.8-0.6,1.7-1.2,2.5-1.7c-0.9,0.5-1.7,1.1-2.5,1.7C8.6,22.2,7.8,22.9,7.2,23.6 M7.2,23.6c0.7-0.7,1.5-1.4,2.3-2
						c0.8-0.6,1.7-1.2,2.5-1.7c-0.9,0.5-1.7,1.1-2.5,1.7C8.6,22.2,7.8,22.9,7.2,23.6 M7.2,23.6c-0.2,0.2-0.4,0.5-0.6,0.7
						c-0.2,0.2-0.3,0.5-0.5,0.8c-0.1,0.3-0.3,0.5-0.3,0.8c-0.1,0.3-0.1,0.5-0.1,0.8l0,0.1c0,0.1,0,0.1,0,0.2l0,0c0,0,0,0,0,0l0,0
						l0,0.1c0,0.1,0.1,0.2,0.1,0.4c0.1,0.2,0.3,0.5,0.5,0.7c0.2,0.2,0.4,0.4,0.6,0.6c0.2,0.2,0.5,0.3,0.8,0.5s0.5,0.3,0.8,0.4
						c0.2,0.1,0.4,0.2,0.6,0.2c0.3,0.1,0.6,0.2,0.9,0.3c0.3,0.1,0.6,0.2,0.9,0.2c0.3,0.1,0.6,0.1,0.9,0.2l0.7,0.1
						c0.3,0.1,0.6,0.1,0.9,0.1l0.7,0.1c-1.8-0.2-3.4-0.6-4.9-1.1c-0.7-0.3-1.4-0.6-2.1-1c-0.6-0.4-1.1-0.9-1.4-1.5
						c0,0,0-0.1-0.1-0.1l0-0.1l0-0.1l0-0.1c-0.1-0.3,0-0.6,0.1-1c0-0.1,0-0.2,0.1-0.2c0.1-0.3,0.2-0.5,0.4-0.8
						c0.1-0.1,0.2-0.3,0.3-0.4C6.7,24.2,6.9,23.9,7.2,23.6 M20.6,16l-1.2,0.5l-0.8,0.3l-0.9,0.4l-0.9,0.4l-1.1,0.5l-0.5,0.3
						c-0.5,0.2-0.9,0.5-1.4,0.7l0,0l-0.8,0.5l0.8-0.5l-0.8,0.5l0.8-0.5l0,0l-0.8,0.5c0.3-0.2,0.7-0.4,1.1-0.6l0.6-0.3l1.1-0.5
						l0.3-0.2l1-0.5l0.6-0.3l0.6-0.3C19.1,16.6,19.9,16.3,20.6,16 M20.6,16L20.6,16 M82.4,20.1L82.4,20.1 M81.5,20.4L81.5,20.4
						l0.9-0.3L81.5,20.4"/>
					<path class="st8" d="M7.2,23.6c-0.4,0.4-0.8,0.9-1.1,1.4c-0.3,0.5-0.5,1.1-0.4,1.6c0-0.3,0-0.5,0.1-0.8
						c0.1-0.3,0.2-0.5,0.3-0.8c0.1-0.3,0.3-0.5,0.5-0.8C6.8,24.1,7,23.8,7.2,23.6"/>
					<path class="st8" d="M6.5,24.5c-0.1,0.1-0.2,0.3-0.3,0.4c-0.1,0.3-0.3,0.5-0.4,0.8c0,0.1,0,0.2-0.1,0.2
						C5.9,25.4,6.2,24.9,6.5,24.5"/>
					<path class="st8" d="M5.7,26.7c0.1,0.8,0.6,1.5,1.3,2c0.7,0.5,1.5,0.9,2.3,1.1c1.7,0.6,3.3,0.8,4.9,1l-0.7-0.1
						c-0.3,0-0.6-0.1-0.9-0.1l-0.7-0.1c-0.3-0.1-0.6-0.1-0.9-0.2c-0.3-0.1-0.6-0.1-0.9-0.2c-0.3-0.1-0.6-0.2-0.9-0.3
						c-0.2-0.1-0.4-0.2-0.6-0.2c-0.3-0.1-0.6-0.2-0.8-0.4S7.3,28.9,7,28.7c-0.2-0.2-0.5-0.4-0.6-0.6c-0.2-0.2-0.4-0.4-0.5-0.7
						c-0.1-0.1-0.1-0.2-0.1-0.3l0-0.1l0,0c0,0,0,0,0,0l0,0C5.7,26.9,5.7,26.8,5.7,26.7"/>
					<path class="st8" d="M5.7,26.9l0,0.1l0,0.1l0,0.1c0,0,0,0.1,0.1,0.1c0-0.1-0.1-0.2-0.1-0.2c0,0,0-0.1,0-0.1L5.7,26.9"/>
					<polyline class="st4" points="59,26.8 59.1,26.8 59.3,26.7 59,26.8 					"/>
					<line class="st10" x1="15.9" y1="30.4" x2="15.9" y2="30.4"/>
					<path class="st2" d="M15.9,30.4c-0.5-0.1-1-0.2-1.5-0.2C14.9,30.3,15.4,30.4,15.9,30.4"/>
					<line class="st10" x1="94.3" y1="15.4" x2="94.3" y2="15.4"/>
					<line class="st10" x1="94.3" y1="15.4" x2="94.3" y2="15.4"/>
					<path class="st2" d="M94.3,15.4c-0.3,0.2-0.7,0.4-1,0.6C93.6,15.8,93.9,15.6,94.3,15.4"/>
					<path class="st2" d="M90.4,17.2c-1.6,0.7-3.2,1.4-4.8,2.1C87.3,18.7,88.8,18,90.4,17.2"/>
					<line class="st10" x1="85.6" y1="19.3" x2="85.6" y2="19.3"/>
					<path class="st2" d="M82.7,20.3c1.8-0.7,3.5-1.4,5.2-2.1C86.2,18.9,84.5,19.6,82.7,20.3"/>
					<path class="st2" d="M7.2,23.6c-0.2,0.2-0.4,0.5-0.6,0.7c-0.2,0.2-0.3,0.5-0.5,0.8c-0.1,0.3-0.3,0.5-0.3,0.8
						c-0.1,0.3-0.1,0.5-0.1,0.8c0-0.3,0-0.5,0.1-0.8c0.1-0.3,0.2-0.5,0.3-0.8c0.1-0.3,0.3-0.5,0.5-0.8C6.8,24.1,7,23.8,7.2,23.6"/>
					<path class="st2" d="M6.5,24.5c-0.1,0.1-0.2,0.3-0.3,0.4c-0.1,0.3-0.3,0.5-0.4,0.8c0,0.1,0,0.2-0.1,0.2c0-0.1,0-0.2,0.1-0.2
						c0.1-0.3,0.2-0.5,0.4-0.8C6.3,24.7,6.4,24.6,6.5,24.5"/>
					<path class="st2" d="M5.7,26.7c0,0.1,0,0.1,0,0.2l0,0c0,0,0,0,0,0l0,0l0,0.1c0,0.1,0.1,0.2,0.1,0.4c0.1,0.2,0.3,0.5,0.5,0.7
						c0.2,0.2,0.4,0.4,0.6,0.6c0.2,0.2,0.5,0.3,0.8,0.5s0.5,0.3,0.8,0.4c0.2,0.1,0.4,0.2,0.6,0.2c0.3,0.1,0.6,0.2,0.9,0.3
						c0.3,0.1,0.6,0.2,0.9,0.2c0.3,0.1,0.6,0.1,0.9,0.2l0.7,0.1c0.3,0.1,0.6,0.1,0.9,0.1l0.7,0.1l-0.7-0.1c-0.3,0-0.6-0.1-0.9-0.1
						l-0.7-0.1c-0.3-0.1-0.6-0.1-0.9-0.2c-0.3-0.1-0.6-0.1-0.9-0.2c-0.3-0.1-0.6-0.2-0.9-0.3c-0.2-0.1-0.4-0.2-0.6-0.2
						c-0.3-0.1-0.6-0.2-0.8-0.4C7.5,29,7.3,28.9,7,28.7c-0.2-0.2-0.5-0.4-0.6-0.6c-0.2-0.2-0.4-0.4-0.5-0.7
						c-0.1-0.1-0.1-0.2-0.1-0.4l0-0.1l0,0c0,0,0,0,0,0l0,0C5.7,26.9,5.7,26.8,5.7,26.7"/>
					<path class="st2" d="M5.7,26.9l0,0.1l0,0.1l0,0.1c0,0,0,0.1,0.1,0.1c0,0,0-0.1-0.1-0.1l0-0.1l0-0.1L5.7,26.9"/>
					<path class="st2" d="M12,19.9c-0.9,0.5-1.7,1.1-2.5,1.7c-0.8,0.6-1.6,1.3-2.3,2c0.7-0.7,1.5-1.4,2.3-2
						C10.3,21,11.1,20.5,12,19.9"/>
					<path class="st2" d="M12,19.9c-0.9,0.5-1.7,1.1-2.5,1.7c-0.8,0.6-1.6,1.3-2.3,2c0.7-0.7,1.5-1.4,2.3-2
						C10.3,21,11.1,20.5,12,19.9"/>
					<line class="st10" x1="26.8" y1="32.3" x2="26.8" y2="32.3"/>
					<path class="st2" d="M26.8,32.3c-2.9,0.1-5.7,0-7.6-0.1c-1.3-0.1-2.7-0.2-4.1-0.4c-1.4-0.2-2.9-0.5-4.4-0.9
						c-0.7-0.2-1.5-0.5-2.2-0.8c-0.7-0.3-1.4-0.7-2-1.2c-0.3-0.3-0.6-0.6-0.8-0.9c-0.2-0.4-0.3-0.8-0.3-1.2c0-0.8,0.3-1.6,0.8-2.3
						c-0.5,0.7-0.8,1.5-0.8,2.3c0,0.4,0.1,0.8,0.3,1.2c0.2,0.4,0.5,0.7,0.8,0.9c0.6,0.5,1.3,0.9,2,1.2c0.7,0.3,1.5,0.6,2.2,0.8
						c1.5,0.4,3,0.7,4.4,0.9c1.4,0.2,2.8,0.3,4.1,0.4C21,32.3,23.9,32.3,26.8,32.3"/>
					<path class="st2" d="M19.7,15.8c-2.9,1.3-5.9,2.7-8.7,4.4C13.8,18.5,16.8,17.1,19.7,15.8"/>
					<line class="st10" x1="27.2" y1="32.2" x2="27.2" y2="32.2"/>
					<line class="st10" x1="27.2" y1="32.2" x2="27.2" y2="32.2"/>
					<line class="st10" x1="27.9" y1="32.2" x2="27.9" y2="32.2"/>
					<line class="st10" x1="28.9" y1="32.2" x2="28.9" y2="32.2"/>
					<line class="st10" x1="36.7" y1="31.5" x2="36.7" y2="31.5"/>
					<line class="st10" x1="78.6" y1="22.7" x2="78.6" y2="22.7"/>
					<line class="st10" x1="30.1" y1="32.1" x2="30.1" y2="32.1"/>
					<line class="st10" x1="35.5" y1="31.5" x2="35.5" y2="31.5"/>
					<line class="st10" x1="36.2" y1="31.4" x2="36.2" y2="31.4"/>
					<line class="st10" x1="59.2" y1="27.7" x2="59.2" y2="27.7"/>
					<line class="st10" x1="83.2" y1="20.8" x2="83.2" y2="20.8"/>
					<line class="st10" x1="38.1" y1="31.1" x2="38.1" y2="31.1"/>
					<line class="st10" x1="19.7" y1="15.8" x2="19.7" y2="15.8"/>
					<line class="st10" x1="86.5" y1="19.4" x2="86.5" y2="19.4"/>
					<line class="st10" x1="42.9" y1="30.5" x2="42.9" y2="30.5"/>
					<line class="st10" x1="67.7" y1="25.5" x2="67.7" y2="25.5"/>
					<line class="st10" x1="79.5" y1="22" x2="79.5" y2="22"/>
					<line class="st10" x1="93.2" y1="16" x2="93.2" y2="16"/>
					<line class="st10" x1="15.5" y1="18" x2="15.5" y2="18"/>
					<path class="st8" d="M17.7,17.2l0.9-0.4c-1.1,0.5-2.2,1-3.3,1.5l0.5-0.3l1.1-0.5L17.7,17.2"/>
					<polyline class="st8" points="18.4,16.9 17.7,17.2 17.2,17.5 18.4,16.9 					"/>
					<path class="st8" d="M16.2,17.9l-0.3,0.2l-1.1,0.5l-0.6,0.3C14.8,18.6,15.5,18.3,16.2,17.9"/>
					<line class="st10" x1="90.4" y1="17.2" x2="90.4" y2="17.2"/>
					<polyline class="st8" points="13.9,19 13.9,19 13.9,19.1 13.9,19 					"/>
					<line class="st10" x1="9.5" y1="22.1" x2="9.5" y2="22.1"/>
					<line class="st10" x1="67.3" y1="24.8" x2="67.3" y2="24.8"/>
					<line class="st10" x1="54.4" y1="27.7" x2="54.4" y2="27.7"/>
					<line class="st10" x1="55.5" y1="27.5" x2="55.5" y2="27.5"/>
					<line class="st10" x1="23.2" y1="30.6" x2="23.2" y2="30.6"/>
					<polyline class="st3" points="25.9,14.1 25.5,14.2 25.9,14.1 					"/>
					<path class="st2" d="M24.1,14.6c5.6-2,11.1-3.5,16.8-4.9c-1.1,0.3-2.3,0.6-3.4,1l0.5-0.1c-0.8,0.2-1.7,0.5-2.8,0.8l-1.6,0.5
						c-1.7,0.5-3.4,1-4.9,1.5l-1.8,0.5l0,0l-0.2,0l1.3-0.5c-0.7,0.2-1.3,0.5-2,0.7l-0.4,0.2c-1.8,0.7-3.7,1.4-5.5,2.2
						C21.3,15.8,22.7,15.2,24.1,14.6"/>
					<path class="st2" d="M35.2,11.3c1.1-0.3,2-0.6,2.8-0.8C37.2,10.7,36.2,11,35.2,11.3l-1.6,0.5L35.2,11.3"/>
					<polyline class="st2" points="38,10.5 37.5,10.7 38,10.5 					"/>
					<polyline class="st2" points="26.6,13.8 26.8,13.8 26.8,13.8 26.6,13.8 					"/>
					<path class="st2" d="M24.1,14.6c-1.4,0.6-2.8,1.2-4.1,1.8C21.3,15.8,22.7,15.2,24.1,14.6"/>
					<path class="st2" d="M24.9,13.8c3.3-1.2,7.7-2.5,11.3-3.4c-1.5,0.5-3.5,1.1-5.7,1.9c-2.2,0.7-4.4,1.6-6.4,2.4
						c-1.2,0.4-2.4,0.9-3.5,1.3c0.7-0.3,1.3-0.6,2-0.8c0.3-0.1,1.4-0.6,1.5-0.6c0.1,0-0.3,0.1-1.6,0.6c-0.6,0.2-1.5,0.6-2.6,1
						c-1.1,0.5-2.6,1.1-4.3,1.9c-1.2,0.6-2.4,1.2-3.5,1.9c1.9-1.2,3.8-2.1,5.6-3c1.8-0.8,3.5-1.6,5-2.2c-1,0.3-1.9,0.7-2.9,1.1
						c0.6-0.2,1.2-0.5,1.8-0.7c0.7-0.3,1.5-0.6,2.4-1L24.9,13.8"/>
					<path class="st2" d="M22.6,14.8c-1.5,0.6-3.2,1.4-5,2.2c-1.8,0.8-3.7,1.8-5.6,3c1.9-1.2,3.8-2.1,5.6-3
						C19.4,16.1,21.1,15.4,22.6,14.8"/>
					<path class="st2" d="M24.1,14.5c-0.1,0.1-1.2,0.5-1.5,0.6c-0.7,0.3-1.3,0.5-2,0.8c0.7-0.3,1.3-0.6,2-0.8
						C22.8,15,24,14.6,24.1,14.5"/>
					<line class="st10" x1="13.6" y1="18.5" x2="13.6" y2="18.5"/>
					<path class="st5" d="M13.6,18.5c1.7-0.9,3.5-1.7,5.3-2.5c5.4-2.3,11.1-4.1,16.7-5.7c1.7-0.5,3.5-0.9,5.2-1.3l1.7-0.4
						c1.9-0.3,3.6-0.4,4.8-0.5c-2.2,0.5-4.3,1.1-6.4,1.6c-5.7,1.4-11.2,2.9-16.8,4.9c2-0.8,4.3-1.6,6.4-2.4c2.2-0.7,4.2-1.4,5.7-1.9
						c-3.6,0.9-8,2.2-11.3,3.4l0,0l-0.9,0.3c-0.9,0.3-1.7,0.7-2.4,1c-0.6,0.2-1.2,0.5-1.8,0.7c-1.9,0.8-3.9,1.6-6,2.7
						c-1,0.5-2.1,1.1-3.1,1.7c-1,0.6-2,1.3-3,2.2c-0.3,0.3-0.6,0.6-0.9,0.9c-0.5,0.5-0.9,1-1.2,1.6c-0.3,0.6-0.5,1.3-0.4,2
						c0.1,0.7,0.5,1.4,1,1.8c0.5,0.5,1.1,0.9,1.7,1.2c0.2,0.1,0.4,0.2,0.6,0.4c-0.7-0.3-1.3-0.6-1.9-1c-0.6-0.4-1.1-1-1.4-1.7
						c-0.1-0.4-0.2-0.7-0.2-1.1c0-0.4,0.1-0.8,0.3-1.1c0.3-0.7,0.7-1.3,1.2-1.8c1-1.1,2.1-2,3.3-2.8C11.1,19.9,12.3,19.2,13.6,18.5"
						/>
					<line class="st10" x1="35.7" y1="10.3" x2="35.7" y2="10.3"/>
					<line class="st10" x1="42.6" y1="8.5" x2="42.6" y2="8.5"/>
					<line class="st10" x1="42.6" y1="8.5" x2="42.6" y2="8.5"/>
					<path class="st2" d="M13.6,18.5c-1.3,0.7-2.5,1.4-3.7,2.2c-1.2,0.8-2.3,1.7-3.3,2.8c-0.5,0.5-0.9,1.1-1.2,1.8
						c-0.1,0.3-0.2,0.7-0.3,1.1c0,0.4,0,0.8,0.2,1.1c0.3,0.7,0.8,1.3,1.4,1.7c0.6,0.4,1.3,0.8,1.9,1c-0.7-0.3-1.3-0.6-1.9-1
						c-0.6-0.4-1.1-1-1.4-1.7c-0.1-0.4-0.2-0.7-0.2-1.1c0-0.4,0.1-0.8,0.3-1.1c0.3-0.7,0.7-1.3,1.2-1.8c1-1.1,2.1-2,3.3-2.8
						C11.1,19.9,12.3,19.2,13.6,18.5"/>
					<path class="st2" d="M18.9,16c5.4-2.3,11.1-4.1,16.7-5.7C30,11.9,24.4,13.7,18.9,16"/>
					<path class="st2" d="M5.2,26.9c-0.1-0.7,0.1-1.4,0.4-2c0.3-0.6,0.7-1.1,1.2-1.6c0.3-0.3,0.6-0.6,0.9-0.9c0.9-0.8,1.9-1.5,3-2.2
						c1-0.6,2-1.2,3.1-1.7c-1,0.5-2.1,1.1-3.1,1.7c-1,0.6-2,1.3-3,2.2c-0.3,0.3-0.6,0.6-0.9,0.9c-0.5,0.5-0.9,1-1.2,1.6
						C5.3,25.5,5.1,26.2,5.2,26.9"/>
					<line class="st10" x1="35.7" y1="10.3" x2="35.7" y2="10.3"/>
					<line class="st10" x1="35.7" y1="10.3" x2="35.7" y2="10.3"/>
					<line class="st10" x1="7.7" y1="22.4" x2="7.7" y2="22.4"/>
					<polyline class="st2" points="24.9,13.8 24.9,13.8 23.9,14.2 24.9,13.8 					"/>
					<path class="st2" d="M36.2,10.4c-1.5,0.5-3.5,1.1-5.7,1.9c-2.2,0.7-4.4,1.6-6.4,2.4c2-0.8,4.3-1.6,6.4-2.4
						C32.7,11.5,34.7,10.9,36.2,10.4"/>
					<line class="st10" x1="42.6" y1="8.5" x2="42.6" y2="8.5"/>
					<line class="st10" x1="35.7" y1="10.3" x2="35.7" y2="10.3"/>
					<line class="st10" x1="35.7" y1="10.3" x2="35.7" y2="10.3"/>
					<path class="st3" d="M35.7,10.3c2.3-0.6,4.6-1.2,6.9-1.8L40.9,9C39.1,9.4,37.4,9.8,35.7,10.3"/>
					<line class="st10" x1="42.6" y1="8.5" x2="42.6" y2="8.5"/>
					<path class="st2" d="M35.7,10.3c2.3-0.6,4.6-1.2,6.9-1.8C40.3,9.1,38,9.7,35.7,10.3"/>
				</g>
			</g>
		</g>
	</g>
	<path class="st1" d="M16.7,31.2c0.2,1.8-1.1,3.5-2.9,3.8c-1.8,0.2-3.5-1.1-3.8-2.9c-0.2-1.8,1.1-3.5,2.9-3.8
		C14.8,28,16.5,29.3,16.7,31.2z"/>
	<g>
		<g>
			<path class="st1" d="M71.5,9.6c-1,0-1.7-0.8-1.7-1.8c0-1,0.8-1.7,1.8-1.7c1,0,1.7,0.8,1.7,1.8C73.3,8.9,72.5,9.6,71.5,9.6z"/>
			<path class="st1" d="M70.1,4.7c1.7-0.7,3.7,0,4.6,1.7l0,0c0,0.1,0.1,0.1,0.1,0.2l0,0l-0.5,0.2c0-0.1-0.1-0.1-0.1-0.2l0,0
				c-0.7-1.4-2.4-2.1-3.9-1.5l0,0h0L70.1,4.7L70.1,4.7z"/>
			<path class="st1" d="M68.4,0.6c3.9-1.6,8.3,0.1,10.2,3.8l0,0c0.1,0.2,0.2,0.3,0.2,0.5l0,0l-0.5,0.2c-0.1-0.2-0.1-0.3-0.2-0.5l0,0
				c-1.7-3.5-5.9-5.1-9.5-3.6l0,0v0L68.4,0.6L68.4,0.6z"/>
			<path class="st1" d="M69.5,3.1L69.5,3.1L69.5,3.1L69.5,3.1L69.5,3.1L69.5,3.1z M69.3,2.6c2.8-1.2,6,0.1,7.4,2.8l0,0
				c0.1,0.1,0.1,0.2,0.2,0.4l0,0L76.4,6c0-0.1-0.1-0.2-0.1-0.3l0,0c-1.2-2.4-4.2-3.6-6.7-2.5l0,0L69.3,2.6L69.3,2.6z"/>
		</g>
	</g>
	<polygon class="st1" points="25.7,-0.6 27.1,2.2 30.2,1.7 28,3.9 29.4,6.7 26.6,5.3 24.4,7.5 24.9,4.4 22.1,3 25.2,2.5 	"/>
	<polygon class="st1" points="59.9,39.8 57.4,38.1 57.7,35.1 60.4,33.8 62.9,35.5 62.6,38.5 	"/>
	<g>
		<g>
			<path class="st1" d="M58.9,27.1c0.1,0.1,0.4,0.2,0.6,0.2c0.3,0,0.5-0.2,0.5-0.4c0-0.2-0.1-0.4-0.5-0.5c-0.4-0.1-0.7-0.4-0.7-0.7
				c0-0.4,0.3-0.7,0.8-0.7c0.3,0,0.4,0.1,0.6,0.1l-0.1,0.3c-0.1,0-0.3-0.1-0.5-0.1c-0.3,0-0.5,0.2-0.5,0.4c0,0.2,0.2,0.4,0.5,0.5
				c0.4,0.2,0.6,0.4,0.6,0.7c0,0.4-0.3,0.7-0.9,0.7c-0.2,0-0.5-0.1-0.6-0.2L58.9,27.1z"/>
			<path class="st1" d="M60.8,26.2c0-0.2,0-0.4,0-0.6h0.3l0,0.3h0c0.1-0.2,0.3-0.4,0.6-0.4c0.4,0,0.8,0.4,0.8,0.9c0,0.7-0.4,1-0.8,1
				c-0.2,0-0.5-0.1-0.6-0.3h0v1h-0.3V26.2z M61.1,26.7c0,0,0,0.1,0,0.1c0.1,0.2,0.3,0.4,0.5,0.4c0.3,0,0.6-0.3,0.6-0.7
				c0-0.4-0.2-0.7-0.5-0.7c-0.2,0-0.4,0.2-0.5,0.4c0,0,0,0.1,0,0.1V26.7z"/>
			<path class="st1" d="M64.2,27c0,0.2,0,0.3,0,0.4h-0.3l0-0.2h0c-0.1,0.1-0.3,0.3-0.6,0.3c-0.4,0-0.6-0.3-0.6-0.5
				c0-0.4,0.4-0.7,1.1-0.7v0c0-0.2,0-0.4-0.4-0.4c-0.2,0-0.3,0.1-0.5,0.1l-0.1-0.2c0.1-0.1,0.4-0.2,0.6-0.2c0.6,0,0.7,0.4,0.7,0.7
				V27L64.2,27z M63.9,26.5c-0.4,0-0.8,0.1-0.8,0.4c0,0.2,0.1,0.3,0.3,0.3c0.2,0,0.4-0.1,0.4-0.3c0,0,0-0.1,0-0.1V26.5L63.9,26.5z"
				/>
			<path class="st1" d="M65.1,25.2v0.4h0.5v0.3h-0.5v1c0,0.2,0.1,0.4,0.2,0.4c0.1,0,0.1,0,0.2,0l0,0.2c-0.1,0-0.2,0-0.3,0
				c-0.2,0-0.3-0.1-0.4-0.1c-0.1-0.1-0.1-0.3-0.1-0.5v-1h-0.3v-0.3h0.3v-0.3L65.1,25.2z"/>
			<path class="st1" d="M66.3,25.1c0,0.1-0.1,0.2-0.2,0.2c-0.1,0-0.2-0.1-0.2-0.2c0-0.1,0.1-0.2,0.2-0.2
				C66.3,24.9,66.3,25,66.3,25.1z M66,27.5v-1.8h0.3v1.8H66L66,27.5z"/>
			<path class="st1" d="M68.1,27c0,0.2,0,0.3,0,0.4h-0.3l0-0.2h0c-0.1,0.1-0.3,0.3-0.6,0.3c-0.4,0-0.6-0.3-0.6-0.5
				c0-0.4,0.4-0.7,1.1-0.7v0c0-0.2,0-0.4-0.4-0.4c-0.2,0-0.3,0.1-0.5,0.1l-0.1-0.2c0.2-0.1,0.4-0.2,0.6-0.2c0.6,0,0.7,0.4,0.7,0.7
				V27L68.1,27z M67.8,26.5c-0.4,0-0.8,0.1-0.8,0.4c0,0.2,0.1,0.3,0.3,0.3c0.2,0,0.4-0.1,0.4-0.3c0,0,0-0.1,0-0.1V26.5z"/>
			<path class="st1" d="M68.7,24.8H69v2.7h-0.3V24.8z"/>
			<path class="st1" d="M70.4,25c0.2,0,0.4-0.1,0.7-0.1c0.5,0,0.8,0.1,1,0.3c0.2,0.2,0.4,0.5,0.4,0.9c0,0.4-0.1,0.8-0.4,1
				c-0.2,0.2-0.6,0.4-1.1,0.4c-0.2,0-0.4,0-0.6,0V25z M70.7,27.2c0.1,0,0.2,0,0.3,0c0.7,0,1.1-0.4,1.1-1.1c0-0.6-0.3-1-1-1
				c-0.2,0-0.3,0-0.4,0L70.7,27.2L70.7,27.2z"/>
			<path class="st1" d="M74.1,27c0,0.2,0,0.3,0,0.4h-0.3l0-0.2h0c-0.1,0.1-0.3,0.3-0.6,0.3c-0.4,0-0.6-0.3-0.6-0.5
				c0-0.4,0.4-0.7,1.1-0.7v0c0-0.2,0-0.4-0.4-0.4c-0.2,0-0.3,0.1-0.5,0.1l-0.1-0.2c0.2-0.1,0.4-0.2,0.6-0.2c0.6,0,0.7,0.4,0.7,0.7
				V27L74.1,27z M73.8,26.5c-0.4,0-0.8,0.1-0.8,0.4c0,0.2,0.1,0.3,0.3,0.3c0.2,0,0.4-0.1,0.4-0.3c0,0,0-0.1,0-0.1V26.5L73.8,26.5z"
				/>
			<path class="st1" d="M75.1,25.2v0.4h0.5v0.3h-0.5v1c0,0.2,0.1,0.4,0.2,0.4c0.1,0,0.1,0,0.2,0l0,0.2c-0.1,0-0.2,0-0.3,0
				c-0.2,0-0.3-0.1-0.4-0.1c-0.1-0.1-0.1-0.3-0.1-0.5v-1h-0.3v-0.3h0.3v-0.3L75.1,25.2z"/>
			<path class="st1" d="M77.2,27c0,0.2,0,0.3,0,0.4h-0.3l0-0.2h0c-0.1,0.1-0.3,0.3-0.6,0.3c-0.4,0-0.6-0.3-0.6-0.5
				c0-0.4,0.4-0.7,1.1-0.7v0c0-0.2,0-0.4-0.4-0.4c-0.2,0-0.3,0.1-0.5,0.1l-0.1-0.2c0.2-0.1,0.4-0.2,0.6-0.2c0.6,0,0.7,0.4,0.7,0.7
				V27L77.2,27z M76.9,26.5c-0.4,0-0.8,0.1-0.8,0.4c0,0.2,0.1,0.3,0.3,0.3c0.2,0,0.4-0.1,0.4-0.3c0,0,0-0.1,0-0.1V26.5L76.9,26.5z"
				/>
			<path class="st1" d="M78.9,24.9v2.5h-0.3v-2.5H78.9z"/>
			<path class="st1" d="M79.5,26.1c0-0.2,0-0.3,0-0.5h0.3l0,0.3h0c0.1-0.2,0.3-0.3,0.6-0.3c0.3,0,0.6,0.2,0.6,0.8v1.1h-0.3v-1
				c0-0.3-0.1-0.5-0.4-0.5c-0.2,0-0.4,0.2-0.4,0.3c0,0,0,0.1,0,0.2v1.1h-0.3V26.1L79.5,26.1z"/>
			<path class="st1" d="M81.6,27.5v-1.6h-0.3v-0.3h0.3v-0.1c0-0.3,0.1-0.5,0.2-0.6c0.1-0.1,0.3-0.2,0.4-0.2c0.1,0,0.2,0,0.3,0.1
				l0,0.3c-0.1,0-0.1,0-0.2,0c-0.3,0-0.4,0.2-0.4,0.5v0.1h0.4v0.3h-0.4v1.6L81.6,27.5L81.6,27.5z"/>
			<path class="st1" d="M82.7,26.2c0-0.2,0-0.4,0-0.6h0.3l0,0.4h0c0.1-0.2,0.3-0.4,0.5-0.4c0,0,0.1,0,0.1,0v0.3c0,0-0.1,0-0.1,0
				c-0.2,0-0.4,0.2-0.4,0.4c0,0,0,0.1,0,0.2v1h-0.3V26.2z"/>
			<path class="st1" d="M85.1,27c0,0.2,0,0.3,0,0.4h-0.3l0-0.2h0c-0.1,0.1-0.3,0.3-0.6,0.3c-0.4,0-0.6-0.3-0.6-0.5
				c0-0.4,0.4-0.7,1.1-0.7v0c0-0.2,0-0.4-0.4-0.4c-0.2,0-0.3,0.1-0.5,0.1l-0.1-0.2c0.2-0.1,0.4-0.2,0.6-0.2c0.6,0,0.7,0.4,0.7,0.7
				V27L85.1,27z M84.8,26.5c-0.4,0-0.8,0.1-0.8,0.4c0,0.2,0.1,0.3,0.3,0.3c0.2,0,0.4-0.1,0.4-0.3c0,0,0-0.1,0-0.1V26.5L84.8,26.5z"
				/>
			<path class="st1" d="M85.6,27.1c0.1,0.1,0.3,0.1,0.4,0.1c0.2,0,0.4-0.1,0.4-0.3c0-0.2-0.1-0.2-0.3-0.3c-0.3-0.1-0.5-0.3-0.5-0.5
				c0-0.3,0.2-0.5,0.6-0.5c0.2,0,0.3,0.1,0.4,0.1L86.6,26c-0.1,0-0.2-0.1-0.4-0.1c-0.2,0-0.3,0.1-0.3,0.2c0,0.1,0.1,0.2,0.3,0.3
				c0.3,0.1,0.5,0.3,0.5,0.5c0,0.3-0.2,0.5-0.7,0.5c-0.2,0-0.4-0.1-0.5-0.1L85.6,27.1z"/>
			<path class="st1" d="M87.6,25.2v0.4H88v0.3h-0.5v1c0,0.2,0.1,0.4,0.2,0.4c0.1,0,0.1,0,0.2,0l0,0.2c-0.1,0-0.2,0-0.3,0
				c-0.2,0-0.3-0.1-0.4-0.1c-0.1-0.1-0.1-0.3-0.1-0.5v-1H87v-0.3h0.3v-0.3L87.6,25.2z"/>
			<path class="st1" d="M88.4,26.2c0-0.2,0-0.4,0-0.6h0.3l0,0.4h0c0.1-0.2,0.3-0.4,0.5-0.4c0,0,0.1,0,0.1,0v0.3c0,0-0.1,0-0.1,0
				c-0.2,0-0.4,0.2-0.4,0.4c0,0,0,0.1,0,0.2v1h-0.3V26.2z"/>
			<path class="st1" d="M91.2,27c0,0.2,0,0.4,0,0.5h-0.3l0-0.3h0c-0.1,0.1-0.3,0.3-0.6,0.3c-0.3,0-0.6-0.2-0.6-0.8v-1.1H90v1
				c0,0.3,0.1,0.6,0.4,0.6c0.2,0,0.4-0.2,0.4-0.3c0-0.1,0-0.1,0-0.2v-1.1h0.3V27L91.2,27z"/>
			<path class="st1" d="M93,27.4c-0.1,0-0.3,0.1-0.5,0.1c-0.5,0-0.9-0.4-0.9-0.9c0-0.6,0.4-1,1-1c0.2,0,0.4,0,0.5,0.1L93,26
				c-0.1,0-0.2-0.1-0.4-0.1c-0.4,0-0.6,0.3-0.6,0.7c0,0.4,0.3,0.7,0.6,0.7c0.2,0,0.3,0,0.4-0.1L93,27.4z"/>
			<path class="st1" d="M93.9,25.2v0.4h0.5v0.3h-0.5v1c0,0.2,0.1,0.4,0.2,0.4c0.1,0,0.1,0,0.2,0l0,0.2c-0.1,0-0.2,0-0.3,0
				c-0.2,0-0.3-0.1-0.4-0.1c-0.1-0.1-0.1-0.3-0.1-0.5v-1h-0.3v-0.3h0.3v-0.3L93.9,25.2z"/>
			<path class="st1" d="M96.2,27c0,0.2,0,0.4,0,0.5H96l0-0.3h0c-0.1,0.1-0.3,0.3-0.6,0.3c-0.3,0-0.6-0.2-0.6-0.8v-1.1H95v1
				c0,0.3,0.1,0.6,0.4,0.6c0.2,0,0.4-0.2,0.4-0.3c0-0.1,0-0.1,0-0.2v-1.1h0.3V27L96.2,27z"/>
			<path class="st1" d="M96.8,26.2c0-0.2,0-0.4,0-0.6h0.3l0,0.4h0c0.1-0.2,0.3-0.4,0.5-0.4c0,0,0.1,0,0.1,0v0.3c0,0-0.1,0-0.1,0
				c-0.2,0-0.4,0.2-0.4,0.4c0,0,0,0.1,0,0.2v1h-0.3V26.2z"/>
			<path class="st1" d="M98.2,26.6c0,0.4,0.3,0.6,0.6,0.6c0.2,0,0.4,0,0.5-0.1l0.1,0.2c-0.1,0.1-0.3,0.1-0.6,0.1
				c-0.6,0-0.9-0.4-0.9-0.9s0.3-1,0.9-1c0.6,0,0.8,0.5,0.8,0.9c0,0.1,0,0.1,0,0.2H98.2z M99.1,26.4c0-0.2-0.1-0.5-0.5-0.5
				c-0.3,0-0.5,0.3-0.5,0.5H99.1z"/>
			<path class="st1" d="M99.8,27.1c0.1,0.1,0.3,0.1,0.4,0.1c0.2,0,0.4-0.1,0.4-0.3c0-0.2-0.1-0.2-0.3-0.3c-0.3-0.1-0.5-0.3-0.5-0.5
				c0-0.3,0.2-0.5,0.6-0.5c0.2,0,0.3,0.1,0.4,0.1l-0.1,0.2c-0.1,0-0.2-0.1-0.4-0.1c-0.2,0-0.3,0.1-0.3,0.2c0,0.1,0.1,0.2,0.3,0.3
				c0.3,0.1,0.5,0.3,0.5,0.5c0,0.3-0.2,0.5-0.7,0.5c-0.2,0-0.4-0.1-0.5-0.1L99.8,27.1z"/>
		</g>
	</g>
	<path class="st1" d="M12.2,17.7c0-0.2,0-0.2,0.2-0.3c0.1-0.1,0.3-0.2,0.5-0.2h4c0.2,0,0.3,0.1,0.5,0.2c0.1,0.1,0.2,0.2,0.2,0.3v3
		c0,0.2,0,0.2-0.2,0.3c-0.1,0.1-0.3,0.2-0.5,0.2H13c0,0,0,0,0,0c0.1,0.1,0.1,0.2,0.1,0.3c0.2,0.5,0.4,1.1,0.4,1.6c0,0,0,0,0,0h3.3
		c0.7,0,1.3-0.2,1.8-0.7c0.5-0.4,0.8-1.1,0.8-1.8h0l0-3c0,0,0,0,0,0c0-0.7-0.3-1.3-0.8-1.7c-0.5-0.5-1.2-0.7-1.9-0.7h0c0,0,0,0,0,0
		h-4c0,0,0,0,0,0c-0.7,0-1.4,0.2-1.9,0.7c-0.5,0.5-0.8,1.1-0.8,1.7c0,0,0,0,0,0v1c0.1,0,0.2-0.1,0.3-0.1c0,0,0,0,0,0
		c0.1,0,0.1,0,0.2-0.1c0,0,0.1,0,0.1,0"/>
	<path class="st1" d="M91.6,17.7c0-0.7-0.3-1.3-0.8-1.7c-0.5-0.5-1.2-0.7-1.9-0.7c0,0,0,0,0,0s0,0,0,0h-4c0,0,0,0,0,0
		c-0.7,0-1.4,0.2-1.9,0.7c-0.5,0.5-0.8,1.1-0.8,1.7c0,0,0,0,0,0v0.2c0.3-0.2,0.7-0.4,1.1-0.4c0.2,0,0.4,0,0.6,0.1
		c0.3-0.4,0.8-0.6,1.4-0.6c0.3,0,0.6,0.1,0.8,0.2h2.7c0.2,0,0.3,0.1,0.5,0.2c0.1,0.1,0.2,0.2,0.2,0.3l0,3h0c0,0.2,0,0.2-0.2,0.3
		c-0.1,0.1-0.3,0.2-0.5,0.2h-3.6c0,0,0,0,0,0c-0.1,0.8-0.5,1.5-1.2,1.8c0.2,0.1,0.5,0.1,0.8,0.1h4.1c0.7,0,1.3-0.2,1.8-0.7
		c0.5-0.4,0.8-1.1,0.8-1.8l0,0L91.6,17.7C91.6,17.7,91.6,17.7,91.6,17.7z"/>
	<path class="st1" d="M100.9,17.7c0-0.7-0.3-1.3-0.8-1.7c-0.5-0.5-1.2-0.7-1.9-0.7c0,0,0,0,0,0c0,0,0,0,0,0h-2.7
		c-0.4,0-0.7,0.1-1,0.2c-0.2-0.1-0.4-0.2-0.6-0.2h0c0,0,0,0,0,0c-0.2,0-0.5,0.1-0.7,0.2c-0.2,0.2-0.3,0.5-0.3,0.7v0c0,0,0,0,0,0v5.9
		c0,0,0,0,0,0c0,0.2,0.1,0.5,0.3,0.7c0.2,0.2,0.5,0.2,0.7,0.2c0.3,0,0.5-0.1,0.7-0.2c0.2-0.2,0.3-0.4,0.3-0.7l0,0v-4.5
		c0-0.2,0-0.2,0.2-0.3c0.1-0.1,0.3-0.2,0.5-0.2l2.7,0c0.2,0,0.3,0.1,0.5,0.2c0.1,0.1,0.2,0.2,0.2,0.3v4.5c0,0,0,0,0,0
		c0,0.2,0.1,0.5,0.3,0.7c0.2,0.2,0.5,0.2,0.7,0.2h0c0.3,0,0.5-0.1,0.7-0.2c0.2-0.2,0.3-0.5,0.3-0.7l0,0L100.9,17.7
		C100.9,17.7,100.9,17.7,100.9,17.7z"/>
	<path class="st1" d="M28.1,16c-0.5-0.5-1.2-0.7-1.9-0.7c0,0,0,0,0,0c0,0,0,0,0,0h-2.7c-0.4,0-0.7,0.1-1,0.2
		c-0.2-0.1-0.4-0.2-0.6-0.2c0,0,0,0,0,0c-0.2,0-0.5,0.1-0.7,0.2c-0.2,0.2-0.3,0.5-0.3,0.7c0,0,0,0,0,0l0,5.9v0
		c0,0.2,0.1,0.5,0.3,0.7c0.2,0.2,0.5,0.2,0.7,0.2c0.3,0,0.5-0.1,0.7-0.2c0.2-0.2,0.3-0.5,0.3-0.7v-4.5c0-0.2,0-0.2,0.2-0.3
		c0.1-0.1,0.3-0.2,0.5-0.2l2.7,0c0.2,0,0.3,0.1,0.5,0.2c0.1,0.1,0.2,0.2,0.2,0.3v4.5c0,0,0,0,0,0c0,0.2,0.1,0.5,0.3,0.7
		c0.2,0.2,0.5,0.2,0.7,0.2c0.3,0,0.5-0.1,0.7-0.2c0.2-0.2,0.3-0.5,0.3-0.7v-4.5c0,0,0,0,0,0C28.9,17,28.6,16.4,28.1,16z"/>
</g>
</svg>
