<svg xmlns="http://www.w3.org/2000/svg" width="769" height="240.1" viewBox="0 0 769 240.1"><style type="text/css"><![CDATA[
	.st0{fill:#7F8500;} .st1{fill:#808080;} .st2{enable-background:new;} .st3{fill:#8E9300;} .st4{fill:#8F9400;}
	.st5{fill:#F09000;} .st6{fill:#935B00;} .st7{fill:#949494;} .st8{fill:#959595;} .st9{fill:#FAFAFA;} .st10{fill:#69696B;}
	.st11{fill:#3084B5;} .st12{fill:#00628B;} .st13{fill:#006D9A;} .st14{fill:#006E9B;} .st15{fill:#009DE1;} .st16{fill:#D0D500;}
	.st17{fill:#A36500;} .st18{fill:#A46600;}
]]></style><path class="st10" d="M252 201.8c-26.2 0-46.3-17.2-46.3-46.1 0-28.9 19-47.4 48-47.4 27.3 0 45.6 18.9 45.6 46 0 32.6-23.3 47.6-47.1 47.6h-.2v-.1zm.6-20c11 0 17.8-10.8 17.8-26.9 0-13.2-5.1-26.7-17.8-26.7-13.2 0-18.3 13.6-18.3 26.9 0 15.2 6.4 26.7 18.1 26.7h.2zM108.8 194.1c-8.6 2.9-24.9 7-41.2 7-22.5 0-38.8-5.7-50.2-16.5C6.2 173.8 0 157.7 0 139.5.2 98.5 30 75 70.5 75c15.9 0 28.2 3.1 34.2 5.9l-5.9 22.5c-6.8-3.1-15-5.3-28.6-5.3-23.3 0-41 13.2-41 39.9 0 25.6 16.1 40.5 39 40.5 6.2 0 11.4-.7 13.6-1.6v-26h-19v-21.8h46v65zM144.7 163.7c.9 11.7 12.3 17.2 25.3 17.2 9.5 0 17.2-1.3 24.7-3.8l3.7 18.9c-9.2 3.8-20.3 5.7-32.4 5.7-30.4 0-47.8-17.6-47.8-45.8 0-22.7 14.3-47.8 45.2-47.8 28.9 0 39.9 22.5 39.9 44.7 0 4.8-.6 9-.9 11.2l-57.7-.3zm32.8-19c0-6.6-2.9-18.1-15.6-18.1-11.9 0-16.7 10.8-17.4 18.1h33zM304.3 138.8c0-11.2-.4-20.5-.7-28.6h23.6l1.1 12.3h.5c3.9-5.9 11.9-14.3 27.1-14.3 11.7 0 20.7 6 24.5 15.4h.4c3.5-4.8 7.3-8.4 11.7-11 4.9-2.8 10.4-4.4 17-4.4 17.2 0 30.2 12.1 30.2 38.8v52.8h-27.1v-48.5c0-13-4.2-20.5-13.2-20.5-6.6 0-11 4.4-13 9.7-.5 2-.9 4.8-.9 7v52.4h-27.1v-50.2c0-11.2-4-18.9-13-18.9-7.1 0-11.4 5.5-13 9.9-.9 2.2-1.1 4.8-1.1 7.1v52h-27.1l.1-61zM528.7 178.2c0 8.4.4 16.7 1.5 21.6h-25.1l-1.7-9h-.5c-5.9 7.1-15 11-25.6 11-18.1 0-28.9-13.2-28.9-27.5 0-23.3 20.9-34.2 52.6-34.2V139c0-4.8-2.6-11.5-16.3-11.5-9.2 0-18.9 3.1-24.7 6.6l-5.1-17.8c6.2-3.5 18.5-8.1 34.8-8.1 29.9 0 39.2 17.6 39.2 38.6l-.2 31.4zm-26.9-20.7c-14.7 0-26 3.5-26 14.1 0 7.1 4.8 10.6 11 10.6 6.8 0 12.6-4.6 14.5-10.3.4-1.5.5-3.1.5-4.8v-9.6zM571.5 85.9v24.4h20v20.5h-20v32.6c0 10.8 2.8 15.8 11 15.8 3.8 0 5.7-.2 8.2-.7l.2 21.1c-3.5 1.3-10.3 2.4-18 2.4-9 0-16.5-3.1-21.1-7.7-5.1-5.3-7.7-13.9-7.7-26.6v-36.8h-11.9v-20.5h11.9v-17l27.4-7.5z"/><path class="st11" d="M673.3 129c-1.7.5-3.5.2-4.9-.8l-11.3-7.6-8.4 33.5c-1.3 5.1-2.8 11.9-4 16.7h-.5c-1.1-4.8-2.9-11.3-4.4-16.7l-13.4-44h-30.9l33 81.9c.9 2.2 1.1 3.7 1.1 4.6 0 1.3-.5 2.6-1.5 4-2.6 4.4-7.3 9-11.5 11.2-4.2 2.4-8.6 4-12.1 4.8l5.9 23.5c7.1-.7 17.4-3.8 26.9-12.3 10.1-9 18.7-23.1 31.5-58.6l15.3-43.1c-5.3 1.4-10.8 2.9-10.8 2.9z"/><path class="st10" d="M728.4 145.2c-7.5-2.6-11.5-4.5-13.3-6.8-.5-.2-1.1-.4-1.6-.7 0 0-19.1-12.8-20.9-14-.4.1-1.1.3-2 .6-2.3 4-3.5 8.5-3.5 13.5-.2 10.4 7 20.7 25.7 26.7 10.3 3.5 13 5.7 13 10.4 0 4.6-3.5 7.3-11.9 7.3-8.2 0-18.9-3.5-24-6.6l-5 19.8c6.8 3.7 17.2 6.4 28.9 6.4 25.7 0 38.7-12.3 38.7-29.1-.1-13-7-21.8-24.1-27.5z"/><g class="st2"><path class="st0" d="M702.4 36.3L693 53l-.7-20.5 9.4-16.7z"/><path class="st3" d="M724.2 51l-9.3 16.6L693 53l9.4-16.7z"/><path class="st4" d="M745.4 45.2L736 61.8l-21.1 5.8 9.3-16.6z"/><path class="st16" d="M722.8 10l21.9 14.7.7 20.5-21.2 5.8-21.8-14.7-.7-20.5z"/><path class="st12" d="M656.8 26.3l-9.3 16.6-.8-20.5 9.4-16.6z"/><path class="st14" d="M699.9 35.2l-9.4 16.6-21.2 5.8 9.4-16.6z"/><path class="st13" d="M678.7 41l-9.4 16.6-21.8-14.7 9.3-16.6z"/><path class="st15" d="M677.3 0l21.9 14.7.7 20.5-21.2 5.8-21.9-14.7-.7-20.5z"/><path class="st0" d="M726 73l-9.4 16.6-.8-20.5 9.4-16.6z"/><path class="st4" d="M769 81.9l-9.4 16.6-21.2 5.8 9.4-16.6z"/><path class="st16" d="M746.4 46.7l21.8 14.7.8 20.5-21.2 5.8L726 73l-.8-20.5z"/><path class="st3" d="M747.8 87.7l-9.4 16.6-21.8-14.7L726 73z"/><path class="st1" d="M680.2 63.7l-9.4 16.6-.7-20.5 9.4-16.6z"/><path class="st7" d="M702.1 78.4L692.7 95l-21.9-14.7 9.4-16.6z"/><path class="st8" d="M723.2 72.6l-9.4 8.3-21.1 5.8 9.4-8.3z"/><path class="st9" d="M700.6 37.4l21.9 14.7.7 20.5-21.1 5.8-21.9-14.7-.7-20.5z"/><path class="st6" d="M635 54.2l-9.4 16.6-.7-20.5 9.4-16.6z"/><path class="st17" d="M656.9 68.9l-9.4 16.6-21.9-14.7 9.4-16.6z"/><path class="st18" d="M678 63.1l-9.4 16.6-21.1 5.8 9.4-16.6z"/><path class="st5" d="M655.4 27.9l21.9 14.7.7 20.5-21.1 5.8L635 54.2l-.7-20.5z"/><path class="st12" d="M704.5 101.5l-9.4 16.6-.7-20.5 9.3-16.6z"/><path class="st13" d="M726.3 116.1l-9.4 16.7-21.8-14.7 9.4-16.6z"/><path class="st14" d="M747.5 110.4l-9.4 16.6-21.2 5.8 9.4-16.7z"/><path class="st15" d="M724.9 75.2l21.9 14.7.7 20.5-21.2 5.7-21.8-14.6-.8-20.5z"/><path class="st6" d="M659.3 92l-9.4 16.6-.7-20.5 9.3-16.6z"/><path class="st17" d="M681.2 106.7l-9.4 16.6-21.9-14.7 9.4-16.6z"/><path class="st18" d="M702.3 100.9l-9.4 16.6-21.1 5.8 9.4-16.6z"/><path class="st5" d="M679.7 65.7l21.9 14.7.7 20.5-21.1 5.8L659.3 92l-.8-20.5z"/></g></svg>