<?xml version="1.0" encoding="utf-8"?>
<!DOCTYPE svg PUBLIC "-//W3C//DTD SVG 1.1//EN" "http://www.w3.org/Graphics/SVG/1.1/DTD/svg11.dtd">
<svg version="1.1" id="Calque_1" xmlns="http://www.w3.org/2000/svg" xmlns:xlink="http://www.w3.org/1999/xlink" x="0px" y="0px"
	 width="872px" height="72px" viewBox="0 0 872 72" style="enable-background:new 0 0 872 72;" xml:space="preserve">
<style type="text/css"><![CDATA[
	.st0{fill:#7C7B7B;} .st1{fill:#FFFFFF;stroke:#2D2E82;stroke-miterlimit:10;}
	.st2{fill:none;stroke:#7C7B7B;stroke-width:3;stroke-miterlimit:10;}
	.st3{opacity:8.000000e-02;fill:none;stroke:#1D1D1B;stroke-width:0.75;enable-background:new;}
	.st4{fill:none;stroke:#696969;stroke-miterlimit:10;}
	.st5{font-family:'MyriadPro-Regular';} .st6{fill:#5B5B5B;} .st7{fill:#2D2E82;}
	.st8{opacity:0.5;}	.st9{fill:#696969;} .st10{font-size:5.7828;} .st11{fill:#707070;}
]]></style>
<g>
	<rect x="0.5" class="st11" width="871" height="72"/>
	<path class="st11" d="M871,0.1v69.5H1V0.1H871"/>
</g>
<line class="st3" x1="612.6" y1="-0.1" x2="552.9" y2="70.6"/>
<path class="st9" d="M679.9,69.6l1.1-3.1c0,0-14-9.4,7.5-10.3l9-15l-45.5-12.9l-23,41.3L679.9,69.6L679.9,69.6z"/>
<path class="st9" d="M541.3,66.5l10.3,3.1h55.5c-30.5-8.9-53.9-16.5-60.4-17.4L541.3,66.5z"/>
<polygon class="st9" points="551,48.9 627.5,71.1 651.8,27.9 572,5.8 "/>
<g>
	<polyline class="st2" points="629.5,69.3 667.2,0.6 652,28.3 	"/>
	<path class="st2" d="M679.7,70.2l1.3-3.7c0,0,7.9,2,9.8-3.3c2-5.5-6.1-7-6.1-7s-6.4-2-8.6,4.5c-1.6,4.6,4.8,5.8,4.8,5.8"/>
	<path class="st2" d="M697.5,41.2c0,0-2.4,9.3-9.9,16"/>
	<line class="st2" x1="792.8" y1="69.6" x2="652" y2="28.3"/>
	<line class="st2" x1="714.1" y1="0.6" x2="697.4" y2="41.5"/>
	<line class="st2" x1="800.2" y1="0.6" x2="775.1" y2="64"/>
	<path class="st2" d="M854.3,70.2c0,0,1.6-15.5-74.6-17.9l-79.4-18L634.9,2.8"/>
	<line class="st2" x1="768.8" y1="0.6" x2="752.4" y2="46.2"/>
	<polygon class="st0" points="632.5,70.2 546.2,44.1 543,48.6 613.7,70.2 	"/>
	<polygon class="st0" points="539.7,70.2 549,70.2 541.1,68.2 	"/>
	<polygon class="st0" points="632.7,-0.1 625.7,-0.1 699.8,35.5 699.9,32.4 	"/>
	<polygon class="st0" points="559.1,-0.1 550,-0.1 651,29.5 651.9,26.9 	"/>
</g>
<g class="st8">
	<ellipse class="st1" cx="698.3" cy="42.8" rx="4.8" ry="3.5"/>
	<text transform="matrix(1.3622 0 0 1 695.1279 44.4893)" class="st7 st5 st10">M</text>
</g>
<polygon class="st9" points="718.7,-0.1 713,17.8 735,22.8 743.6,-0.1 "/>
<g class="st8">
	<ellipse class="st1" cx="779.7" cy="52.4" rx="4.8" ry="3.5"/>
	<text transform="matrix(1.3622 0 0 1 776.5312 54.0527)" class="st7 st5 st10">M</text>
</g>
<polygon class="st6" points="577.3,-0.5 540.5,71.8 1,72 1,-0.5 "/>
<g>
	<line class="st4" x1="707.4" y1="17.8" x2="786.7" y2="33.7"/>
	<polyline class="st4" points="766,10 791.7,22.3 813.3,28.2 848.3,0.6 	"/>
	<line class="st4" x1="824.8" y1="0.6" x2="864.9" y2="69"/>
	<line class="st4" x1="783.3" y1="41.2" x2="855.8" y2="53.5"/>
	<line class="st4" x1="807.2" y1="51.4" x2="809.5" y2="45.7"/>
	<line class="st4" x1="819.5" y1="53" x2="820.2" y2="47.5"/>
	<line class="st4" x1="649.9" y1="11.9" x2="642.3" y2="25.7"/>
	<line class="st4" x1="632.1" y1="4.2" x2="627.3" y2="21.8"/>
	<line class="st4" x1="614.7" y1="18.8" x2="618.8" y2="0.6"/>
	<line class="st4" x1="744.3" y1="0.6" x2="734.8" y2="23.2"/>
	<line class="st4" x1="719.3" y1="0.6" x2="712.8" y2="18.8"/>
</g>
</svg>
