<?xml version="1.0" encoding="utf-8"?>
<!DOCTYPE svg PUBLIC "-//W3C//DTD SVG 1.1//EN" "http://www.w3.org/Graphics/SVG/1.1/DTD/svg11.dtd">
<svg version="1.1" id="Calque_1" xmlns="http://www.w3.org/2000/svg" xmlns:xlink="http://www.w3.org/1999/xlink" x="0px" y="0px"
	 width="872px" height="72px" viewBox="0 0 872 72" enable-background="new 0 0 872 72" xml:space="preserve">
<g>
	<g>
		<rect x="-0.33" y="-0.07" fill="#F3F0E9" width="871" height="70.51"/>
		<path fill="#F3F0E9" d="M872,0.43V72H0.17V0.43H872"/>
	</g>
	<g opacity="0.5">
		<line fill="none" stroke="#FFFFFF" stroke-miterlimit="10" x1="706.58" y1="18.11" x2="785.83" y2="34.04"/>
		<g>
			<g>
				<line fill="none" stroke="#D8AFAE" stroke-miterlimit="10" x1="765.21" y1="10.35" x2="766.11" y2="10.79"/>
				<polyline fill="none" stroke="#D8AFAE" stroke-miterlimit="10" stroke-dasharray="1.9553,1.9553" points="767.88,11.63 
					790.88,22.65 810.6,28.04 				"/>
				<polyline fill="none" stroke="#D8AFAE" stroke-miterlimit="10" points="811.54,28.3 812.51,28.57 813.29,27.95 				"/>
				
					<line fill="none" stroke="#D8AFAE" stroke-miterlimit="10" stroke-dasharray="2.0271,2.0271" x1="814.88" y1="26.69" x2="845.94" y2="2.24"/>
				<line fill="none" stroke="#D8AFAE" stroke-miterlimit="10" x1="846.74" y1="1.61" x2="847.52" y2="0.99"/>
			</g>
		</g>
		<line fill="none" stroke="#FFFFFF" stroke-miterlimit="10" x1="824.01" y1="0.99" x2="864.03" y2="69.38"/>
		<line fill="none" stroke="#FFFFFF" stroke-miterlimit="10" x1="782.49" y1="41.57" x2="854.94" y2="53.86"/>
		<line fill="none" stroke="#FFFFFF" stroke-miterlimit="10" x1="806.37" y1="51.8" x2="808.7" y2="46.02"/>
		<line fill="none" stroke="#FFFFFF" stroke-miterlimit="10" x1="818.72" y1="53.36" x2="819.37" y2="47.83"/>
		<line fill="none" stroke="#FFFFFF" stroke-miterlimit="10" x1="649.1" y1="12.31" x2="641.46" y2="26.08"/>
		<line fill="none" stroke="#D8AFAE" stroke-miterlimit="10" stroke-dasharray="2" x1="624.82" y1="0.23" x2="617.93" y2="21.91"/>
		<line fill="none" stroke="#FFFFFF" stroke-miterlimit="10" x1="613.91" y1="19.19" x2="617.93" y2="0.99"/>
		<line fill="none" stroke="#FFFFFF" stroke-miterlimit="10" x1="743.48" y1="0.99" x2="733.98" y2="23.62"/>
	</g>
</g>
<line opacity="0.08" fill="none" stroke="#1D1D1B" stroke-width="0.75" enable-background="new    " x1="611.76" y1="0.23" x2="549.18" y2="72"/>
<path fill="#C5E5C7" d="M687.63,57.97l9-15.77l-45.52-13.54L628.14,72h50.9v0l0,0"/>
<g>
	<path fill="#C5E5C7" d="M718.49-8.64L718.49-8.64"/>
	<path fill="#C5E5C7" d="M698.41-0.14L694.33,8L670.5,0.22"/>
</g>
<polygon fill="#C5E5C7" points="524.49,0.8 506.41,35.42 628.5,71.76 652.74,28.63 552.05,0.67 "/>
<polygon fill="#DEDBD6" points="719.52,0.22 710.95,18.11 734.15,23.12 742.76,0.23 "/>
<rect x="663.6" y="6.21" transform="matrix(-0.9408 -0.339 0.339 -0.9408 1321.2983 251.3013)" fill="#DEDBD6" width="38" height="8.08"/>
<polygon fill="#DEDBD6" points="692.67,17.86 700.29,-0.08 710.01,-0.14 700.07,21.11 "/>
<polygon fill="#DEDBD6" points="689.74,66.91 697.36,48.96 705.72,51.8 697.14,70.16 "/>
<path fill="none" stroke="#D8AFAE" stroke-miterlimit="10" stroke-dasharray="2" d="M560.01,12.31c0,0,68.37,21.17,71.26,27.3
	c2.89,6.13,4.87,14.34-6.45,18.11c-11.32,3.77-75.64-23.69-75.64-23.69"/>
<polygon fill="#DEDBD6" points="778.13,50.33 755.78,41.71 759.67,29.25 785.83,34.04 "/>
<g>
	<line fill="none" stroke="#A8D2E6" stroke-width="3" stroke-miterlimit="10" x1="791.93" y1="69.95" x2="651.12" y2="28.65"/>
	<line fill="none" stroke="#A8D2E6" stroke-width="3" stroke-miterlimit="10" x1="799.4" y1="0" x2="771.83" y2="72"/>
	<line fill="none" stroke="#A8D2E6" stroke-width="3" stroke-miterlimit="10" x1="768.83" y1="-0.14" x2="744.17" y2="72"/>
	<polygon fill="#A8D2E6" points="631.63,71.58 491.56,29.07 488.39,33.53 612.9,71.58 	"/>
	<polygon fill="#FFFFFF" stroke="#D6D6D4" stroke-miterlimit="10" points="558.28,0.23 549.18,0.23 791.93,71.24 801.5,71.24 	"/>
	<polygon fill="#FFFFFF" stroke="#D6D6D4" stroke-miterlimit="10" points="639.81,0.5 631.63,0.5 778.19,54.42 870.67,45.12 
		870.67,41.57 778.87,50.59 	"/>
	<polygon fill="#FFFFFF" stroke="#D6D6D4" stroke-miterlimit="10" points="716.35,0.23 713.53,-0.11 680.46,71.24 683.1,71.58 	"/>
	<polygon fill="#FFFFFF" stroke="#D6D6D4" stroke-miterlimit="10" points="664.88,0.23 659.25,-0.11 625.67,72.34 631.63,71.58 	"/>
</g>
<g>
	<ellipse fill="#FFFFFF" stroke="#2D2E82" stroke-miterlimit="10" cx="695.46" cy="41.57" rx="4.83" ry="3.54"/>
	<text transform="matrix(1.3622 0 0 1 692.2959 43.2646)" fill="#2D2E82" font-family="'MyriadPro-Regular'" font-size="5.7827">M</text>
</g>
<g>
	<ellipse fill="#FFFFFF" stroke="#2D2E82" stroke-miterlimit="10" cx="778.87" cy="52.72" rx="4.83" ry="3.54"/>
	<text transform="matrix(1.3622 0 0 1 775.6992 54.4229)" fill="#2D2E82" font-family="'MyriadPro-Regular'" font-size="5.7827">M</text>
</g>
<polygon fill="#DEDBD6" stroke="#D6D6D4" stroke-miterlimit="10" points="575.34,-0.11 538.46,71.76 0.16,72 0.18,-0.11 "/>
</svg>
