<?xml version="1.0" encoding="utf-8"?>
<!DOCTYPE svg PUBLIC "-//W3C//DTD SVG 1.1//EN" "http://www.w3.org/Graphics/SVG/1.1/DTD/svg11.dtd">
<svg version="1.1" id="Calque_1" xmlns="http://www.w3.org/2000/svg" xmlns:xlink="http://www.w3.org/1999/xlink" x="0px" y="0px"
	 width="872px" height="72px" viewBox="0 0 872 72" style="enable-background:new 0 0 872 72;" xml:space="preserve">
<style type="text/css"><![CDATA[
	.st0{fill:#FFFFFF;stroke:#2D2E82;stroke-miterlimit:10;}
	.st1{opacity:8.000000e-02;fill:none;stroke:#1D1D1B;stroke-width:0.75;enable-background:new;}
	.st2{fill:none;stroke:#D8AFAE;stroke-miterlimit:10;stroke-dasharray:2.0271,2.0271;}
	.st3{fill:none;stroke:#FFFFFF;stroke-miterlimit:10;} .st4{fill:#F3F0E9;} .st5{font-family:'MyriadPro-Regular';}
	.st6{fill:none;stroke:#A8D2E6;stroke-width:3;stroke-miterlimit:10;} .st7{fill:none;stroke:#D8AFAE;stroke-miterlimit:10;}
	.st8{fill:#C5E5C7;} .st9{fill:#2D2E82;} .st10{opacity:0.5;} .st11{fill:none;stroke:#D8AFAE;stroke-miterlimit:10;stroke-dasharray:2;}
	.st12{fill:#FFFFFF;stroke:#D6D6D4;stroke-miterlimit:10;} .st13{font-size:5.7827;}
	.st14{fill:none;stroke:#D8AFAE;stroke-miterlimit:10;stroke-dasharray:1.9553,1.9553;}
	.st15{fill:#A8D2E6;} .st16{fill:#DEDBD6;} .st17{fill:#DEDBD6;stroke:#D6D6D4;stroke-miterlimit:10;}
]]></style>
<g>
	<g>
		<rect x="-0.3" y="-0.1" class="st4" width="871" height="70.5"/>
		<path class="st4" d="M872,0.4V72H0.2V0.4H872"/>
	</g>
	<g class="st10">
		<line class="st3" x1="706.6" y1="18.1" x2="785.8" y2="34"/>
		<g>
			<g>
				<line class="st7" x1="765.2" y1="10.4" x2="766.1" y2="10.8"/>
				<polyline class="st14" points="767.9,11.6 790.9,22.6 810.6,28"/>
				<polyline class="st7" points="811.5,28.3 812.5,28.6 813.3,28"/>
				<line class="st2" x1="814.9" y1="26.7" x2="845.9" y2="2.2"/>
				<line class="st7" x1="846.7" y1="1.6" x2="847.5" y2="1"/>
			</g>
		</g>
		<line class="st3" x1="824" y1="1" x2="864" y2="69.4"/>
		<line class="st3" x1="782.5" y1="41.6" x2="854.9" y2="53.9"/>
		<line class="st3" x1="806.4" y1="51.8" x2="808.7" y2="46"/>
		<line class="st3" x1="818.7" y1="53.4" x2="819.4" y2="47.8"/>
		<line class="st3" x1="649.1" y1="12.3" x2="641.5" y2="26.1"/>
		<line class="st11" x1="624.8" y1="0.2" x2="617.9" y2="21.9"/>
		<line class="st3" x1="613.9" y1="19.2" x2="617.9" y2="1"/>
		<line class="st3" x1="743.5" y1="1" x2="734" y2="23.6"/>
	</g>
</g>
<line class="st1" x1="611.8" y1="0.2" x2="549.2" y2="72"/>
<path class="st8" d="M687.6,58l9-15.8l-45.5-13.5l-23,43.3H679l0,0l0,0"/>
<g>
	<path class="st8" d="M718.5-8.6L718.5-8.6"/>
	<path class="st8" d="M698.4-0.1L694.3,8l-23.8-7.8"/>
</g>
<polygon class="st8" points="524.5,0.8 506.4,35.4 628.5,71.8 652.7,28.6 552,0.7 "/>
<polygon class="st16" points="719.5,0.2 711,18.1 734.2,23.1 742.8,0.2 "/>
<rect x="663.6" y="6.2" transform="matrix(-0.9408 -0.339 0.339 -0.9408 1321.2742 251.3151)" class="st16" width="38" height="8.1"/>
<polygon class="st16" points="692.7,17.9 700.3,-0.1 710,-0.1 700.1,21.1 "/>
<polygon class="st16" points="689.7,66.9 697.4,49 705.7,51.8 697.1,70.2 "/>
<path class="st11" d="M560,12.3c0,0,68.4,21.2,71.3,27.3c2.9,6.1,4.9,14.3-6.4,18.1C613.5,61.5,549.2,34,549.2,34"/>
<polygon class="st16" points="778.1,50.3 755.8,41.7 759.7,29.2 785.8,34 "/>
<g>
	<line class="st6" x1="791.9" y1="70" x2="651.1" y2="28.6"/>
	<line class="st6" x1="799.4" y1="0" x2="771.8" y2="72"/>
	<line class="st6" x1="768.8" y1="-0.1" x2="744.2" y2="72"/>
	<polygon class="st15" points="631.6,71.6 491.6,29.1 488.4,33.5 612.9,71.6 	"/>
	<polygon class="st12" points="558.3,0.2 549.2,0.2 791.9,71.2 801.5,71.2 	"/>
	<polygon class="st12" points="639.8,0.5 631.6,0.5 778.2,54.4 870.7,45.1 870.7,41.6 778.9,50.6 	"/>
	<polygon class="st12" points="716.3,0.2 713.5,-0.1 680.5,71.2 683.1,71.6 	"/>
	<polygon class="st12" points="664.9,0.2 659.2,-0.1 625.7,72.3 631.6,71.6 	"/>
</g>
<g>
	<ellipse class="st0" cx="695.5" cy="41.6" rx="4.8" ry="3.5"/>
	<text transform="matrix(1.3622 0 0 1 692.2959 43.2646)" class="st9 st5 st13">M</text>
</g>
<g>
	<ellipse class="st0" cx="778.9" cy="52.7" rx="4.8" ry="3.5"/>
	<text transform="matrix(1.3622 0 0 1 775.6992 54.4229)" class="st9 st5 st13">M</text>
</g>
<polygon class="st17" points="575.3,-0.1 538.5,71.8 0.2,72 0.2,-0.1 "/>
</svg>
