<svg xmlns="http://www.w3.org/2000/svg" width="872" height="576.7" viewBox="0 0 872 576.7"><style type="text/css"><![CDATA[
	.st0{fill:#7C7B7B;} .st5{fill:#4D4D4D;} .st7{opacity:0.75;} .st12{fill:#585858;}
	.st10{enable-background:new;} .st15{fill:#F3F0E9;} .st17{fill:#5B5B5B;} .st18{fill:#5C5C5C;}
	.st23{fill:#C5E5C7;} .st24{fill:#2D2E82;} .st27{opacity:0.5;} .st30{fill:#696969;}
	.st1{opacity:3.000000e-02;fill:#3D3D3C;enable-background:new;}
	.st2{opacity:0.13;fill:none;stroke:#010202;stroke-width:2;enable-background:new;}
	.st3{fill:#FFFFFF;stroke:#2D2E82;stroke-miterlimit:10;}
	.st4{fill:none;stroke:#7C7B7B;stroke-width:3;stroke-miterlimit:10;}
	.st8{opacity:8e-02;fill:none;stroke:#1D1D1B;stroke-width:0.75;enable-background:new;}
	.st9{fill:none;stroke:#D8AFAE;stroke-miterlimit:10;stroke-dasharray:2.0271,2.0271;}
	.st11{fill:none;stroke:#FFFFFF;stroke-miterlimit:10;}
	.st13{fill:none;stroke:#696969;stroke-miterlimit:10;}
	.st16{opacity:0.13;fill:none;stroke:#000000;stroke-width:0.75;enable-background:new;}
	.st19{fill:none;stroke:#A8D2E6;stroke-width:3;stroke-miterlimit:10;}
	.st20{fill:none;stroke:#D8AFAE;stroke-miterlimit:10;}
	.st22{opacity:0.13;fill:none;stroke:#000000;stroke-width:2;enable-background:new;}
	.st25{opacity:0.13;fill:#3D3D3C;stroke:#010202;stroke-width:2;enable-background:new;}
	.st28{fill:none;stroke:#D8AFAE;stroke-miterlimit:10;stroke-dasharray:2;}
	.st29{opacity:0.1;fill:#3D3D3C;enable-background:new;}
	.st32{fill:#FFFFFF;stroke:#D6D6D4;stroke-miterlimit:10;}
	.st33{fill:#585858;enable-background:new;}
	.st35{fill:none;stroke:#D8AFAE;stroke-miterlimit:10;stroke-dasharray:1.9553,1.9553;}
	.st37{opacity:0.1;enable-background:new;}
	.st38{opacity:3.000000e-02;fill:#585858;enable-background:new;}
	.st40{opacity:0.13;fill:#3D3D3C;stroke:#000000;stroke-width:2;enable-background:new;}
	.st41{fill:#DEDBD6;stroke:#D6D6D4;stroke-miterlimit:10;}
]]></style><path class="st15" d="M0-.1h871v70.5H0zM872.2.4V72H.5V.4h871.7"/><g class="st27"><path class="st11" d="M706.8 18.1L786 34"/><path class="st20" d="M765.5 10.4l.8.4"/><path class="st35" d="M768.2 11.6l23 11 19.6 5.4"/><path class="st20" d="M811.8 28.3l1 .3.7-.6"/><path class="st9" d="M815.2 26.7l31-24.5"/><path class="st20" d="M847 1.6l.8-.6"/><path class="st11" d="M824.2 1l40 68.4M782.8 41.6l72.4 12.3M806.7 51.8L809 46M819 53.4l.7-5.6M649.3 12.3l-7.5 13.8"/><path class="st28" d="M625 .2l-6.8 21.7"/><path class="st11" d="M614.2 19.2l4-18.2M743.8 1l-9.6 22.6"/></g><path class="st22" d="M612 .2L549.5 72"/><path class="st23" d="M687.8 58l9-15.8-45.5-13.5-23 43.3h50.9M718.8-8.6M698.7-.1L694.5 8 670.7.2"/><path class="st23" d="M524.8.8l-18.1 34.6 122.1 36.4L653 28.6 552.2.7z"/><path class="st29" d="M719.8.2l-8.6 17.9 23.3 5L743 .2zM710.2-.1h-9.7L696 10.7 666.3 0l-2.7 7.6 33.9 12.3 2.8 1.2zM690 66.9l7.7-17.9 8.3 2.8-8.7 18.4z"/><path class="st28" d="M560.2 12.3s68.4 21.2 71.3 27.3c2.9 6.1 4.9 14.3-6.4 18.1-11.3 3.8-75.6-23.7-75.6-23.7"/><path class="st29" d="M778.3 50.3L756 41.7l4-12.5 26 4.8z"/><path class="st19" d="M792.2 70L651.3 28.6M799.7 0L772 72M769-.1L744.5 72"/><path fill="#A8D2E6" d="M631.8 71.6l-140-42.5-3.1 4.4 124.5 38.1z"/><path class="st32" d="M558.5.2h-9l242.7 71h9.6zM640 .5h-8.2l146.7 53.9 92.5-9.3v-3.5l-91.8 9zM716.5.2l-2.7-.3-33 71.3 2.5.4zM665.2.2l-5.7-.3L626 72.3l5.8-.7z"/><ellipse class="st3" cx="695.8" cy="41.6" rx="4.8" ry="3.5"/><path class="st24" d="M697.6 41.6c0-.5-.1-1.2-.1-1.7-.2.5-.4.9-.7 1.5l-.9 1.9h-.5l-.9-1.9c-.3-.6-.5-1.1-.6-1.5 0 .5-.1 1.1-.1 1.7l-.1 1.7h-.7l.4-3.9h.9l.9 1.9c.2.5.4.9.5 1.3.1-.4.3-.8.6-1.3l.9-1.9h.9l.3 3.9h-.7l-.1-1.7z"/><ellipse class="st3" cx="779.2" cy="52.7" rx="4.8" ry="3.5"/><path class="st24" d="M781 52.7c0-.5-.1-1.2-.1-1.7-.2.5-.4.9-.7 1.5l-.9 1.9h-.5l-.9-1.9c-.3-.6-.5-1.1-.6-1.5 0 .5-.1 1.1-.1 1.7l-.1 1.7h-.7l.4-3.9h.9l.9 1.9c.2.5.4.9.5 1.3.1-.4.3-.8.6-1.3l.9-1.9h.9l.3 3.9h-.7l-.1-1.7z"/><path class="st41" d="M575.5-.1l-36.7 71.9L.5 72V-.1z"/><g fill="#707070"><path d="M0 72.1h871v72H0zM870.5 72.2v69.5H.5V72.2h870"/></g><path class="st8" d="M612 72l-59.6 70.7"/><path class="st30" d="M679.4 141.7l1.1-3.1s-14-9.4 7.5-10.3l9-15-45.5-12.9-23 41.3h50.9zM540.8 138.6l10.3 3.1h55.5c-30.5-8.9-53.9-16.5-60.4-17.4l-5.4 14.3zM550.5 121l76.5 22.2 24.2-43.2-79.7-22.1z"/><path class="st4" d="M629 141.4l37.7-68.7-15.2 27.7M679.2 142.3l1.3-3.7s7.9 2 9.8-3.3c2-5.5-6.1-7-6.1-7s-6.4-2-8.6 4.5c-1.6 4.6 4.8 5.8 4.8 5.8M697 113.3s-2.4 9.3-9.9 16M792.2 141.7l-140.7-41.3M713.5 72.7l-16.6 40.9M799.7 72.7l-25.2 63.4M853.8 142.3s1.6-15.5-74.6-17.9l-79.4-18-65.4-31.5M768.2 72.7l-16.3 45.6"/><path class="st0" d="M632 142.3l-86.3-26.1-3.2 4.5 70.7 21.6zM539.2 142.3h9.3l-8-2zM632.2 72h-7l74 35.6.2-3.1zM558.5 72h-9l101 29.6.9-2.6z"/><g class="st27"><ellipse class="st3" cx="697.8" cy="114.9" rx="4.8" ry="3.5"/><path class="st24" d="M699.6 114.9c0-.5-.1-1.2-.1-1.7-.2.5-.4.9-.7 1.5l-.9 1.9h-.5l-.9-1.9c-.3-.6-.5-1.1-.6-1.5 0 .5-.1 1.1-.1 1.7l-.1 1.7h-.7l.4-3.9h.9l.9 1.9c.2.5.4.9.5 1.3.1-.4.3-.8.6-1.3l.9-1.9h.9l.3 3.9h-.7l-.1-1.7z"/></g><path class="st30" d="M718.2 72l-5.7 17.9 22 5L743 72z"/><g class="st27"><ellipse class="st3" cx="779.2" cy="124.5" rx="4.8" ry="3.5"/><path class="st24" d="M781.1 124.4c0-.5-.1-1.2-.1-1.7-.2.5-.4.9-.7 1.5l-.9 1.9h-.5l-.9-1.9c-.3-.6-.5-1.1-.6-1.5 0 .5-.1 1.1-.1 1.7l-.1 1.7h-.7l.4-3.9h.9l.9 1.9c.2.5.4.9.5 1.3.1-.4.3-.8.6-1.3l.9-1.9h.9l.3 3.9h-.7l-.1-1.7z"/></g><path class="st17" d="M576.8 71.6L540 143.9l-539.5.2V71.6z"/><path class="st13" d="M706.9 89.9l79.3 15.9M765.5 82.1l25.7 12.3 21.6 5.9 35-27.6M824.2 72.7l40.2 68.4M782.8 113.3l72.4 12.3M806.7 123.5l2.3-5.7M819 125.1l.7-5.5M649.4 84l-7.6 13.8M631.5 76.3l-4.7 17.6M614.2 90.9l4-18.2M743.8 72.7l-9.6 22.6M718.8 72.7l-6.6 18.2"/><path class="st15" d="M.4 144.7h872v72H.4z"/><path class="st29" d="M549 176.5h7.5v7.7H549zM549 191.9h7.5v7.7H549zM555.5 184.2h7.5v7.7h-7.5zM564 191.9h7.5v7.7H564zM556.5 168.8h7.5v7.7h-7.5zM564 176.5h7.5v7.7H564zM571.5 184.2h7.5v7.7h-7.5zM541.5 199.6h7.5v7.7h-7.5zM534 208h7.5v7.7H534zM556.5 199.6h7.5v7.7h-7.5zM571.5 199.6h7.5v7.7h-7.5zM579 191.9h7.5v7.7H579zM586.7 199.6h7.5v7.7h-7.5zM586.7 184.2h7.5v7.7h-7.5zM579 176.5h7.5v7.7H579zM571.5 168.8h7.5v7.7h-7.5zM564 161.1h7.5v7.7H564zM564 145.6h7.5v7.7H564zM571.5 153.4h7.5v7.7h-7.5zM579 145.6h7.5v7.7H579zM586.7 153.4h7.5v7.7h-7.5zM579 161.1h7.5v7.7H579zM586.7 168.8h7.5v7.7h-7.5zM594.2 145.6h7.5v7.7h-7.5zM601.7 153.4h7.5v7.7h-7.5zM609.2 161.1h7.5v7.7h-7.5zM601.7 168.8h7.5v7.7h-7.5zM609.2 176.5h7.5v7.7h-7.5zM601.7 184.2h7.5v7.7h-7.5zM609.2 191.9h7.5v7.7h-7.5zM594.2 161.1h7.5v7.7h-7.5zM594.2 176.5h7.5v7.7h-7.5zM594.2 191.9h7.5v7.7h-7.5zM615.8 184.2h7.5v7.7h-7.5zM624.2 191.9h7.5v7.7h-7.5zM616.8 168.8h7.5v7.7h-7.5zM624.2 176.5h7.5v7.7h-7.5zM631.8 184.2h7.5v7.7h-7.5zM601.7 199.6h7.5v7.7h-7.5zM616.8 199.6h7.5v7.7h-7.5zM631.8 199.6h7.5v7.7h-7.5zM639.2 191.9h7.5v7.7h-7.5zM646.8 199.6h7.5v7.7h-7.5zM646.8 184.2h7.5v7.7h-7.5zM639.2 176.5h7.5v7.7h-7.5zM631.8 168.8h7.5v7.7h-7.5zM624.2 161.1h7.5v7.7h-7.5zM616.8 153.4h7.5v7.7h-7.5zM609.2 145.6h7.5v7.7h-7.5zM624.2 145.6h7.5v7.7h-7.5zM631.8 153.4h7.5v7.7h-7.5zM639.2 145.6h7.5v7.7h-7.5zM646.8 153.4h7.5v7.7h-7.5zM639.2 161.1h7.5v7.7h-7.5zM646.8 168.8h7.5v7.7h-7.5zM654.3 145.6h7.5v7.7h-7.5zM661.8 153.4h7.5v7.7h-7.5zM669.3 161.1h7.5v7.7h-7.5zM661.8 168.8h7.5v7.7h-7.5zM669.3 176.5h7.5v7.7h-7.5zM661.8 184.2h7.5v7.7h-7.5zM669.3 191.9h7.5v7.7h-7.5zM654.3 161.1h7.5v7.7h-7.5zM654.3 176.5h7.5v7.7h-7.5zM654.3 191.9h7.5v7.7h-7.5zM675.8 184.2h7.5v7.7h-7.5zM684.3 191.9h7.5v7.7h-7.5zM676.8 168.8h7.5v7.7h-7.5zM684.3 176.5h7.5v7.7h-7.5zM692 184.2h7.5v7.7H692zM661.8 199.6h7.5v7.7h-7.5zM676.8 199.6h7.5v7.7h-7.5zM692 199.6h7.5v7.7H692zM699.5 191.9h7.5v7.7h-7.5zM707 199.6h7.5v7.7H707zM707 184.2h7.5v7.7H707zM699.5 176.5h7.5v7.7h-7.5zM692 168.8h7.5v7.7H692zM684.3 161.1h7.5v7.7h-7.5zM676.8 153.4h7.5v7.7h-7.5zM669.3 145.6h7.5v7.7h-7.5zM684.3 145.6h7.5v7.7h-7.5zM692 153.4h7.5v7.7H692zM699.5 145.6h7.5v7.7h-7.5zM707 153.4h7.5v7.7H707zM699.5 161.1h7.5v7.7h-7.5zM707 168.8h7.5v7.7H707zM714.5 145.6h7.5v7.7h-7.5zM722 153.4h7.5v7.7H722zM729.5 161.1h7.5v7.7h-7.5zM722 168.8h7.5v7.7H722zM729.5 176.5h7.5v7.7h-7.5zM722 184.2h7.5v7.7H722zM729.5 191.9h7.5v7.7h-7.5zM714.5 161.1h7.5v7.7h-7.5zM714.5 176.5h7.5v7.7h-7.5zM714.5 191.9h7.5v7.7h-7.5zM736 184.2h7.5v7.7H736zM744.5 191.9h7.5v7.7h-7.5zM737 168.8h7.5v7.7H737zM744.5 176.5h7.5v7.7h-7.5zM752 184.2h7.5v7.7H752zM722 199.6h7.5v7.7H722zM737 199.6h7.5v7.7H737zM752 199.6h7.5v7.7H752zM759.5 191.9h7.5v7.7h-7.5zM767.2 199.6h7.5v7.7h-7.5zM767.2 184.2h7.5v7.7h-7.5zM759.5 176.5h7.5v7.7h-7.5zM752 168.8h7.5v7.7H752zM744.5 161.1h7.5v7.7h-7.5zM737 153.4h7.5v7.7H737zM729.5 145.6h7.5v7.7h-7.5zM744.5 145.6h7.5v7.7h-7.5zM752 153.4h7.5v7.7H752zM759.5 145.6h7.5v7.7h-7.5zM767.2 153.4h7.5v7.7h-7.5zM759.5 161.1h7.5v7.7h-7.5zM767.2 168.8h7.5v7.7h-7.5zM774.7 145.6h7.5v7.7h-7.5zM782.2 153.4h7.5v7.7h-7.5zM789.7 161.1h7.5v7.7h-7.5zM782.2 168.8h7.5v7.7h-7.5zM789.7 176.5h7.5v7.7h-7.5zM782.2 184.2h7.5v7.7h-7.5zM789.7 191.9h7.5v7.7h-7.5zM774.7 161.1h7.5v7.7h-7.5zM774.7 176.5h7.5v7.7h-7.5zM774.7 191.9h7.5v7.7h-7.5zM796.2 184.2h7.5v7.7h-7.5zM804.8 191.9h7.5v7.7h-7.5zM797.2 168.8h7.5v7.7h-7.5zM804.8 176.5h7.5v7.7h-7.5zM812.2 184.2h7.5v7.7h-7.5zM782.2 199.6h7.5v7.7h-7.5zM797.2 199.6h7.5v7.7h-7.5zM812.2 199.6h7.5v7.7h-7.5zM819.8 191.9h7.5v7.7h-7.5zM827.2 199.6h7.5v7.7h-7.5zM827.2 184.2h7.5v7.7h-7.5zM819.8 176.5h7.5v7.7h-7.5zM812.2 168.8h7.5v7.7h-7.5zM804.8 161.1h7.5v7.7h-7.5zM797.2 153.4h7.5v7.7h-7.5zM789.7 145.6h7.5v7.7h-7.5zM804.8 145.6h7.5v7.7h-7.5zM812.2 153.4h7.5v7.7h-7.5zM819.8 145.6h7.5v7.7h-7.5zM827.2 153.4h7.5v7.7h-7.5zM819.8 161.1h7.5v7.7h-7.5zM827.2 168.8h7.5v7.7h-7.5zM834.8 161.1h7.5v7.7h-7.5zM834.8 176.5h7.5v7.7h-7.5zM834.8 191.9h7.5v7.7h-7.5zM841.3 184.2h7.5v7.7h-7.5zM849.8 191.9h7.5v7.7h-7.5zM842.3 168.8h7.5v7.7h-7.5zM849.8 176.5h7.5v7.7h-7.5zM857.3 184.2h7.5v7.7h-7.5zM842.3 199.6h7.5v7.7h-7.5zM857.3 199.6h7.5v7.7h-7.5zM864.8 191.9h7.5v7.7h-7.5zM864.8 176.5h7.5v7.7h-7.5zM857.3 168.8h7.5v7.7h-7.5zM849.8 161.1h7.5v7.7h-7.5zM842.3 153.4h7.5v7.7h-7.5zM834.8 145.6h7.5v7.7h-7.5zM849.8 145.6h7.5v7.7h-7.5zM857.3 153.4h7.5v7.7h-7.5zM864.8 145.6h7.5v7.7h-7.5zM864.8 161.1h7.5v7.7h-7.5zM549 208h7.5v7.7H549zM564 208h7.5v7.7H564zM579 208h7.5v7.7H579zM609.2 208h7.5v7.7h-7.5zM594.2 208h7.5v7.7h-7.5zM624.2 208h7.5v7.7h-7.5zM639.2 208h7.5v7.7h-7.5zM669.3 208h7.5v7.7h-7.5zM654.3 208h7.5v7.7h-7.5zM684.3 208h7.5v7.7h-7.5zM699.5 208h7.5v7.7h-7.5zM729.5 208h7.5v7.7h-7.5zM714.5 208h7.5v7.7h-7.5zM744.5 208h7.5v7.7h-7.5zM759.5 208h7.5v7.7h-7.5zM789.7 208h7.5v7.7h-7.5zM774.7 208h7.5v7.7h-7.5zM804.8 208h7.5v7.7h-7.5zM819.8 208h7.5v7.7h-7.5zM834.8 208h7.5v7.7h-7.5zM849.8 208h7.5v7.7h-7.5zM864.8 208h7.5v7.7h-7.5z"/><path class="st41" d="M574.7 144.8l-36.9 71.7-536.6-.9v-71.5z"/><path opacity=".8" fill="#1E1E1C" enable-background="new" d="M0 215.7h872v72H0z"/><path class="st12" d="M548.7 247.8h7.5v7.7h-7.5zM548.7 263.3h7.5v7.7h-7.5zM556.2 255.6h7.5v7.7h-7.5zM563.7 263.3h7.5v7.7h-7.5zM556.2 240.1h7.5v7.7h-7.5zM563.7 247.8h7.5v7.7h-7.5zM571.2 255.6h7.5v7.7h-7.5zM541.1 271h7.5v7.7h-7.5zM556.2 271h7.5v7.7h-7.5zM571.2 271h7.5v7.7h-7.5zM578.7 263.3h7.5v7.7h-7.5zM586.3 271h7.5v7.7h-7.5zM586.3 255.6h7.5v7.7h-7.5zM578.7 247.8h7.5v7.7h-7.5zM571.2 240.1h7.5v7.7h-7.5zM563.7 232.4h7.5v7.7h-7.5zM564.9 217h7.5v7.7h-7.5zM571.2 224.7h7.5v7.7h-7.5zM579.9 217h7.5v7.7h-7.5zM586.3 224.7h7.5v7.7h-7.5zM578.7 232.4h7.5v7.7h-7.5zM586.3 240.1h7.5v7.7h-7.5zM595.1 217h7.5v7.7h-7.5zM601.3 224.7h7.5v7.7h-7.5zM608.8 232.4h7.5v7.7h-7.5zM601.3 240.1h7.5v7.7h-7.5zM608.8 247.8h7.5v7.7h-7.5zM601.3 255.6h7.5v7.7h-7.5zM608.8 263.3h7.5v7.7h-7.5zM593.8 232.4h7.5v7.7h-7.5zM593.8 247.8h7.5v7.7h-7.5zM593.8 263.3h7.5v7.7h-7.5zM616.4 255.6h7.5v7.7h-7.5zM623.9 263.3h7.5v7.7h-7.5zM616.4 240.1h7.5v7.7h-7.5zM623.9 247.8h7.5v7.7h-7.5zM631.4 255.6h7.5v7.7h-7.5zM601.3 271h7.5v7.7h-7.5zM616.4 271h7.5v7.7h-7.5zM631.4 271h7.5v7.7h-7.5zM638.9 263.3h7.5v7.7h-7.5zM646.4 271h7.5v7.7h-7.5zM646.4 255.6h7.5v7.7h-7.5zM638.9 247.8h7.5v7.7h-7.5zM631.4 240.1h7.5v7.7h-7.5zM623.9 232.4h7.5v7.7h-7.5zM616.4 224.7h7.5v7.7h-7.5zM610.1 217h7.5v7.7h-7.5zM625.2 217h7.5v7.7h-7.5zM631.4 224.7h7.5v7.7h-7.5zM640.2 217h7.5v7.7h-7.5zM646.4 224.7h7.5v7.7h-7.5zM638.9 232.4h7.5v7.7h-7.5zM646.4 240.1h7.5v7.7h-7.5zM655.2 217h7.5v7.7h-7.5zM661.5 224.7h7.5v7.7h-7.5zM669 232.4h7.5v7.7H669zM661.5 240.1h7.5v7.7h-7.5zM669 247.8h7.5v7.7H669zM661.5 255.6h7.5v7.7h-7.5zM669 263.3h7.5v7.7H669zM654 232.4h7.5v7.7H654zM654 247.8h7.5v7.7H654zM654 263.3h7.5v7.7H654zM676.5 255.6h7.5v7.7h-7.5zM684 263.3h7.5v7.7H684zM676.5 240.1h7.5v7.7h-7.5zM684 247.8h7.5v7.7H684zM691.6 255.6h7.5v7.7h-7.5zM661.5 271h7.5v7.7h-7.5zM676.5 271h7.5v7.7h-7.5zM691.6 271h7.5v7.7h-7.5zM699.1 263.3h7.5v7.7h-7.5zM706.6 271h7.5v7.7h-7.5zM706.6 255.6h7.5v7.7h-7.5zM699.1 247.8h7.5v7.7h-7.5zM691.6 240.1h7.5v7.7h-7.5zM684 232.4h7.5v7.7H684zM676.5 224.7h7.5v7.7h-7.5zM670.2 217h7.5v7.7h-7.5zM685.2 217h7.5v7.7h-7.5zM691.6 224.7h7.5v7.7h-7.5zM700.3 217h7.5v7.7h-7.5zM706.6 224.7h7.5v7.7h-7.5zM699.1 232.4h7.5v7.7h-7.5zM706.6 240.1h7.5v7.7h-7.5zM715.3 217h7.5v7.7h-7.5zM721.6 224.7h7.5v7.7h-7.5zM729.2 232.4h7.5v7.7h-7.5zM721.6 240.1h7.5v7.7h-7.5zM729.2 247.8h7.5v7.7h-7.5zM721.6 255.6h7.5v7.7h-7.5zM729.2 263.3h7.5v7.7h-7.5zM714.1 232.4h7.5v7.7h-7.5zM714.1 247.8h7.5v7.7h-7.5zM714.1 263.3h7.5v7.7h-7.5zM736.7 255.6h7.5v7.7h-7.5zM744.2 263.3h7.5v7.7h-7.5zM736.7 240.1h7.5v7.7h-7.5zM744.2 247.8h7.5v7.7h-7.5zM751.7 255.6h7.5v7.7h-7.5zM721.6 271h7.5v7.7h-7.5zM736.7 271h7.5v7.7h-7.5zM751.7 271h7.5v7.7h-7.5zM759.2 263.3h7.5v7.7h-7.5zM766.8 271h7.5v7.7h-7.5zM766.8 255.6h7.5v7.7h-7.5zM759.2 247.8h7.5v7.7h-7.5zM751.7 240.1h7.5v7.7h-7.5zM744.2 232.4h7.5v7.7h-7.5zM736.7 224.7h7.5v7.7h-7.5zM730.4 217h7.5v7.7h-7.5zM745.4 217h7.5v7.7h-7.5zM751.7 224.7h7.5v7.7h-7.5zM760.4 217h7.5v7.7h-7.5zM766.8 224.7h7.5v7.7h-7.5zM759.2 232.4h7.5v7.7h-7.5zM766.8 240.1h7.5v7.7h-7.5zM775.6 217h7.5v7.7h-7.5zM781.8 224.7h7.5v7.7h-7.5zM789.3 232.4h7.5v7.7h-7.5zM781.8 240.1h7.5v7.7h-7.5zM789.3 247.8h7.5v7.7h-7.5zM781.8 255.6h7.5v7.7h-7.5zM789.3 263.3h7.5v7.7h-7.5zM774.3 232.4h7.5v7.7h-7.5zM774.3 247.8h7.5v7.7h-7.5zM774.3 263.3h7.5v7.7h-7.5zM796.8 255.6h7.5v7.7h-7.5zM804.4 263.3h7.5v7.7h-7.5zM796.8 240.1h7.5v7.7h-7.5zM804.4 247.8h7.5v7.7h-7.5zM811.9 255.6h7.5v7.7h-7.5zM781.8 271h7.5v7.7h-7.5zM796.8 271h7.5v7.7h-7.5zM811.9 271h7.5v7.7h-7.5zM819.4 263.3h7.5v7.7h-7.5zM826.9 271h7.5v7.7h-7.5zM826.9 255.6h7.5v7.7h-7.5zM819.4 247.8h7.5v7.7h-7.5zM811.9 240.1h7.5v7.7h-7.5zM804.4 232.4h7.5v7.7h-7.5zM796.8 224.7h7.5v7.7h-7.5zM790.6 217h7.5v7.7h-7.5zM805.7 217h7.5v7.7h-7.5zM811.9 224.7h7.5v7.7h-7.5zM820.7 217h7.5v7.7h-7.5zM826.9 224.7h7.5v7.7h-7.5zM819.4 232.4h7.5v7.7h-7.5zM826.9 240.1h7.5v7.7h-7.5zM834.4 232.4h7.5v7.7h-7.5zM834.4 247.8h7.5v7.7h-7.5zM834.4 263.3h7.5v7.7h-7.5zM842 255.6h7.5v7.7H842zM849.5 263.3h7.5v7.7h-7.5zM842 240.1h7.5v7.7H842zM849.5 247.8h7.5v7.7h-7.5zM857 255.6h7.5v7.7H857zM842 271h7.5v7.7H842zM857 271h7.5v7.7H857zM864.5 263.3h7.5v7.7h-7.5zM864.5 247.8h7.5v7.7h-7.5zM857 240.1h7.5v7.7H857zM849.5 232.4h7.5v7.7h-7.5zM842 224.7h7.5v7.7H842zM835.7 217h7.5v7.7h-7.5zM850.8 217h7.5v7.7h-7.5zM857 224.7h7.5v7.7H857zM865.8 217h7.5v7.7h-7.5zM864.5 232.4h7.5v7.7h-7.5zM548.7 278.7h7.5v7.7h-7.5zM563.7 278.7h7.5v7.7h-7.5zM578.7 278.7h7.5v7.7h-7.5zM608.8 278.7h7.5v7.7h-7.5zM593.8 278.7h7.5v7.7h-7.5zM623.9 278.7h7.5v7.7h-7.5zM638.9 278.7h7.5v7.7h-7.5zM669 278.7h7.5v7.7H669zM654 278.7h7.5v7.7H654zM684 278.7h7.5v7.7H684zM699.1 278.7h7.5v7.7h-7.5zM729.2 278.7h7.5v7.7h-7.5zM714.1 278.7h7.5v7.7h-7.5zM744.2 278.7h7.5v7.7h-7.5zM759.2 278.7h7.5v7.7h-7.5zM789.3 278.7h7.5v7.7h-7.5zM774.3 278.7h7.5v7.7h-7.5zM804.4 278.7h7.5v7.7h-7.5zM819.4 278.7h7.5v7.7h-7.5zM834.4 278.7h7.5v7.7h-7.5zM849.5 278.7h7.5v7.7h-7.5zM864.5 278.7h7.5v7.7h-7.5z"/><path class="st18" d="M575.3 215.7l-36.8 72L0 287.5l.1-71.6z"/><path class="st15" d="M0 287.7h872v72H0z"/><path class="st40" d="M820.262 304.795l-2.9-.014.014-3 2.9.015zM807.782 330.015l-2.9-.013.014-3 2.9.013zM800.702 314.655l-2.9-.014.014-3 2.9.015zM862.663 323.795l-2.9-.014.014-3 2.9.015zM842.243 330.176l-2.9-.016.016-3 2.9.016zM725.092 342.226l-3-.014.013-3 3 .014zM762.68 328.494l-2.9-.014.015-3 2.9.014zM744.852 320.554l-3-.014.014-3 3 .014zM774.72 295.014l-2.9-.012.014-3 2.9.012zM691.47 306.295l-3-.014.015-3 3 .015zM623.36 333.035l-2.9-.014.014-3 2.9.015zM610.82 298.335l-2.9-.015.015-3 2.9.015zM576.66 339.305l-2.9-.014.013-3 2.9.015zM563.31 322.015l-3-.014.014-3 3 .015zM655.42 298.335l-2.9-.015.014-3 2.9.015zM705.67 351.965l-3-.014.014-3 3 .015z"/><path class="st22" d="M548.6 332.5l50.5-4 21.3-25.2 49.1 6.5 19.6-21.8M620.4 359l32-31.9 89 2.9 19.3 13.6 38.5-55.6M872 351.9l-39-46.3-15.1 40.4-39.2-2.4-11 15.4"/><path class="st41" d="M572.5 287.7l-36.7 71.8-534.8.2v-72z"/><path class="st16" d="M729.7 289.4"/><path class="st40" d="M660.18 342.265l-2.9-.016.017-3 2.9.015zM711.24 299.834l-2.9-.012.013-3 2.9.012z"/><path class="st5" d="M0 359.7h872v72H0z"/><path class="st25" d="M817.416 373.897l2.9.014-.014 3-2.9-.013zM804.816 399.098l2.9.013-.014 3-2.9-.012zM797.816 383.697l2.9.014-.014 3-2.9-.013zM859.817 392.897l2.9.014-.014 3-2.9-.013zM839.32 399.198l3 .015-.016 3-3-.015zM722.114 411.297l3 .014-.013 3-3-.013zM759.716 397.598l2.9.013-.015 3-2.9-.012zM741.916 389.597l3 .015-.014 3-3-.015zM771.716 364.097l2.9.014-.015 3-2.9-.013zM688.514 375.397l3 .014-.014 3-3-.013zM620.413 402.097l3 .014-.013 3-3-.013zM607.817 367.397l2.9.016-.016 3-2.9-.016zM573.712 408.298l2.9.012-.013 3-2.9-.012zM560.415 390.998l3 .015-.015 3-3-.015zM652.414 367.397l2.9.014-.014 3-2.9-.013zM704.014 420.998l3 .013-.014 3-3-.012z"/><path class="st2" d="M548.6 404.5l50.5-4 21.3-25.2 49.1 6.5 19.6-21.8M620.4 431l32-31.9 89 3 19.3 13.5 38.5-55.6M872 424l-39-46.4-15.2 40.4-39.1-2.4-11 15.4"/><path class="st18" d="M573.5 359.7l-35.8 71.8-537.4.2.1-72z"/><path class="st25" d="M657.217 411.298l3 .015-.016 3-3-.015zM708.315 368.897l2.9.014-.014 3-2.9-.013z"/><path class="st15" d="M.6 432.3h872v72H.6z"/><g class="st7"><path class="st40" d="M819.315 447.298l2.9.013-.014 3-2.9-.012zM806.713 472.398l2.9.012-.012 3-2.9-.012zM799.714 457.098l2.9.013-.013 3-2.9-.012zM861.713 466.298l2.9.012-.012 3-2.9-.012zM841.12 472.5l3 .014-.016 3-3-.015zM723.914 484.698l3 .014-.013 3-3-.014zM761.616 470.898l2.9.014-.014 3-2.9-.014zM743.814 462.998l3 .014-.013 3-3-.014zM773.616 437.498l2.9.013-.014 3-2.9-.012zM704.615 494.4l2.9.012-.014 3-2.9-.013z"/><path class="st22" d="M701.2 474.1l42 1.4 19.3 13.5 38.6-55.6M873.9 497.4L834.8 451l-15.1 40.4-39.1-2.4-11.1 15.4"/><path class="st16" d="M731.6 434.8"/></g><path fill="#F2EEE7" d="M725.3 432.4L688 504.1l-150.3-.8v-71.6z"/><path class="st29" d="M555.3 464.1h7.5v7.7h-7.5zM555.3 479.6h7.5v7.7h-7.5zM547.7 471.9h7.5v7.7h-7.5zM562.8 471.9h7.5v7.7h-7.5zM570.4 479.6h7.5v7.7h-7.5zM562.8 456.4h7.5v7.7h-7.5zM562.8 441h7.5v7.7h-7.5zM570.4 464.1h7.5v7.7h-7.5zM577.9 471.9h7.5v7.7h-7.5zM547.8 487.3h7.5v7.7h-7.5zM540.2 479.7h7.5v7.7h-7.5zM540.3 495.7h7.5v7.7h-7.5zM562.8 487.3h7.5v7.7h-7.5zM577.9 487.3h7.5v7.7h-7.5zM585.4 479.6h7.5v7.7h-7.5zM592.9 487.3h7.5v7.7h-7.5zM592.9 471.9h7.5v7.7h-7.5zM585.4 464.1h7.5v7.7h-7.5zM577.9 456.4h7.5v7.7h-7.5zM570.4 448.7h7.5v7.7h-7.5zM577.9 441h7.5v7.7h-7.5zM570.4 433.3h7.5v7.7h-7.5zM585.4 433.3h7.5v7.7h-7.5zM592.9 441h7.5v7.7h-7.5zM585.4 448.7h7.5v7.7h-7.5zM592.9 456.4h7.5v7.7h-7.5zM600.4 433.3h7.5v7.7h-7.5zM608 441h7.5v7.7H608zM615.5 448.7h7.5v7.7h-7.5zM608 456.4h7.5v7.7H608zM615.5 464.1h7.5v7.7h-7.5zM608 471.9h7.5v7.7H608zM615.5 479.6h7.5v7.7h-7.5zM600.4 448.7h7.5v7.7h-7.5zM600.4 464.1h7.5v7.7h-7.5zM600.4 479.6h7.5v7.7h-7.5zM623 471.9h7.5v7.7H623zM630.5 479.6h7.5v7.7h-7.5zM623 456.4h7.5v7.7H623zM630.5 464.1h7.5v7.7h-7.5zM638 471.9h7.5v7.7H638zM608 487.3h7.5v7.7H608zM623 487.3h7.5v7.7H623zM638 487.3h7.5v7.7H638zM645.6 479.6h7.5v7.7h-7.5zM653.1 487.3h7.5v7.7h-7.5zM653.1 471.9h7.5v7.7h-7.5zM645.6 464.1h7.5v7.7h-7.5zM638 456.4h7.5v7.7H638zM630.5 448.7h7.5v7.7h-7.5zM623 441h7.5v7.7H623zM615.5 433.3h7.5v7.7h-7.5zM630.5 433.3h7.5v7.7h-7.5zM638 441h7.5v7.7H638zM645.6 433.3h7.5v7.7h-7.5zM653.1 441h7.5v7.7h-7.5zM645.6 448.7h7.5v7.7h-7.5zM653.1 456.4h7.5v7.7h-7.5zM660.6 433.3h7.5v7.7h-7.5zM668.1 441h7.5v7.7h-7.5zM675.6 448.7h7.5v7.7h-7.5zM668.1 456.4h7.5v7.7h-7.5zM675.6 464.1h7.5v7.7h-7.5zM668.1 471.9h7.5v7.7h-7.5zM675.6 479.6h7.5v7.7h-7.5zM660.6 448.7h7.5v7.7h-7.5zM660.6 464.1h7.5v7.7h-7.5zM660.6 479.6h7.5v7.7h-7.5zM683.2 471.9h7.5v7.7h-7.5zM683.2 456.4h7.5v7.7h-7.5zM690.7 464.1h7.5v7.7h-7.5zM668.1 487.3h7.5v7.7h-7.5zM683.2 487.3h7.5v7.7h-7.5zM698.2 456.4h7.5v7.7h-7.5zM690.7 448.7h7.5v7.7h-7.5zM683.2 441h7.5v7.7h-7.5zM675.6 433.3h7.5v7.7h-7.5zM690.7 433.3h7.5v7.7h-7.5zM698.2 441h7.5v7.7h-7.5zM705.7 433.3h7.5v7.7h-7.5zM705.7 448.7h7.5v7.7h-7.5zM555.3 495.7h7.5v7.7h-7.5zM570.4 495.7h7.5v7.7h-7.5zM585.4 495.7h7.5v7.7h-7.5zM615.5 495.7h7.5v7.7h-7.5zM600.4 495.7h7.5v7.7h-7.5zM630.5 495.7h7.5v7.7h-7.5zM645.6 495.7h7.5v7.7h-7.5zM675.6 495.7h7.5v7.7h-7.5zM660.6 495.7h7.5v7.7h-7.5zM690.7 479.4v7.7h5.8l1.7-3.4v-4.3zM698.2 471.9v7.7h2.1l4-7.7zM713 441v7.7h3.2l3.9-7.7zM720.1 433.3v6.9l3.6-6.9z"/><g opacity=".1"><path class="st1" d="M690.7 495.7v3.1l1.6-3.1zM690.7 503.4h7.5z"/></g><g class="st37"><path class="st1" d="M707.5 464h-1.7v3.3z"/><path fill="#3D3D3C" d="M705.8 464.2h2l-2 3.3z"/></g><g class="st37"><path class="st1" d="M692.2 495h-1.7v3.3z"/><path fill="#3D3D3C" d="M690.5 495.1h2l-2 3.3z"/></g><path fill="#DEDBD6" stroke="#D5D5D3" stroke-miterlimit="10" d="M574.9 432.4l-36.8 71.7-536.6-.8v-71.6z"/><path class="st5" d="M.6 505h872v72H.6z"/><g class="st7"><path class="st25" d="M822.1 523.003l-2.9-.014.015-3 2.9.013zM809.6 548.105l-2.9-.012.013-3 2.9.012zM802.502 532.803l-2.9-.014.014-3 2.9.013zM864.5 542.003l-2.9-.014.016-3 2.9.013zM844.105 548.303l-2.9-.015.015-3 2.9.015zM727 560.404l-3-.014.015-3 3 .014zM764.5 546.703l-2.9-.013.015-3 2.9.013zM746.8 538.704l-3-.014.014-3 3 .014zM776.5 513.203l-2.9-.013.013-3 2.9.013zM707.6 570.105l-3-.014.014-3 3 .015z"/><path class="st2" d="M654.3 545.3l89 2.9 19.2 13.5 38.6-55.6M873.9 570.1l-39.1-46.4-15.1 40.4-39.1-2.4-11.1 15.4"/><path class="st25" d="M731.6 507.5"/><path class="st25" d="M713.1 518.003l-2.9-.014.014-3 2.9.013z"/></g><path class="st5" d="M718.5 505.1l-36.8 71.7H532.5v-71.6z"/><path class="st33" d="M549.3 536.8h7.5v7.7h-7.5zM549.3 552.3h7.5v7.7h-7.5zM556.8 544.6h7.5v7.7h-7.5zM564.3 552.3h7.5v7.7h-7.5zM556.8 529.1h7.5v7.7h-7.5zM564.3 536.8h7.5v7.7h-7.5zM571.8 544.6h7.5v7.7h-7.5zM541.7 560h7.5v7.7h-7.5zM534.2 568.4h7.5v7.7h-7.5zM556.8 560h7.5v7.7h-7.5zM571.8 560h7.5v7.7h-7.5zM579.3 552.3h7.5v7.7h-7.5zM586.9 560h7.5v7.7h-7.5zM586.9 544.6h7.5v7.7h-7.5zM579.3 536.8h7.5v7.7h-7.5zM571.8 529.1h7.5v7.7h-7.5zM564.3 521.4h7.5v7.7h-7.5zM571.8 513.7h7.5v7.7h-7.5zM579.3 506h7.5v7.7h-7.5zM586.9 513.7h7.5v7.7h-7.5zM579.3 521.4h7.5v7.7h-7.5zM586.9 529.1h7.5v7.7h-7.5zM594.4 506h7.5v7.7h-7.5zM601.9 513.7h7.5v7.7h-7.5zM609.4 521.4h7.5v7.7h-7.5zM601.9 529.1h7.5v7.7h-7.5zM609.4 536.8h7.5v7.7h-7.5zM601.9 544.6h7.5v7.7h-7.5zM609.4 552.3h7.5v7.7h-7.5zM594.4 521.4h7.5v7.7h-7.5zM594.4 536.8h7.5v7.7h-7.5zM594.4 552.3h7.5v7.7h-7.5zM617 544.6h7.5v7.7H617zM624.5 552.3h7.5v7.7h-7.5zM617 529.1h7.5v7.7H617zM624.5 536.8h7.5v7.7h-7.5zM632 544.6h7.5v7.7H632zM601.9 560h7.5v7.7h-7.5zM617 560h7.5v7.7H617zM632 560h7.5v7.7H632zM639.5 552.3h7.5v7.7h-7.5zM647 560h7.5v7.7H647zM647 544.6h7.5v7.7H647zM639.5 536.8h7.5v7.7h-7.5zM632 529.1h7.5v7.7H632zM624.5 521.4h7.5v7.7h-7.5zM617 513.7h7.5v7.7H617zM609.4 506h7.5v7.7h-7.5zM624.5 506h7.5v7.7h-7.5zM632 513.7h7.5v7.7H632zM639.5 506h7.5v7.7h-7.5zM647 513.7h7.5v7.7H647zM639.5 521.4h7.5v7.7h-7.5zM647 529.1h7.5v7.7H647zM654.6 506h7.5v7.7h-7.5zM662.1 513.7h7.5v7.7h-7.5zM669.6 521.4h7.5v7.7h-7.5zM662.1 529.1h7.5v7.7h-7.5zM669.6 536.8h7.5v7.7h-7.5zM662.1 544.6h7.5v7.7h-7.5zM669.6 552.3h7.5v7.7h-7.5zM654.6 521.4h7.5v7.7h-7.5zM654.6 536.8h7.5v7.7h-7.5zM654.6 552.3h7.5v7.7h-7.5zM677.1 544.6h7.5v7.7h-7.5zM677.1 529.1h7.5v7.7h-7.5zM684.6 536.8h7.5v7.7h-7.5zM662.1 560h7.5v7.7h-7.5zM677.1 560h7.5v7.7h-7.5zM692.2 529.1h7.5v7.7h-7.5zM684.6 521.4h7.5v7.7h-7.5zM677.1 513.7h7.5v7.7h-7.5zM669.6 506h7.5v7.7h-7.5zM684.6 506h7.5v7.7h-7.5zM692.2 513.7h7.5v7.7h-7.5zM699.7 506h7.5v7.7h-7.5zM699.7 521.4h7.5v7.7h-7.5zM549.3 568.4h7.5v7.7h-7.5zM564.3 568.4h7.5v7.7h-7.5zM579.3 568.4h7.5v7.7h-7.5zM609.4 568.4h7.5v7.7h-7.5zM594.4 568.4h7.5v7.7h-7.5zM624.5 568.4h7.5v7.7h-7.5zM639.5 568.4h7.5v7.7h-7.5zM669.6 568.4h7.5v7.7h-7.5zM654.6 568.4h7.5v7.7h-7.5zM684.6 552.1v7.7h5.8l1.8-3.4v-4.3zM692.2 544.6v7.7h2.1l3.9-7.7zM706.9 513.7v7.7h3.2l4-7.7zM714.1 506v6.9l3.6-6.9z"/><g class="st10"><path class="st38" d="M701.5 536.7h-1.8v3.3z"/><path class="st12" d="M699.7 536.9h2l-2 3.3z"/></g><g class="st10"><path class="st38" d="M686.2 567.7h-1.8v3.3z"/><path class="st12" d="M684.4 567.8h2.1l-2.1 3.3z"/></g><path class="st17" d="M574.9 505.1l-36.8 71.7L1.5 576v-71.6z"/></svg>