<svg xmlns="http://www.w3.org/2000/svg" width="872" height="576.7" viewBox="0 0 872 576.7"><style type="text/css"><![CDATA[
	.st0{fill:#7C7B7B;} .st5{fill:#4D4D4D;} .st7{opacity:0.75;} .st12{fill:#585858;}
	.st10{enable-background:new;} .st15{fill:#F3F0E9;} .st17{fill:#5B5B5B;} .st18{fill:#5C5C5C;}
	.st23{fill:#C5E5C7;} .st24{fill:#2D2E82;} .st27{opacity:0.5;} .st30{fill:#696969;}
	.st1{opacity:3.000000e-02;fill:#3D3D3C;enable-background:new;}
	.st2{opacity:0.13;fill:none;stroke:#010202;stroke-width:2;enable-background:new;}
	.st3{fill:#FFFFFF;stroke:#2D2E82;stroke-miterlimit:10;}
	.st4{fill:none;stroke:#7C7B7B;stroke-width:3;stroke-miterlimit:10;}
	.st8{opacity:8e-02;fill:none;stroke:#1D1D1B;stroke-width:0.75;enable-background:new;}
	.st9{fill:none;stroke:#D8AFAE;stroke-miterlimit:10;stroke-dasharray:2.0271,2.0271;}
	.st11{fill:none;stroke:#FFFFFF;stroke-miterlimit:10;}
	.st13{fill:none;stroke:#696969;stroke-miterlimit:10;}
	.st16{opacity:0.13;fill:none;stroke:#000000;stroke-width:0.75;enable-background:new;}
	.st19{fill:none;stroke:#A8D2E6;stroke-width:3;stroke-miterlimit:10;}
	.st20{fill:none;stroke:#D8AFAE;stroke-miterlimit:10;}
	.st22{opacity:0.13;fill:none;stroke:#000000;stroke-width:2;enable-background:new;}
	.st25{opacity:0.13;fill:#3D3D3C;stroke:#010202;stroke-width:2;enable-background:new;}
	.st28{fill:none;stroke:#D8AFAE;stroke-miterlimit:10;stroke-dasharray:2;}
	.st29{opacity:0.1;fill:#3D3D3C;enable-background:new;}
	.st32{fill:#FFFFFF;stroke:#D6D6D4;stroke-miterlimit:10;}
	.st33{fill:#585858;enable-background:new;}
	.st35{fill:none;stroke:#D8AFAE;stroke-miterlimit:10;stroke-dasharray:1.9553,1.9553;}
	.st37{opacity:0.1;enable-background:new;}
	.st38{opacity:3.000000e-02;fill:#585858;enable-background:new;}
	.st40{opacity:0.13;fill:#3D3D3C;stroke:#000000;stroke-width:2;enable-background:new;}
	.st41{fill:#DEDBD6;stroke:#D6D6D4;stroke-miterlimit:10;}
]]></style><path class="st15" d="M0-.1h871v70.5h-871zm872.2.5v71.6h-871.7v-71.6h871.7"/><g class="st27"><path class="st11" d="M706.8 18.1l79.2 15.9"/><path class="st20" d="M765.5 10.4l.8.4"/><path class="st35" d="M768.2 11.6l23 11 19.6 5.4"/><path class="st20" d="M811.8 28.3l1 .3.7-.6"/><path class="st9" d="M815.2 26.7l31-24.5"/><path class="st20" d="M847 1.6l.8-.6"/><path class="st11" d="M824.2 1l40 68.4m-81.4-27.8l72.4 12.3m-48.5-2.1l2.3-5.8m10 7.4l.7-5.6m-170.4-35.5l-7.5 13.8"/><path class="st28" d="M625 .2l-6.8 21.7"/><path class="st11" d="M614.2 19.2l4-18.2m125.6 0l-9.6 22.6"/></g><path class="st22" d="M612 .2l-62.5 71.8"/><path class="st23" d="M687.8 58l9-15.8-45.5-13.5-23 43.3h50.9m39.6-80.6l-20.1 8.5-4.2 8.1-23.8-7.8"/><path class="st23" d="M524.8.8l-18.1 34.6 122.1 36.4 24.2-43.2-100.8-27.9z"/><path class="st29" d="M719.8.2l-8.6 17.9 23.3 5 8.5-22.9zm-9.6-.3h-9.7l-4.5 10.8-29.7-10.7-2.7 7.6 33.9 12.3 2.8 1.2zm-20.2 67l7.7-17.9 8.3 2.8-8.7 18.4z"/><path class="st28" d="M560.2 12.3s68.4 21.2 71.3 27.3c2.9 6.1 4.9 14.3-6.4 18.1-11.3 3.8-75.6-23.7-75.6-23.7"/><path class="st29" d="M778.3 50.3l-22.3-8.6 4-12.5 26 4.8z"/><path class="st19" d="M792.2 70l-140.9-41.4m148.4-28.6l-27.7 72m-3-72.1l-24.5 72.1"/><path fill="#A8D2E6" d="M631.8 71.6l-140-42.5-3.1 4.4 124.5 38.1z"/><path class="st32" d="M558.5.2h-9l242.7 71h9.6zm81.5.3h-8.2l146.7 53.9 92.5-9.3v-3.5l-91.8 9zm76.5-.3l-2.7-.3-33 71.3 2.5.4zm-51.3 0l-5.7-.3-33.5 72.4 5.8-.7z"/><ellipse class="st3" cx="695.8" cy="41.6" rx="4.8" ry="3.5"/><path class="st24" d="M697.6 41.6l-.1-1.7c-.2.5-.4.9-.7 1.5l-.9 1.9h-.5l-.9-1.9c-.3-.6-.5-1.1-.6-1.5 0 .5-.1 1.1-.1 1.7l-.1 1.7h-.7l.4-3.9h.9l.9 1.9c.2.5.4.9.5 1.3.1-.4.3-.8.6-1.3l.9-1.9h.9l.3 3.9h-.7l-.1-1.7z"/><ellipse class="st3" cx="779.2" cy="52.7" rx="4.8" ry="3.5"/><path class="st24" d="M781 52.7l-.1-1.7c-.2.5-.4.9-.7 1.5l-.9 1.9h-.5l-.9-1.9c-.3-.6-.5-1.1-.6-1.5 0 .5-.1 1.1-.1 1.7l-.1 1.7h-.7l.4-3.9h.9l.9 1.9c.2.5.4.9.5 1.3.1-.4.3-.8.6-1.3l.9-1.9h.9l.3 3.9h-.7l-.1-1.7z"/><path class="st41" d="M575.5-.1l-36.7 71.9-538.3.2v-72.1z"/><path d="M0 72.1h871v72h-871zm870.5.1v69.5h-870v-69.5h870" fill="#707070"/><path class="st8" d="M612 72l-59.6 70.7"/><path class="st30" d="M679.4 141.7l1.1-3.1s-14-9.4 7.5-10.3l9-15-45.5-12.9-23 41.3h50.9zm-138.6-3.1l10.3 3.1h55.5c-30.5-8.9-53.9-16.5-60.4-17.4l-5.4 14.3zm9.7-17.6l76.5 22.2 24.2-43.2-79.7-22.1z"/><path class="st4" d="M629 141.4l37.7-68.7-15.2 27.7m27.7 41.9l1.3-3.7s7.9 2 9.8-3.3c2-5.5-6.1-7-6.1-7s-6.4-2-8.6 4.5c-1.6 4.6 4.8 5.8 4.8 5.8m16.6-25.3s-2.4 9.3-9.9 16m105.1 12.4l-140.7-41.3m62-27.7l-16.6 40.9m102.8-40.9l-25.2 63.4m79.3 6.2s1.6-15.5-74.6-17.9l-79.4-18-65.4-31.5m133.8-2.2l-16.3 45.6"/><path class="st0" d="M632 142.3l-86.3-26.1-3.2 4.5 70.7 21.6zm-92.8 0h9.3l-8-2zm93-70.3h-7l74 35.6.2-3.1zm-73.7 0h-9l101 29.6.9-2.6z"/><g class="st27"><ellipse class="st3" cx="697.8" cy="114.9" rx="4.8" ry="3.5"/><path class="st24" d="M699.6 114.9l-.1-1.7c-.2.5-.4.9-.7 1.5l-.9 1.9h-.5l-.9-1.9c-.3-.6-.5-1.1-.6-1.5 0 .5-.1 1.1-.1 1.7l-.1 1.7h-.7l.4-3.9h.9l.9 1.9c.2.5.4.9.5 1.3.1-.4.3-.8.6-1.3l.9-1.9h.9l.3 3.9h-.7l-.1-1.7z"/></g><path class="st30" d="M718.2 72l-5.7 17.9 22 5 8.5-22.9z"/><g class="st27"><ellipse class="st3" cx="779.2" cy="124.5" rx="4.8" ry="3.5"/><path class="st24" d="M781.1 124.4l-.1-1.7c-.2.5-.4.9-.7 1.5l-.9 1.9h-.5l-.9-1.9c-.3-.6-.5-1.1-.6-1.5 0 .5-.1 1.1-.1 1.7l-.1 1.7h-.7l.4-3.9h.9l.9 1.9c.2.5.4.9.5 1.3.1-.4.3-.8.6-1.3l.9-1.9h.9l.3 3.9h-.7l-.1-1.7z"/></g><path class="st17" d="M576.8 71.6l-36.8 72.3-539.5.2v-72.5z"/><path class="st13" d="M706.9 89.9l79.3 15.9m-20.7-23.7l25.7 12.3 21.6 5.9 35-27.6m-23.6 0l40.2 68.4m-81.6-27.8l72.4 12.3m-48.5-2.1l2.3-5.7m10 7.3l.7-5.5m-170.3-35.6l-7.6 13.8m-10.3-21.5l-4.7 17.6m-12.6-3l4-18.2m125.6 0l-9.6 22.6m-15.4-22.6l-6.6 18.2"/><path class="st15" d="M.4 144.7h872v72h-872z"/><path class="st29" d="M549 176.5h7.5v7.7h-7.5zm0 15.4h7.5v7.7h-7.5zm6.5-7.7h7.5v7.7h-7.5zm8.5 7.7h7.5v7.7h-7.5zm-7.5-23.1h7.5v7.7h-7.5zm7.5 7.7h7.5v7.7h-7.5zm7.5 7.7h7.5v7.7h-7.5zm-30 15.4h7.5v7.7h-7.5zm-7.5 8.4h7.5v7.7h-7.5zm22.5-8.4h7.5v7.7h-7.5zm15 0h7.5v7.7h-7.5zm7.5-7.7h7.5v7.7h-7.5zm7.7 7.7h7.5v7.7h-7.5zm0-15.4h7.5v7.7h-7.5zm-7.7-7.7h7.5v7.7h-7.5zm-7.5-7.7h7.5v7.7h-7.5zm-7.5-7.7h7.5v7.7h-7.5zm0-15.5h7.5v7.7h-7.5zm7.5 7.8h7.5v7.7h-7.5zm7.5-7.8h7.5v7.7h-7.5zm7.7 7.8h7.5v7.7h-7.5zm-7.7 7.7h7.5v7.7h-7.5zm7.7 7.7h7.5v7.7h-7.5zm7.5-23.2h7.5v7.7h-7.5zm7.5 7.8h7.5v7.7h-7.5zm7.5 7.7h7.5v7.7h-7.5zm-7.5 7.7h7.5v7.7h-7.5zm7.5 7.7h7.5v7.7h-7.5zm-7.5 7.7h7.5v7.7h-7.5zm7.5 7.7h7.5v7.7h-7.5zm-15-30.8h7.5v7.7h-7.5zm0 15.4h7.5v7.7h-7.5zm0 15.4h7.5v7.7h-7.5zm21.6-7.7h7.5v7.7h-7.5zm8.4 7.7h7.5v7.7h-7.5zm-7.4-23.1h7.5v7.7h-7.5zm7.4 7.7h7.5v7.7h-7.5zm7.6 7.7h7.5v7.7h-7.5zm-30.1 15.4h7.5v7.7h-7.5zm15.1 0h7.5v7.7h-7.5zm15 0h7.5v7.7h-7.5zm7.4-7.7h7.5v7.7h-7.5zm7.6 7.7h7.5v7.7h-7.5zm0-15.4h7.5v7.7h-7.5zm-7.6-7.7h7.5v7.7h-7.5zm-7.4-7.7h7.5v7.7h-7.5zm-7.6-7.7h7.5v7.7h-7.5zm-7.4-7.7h7.5v7.7h-7.5zm-7.6-7.8h7.5v7.7h-7.5zm15 0h7.5v7.7h-7.5zm7.6 7.8h7.5v7.7h-7.5zm7.4-7.8h7.5v7.7h-7.5zm7.6 7.8h7.5v7.7h-7.5zm-7.6 7.7h7.5v7.7h-7.5zm7.6 7.7h7.5v7.7h-7.5zm7.5-23.2h7.5v7.7h-7.5zm7.5 7.8h7.5v7.7h-7.5zm7.5 7.7h7.5v7.7h-7.5zm-7.5 7.7h7.5v7.7h-7.5zm7.5 7.7h7.5v7.7h-7.5zm-7.5 7.7h7.5v7.7h-7.5zm7.5 7.7h7.5v7.7h-7.5zm-15-30.8h7.5v7.7h-7.5zm0 15.4h7.5v7.7h-7.5zm0 15.4h7.5v7.7h-7.5zm21.5-7.7h7.5v7.7h-7.5zm8.5 7.7h7.5v7.7h-7.5zm-7.5-23.1h7.5v7.7h-7.5zm7.5 7.7h7.5v7.7h-7.5zm7.7 7.7h7.5v7.7h-7.5zm-30.2 15.4h7.5v7.7h-7.5zm15 0h7.5v7.7h-7.5zm15.2 0h7.5v7.7h-7.5zm7.5-7.7h7.5v7.7h-7.5zm7.5 7.7h7.5v7.7h-7.5zm0-15.4h7.5v7.7h-7.5zm-7.5-7.7h7.5v7.7h-7.5zm-7.5-7.7h7.5v7.7h-7.5zm-7.7-7.7h7.5v7.7h-7.5zm-7.5-7.7h7.5v7.7h-7.5zm-7.5-7.8h7.5v7.7h-7.5zm15 0h7.5v7.7h-7.5zm7.7 7.8h7.5v7.7h-7.5zm7.5-7.8h7.5v7.7h-7.5zm7.5 7.8h7.5v7.7h-7.5zm-7.5 7.7h7.5v7.7h-7.5zm7.5 7.7h7.5v7.7h-7.5zm7.5-23.2h7.5v7.7h-7.5zm7.5 7.8h7.5v7.7h-7.5zm7.5 7.7h7.5v7.7h-7.5zm-7.5 7.7h7.5v7.7h-7.5zm7.5 7.7h7.5v7.7h-7.5zm-7.5 7.7h7.5v7.7h-7.5zm7.5 7.7h7.5v7.7h-7.5zm-15-30.8h7.5v7.7h-7.5zm0 15.4h7.5v7.7h-7.5zm0 15.4h7.5v7.7h-7.5zm21.5-7.7h7.5v7.7h-7.5zm8.5 7.7h7.5v7.7h-7.5zm-7.5-23.1h7.5v7.7h-7.5zm7.5 7.7h7.5v7.7h-7.5zm7.5 7.7h7.5v7.7h-7.5zm-30 15.4h7.5v7.7h-7.5zm15 0h7.5v7.7h-7.5zm15 0h7.5v7.7h-7.5zm7.5-7.7h7.5v7.7h-7.5zm7.7 7.7h7.5v7.7h-7.5zm0-15.4h7.5v7.7h-7.5zm-7.7-7.7h7.5v7.7h-7.5zm-7.5-7.7h7.5v7.7h-7.5zm-7.5-7.7h7.5v7.7h-7.5zm-7.5-7.7h7.5v7.7h-7.5zm-7.5-7.8h7.5v7.7h-7.5zm15 0h7.5v7.7h-7.5zm7.5 7.8h7.5v7.7h-7.5zm7.5-7.8h7.5v7.7h-7.5zm7.7 7.8h7.5v7.7h-7.5zm-7.7 7.7h7.5v7.7h-7.5zm7.7 7.7h7.5v7.7h-7.5zm7.5-23.2h7.5v7.7h-7.5zm7.5 7.8h7.5v7.7h-7.5zm7.5 7.7h7.5v7.7h-7.5zm-7.5 7.7h7.5v7.7h-7.5zm7.5 7.7h7.5v7.7h-7.5zm-7.5 7.7h7.5v7.7h-7.5zm7.5 7.7h7.5v7.7h-7.5zm-15-30.8h7.5v7.7h-7.5zm0 15.4h7.5v7.7h-7.5zm0 15.4h7.5v7.7h-7.5zm21.5-7.7h7.5v7.7h-7.5zm8.6 7.7h7.5v7.7h-7.5zm-7.6-23.1h7.5v7.7h-7.5zm7.6 7.7h7.5v7.7h-7.5zm7.4 7.7h7.5v7.7h-7.5zm-30 15.4h7.5v7.7h-7.5zm15 0h7.5v7.7h-7.5zm15 0h7.5v7.7h-7.5zm7.6-7.7h7.5v7.7h-7.5zm7.4 7.7h7.5v7.7h-7.5zm0-15.4h7.5v7.7h-7.5zm-7.4-7.7h7.5v7.7h-7.5zm-7.6-7.7h7.5v7.7h-7.5zm-7.4-7.7h7.5v7.7h-7.5zm-7.6-7.7h7.5v7.7h-7.5zm-7.5-7.8h7.5v7.7h-7.5zm15.1 0h7.5v7.7h-7.5zm7.4 7.8h7.5v7.7h-7.5zm7.6-7.8h7.5v7.7h-7.5zm7.4 7.8h7.5v7.7h-7.5zm-7.4 7.7h7.5v7.7h-7.5zm7.4 7.7h7.5v7.7h-7.5zm7.6-7.7h7.5v7.7h-7.5zm0 15.4h7.5v7.7h-7.5zm0 15.4h7.5v7.7h-7.5zm6.5-7.7h7.5v7.7h-7.5zm8.5 7.7h7.5v7.7h-7.5zm-7.5-23.1h7.5v7.7h-7.5zm7.5 7.7h7.5v7.7h-7.5zm7.5 7.7h7.5v7.7h-7.5zm-15 15.4h7.5v7.7h-7.5zm15 0h7.5v7.7h-7.5zm7.5-7.7h7.5v7.7h-7.5zm0-15.4h7.5v7.7h-7.5zm-7.5-7.7h7.5v7.7h-7.5zm-7.5-7.7h7.5v7.7h-7.5zm-7.5-7.7h7.5v7.7h-7.5zm-7.5-7.8h7.5v7.7h-7.5zm15 0h7.5v7.7h-7.5zm7.5 7.8h7.5v7.7h-7.5zm7.5-7.8h7.5v7.7h-7.5zm0 15.5h7.5v7.7h-7.5zm-315.8 46.9h7.5v7.7h-7.5zm15 0h7.5v7.7h-7.5zm15 0h7.5v7.7h-7.5zm30.2 0h7.5v7.7h-7.5zm-15 0h7.5v7.7h-7.5zm30 0h7.5v7.7h-7.5zm15 0h7.5v7.7h-7.5zm30.1 0h7.5v7.7h-7.5zm-15 0h7.5v7.7h-7.5zm30 0h7.5v7.7h-7.5zm15.2 0h7.5v7.7h-7.5zm30 0h7.5v7.7h-7.5zm-15 0h7.5v7.7h-7.5zm30 0h7.5v7.7h-7.5zm15 0h7.5v7.7h-7.5zm30.2 0h7.5v7.7h-7.5zm-15 0h7.5v7.7h-7.5zm30.1 0h7.5v7.7h-7.5zm15 0h7.5v7.7h-7.5zm15 0h7.5v7.7h-7.5zm15 0h7.5v7.7h-7.5zm15 0h7.5v7.7h-7.5z"/><path class="st41" d="M574.7 144.8l-36.9 71.7-536.6-.9v-71.5z"/><path opacity=".8" fill="#1E1E1C" enable-background="new" d="M0 215.7h872v72h-872z"/><path class="st12" d="M548.7 247.8h7.5v7.7h-7.5zm0 15.5h7.5v7.7h-7.5zm7.5-7.7h7.5v7.7h-7.5zm7.5 7.7h7.5v7.7h-7.5zm-7.5-23.2h7.5v7.7h-7.5zm7.5 7.7h7.5v7.7h-7.5zm7.5 7.8h7.5v7.7h-7.5zm-30.1 15.4h7.5v7.7h-7.5zm15.1 0h7.5v7.7h-7.5zm15 0h7.5v7.7h-7.5zm7.5-7.7h7.5v7.7h-7.5zm7.6 7.7h7.5v7.7h-7.5zm0-15.4h7.5v7.7h-7.5zm-7.6-7.8h7.5v7.7h-7.5zm-7.5-7.7h7.5v7.7h-7.5zm-7.5-7.7h7.5v7.7h-7.5zm1.2-15.4h7.5v7.7h-7.5zm6.3 7.7h7.5v7.7h-7.5zm8.7-7.7h7.5v7.7h-7.5zm6.4 7.7h7.5v7.7h-7.5zm-7.6 7.7h7.5v7.7h-7.5zm7.6 7.7h7.5v7.7h-7.5zm8.8-23.1h7.5v7.7h-7.5zm6.2 7.7h7.5v7.7h-7.5zm7.5 7.7h7.5v7.7h-7.5zm-7.5 7.7h7.5v7.7h-7.5zm7.5 7.7h7.5v7.7h-7.5zm-7.5 7.8h7.5v7.7h-7.5zm7.5 7.7h7.5v7.7h-7.5zm-15-30.9h7.5v7.7h-7.5zm0 15.4h7.5v7.7h-7.5zm0 15.5h7.5v7.7h-7.5zm22.6-7.7h7.5v7.7h-7.5zm7.5 7.7h7.5v7.7h-7.5zm-7.5-23.2h7.5v7.7h-7.5zm7.5 7.7h7.5v7.7h-7.5zm7.5 7.8h7.5v7.7h-7.5zm-30.1 15.4h7.5v7.7h-7.5zm15.1 0h7.5v7.7h-7.5zm15 0h7.5v7.7h-7.5zm7.5-7.7h7.5v7.7h-7.5zm7.5 7.7h7.5v7.7h-7.5zm0-15.4h7.5v7.7h-7.5zm-7.5-7.8h7.5v7.7h-7.5zm-7.5-7.7h7.5v7.7h-7.5zm-7.5-7.7h7.5v7.7h-7.5zm-7.5-7.7h7.5v7.7h-7.5zm-6.3-7.7h7.5v7.7h-7.5zm15.1 0h7.5v7.7h-7.5zm6.2 7.7h7.5v7.7h-7.5zm8.8-7.7h7.5v7.7h-7.5zm6.2 7.7h7.5v7.7h-7.5zm-7.5 7.7h7.5v7.7h-7.5zm7.5 7.7h7.5v7.7h-7.5zm8.8-23.1h7.5v7.7h-7.5zm6.3 7.7h7.5v7.7h-7.5zm7.5 7.7h7.5v7.7h-7.5zm-7.5 7.7h7.5v7.7h-7.5zm7.5 7.7h7.5v7.7h-7.5zm-7.5 7.8h7.5v7.7h-7.5zm7.5 7.7h7.5v7.7h-7.5zm-15-30.9h7.5v7.7h-7.5zm0 15.4h7.5v7.7h-7.5zm0 15.5h7.5v7.7h-7.5zm22.5-7.7h7.5v7.7h-7.5zm7.5 7.7h7.5v7.7h-7.5zm-7.5-23.2h7.5v7.7h-7.5zm7.5 7.7h7.5v7.7h-7.5zm7.6 7.8h7.5v7.7h-7.5zm-30.1 15.4h7.5v7.7h-7.5zm15 0h7.5v7.7h-7.5zm15.1 0h7.5v7.7h-7.5zm7.5-7.7h7.5v7.7h-7.5zm7.5 7.7h7.5v7.7h-7.5zm0-15.4h7.5v7.7h-7.5zm-7.5-7.8h7.5v7.7h-7.5zm-7.5-7.7h7.5v7.7h-7.5zm-7.6-7.7h7.5v7.7h-7.5zm-7.5-7.7h7.5v7.7h-7.5zm-6.3-7.7h7.5v7.7h-7.5zm15 0h7.5v7.7h-7.5zm6.4 7.7h7.5v7.7h-7.5zm8.7-7.7h7.5v7.7h-7.5zm6.3 7.7h7.5v7.7h-7.5zm-7.5 7.7h7.5v7.7h-7.5zm7.5 7.7h7.5v7.7h-7.5zm8.7-23.1h7.5v7.7h-7.5zm6.3 7.7h7.5v7.7h-7.5zm7.6 7.7h7.5v7.7h-7.5zm-7.6 7.7h7.5v7.7h-7.5zm7.6 7.7h7.5v7.7h-7.5zm-7.6 7.8h7.5v7.7h-7.5zm7.6 7.7h7.5v7.7h-7.5zm-15.1-30.9h7.5v7.7h-7.5zm0 15.4h7.5v7.7h-7.5zm0 15.5h7.5v7.7h-7.5zm22.6-7.7h7.5v7.7h-7.5zm7.5 7.7h7.5v7.7h-7.5zm-7.5-23.2h7.5v7.7h-7.5zm7.5 7.7h7.5v7.7h-7.5zm7.5 7.8h7.5v7.7h-7.5zm-30.1 15.4h7.5v7.7h-7.5zm15.1 0h7.5v7.7h-7.5zm15 0h7.5v7.7h-7.5zm7.5-7.7h7.5v7.7h-7.5zm7.6 7.7h7.5v7.7h-7.5zm0-15.4h7.5v7.7h-7.5zm-7.6-7.8h7.5v7.7h-7.5zm-7.5-7.7h7.5v7.7h-7.5zm-7.5-7.7h7.5v7.7h-7.5zm-7.5-7.7h7.5v7.7h-7.5zm-6.3-7.7h7.5v7.7h-7.5zm15 0h7.5v7.7h-7.5zm6.3 7.7h7.5v7.7h-7.5zm8.7-7.7h7.5v7.7h-7.5zm6.4 7.7h7.5v7.7h-7.5zm-7.6 7.7h7.5v7.7h-7.5zm7.6 7.7h7.5v7.7h-7.5zm8.8-23.1h7.5v7.7h-7.5zm6.2 7.7h7.5v7.7h-7.5zm7.5 7.7h7.5v7.7h-7.5zm-7.5 7.7h7.5v7.7h-7.5zm7.5 7.7h7.5v7.7h-7.5zm-7.5 7.8h7.5v7.7h-7.5zm7.5 7.7h7.5v7.7h-7.5zm-15-30.9h7.5v7.7h-7.5zm0 15.4h7.5v7.7h-7.5zm0 15.5h7.5v7.7h-7.5zm22.5-7.7h7.5v7.7h-7.5zm7.6 7.7h7.5v7.7h-7.5zm-7.6-23.2h7.5v7.7h-7.5zm7.6 7.7h7.5v7.7h-7.5zm7.5 7.8h7.5v7.7h-7.5zm-30.1 15.4h7.5v7.7h-7.5zm15 0h7.5v7.7h-7.5zm15.1 0h7.5v7.7h-7.5zm7.5-7.7h7.5v7.7h-7.5zm7.5 7.7h7.5v7.7h-7.5zm0-15.4h7.5v7.7h-7.5zm-7.5-7.8h7.5v7.7h-7.5zm-7.5-7.7h7.5v7.7h-7.5zm-7.5-7.7h7.5v7.7h-7.5zm-7.6-7.7h7.5v7.7h-7.5zm-6.2-7.7h7.5v7.7h-7.5zm15.1 0h7.5v7.7h-7.5zm6.2 7.7h7.5v7.7h-7.5zm8.8-7.7h7.5v7.7h-7.5zm6.2 7.7h7.5v7.7h-7.5zm-7.5 7.7h7.5v7.7h-7.5zm7.5 7.7h7.5v7.7h-7.5zm7.5-7.7h7.5v7.7h-7.5zm0 15.4h7.5v7.7h-7.5zm0 15.5h7.5v7.7h-7.5zm7.6-7.7h7.5v7.7h-7.5zm7.5 7.7h7.5v7.7h-7.5zm-7.5-23.2h7.5v7.7h-7.5zm7.5 7.7h7.5v7.7h-7.5zm7.5 7.8h7.5v7.7h-7.5zm-15 15.4h7.5v7.7h-7.5zm15 0h7.5v7.7h-7.5zm7.5-7.7h7.5v7.7h-7.5zm0-15.5h7.5v7.7h-7.5zm-7.5-7.7h7.5v7.7h-7.5zm-7.5-7.7h7.5v7.7h-7.5zm-7.5-7.7h7.5v7.7h-7.5zm-6.3-7.7h7.5v7.7h-7.5zm15.1 0h7.5v7.7h-7.5zm6.2 7.7h7.5v7.7h-7.5zm8.8-7.7h7.5v7.7h-7.5zm-1.3 15.4h7.5v7.7h-7.5zm-315.8 46.3h7.5v7.7h-7.5zm15 0h7.5v7.7h-7.5zm15 0h7.5v7.7h-7.5zm30.1 0h7.5v7.7h-7.5zm-15 0h7.5v7.7h-7.5zm30.1 0h7.5v7.7h-7.5zm15 0h7.5v7.7h-7.5zm30.1 0h7.5v7.7h-7.5zm-15 0h7.5v7.7h-7.5zm30 0h7.5v7.7h-7.5zm15.1 0h7.5v7.7h-7.5zm30.1 0h7.5v7.7h-7.5zm-15.1 0h7.5v7.7h-7.5zm30.1 0h7.5v7.7h-7.5zm15 0h7.5v7.7h-7.5zm30.1 0h7.5v7.7h-7.5zm-15 0h7.5v7.7h-7.5zm30.1 0h7.5v7.7h-7.5zm15 0h7.5v7.7h-7.5zm15 0h7.5v7.7h-7.5zm15.1 0h7.5v7.7h-7.5zm15 0h7.5v7.7h-7.5z"/><path class="st18" d="M575.3 215.7l-36.8 72-538.5-.2.1-71.6z"/><path class="st15" d="M0 287.7h872v72h-872z"/><path class="st40" d="M820.262 304.795l-2.9-.014.014-3 2.9.015zm-12.48 25.22l-2.9-.013.014-3 2.9.013zm-7.08-15.36l-2.9-.014.014-3 2.9.015zm61.961 9.14l-2.9-.014.014-3 2.9.015zm-20.42 6.381l-2.9-.016.016-3 2.9.016zm-117.151 12.05l-3-.014.013-3 3 .014zm37.588-13.732l-2.9-.014.015-3 2.9.014zm-17.828-7.94l-3-.014.014-3 3 .014zm29.868-25.54l-2.9-.012.014-3 2.9.012zm-83.25 11.281l-3-.014.015-3 3 .015zm-68.11 26.74l-2.9-.014.014-3 2.9.015zm-12.54-34.7l-2.9-.015.015-3 2.9.015zm-34.16 40.97l-2.9-.014.013-3 2.9.015zm-13.35-17.29l-3-.014.014-3 3 .015zm92.11-23.68l-2.9-.015.014-3 2.9.015zm50.25 53.63l-3-.014.014-3 3 .015z"/><path class="st22" d="M548.6 332.5l50.5-4 21.3-25.2 49.1 6.5 19.6-21.8m-68.7 71l32-31.9 89 2.9 19.3 13.6 38.5-55.6m72.8 63.9l-39-46.3-15.1 40.4-39.2-2.4-11 15.4"/><path class="st41" d="M572.5 287.7l-36.7 71.8-534.8.2v-72z"/><path class="st16" d="M729.7 289.4"/><path class="st40" d="M660.18 342.265l-2.9-.016.017-3 2.9.015zm51.06-42.431l-2.9-.012.013-3 2.9.012z"/><path class="st5" d="M0 359.7h872v72h-872z"/><path class="st25" d="M817.416 373.897l2.9.014-.014 3-2.9-.013zm-12.6 25.201l2.9.013-.014 3-2.9-.012zm-7-15.401l2.9.014-.014 3-2.9-.013zm62.001 9.2l2.9.014-.014 3-2.9-.013zm-20.497 6.301l3 .015-.016 3-3-.015zm-117.206 12.099l3 .014-.013 3-3-.013zm37.602-13.699l2.9.013-.015 3-2.9-.012zm-17.8-8.001l3 .015-.014 3-3-.015zm29.8-25.5l2.9.014-.015 3-2.9-.013zm-83.202 11.3l3 .014-.014 3-3-.013zm-68.101 26.7l3 .014-.013 3-3-.013zm-12.596-34.7l2.9.016-.016 3-2.9-.016zm-34.105 40.901l2.9.012-.013 3-2.9-.012zm-13.297-17.3l3 .015-.015 3-3-.015zm91.999-23.601l2.9.014-.014 3-2.9-.013zm51.6 53.601l3 .013-.014 3-3-.012z"/><path class="st2" d="M548.6 404.5l50.5-4 21.3-25.2 49.1 6.5 19.6-21.8m-68.7 71l32-31.9 89 3 19.3 13.5 38.5-55.6m72.8 64l-39-46.4-15.2 40.4-39.1-2.4-11 15.4"/><path class="st18" d="M573.5 359.7l-35.8 71.8-537.4.2.1-72z"/><path class="st25" d="M657.217 411.298l3 .015-.016 3-3-.015zm51.098-42.401l2.9.014-.014 3-2.9-.013z"/><path class="st15" d="M.6 432.3h872v72h-872z"/><g class="st7"><path class="st40" d="M819.315 447.298l2.9.013-.014 3-2.9-.012zm-12.602 25.1l2.9.012-.012 3-2.9-.012zm-6.999-15.3l2.9.013-.013 3-2.9-.012zm61.999 9.2l2.9.012-.012 3-2.9-.012zm-20.593 6.202l3 .014-.016 3-3-.015zm-117.206 12.198l3 .014-.013 3-3-.014zm37.702-13.8l2.9.014-.014 3-2.9-.014zm-17.802-7.9l3 .014-.013 3-3-.014zm29.802-25.5l2.9.013-.014 3-2.9-.012zm-69.001 56.902l2.9.012-.014 3-2.9-.013z"/><path class="st22" d="M701.2 474.1l42 1.4 19.3 13.5 38.6-55.6m72.8 64l-39.1-46.4-15.1 40.4-39.1-2.4-11.1 15.4"/><path class="st16" d="M731.6 434.8"/></g><path fill="#F2EEE7" d="M725.3 432.4l-37.3 71.7-150.3-.8v-71.6z"/><path class="st29" d="M555.3 464.1h7.5v7.7h-7.5zm0 15.5h7.5v7.7h-7.5zm-7.6-7.7h7.5v7.7h-7.5zm15.1 0h7.5v7.7h-7.5zm7.6 7.7h7.5v7.7h-7.5zm-7.6-23.2h7.5v7.7h-7.5zm0-15.4h7.5v7.7h-7.5zm7.6 23.1h7.5v7.7h-7.5zm7.5 7.8h7.5v7.7h-7.5zm-30.1 15.4h7.5v7.7h-7.5zm-7.6-7.6h7.5v7.7h-7.5zm.1 16h7.5v7.7h-7.5zm22.5-8.4h7.5v7.7h-7.5zm15.1 0h7.5v7.7h-7.5zm7.5-7.7h7.5v7.7h-7.5zm7.5 7.7h7.5v7.7h-7.5zm0-15.4h7.5v7.7h-7.5zm-7.5-7.8h7.5v7.7h-7.5zm-7.5-7.7h7.5v7.7h-7.5zm-7.5-7.7h7.5v7.7h-7.5zm7.5-7.7h7.5v7.7h-7.5zm-7.5-7.7h7.5v7.7h-7.5zm15 0h7.5v7.7h-7.5zm7.5 7.7h7.5v7.7h-7.5zm-7.5 7.7h7.5v7.7h-7.5zm7.5 7.7h7.5v7.7h-7.5zm7.5-23.1h7.5v7.7h-7.5zm7.6 7.7h7.5v7.7h-7.5zm7.5 7.7h7.5v7.7h-7.5zm-7.5 7.7h7.5v7.7h-7.5zm7.5 7.7h7.5v7.7h-7.5zm-7.5 7.8h7.5v7.7h-7.5zm7.5 7.7h7.5v7.7h-7.5zm-15.1-30.9h7.5v7.7h-7.5zm0 15.4h7.5v7.7h-7.5zm0 15.5h7.5v7.7h-7.5zm22.6-7.7h7.5v7.7h-7.5zm7.5 7.7h7.5v7.7h-7.5zm-7.5-23.2h7.5v7.7h-7.5zm7.5 7.7h7.5v7.7h-7.5zm7.5 7.8h7.5v7.7h-7.5zm-30 15.4h7.5v7.7h-7.5zm15 0h7.5v7.7h-7.5zm15 0h7.5v7.7h-7.5zm7.6-7.7h7.5v7.7h-7.5zm7.5 7.7h7.5v7.7h-7.5zm0-15.4h7.5v7.7h-7.5zm-7.5-7.8h7.5v7.7h-7.5zm-7.6-7.7h7.5v7.7h-7.5zm-7.5-7.7h7.5v7.7h-7.5zm-7.5-7.7h7.5v7.7h-7.5zm-7.5-7.7h7.5v7.7h-7.5zm15 0h7.5v7.7h-7.5zm7.5 7.7h7.5v7.7h-7.5zm7.6-7.7h7.5v7.7h-7.5zm7.5 7.7h7.5v7.7h-7.5zm-7.5 7.7h7.5v7.7h-7.5zm7.5 7.7h7.5v7.7h-7.5zm7.5-23.1h7.5v7.7h-7.5zm7.5 7.7h7.5v7.7h-7.5zm7.5 7.7h7.5v7.7h-7.5zm-7.5 7.7h7.5v7.7h-7.5zm7.5 7.7h7.5v7.7h-7.5zm-7.5 7.8h7.5v7.7h-7.5zm7.5 7.7h7.5v7.7h-7.5zm-15-30.9h7.5v7.7h-7.5zm0 15.4h7.5v7.7h-7.5zm0 15.5h7.5v7.7h-7.5zm22.6-7.7h7.5v7.7h-7.5zm0-15.5h7.5v7.7h-7.5zm7.5 7.7h7.5v7.7h-7.5zm-22.6 23.2h7.5v7.7h-7.5zm15.1 0h7.5v7.7h-7.5zm15-30.9h7.5v7.7h-7.5zm-7.5-7.7h7.5v7.7h-7.5zm-7.5-7.7h7.5v7.7h-7.5zm-7.6-7.7h7.5v7.7h-7.5zm15.1 0h7.5v7.7h-7.5zm7.5 7.7h7.5v7.7h-7.5zm7.5-7.7h7.5v7.7h-7.5zm0 15.4h7.5v7.7h-7.5zm-150.4 47h7.5v7.7h-7.5zm15.1 0h7.5v7.7h-7.5zm15 0h7.5v7.7h-7.5zm30.1 0h7.5v7.7h-7.5zm-15.1 0h7.5v7.7h-7.5zm30.1 0h7.5v7.7h-7.5zm15.1 0h7.5v7.7h-7.5zm30 0h7.5v7.7h-7.5zm-15 0h7.5v7.7h-7.5zm30.1-16.3v7.7h5.8l1.7-3.4v-4.3zm7.5-7.5v7.7h2.1l4-7.7zm14.8-30.9v7.7h3.2l3.9-7.7zm7.1-7.7v6.9l3.6-6.9z"/><path class="st1" d="M690.7 495.7v3.1l1.6-3.1zm0 7.7h7.5z" opacity=".1"/><g class="st37"><path class="st1" d="M707.5 464h-1.7v3.3z"/><path fill="#3D3D3C" d="M705.8 464.2h2l-2 3.3z"/></g><g class="st37"><path class="st1" d="M692.2 495h-1.7v3.3z"/><path fill="#3D3D3C" d="M690.5 495.1h2l-2 3.3z"/></g><path fill="#DEDBD6" stroke="#D5D5D3" stroke-miterlimit="10" d="M574.9 432.4l-36.8 71.7-536.6-.8v-71.6z"/><path class="st5" d="M.6 505h872v72h-872z"/><g class="st7"><path class="st25" d="M822.1 523.003l-2.9-.014.015-3 2.9.013zm-12.5 25.102l-2.9-.012.013-3 2.9.012zm-7.098-15.302l-2.9-.014.014-3 2.9.013zm61.998 9.2l-2.9-.014.016-3 2.9.013zm-20.395 6.3l-2.9-.015.015-3 2.9.015zm-117.105 12.101l-3-.014.015-3 3 .014zm37.5-13.701l-2.9-.013.015-3 2.9.013zm-17.7-7.999l-3-.014.014-3 3 .014zm29.7-25.501l-2.9-.013.013-3 2.9.013zm-68.9 56.902l-3-.014.014-3 3 .015z"/><path class="st2" d="M654.3 545.3l89 2.9 19.2 13.5 38.6-55.6m72.8 64l-39.1-46.4-15.1 40.4-39.1-2.4-11.1 15.4"/><path class="st25" d="M731.6 507.5"/><path class="st25" d="M713.1 518.003l-2.9-.014.014-3 2.9.013z"/></g><path class="st5" d="M718.5 505.1l-36.8 71.7h-149.2v-71.6z"/><path class="st33" d="M549.3 536.8h7.5v7.7h-7.5zm0 15.5h7.5v7.7h-7.5zm7.5-7.7h7.5v7.7h-7.5zm7.5 7.7h7.5v7.7h-7.5zm-7.5-23.2h7.5v7.7h-7.5zm7.5 7.7h7.5v7.7h-7.5zm7.5 7.8h7.5v7.7h-7.5zm-30.1 15.4h7.5v7.7h-7.5zm-7.5 8.4h7.5v7.7h-7.5zm22.6-8.4h7.5v7.7h-7.5zm15 0h7.5v7.7h-7.5zm7.5-7.7h7.5v7.7h-7.5zm7.6 7.7h7.5v7.7h-7.5zm0-15.4h7.5v7.7h-7.5zm-7.6-7.8h7.5v7.7h-7.5zm-7.5-7.7h7.5v7.7h-7.5zm-7.5-7.7h7.5v7.7h-7.5zm7.5-7.7h7.5v7.7h-7.5zm7.5-7.7h7.5v7.7h-7.5zm7.6 7.7h7.5v7.7h-7.5zm-7.6 7.7h7.5v7.7h-7.5zm7.6 7.7h7.5v7.7h-7.5zm7.5-23.1h7.5v7.7h-7.5zm7.5 7.7h7.5v7.7h-7.5zm7.5 7.7h7.5v7.7h-7.5zm-7.5 7.7h7.5v7.7h-7.5zm7.5 7.7h7.5v7.7h-7.5zm-7.5 7.8h7.5v7.7h-7.5zm7.5 7.7h7.5v7.7h-7.5zm-15-30.9h7.5v7.7h-7.5zm0 15.4h7.5v7.7h-7.5zm0 15.5h7.5v7.7h-7.5zm22.6-7.7h7.5v7.7h-7.5zm7.5 7.7h7.5v7.7h-7.5zm-7.5-23.2h7.5v7.7h-7.5zm7.5 7.7h7.5v7.7h-7.5zm7.5 7.8h7.5v7.7h-7.5zm-30.1 15.4h7.5v7.7h-7.5zm15.1 0h7.5v7.7h-7.5zm15 0h7.5v7.7h-7.5zm7.5-7.7h7.5v7.7h-7.5zm7.5 7.7h7.5v7.7h-7.5zm0-15.4h7.5v7.7h-7.5zm-7.5-7.8h7.5v7.7h-7.5zm-7.5-7.7h7.5v7.7h-7.5zm-7.5-7.7h7.5v7.7h-7.5zm-7.5-7.7h7.5v7.7h-7.5zm-7.6-7.7h7.5v7.7h-7.5zm15.1 0h7.5v7.7h-7.5zm7.5 7.7h7.5v7.7h-7.5zm7.5-7.7h7.5v7.7h-7.5zm7.5 7.7h7.5v7.7h-7.5zm-7.5 7.7h7.5v7.7h-7.5zm7.5 7.7h7.5v7.7h-7.5zm7.6-23.1h7.5v7.7h-7.5zm7.5 7.7h7.5v7.7h-7.5zm7.5 7.7h7.5v7.7h-7.5zm-7.5 7.7h7.5v7.7h-7.5zm7.5 7.7h7.5v7.7h-7.5zm-7.5 7.8h7.5v7.7h-7.5zm7.5 7.7h7.5v7.7h-7.5zm-15-30.9h7.5v7.7h-7.5zm0 15.4h7.5v7.7h-7.5zm0 15.5h7.5v7.7h-7.5zm22.5-7.7h7.5v7.7h-7.5zm0-15.5h7.5v7.7h-7.5zm7.5 7.7h7.5v7.7h-7.5zm-22.5 23.2h7.5v7.7h-7.5zm15 0h7.5v7.7h-7.5zm15.1-30.9h7.5v7.7h-7.5zm-7.6-7.7h7.5v7.7h-7.5zm-7.5-7.7h7.5v7.7h-7.5zm-7.5-7.7h7.5v7.7h-7.5zm15 0h7.5v7.7h-7.5zm7.6 7.7h7.5v7.7h-7.5zm7.5-7.7h7.5v7.7h-7.5zm0 15.4h7.5v7.7h-7.5zm-150.4 47h7.5v7.7h-7.5zm15 0h7.5v7.7h-7.5zm15 0h7.5v7.7h-7.5zm30.1 0h7.5v7.7h-7.5zm-15 0h7.5v7.7h-7.5zm30.1 0h7.5v7.7h-7.5zm15 0h7.5v7.7h-7.5zm30.1 0h7.5v7.7h-7.5zm-15 0h7.5v7.7h-7.5zm30-16.3v7.7h5.8l1.8-3.4v-4.3zm7.6-7.5v7.7h2.1l3.9-7.7zm14.7-30.9v7.7h3.2l4-7.7zm7.2-7.7v6.9l3.6-6.9z"/><g class="st10"><path class="st38" d="M701.5 536.7h-1.8v3.3z"/><path class="st12" d="M699.7 536.9h2l-2 3.3z"/></g><g class="st10"><path class="st38" d="M686.2 567.7h-1.8v3.3z"/><path class="st12" d="M684.4 567.8h2.1l-2.1 3.3z"/></g><path class="st17" d="M574.9 505.1l-36.8 71.7-536.6-.8v-71.6z"/></svg>