<?xml version="1.0" encoding="utf-8"?>
<!-- Generator: Adobe Illustrator 15.1.0, SVG Export Plug-In . SVG Version: 6.00 Build 0)  -->
<!DOCTYPE svg PUBLIC "-//W3C//DTD SVG 1.1//EN" "http://www.w3.org/Graphics/SVG/1.1/DTD/svg11.dtd">
<svg version="1.1" id="Calque_1" xmlns="http://www.w3.org/2000/svg" xmlns:xlink="http://www.w3.org/1999/xlink" x="0px" y="0px"
	 width="872px" height="72px" viewBox="0 0 872 72" enable-background="new 0 0 872 72" xml:space="preserve">
<rect x="0.591" fill="#4E4D4D" width="872" height="72"/>
<polygon opacity="0.75" fill="#5D5D5C" enable-background="new    " points="567.396,0.05 528.5,71.68 0.362,71.68 0.376,0.05 "/>
<g>
	
		<polyline opacity="0.96" fill="#FFFFFF" stroke="#CFCFCF" stroke-width="2" stroke-miterlimit="10" enable-background="new    " points="
		596.99,72 589.74,18.495 674.016,5.497 699.505,26.584 704.24,72 	"/>
	<line fill="none" stroke="#CFCFCF" stroke-width="2" stroke-miterlimit="10" x1="591.557" y1="31.25" x2="686.195" y2="16.491"/>
	<line fill="none" stroke="#E6E6E6" stroke-width="2" stroke-miterlimit="10" x1="592.768" y1="21.404" x2="627.538" y2="15.981"/>
	<line fill="none" stroke="#E6E6E6" stroke-width="2" stroke-miterlimit="10" x1="593.417" y1="24.694" x2="603.986" y2="23.046"/>
	<line fill="none" stroke="#E6E6E6" stroke-width="2" stroke-miterlimit="10" x1="594.647" y1="34.137" x2="608.351" y2="32"/>
	<line fill="none" stroke="#E6E6E6" stroke-width="2" stroke-miterlimit="10" x1="595.16" y1="38.32" x2="605.729" y2="36.672"/>
	<line fill="none" stroke="#E6E6E6" stroke-width="2" stroke-miterlimit="10" x1="595.647" y1="41.279" x2="614.613" y2="38.32"/>
	<line fill="none" stroke="#E6E6E6" stroke-width="2" stroke-miterlimit="10" x1="598.295" y1="58.348" x2="628.312" y2="53.666"/>
	<line fill="none" stroke="#E6E6E6" stroke-width="2" stroke-miterlimit="10" x1="599.033" y1="69.51" x2="611.141" y2="67.621"/>
	<line fill="none" stroke="#E6E6E6" stroke-width="2" stroke-miterlimit="10" x1="624.828" y1="70.455" x2="645.166" y2="67.281"/>
	<line fill="none" stroke="#E6E6E6" stroke-width="2" stroke-miterlimit="10" x1="650.386" y1="66.539" x2="670.724" y2="63.365"/>
	<line fill="none" stroke="#E6E6E6" stroke-width="2" stroke-miterlimit="10" x1="673.938" y1="62.789" x2="683.317" y2="61.463"/>
	<line fill="none" stroke="#E6E6E6" stroke-width="2" stroke-miterlimit="10" x1="674.548" y1="66.279" x2="695.149" y2="63.365"/>
	<line fill="none" stroke="#E6E6E6" stroke-width="2" stroke-miterlimit="10" x1="675.166" y1="69.215" x2="695.877" y2="66.285"/>
	<line fill="none" stroke="#E6E6E6" stroke-width="2" stroke-miterlimit="10" x1="684.645" y1="71.195" x2="696.557" y2="69.51"/>
	<line fill="none" stroke="#E6E6E6" stroke-width="2" stroke-miterlimit="10" x1="650.979" y1="69.711" x2="671.317" y2="66.539"/>
	<line fill="none" stroke="#E6E6E6" stroke-width="2" stroke-miterlimit="10" x1="662.736" y1="71.078" x2="671.775" y2="69.668"/>
	<line fill="none" stroke="#E6E6E6" stroke-width="2" stroke-miterlimit="10" x1="596.215" y1="44.277" x2="609.634" y2="42.186"/>
	<line fill="none" stroke="#E6E6E6" stroke-width="2" stroke-miterlimit="10" x1="596.733" y1="47.215" x2="608.514" y2="45.377"/>
	<line fill="none" stroke="#E6E6E6" stroke-width="2" stroke-miterlimit="10" x1="597.277" y1="49.859" x2="607.141" y2="48.322"/>
	<line fill="none" stroke="#E6E6E6" stroke-width="2" stroke-miterlimit="10" x1="599.033" y1="62.855" x2="603.965" y2="62.088"/>
	<line fill="none" stroke="#E6E6E6" stroke-width="2" stroke-miterlimit="10" x1="645.166" y1="30.918" x2="661.975" y2="28.297"/>
	<line fill="none" stroke="#E6E6E6" stroke-width="2" stroke-miterlimit="10" x1="645.654" y1="33.876" x2="664.619" y2="30.918"/>
	<line fill="none" stroke="#E6E6E6" stroke-width="2" stroke-miterlimit="10" x1="646.222" y1="36.875" x2="659.641" y2="34.783"/>
	<line fill="none" stroke="#E6E6E6" stroke-width="2" stroke-miterlimit="10" x1="646.74" y1="39.812" x2="675.558" y2="35.318"/>
	<line fill="none" stroke="#E6E6E6" stroke-width="2" stroke-miterlimit="10" x1="647.285" y1="42.457" x2="663.391" y2="39.945"/>
	<line fill="none" stroke="#E6E6E6" stroke-width="2" stroke-miterlimit="10" x1="597.871" y1="52.559" x2="615.181" y2="49.859"/>
	<line fill="none" stroke="#E6E6E6" stroke-width="2" stroke-miterlimit="10" x1="593.825" y1="27.678" x2="615.725" y2="24.262"/>
	<line fill="none" stroke="#E6E6E6" stroke-width="2" stroke-miterlimit="10" x1="645.166" y1="19.786" x2="669.558" y2="15.981"/>
	<line fill="none" stroke="#CFCFCF" stroke-width="2" stroke-miterlimit="10" x1="594.647" y1="55.832" x2="700.81" y2="39.275"/>
	<line fill="none" stroke="#CFCFCF" stroke-width="2" stroke-miterlimit="10" x1="595.647" y1="67.17" x2="701.81" y2="50.613"/>
	<g>
		<polygon fill="#CFCFCF" points="700.802,26.225 674.548,4.648 673.938,6.5 676.557,30.125 698.432,27.125 		"/>
	</g>
</g>
<g opacity="0.29">
	<path fill="#3C3C3B" d="M855.766,47.594c-0.938,7.854-8.055,13.518-15.918,12.574c-7.869-0.922-13.498-8.078-12.562-15.975
		c0.93-7.883,8.057-13.521,15.926-12.596C851.08,32.542,856.705,39.689,855.766,47.594z"/>
	<path fill="#3C3C3B" d="M826.182,24.646l-3.969-6.875c-15.115,8.779-20.291,28.172-11.58,43.351l6.854-3.979
		C810.965,45.764,814.848,31.227,826.182,24.646z"/>
	<path opacity="0.75" fill="#3C3C3B" enable-background="new    " d="M808.559,8.307l-3.967-6.875
		c-22.688,13.176-30.444,42.287-17.354,65.056l6.854-3.979C783.189,43.537,789.656,19.281,808.559,8.307z"/>
	<path opacity="0.07" fill="#3C3C3B" enable-background="new    " d="M692.139,72.002c-12.188-22.732-13.336-49.021-4.696-72h-8.431
		c-7.875,23.12-6.811,49.021,4.232,72H692.139z"/>
	<path opacity="0.15" fill="#3C3C3B" enable-background="new    " d="M720.088,70.582c-10.33-23.014-9.887-48.63-0.342-70.58h-8.582
		c-8.707,22.178-9.062,47.441,0.309,70.58H720.088z"/>
	<path opacity="0.25" fill="#3C3C3B" enable-background="new    " d="M746.121,70.582c-12.023-22.961-10.322-49.765,2.492-70.58
		h-9.131c-11.402,21.331-12.822,47.448-2.187,70.58H746.121z"/>
	<path opacity="0.5" fill="#3C3C3B" enable-background="new    " d="M765.609,70.829l5.121-2.976
		c-13.007-22.602-8.371-50.562,9.614-67.854h-11.17c-15.771,19.613-18.998,47.55-6.229,70.827L765.609,70.829L765.609,70.829z"/>
</g>
</svg>
