<?xml version="1.0" encoding="utf-8"?>
<!-- Generator: Adobe Illustrator 15.1.0, SVG Export Plug-In . SVG Version: 6.00 Build 0)  -->
<!DOCTYPE svg PUBLIC "-//W3C//DTD SVG 1.1//EN" "http://www.w3.org/Graphics/SVG/1.1/DTD/svg11.dtd">
<svg version="1.1" id="Calque_1" xmlns="http://www.w3.org/2000/svg" xmlns:xlink="http://www.w3.org/1999/xlink" x="0px" y="0px"
	 width="872px" height="72px" viewBox="0 0 872 72" enable-background="new 0 0 872 72" xml:space="preserve">
<rect x="0.591" fill="#EECDAE" width="872" height="72"/>
<rect x="473.425" y="0.777" opacity="0.1" fill="#3D3D3C" enable-background="new    " width="7.521" height="7.714"/>
<rect x="480.943" y="8.491" opacity="0.1" fill="#3D3D3C" enable-background="new    " width="7.521" height="7.715"/>
<rect x="488.465" y="16.206" opacity="0.1" fill="#3D3D3C" enable-background="new    " width="7.521" height="7.715"/>
<rect x="480.943" y="23.921" opacity="0.1" fill="#3D3D3C" enable-background="new    " width="7.521" height="7.714"/>
<rect x="488.465" y="31.635" opacity="0.1" fill="#3D3D3C" enable-background="new    " width="7.521" height="7.715"/>
<rect x="480.943" y="39.35" opacity="0.1" fill="#3D3D3C" enable-background="new    " width="7.521" height="7.715"/>
<rect x="488.465" y="47.062" opacity="0.1" fill="#3D3D3C" enable-background="new    " width="7.521" height="7.713"/>
<rect x="473.425" y="16.206" opacity="0.1" fill="#3D3D3C" enable-background="new    " width="7.521" height="7.715"/>
<rect x="473.425" y="31.635" opacity="0.1" fill="#3D3D3C" enable-background="new    " width="7.521" height="7.715"/>
<rect x="473.425" y="47.062" opacity="0.1" fill="#3D3D3C" enable-background="new    " width="7.521" height="7.713"/>
<rect x="494.981" y="39.35" opacity="0.1" fill="#3D3D3C" enable-background="new    " width="7.521" height="7.715"/>
<rect x="503.506" y="47.062" opacity="0.1" fill="#3D3D3C" enable-background="new    " width="7.521" height="7.713"/>
<rect x="495.984" y="23.921" opacity="0.1" fill="#3D3D3C" enable-background="new    " width="7.521" height="7.714"/>
<rect x="503.506" y="31.635" opacity="0.1" fill="#3D3D3C" enable-background="new    " width="7.521" height="7.715"/>
<rect x="511.025" y="39.35" opacity="0.1" fill="#3D3D3C" enable-background="new    " width="7.521" height="7.715"/>
<rect x="480.943" y="54.775" opacity="0.1" fill="#3D3D3C" enable-background="new    " width="7.521" height="7.716"/>
<rect x="495.984" y="54.775" opacity="0.1" fill="#3D3D3C" enable-background="new    " width="7.521" height="7.716"/>
<rect x="511.025" y="54.775" opacity="0.1" fill="#3D3D3C" enable-background="new    " width="7.521" height="7.716"/>
<rect x="518.546" y="47.062" opacity="0.1" fill="#3D3D3C" enable-background="new    " width="7.521" height="7.713"/>
<rect x="526.065" y="54.775" opacity="0.1" fill="#3D3D3C" enable-background="new    " width="7.521" height="7.716"/>
<rect x="526.065" y="39.35" opacity="0.1" fill="#3D3D3C" enable-background="new    " width="7.521" height="7.715"/>
<rect x="518.546" y="31.635" opacity="0.1" fill="#3D3D3C" enable-background="new    " width="7.521" height="7.715"/>
<rect x="511.025" y="23.921" opacity="0.1" fill="#3D3D3C" enable-background="new    " width="7.521" height="7.714"/>
<rect x="503.506" y="16.206" opacity="0.1" fill="#3D3D3C" enable-background="new    " width="7.521" height="7.715"/>
<rect x="495.984" y="8.491" opacity="0.1" fill="#3D3D3C" enable-background="new    " width="7.521" height="7.715"/>
<rect x="488.465" y="0.777" opacity="0.1" fill="#3D3D3C" enable-background="new    " width="7.521" height="7.714"/>
<rect x="503.506" y="0.777" opacity="0.1" fill="#3D3D3C" enable-background="new    " width="7.521" height="7.714"/>
<rect x="511.025" y="8.491" opacity="0.1" fill="#3D3D3C" enable-background="new    " width="7.521" height="7.715"/>
<rect x="518.546" y="0.777" opacity="0.1" fill="#3D3D3C" enable-background="new    " width="7.521" height="7.714"/>
<rect x="526.065" y="8.491" opacity="0.1" fill="#3D3D3C" enable-background="new    " width="7.521" height="7.715"/>
<rect x="518.546" y="16.206" opacity="0.1" fill="#3D3D3C" enable-background="new    " width="7.521" height="7.715"/>
<rect x="526.065" y="23.921" opacity="0.1" fill="#3D3D3C" enable-background="new    " width="7.521" height="7.714"/>
<rect x="533.587" y="0.777" opacity="0.1" fill="#3D3D3C" enable-background="new    " width="7.521" height="7.714"/>
<rect x="541.106" y="8.491" opacity="0.1" fill="#3D3D3C" enable-background="new    " width="7.521" height="7.715"/>
<rect x="548.627" y="16.206" opacity="0.1" fill="#3D3D3C" enable-background="new    " width="7.521" height="7.715"/>
<rect x="541.106" y="23.921" opacity="0.1" fill="#3D3D3C" enable-background="new    " width="7.521" height="7.714"/>
<rect x="548.627" y="31.635" opacity="0.1" fill="#3D3D3C" enable-background="new    " width="7.521" height="7.715"/>
<rect x="541.106" y="39.35" opacity="0.1" fill="#3D3D3C" enable-background="new    " width="7.521" height="7.715"/>
<rect x="548.627" y="47.062" opacity="0.1" fill="#3D3D3C" enable-background="new    " width="7.521" height="7.713"/>
<rect x="533.587" y="16.206" opacity="0.1" fill="#3D3D3C" enable-background="new    " width="7.521" height="7.715"/>
<rect x="533.587" y="31.635" opacity="0.1" fill="#3D3D3C" enable-background="new    " width="7.521" height="7.715"/>
<rect x="533.587" y="47.062" opacity="0.1" fill="#3D3D3C" enable-background="new    " width="7.521" height="7.713"/>
<rect x="555.146" y="39.35" opacity="0.1" fill="#3D3D3C" enable-background="new    " width="7.52" height="7.715"/>
<rect x="563.668" y="47.062" opacity="0.1" fill="#3D3D3C" enable-background="new    " width="7.521" height="7.713"/>
<rect x="556.146" y="23.921" opacity="0.1" fill="#3D3D3C" enable-background="new    " width="7.521" height="7.714"/>
<rect x="563.668" y="31.635" opacity="0.1" fill="#3D3D3C" enable-background="new    " width="7.521" height="7.715"/>
<rect x="571.188" y="39.35" opacity="0.1" fill="#3D3D3C" enable-background="new    " width="7.521" height="7.715"/>
<rect x="541.106" y="54.775" opacity="0.1" fill="#3D3D3C" enable-background="new    " width="7.521" height="7.716"/>
<rect x="488.465" y="63.167" opacity="0.1" fill="#3D3D3C" enable-background="new    " width="7.521" height="7.715"/>
<rect x="503.506" y="63.167" opacity="0.1" fill="#3D3D3C" enable-background="new    " width="7.521" height="7.715"/>
<rect x="518.546" y="63.167" opacity="0.1" fill="#3D3D3C" enable-background="new    " width="7.521" height="7.715"/>
<rect x="533.587" y="63.167" opacity="0.1" fill="#3D3D3C" enable-background="new    " width="7.521" height="7.715"/>
<rect x="556.146" y="54.775" opacity="0.1" fill="#3D3D3C" enable-background="new    " width="7.521" height="7.716"/>
<rect x="571.188" y="54.775" opacity="0.1" fill="#3D3D3C" enable-background="new    " width="7.521" height="7.716"/>
<rect x="578.709" y="47.062" opacity="0.1" fill="#3D3D3C" enable-background="new    " width="7.521" height="7.713"/>
<rect x="586.229" y="54.775" opacity="0.1" fill="#3D3D3C" enable-background="new    " width="7.521" height="7.716"/>
<rect x="586.229" y="39.35" opacity="0.1" fill="#3D3D3C" enable-background="new    " width="7.521" height="7.715"/>
<rect x="578.709" y="31.635" opacity="0.1" fill="#3D3D3C" enable-background="new    " width="7.521" height="7.715"/>
<rect x="571.188" y="23.921" opacity="0.1" fill="#3D3D3C" enable-background="new    " width="7.521" height="7.714"/>
<rect x="563.668" y="16.206" opacity="0.1" fill="#3D3D3C" enable-background="new    " width="7.521" height="7.715"/>
<rect x="556.146" y="8.491" opacity="0.1" fill="#3D3D3C" enable-background="new    " width="7.521" height="7.715"/>
<rect x="548.627" y="0.777" opacity="0.1" fill="#3D3D3C" enable-background="new    " width="7.521" height="7.714"/>
<rect x="563.668" y="0.777" opacity="0.1" fill="#3D3D3C" enable-background="new    " width="7.521" height="7.714"/>
<rect x="571.188" y="8.491" opacity="0.1" fill="#3D3D3C" enable-background="new    " width="7.521" height="7.715"/>
<rect x="578.709" y="0.777" opacity="0.1" fill="#3D3D3C" enable-background="new    " width="7.521" height="7.714"/>
<rect x="586.229" y="8.491" opacity="0.1" fill="#3D3D3C" enable-background="new    " width="7.521" height="7.715"/>
<rect x="578.709" y="16.206" opacity="0.1" fill="#3D3D3C" enable-background="new    " width="7.521" height="7.715"/>
<rect x="586.229" y="23.921" opacity="0.1" fill="#3D3D3C" enable-background="new    " width="7.521" height="7.714"/>
<rect x="593.748" y="0.777" opacity="0.1" fill="#3D3D3C" enable-background="new    " width="7.521" height="7.714"/>
<rect x="601.27" y="8.491" opacity="0.1" fill="#3D3D3C" enable-background="new    " width="7.521" height="7.715"/>
<rect x="608.789" y="16.206" opacity="0.1" fill="#3D3D3C" enable-background="new    " width="7.521" height="7.715"/>
<rect x="601.27" y="23.921" opacity="0.1" fill="#3D3D3C" enable-background="new    " width="7.521" height="7.714"/>
<rect x="608.789" y="31.635" opacity="0.1" fill="#3D3D3C" enable-background="new    " width="7.521" height="7.715"/>
<rect x="601.27" y="39.35" opacity="0.1" fill="#3D3D3C" enable-background="new    " width="7.521" height="7.715"/>
<rect x="608.789" y="47.062" opacity="0.1" fill="#3D3D3C" enable-background="new    " width="7.521" height="7.713"/>
<rect x="593.748" y="16.206" opacity="0.1" fill="#3D3D3C" enable-background="new    " width="7.521" height="7.715"/>
<rect x="593.748" y="31.635" opacity="0.1" fill="#3D3D3C" enable-background="new    " width="7.521" height="7.715"/>
<rect x="593.748" y="47.062" opacity="0.1" fill="#3D3D3C" enable-background="new    " width="7.521" height="7.713"/>
<rect x="615.308" y="39.35" opacity="0.1" fill="#3D3D3C" enable-background="new    " width="7.521" height="7.715"/>
<rect x="623.83" y="47.062" opacity="0.1" fill="#3D3D3C" enable-background="new    " width="7.521" height="7.713"/>
<rect x="616.311" y="23.921" opacity="0.1" fill="#3D3D3C" enable-background="new    " width="7.521" height="7.714"/>
<rect x="623.83" y="31.635" opacity="0.1" fill="#3D3D3C" enable-background="new    " width="7.521" height="7.715"/>
<rect x="631.352" y="39.35" opacity="0.1" fill="#3D3D3C" enable-background="new    " width="7.521" height="7.715"/>
<rect x="601.27" y="54.775" opacity="0.1" fill="#3D3D3C" enable-background="new    " width="7.521" height="7.716"/>
<rect x="616.311" y="54.775" opacity="0.1" fill="#3D3D3C" enable-background="new    " width="7.521" height="7.716"/>
<rect x="631.352" y="54.775" opacity="0.1" fill="#3D3D3C" enable-background="new    " width="7.521" height="7.716"/>
<rect x="638.87" y="47.062" opacity="0.1" fill="#3D3D3C" enable-background="new    " width="7.521" height="7.713"/>
<rect x="646.392" y="54.775" opacity="0.1" fill="#3D3D3C" enable-background="new    " width="7.521" height="7.716"/>
<rect x="646.392" y="39.35" opacity="0.1" fill="#3D3D3C" enable-background="new    " width="7.521" height="7.715"/>
<rect x="638.87" y="31.635" opacity="0.1" fill="#3D3D3C" enable-background="new    " width="7.521" height="7.715"/>
<rect x="631.352" y="23.921" opacity="0.1" fill="#3D3D3C" enable-background="new    " width="7.521" height="7.714"/>
<rect x="623.83" y="16.206" opacity="0.1" fill="#3D3D3C" enable-background="new    " width="7.521" height="7.715"/>
<rect x="616.311" y="8.491" opacity="0.1" fill="#3D3D3C" enable-background="new    " width="7.521" height="7.715"/>
<rect x="608.789" y="0.777" opacity="0.1" fill="#3D3D3C" enable-background="new    " width="7.521" height="7.714"/>
<rect x="623.83" y="0.777" opacity="0.1" fill="#3D3D3C" enable-background="new    " width="7.521" height="7.714"/>
<rect x="631.352" y="8.491" opacity="0.1" fill="#3D3D3C" enable-background="new    " width="7.521" height="7.715"/>
<rect x="638.87" y="0.777" opacity="0.1" fill="#3D3D3C" enable-background="new    " width="7.521" height="7.714"/>
<rect x="646.392" y="8.491" opacity="0.1" fill="#3D3D3C" enable-background="new    " width="7.521" height="7.715"/>
<rect x="638.87" y="16.206" opacity="0.1" fill="#3D3D3C" enable-background="new    " width="7.521" height="7.715"/>
<rect x="646.392" y="23.921" opacity="0.1" fill="#3D3D3C" enable-background="new    " width="7.521" height="7.714"/>
<rect x="653.911" y="0.777" opacity="0.1" fill="#3D3D3C" enable-background="new    " width="7.521" height="7.714"/>
<rect x="661.433" y="8.491" opacity="0.1" fill="#3D3D3C" enable-background="new    " width="7.521" height="7.715"/>
<rect x="668.952" y="16.206" opacity="0.1" fill="#3D3D3C" enable-background="new    " width="7.521" height="7.715"/>
<rect x="661.433" y="23.921" opacity="0.1" fill="#3D3D3C" enable-background="new    " width="7.521" height="7.714"/>
<rect x="668.952" y="31.635" opacity="0.1" fill="#3D3D3C" enable-background="new    " width="7.521" height="7.715"/>
<rect x="661.433" y="39.35" opacity="0.1" fill="#3D3D3C" enable-background="new    " width="7.521" height="7.715"/>
<rect x="668.952" y="47.062" opacity="0.1" fill="#3D3D3C" enable-background="new    " width="7.521" height="7.713"/>
<rect x="653.911" y="16.206" opacity="0.1" fill="#3D3D3C" enable-background="new    " width="7.521" height="7.715"/>
<rect x="653.911" y="31.635" opacity="0.1" fill="#3D3D3C" enable-background="new    " width="7.521" height="7.715"/>
<rect x="653.911" y="47.062" opacity="0.1" fill="#3D3D3C" enable-background="new    " width="7.521" height="7.713"/>
<rect x="675.471" y="39.35" opacity="0.1" fill="#3D3D3C" enable-background="new    " width="7.521" height="7.715"/>
<rect x="683.992" y="47.062" opacity="0.1" fill="#3D3D3C" enable-background="new    " width="7.521" height="7.713"/>
<rect x="676.473" y="23.921" opacity="0.1" fill="#3D3D3C" enable-background="new    " width="7.521" height="7.714"/>
<rect x="683.992" y="31.635" opacity="0.1" fill="#3D3D3C" enable-background="new    " width="7.521" height="7.715"/>
<rect x="691.514" y="39.35" opacity="0.1" fill="#3D3D3C" enable-background="new    " width="7.521" height="7.715"/>
<rect x="661.433" y="54.775" opacity="0.1" fill="#3D3D3C" enable-background="new    " width="7.521" height="7.716"/>
<rect x="676.473" y="54.775" opacity="0.1" fill="#3D3D3C" enable-background="new    " width="7.521" height="7.716"/>
<rect x="691.514" y="54.775" opacity="0.1" fill="#3D3D3C" enable-background="new    " width="7.521" height="7.716"/>
<rect x="699.033" y="47.062" opacity="0.1" fill="#3D3D3C" enable-background="new    " width="7.521" height="7.713"/>
<rect x="706.555" y="54.775" opacity="0.1" fill="#3D3D3C" enable-background="new    " width="7.521" height="7.716"/>
<rect x="706.555" y="39.35" opacity="0.1" fill="#3D3D3C" enable-background="new    " width="7.521" height="7.715"/>
<rect x="699.033" y="31.635" opacity="0.1" fill="#3D3D3C" enable-background="new    " width="7.521" height="7.715"/>
<rect x="691.514" y="23.921" opacity="0.1" fill="#3D3D3C" enable-background="new    " width="7.521" height="7.714"/>
<rect x="683.992" y="16.206" opacity="0.1" fill="#3D3D3C" enable-background="new    " width="7.521" height="7.715"/>
<rect x="676.473" y="8.491" opacity="0.1" fill="#3D3D3C" enable-background="new    " width="7.521" height="7.715"/>
<rect x="668.952" y="0.777" opacity="0.1" fill="#3D3D3C" enable-background="new    " width="7.521" height="7.714"/>
<rect x="683.992" y="0.777" opacity="0.1" fill="#3D3D3C" enable-background="new    " width="7.521" height="7.714"/>
<rect x="691.514" y="8.491" opacity="0.1" fill="#3D3D3C" enable-background="new    " width="7.521" height="7.715"/>
<rect x="699.033" y="0.777" opacity="0.1" fill="#3D3D3C" enable-background="new    " width="7.521" height="7.714"/>
<rect x="706.555" y="8.491" opacity="0.1" fill="#3D3D3C" enable-background="new    " width="7.521" height="7.715"/>
<rect x="699.033" y="16.206" opacity="0.1" fill="#3D3D3C" enable-background="new    " width="7.521" height="7.715"/>
<rect x="706.555" y="23.921" opacity="0.1" fill="#3D3D3C" enable-background="new    " width="7.521" height="7.714"/>
<rect x="714.074" y="0.777" opacity="0.1" fill="#3D3D3C" enable-background="new    " width="7.521" height="7.714"/>
<rect x="721.595" y="8.491" opacity="0.1" fill="#3D3D3C" enable-background="new    " width="7.521" height="7.715"/>
<rect x="729.114" y="16.206" opacity="0.1" fill="#3D3D3C" enable-background="new    " width="7.521" height="7.715"/>
<rect x="721.595" y="23.921" opacity="0.1" fill="#3D3D3C" enable-background="new    " width="7.521" height="7.714"/>
<rect x="729.114" y="31.635" opacity="0.1" fill="#3D3D3C" enable-background="new    " width="7.521" height="7.715"/>
<rect x="721.595" y="39.35" opacity="0.1" fill="#3D3D3C" enable-background="new    " width="7.521" height="7.715"/>
<rect x="729.114" y="47.062" opacity="0.1" fill="#3D3D3C" enable-background="new    " width="7.521" height="7.713"/>
<rect x="714.074" y="16.206" opacity="0.1" fill="#3D3D3C" enable-background="new    " width="7.521" height="7.715"/>
<rect x="714.074" y="31.635" opacity="0.1" fill="#3D3D3C" enable-background="new    " width="7.521" height="7.715"/>
<rect x="714.074" y="47.062" opacity="0.1" fill="#3D3D3C" enable-background="new    " width="7.521" height="7.713"/>
<rect x="735.633" y="39.35" opacity="0.1" fill="#3D3D3C" enable-background="new    " width="7.521" height="7.715"/>
<rect x="744.155" y="47.062" opacity="0.1" fill="#3D3D3C" enable-background="new    " width="7.521" height="7.713"/>
<rect x="736.636" y="23.921" opacity="0.1" fill="#3D3D3C" enable-background="new    " width="7.521" height="7.714"/>
<rect x="744.155" y="31.635" opacity="0.1" fill="#3D3D3C" enable-background="new    " width="7.521" height="7.715"/>
<rect x="751.677" y="39.35" opacity="0.1" fill="#3D3D3C" enable-background="new    " width="7.521" height="7.715"/>
<rect x="721.595" y="54.775" opacity="0.1" fill="#3D3D3C" enable-background="new    " width="7.521" height="7.716"/>
<rect x="736.636" y="54.775" opacity="0.1" fill="#3D3D3C" enable-background="new    " width="7.521" height="7.716"/>
<rect x="751.677" y="54.775" opacity="0.1" fill="#3D3D3C" enable-background="new    " width="7.521" height="7.716"/>
<rect x="759.195" y="47.062" opacity="0.1" fill="#3D3D3C" enable-background="new    " width="7.521" height="7.713"/>
<rect x="766.717" y="54.775" opacity="0.1" fill="#3D3D3C" enable-background="new    " width="7.521" height="7.716"/>
<rect x="766.717" y="39.35" opacity="0.1" fill="#3D3D3C" enable-background="new    " width="7.521" height="7.715"/>
<rect x="759.195" y="31.635" opacity="0.1" fill="#3D3D3C" enable-background="new    " width="7.521" height="7.715"/>
<rect x="751.677" y="23.921" opacity="0.1" fill="#3D3D3C" enable-background="new    " width="7.521" height="7.714"/>
<rect x="744.155" y="16.206" opacity="0.1" fill="#3D3D3C" enable-background="new    " width="7.521" height="7.715"/>
<rect x="736.636" y="8.491" opacity="0.1" fill="#3D3D3C" enable-background="new    " width="7.521" height="7.715"/>
<rect x="729.114" y="0.777" opacity="0.1" fill="#3D3D3C" enable-background="new    " width="7.521" height="7.714"/>
<rect x="744.155" y="0.777" opacity="0.1" fill="#3D3D3C" enable-background="new    " width="7.521" height="7.714"/>
<rect x="751.677" y="8.491" opacity="0.1" fill="#3D3D3C" enable-background="new    " width="7.521" height="7.715"/>
<rect x="759.195" y="0.777" opacity="0.1" fill="#3D3D3C" enable-background="new    " width="7.521" height="7.714"/>
<rect x="766.717" y="8.491" opacity="0.1" fill="#3D3D3C" enable-background="new    " width="7.521" height="7.715"/>
<rect x="759.195" y="16.206" opacity="0.1" fill="#3D3D3C" enable-background="new    " width="7.521" height="7.715"/>
<rect x="766.717" y="23.921" opacity="0.1" fill="#3D3D3C" enable-background="new    " width="7.521" height="7.714"/>
<rect x="774.236" y="0.777" opacity="0.1" fill="#3D3D3C" enable-background="new    " width="7.521" height="7.714"/>
<rect x="781.758" y="8.491" opacity="0.1" fill="#3D3D3C" enable-background="new    " width="7.521" height="7.715"/>
<rect x="789.277" y="16.206" opacity="0.1" fill="#3D3D3C" enable-background="new    " width="7.521" height="7.715"/>
<rect x="781.758" y="23.921" opacity="0.1" fill="#3D3D3C" enable-background="new    " width="7.521" height="7.714"/>
<rect x="789.277" y="31.635" opacity="0.1" fill="#3D3D3C" enable-background="new    " width="7.521" height="7.715"/>
<rect x="781.758" y="39.35" opacity="0.1" fill="#3D3D3C" enable-background="new    " width="7.521" height="7.715"/>
<rect x="789.277" y="47.062" opacity="0.1" fill="#3D3D3C" enable-background="new    " width="7.521" height="7.713"/>
<rect x="774.236" y="16.206" opacity="0.1" fill="#3D3D3C" enable-background="new    " width="7.521" height="7.715"/>
<rect x="774.236" y="31.635" opacity="0.1" fill="#3D3D3C" enable-background="new    " width="7.521" height="7.715"/>
<rect x="774.236" y="47.062" opacity="0.1" fill="#3D3D3C" enable-background="new    " width="7.521" height="7.713"/>
<rect x="795.796" y="39.35" opacity="0.1" fill="#3D3D3C" enable-background="new    " width="7.521" height="7.715"/>
<rect x="804.317" y="47.062" opacity="0.1" fill="#3D3D3C" enable-background="new    " width="7.521" height="7.713"/>
<rect x="796.798" y="23.921" opacity="0.1" fill="#3D3D3C" enable-background="new    " width="7.521" height="7.714"/>
<rect x="804.317" y="31.635" opacity="0.1" fill="#3D3D3C" enable-background="new    " width="7.521" height="7.715"/>
<rect x="811.839" y="39.35" opacity="0.1" fill="#3D3D3C" enable-background="new    " width="7.521" height="7.715"/>
<rect x="781.758" y="54.775" opacity="0.1" fill="#3D3D3C" enable-background="new    " width="7.521" height="7.716"/>
<rect x="796.798" y="54.775" opacity="0.1" fill="#3D3D3C" enable-background="new    " width="7.521" height="7.716"/>
<rect x="811.839" y="54.775" opacity="0.1" fill="#3D3D3C" enable-background="new    " width="7.521" height="7.716"/>
<rect x="819.358" y="47.062" opacity="0.1" fill="#3D3D3C" enable-background="new    " width="7.521" height="7.713"/>
<rect x="826.88" y="54.775" opacity="0.1" fill="#3D3D3C" enable-background="new    " width="7.521" height="7.716"/>
<rect x="826.88" y="39.35" opacity="0.1" fill="#3D3D3C" enable-background="new    " width="7.521" height="7.715"/>
<rect x="819.358" y="31.635" opacity="0.1" fill="#3D3D3C" enable-background="new    " width="7.521" height="7.715"/>
<rect x="811.839" y="23.921" opacity="0.1" fill="#3D3D3C" enable-background="new    " width="7.521" height="7.714"/>
<rect x="804.317" y="16.206" opacity="0.1" fill="#3D3D3C" enable-background="new    " width="7.521" height="7.715"/>
<rect x="796.798" y="8.491" opacity="0.1" fill="#3D3D3C" enable-background="new    " width="7.521" height="7.715"/>
<rect x="789.277" y="0.777" opacity="0.1" fill="#3D3D3C" enable-background="new    " width="7.521" height="7.714"/>
<rect x="804.317" y="0.777" opacity="0.1" fill="#3D3D3C" enable-background="new    " width="7.521" height="7.714"/>
<rect x="811.839" y="8.491" opacity="0.1" fill="#3D3D3C" enable-background="new    " width="7.521" height="7.715"/>
<rect x="819.358" y="0.777" opacity="0.1" fill="#3D3D3C" enable-background="new    " width="7.521" height="7.714"/>
<rect x="826.88" y="8.491" opacity="0.1" fill="#3D3D3C" enable-background="new    " width="7.521" height="7.715"/>
<rect x="819.358" y="16.206" opacity="0.1" fill="#3D3D3C" enable-background="new    " width="7.521" height="7.715"/>
<rect x="826.88" y="23.921" opacity="0.1" fill="#3D3D3C" enable-background="new    " width="7.521" height="7.714"/>
<rect x="834.398" y="16.206" opacity="0.1" fill="#3D3D3C" enable-background="new    " width="7.521" height="7.715"/>
<rect x="834.398" y="31.635" opacity="0.1" fill="#3D3D3C" enable-background="new    " width="7.521" height="7.715"/>
<rect x="834.398" y="47.062" opacity="0.1" fill="#3D3D3C" enable-background="new    " width="7.521" height="7.713"/>
<rect x="840.916" y="39.35" opacity="0.1" fill="#3D3D3C" enable-background="new    " width="7.521" height="7.715"/>
<rect x="849.439" y="47.062" opacity="0.1" fill="#3D3D3C" enable-background="new    " width="7.521" height="7.713"/>
<rect x="841.92" y="23.921" opacity="0.1" fill="#3D3D3C" enable-background="new    " width="7.521" height="7.714"/>
<rect x="849.439" y="31.635" opacity="0.1" fill="#3D3D3C" enable-background="new    " width="7.521" height="7.715"/>
<rect x="856.961" y="39.35" opacity="0.1" fill="#3D3D3C" enable-background="new    " width="7.521" height="7.715"/>
<rect x="841.92" y="54.775" opacity="0.1" fill="#3D3D3C" enable-background="new    " width="7.521" height="7.716"/>
<rect x="856.961" y="54.775" opacity="0.1" fill="#3D3D3C" enable-background="new    " width="7.521" height="7.716"/>
<rect x="864.48" y="47.062" opacity="0.1" fill="#3D3D3C" enable-background="new    " width="7.52" height="7.713"/>
<rect x="864.48" y="31.635" opacity="0.1" fill="#3D3D3C" enable-background="new    " width="7.52" height="7.715"/>
<rect x="856.961" y="23.921" opacity="0.1" fill="#3D3D3C" enable-background="new    " width="7.521" height="7.714"/>
<rect x="849.439" y="16.206" opacity="0.1" fill="#3D3D3C" enable-background="new    " width="7.521" height="7.715"/>
<rect x="841.92" y="8.491" opacity="0.1" fill="#3D3D3C" enable-background="new    " width="7.521" height="7.715"/>
<rect x="834.398" y="0.777" opacity="0.1" fill="#3D3D3C" enable-background="new    " width="7.521" height="7.714"/>
<rect x="849.439" y="0.777" opacity="0.1" fill="#3D3D3C" enable-background="new    " width="7.521" height="7.714"/>
<rect x="856.961" y="8.491" opacity="0.1" fill="#3D3D3C" enable-background="new    " width="7.521" height="7.715"/>
<rect x="864.48" y="0.777" opacity="0.1" fill="#3D3D3C" enable-background="new    " width="7.52" height="7.714"/>
<rect x="864.48" y="16.206" opacity="0.1" fill="#3D3D3C" enable-background="new    " width="7.52" height="7.715"/>
<rect x="548.627" y="63.167" opacity="0.1" fill="#3D3D3C" enable-background="new    " width="7.521" height="7.713"/>
<rect x="563.668" y="63.167" opacity="0.1" fill="#3D3D3C" enable-background="new    " width="7.521" height="7.713"/>
<rect x="578.709" y="63.167" opacity="0.1" fill="#3D3D3C" enable-background="new    " width="7.521" height="7.713"/>
<rect x="608.789" y="63.167" opacity="0.1" fill="#3D3D3C" enable-background="new    " width="7.521" height="7.713"/>
<rect x="593.748" y="63.167" opacity="0.1" fill="#3D3D3C" enable-background="new    " width="7.521" height="7.713"/>
<rect x="623.83" y="63.167" opacity="0.1" fill="#3D3D3C" enable-background="new    " width="7.521" height="7.713"/>
<rect x="638.87" y="63.167" opacity="0.1" fill="#3D3D3C" enable-background="new    " width="7.521" height="7.713"/>
<rect x="668.952" y="63.167" opacity="0.1" fill="#3D3D3C" enable-background="new    " width="7.521" height="7.713"/>
<rect x="653.911" y="63.167" opacity="0.1" fill="#3D3D3C" enable-background="new    " width="7.521" height="7.713"/>
<rect x="683.992" y="63.167" opacity="0.1" fill="#3D3D3C" enable-background="new    " width="7.521" height="7.713"/>
<rect x="699.033" y="63.167" opacity="0.1" fill="#3D3D3C" enable-background="new    " width="7.521" height="7.713"/>
<rect x="729.114" y="63.167" opacity="0.1" fill="#3D3D3C" enable-background="new    " width="7.521" height="7.713"/>
<rect x="714.074" y="63.167" opacity="0.1" fill="#3D3D3C" enable-background="new    " width="7.521" height="7.713"/>
<rect x="744.155" y="63.167" opacity="0.1" fill="#3D3D3C" enable-background="new    " width="7.521" height="7.713"/>
<rect x="759.195" y="63.167" opacity="0.1" fill="#3D3D3C" enable-background="new    " width="7.521" height="7.713"/>
<rect x="789.277" y="63.167" opacity="0.1" fill="#3D3D3C" enable-background="new    " width="7.521" height="7.713"/>
<rect x="774.236" y="63.167" opacity="0.1" fill="#3D3D3C" enable-background="new    " width="7.521" height="7.713"/>
<rect x="804.317" y="63.167" opacity="0.1" fill="#3D3D3C" enable-background="new    " width="7.521" height="7.713"/>
<rect x="819.358" y="63.167" opacity="0.1" fill="#3D3D3C" enable-background="new    " width="7.521" height="7.713"/>
<rect x="834.398" y="63.167" opacity="0.1" fill="#3D3D3C" enable-background="new    " width="7.521" height="7.713"/>
<rect x="849.439" y="63.167" opacity="0.1" fill="#3D3D3C" enable-background="new    " width="7.521" height="7.713"/>
<rect x="864.48" y="63.167" opacity="0.1" fill="#3D3D3C" enable-background="new    " width="7.52" height="7.713"/>
<polygon fill="#F2DAC3" points="595.779,72 588.529,18.495 672.805,5.497 698.294,26.585 702.778,70.88 "/>
<g>
	
		<polyline opacity="0.8" fill="#FFFFFF" stroke="#CFCFCF" stroke-width="2" stroke-miterlimit="10" enable-background="new    " points="
		595.654,72 588.404,18.495 672.68,5.497 698.169,26.585 702.904,72 	"/>
	<line fill="none" stroke="#CFCFCF" stroke-width="2" stroke-miterlimit="10" x1="590.221" y1="31.25" x2="684.859" y2="16.491"/>
	<line fill="none" stroke="#E6E6E6" stroke-width="2" stroke-miterlimit="10" x1="591.432" y1="21.404" x2="626.202" y2="15.982"/>
	<line fill="none" stroke="#E6E6E6" stroke-width="2" stroke-miterlimit="10" x1="592.081" y1="24.695" x2="602.65" y2="23.046"/>
	<line fill="none" stroke="#E6E6E6" stroke-width="2" stroke-miterlimit="10" x1="593.312" y1="34.137" x2="607.015" y2="32"/>
	<line fill="none" stroke="#E6E6E6" stroke-width="2" stroke-miterlimit="10" x1="593.824" y1="38.32" x2="604.393" y2="36.673"/>
	<line fill="none" stroke="#E6E6E6" stroke-width="2" stroke-miterlimit="10" x1="594.312" y1="41.279" x2="613.277" y2="38.32"/>
	<line fill="none" stroke="#E6E6E6" stroke-width="2" stroke-miterlimit="10" x1="596.959" y1="58.35" x2="626.977" y2="53.667"/>
	<line fill="none" stroke="#E6E6E6" stroke-width="2" stroke-miterlimit="10" x1="597.697" y1="69.511" x2="609.805" y2="67.622"/>
	<line fill="none" stroke="#E6E6E6" stroke-width="2" stroke-miterlimit="10" x1="623.492" y1="70.455" x2="643.83" y2="67.282"/>
	<line fill="none" stroke="#E6E6E6" stroke-width="2" stroke-miterlimit="10" x1="649.05" y1="66.539" x2="669.388" y2="63.366"/>
	<line fill="none" stroke="#E6E6E6" stroke-width="2" stroke-miterlimit="10" x1="672.602" y1="62.79" x2="681.981" y2="61.463"/>
	<line fill="none" stroke="#E6E6E6" stroke-width="2" stroke-miterlimit="10" x1="673.212" y1="66.279" x2="693.813" y2="63.365"/>
	<line fill="none" stroke="#E6E6E6" stroke-width="2" stroke-miterlimit="10" x1="673.83" y1="69.216" x2="694.541" y2="66.286"/>
	<line fill="none" stroke="#E6E6E6" stroke-width="2" stroke-miterlimit="10" x1="683.309" y1="71.195" x2="695.221" y2="69.511"/>
	<line fill="none" stroke="#E6E6E6" stroke-width="2" stroke-miterlimit="10" x1="649.644" y1="69.712" x2="669.981" y2="66.539"/>
	<line fill="none" stroke="#E6E6E6" stroke-width="2" stroke-miterlimit="10" x1="661.4" y1="71.079" x2="670.439" y2="69.669"/>
	<line fill="none" stroke="#E6E6E6" stroke-width="2" stroke-miterlimit="10" x1="594.879" y1="44.277" x2="608.298" y2="42.186"/>
	<line fill="none" stroke="#E6E6E6" stroke-width="2" stroke-miterlimit="10" x1="595.397" y1="47.215" x2="607.178" y2="45.378"/>
	<line fill="none" stroke="#E6E6E6" stroke-width="2" stroke-miterlimit="10" x1="595.941" y1="49.859" x2="605.805" y2="48.322"/>
	<line fill="none" stroke="#E6E6E6" stroke-width="2" stroke-miterlimit="10" x1="597.697" y1="62.855" x2="602.629" y2="62.088"/>
	<line fill="none" stroke="#E6E6E6" stroke-width="2" stroke-miterlimit="10" x1="643.83" y1="30.919" x2="660.639" y2="28.297"/>
	<line fill="none" stroke="#E6E6E6" stroke-width="2" stroke-miterlimit="10" x1="644.318" y1="33.877" x2="663.283" y2="30.919"/>
	<line fill="none" stroke="#E6E6E6" stroke-width="2" stroke-miterlimit="10" x1="644.886" y1="36.876" x2="658.305" y2="34.783"/>
	<line fill="none" stroke="#E6E6E6" stroke-width="2" stroke-miterlimit="10" x1="645.404" y1="39.812" x2="674.222" y2="35.319"/>
	<line fill="none" stroke="#E6E6E6" stroke-width="2" stroke-miterlimit="10" x1="645.949" y1="42.458" x2="662.055" y2="39.945"/>
	<line fill="none" stroke="#E6E6E6" stroke-width="2" stroke-miterlimit="10" x1="596.535" y1="52.561" x2="613.845" y2="49.859"/>
	<line fill="none" stroke="#E6E6E6" stroke-width="2" stroke-miterlimit="10" x1="592.489" y1="27.678" x2="614.389" y2="24.263"/>
	<line fill="none" stroke="#E6E6E6" stroke-width="2" stroke-miterlimit="10" x1="643.83" y1="19.786" x2="668.222" y2="15.982"/>
	<line fill="none" stroke="#CFCFCF" stroke-width="2" stroke-miterlimit="10" x1="593.312" y1="55.832" x2="699.474" y2="39.275"/>
	<line fill="none" stroke="#CFCFCF" stroke-width="2" stroke-miterlimit="10" x1="594.312" y1="67.17" x2="700.474" y2="50.613"/>
	<g>
		<polygon fill="#CFCFCF" points="699.466,26.225 673.212,4.649 672.602,6.5 675.221,30.125 697.096,27.125 		"/>
	</g>
</g>
<polygon fill="#F2DAC3" points="566.396,0.05 528.167,71.68 0.362,71.68 0.376,0.05 "/>
</svg>
