<?xml version="1.0" encoding="utf-8"?>
<!DOCTYPE svg PUBLIC "-//W3C//DTD SVG 1.1//EN" "http://www.w3.org/Graphics/SVG/1.1/DTD/svg11.dtd">
<svg version="1.1" id="Calque_1" xmlns="http://www.w3.org/2000/svg" xmlns:xlink="http://www.w3.org/1999/xlink" x="0px" y="0px"
	 width="872px" height="72px" viewBox="0 0 872 72" style="enable-background:new 0 0 872 72;" xml:space="preserve">
<style type="text/css"><![CDATA[
	.st0{fill:#4E4D4D;} .st3{fill:#CFCFCF;}
	.st1{opacity:0.96;fill:#FFFFFF;stroke:#CFCFCF;stroke-width:2;stroke-miterlimit:10;enable-background:new;}
	.st2{fill:none;stroke:#CFCFCF;stroke-width:2;stroke-miterlimit:10;}	.st4{opacity:6.000000e-02;fill:#9C9B9B;enable-background:new;}
	.st5{opacity:0.75;fill:#5D5D5C;enable-background:new;}	.st6{fill:none;stroke:#E6E6E6;stroke-width:2;stroke-miterlimit:10;}
]]></style>
<rect x="0.6" class="st0" width="872" height="72"/>
<polygon class="st0" points="554.5,72 547.3,18.5 631.6,5.5 657.1,26.6 661.5,70.9 "/>
<rect x="526.1" y="55.3" class="st4" width="7.5" height="7.7"/>
<rect x="548.6" y="16.7" class="st4" width="7.5" height="7.7"/>
<rect x="541.1" y="24.4" class="st4" width="7.5" height="7.7"/>
<rect x="548.6" y="32.1" class="st4" width="7.5" height="7.7"/>
<rect x="541.1" y="39.8" class="st4" width="7.5" height="7.7"/>
<rect x="548.6" y="47.6" class="st4" width="7.5" height="7.7"/>
<rect x="533.6" y="47.6" class="st4" width="7.5" height="7.7"/>
<rect x="556.2" y="39.8" class="st4" width="7.5" height="7.7"/>
<rect x="563.7" y="47.6" class="st4" width="7.5" height="7.7"/>
<rect x="556.2" y="24.4" class="st4" width="7.5" height="7.7"/>
<rect x="563.7" y="32.1" class="st4" width="7.5" height="7.7"/>
<rect x="571.2" y="39.8" class="st4" width="7.5" height="7.7"/>
<rect x="541.1" y="55.3" class="st4" width="7.5" height="7.7"/>
<rect x="533.6" y="63" class="st4" width="7.5" height="7.7"/>
<rect x="556.2" y="55.3" class="st4" width="7.5" height="7.7"/>
<rect x="571.2" y="55.3" class="st4" width="7.5" height="7.7"/>
<rect x="578.7" y="47.6" class="st4" width="7.5" height="7.7"/>
<rect x="586.2" y="55.3" class="st4" width="7.5" height="7.7"/>
<rect x="586.2" y="39.8" class="st4" width="7.5" height="7.7"/>
<rect x="578.7" y="32.1" class="st4" width="7.5" height="7.7"/>
<rect x="571.2" y="24.4" class="st4" width="7.5" height="7.7"/>
<rect x="563.7" y="16.7" class="st4" width="7.5" height="7.7"/>
<rect x="556.2" y="9" class="st4" width="7.5" height="7.7"/>
<rect x="563.7" y="1.3" class="st4" width="7.5" height="7.7"/>
<rect x="571.2" y="9" class="st4" width="7.5" height="7.7"/>
<rect x="578.7" y="1.3" class="st4" width="7.5" height="7.7"/>
<rect x="586.2" y="9" class="st4" width="7.5" height="7.7"/>
<rect x="578.7" y="16.7" class="st4" width="7.5" height="7.7"/>
<rect x="586.2" y="24.4" class="st4" width="7.5" height="7.7"/>
<rect x="593.8" y="1.3" class="st4" width="7.5" height="7.7"/>
<rect x="601.3" y="9" class="st4" width="7.5" height="7.7"/>
<rect x="608.8" y="16.7" class="st4" width="7.5" height="7.7"/>
<rect x="601.3" y="24.4" class="st4" width="7.5" height="7.7"/>
<rect x="608.8" y="32.1" class="st4" width="7.5" height="7.7"/>
<rect x="601.3" y="39.8" class="st4" width="7.5" height="7.7"/>
<rect x="608.8" y="47.6" class="st4" width="7.5" height="7.7"/>
<rect x="593.8" y="16.7" class="st4" width="7.5" height="7.7"/>
<rect x="593.8" y="32.1" class="st4" width="7.5" height="7.7"/>
<rect x="593.8" y="47.6" class="st4" width="7.5" height="7.7"/>
<rect x="616.3" y="39.8" class="st4" width="7.5" height="7.7"/>
<rect x="623.8" y="47.6" class="st4" width="7.5" height="7.7"/>
<rect x="616.3" y="24.4" class="st4" width="7.5" height="7.7"/>
<rect x="623.8" y="32.1" class="st4" width="7.5" height="7.7"/>
<rect x="631.3" y="39.8" class="st4" width="7.5" height="7.7"/>
<rect x="601.3" y="55.3" class="st4" width="7.5" height="7.7"/>
<rect x="616.3" y="55.3" class="st4" width="7.5" height="7.7"/>
<rect x="631.3" y="55.3" class="st4" width="7.5" height="7.7"/>
<rect x="638.9" y="47.6" class="st4" width="7.5" height="7.7"/>
<rect x="646.4" y="55.3" class="st4" width="7.5" height="7.7"/>
<rect x="646.4" y="39.8" class="st4" width="7.5" height="7.7"/>
<rect x="638.9" y="32.1" class="st4" width="7.5" height="7.7"/>
<rect x="631.3" y="24.4" class="st4" width="7.5" height="7.7"/>
<rect x="623.8" y="16.7" class="st4" width="7.5" height="7.7"/>
<rect x="616.3" y="9" class="st4" width="7.5" height="7.7"/>
<rect x="608.8" y="1.3" class="st4" width="7.5" height="7.7"/>
<rect x="623.8" y="1.3" class="st4" width="7.5" height="7.7"/>
<rect x="631.3" y="9" class="st4" width="7.5" height="7.7"/>
<rect x="638.9" y="1.3" class="st4" width="7.5" height="7.7"/>
<rect x="646.4" y="9" class="st4" width="7.5" height="7.7"/>
<rect x="638.9" y="16.7" class="st4" width="7.5" height="7.7"/>
<rect x="646.4" y="24.4" class="st4" width="7.5" height="7.7"/>
<rect x="653.9" y="1.3" class="st4" width="7.5" height="7.7"/>
<rect x="661.4" y="9" class="st4" width="7.5" height="7.7"/>
<rect x="669" y="16.7" class="st4" width="7.5" height="7.7"/>
<rect x="661.4" y="24.4" class="st4" width="7.5" height="7.7"/>
<rect x="669" y="32.1" class="st4" width="7.5" height="7.7"/>
<rect x="661.4" y="39.8" class="st4" width="7.5" height="7.7"/>
<rect x="669" y="47.6" class="st4" width="7.5" height="7.7"/>
<rect x="653.9" y="16.7" class="st4" width="7.5" height="7.7"/>
<rect x="653.9" y="32.1" class="st4" width="7.5" height="7.7"/>
<rect x="653.9" y="47.6" class="st4" width="7.5" height="7.7"/>
<rect x="676.5" y="39.8" class="st4" width="7.5" height="7.7"/>
<rect x="684" y="47.6" class="st4" width="7.5" height="7.7"/>
<rect x="676.5" y="24.4" class="st4" width="7.5" height="7.7"/>
<rect x="684" y="32.1" class="st4" width="7.5" height="7.7"/>
<rect x="691.5" y="39.8" class="st4" width="7.5" height="7.7"/>
<rect x="661.4" y="55.3" class="st4" width="7.5" height="7.7"/>
<rect x="676.5" y="55.3" class="st4" width="7.5" height="7.7"/>
<rect x="691.5" y="55.3" class="st4" width="7.5" height="7.7"/>
<rect x="699" y="47.6" class="st4" width="7.5" height="7.7"/>
<rect x="706.5" y="55.3" class="st4" width="7.5" height="7.7"/>
<rect x="706.5" y="39.8" class="st4" width="7.5" height="7.7"/>
<rect x="699" y="32.1" class="st4" width="7.5" height="7.7"/>
<rect x="691.5" y="24.4" class="st4" width="7.5" height="7.7"/>
<rect x="684" y="16.7" class="st4" width="7.5" height="7.7"/>
<rect x="676.5" y="9" class="st4" width="7.5" height="7.7"/>
<rect x="669" y="1.3" class="st4" width="7.5" height="7.7"/>
<rect x="684" y="1.3" class="st4" width="7.5" height="7.7"/>
<rect x="691.5" y="9" class="st4" width="7.5" height="7.7"/>
<rect x="699" y="1.3" class="st4" width="7.5" height="7.7"/>
<rect x="706.5" y="9" class="st4" width="7.5" height="7.7"/>
<rect x="699" y="16.7" class="st4" width="7.5" height="7.7"/>
<rect x="706.5" y="24.4" class="st4" width="7.5" height="7.7"/>
<rect x="714.1" y="1.3" class="st4" width="7.5" height="7.7"/>
<rect x="721.6" y="9" class="st4" width="7.5" height="7.7"/>
<rect x="729.1" y="16.7" class="st4" width="7.5" height="7.7"/>
<rect x="721.6" y="24.4" class="st4" width="7.5" height="7.7"/>
<rect x="729.1" y="32.1" class="st4" width="7.5" height="7.7"/>
<rect x="721.6" y="39.8" class="st4" width="7.5" height="7.7"/>
<rect x="729.1" y="47.6" class="st4" width="7.5" height="7.7"/>
<rect x="714.1" y="16.7" class="st4" width="7.5" height="7.7"/>
<rect x="714.1" y="32.1" class="st4" width="7.5" height="7.7"/>
<rect x="714.1" y="47.6" class="st4" width="7.5" height="7.7"/>
<rect x="736.6" y="39.8" class="st4" width="7.5" height="7.7"/>
<rect x="744.2" y="47.6" class="st4" width="7.5" height="7.7"/>
<rect x="736.6" y="24.4" class="st4" width="7.5" height="7.7"/>
<rect x="744.2" y="32.1" class="st4" width="7.5" height="7.7"/>
<rect x="751.7" y="39.8" class="st4" width="7.5" height="7.7"/>
<rect x="721.6" y="55.3" class="st4" width="7.5" height="7.7"/>
<rect x="736.6" y="55.3" class="st4" width="7.5" height="7.7"/>
<rect x="751.7" y="55.3" class="st4" width="7.5" height="7.7"/>
<rect x="759.2" y="47.6" class="st4" width="7.5" height="7.7"/>
<rect x="766.7" y="55.3" class="st4" width="7.5" height="7.7"/>
<rect x="766.7" y="39.8" class="st4" width="7.5" height="7.7"/>
<rect x="759.2" y="32.1" class="st4" width="7.5" height="7.7"/>
<rect x="751.7" y="24.4" class="st4" width="7.5" height="7.7"/>
<rect x="744.2" y="16.7" class="st4" width="7.5" height="7.7"/>
<rect x="736.6" y="9" class="st4" width="7.5" height="7.7"/>
<rect x="729.1" y="1.3" class="st4" width="7.5" height="7.7"/>
<rect x="744.2" y="1.3" class="st4" width="7.5" height="7.7"/>
<rect x="751.7" y="9" class="st4" width="7.5" height="7.7"/>
<rect x="759.2" y="1.3" class="st4" width="7.5" height="7.7"/>
<rect x="766.7" y="9" class="st4" width="7.5" height="7.7"/>
<rect x="759.2" y="16.7" class="st4" width="7.5" height="7.7"/>
<rect x="766.7" y="24.4" class="st4" width="7.5" height="7.7"/>
<rect x="774.2" y="1.3" class="st4" width="7.5" height="7.7"/>
<rect x="781.8" y="9" class="st4" width="7.5" height="7.7"/>
<rect x="789.3" y="16.7" class="st4" width="7.5" height="7.7"/>
<rect x="781.8" y="24.4" class="st4" width="7.5" height="7.7"/>
<rect x="789.3" y="32.1" class="st4" width="7.5" height="7.7"/>
<rect x="781.8" y="39.8" class="st4" width="7.5" height="7.7"/>
<rect x="789.3" y="47.6" class="st4" width="7.5" height="7.7"/>
<rect x="774.2" y="16.7" class="st4" width="7.5" height="7.7"/>
<rect x="774.2" y="32.1" class="st4" width="7.5" height="7.7"/>
<rect x="774.2" y="47.6" class="st4" width="7.5" height="7.7"/>
<rect x="796.8" y="39.8" class="st4" width="7.5" height="7.7"/>
<rect x="804.3" y="47.6" class="st4" width="7.5" height="7.7"/>
<rect x="796.8" y="24.4" class="st4" width="7.5" height="7.7"/>
<rect x="804.3" y="32.1" class="st4" width="7.5" height="7.7"/>
<rect x="811.8" y="39.8" class="st4" width="7.5" height="7.7"/>
<rect x="781.8" y="55.3" class="st4" width="7.5" height="7.7"/>
<rect x="796.8" y="55.3" class="st4" width="7.5" height="7.7"/>
<rect x="811.8" y="55.3" class="st4" width="7.5" height="7.7"/>
<rect x="819.4" y="47.6" class="st4" width="7.5" height="7.7"/>
<rect x="826.9" y="55.3" class="st4" width="7.5" height="7.7"/>
<rect x="826.9" y="39.8" class="st4" width="7.5" height="7.7"/>
<rect x="819.4" y="32.1" class="st4" width="7.5" height="7.7"/>
<rect x="811.8" y="24.4" class="st4" width="7.5" height="7.7"/>
<rect x="804.3" y="16.7" class="st4" width="7.5" height="7.7"/>
<rect x="796.8" y="9" class="st4" width="7.5" height="7.7"/>
<rect x="789.3" y="1.3" class="st4" width="7.5" height="7.7"/>
<rect x="804.3" y="1.3" class="st4" width="7.5" height="7.7"/>
<rect x="811.8" y="9" class="st4" width="7.5" height="7.7"/>
<rect x="819.4" y="1.3" class="st4" width="7.5" height="7.7"/>
<rect x="826.9" y="9" class="st4" width="7.5" height="7.7"/>
<rect x="819.4" y="16.7" class="st4" width="7.5" height="7.7"/>
<rect x="826.9" y="24.4" class="st4" width="7.5" height="7.7"/>
<rect x="834.4" y="16.7" class="st4" width="7.5" height="7.7"/>
<rect x="834.4" y="32.1" class="st4" width="7.5" height="7.7"/>
<rect x="834.4" y="47.6" class="st4" width="7.5" height="7.7"/>
<rect x="841.9" y="39.8" class="st4" width="7.5" height="7.7"/>
<rect x="849.4" y="47.6" class="st4" width="7.5" height="7.7"/>
<rect x="841.9" y="24.4" class="st4" width="7.5" height="7.7"/>
<rect x="849.4" y="32.1" class="st4" width="7.5" height="7.7"/>
<rect x="857" y="39.8" class="st4" width="7.5" height="7.7"/>
<rect x="841.9" y="55.3" class="st4" width="7.5" height="7.7"/>
<rect x="857" y="55.3" class="st4" width="7.5" height="7.7"/>
<rect x="864.5" y="47.6" class="st4" width="7.5" height="7.7"/>
<rect x="864.5" y="32.1" class="st4" width="7.5" height="7.7"/>
<rect x="857" y="24.4" class="st4" width="7.5" height="7.7"/>
<rect x="849.4" y="16.7" class="st4" width="7.5" height="7.7"/>
<rect x="841.9" y="9" class="st4" width="7.5" height="7.7"/>
<rect x="834.4" y="1.3" class="st4" width="7.5" height="7.7"/>
<rect x="849.4" y="1.3" class="st4" width="7.5" height="7.7"/>
<rect x="857" y="9" class="st4" width="7.5" height="7.7"/>
<rect x="864.5" y="1.3" class="st4" width="7.5" height="7.7"/>
<rect x="864.5" y="16.7" class="st4" width="7.5" height="7.7"/>
<rect x="548.6" y="63" class="st4" width="7.5" height="7.7"/>
<rect x="563.7" y="63" class="st4" width="7.5" height="7.7"/>
<rect x="578.7" y="63" class="st4" width="7.5" height="7.7"/>
<rect x="608.8" y="63" class="st4" width="7.5" height="7.7"/>
<rect x="593.8" y="63" class="st4" width="7.5" height="7.7"/>
<rect x="623.8" y="63" class="st4" width="7.5" height="7.7"/>
<rect x="638.9" y="63" class="st4" width="7.5" height="7.7"/>
<rect x="669" y="63" class="st4" width="7.5" height="7.7"/>
<rect x="653.9" y="63" class="st4" width="7.5" height="7.7"/>
<rect x="684" y="63" class="st4" width="7.5" height="7.7"/>
<rect x="699" y="63" class="st4" width="7.5" height="7.7"/>
<rect x="729.1" y="63" class="st4" width="7.5" height="7.7"/>
<rect x="714.1" y="63" class="st4" width="7.5" height="7.7"/>
<rect x="744.2" y="63" class="st4" width="7.5" height="7.7"/>
<rect x="759.2" y="63" class="st4" width="7.5" height="7.7"/>
<rect x="789.3" y="63" class="st4" width="7.5" height="7.7"/>
<rect x="774.2" y="63" class="st4" width="7.5" height="7.7"/>
<rect x="804.3" y="63" class="st4" width="7.5" height="7.7"/>
<rect x="819.4" y="63" class="st4" width="7.5" height="7.7"/>
<rect x="834.4" y="63" class="st4" width="7.5" height="7.7"/>
<rect x="849.4" y="63" class="st4" width="7.5" height="7.7"/>
<rect x="864.5" y="63" class="st4" width="7.5" height="7.7"/>
<polygon class="st5" points="566.2,0 527.5,71.7 0.4,71.7 0.4,0 "/>
<g>
	<polyline class="st1" points="596,72 588.7,18.5 673,5.5 698.5,26.6 703.2,72 	"/>
	<line class="st2" x1="590.6" y1="31.2" x2="685.2" y2="16.5"/>
	<line class="st6" x1="591.8" y1="21.4" x2="626.5" y2="16"/>
	<line class="st6" x1="592.4" y1="24.7" x2="603" y2="23"/>
	<line class="st6" x1="593.7" y1="34.1" x2="607.3" y2="32"/>
	<line class="st6" x1="594.2" y1="38.3" x2="604.7" y2="36.7"/>
	<line class="st6" x1="594.7" y1="41.3" x2="613.6" y2="38.3"/>
	<line class="st6" x1="597.3" y1="58.3" x2="627.3" y2="53.7"/>
	<line class="st6" x1="598" y1="69.5" x2="610.1" y2="67.6"/>
	<line class="st6" x1="623.8" y1="70.5" x2="644.2" y2="67.3"/>
	<line class="st6" x1="649.4" y1="66.5" x2="669.7" y2="63.4"/>
	<line class="st6" x1="672.9" y1="62.8" x2="682.3" y2="61.5"/>
	<line class="st6" x1="673.5" y1="66.3" x2="694.2" y2="63.4"/>
	<line class="st6" x1="674.2" y1="69.2" x2="694.9" y2="66.3"/>
	<line class="st6" x1="683.6" y1="71.2" x2="695.6" y2="69.5"/>
	<line class="st6" x1="650" y1="69.7" x2="670.3" y2="66.5"/>
	<line class="st6" x1="661.7" y1="71.1" x2="670.8" y2="69.7"/>
	<line class="st6" x1="595.2" y1="44.3" x2="608.6" y2="42.2"/>
	<line class="st6" x1="595.7" y1="47.2" x2="607.5" y2="45.4"/>
	<line class="st6" x1="596.3" y1="49.9" x2="606.1" y2="48.3"/>
	<line class="st6" x1="598" y1="62.9" x2="603" y2="62.1"/>
	<line class="st6" x1="644.2" y1="30.9" x2="661" y2="28.3"/>
	<line class="st6" x1="644.7" y1="33.9" x2="663.6" y2="30.9"/>
	<line class="st6" x1="645.2" y1="36.9" x2="658.6" y2="34.8"/>
	<line class="st6" x1="645.7" y1="39.8" x2="674.6" y2="35.3"/>
	<line class="st6" x1="646.3" y1="42.5" x2="662.4" y2="40"/>
	<line class="st6" x1="596.9" y1="52.6" x2="614.2" y2="49.9"/>
	<line class="st6" x1="592.8" y1="27.7" x2="614.7" y2="24.3"/>
	<line class="st6" x1="644.2" y1="19.8" x2="668.6" y2="16"/>
	<line class="st2" x1="593.7" y1="55.8" x2="699.8" y2="39.3"/>
	<line class="st2" x1="594.7" y1="67.2" x2="700.8" y2="50.6"/>
	<g> <polygon class="st3" points="699.8,26.2 673.5,4.6 672.9,6.5 675.6,30.1 697.4,27.1"/></g>
</g>
</svg>
