<?xml version="1.0" encoding="utf-8"?>
<!DOCTYPE svg PUBLIC "-//W3C//DTD SVG 1.1//EN" "http://www.w3.org/Graphics/SVG/1.1/DTD/svg11.dtd">
<svg version="1.1" id="Calque_1" xmlns="http://www.w3.org/2000/svg" xmlns:xlink="http://www.w3.org/1999/xlink" x="0px" y="0px"
	 width="872px" height="72px" viewBox="0 0 872 72" style="enable-background:new 0 0 872 72;" xml:space="preserve">
<style type="text/css"><![CDATA[
	.st0{opacity:0.18;}	.st1{fill:#EECDAE;}	.st2{opacity:0.75;fill:#3D3D3C;enable-background:new;}
	.st3{fill:none;stroke:#CFCFCF;stroke-width:2;stroke-miterlimit:10;}	.st4{fill:#F2DAC3;}
	.st5{opacity:0.15;fill:#3D3D3C;enable-background:new;}
	.st6{opacity:0.1;fill:#3D3D3C;enable-background:new;}
	.st7{opacity:0.8;fill:#FFFFFF;stroke:#CFCFCF;stroke-width:2;stroke-miterlimit:10;enable-background:new;}
	.st8{fill:#CFCFCF;}	.st9{fill:none;stroke:#E6E6E6;stroke-width:2;stroke-miterlimit:10;}
	.st10{fill:#3D3D3C;} .st11{opacity:0.5;fill:#3D3D3C;enable-background:new;}
	.st12{opacity:0.25;fill:#3D3D3C;enable-background:new;}
]]></style>
<rect x="0.6" class="st1" width="872" height="72"/>
<g class="st0">
	<path class="st10" d="M853.5,48.2c-0.9,7.8-8,13.4-15.9,12.5c-7.9-0.9-13.5-8-12.5-15.9c0.9-7.8,8-13.5,15.9-12.5
		C848.8,33.2,854.4,40.3,853.5,48.2z"/>
	<path class="st10" d="M824,25.4l-4-6.8c-15.1,8.7-20.2,28-11.5,43.1l6.8-4C808.8,46.4,812.7,31.9,824,25.4z"/>
	<path class="st2" d="M806.4,9.1l-4-6.8c-22.6,13.1-30.4,42-17.3,64.7l6.8-4C781.1,44.2,787.5,20,806.4,9.1z"/>
	<path class="st6" d="M690.3,72.5c-12.2-22.6-13.3-48.7-4.7-71.6h-8.4c-7.8,23-6.8,48.7,4.2,71.6H690.3z"/>
	<path class="st5" d="M718.1,71c-10.3-22.9-9.8-48.3-0.3-70.2h-8.6c-8.7,22.1-9,47.2,0.3,70.2H718.1z"/>
	<path class="st12" d="M744.1,71c-12-22.8-10.3-49.5,2.5-70.2h-9.1C726.1,22.1,724.7,48,735.3,71H744.1z"/>
	<path class="st11" d="M763.5,71.3l5.1-3c-13-22.5-8.3-50.3,9.6-67.5h-11.1c-15.7,19.5-18.9,47.3-6.2,70.4L763.5,71.3L763.5,71.3z"/>
</g>
<polygon class="st1" points="597.7,72 590.5,18.5 674.7,5.5 700.2,26.6 705,72 "/>
<polygon class="st4" points="568.4,0 529.2,71.7 0.4,71.7 0.4,0 "/>
<g>
	<polyline class="st7" points="597.7,72 590.5,18.5 674.7,5.5 700.2,26.6 705,72 	"/>
	<line class="st3" x1="592.3" y1="31.2" x2="686.9" y2="16.5"/>
	<line class="st9" x1="593.5" y1="21.4" x2="628.2" y2="16"/>
	<line class="st9" x1="594.1" y1="24.7" x2="604.7" y2="23"/>
	<line class="st9" x1="595.3" y1="34.1" x2="609.1" y2="32"/>
	<line class="st9" x1="595.9" y1="38.3" x2="606.4" y2="36.7"/>
	<line class="st9" x1="596.3" y1="41.3" x2="615.3" y2="38.3"/>
	<line class="st9" x1="599" y1="58.3" x2="629" y2="53.7"/>
	<line class="st9" x1="599.7" y1="69.5" x2="611.8" y2="67.6"/>
	<line class="st9" x1="625.5" y1="70.5" x2="645.9" y2="67.3"/>
	<line class="st9" x1="651.1" y1="66.5" x2="671.4" y2="63.4"/>
	<line class="st9" x1="674.6" y1="62.8" x2="684" y2="61.5"/>
	<line class="st9" x1="675.2" y1="66.3" x2="695.8" y2="63.4"/>
	<line class="st9" x1="675.9" y1="69.2" x2="696.6" y2="66.3"/>
	<line class="st9" x1="685.3" y1="71.2" x2="697.3" y2="69.5"/>
	<line class="st9" x1="651.7" y1="69.7" x2="672" y2="66.5"/>
	<line class="st9" x1="663.4" y1="71.1" x2="672.5" y2="69.7"/>
	<line class="st9" x1="596.9" y1="44.3" x2="610.3" y2="42.2"/>
	<line class="st9" x1="597.4" y1="47.2" x2="609.2" y2="45.4"/>
	<line class="st9" x1="598" y1="49.9" x2="607.8" y2="48.3"/>
	<line class="st9" x1="599.7" y1="62.9" x2="604.7" y2="62.1"/>
	<line class="st9" x1="645.9" y1="30.9" x2="662.7" y2="28.3"/>
	<line class="st9" x1="646.4" y1="33.9" x2="665.3" y2="30.9"/>
	<line class="st9" x1="646.9" y1="36.9" x2="660.3" y2="34.8"/>
	<line class="st9" x1="647.5" y1="39.8" x2="676.3" y2="35.3"/>
	<line class="st9" x1="648" y1="42.5" x2="664.1" y2="40"/>
	<line class="st9" x1="598.6" y1="52.6" x2="615.9" y2="49.9"/>
	<line class="st9" x1="594.5" y1="27.7" x2="616.4" y2="24.3"/>
	<line class="st9" x1="645.9" y1="19.8" x2="670.3" y2="16"/>
	<line class="st3" x1="595.3" y1="55.8" x2="701.5" y2="39.3"/>
	<line class="st3" x1="596.3" y1="67.2" x2="702.5" y2="50.6"/>
	<g><polygon class="st8" points="701.5,26.2 675.2,4.6 674.6,6.5 677.3,30.1 699.1,27.1"/></g>
</g>
</svg>
