<?xml version="1.0" encoding="utf-8"?>
<!-- Generator: Adobe Illustrator 15.1.0, SVG Export Plug-In . SVG Version: 6.00 Build 0)  -->
<!DOCTYPE svg PUBLIC "-//W3C//DTD SVG 1.1//EN" "http://www.w3.org/Graphics/SVG/1.1/DTD/svg11.dtd">
<svg version="1.1" id="Calque_1" xmlns="http://www.w3.org/2000/svg" xmlns:xlink="http://www.w3.org/1999/xlink" x="0px" y="0px"
	 width="872px" height="360.332px" viewBox="0 0 872 360.332" style="enable-background:new 0 0 872 360.332;" xml:space="preserve"
	>
<style type="text/css">
<![CDATA[
	.st0{opacity:0.13;fill:none;stroke:#010202;stroke-width:2;enable-background:new    ;}
	.st1{opacity:0.18;}
	.st2{fill:#EECDAE;}
	.st3{opacity:0.75;fill:#3D3D3C;enable-background:new    ;}
	.st4{fill:none;stroke:#CFCFCF;stroke-width:2;stroke-miterlimit:10;}
	.st5{fill:#F2DAC3;}
	.st6{opacity:0.13;fill:none;stroke:#010202;stroke-width:0.75;enable-background:new    ;}
	.st7{opacity:0.8;enable-background:new    ;}
	.st8{opacity:0.15;fill:#3D3D3C;enable-background:new    ;}
	.st9{opacity:0.13;fill:#3D3D3C;stroke:#010202;stroke-width:2;enable-background:new    ;}
	.st10{opacity:0.1;fill:#3D3D3C;enable-background:new    ;}
	.st11{opacity:0.8;fill:#FFFFFF;stroke:#CFCFCF;stroke-width:2;stroke-miterlimit:10;enable-background:new    ;}
	.st12{fill:#CFCFCF;}
	.st13{fill:#FFFFFF;stroke:#CFCFCF;stroke-width:2;stroke-miterlimit:10;}
	.st14{fill:none;stroke:#E6E6E6;stroke-width:2;stroke-miterlimit:10;}
	.st15{fill:#3D3D3C;}
	.st16{opacity:0.5;fill:#3D3D3C;enable-background:new    ;}
	.st17{opacity:0.25;fill:#3D3D3C;enable-background:new    ;}
]]>
</style>
<rect x="0.1" class="st2" width="872" height="72"/>
<polyline class="st11" points="553.9,72 546.7,18.5 631,5.5 656.5,26.6 661.2,72 "/>
<line class="st4" x1="548.5" y1="31.2" x2="643.1" y2="16.5"/>
<line class="st14" x1="549.7" y1="21.4" x2="584.5" y2="16"/>
<line class="st14" x1="550.4" y1="24.7" x2="560.9" y2="23"/>
<line class="st14" x1="551.6" y1="34.1" x2="565.3" y2="32"/>
<line class="st14" x1="552.1" y1="38.3" x2="562.7" y2="36.7"/>
<line class="st14" x1="552.6" y1="41.3" x2="571.6" y2="38.3"/>
<line class="st14" x1="555.2" y1="58.3" x2="585.3" y2="53.7"/>
<line class="st14" x1="556" y1="69.5" x2="568.1" y2="67.6"/>
<line class="st14" x1="581.8" y1="70.5" x2="602.1" y2="67.3"/>
<line class="st14" x1="607.3" y1="66.5" x2="627.7" y2="63.4"/>
<line class="st14" x1="630.9" y1="62.8" x2="640.3" y2="61.5"/>
<line class="st14" x1="631.5" y1="66.3" x2="652.1" y2="63.4"/>
<line class="st14" x1="632.1" y1="69.2" x2="652.8" y2="66.3"/>
<line class="st14" x1="641.6" y1="71.2" x2="653.5" y2="69.5"/>
<line class="st14" x1="607.9" y1="69.7" x2="628.3" y2="66.5"/>
<line class="st14" x1="619.7" y1="71.1" x2="628.7" y2="69.7"/>
<line class="st14" x1="553.2" y1="44.3" x2="566.6" y2="42.2"/>
<line class="st14" x1="553.7" y1="47.2" x2="565.5" y2="45.4"/>
<line class="st14" x1="554.2" y1="49.9" x2="564.1" y2="48.3"/>
<line class="st14" x1="556" y1="62.9" x2="560.9" y2="62.1"/>
<line class="st14" x1="602.1" y1="30.9" x2="618.9" y2="28.3"/>
<line class="st14" x1="602.6" y1="33.9" x2="621.6" y2="30.9"/>
<line class="st14" x1="603.2" y1="36.9" x2="616.6" y2="34.8"/>
<line class="st14" x1="603.7" y1="39.8" x2="632.5" y2="35.3"/>
<line class="st14" x1="604.2" y1="42.5" x2="620.3" y2="40"/>
<line class="st14" x1="554.8" y1="52.6" x2="572.1" y2="49.9"/>
<line class="st14" x1="550.8" y1="27.7" x2="572.7" y2="24.3"/>
<line class="st14" x1="602.1" y1="19.8" x2="626.5" y2="16"/>
<line class="st4" x1="551.6" y1="55.8" x2="657.7" y2="39.3"/>
<line class="st4" x1="552.6" y1="67.2" x2="658.7" y2="50.6"/>
<polygon class="st5" points="524.6,0 485.5,71.7 -0.1,71.7 -0.1,0 "/>
<g>
	<polygon class="st12" points="657.7,26.2 631.5,4.6 630.9,6.5 633.5,30.1 655.4,27.1 	"/>
</g>
<rect x="0.2" y="72.3" class="st2" width="872" height="72"/>
<rect x="817.008" y="85.9" transform="matrix(-1 -0.0047 0.0047 -1 1636.4958 178.6577)" class="st9" width="2.9" height="3"/>
<rect x="804.406" y="111" transform="matrix(-1 -0.004 0.004 -1 1611.2507 228.2551)" class="st9" width="2.9" height="3"/>
<rect x="797.408" y="95.7" transform="matrix(-1 -0.0047 0.0047 -1 1597.2498 198.1649)" class="st9" width="2.9" height="3"/>
<rect x="859.309" y="104.9" transform="matrix(-1 -0.0047 0.0047 -1 1721.0066 216.8569)" class="st9" width="2.9" height="3"/>
<rect x="838.911" y="111.2" transform="matrix(-1 -0.0054 0.0054 -1 1680.1034 229.9259)" class="st9" width="2.9" height="3"/>
<rect x="721.707" y="123.301" transform="matrix(-1 -0.0046 0.0046 -1 1445.8379 252.8961)" class="st9" width="3" height="3"/>
<rect x="759.308" y="109.6" transform="matrix(-1 -0.0047 0.0047 -1 1520.9835 225.784)" class="st9" width="2.9" height="3"/>
<rect x="741.508" y="101.6" transform="matrix(-1 -0.0049 0.0049 -1 1485.5044 209.8269)" class="st9" width="3" height="3"/>
<rect x="771.308" y="76.1" transform="matrix(-1 -0.0047 0.0047 -1 1545.1401 158.8422)" class="st9" width="2.899" height="3"/>
<rect x="688.106" y="87.4" transform="matrix(-1 -0.0046 0.0046 -1 1378.8005 180.9426)" class="st9" width="3" height="3"/>
<rect x="620.006" y="114.1" transform="matrix(-1 -0.0047 0.0047 -1 1242.3604 234.1273)" class="st9" width="2.9" height="3"/>
<rect x="607.407" y="79.4" transform="matrix(-1 -0.0051 0.0051 -1 1217.2964 164.8748)" class="st9" width="2.899" height="3"/>
<rect x="573.305" y="120.4" transform="matrix(-1 -0.0047 0.0047 -1 1148.9298 246.5086)" class="st9" width="2.9" height="3"/>
<rect x="545.807" y="88.8" transform="matrix(-1 -0.0051 0.0051 -1 1094.0505 183.3643)" class="st9" width="2.899" height="3"/>
<rect x="534.305" y="124.1" transform="matrix(-1 -0.0044 0.0044 -1 1070.9558 253.544)" class="st9" width="2.9" height="3"/>
<rect x="560.006" y="103" transform="matrix(-1 -0.0049 0.0049 -1 1122.4957 211.7414)" class="st9" width="3" height="3"/>
<rect x="652.007" y="79.4" transform="matrix(-1 -0.0051 0.0051 -1 1306.4969 165.1002)" class="st9" width="2.899" height="3"/>
<rect x="702.308" y="133.001" transform="matrix(-1 -0.0052 0.0052 -1 1406.906 272.6658)" class="st9" width="3" height="3"/>
<polyline class="st0" points="543.3,114 548.199,116.5 598.699,112.5 620,87.3 669.1,93.8 688.699,72 "/>
<polyline class="st0" points="620,143 652,111.1 741,114.1 760.3,127.6 798.8,72 "/>
<polyline class="st0" points="871.6,136 832.6,89.6 817.5,130 778.3,127.6 767.3,143 "/>
<path class="st6" d="M729.3,73.4"/>
<rect x="656.809" y="123.3" transform="matrix(-1 -0.0054 0.0054 -1 1315.8357 253.144)" class="st9" width="2.9" height="3"/>
<rect x="707.907" y="80.799" transform="matrix(-1 -0.0044 0.0044 -1 1418.3467 167.7037)" class="st9" width="2.899" height="3"/>
<g>
	<polygon class="st5" points="596.3,144.3 589,90.8 673.3,77.8 698.8,98.899 703.3,143.2 	"/>
	<g>
		<polyline class="st11" points="596.3,144.7 589,91.2 673.3,78.2 698.8,99.3 703.5,144.7 		"/>
		<line class="st4" x1="590.8" y1="104" x2="685.5" y2="89.2"/>
		<line class="st14" x1="592.1" y1="94.1" x2="626.8" y2="88.7"/>
		<line class="st14" x1="592.699" y1="97.399" x2="603.3" y2="95.8"/>
		<line class="st14" x1="593.899" y1="106.899" x2="607.6" y2="104.7"/>
		<line class="st14" x1="594.399" y1="111.1" x2="605" y2="109.399"/>
		<line class="st14" x1="594.899" y1="114" x2="613.899" y2="111.1"/>
		<line class="st14" x1="597.6" y1="131.1" x2="627.6" y2="126.399"/>
		<line class="st14" x1="598.3" y1="142.2" x2="610.399" y2="140.3"/>
		<line class="st14" x1="624.1" y1="143.2" x2="644.5" y2="140"/>
		<line class="st14" x1="649.699" y1="139.3" x2="670" y2="136.1"/>
		<line class="st14" x1="673.199" y1="135.5" x2="682.6" y2="134.2"/>
		<line class="st14" x1="673.8" y1="139" x2="694.399" y2="136.1"/>
		<line class="st14" x1="674.5" y1="141.899" x2="695.199" y2="139"/>
		<line class="st14" x1="683.899" y1="143.899" x2="695.8" y2="142.2"/>
		<line class="st14" x1="650.3" y1="142.399" x2="670.6" y2="139.3"/>
		<line class="st14" x1="662" y1="143.8" x2="671.1" y2="142.399"/>
		<line class="st14" x1="595.5" y1="117" x2="608.899" y2="114.899"/>
		<line class="st14" x1="596" y1="119.899" x2="607.8" y2="118.1"/>
		<line class="st14" x1="596.6" y1="122.6" x2="606.399" y2="121.1"/>
		<line class="st14" x1="598.3" y1="135.6" x2="603.3" y2="134.8"/>
		<line class="st14" x1="644.5" y1="103.6" x2="661.3" y2="101"/>
		<line class="st14" x1="644.899" y1="106.6" x2="663.899" y2="103.6"/>
		<line class="st14" x1="645.5" y1="109.6" x2="658.899" y2="107.5"/>
		<line class="st14" x1="646" y1="112.5" x2="674.8" y2="108"/>
		<line class="st14" x1="646.6" y1="115.2" x2="662.699" y2="112.7"/>
		<line class="st14" x1="597.199" y1="125.3" x2="614.5" y2="122.6"/>
		<line class="st14" x1="593.1" y1="100.399" x2="615" y2="97"/>
		<line class="st14" x1="644.5" y1="92.5" x2="668.8" y2="88.7"/>
		<line class="st4" x1="593.899" y1="128.6" x2="700.1" y2="112"/>
		<line class="st4" x1="594.899" y1="139.899" x2="701.1" y2="123.3"/>
		<g>
			<polygon class="st12" points="700.1,98.899 673.8,77.399 673.199,79.2 675.8,102.8 697.699,99.8 			"/>
		</g>
	</g>
</g>
<polygon class="st5" points="566.5,72.3 527.6,144 0,144 0,72.3 "/>
<rect x="0.1" y="144" class="st2" width="872" height="72"/>
<rect x="525.6" y="198.8" class="st10" width="7.5" height="7.7"/>
<rect x="548.1" y="160.2" class="st10" width="7.5" height="7.7"/>
<rect x="540.6" y="167.9" class="st10" width="7.5" height="7.699"/>
<rect x="548.1" y="175.6" class="st10" width="7.5" height="7.7"/>
<rect x="540.6" y="183.3" class="st10" width="7.5" height="7.7"/>
<rect x="548.1" y="191.1" class="st10" width="7.5" height="7.7"/>
<rect x="533.1" y="191.1" class="st10" width="7.5" height="7.7"/>
<rect x="554.7" y="183.3" class="st10" width="7.5" height="7.7"/>
<rect x="563.2" y="191.1" class="st10" width="7.5" height="7.7"/>
<rect x="555.7" y="167.9" class="st10" width="7.5" height="7.699"/>
<rect x="563.2" y="175.6" class="st10" width="7.5" height="7.7"/>
<rect x="570.7" y="183.3" class="st10" width="7.5" height="7.7"/>
<rect x="540.6" y="198.8" class="st10" width="7.5" height="7.7"/>
<rect x="533.1" y="207.2" class="st10" width="7.5" height="7.7"/>
<rect x="555.7" y="198.8" class="st10" width="7.5" height="7.7"/>
<rect x="570.7" y="198.8" class="st10" width="7.5" height="7.7"/>
<rect x="578.2" y="191.1" class="st10" width="7.5" height="7.7"/>
<rect x="585.7" y="198.8" class="st10" width="7.5" height="7.7"/>
<rect x="585.7" y="183.3" class="st10" width="7.5" height="7.7"/>
<rect x="578.2" y="175.6" class="st10" width="7.5" height="7.7"/>
<rect x="570.7" y="167.9" class="st10" width="7.5" height="7.699"/>
<rect x="563.2" y="160.2" class="st10" width="7.5" height="7.7"/>
<rect x="555.7" y="152.5" class="st10" width="7.5" height="7.7"/>
<rect x="563.2" y="144.8" class="st10" width="7.5" height="7.7"/>
<rect x="570.7" y="152.5" class="st10" width="7.5" height="7.7"/>
<rect x="578.2" y="144.8" class="st10" width="7.5" height="7.7"/>
<rect x="585.7" y="152.5" class="st10" width="7.5" height="7.7"/>
<rect x="578.2" y="160.2" class="st10" width="7.5" height="7.7"/>
<rect x="585.7" y="167.9" class="st10" width="7.5" height="7.699"/>
<rect x="593.3" y="144.8" class="st10" width="7.5" height="7.7"/>
<rect x="600.8" y="152.5" class="st10" width="7.5" height="7.7"/>
<rect x="608.3" y="160.2" class="st10" width="7.5" height="7.7"/>
<rect x="600.8" y="167.9" class="st10" width="7.5" height="7.699"/>
<rect x="608.3" y="175.6" class="st10" width="7.5" height="7.7"/>
<rect x="600.8" y="183.3" class="st10" width="7.5" height="7.7"/>
<rect x="608.3" y="191.1" class="st10" width="7.5" height="7.7"/>
<rect x="593.3" y="160.2" class="st10" width="7.5" height="7.7"/>
<rect x="593.3" y="175.6" class="st10" width="7.5" height="7.7"/>
<rect x="593.3" y="191.1" class="st10" width="7.5" height="7.7"/>
<rect x="614.8" y="183.3" class="st10" width="7.5" height="7.7"/>
<rect x="623.3" y="191.1" class="st10" width="7.5" height="7.7"/>
<rect x="615.8" y="167.9" class="st10" width="7.5" height="7.699"/>
<rect x="623.3" y="175.6" class="st10" width="7.5" height="7.7"/>
<rect x="630.8" y="183.3" class="st10" width="7.5" height="7.7"/>
<rect x="600.8" y="198.8" class="st10" width="7.5" height="7.7"/>
<rect x="615.8" y="198.8" class="st10" width="7.5" height="7.7"/>
<rect x="630.8" y="198.8" class="st10" width="7.5" height="7.7"/>
<rect x="638.4" y="191.1" class="st10" width="7.5" height="7.7"/>
<rect x="645.9" y="198.8" class="st10" width="7.5" height="7.7"/>
<rect x="645.9" y="183.3" class="st10" width="7.5" height="7.7"/>
<rect x="638.4" y="175.6" class="st10" width="7.5" height="7.7"/>
<rect x="630.8" y="167.9" class="st10" width="7.5" height="7.699"/>
<rect x="623.3" y="160.2" class="st10" width="7.5" height="7.7"/>
<rect x="615.8" y="152.5" class="st10" width="7.5" height="7.7"/>
<rect x="608.3" y="144.8" class="st10" width="7.5" height="7.7"/>
<rect x="623.3" y="144.8" class="st10" width="7.5" height="7.7"/>
<rect x="630.8" y="152.5" class="st10" width="7.5" height="7.7"/>
<rect x="638.4" y="144.8" class="st10" width="7.5" height="7.7"/>
<rect x="645.9" y="152.5" class="st10" width="7.5" height="7.7"/>
<rect x="638.4" y="160.2" class="st10" width="7.5" height="7.7"/>
<rect x="645.9" y="167.9" class="st10" width="7.5" height="7.699"/>
<rect x="653.4" y="144.8" class="st10" width="7.5" height="7.7"/>
<rect x="660.9" y="152.5" class="st10" width="7.5" height="7.7"/>
<rect x="668.5" y="160.2" class="st10" width="7.5" height="7.7"/>
<rect x="660.9" y="167.9" class="st10" width="7.5" height="7.699"/>
<rect x="668.5" y="175.6" class="st10" width="7.5" height="7.7"/>
<rect x="660.9" y="183.3" class="st10" width="7.5" height="7.7"/>
<rect x="668.5" y="191.1" class="st10" width="7.5" height="7.7"/>
<rect x="653.4" y="160.2" class="st10" width="7.5" height="7.7"/>
<rect x="653.4" y="175.6" class="st10" width="7.5" height="7.7"/>
<rect x="653.4" y="191.1" class="st10" width="7.5" height="7.7"/>
<rect x="675" y="183.3" class="st10" width="7.5" height="7.7"/>
<rect x="683.5" y="191.1" class="st10" width="7.5" height="7.7"/>
<rect x="676" y="167.9" class="st10" width="7.5" height="7.699"/>
<rect x="683.5" y="175.6" class="st10" width="7.5" height="7.7"/>
<rect x="691" y="183.3" class="st10" width="7.5" height="7.7"/>
<rect x="660.9" y="198.8" class="st10" width="7.5" height="7.7"/>
<rect x="676" y="198.8" class="st10" width="7.5" height="7.7"/>
<rect x="691" y="198.8" class="st10" width="7.5" height="7.7"/>
<rect x="698.5" y="191.1" class="st10" width="7.5" height="7.7"/>
<rect x="706" y="198.8" class="st10" width="7.5" height="7.7"/>
<rect x="706" y="183.3" class="st10" width="7.5" height="7.7"/>
<rect x="698.5" y="175.6" class="st10" width="7.5" height="7.7"/>
<rect x="691" y="167.9" class="st10" width="7.5" height="7.699"/>
<rect x="683.5" y="160.2" class="st10" width="7.5" height="7.7"/>
<rect x="676" y="152.5" class="st10" width="7.5" height="7.7"/>
<rect x="668.5" y="144.8" class="st10" width="7.5" height="7.7"/>
<rect x="683.5" y="144.8" class="st10" width="7.5" height="7.7"/>
<rect x="691" y="152.5" class="st10" width="7.5" height="7.7"/>
<rect x="698.5" y="144.8" class="st10" width="7.5" height="7.7"/>
<rect x="706" y="152.5" class="st10" width="7.5" height="7.7"/>
<rect x="698.5" y="160.2" class="st10" width="7.5" height="7.7"/>
<rect x="706" y="167.9" class="st10" width="7.5" height="7.699"/>
<rect x="713.6" y="144.8" class="st10" width="7.5" height="7.7"/>
<rect x="721.1" y="152.5" class="st10" width="7.5" height="7.7"/>
<rect x="728.6" y="160.2" class="st10" width="7.5" height="7.7"/>
<rect x="721.1" y="167.9" class="st10" width="7.5" height="7.699"/>
<rect x="728.6" y="175.6" class="st10" width="7.5" height="7.7"/>
<rect x="721.1" y="183.3" class="st10" width="7.5" height="7.7"/>
<rect x="728.6" y="191.1" class="st10" width="7.5" height="7.7"/>
<rect x="713.6" y="160.2" class="st10" width="7.5" height="7.7"/>
<rect x="713.6" y="175.6" class="st10" width="7.5" height="7.7"/>
<rect x="713.6" y="191.1" class="st10" width="7.5" height="7.7"/>
<rect x="735.1" y="183.3" class="st10" width="7.5" height="7.7"/>
<rect x="743.7" y="191.1" class="st10" width="7.5" height="7.7"/>
<rect x="736.1" y="167.9" class="st10" width="7.5" height="7.699"/>
<rect x="743.7" y="175.6" class="st10" width="7.5" height="7.7"/>
<rect x="751.2" y="183.3" class="st10" width="7.5" height="7.7"/>
<rect x="721.1" y="198.8" class="st10" width="7.5" height="7.7"/>
<rect x="736.1" y="198.8" class="st10" width="7.5" height="7.7"/>
<rect x="751.2" y="198.8" class="st10" width="7.5" height="7.7"/>
<rect x="758.7" y="191.1" class="st10" width="7.5" height="7.7"/>
<rect x="766.2" y="198.8" class="st10" width="7.5" height="7.7"/>
<rect x="766.2" y="183.3" class="st10" width="7.5" height="7.7"/>
<rect x="758.7" y="175.6" class="st10" width="7.5" height="7.7"/>
<rect x="751.2" y="167.9" class="st10" width="7.5" height="7.699"/>
<rect x="743.7" y="160.2" class="st10" width="7.5" height="7.7"/>
<rect x="736.1" y="152.5" class="st10" width="7.5" height="7.7"/>
<rect x="728.6" y="144.8" class="st10" width="7.5" height="7.7"/>
<rect x="743.7" y="144.8" class="st10" width="7.5" height="7.7"/>
<rect x="751.2" y="152.5" class="st10" width="7.5" height="7.7"/>
<rect x="758.7" y="144.8" class="st10" width="7.5" height="7.7"/>
<rect x="766.2" y="152.5" class="st10" width="7.5" height="7.7"/>
<rect x="758.7" y="160.2" class="st10" width="7.5" height="7.7"/>
<rect x="766.2" y="167.9" class="st10" width="7.5" height="7.699"/>
<rect x="773.7" y="144.8" class="st10" width="7.5" height="7.7"/>
<rect x="781.3" y="152.5" class="st10" width="7.5" height="7.7"/>
<rect x="788.8" y="160.2" class="st10" width="7.5" height="7.7"/>
<rect x="781.3" y="167.9" class="st10" width="7.5" height="7.699"/>
<rect x="788.8" y="175.6" class="st10" width="7.5" height="7.7"/>
<rect x="781.3" y="183.3" class="st10" width="7.5" height="7.7"/>
<rect x="788.8" y="191.1" class="st10" width="7.5" height="7.7"/>
<rect x="773.7" y="160.2" class="st10" width="7.5" height="7.7"/>
<rect x="773.7" y="175.6" class="st10" width="7.5" height="7.7"/>
<rect x="773.7" y="191.1" class="st10" width="7.5" height="7.7"/>
<rect x="795.3" y="183.3" class="st10" width="7.5" height="7.7"/>
<rect x="803.8" y="191.1" class="st10" width="7.5" height="7.7"/>
<rect x="796.3" y="167.9" class="st10" width="7.5" height="7.699"/>
<rect x="803.8" y="175.6" class="st10" width="7.5" height="7.7"/>
<rect x="811.3" y="183.3" class="st10" width="7.5" height="7.7"/>
<rect x="781.3" y="198.8" class="st10" width="7.5" height="7.7"/>
<rect x="796.3" y="198.8" class="st10" width="7.5" height="7.7"/>
<rect x="811.3" y="198.8" class="st10" width="7.5" height="7.7"/>
<rect x="818.9" y="191.1" class="st10" width="7.5" height="7.7"/>
<rect x="826.4" y="198.8" class="st10" width="7.5" height="7.7"/>
<rect x="826.4" y="183.3" class="st10" width="7.5" height="7.7"/>
<rect x="818.9" y="175.6" class="st10" width="7.5" height="7.7"/>
<rect x="811.3" y="167.9" class="st10" width="7.5" height="7.699"/>
<rect x="803.8" y="160.2" class="st10" width="7.5" height="7.7"/>
<rect x="796.3" y="152.5" class="st10" width="7.5" height="7.7"/>
<rect x="788.8" y="144.8" class="st10" width="7.5" height="7.7"/>
<rect x="803.8" y="144.8" class="st10" width="7.5" height="7.7"/>
<rect x="811.3" y="152.5" class="st10" width="7.5" height="7.7"/>
<rect x="818.9" y="144.8" class="st10" width="7.5" height="7.7"/>
<rect x="826.4" y="152.5" class="st10" width="7.5" height="7.7"/>
<rect x="818.9" y="160.2" class="st10" width="7.5" height="7.7"/>
<rect x="826.4" y="167.9" class="st10" width="7.5" height="7.699"/>
<rect x="833.9" y="160.2" class="st10" width="7.5" height="7.7"/>
<rect x="833.9" y="175.6" class="st10" width="7.5" height="7.7"/>
<rect x="833.9" y="191.1" class="st10" width="7.5" height="7.7"/>
<rect x="840.4" y="183.3" class="st10" width="7.5" height="7.7"/>
<rect x="848.9" y="191.1" class="st10" width="7.5" height="7.7"/>
<rect x="841.4" y="167.9" class="st10" width="7.5" height="7.699"/>
<rect x="848.9" y="175.6" class="st10" width="7.5" height="7.7"/>
<rect x="856.5" y="183.3" class="st10" width="7.5" height="7.7"/>
<rect x="841.4" y="198.8" class="st10" width="7.5" height="7.7"/>
<rect x="856.5" y="198.8" class="st10" width="7.5" height="7.7"/>
<rect x="864" y="191.1" class="st10" width="7.5" height="7.7"/>
<rect x="864" y="175.6" class="st10" width="7.5" height="7.7"/>
<rect x="856.5" y="167.9" class="st10" width="7.5" height="7.699"/>
<rect x="848.9" y="160.2" class="st10" width="7.5" height="7.7"/>
<rect x="841.4" y="152.5" class="st10" width="7.5" height="7.7"/>
<rect x="833.9" y="144.8" class="st10" width="7.5" height="7.7"/>
<rect x="848.9" y="144.8" class="st10" width="7.5" height="7.7"/>
<rect x="856.5" y="152.5" class="st10" width="7.5" height="7.7"/>
<rect x="864" y="144.8" class="st10" width="7.5" height="7.7"/>
<rect x="864" y="160.2" class="st10" width="7.5" height="7.7"/>
<rect x="548.1" y="207.2" class="st10" width="7.5" height="7.7"/>
<rect x="563.2" y="207.2" class="st10" width="7.5" height="7.7"/>
<rect x="578.2" y="207.2" class="st10" width="7.5" height="7.7"/>
<rect x="608.3" y="207.2" class="st10" width="7.5" height="7.7"/>
<rect x="593.3" y="207.2" class="st10" width="7.5" height="7.7"/>
<rect x="623.3" y="207.2" class="st10" width="7.5" height="7.7"/>
<rect x="638.4" y="207.2" class="st10" width="7.5" height="7.7"/>
<rect x="668.5" y="207.2" class="st10" width="7.5" height="7.7"/>
<rect x="653.4" y="207.2" class="st10" width="7.5" height="7.7"/>
<rect x="683.5" y="207.2" class="st10" width="7.5" height="7.7"/>
<rect x="698.5" y="207.2" class="st10" width="7.5" height="7.7"/>
<rect x="728.6" y="207.2" class="st10" width="7.5" height="7.7"/>
<rect x="713.6" y="207.2" class="st10" width="7.5" height="7.7"/>
<rect x="743.7" y="207.2" class="st10" width="7.5" height="7.7"/>
<rect x="758.7" y="207.2" class="st10" width="7.5" height="7.7"/>
<rect x="788.8" y="207.2" class="st10" width="7.5" height="7.7"/>
<rect x="773.7" y="207.2" class="st10" width="7.5" height="7.7"/>
<rect x="803.8" y="207.2" class="st10" width="7.5" height="7.7"/>
<rect x="818.9" y="207.2" class="st10" width="7.5" height="7.7"/>
<rect x="833.9" y="207.2" class="st10" width="7.5" height="7.7"/>
<rect x="848.9" y="207.2" class="st10" width="7.5" height="7.7"/>
<rect x="864" y="207.2" class="st10" width="7.5" height="7.7"/>
<polygon class="st5" points="595.3,216 588,162.5 672.3,149.5 697.8,170.6 702.3,214.9 "/>
<g>
	<polyline class="st11" points="595.2,216 587.9,162.5 672.2,149.5 697.7,170.6 702.4,216 	"/>
	<line class="st4" x1="589.7" y1="175.2" x2="684.4" y2="160.5"/>
	<line class="st14" x1="590.9" y1="165.4" x2="625.7" y2="160"/>
	<line class="st14" x1="591.6" y1="168.7" x2="602.2" y2="167"/>
	<line class="st14" x1="592.8" y1="178.1" x2="606.5" y2="176"/>
	<line class="st14" x1="593.3" y1="182.3" x2="603.9" y2="180.7"/>
	<line class="st14" x1="593.8" y1="185.3" x2="612.8" y2="182.3"/>
	<line class="st14" x1="596.5" y1="202.3" x2="626.5" y2="197.7"/>
	<line class="st14" x1="597.2" y1="213.5" x2="609.3" y2="211.6"/>
	<line class="st14" x1="623" y1="214.5" x2="643.3" y2="211.3"/>
	<line class="st14" x1="648.5" y1="210.5" x2="668.9" y2="207.4"/>
	<line class="st14" x1="672.1" y1="206.8" x2="681.5" y2="205.5"/>
	<line class="st14" x1="672.7" y1="210.3" x2="693.3" y2="207.4"/>
	<line class="st14" x1="673.3" y1="213.2" x2="694" y2="210.3"/>
	<line class="st14" x1="682.8" y1="215.2" x2="694.7" y2="213.5"/>
	<line class="st14" x1="649.1" y1="213.7" x2="669.5" y2="210.5"/>
	<line class="st14" x1="660.9" y1="215.1" x2="669.9" y2="213.7"/>
	<line class="st14" x1="594.4" y1="188.3" x2="607.8" y2="186.2"/>
	<line class="st14" x1="594.9" y1="191.2" x2="606.7" y2="189.4"/>
	<line class="st14" x1="595.4" y1="193.9" x2="605.3" y2="192.3"/>
	<line class="st14" x1="597.2" y1="206.9" x2="602.1" y2="206.1"/>
	<line class="st14" x1="643.3" y1="174.9" x2="660.1" y2="172.3"/>
	<line class="st14" x1="643.8" y1="177.9" x2="662.8" y2="174.9"/>
	<line class="st14" x1="644.4" y1="180.9" x2="657.8" y2="178.8"/>
	<line class="st14" x1="644.9" y1="183.8" x2="673.7" y2="179.3"/>
	<line class="st14" x1="645.5" y1="186.5" x2="661.5" y2="184"/>
	<line class="st14" x1="596" y1="196.6" x2="613.3" y2="193.9"/>
	<line class="st14" x1="592" y1="171.7" x2="613.9" y2="168.3"/>
	<line class="st14" x1="643.3" y1="163.8" x2="667.7" y2="160"/>
	<line class="st4" x1="592.8" y1="199.8" x2="699" y2="183.3"/>
	<line class="st4" x1="593.8" y1="211.2" x2="700" y2="194.6"/>
	<g>
		<polygon class="st12" points="699,170.2 672.7,148.6 672.1,150.5 674.7,174.1 696.6,171.1 		"/>
	</g>
</g>
<polygon class="st5" points="565.9,144 527.7,215.7 -0.1,215.7 -0.1,144 "/>
<rect x="0.4" y="216.15" class="st2" width="871.999" height="72"/>
<g class="st1">
	<path class="st15" d="M853.3,264.351c-0.9,7.8-8,13.399-15.9,12.5c-7.898-0.9-13.5-8-12.5-15.9c0.9-7.8,8-13.5,15.9-12.5
		C848.601,249.351,854.2,256.45,853.3,264.351z"/>
	<path class="st15" d="M823.8,241.551l-4-6.801c-15.1,8.7-20.199,28-11.5,43.101l6.801-4
		C808.601,262.551,812.501,248.051,823.8,241.551z"/>
	<path class="st3" d="M806.2,225.25l-4-6.8c-22.6,13.101-30.4,42-17.301,64.7l6.801-4C780.899,260.351,787.3,236.15,806.2,225.25z"
		/>
	<path class="st10" d="M690.101,288.65c-12.201-22.6-13.301-48.7-4.701-71.6h-8.398c-7.801,23-6.801,48.699,4.199,71.6H690.101z"/>
	<path class="st8" d="M717.899,287.15c-10.299-22.9-9.799-48.3-0.299-70.2h-8.6c-8.701,22.101-9,47.2,0.299,70.2H717.899z"/>
	<path class="st17" d="M743.899,287.15c-12-22.8-10.299-49.5,2.5-70.2h-9.1c-11.4,21.3-12.799,47.2-2.199,70.2H743.899z"/>
	<path class="st16" d="M763.3,287.45l5.1-3c-13-22.5-8.299-50.3,9.602-67.5h-11.102c-15.699,19.5-18.898,47.3-6.199,70.4
		L763.3,287.45L763.3,287.45z"/>
</g>
<polygon class="st2" points="597.501,288.15 590.3,234.65 674.501,221.65 700.001,242.75 704.8,288.15 "/>
<polygon class="st5" points="568.2,216.15 529.001,287.851 0.2,287.851 0.2,216.15 "/>
<g>
	<polyline class="st11" points="597.501,288.15 590.3,234.65 674.501,221.65 700.001,242.75 704.8,288.15 	"/>
	<line class="st4" x1="592.101" y1="247.351" x2="686.7" y2="232.65"/>
	<line class="st14" x1="593.3" y1="237.551" x2="628.001" y2="232.15"/>
	<line class="st14" x1="593.899" y1="240.851" x2="604.501" y2="239.15"/>
	<line class="st14" x1="595.101" y1="250.25" x2="608.899" y2="248.15"/>
	<line class="st14" x1="595.7" y1="254.45" x2="606.2" y2="252.851"/>
	<line class="st14" x1="596.101" y1="257.45" x2="615.101" y2="254.45"/>
	<line class="st14" x1="598.8" y1="274.45" x2="628.8" y2="269.851"/>
	<line class="st14" x1="599.501" y1="285.65" x2="611.601" y2="283.75"/>
	<line class="st14" x1="625.3" y1="286.65" x2="645.7" y2="283.45"/>
	<line class="st14" x1="650.899" y1="282.65" x2="671.2" y2="279.551"/>
	<line class="st14" x1="674.399" y1="278.95" x2="683.8" y2="277.65"/>
	<line class="st14" x1="675.001" y1="282.45" x2="695.601" y2="279.551"/>
	<line class="st14" x1="675.7" y1="285.351" x2="696.399" y2="282.45"/>
	<line class="st14" x1="685.101" y1="287.351" x2="697.101" y2="285.65"/>
	<line class="st14" x1="651.501" y1="285.851" x2="671.8" y2="282.65"/>
	<line class="st14" x1="663.2" y1="287.25" x2="672.3" y2="285.851"/>
	<line class="st14" x1="596.7" y1="260.45" x2="610.101" y2="258.351"/>
	<line class="st14" x1="597.2" y1="263.351" x2="609.001" y2="261.551"/>
	<line class="st14" x1="597.8" y1="266.051" x2="607.601" y2="264.45"/>
	<line class="st14" x1="599.501" y1="279.051" x2="604.501" y2="278.25"/>
	<line class="st14" x1="645.7" y1="247.051" x2="662.501" y2="244.45"/>
	<line class="st14" x1="646.2" y1="250.051" x2="665.101" y2="247.051"/>
	<line class="st14" x1="646.7" y1="253.051" x2="660.101" y2="250.95"/>
	<line class="st14" x1="647.3" y1="255.95" x2="676.101" y2="251.45"/>
	<line class="st14" x1="647.8" y1="258.65" x2="663.899" y2="256.15"/>
	<line class="st14" x1="598.399" y1="268.75" x2="615.7" y2="266.051"/>
	<line class="st14" x1="594.3" y1="243.851" x2="616.2" y2="240.45"/>
	<line class="st14" x1="645.7" y1="235.95" x2="670.101" y2="232.15"/>
	<line class="st4" x1="595.101" y1="271.95" x2="701.3" y2="255.45"/>
	<line class="st4" x1="596.101" y1="283.351" x2="702.3" y2="266.75"/>
	<g>
		<polygon class="st12" points="701.3,242.351 675.001,220.75 674.399,222.65 677.101,246.25 698.899,243.25 		"/>
	</g>
</g>
<rect x="0.1" y="287.851" class="st2" width="872" height="72"/>
<polygon class="st5" points="524.6,287.851 485.5,359.551 -0.1,359.551 -0.1,287.851 "/>
<g class="st7">
	<g>
		<path class="st13" d="M572.5,316.051c0,0-17.1,0.399-18.2,16.399c-1.1,16,9,19.7,15.601,20.301c6.6,0.6,59.8,0.5,59.8,0.5
			s12.5-1.101,14.6-16.9c2-14.8-13-18.5-13-18.5s2.3-14.6-12.8-21.7c-13.6-6.3-24.8,8.3-24.8,8.3s-7.3-5.699-13.9-3.8
			C571.1,303.051,572.5,316.051,572.5,316.051z"/>
		<path class="st13" d="M572.5,316.051c0,0-17.1,0.399-18.2,16.399c-1.1,16,9,19.7,15.601,20.301c6.6,0.6,59.8,0.5,59.8,0.5
			s12.5-1.101,14.6-16.9c2-14.8-13-18.5-13-18.5s2.3-14.6-12.8-21.7c-13.6-6.3-24.8,8.3-24.8,8.3s-7.3-5.699-13.9-3.8
			C571.1,303.051,572.5,316.051,572.5,316.051z"/>
	</g>
</g>
</svg>
