<svg xmlns="http://www.w3.org/2000/svg" width="872" height="576.5" viewBox="0 0 872 576.5"><style type="text/css"><![CDATA[
	.st0{opacity:0.13;fill:none;stroke:#010202;stroke-width:2;enable-background:new;}
	.st1{fill:#E6E6E6;}	.st2{fill:#4E4D4D;}	.st3{opacity:0.18;}	.st4{fill:#EECDAE;}
	.st5{opacity:0.75;fill:#5E5E5D;enable-background:new;}	.st6{fill:#535252;}
	.st7{opacity:0.75;fill:#3D3D3C;enable-background:new;}	.st8{fill:#F2DAC3;}
	.st9{opacity:0.13;fill:none;stroke:#010202;stroke-width:0.75;enable-background:new;}
	.st10{opacity:0.8;enable-background:new;}
	.st11{opacity:0.13;fill:#3D3D3C;stroke:#010202;stroke-width:2;enable-background:new;}
	.st12{opacity:0.5;}	.st13{fill:#FFFFFF;} .st14{opacity:0.1;fill:#3D3D3C;enable-background:new;}
	.st15{fill:#CFCFCF;} .st16{fill:#FFFFFF;stroke:#CFCFCF;stroke-width:2;stroke-miterlimit:10;}
	.st17{fill:#3D3D3C;} .st18{opacity:0.5;fill:#3D3D3C;enable-background:new;}
	.st19{opacity:0.25;fill:#3D3D3C;enable-background:new;}
]]></style><path class="st4" d="M.2 0h872v72h-872z"/><path class="st11" d="M817.016 13.693l2.9.014-.014 3-2.9-.014zm-12.604 25.101l2.9.012-.012 3-2.9-.012zm-6.996-15.301l2.9.014-.014 3-2.9-.014zm61.9 9.201l2.9.013-.014 3-2.9-.013zm-20.396 6.299l2.9.015-.016 3-2.9-.015zm-117.205 12.1l3 .015-.014 3-3-.015zm37.6-13.699l2.9.013-.014 3-2.9-.013zm-17.797-8.001l3 .015-.016 3-3-.015zm29.797-25.5l2.9.014-.014 3-2.9-.014zm-83.2 11.3l3 .014-.015 3-3-.014zm-68.101 26.701l2.9.013-.014 3-2.9-.013zm-12.599-34.701l2.9.014-.015 3-2.9-.014zm-34.102 41.001l2.9.013-.014 3-2.9-.013zm-27.499-31.601l2.9.014-.015 3-2.9-.014zm-11.502 35.301l2.9.013-.013 3-2.9-.013zm25.702-21.101l3 .015-.015 3-3-.015zm92.002-23.6l2.9.014-.015 3-2.9-.014zm50.301 53.6l3 .016-.015 3-3-.017z"/><path class="st0" d="M543.3 41.8l4.9 2.4 50.5-4 21.3-25.2 49.1 6.5 19.6-21.7m-68.7 71l32-32 89 3 19.3 13.5 38.5-55.5m72.8 64l-39-46.5-15.1 40.5-39.2-2.5-11 15.5"/><path class="st11" d="M656.817 51.093l2.9.015-.016 3-2.9-.015zm51.096-42.499l2.9.012-.013 3-2.9-.012z"/><path class="st8" d="M566.5 0l-38.9 71.8h-527.6v-71.8z"/><path class="st4" d="M.1 215.6h872v72h-872z"/><path class="st8" d="M524.6 215.6l-39.1 71.7h-485.6v-71.7z"/><path class="st16" d="M572.5 243.8s-17.1.4-18.2 16.4c-1.1 16 9 19.7 15.6 20.3 6.6.6 59.8.5 59.8.5s12.5-1.1 14.6-16.9c2-14.8-13-18.5-13-18.5s2.3-14.6-12.8-21.7c-13.6-6.3-24.8 8.3-24.8 8.3s-7.3-5.7-13.9-3.8c-8.7 2.4-7.3 15.4-7.3 15.4zm0 0s-17.1.4-18.2 16.4c-1.1 16 9 19.7 15.6 20.3 6.6.6 59.8.5 59.8.5s12.5-1.1 14.6-16.9c2-14.8-13-18.5-13-18.5s2.3-14.6-12.8-21.7c-13.6-6.3-24.8 8.3-24.8 8.3s-7.3-5.7-13.9-3.8c-8.7 2.4-7.3 15.4-7.3 15.4z"/><path class="st2" d="M.2 288.3h872v72h-872z"/><path class="st11" d="M817.016 301.997l2.9.013-.014 3-2.9-.013zm-12.604 25.2l2.9.01-.012 3-2.9-.01zm-6.996-15.4l2.9.013-.014 3-2.9-.013zm61.9 9.2l2.9.013-.014 3-2.9-.013zm-20.396 6.3l2.9.015-.016 3-2.9-.015zm-117.206 12.1l3 .013-.014 3-3-.013zm37.601-13.7l2.9.013-.014 3-2.9-.013zm-17.797-8l3 .015-.016 3-3-.015zm29.797-25.501l2.9.014-.014 3-2.9-.014zm-83.201 11.3l3 .014-.014 3-3-.014zm-68.1 26.701l2.9.013-.014 3-2.9-.013zm-12.597-34.701l2.9.016-.017 3-2.9-.016zm-34.104 41.001l2.9.014-.014 3-2.9-.013zm-27.497-31.6l2.9.015-.016 3-2.9-.015zm-11.503 35.3l2.9.014-.014 3-2.9-.013zm25.702-21.1l3 .015-.015 3-3-.015zm92.002-23.601l2.9.016-.016 3-2.9-.016zm50.3 53.601l3 .015-.015 3-3-.015z"/><path class="st0" d="M543.3 330l4.9 2.5 50.5-4 21.3-25.2 49.1 6.5 19.6-21.8m-68.7 71l32-31.9 89 3 19.3 13.5 38.5-55.6m72.8 64l-39-46.4-15.1 40.4-39.2-2.4-11 15.4"/><path class="st9" d="M729.3 289.5"/><path class="st11" d="M656.817 339.397l2.9.016-.016 3-2.9-.016zm51.095-42.5l2.9.01-.012 3-2.9-.01z"/><path class="st5" d="M566.5 288.3l-38.9 71.7h-527.6v-71.7z"/><path class="st2" d="M.1 360h872v72h-872z"/><path class="st6" d="M525.6 414.8h7.5v7.7h-7.5zm22.5-38.6h7.5v7.7h-7.5zm-7.5 7.8h7.5v7.7h-7.5zm7.5 7.6h7.5v7.7h-7.5zm-7.5 7.7h7.5v7.7h-7.5zm7.5 7.8h7.5v7.7h-7.5zm-15 0h7.5v7.7h-7.5zm21.6-7.8h7.5v7.7h-7.5zm8.5 7.8h7.5v7.7h-7.5zm-7.5-23.1h7.5v7.7h-7.5zm7.5 7.6h7.5v7.7h-7.5zm7.5 7.7h7.5v7.7h-7.5zm-30.1 15.5h7.5v7.7h-7.5zm-7.5 8.4h7.5v7.7h-7.5zm22.6-8.4h7.5v7.7h-7.5zm15 0h7.5v7.7h-7.5zm7.5-7.7h7.5v7.7h-7.5zm7.5 7.7h7.5v7.7h-7.5zm0-15.5h7.5v7.7h-7.5zm-7.5-7.7h7.5v7.7h-7.5zm-7.5-7.6h7.5v7.7h-7.5zm-7.5-7.8h7.5v7.7h-7.5zm-7.5-7.7h7.5v7.7h-7.5zm7.5-7.7h7.5v7.7h-7.5zm7.5 7.7h7.5v7.7h-7.5zm7.5-7.7h7.5v7.7h-7.5zm7.5 7.7h7.5v7.7h-7.5zm-7.5 7.7h7.5v7.7h-7.5zm7.5 7.8h7.5v7.7h-7.5zm7.6-23.2h7.5v7.7h-7.5zm7.5 7.7h7.5v7.7h-7.5zm7.5 7.7h7.5v7.7h-7.5zm-7.5 7.8h7.5v7.7h-7.5zm7.5 7.6h7.5v7.7h-7.5zm-7.5 7.7h7.5v7.7h-7.5zm7.5 7.8h7.5v7.7h-7.5zm-15-30.9h7.5v7.7h-7.5zm0 15.4h7.5v7.7h-7.5zm0 15.5h7.5v7.7h-7.5zm21.5-7.8h7.5v7.7h-7.5zm8.5 7.8h7.5v7.7h-7.5zm-7.5-23.1h7.5v7.7h-7.5zm7.5 7.6h7.5v7.7h-7.5zm7.5 7.7h7.5v7.7h-7.5zm-30 15.5h7.5v7.7h-7.5zm15 0h7.5v7.7h-7.5zm15 0h7.5v7.7h-7.5zm7.6-7.7h7.5v7.7h-7.5zm7.5 7.7h7.5v7.7h-7.5zm0-15.5h7.5v7.7h-7.5zm-7.5-7.7h7.5v7.7h-7.5zm-7.6-7.6h7.5v7.7h-7.5zm-7.5-7.8h7.5v7.7h-7.5zm-7.5-7.7h7.5v7.7h-7.5zm-7.5-7.7h7.5v7.7h-7.5zm15 0h7.5v7.7h-7.5zm7.5 7.7h7.5v7.7h-7.5zm7.6-7.7h7.5v7.7h-7.5zm7.5 7.7h7.5v7.7h-7.5zm-7.5 7.7h7.5v7.7h-7.5zm7.5 7.8h7.5v7.7h-7.5zm7.5-23.2h7.5v7.7h-7.5zm7.5 7.7h7.5v7.7h-7.5zm7.6 7.7h7.5v7.7h-7.5zm-7.6 7.8h7.5v7.7h-7.5zm7.6 7.6h7.5v7.7h-7.5zm-7.6 7.7h7.5v7.7h-7.5zm7.6 7.8h7.5v7.7h-7.5zm-15.1-30.9h7.5v7.7h-7.5zm0 15.4h7.5v7.7h-7.5zm0 15.5h7.5v7.7h-7.5zm21.6-7.8h7.5v7.7h-7.5zm8.5 7.8h7.5v7.7h-7.5zm-7.5-23.1h7.5v7.7h-7.5zm7.5 7.6h7.5v7.7h-7.5zm7.5 7.7h7.5v7.7h-7.5zm-30.1 15.5h7.5v7.7h-7.5zm15.1 0h7.5v7.7h-7.5zm15 0h7.5v7.7h-7.5zm7.5-7.7h7.5v7.7h-7.5zm7.5 7.7h7.5v7.7h-7.5zm0-15.5h7.5v7.7h-7.5zm-7.5-7.7h7.5v7.7h-7.5zm-7.5-7.6h7.5v7.7h-7.5zm-7.5-7.8h7.5v7.7h-7.5zm-7.5-7.7h7.5v7.7h-7.5zm-7.5-7.7h7.5v7.7h-7.5zm15 0h7.5v7.7h-7.5zm7.5 7.7h7.5v7.7h-7.5zm7.5-7.7h7.5v7.7h-7.5zm7.5 7.7h7.5v7.7h-7.5zm-7.5 7.7h7.5v7.7h-7.5zm7.5 7.8h7.5v7.7h-7.5zm7.6-23.2h7.5v7.7h-7.5zm7.5 7.7h7.5v7.7h-7.5zm7.5 7.7h7.5v7.7h-7.5zm-7.5 7.8h7.5v7.7h-7.5zm7.5 7.6h7.5v7.7h-7.5zm-7.5 7.7h7.5v7.7h-7.5zm7.5 7.8h7.5v7.7h-7.5zm-15-30.9h7.5v7.7h-7.5zm0 15.4h7.5v7.7h-7.5zm0 15.5h7.5v7.7h-7.5zm21.5-7.8h7.5v7.7h-7.5zm8.6 7.8h7.5v7.7h-7.5zm-7.6-23.1h7.5v7.7h-7.5zm7.6 7.6h7.5v7.7h-7.5zm7.5 7.7h7.5v7.7h-7.5zm-30.1 15.5h7.5v7.7h-7.5zm15 0h7.5v7.7h-7.5zm15.1 0h7.5v7.7h-7.5zm7.5-7.7h7.5v7.7h-7.5zm7.5 7.7h7.5v7.7h-7.5zm0-15.5h7.5v7.7h-7.5zm-7.5-7.7h7.5v7.7h-7.5zm-7.5-7.6h7.5v7.7h-7.5zm-7.5-7.8h7.5v7.7h-7.5zm-7.6-7.7h7.5v7.7h-7.5zm-7.5-7.7h7.5v7.7h-7.5zm15.1 0h7.5v7.7h-7.5zm7.5 7.7h7.5v7.7h-7.5zm7.5-7.7h7.5v7.7h-7.5zm7.5 7.7h7.5v7.7h-7.5zm-7.5 7.7h7.5v7.7h-7.5zm7.5 7.8h7.5v7.7h-7.5zm7.5-23.2h7.5v7.7h-7.5zm7.6 7.7h7.5v7.7h-7.5zm7.5 7.7h7.5v7.7h-7.5zm-7.5 7.8h7.5v7.7h-7.5zm7.5 7.6h7.5v7.7h-7.5zm-7.5 7.7h7.5v7.7h-7.5zm7.5 7.8h7.5v7.7h-7.5zm-15.1-30.9h7.5v7.7h-7.5zm0 15.4h7.5v7.7h-7.5zm0 15.5h7.5v7.7h-7.5zm21.6-7.8h7.5v7.7h-7.5zm8.5 7.8h7.5v7.7h-7.5zm-7.5-23.1h7.5v7.7h-7.5zm7.5 7.6h7.5v7.7h-7.5zm7.5 7.7h7.5v7.7h-7.5zm-30 15.5h7.5v7.7h-7.5zm15 0h7.5v7.7h-7.5zm15 0h7.5v7.7h-7.5zm7.6-7.7h7.5v7.7h-7.5zm7.5 7.7h7.5v7.7h-7.5zm0-15.5h7.5v7.7h-7.5zm-7.5-7.7h7.5v7.7h-7.5zm-7.6-7.6h7.5v7.7h-7.5zm-7.5-7.8h7.5v7.7h-7.5zm-7.5-7.7h7.5v7.7h-7.5zm-7.5-7.7h7.5v7.7h-7.5zm15 0h7.5v7.7h-7.5zm7.5 7.7h7.5v7.7h-7.5zm7.6-7.7h7.5v7.7h-7.5zm7.5 7.7h7.5v7.7h-7.5zm-7.5 7.7h7.5v7.7h-7.5zm7.5 7.8h7.5v7.7h-7.5zm7.5-7.8h7.5v7.7h-7.5zm0 15.4h7.5v7.7h-7.5zm0 15.5h7.5v7.7h-7.5zm6.5-7.8h7.5v7.7h-7.5zm8.5 7.8h7.5v7.7h-7.5zm-7.5-23.1h7.5v7.7h-7.5zm7.5 7.6h7.5v7.7h-7.5zm7.6 7.7h7.5v7.7h-7.5zm-15.1 15.5h7.5v7.7h-7.5zm15.1 0h7.5v7.7h-7.5zm7.5-7.7h7.5v7.7h-7.5zm0-15.5h7.5v7.7h-7.5zm-7.5-7.6h7.5v7.7h-7.5zm-7.6-7.8h7.5v7.7h-7.5zm-7.5-7.7h7.5v7.7h-7.5zm-7.5-7.7h7.5v7.7h-7.5zm15 0h7.5v7.7h-7.5zm7.6 7.7h7.5v7.7h-7.5zm7.5-7.7h7.5v7.7h-7.5zm0 15.4h7.5v7.7h-7.5zm-315.9 47h7.5v7.7h-7.5zm15.1 0h7.5v7.7h-7.5zm15 0h7.5v7.7h-7.5zm30.1 0h7.5v7.7h-7.5zm-15 0h7.5v7.7h-7.5zm30 0h7.5v7.7h-7.5zm15.1 0h7.5v7.7h-7.5zm30.1 0h7.5v7.7h-7.5zm-15.1 0h7.5v7.7h-7.5zm30.1 0h7.5v7.7h-7.5zm15 0h7.5v7.7h-7.5zm30.1 0h7.5v7.7h-7.5zm-15 0h7.5v7.7h-7.5zm30.1 0h7.5v7.7h-7.5zm15 0h7.5v7.7h-7.5zm30.1 0h7.5v7.7h-7.5zm-15.1 0h7.5v7.7h-7.5zm30.1 0h7.5v7.7h-7.5zm15.1 0h7.5v7.7h-7.5zm15 0h7.5v7.7h-7.5zm15 0h7.5v7.7h-7.5zm15.1 0h7.5v7.7h-7.5z"/><path class="st5" d="M565.9 360l-38.2 71.8h-527.8v-71.8z"/><path class="st2" d="M.4 432.2h872v72h-872z"/><g class="st12"><path class="st17" d="M853.3 480.5c-.9 7.8-8 13.4-15.9 12.5-7.9-.9-13.5-8-12.5-15.9.9-7.8 8-13.5 15.9-12.5 7.8.9 13.4 7.9 12.5 15.9zm-29.5-22.9l-4-6.8c-15.1 8.7-20.2 28-11.5 43.1l6.8-4c-6.5-11.3-2.6-25.8 8.7-32.3z"/><path class="st7" d="M806.2 441.3l-4-6.8c-22.6 13.1-30.4 42-17.3 64.7l6.8-4c-10.8-18.7-4.4-43 14.5-53.9z"/><path class="st14" d="M690.1 504.8c-12.2-22.6-13.3-48.7-4.7-71.6h-8.4c-7.8 23-6.8 48.7 4.2 71.6h8.9zm27.8-1.6c-10.3-22.9-9.8-48.3-.3-70.2h-8.6c-8.7 22.1-9 47.2.3 70.2h8.6z"/><path class="st19" d="M743.9 503.2c-12-22.8-10.3-49.5 2.5-70.2h-9.1c-11.4 21.3-12.8 47.2-2.2 70.2h8.8z"/><path class="st18" d="M763.3 503.5l5.1-3c-13-22.5-8.3-50.3 9.6-67.5h-11.1c-15.7 19.5-18.9 47.3-6.2 70.4l2.6.1z"/></g><path class="st5" d="M568.2 432.2l-39.2 71.8h-528.8v-71.8z"/><path class="st2" d="M.1 504h872v72h-872z"/><path class="st5" d="M524.6 504l-39.1 71.6h-485.6v-71.6z"/><path class="st16" d="M572.5 532.1s-17.1.4-18.2 16.4c-1.1 16 9 19.7 15.6 20.3 6.6.6 59.8.5 59.8.5s12.5-1.1 14.6-16.9c2-14.8-13-18.5-13-18.5s2.3-14.6-12.8-21.7c-13.6-6.3-24.8 8.3-24.8 8.3s-7.3-5.7-13.9-3.8c-8.7 2.4-7.3 15.4-7.3 15.4zm0 0s-17.1.4-18.2 16.4c-1.1 16 9 19.7 15.6 20.3 6.6.6 59.8.5 59.8.5s12.5-1.1 14.6-16.9c2-14.8-13-18.5-13-18.5s2.3-14.6-12.8-21.7c-13.6-6.3-24.8 8.3-24.8 8.3s-7.3-5.7-13.9-3.8c-8.7 2.4-7.3 15.4-7.3 15.4z"/><path class="st13" d="M597.7 72l-7.2-53.5 84.3-13 25.5 21.1 4.7 45.4"/><path class="st1" d="M598.9 57.4l30-4.6.4 2-30.1 4.5zm-.4-5.8l17.2-2.6.4 1.9-17.3 2.7zm-.6-2.6l9.8-1.6.3 2-9.8 1.5zm-.5-2.7l11.7-1.8.3 1.9-11.7 1.8zm-.5-2.9l13.4-2.1.3 1.9-13.4 2.1zm-.6-3.1l19-2.9.3 1.9-19 3zm-.5-2.9l10.6-1.6.3 2-10.7 1.5zm-1.8-13.6l10.6-1.7.3 2-10.6 1.7zm1.3 9.4l13.7-2.1.3 1.9-13.7 2.1zm-.8-6.4l21.9-3.4.3 1.9-21.9 3.5zm51.3-7.9l24.4-3.8.3 1.9-24.4 3.8zm0 11.1l16.8-2.6.3 1.9-16.8 2.6zm2.1 11.6l16.2-2.5.3 1.9-16.2 2.6zm-1-5.7l13.4-2 .3 1.9-13.5 2.1zm.5 2.9l28.8-4.4.3 1.9-28.9 4.5zm-1.1-5.8l19-3 .3 1.9-19.1 3.1zm-52.9-12.5l34.8-5.4.3 1.9-34.8 5.5zm6.3 41.4l4.8-.7.4 1.9-4.9.8zm0 6.7l12-1.8.4 1.8-12.1 1.9zm25.7.9l20.3-3.1.4 1.9-20.3 3.2zm25.6-3.9l20.4-3.2.3 2.1-20.4 3.1zm.6 3.2l20.4-3.2.3 2-20.4 3.2zm23.6-3.4l20.6-2.9.3 2-20.6 2.8zm.6 2.8l20.7-2.8.3 1.9-20.7 2.9zm.8 3.8l-.1-.5 20.7-2.9.3 1.9-10.9 1.5zm-48.5 0l18.2-2.5.3 2-4.6.6zm-20.6.1l10.4-1.5.2 1.5zm67.1-10.2l9.3-1.3.4 1.9-9.4 1.4zm-22.9 10.1l20.6-3.2.4 2-9 1.3z"/><path class="st15" d="M704.1 72.1h1.9l-4.7-45.8-26.2-21.7-85.6 13.2 7.3 54.3h2l-.6-4.1 103.8-16.2 2.1 20.3zm-112.5-52.7l83.1-12.8 1.2 10.8-82.8 12.7-1.5-10.7zm1.8 12.9l82.7-13.1 1.2 11 22-3.1 1.2 11.4-104.2 16.3-2.9-22.5zm4.5 33.7l-1.2-9.3 104.1-16.2 1 9.3-103.9 16.2z"/><path class="st4" d="M.4 143.9h872v72h-872z"/><g class="st3"><path class="st17" d="M853.3 192.1c-.9 7.8-8 13.4-15.9 12.5-7.9-.9-13.5-8-12.5-15.9.9-7.8 8-13.5 15.9-12.5 7.8.9 13.4 8 12.5 15.9zm-29.5-22.8l-4-6.8c-15.1 8.7-20.2 28-11.5 43.1l6.8-4c-6.5-11.3-2.6-25.8 8.7-32.3z"/><path class="st7" d="M806.2 152.9l-4-6.8c-22.6 13.1-30.4 42-17.3 64.7l6.8-4c-10.8-18.7-4.4-42.9 14.5-53.9z"/><path class="st14" d="M690.1 216.4c-12.2-22.6-13.3-48.7-4.7-71.6h-8.4c-7.8 23-6.8 48.7 4.2 71.6h8.9zm27.8-1.5c-10.3-22.9-9.8-48.3-.3-70.2h-8.6c-8.7 22.1-9 47.2.3 70.2h8.6z"/><path class="st19" d="M743.9 214.9c-12-22.8-10.3-49.5 2.5-70.2h-9.1c-11.4 21.3-12.8 47.2-2.2 70.2h8.8z"/><path class="st18" d="M763.3 215.2l5.1-3c-13-22.5-8.3-50.3 9.6-67.5h-11.1c-15.7 19.5-18.9 47.3-6.2 70.4l2.6.1z"/></g><path class="st8" d="M568.2 143.9l-39.2 71.7h-528.8v-71.7z"/><path class="st13" d="M598.8 215.9l-7.2-53.5 84.3-13 25.5 21.1 4.7 45.4"/><path class="st1" d="M599.9 201.2l30.1-4.6.4 1.9-30.2 4.7zm-.3-5.7l17.2-2.7.4 2-17.3 2.6zm-.6-2.7l9.8-1.5.3 1.9-9.8 1.6zm-.5-2.6l11.7-1.9.3 1.9-11.7 1.8zm-.5-2.9l13.3-2.2.3 1.9-13.4 2.1zm-.6-3.2l18.9-2.9.3 1.9-18.9 3.1zm-.6-2.9l10.6-1.6.3 1.9-10.6 1.7zm-1.7-13.7l10.6-1.6.3 2-10.7 1.6zm1.3 9.5l13.6-2.1.3 1.9-13.7 2.2zm-.8-6.4l21.8-3.4.3 1.9-21.8 3.5zm51.2-7.8l24.4-3.9.3 1.9-24.4 4zm0 11l16.8-2.6.3 1.9-16.8 2.7zm2.1 11.6l16.3-2.5.3 1.9-16.3 2.6zm-1-5.6l13.4-2 .3 1.8-13.4 2.2zm.5 3l28.8-4.6.3 1.9-28.8 4.5zm-1.1-6l19-3 .3 2-19 3zm-52.8-12.5l34.7-5.4.3 1.9-34.7 5.5zm6.2 41.5l4.9-.8.4 1.9-5 .9zm0 6.6l12.1-1.9.4 1.9-12.2 2zm25.8 1l20.3-3.2.4 1.9-20.4 3.2zm25.5-4l20.4-3.1.3 2-20.3 3.1zm.6 3.2l20.4-3.2.3 2-20.3 3.1zm23.7-3.4l20.5-2.9.3 2-20.6 2.9zm.6 2.9l20.6-2.9.3 1.9-20.7 2.9zm.7 3.8v-.6l20.6-2.9.3 2-10.9 1.5zm-48.5 0l18.2-2.6.3 2-4.5.6zm-20.5 0l10.3-1.5.2 1.5zm67.1-10.1l9.3-1.4.3 2-9.3 1.4zm-22.9 10.1l20.6-3.3.3 1.9-8.9 1.4z"/><path class="st15" d="M705.1 215.9h1.9l-4.7-45.8-26.2-21.7-85.6 13.2 7.3 54.3h2l-.6-4.1 103.8-16.2 2.1 20.3zm-112.4-52.7l83.1-12.8 1.2 10.8-82.8 12.7-1.5-10.7zm1.7 12.9l82.7-13.1 1.2 11 22-3.1 1.2 11.4-104.2 16.2-2.9-22.4zm4.6 33.7l-1.2-9.3 104.1-16.2 1 9.3-103.9 16.2z"/><path class="st13" d="M598.8 504l-7.2-53.5 84.3-13 25.5 21.1 4.7 45.4"/><path class="st1" d="M599.9 489.3l30.1-4.5.4 1.8-30.2 4.7zm-.3-5.8l17.2-2.5.4 1.8-17.3 2.7zm-.6-2.5l9.8-1.5.3 1.8-9.8 1.5zm-.5-2.7l11.7-1.8.3 1.8-11.7 1.8zm-.5-2.8l13.3-2.3.3 1.9-13.4 2.1zm-.6-3.3l18.9-2.9.3 1.9-18.9 3.1zm-.6-2.9l10.6-1.5.3 1.8-10.6 1.7zm-1.7-13.7l10.6-1.6.3 2-10.7 1.6zm1.3 9.5l13.6-2.1.3 2-13.7 2.1zm-.8-6.3l21.8-3.5.3 1.9-21.8 3.6zm51.2-8l24.4-3.8.3 2-24.4 3.8zm0 11.2l16.8-2.7.3 1.9-16.8 2.8zm2.1 11.5l16.3-2.5.3 2-16.3 2.5zm-1-5.5l13.4-2.2.3 2-13.4 2zm.5 2.8l28.8-4.5.3 1.9-28.8 4.6zm-1.1-5.8l19-3 .3 1.8-19 3.2zm-52.8-12.5l34.7-5.5.3 2-34.7 5.5zm6.2 41.5l4.9-.9.4 1.9-5 .8zm0 6.5l12.1-1.9.4 1.9-12.2 2zm25.8 1l20.3-3.2.4 1.9-20.4 3.3zm25.5-4l20.4-3 .3 2-20.3 3zm.6 3.3l20.4-3.3.3 2-20.3 3.1zm23.7-3.5l20.5-2.8.3 2-20.6 2.8zm.6 2.9l20.6-2.9.3 1.9-20.7 2.9zm.7 3.8v-.5l20.6-3 .3 2-10.9 1.5zm-48.5 0l18.2-2.5.3 2-4.5.5zm-20.5 0l10.3-1.5.2 1.5zm67.1-10.2l9.3-1.3.3 2-9.3 1.3zm-22.9 10.2l20.6-3.2.3 1.8-8.9 1.4z"/><path class="st15" d="M705.1 504h1.9l-4.7-45.8-26.2-21.7-85.6 13.2 7.3 54.3h2l-.6-4.1 103.8-16.1 2.1 20.2zm-112.4-52.7l83.1-12.8 1.2 10.8-82.9 12.7-1.4-10.7zm1.7 12.9l82.7-13.1 1.2 11 22-3.1 1.2 11.4-104.2 16.2-2.9-22.4zm4.6 33.8l-1.2-9.3 104.1-16.2 1 9.3-103.9 16.2z"/><path class="st4" d="M.1 71.8h872v72h-872z"/><path class="st14" d="M525.6 126.5h7.5v7.7h-7.5zm22.5-38.6h7.5v7.7h-7.5zm-7.5 7.7h7.5v7.7h-7.5zm7.5 7.7h7.5v7.7h-7.5zm-7.5 7.7h7.5v7.7h-7.5zm7.5 7.8h7.5v7.7h-7.5zm-15 0h7.5v7.7h-7.5zm21.6-7.8h7.5v7.7h-7.5zm8.5 7.8h7.5v7.7h-7.5zm-7.5-23.2h7.5v7.7h-7.5zm7.5 7.7h7.5v7.7h-7.5zm7.5 7.7h7.5v7.7h-7.5zm-30.1 15.5h7.5v7.7h-7.5zm-7.5 8.4h7.5v7.7h-7.5zm22.6-8.4h7.5v7.7h-7.5zm15 0h7.5v7.7h-7.5zm7.5-7.7h7.5v7.7h-7.5zm7.5 7.7h7.5v7.7h-7.5zm0-15.5h7.5v7.7h-7.5zm-7.5-7.7h7.5v7.7h-7.5zm-7.5-7.7h7.5v7.7h-7.5zm-7.5-7.7h7.5v7.7h-7.5zm-7.5-7.7h7.5v7.7h-7.5zm7.5-7.7h7.5v7.7h-7.5zm7.5 7.7h7.5v7.7h-7.5zm7.5-7.7h7.5v7.7h-7.5zm7.5 7.7h7.5v7.7h-7.5zm-7.5 7.7h7.5v7.7h-7.5zm7.5 7.7h7.5v7.7h-7.5zm7.6-23.1h7.5v7.7h-7.5zm7.5 7.7h7.5v7.7h-7.5zm7.5 7.7h7.5v7.7h-7.5zm-7.5 7.7h7.5v7.7h-7.5zm7.5 7.7h7.5v7.7h-7.5zm-7.5 7.7h7.5v7.7h-7.5zm7.5 7.8h7.5v7.7h-7.5zm-15-30.9h7.5v7.7h-7.5zm0 15.4h7.5v7.7h-7.5zm0 15.5h7.5v7.7h-7.5zm21.5-7.8h7.5v7.7h-7.5zm8.5 7.8h7.5v7.7h-7.5zm-7.5-23.2h7.5v7.7h-7.5zm7.5 7.7h7.5v7.7h-7.5zm7.5 7.7h7.5v7.7h-7.5zm-30 15.5h7.5v7.7h-7.5zm15 0h7.5v7.7h-7.5zm15 0h7.5v7.7h-7.5zm7.6-7.7h7.5v7.7h-7.5zm7.5 7.7h7.5v7.7h-7.5zm0-15.5h7.5v7.7h-7.5zm-7.5-7.7h7.5v7.7h-7.5zm-7.6-7.7h7.5v7.7h-7.5zm-7.5-7.7h7.5v7.7h-7.5zm-7.5-7.7h7.5v7.7h-7.5zm-7.5-7.7h7.5v7.7h-7.5zm15 0h7.5v7.7h-7.5zm7.5 7.7h7.5v7.7h-7.5zm7.6-7.7h7.5v7.7h-7.5zm7.5 7.7h7.5v7.7h-7.5zm-7.5 7.7h7.5v7.7h-7.5zm7.5 7.7h7.5v7.7h-7.5zm7.5-23.1h7.5v7.7h-7.5zm7.5 7.7h7.5v7.7h-7.5zm7.6 7.7h7.5v7.7h-7.5zm-7.6 7.7h7.5v7.7h-7.5zm7.6 7.7h7.5v7.7h-7.5zm-7.6 7.7h7.5v7.7h-7.5zm7.6 7.8h7.5v7.7h-7.5zm-15.1-30.9h7.5v7.7h-7.5zm0 15.4h7.5v7.7h-7.5zm0 15.5h7.5v7.7h-7.5zm21.6-7.8h7.5v7.7h-7.5zm8.5 7.8h7.5v7.7h-7.5zm-7.5-23.2h7.5v7.7h-7.5zm7.5 7.7h7.5v7.7h-7.5zm7.5 7.7h7.5v7.7h-7.5zm-30.1 15.5h7.5v7.7h-7.5zm15.1 0h7.5v7.7h-7.5zm15 0h7.5v7.7h-7.5zm7.5-7.7h7.5v7.7h-7.5zm7.5 7.7h7.5v7.7h-7.5zm0-15.5h7.5v7.7h-7.5zm-7.5-7.7h7.5v7.7h-7.5zm-7.5-7.7h7.5v7.7h-7.5zm-7.5-7.7h7.5v7.7h-7.5zm-7.5-7.7h7.5v7.7h-7.5zm-7.5-7.7h7.5v7.7h-7.5zm15 0h7.5v7.7h-7.5zm7.5 7.7h7.5v7.7h-7.5zm7.5-7.7h7.5v7.7h-7.5zm7.5 7.7h7.5v7.7h-7.5zm-7.5 7.7h7.5v7.7h-7.5zm7.5 7.7h7.5v7.7h-7.5zm7.6-23.1h7.5v7.7h-7.5zm7.5 7.7h7.5v7.7h-7.5zm7.5 7.7h7.5v7.7h-7.5zm-7.5 7.7h7.5v7.7h-7.5zm7.5 7.7h7.5v7.7h-7.5zm-7.5 7.7h7.5v7.7h-7.5zm7.5 7.8h7.5v7.7h-7.5zm-15-30.9h7.5v7.7h-7.5zm0 15.4h7.5v7.7h-7.5zm0 15.5h7.5v7.7h-7.5zm21.5-7.8h7.5v7.7h-7.5zm8.6 7.8h7.5v7.7h-7.5zm-7.6-23.2h7.5v7.7h-7.5zm7.6 7.7h7.5v7.7h-7.5zm7.5 7.7h7.5v7.7h-7.5zm-30.1 15.5h7.5v7.7h-7.5zm15 0h7.5v7.7h-7.5zm15.1 0h7.5v7.7h-7.5zm7.5-7.7h7.5v7.7h-7.5zm7.5 7.7h7.5v7.7h-7.5zm0-15.5h7.5v7.7h-7.5zm-7.5-7.7h7.5v7.7h-7.5zm-7.5-7.7h7.5v7.7h-7.5zm-7.5-7.7h7.5v7.7h-7.5zm-7.6-7.7h7.5v7.7h-7.5zm-7.5-7.7h7.5v7.7h-7.5zm15.1 0h7.5v7.7h-7.5zm7.5 7.7h7.5v7.7h-7.5zm7.5-7.7h7.5v7.7h-7.5zm7.5 7.7h7.5v7.7h-7.5zm-7.5 7.7h7.5v7.7h-7.5zm7.5 7.7h7.5v7.7h-7.5zm7.5-23.1h7.5v7.7h-7.5zm7.6 7.7h7.5v7.7h-7.5zm7.5 7.7h7.5v7.7h-7.5zm-7.5 7.7h7.5v7.7h-7.5zm7.5 7.7h7.5v7.7h-7.5zm-7.5 7.7h7.5v7.7h-7.5zm7.5 7.8h7.5v7.7h-7.5zm-15.1-30.9h7.5v7.7h-7.5zm0 15.4h7.5v7.7h-7.5zm0 15.5h7.5v7.7h-7.5zm21.6-7.8h7.5v7.7h-7.5zm8.5 7.8h7.5v7.7h-7.5zm-7.5-23.2h7.5v7.7h-7.5zm7.5 7.7h7.5v7.7h-7.5zm7.5 7.7h7.5v7.7h-7.5zm-30 15.5h7.5v7.7h-7.5zm15 0h7.5v7.7h-7.5zm15 0h7.5v7.7h-7.5zm7.6-7.7h7.5v7.7h-7.5zm7.5 7.7h7.5v7.7h-7.5zm0-15.5h7.5v7.7h-7.5zm-7.5-7.7h7.5v7.7h-7.5zm-7.6-7.7h7.5v7.7h-7.5zm-7.5-7.7h7.5v7.7h-7.5zm-7.5-7.7h7.5v7.7h-7.5zm-7.5-7.7h7.5v7.7h-7.5zm15 0h7.5v7.7h-7.5zm7.5 7.7h7.5v7.7h-7.5zm7.6-7.7h7.5v7.7h-7.5zm7.5 7.7h7.5v7.7h-7.5zm-7.5 7.7h7.5v7.7h-7.5zm7.5 7.7h7.5v7.7h-7.5zm7.5-7.7h7.5v7.7h-7.5zm0 15.4h7.5v7.7h-7.5zm0 15.5h7.5v7.7h-7.5zm6.5-7.8h7.5v7.7h-7.5zm8.5 7.8h7.5v7.7h-7.5zm-7.5-23.2h7.5v7.7h-7.5zm7.5 7.7h7.5v7.7h-7.5zm7.6 7.7h7.5v7.7h-7.5zm-15.1 15.5h7.5v7.7h-7.5zm15.1 0h7.5v7.7h-7.5zm7.5-7.7h7.5v7.7h-7.5zm0-15.5h7.5v7.7h-7.5zm-7.5-7.7h7.5v7.7h-7.5zm-7.6-7.7h7.5v7.7h-7.5zm-7.5-7.7h7.5v7.7h-7.5zm-7.5-7.7h7.5v7.7h-7.5zm15 0h7.5v7.7h-7.5zm7.6 7.7h7.5v7.7h-7.5zm7.5-7.7h7.5v7.7h-7.5zm0 15.4h7.5v7.7h-7.5zm-315.9 47h7.5v7.7h-7.5zm15.1 0h7.5v7.7h-7.5zm15 0h7.5v7.7h-7.5zm30.1 0h7.5v7.7h-7.5zm-15 0h7.5v7.7h-7.5zm30 0h7.5v7.7h-7.5zm15.1 0h7.5v7.7h-7.5zm30.1 0h7.5v7.7h-7.5zm-15.1 0h7.5v7.7h-7.5zm30.1 0h7.5v7.7h-7.5zm15 0h7.5v7.7h-7.5zm30.1 0h7.5v7.7h-7.5zm-15 0h7.5v7.7h-7.5zm30.1 0h7.5v7.7h-7.5zm15 0h7.5v7.7h-7.5zm30.1 0h7.5v7.7h-7.5zm-15.1 0h7.5v7.7h-7.5zm30.1 0h7.5v7.7h-7.5zm15.1 0h7.5v7.7h-7.5zm15 0h7.5v7.7h-7.5zm15 0h7.5v7.7h-7.5zm15.1 0h7.5v7.7h-7.5z"/><path class="st8" d="M565.9 71.8l-38.2 71.6h-527.8v-71.6z"/><path class="st13" d="M595.5 143.8l-7.2-53.6 84.3-13 25.5 21.1 4.7 45.5"/><path class="st1" d="M596.6 129l30.1-4.5.4 1.9-30.1 4.6zm-.3-5.7l17.2-2.5.4 1.8-17.3 2.7zm-.6-2.5l9.8-1.7.3 2-9.8 1.5zm-.5-2.8l11.7-1.8.3 1.9-11.7 1.8zm-.5-2.9l13.3-2.1.4 1.9-13.4 2.1zm-.6-3.1l18.9-2.9.4 1.9-19 3zm-.6-2.9l10.6-1.6.4 1.9-10.7 1.6zm-1.7-13.7l10.6-1.6.3 2-10.6 1.6zm1.3 9.4l13.6-2 .4 2-13.7 2zm-.8-6.3l21.8-3.4.4 1.9-21.9 3.5zm51.3-8l24.3-3.7.4 2-24.5 3.7zm0 11.1l16.7-2.5.4 1.9-16.9 2.6zm2.1 11.7l16.2-2.5.3 2-16.3 2.5zm-1-5.7l13.3-2 .4 1.9-13.5 2.1zm.5 2.9l28.7-4.4.4 1.9-28.9 4.5zm-1.2-5.7l19-3 .4 1.8-19.1 3.2zm-52.8-12.6l34.7-5.4.4 2-34.8 5.3zm6.2 41.4l4.9-.7.4 1.9-4.9.8zm0 6.6l12.1-1.8.4 1.9-12.1 1.9zm25.8 1l20.3-3.1.4 1.9-20.4 3.2zm25.6-3.9l20.4-3.2.2 2-20.3 3.1zm.6 3.1l20.4-3.1.2 2-20.3 3.1zm23.6-3.3l20.5-2.9.3 2-20.5 2.8zm.6 2.8l20.7-2.9.2 2-20.7 2.9zm.8 3.9l-.1-.7 20.6-2.8.3 1.9-10.8 1.6zm-48.5 0l18.2-2.6.3 2-4.6.6zm-20.6 0l10.3-1.5.2 1.5zm67.1-10.2l9.3-1.3.3 1.9-9.3 1.4zm-22.9 10.2l20.6-3.3.4 1.9-9 1.4z"/><path class="st15" d="M701.8 143.8h1.9l-4.7-45.9-26.2-21.7-85.6 13.2 7.3 54.3h2l-.6-4.1 103.8-16.2 2.1 20.4zm-112.4-52.7l83.1-12.8 1.2 10.8-82.8 12.7-1.5-10.7zm1.8 12.9l82.7-13.1 1.2 11 22-3.1 1.2 11.4-104.2 16.2-2.9-22.4zm4.5 33.6l-1.2-9.3 104.1-16.2 1 9.3-103.9 16.2z"/><path class="st14" d="M638.4 391.6h7.5v7.7h-7.5z"/><path class="st13" d="M595.5 432l-7.2-53.5 84.3-13 25.5 21.1 4.7 45.4"/><path class="st1" d="M596.6 417.3l30.1-4.5.4 2-30.1 4.5zm-.3-5.7l17.2-2.6.4 2-17.3 2.6zm-.6-2.6l9.8-1.5.3 1.8-9.8 1.5zm-.5-2.7l11.7-1.8.3 2-11.7 1.7zm-.5-2.8l13.3-2.3.4 2-13.4 2.1zm-.6-3.2l18.9-3 .4 2-19 3zm-.6-3l10.6-1.5.4 2-10.7 1.5zm-1.7-13.5l10.6-1.7.3 1.9-10.6 1.6zm1.3 9.3l13.6-2.1.4 2-13.7 2.1zm-.8-6.3l21.8-3.5.4 2-21.9 3.5zm51.3-8l24.3-3.8.4 2-24.5 3.8zm0 11.2l16.7-2.7.4 2-16.9 2.7zm2.1 11.6l16.2-2.6.3 2-16.3 2.5zm-1-5.6l13.3-2.2.4 2-13.5 2.2zm.5 2.8l28.7-4.5.4 2-28.9 4.5zm-1.2-5.8l19-3 .4 2-19.1 3zm-52.8-12.5l34.7-5.5.4 2-34.8 5.5zm6.2 41.5l4.9-.9.4 2-4.9.9zm0 6.5l12.1-1.9.4 2-12.1 1.9zm25.8 1l20.3-3.2.4 2-20.4 3.2zm25.6-4l20.4-3 .2 2-20.3 3zm.6 3.3l20.4-3.3.2 2.1-20.3 3.2zm23.6-3.5l20.5-2.8.3 2-20.5 2.8zm.6 2.9l20.7-2.9.2 2-20.7 2.9zm.8 3.8l-.1-.5 20.6-3 .3 2-10.8 1.5zm-48.5 0l18.2-2.5.3 2-4.6.5zm-20.6 0l10.3-1.4.2 1.4zm67.1-10.2l9.3-1.3.3 2-9.3 1.3zm-22.9 10.2l20.6-3.2.4 2-9 1.2z"/><path class="st15" d="M701.8 432h1.9l-4.7-45.8-26.2-21.7-85.6 13.2 7.3 54.3h2l-.6-4.1 103.8-16.2 2.1 20.3zm-112.4-52.7l83.1-12.8 1.2 10.8-82.8 12.7-1.5-10.7zm1.8 13l82.7-13.1 1.2 11 22-3.1 1.2 11.4-104.2 16.2-2.9-22.4zm4.5 33.7l-1.2-9.3 104.1-16.2 1 9.3-103.9 16.2z"/><path class="st13" d="M597.7 360.5l-7.2-53.5 84.3-13 25.5 21 4.7 45.5"/><path class="st1" d="M598.9 345.8l30-4.7.4 2-30.1 4.7zm-.4-5.8l17.2-2.7.4 1.9-17.3 2.8zm-.6-2.7l9.8-1.5.3 2-9.8 1.4zm-.5-2.5l11.7-2 .3 2-11.7 1.7zm-.5-3l13.4-2.2.3 1.9-13.4 2.1zm-.6-3l19-3 .3 1.8-19 3.2zm-.5-3l10.6-1.7.3 1.9-10.7 1.8zm-1.8-13.8l10.6-1.5.3 2-10.6 1.5zm1.3 9.5l13.7-2 .3 1.8-13.7 2.2zm-.8-6.3l21.9-3.4.3 1.8-21.9 3.5zm51.3-8l24.4-3.7.3 1.8-24.4 3.9zm0 11.1l16.8-2.5.3 1.8-16.8 2.7zm2.1 11.7l16.2-2.5.3 1.8-16.2 2.7zm-1-5.7l13.4-2.1.3 1.9-13.5 2.1zm.5 2.9l28.8-4.4.3 1.8-28.9 4.5zm-1.1-5.9l19-3 .3 1.9-19.1 3.1zm-52.9-12.5l34.8-5.3.3 1.8-34.8 5.5zm6.3 41.5l4.8-.8.4 2-4.9.8zm0 6.7l12-2 .4 2-12.1 2zm25.7 1l20.3-3.2.4 1.8-20.3 3.2zm25.6-4l20.4-3.2.3 2-20.4 3.2zm.6 3.1l20.4-3.1.3 2-20.4 3zm23.6-3.3l20.6-3 .3 2-20.6 3zm.6 2.8l20.7-2.8.3 2-20.7 2.7zm.8 3.9l-.1-.7 20.7-2.8.3 2-10.9 1.5zm-48.5 0l18.2-2.7.3 2-4.6.7zm-20.6 0l10.4-1.5.2 1.5zm67.1-10.3l9.3-1.2.4 2-9.4 1.2zm-22.9 10.3l20.6-3.4.4 1.9-9 1.5z"/><path class="st15" d="M704.1 360.5h1.9l-4.7-45.8-26.2-21.7-85.6 13.2 7.3 54.3h2l-.6-4.1 103.8-16.3 2.1 20.4zm-112.5-52.7l83.1-12.8 1.2 10.8-82.8 12.7-1.5-10.7zm1.8 12.8l82.7-13.1 1.2 11 22-3.1 1.2 11.4-104.1 16.2-3-22.4zm4.5 33.7l-1.2-9.3 104.1-16.2 1 9.3-103.9 16.2z"/></svg>