<?xml version="1.0" encoding="utf-8"?>
<!DOCTYPE svg PUBLIC "-//W3C//DTD SVG 1.1//EN" "http://www.w3.org/Graphics/SVG/1.1/DTD/svg11.dtd">
<svg version="1.1" id="Calque_1" xmlns="http://www.w3.org/2000/svg" xmlns:xlink="http://www.w3.org/1999/xlink" x="0px" y="0px"
	 width="872px" height="576.5px" viewBox="0 0 872 576.5" style="enable-background:new 0 0 872 576.5;" xml:space="preserve">
<style type="text/css"><![CDATA[
	.st0{opacity:0.13;fill:none;stroke:#010202;stroke-width:2;enable-background:new;}
	.st1{fill:#E6E6E6;}	.st2{fill:#4E4D4D;}	.st3{opacity:0.18;}	.st4{fill:#EECDAE;}
	.st5{opacity:0.75;fill:#5E5E5D;enable-background:new;}	.st6{fill:#535252;}
	.st7{opacity:0.75;fill:#3D3D3C;enable-background:new;}	.st8{fill:#F2DAC3;}
	.st9{opacity:0.13;fill:none;stroke:#010202;stroke-width:0.75;enable-background:new;}
	.st10{opacity:0.8;enable-background:new;}
	.st11{opacity:0.13;fill:#3D3D3C;stroke:#010202;stroke-width:2;enable-background:new;}
	.st12{opacity:0.5;}	.st13{fill:#FFFFFF;} .st14{opacity:0.1;fill:#3D3D3C;enable-background:new;}
	.st15{fill:#CFCFCF;} .st16{fill:#FFFFFF;stroke:#CFCFCF;stroke-width:2;stroke-miterlimit:10;}
	.st17{fill:#3D3D3C;} .st18{opacity:0.5;fill:#3D3D3C;enable-background:new;}
	.st19{opacity:0.25;fill:#3D3D3C;enable-background:new;}
]]></style>
<rect x="0.2" y="0" class="st4" width="872" height="72"/>
<rect x="817" y="13.7" transform="matrix(1 4.715340e-03 -4.715340e-03 1 8.050537e-02 -3.8591)" class="st11" width="2.9" height="3"/>
<rect x="804.4" y="38.8" transform="matrix(1 4.041732e-03 -4.041732e-03 1 0.1693 -3.2567)" class="st11" width="2.9" height="3"/>
<rect x="797.4" y="23.5" transform="matrix(1 4.715340e-03 -4.715340e-03 1 0.1266 -3.7666)" class="st11" width="2.9" height="3"/>
<rect x="859.3" y="32.7" transform="matrix(1 4.713753e-03 -4.713753e-03 1 0.1705 -4.057)" class="st11" width="2.9" height="3"/>
<rect x="838.9" y="39" transform="matrix(1 5.387127e-03 -5.387127e-03 1 0.23 -4.5266)" class="st11" width="2.9" height="3"/>
<rect x="721.7" y="51.1" transform="matrix(1 4.719999e-03 -4.719999e-03 1 0.2561 -3.413)" class="st11" width="3" height="3"/>
<rect x="759.3" y="37.4" transform="matrix(1 4.713753e-03 -4.713753e-03 1 0.1915 -3.5856)" class="st11" width="2.9" height="3"/>
<rect x="741.5" y="29.4" transform="matrix(1 5.208263e-03 -5.208263e-03 1 0.1708 -3.8694)" class="st11" width="3" height="3"/>
<rect x="771.3" y="3.9" transform="matrix(1 4.713753e-03 -4.713753e-03 1 3.375244e-02 -3.6425)" class="st11" width="2.9" height="3"/>
<rect x="688.1" y="15.2" transform="matrix(1 4.719999e-03 -4.719999e-03 1 8.630371e-02 -3.2548)" class="st11" width="3" height="3"/>
<rect x="620" y="41.9" transform="matrix(1 4.713753e-03 -4.713753e-03 1 0.2112 -2.9289)" class="st11" width="2.9" height="3"/>
<rect x="607.4" y="7.2" transform="matrix(1 5.050441e-03 -5.050441e-03 1 5.145264e-02 -3.0749)" class="st11" width="2.9" height="3"/>
<rect x="573.3" y="48.2" transform="matrix(1 4.713753e-03 -4.713753e-03 1 0.2404 -2.7087)" class="st11" width="2.9" height="3"/>
<rect x="545.8" y="16.6" transform="matrix(1 5.050441e-03 -5.050441e-03 1 9.814453e-02 -2.7637)" class="st11" width="2.9" height="3"/>
<rect x="534.3" y="51.9" transform="matrix(1 4.546938e-03 -4.546938e-03 1 0.2482 -2.4355)" class="st11" width="2.9" height="3"/>
<rect x="560" y="30.8" transform="matrix(1 5.045509e-03 -5.045509e-03 1 0.1699 -2.8327)" class="st11" width="3" height="3"/>
<rect x="652" y="7.2" transform="matrix(1 5.050441e-03 -5.050441e-03 1 5.206299e-02 -3.3001)" class="st11" width="2.9" height="3"/>
<rect x="702.3" y="60.8" transform="matrix(1 5.208263e-03 -5.208263e-03 1 0.3338 -3.6648)" class="st11" width="3" height="3"/>
<polyline class="st0" points="543.3,41.8 548.2,44.2 598.7,40.2 620,15 669.1,21.5 688.7,-0.2 "/>
<polyline class="st0" points="620,70.8 652,38.8 741,41.8 760.3,55.3 798.8,-0.2 "/>
<polyline class="st0" points="871.6,63.8 832.6,17.3 817.5,57.8 778.3,55.3 767.3,70.8 "/>
<rect x="656.8" y="51.1" transform="matrix(1 5.387127e-03 -5.387127e-03 1 0.2926 -3.5454)" class="st11" width="2.9" height="3"/>
<rect x="707.9" y="8.6" transform="matrix(1 4.377062e-03 -4.377062e-03 1 5.084229e-02 -3.1048)" class="st11" width="2.9" height="3"/>
<polygon class="st8" points="566.5,0 527.6,71.8 0,71.8 0,0 "/>
<rect x="0.1" y="215.6" class="st4" width="872" height="72"/>
<polygon class="st8" points="524.6,215.6 485.5,287.3 -0.1,287.3 -0.1,215.6 "/>
<g class="st10"><g>
		<path class="st16" d="M572.5,243.8c0,0-17.1,0.4-18.2,16.4c-1.1,16,9,19.7,15.6,20.3c6.6,0.6,59.8,0.5,59.8,0.5
			s12.5-1.1,14.6-16.9c2-14.8-13-18.5-13-18.5s2.3-14.6-12.8-21.7c-13.6-6.3-24.8,8.3-24.8,8.3s-7.3-5.7-13.9-3.8
			C571.1,230.8,572.5,243.8,572.5,243.8z"/>
		<path class="st16" d="M572.5,243.8c0,0-17.1,0.4-18.2,16.4c-1.1,16,9,19.7,15.6,20.3c6.6,0.6,59.8,0.5,59.8,0.5
			s12.5-1.1,14.6-16.9c2-14.8-13-18.5-13-18.5s2.3-14.6-12.8-21.7c-13.6-6.3-24.8,8.3-24.8,8.3s-7.3-5.7-13.9-3.8
			C571.1,230.8,572.5,243.8,572.5,243.8z"/>
</g></g>
<rect x="0.2" y="288.3" class="st2" width="872" height="72"/>
<rect x="817" y="302" transform="matrix(1 4.715340e-03 -4.715340e-03 1 1.44 -3.8559)" class="st11" width="2.9" height="3"/>
<rect x="804.4" y="327.2" transform="matrix(1 4.040371e-03 -4.040371e-03 1 1.3345 -3.2533)" class="st11" width="2.9" height="3"/>
<rect x="797.4" y="311.8" transform="matrix(1 4.713753e-03 -4.713753e-03 1 1.4855 -3.7621)" class="st11" width="2.9" height="3"/>
<rect x="859.3" y="321" transform="matrix(1 4.713753e-03 -4.713753e-03 1 1.5295 -4.0538)" class="st11" width="2.9" height="3"/>
<rect x="838.9" y="327.3" transform="matrix(1 5.387127e-03 -5.387127e-03 1 1.7832 -4.5224)" class="st11" width="2.9" height="3"/>
<rect x="721.7" y="339.4" transform="matrix(1 4.557244e-03 -4.557244e-03 1 1.5609 -3.2923)" class="st11" width="3" height="3"/>
<rect x="759.3" y="325.7" transform="matrix(1 4.713753e-03 -4.713753e-03 1 1.5505 -3.5824)" class="st11" width="2.9" height="3"/>
<rect x="741.5" y="317.7" transform="matrix(1 5.208263e-03 -5.208263e-03 1 1.6723 -3.8654)" class="st11" width="3" height="3"/>
<rect x="771.3" y="292.2" transform="matrix(1 4.713753e-03 -4.713753e-03 1 1.3928 -3.6393)" class="st11" width="2.9" height="3"/>
<rect x="688.1" y="303.5" transform="matrix(1 4.557244e-03 -4.557244e-03 1 1.3969 -3.1395)" class="st11" width="3" height="3"/>
<rect x="620" y="330.2" transform="matrix(1 4.713753e-03 -4.713753e-03 1 1.5703 -2.9258)" class="st11" width="2.9" height="3"/>
<rect x="607.4" y="295.5" transform="matrix(1 5.387127e-03 -5.387127e-03 1 1.6085 -3.2757)" class="st11" width="2.9" height="3"/>
<rect x="573.3" y="336.5" transform="matrix(1 4.713753e-03 -4.713753e-03 1 1.5994 -2.7055)" class="st11" width="2.9" height="3"/>
<rect x="545.8" y="304.9" transform="matrix(1 5.388942e-03 -5.388942e-03 1 1.6589 -2.9447)" class="st11" width="2.9" height="3"/>
<rect x="534.3" y="340.2" transform="matrix(1 4.715340e-03 -4.715340e-03 1 1.617 -2.5225)" class="st11" width="2.9" height="3"/>
<rect x="560" y="319.1" transform="matrix(1 5.208263e-03 -5.208263e-03 1 1.6772 -2.9201)" class="st11" width="3" height="3"/>
<rect x="652" y="295.5" transform="matrix(1 5.387127e-03 -5.387127e-03 1 1.6092 -3.516)" class="st11" width="2.9" height="3"/>
<rect x="702.3" y="349.1" transform="matrix(1 5.208263e-03 -5.208263e-03 1 1.8354 -3.6609)" class="st11" width="3" height="3"/>
<polyline class="st0" points="543.3,330 548.2,332.5 598.7,328.5 620,303.3 669.1,309.8 688.7,288 "/>
<polyline class="st0" points="620,359 652,327.1 741,330.1 760.3,343.6 798.8,288 "/>
<polyline class="st0" points="871.6,352 832.6,305.6 817.5,346 778.3,343.6 767.3,359 "/>
<path class="st9" d="M729.3,289.5"/>
<rect x="656.8" y="339.4" transform="matrix(1 5.387127e-03 -5.387127e-03 1 1.8458 -3.5412)" class="st11" width="2.9" height="3"/>
<rect x="707.9" y="296.9" transform="matrix(1 4.041732e-03 -4.041732e-03 1 1.2117 -2.8646)" class="st11" width="2.9" height="3"/>
<polygon class="st5" points="566.5,288.3 527.6,360 0,360 0,288.3 "/>
<rect x="0.1" y="360" class="st2" width="872" height="72"/>
<rect x="525.6" y="414.8" class="st6" width="7.5" height="7.7"/>
<rect x="548.1" y="376.2" class="st6" width="7.5" height="7.7"/>
<rect x="540.6" y="384" class="st6" width="7.5" height="7.7"/>
<rect x="548.1" y="391.6" class="st6" width="7.5" height="7.7"/>
<rect x="540.6" y="399.3" class="st6" width="7.5" height="7.7"/>
<rect x="548.1" y="407.1" class="st6" width="7.5" height="7.7"/>
<rect x="533.1" y="407.1" class="st6" width="7.5" height="7.7"/>
<rect x="554.7" y="399.3" class="st6" width="7.5" height="7.7"/>
<rect x="563.2" y="407.1" class="st6" width="7.5" height="7.7"/>
<rect x="555.7" y="384" class="st6" width="7.5" height="7.7"/>
<rect x="563.2" y="391.6" class="st6" width="7.5" height="7.7"/>
<rect x="570.7" y="399.3" class="st6" width="7.5" height="7.7"/>
<rect x="540.6" y="414.8" class="st6" width="7.5" height="7.7"/>
<rect x="533.1" y="423.2" class="st6" width="7.5" height="7.7"/>
<rect x="555.7" y="414.8" class="st6" width="7.5" height="7.7"/>
<rect x="570.7" y="414.8" class="st6" width="7.5" height="7.7"/>
<rect x="578.2" y="407.1" class="st6" width="7.5" height="7.7"/>
<rect x="585.7" y="414.8" class="st6" width="7.5" height="7.7"/>
<rect x="585.7" y="399.3" class="st6" width="7.5" height="7.7"/>
<rect x="578.2" y="391.6" class="st6" width="7.5" height="7.7"/>
<rect x="570.7" y="384" class="st6" width="7.5" height="7.7"/>
<rect x="563.2" y="376.2" class="st6" width="7.5" height="7.7"/>
<rect x="555.7" y="368.5" class="st6" width="7.5" height="7.7"/>
<rect x="563.2" y="360.8" class="st6" width="7.5" height="7.7"/>
<rect x="570.7" y="368.5" class="st6" width="7.5" height="7.7"/>
<rect x="578.2" y="360.8" class="st6" width="7.5" height="7.7"/>
<rect x="585.7" y="368.5" class="st6" width="7.5" height="7.7"/>
<rect x="578.2" y="376.2" class="st6" width="7.5" height="7.7"/>
<rect x="585.7" y="384" class="st6" width="7.5" height="7.7"/>
<rect x="593.3" y="360.8" class="st6" width="7.5" height="7.7"/>
<rect x="600.8" y="368.5" class="st6" width="7.5" height="7.7"/>
<rect x="608.3" y="376.2" class="st6" width="7.5" height="7.7"/>
<rect x="600.8" y="384" class="st6" width="7.5" height="7.7"/>
<rect x="608.3" y="391.6" class="st6" width="7.5" height="7.7"/>
<rect x="600.8" y="399.3" class="st6" width="7.5" height="7.7"/>
<rect x="608.3" y="407.1" class="st6" width="7.5" height="7.7"/>
<rect x="593.3" y="376.2" class="st6" width="7.5" height="7.7"/>
<rect x="593.3" y="391.6" class="st6" width="7.5" height="7.7"/>
<rect x="593.3" y="407.1" class="st6" width="7.5" height="7.7"/>
<rect x="614.8" y="399.3" class="st6" width="7.5" height="7.7"/>
<rect x="623.3" y="407.1" class="st6" width="7.5" height="7.7"/>
<rect x="615.8" y="384" class="st6" width="7.5" height="7.7"/>
<rect x="623.3" y="391.6" class="st6" width="7.5" height="7.7"/>
<rect x="630.8" y="399.3" class="st6" width="7.5" height="7.7"/>
<rect x="600.8" y="414.8" class="st6" width="7.5" height="7.7"/>
<rect x="615.8" y="414.8" class="st6" width="7.5" height="7.7"/>
<rect x="630.8" y="414.8" class="st6" width="7.5" height="7.7"/>
<rect x="638.4" y="407.1" class="st6" width="7.5" height="7.7"/>
<rect x="645.9" y="414.8" class="st6" width="7.5" height="7.7"/>
<rect x="645.9" y="399.3" class="st6" width="7.5" height="7.7"/>
<rect x="638.4" y="391.6" class="st6" width="7.5" height="7.7"/>
<rect x="630.8" y="384" class="st6" width="7.5" height="7.7"/>
<rect x="623.3" y="376.2" class="st6" width="7.5" height="7.7"/>
<rect x="615.8" y="368.5" class="st6" width="7.5" height="7.7"/>
<rect x="608.3" y="360.8" class="st6" width="7.5" height="7.7"/>
<rect x="623.3" y="360.8" class="st6" width="7.5" height="7.7"/>
<rect x="630.8" y="368.5" class="st6" width="7.5" height="7.7"/>
<rect x="638.4" y="360.8" class="st6" width="7.5" height="7.7"/>
<rect x="645.9" y="368.5" class="st6" width="7.5" height="7.7"/>
<rect x="638.4" y="376.2" class="st6" width="7.5" height="7.7"/>
<rect x="645.9" y="384" class="st6" width="7.5" height="7.7"/>
<rect x="653.4" y="360.8" class="st6" width="7.5" height="7.7"/>
<rect x="660.9" y="368.5" class="st6" width="7.5" height="7.7"/>
<rect x="668.5" y="376.2" class="st6" width="7.5" height="7.7"/>
<rect x="660.9" y="384" class="st6" width="7.5" height="7.7"/>
<rect x="668.5" y="391.6" class="st6" width="7.5" height="7.7"/>
<rect x="660.9" y="399.3" class="st6" width="7.5" height="7.7"/>
<rect x="668.5" y="407.1" class="st6" width="7.5" height="7.7"/>
<rect x="653.4" y="376.2" class="st6" width="7.5" height="7.7"/>
<rect x="653.4" y="391.6" class="st6" width="7.5" height="7.7"/>
<rect x="653.4" y="407.1" class="st6" width="7.5" height="7.7"/>
<rect x="675" y="399.3" class="st6" width="7.5" height="7.7"/>
<rect x="683.5" y="407.1" class="st6" width="7.5" height="7.7"/>
<rect x="676" y="384" class="st6" width="7.5" height="7.7"/>
<rect x="683.5" y="391.6" class="st6" width="7.5" height="7.7"/>
<rect x="691" y="399.3" class="st6" width="7.5" height="7.7"/>
<rect x="660.9" y="414.8" class="st6" width="7.5" height="7.7"/>
<rect x="676" y="414.8" class="st6" width="7.5" height="7.7"/>
<rect x="691" y="414.8" class="st6" width="7.5" height="7.7"/>
<rect x="698.5" y="407.1" class="st6" width="7.5" height="7.7"/>
<rect x="706" y="414.8" class="st6" width="7.5" height="7.7"/>
<rect x="706" y="399.3" class="st6" width="7.5" height="7.7"/>
<rect x="698.5" y="391.6" class="st6" width="7.5" height="7.7"/>
<rect x="691" y="384" class="st6" width="7.5" height="7.7"/>
<rect x="683.5" y="376.2" class="st6" width="7.5" height="7.7"/>
<rect x="676" y="368.5" class="st6" width="7.5" height="7.7"/>
<rect x="668.5" y="360.8" class="st6" width="7.5" height="7.7"/>
<rect x="683.5" y="360.8" class="st6" width="7.5" height="7.7"/>
<rect x="691" y="368.5" class="st6" width="7.5" height="7.7"/>
<rect x="698.5" y="360.8" class="st6" width="7.5" height="7.7"/>
<rect x="706" y="368.5" class="st6" width="7.5" height="7.7"/>
<rect x="698.5" y="376.2" class="st6" width="7.5" height="7.7"/>
<rect x="706" y="384" class="st6" width="7.5" height="7.7"/>
<rect x="713.6" y="360.8" class="st6" width="7.5" height="7.7"/>
<rect x="721.1" y="368.5" class="st6" width="7.5" height="7.7"/>
<rect x="728.6" y="376.2" class="st6" width="7.5" height="7.7"/>
<rect x="721.1" y="384" class="st6" width="7.5" height="7.7"/>
<rect x="728.6" y="391.6" class="st6" width="7.5" height="7.7"/>
<rect x="721.1" y="399.3" class="st6" width="7.5" height="7.7"/>
<rect x="728.6" y="407.1" class="st6" width="7.5" height="7.7"/>
<rect x="713.6" y="376.2" class="st6" width="7.5" height="7.7"/>
<rect x="713.6" y="391.6" class="st6" width="7.5" height="7.7"/>
<rect x="713.6" y="407.1" class="st6" width="7.5" height="7.7"/>
<rect x="735.1" y="399.3" class="st6" width="7.5" height="7.7"/>
<rect x="743.7" y="407.1" class="st6" width="7.5" height="7.7"/>
<rect x="736.1" y="384" class="st6" width="7.5" height="7.7"/>
<rect x="743.7" y="391.6" class="st6" width="7.5" height="7.7"/>
<rect x="751.2" y="399.3" class="st6" width="7.5" height="7.7"/>
<rect x="721.1" y="414.8" class="st6" width="7.5" height="7.7"/>
<rect x="736.1" y="414.8" class="st6" width="7.5" height="7.7"/>
<rect x="751.2" y="414.8" class="st6" width="7.5" height="7.7"/>
<rect x="758.7" y="407.1" class="st6" width="7.5" height="7.7"/>
<rect x="766.2" y="414.8" class="st6" width="7.5" height="7.7"/>
<rect x="766.2" y="399.3" class="st6" width="7.5" height="7.7"/>
<rect x="758.7" y="391.6" class="st6" width="7.5" height="7.7"/>
<rect x="751.2" y="384" class="st6" width="7.5" height="7.7"/>
<rect x="743.7" y="376.2" class="st6" width="7.5" height="7.7"/>
<rect x="736.1" y="368.5" class="st6" width="7.5" height="7.7"/>
<rect x="728.6" y="360.8" class="st6" width="7.5" height="7.7"/>
<rect x="743.7" y="360.8" class="st6" width="7.5" height="7.7"/>
<rect x="751.2" y="368.5" class="st6" width="7.5" height="7.7"/>
<rect x="758.7" y="360.8" class="st6" width="7.5" height="7.7"/>
<rect x="766.2" y="368.5" class="st6" width="7.5" height="7.7"/>
<rect x="758.7" y="376.2" class="st6" width="7.5" height="7.7"/>
<rect x="766.2" y="384" class="st6" width="7.5" height="7.7"/>
<rect x="773.7" y="360.8" class="st6" width="7.5" height="7.7"/>
<rect x="781.3" y="368.5" class="st6" width="7.5" height="7.7"/>
<rect x="788.8" y="376.2" class="st6" width="7.5" height="7.7"/>
<rect x="781.3" y="384" class="st6" width="7.5" height="7.7"/>
<rect x="788.8" y="391.6" class="st6" width="7.5" height="7.7"/>
<rect x="781.3" y="399.3" class="st6" width="7.5" height="7.7"/>
<rect x="788.8" y="407.1" class="st6" width="7.5" height="7.7"/>
<rect x="773.7" y="376.2" class="st6" width="7.5" height="7.7"/>
<rect x="773.7" y="391.6" class="st6" width="7.5" height="7.7"/>
<rect x="773.7" y="407.1" class="st6" width="7.5" height="7.7"/>
<rect x="795.3" y="399.3" class="st6" width="7.5" height="7.7"/>
<rect x="803.8" y="407.1" class="st6" width="7.5" height="7.7"/>
<rect x="796.3" y="384" class="st6" width="7.5" height="7.7"/>
<rect x="803.8" y="391.6" class="st6" width="7.5" height="7.7"/>
<rect x="811.3" y="399.3" class="st6" width="7.5" height="7.7"/>
<rect x="781.3" y="414.8" class="st6" width="7.5" height="7.7"/>
<rect x="796.3" y="414.8" class="st6" width="7.5" height="7.7"/>
<rect x="811.3" y="414.8" class="st6" width="7.5" height="7.7"/>
<rect x="818.9" y="407.1" class="st6" width="7.5" height="7.7"/>
<rect x="826.4" y="414.8" class="st6" width="7.5" height="7.7"/>
<rect x="826.4" y="399.3" class="st6" width="7.5" height="7.7"/>
<rect x="818.9" y="391.6" class="st6" width="7.5" height="7.7"/>
<rect x="811.3" y="384" class="st6" width="7.5" height="7.7"/>
<rect x="803.8" y="376.2" class="st6" width="7.5" height="7.7"/>
<rect x="796.3" y="368.5" class="st6" width="7.5" height="7.7"/>
<rect x="788.8" y="360.8" class="st6" width="7.5" height="7.7"/>
<rect x="803.8" y="360.8" class="st6" width="7.5" height="7.7"/>
<rect x="811.3" y="368.5" class="st6" width="7.5" height="7.7"/>
<rect x="818.9" y="360.8" class="st6" width="7.5" height="7.7"/>
<rect x="826.4" y="368.5" class="st6" width="7.5" height="7.7"/>
<rect x="818.9" y="376.2" class="st6" width="7.5" height="7.7"/>
<rect x="826.4" y="384" class="st6" width="7.5" height="7.7"/>
<rect x="833.9" y="376.2" class="st6" width="7.5" height="7.7"/>
<rect x="833.9" y="391.6" class="st6" width="7.5" height="7.7"/>
<rect x="833.9" y="407.1" class="st6" width="7.5" height="7.7"/>
<rect x="840.4" y="399.3" class="st6" width="7.5" height="7.7"/>
<rect x="848.9" y="407.1" class="st6" width="7.5" height="7.7"/>
<rect x="841.4" y="384" class="st6" width="7.5" height="7.7"/>
<rect x="848.9" y="391.6" class="st6" width="7.5" height="7.7"/>
<rect x="856.5" y="399.3" class="st6" width="7.5" height="7.7"/>
<rect x="841.4" y="414.8" class="st6" width="7.5" height="7.7"/>
<rect x="856.5" y="414.8" class="st6" width="7.5" height="7.7"/>
<rect x="864" y="407.1" class="st6" width="7.5" height="7.7"/>
<rect x="864" y="391.6" class="st6" width="7.5" height="7.7"/>
<rect x="856.5" y="384" class="st6" width="7.5" height="7.7"/>
<rect x="848.9" y="376.2" class="st6" width="7.5" height="7.7"/>
<rect x="841.4" y="368.5" class="st6" width="7.5" height="7.7"/>
<rect x="833.9" y="360.8" class="st6" width="7.5" height="7.7"/>
<rect x="848.9" y="360.8" class="st6" width="7.5" height="7.7"/>
<rect x="856.5" y="368.5" class="st6" width="7.5" height="7.7"/>
<rect x="864" y="360.8" class="st6" width="7.5" height="7.7"/>
<rect x="864" y="376.2" class="st6" width="7.5" height="7.7"/>
<rect x="548.1" y="423.2" class="st6" width="7.5" height="7.7"/>
<rect x="563.2" y="423.2" class="st6" width="7.5" height="7.7"/>
<rect x="578.2" y="423.2" class="st6" width="7.5" height="7.7"/>
<rect x="608.3" y="423.2" class="st6" width="7.5" height="7.7"/>
<rect x="593.3" y="423.2" class="st6" width="7.5" height="7.7"/>
<rect x="623.3" y="423.2" class="st6" width="7.5" height="7.7"/>
<rect x="638.4" y="423.2" class="st6" width="7.5" height="7.7"/>
<rect x="668.5" y="423.2" class="st6" width="7.5" height="7.7"/>
<rect x="653.4" y="423.2" class="st6" width="7.5" height="7.7"/>
<rect x="683.5" y="423.2" class="st6" width="7.5" height="7.7"/>
<rect x="698.5" y="423.2" class="st6" width="7.5" height="7.7"/>
<rect x="728.6" y="423.2" class="st6" width="7.5" height="7.7"/>
<rect x="713.6" y="423.2" class="st6" width="7.5" height="7.7"/>
<rect x="743.7" y="423.2" class="st6" width="7.5" height="7.7"/>
<rect x="758.7" y="423.2" class="st6" width="7.5" height="7.7"/>
<rect x="788.8" y="423.2" class="st6" width="7.5" height="7.7"/>
<rect x="773.7" y="423.2" class="st6" width="7.5" height="7.7"/>
<rect x="803.8" y="423.2" class="st6" width="7.5" height="7.7"/>
<rect x="818.9" y="423.2" class="st6" width="7.5" height="7.7"/>
<rect x="833.9" y="423.2" class="st6" width="7.5" height="7.7"/>
<rect x="848.9" y="423.2" class="st6" width="7.5" height="7.7"/>
<rect x="864" y="423.2" class="st6" width="7.5" height="7.7"/>
<polygon class="st5" points="565.9,360 527.7,431.8 -0.1,431.8 -0.1,360 "/>
<rect x="0.4" y="432.2" class="st2" width="872" height="72"/>
<g class="st12">
	<path class="st17" d="M853.3,480.5c-0.9,7.8-8,13.4-15.9,12.5c-7.9-0.9-13.5-8-12.5-15.9c0.9-7.8,8-13.5,15.9-12.5
		C848.6,465.5,854.2,472.5,853.3,480.5z"/>
	<path class="st17" d="M823.8,457.6l-4-6.8c-15.1,8.7-20.2,28-11.5,43.1l6.8-4C808.6,478.6,812.5,464.1,823.8,457.6z"/>
	<path class="st7" d="M806.2,441.3l-4-6.8c-22.6,13.1-30.4,42-17.3,64.7l6.8-4C780.9,476.5,787.3,452.2,806.2,441.3z"/>
	<path class="st14" d="M690.1,504.8c-12.2-22.6-13.3-48.7-4.7-71.6H677c-7.8,23-6.8,48.7,4.2,71.6H690.1z"/>
	<path class="st14" d="M717.9,503.2c-10.3-22.9-9.8-48.3-0.3-70.2H709c-8.7,22.1-9,47.2,0.3,70.2H717.9z"/>
	<path class="st19" d="M743.9,503.2c-12-22.8-10.3-49.5,2.5-70.2h-9.1c-11.4,21.3-12.8,47.2-2.2,70.2H743.9z"/>
	<path class="st18" d="M763.3,503.5l5.1-3c-13-22.5-8.3-50.3,9.6-67.5h-11.1c-15.7,19.5-18.9,47.3-6.2,70.4L763.3,503.5L763.3,503.5
		z"/>
</g>
<polygon class="st5" points="568.2,432.2 529,504 0.2,504 0.2,432.2 "/>
<rect x="0.1" y="504" class="st2" width="872" height="72"/>
<polygon class="st5" points="524.6,504 485.5,575.6 -0.1,575.6 -0.1,504 "/>
<g class="st10"><g>
		<path class="st16" d="M572.5,532.1c0,0-17.1,0.4-18.2,16.4c-1.1,16,9,19.7,15.6,20.3c6.6,0.6,59.8,0.5,59.8,0.5
			s12.5-1.1,14.6-16.9c2-14.8-13-18.5-13-18.5s2.3-14.6-12.8-21.7c-13.6-6.3-24.8,8.3-24.8,8.3s-7.3-5.7-13.9-3.8
			C571.1,519.1,572.5,532.1,572.5,532.1z"/>
		<path class="st16" d="M572.5,532.1c0,0-17.1,0.4-18.2,16.4c-1.1,16,9,19.7,15.6,20.3c6.6,0.6,59.8,0.5,59.8,0.5
			s12.5-1.1,14.6-16.9c2-14.8-13-18.5-13-18.5s2.3-14.6-12.8-21.7c-13.6-6.3-24.8,8.3-24.8,8.3s-7.3-5.7-13.9-3.8
			C571.1,519.1,572.5,532.1,572.5,532.1z"/>
</g></g>
<g>
	<polyline class="st13" points="597.7,72 590.5,18.5 674.8,5.5 700.3,26.6 705,72"/>
	<polygon class="st1" points="598.9,57.4 628.9,52.8 629.3,54.8 599.2,59.3"/>
	<polygon class="st1" points="598.5,51.6 615.7,49 616.1,50.9 598.8,53.6"/>
	<polygon class="st1" points="597.9,49 607.7,47.4 608,49.4 598.2,50.9"/>
	<polygon class="st1" points="597.4,46.3 609.1,44.5 609.4,46.4 597.7,48.2"/>
	<polygon class="st1" points="596.9,43.4 610.3,41.3 610.6,43.2 597.2,45.3"/>
	<polygon class="st1" points="596.3,40.3 615.3,37.4 615.6,39.3 596.6,42.3"/>
	<polygon class="st1" points="595.8,37.4 606.4,35.8 606.7,37.8 596,39.3"/>
	<polygon class="st1" points="594,23.8 604.6,22.1 604.9,24.1 594.3,25.8"/>
	<polygon class="st1" points="595.3,33.2 609,31.1 609.3,33 595.6,35.1"/>
	<polygon class="st1" points="594.5,26.8 616.4,23.4 616.7,25.3 594.8,28.8"/>
	<polygon class="st1" points="645.8,18.9 670.2,15.1 670.5,17 646.1,20.8"/>
	<polygon class="st1" points="645.8,30 662.6,27.4 662.9,29.3 646.1,31.9"/>
	<polygon class="st1" points="647.9,41.6 664.1,39.1 664.4,41 648.2,43.6"/>
	<polygon class="st1" points="646.9,35.9 660.3,33.9 660.6,35.8 647.1,37.9"/>
	<polygon class="st1" points="647.4,38.8 676.2,34.4 676.5,36.3 647.6,40.8"/>
	<polygon class="st1" points="646.3,33 665.3,30 665.6,31.9 646.5,35"/>
	<polygon class="st1" points="593.4,20.5 628.2,15.1 628.5,17 593.7,22.5"/>
	<polygon class="st1" points="599.7,61.9 604.5,61.2 604.9,63.1 600,63.9"/>
	<polygon class="st1" points="599.7,68.6 611.7,66.8 612.1,68.6 600,70.5"/>
	<polygon class="st1" points="625.4,69.5 645.7,66.4 646.1,68.3 625.8,71.5"/>
	<polygon class="st1" points="651,65.6 671.4,62.4 671.7,64.5 651.3,67.6"/>
	<polygon class="st1" points="651.6,68.8 672,65.6 672.3,67.6 651.9,70.8"/>
	<polygon class="st1" points="675.2,65.4 695.8,62.5 696.1,64.5 675.5,67.3"/>
	<polygon class="st1" points="675.8,68.2 696.5,65.4 696.8,67.3 676.1,70.2"/>
	<polygon class="st1" points="676.6,72 676.5,71.5 697.2,68.6 697.5,70.5 686.6,72"/>
	<polygon class="st1" points="628.1,72 646.3,69.5 646.6,71.5 642,72.1"/>
	<polygon class="st1" points="607.5,72.1 617.9,70.6 618.1,72.1"/>
	<polygon class="st1" points="674.6,61.9 683.9,60.6 684.3,62.5 674.9,63.9"/>
	<polygon class="st1" points="651.7,72 672.3,68.8 672.7,70.8 663.7,72.1"/>
	<path class="st15" d="M704.1,72.1h1.9l-4.7-45.8L675.1,4.6l-85.6,13.2l7.3,54.3h2l-0.6-4.1L702,51.8L704.1,72.1z M591.6,19.4
		l83.1-12.8l1.2,10.8l-82.8,12.7L591.6,19.4z M593.4,32.3l82.7-13.1l1.2,11l22-3.1l1.2,11.4L596.3,54.8L593.4,32.3z M597.9,66
		l-1.2-9.3l104.1-16.2l1,9.3L597.9,66z"/>
</g>
<g>
	<rect x="0.4" y="143.9" class="st4" width="872" height="72"/>
	<g class="st3">
		<path class="st17" d="M853.3,192.1c-0.9,7.8-8,13.4-15.9,12.5c-7.9-0.9-13.5-8-12.5-15.9c0.9-7.8,8-13.5,15.9-12.5
			C848.6,177.1,854.2,184.2,853.3,192.1z"/>
		<path class="st17" d="M823.8,169.3l-4-6.8c-15.1,8.7-20.2,28-11.5,43.1l6.8-4C808.6,190.3,812.5,175.8,823.8,169.3z"/>
		<path class="st7" d="M806.2,152.9l-4-6.8c-22.6,13.1-30.4,42-17.3,64.7l6.8-4C780.9,188.1,787.3,163.9,806.2,152.9z"/>
		<path class="st14" d="M690.1,216.4c-12.2-22.6-13.3-48.7-4.7-71.6H677c-7.8,23-6.8,48.7,4.2,71.6H690.1z"/>
		<path class="st14" d="M717.9,214.9c-10.3-22.9-9.8-48.3-0.3-70.2H709c-8.7,22.1-9,47.2,0.3,70.2H717.9z"/>
		<path class="st19" d="M743.9,214.9c-12-22.8-10.3-49.5,2.5-70.2h-9.1c-11.4,21.3-12.8,47.2-2.2,70.2H743.9z"/>
		<path class="st18" d="M763.3,215.2l5.1-3c-13-22.5-8.3-50.3,9.6-67.5h-11.1c-15.7,19.5-18.9,47.3-6.2,70.4L763.3,215.2
			L763.3,215.2z"/>
	</g>
	<polygon class="st8" points="568.2,143.9 529,215.6 0.2,215.6 0.2,143.9 	"/>
	<g>
		<polyline class="st13" points="598.8,215.9 591.6,162.4 675.9,149.4 701.4,170.5 706.1,215.9"/>
		<polygon class="st1" points="599.9,201.2 630,196.6 630.4,198.5 600.2,203.2"/>
		<polygon class="st1" points="599.6,195.5 616.8,192.8 617.2,194.8 599.9,197.4"/>
		<polygon class="st1" points="599,192.8 608.8,191.3 609.1,193.2 599.3,194.8"/>
		<polygon class="st1" points="598.5,190.2 610.2,188.3 610.5,190.2 598.8,192"/>
		<polygon class="st1" points="598,187.3 611.3,185.1 611.6,187 598.2,189.1"/>
		<polygon class="st1" points="597.4,184.1 616.3,181.2 616.6,183.1 597.7,186.2"/>
		<polygon class="st1" points="596.8,181.2 607.4,179.6 607.7,181.5 597.1,183.2"/>
		<polygon class="st1" points="595.1,167.5 605.7,165.9 606,167.9 595.3,169.5"/>
		<polygon class="st1" points="596.4,177 610,174.9 610.3,176.8 596.6,179"/>
		<polygon class="st1" points="595.6,170.6 617.4,167.2 617.7,169.1 595.9,172.6"/>
		<polygon class="st1" points="646.8,162.8 671.2,158.9 671.5,160.8 647.1,164.8"/>
		<polygon class="st1" points="646.8,173.8 663.6,171.2 663.9,173.1 647.1,175.8"/>
		<polygon class="st1" points="648.9,185.4 665.2,182.9 665.5,184.8 649.2,187.4"/>
		<polygon class="st1" points="647.9,179.8 661.3,177.8 661.6,179.6 648.2,181.8"/>
		<polygon class="st1" points="648.4,182.8 677.2,178.2 677.5,180.1 648.7,184.6"/>
		<polygon class="st1" points="647.3,176.8 666.3,173.8 666.6,175.8 647.6,178.8"/>
		<polygon class="st1" points="594.5,164.3 629.2,158.9 629.5,160.8 594.8,166.3"/>
		<polygon class="st1" points="600.7,205.8 605.6,205 606,206.9 601,207.8"/>
		<polygon class="st1" points="600.7,212.4 612.8,210.5 613.2,212.4 601,214.4"/>
		<polygon class="st1" points="626.5,213.4 646.8,210.2 647.2,212.1 626.8,215.3"/>
		<polygon class="st1" points="652,209.4 672.4,206.3 672.7,208.3 652.4,211.4"/>
		<polygon class="st1" points="652.6,212.6 673,209.4 673.3,211.4 653,214.5"/>
		<polygon class="st1" points="676.3,209.2 696.8,206.3 697.1,208.3 676.5,211.2"/>
		<polygon class="st1" points="676.9,212.1 697.5,209.2 697.8,211.1 677.1,214"/>
		<polygon class="st1" points="677.6,215.9 677.6,215.3 698.2,212.4 698.5,214.4 687.6,215.9"/>
		<polygon class="st1" points="629.1,215.9 647.3,213.3 647.6,215.3 643.1,215.9"/>
		<polygon class="st1" points="608.6,215.9 618.9,214.4 619.1,215.9"/>
		<polygon class="st1" points="675.7,205.8 685,204.4 685.3,206.4 676,207.8"/>
		<polygon class="st1" points="652.8,215.9 673.4,212.6 673.7,214.5 664.8,215.9"/>
		<path class="st15" d="M705.1,215.9h1.9l-4.7-45.8l-26.2-21.7l-85.6,13.2l7.3,54.3h2l-0.6-4.1L703,195.6L705.1,215.9z M592.7,163.2
			l83.1-12.8l1.2,10.8l-82.8,12.7L592.7,163.2z M594.4,176.1l82.7-13.1l1.2,11l22-3.1l1.2,11.4l-104.2,16.2L594.4,176.1z M599,209.8
			l-1.2-9.3l104.1-16.2l1,9.3L599,209.8z"/>
</g></g>
<g><g>
		<polyline class="st13" points="598.8,504 591.6,450.5 675.9,437.5 701.4,458.6 706.1,504"/>
		<polygon class="st1" points="599.9,489.3 630,484.8 630.4,486.6 600.2,491.3"/>
		<polygon class="st1" points="599.6,483.5 616.8,481 617.2,482.8 599.9,485.5"/>
		<polygon class="st1" points="599,481 608.8,479.5 609.1,481.3 599.3,482.8"/>
		<polygon class="st1" points="598.5,478.3 610.2,476.5 610.5,478.3 598.8,480.1"/>
		<polygon class="st1" points="598,475.5 611.3,473.2 611.6,475.1 598.2,477.2"/>
		<polygon class="st1" points="597.4,472.2 616.3,469.3 616.6,471.2 597.7,474.3"/>
		<polygon class="st1" points="596.8,469.3 607.4,467.8 607.7,469.6 597.1,471.3"/>
		<polygon class="st1" points="595.1,455.6 605.7,454 606,456 595.3,457.6"/>
		<polygon class="st1" points="596.4,465.1 610,463 610.3,465 596.6,467.1"/>
		<polygon class="st1" points="595.6,458.8 617.4,455.3 617.7,457.2 595.9,460.8"/>
		<polygon class="st1" points="646.8,450.8 671.2,447 671.5,449 647.1,452.8"/>
		<polygon class="st1" points="646.8,462 663.6,459.3 663.9,461.2 647.1,464"/>
		<polygon class="st1" points="648.9,473.5 665.2,471 665.5,473 649.2,475.5"/>
		<polygon class="st1" points="647.9,468 661.3,465.8 661.6,467.8 648.2,469.8"/>
		<polygon class="st1" points="648.4,470.8 677.2,466.3 677.5,468.2 648.7,472.8"/>
		<polygon class="st1" points="647.3,465 666.3,462 666.6,463.8 647.6,467"/>
		<polygon class="st1" points="594.5,452.5 629.2,447 629.5,449 594.8,454.5"/>
		<polygon class="st1" points="600.7,494 605.6,493.1 606,495 601,495.8"/>
		<polygon class="st1" points="600.7,500.5 612.8,498.6 613.2,500.5 601,502.5"/>
		<polygon class="st1" points="626.5,501.5 646.8,498.3 647.2,500.2 626.8,503.5"/>
		<polygon class="st1" points="652,497.5 672.4,494.5 672.7,496.5 652.4,499.5"/>
		<polygon class="st1" points="652.6,500.8 673,497.5 673.3,499.5 653,502.6"/>
		<polygon class="st1" points="676.3,497.3 696.8,494.5 697.1,496.5 676.5,499.3"/>
		<polygon class="st1" points="676.9,500.2 697.5,497.3 697.8,499.2 677.1,502.1"/>
		<polygon class="st1" points="677.6,504 677.6,503.5 698.2,500.5 698.5,502.5 687.6,504"/>
		<polygon class="st1" points="629.1,504 647.3,501.5 647.6,503.5 643.1,504"/>
		<polygon class="st1" points="608.6,504 618.9,502.5 619.1,504"/>
		<polygon class="st1" points="675.7,493.8 685,492.5 685.3,494.5 676,495.8"/>
		<polygon class="st1" points="652.8,504 673.4,500.8 673.7,502.6 664.8,504"/>
		<path class="st15" d="M705.1,504h1.9l-4.7-45.8l-26.2-21.7l-85.6,13.2l7.3,54.3h2l-0.6-4.1L703,483.8L705.1,504z M592.7,451.3
			l83.1-12.8l1.2,10.8L594.1,462L592.7,451.3z M594.4,464.2l82.7-13.1l1.2,11l22-3.1l1.2,11.4l-104.2,16.2L594.4,464.2z M599,498
			l-1.2-9.3l104.1-16.2l1,9.3L599,498z"/>
</g></g>
<g>
	<rect x="0.1" y="71.8" class="st4" width="872" height="72"/>
	<rect x="525.6" y="126.5" class="st14" width="7.5" height="7.7"/>
	<rect x="548.1" y="87.9" class="st14" width="7.5" height="7.7"/>
	<rect x="540.6" y="95.6" class="st14" width="7.5" height="7.7"/>
	<rect x="548.1" y="103.3" class="st14" width="7.5" height="7.7"/>
	<rect x="540.6" y="111" class="st14" width="7.5" height="7.7"/>
	<rect x="548.1" y="118.8" class="st14" width="7.5" height="7.7"/>
	<rect x="533.1" y="118.8" class="st14" width="7.5" height="7.7"/>
	<rect x="554.7" y="111" class="st14" width="7.5" height="7.7"/>
	<rect x="563.2" y="118.8" class="st14" width="7.5" height="7.7"/>
	<rect x="555.7" y="95.6" class="st14" width="7.5" height="7.7"/>
	<rect x="563.2" y="103.3" class="st14" width="7.5" height="7.7"/>
	<rect x="570.7" y="111" class="st14" width="7.5" height="7.7"/>
	<rect x="540.6" y="126.5" class="st14" width="7.5" height="7.7"/>
	<rect x="533.1" y="134.9" class="st14" width="7.5" height="7.7"/>
	<rect x="555.7" y="126.5" class="st14" width="7.5" height="7.7"/>
	<rect x="570.7" y="126.5" class="st14" width="7.5" height="7.7"/>
	<rect x="578.2" y="118.8" class="st14" width="7.5" height="7.7"/>
	<rect x="585.7" y="126.5" class="st14" width="7.5" height="7.7"/>
	<rect x="585.7" y="111" class="st14" width="7.5" height="7.7"/>
	<rect x="578.2" y="103.3" class="st14" width="7.5" height="7.7"/>
	<rect x="570.7" y="95.6" class="st14" width="7.5" height="7.7"/>
	<rect x="563.2" y="87.9" class="st14" width="7.5" height="7.7"/>
	<rect x="555.7" y="80.2" class="st14" width="7.5" height="7.7"/>
	<rect x="563.2" y="72.5" class="st14" width="7.5" height="7.7"/>
	<rect x="570.7" y="80.2" class="st14" width="7.5" height="7.7"/>
	<rect x="578.2" y="72.5" class="st14" width="7.5" height="7.7"/>
	<rect x="585.7" y="80.2" class="st14" width="7.5" height="7.7"/>
	<rect x="578.2" y="87.9" class="st14" width="7.5" height="7.7"/>
	<rect x="585.7" y="95.6" class="st14" width="7.5" height="7.7"/>
	<rect x="593.3" y="72.5" class="st14" width="7.5" height="7.7"/>
	<rect x="600.8" y="80.2" class="st14" width="7.5" height="7.7"/>
	<rect x="608.3" y="87.9" class="st14" width="7.5" height="7.7"/>
	<rect x="600.8" y="95.6" class="st14" width="7.5" height="7.7"/>
	<rect x="608.3" y="103.3" class="st14" width="7.5" height="7.7"/>
	<rect x="600.8" y="111" class="st14" width="7.5" height="7.7"/>
	<rect x="608.3" y="118.8" class="st14" width="7.5" height="7.7"/>
	<rect x="593.3" y="87.9" class="st14" width="7.5" height="7.7"/>
	<rect x="593.3" y="103.3" class="st14" width="7.5" height="7.7"/>
	<rect x="593.3" y="118.8" class="st14" width="7.5" height="7.7"/>
	<rect x="614.8" y="111" class="st14" width="7.5" height="7.7"/>
	<rect x="623.3" y="118.8" class="st14" width="7.5" height="7.7"/>
	<rect x="615.8" y="95.6" class="st14" width="7.5" height="7.7"/>
	<rect x="623.3" y="103.3" class="st14" width="7.5" height="7.7"/>
	<rect x="630.8" y="111" class="st14" width="7.5" height="7.7"/>
	<rect x="600.8" y="126.5" class="st14" width="7.5" height="7.7"/>
	<rect x="615.8" y="126.5" class="st14" width="7.5" height="7.7"/>
	<rect x="630.8" y="126.5" class="st14" width="7.5" height="7.7"/>
	<rect x="638.4" y="118.8" class="st14" width="7.5" height="7.7"/>
	<rect x="645.9" y="126.5" class="st14" width="7.5" height="7.7"/>
	<rect x="645.9" y="111" class="st14" width="7.5" height="7.7"/>
	<rect x="638.4" y="103.3" class="st14" width="7.5" height="7.7"/>
	<rect x="630.8" y="95.6" class="st14" width="7.5" height="7.7"/>
	<rect x="623.3" y="87.9" class="st14" width="7.5" height="7.7"/>
	<rect x="615.8" y="80.2" class="st14" width="7.5" height="7.7"/>
	<rect x="608.3" y="72.5" class="st14" width="7.5" height="7.7"/>
	<rect x="623.3" y="72.5" class="st14" width="7.5" height="7.7"/>
	<rect x="630.8" y="80.2" class="st14" width="7.5" height="7.7"/>
	<rect x="638.4" y="72.5" class="st14" width="7.5" height="7.7"/>
	<rect x="645.9" y="80.2" class="st14" width="7.5" height="7.7"/>
	<rect x="638.4" y="87.9" class="st14" width="7.5" height="7.7"/>
	<rect x="645.9" y="95.6" class="st14" width="7.5" height="7.7"/>
	<rect x="653.4" y="72.5" class="st14" width="7.5" height="7.7"/>
	<rect x="660.9" y="80.2" class="st14" width="7.5" height="7.7"/>
	<rect x="668.5" y="87.9" class="st14" width="7.5" height="7.7"/>
	<rect x="660.9" y="95.6" class="st14" width="7.5" height="7.7"/>
	<rect x="668.5" y="103.3" class="st14" width="7.5" height="7.7"/>
	<rect x="660.9" y="111" class="st14" width="7.5" height="7.7"/>
	<rect x="668.5" y="118.8" class="st14" width="7.5" height="7.7"/>
	<rect x="653.4" y="87.9" class="st14" width="7.5" height="7.7"/>
	<rect x="653.4" y="103.3" class="st14" width="7.5" height="7.7"/>
	<rect x="653.4" y="118.8" class="st14" width="7.5" height="7.7"/>
	<rect x="675" y="111" class="st14" width="7.5" height="7.7"/>
	<rect x="683.5" y="118.8" class="st14" width="7.5" height="7.7"/>
	<rect x="676" y="95.6" class="st14" width="7.5" height="7.7"/>
	<rect x="683.5" y="103.3" class="st14" width="7.5" height="7.7"/>
	<rect x="691" y="111" class="st14" width="7.5" height="7.7"/>
	<rect x="660.9" y="126.5" class="st14" width="7.5" height="7.7"/>
	<rect x="676" y="126.5" class="st14" width="7.5" height="7.7"/>
	<rect x="691" y="126.5" class="st14" width="7.5" height="7.7"/>
	<rect x="698.5" y="118.8" class="st14" width="7.5" height="7.7"/>
	<rect x="706" y="126.5" class="st14" width="7.5" height="7.7"/>
	<rect x="706" y="111" class="st14" width="7.5" height="7.7"/>
	<rect x="698.5" y="103.3" class="st14" width="7.5" height="7.7"/>
	<rect x="691" y="95.6" class="st14" width="7.5" height="7.7"/>
	<rect x="683.5" y="87.9" class="st14" width="7.5" height="7.7"/>
	<rect x="676" y="80.2" class="st14" width="7.5" height="7.7"/>
	<rect x="668.5" y="72.5" class="st14" width="7.5" height="7.7"/>
	<rect x="683.5" y="72.5" class="st14" width="7.5" height="7.7"/>
	<rect x="691" y="80.2" class="st14" width="7.5" height="7.7"/>
	<rect x="698.5" y="72.5" class="st14" width="7.5" height="7.7"/>
	<rect x="706" y="80.2" class="st14" width="7.5" height="7.7"/>
	<rect x="698.5" y="87.9" class="st14" width="7.5" height="7.7"/>
	<rect x="706" y="95.6" class="st14" width="7.5" height="7.7"/>
	<rect x="713.6" y="72.5" class="st14" width="7.5" height="7.7"/>
	<rect x="721.1" y="80.2" class="st14" width="7.5" height="7.7"/>
	<rect x="728.6" y="87.9" class="st14" width="7.5" height="7.7"/>
	<rect x="721.1" y="95.6" class="st14" width="7.5" height="7.7"/>
	<rect x="728.6" y="103.3" class="st14" width="7.5" height="7.7"/>
	<rect x="721.1" y="111" class="st14" width="7.5" height="7.7"/>
	<rect x="728.6" y="118.8" class="st14" width="7.5" height="7.7"/>
	<rect x="713.6" y="87.9" class="st14" width="7.5" height="7.7"/>
	<rect x="713.6" y="103.3" class="st14" width="7.5" height="7.7"/>
	<rect x="713.6" y="118.8" class="st14" width="7.5" height="7.7"/>
	<rect x="735.1" y="111" class="st14" width="7.5" height="7.7"/>
	<rect x="743.7" y="118.8" class="st14" width="7.5" height="7.7"/>
	<rect x="736.1" y="95.6" class="st14" width="7.5" height="7.7"/>
	<rect x="743.7" y="103.3" class="st14" width="7.5" height="7.7"/>
	<rect x="751.2" y="111" class="st14" width="7.5" height="7.7"/>
	<rect x="721.1" y="126.5" class="st14" width="7.5" height="7.7"/>
	<rect x="736.1" y="126.5" class="st14" width="7.5" height="7.7"/>
	<rect x="751.2" y="126.5" class="st14" width="7.5" height="7.7"/>
	<rect x="758.7" y="118.8" class="st14" width="7.5" height="7.7"/>
	<rect x="766.2" y="126.5" class="st14" width="7.5" height="7.7"/>
	<rect x="766.2" y="111" class="st14" width="7.5" height="7.7"/>
	<rect x="758.7" y="103.3" class="st14" width="7.5" height="7.7"/>
	<rect x="751.2" y="95.6" class="st14" width="7.5" height="7.7"/>
	<rect x="743.7" y="87.9" class="st14" width="7.5" height="7.7"/>
	<rect x="736.1" y="80.2" class="st14" width="7.5" height="7.7"/>
	<rect x="728.6" y="72.5" class="st14" width="7.5" height="7.7"/>
	<rect x="743.7" y="72.5" class="st14" width="7.5" height="7.7"/>
	<rect x="751.2" y="80.2" class="st14" width="7.5" height="7.7"/>
	<rect x="758.7" y="72.5" class="st14" width="7.5" height="7.7"/>
	<rect x="766.2" y="80.2" class="st14" width="7.5" height="7.7"/>
	<rect x="758.7" y="87.9" class="st14" width="7.5" height="7.7"/>
	<rect x="766.2" y="95.6" class="st14" width="7.5" height="7.7"/>
	<rect x="773.7" y="72.5" class="st14" width="7.5" height="7.7"/>
	<rect x="781.3" y="80.2" class="st14" width="7.5" height="7.7"/>
	<rect x="788.8" y="87.9" class="st14" width="7.5" height="7.7"/>
	<rect x="781.3" y="95.6" class="st14" width="7.5" height="7.7"/>
	<rect x="788.8" y="103.3" class="st14" width="7.5" height="7.7"/>
	<rect x="781.3" y="111" class="st14" width="7.5" height="7.7"/>
	<rect x="788.8" y="118.8" class="st14" width="7.5" height="7.7"/>
	<rect x="773.7" y="87.9" class="st14" width="7.5" height="7.7"/>
	<rect x="773.7" y="103.3" class="st14" width="7.5" height="7.7"/>
	<rect x="773.7" y="118.8" class="st14" width="7.5" height="7.7"/>
	<rect x="795.3" y="111" class="st14" width="7.5" height="7.7"/>
	<rect x="803.8" y="118.8" class="st14" width="7.5" height="7.7"/>
	<rect x="796.3" y="95.6" class="st14" width="7.5" height="7.7"/>
	<rect x="803.8" y="103.3" class="st14" width="7.5" height="7.7"/>
	<rect x="811.3" y="111" class="st14" width="7.5" height="7.7"/>
	<rect x="781.3" y="126.5" class="st14" width="7.5" height="7.7"/>
	<rect x="796.3" y="126.5" class="st14" width="7.5" height="7.7"/>
	<rect x="811.3" y="126.5" class="st14" width="7.5" height="7.7"/>
	<rect x="818.9" y="118.8" class="st14" width="7.5" height="7.7"/>
	<rect x="826.4" y="126.5" class="st14" width="7.5" height="7.7"/>
	<rect x="826.4" y="111" class="st14" width="7.5" height="7.7"/>
	<rect x="818.9" y="103.3" class="st14" width="7.5" height="7.7"/>
	<rect x="811.3" y="95.6" class="st14" width="7.5" height="7.7"/>
	<rect x="803.8" y="87.9" class="st14" width="7.5" height="7.7"/>
	<rect x="796.3" y="80.2" class="st14" width="7.5" height="7.7"/>
	<rect x="788.8" y="72.5" class="st14" width="7.5" height="7.7"/>
	<rect x="803.8" y="72.5" class="st14" width="7.5" height="7.7"/>
	<rect x="811.3" y="80.2" class="st14" width="7.5" height="7.7"/>
	<rect x="818.9" y="72.5" class="st14" width="7.5" height="7.7"/>
	<rect x="826.4" y="80.2" class="st14" width="7.5" height="7.7"/>
	<rect x="818.9" y="87.9" class="st14" width="7.5" height="7.7"/>
	<rect x="826.4" y="95.6" class="st14" width="7.5" height="7.7"/>
	<rect x="833.9" y="87.9" class="st14" width="7.5" height="7.7"/>
	<rect x="833.9" y="103.3" class="st14" width="7.5" height="7.7"/>
	<rect x="833.9" y="118.8" class="st14" width="7.5" height="7.7"/>
	<rect x="840.4" y="111" class="st14" width="7.5" height="7.7"/>
	<rect x="848.9" y="118.8" class="st14" width="7.5" height="7.7"/>
	<rect x="841.4" y="95.6" class="st14" width="7.5" height="7.7"/>
	<rect x="848.9" y="103.3" class="st14" width="7.5" height="7.7"/>
	<rect x="856.5" y="111" class="st14" width="7.5" height="7.7"/>
	<rect x="841.4" y="126.5" class="st14" width="7.5" height="7.7"/>
	<rect x="856.5" y="126.5" class="st14" width="7.5" height="7.7"/>
	<rect x="864" y="118.8" class="st14" width="7.5" height="7.7"/>
	<rect x="864" y="103.3" class="st14" width="7.5" height="7.7"/>
	<rect x="856.5" y="95.6" class="st14" width="7.5" height="7.7"/>
	<rect x="848.9" y="87.9" class="st14" width="7.5" height="7.7"/>
	<rect x="841.4" y="80.2" class="st14" width="7.5" height="7.7"/>
	<rect x="833.9" y="72.5" class="st14" width="7.5" height="7.7"/>
	<rect x="848.9" y="72.5" class="st14" width="7.5" height="7.7"/>
	<rect x="856.5" y="80.2" class="st14" width="7.5" height="7.7"/>
	<rect x="864" y="72.5" class="st14" width="7.5" height="7.7"/>
	<rect x="864" y="87.9" class="st14" width="7.5" height="7.7"/>
	<rect x="548.1" y="134.9" class="st14" width="7.5" height="7.7"/>
	<rect x="563.2" y="134.9" class="st14" width="7.5" height="7.7"/>
	<rect x="578.2" y="134.9" class="st14" width="7.5" height="7.7"/>
	<rect x="608.3" y="134.9" class="st14" width="7.5" height="7.7"/>
	<rect x="593.3" y="134.9" class="st14" width="7.5" height="7.7"/>
	<rect x="623.3" y="134.9" class="st14" width="7.5" height="7.7"/>
	<rect x="638.4" y="134.9" class="st14" width="7.5" height="7.7"/>
	<rect x="668.5" y="134.9" class="st14" width="7.5" height="7.7"/>
	<rect x="653.4" y="134.9" class="st14" width="7.5" height="7.7"/>
	<rect x="683.5" y="134.9" class="st14" width="7.5" height="7.7"/>
	<rect x="698.5" y="134.9" class="st14" width="7.5" height="7.7"/>
	<rect x="728.6" y="134.9" class="st14" width="7.5" height="7.7"/>
	<rect x="713.6" y="134.9" class="st14" width="7.5" height="7.7"/>
	<rect x="743.7" y="134.9" class="st14" width="7.5" height="7.7"/>
	<rect x="758.7" y="134.9" class="st14" width="7.5" height="7.7"/>
	<rect x="788.8" y="134.9" class="st14" width="7.5" height="7.7"/>
	<rect x="773.7" y="134.9" class="st14" width="7.5" height="7.7"/>
	<rect x="803.8" y="134.9" class="st14" width="7.5" height="7.7"/>
	<rect x="818.9" y="134.9" class="st14" width="7.5" height="7.7"/>
	<rect x="833.9" y="134.9" class="st14" width="7.5" height="7.7"/>
	<rect x="848.9" y="134.9" class="st14" width="7.5" height="7.7"/>
	<rect x="864" y="134.9" class="st14" width="7.5" height="7.7"/>
	<polygon class="st8" points="565.9,71.8 527.7,143.4 -0.1,143.4 -0.1,71.8"/>
	<g>
		<polyline class="st13" points="595.5,143.8 588.3,90.2 672.6,77.2 698.1,98.3 702.8,143.8"/>
		<polygon class="st1" points="596.6,129 626.7,124.5 627.1,126.4 597,131"/>
		<polygon class="st1" points="596.3,123.3 613.5,120.8 613.9,122.6 596.6,125.3"/>
		<polygon class="st1" points="595.7,120.8 605.5,119.1 605.8,121.1 596,122.6"/>
		<polygon class="st1" points="595.2,118 606.9,116.2 607.2,118.1 595.5,119.9"/>
		<polygon class="st1" points="594.7,115.1 608,113 608.4,114.9 595,117"/>
		<polygon class="st1" points="594.1,112 613,109.1 613.4,111 594.4,114"/>
		<polygon class="st1" points="593.5,109.1 604.1,107.5 604.5,109.4 593.8,111"/>
		<polygon class="st1" points="591.8,95.4 602.4,93.8 602.7,95.8 592.1,97.4"/>
		<polygon class="st1" points="593.1,104.8 606.7,102.8 607.1,104.8 593.4,106.8"/>
		<polygon class="st1" points="592.3,98.5 614.1,95.1 614.5,97 592.6,100.5"/>
		<polygon class="st1" points="643.6,90.5 667.9,86.8 668.3,88.8 643.8,92.5"/>
		<polygon class="st1" points="643.6,101.6 660.3,99.1 660.7,101 643.8,103.6"/>
		<polygon class="st1" points="645.7,113.3 661.9,110.8 662.2,112.8 645.9,115.3"/>
		<polygon class="st1" points="644.7,107.6 658,105.6 658.4,107.5 644.9,109.6"/>
		<polygon class="st1" points="645.2,110.5 673.9,106.1 674.3,108 645.4,112.5"/>
		<polygon class="st1" points="644,104.8 663,101.8 663.4,103.6 644.3,106.8"/>
		<polygon class="st1" points="591.2,92.2 625.9,86.8 626.3,88.8 591.5,94.1"/>
		<polygon class="st1" points="597.4,133.6 602.3,132.9 602.7,134.8 597.8,135.6"/>
		<polygon class="st1" points="597.4,140.2 609.5,138.4 609.9,140.3 597.8,142.2"/>
		<polygon class="st1" points="623.2,141.2 643.5,138.1 643.9,140 623.5,143.2"/>
		<polygon class="st1" points="648.8,137.3 669.2,134.1 669.4,136.1 649.1,139.2"/>
		<polygon class="st1" points="649.4,140.4 669.8,137.3 670,139.3 649.7,142.4"/>
		<polygon class="st1" points="673,137.1 693.5,134.2 693.8,136.2 673.3,139"/>
		<polygon class="st1" points="673.6,139.9 694.3,137 694.5,139 673.8,141.9"/>
		<polygon class="st1" points="674.4,143.8 674.3,143.1 694.9,140.3 695.2,142.2 684.4,143.8"/>
		<polygon class="st1" points="625.9,143.8 644.1,141.2 644.4,143.2 639.8,143.8"/>
		<polygon class="st1" points="605.3,143.8 615.6,142.3 615.8,143.8"/>
		<polygon class="st1" points="672.4,133.6 681.7,132.3 682,134.2 672.7,135.6"/>
		<polygon class="st1" points="649.5,143.8 670.1,140.5 670.5,142.4 661.5,143.8"/>
		<path class="st15" d="M701.8,143.8h1.9L699,97.9l-26.2-21.7l-85.6,13.2l7.3,54.3h2l-0.6-4.1l103.8-16.2L701.8,143.8z M589.4,91.1
			l83.1-12.8l1.2,10.8l-82.8,12.7L589.4,91.1z M591.2,104l82.7-13.1l1.2,11l22-3.1l1.2,11.4l-104.2,16.2L591.2,104z M595.7,137.6
			l-1.2-9.3l104.1-16.2l1,9.3L595.7,137.6z"/>
</g></g>
<g>
	<rect x="638.4" y="391.6" class="st14" width="7.5" height="7.7"/>
	<g>
		<polyline class="st13" points="595.5,432 588.3,378.5 672.6,365.5 698.1,386.6 702.8,432"/>
		<polygon class="st1" points="596.6,417.3 626.7,412.8 627.1,414.8 597,419.3"/>
		<polygon class="st1" points="596.3,411.6 613.5,409 613.9,411 596.6,413.6"/>
		<polygon class="st1" points="595.7,409 605.5,407.5 605.8,409.3 596,410.8"/>
		<polygon class="st1" points="595.2,406.3 606.9,404.5 607.2,406.5 595.5,408.2"/>
		<polygon class="st1" points="594.7,403.5 608,401.2 608.4,403.2 595,405.3"/>
		<polygon class="st1" points="594.1,400.3 613,397.3 613.4,399.3 594.4,402.3"/>
		<polygon class="st1" points="593.5,397.3 604.1,395.8 604.5,397.8 593.8,399.3"/>
		<polygon class="st1" points="591.8,383.8 602.4,382.1 602.7,384 592.1,385.6"/>
		<polygon class="st1" points="593.1,393.1 606.7,391 607.1,393 593.4,395.1"/>
		<polygon class="st1" points="592.3,386.8 614.1,383.3 614.5,385.3 592.6,388.8"/>
		<polygon class="st1" points="643.6,378.8 667.9,375 668.3,377 643.8,380.8"/>
		<polygon class="st1" points="643.6,390 660.3,387.3 660.7,389.3 643.8,392"/>
		<polygon class="st1" points="645.7,401.6 661.9,399 662.2,401 645.9,403.5"/>
		<polygon class="st1" points="644.7,396 658,393.8 658.4,395.8 644.9,398"/>
		<polygon class="st1" points="645.2,398.8 673.9,394.3 674.3,396.3 645.4,400.8"/>
		<polygon class="st1" points="644,393 663,390 663.4,392 644.3,395"/>
		<polygon class="st1" points="591.2,380.5 625.9,375 626.3,377 591.5,382.5"/>
		<polygon class="st1" points="597.4,422 602.3,421.1 602.7,423.1 597.8,424"/>
		<polygon class="st1" points="597.4,428.5 609.5,426.6 609.9,428.6 597.8,430.5"/>
		<polygon class="st1" points="623.2,429.5 643.5,426.3 643.9,428.3 623.5,431.5"/>
		<polygon class="st1" points="648.8,425.5 669.2,422.5 669.4,424.5 649.1,427.5"/>
		<polygon class="st1" points="649.4,428.8 669.8,425.5 670,427.6 649.7,430.8"/>
		<polygon class="st1" points="673,425.3 693.5,422.5 693.8,424.5 673.3,427.3"/>
		<polygon class="st1" points="673.6,428.2 694.3,425.3 694.5,427.3 673.8,430.2"/>
		<polygon class="st1" points="674.4,432 674.3,431.5 694.9,428.5 695.2,430.5 684.4,432"/>
		<polygon class="st1" points="625.9,432 644.1,429.5 644.4,431.5 639.8,432"/>
		<polygon class="st1" points="605.3,432 615.6,430.6 615.8,432"/>
		<polygon class="st1" points="672.4,421.8 681.7,420.5 682,422.5 672.7,423.8"/>
		<polygon class="st1" points="649.5,432 670.1,428.8 670.5,430.8 661.5,432"/>
		<path class="st15" d="M701.8,432h1.9l-4.7-45.8l-26.2-21.7l-85.6,13.2l7.3,54.3h2l-0.6-4.1l103.8-16.2L701.8,432z M589.4,379.3
			l83.1-12.8l1.2,10.8L590.9,390L589.4,379.3z M591.2,392.3l82.7-13.1l1.2,11l22-3.1l1.2,11.4l-104.2,16.2L591.2,392.3z M595.7,426
			l-1.2-9.3l104.1-16.2l1,9.3L595.7,426z"/>
</g></g>
<g><g>
		<polyline class="st13" points="597.7,360.5 590.5,307 674.8,294 700.3,315 705,360.5"/>
		<polygon class="st1" points="598.9,345.8 628.9,341.1 629.3,343.1 599.2,347.8"/>
		<polygon class="st1" points="598.5,340 615.7,337.3 616.1,339.2 598.8,342"/>
		<polygon class="st1" points="597.9,337.3 607.7,335.8 608,337.8 598.2,339.2"/>
		<polygon class="st1" points="597.4,334.8 609.1,332.8 609.4,334.8 597.7,336.5"/>
		<polygon class="st1" points="596.9,331.8 610.3,329.6 610.6,331.5 597.2,333.6"/>
		<polygon class="st1" points="596.3,328.8 615.3,325.8 615.6,327.6 596.6,330.8"/>
		<polygon class="st1" points="595.8,325.8 606.4,324.1 606.7,326 596,327.8"/>
		<polygon class="st1" points="594,312 604.6,310.5 604.9,312.5 594.3,314"/>
		<polygon class="st1" points="595.3,321.5 609,319.5 609.3,321.3 595.6,323.5"/>
		<polygon class="st1" points="594.5,315.2 616.4,311.8 616.7,313.6 594.8,317.1"/>
		<polygon class="st1" points="645.8,307.2 670.2,303.5 670.5,305.3 646.1,309.2"/>
		<polygon class="st1" points="645.8,318.3 662.6,315.8 662.9,317.6 646.1,320.3"/>
		<polygon class="st1" points="647.9,330 664.1,327.5 664.4,329.3 648.2,332"/>
		<polygon class="st1" points="646.9,324.3 660.3,322.2 660.6,324.1 647.1,326.2"/>
		<polygon class="st1" points="647.4,327.2 676.2,322.8 676.5,324.6 647.6,329.1"/>
		<polygon class="st1" points="646.3,321.3 665.3,318.3 665.6,320.2 646.5,323.3"/>
		<polygon class="st1" points="593.4,308.8 628.2,303.5 628.5,305.3 593.7,310.8"/>
		<polygon class="st1" points="599.7,350.3 604.5,349.5 604.9,351.5 600,352.3"/>
		<polygon class="st1" points="599.7,357 611.7,355 612.1,357 600,359"/>
		<polygon class="st1" points="625.4,358 645.7,354.8 646.1,356.6 625.8,359.8"/>
		<polygon class="st1" points="651,354 671.4,350.8 671.7,352.8 651.3,356"/>
		<polygon class="st1" points="651.6,357.1 672,354 672.3,356 651.9,359"/>
		<polygon class="st1" points="675.2,353.8 695.8,350.8 696.1,352.8 675.5,355.8"/>
		<polygon class="st1" points="675.8,356.6 696.5,353.8 696.8,355.8 676.1,358.5"/>
		<polygon class="st1" points="676.6,360.5 676.5,359.8 697.2,357 697.5,359 686.6,360.5"/>
		<polygon class="st1" points="628.1,360.5 646.3,357.8 646.6,359.8 642,360.5"/>
		<polygon class="st1" points="607.5,360.5 617.9,359 618.1,360.5"/>
		<polygon class="st1" points="674.6,350.2 683.9,349 684.3,351 674.9,352.2"/>
		<polygon class="st1" points="651.7,360.5 672.3,357.1 672.7,359 663.7,360.5"/>
		<path class="st15" d="M704.1,360.5h1.9l-4.7-45.8L675.1,293l-85.6,13.2l7.3,54.3h2l-0.6-4.1L702,340.1L704.1,360.5z M591.6,307.8
			l83.1-12.8l1.2,10.8l-82.8,12.7L591.6,307.8z M593.4,320.6l82.7-13.1l1.2,11l22-3.1l1.2,11.4L596.4,343L593.4,320.6z M597.9,354.3
			l-1.2-9.3l104.1-16.2l1,9.3L597.9,354.3z"/>
</g></g>
</svg>
