<?xml version="1.0" encoding="utf-8"?>
<!DOCTYPE svg PUBLIC "-//W3C//DTD SVG 1.1//EN" "http://www.w3.org/Graphics/SVG/1.1/DTD/svg11.dtd">
<svg version="1.1" id="Calque_1" xmlns="http://www.w3.org/2000/svg" xmlns:xlink="http://www.w3.org/1999/xlink" x="0px" y="0px"
	 width="872px" height="72px" viewBox="0 0 872 72" enable-background="new 0 0 872 72" xml:space="preserve">
<rect x="0.59" fill="#EECDAE" width="872" height="72"/>
<polyline opacity="0.8" fill="#FFFFFF" stroke="#CFCFCF" stroke-width="2" stroke-miterlimit="10" enable-background="new    " points="
	554.43,72 547.18,18.5 631.46,5.5 656.95,26.58 661.68,72 "/>
<line fill="none" stroke="#CFCFCF" stroke-width="2" stroke-miterlimit="10" x1="549" y1="31.25" x2="643.64" y2="16.49"/>
<line fill="none" stroke="#E6E6E6" stroke-width="2" stroke-miterlimit="10" x1="550.21" y1="21.4" x2="584.98" y2="15.98"/>
<line fill="none" stroke="#E6E6E6" stroke-width="2" stroke-miterlimit="10" x1="550.86" y1="24.69" x2="561.43" y2="23.05"/>
<line fill="none" stroke="#E6E6E6" stroke-width="2" stroke-miterlimit="10" x1="552.09" y1="34.14" x2="565.79" y2="32"/>
<line fill="none" stroke="#E6E6E6" stroke-width="2" stroke-miterlimit="10" x1="552.6" y1="38.32" x2="563.17" y2="36.67"/>
<line fill="none" stroke="#E6E6E6" stroke-width="2" stroke-miterlimit="10" x1="553.09" y1="41.28" x2="572.06" y2="38.32"/>
<line fill="none" stroke="#E6E6E6" stroke-width="2" stroke-miterlimit="10" x1="555.74" y1="58.35" x2="585.76" y2="53.67"/>
<line fill="none" stroke="#E6E6E6" stroke-width="2" stroke-miterlimit="10" x1="556.48" y1="69.51" x2="568.58" y2="67.62"/>
<line fill="none" stroke="#E6E6E6" stroke-width="2" stroke-miterlimit="10" x1="582.27" y1="70.46" x2="602.61" y2="67.28"/>
<line fill="none" stroke="#E6E6E6" stroke-width="2" stroke-miterlimit="10" x1="607.83" y1="66.54" x2="628.17" y2="63.37"/>
<line fill="none" stroke="#E6E6E6" stroke-width="2" stroke-miterlimit="10" x1="631.38" y1="62.79" x2="640.76" y2="61.46"/>
<line fill="none" stroke="#E6E6E6" stroke-width="2" stroke-miterlimit="10" x1="631.99" y1="66.28" x2="652.59" y2="63.37"/>
<line fill="none" stroke="#E6E6E6" stroke-width="2" stroke-miterlimit="10" x1="632.61" y1="69.22" x2="653.32" y2="66.29"/>
<line fill="none" stroke="#E6E6E6" stroke-width="2" stroke-miterlimit="10" x1="642.09" y1="71.2" x2="654" y2="69.51"/>
<line fill="none" stroke="#E6E6E6" stroke-width="2" stroke-miterlimit="10" x1="608.42" y1="69.71" x2="628.76" y2="66.54"/>
<line fill="none" stroke="#E6E6E6" stroke-width="2" stroke-miterlimit="10" x1="620.18" y1="71.08" x2="629.22" y2="69.67"/>
<line fill="none" stroke="#E6E6E6" stroke-width="2" stroke-miterlimit="10" x1="553.66" y1="44.28" x2="567.08" y2="42.19"/>
<line fill="none" stroke="#E6E6E6" stroke-width="2" stroke-miterlimit="10" x1="554.18" y1="47.21" x2="565.96" y2="45.38"/>
<line fill="none" stroke="#E6E6E6" stroke-width="2" stroke-miterlimit="10" x1="554.72" y1="49.86" x2="564.58" y2="48.32"/>
<line fill="none" stroke="#E6E6E6" stroke-width="2" stroke-miterlimit="10" x1="556.48" y1="62.86" x2="561.41" y2="62.09"/>
<line fill="none" stroke="#E6E6E6" stroke-width="2" stroke-miterlimit="10" x1="602.61" y1="30.92" x2="619.42" y2="28.3"/>
<line fill="none" stroke="#E6E6E6" stroke-width="2" stroke-miterlimit="10" x1="603.1" y1="33.88" x2="622.06" y2="30.92"/>
<line fill="none" stroke="#E6E6E6" stroke-width="2" stroke-miterlimit="10" x1="603.67" y1="36.88" x2="617.08" y2="34.78"/>
<line fill="none" stroke="#E6E6E6" stroke-width="2" stroke-miterlimit="10" x1="604.18" y1="39.81" x2="633" y2="35.32"/>
<line fill="none" stroke="#E6E6E6" stroke-width="2" stroke-miterlimit="10" x1="604.73" y1="42.46" x2="620.83" y2="39.95"/>
<line fill="none" stroke="#E6E6E6" stroke-width="2" stroke-miterlimit="10" x1="555.31" y1="52.56" x2="572.62" y2="49.86"/>
<line fill="none" stroke="#E6E6E6" stroke-width="2" stroke-miterlimit="10" x1="551.27" y1="27.68" x2="573.17" y2="24.26"/>
<line fill="none" stroke="#E6E6E6" stroke-width="2" stroke-miterlimit="10" x1="602.61" y1="19.79" x2="627" y2="15.98"/>
<line fill="none" stroke="#CFCFCF" stroke-width="2" stroke-miterlimit="10" x1="552.09" y1="55.83" x2="658.25" y2="39.28"/>
<line fill="none" stroke="#CFCFCF" stroke-width="2" stroke-miterlimit="10" x1="553.09" y1="67.17" x2="659.25" y2="50.61"/>
<polygon fill="#F2DAC3" points="525.13,0.05 485.96,71.68 0.36,71.68 0.38,0.05 "/>
<g>
	<polygon fill="#CFCFCF" points="658.25,26.23 631.99,4.65 631.38,6.5 634,30.12 655.88,27.12 	"/>
</g>
</svg>
