<?xml version="1.0" encoding="utf-8"?>
<!DOCTYPE svg PUBLIC "-//W3C//DTD SVG 1.1//EN" "http://www.w3.org/Graphics/SVG/1.1/DTD/svg11.dtd">
<svg version="1.1" id="Calque_1" xmlns="http://www.w3.org/2000/svg" xmlns:xlink="http://www.w3.org/1999/xlink" x="0px" y="0px"
	 width="872px" height="72px" viewBox="0 0 872 72" style="enable-background:new 0 0 872 72;" xml:space="preserve">
<style type="text/css"><![CDATA[
	.st0{fill:#4E4D4D;}	.st1{opacity:0.96;fill:#FFFFFF;stroke:#CFCFCF;stroke-width:2;stroke-miterlimit:10;enable-background:new;}
	.st2{fill:#595958;}	.st3{fill:none;stroke:#CFCFCF;stroke-width:2;stroke-miterlimit:10;}
	.st4{opacity:0.13;fill:none;stroke:#000000;stroke-width:0.75;enable-background:new;}
	.st5{opacity:0.13;fill:none;stroke:#000000;stroke-width:2;enable-background:new;}
	.st6{fill:#CFCFCF;}	.st7{fill:none;stroke:#E6E6E6;stroke-width:2;stroke-miterlimit:10;}
	.st8{opacity:0.13;fill:#3D3D3C;stroke:#000000;stroke-width:2;enable-background:new;}
]]></style>
<rect x="0.59" class="st0" width="872" height="72"/>
<rect x="817.39" y="14.34" transform="matrix(1 4.651112e-03 -4.651112e-03 1 0.0825 -3.8084)" class="st8" width="2.94" height="2.99"/>
<rect x="804.85" y="39.5" transform="matrix(1 4.317462e-03 -4.317462e-03 1 0.1845 -3.4809)" class="st8" width="2.94" height="2.99"/>
<rect x="797.79" y="24.23" transform="matrix(1 4.485005e-03 -4.485005e-03 1 0.1234 -3.5844)" class="st8" width="2.94" height="2.99"/>
<rect x="859.78" y="33.35" transform="matrix(1 4.651112e-03 -4.651112e-03 1 0.1713 -4.0054)" class="st8" width="2.94" height="2.99"/>
<rect x="839.31" y="39.63" transform="matrix(1 5.296185e-03 -5.296185e-03 1 0.2296 -4.4524)" class="st8" width="2.95" height="2.99"/>
<rect x="722.14" y="51.75" transform="matrix(1 4.634177e-03 -4.634177e-03 1 0.2545 -3.3528)" class="st8" width="2.95" height="2.99"/>
<rect x="759.73" y="38" transform="matrix(1 4.649568e-03 -4.649568e-03 1 0.1918 -3.5388)" class="st8" width="2.94" height="2.99"/>
<rect x="741.97" y="30.02" transform="matrix(1 4.799680e-03 -4.799680e-03 1 0.1598 -3.5679)" class="st8" width="2.95" height="2.99"/>
<rect x="771.76" y="4.56" transform="matrix(1 4.483515e-03 -4.483515e-03 1 0.0349 -3.4667)" class="st8" width="2.94" height="2.99"/>
<rect x="688.54" y="15.88" transform="matrix(1 4.468674e-03 -4.468674e-03 1 0.0845 -3.0833)" class="st8" width="2.95" height="2.99"/>
<rect x="620.42" y="42.49" transform="matrix(1 4.634177e-03 -4.634177e-03 1 0.2105 -2.8815)" class="st8" width="2.95" height="2.99"/>
<rect x="607.86" y="7.81" transform="matrix(1 4.815620e-03 -4.815620e-03 1 0.0519 -2.9342)" class="st8" width="2.94" height="2.99"/>
<rect x="573.78" y="48.81" transform="matrix(1 4.649568e-03 -4.649568e-03 1 0.2401 -2.6741)" class="st8" width="2.94" height="2.98"/>
<rect x="546.22" y="17.33" transform="matrix(1 4.981672e-03 -4.981672e-03 1 0.1006 -2.7282)" class="st8" width="2.94" height="2.99"/>
<rect x="534.73" y="52.54" transform="matrix(1 4.651112e-03 -4.651112e-03 1 0.2571 -2.4934)" class="st8" width="2.94" height="2.99"/>
<rect x="560.41" y="31.51" transform="matrix(1 4.799680e-03 -4.799680e-03 1 0.1649 -2.6965)" class="st8" width="2.95" height="2.99"/>
<rect x="652.47" y="7.79" transform="matrix(1 4.651112e-03 -4.651112e-03 1 0.0503 -3.0415)" class="st8" width="2.94" height="2.99"/>
<rect x="702.73" y="61.48" transform="matrix(1 4.635712e-03 -4.635712e-03 1 0.2995 -3.2638)" class="st8" width="2.95" height="2.98"/>
<polyline class="st5" points="543.2,42.19 548.65,45.02 599.1,40.95 620.42,15.8 669.55,22.32 689.1,0.48 "/>
<polyline class="st5" points="620.42,71.52 652.46,39.62 741.4,42.55 760.68,56.07 799.27,0.48 "/>
<polyline class="st5" points="872.03,64.43 832.99,18.11 817.88,58.51 778.72,56.07 767.69,71.52 "/>
<path class="st4" d="M729.72,1.89"/>
<rect x="657.25" y="51.78" transform="matrix(1 5.315539e-03 -5.315539e-03 1 0.2925 -3.5007)" class="st8" width="2.94" height="2.98"/>
<rect x="708.38" y="9.36" transform="matrix(1 4.483515e-03 -4.483515e-03 1 0.0558 -3.1825)" class="st8" width="2.94" height="2.99"/>
<g>
	<polygon class="st0" points="598.18,72 590.93,18.5 675.2,5.5 700.69,26.58 705.18,70.88 	"/>
	<polyline class="st1" points="597.76,72 590.51,18.5 674.78,5.5 700.27,26.58 705.01,72 	"/>
	<line class="st3" x1="592.33" y1="31.25" x2="686.96" y2="16.49"/>
	<line class="st7" x1="593.54" y1="21.4" x2="628.31" y2="15.98"/>
	<line class="st7" x1="594.19" y1="24.69" x2="604.75" y2="23.05"/>
	<line class="st7" x1="595.42" y1="34.14" x2="609.12" y2="32"/>
	<line class="st7" x1="595.93" y1="38.32" x2="606.5" y2="36.67"/>
	<line class="st7" x1="596.42" y1="41.28" x2="615.38" y2="38.32"/>
	<line class="st7" x1="599.06" y1="58.35" x2="629.08" y2="53.67"/>
	<line class="st7" x1="599.8" y1="69.51" x2="611.91" y2="67.62"/>
	<line class="st7" x1="625.6" y1="70.46" x2="645.93" y2="67.28"/>
	<line class="st7" x1="651.15" y1="66.54" x2="671.49" y2="63.37"/>
	<line class="st7" x1="674.71" y1="62.79" x2="684.09" y2="61.46"/>
	<line class="st7" x1="675.32" y1="66.28" x2="695.92" y2="63.37"/>
	<line class="st7" x1="675.93" y1="69.21" x2="696.65" y2="66.29"/>
	<line class="st7" x1="685.41" y1="71.2" x2="697.33" y2="69.51"/>
	<line class="st7" x1="651.75" y1="69.71" x2="672.09" y2="66.54"/>
	<line class="st7" x1="663.5" y1="71.08" x2="672.54" y2="69.67"/>
	<line class="st7" x1="596.98" y1="44.28" x2="610.4" y2="42.19"/>
	<line class="st7" x1="597.5" y1="47.21" x2="609.28" y2="45.38"/>
	<line class="st7" x1="598.05" y1="49.86" x2="607.91" y2="48.32"/>
	<line class="st7" x1="599.8" y1="62.86" x2="604.73" y2="62.09"/>
	<line class="st7" x1="645.93" y1="30.92" x2="662.74" y2="28.3"/>
	<line class="st7" x1="646.42" y1="33.88" x2="665.39" y2="30.92"/>
	<line class="st7" x1="646.99" y1="36.88" x2="660.41" y2="34.78"/>
	<line class="st7" x1="647.51" y1="39.81" x2="676.33" y2="35.32"/>
	<line class="st7" x1="648.05" y1="42.46" x2="664.16" y2="39.95"/>
	<line class="st7" x1="598.64" y1="52.56" x2="615.95" y2="49.86"/>
	<line class="st7" x1="594.59" y1="27.68" x2="616.49" y2="24.26"/>
	<line class="st7" x1="645.93" y1="19.79" x2="670.33" y2="15.98"/>
	<line class="st3" x1="595.42" y1="55.83" x2="701.58" y2="39.28"/>
	<line class="st3" x1="596.42" y1="67.17" x2="702.58" y2="50.61"/>
	<g>
		<polygon class="st6" points="701.57,26.23 675.32,4.65 674.71,6.5 677.33,30.12 699.2,27.12 		"/>
	</g>
</g>
<polygon class="st2" points="567.5,0.05 528.75,71.68 0.36,71.68 0.38,0.05 "/>
</svg>
