<?xml version="1.0" encoding="utf-8"?>
<!DOCTYPE svg PUBLIC "-//W3C//DTD SVG 1.1//EN" "http://www.w3.org/Graphics/SVG/1.1/DTD/svg11.dtd">
<svg version="1.1" id="Calque_1" xmlns="http://www.w3.org/2000/svg" xmlns:xlink="http://www.w3.org/1999/xlink" x="0px" y="0px"
	 width="872px" height="72px" viewBox="0 0 872 72" style="enable-background:new 0 0 872 72;" xml:space="preserve">
<style type="text/css"><![CDATA[
	.st0{fill:#EECDAE;}	.st1{fill:none;stroke:#CFCFCF;stroke-width:2;stroke-miterlimit:10;}
	.st2{fill:#F2DAC3;}	.st3{opacity:0.13;fill:none;stroke:#000000;stroke-width:0.75;enable-background:new;}
	.st4{opacity:0.13;fill:none;stroke:#000000;stroke-width:2;enable-background:new;}
	.st5{opacity:0.8;fill:#FFFFFF;stroke:#CFCFCF;stroke-width:2;stroke-miterlimit:10;enable-background:new;}
	.st6{fill:#CFCFCF;}	.st7{fill:none;stroke:#E6E6E6;stroke-width:2;stroke-miterlimit:10;}
	.st8{opacity:0.13;fill:#3D3D3C;stroke:#000000;stroke-width:2;enable-background:new;}
]]></style>
<rect x="0.59" class="st0" width="872" height="72"/>
<rect x="817.37" y="13.61" transform="matrix(-1 -4.651204e-03 4.651204e-03 -1 1637.5986 34.0189)" class="st8" width="2.94" height="2.99"/>
<rect x="804.84" y="38.74" transform="matrix(-1 -3.985307e-03 3.985307e-03 -1 1612.4485 83.6838)" class="st8" width="2.94" height="2.99"/>
<rect x="797.78" y="23.44" transform="matrix(-1 -4.649535e-03 4.649535e-03 -1 1598.3726 53.5865)" class="st8" width="2.94" height="2.99"/>
<rect x="859.76" y="32.61" transform="matrix(-1 -4.651204e-03 4.651204e-03 -1 1722.291 72.2163)" class="st8" width="2.94" height="2.99"/>
<rect x="839.3" y="38.87" transform="matrix(-1 -5.313761e-03 5.313761e-03 -1 1681.3167 85.1985)" class="st8" width="2.94" height="2.99"/>
<rect x="722.13" y="51.01" transform="matrix(-1 -4.634276e-03 4.634276e-03 -1 1446.9551 108.3548)" class="st8" width="2.95" height="2.98"/>
<rect x="759.72" y="37.26" transform="matrix(-1 -4.651204e-03 4.651204e-03 -1 1522.1885 81.0517)" class="st8" width="2.94" height="2.99"/>
<rect x="741.96" y="29.25" transform="matrix(-1 -4.799737e-03 4.799737e-03 -1 1486.7111 65.0587)" class="st8" width="2.95" height="2.99"/>
<rect x="771.75" y="3.76" transform="matrix(-1 -4.485028e-03 4.485028e-03 -1 1546.4042 13.9781)" class="st8" width="2.94" height="2.99"/>
<rect x="688.53" y="15.09" transform="matrix(-1 -4.468577e-03 4.468577e-03 -1 1379.9229 36.2536)" class="st8" width="2.95" height="2.99"/>
<rect x="620.41" y="41.77" transform="matrix(-1 -4.649535e-03 4.649535e-03 -1 1243.5441 89.4212)" class="st8" width="2.94" height="2.99"/>
<rect x="607.85" y="7.05" transform="matrix(-1 -4.817141e-03 4.817141e-03 -1 1218.5865 20.0254)" class="st8" width="2.94" height="2.99"/>
<rect x="573.76" y="48.06" transform="matrix(-1 -4.649535e-03 4.649535e-03 -1 1150.2156 101.7746)" class="st8" width="2.94" height="2.98"/>
<rect x="546.2" y="16.54" transform="matrix(-1 -4.981648e-03 4.981648e-03 -1 1095.2363 38.7984)" class="st8" width="2.94" height="2.99"/>
<rect x="534.71" y="51.8" transform="matrix(-1 -4.651204e-03 4.651204e-03 -1 1072.0979 109.0743)" class="st8" width="2.94" height="2.98"/>
<rect x="560.39" y="30.74" transform="matrix(-1 -4.799737e-03 4.799737e-03 -1 1123.5615 67.1671)" class="st8" width="2.95" height="2.99"/>
<rect x="652.45" y="7.05" transform="matrix(-1 -4.817141e-03 4.817141e-03 -1 1307.7871 20.2402)" class="st8" width="2.94" height="2.99"/>
<rect x="702.72" y="60.73" transform="matrix(-1 -4.965197e-03 4.965197e-03 -1 1408.0681 127.9371)" class="st8" width="2.95" height="2.98"/>
<polyline class="st4" points="543.74,41.7 548.63,44.24 599.08,40.18 620.4,15.02 669.53,21.54 689.08,-0.29 "/>
<polyline class="st4" points="620.4,70.74 652.43,38.84 741.38,41.77 760.66,55.3 799.24,-0.29 "/>
<polyline class="st4" points="872,63.66 832.97,17.33 817.86,57.74 778.7,55.3 767.66,70.74 "/>
<path class="st3" d="M729.7,1.11"/>
<rect x="657.23" y="51.01" transform="matrix(-1 -5.315430e-03 5.315430e-03 -1 1317.1101 108.5015)" class="st8" width="2.94" height="2.98"/>
<rect x="708.36" y="8.53" transform="matrix(-1 -4.485028e-03 4.485028e-03 -1 1419.6022 23.2338)" class="st8" width="2.94" height="2.99"/>
<g>
	<polygon class="st2" points="596.68,72 589.43,18.5 673.71,5.5 699.2,26.58 703.68,70.88 	"/>
	<g>
		<polyline class="st5" points="596.68,72.42 589.43,18.92 673.71,5.92 699.2,27.01 703.93,72.42 		"/>
		<line class="st1" x1="591.25" y1="31.67" x2="685.89" y2="16.92"/>
		<line class="st7" x1="592.46" y1="21.83" x2="627.23" y2="16.41"/>
		<line class="st7" x1="593.11" y1="25.12" x2="603.68" y2="23.47"/>
		<line class="st7" x1="594.34" y1="34.56" x2="608.04" y2="32.42"/>
		<line class="st7" x1="594.85" y1="38.75" x2="605.42" y2="37.1"/>
		<line class="st7" x1="595.34" y1="41.7" x2="614.31" y2="38.75"/>
		<line class="st7" x1="597.99" y1="58.77" x2="628.01" y2="54.09"/>
		<line class="st7" x1="598.73" y1="69.94" x2="610.83" y2="68.05"/>
		<line class="st7" x1="624.52" y1="70.88" x2="644.86" y2="67.71"/>
		<line class="st7" x1="650.08" y1="66.96" x2="670.42" y2="63.79"/>
		<line class="st7" x1="673.63" y1="63.21" x2="683.01" y2="61.89"/>
		<line class="st7" x1="674.24" y1="66.7" x2="694.84" y2="63.79"/>
		<line class="st7" x1="674.86" y1="69.64" x2="695.57" y2="66.71"/>
		<line class="st7" x1="684.34" y1="71.62" x2="696.25" y2="69.94"/>
		<line class="st7" x1="650.67" y1="70.14" x2="671.01" y2="66.96"/>
		<line class="st7" x1="662.43" y1="71.5" x2="671.47" y2="70.09"/>
		<line class="st7" x1="595.91" y1="44.7" x2="609.33" y2="42.61"/>
		<line class="st7" x1="596.43" y1="47.64" x2="608.21" y2="45.8"/>
		<line class="st7" x1="596.97" y1="50.28" x2="606.83" y2="48.75"/>
		<line class="st7" x1="598.73" y1="63.28" x2="603.66" y2="62.51"/>
		<line class="st7" x1="644.86" y1="31.34" x2="661.67" y2="28.72"/>
		<line class="st7" x1="645.35" y1="34.3" x2="664.31" y2="31.34"/>
		<line class="st7" x1="645.92" y1="37.3" x2="659.33" y2="35.21"/>
		<line class="st7" x1="646.43" y1="40.24" x2="675.25" y2="35.74"/>
		<line class="st7" x1="646.98" y1="42.88" x2="663.08" y2="40.37"/>
		<line class="st7" x1="597.56" y1="52.98" x2="614.87" y2="50.28"/>
		<line class="st7" x1="593.52" y1="28.1" x2="615.42" y2="24.69"/>
		<line class="st7" x1="644.86" y1="20.21" x2="669.25" y2="16.41"/>
		<line class="st1" x1="594.34" y1="56.26" x2="700.5" y2="39.7"/>
		<line class="st1" x1="595.34" y1="67.59" x2="701.5" y2="51.04"/>
		<g>
			<polygon class="st6" points="700.5,26.65 674.24,5.07 673.63,6.92 676.25,30.55 698.12,27.55 			"/>
		</g>
	</g>
</g>
<polygon class="st2" points="566.92,0.05 528,71.68 0.36,71.68 0.38,0.05 "/>
</svg>
