<?xml version="1.0" encoding="utf-8"?>
<!DOCTYPE svg PUBLIC "-//W3C//DTD SVG 1.1//EN" "http://www.w3.org/Graphics/SVG/1.1/DTD/svg11.dtd">
<svg version="1.1" id="Calque_1" xmlns="http://www.w3.org/2000/svg" xmlns:xlink="http://www.w3.org/1999/xlink" x="0px" y="0px"
	 width="872px" height="72px" viewBox="0 0 872 72" style="enable-background:new 0 0 872 72;" xml:space="preserve">
<style type="text/css"><![CDATA[
	.st0{fill:#4E4D4D;}	.st1{opacity:0.29;}
	.st2{opacity:0.96;fill:#FFFFFF;stroke:#CFCFCF;stroke-width:2;stroke-miterlimit:10;enable-background:new;}
	.st3{opacity:7.000000e-02;fill:#3C3C3B;enable-background:new;}
	.st4{fill:none;stroke:#CFCFCF;stroke-width:2;stroke-miterlimit:10;}
	.st5{opacity:0.5;fill:#3C3C3B;enable-background:new;} .st6{opacity:0.25;fill:#3C3C3B;enable-background:new;}
	.st7{fill:#CFCFCF;}	.st8{opacity:0.75;fill:#5D5D5C;enable-background:new;}
	.st9{fill:none;stroke:#E6E6E6;stroke-width:2;stroke-miterlimit:10;}
	.st10{fill:#3C3C3B;} .st11{opacity:0.75;fill:#3C3C3B;enable-background:new;}
	.st12{opacity:0.15;fill:#3C3C3B;enable-background:new;}
]]></style>
<rect x="0.6" class="st0" width="872" height="72"/>
<polygon class="st8" points="567.4,0 528.5,71.7 0.4,71.7 0.4,0 "/>
<g>
	<polyline class="st2" points="597,72 589.7,18.5 674,5.5 699.5,26.6 704.2,72"/>
	<line class="st4" x1="591.6" y1="31.2" x2="686.2" y2="16.5"/>
	<line class="st9" x1="592.8" y1="21.4" x2="627.5" y2="16"/>
	<line class="st9" x1="593.4" y1="24.7" x2="604" y2="23"/>
	<line class="st9" x1="594.7" y1="34.1" x2="608.3" y2="32"/>
	<line class="st9" x1="595.2" y1="38.3" x2="605.7" y2="36.7"/>
	<line class="st9" x1="595.7" y1="41.3" x2="614.6" y2="38.3"/>
	<line class="st9" x1="598.3" y1="58.3" x2="628.3" y2="53.7"/>
	<line class="st9" x1="599" y1="69.5" x2="611.1" y2="67.6"/>
	<line class="st9" x1="624.8" y1="70.5" x2="645.2" y2="67.3"/>
	<line class="st9" x1="650.4" y1="66.5" x2="670.7" y2="63.4"/>
	<line class="st9" x1="673.9" y1="62.8" x2="683.3" y2="61.5"/>
	<line class="st9" x1="674.5" y1="66.3" x2="695.2" y2="63.4"/>
	<line class="st9" x1="675.2" y1="69.2" x2="695.9" y2="66.3"/>
	<line class="st9" x1="684.6" y1="71.2" x2="696.6" y2="69.5"/>
	<line class="st9" x1="651" y1="69.7" x2="671.3" y2="66.5"/>
	<line class="st9" x1="662.7" y1="71.1" x2="671.8" y2="69.7"/>
	<line class="st9" x1="596.2" y1="44.3" x2="609.6" y2="42.2"/>
	<line class="st9" x1="596.7" y1="47.2" x2="608.5" y2="45.4"/>
	<line class="st9" x1="597.3" y1="49.9" x2="607.1" y2="48.3"/>
	<line class="st9" x1="599" y1="62.9" x2="604" y2="62.1"/>
	<line class="st9" x1="645.2" y1="30.9" x2="662" y2="28.3"/>
	<line class="st9" x1="645.7" y1="33.9" x2="664.6" y2="30.9"/>
	<line class="st9" x1="646.2" y1="36.9" x2="659.6" y2="34.8"/>
	<line class="st9" x1="646.7" y1="39.8" x2="675.6" y2="35.3"/>
	<line class="st9" x1="647.3" y1="42.5" x2="663.4" y2="40"/>
	<line class="st9" x1="597.9" y1="52.6" x2="615.2" y2="49.9"/>
	<line class="st9" x1="593.8" y1="27.7" x2="615.7" y2="24.3"/>
	<line class="st9" x1="645.2" y1="19.8" x2="669.6" y2="16"/>
	<line class="st4" x1="594.7" y1="55.8" x2="700.8" y2="39.3"/>
	<line class="st4" x1="595.7" y1="67.2" x2="701.8" y2="50.6"/>
	<g><polygon class="st7" points="700.8,26.2 674.5,4.6 673.9,6.5 676.6,30.1 698.4,27.1"/></g>
</g>
<g class="st1">
	<path class="st10" d="M855.8,47.6c-0.9,7.8-8,13.5-15.9,12.6c-7.9-0.9-13.5-8.1-12.6-16c0.9-7.9,8.1-13.5,15.9-12.6
		C851.1,32.5,856.7,39.7,855.8,47.6z"/>
	<path class="st10" d="M826.2,24.6l-4-6.9c-15.1,8.8-20.3,28.2-11.6,43.4l6.9-4C811,45.8,814.8,31.2,826.2,24.6z"/>
	<path class="st11" d="M808.6,8.3l-4-6.9c-22.7,13.2-30.4,42.3-17.3,65.1l6.8-4C783.2,43.5,789.7,19.3,808.6,8.3z"/>
	<path class="st3" d="M692.1,72c-12.2-22.7-13.3-49-4.7-72H679c-7.9,23.1-6.8,49,4.2,72H692.1z"/>
	<path class="st12" d="M720.1,70.6c-10.3-23-9.9-48.6-0.3-70.6h-8.6c-8.7,22.2-9.1,47.4,0.3,70.6H720.1z"/>
	<path class="st6" d="M746.1,70.6c-12-23-10.3-49.8,2.5-70.6h-9.1c-11.4,21.3-12.8,47.5-2.2,70.6H746.1z"/>
	<path class="st5" d="M765.6,70.8l5.1-3c-13-22.6-8.4-50.6,9.6-67.8h-11.2c-15.8,19.6-19,47.5-6.2,70.8H765.6L765.6,70.8z"/>
</g>
</svg>
