<?xml version="1.0" encoding="utf-8"?>
<!-- Generator: Adobe Illustrator 15.1.0, SVG Export Plug-In . SVG Version: 6.00 Build 0)  -->
<!DOCTYPE svg PUBLIC "-//W3C//DTD SVG 1.1//EN" "http://www.w3.org/Graphics/SVG/1.1/DTD/svg11.dtd">
<svg version="1.1" id="Calque_1" xmlns="http://www.w3.org/2000/svg" xmlns:xlink="http://www.w3.org/1999/xlink" x="0px" y="0px"
	 width="872px" height="72px" viewBox="0 0 872 72" enable-background="new 0 0 872 72" xml:space="preserve">
<rect x="0.591" fill="#EECDAE" width="872" height="72"/>
<polygon fill="#F2DAC3" points="525.134,0.05 485.96,71.68 0.362,71.68 0.376,0.05 "/>
<g opacity="0.8" enable-background="new    ">
	<g>
		<path fill="#FFFFFF" d="M573.022,28.167c0,0-17.104,0.367-18.201,16.384c-1.1,16.021,8.971,19.654,15.575,20.265
			c6.604,0.609,59.755,0.5,59.755,0.5s12.473-1.046,14.599-16.912c1.986-14.811-13.013-18.45-13.013-18.45
			s2.343-14.603-12.842-21.68c-13.608-6.342-24.749,8.26-24.749,8.26s-7.278-5.743-13.905-3.817
			C571.593,15.226,573.022,28.167,573.022,28.167z"/>
		<path fill="none" stroke="#CFCFCF" stroke-width="2" stroke-miterlimit="10" d="M573.022,28.167c0,0-17.104,0.367-18.201,16.384
			c-1.1,16.021,8.971,19.654,15.575,20.265c6.604,0.609,59.755,0.5,59.755,0.5s12.473-1.046,14.599-16.912
			c1.986-14.811-13.013-18.45-13.013-18.45s2.343-14.603-12.842-21.68c-13.608-6.342-24.749,8.26-24.749,8.26
			s-7.278-5.743-13.905-3.817C571.593,15.226,573.022,28.167,573.022,28.167z"/>
	</g>
</g>
</svg>
