<?xml version="1.0" encoding="utf-8"?>
<!-- Generator: Adobe Illustrator 15.1.0, SVG Export Plug-In . SVG Version: 6.00 Build 0)  -->
<!DOCTYPE svg PUBLIC "-//W3C//DTD SVG 1.1//EN" "http://www.w3.org/Graphics/SVG/1.1/DTD/svg11.dtd">
<svg version="1.1" id="Calque_1" xmlns="http://www.w3.org/2000/svg" xmlns:xlink="http://www.w3.org/1999/xlink" x="0px" y="0px"
	 width="872px" height="360.3px" viewBox="0 0 872 360.3" style="enable-background:new 0 0 872 360.3;" xml:space="preserve">
<style type="text/css">
<![CDATA[
	.st0{opacity:0.13;fill:none;stroke:#010202;stroke-width:2;enable-background:new    ;}
	.st1{fill:#4E4D4D;}
	.st2{fill:#535252;enable-background:new    ;}
	.st3{fill:#EECDAE;}
	.st4{opacity:0.75;fill:#5E5E5D;enable-background:new    ;}
	.st5{opacity:0.75;fill:#3D3D3C;enable-background:new    ;}
	.st6{fill:none;stroke:#CFCFCF;stroke-width:2;stroke-miterlimit:10;}
	.st7{fill:#F2DAC3;}
	.st8{opacity:0.13;fill:none;stroke:#010202;stroke-width:0.75;enable-background:new    ;}
	.st9{opacity:0.8;enable-background:new    ;}
	.st10{opacity:0.15;fill:#3D3D3C;enable-background:new    ;}
	.st11{opacity:0.13;fill:#3D3D3C;stroke:#010202;stroke-width:2;enable-background:new    ;}
	.st12{opacity:0.5;}
	.st13{opacity:0.1;fill:#3D3D3C;enable-background:new    ;}
	.st14{opacity:0.8;fill:#FFFFFF;stroke:#CFCFCF;stroke-width:2;stroke-miterlimit:10;enable-background:new    ;}
	.st15{fill:#CFCFCF;}
	.st16{fill:#FFFFFF;stroke:#CFCFCF;stroke-width:2;stroke-miterlimit:10;}
	.st17{fill:none;stroke:#E6E6E6;stroke-width:2;stroke-miterlimit:10;}
	.st18{fill:#3D3D3C;}
	.st19{opacity:0.5;fill:#3D3D3C;enable-background:new    ;}
	.st20{opacity:0.25;fill:#3D3D3C;enable-background:new    ;}
]]>
</style>
<rect x="0.1" class="st1" width="872" height="72"/>
<polygon class="st7" points="553.9,72 546.6,18.5 630.9,5.5 656.4,26.6 660.9,70.9 "/>
<polyline class="st14" points="553.9,72 546.7,18.5 631,5.5 656.5,26.6 661.2,72 "/>
<line class="st6" x1="548.5" y1="31.2" x2="643.1" y2="16.5"/>
<line class="st17" x1="549.7" y1="21.4" x2="584.5" y2="16"/>
<line class="st17" x1="550.4" y1="24.7" x2="560.9" y2="23"/>
<line class="st17" x1="551.6" y1="34.1" x2="565.3" y2="32"/>
<line class="st17" x1="552.1" y1="38.3" x2="562.7" y2="36.7"/>
<line class="st17" x1="552.6" y1="41.3" x2="571.6" y2="38.3"/>
<line class="st17" x1="555.2" y1="58.3" x2="585.3" y2="53.7"/>
<line class="st17" x1="556" y1="69.5" x2="568.1" y2="67.6"/>
<line class="st17" x1="581.8" y1="70.5" x2="602.1" y2="67.3"/>
<line class="st17" x1="607.3" y1="66.5" x2="627.7" y2="63.4"/>
<line class="st17" x1="630.9" y1="62.8" x2="640.3" y2="61.5"/>
<line class="st17" x1="631.5" y1="66.3" x2="652.1" y2="63.4"/>
<line class="st17" x1="632.1" y1="69.2" x2="652.8" y2="66.3"/>
<line class="st17" x1="641.6" y1="71.2" x2="653.5" y2="69.5"/>
<line class="st17" x1="607.9" y1="69.7" x2="628.3" y2="66.5"/>
<line class="st17" x1="619.7" y1="71.1" x2="628.7" y2="69.7"/>
<line class="st17" x1="553.2" y1="44.3" x2="566.6" y2="42.2"/>
<line class="st17" x1="553.7" y1="47.2" x2="565.5" y2="45.4"/>
<line class="st17" x1="554.2" y1="49.9" x2="564.1" y2="48.3"/>
<line class="st17" x1="556" y1="62.9" x2="560.9" y2="62.1"/>
<line class="st17" x1="602.1" y1="30.9" x2="618.9" y2="28.3"/>
<line class="st17" x1="602.6" y1="33.9" x2="621.6" y2="30.9"/>
<line class="st17" x1="603.2" y1="36.9" x2="616.6" y2="34.8"/>
<line class="st17" x1="603.7" y1="39.8" x2="632.5" y2="35.3"/>
<line class="st17" x1="604.2" y1="42.5" x2="620.3" y2="40"/>
<line class="st17" x1="554.8" y1="52.6" x2="572.1" y2="49.9"/>
<line class="st17" x1="550.8" y1="27.7" x2="572.7" y2="24.3"/>
<line class="st17" x1="602.1" y1="19.8" x2="626.5" y2="16"/>
<line class="st6" x1="551.6" y1="55.8" x2="657.7" y2="39.3"/>
<line class="st6" x1="552.6" y1="67.2" x2="658.7" y2="50.6"/>
<polygon class="st4" points="524.6,0 485.5,71.7 -0.1,71.7 -0.1,0 "/>
<g>
	<polygon class="st15" points="657.7,26.2 631.5,4.6 630.9,6.5 633.5,30.1 655.4,27.1 	"/>
</g>
<rect x="0.2" y="72.3" class="st1" width="872" height="72"/>
<rect x="817" y="85.9" transform="matrix(1 4.713753e-03 -4.713753e-03 1 0.4211 -3.857)" class="st11" width="2.9" height="3"/>
<rect x="804.4" y="111" transform="matrix(1 4.040371e-03 -4.040371e-03 1 0.4612 -3.255)" class="st11" width="2.9" height="3"/>
<rect x="797.4" y="95.7" transform="matrix(1 4.715340e-03 -4.715340e-03 1 0.4673 -3.7658)" class="st11" width="2.9" height="3"/>
<rect x="859.3" y="104.9" transform="matrix(1 4.715340e-03 -4.715340e-03 1 0.5114 -4.0575)" class="st11" width="2.9" height="3"/>
<rect x="838.9" y="111.2" transform="matrix(1 5.387127e-03 -5.387127e-03 1 0.6192 -4.5254)" class="st11" width="2.9" height="3"/>
<rect x="721.7" y="123.3" transform="matrix(1 4.719999e-03 -4.719999e-03 1 0.597 -3.4121)" class="st11" width="3" height="3"/>
<rect x="759.3" y="109.6" transform="matrix(1 4.715340e-03 -4.715340e-03 1 0.5324 -3.5859)" class="st11" width="2.9" height="3"/>
<rect x="741.5" y="101.6" transform="matrix(1 5.045509e-03 -5.045509e-03 1 0.5296 -3.7475)" class="st11" width="3" height="3"/>
<rect x="771.3" y="76.1" transform="matrix(1 4.716929e-03 -4.716929e-03 1 0.3747 -3.6441)" class="st11" width="2.9" height="3"/>
<rect x="688.1" y="87.4" transform="matrix(1 4.719999e-03 -4.719999e-03 1 0.4272 -3.2539)" class="st11" width="3" height="3"/>
<rect x="620" y="114.1" transform="matrix(1 4.713753e-03 -4.713753e-03 1 0.5518 -2.9281)" class="st11" width="2.9" height="3"/>
<rect x="607.4" y="79.4" transform="matrix(1 5.053844e-03 -5.053844e-03 1 0.4164 -3.076)" class="st11" width="2.9" height="3"/>
<rect x="573.3" y="120.4" transform="matrix(1 4.715340e-03 -4.715340e-03 1 0.5812 -2.7088)" class="st11" width="2.9" height="3"/>
<rect x="545.8" y="88.8" transform="matrix(1 5.053844e-03 -5.053844e-03 1 0.4632 -2.7646)" class="st11" width="2.9" height="3"/>
<rect x="534.3" y="124.1" transform="matrix(1 4.545407e-03 -4.545407e-03 1 0.5764 -2.4339)" class="st11" width="2.9" height="3"/>
<rect x="560" y="103" transform="matrix(1 5.045509e-03 -5.045509e-03 1 0.5344 -2.8317)" class="st11" width="3" height="3"/>
<rect x="652" y="79.4" transform="matrix(1 5.053844e-03 -5.053844e-03 1 0.4171 -3.3014)" class="st11" width="2.9" height="3"/>
<rect x="702.3" y="133" transform="matrix(1 5.208263e-03 -5.208263e-03 1 0.7101 -3.6637)" class="st11" width="3" height="3"/>
<polyline class="st0" points="543.3,114 548.2,116.5 598.7,112.5 620,87.3 669.1,93.8 688.7,72 "/>
<polyline class="st0" points="620,143 652,111.1 741,114.1 760.3,127.6 798.8,72 "/>
<polyline class="st0" points="871.6,136 832.6,89.6 817.5,130 778.3,127.6 767.3,143 "/>
<path class="st8" d="M729.3,73.4"/>
<rect x="656.8" y="123.3" transform="matrix(1 5.388942e-03 -5.388942e-03 1 0.6821 -3.5455)" class="st11" width="2.9" height="3"/>
<rect x="707.9" y="80.8" transform="matrix(1 4.380012e-03 -4.380012e-03 1 0.3672 -3.1062)" class="st11" width="2.9" height="3"/>
<g>
	<polygon class="st7" points="596.3,144.3 589,90.8 673.3,77.8 698.8,98.9 703.3,143.2 	"/>
	<g>
		<polyline class="st14" points="596.3,144.7 589,91.2 673.3,78.2 698.8,99.3 703.5,144.7 		"/>
		<line class="st6" x1="590.8" y1="104" x2="685.5" y2="89.2"/>
		<line class="st17" x1="592.1" y1="94.1" x2="626.8" y2="88.7"/>
		<line class="st17" x1="592.7" y1="97.4" x2="603.3" y2="95.8"/>
		<line class="st17" x1="593.9" y1="106.9" x2="607.6" y2="104.7"/>
		<line class="st17" x1="594.4" y1="111.1" x2="605" y2="109.4"/>
		<line class="st17" x1="594.9" y1="114" x2="613.9" y2="111.1"/>
		<line class="st17" x1="597.6" y1="131.1" x2="627.6" y2="126.4"/>
		<line class="st17" x1="598.3" y1="142.2" x2="610.4" y2="140.3"/>
		<line class="st17" x1="624.1" y1="143.2" x2="644.5" y2="140"/>
		<line class="st17" x1="649.7" y1="139.3" x2="670" y2="136.1"/>
		<line class="st17" x1="673.2" y1="135.5" x2="682.6" y2="134.2"/>
		<line class="st17" x1="673.8" y1="139" x2="694.4" y2="136.1"/>
		<line class="st17" x1="674.5" y1="141.9" x2="695.2" y2="139"/>
		<line class="st17" x1="683.9" y1="143.9" x2="695.8" y2="142.2"/>
		<line class="st17" x1="650.3" y1="142.4" x2="670.6" y2="139.3"/>
		<line class="st17" x1="662" y1="143.8" x2="671.1" y2="142.4"/>
		<line class="st17" x1="595.5" y1="117" x2="608.9" y2="114.9"/>
		<line class="st17" x1="596" y1="119.9" x2="607.8" y2="118.1"/>
		<line class="st17" x1="596.6" y1="122.6" x2="606.4" y2="121.1"/>
		<line class="st17" x1="598.3" y1="135.6" x2="603.3" y2="134.8"/>
		<line class="st17" x1="644.5" y1="103.6" x2="661.3" y2="101"/>
		<line class="st17" x1="644.9" y1="106.6" x2="663.9" y2="103.6"/>
		<line class="st17" x1="645.5" y1="109.6" x2="658.9" y2="107.5"/>
		<line class="st17" x1="646" y1="112.5" x2="674.8" y2="108"/>
		<line class="st17" x1="646.6" y1="115.2" x2="662.7" y2="112.7"/>
		<line class="st17" x1="597.2" y1="125.3" x2="614.5" y2="122.6"/>
		<line class="st17" x1="593.1" y1="100.4" x2="615" y2="97"/>
		<line class="st17" x1="644.5" y1="92.5" x2="668.8" y2="88.7"/>
		<line class="st6" x1="593.9" y1="128.6" x2="700.1" y2="112"/>
		<line class="st6" x1="594.9" y1="139.9" x2="701.1" y2="123.3"/>
		<g>
			<polygon class="st15" points="700.1,98.9 673.8,77.4 673.2,79.2 675.8,102.8 697.7,99.8 			"/>
		</g>
	</g>
</g>
<polygon class="st4" points="566.5,72.3 527.6,144 0,144 0,72.3 "/>
<rect x="0.1" y="144" class="st1" width="872" height="72"/>
<rect x="525.6" y="198.8" class="st2" width="7.5" height="7.7"/>
<rect x="548.1" y="160.2" class="st2" width="7.5" height="7.7"/>
<rect x="540.6" y="167.9" class="st2" width="7.5" height="7.7"/>
<rect x="548.1" y="175.6" class="st2" width="7.5" height="7.7"/>
<rect x="540.6" y="183.3" class="st2" width="7.5" height="7.7"/>
<rect x="548.1" y="191.1" class="st2" width="7.5" height="7.7"/>
<rect x="533.1" y="191.1" class="st2" width="7.5" height="7.7"/>
<rect x="554.7" y="183.3" class="st2" width="7.5" height="7.7"/>
<rect x="563.2" y="191.1" class="st2" width="7.5" height="7.7"/>
<rect x="555.7" y="167.9" class="st2" width="7.5" height="7.7"/>
<rect x="563.2" y="175.6" class="st2" width="7.5" height="7.7"/>
<rect x="570.7" y="183.3" class="st2" width="7.5" height="7.7"/>
<rect x="540.6" y="198.8" class="st2" width="7.5" height="7.7"/>
<rect x="533.1" y="207.2" class="st2" width="7.5" height="7.7"/>
<rect x="555.7" y="198.8" class="st2" width="7.5" height="7.7"/>
<rect x="570.7" y="198.8" class="st2" width="7.5" height="7.7"/>
<rect x="578.2" y="191.1" class="st2" width="7.5" height="7.7"/>
<rect x="585.7" y="198.8" class="st2" width="7.5" height="7.7"/>
<rect x="585.7" y="183.3" class="st2" width="7.5" height="7.7"/>
<rect x="578.2" y="175.6" class="st2" width="7.5" height="7.7"/>
<rect x="570.7" y="167.9" class="st2" width="7.5" height="7.7"/>
<rect x="563.2" y="160.2" class="st2" width="7.5" height="7.7"/>
<rect x="555.7" y="152.5" class="st2" width="7.5" height="7.7"/>
<rect x="563.2" y="144.8" class="st2" width="7.5" height="7.7"/>
<rect x="570.7" y="152.5" class="st2" width="7.5" height="7.7"/>
<rect x="578.2" y="144.8" class="st2" width="7.5" height="7.7"/>
<rect x="585.7" y="152.5" class="st2" width="7.5" height="7.7"/>
<rect x="578.2" y="160.2" class="st2" width="7.5" height="7.7"/>
<rect x="585.7" y="167.9" class="st2" width="7.5" height="7.7"/>
<rect x="593.3" y="144.8" class="st2" width="7.5" height="7.7"/>
<rect x="600.8" y="152.5" class="st2" width="7.5" height="7.7"/>
<rect x="608.3" y="160.2" class="st2" width="7.5" height="7.7"/>
<rect x="600.8" y="167.9" class="st2" width="7.5" height="7.7"/>
<rect x="608.3" y="175.6" class="st2" width="7.5" height="7.7"/>
<rect x="600.8" y="183.3" class="st2" width="7.5" height="7.7"/>
<rect x="608.3" y="191.1" class="st2" width="7.5" height="7.7"/>
<rect x="593.3" y="160.2" class="st2" width="7.5" height="7.7"/>
<rect x="593.3" y="175.6" class="st2" width="7.5" height="7.7"/>
<rect x="593.3" y="191.1" class="st2" width="7.5" height="7.7"/>
<rect x="614.8" y="183.3" class="st2" width="7.5" height="7.7"/>
<rect x="623.3" y="191.1" class="st2" width="7.5" height="7.7"/>
<rect x="615.8" y="167.9" class="st2" width="7.5" height="7.7"/>
<rect x="623.3" y="175.6" class="st2" width="7.5" height="7.7"/>
<rect x="630.8" y="183.3" class="st2" width="7.5" height="7.7"/>
<rect x="600.8" y="198.8" class="st2" width="7.5" height="7.7"/>
<rect x="615.8" y="198.8" class="st2" width="7.5" height="7.7"/>
<rect x="630.8" y="198.8" class="st2" width="7.5" height="7.7"/>
<rect x="638.4" y="191.1" class="st2" width="7.5" height="7.7"/>
<rect x="645.9" y="198.8" class="st2" width="7.5" height="7.7"/>
<rect x="645.9" y="183.3" class="st2" width="7.5" height="7.7"/>
<rect x="638.4" y="175.6" class="st2" width="7.5" height="7.7"/>
<rect x="630.8" y="167.9" class="st2" width="7.5" height="7.7"/>
<rect x="623.3" y="160.2" class="st2" width="7.5" height="7.7"/>
<rect x="615.8" y="152.5" class="st2" width="7.5" height="7.7"/>
<rect x="608.3" y="144.8" class="st2" width="7.5" height="7.7"/>
<rect x="623.3" y="144.8" class="st2" width="7.5" height="7.7"/>
<rect x="630.8" y="152.5" class="st2" width="7.5" height="7.7"/>
<rect x="638.4" y="144.8" class="st2" width="7.5" height="7.7"/>
<rect x="645.9" y="152.5" class="st2" width="7.5" height="7.7"/>
<rect x="638.4" y="160.2" class="st2" width="7.5" height="7.7"/>
<rect x="645.9" y="167.9" class="st2" width="7.5" height="7.7"/>
<rect x="653.4" y="144.8" class="st2" width="7.5" height="7.7"/>
<rect x="660.9" y="152.5" class="st2" width="7.5" height="7.7"/>
<rect x="668.5" y="160.2" class="st2" width="7.5" height="7.7"/>
<rect x="660.9" y="167.9" class="st2" width="7.5" height="7.7"/>
<rect x="668.5" y="175.6" class="st2" width="7.5" height="7.7"/>
<rect x="660.9" y="183.3" class="st2" width="7.5" height="7.7"/>
<rect x="668.5" y="191.1" class="st2" width="7.5" height="7.7"/>
<rect x="653.4" y="160.2" class="st2" width="7.5" height="7.7"/>
<rect x="653.4" y="175.6" class="st2" width="7.5" height="7.7"/>
<rect x="653.4" y="191.1" class="st2" width="7.5" height="7.7"/>
<rect x="675" y="183.3" class="st2" width="7.5" height="7.7"/>
<rect x="683.5" y="191.1" class="st2" width="7.5" height="7.7"/>
<rect x="676" y="167.9" class="st2" width="7.5" height="7.7"/>
<rect x="683.5" y="175.6" class="st2" width="7.5" height="7.7"/>
<rect x="691" y="183.3" class="st2" width="7.5" height="7.7"/>
<rect x="660.9" y="198.8" class="st2" width="7.5" height="7.7"/>
<rect x="676" y="198.8" class="st2" width="7.5" height="7.7"/>
<rect x="691" y="198.8" class="st2" width="7.5" height="7.7"/>
<rect x="698.5" y="191.1" class="st2" width="7.5" height="7.7"/>
<rect x="706" y="198.8" class="st2" width="7.5" height="7.7"/>
<rect x="706" y="183.3" class="st2" width="7.5" height="7.7"/>
<rect x="698.5" y="175.6" class="st2" width="7.5" height="7.7"/>
<rect x="691" y="167.9" class="st2" width="7.5" height="7.7"/>
<rect x="683.5" y="160.2" class="st2" width="7.5" height="7.7"/>
<rect x="676" y="152.5" class="st2" width="7.5" height="7.7"/>
<rect x="668.5" y="144.8" class="st2" width="7.5" height="7.7"/>
<rect x="683.5" y="144.8" class="st2" width="7.5" height="7.7"/>
<rect x="691" y="152.5" class="st2" width="7.5" height="7.7"/>
<rect x="698.5" y="144.8" class="st2" width="7.5" height="7.7"/>
<rect x="706" y="152.5" class="st2" width="7.5" height="7.7"/>
<rect x="698.5" y="160.2" class="st2" width="7.5" height="7.7"/>
<rect x="706" y="167.9" class="st2" width="7.5" height="7.7"/>
<rect x="713.6" y="144.8" class="st2" width="7.5" height="7.7"/>
<rect x="721.1" y="152.5" class="st2" width="7.5" height="7.7"/>
<rect x="728.6" y="160.2" class="st2" width="7.5" height="7.7"/>
<rect x="721.1" y="167.9" class="st2" width="7.5" height="7.7"/>
<rect x="728.6" y="175.6" class="st2" width="7.5" height="7.7"/>
<rect x="721.1" y="183.3" class="st2" width="7.5" height="7.7"/>
<rect x="728.6" y="191.1" class="st2" width="7.5" height="7.7"/>
<rect x="713.6" y="160.2" class="st2" width="7.5" height="7.7"/>
<rect x="713.6" y="175.6" class="st2" width="7.5" height="7.7"/>
<rect x="713.6" y="191.1" class="st2" width="7.5" height="7.7"/>
<rect x="735.1" y="183.3" class="st2" width="7.5" height="7.7"/>
<rect x="743.7" y="191.1" class="st2" width="7.5" height="7.7"/>
<rect x="736.1" y="167.9" class="st2" width="7.5" height="7.7"/>
<rect x="743.7" y="175.6" class="st2" width="7.5" height="7.7"/>
<rect x="751.2" y="183.3" class="st2" width="7.5" height="7.7"/>
<rect x="721.1" y="198.8" class="st2" width="7.5" height="7.7"/>
<rect x="736.1" y="198.8" class="st2" width="7.5" height="7.7"/>
<rect x="751.2" y="198.8" class="st2" width="7.5" height="7.7"/>
<rect x="758.7" y="191.1" class="st2" width="7.5" height="7.7"/>
<rect x="766.2" y="198.8" class="st2" width="7.5" height="7.7"/>
<rect x="766.2" y="183.3" class="st2" width="7.5" height="7.7"/>
<rect x="758.7" y="175.6" class="st2" width="7.5" height="7.7"/>
<rect x="751.2" y="167.9" class="st2" width="7.5" height="7.7"/>
<rect x="743.7" y="160.2" class="st2" width="7.5" height="7.7"/>
<rect x="736.1" y="152.5" class="st2" width="7.5" height="7.7"/>
<rect x="728.6" y="144.8" class="st2" width="7.5" height="7.7"/>
<rect x="743.7" y="144.8" class="st2" width="7.5" height="7.7"/>
<rect x="751.2" y="152.5" class="st2" width="7.5" height="7.7"/>
<rect x="758.7" y="144.8" class="st2" width="7.5" height="7.7"/>
<rect x="766.2" y="152.5" class="st2" width="7.5" height="7.7"/>
<rect x="758.7" y="160.2" class="st2" width="7.5" height="7.7"/>
<rect x="766.2" y="167.9" class="st2" width="7.5" height="7.7"/>
<rect x="773.7" y="144.8" class="st2" width="7.5" height="7.7"/>
<rect x="781.3" y="152.5" class="st2" width="7.5" height="7.7"/>
<rect x="788.8" y="160.2" class="st2" width="7.5" height="7.7"/>
<rect x="781.3" y="167.9" class="st2" width="7.5" height="7.7"/>
<rect x="788.8" y="175.6" class="st2" width="7.5" height="7.7"/>
<rect x="781.3" y="183.3" class="st2" width="7.5" height="7.7"/>
<rect x="788.8" y="191.1" class="st2" width="7.5" height="7.7"/>
<rect x="773.7" y="160.2" class="st2" width="7.5" height="7.7"/>
<rect x="773.7" y="175.6" class="st2" width="7.5" height="7.7"/>
<rect x="773.7" y="191.1" class="st2" width="7.5" height="7.7"/>
<rect x="795.3" y="183.3" class="st2" width="7.5" height="7.7"/>
<rect x="803.8" y="191.1" class="st2" width="7.5" height="7.7"/>
<rect x="796.3" y="167.9" class="st2" width="7.5" height="7.7"/>
<rect x="803.8" y="175.6" class="st2" width="7.5" height="7.7"/>
<rect x="811.3" y="183.3" class="st2" width="7.5" height="7.7"/>
<rect x="781.3" y="198.8" class="st2" width="7.5" height="7.7"/>
<rect x="796.3" y="198.8" class="st2" width="7.5" height="7.7"/>
<rect x="811.3" y="198.8" class="st2" width="7.5" height="7.7"/>
<rect x="818.9" y="191.1" class="st2" width="7.5" height="7.7"/>
<rect x="826.4" y="198.8" class="st2" width="7.5" height="7.7"/>
<rect x="826.4" y="183.3" class="st2" width="7.5" height="7.7"/>
<rect x="818.9" y="175.6" class="st2" width="7.5" height="7.7"/>
<rect x="811.3" y="167.9" class="st2" width="7.5" height="7.7"/>
<rect x="803.8" y="160.2" class="st2" width="7.5" height="7.7"/>
<rect x="796.3" y="152.5" class="st2" width="7.5" height="7.7"/>
<rect x="788.8" y="144.8" class="st2" width="7.5" height="7.7"/>
<rect x="803.8" y="144.8" class="st2" width="7.5" height="7.7"/>
<rect x="811.3" y="152.5" class="st2" width="7.5" height="7.7"/>
<rect x="818.9" y="144.8" class="st2" width="7.5" height="7.7"/>
<rect x="826.4" y="152.5" class="st2" width="7.5" height="7.7"/>
<rect x="818.9" y="160.2" class="st2" width="7.5" height="7.7"/>
<rect x="826.4" y="167.9" class="st2" width="7.5" height="7.7"/>
<rect x="833.9" y="160.2" class="st2" width="7.5" height="7.7"/>
<rect x="833.9" y="175.6" class="st2" width="7.5" height="7.7"/>
<rect x="833.9" y="191.1" class="st2" width="7.5" height="7.7"/>
<rect x="840.4" y="183.3" class="st2" width="7.5" height="7.7"/>
<rect x="848.9" y="191.1" class="st2" width="7.5" height="7.7"/>
<rect x="841.4" y="167.9" class="st2" width="7.5" height="7.7"/>
<rect x="848.9" y="175.6" class="st2" width="7.5" height="7.7"/>
<rect x="856.5" y="183.3" class="st2" width="7.5" height="7.7"/>
<rect x="841.4" y="198.8" class="st2" width="7.5" height="7.7"/>
<rect x="856.5" y="198.8" class="st2" width="7.5" height="7.7"/>
<rect x="864" y="191.1" class="st2" width="7.5" height="7.7"/>
<rect x="864" y="175.6" class="st2" width="7.5" height="7.7"/>
<rect x="856.5" y="167.9" class="st2" width="7.5" height="7.7"/>
<rect x="848.9" y="160.2" class="st2" width="7.5" height="7.7"/>
<rect x="841.4" y="152.5" class="st2" width="7.5" height="7.7"/>
<rect x="833.9" y="144.8" class="st2" width="7.5" height="7.7"/>
<rect x="848.9" y="144.8" class="st2" width="7.5" height="7.7"/>
<rect x="856.5" y="152.5" class="st2" width="7.5" height="7.7"/>
<rect x="864" y="144.8" class="st2" width="7.5" height="7.7"/>
<rect x="864" y="160.2" class="st2" width="7.5" height="7.7"/>
<rect x="548.1" y="207.2" class="st2" width="7.5" height="7.7"/>
<rect x="563.2" y="207.2" class="st2" width="7.5" height="7.7"/>
<rect x="578.2" y="207.2" class="st2" width="7.5" height="7.7"/>
<rect x="608.3" y="207.2" class="st2" width="7.5" height="7.7"/>
<rect x="593.3" y="207.2" class="st2" width="7.5" height="7.7"/>
<rect x="623.3" y="207.2" class="st2" width="7.5" height="7.7"/>
<rect x="638.4" y="207.2" class="st2" width="7.5" height="7.7"/>
<rect x="668.5" y="207.2" class="st2" width="7.5" height="7.7"/>
<rect x="653.4" y="207.2" class="st2" width="7.5" height="7.7"/>
<rect x="683.5" y="207.2" class="st2" width="7.5" height="7.7"/>
<rect x="698.5" y="207.2" class="st2" width="7.5" height="7.7"/>
<rect x="728.6" y="207.2" class="st2" width="7.5" height="7.7"/>
<rect x="713.6" y="207.2" class="st2" width="7.5" height="7.7"/>
<rect x="743.7" y="207.2" class="st2" width="7.5" height="7.7"/>
<rect x="758.7" y="207.2" class="st2" width="7.5" height="7.7"/>
<rect x="788.8" y="207.2" class="st2" width="7.5" height="7.7"/>
<rect x="773.7" y="207.2" class="st2" width="7.5" height="7.7"/>
<rect x="803.8" y="207.2" class="st2" width="7.5" height="7.7"/>
<rect x="818.9" y="207.2" class="st2" width="7.5" height="7.7"/>
<rect x="833.9" y="207.2" class="st2" width="7.5" height="7.7"/>
<rect x="848.9" y="207.2" class="st2" width="7.5" height="7.7"/>
<rect x="864" y="207.2" class="st2" width="7.5" height="7.7"/>
<polygon class="st2" points="595.3,216 588,162.5 672.3,149.5 697.8,170.6 702.3,214.9 "/>
<g>
	<polygon class="st7" points="595.3,217 588,163.5 672.3,150.5 697.8,171.6 702.3,216 	"/>
	<polyline class="st14" points="595.2,216 587.9,162.5 672.2,149.5 697.7,170.6 702.4,216 	"/>
	<line class="st6" x1="589.7" y1="175.2" x2="684.4" y2="160.5"/>
	<line class="st17" x1="590.9" y1="165.4" x2="625.7" y2="160"/>
	<line class="st17" x1="591.6" y1="168.7" x2="602.2" y2="167"/>
	<line class="st17" x1="592.8" y1="178.1" x2="606.5" y2="176"/>
	<line class="st17" x1="593.3" y1="182.3" x2="603.9" y2="180.7"/>
	<line class="st17" x1="593.8" y1="185.3" x2="612.8" y2="182.3"/>
	<line class="st17" x1="596.5" y1="202.3" x2="626.5" y2="197.7"/>
	<line class="st17" x1="597.2" y1="213.5" x2="609.3" y2="211.6"/>
	<line class="st17" x1="623" y1="214.5" x2="643.3" y2="211.3"/>
	<line class="st17" x1="648.5" y1="210.5" x2="668.9" y2="207.4"/>
	<line class="st17" x1="672.1" y1="206.8" x2="681.5" y2="205.5"/>
	<line class="st17" x1="672.7" y1="210.3" x2="693.3" y2="207.4"/>
	<line class="st17" x1="673.3" y1="213.2" x2="694" y2="210.3"/>
	<line class="st17" x1="682.8" y1="215.2" x2="694.7" y2="213.5"/>
	<line class="st17" x1="649.1" y1="213.7" x2="669.5" y2="210.5"/>
	<line class="st17" x1="660.9" y1="215.1" x2="669.9" y2="213.7"/>
	<line class="st17" x1="594.4" y1="188.3" x2="607.8" y2="186.2"/>
	<line class="st17" x1="594.9" y1="191.2" x2="606.7" y2="189.4"/>
	<line class="st17" x1="595.4" y1="193.9" x2="605.3" y2="192.3"/>
	<line class="st17" x1="597.2" y1="206.9" x2="602.1" y2="206.1"/>
	<line class="st17" x1="643.3" y1="174.9" x2="660.1" y2="172.3"/>
	<line class="st17" x1="643.8" y1="177.9" x2="662.8" y2="174.9"/>
	<line class="st17" x1="644.4" y1="180.9" x2="657.8" y2="178.8"/>
	<line class="st17" x1="644.9" y1="183.8" x2="673.7" y2="179.3"/>
	<line class="st17" x1="645.5" y1="186.5" x2="661.5" y2="184"/>
	<line class="st17" x1="596" y1="196.6" x2="613.3" y2="193.9"/>
	<line class="st17" x1="592" y1="171.7" x2="613.9" y2="168.3"/>
	<line class="st17" x1="643.3" y1="163.8" x2="667.7" y2="160"/>
	<line class="st6" x1="592.8" y1="199.8" x2="699" y2="183.3"/>
	<line class="st6" x1="593.8" y1="211.2" x2="700" y2="194.6"/>
	<g>
		<polygon class="st15" points="699,170.2 672.7,148.6 672.1,150.5 674.7,174.1 696.6,171.1 		"/>
	</g>
</g>
<polygon class="st4" points="565.9,144 527.7,215.7 -0.1,215.7 -0.1,144 "/>
<rect x="0.4" y="216.2" class="st1" width="872" height="72"/>
<g class="st12">
	<path class="st18" d="M853.3,264.4c-0.9,7.8-8,13.4-15.9,12.5c-7.9-0.9-13.5-8-12.5-15.9c0.9-7.8,8-13.5,15.9-12.5
		C848.6,249.4,854.2,256.5,853.3,264.4z"/>
	<path class="st18" d="M823.8,241.6l-4-6.8c-15.1,8.7-20.2,28-11.5,43.1l6.8-4C808.6,262.6,812.5,248.1,823.8,241.6z"/>
	<path class="st5" d="M806.2,225.2l-4-6.8c-22.6,13.1-30.4,42-17.3,64.7l6.8-4C780.9,260.4,787.3,236.2,806.2,225.2z"/>
	<path class="st13" d="M690.1,288.7c-12.2-22.6-13.3-48.7-4.7-71.6H677c-7.8,23-6.8,48.7,4.2,71.6H690.1z"/>
	<path class="st10" d="M717.9,287.2c-10.3-22.9-9.8-48.3-0.3-70.2H709c-8.7,22.1-9,47.2,0.3,70.2H717.9z"/>
	<path class="st20" d="M743.9,287.2c-12-22.8-10.3-49.5,2.5-70.2h-9.1c-11.4,21.3-12.8,47.2-2.2,70.2H743.9z"/>
	<path class="st19" d="M763.3,287.5l5.1-3c-13-22.5-8.3-50.3,9.6-67.5h-11.1c-15.7,19.5-18.9,47.3-6.2,70.4L763.3,287.5L763.3,287.5
		z"/>
</g>
<polygon class="st3" points="597.5,288.2 590.3,234.7 674.5,221.7 700,242.8 704.8,288.2 "/>
<polygon class="st4" points="568.2,216.2 529,287.9 0.2,287.9 0.2,216.2 "/>
<g>
	<polyline class="st14" points="597.5,288.2 590.3,234.7 674.5,221.7 700,242.8 704.8,288.2 	"/>
	<line class="st6" x1="592.1" y1="247.4" x2="686.7" y2="232.7"/>
	<line class="st17" x1="593.3" y1="237.6" x2="628" y2="232.2"/>
	<line class="st17" x1="593.9" y1="240.9" x2="604.5" y2="239.2"/>
	<line class="st17" x1="595.1" y1="250.2" x2="608.9" y2="248.2"/>
	<line class="st17" x1="595.7" y1="254.5" x2="606.2" y2="252.9"/>
	<line class="st17" x1="596.1" y1="257.5" x2="615.1" y2="254.5"/>
	<line class="st17" x1="598.8" y1="274.5" x2="628.8" y2="269.9"/>
	<line class="st17" x1="599.5" y1="285.7" x2="611.6" y2="283.8"/>
	<line class="st17" x1="625.3" y1="286.7" x2="645.7" y2="283.5"/>
	<line class="st17" x1="650.9" y1="282.7" x2="671.2" y2="279.6"/>
	<line class="st17" x1="674.4" y1="279" x2="683.8" y2="277.7"/>
	<line class="st17" x1="675" y1="282.5" x2="695.6" y2="279.6"/>
	<line class="st17" x1="675.7" y1="285.4" x2="696.4" y2="282.5"/>
	<line class="st17" x1="685.1" y1="287.4" x2="697.1" y2="285.7"/>
	<line class="st17" x1="651.5" y1="285.9" x2="671.8" y2="282.7"/>
	<line class="st17" x1="663.2" y1="287.2" x2="672.3" y2="285.9"/>
	<line class="st17" x1="596.7" y1="260.5" x2="610.1" y2="258.4"/>
	<line class="st17" x1="597.2" y1="263.4" x2="609" y2="261.6"/>
	<line class="st17" x1="597.8" y1="266.1" x2="607.6" y2="264.5"/>
	<line class="st17" x1="599.5" y1="279.1" x2="604.5" y2="278.2"/>
	<line class="st17" x1="645.7" y1="247.1" x2="662.5" y2="244.5"/>
	<line class="st17" x1="646.2" y1="250.1" x2="665.1" y2="247.1"/>
	<line class="st17" x1="646.7" y1="253.1" x2="660.1" y2="251"/>
	<line class="st17" x1="647.3" y1="256" x2="676.1" y2="251.5"/>
	<line class="st17" x1="647.8" y1="258.7" x2="663.9" y2="256.2"/>
	<line class="st17" x1="598.4" y1="268.8" x2="615.7" y2="266.1"/>
	<line class="st17" x1="594.3" y1="243.9" x2="616.2" y2="240.5"/>
	<line class="st17" x1="645.7" y1="236" x2="670.1" y2="232.2"/>
	<line class="st6" x1="595.1" y1="272" x2="701.3" y2="255.5"/>
	<line class="st6" x1="596.1" y1="283.4" x2="702.3" y2="266.8"/>
	<g>
		<polygon class="st15" points="701.3,242.4 675,220.8 674.4,222.7 677.1,246.2 698.9,243.2 		"/>
	</g>
</g>
<rect x="0.1" y="287.9" class="st1" width="872" height="72"/>
<polygon class="st4" points="524.6,287.9 485.5,359.6 -0.1,359.6 -0.1,287.9 "/>
<g class="st9">
	<g>
		<path class="st16" d="M572.5,316.1c0,0-17.1,0.4-18.2,16.4c-1.1,16,9,19.7,15.6,20.3c6.6,0.6,59.8,0.5,59.8,0.5
			s12.5-1.1,14.6-16.9c2-14.8-13-18.5-13-18.5s2.3-14.6-12.8-21.7c-13.6-6.3-24.8,8.3-24.8,8.3s-7.3-5.7-13.9-3.8
			C571.1,303.1,572.5,316.1,572.5,316.1z"/>
		<path class="st16" d="M572.5,316.1c0,0-17.1,0.4-18.2,16.4c-1.1,16,9,19.7,15.6,20.3c6.6,0.6,59.8,0.5,59.8,0.5
			s12.5-1.1,14.6-16.9c2-14.8-13-18.5-13-18.5s2.3-14.6-12.8-21.7c-13.6-6.3-24.8,8.3-24.8,8.3s-7.3-5.7-13.9-3.8
			C571.1,303.1,572.5,316.1,572.5,316.1z"/>
	</g>
</g>
</svg>
