<?xml version="1.0" encoding="utf-8"?>
<!-- Generator: Adobe Illustrator 15.1.0, SVG Export Plug-In . SVG Version: 6.00 Build 0)  -->
<!DOCTYPE svg PUBLIC "-//W3C//DTD SVG 1.1//EN" "http://www.w3.org/Graphics/SVG/1.1/DTD/svg11.dtd">
<svg version="1.1" id="Calque_1" xmlns="http://www.w3.org/2000/svg" xmlns:xlink="http://www.w3.org/1999/xlink" x="0px" y="0px"
	 width="872px" height="144px" viewBox="0 0 872 144" style="enable-background:new 0 0 872 144;" xml:space="preserve">
<style type="text/css">
<![CDATA[
	.st0{fill:#4B4A4A;}
	.st1{fill:#E6E6E6;}
	.st2{fill:#E8C8A8;}
	.st3{fill:#ECD2BA;}
	.st4{fill:#555555;}
	.st5{fill:#FFFFFF;}
	.st6{fill:#CFCFCF;}
]]>
</style>
<path class="st0" d="M0,72h872v72H0V72z"/>
<path class="st4" d="M524.5,72l-39.1,71.7H-0.2V72H524.5z"/>
<path class="st5" d="M564.4,144l-7.2-53.5l84.3-13L667,98.6l4.7,45.4"/>
<path class="st6" d="M670.7,144h1.9l-4.7-45.8l-26.2-21.7l-85.6,13.2l7.3,54.3h2l-0.6-4.1l103.8-16.2L670.7,144L670.7,144z
	 M558.3,91.3l83.1-12.8l1.2,10.8L559.7,102L558.3,91.3L558.3,91.3z M560,104.2l82.7-13.1l1.2,11l22-3.1l1.2,11.4l-104.2,16.2
	L560,104.2z M564.5,137.9l-1.2-9.3l104.1-16.2l1,9.3L564.5,137.9L564.5,137.9z"/>
<path class="st1" d="M564.8,123.4l17.2-2.7l0.4,2l-17.3,2.6L564.8,123.4z M564.2,120.7l9.8-1.5l0.3,1.9l-9.8,1.5L564.2,120.7z
	 M563.7,118.1l11.7-1.9l0.3,1.9l-11.7,1.8L563.7,118.1z M563.2,115.2l13.3-2.2l0.3,1.9l-13.4,2.1L563.2,115.2z M562.6,112.1l18.9-3
	l0.3,1.9l-18.9,3.1L562.6,112.1z M562,109.1l10.6-1.6l0.3,1.9l-10.6,1.7L562,109.1z M560.3,95.4l10.6-1.6l0.3,2l-10.7,1.6
	L560.3,95.4z M561.6,104.9l13.6-2.1l0.3,1.9l-13.7,2.2L561.6,104.9z M560.8,98.6l21.8-3.5l0.3,1.9l-21.8,3.5L560.8,98.6z M612,90.6
	l24.4-3.8l0.3,1.9l-24.4,3.9L612,90.6z M612,101.7l16.8-2.6l0.3,1.9l-16.8,2.7L612,101.7z M614.1,113.3l16.3-2.5l0.3,1.9l-16.3,2.6
	L614.1,113.3z M613.1,107.7l13.4-2.1l0.3,1.9l-13.4,2.2L613.1,107.7z M613.6,110.6l28.8-4.5l0.3,1.9l-28.8,4.6L613.6,110.6z
	 M612.5,104.7l19-3l0.3,1.9l-19,3.1L612.5,104.7z M566.8,143.5l18.9-3l0.3,1.9l-10,1.6l-9.1,0L566.8,143.5z M566.1,140.5l10.6-1.6
	l0.3,1.9l-10.6,1.7L566.1,140.5z M616.1,133.1l16.8-2.6l0.3,1.9l-16.8,2.7L616.1,133.1z M617.2,139.1l13.4-2.1l0.3,1.9l-13.4,2.2
	L617.2,139.1z M617.8,142l28.8-4.5l0.3,1.9L618,144L617.8,142z M623.6,144l16.9-2.6l0.3,1.9l-4.6,0.7L623.6,144z M616.6,136.1l19-3
	l0.3,1.9l-19,3.1L616.6,136.1z M565.3,133.4l18.9-3l0.3,1.9l-18.9,3.1L565.3,133.4z M564.7,130.4l10.6-1.6l0.3,1.9l-10.6,1.7
	L564.7,130.4z M614.7,123l16.8-2.6l0.3,1.9L615,125L614.7,123z M615.2,126l19-3l0.3,1.9l-19,3.1L615.2,126z M559.7,92.2l34.7-5.4
	l0.3,1.9l-34.8,5.5L559.7,92.2z"/>
<path class="st2" d="M0,0h872v72H0V0z"/>
<path class="st3" d="M524.5,0l-39.1,71.7H-0.2V0H524.5z"/>
<path class="st5" d="M564.4,72l-7.2-53.5l84.3-13L667,26.6l4.7,45.4"/>
<path class="st6" d="M670.7,72h1.9l-4.7-45.8L641.7,4.5l-85.6,13.2l7.3,54.3h2l-0.6-4.1l103.8-16.2L670.7,72L670.7,72z M558.3,19.3
	l83.1-12.8l1.2,10.8L559.7,30L558.3,19.3L558.3,19.3z M560,32.2l82.7-13.1l1.2,11l22-3.1l1.2,11.4L562.9,54.6L560,32.2z M564.5,65.9
	l-1.2-9.3l104.1-16.2l1,9.3L564.5,65.9L564.5,65.9z"/>
<path class="st1" d="M564.8,51.4l17.2-2.7l0.4,2l-17.3,2.6L564.8,51.4z M564.2,48.7l9.8-1.5l0.3,1.9l-9.8,1.5L564.2,48.7z
	 M563.7,46.1l11.7-1.9l0.3,1.9L564,47.9L563.7,46.1z M563.2,43.2l13.3-2.2l0.3,1.9L563.4,45L563.2,43.2z M562.6,40.1l18.9-3l0.3,1.9
	l-18.9,3.1L562.6,40.1z M562,37.1l10.6-1.6l0.3,1.9l-10.6,1.7L562,37.1z M560.3,23.4l10.6-1.6l0.3,2l-10.7,1.6L560.3,23.4z
	 M561.6,32.9l13.6-2.1l0.3,1.9l-13.7,2.2L561.6,32.9z M560.8,26.6l21.8-3.5l0.3,1.9l-21.8,3.5L560.8,26.6z M612,18.6l24.4-3.8
	l0.3,1.9l-24.4,3.9L612,18.6z M612,29.7l16.8-2.6l0.3,1.9l-16.8,2.7L612,29.7z M614.1,41.3l16.3-2.5l0.3,1.9l-16.3,2.6L614.1,41.3z
	 M613.1,35.7l13.4-2.1l0.3,1.9l-13.4,2.2L613.1,35.7z M613.6,38.6l28.8-4.5l0.3,1.9l-28.8,4.6L613.6,38.6z M612.5,32.7l19-3l0.3,1.9
	l-19,3.1L612.5,32.7z M566.8,71.5l18.9-3l0.3,1.9L576,72l-9.1,0L566.8,71.5z M566.1,68.5l10.6-1.6l0.3,1.9l-10.6,1.7L566.1,68.5z
	 M616.1,61.1l16.8-2.6l0.3,1.9l-16.8,2.7L616.1,61.1z M617.2,67.1l13.4-2.1l0.3,1.9l-13.4,2.2L617.2,67.1z M617.8,70l28.8-4.5
	l0.3,1.9L618,72L617.8,70z M623.6,72l16.9-2.6l0.3,1.9l-4.6,0.7L623.6,72z M616.6,64.1l19-3L636,63l-19,3.1L616.6,64.1z M565.3,61.4
	l18.9-3l0.3,1.9l-18.9,3.1L565.3,61.4z M564.7,58.4l10.6-1.6l0.3,1.9L565,60.4L564.7,58.4z M614.7,51l16.8-2.6l0.3,1.9L615,53
	L614.7,51z M615.2,54l19-3l0.3,1.9l-19,3.1L615.2,54z M559.7,20.2l34.7-5.4l0.3,1.9l-34.8,5.5L559.7,20.2z"/>
</svg>
