<?xml version="1.0" encoding="utf-8"?>
<!DOCTYPE svg PUBLIC "-//W3C//DTD SVG 1.1//EN" "http://www.w3.org/Graphics/SVG/1.1/DTD/svg11.dtd">
<svg version="1.1" id="Calque_1" xmlns="http://www.w3.org/2000/svg" xmlns:xlink="http://www.w3.org/1999/xlink" x="0px" y="0px" width="872px" height="72px" viewBox="0 0 872 72" enable-background="new 0 0 872 72" xml:space="preserve">
<rect x="0.6" fill="#EECDAE" width="872" height="72"/>
<polyline opacity="0.8" fill="#FFFFFF" stroke="#CFCFCF" stroke-width="2" stroke-miterlimit="10" enable-background="new" points="554.4,72 547.2,18.5 631.5,5.5 657,26.6 661.7,72 "/>
<line fill="none" stroke="#CFCFCF" stroke-width="2" stroke-miterlimit="10" x1="549" y1="31.2" x2="643.6" y2="16.5"/>
<line fill="none" stroke="#E6E6E6" stroke-width="2" stroke-miterlimit="10" x1="550.2" y1="21.4" x2="585" y2="16"/>
<line fill="none" stroke="#E6E6E6" stroke-width="2" stroke-miterlimit="10" x1="550.9" y1="24.7" x2="561.4" y2="23"/>
<line fill="none" stroke="#E6E6E6" stroke-width="2" stroke-miterlimit="10" x1="552.1" y1="34.1" x2="565.8" y2="32"/>
<line fill="none" stroke="#E6E6E6" stroke-width="2" stroke-miterlimit="10" x1="552.6" y1="38.3" x2="563.2" y2="36.7"/>
<line fill="none" stroke="#E6E6E6" stroke-width="2" stroke-miterlimit="10" x1="553.1" y1="41.3" x2="572.1" y2="38.3"/>
<line fill="none" stroke="#E6E6E6" stroke-width="2" stroke-miterlimit="10" x1="555.7" y1="58.3" x2="585.8" y2="53.7"/>
<line fill="none" stroke="#E6E6E6" stroke-width="2" stroke-miterlimit="10" x1="556.5" y1="69.5" x2="568.6" y2="67.6"/>
<line fill="none" stroke="#E6E6E6" stroke-width="2" stroke-miterlimit="10" x1="582.3" y1="70.5" x2="602.6" y2="67.3"/>
<line fill="none" stroke="#E6E6E6" stroke-width="2" stroke-miterlimit="10" x1="607.8" y1="66.5" x2="628.2" y2="63.4"/>
<line fill="none" stroke="#E6E6E6" stroke-width="2" stroke-miterlimit="10" x1="631.4" y1="62.8" x2="640.8" y2="61.5"/>
<line fill="none" stroke="#E6E6E6" stroke-width="2" stroke-miterlimit="10" x1="632" y1="66.3" x2="652.6" y2="63.4"/>
<line fill="none" stroke="#E6E6E6" stroke-width="2" stroke-miterlimit="10" x1="632.6" y1="69.2" x2="653.3" y2="66.3"/>
<line fill="none" stroke="#E6E6E6" stroke-width="2" stroke-miterlimit="10" x1="642.1" y1="71.2" x2="654" y2="69.5"/>
<line fill="none" stroke="#E6E6E6" stroke-width="2" stroke-miterlimit="10" x1="608.4" y1="69.7" x2="628.8" y2="66.5"/>
<line fill="none" stroke="#E6E6E6" stroke-width="2" stroke-miterlimit="10" x1="620.2" y1="71.1" x2="629.2" y2="69.7"/>
<line fill="none" stroke="#E6E6E6" stroke-width="2" stroke-miterlimit="10" x1="553.7" y1="44.3" x2="567.1" y2="42.2"/>
<line fill="none" stroke="#E6E6E6" stroke-width="2" stroke-miterlimit="10" x1="554.2" y1="47.2" x2="566" y2="45.4"/>
<line fill="none" stroke="#E6E6E6" stroke-width="2" stroke-miterlimit="10" x1="554.7" y1="49.9" x2="564.6" y2="48.3"/>
<line fill="none" stroke="#E6E6E6" stroke-width="2" stroke-miterlimit="10" x1="556.5" y1="62.9" x2="561.4" y2="62.1"/>
<line fill="none" stroke="#E6E6E6" stroke-width="2" stroke-miterlimit="10" x1="602.6" y1="30.9" x2="619.4" y2="28.3"/>
<line fill="none" stroke="#E6E6E6" stroke-width="2" stroke-miterlimit="10" x1="603.1" y1="33.9" x2="622.1" y2="30.9"/>
<line fill="none" stroke="#E6E6E6" stroke-width="2" stroke-miterlimit="10" x1="603.7" y1="36.9" x2="617.1" y2="34.8"/>
<line fill="none" stroke="#E6E6E6" stroke-width="2" stroke-miterlimit="10" x1="604.2" y1="39.8" x2="633" y2="35.3"/>
<line fill="none" stroke="#E6E6E6" stroke-width="2" stroke-miterlimit="10" x1="604.7" y1="42.5" x2="620.8" y2="40"/>
<line fill="none" stroke="#E6E6E6" stroke-width="2" stroke-miterlimit="10" x1="555.3" y1="52.6" x2="572.6" y2="49.9"/>
<line fill="none" stroke="#E6E6E6" stroke-width="2" stroke-miterlimit="10" x1="551.3" y1="27.7" x2="573.2" y2="24.3"/>
<line fill="none" stroke="#E6E6E6" stroke-width="2" stroke-miterlimit="10" x1="602.6" y1="19.8" x2="627" y2="16"/>
<line fill="none" stroke="#CFCFCF" stroke-width="2" stroke-miterlimit="10" x1="552.1" y1="55.8" x2="658.2" y2="39.3"/>
<line fill="none" stroke="#CFCFCF" stroke-width="2" stroke-miterlimit="10" x1="553.1" y1="67.2" x2="659.2" y2="50.6"/>
<polygon fill="#F2DAC3" points="525.1,0 486,71.7 0.4,71.7 0.4,0 "/>
<g><polygon fill="#CFCFCF" points="658.2,26.2 632,4.6 631.4,6.5 634,30.1 655.9,27.1"/></g>
</svg>
