<?xml version="1.0" encoding="utf-8"?>
<!DOCTYPE svg PUBLIC "-//W3C//DTD SVG 1.1//EN" "http://www.w3.org/Graphics/SVG/1.1/DTD/svg11.dtd">
<svg version="1.1" id="Calque_1" xmlns="http://www.w3.org/2000/svg" xmlns:xlink="http://www.w3.org/1999/xlink" x="0px" y="0px"
	 width="872px" height="72px" viewBox="0 0 872 72" style="enable-background:new 0 0 872 72;" xml:space="preserve">
<style type="text/css"><![CDATA[
	.st0{fill:#EECDAE;}	.st1{fill:none;stroke:#CFCFCF;stroke-width:2;stroke-miterlimit:10;}
	.st2{fill:#F2DAC3;}	.st3{opacity:0.1;fill:#3D3D3C;enable-background:new;}
	.st4{opacity:0.8;fill:#FFFFFF;stroke:#CFCFCF;stroke-width:2;stroke-miterlimit:10;enable-background:new;}
	.st5{fill:#CFCFCF;}	.st6{fill:none;stroke:#E6E6E6;stroke-width:2;stroke-miterlimit:10;}
]]></style>
<rect x="0.59" class="st0" width="872" height="72"/>
<rect x="526.07" y="54.78" class="st3" width="7.52" height="7.72"/>
<rect x="548.63" y="16.21" class="st3" width="7.52" height="7.71"/>
<rect x="541.11" y="23.92" class="st3" width="7.52" height="7.71"/>
<rect x="548.63" y="31.63" class="st3" width="7.52" height="7.71"/>
<rect x="541.11" y="39.35" class="st3" width="7.52" height="7.71"/>
<rect x="548.63" y="47.06" class="st3" width="7.52" height="7.71"/>
<rect x="533.59" y="47.06" class="st3" width="7.52" height="7.71"/>
<rect x="555.15" y="39.35" class="st3" width="7.52" height="7.71"/>
<rect x="563.67" y="47.06" class="st3" width="7.52" height="7.71"/>
<rect x="556.15" y="23.92" class="st3" width="7.52" height="7.71"/>
<rect x="563.67" y="31.63" class="st3" width="7.52" height="7.71"/>
<rect x="571.19" y="39.35" class="st3" width="7.52" height="7.71"/>
<rect x="541.11" y="54.78" class="st3" width="7.52" height="7.72"/>
<rect x="533.59" y="63.17" class="st3" width="7.52" height="7.71"/>
<rect x="556.15" y="54.78" class="st3" width="7.52" height="7.72"/>
<rect x="571.19" y="54.78" class="st3" width="7.52" height="7.72"/>
<rect x="578.71" y="47.06" class="st3" width="7.52" height="7.71"/>
<rect x="586.23" y="54.78" class="st3" width="7.52" height="7.72"/>
<rect x="586.23" y="39.35" class="st3" width="7.52" height="7.71"/>
<rect x="578.71" y="31.63" class="st3" width="7.52" height="7.71"/>
<rect x="571.19" y="23.92" class="st3" width="7.52" height="7.71"/>
<rect x="563.67" y="16.21" class="st3" width="7.52" height="7.71"/>
<rect x="556.15" y="8.49" class="st3" width="7.52" height="7.71"/>
<rect x="563.67" y="0.78" class="st3" width="7.52" height="7.71"/>
<rect x="571.19" y="8.49" class="st3" width="7.52" height="7.71"/>
<rect x="578.71" y="0.78" class="st3" width="7.52" height="7.71"/>
<rect x="586.23" y="8.49" class="st3" width="7.52" height="7.71"/>
<rect x="578.71" y="16.21" class="st3" width="7.52" height="7.71"/>
<rect x="586.23" y="23.92" class="st3" width="7.52" height="7.71"/>
<rect x="593.75" y="0.78" class="st3" width="7.52" height="7.71"/>
<rect x="601.27" y="8.49" class="st3" width="7.52" height="7.71"/>
<rect x="608.79" y="16.21" class="st3" width="7.52" height="7.71"/>
<rect x="601.27" y="23.92" class="st3" width="7.52" height="7.71"/>
<rect x="608.79" y="31.63" class="st3" width="7.52" height="7.71"/>
<rect x="601.27" y="39.35" class="st3" width="7.52" height="7.71"/>
<rect x="608.79" y="47.06" class="st3" width="7.52" height="7.71"/>
<rect x="593.75" y="16.21" class="st3" width="7.52" height="7.71"/>
<rect x="593.75" y="31.63" class="st3" width="7.52" height="7.71"/>
<rect x="593.75" y="47.06" class="st3" width="7.52" height="7.71"/>
<rect x="615.31" y="39.35" class="st3" width="7.52" height="7.71"/>
<rect x="623.83" y="47.06" class="st3" width="7.52" height="7.71"/>
<rect x="616.31" y="23.92" class="st3" width="7.52" height="7.71"/>
<rect x="623.83" y="31.63" class="st3" width="7.52" height="7.71"/>
<rect x="631.35" y="39.35" class="st3" width="7.52" height="7.71"/>
<rect x="601.27" y="54.78" class="st3" width="7.52" height="7.72"/>
<rect x="616.31" y="54.78" class="st3" width="7.52" height="7.72"/>
<rect x="631.35" y="54.78" class="st3" width="7.52" height="7.72"/>
<rect x="638.87" y="47.06" class="st3" width="7.52" height="7.71"/>
<rect x="646.39" y="54.78" class="st3" width="7.52" height="7.72"/>
<rect x="646.39" y="39.35" class="st3" width="7.52" height="7.71"/>
<rect x="638.87" y="31.63" class="st3" width="7.52" height="7.71"/>
<rect x="631.35" y="23.92" class="st3" width="7.52" height="7.71"/>
<rect x="623.83" y="16.21" class="st3" width="7.52" height="7.71"/>
<rect x="616.31" y="8.49" class="st3" width="7.52" height="7.71"/>
<rect x="608.79" y="0.78" class="st3" width="7.52" height="7.71"/>
<rect x="623.83" y="0.78" class="st3" width="7.52" height="7.71"/>
<rect x="631.35" y="8.49" class="st3" width="7.52" height="7.71"/>
<rect x="638.87" y="0.78" class="st3" width="7.52" height="7.71"/>
<rect x="646.39" y="8.49" class="st3" width="7.52" height="7.71"/>
<rect x="638.87" y="16.21" class="st3" width="7.52" height="7.71"/>
<rect x="646.39" y="23.92" class="st3" width="7.52" height="7.71"/>
<rect x="653.91" y="0.78" class="st3" width="7.52" height="7.71"/>
<rect x="661.43" y="8.49" class="st3" width="7.52" height="7.71"/>
<rect x="668.95" y="16.21" class="st3" width="7.52" height="7.71"/>
<rect x="661.43" y="23.92" class="st3" width="7.52" height="7.71"/>
<rect x="668.95" y="31.63" class="st3" width="7.52" height="7.71"/>
<rect x="661.43" y="39.35" class="st3" width="7.52" height="7.71"/>
<rect x="668.95" y="47.06" class="st3" width="7.52" height="7.71"/>
<rect x="653.91" y="16.21" class="st3" width="7.52" height="7.71"/>
<rect x="653.91" y="31.63" class="st3" width="7.52" height="7.71"/>
<rect x="653.91" y="47.06" class="st3" width="7.52" height="7.71"/>
<rect x="675.47" y="39.35" class="st3" width="7.52" height="7.71"/>
<rect x="683.99" y="47.06" class="st3" width="7.52" height="7.71"/>
<rect x="676.47" y="23.92" class="st3" width="7.52" height="7.71"/>
<rect x="683.99" y="31.63" class="st3" width="7.52" height="7.71"/>
<rect x="691.51" y="39.35" class="st3" width="7.52" height="7.71"/>
<rect x="661.43" y="54.78" class="st3" width="7.52" height="7.72"/>
<rect x="676.47" y="54.78" class="st3" width="7.52" height="7.72"/>
<rect x="691.51" y="54.78" class="st3" width="7.52" height="7.72"/>
<rect x="699.03" y="47.06" class="st3" width="7.52" height="7.71"/>
<rect x="706.55" y="54.78" class="st3" width="7.52" height="7.72"/>
<rect x="706.55" y="39.35" class="st3" width="7.52" height="7.71"/>
<rect x="699.03" y="31.63" class="st3" width="7.52" height="7.71"/>
<rect x="691.51" y="23.92" class="st3" width="7.52" height="7.71"/>
<rect x="683.99" y="16.21" class="st3" width="7.52" height="7.71"/>
<rect x="676.47" y="8.49" class="st3" width="7.52" height="7.71"/>
<rect x="668.95" y="0.78" class="st3" width="7.52" height="7.71"/>
<rect x="683.99" y="0.78" class="st3" width="7.52" height="7.71"/>
<rect x="691.51" y="8.49" class="st3" width="7.52" height="7.71"/>
<rect x="699.03" y="0.78" class="st3" width="7.52" height="7.71"/>
<rect x="706.55" y="8.49" class="st3" width="7.52" height="7.71"/>
<rect x="699.03" y="16.21" class="st3" width="7.52" height="7.71"/>
<rect x="706.55" y="23.92" class="st3" width="7.52" height="7.71"/>
<rect x="714.07" y="0.78" class="st3" width="7.52" height="7.71"/>
<rect x="721.59" y="8.49" class="st3" width="7.52" height="7.71"/>
<rect x="729.11" y="16.21" class="st3" width="7.52" height="7.71"/>
<rect x="721.59" y="23.92" class="st3" width="7.52" height="7.71"/>
<rect x="729.11" y="31.63" class="st3" width="7.52" height="7.71"/>
<rect x="721.59" y="39.35" class="st3" width="7.52" height="7.71"/>
<rect x="729.11" y="47.06" class="st3" width="7.52" height="7.71"/>
<rect x="714.07" y="16.21" class="st3" width="7.52" height="7.71"/>
<rect x="714.07" y="31.63" class="st3" width="7.52" height="7.71"/>
<rect x="714.07" y="47.06" class="st3" width="7.52" height="7.71"/>
<rect x="735.63" y="39.35" class="st3" width="7.52" height="7.71"/>
<rect x="744.16" y="47.06" class="st3" width="7.52" height="7.71"/>
<rect x="736.64" y="23.92" class="st3" width="7.52" height="7.71"/>
<rect x="744.16" y="31.63" class="st3" width="7.52" height="7.71"/>
<rect x="751.68" y="39.35" class="st3" width="7.52" height="7.71"/>
<rect x="721.59" y="54.78" class="st3" width="7.52" height="7.72"/>
<rect x="736.64" y="54.78" class="st3" width="7.52" height="7.72"/>
<rect x="751.68" y="54.78" class="st3" width="7.52" height="7.72"/>
<rect x="759.2" y="47.06" class="st3" width="7.52" height="7.71"/>
<rect x="766.72" y="54.78" class="st3" width="7.52" height="7.72"/>
<rect x="766.72" y="39.35" class="st3" width="7.52" height="7.71"/>
<rect x="759.2" y="31.63" class="st3" width="7.52" height="7.71"/>
<rect x="751.68" y="23.92" class="st3" width="7.52" height="7.71"/>
<rect x="744.16" y="16.21" class="st3" width="7.52" height="7.71"/>
<rect x="736.64" y="8.49" class="st3" width="7.52" height="7.71"/>
<rect x="729.11" y="0.78" class="st3" width="7.52" height="7.71"/>
<rect x="744.16" y="0.78" class="st3" width="7.52" height="7.71"/>
<rect x="751.68" y="8.49" class="st3" width="7.52" height="7.71"/>
<rect x="759.2" y="0.78" class="st3" width="7.52" height="7.71"/>
<rect x="766.72" y="8.49" class="st3" width="7.52" height="7.71"/>
<rect x="759.2" y="16.21" class="st3" width="7.52" height="7.71"/>
<rect x="766.72" y="23.92" class="st3" width="7.52" height="7.71"/>
<rect x="774.24" y="0.78" class="st3" width="7.52" height="7.71"/>
<rect x="781.76" y="8.49" class="st3" width="7.52" height="7.71"/>
<rect x="789.28" y="16.21" class="st3" width="7.52" height="7.71"/>
<rect x="781.76" y="23.92" class="st3" width="7.52" height="7.71"/>
<rect x="789.28" y="31.63" class="st3" width="7.52" height="7.71"/>
<rect x="781.76" y="39.35" class="st3" width="7.52" height="7.71"/>
<rect x="789.28" y="47.06" class="st3" width="7.52" height="7.71"/>
<rect x="774.24" y="16.21" class="st3" width="7.52" height="7.71"/>
<rect x="774.24" y="31.63" class="st3" width="7.52" height="7.71"/>
<rect x="774.24" y="47.06" class="st3" width="7.52" height="7.71"/>
<rect x="795.8" y="39.35" class="st3" width="7.52" height="7.71"/>
<rect x="804.32" y="47.06" class="st3" width="7.52" height="7.71"/>
<rect x="796.8" y="23.92" class="st3" width="7.52" height="7.71"/>
<rect x="804.32" y="31.63" class="st3" width="7.52" height="7.71"/>
<rect x="811.84" y="39.35" class="st3" width="7.52" height="7.71"/>
<rect x="781.76" y="54.78" class="st3" width="7.52" height="7.72"/>
<rect x="796.8" y="54.78" class="st3" width="7.52" height="7.72"/>
<rect x="811.84" y="54.78" class="st3" width="7.52" height="7.72"/>
<rect x="819.36" y="47.06" class="st3" width="7.52" height="7.71"/>
<rect x="826.88" y="54.78" class="st3" width="7.52" height="7.72"/>
<rect x="826.88" y="39.35" class="st3" width="7.52" height="7.71"/>
<rect x="819.36" y="31.63" class="st3" width="7.52" height="7.71"/>
<rect x="811.84" y="23.92" class="st3" width="7.52" height="7.71"/>
<rect x="804.32" y="16.21" class="st3" width="7.52" height="7.71"/>
<rect x="796.8" y="8.49" class="st3" width="7.52" height="7.71"/>
<rect x="789.28" y="0.78" class="st3" width="7.52" height="7.71"/>
<rect x="804.32" y="0.78" class="st3" width="7.52" height="7.71"/>
<rect x="811.84" y="8.49" class="st3" width="7.52" height="7.71"/>
<rect x="819.36" y="0.78" class="st3" width="7.52" height="7.71"/>
<rect x="826.88" y="8.49" class="st3" width="7.52" height="7.71"/>
<rect x="819.36" y="16.21" class="st3" width="7.52" height="7.71"/>
<rect x="826.88" y="23.92" class="st3" width="7.52" height="7.71"/>
<rect x="834.4" y="16.21" class="st3" width="7.52" height="7.71"/>
<rect x="834.4" y="31.63" class="st3" width="7.52" height="7.71"/>
<rect x="834.4" y="47.06" class="st3" width="7.52" height="7.71"/>
<rect x="840.92" y="39.35" class="st3" width="7.52" height="7.71"/>
<rect x="849.44" y="47.06" class="st3" width="7.52" height="7.71"/>
<rect x="841.92" y="23.92" class="st3" width="7.52" height="7.71"/>
<rect x="849.44" y="31.63" class="st3" width="7.52" height="7.71"/>
<rect x="856.96" y="39.35" class="st3" width="7.52" height="7.71"/>
<rect x="841.92" y="54.78" class="st3" width="7.52" height="7.72"/>
<rect x="856.96" y="54.78" class="st3" width="7.52" height="7.72"/>
<rect x="864.48" y="47.06" class="st3" width="7.52" height="7.71"/>
<rect x="864.48" y="31.63" class="st3" width="7.52" height="7.71"/>
<rect x="856.96" y="23.92" class="st3" width="7.52" height="7.71"/>
<rect x="849.44" y="16.21" class="st3" width="7.52" height="7.71"/>
<rect x="841.92" y="8.49" class="st3" width="7.52" height="7.71"/>
<rect x="834.4" y="0.78" class="st3" width="7.52" height="7.71"/>
<rect x="849.44" y="0.78" class="st3" width="7.52" height="7.71"/>
<rect x="856.96" y="8.49" class="st3" width="7.52" height="7.71"/>
<rect x="864.48" y="0.78" class="st3" width="7.52" height="7.71"/>
<rect x="864.48" y="16.21" class="st3" width="7.52" height="7.71"/>
<rect x="548.63" y="63.17" class="st3" width="7.52" height="7.71"/>
<rect x="563.67" y="63.17" class="st3" width="7.52" height="7.71"/>
<rect x="578.71" y="63.17" class="st3" width="7.52" height="7.71"/>
<rect x="608.79" y="63.17" class="st3" width="7.52" height="7.71"/>
<rect x="593.75" y="63.17" class="st3" width="7.52" height="7.71"/>
<rect x="623.83" y="63.17" class="st3" width="7.52" height="7.71"/>
<rect x="638.87" y="63.17" class="st3" width="7.52" height="7.71"/>
<rect x="668.95" y="63.17" class="st3" width="7.52" height="7.71"/>
<rect x="653.91" y="63.17" class="st3" width="7.52" height="7.71"/>
<rect x="683.99" y="63.17" class="st3" width="7.52" height="7.71"/>
<rect x="699.03" y="63.17" class="st3" width="7.52" height="7.71"/>
<rect x="729.11" y="63.17" class="st3" width="7.52" height="7.71"/>
<rect x="714.07" y="63.17" class="st3" width="7.52" height="7.71"/>
<rect x="744.16" y="63.17" class="st3" width="7.52" height="7.71"/>
<rect x="759.2" y="63.17" class="st3" width="7.52" height="7.71"/>
<rect x="789.28" y="63.17" class="st3" width="7.52" height="7.71"/>
<rect x="774.24" y="63.17" class="st3" width="7.52" height="7.71"/>
<rect x="804.32" y="63.17" class="st3" width="7.52" height="7.71"/>
<rect x="819.36" y="63.17" class="st3" width="7.52" height="7.71"/>
<rect x="834.4" y="63.17" class="st3" width="7.52" height="7.71"/>
<rect x="849.44" y="63.17" class="st3" width="7.52" height="7.71"/>
<rect x="864.48" y="63.17" class="st3" width="7.52" height="7.71"/>
<polygon class="st2" points="595.78,72 588.53,18.5 672.8,5.5 698.29,26.58 702.78,70.88 "/>
<g>
	<polyline class="st4" points="595.65,72 588.4,18.5 672.68,5.5 698.17,26.58 702.9,72 	"/>
	<line class="st1" x1="590.22" y1="31.25" x2="684.86" y2="16.49"/>
	<line class="st6" x1="591.43" y1="21.4" x2="626.2" y2="15.98"/>
	<line class="st6" x1="592.08" y1="24.69" x2="602.65" y2="23.05"/>
	<line class="st6" x1="593.31" y1="34.14" x2="607.01" y2="32"/>
	<line class="st6" x1="593.82" y1="38.32" x2="604.39" y2="36.67"/>
	<line class="st6" x1="594.31" y1="41.28" x2="613.28" y2="38.32"/>
	<line class="st6" x1="596.96" y1="58.35" x2="626.98" y2="53.67"/>
	<line class="st6" x1="597.7" y1="69.51" x2="609.8" y2="67.62"/>
	<line class="st6" x1="623.49" y1="70.46" x2="643.83" y2="67.28"/>
	<line class="st6" x1="649.05" y1="66.54" x2="669.39" y2="63.37"/>
	<line class="st6" x1="672.6" y1="62.79" x2="681.98" y2="61.46"/>
	<line class="st6" x1="673.21" y1="66.28" x2="693.81" y2="63.37"/>
	<line class="st6" x1="673.83" y1="69.22" x2="694.54" y2="66.29"/>
	<line class="st6" x1="683.31" y1="71.2" x2="695.22" y2="69.51"/>
	<line class="st6" x1="649.64" y1="69.71" x2="669.98" y2="66.54"/>
	<line class="st6" x1="661.4" y1="71.08" x2="670.44" y2="69.67"/>
	<line class="st6" x1="594.88" y1="44.28" x2="608.3" y2="42.19"/>
	<line class="st6" x1="595.4" y1="47.21" x2="607.18" y2="45.38"/>
	<line class="st6" x1="595.94" y1="49.86" x2="605.8" y2="48.32"/>
	<line class="st6" x1="597.7" y1="62.86" x2="602.63" y2="62.09"/>
	<line class="st6" x1="643.83" y1="30.92" x2="660.64" y2="28.3"/>
	<line class="st6" x1="644.32" y1="33.88" x2="663.28" y2="30.92"/>
	<line class="st6" x1="644.89" y1="36.88" x2="658.3" y2="34.78"/>
	<line class="st6" x1="645.4" y1="39.81" x2="674.22" y2="35.32"/>
	<line class="st6" x1="645.95" y1="42.46" x2="662.05" y2="39.95"/>
	<line class="st6" x1="596.54" y1="52.56" x2="613.84" y2="49.86"/>
	<line class="st6" x1="592.49" y1="27.68" x2="614.39" y2="24.26"/>
	<line class="st6" x1="643.83" y1="19.79" x2="668.22" y2="15.98"/>
	<line class="st1" x1="593.31" y1="55.83" x2="699.47" y2="39.28"/>
	<line class="st1" x1="594.31" y1="67.17" x2="700.47" y2="50.61"/>
	<g>
		<polygon class="st5" points="699.47,26.23 673.21,4.65 672.6,6.5 675.22,30.12 697.1,27.12 		"/>
	</g>
</g>
<polygon class="st2" points="566.4,0.05 528.17,71.68 0.36,71.68 0.38,0.05 "/>
</svg>
