<?xml version="1.0" encoding="utf-8"?>
<!DOCTYPE svg PUBLIC "-//W3C//DTD SVG 1.1//EN" "http://www.w3.org/Graphics/SVG/1.1/DTD/svg11.dtd">
<svg version="1.1" id="Calque_1" xmlns="http://www.w3.org/2000/svg" xmlns:xlink="http://www.w3.org/1999/xlink" x="0px" y="0px"
	 width="872px" height="72px" viewBox="0 0 872 72" enable-background="new 0 0 872 72" xml:space="preserve">
<rect x="0.6" fill="#4E4D4D" width="872" height="72"/>
<polygon opacity="0.75" fill="#5D5D5C" enable-background="new" points="525.1,0 486,71.7 0.4,71.7 0.4,0 "/>
<g opacity="0.8" enable-background="new">
	<g>
		<path fill="#FFFFFF" d="M572,28c0,0-17.1,0.4-18.2,16.4c-1.1,16,9,19.7,15.6,20.3c6.6,0.6,59.8,0.5,59.8,0.5s12.5-1,14.6-16.9
			c2-14.8-13-18.4-13-18.4s2.3-14.6-12.8-21.7c-13.6-6.3-24.8,8.3-24.8,8.3s-7.3-5.7-13.9-3.8C570.6,15.1,572,28,572,28z"/>
		<path fill="none" stroke="#CFCFCF" stroke-width="2" stroke-miterlimit="10" d="M572,28c0,0-17.1,0.4-18.2,16.4
			c-1.1,16,9,19.7,15.6,20.3c6.6,0.6,59.8,0.5,59.8,0.5s12.5-1,14.6-16.9c2-14.8-13-18.4-13-18.4s2.3-14.6-12.8-21.7
			c-13.6-6.3-24.8,8.3-24.8,8.3s-7.3-5.7-13.9-3.8C570.6,15.1,572,28,572,28z"/>
	</g>
</g>
</svg>
