<?xml version="1.0" encoding="utf-8"?>
<!DOCTYPE svg PUBLIC "-//W3C//DTD SVG 1.1//EN" "http://www.w3.org/Graphics/SVG/1.1/DTD/svg11.dtd">
<svg version="1.1" id="Calque_1" xmlns="http://www.w3.org/2000/svg" xmlns:xlink="http://www.w3.org/1999/xlink" x="0px" y="0px"
	 width="872px" height="72px" viewBox="0 0 872 72" style="enable-background:new 0 0 872 72;" xml:space="preserve">
<style type="text/css"><![CDATA[
	.st0{fill:#4E4D4D;} .st1{opacity:0.96;fill:#FFFFFF;stroke:#CFCFCF;stroke-width:2;stroke-miterlimit:10;enable-background:new;}
	.st2{fill:#595958;}	.st3{fill:none;stroke:#CFCFCF;stroke-width:2;stroke-miterlimit:10;}
	.st4{opacity:0.13;fill:none;stroke:#000000;stroke-width:0.75;enable-background:new;}
	.st5{opacity:0.13;fill:none;stroke:#000000;stroke-width:2;enable-background:new;}
	.st6{fill:#CFCFCF;}	.st7{fill:none;stroke:#E6E6E6;stroke-width:2;stroke-miterlimit:10;}
	.st8{opacity:0.13;fill:#3D3D3C;stroke:#000000;stroke-width:2;enable-background:new;}
]]></style>
<rect x="0.6" class="st0" width="872" height="72"/>
<rect x="817.4" y="14.3" transform="matrix(-1 -4.651204e-03 4.651204e-03 -1 1637.6558 35.479)" class="st8" width="2.9" height="3"/>
<rect x="804.9" y="39.5" transform="matrix(-1 -4.318852e-03 4.318852e-03 -1 1612.4707 85.4723)" class="st8" width="2.9" height="3"/>
<rect x="797.8" y="24.2" transform="matrix(-1 -4.483597e-03 4.483597e-03 -1 1598.4127 55.034)" class="st8" width="2.9" height="3"/>
<rect x="859.8" y="33.4" transform="matrix(-1 -4.649535e-03 4.649535e-03 -1 1722.3473 73.695)" class="st8" width="2.9" height="3"/>
<rect x="839.3" y="39.6" transform="matrix(-1 -5.298025e-03 5.298025e-03 -1 1681.364 86.7059)" class="st8" width="2.9" height="3"/>
<rect x="722.1" y="51.8" transform="matrix(-1 -4.634276e-03 4.634276e-03 -1 1446.9906 109.8451)" class="st8" width="3" height="3"/>
<rect x="759.7" y="38" transform="matrix(-1 -4.649535e-03 4.649535e-03 -1 1522.2241 82.53)" class="st8" width="2.9" height="3"/>
<rect x="742" y="30" transform="matrix(-1 -4.799737e-03 4.799737e-03 -1 1486.7465 66.5988)" class="st8" width="3" height="3"/>
<rect x="771.8" y="4.6" transform="matrix(-1 -4.483597e-03 4.483597e-03 -1 1546.4407 15.5772)" class="st8" width="2.9" height="3"/>
<rect x="688.5" y="15.9" transform="matrix(-1 -4.468577e-03 4.468577e-03 -1 1379.9595 37.8337)" class="st8" width="3" height="3"/>
<rect x="620.4" y="42.5" transform="matrix(-1 -4.634276e-03 4.634276e-03 -1 1243.5933 90.8523)" class="st8" width="3" height="3"/>
<rect x="607.9" y="7.8" transform="matrix(-1 -4.815711e-03 4.815711e-03 -1 1218.6219 21.5446)" class="st8" width="2.9" height="3"/>
<rect x="573.8" y="48.8" transform="matrix(-1 -4.649535e-03 4.649535e-03 -1 1150.2726 103.2747)" class="st8" width="2.9" height="3"/>
<rect x="546.2" y="17.3" transform="matrix(-1 -4.983317e-03 4.983317e-03 -1 1095.293 40.3795)" class="st8" width="2.9" height="3"/>
<rect x="534.7" y="52.5" transform="matrix(-1 -4.651204e-03 4.651204e-03 -1 1072.155 110.5637)" class="st8" width="2.9" height="3"/>
<rect x="560.4" y="31.5" transform="matrix(-1 -4.799737e-03 4.799737e-03 -1 1123.6183 68.7073)" class="st8" width="3" height="3"/>
<rect x="652.5" y="7.8" transform="matrix(-1 -4.651204e-03 4.651204e-03 -1 1307.8442 21.6119)" class="st8" width="2.9" height="3"/>
<rect x="702.7" y="61.5" transform="matrix(-1 -4.634276e-03 4.634276e-03 -1 1408.1255 129.2043)" class="st8" width="3" height="3"/>
<polyline class="st5" points="543.2,42.2 548.7,45 599.1,41 620.4,15.8 669.5,22.3 689.1,0.5 "/>
<polyline class="st5" points="620.4,71.5 652.5,39.6 741.4,42.5 760.7,56.1 799.3,0.5 "/>
<polyline class="st5" points="872,64.4 833,18.1 817.9,58.5 778.7,56.1 767.7,71.5 "/>
<path class="st4" d="M729.7,1.9"/>
<rect x="657.3" y="51.8" transform="matrix(-1 -5.315430e-03 5.315430e-03 -1 1317.1665 110.0427)" class="st8" width="2.9" height="3"/>
<rect x="708.4" y="9.4" transform="matrix(-1 -4.483597e-03 4.483597e-03 -1 1419.6581 24.8931)" class="st8" width="2.9" height="3"/>
<g>
	<polygon class="st0" points="598.2,72 590.9,18.5 675.2,5.5 700.7,26.6 705.2,70.9"/>
	<polyline class="st1" points="597.8,72 590.5,18.5 674.8,5.5 700.3,26.6 705,72"/>
	<line class="st3" x1="592.3" y1="31.2" x2="687" y2="16.5"/>
	<line class="st7" x1="593.5" y1="21.4" x2="628.3" y2="16"/>
	<line class="st7" x1="594.2" y1="24.7" x2="604.8" y2="23"/>
	<line class="st7" x1="595.4" y1="34.1" x2="609.1" y2="32"/>
	<line class="st7" x1="595.9" y1="38.3" x2="606.5" y2="36.7"/>
	<line class="st7" x1="596.4" y1="41.3" x2="615.4" y2="38.3"/>
	<line class="st7" x1="599.1" y1="58.3" x2="629.1" y2="53.7"/>
	<line class="st7" x1="599.8" y1="69.5" x2="611.9" y2="67.6"/>
	<line class="st7" x1="625.6" y1="70.5" x2="645.9" y2="67.3"/>
	<line class="st7" x1="651.2" y1="66.5" x2="671.5" y2="63.4"/>
	<line class="st7" x1="674.7" y1="62.8" x2="684.1" y2="61.5"/>
	<line class="st7" x1="675.3" y1="66.3" x2="695.9" y2="63.4"/>
	<line class="st7" x1="675.9" y1="69.2" x2="696.7" y2="66.3"/>
	<line class="st7" x1="685.4" y1="71.2" x2="697.3" y2="69.5"/>
	<line class="st7" x1="651.8" y1="69.7" x2="672.1" y2="66.5"/>
	<line class="st7" x1="663.5" y1="71.1" x2="672.5" y2="69.7"/>
	<line class="st7" x1="597" y1="44.3" x2="610.4" y2="42.2"/>
	<line class="st7" x1="597.5" y1="47.2" x2="609.3" y2="45.4"/>
	<line class="st7" x1="598" y1="49.9" x2="607.9" y2="48.3"/>
	<line class="st7" x1="599.8" y1="62.9" x2="604.7" y2="62.1"/>
	<line class="st7" x1="645.9" y1="30.9" x2="662.7" y2="28.3"/>
	<line class="st7" x1="646.4" y1="33.9" x2="665.4" y2="30.9"/>
	<line class="st7" x1="647" y1="36.9" x2="660.4" y2="34.8"/>
	<line class="st7" x1="647.5" y1="39.8" x2="676.3" y2="35.3"/>
	<line class="st7" x1="648" y1="42.5" x2="664.2" y2="40"/>
	<line class="st7" x1="598.6" y1="52.6" x2="616" y2="49.9"/>
	<line class="st7" x1="594.6" y1="27.7" x2="616.5" y2="24.3"/>
	<line class="st7" x1="645.9" y1="19.8" x2="670.3" y2="16"/>
	<line class="st3" x1="595.4" y1="55.8" x2="701.6" y2="39.3"/>
	<line class="st3" x1="596.4" y1="67.2" x2="702.6" y2="50.6"/>
	<g><polygon class="st6" points="701.6,26.2 675.3,4.6 674.7,6.5 677.3,30.1 699.2,27.1"/></g>
</g>
<polygon class="st2" points="567.5,0 528.8,71.7 0.4,71.7 0.4,0 "/>
</svg>
