<?xml version="1.0" encoding="utf-8"?>
<!DOCTYPE svg PUBLIC "-//W3C//DTD SVG 1.1//EN" "http://www.w3.org/Graphics/SVG/1.1/DTD/svg11.dtd">
<svg version="1.1" id="Calque_1" xmlns="http://www.w3.org/2000/svg" xmlns:xlink="http://www.w3.org/1999/xlink" x="0px" y="0px"
	 width="872px" height="72px" viewBox="0 0 872 72" enable-background="new 0 0 872 72" xml:space="preserve">
<rect x="0.59" fill="#4E4D4D" width="872" height="72"/>
<polygon opacity="0.75" fill="#5D5D5C" enable-background="new    " points="525.13,0.05 485.96,71.68 0.36,71.68 0.38,0.05 "/>
<g>
	
		<polyline opacity="0.96" fill="#FFFFFF" stroke="#CFCFCF" stroke-width="2" stroke-miterlimit="10" enable-background="new    " points="
		553.43,72 546.18,18.5 630.46,5.5 655.95,26.58 660.68,72 	"/>
	<line fill="none" stroke="#CFCFCF" stroke-width="2" stroke-miterlimit="10" x1="548" y1="31.25" x2="642.64" y2="16.49"/>
	<line fill="none" stroke="#E6E6E6" stroke-width="2" stroke-miterlimit="10" x1="549.21" y1="21.4" x2="583.98" y2="15.98"/>
	<line fill="none" stroke="#E6E6E6" stroke-width="2" stroke-miterlimit="10" x1="549.86" y1="24.69" x2="560.43" y2="23.05"/>
	<line fill="none" stroke="#E6E6E6" stroke-width="2" stroke-miterlimit="10" x1="551.09" y1="34.14" x2="564.79" y2="32"/>
	<line fill="none" stroke="#E6E6E6" stroke-width="2" stroke-miterlimit="10" x1="551.6" y1="38.32" x2="562.17" y2="36.67"/>
	<line fill="none" stroke="#E6E6E6" stroke-width="2" stroke-miterlimit="10" x1="552.09" y1="41.28" x2="571.06" y2="38.32"/>
	<line fill="none" stroke="#E6E6E6" stroke-width="2" stroke-miterlimit="10" x1="554.74" y1="58.35" x2="584.76" y2="53.67"/>
	<line fill="none" stroke="#E6E6E6" stroke-width="2" stroke-miterlimit="10" x1="555.48" y1="69.51" x2="567.58" y2="67.62"/>
	<line fill="none" stroke="#E6E6E6" stroke-width="2" stroke-miterlimit="10" x1="581.27" y1="70.46" x2="601.61" y2="67.28"/>
	<line fill="none" stroke="#E6E6E6" stroke-width="2" stroke-miterlimit="10" x1="606.83" y1="66.54" x2="627.17" y2="63.37"/>
	<line fill="none" stroke="#E6E6E6" stroke-width="2" stroke-miterlimit="10" x1="630.38" y1="62.79" x2="639.76" y2="61.46"/>
	<line fill="none" stroke="#E6E6E6" stroke-width="2" stroke-miterlimit="10" x1="630.99" y1="66.28" x2="651.59" y2="63.37"/>
	<line fill="none" stroke="#E6E6E6" stroke-width="2" stroke-miterlimit="10" x1="631.61" y1="69.21" x2="652.32" y2="66.29"/>
	<line fill="none" stroke="#E6E6E6" stroke-width="2" stroke-miterlimit="10" x1="641.09" y1="71.2" x2="653" y2="69.51"/>
	<line fill="none" stroke="#E6E6E6" stroke-width="2" stroke-miterlimit="10" x1="607.42" y1="69.71" x2="627.76" y2="66.54"/>
	<line fill="none" stroke="#E6E6E6" stroke-width="2" stroke-miterlimit="10" x1="619.18" y1="71.08" x2="628.22" y2="69.67"/>
	<line fill="none" stroke="#E6E6E6" stroke-width="2" stroke-miterlimit="10" x1="552.66" y1="44.28" x2="566.08" y2="42.19"/>
	<line fill="none" stroke="#E6E6E6" stroke-width="2" stroke-miterlimit="10" x1="553.18" y1="47.21" x2="564.96" y2="45.38"/>
	<line fill="none" stroke="#E6E6E6" stroke-width="2" stroke-miterlimit="10" x1="553.72" y1="49.86" x2="563.58" y2="48.32"/>
	<line fill="none" stroke="#E6E6E6" stroke-width="2" stroke-miterlimit="10" x1="555.48" y1="62.86" x2="560.41" y2="62.09"/>
	<line fill="none" stroke="#E6E6E6" stroke-width="2" stroke-miterlimit="10" x1="601.61" y1="30.92" x2="618.42" y2="28.3"/>
	<line fill="none" stroke="#E6E6E6" stroke-width="2" stroke-miterlimit="10" x1="602.1" y1="33.88" x2="621.06" y2="30.92"/>
	<line fill="none" stroke="#E6E6E6" stroke-width="2" stroke-miterlimit="10" x1="602.67" y1="36.88" x2="616.08" y2="34.78"/>
	<line fill="none" stroke="#E6E6E6" stroke-width="2" stroke-miterlimit="10" x1="603.18" y1="39.81" x2="632" y2="35.32"/>
	<line fill="none" stroke="#E6E6E6" stroke-width="2" stroke-miterlimit="10" x1="603.73" y1="42.46" x2="619.83" y2="39.95"/>
	<line fill="none" stroke="#E6E6E6" stroke-width="2" stroke-miterlimit="10" x1="554.31" y1="52.56" x2="571.62" y2="49.86"/>
	<line fill="none" stroke="#E6E6E6" stroke-width="2" stroke-miterlimit="10" x1="550.27" y1="27.68" x2="572.17" y2="24.26"/>
	<line fill="none" stroke="#E6E6E6" stroke-width="2" stroke-miterlimit="10" x1="601.61" y1="19.79" x2="626" y2="15.98"/>
	<line fill="none" stroke="#CFCFCF" stroke-width="2" stroke-miterlimit="10" x1="551.09" y1="55.83" x2="657.25" y2="39.28"/>
	<line fill="none" stroke="#CFCFCF" stroke-width="2" stroke-miterlimit="10" x1="552.09" y1="67.17" x2="658.25" y2="50.61"/>
	<g>
		<polygon fill="#CFCFCF" points="657.25,26.23 630.99,4.65 630.38,6.5 633,30.12 654.88,27.12 		"/>
	</g>
</g>
</svg>
