<?xml version="1.0" encoding="utf-8"?>
<!-- Generator: Adobe Illustrator 15.1.0, SVG Export Plug-In . SVG Version: 6.00 Build 0)  -->
<!DOCTYPE svg PUBLIC "-//W3C//DTD SVG 1.1//EN" "http://www.w3.org/Graphics/SVG/1.1/DTD/svg11.dtd">
<svg version="1.1" id="Calque_1" xmlns="http://www.w3.org/2000/svg" xmlns:xlink="http://www.w3.org/1999/xlink" x="0px" y="0px"
	 width="872px" height="72px" viewBox="0 0 872 72" enable-background="new 0 0 872 72" xml:space="preserve">
<rect x="0.591" fill="#EECDAE" width="872" height="72"/>
<polyline opacity="0.8" fill="#FFFFFF" stroke="#CFCFCF" stroke-width="2" stroke-miterlimit="10" enable-background="new    " points="
	554.434,72 547.184,18.495 631.459,5.497 656.948,26.585 661.684,72 "/>
<line fill="none" stroke="#CFCFCF" stroke-width="2" stroke-miterlimit="10" x1="549" y1="31.25" x2="643.639" y2="16.491"/>
<line fill="none" stroke="#E6E6E6" stroke-width="2" stroke-miterlimit="10" x1="550.211" y1="21.404" x2="584.981" y2="15.982"/>
<line fill="none" stroke="#E6E6E6" stroke-width="2" stroke-miterlimit="10" x1="550.86" y1="24.695" x2="561.43" y2="23.046"/>
<line fill="none" stroke="#E6E6E6" stroke-width="2" stroke-miterlimit="10" x1="552.091" y1="34.137" x2="565.794" y2="32"/>
<line fill="none" stroke="#E6E6E6" stroke-width="2" stroke-miterlimit="10" x1="552.604" y1="38.32" x2="563.172" y2="36.673"/>
<line fill="none" stroke="#E6E6E6" stroke-width="2" stroke-miterlimit="10" x1="553.091" y1="41.279" x2="572.057" y2="38.32"/>
<line fill="none" stroke="#E6E6E6" stroke-width="2" stroke-miterlimit="10" x1="555.738" y1="58.35" x2="585.756" y2="53.667"/>
<line fill="none" stroke="#E6E6E6" stroke-width="2" stroke-miterlimit="10" x1="556.477" y1="69.511" x2="568.584" y2="67.622"/>
<line fill="none" stroke="#E6E6E6" stroke-width="2" stroke-miterlimit="10" x1="582.271" y1="70.455" x2="602.609" y2="67.282"/>
<line fill="none" stroke="#E6E6E6" stroke-width="2" stroke-miterlimit="10" x1="607.829" y1="66.539" x2="628.167" y2="63.366"/>
<line fill="none" stroke="#E6E6E6" stroke-width="2" stroke-miterlimit="10" x1="631.381" y1="62.79" x2="640.761" y2="61.463"/>
<line fill="none" stroke="#E6E6E6" stroke-width="2" stroke-miterlimit="10" x1="631.991" y1="66.279" x2="652.593" y2="63.365"/>
<line fill="none" stroke="#E6E6E6" stroke-width="2" stroke-miterlimit="10" x1="632.609" y1="69.216" x2="653.32" y2="66.286"/>
<line fill="none" stroke="#E6E6E6" stroke-width="2" stroke-miterlimit="10" x1="642.088" y1="71.195" x2="654" y2="69.511"/>
<line fill="none" stroke="#E6E6E6" stroke-width="2" stroke-miterlimit="10" x1="608.423" y1="69.712" x2="628.761" y2="66.539"/>
<line fill="none" stroke="#E6E6E6" stroke-width="2" stroke-miterlimit="10" x1="620.18" y1="71.079" x2="629.219" y2="69.669"/>
<line fill="none" stroke="#E6E6E6" stroke-width="2" stroke-miterlimit="10" x1="553.658" y1="44.277" x2="567.077" y2="42.186"/>
<line fill="none" stroke="#E6E6E6" stroke-width="2" stroke-miterlimit="10" x1="554.177" y1="47.215" x2="565.957" y2="45.378"/>
<line fill="none" stroke="#E6E6E6" stroke-width="2" stroke-miterlimit="10" x1="554.721" y1="49.859" x2="564.584" y2="48.322"/>
<line fill="none" stroke="#E6E6E6" stroke-width="2" stroke-miterlimit="10" x1="556.477" y1="62.855" x2="561.408" y2="62.088"/>
<line fill="none" stroke="#E6E6E6" stroke-width="2" stroke-miterlimit="10" x1="602.609" y1="30.919" x2="619.418" y2="28.297"/>
<line fill="none" stroke="#E6E6E6" stroke-width="2" stroke-miterlimit="10" x1="603.098" y1="33.877" x2="622.062" y2="30.919"/>
<line fill="none" stroke="#E6E6E6" stroke-width="2" stroke-miterlimit="10" x1="603.665" y1="36.876" x2="617.084" y2="34.783"/>
<line fill="none" stroke="#E6E6E6" stroke-width="2" stroke-miterlimit="10" x1="604.184" y1="39.812" x2="633.001" y2="35.319"/>
<line fill="none" stroke="#E6E6E6" stroke-width="2" stroke-miterlimit="10" x1="604.729" y1="42.458" x2="620.834" y2="39.945"/>
<line fill="none" stroke="#E6E6E6" stroke-width="2" stroke-miterlimit="10" x1="555.314" y1="52.561" x2="572.624" y2="49.859"/>
<line fill="none" stroke="#E6E6E6" stroke-width="2" stroke-miterlimit="10" x1="551.269" y1="27.678" x2="573.168" y2="24.263"/>
<line fill="none" stroke="#E6E6E6" stroke-width="2" stroke-miterlimit="10" x1="602.609" y1="19.786" x2="627.001" y2="15.982"/>
<line fill="none" stroke="#CFCFCF" stroke-width="2" stroke-miterlimit="10" x1="552.091" y1="55.832" x2="658.253" y2="39.275"/>
<line fill="none" stroke="#CFCFCF" stroke-width="2" stroke-miterlimit="10" x1="553.091" y1="67.17" x2="659.253" y2="50.613"/>
<polygon fill="#F2DAC3" points="525.134,0.05 485.96,71.68 0.362,71.68 0.376,0.05 "/>
<g>
	<polygon fill="#CFCFCF" points="658.245,26.225 631.991,4.649 631.381,6.5 634,30.125 655.875,27.125 	"/>
</g>
</svg>
