<?xml version="1.0" encoding="utf-8"?>
<!DOCTYPE svg PUBLIC "-//W3C//DTD SVG 1.1//EN" "http://www.w3.org/Graphics/SVG/1.1/DTD/svg11.dtd">
<svg version="1.1" id="Calque_1" xmlns="http://www.w3.org/2000/svg" xmlns:xlink="http://www.w3.org/1999/xlink" x="0px" y="0px"
	 width="872px" height="72px" viewBox="0 0 872 72" enable-background="new 0 0 872 72" xml:space="preserve">
<rect x="0.59" fill="#EECDAE" width="872" height="72"/>
<g opacity="0.18">
	<path fill="#3D3D3C" d="M853.45,48.2c-0.94,7.81-8.03,13.44-15.88,12.5c-7.85-0.92-13.46-8.03-12.53-15.88
		c0.93-7.84,8.03-13.45,15.88-12.52C848.78,33.23,854.39,40.34,853.45,48.2z"/>
	<path fill="#3D3D3C" d="M823.95,25.38l-3.96-6.84c-15.08,8.73-20.24,28.01-11.55,43.1l6.83-3.96
		C808.77,46.38,812.65,31.93,823.95,25.38z"/>
	<path opacity="0.75" fill="#3D3D3C" enable-background="new    " d="M806.37,9.14l-3.96-6.83c-22.63,13.1-30.36,42.04-17.31,64.68
		l6.83-3.96C781.07,44.16,787.52,20.05,806.37,9.14z"/>
	<path opacity="0.1" fill="#3D3D3C" enable-background="new    " d="M690.27,72.46c-12.16-22.6-13.3-48.74-4.68-71.58h-8.41
		c-7.85,22.99-6.79,48.74,4.22,71.58H690.27z"/>
	<path opacity="0.15" fill="#3D3D3C" enable-background="new    " d="M718.14,71.05c-10.3-22.88-9.85-48.35-0.34-70.17h-8.56
		c-8.69,22.05-9.04,47.17,0.31,70.17H718.14z"/>
	<path opacity="0.25" fill="#3D3D3C" enable-background="new    " d="M744.11,71.05c-11.99-22.83-10.3-49.48,2.48-70.17h-9.1
		c-11.37,21.21-12.79,47.17-2.18,70.17H744.11z"/>
	<path opacity="0.5" fill="#3D3D3C" enable-background="new    " d="M763.54,71.3l5.1-2.96c-12.97-22.47-8.35-50.27,9.59-67.46
		h-11.14c-15.72,19.5-18.94,47.27-6.21,70.42H763.54z"/>
</g>
<polygon fill="#EECDAE" points="597.7,72 590.45,18.5 674.72,5.5 700.21,26.58 704.95,72 "/>
<polygon fill="#F2DAC3" points="568.4,0.05 529.22,71.68 0.36,71.68 0.38,0.05 "/>
<g>
	
		<polyline opacity="0.8" fill="#FFFFFF" stroke="#CFCFCF" stroke-width="2" stroke-miterlimit="10" enable-background="new    " points="
		597.7,72 590.45,18.5 674.72,5.5 700.21,26.58 704.95,72 	"/>
	<line fill="none" stroke="#CFCFCF" stroke-width="2" stroke-miterlimit="10" x1="592.26" y1="31.25" x2="686.9" y2="16.49"/>
	<line fill="none" stroke="#E6E6E6" stroke-width="2" stroke-miterlimit="10" x1="593.47" y1="21.4" x2="628.24" y2="15.98"/>
	<line fill="none" stroke="#E6E6E6" stroke-width="2" stroke-miterlimit="10" x1="594.12" y1="24.69" x2="604.69" y2="23.05"/>
	<line fill="none" stroke="#E6E6E6" stroke-width="2" stroke-miterlimit="10" x1="595.35" y1="34.14" x2="609.06" y2="32"/>
	<line fill="none" stroke="#E6E6E6" stroke-width="2" stroke-miterlimit="10" x1="595.87" y1="38.32" x2="606.43" y2="36.67"/>
	<line fill="none" stroke="#E6E6E6" stroke-width="2" stroke-miterlimit="10" x1="596.35" y1="41.28" x2="615.32" y2="38.32"/>
	<line fill="none" stroke="#E6E6E6" stroke-width="2" stroke-miterlimit="10" x1="599" y1="58.35" x2="629.02" y2="53.67"/>
	<line fill="none" stroke="#E6E6E6" stroke-width="2" stroke-miterlimit="10" x1="599.74" y1="69.51" x2="611.85" y2="67.62"/>
	<line fill="none" stroke="#E6E6E6" stroke-width="2" stroke-miterlimit="10" x1="625.53" y1="70.46" x2="645.87" y2="67.28"/>
	<line fill="none" stroke="#E6E6E6" stroke-width="2" stroke-miterlimit="10" x1="651.09" y1="66.54" x2="671.43" y2="63.37"/>
	<line fill="none" stroke="#E6E6E6" stroke-width="2" stroke-miterlimit="10" x1="674.64" y1="62.79" x2="684.02" y2="61.46"/>
	<line fill="none" stroke="#E6E6E6" stroke-width="2" stroke-miterlimit="10" x1="675.25" y1="66.28" x2="695.85" y2="63.37"/>
	<line fill="none" stroke="#E6E6E6" stroke-width="2" stroke-miterlimit="10" x1="675.87" y1="69.22" x2="696.58" y2="66.29"/>
	<line fill="none" stroke="#E6E6E6" stroke-width="2" stroke-miterlimit="10" x1="685.35" y1="71.2" x2="697.26" y2="69.51"/>
	<line fill="none" stroke="#E6E6E6" stroke-width="2" stroke-miterlimit="10" x1="651.68" y1="69.71" x2="672.02" y2="66.54"/>
	<line fill="none" stroke="#E6E6E6" stroke-width="2" stroke-miterlimit="10" x1="663.44" y1="71.08" x2="672.48" y2="69.67"/>
	<line fill="none" stroke="#E6E6E6" stroke-width="2" stroke-miterlimit="10" x1="596.92" y1="44.28" x2="610.34" y2="42.19"/>
	<line fill="none" stroke="#E6E6E6" stroke-width="2" stroke-miterlimit="10" x1="597.44" y1="47.21" x2="609.22" y2="45.38"/>
	<line fill="none" stroke="#E6E6E6" stroke-width="2" stroke-miterlimit="10" x1="597.98" y1="49.86" x2="607.85" y2="48.32"/>
	<line fill="none" stroke="#E6E6E6" stroke-width="2" stroke-miterlimit="10" x1="599.74" y1="62.86" x2="604.67" y2="62.09"/>
	<line fill="none" stroke="#E6E6E6" stroke-width="2" stroke-miterlimit="10" x1="645.87" y1="30.92" x2="662.68" y2="28.3"/>
	<line fill="none" stroke="#E6E6E6" stroke-width="2" stroke-miterlimit="10" x1="646.36" y1="33.88" x2="665.32" y2="30.92"/>
	<line fill="none" stroke="#E6E6E6" stroke-width="2" stroke-miterlimit="10" x1="646.93" y1="36.88" x2="660.35" y2="34.78"/>
	<line fill="none" stroke="#E6E6E6" stroke-width="2" stroke-miterlimit="10" x1="647.45" y1="39.81" x2="676.26" y2="35.32"/>
	<line fill="none" stroke="#E6E6E6" stroke-width="2" stroke-miterlimit="10" x1="647.99" y1="42.46" x2="664.1" y2="39.95"/>
	<line fill="none" stroke="#E6E6E6" stroke-width="2" stroke-miterlimit="10" x1="598.58" y1="52.56" x2="615.89" y2="49.86"/>
	<line fill="none" stroke="#E6E6E6" stroke-width="2" stroke-miterlimit="10" x1="594.53" y1="27.68" x2="616.43" y2="24.26"/>
	<line fill="none" stroke="#E6E6E6" stroke-width="2" stroke-miterlimit="10" x1="645.87" y1="19.79" x2="670.26" y2="15.98"/>
	<line fill="none" stroke="#CFCFCF" stroke-width="2" stroke-miterlimit="10" x1="595.35" y1="55.83" x2="701.51" y2="39.28"/>
	<line fill="none" stroke="#CFCFCF" stroke-width="2" stroke-miterlimit="10" x1="596.35" y1="67.17" x2="702.51" y2="50.61"/>
	<g>
		<polygon fill="#CFCFCF" points="701.51,26.23 675.25,4.65 674.64,6.5 677.26,30.12 699.14,27.12 		"/>
	</g>
</g>
</svg>
