<?xml version="1.0" encoding="utf-8"?>
<!DOCTYPE svg PUBLIC "-//W3C//DTD SVG 1.1//EN" "http://www.w3.org/Graphics/SVG/1.1/DTD/svg11.dtd">
<svg version="1.1" id="Calque_1" xmlns="http://www.w3.org/2000/svg" xmlns:xlink="http://www.w3.org/1999/xlink" x="0px" y="0px"
	 width="872px" height="72px" viewBox="0 0 872 72" enable-background="new 0 0 872 72" xml:space="preserve">
<rect x="0.6" fill="#4E4D4D" width="872" height="72"/>
<polygon opacity="0.75" fill="#5D5D5C" enable-background="new" points="525.1,0 486,71.7 0.4,71.7 0.4,0 "/>
<g>
	<polyline opacity="0.96" fill="#FFFFFF" stroke="#CFCFCF" stroke-width="2" stroke-miterlimit="10" enable-background="new" points="
		553.4,72 546.2,18.5 630.5,5.5 656,26.6 660.7,72 	"/>
	<line fill="none" stroke="#CFCFCF" stroke-width="2" stroke-miterlimit="10" x1="548" y1="31.2" x2="642.6" y2="16.5"/>
	<line fill="none" stroke="#E6E6E6" stroke-width="2" stroke-miterlimit="10" x1="549.2" y1="21.4" x2="584" y2="16"/>
	<line fill="none" stroke="#E6E6E6" stroke-width="2" stroke-miterlimit="10" x1="549.9" y1="24.7" x2="560.4" y2="23"/>
	<line fill="none" stroke="#E6E6E6" stroke-width="2" stroke-miterlimit="10" x1="551.1" y1="34.1" x2="564.8" y2="32"/>
	<line fill="none" stroke="#E6E6E6" stroke-width="2" stroke-miterlimit="10" x1="551.6" y1="38.3" x2="562.2" y2="36.7"/>
	<line fill="none" stroke="#E6E6E6" stroke-width="2" stroke-miterlimit="10" x1="552.1" y1="41.3" x2="571.1" y2="38.3"/>
	<line fill="none" stroke="#E6E6E6" stroke-width="2" stroke-miterlimit="10" x1="554.7" y1="58.3" x2="584.8" y2="53.7"/>
	<line fill="none" stroke="#E6E6E6" stroke-width="2" stroke-miterlimit="10" x1="555.5" y1="69.5" x2="567.6" y2="67.6"/>
	<line fill="none" stroke="#E6E6E6" stroke-width="2" stroke-miterlimit="10" x1="581.3" y1="70.5" x2="601.6" y2="67.3"/>
	<line fill="none" stroke="#E6E6E6" stroke-width="2" stroke-miterlimit="10" x1="606.8" y1="66.5" x2="627.2" y2="63.4"/>
	<line fill="none" stroke="#E6E6E6" stroke-width="2" stroke-miterlimit="10" x1="630.4" y1="62.8" x2="639.8" y2="61.5"/>
	<line fill="none" stroke="#E6E6E6" stroke-width="2" stroke-miterlimit="10" x1="631" y1="66.3" x2="651.6" y2="63.4"/>
	<line fill="none" stroke="#E6E6E6" stroke-width="2" stroke-miterlimit="10" x1="631.6" y1="69.2" x2="652.3" y2="66.3"/>
	<line fill="none" stroke="#E6E6E6" stroke-width="2" stroke-miterlimit="10" x1="641.1" y1="71.2" x2="653" y2="69.5"/>
	<line fill="none" stroke="#E6E6E6" stroke-width="2" stroke-miterlimit="10" x1="607.4" y1="69.7" x2="627.8" y2="66.5"/>
	<line fill="none" stroke="#E6E6E6" stroke-width="2" stroke-miterlimit="10" x1="619.2" y1="71.1" x2="628.2" y2="69.7"/>
	<line fill="none" stroke="#E6E6E6" stroke-width="2" stroke-miterlimit="10" x1="552.7" y1="44.3" x2="566.1" y2="42.2"/>
	<line fill="none" stroke="#E6E6E6" stroke-width="2" stroke-miterlimit="10" x1="553.2" y1="47.2" x2="565" y2="45.4"/>
	<line fill="none" stroke="#E6E6E6" stroke-width="2" stroke-miterlimit="10" x1="553.7" y1="49.9" x2="563.6" y2="48.3"/>
	<line fill="none" stroke="#E6E6E6" stroke-width="2" stroke-miterlimit="10" x1="555.5" y1="62.9" x2="560.4" y2="62.1"/>
	<line fill="none" stroke="#E6E6E6" stroke-width="2" stroke-miterlimit="10" x1="601.6" y1="30.9" x2="618.4" y2="28.3"/>
	<line fill="none" stroke="#E6E6E6" stroke-width="2" stroke-miterlimit="10" x1="602.1" y1="33.9" x2="621.1" y2="30.9"/>
	<line fill="none" stroke="#E6E6E6" stroke-width="2" stroke-miterlimit="10" x1="602.7" y1="36.9" x2="616.1" y2="34.8"/>
	<line fill="none" stroke="#E6E6E6" stroke-width="2" stroke-miterlimit="10" x1="603.2" y1="39.8" x2="632" y2="35.3"/>
	<line fill="none" stroke="#E6E6E6" stroke-width="2" stroke-miterlimit="10" x1="603.7" y1="42.5" x2="619.8" y2="40"/>
	<line fill="none" stroke="#E6E6E6" stroke-width="2" stroke-miterlimit="10" x1="554.3" y1="52.6" x2="571.6" y2="49.9"/>
	<line fill="none" stroke="#E6E6E6" stroke-width="2" stroke-miterlimit="10" x1="550.3" y1="27.7" x2="572.2" y2="24.3"/>
	<line fill="none" stroke="#E6E6E6" stroke-width="2" stroke-miterlimit="10" x1="601.6" y1="19.8" x2="626" y2="16"/>
	<line fill="none" stroke="#CFCFCF" stroke-width="2" stroke-miterlimit="10" x1="551.1" y1="55.8" x2="657.2" y2="39.3"/>
	<line fill="none" stroke="#CFCFCF" stroke-width="2" stroke-miterlimit="10" x1="552.1" y1="67.2" x2="658.2" y2="50.6"/>
	<g><polygon fill="#CFCFCF" points="657.2,26.2 631,4.6 630.4,6.5 633,30.1 654.9,27.1"/></g>
</g>
</svg>
