<?xml version="1.0" encoding="utf-8"?>
<!DOCTYPE svg PUBLIC "-//W3C//DTD SVG 1.1//EN" "http://www.w3.org/Graphics/SVG/1.1/DTD/svg11.dtd">
<svg version="1.1" id="Calque_1" xmlns="http://www.w3.org/2000/svg" xmlns:xlink="http://www.w3.org/1999/xlink" x="0px" y="0px"
	 width="872px" height="72px" viewBox="0 0 872 72" enable-background="new 0 0 872 72" xml:space="preserve">
<rect x="0.59" fill="#4E4D4D" width="872" height="72"/>
<rect x="817.39" y="14.35" transform="matrix(-1 -4.648104e-03 4.648104e-03 -1 1637.646 35.4847)" opacity="0.13" fill="#3D3D3C" stroke="#000000" stroke-width="2" enable-background="new    " width="2.94" height="2.99"/>
<rect x="804.86" y="39.5" transform="matrix(-1 -4.315990e-03 4.315990e-03 -1 1612.4777 85.4749)" opacity="0.13" fill="#3D3D3C" stroke="#000000" stroke-width="2" enable-background="new    " width="2.94" height="2.99"/>
<rect x="797.81" y="24.23" transform="matrix(-1 -4.481928e-03 4.481928e-03 -1 1598.4285 55.0337)" opacity="0.13" fill="#3D3D3C" stroke="#000000" stroke-width="2" enable-background="new    " width="2.94" height="2.99"/>
<rect x="859.79" y="33.35" transform="matrix(-1 -4.643336e-03 4.643336e-03 -1 1722.3503 73.6848)" opacity="0.13" fill="#3D3D3C" stroke="#000000" stroke-width="2" enable-background="new    " width="2.94" height="2.99"/>
<rect x="839.33" y="39.64" transform="matrix(-1 -5.304940e-03 5.304940e-03 -1 1681.3755 86.7196)" opacity="0.13" fill="#3D3D3C" stroke="#000000" stroke-width="2" enable-background="new    " width="2.95" height="2.99"/>
<rect x="722.16" y="51.76" transform="matrix(-1 -4.641905e-03 4.641905e-03 -1 1447.0009 109.8584)" opacity="0.13" fill="#3D3D3C" stroke="#000000" stroke-width="2" enable-background="new    " width="2.95" height="2.99"/>
<rect x="759.74" y="38" transform="matrix(-1 -4.645005e-03 4.645005e-03 -1 1522.2302 82.5237)" opacity="0.13" fill="#3D3D3C" stroke="#000000" stroke-width="2" enable-background="new    " width="2.94" height="2.99"/>
<rect x="741.99" y="30.02" transform="matrix(-1 -4.807604e-03 4.807604e-03 -1 1486.7559 66.6007)" opacity="0.13" fill="#3D3D3C" stroke="#000000" stroke-width="2" enable-background="new    " width="2.95" height="2.99"/>
<rect x="771.77" y="4.55" transform="matrix(-1 -4.479067e-03 4.479067e-03 -1 1546.4456 15.559)" opacity="0.13" fill="#3D3D3C" stroke="#000000" stroke-width="2" enable-background="new    " width="2.94" height="2.99"/>
<rect x="688.55" y="15.88" transform="matrix(-1 -4.475968e-03 4.475968e-03 -1 1379.967 37.8437)" opacity="0.13" fill="#3D3D3C" stroke="#000000" stroke-width="2" enable-background="new    " width="2.95" height="2.99"/>
<rect x="620.43" y="42.5" transform="matrix(-1 -4.641905e-03 4.641905e-03 -1 1243.5977 90.8698)" opacity="0.13" fill="#3D3D3C" stroke="#000000" stroke-width="2" enable-background="new    " width="2.95" height="2.99"/>
<rect x="607.87" y="7.82" transform="matrix(-1 -4.812373e-03 4.812373e-03 -1 1218.626 21.5553)" opacity="0.13" fill="#3D3D3C" stroke="#000000" stroke-width="2" enable-background="new    " width="2.94" height="2.99"/>
<rect x="573.79" y="48.8" transform="matrix(-1 -4.648104e-03 4.648104e-03 -1 1150.2776 103.2602)" opacity="0.13" fill="#3D3D3C" stroke="#000000" stroke-width="2" enable-background="new    " width="2.94" height="2.98"/>
<rect x="546.23" y="17.33" transform="matrix(-1 -4.974972e-03 4.974972e-03 -1 1095.296 40.3764)" opacity="0.13" fill="#3D3D3C" stroke="#000000" stroke-width="2" enable-background="new    " width="2.94" height="2.99"/>
<rect x="534.73" y="52.55" transform="matrix(-1 -4.645005e-03 4.645005e-03 -1 1072.1514 110.5682)" opacity="0.13" fill="#3D3D3C" stroke="#000000" stroke-width="2" enable-background="new    " width="2.94" height="2.99"/>
<rect x="560.41" y="31.51" transform="matrix(-1 -4.805936e-03 4.805936e-03 -1 1123.6084 68.7088)" opacity="0.13" fill="#3D3D3C" stroke="#000000" stroke-width="2" enable-background="new    " width="2.95" height="2.99"/>
<rect x="652.47" y="7.8" transform="matrix(-1 -4.645005e-03 4.645005e-03 -1 1307.8374 21.619)" opacity="0.13" fill="#3D3D3C" stroke="#000000" stroke-width="2" enable-background="new    " width="2.94" height="2.99"/>
<rect x="702.74" y="61.48" transform="matrix(-1 -4.640237e-03 4.640237e-03 -1 1408.125 129.2065)" opacity="0.13" fill="#3D3D3C" stroke="#000000" stroke-width="2" enable-background="new    " width="2.95" height="2.98"/>
<polyline opacity="0.13" fill="none" stroke="#000000" stroke-width="2" enable-background="new    " points="543.2,42.19 
	548.65,45.02 599.1,40.95 620.42,15.8 669.55,22.32 689.1,0.48 "/>
<polyline opacity="0.13" fill="none" stroke="#000000" stroke-width="2" enable-background="new    " points="620.42,71.52 
	652.46,39.62 741.4,42.55 760.68,56.07 799.27,0.48 "/>
<polyline opacity="0.13" fill="none" stroke="#000000" stroke-width="2" enable-background="new    " points="872.03,64.43 
	832.99,18.11 817.88,58.51 778.72,56.07 767.69,71.52 "/>
<path opacity="0.13" fill="none" stroke="#000000" stroke-width="0.75" enable-background="new    " d="M729.72,1.89"/>
<rect x="657.25" y="51.79" transform="matrix(-1 -5.306609e-03 5.306609e-03 -1 1317.1523 110.0485)" opacity="0.13" fill="#3D3D3C" stroke="#000000" stroke-width="2" enable-background="new    " width="2.94" height="2.98"/>
<rect x="708.38" y="9.37" transform="matrix(-1 -4.479067e-03 4.479067e-03 -1 1419.6494 24.9045)" opacity="0.13" fill="#3D3D3C" stroke="#000000" stroke-width="2" enable-background="new    " width="2.94" height="2.99"/>
<g>
	<polygon fill="#4E4D4D" points="598.18,72 590.93,18.5 675.2,5.5 700.69,26.58 705.18,70.88 	"/>
		<polyline opacity="0.96" fill="#FFFFFF" stroke="#CFCFCF" stroke-width="2" stroke-miterlimit="10" enable-background="new    " points="
		597.76,72 590.51,18.5 674.78,5.5 700.27,26.58 705.01,72 	"/>
	<line fill="none" stroke="#CFCFCF" stroke-width="2" stroke-miterlimit="10" x1="592.33" y1="31.25" x2="686.96" y2="16.49"/>
	<line fill="none" stroke="#E6E6E6" stroke-width="2" stroke-miterlimit="10" x1="593.54" y1="21.4" x2="628.31" y2="15.98"/>
	<line fill="none" stroke="#E6E6E6" stroke-width="2" stroke-miterlimit="10" x1="594.19" y1="24.69" x2="604.75" y2="23.05"/>
	<line fill="none" stroke="#E6E6E6" stroke-width="2" stroke-miterlimit="10" x1="595.42" y1="34.14" x2="609.12" y2="32"/>
	<line fill="none" stroke="#E6E6E6" stroke-width="2" stroke-miterlimit="10" x1="595.93" y1="38.32" x2="606.5" y2="36.67"/>
	<line fill="none" stroke="#E6E6E6" stroke-width="2" stroke-miterlimit="10" x1="596.42" y1="41.28" x2="615.38" y2="38.32"/>
	<line fill="none" stroke="#E6E6E6" stroke-width="2" stroke-miterlimit="10" x1="599.06" y1="58.35" x2="629.08" y2="53.67"/>
	<line fill="none" stroke="#E6E6E6" stroke-width="2" stroke-miterlimit="10" x1="599.8" y1="69.51" x2="611.91" y2="67.62"/>
	<line fill="none" stroke="#E6E6E6" stroke-width="2" stroke-miterlimit="10" x1="625.6" y1="70.46" x2="645.93" y2="67.28"/>
	<line fill="none" stroke="#E6E6E6" stroke-width="2" stroke-miterlimit="10" x1="651.15" y1="66.54" x2="671.49" y2="63.37"/>
	<line fill="none" stroke="#E6E6E6" stroke-width="2" stroke-miterlimit="10" x1="674.71" y1="62.79" x2="684.09" y2="61.46"/>
	<line fill="none" stroke="#E6E6E6" stroke-width="2" stroke-miterlimit="10" x1="675.32" y1="66.28" x2="695.92" y2="63.37"/>
	<line fill="none" stroke="#E6E6E6" stroke-width="2" stroke-miterlimit="10" x1="675.93" y1="69.21" x2="696.65" y2="66.29"/>
	<line fill="none" stroke="#E6E6E6" stroke-width="2" stroke-miterlimit="10" x1="685.41" y1="71.2" x2="697.33" y2="69.51"/>
	<line fill="none" stroke="#E6E6E6" stroke-width="2" stroke-miterlimit="10" x1="651.75" y1="69.71" x2="672.09" y2="66.54"/>
	<line fill="none" stroke="#E6E6E6" stroke-width="2" stroke-miterlimit="10" x1="663.5" y1="71.08" x2="672.54" y2="69.67"/>
	<line fill="none" stroke="#E6E6E6" stroke-width="2" stroke-miterlimit="10" x1="596.98" y1="44.28" x2="610.4" y2="42.19"/>
	<line fill="none" stroke="#E6E6E6" stroke-width="2" stroke-miterlimit="10" x1="597.5" y1="47.21" x2="609.28" y2="45.38"/>
	<line fill="none" stroke="#E6E6E6" stroke-width="2" stroke-miterlimit="10" x1="598.05" y1="49.86" x2="607.91" y2="48.32"/>
	<line fill="none" stroke="#E6E6E6" stroke-width="2" stroke-miterlimit="10" x1="599.8" y1="62.86" x2="604.73" y2="62.09"/>
	<line fill="none" stroke="#E6E6E6" stroke-width="2" stroke-miterlimit="10" x1="645.93" y1="30.92" x2="662.74" y2="28.3"/>
	<line fill="none" stroke="#E6E6E6" stroke-width="2" stroke-miterlimit="10" x1="646.42" y1="33.88" x2="665.39" y2="30.92"/>
	<line fill="none" stroke="#E6E6E6" stroke-width="2" stroke-miterlimit="10" x1="646.99" y1="36.88" x2="660.41" y2="34.78"/>
	<line fill="none" stroke="#E6E6E6" stroke-width="2" stroke-miterlimit="10" x1="647.51" y1="39.81" x2="676.33" y2="35.32"/>
	<line fill="none" stroke="#E6E6E6" stroke-width="2" stroke-miterlimit="10" x1="648.05" y1="42.46" x2="664.16" y2="39.95"/>
	<line fill="none" stroke="#E6E6E6" stroke-width="2" stroke-miterlimit="10" x1="598.64" y1="52.56" x2="615.95" y2="49.86"/>
	<line fill="none" stroke="#E6E6E6" stroke-width="2" stroke-miterlimit="10" x1="594.59" y1="27.68" x2="616.49" y2="24.26"/>
	<line fill="none" stroke="#E6E6E6" stroke-width="2" stroke-miterlimit="10" x1="645.93" y1="19.79" x2="670.33" y2="15.98"/>
	<line fill="none" stroke="#CFCFCF" stroke-width="2" stroke-miterlimit="10" x1="595.42" y1="55.83" x2="701.58" y2="39.28"/>
	<line fill="none" stroke="#CFCFCF" stroke-width="2" stroke-miterlimit="10" x1="596.42" y1="67.17" x2="702.58" y2="50.61"/>
	<g>
		<polygon fill="#CFCFCF" points="701.57,26.23 675.32,4.65 674.71,6.5 677.33,30.12 699.2,27.12 		"/>
	</g>
</g>
<polygon fill="#595958" enable-background="new    " points="567.5,0.05 528.75,71.68 0.36,71.68 0.38,0.05 "/>
</svg>
