<?xml version="1.0" encoding="utf-8"?>
<!DOCTYPE svg PUBLIC "-//W3C//DTD SVG 1.1//EN" "http://www.w3.org/Graphics/SVG/1.1/DTD/svg11.dtd">
<svg version="1.1" id="Calque_1" xmlns="http://www.w3.org/2000/svg" xmlns:xlink="http://www.w3.org/1999/xlink" x="0px" y="0px"
	 width="872px" height="72px" viewBox="0 0 872 72" enable-background="new 0 0 872 72" xml:space="preserve">
<rect x="0.59" fill="#4E4D4D" width="872" height="72"/>
<polygon opacity="0.75" fill="#5D5D5C" enable-background="new    " points="525.13,0.05 485.96,71.68 0.36,71.68 0.38,0.05 "/>
<g opacity="0.8" enable-background="new    ">
	<g>
		<path fill="#FFFFFF" d="M572.02,28.03c0,0-17.1,0.37-18.2,16.38c-1.1,16.02,8.97,19.65,15.58,20.27c6.6,0.61,59.75,0.5,59.75,0.5
			s12.47-1.05,14.6-16.91c1.99-14.81-13.01-18.45-13.01-18.45s2.34-14.6-12.84-21.68c-13.61-6.34-24.75,8.26-24.75,8.26
			s-7.28-5.74-13.91-3.82C570.59,15.09,572.02,28.03,572.02,28.03z"/>
		<path fill="none" stroke="#CFCFCF" stroke-width="2" stroke-miterlimit="10" d="M572.02,28.03c0,0-17.1,0.37-18.2,16.38
			c-1.1,16.02,8.97,19.65,15.58,20.27c6.6,0.61,59.75,0.5,59.75,0.5s12.47-1.05,14.6-16.91c1.99-14.81-13.01-18.45-13.01-18.45
			s2.34-14.6-12.84-21.68c-13.61-6.34-24.75,8.26-24.75,8.26s-7.28-5.74-13.91-3.82C570.59,15.09,572.02,28.03,572.02,28.03z"/>
	</g>
</g>
</svg>
