<?xml version="1.0" encoding="utf-8"?>
<!DOCTYPE svg PUBLIC "-//W3C//DTD SVG 1.1//EN" "http://www.w3.org/Graphics/SVG/1.1/DTD/svg11.dtd">
<svg version="1.1" id="Calque_1" xmlns="http://www.w3.org/2000/svg" xmlns:xlink="http://www.w3.org/1999/xlink" x="0px" y="0px"
	 width="872px" height="72px" viewBox="0 0 872 72" style="enable-background:new 0 0 872 72;" xml:space="preserve">
<style type="text/css"><![CDATA[
	.st0{fill:#EECDAE;} .st1{fill:none;stroke:#CFCFCF;stroke-width:2;stroke-miterlimit:10;}
	.st2{fill:#F2DAC3;}	.st3{opacity:0.13;fill:none;stroke:#000000;stroke-width:0.75;enable-background:new;}
	.st4{opacity:0.13;fill:none;stroke:#000000;stroke-width:2;enable-background:new;}
	.st5{opacity:0.8;fill:#FFFFFF;stroke:#CFCFCF;stroke-width:2;stroke-miterlimit:10;enable-background:new;}
	.st6{fill:#CFCFCF;} .st7{fill:none;stroke:#E6E6E6;stroke-width:2;stroke-miterlimit:10;}
	.st8{opacity:0.13;fill:#3D3D3C;stroke:#000000;stroke-width:2;enable-background:new;}
]]></style>
<rect x="0.6" class="st0" width="872" height="72"/>
<rect x="817.4" y="13.6" transform="matrix(1 4.649568e-03 -4.649568e-03 1 7.910156e-02 -3.807)" class="st8" width="2.9" height="3"/>
<rect x="804.8" y="38.7" transform="matrix(1 3.986679e-03 -3.986679e-03 1 0.1668 -3.2141)" class="st8" width="2.9" height="3"/>
<rect x="797.8" y="23.4" transform="matrix(1 4.651112e-03 -4.651112e-03 1 0.1246 -3.7171)" class="st8" width="2.9" height="3"/>
<rect x="859.7" y="32.6" transform="matrix(1 4.649568e-03 -4.649568e-03 1 0.1678 -4.0039)" class="st8" width="2.9" height="3"/>
<rect x="839.3" y="38.9" transform="matrix(1 5.313774e-03 -5.313774e-03 1 0.2264 -4.467)" class="st8" width="2.9" height="3"/>
<rect x="722.1" y="51" transform="matrix(1 4.634177e-03 -4.634177e-03 1 0.251 -3.3527)" class="st8" width="3" height="3"/>
<rect x="759.7" y="37.3" transform="matrix(1 4.651112e-03 -4.651112e-03 1 0.1885 -3.5399)" class="st8" width="2.9" height="3"/>
<rect x="741.9" y="29.3" transform="matrix(1 4.799680e-03 -4.799680e-03 1 0.1561 -3.5678)" class="st8" width="3" height="3"/>
<rect x="771.7" y="3.8" transform="matrix(1 4.485005e-03 -4.485005e-03 1 3.137207e-02 -3.4678)" class="st8" width="2.9" height="3"/>
<rect x="688.5" y="15.1" transform="matrix(1 4.468674e-03 -4.468674e-03 1 8.099365e-02 -3.0832)" class="st8" width="3" height="3"/>
<rect x="620.4" y="41.8" transform="matrix(1 4.651112e-03 -4.651112e-03 1 0.2079 -2.8919)" class="st8" width="2.9" height="3"/>
<rect x="607.8" y="7.1" transform="matrix(1 4.815620e-03 -4.815620e-03 1 4.821777e-02 -2.9341)" class="st8" width="2.9" height="3"/>
<rect x="573.7" y="48.1" transform="matrix(1 4.651112e-03 -4.651112e-03 1 0.2367 -2.6749)" class="st8" width="2.9" height="3"/>
<rect x="546.2" y="16.5" transform="matrix(1 4.981672e-03 -4.981672e-03 1 9.661865e-02 -2.728)" class="st8" width="2.9" height="3"/>
<rect x="534.7" y="51.8" transform="matrix(1 4.649568e-03 -4.649568e-03 1 0.2536 -2.4924)" class="st8" width="2.9" height="3"/>
<rect x="560.4" y="30.7" transform="matrix(1 4.799680e-03 -4.799680e-03 1 0.1612 -2.6963)" class="st8" width="3" height="3"/>
<rect x="652.4" y="7.1" transform="matrix(1 4.815620e-03 -4.815620e-03 1 4.876709e-02 -3.1489)" class="st8" width="2.9" height="3"/>
<rect x="702.7" y="60.7" transform="matrix(1 4.965182e-03 -4.965182e-03 1 0.3176 -3.4956)" class="st8" width="3" height="3"/>
<polyline class="st4" points="543.7,41.7 548.6,44.2 599.1,40.2 620.4,15 669.5,21.5 689.1,-0.3 "/>
<polyline class="st4" points="620.4,70.7 652.4,38.8 741.4,41.8 760.7,55.3 799.2,-0.3 "/>
<polyline class="st4" points="872,63.7 833,17.3 817.9,57.7 778.7,55.3 767.7,70.7 "/>
<path class="st3" d="M729.7,1.1"/>
<rect x="657.2" y="51" transform="matrix(1 5.313774e-03 -5.313774e-03 1 0.2883 -3.4994)" class="st8" width="2.9" height="3"/>
<rect x="708.3" y="8.5" transform="matrix(1 4.485005e-03 -4.485005e-03 1 5.212402e-02 -3.1834)" class="st8" width="2.9" height="3"/>
<g>
	<polygon class="st2" points="596.7,72 589.4,18.5 673.7,5.5 699.2,26.6 703.7,70.9"/>
	<g>
		<polyline class="st5" points="596.7,72.4 589.4,18.9 673.7,5.9 699.2,27 703.9,72.4"/>
		<line class="st1" x1="591.2" y1="31.7" x2="685.9" y2="16.9"/>
		<line class="st7" x1="592.5" y1="21.8" x2="627.2" y2="16.4"/>
		<line class="st7" x1="593.1" y1="25.1" x2="603.7" y2="23.5"/>
		<line class="st7" x1="594.3" y1="34.6" x2="608" y2="32.4"/>
		<line class="st7" x1="594.8" y1="38.8" x2="605.4" y2="37.1"/>
		<line class="st7" x1="595.3" y1="41.7" x2="614.3" y2="38.8"/>
		<line class="st7" x1="598" y1="58.8" x2="628" y2="54.1"/>
		<line class="st7" x1="598.7" y1="69.9" x2="610.8" y2="68"/>
		<line class="st7" x1="624.5" y1="70.9" x2="644.9" y2="67.7"/>
		<line class="st7" x1="650.1" y1="67" x2="670.4" y2="63.8"/>
		<line class="st7" x1="673.6" y1="63.2" x2="683" y2="61.9"/>
		<line class="st7" x1="674.2" y1="66.7" x2="694.8" y2="63.8"/>
		<line class="st7" x1="674.9" y1="69.6" x2="695.6" y2="66.7"/>
		<line class="st7" x1="684.3" y1="71.6" x2="696.2" y2="69.9"/>
		<line class="st7" x1="650.7" y1="70.1" x2="671" y2="67"/>
		<line class="st7" x1="662.4" y1="71.5" x2="671.5" y2="70.1"/>
		<line class="st7" x1="595.9" y1="44.7" x2="609.3" y2="42.6"/>
		<line class="st7" x1="596.4" y1="47.6" x2="608.2" y2="45.8"/>
		<line class="st7" x1="597" y1="50.3" x2="606.8" y2="48.8"/>
		<line class="st7" x1="598.7" y1="63.3" x2="603.7" y2="62.5"/>
		<line class="st7" x1="644.9" y1="31.3" x2="661.7" y2="28.7"/>
		<line class="st7" x1="645.3" y1="34.3" x2="664.3" y2="31.3"/>
		<line class="st7" x1="645.9" y1="37.3" x2="659.3" y2="35.2"/>
		<line class="st7" x1="646.4" y1="40.2" x2="675.2" y2="35.7"/>
		<line class="st7" x1="647" y1="42.9" x2="663.1" y2="40.4"/>
		<line class="st7" x1="597.6" y1="53" x2="614.9" y2="50.3"/>
		<line class="st7" x1="593.5" y1="28.1" x2="615.4" y2="24.7"/>
		<line class="st7" x1="644.9" y1="20.2" x2="669.2" y2="16.4"/>
		<line class="st1" x1="594.3" y1="56.3" x2="700.5" y2="39.7"/>
		<line class="st1" x1="595.3" y1="67.6" x2="701.5" y2="51"/>
		<g><polygon class="st6" points="700.5,26.6 674.2,5.1 673.6,6.9 676.2,30.5 698.1,27.5"/></g>
	</g>
</g>
<polygon class="st2" points="566.9,0 528,71.7 0.4,71.7 0.4,0 "/>
</svg>
