<?xml version="1.0" encoding="utf-8"?>
<!-- Generator: Adobe Illustrator 15.1.0, SVG Export Plug-In . SVG Version: 6.00 Build 0)  -->
<!DOCTYPE svg PUBLIC "-//W3C//DTD SVG 1.1//EN" "http://www.w3.org/Graphics/SVG/1.1/DTD/svg11.dtd">
<svg version="1.1" id="Calque_1" xmlns="http://www.w3.org/2000/svg" xmlns:xlink="http://www.w3.org/1999/xlink" x="0px" y="0px"
	 width="872px" height="72px" viewBox="0 0 872 72" enable-background="new 0 0 872 72" xml:space="preserve">
<rect x="0.591" fill="#4E4D4D" width="872" height="72"/>
<polygon opacity="0.75" fill="#5D5D5C" enable-background="new    " points="525.134,0.05 485.96,71.68 0.362,71.68 0.376,0.05 "/>
<g opacity="0.8" enable-background="new    ">
	<g>
		<path fill="#FFFFFF" d="M572.021,28.03c0,0-17.104,0.367-18.2,16.384c-1.101,16.021,8.971,19.654,15.575,20.266
			c6.604,0.608,59.755,0.5,59.755,0.5s12.473-1.047,14.599-16.912c1.986-14.812-13.013-18.45-13.013-18.45
			s2.343-14.603-12.843-21.68c-13.607-6.342-24.748,8.26-24.748,8.26s-7.278-5.743-13.905-3.817
			C570.593,15.089,572.021,28.03,572.021,28.03z"/>
		<path fill="none" stroke="#CFCFCF" stroke-width="2" stroke-miterlimit="10" d="M572.021,28.03c0,0-17.104,0.367-18.2,16.384
			c-1.101,16.021,8.971,19.654,15.575,20.266c6.604,0.608,59.755,0.5,59.755,0.5s12.473-1.047,14.599-16.912
			c1.986-14.812-13.013-18.45-13.013-18.45s2.343-14.603-12.843-21.68c-13.607-6.342-24.748,8.26-24.748,8.26
			s-7.278-5.743-13.905-3.817C570.593,15.089,572.021,28.03,572.021,28.03z"/>
	</g>
</g>
</svg>
