<?xml version="1.0" encoding="utf-8"?>
<!DOCTYPE svg PUBLIC "-//W3C//DTD SVG 1.1//EN" "http://www.w3.org/Graphics/SVG/1.1/DTD/svg11.dtd">
<svg version="1.1" id="Calque_1" xmlns="http://www.w3.org/2000/svg" xmlns:xlink="http://www.w3.org/1999/xlink" x="0px" y="0px"
	 width="872px" height="72px" viewBox="0 0 872 72" enable-background="new 0 0 872 72" xml:space="preserve">
<rect x="0.59" fill="#4E4D4D" width="872" height="72"/>
<polygon fill="#4E4D4D" points="554.55,72 547.3,18.5 631.57,5.5 657.06,26.58 661.55,70.88 "/>
<rect x="526.07" y="55.29" opacity="0.06" fill="#9C9B9B" enable-background="new    " width="7.52" height="7.71"/>
<rect x="548.63" y="16.71" opacity="0.06" fill="#9C9B9B" enable-background="new    " width="7.52" height="7.72"/>
<rect x="541.11" y="24.43" opacity="0.06" fill="#9C9B9B" enable-background="new    " width="7.52" height="7.71"/>
<rect x="548.63" y="32.14" opacity="0.06" fill="#9C9B9B" enable-background="new    " width="7.52" height="7.71"/>
<rect x="541.11" y="39.85" opacity="0.06" fill="#9C9B9B" enable-background="new    " width="7.52" height="7.72"/>
<rect x="548.63" y="47.57" opacity="0.06" fill="#9C9B9B" enable-background="new    " width="7.52" height="7.71"/>
<rect x="533.59" y="47.57" opacity="0.06" fill="#9C9B9B" enable-background="new    " width="7.52" height="7.71"/>
<rect x="556.15" y="39.85" opacity="0.06" fill="#9C9B9B" enable-background="new    " width="7.52" height="7.72"/>
<rect x="563.67" y="47.57" opacity="0.06" fill="#9C9B9B" enable-background="new    " width="7.52" height="7.71"/>
<rect x="556.15" y="24.43" opacity="0.06" fill="#9C9B9B" enable-background="new    " width="7.52" height="7.71"/>
<rect x="563.67" y="32.14" opacity="0.06" fill="#9C9B9B" enable-background="new    " width="7.52" height="7.71"/>
<rect x="571.19" y="39.85" opacity="0.06" fill="#9C9B9B" enable-background="new    " width="7.52" height="7.72"/>
<rect x="541.11" y="55.29" opacity="0.06" fill="#9C9B9B" enable-background="new    " width="7.52" height="7.71"/>
<rect x="533.59" y="63" opacity="0.06" fill="#9C9B9B" enable-background="new    " width="7.52" height="7.71"/>
<rect x="556.15" y="55.29" opacity="0.06" fill="#9C9B9B" enable-background="new    " width="7.52" height="7.71"/>
<rect x="571.19" y="55.29" opacity="0.06" fill="#9C9B9B" enable-background="new    " width="7.52" height="7.71"/>
<rect x="578.71" y="47.57" opacity="0.06" fill="#9C9B9B" enable-background="new    " width="7.52" height="7.71"/>
<rect x="586.23" y="55.29" opacity="0.06" fill="#9C9B9B" enable-background="new    " width="7.52" height="7.71"/>
<rect x="586.23" y="39.85" opacity="0.06" fill="#9C9B9B" enable-background="new    " width="7.52" height="7.72"/>
<rect x="578.71" y="32.14" opacity="0.06" fill="#9C9B9B" enable-background="new    " width="7.52" height="7.71"/>
<rect x="571.19" y="24.43" opacity="0.06" fill="#9C9B9B" enable-background="new    " width="7.52" height="7.71"/>
<rect x="563.67" y="16.71" opacity="0.06" fill="#9C9B9B" enable-background="new    " width="7.52" height="7.72"/>
<rect x="556.15" y="9" opacity="0.06" fill="#9C9B9B" enable-background="new    " width="7.52" height="7.71"/>
<rect x="563.67" y="1.29" opacity="0.06" fill="#9C9B9B" enable-background="new    " width="7.52" height="7.71"/>
<rect x="571.19" y="9" opacity="0.06" fill="#9C9B9B" enable-background="new    " width="7.52" height="7.71"/>
<rect x="578.71" y="1.29" opacity="0.06" fill="#9C9B9B" enable-background="new    " width="7.52" height="7.71"/>
<rect x="586.23" y="9" opacity="0.06" fill="#9C9B9B" enable-background="new    " width="7.52" height="7.71"/>
<rect x="578.71" y="16.71" opacity="0.06" fill="#9C9B9B" enable-background="new    " width="7.52" height="7.72"/>
<rect x="586.23" y="24.43" opacity="0.06" fill="#9C9B9B" enable-background="new    " width="7.52" height="7.71"/>
<rect x="593.75" y="1.29" opacity="0.06" fill="#9C9B9B" enable-background="new    " width="7.52" height="7.71"/>
<rect x="601.27" y="9" opacity="0.06" fill="#9C9B9B" enable-background="new    " width="7.52" height="7.71"/>
<rect x="608.79" y="16.71" opacity="0.06" fill="#9C9B9B" enable-background="new    " width="7.52" height="7.72"/>
<rect x="601.27" y="24.43" opacity="0.06" fill="#9C9B9B" enable-background="new    " width="7.52" height="7.71"/>
<rect x="608.79" y="32.14" opacity="0.06" fill="#9C9B9B" enable-background="new    " width="7.52" height="7.71"/>
<rect x="601.27" y="39.85" opacity="0.06" fill="#9C9B9B" enable-background="new    " width="7.52" height="7.72"/>
<rect x="608.79" y="47.57" opacity="0.06" fill="#9C9B9B" enable-background="new    " width="7.52" height="7.71"/>
<rect x="593.75" y="16.71" opacity="0.06" fill="#9C9B9B" enable-background="new    " width="7.52" height="7.72"/>
<rect x="593.75" y="32.14" opacity="0.06" fill="#9C9B9B" enable-background="new    " width="7.52" height="7.71"/>
<rect x="593.75" y="47.57" opacity="0.06" fill="#9C9B9B" enable-background="new    " width="7.52" height="7.71"/>
<rect x="616.31" y="39.85" opacity="0.06" fill="#9C9B9B" enable-background="new    " width="7.52" height="7.72"/>
<rect x="623.83" y="47.57" opacity="0.06" fill="#9C9B9B" enable-background="new    " width="7.52" height="7.71"/>
<rect x="616.31" y="24.43" opacity="0.06" fill="#9C9B9B" enable-background="new    " width="7.52" height="7.71"/>
<rect x="623.83" y="32.14" opacity="0.06" fill="#9C9B9B" enable-background="new    " width="7.52" height="7.71"/>
<rect x="631.35" y="39.85" opacity="0.06" fill="#9C9B9B" enable-background="new    " width="7.52" height="7.72"/>
<rect x="601.27" y="55.29" opacity="0.06" fill="#9C9B9B" enable-background="new    " width="7.52" height="7.71"/>
<rect x="616.31" y="55.29" opacity="0.06" fill="#9C9B9B" enable-background="new    " width="7.52" height="7.71"/>
<rect x="631.35" y="55.29" opacity="0.06" fill="#9C9B9B" enable-background="new    " width="7.52" height="7.71"/>
<rect x="638.87" y="47.57" opacity="0.06" fill="#9C9B9B" enable-background="new    " width="7.52" height="7.71"/>
<rect x="646.39" y="55.29" opacity="0.06" fill="#9C9B9B" enable-background="new    " width="7.52" height="7.71"/>
<rect x="646.39" y="39.85" opacity="0.06" fill="#9C9B9B" enable-background="new    " width="7.52" height="7.72"/>
<rect x="638.87" y="32.14" opacity="0.06" fill="#9C9B9B" enable-background="new    " width="7.52" height="7.71"/>
<rect x="631.35" y="24.43" opacity="0.06" fill="#9C9B9B" enable-background="new    " width="7.52" height="7.71"/>
<rect x="623.83" y="16.71" opacity="0.06" fill="#9C9B9B" enable-background="new    " width="7.52" height="7.72"/>
<rect x="616.31" y="9" opacity="0.06" fill="#9C9B9B" enable-background="new    " width="7.52" height="7.71"/>
<rect x="608.79" y="1.29" opacity="0.06" fill="#9C9B9B" enable-background="new    " width="7.52" height="7.71"/>
<rect x="623.83" y="1.29" opacity="0.06" fill="#9C9B9B" enable-background="new    " width="7.52" height="7.71"/>
<rect x="631.35" y="9" opacity="0.06" fill="#9C9B9B" enable-background="new    " width="7.52" height="7.71"/>
<rect x="638.87" y="1.29" opacity="0.06" fill="#9C9B9B" enable-background="new    " width="7.52" height="7.71"/>
<rect x="646.39" y="9" opacity="0.06" fill="#9C9B9B" enable-background="new    " width="7.52" height="7.71"/>
<rect x="638.87" y="16.71" opacity="0.06" fill="#9C9B9B" enable-background="new    " width="7.52" height="7.72"/>
<rect x="646.39" y="24.43" opacity="0.06" fill="#9C9B9B" enable-background="new    " width="7.52" height="7.71"/>
<rect x="653.91" y="1.29" opacity="0.06" fill="#9C9B9B" enable-background="new    " width="7.52" height="7.71"/>
<rect x="661.43" y="9" opacity="0.06" fill="#9C9B9B" enable-background="new    " width="7.52" height="7.71"/>
<rect x="668.95" y="16.71" opacity="0.06" fill="#9C9B9B" enable-background="new    " width="7.52" height="7.72"/>
<rect x="661.43" y="24.43" opacity="0.06" fill="#9C9B9B" enable-background="new    " width="7.52" height="7.71"/>
<rect x="668.95" y="32.14" opacity="0.06" fill="#9C9B9B" enable-background="new    " width="7.52" height="7.71"/>
<rect x="661.43" y="39.85" opacity="0.06" fill="#9C9B9B" enable-background="new    " width="7.52" height="7.72"/>
<rect x="668.95" y="47.57" opacity="0.06" fill="#9C9B9B" enable-background="new    " width="7.52" height="7.71"/>
<rect x="653.91" y="16.71" opacity="0.06" fill="#9C9B9B" enable-background="new    " width="7.52" height="7.72"/>
<rect x="653.91" y="32.14" opacity="0.06" fill="#9C9B9B" enable-background="new    " width="7.52" height="7.71"/>
<rect x="653.91" y="47.57" opacity="0.06" fill="#9C9B9B" enable-background="new    " width="7.52" height="7.71"/>
<rect x="676.47" y="39.85" opacity="0.06" fill="#9C9B9B" enable-background="new    " width="7.52" height="7.72"/>
<rect x="683.99" y="47.57" opacity="0.06" fill="#9C9B9B" enable-background="new    " width="7.52" height="7.71"/>
<rect x="676.47" y="24.43" opacity="0.06" fill="#9C9B9B" enable-background="new    " width="7.52" height="7.71"/>
<rect x="683.99" y="32.14" opacity="0.06" fill="#9C9B9B" enable-background="new    " width="7.52" height="7.71"/>
<rect x="691.51" y="39.85" opacity="0.06" fill="#9C9B9B" enable-background="new    " width="7.52" height="7.72"/>
<rect x="661.43" y="55.29" opacity="0.06" fill="#9C9B9B" enable-background="new    " width="7.52" height="7.71"/>
<rect x="676.47" y="55.29" opacity="0.06" fill="#9C9B9B" enable-background="new    " width="7.52" height="7.71"/>
<rect x="691.51" y="55.29" opacity="0.06" fill="#9C9B9B" enable-background="new    " width="7.52" height="7.71"/>
<rect x="699.03" y="47.57" opacity="0.06" fill="#9C9B9B" enable-background="new    " width="7.52" height="7.71"/>
<rect x="706.55" y="55.29" opacity="0.06" fill="#9C9B9B" enable-background="new    " width="7.52" height="7.71"/>
<rect x="706.55" y="39.85" opacity="0.06" fill="#9C9B9B" enable-background="new    " width="7.52" height="7.72"/>
<rect x="699.03" y="32.14" opacity="0.06" fill="#9C9B9B" enable-background="new    " width="7.52" height="7.71"/>
<rect x="691.51" y="24.43" opacity="0.06" fill="#9C9B9B" enable-background="new    " width="7.52" height="7.71"/>
<rect x="683.99" y="16.71" opacity="0.06" fill="#9C9B9B" enable-background="new    " width="7.52" height="7.72"/>
<rect x="676.47" y="9" opacity="0.06" fill="#9C9B9B" enable-background="new    " width="7.52" height="7.71"/>
<rect x="668.95" y="1.29" opacity="0.06" fill="#9C9B9B" enable-background="new    " width="7.52" height="7.71"/>
<rect x="683.99" y="1.29" opacity="0.06" fill="#9C9B9B" enable-background="new    " width="7.52" height="7.71"/>
<rect x="691.51" y="9" opacity="0.06" fill="#9C9B9B" enable-background="new    " width="7.52" height="7.71"/>
<rect x="699.03" y="1.29" opacity="0.06" fill="#9C9B9B" enable-background="new    " width="7.52" height="7.71"/>
<rect x="706.55" y="9" opacity="0.06" fill="#9C9B9B" enable-background="new    " width="7.52" height="7.71"/>
<rect x="699.03" y="16.71" opacity="0.06" fill="#9C9B9B" enable-background="new    " width="7.52" height="7.72"/>
<rect x="706.55" y="24.43" opacity="0.06" fill="#9C9B9B" enable-background="new    " width="7.52" height="7.71"/>
<rect x="714.07" y="1.29" opacity="0.06" fill="#9C9B9B" enable-background="new    " width="7.52" height="7.71"/>
<rect x="721.59" y="9" opacity="0.06" fill="#9C9B9B" enable-background="new    " width="7.52" height="7.71"/>
<rect x="729.11" y="16.71" opacity="0.06" fill="#9C9B9B" enable-background="new    " width="7.52" height="7.72"/>
<rect x="721.59" y="24.43" opacity="0.06" fill="#9C9B9B" enable-background="new    " width="7.52" height="7.71"/>
<rect x="729.11" y="32.14" opacity="0.06" fill="#9C9B9B" enable-background="new    " width="7.52" height="7.71"/>
<rect x="721.59" y="39.85" opacity="0.06" fill="#9C9B9B" enable-background="new    " width="7.52" height="7.72"/>
<rect x="729.11" y="47.57" opacity="0.06" fill="#9C9B9B" enable-background="new    " width="7.52" height="7.71"/>
<rect x="714.07" y="16.71" opacity="0.06" fill="#9C9B9B" enable-background="new    " width="7.52" height="7.72"/>
<rect x="714.07" y="32.14" opacity="0.06" fill="#9C9B9B" enable-background="new    " width="7.52" height="7.71"/>
<rect x="714.07" y="47.57" opacity="0.06" fill="#9C9B9B" enable-background="new    " width="7.52" height="7.71"/>
<rect x="736.63" y="39.85" opacity="0.06" fill="#9C9B9B" enable-background="new    " width="7.52" height="7.72"/>
<rect x="744.16" y="47.57" opacity="0.06" fill="#9C9B9B" enable-background="new    " width="7.52" height="7.71"/>
<rect x="736.63" y="24.43" opacity="0.06" fill="#9C9B9B" enable-background="new    " width="7.52" height="7.71"/>
<rect x="744.16" y="32.14" opacity="0.06" fill="#9C9B9B" enable-background="new    " width="7.52" height="7.71"/>
<rect x="751.68" y="39.85" opacity="0.06" fill="#9C9B9B" enable-background="new    " width="7.52" height="7.72"/>
<rect x="721.59" y="55.29" opacity="0.06" fill="#9C9B9B" enable-background="new    " width="7.52" height="7.71"/>
<rect x="736.63" y="55.29" opacity="0.06" fill="#9C9B9B" enable-background="new    " width="7.52" height="7.71"/>
<rect x="751.68" y="55.29" opacity="0.06" fill="#9C9B9B" enable-background="new    " width="7.52" height="7.71"/>
<rect x="759.2" y="47.57" opacity="0.06" fill="#9C9B9B" enable-background="new    " width="7.52" height="7.71"/>
<rect x="766.72" y="55.29" opacity="0.06" fill="#9C9B9B" enable-background="new    " width="7.52" height="7.71"/>
<rect x="766.72" y="39.85" opacity="0.06" fill="#9C9B9B" enable-background="new    " width="7.52" height="7.72"/>
<rect x="759.2" y="32.14" opacity="0.06" fill="#9C9B9B" enable-background="new    " width="7.52" height="7.71"/>
<rect x="751.68" y="24.43" opacity="0.06" fill="#9C9B9B" enable-background="new    " width="7.52" height="7.71"/>
<rect x="744.16" y="16.71" opacity="0.06" fill="#9C9B9B" enable-background="new    " width="7.52" height="7.72"/>
<rect x="736.63" y="9" opacity="0.06" fill="#9C9B9B" enable-background="new    " width="7.52" height="7.71"/>
<rect x="729.11" y="1.29" opacity="0.06" fill="#9C9B9B" enable-background="new    " width="7.52" height="7.71"/>
<rect x="744.16" y="1.29" opacity="0.06" fill="#9C9B9B" enable-background="new    " width="7.52" height="7.71"/>
<rect x="751.68" y="9" opacity="0.06" fill="#9C9B9B" enable-background="new    " width="7.52" height="7.71"/>
<rect x="759.2" y="1.29" opacity="0.06" fill="#9C9B9B" enable-background="new    " width="7.52" height="7.71"/>
<rect x="766.72" y="9" opacity="0.06" fill="#9C9B9B" enable-background="new    " width="7.52" height="7.71"/>
<rect x="759.2" y="16.71" opacity="0.06" fill="#9C9B9B" enable-background="new    " width="7.52" height="7.72"/>
<rect x="766.72" y="24.43" opacity="0.06" fill="#9C9B9B" enable-background="new    " width="7.52" height="7.71"/>
<rect x="774.24" y="1.29" opacity="0.06" fill="#9C9B9B" enable-background="new    " width="7.52" height="7.71"/>
<rect x="781.76" y="9" opacity="0.06" fill="#9C9B9B" enable-background="new    " width="7.52" height="7.71"/>
<rect x="789.28" y="16.71" opacity="0.06" fill="#9C9B9B" enable-background="new    " width="7.52" height="7.72"/>
<rect x="781.76" y="24.43" opacity="0.06" fill="#9C9B9B" enable-background="new    " width="7.52" height="7.71"/>
<rect x="789.28" y="32.14" opacity="0.06" fill="#9C9B9B" enable-background="new    " width="7.52" height="7.71"/>
<rect x="781.76" y="39.85" opacity="0.06" fill="#9C9B9B" enable-background="new    " width="7.52" height="7.72"/>
<rect x="789.28" y="47.57" opacity="0.06" fill="#9C9B9B" enable-background="new    " width="7.52" height="7.71"/>
<rect x="774.24" y="16.71" opacity="0.06" fill="#9C9B9B" enable-background="new    " width="7.52" height="7.72"/>
<rect x="774.24" y="32.14" opacity="0.06" fill="#9C9B9B" enable-background="new    " width="7.52" height="7.71"/>
<rect x="774.24" y="47.57" opacity="0.06" fill="#9C9B9B" enable-background="new    " width="7.52" height="7.71"/>
<rect x="796.8" y="39.85" opacity="0.06" fill="#9C9B9B" enable-background="new    " width="7.52" height="7.72"/>
<rect x="804.32" y="47.57" opacity="0.06" fill="#9C9B9B" enable-background="new    " width="7.52" height="7.71"/>
<rect x="796.8" y="24.43" opacity="0.06" fill="#9C9B9B" enable-background="new    " width="7.52" height="7.71"/>
<rect x="804.32" y="32.14" opacity="0.06" fill="#9C9B9B" enable-background="new    " width="7.52" height="7.71"/>
<rect x="811.84" y="39.85" opacity="0.06" fill="#9C9B9B" enable-background="new    " width="7.52" height="7.72"/>
<rect x="781.76" y="55.29" opacity="0.06" fill="#9C9B9B" enable-background="new    " width="7.52" height="7.71"/>
<rect x="796.8" y="55.29" opacity="0.06" fill="#9C9B9B" enable-background="new    " width="7.52" height="7.71"/>
<rect x="811.84" y="55.29" opacity="0.06" fill="#9C9B9B" enable-background="new    " width="7.52" height="7.71"/>
<rect x="819.36" y="47.57" opacity="0.06" fill="#9C9B9B" enable-background="new    " width="7.52" height="7.71"/>
<rect x="826.88" y="55.29" opacity="0.06" fill="#9C9B9B" enable-background="new    " width="7.52" height="7.71"/>
<rect x="826.88" y="39.85" opacity="0.06" fill="#9C9B9B" enable-background="new    " width="7.52" height="7.72"/>
<rect x="819.36" y="32.14" opacity="0.06" fill="#9C9B9B" enable-background="new    " width="7.52" height="7.71"/>
<rect x="811.84" y="24.43" opacity="0.06" fill="#9C9B9B" enable-background="new    " width="7.52" height="7.71"/>
<rect x="804.32" y="16.71" opacity="0.06" fill="#9C9B9B" enable-background="new    " width="7.52" height="7.72"/>
<rect x="796.8" y="9" opacity="0.06" fill="#9C9B9B" enable-background="new    " width="7.52" height="7.71"/>
<rect x="789.28" y="1.29" opacity="0.06" fill="#9C9B9B" enable-background="new    " width="7.52" height="7.71"/>
<rect x="804.32" y="1.29" opacity="0.06" fill="#9C9B9B" enable-background="new    " width="7.52" height="7.71"/>
<rect x="811.84" y="9" opacity="0.06" fill="#9C9B9B" enable-background="new    " width="7.52" height="7.71"/>
<rect x="819.36" y="1.29" opacity="0.06" fill="#9C9B9B" enable-background="new    " width="7.52" height="7.71"/>
<rect x="826.88" y="9" opacity="0.06" fill="#9C9B9B" enable-background="new    " width="7.52" height="7.71"/>
<rect x="819.36" y="16.71" opacity="0.06" fill="#9C9B9B" enable-background="new    " width="7.52" height="7.72"/>
<rect x="826.88" y="24.43" opacity="0.06" fill="#9C9B9B" enable-background="new    " width="7.52" height="7.71"/>
<rect x="834.4" y="16.71" opacity="0.06" fill="#9C9B9B" enable-background="new    " width="7.52" height="7.72"/>
<rect x="834.4" y="32.14" opacity="0.06" fill="#9C9B9B" enable-background="new    " width="7.52" height="7.71"/>
<rect x="834.4" y="47.57" opacity="0.06" fill="#9C9B9B" enable-background="new    " width="7.52" height="7.71"/>
<rect x="841.92" y="39.85" opacity="0.06" fill="#9C9B9B" enable-background="new    " width="7.52" height="7.72"/>
<rect x="849.44" y="47.57" opacity="0.06" fill="#9C9B9B" enable-background="new    " width="7.52" height="7.71"/>
<rect x="841.92" y="24.43" opacity="0.06" fill="#9C9B9B" enable-background="new    " width="7.52" height="7.71"/>
<rect x="849.44" y="32.14" opacity="0.06" fill="#9C9B9B" enable-background="new    " width="7.52" height="7.71"/>
<rect x="856.96" y="39.85" opacity="0.06" fill="#9C9B9B" enable-background="new    " width="7.52" height="7.72"/>
<rect x="841.92" y="55.29" opacity="0.06" fill="#9C9B9B" enable-background="new    " width="7.52" height="7.71"/>
<rect x="856.96" y="55.29" opacity="0.06" fill="#9C9B9B" enable-background="new    " width="7.52" height="7.71"/>
<rect x="864.48" y="47.57" opacity="0.06" fill="#9C9B9B" enable-background="new    " width="7.52" height="7.71"/>
<rect x="864.48" y="32.14" opacity="0.06" fill="#9C9B9B" enable-background="new    " width="7.52" height="7.71"/>
<rect x="856.96" y="24.43" opacity="0.06" fill="#9C9B9B" enable-background="new    " width="7.52" height="7.71"/>
<rect x="849.44" y="16.71" opacity="0.06" fill="#9C9B9B" enable-background="new    " width="7.52" height="7.72"/>
<rect x="841.92" y="9" opacity="0.06" fill="#9C9B9B" enable-background="new    " width="7.52" height="7.71"/>
<rect x="834.4" y="1.29" opacity="0.06" fill="#9C9B9B" enable-background="new    " width="7.52" height="7.71"/>
<rect x="849.44" y="1.29" opacity="0.06" fill="#9C9B9B" enable-background="new    " width="7.52" height="7.71"/>
<rect x="856.96" y="9" opacity="0.06" fill="#9C9B9B" enable-background="new    " width="7.52" height="7.71"/>
<rect x="864.48" y="1.29" opacity="0.06" fill="#9C9B9B" enable-background="new    " width="7.52" height="7.71"/>
<rect x="864.48" y="16.71" opacity="0.06" fill="#9C9B9B" enable-background="new    " width="7.52" height="7.72"/>
<rect x="548.63" y="63" opacity="0.06" fill="#9C9B9B" enable-background="new    " width="7.52" height="7.71"/>
<rect x="563.67" y="63" opacity="0.06" fill="#9C9B9B" enable-background="new    " width="7.52" height="7.71"/>
<rect x="578.71" y="63" opacity="0.06" fill="#9C9B9B" enable-background="new    " width="7.52" height="7.71"/>
<rect x="608.79" y="63" opacity="0.06" fill="#9C9B9B" enable-background="new    " width="7.52" height="7.71"/>
<rect x="593.75" y="63" opacity="0.06" fill="#9C9B9B" enable-background="new    " width="7.52" height="7.71"/>
<rect x="623.83" y="63" opacity="0.06" fill="#9C9B9B" enable-background="new    " width="7.52" height="7.71"/>
<rect x="638.87" y="63" opacity="0.06" fill="#9C9B9B" enable-background="new    " width="7.52" height="7.71"/>
<rect x="668.95" y="63" opacity="0.06" fill="#9C9B9B" enable-background="new    " width="7.52" height="7.71"/>
<rect x="653.91" y="63" opacity="0.06" fill="#9C9B9B" enable-background="new    " width="7.52" height="7.71"/>
<rect x="683.99" y="63" opacity="0.06" fill="#9C9B9B" enable-background="new    " width="7.52" height="7.71"/>
<rect x="699.03" y="63" opacity="0.06" fill="#9C9B9B" enable-background="new    " width="7.52" height="7.71"/>
<rect x="729.11" y="63" opacity="0.06" fill="#9C9B9B" enable-background="new    " width="7.52" height="7.71"/>
<rect x="714.07" y="63" opacity="0.06" fill="#9C9B9B" enable-background="new    " width="7.52" height="7.71"/>
<rect x="744.16" y="63" opacity="0.06" fill="#9C9B9B" enable-background="new    " width="7.52" height="7.71"/>
<rect x="759.2" y="63" opacity="0.06" fill="#9C9B9B" enable-background="new    " width="7.52" height="7.71"/>
<rect x="789.28" y="63" opacity="0.06" fill="#9C9B9B" enable-background="new    " width="7.52" height="7.71"/>
<rect x="774.24" y="63" opacity="0.06" fill="#9C9B9B" enable-background="new    " width="7.52" height="7.71"/>
<rect x="804.32" y="63" opacity="0.06" fill="#9C9B9B" enable-background="new    " width="7.52" height="7.71"/>
<rect x="819.36" y="63" opacity="0.06" fill="#9C9B9B" enable-background="new    " width="7.52" height="7.71"/>
<rect x="834.4" y="63" opacity="0.06" fill="#9C9B9B" enable-background="new    " width="7.52" height="7.71"/>
<rect x="849.44" y="63" opacity="0.06" fill="#9C9B9B" enable-background="new    " width="7.52" height="7.71"/>
<rect x="864.48" y="63" opacity="0.06" fill="#9C9B9B" enable-background="new    " width="7.52" height="7.71"/>
<polygon opacity="0.75" fill="#5D5D5C" enable-background="new    " points="566.25,0.05 527.5,71.68 0.36,71.68 0.38,0.05 "/>
<g>
	
		<polyline opacity="0.96" fill="#FFFFFF" stroke="#CFCFCF" stroke-width="2" stroke-miterlimit="10" enable-background="new    " points="
		595.99,72 588.74,18.5 673.02,5.5 698.5,26.58 703.24,72 	"/>
	<line fill="none" stroke="#CFCFCF" stroke-width="2" stroke-miterlimit="10" x1="590.56" y1="31.25" x2="685.2" y2="16.49"/>
	<line fill="none" stroke="#E6E6E6" stroke-width="2" stroke-miterlimit="10" x1="591.77" y1="21.4" x2="626.54" y2="15.98"/>
	<line fill="none" stroke="#E6E6E6" stroke-width="2" stroke-miterlimit="10" x1="592.42" y1="24.69" x2="602.99" y2="23.05"/>
	<line fill="none" stroke="#E6E6E6" stroke-width="2" stroke-miterlimit="10" x1="593.65" y1="34.14" x2="607.35" y2="32"/>
	<line fill="none" stroke="#E6E6E6" stroke-width="2" stroke-miterlimit="10" x1="594.16" y1="38.32" x2="604.73" y2="36.67"/>
	<line fill="none" stroke="#E6E6E6" stroke-width="2" stroke-miterlimit="10" x1="594.65" y1="41.28" x2="613.61" y2="38.32"/>
	<line fill="none" stroke="#E6E6E6" stroke-width="2" stroke-miterlimit="10" x1="597.29" y1="58.35" x2="627.31" y2="53.67"/>
	<line fill="none" stroke="#E6E6E6" stroke-width="2" stroke-miterlimit="10" x1="598.03" y1="69.51" x2="610.14" y2="67.62"/>
	<line fill="none" stroke="#E6E6E6" stroke-width="2" stroke-miterlimit="10" x1="623.83" y1="70.46" x2="644.17" y2="67.28"/>
	<line fill="none" stroke="#E6E6E6" stroke-width="2" stroke-miterlimit="10" x1="649.39" y1="66.54" x2="669.72" y2="63.37"/>
	<line fill="none" stroke="#E6E6E6" stroke-width="2" stroke-miterlimit="10" x1="672.94" y1="62.79" x2="682.32" y2="61.46"/>
	<line fill="none" stroke="#E6E6E6" stroke-width="2" stroke-miterlimit="10" x1="673.55" y1="66.28" x2="694.15" y2="63.37"/>
	<line fill="none" stroke="#E6E6E6" stroke-width="2" stroke-miterlimit="10" x1="674.17" y1="69.21" x2="694.88" y2="66.29"/>
	<line fill="none" stroke="#E6E6E6" stroke-width="2" stroke-miterlimit="10" x1="683.64" y1="71.2" x2="695.56" y2="69.51"/>
	<line fill="none" stroke="#E6E6E6" stroke-width="2" stroke-miterlimit="10" x1="649.98" y1="69.71" x2="670.32" y2="66.54"/>
	<line fill="none" stroke="#E6E6E6" stroke-width="2" stroke-miterlimit="10" x1="661.74" y1="71.08" x2="670.78" y2="69.67"/>
	<line fill="none" stroke="#E6E6E6" stroke-width="2" stroke-miterlimit="10" x1="595.21" y1="44.28" x2="608.63" y2="42.19"/>
	<line fill="none" stroke="#E6E6E6" stroke-width="2" stroke-miterlimit="10" x1="595.73" y1="47.21" x2="607.51" y2="45.38"/>
	<line fill="none" stroke="#E6E6E6" stroke-width="2" stroke-miterlimit="10" x1="596.28" y1="49.86" x2="606.14" y2="48.32"/>
	<line fill="none" stroke="#E6E6E6" stroke-width="2" stroke-miterlimit="10" x1="598.03" y1="62.86" x2="602.96" y2="62.09"/>
	<line fill="none" stroke="#E6E6E6" stroke-width="2" stroke-miterlimit="10" x1="644.17" y1="30.92" x2="660.97" y2="28.3"/>
	<line fill="none" stroke="#E6E6E6" stroke-width="2" stroke-miterlimit="10" x1="644.65" y1="33.88" x2="663.62" y2="30.92"/>
	<line fill="none" stroke="#E6E6E6" stroke-width="2" stroke-miterlimit="10" x1="645.22" y1="36.88" x2="658.64" y2="34.78"/>
	<line fill="none" stroke="#E6E6E6" stroke-width="2" stroke-miterlimit="10" x1="645.74" y1="39.81" x2="674.56" y2="35.32"/>
	<line fill="none" stroke="#E6E6E6" stroke-width="2" stroke-miterlimit="10" x1="646.29" y1="42.46" x2="662.39" y2="39.95"/>
	<line fill="none" stroke="#E6E6E6" stroke-width="2" stroke-miterlimit="10" x1="596.87" y1="52.56" x2="614.18" y2="49.86"/>
	<line fill="none" stroke="#E6E6E6" stroke-width="2" stroke-miterlimit="10" x1="592.83" y1="27.68" x2="614.72" y2="24.26"/>
	<line fill="none" stroke="#E6E6E6" stroke-width="2" stroke-miterlimit="10" x1="644.17" y1="19.79" x2="668.56" y2="15.98"/>
	<line fill="none" stroke="#CFCFCF" stroke-width="2" stroke-miterlimit="10" x1="593.65" y1="55.83" x2="699.81" y2="39.28"/>
	<line fill="none" stroke="#CFCFCF" stroke-width="2" stroke-miterlimit="10" x1="594.65" y1="67.17" x2="700.81" y2="50.61"/>
	<g>
		<polygon fill="#CFCFCF" points="699.8,26.23 673.55,4.65 672.94,6.5 675.56,30.12 697.43,27.12 		"/>
	</g>
</g>
</svg>
