<svg xmlns="http://www.w3.org/2000/svg" width="872" height="576.5" viewBox="0 0 872 576.5"><style type="text/css"><![CDATA[
	.st0{opacity:0.13;fill:none;stroke:#010202;stroke-width:2;enable-background:new;}
	.st1{fill:#E6E6E6;}	.st2{fill:#4E4D4D;}	.st3{opacity:0.18;}	.st4{fill:#EECDAE;}
	.st5{opacity:0.75;fill:#5E5E5D;enable-background:new;}	.st6{fill:#535252;}
	.st7{opacity:0.75;fill:#3D3D3C;enable-background:new;}	.st8{fill:#F2DAC3;}
	.st9{opacity:0.13;fill:none;stroke:#010202;stroke-width:0.75;enable-background:new;}
	.st10{opacity:0.8;enable-background:new;}
	.st11{opacity:0.13;fill:#3D3D3C;stroke:#010202;stroke-width:2;enable-background:new;}
	.st12{opacity:0.5;}	.st13{fill:#FFFFFF;} .st14{opacity:0.1;fill:#3D3D3C;enable-background:new;}
	.st15{fill:#CFCFCF;} .st16{fill:#FFFFFF;stroke:#CFCFCF;stroke-width:2;stroke-miterlimit:10;}
	.st17{fill:#3D3D3C;} .st18{opacity:0.5;fill:#3D3D3C;enable-background:new;}
	.st19{opacity:0.25;fill:#3D3D3C;enable-background:new;}
]]></style><path class="st4" d="M.2 0h872v72H.2z"/><path class="st11" d="M817.016 13.693l2.9.014-.014 3-2.9-.014zM804.412 38.794l2.9.012-.012 3-2.9-.012zM797.416 23.493l2.9.014-.014 3-2.9-.014zM859.316 32.694l2.9.013-.014 3-2.9-.013zM838.92 38.993l2.9.015-.016 3-2.9-.015zM721.715 51.093l3 .015-.014 3-3-.015zM759.315 37.394l2.9.013-.014 3-2.9-.013zM741.518 29.393l3 .015-.016 3-3-.015zM771.315 3.893l2.9.014-.014 3-2.9-.014zM688.115 15.193l3 .014-.015 3-3-.014zM620.014 41.894l2.9.013-.014 3-2.9-.013zM607.415 7.193l2.9.014-.015 3-2.9-.014zM573.313 48.194l2.9.013-.014 3-2.9-.013zM545.814 16.593l2.9.014-.015 3-2.9-.014zM534.312 51.894l2.9.013-.013 3-2.9-.013zM560.014 30.793l3 .015-.015 3-3-.015zM652.016 7.193l2.9.014-.015 3-2.9-.014zM702.317 60.793l3 .016-.015 3-3-.017z"/><path class="st0" d="M543.3 41.8l4.9 2.4 50.5-4L620 15l49.1 6.5L688.7-.2M620 70.8l32-32 89 3 19.3 13.5L798.8-.2M871.6 63.8l-39-46.5-15.1 40.5-39.2-2.5-11 15.5"/><path class="st11" d="M656.817 51.093l2.9.015-.016 3-2.9-.015zM707.913 8.594l2.9.012-.013 3-2.9-.012z"/><path class="st8" d="M566.5 0l-38.9 71.8H0V0z"/><path class="st4" d="M.1 215.6h872v72H.1z"/><path class="st8" d="M524.6 215.6l-39.1 71.7H-.1v-71.7z"/><g class="st10"><path class="st16" d="M572.5 243.8s-17.1.4-18.2 16.4c-1.1 16 9 19.7 15.6 20.3 6.6.6 59.8.5 59.8.5s12.5-1.1 14.6-16.9c2-14.8-13-18.5-13-18.5s2.3-14.6-12.8-21.7c-13.6-6.3-24.8 8.3-24.8 8.3s-7.3-5.7-13.9-3.8c-8.7 2.4-7.3 15.4-7.3 15.4zM572.5 243.8s-17.1.4-18.2 16.4c-1.1 16 9 19.7 15.6 20.3 6.6.6 59.8.5 59.8.5s12.5-1.1 14.6-16.9c2-14.8-13-18.5-13-18.5s2.3-14.6-12.8-21.7c-13.6-6.3-24.8 8.3-24.8 8.3s-7.3-5.7-13.9-3.8c-8.7 2.4-7.3 15.4-7.3 15.4z"/></g><path class="st2" d="M.2 288.3h872v72H.2z"/><path class="st11" d="M817.016 301.997l2.9.013-.014 3-2.9-.013zM804.412 327.197l2.9.01-.012 3-2.9-.01zM797.416 311.797l2.9.013-.014 3-2.9-.013zM859.316 320.997l2.9.013-.014 3-2.9-.013zM838.92 327.297l2.9.015-.016 3-2.9-.015zM721.714 339.397l3 .013-.014 3-3-.013zM759.315 325.697l2.9.013-.014 3-2.9-.013zM741.518 317.697l3 .015-.016 3-3-.015zM771.315 292.196l2.9.014-.014 3-2.9-.014zM688.114 303.496l3 .014-.014 3-3-.014zM620.014 330.197l2.9.013-.014 3-2.9-.013zM607.417 295.496l2.9.016-.017 3-2.9-.016zM573.313 336.497l2.9.014-.014 3-2.9-.013zM545.816 304.897l2.9.015-.016 3-2.9-.015zM534.313 340.197l2.9.014-.014 3-2.9-.013zM560.015 319.097l3 .015-.015 3-3-.015zM652.017 295.496l2.9.016-.016 3-2.9-.016zM702.317 349.097l3 .015-.015 3-3-.015z"/><path class="st0" d="M543.3 330l4.9 2.5 50.5-4 21.3-25.2 49.1 6.5 19.6-21.8M620 359l32-31.9 89 3 19.3 13.5 38.5-55.6M871.6 352l-39-46.4-15.1 40.4-39.2-2.4-11 15.4"/><path class="st9" d="M729.3 289.5"/><path class="st11" d="M656.817 339.397l2.9.016-.016 3-2.9-.016zM707.912 296.897l2.9.01-.012 3-2.9-.01z"/><path class="st5" d="M566.5 288.3L527.6 360H0v-71.7z"/><path class="st2" d="M.1 360h872v72H.1z"/><path class="st6" d="M525.6 414.8h7.5v7.7h-7.5zM548.1 376.2h7.5v7.7h-7.5zM540.6 384h7.5v7.7h-7.5zM548.1 391.6h7.5v7.7h-7.5zM540.6 399.3h7.5v7.7h-7.5zM548.1 407.1h7.5v7.7h-7.5zM533.1 407.1h7.5v7.7h-7.5zM554.7 399.3h7.5v7.7h-7.5zM563.2 407.1h7.5v7.7h-7.5zM555.7 384h7.5v7.7h-7.5zM563.2 391.6h7.5v7.7h-7.5zM570.7 399.3h7.5v7.7h-7.5zM540.6 414.8h7.5v7.7h-7.5zM533.1 423.2h7.5v7.7h-7.5zM555.7 414.8h7.5v7.7h-7.5zM570.7 414.8h7.5v7.7h-7.5zM578.2 407.1h7.5v7.7h-7.5zM585.7 414.8h7.5v7.7h-7.5zM585.7 399.3h7.5v7.7h-7.5zM578.2 391.6h7.5v7.7h-7.5zM570.7 384h7.5v7.7h-7.5zM563.2 376.2h7.5v7.7h-7.5zM555.7 368.5h7.5v7.7h-7.5zM563.2 360.8h7.5v7.7h-7.5zM570.7 368.5h7.5v7.7h-7.5zM578.2 360.8h7.5v7.7h-7.5zM585.7 368.5h7.5v7.7h-7.5zM578.2 376.2h7.5v7.7h-7.5zM585.7 384h7.5v7.7h-7.5zM593.3 360.8h7.5v7.7h-7.5zM600.8 368.5h7.5v7.7h-7.5zM608.3 376.2h7.5v7.7h-7.5zM600.8 384h7.5v7.7h-7.5zM608.3 391.6h7.5v7.7h-7.5zM600.8 399.3h7.5v7.7h-7.5zM608.3 407.1h7.5v7.7h-7.5zM593.3 376.2h7.5v7.7h-7.5zM593.3 391.6h7.5v7.7h-7.5zM593.3 407.1h7.5v7.7h-7.5zM614.8 399.3h7.5v7.7h-7.5zM623.3 407.1h7.5v7.7h-7.5zM615.8 384h7.5v7.7h-7.5zM623.3 391.6h7.5v7.7h-7.5zM630.8 399.3h7.5v7.7h-7.5zM600.8 414.8h7.5v7.7h-7.5zM615.8 414.8h7.5v7.7h-7.5zM630.8 414.8h7.5v7.7h-7.5zM638.4 407.1h7.5v7.7h-7.5zM645.9 414.8h7.5v7.7h-7.5zM645.9 399.3h7.5v7.7h-7.5zM638.4 391.6h7.5v7.7h-7.5zM630.8 384h7.5v7.7h-7.5zM623.3 376.2h7.5v7.7h-7.5zM615.8 368.5h7.5v7.7h-7.5zM608.3 360.8h7.5v7.7h-7.5zM623.3 360.8h7.5v7.7h-7.5zM630.8 368.5h7.5v7.7h-7.5zM638.4 360.8h7.5v7.7h-7.5zM645.9 368.5h7.5v7.7h-7.5zM638.4 376.2h7.5v7.7h-7.5zM645.9 384h7.5v7.7h-7.5zM653.4 360.8h7.5v7.7h-7.5zM660.9 368.5h7.5v7.7h-7.5zM668.5 376.2h7.5v7.7h-7.5zM660.9 384h7.5v7.7h-7.5zM668.5 391.6h7.5v7.7h-7.5zM660.9 399.3h7.5v7.7h-7.5zM668.5 407.1h7.5v7.7h-7.5zM653.4 376.2h7.5v7.7h-7.5zM653.4 391.6h7.5v7.7h-7.5zM653.4 407.1h7.5v7.7h-7.5zM675 399.3h7.5v7.7H675zM683.5 407.1h7.5v7.7h-7.5zM676 384h7.5v7.7H676zM683.5 391.6h7.5v7.7h-7.5zM691 399.3h7.5v7.7H691zM660.9 414.8h7.5v7.7h-7.5zM676 414.8h7.5v7.7H676zM691 414.8h7.5v7.7H691zM698.5 407.1h7.5v7.7h-7.5zM706 414.8h7.5v7.7H706zM706 399.3h7.5v7.7H706zM698.5 391.6h7.5v7.7h-7.5zM691 384h7.5v7.7H691zM683.5 376.2h7.5v7.7h-7.5zM676 368.5h7.5v7.7H676zM668.5 360.8h7.5v7.7h-7.5zM683.5 360.8h7.5v7.7h-7.5zM691 368.5h7.5v7.7H691zM698.5 360.8h7.5v7.7h-7.5zM706 368.5h7.5v7.7H706zM698.5 376.2h7.5v7.7h-7.5zM706 384h7.5v7.7H706zM713.6 360.8h7.5v7.7h-7.5zM721.1 368.5h7.5v7.7h-7.5zM728.6 376.2h7.5v7.7h-7.5zM721.1 384h7.5v7.7h-7.5zM728.6 391.6h7.5v7.7h-7.5zM721.1 399.3h7.5v7.7h-7.5zM728.6 407.1h7.5v7.7h-7.5zM713.6 376.2h7.5v7.7h-7.5zM713.6 391.6h7.5v7.7h-7.5zM713.6 407.1h7.5v7.7h-7.5zM735.1 399.3h7.5v7.7h-7.5zM743.7 407.1h7.5v7.7h-7.5zM736.1 384h7.5v7.7h-7.5zM743.7 391.6h7.5v7.7h-7.5zM751.2 399.3h7.5v7.7h-7.5zM721.1 414.8h7.5v7.7h-7.5zM736.1 414.8h7.5v7.7h-7.5zM751.2 414.8h7.5v7.7h-7.5zM758.7 407.1h7.5v7.7h-7.5zM766.2 414.8h7.5v7.7h-7.5zM766.2 399.3h7.5v7.7h-7.5zM758.7 391.6h7.5v7.7h-7.5zM751.2 384h7.5v7.7h-7.5zM743.7 376.2h7.5v7.7h-7.5zM736.1 368.5h7.5v7.7h-7.5zM728.6 360.8h7.5v7.7h-7.5zM743.7 360.8h7.5v7.7h-7.5zM751.2 368.5h7.5v7.7h-7.5zM758.7 360.8h7.5v7.7h-7.5zM766.2 368.5h7.5v7.7h-7.5zM758.7 376.2h7.5v7.7h-7.5zM766.2 384h7.5v7.7h-7.5zM773.7 360.8h7.5v7.7h-7.5zM781.3 368.5h7.5v7.7h-7.5zM788.8 376.2h7.5v7.7h-7.5zM781.3 384h7.5v7.7h-7.5zM788.8 391.6h7.5v7.7h-7.5zM781.3 399.3h7.5v7.7h-7.5zM788.8 407.1h7.5v7.7h-7.5zM773.7 376.2h7.5v7.7h-7.5zM773.7 391.6h7.5v7.7h-7.5zM773.7 407.1h7.5v7.7h-7.5zM795.3 399.3h7.5v7.7h-7.5zM803.8 407.1h7.5v7.7h-7.5zM796.3 384h7.5v7.7h-7.5zM803.8 391.6h7.5v7.7h-7.5zM811.3 399.3h7.5v7.7h-7.5zM781.3 414.8h7.5v7.7h-7.5zM796.3 414.8h7.5v7.7h-7.5zM811.3 414.8h7.5v7.7h-7.5zM818.9 407.1h7.5v7.7h-7.5zM826.4 414.8h7.5v7.7h-7.5zM826.4 399.3h7.5v7.7h-7.5zM818.9 391.6h7.5v7.7h-7.5zM811.3 384h7.5v7.7h-7.5zM803.8 376.2h7.5v7.7h-7.5zM796.3 368.5h7.5v7.7h-7.5zM788.8 360.8h7.5v7.7h-7.5zM803.8 360.8h7.5v7.7h-7.5zM811.3 368.5h7.5v7.7h-7.5zM818.9 360.8h7.5v7.7h-7.5zM826.4 368.5h7.5v7.7h-7.5zM818.9 376.2h7.5v7.7h-7.5zM826.4 384h7.5v7.7h-7.5zM833.9 376.2h7.5v7.7h-7.5zM833.9 391.6h7.5v7.7h-7.5zM833.9 407.1h7.5v7.7h-7.5zM840.4 399.3h7.5v7.7h-7.5zM848.9 407.1h7.5v7.7h-7.5zM841.4 384h7.5v7.7h-7.5zM848.9 391.6h7.5v7.7h-7.5zM856.5 399.3h7.5v7.7h-7.5zM841.4 414.8h7.5v7.7h-7.5zM856.5 414.8h7.5v7.7h-7.5zM864 407.1h7.5v7.7H864zM864 391.6h7.5v7.7H864zM856.5 384h7.5v7.7h-7.5zM848.9 376.2h7.5v7.7h-7.5zM841.4 368.5h7.5v7.7h-7.5zM833.9 360.8h7.5v7.7h-7.5zM848.9 360.8h7.5v7.7h-7.5zM856.5 368.5h7.5v7.7h-7.5zM864 360.8h7.5v7.7H864zM864 376.2h7.5v7.7H864zM548.1 423.2h7.5v7.7h-7.5zM563.2 423.2h7.5v7.7h-7.5zM578.2 423.2h7.5v7.7h-7.5zM608.3 423.2h7.5v7.7h-7.5zM593.3 423.2h7.5v7.7h-7.5zM623.3 423.2h7.5v7.7h-7.5zM638.4 423.2h7.5v7.7h-7.5zM668.5 423.2h7.5v7.7h-7.5zM653.4 423.2h7.5v7.7h-7.5zM683.5 423.2h7.5v7.7h-7.5zM698.5 423.2h7.5v7.7h-7.5zM728.6 423.2h7.5v7.7h-7.5zM713.6 423.2h7.5v7.7h-7.5zM743.7 423.2h7.5v7.7h-7.5zM758.7 423.2h7.5v7.7h-7.5zM788.8 423.2h7.5v7.7h-7.5zM773.7 423.2h7.5v7.7h-7.5zM803.8 423.2h7.5v7.7h-7.5zM818.9 423.2h7.5v7.7h-7.5zM833.9 423.2h7.5v7.7h-7.5zM848.9 423.2h7.5v7.7h-7.5zM864 423.2h7.5v7.7H864z"/><path class="st5" d="M565.9 360l-38.2 71.8H-.1V360z"/><path class="st2" d="M.4 432.2h872v72H.4z"/><g class="st12"><path class="st17" d="M853.3 480.5c-.9 7.8-8 13.4-15.9 12.5-7.9-.9-13.5-8-12.5-15.9.9-7.8 8-13.5 15.9-12.5 7.8.9 13.4 7.9 12.5 15.9zM823.8 457.6l-4-6.8c-15.1 8.7-20.2 28-11.5 43.1l6.8-4c-6.5-11.3-2.6-25.8 8.7-32.3z"/><path class="st7" d="M806.2 441.3l-4-6.8c-22.6 13.1-30.4 42-17.3 64.7l6.8-4c-10.8-18.7-4.4-43 14.5-53.9z"/><path class="st14" d="M690.1 504.8c-12.2-22.6-13.3-48.7-4.7-71.6H677c-7.8 23-6.8 48.7 4.2 71.6h8.9zM717.9 503.2c-10.3-22.9-9.8-48.3-.3-70.2H709c-8.7 22.1-9 47.2.3 70.2h8.6z"/><path class="st19" d="M743.9 503.2c-12-22.8-10.3-49.5 2.5-70.2h-9.1c-11.4 21.3-12.8 47.2-2.2 70.2h8.8z"/><path class="st18" d="M763.3 503.5l5.1-3c-13-22.5-8.3-50.3 9.6-67.5h-11.1c-15.7 19.5-18.9 47.3-6.2 70.4l2.6.1z"/></g><path class="st5" d="M568.2 432.2L529 504H.2v-71.8z"/><path class="st2" d="M.1 504h872v72H.1z"/><path class="st5" d="M524.6 504l-39.1 71.6H-.1V504z"/><g class="st10"><path class="st16" d="M572.5 532.1s-17.1.4-18.2 16.4c-1.1 16 9 19.7 15.6 20.3 6.6.6 59.8.5 59.8.5s12.5-1.1 14.6-16.9c2-14.8-13-18.5-13-18.5s2.3-14.6-12.8-21.7c-13.6-6.3-24.8 8.3-24.8 8.3s-7.3-5.7-13.9-3.8c-8.7 2.4-7.3 15.4-7.3 15.4zM572.5 532.1s-17.1.4-18.2 16.4c-1.1 16 9 19.7 15.6 20.3 6.6.6 59.8.5 59.8.5s12.5-1.1 14.6-16.9c2-14.8-13-18.5-13-18.5s2.3-14.6-12.8-21.7c-13.6-6.3-24.8 8.3-24.8 8.3s-7.3-5.7-13.9-3.8c-8.7 2.4-7.3 15.4-7.3 15.4z"/></g><path class="st13" d="M597.7 72l-7.2-53.5 84.3-13 25.5 21.1L705 72"/><path class="st1" d="M598.9 57.4l30-4.6.4 2-30.1 4.5zM598.5 51.6l17.2-2.6.4 1.9-17.3 2.7zM597.9 49l9.8-1.6.3 2-9.8 1.5zM597.4 46.3l11.7-1.8.3 1.9-11.7 1.8zM596.9 43.4l13.4-2.1.3 1.9-13.4 2.1zM596.3 40.3l19-2.9.3 1.9-19 3zM595.8 37.4l10.6-1.6.3 2-10.7 1.5zM594 23.8l10.6-1.7.3 2-10.6 1.7zM595.3 33.2l13.7-2.1.3 1.9-13.7 2.1zM594.5 26.8l21.9-3.4.3 1.9-21.9 3.5zM645.8 18.9l24.4-3.8.3 1.9-24.4 3.8zM645.8 30l16.8-2.6.3 1.9-16.8 2.6zM647.9 41.6l16.2-2.5.3 1.9-16.2 2.6zM646.9 35.9l13.4-2 .3 1.9-13.5 2.1zM647.4 38.8l28.8-4.4.3 1.9-28.9 4.5zM646.3 33l19-3 .3 1.9-19.1 3.1zM593.4 20.5l34.8-5.4.3 1.9-34.8 5.5zM599.7 61.9l4.8-.7.4 1.9-4.9.8zM599.7 68.6l12-1.8.4 1.8-12.1 1.9zM625.4 69.5l20.3-3.1.4 1.9-20.3 3.2zM651 65.6l20.4-3.2.3 2.1-20.4 3.1zM651.6 68.8l20.4-3.2.3 2-20.4 3.2zM675.2 65.4l20.6-2.9.3 2-20.6 2.8zM675.8 68.2l20.7-2.8.3 1.9-20.7 2.9zM676.6 72l-.1-.5 20.7-2.9.3 1.9-10.9 1.5zM628.1 72l18.2-2.5.3 2-4.6.6zM607.5 72.1l10.4-1.5.2 1.5zM674.6 61.9l9.3-1.3.4 1.9-9.4 1.4zM651.7 72l20.6-3.2.4 2-9 1.3z"/><path class="st15" d="M704.1 72.1h1.9l-4.7-45.8-26.2-21.7-85.6 13.2 7.3 54.3h2l-.6-4.1L702 51.8l2.1 20.3zM591.6 19.4l83.1-12.8 1.2 10.8-82.8 12.7-1.5-10.7zm1.8 12.9l82.7-13.1 1.2 11 22-3.1 1.2 11.4-104.2 16.3-2.9-22.5zm4.5 33.7l-1.2-9.3 104.1-16.2 1 9.3L597.9 66z"/><path class="st4" d="M.4 143.9h872v72H.4z"/><g class="st3"><path class="st17" d="M853.3 192.1c-.9 7.8-8 13.4-15.9 12.5-7.9-.9-13.5-8-12.5-15.9.9-7.8 8-13.5 15.9-12.5 7.8.9 13.4 8 12.5 15.9zM823.8 169.3l-4-6.8c-15.1 8.7-20.2 28-11.5 43.1l6.8-4c-6.5-11.3-2.6-25.8 8.7-32.3z"/><path class="st7" d="M806.2 152.9l-4-6.8c-22.6 13.1-30.4 42-17.3 64.7l6.8-4c-10.8-18.7-4.4-42.9 14.5-53.9z"/><path class="st14" d="M690.1 216.4c-12.2-22.6-13.3-48.7-4.7-71.6H677c-7.8 23-6.8 48.7 4.2 71.6h8.9zM717.9 214.9c-10.3-22.9-9.8-48.3-.3-70.2H709c-8.7 22.1-9 47.2.3 70.2h8.6z"/><path class="st19" d="M743.9 214.9c-12-22.8-10.3-49.5 2.5-70.2h-9.1c-11.4 21.3-12.8 47.2-2.2 70.2h8.8z"/><path class="st18" d="M763.3 215.2l5.1-3c-13-22.5-8.3-50.3 9.6-67.5h-11.1c-15.7 19.5-18.9 47.3-6.2 70.4l2.6.1z"/></g><path class="st8" d="M568.2 143.9L529 215.6H.2v-71.7z"/><path class="st13" d="M598.8 215.9l-7.2-53.5 84.3-13 25.5 21.1 4.7 45.4"/><path class="st1" d="M599.9 201.2l30.1-4.6.4 1.9-30.2 4.7zM599.6 195.5l17.2-2.7.4 2-17.3 2.6zM599 192.8l9.8-1.5.3 1.9-9.8 1.6zM598.5 190.2l11.7-1.9.3 1.9-11.7 1.8zM598 187.3l13.3-2.2.3 1.9-13.4 2.1zM597.4 184.1l18.9-2.9.3 1.9-18.9 3.1zM596.8 181.2l10.6-1.6.3 1.9-10.6 1.7zM595.1 167.5l10.6-1.6.3 2-10.7 1.6zM596.4 177l13.6-2.1.3 1.9-13.7 2.2zM595.6 170.6l21.8-3.4.3 1.9-21.8 3.5zM646.8 162.8l24.4-3.9.3 1.9-24.4 4zM646.8 173.8l16.8-2.6.3 1.9-16.8 2.7zM648.9 185.4l16.3-2.5.3 1.9-16.3 2.6zM647.9 179.8l13.4-2 .3 1.8-13.4 2.2zM648.4 182.8l28.8-4.6.3 1.9-28.8 4.5zM647.3 176.8l19-3 .3 2-19 3zM594.5 164.3l34.7-5.4.3 1.9-34.7 5.5zM600.7 205.8l4.9-.8.4 1.9-5 .9zM600.7 212.4l12.1-1.9.4 1.9-12.2 2zM626.5 213.4l20.3-3.2.4 1.9-20.4 3.2zM652 209.4l20.4-3.1.3 2-20.3 3.1zM652.6 212.6l20.4-3.2.3 2-20.3 3.1zM676.3 209.2l20.5-2.9.3 2-20.6 2.9zM676.9 212.1l20.6-2.9.3 1.9-20.7 2.9zM677.6 215.9v-.6l20.6-2.9.3 2-10.9 1.5zM629.1 215.9l18.2-2.6.3 2-4.5.6zM608.6 215.9l10.3-1.5.2 1.5zM675.7 205.8l9.3-1.4.3 2-9.3 1.4zM652.8 215.9l20.6-3.3.3 1.9-8.9 1.4z"/><path class="st15" d="M705.1 215.9h1.9l-4.7-45.8-26.2-21.7-85.6 13.2 7.3 54.3h2l-.6-4.1L703 195.6l2.1 20.3zm-112.4-52.7l83.1-12.8 1.2 10.8-82.8 12.7-1.5-10.7zm1.7 12.9l82.7-13.1 1.2 11 22-3.1 1.2 11.4-104.2 16.2-2.9-22.4zm4.6 33.7l-1.2-9.3 104.1-16.2 1 9.3L599 209.8z"/><path class="st13" d="M598.8 504l-7.2-53.5 84.3-13 25.5 21.1 4.7 45.4"/><path class="st1" d="M599.9 489.3l30.1-4.5.4 1.8-30.2 4.7zM599.6 483.5l17.2-2.5.4 1.8-17.3 2.7zM599 481l9.8-1.5.3 1.8-9.8 1.5zM598.5 478.3l11.7-1.8.3 1.8-11.7 1.8zM598 475.5l13.3-2.3.3 1.9-13.4 2.1zM597.4 472.2l18.9-2.9.3 1.9-18.9 3.1zM596.8 469.3l10.6-1.5.3 1.8-10.6 1.7zM595.1 455.6l10.6-1.6.3 2-10.7 1.6zM596.4 465.1L610 463l.3 2-13.7 2.1zM595.6 458.8l21.8-3.5.3 1.9-21.8 3.6zM646.8 450.8l24.4-3.8.3 2-24.4 3.8zM646.8 462l16.8-2.7.3 1.9-16.8 2.8zM648.9 473.5l16.3-2.5.3 2-16.3 2.5zM647.9 468l13.4-2.2.3 2-13.4 2zM648.4 470.8l28.8-4.5.3 1.9-28.8 4.6zM647.3 465l19-3 .3 1.8-19 3.2zM594.5 452.5l34.7-5.5.3 2-34.7 5.5zM600.7 494l4.9-.9.4 1.9-5 .8zM600.7 500.5l12.1-1.9.4 1.9-12.2 2zM626.5 501.5l20.3-3.2.4 1.9-20.4 3.3zM652 497.5l20.4-3 .3 2-20.3 3zM652.6 500.8l20.4-3.3.3 2-20.3 3.1zM676.3 497.3l20.5-2.8.3 2-20.6 2.8zM676.9 500.2l20.6-2.9.3 1.9-20.7 2.9zM677.6 504v-.5l20.6-3 .3 2-10.9 1.5zM629.1 504l18.2-2.5.3 2-4.5.5zM608.6 504l10.3-1.5.2 1.5zM675.7 493.8l9.3-1.3.3 2-9.3 1.3zM652.8 504l20.6-3.2.3 1.8-8.9 1.4z"/><path class="st15" d="M705.1 504h1.9l-4.7-45.8-26.2-21.7-85.6 13.2 7.3 54.3h2l-.6-4.1L703 483.8l2.1 20.2zm-112.4-52.7l83.1-12.8 1.2 10.8-82.9 12.7-1.4-10.7zm1.7 12.9l82.7-13.1 1.2 11 22-3.1 1.2 11.4-104.2 16.2-2.9-22.4zM599 498l-1.2-9.3 104.1-16.2 1 9.3L599 498z"/><path class="st4" d="M.1 71.8h872v72H.1z"/><path class="st14" d="M525.6 126.5h7.5v7.7h-7.5zM548.1 87.9h7.5v7.7h-7.5zM540.6 95.6h7.5v7.7h-7.5zM548.1 103.3h7.5v7.7h-7.5zM540.6 111h7.5v7.7h-7.5zM548.1 118.8h7.5v7.7h-7.5zM533.1 118.8h7.5v7.7h-7.5zM554.7 111h7.5v7.7h-7.5zM563.2 118.8h7.5v7.7h-7.5zM555.7 95.6h7.5v7.7h-7.5zM563.2 103.3h7.5v7.7h-7.5zM570.7 111h7.5v7.7h-7.5zM540.6 126.5h7.5v7.7h-7.5zM533.1 134.9h7.5v7.7h-7.5zM555.7 126.5h7.5v7.7h-7.5zM570.7 126.5h7.5v7.7h-7.5zM578.2 118.8h7.5v7.7h-7.5zM585.7 126.5h7.5v7.7h-7.5zM585.7 111h7.5v7.7h-7.5zM578.2 103.3h7.5v7.7h-7.5zM570.7 95.6h7.5v7.7h-7.5zM563.2 87.9h7.5v7.7h-7.5zM555.7 80.2h7.5v7.7h-7.5zM563.2 72.5h7.5v7.7h-7.5zM570.7 80.2h7.5v7.7h-7.5zM578.2 72.5h7.5v7.7h-7.5zM585.7 80.2h7.5v7.7h-7.5zM578.2 87.9h7.5v7.7h-7.5zM585.7 95.6h7.5v7.7h-7.5zM593.3 72.5h7.5v7.7h-7.5zM600.8 80.2h7.5v7.7h-7.5zM608.3 87.9h7.5v7.7h-7.5zM600.8 95.6h7.5v7.7h-7.5zM608.3 103.3h7.5v7.7h-7.5zM600.8 111h7.5v7.7h-7.5zM608.3 118.8h7.5v7.7h-7.5zM593.3 87.9h7.5v7.7h-7.5zM593.3 103.3h7.5v7.7h-7.5zM593.3 118.8h7.5v7.7h-7.5zM614.8 111h7.5v7.7h-7.5zM623.3 118.8h7.5v7.7h-7.5zM615.8 95.6h7.5v7.7h-7.5zM623.3 103.3h7.5v7.7h-7.5zM630.8 111h7.5v7.7h-7.5zM600.8 126.5h7.5v7.7h-7.5zM615.8 126.5h7.5v7.7h-7.5zM630.8 126.5h7.5v7.7h-7.5zM638.4 118.8h7.5v7.7h-7.5zM645.9 126.5h7.5v7.7h-7.5zM645.9 111h7.5v7.7h-7.5zM638.4 103.3h7.5v7.7h-7.5zM630.8 95.6h7.5v7.7h-7.5zM623.3 87.9h7.5v7.7h-7.5zM615.8 80.2h7.5v7.7h-7.5zM608.3 72.5h7.5v7.7h-7.5zM623.3 72.5h7.5v7.7h-7.5zM630.8 80.2h7.5v7.7h-7.5zM638.4 72.5h7.5v7.7h-7.5zM645.9 80.2h7.5v7.7h-7.5zM638.4 87.9h7.5v7.7h-7.5zM645.9 95.6h7.5v7.7h-7.5zM653.4 72.5h7.5v7.7h-7.5zM660.9 80.2h7.5v7.7h-7.5zM668.5 87.9h7.5v7.7h-7.5zM660.9 95.6h7.5v7.7h-7.5zM668.5 103.3h7.5v7.7h-7.5zM660.9 111h7.5v7.7h-7.5zM668.5 118.8h7.5v7.7h-7.5zM653.4 87.9h7.5v7.7h-7.5zM653.4 103.3h7.5v7.7h-7.5zM653.4 118.8h7.5v7.7h-7.5zM675 111h7.5v7.7H675zM683.5 118.8h7.5v7.7h-7.5zM676 95.6h7.5v7.7H676zM683.5 103.3h7.5v7.7h-7.5zM691 111h7.5v7.7H691zM660.9 126.5h7.5v7.7h-7.5zM676 126.5h7.5v7.7H676zM691 126.5h7.5v7.7H691zM698.5 118.8h7.5v7.7h-7.5zM706 126.5h7.5v7.7H706zM706 111h7.5v7.7H706zM698.5 103.3h7.5v7.7h-7.5zM691 95.6h7.5v7.7H691zM683.5 87.9h7.5v7.7h-7.5zM676 80.2h7.5v7.7H676zM668.5 72.5h7.5v7.7h-7.5zM683.5 72.5h7.5v7.7h-7.5zM691 80.2h7.5v7.7H691zM698.5 72.5h7.5v7.7h-7.5zM706 80.2h7.5v7.7H706zM698.5 87.9h7.5v7.7h-7.5zM706 95.6h7.5v7.7H706zM713.6 72.5h7.5v7.7h-7.5zM721.1 80.2h7.5v7.7h-7.5zM728.6 87.9h7.5v7.7h-7.5zM721.1 95.6h7.5v7.7h-7.5zM728.6 103.3h7.5v7.7h-7.5zM721.1 111h7.5v7.7h-7.5zM728.6 118.8h7.5v7.7h-7.5zM713.6 87.9h7.5v7.7h-7.5zM713.6 103.3h7.5v7.7h-7.5zM713.6 118.8h7.5v7.7h-7.5zM735.1 111h7.5v7.7h-7.5zM743.7 118.8h7.5v7.7h-7.5zM736.1 95.6h7.5v7.7h-7.5zM743.7 103.3h7.5v7.7h-7.5zM751.2 111h7.5v7.7h-7.5zM721.1 126.5h7.5v7.7h-7.5zM736.1 126.5h7.5v7.7h-7.5zM751.2 126.5h7.5v7.7h-7.5zM758.7 118.8h7.5v7.7h-7.5zM766.2 126.5h7.5v7.7h-7.5zM766.2 111h7.5v7.7h-7.5zM758.7 103.3h7.5v7.7h-7.5zM751.2 95.6h7.5v7.7h-7.5zM743.7 87.9h7.5v7.7h-7.5zM736.1 80.2h7.5v7.7h-7.5zM728.6 72.5h7.5v7.7h-7.5zM743.7 72.5h7.5v7.7h-7.5zM751.2 80.2h7.5v7.7h-7.5zM758.7 72.5h7.5v7.7h-7.5zM766.2 80.2h7.5v7.7h-7.5zM758.7 87.9h7.5v7.7h-7.5zM766.2 95.6h7.5v7.7h-7.5zM773.7 72.5h7.5v7.7h-7.5zM781.3 80.2h7.5v7.7h-7.5zM788.8 87.9h7.5v7.7h-7.5zM781.3 95.6h7.5v7.7h-7.5zM788.8 103.3h7.5v7.7h-7.5zM781.3 111h7.5v7.7h-7.5zM788.8 118.8h7.5v7.7h-7.5zM773.7 87.9h7.5v7.7h-7.5zM773.7 103.3h7.5v7.7h-7.5zM773.7 118.8h7.5v7.7h-7.5zM795.3 111h7.5v7.7h-7.5zM803.8 118.8h7.5v7.7h-7.5zM796.3 95.6h7.5v7.7h-7.5zM803.8 103.3h7.5v7.7h-7.5zM811.3 111h7.5v7.7h-7.5zM781.3 126.5h7.5v7.7h-7.5zM796.3 126.5h7.5v7.7h-7.5zM811.3 126.5h7.5v7.7h-7.5zM818.9 118.8h7.5v7.7h-7.5zM826.4 126.5h7.5v7.7h-7.5zM826.4 111h7.5v7.7h-7.5zM818.9 103.3h7.5v7.7h-7.5zM811.3 95.6h7.5v7.7h-7.5zM803.8 87.9h7.5v7.7h-7.5zM796.3 80.2h7.5v7.7h-7.5zM788.8 72.5h7.5v7.7h-7.5zM803.8 72.5h7.5v7.7h-7.5zM811.3 80.2h7.5v7.7h-7.5zM818.9 72.5h7.5v7.7h-7.5zM826.4 80.2h7.5v7.7h-7.5zM818.9 87.9h7.5v7.7h-7.5zM826.4 95.6h7.5v7.7h-7.5zM833.9 87.9h7.5v7.7h-7.5zM833.9 103.3h7.5v7.7h-7.5zM833.9 118.8h7.5v7.7h-7.5zM840.4 111h7.5v7.7h-7.5zM848.9 118.8h7.5v7.7h-7.5zM841.4 95.6h7.5v7.7h-7.5zM848.9 103.3h7.5v7.7h-7.5zM856.5 111h7.5v7.7h-7.5zM841.4 126.5h7.5v7.7h-7.5zM856.5 126.5h7.5v7.7h-7.5zM864 118.8h7.5v7.7H864zM864 103.3h7.5v7.7H864zM856.5 95.6h7.5v7.7h-7.5zM848.9 87.9h7.5v7.7h-7.5zM841.4 80.2h7.5v7.7h-7.5zM833.9 72.5h7.5v7.7h-7.5zM848.9 72.5h7.5v7.7h-7.5zM856.5 80.2h7.5v7.7h-7.5zM864 72.5h7.5v7.7H864zM864 87.9h7.5v7.7H864zM548.1 134.9h7.5v7.7h-7.5zM563.2 134.9h7.5v7.7h-7.5zM578.2 134.9h7.5v7.7h-7.5zM608.3 134.9h7.5v7.7h-7.5zM593.3 134.9h7.5v7.7h-7.5zM623.3 134.9h7.5v7.7h-7.5zM638.4 134.9h7.5v7.7h-7.5zM668.5 134.9h7.5v7.7h-7.5zM653.4 134.9h7.5v7.7h-7.5zM683.5 134.9h7.5v7.7h-7.5zM698.5 134.9h7.5v7.7h-7.5zM728.6 134.9h7.5v7.7h-7.5zM713.6 134.9h7.5v7.7h-7.5zM743.7 134.9h7.5v7.7h-7.5zM758.7 134.9h7.5v7.7h-7.5zM788.8 134.9h7.5v7.7h-7.5zM773.7 134.9h7.5v7.7h-7.5zM803.8 134.9h7.5v7.7h-7.5zM818.9 134.9h7.5v7.7h-7.5zM833.9 134.9h7.5v7.7h-7.5zM848.9 134.9h7.5v7.7h-7.5zM864 134.9h7.5v7.7H864z"/><path class="st8" d="M565.9 71.8l-38.2 71.6H-.1V71.8z"/><path class="st13" d="M595.5 143.8l-7.2-53.6 84.3-13 25.5 21.1 4.7 45.5"/><path class="st1" d="M596.6 129l30.1-4.5.4 1.9L597 131zM596.3 123.3l17.2-2.5.4 1.8-17.3 2.7zM595.7 120.8l9.8-1.7.3 2-9.8 1.5zM595.2 118l11.7-1.8.3 1.9-11.7 1.8zM594.7 115.1L608 113l.4 1.9L595 117zM594.1 112l18.9-2.9.4 1.9-19 3zM593.5 109.1l10.6-1.6.4 1.9-10.7 1.6zM591.8 95.4l10.6-1.6.3 2-10.6 1.6zM593.1 104.8l13.6-2 .4 2-13.7 2zM592.3 98.5l21.8-3.4.4 1.9-21.9 3.5zM643.6 90.5l24.3-3.7.4 2-24.5 3.7zM643.6 101.6l16.7-2.5.4 1.9-16.9 2.6zM645.7 113.3l16.2-2.5.3 2-16.3 2.5zM644.7 107.6l13.3-2 .4 1.9-13.5 2.1zM645.2 110.5l28.7-4.4.4 1.9-28.9 4.5zM644 104.8l19-3 .4 1.8-19.1 3.2zM591.2 92.2l34.7-5.4.4 2-34.8 5.3zM597.4 133.6l4.9-.7.4 1.9-4.9.8zM597.4 140.2l12.1-1.8.4 1.9-12.1 1.9zM623.2 141.2l20.3-3.1.4 1.9-20.4 3.2zM648.8 137.3l20.4-3.2.2 2-20.3 3.1zM649.4 140.4l20.4-3.1.2 2-20.3 3.1zM673 137.1l20.5-2.9.3 2-20.5 2.8zM673.6 139.9l20.7-2.9.2 2-20.7 2.9zM674.4 143.8l-.1-.7 20.6-2.8.3 1.9-10.8 1.6zM625.9 143.8l18.2-2.6.3 2-4.6.6zM605.3 143.8l10.3-1.5.2 1.5zM672.4 133.6l9.3-1.3.3 1.9-9.3 1.4zM649.5 143.8l20.6-3.3.4 1.9-9 1.4z"/><path class="st15" d="M701.8 143.8h1.9L699 97.9l-26.2-21.7-85.6 13.2 7.3 54.3h2l-.6-4.1 103.8-16.2 2.1 20.4zM589.4 91.1l83.1-12.8 1.2 10.8-82.8 12.7-1.5-10.7zm1.8 12.9l82.7-13.1 1.2 11 22-3.1 1.2 11.4-104.2 16.2-2.9-22.4zm4.5 33.6l-1.2-9.3 104.1-16.2 1 9.3-103.9 16.2z"/><path class="st14" d="M638.4 391.6h7.5v7.7h-7.5z"/><path class="st13" d="M595.5 432l-7.2-53.5 84.3-13 25.5 21.1 4.7 45.4"/><path class="st1" d="M596.6 417.3l30.1-4.5.4 2-30.1 4.5zM596.3 411.6l17.2-2.6.4 2-17.3 2.6zM595.7 409l9.8-1.5.3 1.8-9.8 1.5zM595.2 406.3l11.7-1.8.3 2-11.7 1.7zM594.7 403.5l13.3-2.3.4 2-13.4 2.1zM594.1 400.3l18.9-3 .4 2-19 3zM593.5 397.3l10.6-1.5.4 2-10.7 1.5zM591.8 383.8l10.6-1.7.3 1.9-10.6 1.6zM593.1 393.1l13.6-2.1.4 2-13.7 2.1zM592.3 386.8l21.8-3.5.4 2-21.9 3.5zM643.6 378.8l24.3-3.8.4 2-24.5 3.8zM643.6 390l16.7-2.7.4 2-16.9 2.7zM645.7 401.6l16.2-2.6.3 2-16.3 2.5zM644.7 396l13.3-2.2.4 2-13.5 2.2zM645.2 398.8l28.7-4.5.4 2-28.9 4.5zM644 393l19-3 .4 2-19.1 3zM591.2 380.5l34.7-5.5.4 2-34.8 5.5zM597.4 422l4.9-.9.4 2-4.9.9zM597.4 428.5l12.1-1.9.4 2-12.1 1.9zM623.2 429.5l20.3-3.2.4 2-20.4 3.2zM648.8 425.5l20.4-3 .2 2-20.3 3zM649.4 428.8l20.4-3.3.2 2.1-20.3 3.2zM673 425.3l20.5-2.8.3 2-20.5 2.8zM673.6 428.2l20.7-2.9.2 2-20.7 2.9zM674.4 432l-.1-.5 20.6-3 .3 2-10.8 1.5zM625.9 432l18.2-2.5.3 2-4.6.5zM605.3 432l10.3-1.4.2 1.4zM672.4 421.8l9.3-1.3.3 2-9.3 1.3zM649.5 432l20.6-3.2.4 2-9 1.2z"/><path class="st15" d="M701.8 432h1.9l-4.7-45.8-26.2-21.7-85.6 13.2 7.3 54.3h2l-.6-4.1 103.8-16.2 2.1 20.3zm-112.4-52.7l83.1-12.8 1.2 10.8-82.8 12.7-1.5-10.7zm1.8 13l82.7-13.1 1.2 11 22-3.1 1.2 11.4-104.2 16.2-2.9-22.4zm4.5 33.7l-1.2-9.3 104.1-16.2 1 9.3L595.7 426z"/><path class="st13" d="M597.7 360.5l-7.2-53.5 84.3-13 25.5 21 4.7 45.5"/><path class="st1" d="M598.9 345.8l30-4.7.4 2-30.1 4.7zM598.5 340l17.2-2.7.4 1.9-17.3 2.8zM597.9 337.3l9.8-1.5.3 2-9.8 1.4zM597.4 334.8l11.7-2 .3 2-11.7 1.7zM596.9 331.8l13.4-2.2.3 1.9-13.4 2.1zM596.3 328.8l19-3 .3 1.8-19 3.2zM595.8 325.8l10.6-1.7.3 1.9-10.7 1.8zM594 312l10.6-1.5.3 2-10.6 1.5zM595.3 321.5l13.7-2 .3 1.8-13.7 2.2zM594.5 315.2l21.9-3.4.3 1.8-21.9 3.5zM645.8 307.2l24.4-3.7.3 1.8-24.4 3.9zM645.8 318.3l16.8-2.5.3 1.8-16.8 2.7zM647.9 330l16.2-2.5.3 1.8-16.2 2.7zM646.9 324.3l13.4-2.1.3 1.9-13.5 2.1zM647.4 327.2l28.8-4.4.3 1.8-28.9 4.5zM646.3 321.3l19-3 .3 1.9-19.1 3.1zM593.4 308.8l34.8-5.3.3 1.8-34.8 5.5zM599.7 350.3l4.8-.8.4 2-4.9.8zM599.7 357l12-2 .4 2-12.1 2zM625.4 358l20.3-3.2.4 1.8-20.3 3.2zM651 354l20.4-3.2.3 2-20.4 3.2zM651.6 357.1L672 354l.3 2-20.4 3zM675.2 353.8l20.6-3 .3 2-20.6 3zM675.8 356.6l20.7-2.8.3 2-20.7 2.7zM676.6 360.5l-.1-.7 20.7-2.8.3 2-10.9 1.5zM628.1 360.5l18.2-2.7.3 2-4.6.7zM607.5 360.5l10.4-1.5.2 1.5zM674.6 350.2l9.3-1.2.4 2-9.4 1.2zM651.7 360.5l20.6-3.4.4 1.9-9 1.5z"/><path class="st15" d="M704.1 360.5h1.9l-4.7-45.8-26.2-21.7-85.6 13.2 7.3 54.3h2l-.6-4.1L702 340.1l2.1 20.4zm-112.5-52.7l83.1-12.8 1.2 10.8-82.8 12.7-1.5-10.7zm1.8 12.8l82.7-13.1 1.2 11 22-3.1 1.2 11.4L596.4 343l-3-22.4zm4.5 33.7l-1.2-9.3 104.1-16.2 1 9.3-103.9 16.2z"/></svg>