<?xml version="1.0" encoding="utf-8"?>
<!DOCTYPE svg PUBLIC "-//W3C//DTD SVG 1.1//EN" "http://www.w3.org/Graphics/SVG/1.1/DTD/svg11.dtd">
<svg version="1.1" id="Calque_1" xmlns="http://www.w3.org/2000/svg" xmlns:xlink="http://www.w3.org/1999/xlink" x="0px" y="0px"
	 width="872px" height="72px" viewBox="0 0 872 72" enable-background="new 0 0 872 72" xml:space="preserve">
<rect x="0.59" fill="#4E4D4D" width="872" height="72"/>
<polygon opacity="0.75" fill="#5D5D5C" enable-background="new    " points="567.4,0.05 528.5,71.68 0.36,71.68 0.38,0.05 "/>
<g>
	
		<polyline opacity="0.96" fill="#FFFFFF" stroke="#CFCFCF" stroke-width="2" stroke-miterlimit="10" enable-background="new    " points="
		596.99,72 589.74,18.5 674.02,5.5 699.5,26.58 704.24,72 	"/>
	<line fill="none" stroke="#CFCFCF" stroke-width="2" stroke-miterlimit="10" x1="591.56" y1="31.25" x2="686.2" y2="16.49"/>
	<line fill="none" stroke="#E6E6E6" stroke-width="2" stroke-miterlimit="10" x1="592.77" y1="21.4" x2="627.54" y2="15.98"/>
	<line fill="none" stroke="#E6E6E6" stroke-width="2" stroke-miterlimit="10" x1="593.42" y1="24.69" x2="603.99" y2="23.05"/>
	<line fill="none" stroke="#E6E6E6" stroke-width="2" stroke-miterlimit="10" x1="594.65" y1="34.14" x2="608.35" y2="32"/>
	<line fill="none" stroke="#E6E6E6" stroke-width="2" stroke-miterlimit="10" x1="595.16" y1="38.32" x2="605.73" y2="36.67"/>
	<line fill="none" stroke="#E6E6E6" stroke-width="2" stroke-miterlimit="10" x1="595.65" y1="41.28" x2="614.61" y2="38.32"/>
	<line fill="none" stroke="#E6E6E6" stroke-width="2" stroke-miterlimit="10" x1="598.29" y1="58.35" x2="628.31" y2="53.67"/>
	<line fill="none" stroke="#E6E6E6" stroke-width="2" stroke-miterlimit="10" x1="599.03" y1="69.51" x2="611.14" y2="67.62"/>
	<line fill="none" stroke="#E6E6E6" stroke-width="2" stroke-miterlimit="10" x1="624.83" y1="70.46" x2="645.17" y2="67.28"/>
	<line fill="none" stroke="#E6E6E6" stroke-width="2" stroke-miterlimit="10" x1="650.39" y1="66.54" x2="670.72" y2="63.37"/>
	<line fill="none" stroke="#E6E6E6" stroke-width="2" stroke-miterlimit="10" x1="673.94" y1="62.79" x2="683.32" y2="61.46"/>
	<line fill="none" stroke="#E6E6E6" stroke-width="2" stroke-miterlimit="10" x1="674.55" y1="66.28" x2="695.15" y2="63.37"/>
	<line fill="none" stroke="#E6E6E6" stroke-width="2" stroke-miterlimit="10" x1="675.17" y1="69.21" x2="695.88" y2="66.29"/>
	<line fill="none" stroke="#E6E6E6" stroke-width="2" stroke-miterlimit="10" x1="684.64" y1="71.2" x2="696.56" y2="69.51"/>
	<line fill="none" stroke="#E6E6E6" stroke-width="2" stroke-miterlimit="10" x1="650.98" y1="69.71" x2="671.32" y2="66.54"/>
	<line fill="none" stroke="#E6E6E6" stroke-width="2" stroke-miterlimit="10" x1="662.74" y1="71.08" x2="671.78" y2="69.67"/>
	<line fill="none" stroke="#E6E6E6" stroke-width="2" stroke-miterlimit="10" x1="596.21" y1="44.28" x2="609.63" y2="42.19"/>
	<line fill="none" stroke="#E6E6E6" stroke-width="2" stroke-miterlimit="10" x1="596.73" y1="47.21" x2="608.51" y2="45.38"/>
	<line fill="none" stroke="#E6E6E6" stroke-width="2" stroke-miterlimit="10" x1="597.28" y1="49.86" x2="607.14" y2="48.32"/>
	<line fill="none" stroke="#E6E6E6" stroke-width="2" stroke-miterlimit="10" x1="599.03" y1="62.86" x2="603.96" y2="62.09"/>
	<line fill="none" stroke="#E6E6E6" stroke-width="2" stroke-miterlimit="10" x1="645.17" y1="30.92" x2="661.97" y2="28.3"/>
	<line fill="none" stroke="#E6E6E6" stroke-width="2" stroke-miterlimit="10" x1="645.65" y1="33.88" x2="664.62" y2="30.92"/>
	<line fill="none" stroke="#E6E6E6" stroke-width="2" stroke-miterlimit="10" x1="646.22" y1="36.88" x2="659.64" y2="34.78"/>
	<line fill="none" stroke="#E6E6E6" stroke-width="2" stroke-miterlimit="10" x1="646.74" y1="39.81" x2="675.56" y2="35.32"/>
	<line fill="none" stroke="#E6E6E6" stroke-width="2" stroke-miterlimit="10" x1="647.29" y1="42.46" x2="663.39" y2="39.95"/>
	<line fill="none" stroke="#E6E6E6" stroke-width="2" stroke-miterlimit="10" x1="597.87" y1="52.56" x2="615.18" y2="49.86"/>
	<line fill="none" stroke="#E6E6E6" stroke-width="2" stroke-miterlimit="10" x1="593.83" y1="27.68" x2="615.72" y2="24.26"/>
	<line fill="none" stroke="#E6E6E6" stroke-width="2" stroke-miterlimit="10" x1="645.17" y1="19.79" x2="669.56" y2="15.98"/>
	<line fill="none" stroke="#CFCFCF" stroke-width="2" stroke-miterlimit="10" x1="594.65" y1="55.83" x2="700.81" y2="39.28"/>
	<line fill="none" stroke="#CFCFCF" stroke-width="2" stroke-miterlimit="10" x1="595.65" y1="67.17" x2="701.81" y2="50.61"/>
	<g>
		<polygon fill="#CFCFCF" points="700.8,26.23 674.55,4.65 673.94,6.5 676.56,30.12 698.43,27.12 		"/>
	</g>
</g>
<g opacity="0.29">
	<path fill="#3C3C3B" d="M855.77,47.59c-0.94,7.85-8.05,13.52-15.92,12.57c-7.87-0.92-13.5-8.08-12.56-15.97
		c0.93-7.88,8.06-13.52,15.93-12.6C851.08,32.54,856.71,39.69,855.77,47.59z"/>
	<path fill="#3C3C3B" d="M826.18,24.65l-3.97-6.88c-15.12,8.78-20.29,28.17-11.58,43.35l6.85-3.98
		C810.96,45.76,814.85,31.23,826.18,24.65z"/>
	<path opacity="0.75" fill="#3C3C3B" enable-background="new    " d="M808.56,8.31l-3.97-6.88c-22.69,13.18-30.44,42.29-17.35,65.06
		l6.85-3.98C783.19,43.54,789.66,19.28,808.56,8.31z"/>
	<path opacity="0.07" fill="#3C3C3B" enable-background="new    " d="M692.14,72c-12.19-22.73-13.34-49.02-4.7-72h-8.43
		c-7.88,23.12-6.81,49.02,4.23,72H692.14z"/>
	<path opacity="0.15" fill="#3C3C3B" enable-background="new    " d="M720.09,70.58C709.76,47.57,710.2,21.95,719.75,0h-8.58
		c-8.71,22.18-9.06,47.44,0.31,70.58H720.09z"/>
	<path opacity="0.25" fill="#3C3C3B" enable-background="new    " d="M746.12,70.58C734.1,47.62,735.8,20.82,748.61,0h-9.13
		c-11.4,21.33-12.82,47.45-2.19,70.58H746.12z"/>
	<path opacity="0.5" fill="#3C3C3B" enable-background="new    " d="M765.61,70.83l5.12-2.98c-13.01-22.6-8.37-50.56,9.61-67.85
		h-11.17c-15.77,19.61-19,47.55-6.23,70.83L765.61,70.83L765.61,70.83z"/>
</g>
</svg>
