<?xml version="1.0" encoding="utf-8"?>
<!-- Generator: Adobe Illustrator 15.1.0, SVG Export Plug-In . SVG Version: 6.00 Build 0)  -->
<!DOCTYPE svg PUBLIC "-//W3C//DTD SVG 1.1//EN" "http://www.w3.org/Graphics/SVG/1.1/DTD/svg11.dtd">
<svg version="1.1" id="Calque_1" xmlns="http://www.w3.org/2000/svg" xmlns:xlink="http://www.w3.org/1999/xlink" x="0px" y="0px"
	 width="872px" height="72px" viewBox="0 0 872 72" enable-background="new 0 0 872 72" xml:space="preserve">
<rect x="0.591" fill="#4E4D4D" width="872" height="72"/>
<polygon opacity="0.75" fill="#5D5D5C" enable-background="new    " points="525.134,0.05 485.96,71.68 0.362,71.68 0.376,0.05 "/>
<g>
	<polyline opacity="0.96" fill="#FFFFFF" stroke="#CFCFCF" stroke-width="2" stroke-miterlimit="10" points="553.434,72 
		546.184,18.495 630.459,5.497 655.948,26.584 660.684,72 	"/>
	<line fill="#FFFFFF" stroke="#CFCFCF" stroke-width="2" stroke-miterlimit="10" x1="548" y1="31.25" x2="642.639" y2="16.491"/>
	
		<line fill="#FFFFFF" stroke="#E6E6E6" stroke-width="2" stroke-miterlimit="10" x1="549.211" y1="21.404" x2="583.981" y2="15.981"/>
	<line fill="#FFFFFF" stroke="#E6E6E6" stroke-width="2" stroke-miterlimit="10" x1="549.86" y1="24.694" x2="560.43" y2="23.046"/>
	<line fill="#FFFFFF" stroke="#E6E6E6" stroke-width="2" stroke-miterlimit="10" x1="551.091" y1="34.137" x2="564.794" y2="32"/>
	
		<line fill="#FFFFFF" stroke="#E6E6E6" stroke-width="2" stroke-miterlimit="10" x1="551.603" y1="38.32" x2="562.172" y2="36.672"/>
	
		<line fill="#FFFFFF" stroke="#E6E6E6" stroke-width="2" stroke-miterlimit="10" x1="552.091" y1="41.279" x2="571.057" y2="38.32"/>
	
		<line fill="#FFFFFF" stroke="#E6E6E6" stroke-width="2" stroke-miterlimit="10" x1="554.738" y1="58.348" x2="584.756" y2="53.666"/>
	
		<line fill="#FFFFFF" stroke="#E6E6E6" stroke-width="2" stroke-miterlimit="10" x1="555.477" y1="69.51" x2="567.584" y2="67.621"/>
	
		<line fill="#FFFFFF" stroke="#E6E6E6" stroke-width="2" stroke-miterlimit="10" x1="581.271" y1="70.455" x2="601.609" y2="67.281"/>
	
		<line fill="#FFFFFF" stroke="#E6E6E6" stroke-width="2" stroke-miterlimit="10" x1="606.829" y1="66.539" x2="627.167" y2="63.365"/>
	
		<line fill="#FFFFFF" stroke="#E6E6E6" stroke-width="2" stroke-miterlimit="10" x1="630.381" y1="62.789" x2="639.761" y2="61.463"/>
	
		<line fill="#FFFFFF" stroke="#E6E6E6" stroke-width="2" stroke-miterlimit="10" x1="630.991" y1="66.279" x2="651.593" y2="63.365"/>
	
		<line fill="#FFFFFF" stroke="#E6E6E6" stroke-width="2" stroke-miterlimit="10" x1="631.609" y1="69.215" x2="652.32" y2="66.285"/>
	<line fill="#FFFFFF" stroke="#E6E6E6" stroke-width="2" stroke-miterlimit="10" x1="641.088" y1="71.195" x2="653" y2="69.51"/>
	
		<line fill="#FFFFFF" stroke="#E6E6E6" stroke-width="2" stroke-miterlimit="10" x1="607.423" y1="69.711" x2="627.761" y2="66.539"/>
	
		<line fill="#FFFFFF" stroke="#E6E6E6" stroke-width="2" stroke-miterlimit="10" x1="619.18" y1="71.078" x2="628.219" y2="69.668"/>
	
		<line fill="#FFFFFF" stroke="#E6E6E6" stroke-width="2" stroke-miterlimit="10" x1="552.658" y1="44.277" x2="566.077" y2="42.186"/>
	
		<line fill="#FFFFFF" stroke="#E6E6E6" stroke-width="2" stroke-miterlimit="10" x1="553.177" y1="47.215" x2="564.957" y2="45.377"/>
	
		<line fill="#FFFFFF" stroke="#E6E6E6" stroke-width="2" stroke-miterlimit="10" x1="553.721" y1="49.859" x2="563.584" y2="48.322"/>
	
		<line fill="#FFFFFF" stroke="#E6E6E6" stroke-width="2" stroke-miterlimit="10" x1="555.477" y1="62.855" x2="560.408" y2="62.088"/>
	
		<line fill="#FFFFFF" stroke="#E6E6E6" stroke-width="2" stroke-miterlimit="10" x1="601.609" y1="30.918" x2="618.418" y2="28.297"/>
	
		<line fill="#FFFFFF" stroke="#E6E6E6" stroke-width="2" stroke-miterlimit="10" x1="602.098" y1="33.876" x2="621.063" y2="30.918"/>
	
		<line fill="#FFFFFF" stroke="#E6E6E6" stroke-width="2" stroke-miterlimit="10" x1="602.665" y1="36.875" x2="616.084" y2="34.783"/>
	
		<line fill="#FFFFFF" stroke="#E6E6E6" stroke-width="2" stroke-miterlimit="10" x1="603.184" y1="39.812" x2="632.001" y2="35.318"/>
	
		<line fill="#FFFFFF" stroke="#E6E6E6" stroke-width="2" stroke-miterlimit="10" x1="603.728" y1="42.457" x2="619.834" y2="39.945"/>
	
		<line fill="#FFFFFF" stroke="#E6E6E6" stroke-width="2" stroke-miterlimit="10" x1="554.314" y1="52.559" x2="571.624" y2="49.859"/>
	
		<line fill="#FFFFFF" stroke="#E6E6E6" stroke-width="2" stroke-miterlimit="10" x1="550.269" y1="27.678" x2="572.168" y2="24.262"/>
	
		<line fill="#FFFFFF" stroke="#E6E6E6" stroke-width="2" stroke-miterlimit="10" x1="601.609" y1="19.786" x2="626.001" y2="15.981"/>
	
		<line fill="#FFFFFF" stroke="#CFCFCF" stroke-width="2" stroke-miterlimit="10" x1="551.091" y1="55.832" x2="657.253" y2="39.275"/>
	
		<line fill="#FFFFFF" stroke="#CFCFCF" stroke-width="2" stroke-miterlimit="10" x1="552.091" y1="67.17" x2="658.253" y2="50.613"/>
	<g>
		<polygon fill="#CFCFCF" points="657.245,26.225 630.991,4.648 630.381,6.5 633,30.125 654.875,27.125 		"/>
	</g>
</g>
</svg>
