<?xml version="1.0" encoding="utf-8"?>
<!DOCTYPE svg PUBLIC "-//W3C//DTD SVG 1.1//EN" "http://www.w3.org/Graphics/SVG/1.1/DTD/svg11.dtd">
<svg version="1.1" id="Calque_1" xmlns="http://www.w3.org/2000/svg" xmlns:xlink="http://www.w3.org/1999/xlink" x="0px" y="0px"
	 width="872px" height="719.9px" viewBox="0 0 872 719.9" style="enable-background:new 0 0 872 719.9;" xml:space="preserve">
<style type="text/css"><![CDATA[
	.st0{opacity:0.13;fill:none;stroke:#010202;stroke-width:2;enable-background:new;}
	.st1{fill:#E6E6E6;}	.st2{fill:#4E4D4D;}	.st3{opacity:0.18;}	.st4{fill:#EECDAE;}
	.st5{opacity:0.75;fill:#5E5E5D;enable-background:new;}	.st6{fill:#535252;}
	.st7{opacity:0.75;fill:#3D3D3C;enable-background:new;}	.st8{fill:#F2DAC3;}
	.st9{opacity:0.13;fill:none;stroke:#010202;stroke-width:0.75;enable-background:new;}
	.st10{opacity:0.8;enable-background:new;}
	.st11{opacity:0.13;fill:#3D3D3C;stroke:#010202;stroke-width:2;enable-background:new;}
	.st12{opacity:0.5;}	.st13{fill:#FFFFFF;} .st17{fill:#3D3D3C;}
	.st14{opacity:0.1;fill:#3D3D3C;enable-background:new;}	.st15{fill:#CFCFCF;}
	.st16{fill:#FFFFFF;stroke:#CFCFCF;stroke-width:2;stroke-miterlimit:10;}
	.st18{opacity:0.5;fill:#3D3D3C;enable-background:new;}
	.st19{opacity:0.25;fill:#3D3D3C;enable-background:new;}
]]></style>
<rect x="0.2" y="72" class="st4" width="872" height="72"/>
<rect x="817" y="85.6" transform="matrix(1 4.715340e-03 -4.715340e-03 1 0.4198 -3.8583)" class="st11" width="2.9" height="3"/>
<rect x="804.4" y="110.7" transform="matrix(1 4.041732e-03 -4.041732e-03 1 0.4601 -3.2561)" class="st11" width="2.9" height="3"/>
<rect x="797.4" y="95.4" transform="matrix(1 4.715340e-03 -4.715340e-03 1 0.4658 -3.7658)" class="st11" width="2.9" height="3"/>
<rect x="859.3" y="104.6" transform="matrix(1 4.713753e-03 -4.713753e-03 1 0.5096 -4.0562)" class="st11" width="2.9" height="3"/>
<rect x="838.9" y="110.9" transform="matrix(1 5.387127e-03 -5.387127e-03 1 0.6177 -4.5255)" class="st11" width="2.9" height="3"/>
<rect x="721.7" y="123" transform="matrix(1 4.719999e-03 -4.719999e-03 1 0.5957 -3.4122)" class="st11" width="3" height="3"/>
<rect x="759.3" y="109.3" transform="matrix(1 4.713753e-03 -4.713753e-03 1 0.5307 -3.5848)" class="st11" width="2.9" height="3"/>
<rect x="741.5" y="101.3" transform="matrix(1 5.208263e-03 -5.208263e-03 1 0.5455 -3.8684)" class="st11" width="3" height="3"/>
<rect x="771.3" y="75.8" transform="matrix(1 4.713753e-03 -4.713753e-03 1 0.3729 -3.6417)" class="st11" width="2.9" height="3"/>
<rect x="688.1" y="87.1" transform="matrix(1 4.719999e-03 -4.719999e-03 1 0.4259 -3.254)" class="st11" width="3" height="3"/>
<rect x="620" y="113.8" transform="matrix(1 4.713753e-03 -4.713753e-03 1 0.5504 -2.9281)" class="st11" width="2.9" height="3"/>
<rect x="607.4" y="79.1" transform="matrix(1 5.050441e-03 -5.050441e-03 1 0.4148 -3.074)" class="st11" width="2.9" height="3"/>
<rect x="573.3" y="120.1" transform="matrix(1 4.713753e-03 -4.713753e-03 1 0.5795 -2.7079)" class="st11" width="2.9" height="3"/>
<rect x="545.8" y="88.5" transform="matrix(1 5.050441e-03 -5.050441e-03 1 0.4615 -2.7627)" class="st11" width="2.9" height="3"/>
<rect x="534.3" y="123.8" transform="matrix(1 4.546938e-03 -4.546938e-03 1 0.5753 -2.4348)" class="st11" width="2.9" height="3"/>
<rect x="560" y="102.7" transform="matrix(1 5.045509e-03 -5.045509e-03 1 0.5329 -2.8318)" class="st11" width="3" height="3"/>
<rect x="652" y="79.1" transform="matrix(1 5.050441e-03 -5.050441e-03 1 0.4154 -3.2992)" class="st11" width="2.9" height="3"/>
<rect x="702.3" y="132.7" transform="matrix(1 5.208263e-03 -5.208263e-03 1 0.7086 -3.6638)" class="st11" width="3" height="3"/>
<polyline class="st0" points="543.3,113.7 548.2,116.2 598.7,112.2 620,87 669.1,93.5 688.7,71.7 "/>
<polyline class="st0" points="620,142.7 652,110.8 741,113.8 760.3,127.3 798.8,71.7 "/>
<polyline class="st0" points="871.6,135.7 832.6,89.3 817.5,129.7 778.3,127.3 767.3,142.7 "/>
<rect x="656.8" y="123" transform="matrix(1 5.387127e-03 -5.387127e-03 1 0.6802 -3.5443)" class="st11" width="2.9" height="3"/>
<rect x="707.9" y="80.5" transform="matrix(1 4.377062e-03 -4.377062e-03 1 0.3658 -3.1041)" class="st11" width="2.9" height="3"/>
<polygon class="st8" points="566.5,72 527.6,143.7 0,143.7 0,72 "/>
<rect x="0.1" y="287.6" class="st4" width="872" height="72"/>
<polygon class="st8" points="524.6,287.6 485.5,359.3 -0.1,359.3 -0.1,287.6 "/>
<g class="st10">
	<g>
		<path class="st16" d="M572.5,315.8c0,0-17.1,0.4-18.2,16.4c-1.1,16,9,19.7,15.6,20.3c6.6,0.6,59.8,0.5,59.8,0.5
			s12.5-1.1,14.6-16.9c2-14.8-13-18.5-13-18.5s2.3-14.6-12.8-21.7c-13.6-6.3-24.8,8.3-24.8,8.3s-7.3-5.7-13.9-3.8
			C571.1,302.8,572.5,315.8,572.5,315.8z"/>
		<path class="st16" d="M572.5,315.8c0,0-17.1,0.4-18.2,16.4c-1.1,16,9,19.7,15.6,20.3c6.6,0.6,59.8,0.5,59.8,0.5
			s12.5-1.1,14.6-16.9c2-14.8-13-18.5-13-18.5s2.3-14.6-12.8-21.7c-13.6-6.3-24.8,8.3-24.8,8.3s-7.3-5.7-13.9-3.8
			C571.1,302.8,572.5,315.8,572.5,315.8z"/>
	</g>
</g>
<rect x="0.2" y="432.3" class="st2" width="872" height="72"/>
<rect x="817" y="445.9" transform="matrix(1 4.715340e-03 -4.715340e-03 1 2.1188 -3.8543)" class="st11" width="2.9" height="3"/>
<rect x="804.4" y="471.1" transform="matrix(1 4.040371e-03 -4.040371e-03 1 1.9161 -3.2521)" class="st11" width="2.9" height="3"/>
<rect x="797.4" y="455.7" transform="matrix(1 4.713753e-03 -4.713753e-03 1 2.164 -3.7606)" class="st11" width="2.9" height="3"/>
<rect x="859.3" y="464.9" transform="matrix(1 4.713753e-03 -4.713753e-03 1 2.208 -4.0522)" class="st11" width="2.9" height="3"/>
<rect x="838.9" y="471.2" transform="matrix(1 5.387127e-03 -5.387127e-03 1 2.5587 -4.5203)" class="st11" width="2.9" height="3"/>
<rect x="721.7" y="483.3" transform="matrix(1 4.557244e-03 -4.557244e-03 1 2.2169 -3.2908)" class="st11" width="3" height="3"/>
<rect x="759.3" y="469.6" transform="matrix(1 4.713753e-03 -4.713753e-03 1 2.2291 -3.5808)" class="st11" width="2.9" height="3"/>
<rect x="741.5" y="461.6" transform="matrix(1 5.208263e-03 -5.208263e-03 1 2.4221 -3.8635)" class="st11" width="3" height="3"/>
<rect x="771.3" y="436.1" transform="matrix(1 4.713753e-03 -4.713753e-03 1 2.0713 -3.6378)" class="st11" width="2.9" height="3"/>
<rect x="688.1" y="447.4" transform="matrix(1 4.557244e-03 -4.557244e-03 1 2.0529 -3.138)" class="st11" width="3" height="3"/>
<rect x="620" y="474.1" transform="matrix(1 4.713753e-03 -4.713753e-03 1 2.2488 -2.9241)" class="st11" width="2.9" height="3"/>
<rect x="607.4" y="439.4" transform="matrix(1 5.387127e-03 -5.387127e-03 1 2.384 -3.2736)" class="st11" width="2.9" height="3"/>
<rect x="573.3" y="480.4" transform="matrix(1 4.713753e-03 -4.713753e-03 1 2.2779 -2.7039)" class="st11" width="2.9" height="3"/>
<rect x="545.8" y="448.8" transform="matrix(1 5.388942e-03 -5.388942e-03 1 2.4346 -2.9426)" class="st11" width="2.9" height="3"/>
<rect x="534.3" y="484.1" transform="matrix(1 4.715340e-03 -4.715340e-03 1 2.2958 -2.5209)" class="st11" width="2.9" height="3"/>
<rect x="560" y="463" transform="matrix(1 5.208263e-03 -5.208263e-03 1 2.4269 -2.9182)" class="st11" width="3" height="3"/>
<rect x="652" y="439.4" transform="matrix(1 5.387127e-03 -5.387127e-03 1 2.3846 -3.5139)" class="st11" width="2.9" height="3"/>
<rect x="702.3" y="493" transform="matrix(1 5.208263e-03 -5.208263e-03 1 2.5851 -3.6589)" class="st11" width="3" height="3"/>
<polyline class="st0" points="543.3,474 548.2,476.5 598.7,472.5 620,447.3 669.1,453.8 688.7,432 "/>
<polyline class="st0" points="620,503 652,471.1 741,474.1 760.3,487.6 798.8,432 "/>
<polyline class="st0" points="871.6,496 832.6,449.6 817.5,490 778.3,487.6 767.3,503 "/>
<path class="st9" d="M729.3,433.4"/>
<rect x="656.8" y="483.3" transform="matrix(1 5.387127e-03 -5.387127e-03 1 2.6213 -3.5391)" class="st11" width="2.9" height="3"/>
<rect x="707.9" y="440.8" transform="matrix(1 4.041732e-03 -4.041732e-03 1 1.7935 -2.8634)" class="st11" width="2.9" height="3"/>
<polygon class="st5" points="566.5,432.3 527.6,504 0,504 0,432.3 "/>
<rect x="0.1" y="504" class="st2" width="872" height="72"/>
<rect x="525.6" y="558.8" class="st6" width="7.5" height="7.7"/>
<rect x="548.1" y="520.2" class="st6" width="7.5" height="7.7"/>
<rect x="540.6" y="527.9" class="st6" width="7.5" height="7.7"/>
<rect x="548.1" y="535.6" class="st6" width="7.5" height="7.7"/>
<rect x="540.6" y="543.3" class="st6" width="7.5" height="7.7"/>
<rect x="548.1" y="551.1" class="st6" width="7.5" height="7.7"/>
<rect x="533.1" y="551.1" class="st6" width="7.5" height="7.7"/>
<rect x="554.7" y="543.3" class="st6" width="7.5" height="7.7"/>
<rect x="563.2" y="551.1" class="st6" width="7.5" height="7.7"/>
<rect x="555.7" y="527.9" class="st6" width="7.5" height="7.7"/>
<rect x="563.2" y="535.6" class="st6" width="7.5" height="7.7"/>
<rect x="570.7" y="543.3" class="st6" width="7.5" height="7.7"/>
<rect x="540.6" y="558.8" class="st6" width="7.5" height="7.7"/>
<rect x="533.1" y="567.2" class="st6" width="7.5" height="7.7"/>
<rect x="555.7" y="558.8" class="st6" width="7.5" height="7.7"/>
<rect x="570.7" y="558.8" class="st6" width="7.5" height="7.7"/>
<rect x="578.2" y="551.1" class="st6" width="7.5" height="7.7"/>
<rect x="585.7" y="558.8" class="st6" width="7.5" height="7.7"/>
<rect x="585.7" y="543.3" class="st6" width="7.5" height="7.7"/>
<rect x="578.2" y="535.6" class="st6" width="7.5" height="7.7"/>
<rect x="570.7" y="527.9" class="st6" width="7.5" height="7.7"/>
<rect x="563.2" y="520.2" class="st6" width="7.5" height="7.7"/>
<rect x="555.7" y="512.5" class="st6" width="7.5" height="7.7"/>
<rect x="563.2" y="504.8" class="st6" width="7.5" height="7.7"/>
<rect x="570.7" y="512.5" class="st6" width="7.5" height="7.7"/>
<rect x="578.2" y="504.8" class="st6" width="7.5" height="7.7"/>
<rect x="585.7" y="512.5" class="st6" width="7.5" height="7.7"/>
<rect x="578.2" y="520.2" class="st6" width="7.5" height="7.7"/>
<rect x="585.7" y="527.9" class="st6" width="7.5" height="7.7"/>
<rect x="593.3" y="504.8" class="st6" width="7.5" height="7.7"/>
<rect x="600.8" y="512.5" class="st6" width="7.5" height="7.7"/>
<rect x="608.3" y="520.2" class="st6" width="7.5" height="7.7"/>
<rect x="600.8" y="527.9" class="st6" width="7.5" height="7.7"/>
<rect x="608.3" y="535.6" class="st6" width="7.5" height="7.7"/>
<rect x="600.8" y="543.3" class="st6" width="7.5" height="7.7"/>
<rect x="608.3" y="551.1" class="st6" width="7.5" height="7.7"/>
<rect x="593.3" y="520.2" class="st6" width="7.5" height="7.7"/>
<rect x="593.3" y="535.6" class="st6" width="7.5" height="7.7"/>
<rect x="593.3" y="551.1" class="st6" width="7.5" height="7.7"/>
<rect x="614.8" y="543.3" class="st6" width="7.5" height="7.7"/>
<rect x="623.3" y="551.1" class="st6" width="7.5" height="7.7"/>
<rect x="615.8" y="527.9" class="st6" width="7.5" height="7.7"/>
<rect x="623.3" y="535.6" class="st6" width="7.5" height="7.7"/>
<rect x="630.8" y="543.3" class="st6" width="7.5" height="7.7"/>
<rect x="600.8" y="558.8" class="st6" width="7.5" height="7.7"/>
<rect x="615.8" y="558.8" class="st6" width="7.5" height="7.7"/>
<rect x="630.8" y="558.8" class="st6" width="7.5" height="7.7"/>
<rect x="638.4" y="551.1" class="st6" width="7.5" height="7.7"/>
<rect x="645.9" y="558.8" class="st6" width="7.5" height="7.7"/>
<rect x="645.9" y="543.3" class="st6" width="7.5" height="7.7"/>
<rect x="638.4" y="535.6" class="st6" width="7.5" height="7.7"/>
<rect x="630.8" y="527.9" class="st6" width="7.5" height="7.7"/>
<rect x="623.3" y="520.2" class="st6" width="7.5" height="7.7"/>
<rect x="615.8" y="512.5" class="st6" width="7.5" height="7.7"/>
<rect x="608.3" y="504.8" class="st6" width="7.5" height="7.7"/>
<rect x="623.3" y="504.8" class="st6" width="7.5" height="7.7"/>
<rect x="630.8" y="512.5" class="st6" width="7.5" height="7.7"/>
<rect x="638.4" y="504.8" class="st6" width="7.5" height="7.7"/>
<rect x="645.9" y="512.5" class="st6" width="7.5" height="7.7"/>
<rect x="638.4" y="520.2" class="st6" width="7.5" height="7.7"/>
<rect x="645.9" y="527.9" class="st6" width="7.5" height="7.7"/>
<rect x="653.4" y="504.8" class="st6" width="7.5" height="7.7"/>
<rect x="660.9" y="512.5" class="st6" width="7.5" height="7.7"/>
<rect x="668.5" y="520.2" class="st6" width="7.5" height="7.7"/>
<rect x="660.9" y="527.9" class="st6" width="7.5" height="7.7"/>
<rect x="668.5" y="535.6" class="st6" width="7.5" height="7.7"/>
<rect x="660.9" y="543.3" class="st6" width="7.5" height="7.7"/>
<rect x="668.5" y="551.1" class="st6" width="7.5" height="7.7"/>
<rect x="653.4" y="520.2" class="st6" width="7.5" height="7.7"/>
<rect x="653.4" y="535.6" class="st6" width="7.5" height="7.7"/>
<rect x="653.4" y="551.1" class="st6" width="7.5" height="7.7"/>
<rect x="675" y="543.3" class="st6" width="7.5" height="7.7"/>
<rect x="683.5" y="551.1" class="st6" width="7.5" height="7.7"/>
<rect x="676" y="527.9" class="st6" width="7.5" height="7.7"/>
<rect x="683.5" y="535.6" class="st6" width="7.5" height="7.7"/>
<rect x="691" y="543.3" class="st6" width="7.5" height="7.7"/>
<rect x="660.9" y="558.8" class="st6" width="7.5" height="7.7"/>
<rect x="676" y="558.8" class="st6" width="7.5" height="7.7"/>
<rect x="691" y="558.8" class="st6" width="7.5" height="7.7"/>
<rect x="698.5" y="551.1" class="st6" width="7.5" height="7.7"/>
<rect x="706" y="558.8" class="st6" width="7.5" height="7.7"/>
<rect x="706" y="543.3" class="st6" width="7.5" height="7.7"/>
<rect x="698.5" y="535.6" class="st6" width="7.5" height="7.7"/>
<rect x="691" y="527.9" class="st6" width="7.5" height="7.7"/>
<rect x="683.5" y="520.2" class="st6" width="7.5" height="7.7"/>
<rect x="676" y="512.5" class="st6" width="7.5" height="7.7"/>
<rect x="668.5" y="504.8" class="st6" width="7.5" height="7.7"/>
<rect x="683.5" y="504.8" class="st6" width="7.5" height="7.7"/>
<rect x="691" y="512.5" class="st6" width="7.5" height="7.7"/>
<rect x="698.5" y="504.8" class="st6" width="7.5" height="7.7"/>
<rect x="706" y="512.5" class="st6" width="7.5" height="7.7"/>
<rect x="698.5" y="520.2" class="st6" width="7.5" height="7.7"/>
<rect x="706" y="527.9" class="st6" width="7.5" height="7.7"/>
<rect x="713.6" y="504.8" class="st6" width="7.5" height="7.7"/>
<rect x="721.1" y="512.5" class="st6" width="7.5" height="7.7"/>
<rect x="728.6" y="520.2" class="st6" width="7.5" height="7.7"/>
<rect x="721.1" y="527.9" class="st6" width="7.5" height="7.7"/>
<rect x="728.6" y="535.6" class="st6" width="7.5" height="7.7"/>
<rect x="721.1" y="543.3" class="st6" width="7.5" height="7.7"/>
<rect x="728.6" y="551.1" class="st6" width="7.5" height="7.7"/>
<rect x="713.6" y="520.2" class="st6" width="7.5" height="7.7"/>
<rect x="713.6" y="535.6" class="st6" width="7.5" height="7.7"/>
<rect x="713.6" y="551.1" class="st6" width="7.5" height="7.7"/>
<rect x="735.1" y="543.3" class="st6" width="7.5" height="7.7"/>
<rect x="743.7" y="551.1" class="st6" width="7.5" height="7.7"/>
<rect x="736.1" y="527.9" class="st6" width="7.5" height="7.7"/>
<rect x="743.7" y="535.6" class="st6" width="7.5" height="7.7"/>
<rect x="751.2" y="543.3" class="st6" width="7.5" height="7.7"/>
<rect x="721.1" y="558.8" class="st6" width="7.5" height="7.7"/>
<rect x="736.1" y="558.8" class="st6" width="7.5" height="7.7"/>
<rect x="751.2" y="558.8" class="st6" width="7.5" height="7.7"/>
<rect x="758.7" y="551.1" class="st6" width="7.5" height="7.7"/>
<rect x="766.2" y="558.8" class="st6" width="7.5" height="7.7"/>
<rect x="766.2" y="543.3" class="st6" width="7.5" height="7.7"/>
<rect x="758.7" y="535.6" class="st6" width="7.5" height="7.7"/>
<rect x="751.2" y="527.9" class="st6" width="7.5" height="7.7"/>
<rect x="743.7" y="520.2" class="st6" width="7.5" height="7.7"/>
<rect x="736.1" y="512.5" class="st6" width="7.5" height="7.7"/>
<rect x="728.6" y="504.8" class="st6" width="7.5" height="7.7"/>
<rect x="743.7" y="504.8" class="st6" width="7.5" height="7.7"/>
<rect x="751.2" y="512.5" class="st6" width="7.5" height="7.7"/>
<rect x="758.7" y="504.8" class="st6" width="7.5" height="7.7"/>
<rect x="766.2" y="512.5" class="st6" width="7.5" height="7.7"/>
<rect x="758.7" y="520.2" class="st6" width="7.5" height="7.7"/>
<rect x="766.2" y="527.9" class="st6" width="7.5" height="7.7"/>
<rect x="773.7" y="504.8" class="st6" width="7.5" height="7.7"/>
<rect x="781.3" y="512.5" class="st6" width="7.5" height="7.7"/>
<rect x="788.8" y="520.2" class="st6" width="7.5" height="7.7"/>
<rect x="781.3" y="527.9" class="st6" width="7.5" height="7.7"/>
<rect x="788.8" y="535.6" class="st6" width="7.5" height="7.7"/>
<rect x="781.3" y="543.3" class="st6" width="7.5" height="7.7"/>
<rect x="788.8" y="551.1" class="st6" width="7.5" height="7.7"/>
<rect x="773.7" y="520.2" class="st6" width="7.5" height="7.7"/>
<rect x="773.7" y="535.6" class="st6" width="7.5" height="7.7"/>
<rect x="773.7" y="551.1" class="st6" width="7.5" height="7.7"/>
<rect x="795.3" y="543.3" class="st6" width="7.5" height="7.7"/>
<rect x="803.8" y="551.1" class="st6" width="7.5" height="7.7"/>
<rect x="796.3" y="527.9" class="st6" width="7.5" height="7.7"/>
<rect x="803.8" y="535.6" class="st6" width="7.5" height="7.7"/>
<rect x="811.3" y="543.3" class="st6" width="7.5" height="7.7"/>
<rect x="781.3" y="558.8" class="st6" width="7.5" height="7.7"/>
<rect x="796.3" y="558.8" class="st6" width="7.5" height="7.7"/>
<rect x="811.3" y="558.8" class="st6" width="7.5" height="7.7"/>
<rect x="818.9" y="551.1" class="st6" width="7.5" height="7.7"/>
<rect x="826.4" y="558.8" class="st6" width="7.5" height="7.7"/>
<rect x="826.4" y="543.3" class="st6" width="7.5" height="7.7"/>
<rect x="818.9" y="535.6" class="st6" width="7.5" height="7.7"/>
<rect x="811.3" y="527.9" class="st6" width="7.5" height="7.7"/>
<rect x="803.8" y="520.2" class="st6" width="7.5" height="7.7"/>
<rect x="796.3" y="512.5" class="st6" width="7.5" height="7.7"/>
<rect x="788.8" y="504.8" class="st6" width="7.5" height="7.7"/>
<rect x="803.8" y="504.8" class="st6" width="7.5" height="7.7"/>
<rect x="811.3" y="512.5" class="st6" width="7.5" height="7.7"/>
<rect x="818.9" y="504.8" class="st6" width="7.5" height="7.7"/>
<rect x="826.4" y="512.5" class="st6" width="7.5" height="7.7"/>
<rect x="818.9" y="520.2" class="st6" width="7.5" height="7.7"/>
<rect x="826.4" y="527.9" class="st6" width="7.5" height="7.7"/>
<rect x="833.9" y="520.2" class="st6" width="7.5" height="7.7"/>
<rect x="833.9" y="535.6" class="st6" width="7.5" height="7.7"/>
<rect x="833.9" y="551.1" class="st6" width="7.5" height="7.7"/>
<rect x="840.4" y="543.3" class="st6" width="7.5" height="7.7"/>
<rect x="848.9" y="551.1" class="st6" width="7.5" height="7.7"/>
<rect x="841.4" y="527.9" class="st6" width="7.5" height="7.7"/>
<rect x="848.9" y="535.6" class="st6" width="7.5" height="7.7"/>
<rect x="856.5" y="543.3" class="st6" width="7.5" height="7.7"/>
<rect x="841.4" y="558.8" class="st6" width="7.5" height="7.7"/>
<rect x="856.5" y="558.8" class="st6" width="7.5" height="7.7"/>
<rect x="864" y="551.1" class="st6" width="7.5" height="7.7"/>
<rect x="864" y="535.6" class="st6" width="7.5" height="7.7"/>
<rect x="856.5" y="527.9" class="st6" width="7.5" height="7.7"/>
<rect x="848.9" y="520.2" class="st6" width="7.5" height="7.7"/>
<rect x="841.4" y="512.5" class="st6" width="7.5" height="7.7"/>
<rect x="833.9" y="504.8" class="st6" width="7.5" height="7.7"/>
<rect x="848.9" y="504.8" class="st6" width="7.5" height="7.7"/>
<rect x="856.5" y="512.5" class="st6" width="7.5" height="7.7"/>
<rect x="864" y="504.8" class="st6" width="7.5" height="7.7"/>
<rect x="864" y="520.2" class="st6" width="7.5" height="7.7"/>
<rect x="548.1" y="567.2" class="st6" width="7.5" height="7.7"/>
<rect x="563.2" y="567.2" class="st6" width="7.5" height="7.7"/>
<rect x="578.2" y="567.2" class="st6" width="7.5" height="7.7"/>
<rect x="608.3" y="567.2" class="st6" width="7.5" height="7.7"/>
<rect x="593.3" y="567.2" class="st6" width="7.5" height="7.7"/>
<rect x="623.3" y="567.2" class="st6" width="7.5" height="7.7"/>
<rect x="638.4" y="567.2" class="st6" width="7.5" height="7.7"/>
<rect x="668.5" y="567.2" class="st6" width="7.5" height="7.7"/>
<rect x="653.4" y="567.2" class="st6" width="7.5" height="7.7"/>
<rect x="683.5" y="567.2" class="st6" width="7.5" height="7.7"/>
<rect x="698.5" y="567.2" class="st6" width="7.5" height="7.7"/>
<rect x="728.6" y="567.2" class="st6" width="7.5" height="7.7"/>
<rect x="713.6" y="567.2" class="st6" width="7.5" height="7.7"/>
<rect x="743.7" y="567.2" class="st6" width="7.5" height="7.7"/>
<rect x="758.7" y="567.2" class="st6" width="7.5" height="7.7"/>
<rect x="788.8" y="567.2" class="st6" width="7.5" height="7.7"/>
<rect x="773.7" y="567.2" class="st6" width="7.5" height="7.7"/>
<rect x="803.8" y="567.2" class="st6" width="7.5" height="7.7"/>
<rect x="818.9" y="567.2" class="st6" width="7.5" height="7.7"/>
<rect x="833.9" y="567.2" class="st6" width="7.5" height="7.7"/>
<rect x="848.9" y="567.2" class="st6" width="7.5" height="7.7"/>
<rect x="864" y="567.2" class="st6" width="7.5" height="7.7"/>
<polygon class="st5" points="565.9,504 527.7,575.7 -0.1,575.7 -0.1,504 "/>
<rect x="0.4" y="576.2" class="st2" width="872" height="72"/>
<g class="st12">
	<path class="st17" d="M853.3,624.4c-0.9,7.8-8,13.4-15.9,12.5c-7.9-0.9-13.5-8-12.5-15.9c0.9-7.8,8-13.5,15.9-12.5
		C848.6,609.4,854.2,616.5,853.3,624.4z"/>
	<path class="st17" d="M823.8,601.6l-4-6.8c-15.1,8.7-20.2,28-11.5,43.1l6.8-4C808.6,622.6,812.5,608.1,823.8,601.6z"/>
	<path class="st7" d="M806.2,585.3l-4-6.8c-22.6,13.1-30.4,42-17.3,64.7l6.8-4C780.9,620.4,787.3,596.2,806.2,585.3z"/>
	<path class="st14" d="M690.1,648.7c-12.2-22.6-13.3-48.7-4.7-71.6H677c-7.8,23-6.8,48.7,4.2,71.6H690.1z"/>
	<path class="st14" d="M717.9,647.2c-10.3-22.9-9.8-48.3-0.3-70.2H709c-8.7,22.1-9,47.2,0.3,70.2H717.9z"/>
	<path class="st19" d="M743.9,647.2c-12-22.8-10.3-49.5,2.5-70.2h-9.1c-11.4,21.3-12.8,47.2-2.2,70.2H743.9z"/>
	<path class="st18" d="M763.3,647.5l5.1-3c-13-22.5-8.3-50.3,9.6-67.5h-11.1c-15.7,19.5-18.9,47.3-6.2,70.4L763.3,647.5L763.3,647.5
		z"/>
</g>
<polygon class="st5" points="568.2,576.2 529,647.9 0.2,647.9 0.2,576.2 "/>
<rect x="0.1" y="647.9" class="st2" width="872" height="72"/>
<polygon class="st5" points="524.6,647.9 485.5,719.6 -0.1,719.6 -0.1,647.9 "/>
<g class="st10"><g>
		<path class="st16" d="M572.5,676.1c0,0-17.1,0.4-18.2,16.4c-1.1,16,9,19.7,15.6,20.3c6.6,0.6,59.8,0.5,59.8,0.5
			s12.5-1.1,14.6-16.9c2-14.8-13-18.5-13-18.5s2.3-14.6-12.8-21.7c-13.6-6.3-24.8,8.3-24.8,8.3s-7.3-5.7-13.9-3.8
			C571.1,663.1,572.5,676.1,572.5,676.1z"/>
		<path class="st16" d="M572.5,676.1c0,0-17.1,0.4-18.2,16.4c-1.1,16,9,19.7,15.6,20.3c6.6,0.6,59.8,0.5,59.8,0.5
			s12.5-1.1,14.6-16.9c2-14.8-13-18.5-13-18.5s2.3-14.6-12.8-21.7c-13.6-6.3-24.8,8.3-24.8,8.3s-7.3-5.7-13.9-3.8
			C571.1,663.1,572.5,676.1,572.5,676.1z"/>
</g></g>
<g>
	<polyline class="st13" points="597.7,144 590.5,90.5 674.8,77.5 700.3,98.6 705,144"/>
	<polygon class="st1" points="598.9,129.4 628.9,124.8 629.3,126.7 599.2,131.3"/>
	<polygon class="st1" points="598.5,123.6 615.7,121 616.1,122.9 598.8,125.6"/>
	<polygon class="st1" points="597.9,121 607.7,119.4 608,121.4 598.2,122.9"/>
	<polygon class="st1" points="597.4,118.3 609.1,116.5 609.4,118.4 597.7,120.2"/>
	<polygon class="st1" points="596.9,115.4 610.3,113.3 610.6,115.2 597.2,117.3"/>
	<polygon class="st1" points="596.3,112.3 615.3,109.4 615.6,111.3 596.6,114.3"/>
	<polygon class="st1" points="595.8,109.4 606.4,107.8 606.7,109.7 596,111.3"/>
	<polygon class="st1" points="594,95.7 604.6,94.1 604.9,96.1 594.3,97.7"/>
	<polygon class="st1" points="595.3,105.2 609,103.1 609.3,105 595.6,107.1"/>
	<polygon class="st1" points="594.5,98.8 616.4,95.4 616.7,97.3 594.8,100.8"/>
	<polygon class="st1" points="645.8,90.9 670.2,87.1 670.5,89 646.1,92.8"/>
	<polygon class="st1" points="645.8,102 662.6,99.4 662.9,101.3 646.1,103.9"/>
	<polygon class="st1" points="647.9,113.6 664.1,111.1 664.4,113 648.2,115.6"/>
	<polygon class="st1" points="646.9,107.9 660.3,105.9 660.6,107.8 647.1,109.9"/>
	<polygon class="st1" points="647.4,110.8 676.2,106.4 676.5,108.3 647.6,112.8"/>
	<polygon class="st1" points="646.3,105 665.3,102 665.6,103.9 646.5,107"/>
	<polygon class="st1" points="593.4,92.5 628.2,87.1 628.5,89 593.7,94.5"/>
	<polygon class="st1" points="599.7,133.9 604.5,133.2 604.9,135.1 600,135.9"/>
	<polygon class="st1" points="599.7,140.6 611.7,138.7 612.1,140.6 600,142.5"/>
	<polygon class="st1" points="625.4,141.5 645.7,138.4 646.1,140.3 625.8,143.5"/>
	<polygon class="st1" points="651,137.6 671.4,134.4 671.7,136.5 651.3,139.6"/>
	<polygon class="st1" points="651.6,140.7 672,137.6 672.3,139.6 651.9,142.7"/>
	<polygon class="st1" points="675.2,137.4 695.8,134.5 696.1,136.5 675.5,139.3"/>
	<polygon class="st1" points="675.8,140.2 696.5,137.4 696.8,139.3 676.1,142.2"/>
	<polygon class="st1" points="676.6,144 676.5,143.5 697.2,140.6 697.5,142.5 686.6,144"/>
	<polygon class="st1" points="628.1,144 646.3,141.5 646.6,143.5 642,144.1"/>
	<polygon class="st1" points="607.5,144.1 617.9,142.6 618.1,144.1"/>
	<polygon class="st1" points="674.6,133.9 683.9,132.6 684.3,134.5 674.9,135.9"/>
	<polygon class="st1" points="651.7,144 672.3,140.8 672.7,142.7 663.7,144.1"/>
	<path class="st15" d="M704.1,144.1h1.9l-4.7-45.8l-26.2-21.7l-85.6,13.2l7.3,54.3h2l-0.6-4.1L702,123.8L704.1,144.1z M591.6,91.4
		l83.1-12.8l1.2,10.8l-82.8,12.7L591.6,91.4z M593.4,104.3l82.7-13.1l1.2,11l22-3.1l1.2,11.4l-104.2,16.2L593.4,104.3z M597.9,138
		l-1.2-9.3l104.1-16.2l1,9.3L597.9,138z"/>
</g>
<g>
	<rect x="0.4" y="215.9" class="st4" width="872" height="72"/>
	<g class="st3">
		<path class="st17" d="M853.3,264.1c-0.9,7.8-8,13.4-15.9,12.5c-7.9-0.9-13.5-8-12.5-15.9c0.9-7.8,8-13.5,15.9-12.5
			C848.6,249.1,854.2,256.2,853.3,264.1z"/>
		<path class="st17" d="M823.8,241.3l-4-6.8c-15.1,8.7-20.2,28-11.5,43.1l6.8-4C808.6,262.3,812.5,247.8,823.8,241.3z"/>
		<path class="st7" d="M806.2,224.9l-4-6.8c-22.6,13.1-30.4,42-17.3,64.7l6.8-4C780.9,260.1,787.3,235.9,806.2,224.9z"/>
		<path class="st14" d="M690.1,288.4c-12.2-22.6-13.3-48.7-4.7-71.6H677c-7.8,23-6.8,48.7,4.2,71.6H690.1z"/>
		<path class="st14" d="M717.9,286.9c-10.3-22.9-9.8-48.3-0.3-70.2H709c-8.7,22.1-9,47.2,0.3,70.2H717.9z"/>
		<path class="st19" d="M743.9,286.9c-12-22.8-10.3-49.5,2.5-70.2h-9.1c-11.4,21.3-12.8,47.2-2.2,70.2H743.9z"/>
		<path class="st18" d="M763.3,287.2l5.1-3c-13-22.5-8.3-50.3,9.6-67.5h-11.1c-15.7,19.5-18.9,47.3-6.2,70.4L763.3,287.2
			L763.3,287.2z"/>
	</g>
	<polygon class="st8" points="568.2,215.9 529,287.6 0.2,287.6 0.2,215.9"/>
	<g>
		<polyline class="st13" points="598.8,287.9 591.6,234.4 675.9,221.4 701.4,242.5 706.1,287.9"/>
		<polygon class="st1" points="599.9,273.2 630,268.6 630.4,270.5 600.2,275.2"/>
		<polygon class="st1" points="599.6,267.5 616.8,264.8 617.2,266.7 599.9,269.4"/>
		<polygon class="st1" points="599,264.8 608.8,263.3 609.1,265.2 599.3,266.7"/>
		<polygon class="st1" points="598.5,262.2 610.2,260.3 610.5,262.2 598.8,264"/>
		<polygon class="st1" points="598,259.3 611.3,257.1 611.6,259 598.2,261.1"/>
		<polygon class="st1" points="597.4,256.1 616.3,253.2 616.6,255.1 597.7,258.2"/>
		<polygon class="st1" points="596.8,253.2 607.4,251.6 607.7,253.5 597.1,255.2"/>
		<polygon class="st1" points="595.1,239.5 605.7,237.9 606,239.9 595.3,241.5"/>
		<polygon class="st1" points="596.4,249 610,246.9 610.3,248.8 596.6,251"/>
		<polygon class="st1" points="595.6,242.6 617.4,239.2 617.7,241.1 595.9,244.6"/>
		<polygon class="st1" points="646.8,234.7 671.2,230.9 671.5,232.8 647.1,236.7"/>
		<polygon class="st1" points="646.8,245.8 663.6,243.2 663.9,245.1 647.1,247.8"/>
		<polygon class="st1" points="648.9,257.4 665.2,254.9 665.5,256.8 649.2,259.4"/>
		<polygon class="st1" points="647.9,251.8 661.3,249.7 661.6,251.6 648.2,253.7"/>
		<polygon class="st1" points="648.4,254.7 677.2,250.2 677.5,252.1 648.7,256.6"/>
		<polygon class="st1" points="647.3,248.8 666.3,245.8 666.6,247.7 647.6,250.8"/>
		<polygon class="st1" points="594.5,236.3 629.2,230.9 629.5,232.8 594.8,238.3"/>
		<polygon class="st1" points="600.7,277.8 605.6,277 606,278.9 601,279.7"/>
		<polygon class="st1" points="600.7,284.4 612.8,282.5 613.2,284.4 601,286.4"/>
		<polygon class="st1" points="626.5,285.4 646.8,282.2 647.2,284.1 626.8,287.3"/>
		<polygon class="st1" points="652,281.4 672.4,278.3 672.7,280.3 652.4,283.4"/>
		<polygon class="st1" points="652.6,284.6 673,281.4 673.3,283.4 653,286.5"/>
		<polygon class="st1" points="676.3,281.2 696.8,278.3 697.1,280.3 676.5,283.2"/>
		<polygon class="st1" points="676.9,284.1 697.5,281.2 697.8,283.1 677.1,286"/>
		<polygon class="st1" points="677.6,287.9 677.6,287.3 698.2,284.4 698.5,286.4 687.6,287.9"/>
		<polygon class="st1" points="629.1,287.9 647.3,285.3 647.6,287.3 643.1,287.9"/>
		<polygon class="st1" points="608.6,287.9 618.9,286.4 619.1,287.9"/>
		<polygon class="st1" points="675.7,277.7 685,276.4 685.3,278.4 676,279.7"/>
		<polygon class="st1" points="652.8,287.9 673.4,284.6 673.7,286.5 664.8,287.9"/>
		<path class="st15" d="M705.1,287.9h1.9l-4.7-45.8l-26.2-21.7l-85.6,13.2l7.3,54.3h2l-0.6-4.1L703,267.6L705.1,287.9z M592.7,235.2
			l83.1-12.8l1.2,10.8l-82.8,12.7L592.7,235.2z M594.4,248.1l82.7-13.1l1.2,11l22-3.1l1.2,11.4l-104.2,16.2L594.4,248.1z M599,281.8
			l-1.2-9.3l104.1-16.2l1,9.3L599,281.8z"/>
	</g>
</g>
<g>
	<g>
		<polyline class="st13" points="598.8,648 591.6,594.5 675.9,581.5 701.4,602.6 706.1,648"/>
		<polygon class="st1" points="599.9,633.3 630,628.7 630.4,630.6 600.2,635.3"/>
		<polygon class="st1" points="599.6,627.5 616.8,624.9 617.2,626.8 599.9,629.5"/>
		<polygon class="st1" points="599,624.9 608.8,623.4 609.1,625.3 599.3,626.8"/>
		<polygon class="st1" points="598.5,622.3 610.2,620.4 610.5,622.3 598.8,624.1"/>
		<polygon class="st1" points="598,619.4 611.3,617.2 611.6,619.1 598.2,621.2"/>
		<polygon class="st1" points="597.4,616.2 616.3,613.3 616.6,615.2 597.7,618.3"/>
		<polygon class="st1" points="596.8,613.3 607.4,611.7 607.7,613.6 597.1,615.3"/>
		<polygon class="st1" points="595.1,599.6 605.7,598 606,600 595.3,601.6"/>
		<polygon class="st1" points="596.4,609.1 610,607 610.3,608.9 596.6,611.1"/>
		<polygon class="st1" points="595.6,602.7 617.4,599.3 617.7,601.2 595.9,604.7"/>
		<polygon class="st1" points="646.8,594.8 671.2,591 671.5,592.9 647.1,596.8"/>
		<polygon class="st1" points="646.8,605.9 663.6,603.3 663.9,605.2 647.1,607.9"/>
		<polygon class="st1" points="648.9,617.5 665.2,615 665.5,616.9 649.2,619.5"/>
		<polygon class="st1" points="647.9,611.9 661.3,609.8 661.6,611.7 648.2,613.8"/>
		<polygon class="st1" points="648.4,614.8 677.2,610.3 677.5,612.2 648.7,616.7"/>
		<polygon class="st1" points="647.3,608.9 666.3,605.9 666.6,607.8 647.6,610.9"/>
		<polygon class="st1" points="594.5,596.4 629.2,591 629.5,592.9 594.8,598.4"/>
		<polygon class="st1" points="600.7,637.9 605.6,637.1 606,639 601,639.8"/>
		<polygon class="st1" points="600.7,644.5 612.8,642.6 613.2,644.5 601,646.5"/>
		<polygon class="st1" points="626.5,645.5 646.8,642.3 647.2,644.2 626.8,647.4"/>
		<polygon class="st1" points="652,641.5 672.4,638.4 672.7,640.4 652.4,643.5"/>
		<polygon class="st1" points="652.6,644.7 673,641.5 673.3,643.5 653,646.6"/>
		<polygon class="st1" points="676.3,641.3 696.8,638.4 697.1,640.4 676.5,643.3"/>
		<polygon class="st1" points="676.9,644.2 697.5,641.3 697.8,643.2 677.1,646.1"/>
		<polygon class="st1" points="677.6,648 677.6,647.4 698.2,644.5 698.5,646.5 687.6,648"/>
		<polygon class="st1" points="629.1,648 647.3,645.4 647.6,647.4 643.1,648"/>
		<polygon class="st1" points="608.6,648 618.9,646.5 619.1,648"/>
		<polygon class="st1" points="675.7,637.8 685,636.5 685.3,638.5 676,639.8"/>
		<polygon class="st1" points="652.8,648 673.4,644.7 673.7,646.6 664.8,648"/>
		<path class="st15" d="M705.1,648h1.9l-4.7-45.8l-26.2-21.7l-85.6,13.2l7.3,54.3h2l-0.6-4.1L703,627.7L705.1,648z M592.7,595.3
			l83.1-12.8l1.2,10.8L594.1,606L592.7,595.3z M594.4,608.2l82.7-13.1l1.2,11l22-3.1l1.2,11.4l-104.2,16.2L594.4,608.2z M599,641.9
			l-1.2-9.3l104.1-16.2l1,9.3L599,641.9z"/>
	</g>
</g>
<g>
	<rect x="0.1" y="143.7" class="st4" width="872" height="72"/>
	<rect x="525.6" y="198.5" class="st14" width="7.5" height="7.7"/>
	<rect x="548.1" y="159.9" class="st14" width="7.5" height="7.7"/>
	<rect x="540.6" y="167.6" class="st14" width="7.5" height="7.7"/>
	<rect x="548.1" y="175.3" class="st14" width="7.5" height="7.7"/>
	<rect x="540.6" y="183" class="st14" width="7.5" height="7.7"/>
	<rect x="548.1" y="190.8" class="st14" width="7.5" height="7.7"/>
	<rect x="533.1" y="190.8" class="st14" width="7.5" height="7.7"/>
	<rect x="554.7" y="183" class="st14" width="7.5" height="7.7"/>
	<rect x="563.2" y="190.8" class="st14" width="7.5" height="7.7"/>
	<rect x="555.7" y="167.6" class="st14" width="7.5" height="7.7"/>
	<rect x="563.2" y="175.3" class="st14" width="7.5" height="7.7"/>
	<rect x="570.7" y="183" class="st14" width="7.5" height="7.7"/>
	<rect x="540.6" y="198.5" class="st14" width="7.5" height="7.7"/>
	<rect x="533.1" y="206.9" class="st14" width="7.5" height="7.7"/>
	<rect x="555.7" y="198.5" class="st14" width="7.5" height="7.7"/>
	<rect x="570.7" y="198.5" class="st14" width="7.5" height="7.7"/>
	<rect x="578.2" y="190.8" class="st14" width="7.5" height="7.7"/>
	<rect x="585.7" y="198.5" class="st14" width="7.5" height="7.7"/>
	<rect x="585.7" y="183" class="st14" width="7.5" height="7.7"/>
	<rect x="578.2" y="175.3" class="st14" width="7.5" height="7.7"/>
	<rect x="570.7" y="167.6" class="st14" width="7.5" height="7.7"/>
	<rect x="563.2" y="159.9" class="st14" width="7.5" height="7.7"/>
	<rect x="555.7" y="152.2" class="st14" width="7.5" height="7.7"/>
	<rect x="563.2" y="144.5" class="st14" width="7.5" height="7.7"/>
	<rect x="570.7" y="152.2" class="st14" width="7.5" height="7.7"/>
	<rect x="578.2" y="144.5" class="st14" width="7.5" height="7.7"/>
	<rect x="585.7" y="152.2" class="st14" width="7.5" height="7.7"/>
	<rect x="578.2" y="159.9" class="st14" width="7.5" height="7.7"/>
	<rect x="585.7" y="167.6" class="st14" width="7.5" height="7.7"/>
	<rect x="593.3" y="144.5" class="st14" width="7.5" height="7.7"/>
	<rect x="600.8" y="152.2" class="st14" width="7.5" height="7.7"/>
	<rect x="608.3" y="159.9" class="st14" width="7.5" height="7.7"/>
	<rect x="600.8" y="167.6" class="st14" width="7.5" height="7.7"/>
	<rect x="608.3" y="175.3" class="st14" width="7.5" height="7.7"/>
	<rect x="600.8" y="183" class="st14" width="7.5" height="7.7"/>
	<rect x="608.3" y="190.8" class="st14" width="7.5" height="7.7"/>
	<rect x="593.3" y="159.9" class="st14" width="7.5" height="7.7"/>
	<rect x="593.3" y="175.3" class="st14" width="7.5" height="7.7"/>
	<rect x="593.3" y="190.8" class="st14" width="7.5" height="7.7"/>
	<rect x="614.8" y="183" class="st14" width="7.5" height="7.7"/>
	<rect x="623.3" y="190.8" class="st14" width="7.5" height="7.7"/>
	<rect x="615.8" y="167.6" class="st14" width="7.5" height="7.7"/>
	<rect x="623.3" y="175.3" class="st14" width="7.5" height="7.7"/>
	<rect x="630.8" y="183" class="st14" width="7.5" height="7.7"/>
	<rect x="600.8" y="198.5" class="st14" width="7.5" height="7.7"/>
	<rect x="615.8" y="198.5" class="st14" width="7.5" height="7.7"/>
	<rect x="630.8" y="198.5" class="st14" width="7.5" height="7.7"/>
	<rect x="638.4" y="190.8" class="st14" width="7.5" height="7.7"/>
	<rect x="645.9" y="198.5" class="st14" width="7.5" height="7.7"/>
	<rect x="645.9" y="183" class="st14" width="7.5" height="7.7"/>
	<rect x="638.4" y="175.3" class="st14" width="7.5" height="7.7"/>
	<rect x="630.8" y="167.6" class="st14" width="7.5" height="7.7"/>
	<rect x="623.3" y="159.9" class="st14" width="7.5" height="7.7"/>
	<rect x="615.8" y="152.2" class="st14" width="7.5" height="7.7"/>
	<rect x="608.3" y="144.5" class="st14" width="7.5" height="7.7"/>
	<rect x="623.3" y="144.5" class="st14" width="7.5" height="7.7"/>
	<rect x="630.8" y="152.2" class="st14" width="7.5" height="7.7"/>
	<rect x="638.4" y="144.5" class="st14" width="7.5" height="7.7"/>
	<rect x="645.9" y="152.2" class="st14" width="7.5" height="7.7"/>
	<rect x="638.4" y="159.9" class="st14" width="7.5" height="7.7"/>
	<rect x="645.9" y="167.6" class="st14" width="7.5" height="7.7"/>
	<rect x="653.4" y="144.5" class="st14" width="7.5" height="7.7"/>
	<rect x="660.9" y="152.2" class="st14" width="7.5" height="7.7"/>
	<rect x="668.5" y="159.9" class="st14" width="7.5" height="7.7"/>
	<rect x="660.9" y="167.6" class="st14" width="7.5" height="7.7"/>
	<rect x="668.5" y="175.3" class="st14" width="7.5" height="7.7"/>
	<rect x="660.9" y="183" class="st14" width="7.5" height="7.7"/>
	<rect x="668.5" y="190.8" class="st14" width="7.5" height="7.7"/>
	<rect x="653.4" y="159.9" class="st14" width="7.5" height="7.7"/>
	<rect x="653.4" y="175.3" class="st14" width="7.5" height="7.7"/>
	<rect x="653.4" y="190.8" class="st14" width="7.5" height="7.7"/>
	<rect x="675" y="183" class="st14" width="7.5" height="7.7"/>
	<rect x="683.5" y="190.8" class="st14" width="7.5" height="7.7"/>
	<rect x="676" y="167.6" class="st14" width="7.5" height="7.7"/>
	<rect x="683.5" y="175.3" class="st14" width="7.5" height="7.7"/>
	<rect x="691" y="183" class="st14" width="7.5" height="7.7"/>
	<rect x="660.9" y="198.5" class="st14" width="7.5" height="7.7"/>
	<rect x="676" y="198.5" class="st14" width="7.5" height="7.7"/>
	<rect x="691" y="198.5" class="st14" width="7.5" height="7.7"/>
	<rect x="698.5" y="190.8" class="st14" width="7.5" height="7.7"/>
	<rect x="706" y="198.5" class="st14" width="7.5" height="7.7"/>
	<rect x="706" y="183" class="st14" width="7.5" height="7.7"/>
	<rect x="698.5" y="175.3" class="st14" width="7.5" height="7.7"/>
	<rect x="691" y="167.6" class="st14" width="7.5" height="7.7"/>
	<rect x="683.5" y="159.9" class="st14" width="7.5" height="7.7"/>
	<rect x="676" y="152.2" class="st14" width="7.5" height="7.7"/>
	<rect x="668.5" y="144.5" class="st14" width="7.5" height="7.7"/>
	<rect x="683.5" y="144.5" class="st14" width="7.5" height="7.7"/>
	<rect x="691" y="152.2" class="st14" width="7.5" height="7.7"/>
	<rect x="698.5" y="144.5" class="st14" width="7.5" height="7.7"/>
	<rect x="706" y="152.2" class="st14" width="7.5" height="7.7"/>
	<rect x="698.5" y="159.9" class="st14" width="7.5" height="7.7"/>
	<rect x="706" y="167.6" class="st14" width="7.5" height="7.7"/>
	<rect x="713.6" y="144.5" class="st14" width="7.5" height="7.7"/>
	<rect x="721.1" y="152.2" class="st14" width="7.5" height="7.7"/>
	<rect x="728.6" y="159.9" class="st14" width="7.5" height="7.7"/>
	<rect x="721.1" y="167.6" class="st14" width="7.5" height="7.7"/>
	<rect x="728.6" y="175.3" class="st14" width="7.5" height="7.7"/>
	<rect x="721.1" y="183" class="st14" width="7.5" height="7.7"/>
	<rect x="728.6" y="190.8" class="st14" width="7.5" height="7.7"/>
	<rect x="713.6" y="159.9" class="st14" width="7.5" height="7.7"/>
	<rect x="713.6" y="175.3" class="st14" width="7.5" height="7.7"/>
	<rect x="713.6" y="190.8" class="st14" width="7.5" height="7.7"/>
	<rect x="735.1" y="183" class="st14" width="7.5" height="7.7"/>
	<rect x="743.7" y="190.8" class="st14" width="7.5" height="7.7"/>
	<rect x="736.1" y="167.6" class="st14" width="7.5" height="7.7"/>
	<rect x="743.7" y="175.3" class="st14" width="7.5" height="7.7"/>
	<rect x="751.2" y="183" class="st14" width="7.5" height="7.7"/>
	<rect x="721.1" y="198.5" class="st14" width="7.5" height="7.7"/>
	<rect x="736.1" y="198.5" class="st14" width="7.5" height="7.7"/>
	<rect x="751.2" y="198.5" class="st14" width="7.5" height="7.7"/>
	<rect x="758.7" y="190.8" class="st14" width="7.5" height="7.7"/>
	<rect x="766.2" y="198.5" class="st14" width="7.5" height="7.7"/>
	<rect x="766.2" y="183" class="st14" width="7.5" height="7.7"/>
	<rect x="758.7" y="175.3" class="st14" width="7.5" height="7.7"/>
	<rect x="751.2" y="167.6" class="st14" width="7.5" height="7.7"/>
	<rect x="743.7" y="159.9" class="st14" width="7.5" height="7.7"/>
	<rect x="736.1" y="152.2" class="st14" width="7.5" height="7.7"/>
	<rect x="728.6" y="144.5" class="st14" width="7.5" height="7.7"/>
	<rect x="743.7" y="144.5" class="st14" width="7.5" height="7.7"/>
	<rect x="751.2" y="152.2" class="st14" width="7.5" height="7.7"/>
	<rect x="758.7" y="144.5" class="st14" width="7.5" height="7.7"/>
	<rect x="766.2" y="152.2" class="st14" width="7.5" height="7.7"/>
	<rect x="758.7" y="159.9" class="st14" width="7.5" height="7.7"/>
	<rect x="766.2" y="167.6" class="st14" width="7.5" height="7.7"/>
	<rect x="773.7" y="144.5" class="st14" width="7.5" height="7.7"/>
	<rect x="781.3" y="152.2" class="st14" width="7.5" height="7.7"/>
	<rect x="788.8" y="159.9" class="st14" width="7.5" height="7.7"/>
	<rect x="781.3" y="167.6" class="st14" width="7.5" height="7.7"/>
	<rect x="788.8" y="175.3" class="st14" width="7.5" height="7.7"/>
	<rect x="781.3" y="183" class="st14" width="7.5" height="7.7"/>
	<rect x="788.8" y="190.8" class="st14" width="7.5" height="7.7"/>
	<rect x="773.7" y="159.9" class="st14" width="7.5" height="7.7"/>
	<rect x="773.7" y="175.3" class="st14" width="7.5" height="7.7"/>
	<rect x="773.7" y="190.8" class="st14" width="7.5" height="7.7"/>
	<rect x="795.3" y="183" class="st14" width="7.5" height="7.7"/>
	<rect x="803.8" y="190.8" class="st14" width="7.5" height="7.7"/>
	<rect x="796.3" y="167.6" class="st14" width="7.5" height="7.7"/>
	<rect x="803.8" y="175.3" class="st14" width="7.5" height="7.7"/>
	<rect x="811.3" y="183" class="st14" width="7.5" height="7.7"/>
	<rect x="781.3" y="198.5" class="st14" width="7.5" height="7.7"/>
	<rect x="796.3" y="198.5" class="st14" width="7.5" height="7.7"/>
	<rect x="811.3" y="198.5" class="st14" width="7.5" height="7.7"/>
	<rect x="818.9" y="190.8" class="st14" width="7.5" height="7.7"/>
	<rect x="826.4" y="198.5" class="st14" width="7.5" height="7.7"/>
	<rect x="826.4" y="183" class="st14" width="7.5" height="7.7"/>
	<rect x="818.9" y="175.3" class="st14" width="7.5" height="7.7"/>
	<rect x="811.3" y="167.6" class="st14" width="7.5" height="7.7"/>
	<rect x="803.8" y="159.9" class="st14" width="7.5" height="7.7"/>
	<rect x="796.3" y="152.2" class="st14" width="7.5" height="7.7"/>
	<rect x="788.8" y="144.5" class="st14" width="7.5" height="7.7"/>
	<rect x="803.8" y="144.5" class="st14" width="7.5" height="7.7"/>
	<rect x="811.3" y="152.2" class="st14" width="7.5" height="7.7"/>
	<rect x="818.9" y="144.5" class="st14" width="7.5" height="7.7"/>
	<rect x="826.4" y="152.2" class="st14" width="7.5" height="7.7"/>
	<rect x="818.9" y="159.9" class="st14" width="7.5" height="7.7"/>
	<rect x="826.4" y="167.6" class="st14" width="7.5" height="7.7"/>
	<rect x="833.9" y="159.9" class="st14" width="7.5" height="7.7"/>
	<rect x="833.9" y="175.3" class="st14" width="7.5" height="7.7"/>
	<rect x="833.9" y="190.8" class="st14" width="7.5" height="7.7"/>
	<rect x="840.4" y="183" class="st14" width="7.5" height="7.7"/>
	<rect x="848.9" y="190.8" class="st14" width="7.5" height="7.7"/>
	<rect x="841.4" y="167.6" class="st14" width="7.5" height="7.7"/>
	<rect x="848.9" y="175.3" class="st14" width="7.5" height="7.7"/>
	<rect x="856.5" y="183" class="st14" width="7.5" height="7.7"/>
	<rect x="841.4" y="198.5" class="st14" width="7.5" height="7.7"/>
	<rect x="856.5" y="198.5" class="st14" width="7.5" height="7.7"/>
	<rect x="864" y="190.8" class="st14" width="7.5" height="7.7"/>
	<rect x="864" y="175.3" class="st14" width="7.5" height="7.7"/>
	<rect x="856.5" y="167.6" class="st14" width="7.5" height="7.7"/>
	<rect x="848.9" y="159.9" class="st14" width="7.5" height="7.7"/>
	<rect x="841.4" y="152.2" class="st14" width="7.5" height="7.7"/>
	<rect x="833.9" y="144.5" class="st14" width="7.5" height="7.7"/>
	<rect x="848.9" y="144.5" class="st14" width="7.5" height="7.7"/>
	<rect x="856.5" y="152.2" class="st14" width="7.5" height="7.7"/>
	<rect x="864" y="144.5" class="st14" width="7.5" height="7.7"/>
	<rect x="864" y="159.9" class="st14" width="7.5" height="7.7"/>
	<rect x="548.1" y="206.9" class="st14" width="7.5" height="7.7"/>
	<rect x="563.2" y="206.9" class="st14" width="7.5" height="7.7"/>
	<rect x="578.2" y="206.9" class="st14" width="7.5" height="7.7"/>
	<rect x="608.3" y="206.9" class="st14" width="7.5" height="7.7"/>
	<rect x="593.3" y="206.9" class="st14" width="7.5" height="7.7"/>
	<rect x="623.3" y="206.9" class="st14" width="7.5" height="7.7"/>
	<rect x="638.4" y="206.9" class="st14" width="7.5" height="7.7"/>
	<rect x="668.5" y="206.9" class="st14" width="7.5" height="7.7"/>
	<rect x="653.4" y="206.9" class="st14" width="7.5" height="7.7"/>
	<rect x="683.5" y="206.9" class="st14" width="7.5" height="7.7"/>
	<rect x="698.5" y="206.9" class="st14" width="7.5" height="7.7"/>
	<rect x="728.6" y="206.9" class="st14" width="7.5" height="7.7"/>
	<rect x="713.6" y="206.9" class="st14" width="7.5" height="7.7"/>
	<rect x="743.7" y="206.9" class="st14" width="7.5" height="7.7"/>
	<rect x="758.7" y="206.9" class="st14" width="7.5" height="7.7"/>
	<rect x="788.8" y="206.9" class="st14" width="7.5" height="7.7"/>
	<rect x="773.7" y="206.9" class="st14" width="7.5" height="7.7"/>
	<rect x="803.8" y="206.9" class="st14" width="7.5" height="7.7"/>
	<rect x="818.9" y="206.9" class="st14" width="7.5" height="7.7"/>
	<rect x="833.9" y="206.9" class="st14" width="7.5" height="7.7"/>
	<rect x="848.9" y="206.9" class="st14" width="7.5" height="7.7"/>
	<rect x="864" y="206.9" class="st14" width="7.5" height="7.7"/>
	<polygon class="st8" points="565.9,143.7 527.7,215.4 -0.1,215.4 -0.1,143.7"/>
	<g>
		<polyline class="st13" points="595.5,215.7 588.3,162.2 672.6,149.2 698.1,170.3 702.8,215.7"/>
		<polygon class="st1" points="596.6,201 626.7,196.5 627.1,198.4 597,203"/>
		<polygon class="st1" points="596.3,195.3 613.5,192.7 613.9,194.6 596.6,197.3"/>
		<polygon class="st1" points="595.7,192.7 605.5,191.1 605.8,193.1 596,194.6"/>
		<polygon class="st1" points="595.2,190 606.9,188.2 607.2,190.1 595.5,191.9"/>
		<polygon class="st1" points="594.7,187.1 608,185 608.4,186.9 595,189"/>
		<polygon class="st1" points="594.1,184 613,181.1 613.4,183 594.4,186"/>
		<polygon class="st1" points="593.5,181.1 604.1,179.5 604.5,181.4 593.8,183"/>
		<polygon class="st1" points="591.8,167.4 602.4,165.8 602.7,167.7 592.1,169.4"/>
		<polygon class="st1" points="593.1,176.8 606.7,174.8 607.1,176.7 593.4,178.8"/>
		<polygon class="st1" points="592.3,170.5 614.1,167.1 614.5,169 592.6,172.5"/>
		<polygon class="st1" points="643.6,162.5 667.9,158.8 668.3,160.7 643.8,164.5"/>
		<polygon class="st1" points="643.6,173.6 660.3,171.1 660.7,173 643.8,175.6"/>
		<polygon class="st1" points="645.7,185.3 661.9,182.8 662.2,184.7 645.9,187.3"/>
		<polygon class="st1" points="644.7,179.6 658,177.6 658.4,179.5 644.9,181.6"/>
		<polygon class="st1" points="645.2,182.5 673.9,178.1 674.3,180 645.4,184.5"/>
		<polygon class="st1" points="644,176.7 663,173.7 663.4,175.6 644.3,178.7"/>
		<polygon class="st1" points="591.2,164.2 625.9,158.8 626.3,160.7 591.5,166.1"/>
		<polygon class="st1" points="597.4,205.6 602.3,204.9 602.7,206.8 597.8,207.6"/>
		<polygon class="st1" points="597.4,212.2 609.5,210.4 609.9,212.3 597.8,214.2"/>
		<polygon class="st1" points="623.2,213.2 643.5,210.1 643.9,212 623.5,215.2"/>
		<polygon class="st1" points="648.8,209.3 669.2,206.1 669.4,208.1 649.1,211.2"/>
		<polygon class="st1" points="649.4,212.4 669.8,209.3 670,211.3 649.7,214.4"/>
		<polygon class="st1" points="673,209.1 693.5,206.2 693.8,208.2 673.3,211"/>
		<polygon class="st1" points="673.6,211.9 694.3,209 694.5,211 673.8,213.9"/>
		<polygon class="st1" points="674.4,215.7 674.3,215.1 694.9,212.3 695.2,214.2 684.4,215.7"/>
		<polygon class="st1" points="625.9,215.7 644.1,213.2 644.4,215.2 639.8,215.7"/>
		<polygon class="st1" points="605.3,215.7 615.6,214.3 615.8,215.8"/>
		<polygon class="st1" points="672.4,205.6 681.7,204.3 682,206.2 672.7,207.6"/>
		<polygon class="st1" points="649.5,215.7 670.1,212.5 670.5,214.4 661.5,215.8"/>
		<path class="st15" d="M701.8,215.7h1.9l-4.7-45.8l-26.2-21.7l-85.6,13.2l7.3,54.3h2l-0.6-4.1l103.8-16.2L701.8,215.7z
			 M589.4,163.1l83.1-12.8l1.2,10.8l-82.8,12.7L589.4,163.1z M591.2,176l82.7-13.1l1.2,11l22-3.1l1.2,11.4l-104.2,16.2L591.2,176z
			 M595.7,209.6l-1.2-9.3l104.1-16.2l1,9.3L595.7,209.6z"/>
	</g>
</g>
<g>
	<rect x="638.4" y="535.6" class="st14" width="7.5" height="7.7"/>
	<g>
		<polyline class="st13" points="595.5,576 588.3,522.5 672.6,509.5 698.1,530.6 702.8,576"/>
		<polygon class="st1" points="596.6,561.3 626.7,556.7 627.1,558.7 597,563.3"/>
		<polygon class="st1" points="596.3,555.6 613.5,552.9 613.9,554.9 596.6,557.6"/>
		<polygon class="st1" points="595.7,552.9 605.5,551.4 605.8,553.3 596,554.8"/>
		<polygon class="st1" points="595.2,550.3 606.9,548.4 607.2,550.4 595.5,552.2"/>
		<polygon class="st1" points="594.7,547.4 608,545.2 608.4,547.2 595,549.3"/>
		<polygon class="st1" points="594.1,544.3 613,541.3 613.4,543.3 594.4,546.3"/>
		<polygon class="st1" points="593.5,541.3 604.1,539.7 604.5,541.7 593.8,543.3"/>
		<polygon class="st1" points="591.8,527.7 602.4,526.1 602.7,528 592.1,529.6"/>
		<polygon class="st1" points="593.1,537.1 606.7,535 607.1,537 593.4,539.1"/>
		<polygon class="st1" points="592.3,530.8 614.1,527.3 614.5,529.3 592.6,532.7"/>
		<polygon class="st1" points="643.6,522.8 667.9,519 668.3,521 643.8,524.8"/>
		<polygon class="st1" points="643.6,533.9 660.3,531.3 660.7,533.3 643.8,535.9"/>
		<polygon class="st1" points="645.7,545.6 661.9,543 662.2,545 645.9,547.5"/>
		<polygon class="st1" points="644.7,539.9 658,537.8 658.4,539.8 644.9,541.9"/>
		<polygon class="st1" points="645.2,542.8 673.9,538.3 674.3,540.3 645.4,544.8"/>
		<polygon class="st1" points="644,537 663,533.9 663.4,535.9 644.3,538.9"/>
		<polygon class="st1" points="591.2,524.4 625.9,519 626.3,521 591.5,526.4"/>
		<polygon class="st1" points="597.4,565.9 602.3,565.1 602.7,567.1 597.8,567.9"/>
		<polygon class="st1" points="597.4,572.5 609.5,570.6 609.9,572.6 597.8,574.5"/>
		<polygon class="st1" points="623.2,573.5 643.5,570.3 643.9,572.3 623.5,575.5"/>
		<polygon class="st1" points="648.8,569.5 669.2,566.4 669.4,568.4 649.1,571.5"/>
		<polygon class="st1" points="649.4,572.7 669.8,569.5 670,571.6 649.7,574.7"/>
		<polygon class="st1" points="673,569.3 693.5,566.5 693.8,568.4 673.3,571.3"/>
		<polygon class="st1" points="673.6,572.2 694.3,569.3 694.5,571.3 673.8,574.2"/>
		<polygon class="st1" points="674.4,576 674.3,575.4 694.9,572.5 695.2,574.5 684.4,576"/>
		<polygon class="st1" points="625.9,576 644.1,573.5 644.4,575.4 639.8,576"/>
		<polygon class="st1" points="605.3,576 615.6,574.6 615.8,576"/>
		<polygon class="st1" points="672.4,565.8 681.7,564.5 682,566.5 672.7,567.8"/>
		<polygon class="st1" points="649.5,576 670.1,572.7 670.5,574.7 661.5,576"/>
		<path class="st15" d="M701.8,576h1.9l-4.7-45.8l-26.2-21.7l-85.6,13.2l7.3,54.3h2l-0.6-4.1l103.8-16.2L701.8,576z M589.4,523.3
			l83.1-12.8l1.2,10.8L590.9,534L589.4,523.3z M591.2,536.3l82.7-13.1l1.2,11l22-3.1l1.2,11.4l-104.2,16.2L591.2,536.3z
			 M595.7,569.9l-1.2-9.3l104.1-16.2l1,9.3L595.7,569.9z"/>
</g></g>
<g><g>
		<polyline class="st13" points="597.7,504.4 590.5,450.9 674.8,437.9 700.3,459 705,504.4"/>
		<polygon class="st1" points="598.9,489.7 628.9,485.1 629.3,487.1 599.2,491.7"/>
		<polygon class="st1" points="598.5,484 615.7,481.3 616.1,483.2 598.8,485.9"/>
		<polygon class="st1" points="597.9,481.3 607.7,479.8 608,481.7 598.2,483.2"/>
		<polygon class="st1" points="597.4,478.7 609.1,476.8 609.4,478.7 597.7,480.5"/>
		<polygon class="st1" points="596.9,475.8 610.3,473.6 610.6,475.5 597.2,477.6"/>
		<polygon class="st1" points="596.3,472.7 615.3,469.7 615.6,471.6 596.6,474.7"/>
		<polygon class="st1" points="595.8,469.7 606.4,468.1 606.7,470 596,471.7"/>
		<polygon class="st1" points="594,456 604.6,454.4 604.9,456.4 594.3,458"/>
		<polygon class="st1" points="595.3,465.5 609,463.4 609.3,465.3 595.6,467.5"/>
		<polygon class="st1" points="594.5,459.2 616.4,455.7 616.7,457.6 594.8,461.1"/>
		<polygon class="st1" points="645.8,451.2 670.2,447.4 670.5,449.3 646.1,453.2"/>
		<polygon class="st1" points="645.8,462.3 662.6,459.7 662.9,461.6 646.1,464.3"/>
		<polygon class="st1" points="647.9,473.9 664.1,471.4 664.4,473.3 648.2,475.9"/>
		<polygon class="st1" points="646.9,468.3 660.3,466.2 660.6,468.1 647.1,470.2"/>
		<polygon class="st1" points="647.4,471.2 676.2,466.7 676.5,468.6 647.6,473.1"/>
		<polygon class="st1" points="646.3,465.3 665.3,462.3 665.6,464.2 646.5,467.3"/>
		<polygon class="st1" points="593.4,452.8 628.2,447.4 628.5,449.3 593.7,454.8"/>
		<polygon class="st1" points="599.7,494.3 604.5,493.5 604.9,495.4 600,496.3"/>
		<polygon class="st1" points="599.7,500.9 611.7,499 612.1,500.9 600,502.9"/>
		<polygon class="st1" points="625.4,501.9 645.7,498.7 646.1,500.6 625.8,503.8"/>
		<polygon class="st1" points="651,497.9 671.4,494.8 671.7,496.8 651.3,499.9"/>
		<polygon class="st1" points="651.6,501.1 672,497.9 672.3,499.9 651.9,503"/>
		<polygon class="st1" points="675.2,497.7 695.8,494.8 696.1,496.8 675.5,499.7"/>
		<polygon class="st1" points="675.8,500.6 696.5,497.7 696.8,499.7 676.1,502.5"/>
		<polygon class="st1" points="676.6,504.4 676.5,503.8 697.2,500.9 697.5,502.9 686.6,504.4"/>
		<polygon class="st1" points="628.1,504.4 646.3,501.8 646.6,503.8 642,504.4"/>
		<polygon class="st1" points="607.5,504.4 617.9,503 618.1,504.4"/>
		<polygon class="st1" points="674.6,494.2 683.9,492.9 684.3,494.9 674.9,496.2"/>
		<polygon class="st1" points="651.7,504.4 672.3,501.1 672.7,503 663.7,504.4"/>
		<path class="st15" d="M704.1,504.4h1.9l-4.7-45.8l-26.2-21.7l-85.6,13.2l7.3,54.3h2l-0.6-4.1L702,484.1L704.1,504.4z M591.6,451.7
			l83.1-12.8l1.2,10.8l-82.8,12.7L591.6,451.7z M593.4,464.6l82.7-13.1l1.2,11l22-3.1l1.2,11.4L596.4,487L593.4,464.6z M597.9,498.3
			l-1.2-9.3l104.1-16.2l1,9.3L597.9,498.3z"/>
</g></g>
</svg>
