<?xml version="1.0" encoding="utf-8"?>
<!DOCTYPE svg PUBLIC "-//W3C//DTD SVG 1.1//EN" "http://www.w3.org/Graphics/SVG/1.1/DTD/svg11.dtd">
<svg version="1.1" id="Calque_1" xmlns="http://www.w3.org/2000/svg" xmlns:xlink="http://www.w3.org/1999/xlink" x="0px" y="0px"
	 width="872px" height="72px" viewBox="0 0 872 72" enable-background="new 0 0 872 72" xml:space="preserve">
<rect x="-1" y="-0.58" fill="#4D4D4D" width="872" height="72"/>
<polygon fill="#5B5B5B" points="636.41,0.09 599.61,70.74 -0.01,70.74 0.01,0.09 "/>
<g opacity="0.72" enable-background="new    ">
	<g>
		<path fill="#3C3C3B" d="M857.21,42.41l-5.29-2.03c0.08-1.14,0-2.26-0.2-3.36l4.86-2.17c1.14-0.5,1.66-1.83,1.15-2.98l-0.92-2.06
			c-0.51-1.14-1.84-1.65-2.98-1.15l-4.94,2.19c-0.75-0.92-1.63-1.75-2.64-2.46l1.79-4.64c0.45-1.16-0.13-2.47-1.3-2.92l-2.11-0.81
			c-1.16-0.45-2.47,0.14-2.92,1.3l-1.78,4.63c-1.33-0.16-2.65-0.11-3.94,0.12l-1.84-4.13c-0.51-1.13-1.84-1.65-2.98-1.15l-2.07,0.92
			c-1.14,0.5-1.65,1.85-1.14,2.99l1.87,4.21c-1.07,0.88-2.03,1.91-2.8,3.1l-3.97-1.53c-1.17-0.45-2.48,0.13-2.92,1.3l-0.81,2.11
			c-0.45,1.16,0.13,2.47,1.3,2.92l4.24,1.63c-0.11,1.42,0.02,2.81,0.35,4.17l-3.97,1.76c-1.14,0.51-1.66,1.85-1.15,2.98l0.92,2.06
			c0.51,1.14,1.85,1.65,2.99,1.14l4.43-1.97c0.87,0.95,1.89,1.79,3.05,2.46l-1.7,4.41c-0.45,1.16,0.13,2.47,1.3,2.92l2.11,0.81
			c1.16,0.44,2.47-0.13,2.92-1.3l1.91-4.96c1.21,0.03,2.4-0.08,3.56-0.37l2.09,4.7c0.51,1.14,1.84,1.65,2.98,1.15l2.06-0.92
			c1.14-0.5,1.66-1.84,1.14-2.99l-2.28-5.16c0.81-0.75,1.55-1.6,2.17-2.55l5.02,1.93c1.17,0.45,2.47-0.13,2.93-1.3l0.81-2.11
			C858.95,44.17,858.37,42.86,857.21,42.41z M836.37,44.68c-2.91-1.12-4.37-4.38-3.24-7.3c1.12-2.91,4.39-4.36,7.3-3.24
			c2.91,1.12,4.37,4.38,3.25,7.29C842.55,44.36,839.28,45.8,836.37,44.68z"/>
	</g>
</g>
<g opacity="0.72" enable-background="new    ">
	<g>
		<path fill="#3C3C3B" d="M822.21,24.46l-3.04-1.17c0.04-0.65,0-1.3-0.11-1.93l2.79-1.25c0.66-0.29,0.95-1.05,0.66-1.71l-0.53-1.18
			c-0.29-0.65-1.06-0.95-1.71-0.66l-2.84,1.26c-0.43-0.53-0.94-1-1.51-1.41l1.02-2.66c0.26-0.67-0.07-1.42-0.74-1.68l-1.21-0.47
			c-0.67-0.26-1.42,0.08-1.67,0.75l-1.02,2.66c-0.76-0.09-1.52-0.07-2.26,0.07l-1.06-2.37c-0.29-0.65-1.06-0.95-1.71-0.66
			l-1.19,0.52c-0.65,0.29-0.94,1.06-0.66,1.72l1.07,2.42c-0.62,0.5-1.16,1.1-1.61,1.78l-2.28-0.88c-0.67-0.26-1.42,0.08-1.68,0.75
			l-0.47,1.21c-0.26,0.67,0.08,1.42,0.75,1.67l2.43,0.94c-0.06,0.81,0.01,1.62,0.2,2.39l-2.28,1.01c-0.66,0.29-0.95,1.06-0.66,1.71
			l0.52,1.18c0.29,0.65,1.06,0.95,1.72,0.66l2.55-1.13c0.5,0.55,1.09,1.03,1.75,1.42l-0.98,2.53c-0.26,0.67,0.08,1.42,0.75,1.68
			l1.21,0.47c0.67,0.25,1.42-0.08,1.68-0.75l1.1-2.85c0.69,0.02,1.38-0.05,2.05-0.21l1.2,2.7c0.29,0.65,1.06,0.95,1.71,0.66
			l1.18-0.53c0.66-0.29,0.95-1.06,0.66-1.71l-1.31-2.96c0.47-0.43,0.89-0.92,1.25-1.47l2.88,1.11c0.67,0.26,1.42-0.07,1.68-0.75
			l0.47-1.21C823.21,25.46,822.88,24.71,822.21,24.46z M810.25,25.76c-1.67-0.64-2.51-2.51-1.86-4.19c0.64-1.67,2.52-2.5,4.19-1.86
			c1.67,0.64,2.51,2.52,1.86,4.19C813.79,25.57,811.92,26.4,810.25,25.76z"/>
	</g>
</g>
</svg>
