<?xml version="1.0" encoding="utf-8"?>
<!DOCTYPE svg PUBLIC "-//W3C//DTD SVG 1.1//EN" "http://www.w3.org/Graphics/SVG/1.1/DTD/svg11.dtd">
<svg version="1.1" id="Calque_1" xmlns="http://www.w3.org/2000/svg" xmlns:xlink="http://www.w3.org/1999/xlink" x="0px" y="0px"
	 width="872px" height="72px" viewBox="0 0 872 72" enable-background="new 0 0 872 72" xml:space="preserve">
<rect y="-0.58" fill="#9CCC8F" width="871" height="72"/>
<polygon fill="#FFFFFF" fill-opacity="0.25" stroke="#7DBD6B" points="635.41,-0.58 598.61,71.17 -0.01,71.42 0.01,-0.58 "/>
<g opacity="0.2" enable-background="new    ">
	<g>
		<path fill="#3C3C3B" d="M860.37,43.28l-5.96-2.29c0.08-1.28,0-2.55-0.22-3.78l5.48-2.44c1.29-0.56,1.87-2.07,1.29-3.35l-1.03-2.32
			c-0.57-1.28-2.08-1.86-3.36-1.29L851,30.26c-0.85-1.04-1.84-1.97-2.97-2.77l2.01-5.22c0.5-1.31-0.14-2.78-1.46-3.29l-2.38-0.92
			c-1.31-0.5-2.78,0.15-3.29,1.46l-2.01,5.22c-1.5-0.18-2.99-0.13-4.44,0.13l-2.07-4.65c-0.57-1.28-2.08-1.86-3.36-1.29l-2.33,1.03
			c-1.28,0.57-1.85,2.08-1.29,3.37l2.11,4.74c-1.21,0.99-2.28,2.16-3.16,3.49l-4.47-1.72c-1.31-0.51-2.79,0.15-3.29,1.46l-0.92,2.38
			c-0.5,1.3,0.15,2.78,1.47,3.28l4.78,1.84c-0.12,1.6,0.03,3.17,0.4,4.69l-4.47,1.99c-1.29,0.57-1.87,2.08-1.3,3.36l1.03,2.32
			c0.58,1.28,2.08,1.86,3.37,1.29l5-2.22c0.98,1.08,2.13,2.02,3.44,2.78l-1.91,4.97c-0.5,1.31,0.15,2.78,1.46,3.29l2.38,0.91
			c1.31,0.5,2.79-0.15,3.29-1.46l2.15-5.58c1.36,0.04,2.71-0.09,4.02-0.42l2.35,5.3c0.57,1.29,2.07,1.86,3.36,1.29l2.32-1.03
			c1.29-0.56,1.87-2.07,1.29-3.36l-2.57-5.82c0.91-0.84,1.74-1.8,2.44-2.88l5.66,2.18c1.32,0.51,2.78-0.14,3.3-1.46l0.91-2.37
			C862.33,45.26,861.68,43.79,860.37,43.28z M836.89,45.84c-3.28-1.26-4.92-4.93-3.65-8.22c1.26-3.28,4.94-4.91,8.22-3.65
			c3.28,1.26,4.92,4.94,3.66,8.22C843.85,45.47,840.17,47.1,836.89,45.84z"/>
	</g>
</g>
<g opacity="0.2" enable-background="new    ">
	<g>
		<path fill="#3C3C3B" d="M820.93,23.05l-3.42-1.32c0.05-0.74,0-1.46-0.13-2.17l3.15-1.4c0.74-0.32,1.07-1.19,0.74-1.93l-0.59-1.33
			c-0.33-0.74-1.19-1.07-1.93-0.74l-3.2,1.42c-0.49-0.6-1.06-1.13-1.71-1.59l1.15-3c0.29-0.75-0.08-1.6-0.84-1.89l-1.36-0.52
			c-0.75-0.29-1.6,0.09-1.89,0.84l-1.15,3c-0.86-0.1-1.71-0.07-2.55,0.07l-1.19-2.67c-0.33-0.73-1.19-1.07-1.93-0.74l-1.34,0.59
			c-0.74,0.33-1.06,1.2-0.74,1.93l1.21,2.72c-0.69,0.57-1.31,1.24-1.81,2.01l-2.57-0.99c-0.75-0.29-1.6,0.09-1.89,0.84l-0.53,1.37
			c-0.29,0.75,0.09,1.6,0.84,1.89l2.74,1.06c-0.07,0.92,0.02,1.82,0.23,2.7l-2.57,1.14c-0.74,0.33-1.07,1.19-0.75,1.93l0.59,1.33
			c0.33,0.73,1.2,1.07,1.93,0.74l2.87-1.27c0.56,0.62,1.23,1.16,1.97,1.6l-1.1,2.85c-0.29,0.75,0.09,1.6,0.84,1.89l1.36,0.52
			c0.75,0.29,1.6-0.09,1.89-0.84l1.23-3.21c0.78,0.02,1.56-0.05,2.31-0.24l1.35,3.04c0.33,0.74,1.19,1.07,1.93,0.74l1.33-0.59
			c0.74-0.32,1.07-1.19,0.74-1.93l-1.48-3.34c0.52-0.48,1-1.03,1.4-1.65l3.25,1.25c0.76,0.29,1.6-0.08,1.89-0.84l0.52-1.36
			C822.06,24.19,821.69,23.34,820.93,23.05z M807.45,24.52c-1.88-0.73-2.82-2.83-2.1-4.72c0.73-1.88,2.84-2.82,4.72-2.09
			c1.88,0.72,2.83,2.84,2.1,4.72C811.45,24.31,809.34,25.24,807.45,24.52z"/>
	</g>
</g>
</svg>
