<?xml version="1.0" encoding="utf-8"?>
<!DOCTYPE svg PUBLIC "-//W3C//DTD SVG 1.1//EN" "http://www.w3.org/Graphics/SVG/1.1/DTD/svg11.dtd">
<svg version="1.1" id="Calque_1" xmlns="http://www.w3.org/2000/svg" xmlns:xlink="http://www.w3.org/1999/xlink" x="0px" y="0px"
	 width="872px" height="72px" viewBox="0 0 872 72" enable-background="new 0 0 872 72" xml:space="preserve">
<rect x="-1" y="-0.6" fill="#4D4D4D" width="872" height="72"/>
<polygon fill="#5B5B5B" points="636.4,0.1 599.6,70.7 0,70.7 0,0.1 "/>
<g opacity="0.72" enable-background="new">
	<g>
		<path fill="#3C3C3B" d="M857.2,42.4l-5.3-2c0.1-1.1,0-2.3-0.2-3.4l4.9-2.2c1.1-0.5,1.7-1.8,1.2-3l-0.9-2.1c-0.5-1.1-1.8-1.6-3-1.1
			l-4.9,2.2c-0.8-0.9-1.6-1.8-2.6-2.5l1.8-4.6c0.5-1.2-0.1-2.5-1.3-2.9l-2.1-0.8c-1.2-0.5-2.5,0.1-2.9,1.3l-1.8,4.6
			c-1.3-0.2-2.6-0.1-3.9,0.1l-1.8-4.1c-0.5-1.1-1.8-1.6-3-1.1l-2.1,0.9c-1.1,0.5-1.6,1.9-1.1,3l1.9,4.2c-1.1,0.9-2,1.9-2.8,3.1
			l-4-1.5c-1.2-0.5-2.5,0.1-2.9,1.3l-0.8,2.1c-0.5,1.2,0.1,2.5,1.3,2.9l4.2,1.6c-0.1,1.4,0,2.8,0.3,4.2l-4,1.8
			c-1.1,0.5-1.7,1.9-1.2,3l0.9,2.1c0.5,1.1,1.9,1.7,3,1.1l4.4-2c0.9,0.9,1.9,1.8,3,2.5l-1.7,4.4c-0.5,1.2,0.1,2.5,1.3,2.9l2.1,0.8
			c1.2,0.4,2.5-0.1,2.9-1.3l1.9-5c1.2,0,2.4-0.1,3.6-0.4l2.1,4.7c0.5,1.1,1.8,1.7,3,1.2l2.1-0.9c1.1-0.5,1.7-1.8,1.1-3l-2.3-5.2
			c0.8-0.8,1.5-1.6,2.2-2.6l5,1.9c1.2,0.5,2.5-0.1,2.9-1.3l0.8-2.1C859,44.2,858.4,42.9,857.2,42.4z M836.4,44.7
			c-2.9-1.1-4.4-4.4-3.2-7.3c1.1-2.9,4.4-4.4,7.3-3.2c2.9,1.1,4.4,4.4,3.2,7.3C842.5,44.4,839.3,45.8,836.4,44.7z"/>
	</g>
</g>
<g opacity="0.72" enable-background="new">
	<g>
		<path fill="#3C3C3B" d="M822.2,24.5l-3-1.2c0-0.6,0-1.3-0.1-1.9l2.8-1.2c0.7-0.3,1-1,0.7-1.7l-0.5-1.2c-0.3-0.7-1.1-1-1.7-0.7
			l-2.8,1.3c-0.4-0.5-0.9-1-1.5-1.4l1-2.7c0.3-0.7-0.1-1.4-0.7-1.7l-1.2-0.5c-0.7-0.3-1.4,0.1-1.7,0.8l-1,2.7
			c-0.8-0.1-1.5-0.1-2.3,0.1l-1.1-2.4c-0.3-0.6-1.1-1-1.7-0.7l-1.2,0.5c-0.7,0.3-0.9,1.1-0.7,1.7l1.1,2.4c-0.6,0.5-1.2,1.1-1.6,1.8
			l-2.3-0.9c-0.7-0.3-1.4,0.1-1.7,0.8l-0.5,1.2c-0.3,0.7,0.1,1.4,0.8,1.7l2.4,0.9c-0.1,0.8,0,1.6,0.2,2.4l-2.3,1
			c-0.7,0.3-1,1.1-0.7,1.7l0.5,1.2c0.3,0.6,1.1,0.9,1.7,0.7l2.5-1.1c0.5,0.5,1.1,1,1.8,1.4l-1,2.5c-0.3,0.7,0.1,1.4,0.8,1.7l1.2,0.5
			c0.7,0.2,1.4-0.1,1.7-0.8l1.1-2.9c0.7,0,1.4,0,2.1-0.2l1.2,2.7c0.3,0.6,1.1,0.9,1.7,0.7l1.2-0.5c0.7-0.3,1-1.1,0.7-1.7l-1.3-3
			c0.5-0.4,0.9-0.9,1.2-1.5l2.9,1.1c0.7,0.3,1.4-0.1,1.7-0.8l0.5-1.2C823.2,25.5,822.9,24.7,822.2,24.5z M810.2,25.8
			c-1.7-0.6-2.5-2.5-1.9-4.2c0.6-1.7,2.5-2.5,4.2-1.9s2.5,2.5,1.9,4.2C813.8,25.6,811.9,26.4,810.2,25.8z"/>
	</g>
</g>
</svg>
