<?xml version="1.0" encoding="utf-8"?>
<!DOCTYPE svg PUBLIC "-//W3C//DTD SVG 1.1//EN" "http://www.w3.org/Graphics/SVG/1.1/DTD/svg11.dtd">
<svg version="1.1" id="Calque_1" xmlns="http://www.w3.org/2000/svg" xmlns:xlink="http://www.w3.org/1999/xlink" x="0px" y="0px"
	 width="872px" height="72px" viewBox="0 0 872 72" enable-background="new 0 0 872 72" xml:space="preserve">
<rect y="-0.6" fill="#9CCC8F" width="871" height="72"/>
<polygon fill="#FFFFFF" fill-opacity="0.25" stroke="#7DBD6B" points="635.4,-0.6 598.6,71.2 0,71.4 0,-0.6 "/>
<g opacity="0.2" enable-background="new">
	<g>
		<path fill="#3C3C3B" d="M860.4,43.3l-6-2.3c0.1-1.3,0-2.6-0.2-3.8l5.5-2.4c1.3-0.6,1.9-2.1,1.3-3.4l-1-2.3
			c-0.6-1.3-2.1-1.9-3.4-1.3l-5.6,2.4c-0.8-1-1.8-2-3-2.8l2-5.2c0.5-1.3-0.1-2.8-1.5-3.3l-2.4-0.9c-1.3-0.5-2.8,0.1-3.3,1.5l-2,5.2
			c-1.5-0.2-3-0.1-4.4,0.1l-2.1-4.6c-0.6-1.3-2.1-1.9-3.4-1.3l-2.3,1c-1.3,0.6-1.9,2.1-1.3,3.4l2.1,4.7c-1.2,1-2.3,2.2-3.2,3.5
			l-4.5-1.7c-1.3-0.5-2.8,0.2-3.3,1.5l-0.9,2.4c-0.5,1.3,0.2,2.8,1.5,3.3l4.8,1.8c-0.1,1.6,0,3.2,0.4,4.7l-4.5,2
			c-1.3,0.6-1.9,2.1-1.3,3.4l1,2.3c0.6,1.3,2.1,1.9,3.4,1.3l5-2.2c1,1.1,2.1,2,3.4,2.8l-1.9,5c-0.5,1.3,0.2,2.8,1.5,3.3l2.4,0.9
			c1.3,0.5,2.8-0.2,3.3-1.5l2.2-5.6c1.4,0,2.7-0.1,4-0.4l2.4,5.3c0.6,1.3,2.1,1.9,3.4,1.3l2.3-1c1.3-0.6,1.9-2.1,1.3-3.4l-2.6-5.8
			c0.9-0.8,1.7-1.8,2.4-2.9l5.7,2.2c1.3,0.5,2.8-0.1,3.3-1.5l0.9-2.4C862.3,45.3,861.7,43.8,860.4,43.3z M836.9,45.8
			c-3.3-1.3-4.9-4.9-3.6-8.2c1.3-3.3,4.9-4.9,8.2-3.6c3.3,1.3,4.9,4.9,3.7,8.2C843.8,45.5,840.2,47.1,836.9,45.8z"/>
	</g>
</g>
<g opacity="0.2" enable-background="new">
	<g>
		<path fill="#3C3C3B" d="M820.9,23l-3.4-1.3c0-0.7,0-1.5-0.1-2.2l3.2-1.4c0.7-0.3,1.1-1.2,0.7-1.9l-0.6-1.3
			c-0.3-0.7-1.2-1.1-1.9-0.7l-3.2,1.4c-0.5-0.6-1.1-1.1-1.7-1.6l1.2-3c0.3-0.8-0.1-1.6-0.8-1.9l-1.4-0.5c-0.8-0.3-1.6,0.1-1.9,0.8
			l-1.2,3c-0.9-0.1-1.7-0.1-2.5,0.1L806,9.8c-0.3-0.7-1.2-1.1-1.9-0.7l-1.3,0.6c-0.7,0.3-1.1,1.2-0.7,1.9l1.2,2.7
			c-0.7,0.6-1.3,1.2-1.8,2l-2.6-1c-0.8-0.3-1.6,0.1-1.9,0.8l-0.5,1.4c-0.3,0.8,0.1,1.6,0.8,1.9l2.7,1.1c-0.1,0.9,0,1.8,0.2,2.7
			l-2.6,1.1c-0.7,0.3-1.1,1.2-0.8,1.9l0.6,1.3c0.3,0.7,1.2,1.1,1.9,0.7l2.9-1.3c0.6,0.6,1.2,1.2,2,1.6l-1.1,2.9
			c-0.3,0.8,0.1,1.6,0.8,1.9l1.4,0.5c0.8,0.3,1.6-0.1,1.9-0.8l1.2-3.2c0.8,0,1.6,0,2.3-0.2l1.3,3c0.3,0.7,1.2,1.1,1.9,0.7l1.3-0.6
			c0.7-0.3,1.1-1.2,0.7-1.9l-1.5-3.3c0.5-0.5,1-1,1.4-1.6l3.2,1.2c0.8,0.3,1.6-0.1,1.9-0.8l0.5-1.4C822.1,24.2,821.7,23.3,820.9,23z
			 M807.5,24.5c-1.9-0.7-2.8-2.8-2.1-4.7c0.7-1.9,2.8-2.8,4.7-2.1c1.9,0.7,2.8,2.8,2.1,4.7C811.5,24.3,809.3,25.2,807.5,24.5z"/>
	</g>
</g>
</svg>
