<svg xmlns="http://www.w3.org/2000/svg" width="872" height="72" viewBox="0 0 872 72"><style type="text/css"><![CDATA[
	.st0{fill:#EFF6F7;}	.st1{opacity:0.3;} .st2{fill:#6AB2D1;} .st3{fill:#D6ECF6;} .st4{fill:#3E98C0;} .st5{fill:#A2C3D5;}
]]></style><path class="st3" d="M-1-.6h872v72h-872z"/><path class="st0" d="M520.3.1l-36.8 70.4-484.2.2.1-70.6z"/><g class="st1"><path class="st5" d="M696.5 59.2h-48l31.7-11.6h48zm58.9 0h-47.9l31.7-11.6h47.9zm58.9 0h-47.9l31.7-11.6h48zm-78-15h-47.9l31.7-11.7h47.9zm58.9 0h-47.9l31.7-11.7h48zm75.8-11.7h-33l-31.8 11.7h48l16.8-6.2zm-89 38.9l24.2-8.9h-47.9l-24.3 8.9zm-59 0l24.3-8.9h-48l-24.2 8.9zm-58.9 0l24.3-8.9h-48l-24.2 8.9z"/><path class="st2" d="M699.5 52h-61.8l40.9-15.7h61.8zm79 0h-61.8l40.9-15.7h61.8zm-29.9-19.1h-61.8l40.9-15.8h61.8zm79.1 0h-61.8l40.9-15.8h61.8z"/><path class="st4" d="M764.7 27.8h-91.5l60.5-23.3h91.5z"/></g></svg>