<?xml version="1.0" encoding="utf-8"?>
<!DOCTYPE svg PUBLIC "-//W3C//DTD SVG 1.1//EN" "http://www.w3.org/Graphics/SVG/1.1/DTD/svg11.dtd">
<svg version="1.1" id="Calque_1" xmlns="http://www.w3.org/2000/svg" xmlns:xlink="http://www.w3.org/1999/xlink" x="0px" y="0px"
	 width="872px" height="72px" viewBox="0 0 872 72" enable-background="new 0 0 872 72" xml:space="preserve">
<rect x="-1" y="-0.58" fill="#4D4D4D" width="872" height="72"/>
<polygon fill="#5B5B5B" points="520.33,0.09 483.53,70.5 -0.68,70.74 -0.65,0.09 "/>
<g opacity="0.3">
	<g>
		<polygon fill="#BFBFBF" points="696.47,59.25 648.51,59.25 680.25,47.63 728.2,47.63 		"/>
		<polygon fill="#BFBFBF" points="755.4,59.25 707.45,59.25 739.18,47.63 787.13,47.63 		"/>
		<polygon fill="#BFBFBF" points="814.33,59.25 766.38,59.25 798.12,47.63 846.07,47.63 		"/>
		<polygon fill="#BFBFBF" points="736.31,44.15 688.36,44.15 720.09,32.54 768.04,32.54 		"/>
		<polygon fill="#BFBFBF" points="795.24,44.15 747.29,44.15 779.02,32.54 826.98,32.54 		"/>
		<polygon fill="#BFBFBF" points="871,32.54 837.96,32.54 806.22,44.15 854.18,44.15 871,38 		"/>
		<polygon fill="#BFBFBF" points="781.97,71.42 806.22,62.54 758.27,62.54 734.02,71.42 		"/>
		<polygon fill="#BFBFBF" points="723.04,71.42 747.29,62.54 699.33,62.54 675.08,71.42 		"/>
		<polygon fill="#BFBFBF" points="664.1,71.42 688.36,62.54 640.4,62.54 616.15,71.42 		"/>
	</g>
	<g>
		<polygon fill="#999999" points="699.48,51.97 637.68,51.97 678.57,36.27 740.37,36.27 		"/>
		<polygon fill="#999999" points="778.54,51.97 716.74,51.97 757.64,36.27 819.44,36.27 		"/>
		<polygon fill="#999999" points="748.62,32.85 686.82,32.85 727.71,17.15 789.52,17.15 		"/>
		<polygon fill="#999999" points="827.68,32.85 765.88,32.85 806.78,17.15 868.58,17.15 		"/>
	</g>
	<polygon fill="#737373" points="764.66,27.76 673.2,27.76 733.73,4.53 825.19,4.53 	"/>
</g>
</svg>
