<?xml version="1.0" encoding="utf-8"?>
<!DOCTYPE svg PUBLIC "-//W3C//DTD SVG 1.1//EN" "http://www.w3.org/Graphics/SVG/1.1/DTD/svg11.dtd">
<svg version="1.1" id="Calque_1" xmlns="http://www.w3.org/2000/svg" xmlns:xlink="http://www.w3.org/1999/xlink" x="0px" y="0px"
	 width="872px" height="72px" viewBox="0 0 872 72" enable-background="new 0 0 872 72" xml:space="preserve">
<rect x="-1" y="-0.6" fill="#4D4D4D" width="872" height="72"/>
<polygon fill="#5B5B5B" points="520.3,0.1 483.5,70.5 -0.7,70.7 -0.6,0.1 "/>
<g opacity="0.3">
	<g>
		<polygon fill="#BFBFBF" points="696.5,59.2 648.5,59.2 680.2,47.6 728.2,47.6"/>
		<polygon fill="#BFBFBF" points="755.4,59.2 707.5,59.2 739.2,47.6 787.1,47.6"/>
		<polygon fill="#BFBFBF" points="814.3,59.2 766.4,59.2 798.1,47.6 846.1,47.6"/>
		<polygon fill="#BFBFBF" points="736.3,44.2 688.4,44.2 720.1,32.5 768,32.5"/>
		<polygon fill="#BFBFBF" points="795.2,44.2 747.3,44.2 779,32.5 827,32.5"/>
		<polygon fill="#BFBFBF" points="871,32.5 838,32.5 806.2,44.2 854.2,44.2 871,38"/>
		<polygon fill="#BFBFBF" points="782,71.4 806.2,62.5 758.3,62.5 734,71.4"/>
		<polygon fill="#BFBFBF" points="723,71.4 747.3,62.5 699.3,62.5 675.1,71.4"/>
		<polygon fill="#BFBFBF" points="664.1,71.4 688.4,62.5 640.4,62.5 616.2,71.4"/>
	</g>
	<g>
		<polygon fill="#999999" points="699.5,52 637.7,52 678.6,36.3 740.4,36.3"/>
		<polygon fill="#999999" points="778.5,52 716.7,52 757.6,36.3 819.4,36.3"/>
		<polygon fill="#999999" points="748.6,32.9 686.8,32.9 727.7,17.1 789.5,17.1"/>
		<polygon fill="#999999" points="827.7,32.9 765.9,32.9 806.8,17.1 868.6,17.1"/>
	</g>
	<polygon fill="#737373" points="764.7,27.8 673.2,27.8 733.7,4.5 825.2,4.5"/>
</g>
</svg>
