<svg xmlns="http://www.w3.org/2000/svg" width="872" height="72" viewBox="0 0 872 72"><style type="text/css"><![CDATA[
	.st0{fill:#EFF6F7;}	.st1{opacity:0.3;} .st2{fill:#6AB2D1;} .st3{fill:#D6ECF6;} .st4{fill:#3E98C0;} .st5{fill:#A2C3D5;}
]]></style><path class="st3" d="M-1-.6h872v72H-1z"/><path class="st0" d="M520.3.1l-36.8 70.4-484.2.2L-.6.1z"/><g class="st1"><path class="st5" d="M696.5 59.2h-48l31.7-11.6h48zM755.4 59.2h-47.9l31.7-11.6h47.9zM814.3 59.2h-47.9l31.7-11.6h48zM736.3 44.2h-47.9l31.7-11.7H768zM795.2 44.2h-47.9L779 32.5h48zM871 32.5h-33l-31.8 11.7h48L871 38zM782 71.4l24.2-8.9h-47.9L734 71.4zM723 71.4l24.3-8.9h-48l-24.2 8.9zM664.1 71.4l24.3-8.9h-48l-24.2 8.9z"/><path class="st2" d="M699.5 52h-61.8l40.9-15.7h61.8zM778.5 52h-61.8l40.9-15.7h61.8zM748.6 32.9h-61.8l40.9-15.8h61.8zM827.7 32.9h-61.8l40.9-15.8h61.8z"/><path class="st4" d="M764.7 27.8h-91.5l60.5-23.3h91.5z"/></g></svg>