<svg xmlns="http://www.w3.org/2000/svg" width="872" height="72" viewBox="0 0 872 72"><path fill="#4D4D4D" d="M-1-.6h872v72h-872z"/><path fill="#5B5B5B" d="M520.3.1l-36.8 70.4-484.2.2.1-70.6z"/><g opacity=".3"><path d="M696.5 59.2h-48l31.7-11.6h48zm58.9 0h-47.9l31.7-11.6h47.9zm58.9 0h-47.9l31.7-11.6h48zm-78-15h-47.9l31.7-11.7h47.9zm58.9 0h-47.9l31.7-11.7h48zm75.8-11.7h-33l-31.8 11.7h48l16.8-6.2zm-89 38.9l24.2-8.9h-47.9l-24.3 8.9zm-59 0l24.3-8.9h-48l-24.2 8.9zm-58.9 0l24.3-8.9h-48l-24.2 8.9z" fill="#BFBFBF"/><path d="M699.5 52h-61.8l40.9-15.7h61.8zm79 0h-61.8l40.9-15.7h61.8zm-29.9-19.1h-61.8l40.9-15.8h61.8zm79.1 0h-61.8l40.9-15.8h61.8z" fill="#999"/><path fill="#737373" d="M764.7 27.8h-91.5l60.5-23.3h91.5z"/></g></svg>