<svg xmlns="http://www.w3.org/2000/svg" width="872" height="72" viewBox="0 0 872 72"><style type="text/css"><![CDATA[
	.st0{opacity:0.8;fill:#1D1D1B;enable-background:new;} .st1{fill:#575757;enable-background:new;} .st2{fill:#5B5B5B;}
]]></style><path class="st0" d="M-.9 0h872v72h-872z"/><path class="st1" d="M547.8 32.1h7.5v7.7h-7.5zm0 15.5h7.5v7.7h-7.5zm7.5-7.7h7.5v7.7h-7.5zm7.5 7.7h7.5v7.7h-7.5zm-7.5-23.2h7.5v7.7h-7.5zm7.5 7.7h7.5v7.7h-7.5zm7.5 7.8h7.5v7.7h-7.5zm-30.1 15.4h7.5v7.7h-7.5zm15.1 0h7.5v7.7h-7.5zm15 0h7.5v7.7h-7.5zm7.5-7.7h7.5v7.7h-7.5zm7.6 7.7h7.5v7.7h-7.5zm0-15.4h7.5v7.7h-7.5zm-7.6-7.8h7.5v7.7h-7.5zm-7.5-7.7h7.5v7.7h-7.5zm-7.5-7.7h7.5v7.7h-7.5zm0-15.4h7.5v7.7h-7.5zm7.5 7.7h7.5v7.7h-7.5zm7.5-7.7h7.5v7.7h-7.5zm7.6 7.7h7.5v7.7h-7.5zm-7.6 7.7h7.5v7.7h-7.5zm7.6 7.7h7.5v7.7h-7.5zm7.5-23.1h7.5v7.7h-7.5zm7.5 7.7h7.5v7.7h-7.5zm7.5 7.7h7.5v7.7h-7.5zm-7.5 7.7h7.5v7.7h-7.5zm7.5 7.7h7.5v7.7h-7.5zm-7.5 7.8h7.5v7.7h-7.5zm7.5 7.7h7.5v7.7h-7.5zm-15-30.9h7.5v7.7h-7.5zm0 15.4h7.5v7.7h-7.5zm0 15.5h7.5v7.7h-7.5zm22.6-7.7h7.5v7.7h-7.5zm7.5 7.7h7.5v7.7h-7.5zm-7.5-23.2h7.5v7.7h-7.5zm7.5 7.7h7.5v7.7h-7.5zm7.5 7.8h7.5v7.7h-7.5zm-30.1 15.4h7.5v7.7h-7.5zm15.1 0h7.5v7.7h-7.5zm15 0h7.5v7.7h-7.5zm7.5-7.7h7.5v7.7h-7.5zm7.5 7.7h7.5v7.7h-7.5zm0-15.4h7.5v7.7h-7.5zm-7.5-7.8h7.5v7.7h-7.5zm-7.5-7.7h7.5v7.7h-7.5zm-7.5-7.7h7.5v7.7h-7.5zm-7.5-7.7h7.5v7.7h-7.5zm-7.6-7.7h7.5v7.7h-7.5zm15.1 0h7.5v7.7h-7.5zm7.5 7.7h7.5v7.7h-7.5zm7.5-7.7h7.5v7.7h-7.5zm7.5 7.7h7.5v7.7h-7.5zm-7.5 7.7h7.5v7.7h-7.5zm7.5 7.7h7.5v7.7h-7.5zm7.6-23.1h7.5v7.7h-7.5zm7.5 7.7h7.5v7.7h-7.5zm7.5 7.7h7.5v7.7h-7.5zm-7.5 7.7h7.5v7.7h-7.5zm7.5 7.7h7.5v7.7h-7.5zm-7.5 7.8h7.5v7.7h-7.5zm7.5 7.7h7.5v7.7h-7.5zm-15-30.9h7.5v7.7h-7.5zm0 15.4h7.5v7.7h-7.5zm0 15.5h7.5v7.7h-7.5zm22.5-7.7h7.5v7.7h-7.5zm7.5 7.7h7.5v7.7h-7.5zm-7.5-23.2h7.5v7.7h-7.5zm7.5 7.7h7.5v7.7h-7.5zm7.6 7.8h7.5v7.7h-7.5zm-30.1 15.4h7.5v7.7h-7.5zm15 0h7.5v7.7h-7.5zm15.1 0h7.5v7.7h-7.5zm7.5-7.7h7.5v7.7h-7.5zm7.5 7.7h7.5v7.7h-7.5zm0-15.4h7.5v7.7h-7.5zm-7.5-7.8h7.5v7.7h-7.5zm-7.5-7.7h7.5v7.7h-7.5zm-7.6-7.7h7.5v7.7h-7.5zm-7.5-7.7h7.5v7.7h-7.5zm-7.5-7.7h7.5v7.7h-7.5zm15 0h7.5v7.7h-7.5zm7.6 7.7h7.5v7.7h-7.5zm7.5-7.7h7.5v7.7h-7.5zm7.5 7.7h7.5v7.7h-7.5zm-7.5 7.7h7.5v7.7h-7.5zm7.5 7.7h7.5v7.7h-7.5zm7.5-23.1h7.5v7.7h-7.5zm7.5 7.7h7.5v7.7h-7.5zm7.6 7.7h7.5v7.7h-7.5zm-7.6 7.7h7.5v7.7h-7.5zm7.6 7.7h7.5v7.7h-7.5zm-7.6 7.8h7.5v7.7h-7.5zm7.6 7.7h7.5v7.7h-7.5zm-15.1-30.9h7.5v7.7h-7.5zm0 15.4h7.5v7.7h-7.5zm0 15.5h7.5v7.7h-7.5zm22.6-7.7h7.5v7.7h-7.5zm7.5 7.7h7.5v7.7h-7.5zm-7.5-23.2h7.5v7.7h-7.5zm7.5 7.7h7.5v7.7h-7.5zm7.5 7.8h7.5v7.7h-7.5zm-30.1 15.4h7.5v7.7h-7.5zm15.1 0h7.5v7.7h-7.5zm15 0h7.5v7.7h-7.5zm7.5-7.7h7.5v7.7h-7.5zm7.6 7.7h7.5v7.7h-7.5zm0-15.4h7.5v7.7h-7.5zm-7.6-7.8h7.5v7.7h-7.5zm-7.5-7.7h7.5v7.7h-7.5zm-7.5-7.7h7.5v7.7h-7.5zm-7.5-7.7h7.5v7.7h-7.5zm-7.5-7.7h7.5v7.7h-7.5zm15 0h7.5v7.7h-7.5zm7.5 7.7h7.5v7.7h-7.5zm7.5-7.7h7.5v7.7h-7.5zm7.6 7.7h7.5v7.7h-7.5zm-7.6 7.7h7.5v7.7h-7.5zm7.6 7.7h7.5v7.7h-7.5zm7.5-23.1h7.5v7.7h-7.5zm7.5 7.7h7.5v7.7h-7.5zm7.5 7.7h7.5v7.7h-7.5zm-7.5 7.7h7.5v7.7h-7.5zm7.5 7.7h7.5v7.7h-7.5zm-7.5 7.8h7.5v7.7h-7.5zm7.5 7.7h7.5v7.7h-7.5zm-15-30.9h7.5v7.7h-7.5zm0 15.4h7.5v7.7h-7.5zm0 15.5h7.5v7.7h-7.5zm22.5-7.7h7.5v7.7h-7.5zm7.6 7.7h7.5v7.7h-7.5zm-7.6-23.2h7.5v7.7h-7.5zm7.6 7.7h7.5v7.7h-7.5zm7.5 7.8h7.5v7.7h-7.5zm-30.1 15.4h7.5v7.7h-7.5zm15 0h7.5v7.7h-7.5zm15.1 0h7.5v7.7h-7.5zm7.5-7.7h7.5v7.7h-7.5zm7.5 7.7h7.5v7.7h-7.5zm0-15.4h7.5v7.7h-7.5zm-7.5-7.8h7.5v7.7h-7.5zm-7.5-7.7h7.5v7.7h-7.5zm-7.5-7.7h7.5v7.7h-7.5zm-7.6-7.7h7.5v7.7h-7.5zm-7.5-7.7h7.5v7.7h-7.5zm15.1 0h7.5v7.7h-7.5zm7.5 7.7h7.5v7.7h-7.5zm7.5-7.7h7.5v7.7h-7.5zm7.5 7.7h7.5v7.7h-7.5zm-7.5 7.7h7.5v7.7h-7.5zm7.5 7.7h7.5v7.7h-7.5zm7.5-7.7h7.5v7.7h-7.5zm0 15.4h7.5v7.7h-7.5zm0 15.5h7.5v7.7h-7.5zm7.6-7.7h7.5v7.7h-7.5zm7.5 7.7h7.5v7.7h-7.5zm-7.5-23.2h7.5v7.7h-7.5zm7.5 7.7h7.5v7.7h-7.5zm7.5 7.8h7.5v7.7h-7.5zm-15 15.4h7.5v7.7h-7.5zm15 0h7.5v7.7h-7.5zm7.5-7.7h7.5v7.7h-7.5zm0-15.5h7.5v7.7h-7.5zm-7.5-7.7h7.5v7.7h-7.5zm-7.5-7.7h7.5v7.7h-7.5zm-7.5-7.7h7.5v7.7h-7.5zm-7.6-7.7h7.5v7.7h-7.5zm15.1 0h7.5v7.7h-7.5zm7.5 7.7h7.5v7.7h-7.5zm7.5-7.7h7.5v7.7h-7.5zm0 15.4h7.5v7.7h-7.5zm-315.8 46.3h7.5v7.7h-7.5zm15 0h7.5v7.7h-7.5zm15 0h7.5v7.7h-7.5zm30.1 0h7.5v7.7h-7.5zm-15 0h7.5v7.7h-7.5zm30.1 0h7.5v7.7h-7.5zm15 0h7.5v7.7h-7.5zm30.1 0h7.5v7.7h-7.5zm-15 0h7.5v7.7h-7.5zm30 0h7.5v7.7h-7.5zm15.1 0h7.5v7.7h-7.5zm30.1 0h7.5v7.7h-7.5zm-15.1 0h7.5v7.7h-7.5zm30.1 0h7.5v7.7h-7.5zm15 0h7.5v7.7h-7.5zm30.1 0h7.5v7.7h-7.5zm-15 0h7.5v7.7h-7.5zm30.1 0h7.5v7.7h-7.5zm15 0h7.5v7.7h-7.5zm15 0h7.5v7.7h-7.5zm15.1 0h7.5v7.7h-7.5zm15 0h7.5v7.7h-7.5z"/><path class="st2" d="M574.4 0l-36.8 72-538.5-.2.1-71.6z"/></svg>