<?xml version="1.0" encoding="utf-8"?>
<!DOCTYPE svg PUBLIC "-//W3C//DTD SVG 1.1//EN" "http://www.w3.org/Graphics/SVG/1.1/DTD/svg11.dtd">
<svg version="1.1" id="Calque_1" xmlns="http://www.w3.org/2000/svg" xmlns:xlink="http://www.w3.org/1999/xlink" x="0px" y="0px"
	 width="872px" height="72px" viewBox="0 0 872 72" enable-background="new 0 0 872 72" xml:space="preserve">
<rect x="-0.85" y="-0.58" fill="#F3F0E9" width="872" height="72"/>
<rect x="547.77" y="31.2" opacity="0.1" fill="#3D3D3C" enable-background="new    " width="7.52" height="7.71"/>
<rect x="547.77" y="46.63" opacity="0.1" fill="#3D3D3C" enable-background="new    " width="7.52" height="7.71"/>
<rect x="554.29" y="38.91" opacity="0.1" fill="#3D3D3C" enable-background="new    " width="7.52" height="7.71"/>
<rect x="562.81" y="46.63" opacity="0.1" fill="#3D3D3C" enable-background="new    " width="7.52" height="7.71"/>
<rect x="555.29" y="23.49" opacity="0.1" fill="#3D3D3C" enable-background="new    " width="7.52" height="7.71"/>
<rect x="562.81" y="31.2" opacity="0.1" fill="#3D3D3C" enable-background="new    " width="7.52" height="7.71"/>
<rect x="570.33" y="38.91" opacity="0.1" fill="#3D3D3C" enable-background="new    " width="7.52" height="7.71"/>
<rect x="540.25" y="54.34" opacity="0.1" fill="#3D3D3C" enable-background="new    " width="7.52" height="7.71"/>
<rect x="532.73" y="62.73" opacity="0.1" fill="#3D3D3C" enable-background="new    " width="7.52" height="7.71"/>
<rect x="555.29" y="54.34" opacity="0.1" fill="#3D3D3C" enable-background="new    " width="7.52" height="7.71"/>
<rect x="570.33" y="54.34" opacity="0.1" fill="#3D3D3C" enable-background="new    " width="7.52" height="7.71"/>
<rect x="577.85" y="46.63" opacity="0.1" fill="#3D3D3C" enable-background="new    " width="7.52" height="7.71"/>
<rect x="585.37" y="54.34" opacity="0.1" fill="#3D3D3C" enable-background="new    " width="7.52" height="7.71"/>
<rect x="585.37" y="38.91" opacity="0.1" fill="#3D3D3C" enable-background="new    " width="7.52" height="7.71"/>
<rect x="577.85" y="31.2" opacity="0.1" fill="#3D3D3C" enable-background="new    " width="7.52" height="7.71"/>
<rect x="570.33" y="23.49" opacity="0.1" fill="#3D3D3C" enable-background="new    " width="7.52" height="7.71"/>
<rect x="562.81" y="15.77" opacity="0.1" fill="#3D3D3C" enable-background="new    " width="7.52" height="7.71"/>
<rect x="562.81" y="0.34" opacity="0.1" fill="#3D3D3C" enable-background="new    " width="7.52" height="7.71"/>
<rect x="570.33" y="8.06" opacity="0.1" fill="#3D3D3C" enable-background="new    " width="7.52" height="7.71"/>
<rect x="577.85" y="0.34" opacity="0.1" fill="#3D3D3C" enable-background="new    " width="7.52" height="7.71"/>
<rect x="585.37" y="8.06" opacity="0.1" fill="#3D3D3C" enable-background="new    " width="7.52" height="7.71"/>
<rect x="577.85" y="15.77" opacity="0.1" fill="#3D3D3C" enable-background="new    " width="7.52" height="7.71"/>
<rect x="585.37" y="23.49" opacity="0.1" fill="#3D3D3C" enable-background="new    " width="7.52" height="7.71"/>
<rect x="592.89" y="0.34" opacity="0.1" fill="#3D3D3C" enable-background="new    " width="7.52" height="7.71"/>
<rect x="600.41" y="8.06" opacity="0.1" fill="#3D3D3C" enable-background="new    " width="7.52" height="7.71"/>
<rect x="607.93" y="15.77" opacity="0.1" fill="#3D3D3C" enable-background="new    " width="7.52" height="7.71"/>
<rect x="600.41" y="23.49" opacity="0.1" fill="#3D3D3C" enable-background="new    " width="7.52" height="7.71"/>
<rect x="607.93" y="31.2" opacity="0.1" fill="#3D3D3C" enable-background="new    " width="7.52" height="7.71"/>
<rect x="600.41" y="38.91" opacity="0.1" fill="#3D3D3C" enable-background="new    " width="7.52" height="7.71"/>
<rect x="607.93" y="46.63" opacity="0.1" fill="#3D3D3C" enable-background="new    " width="7.52" height="7.71"/>
<rect x="592.89" y="15.77" opacity="0.1" fill="#3D3D3C" enable-background="new    " width="7.52" height="7.71"/>
<rect x="592.89" y="31.2" opacity="0.1" fill="#3D3D3C" enable-background="new    " width="7.52" height="7.71"/>
<rect x="592.89" y="46.63" opacity="0.1" fill="#3D3D3C" enable-background="new    " width="7.52" height="7.71"/>
<rect x="614.45" y="38.91" opacity="0.1" fill="#3D3D3C" enable-background="new    " width="7.52" height="7.71"/>
<rect x="622.97" y="46.63" opacity="0.1" fill="#3D3D3C" enable-background="new    " width="7.52" height="7.71"/>
<rect x="615.46" y="23.49" opacity="0.1" fill="#3D3D3C" enable-background="new    " width="7.52" height="7.71"/>
<rect x="622.97" y="31.2" opacity="0.1" fill="#3D3D3C" enable-background="new    " width="7.52" height="7.71"/>
<rect x="630.5" y="38.91" opacity="0.1" fill="#3D3D3C" enable-background="new    " width="7.52" height="7.71"/>
<rect x="600.41" y="54.34" opacity="0.1" fill="#3D3D3C" enable-background="new    " width="7.52" height="7.71"/>
<rect x="615.46" y="54.34" opacity="0.1" fill="#3D3D3C" enable-background="new    " width="7.52" height="7.71"/>
<rect x="630.5" y="54.34" opacity="0.1" fill="#3D3D3C" enable-background="new    " width="7.52" height="7.71"/>
<rect x="638.01" y="46.63" opacity="0.1" fill="#3D3D3C" enable-background="new    " width="7.52" height="7.71"/>
<rect x="645.54" y="54.34" opacity="0.1" fill="#3D3D3C" enable-background="new    " width="7.52" height="7.71"/>
<rect x="645.54" y="38.91" opacity="0.1" fill="#3D3D3C" enable-background="new    " width="7.52" height="7.71"/>
<rect x="638.01" y="31.2" opacity="0.1" fill="#3D3D3C" enable-background="new    " width="7.52" height="7.71"/>
<rect x="630.5" y="23.49" opacity="0.1" fill="#3D3D3C" enable-background="new    " width="7.52" height="7.71"/>
<rect x="622.97" y="15.77" opacity="0.1" fill="#3D3D3C" enable-background="new    " width="7.52" height="7.71"/>
<rect x="615.46" y="8.06" opacity="0.1" fill="#3D3D3C" enable-background="new    " width="7.52" height="7.71"/>
<rect x="607.93" y="0.34" opacity="0.1" fill="#3D3D3C" enable-background="new    " width="7.52" height="7.71"/>
<rect x="622.97" y="0.34" opacity="0.1" fill="#3D3D3C" enable-background="new    " width="7.52" height="7.71"/>
<rect x="630.5" y="8.06" opacity="0.1" fill="#3D3D3C" enable-background="new    " width="7.52" height="7.71"/>
<rect x="638.01" y="0.34" opacity="0.1" fill="#3D3D3C" enable-background="new    " width="7.52" height="7.71"/>
<rect x="645.54" y="8.06" opacity="0.1" fill="#3D3D3C" enable-background="new    " width="7.52" height="7.71"/>
<rect x="638.01" y="15.77" opacity="0.1" fill="#3D3D3C" enable-background="new    " width="7.52" height="7.71"/>
<rect x="645.54" y="23.49" opacity="0.1" fill="#3D3D3C" enable-background="new    " width="7.52" height="7.71"/>
<rect x="653.06" y="0.34" opacity="0.1" fill="#3D3D3C" enable-background="new    " width="7.52" height="7.71"/>
<rect x="660.58" y="8.06" opacity="0.1" fill="#3D3D3C" enable-background="new    " width="7.52" height="7.71"/>
<rect x="668.1" y="15.77" opacity="0.1" fill="#3D3D3C" enable-background="new    " width="7.52" height="7.71"/>
<rect x="660.58" y="23.49" opacity="0.1" fill="#3D3D3C" enable-background="new    " width="7.52" height="7.71"/>
<rect x="668.1" y="31.2" opacity="0.1" fill="#3D3D3C" enable-background="new    " width="7.52" height="7.71"/>
<rect x="660.58" y="38.91" opacity="0.1" fill="#3D3D3C" enable-background="new    " width="7.52" height="7.71"/>
<rect x="668.1" y="46.63" opacity="0.1" fill="#3D3D3C" enable-background="new    " width="7.52" height="7.71"/>
<rect x="653.06" y="15.77" opacity="0.1" fill="#3D3D3C" enable-background="new    " width="7.52" height="7.71"/>
<rect x="653.06" y="31.2" opacity="0.1" fill="#3D3D3C" enable-background="new    " width="7.52" height="7.71"/>
<rect x="653.06" y="46.63" opacity="0.1" fill="#3D3D3C" enable-background="new    " width="7.52" height="7.71"/>
<rect x="674.62" y="38.91" opacity="0.1" fill="#3D3D3C" enable-background="new    " width="7.52" height="7.71"/>
<rect x="683.14" y="46.63" opacity="0.1" fill="#3D3D3C" enable-background="new    " width="7.52" height="7.71"/>
<rect x="675.62" y="23.49" opacity="0.1" fill="#3D3D3C" enable-background="new    " width="7.52" height="7.71"/>
<rect x="683.14" y="31.2" opacity="0.1" fill="#3D3D3C" enable-background="new    " width="7.52" height="7.71"/>
<rect x="690.66" y="38.91" opacity="0.1" fill="#3D3D3C" enable-background="new    " width="7.52" height="7.71"/>
<rect x="660.58" y="54.34" opacity="0.1" fill="#3D3D3C" enable-background="new    " width="7.52" height="7.71"/>
<rect x="675.62" y="54.34" opacity="0.1" fill="#3D3D3C" enable-background="new    " width="7.52" height="7.71"/>
<rect x="690.66" y="54.34" opacity="0.1" fill="#3D3D3C" enable-background="new    " width="7.52" height="7.71"/>
<rect x="698.18" y="46.63" opacity="0.1" fill="#3D3D3C" enable-background="new    " width="7.52" height="7.71"/>
<rect x="705.7" y="54.34" opacity="0.1" fill="#3D3D3C" enable-background="new    " width="7.52" height="7.71"/>
<rect x="705.7" y="38.91" opacity="0.1" fill="#3D3D3C" enable-background="new    " width="7.52" height="7.71"/>
<rect x="698.18" y="31.2" opacity="0.1" fill="#3D3D3C" enable-background="new    " width="7.52" height="7.71"/>
<rect x="690.66" y="23.49" opacity="0.1" fill="#3D3D3C" enable-background="new    " width="7.52" height="7.71"/>
<rect x="683.14" y="15.77" opacity="0.1" fill="#3D3D3C" enable-background="new    " width="7.52" height="7.71"/>
<rect x="675.62" y="8.06" opacity="0.1" fill="#3D3D3C" enable-background="new    " width="7.52" height="7.71"/>
<rect x="668.1" y="0.34" opacity="0.1" fill="#3D3D3C" enable-background="new    " width="7.52" height="7.71"/>
<rect x="683.14" y="0.34" opacity="0.1" fill="#3D3D3C" enable-background="new    " width="7.52" height="7.71"/>
<rect x="690.66" y="8.06" opacity="0.1" fill="#3D3D3C" enable-background="new    " width="7.52" height="7.71"/>
<rect x="698.18" y="0.34" opacity="0.1" fill="#3D3D3C" enable-background="new    " width="7.52" height="7.71"/>
<rect x="705.7" y="8.06" opacity="0.1" fill="#3D3D3C" enable-background="new    " width="7.52" height="7.71"/>
<rect x="698.18" y="15.77" opacity="0.1" fill="#3D3D3C" enable-background="new    " width="7.52" height="7.71"/>
<rect x="705.7" y="23.49" opacity="0.1" fill="#3D3D3C" enable-background="new    " width="7.52" height="7.71"/>
<rect x="713.22" y="0.34" opacity="0.1" fill="#3D3D3C" enable-background="new    " width="7.52" height="7.71"/>
<rect x="720.74" y="8.06" opacity="0.1" fill="#3D3D3C" enable-background="new    " width="7.52" height="7.71"/>
<rect x="728.26" y="15.77" opacity="0.1" fill="#3D3D3C" enable-background="new    " width="7.52" height="7.71"/>
<rect x="720.74" y="23.49" opacity="0.1" fill="#3D3D3C" enable-background="new    " width="7.52" height="7.71"/>
<rect x="728.26" y="31.2" opacity="0.1" fill="#3D3D3C" enable-background="new    " width="7.52" height="7.71"/>
<rect x="720.74" y="38.91" opacity="0.1" fill="#3D3D3C" enable-background="new    " width="7.52" height="7.71"/>
<rect x="728.26" y="46.63" opacity="0.1" fill="#3D3D3C" enable-background="new    " width="7.52" height="7.71"/>
<rect x="713.22" y="15.77" opacity="0.1" fill="#3D3D3C" enable-background="new    " width="7.52" height="7.71"/>
<rect x="713.22" y="31.2" opacity="0.1" fill="#3D3D3C" enable-background="new    " width="7.52" height="7.71"/>
<rect x="713.22" y="46.63" opacity="0.1" fill="#3D3D3C" enable-background="new    " width="7.52" height="7.71"/>
<rect x="734.78" y="38.91" opacity="0.1" fill="#3D3D3C" enable-background="new    " width="7.52" height="7.71"/>
<rect x="743.3" y="46.63" opacity="0.1" fill="#3D3D3C" enable-background="new    " width="7.52" height="7.71"/>
<rect x="735.78" y="23.49" opacity="0.1" fill="#3D3D3C" enable-background="new    " width="7.52" height="7.71"/>
<rect x="743.3" y="31.2" opacity="0.1" fill="#3D3D3C" enable-background="new    " width="7.52" height="7.71"/>
<rect x="750.82" y="38.91" opacity="0.1" fill="#3D3D3C" enable-background="new    " width="7.52" height="7.71"/>
<rect x="720.74" y="54.34" opacity="0.1" fill="#3D3D3C" enable-background="new    " width="7.52" height="7.71"/>
<rect x="735.78" y="54.34" opacity="0.1" fill="#3D3D3C" enable-background="new    " width="7.52" height="7.71"/>
<rect x="750.82" y="54.34" opacity="0.1" fill="#3D3D3C" enable-background="new    " width="7.52" height="7.71"/>
<rect x="758.34" y="46.63" opacity="0.1" fill="#3D3D3C" enable-background="new    " width="7.52" height="7.71"/>
<rect x="765.86" y="54.34" opacity="0.1" fill="#3D3D3C" enable-background="new    " width="7.52" height="7.71"/>
<rect x="765.86" y="38.91" opacity="0.1" fill="#3D3D3C" enable-background="new    " width="7.52" height="7.71"/>
<rect x="758.34" y="31.2" opacity="0.1" fill="#3D3D3C" enable-background="new    " width="7.52" height="7.71"/>
<rect x="750.82" y="23.49" opacity="0.1" fill="#3D3D3C" enable-background="new    " width="7.52" height="7.71"/>
<rect x="743.3" y="15.77" opacity="0.1" fill="#3D3D3C" enable-background="new    " width="7.52" height="7.71"/>
<rect x="735.78" y="8.06" opacity="0.1" fill="#3D3D3C" enable-background="new    " width="7.52" height="7.71"/>
<rect x="728.26" y="0.34" opacity="0.1" fill="#3D3D3C" enable-background="new    " width="7.52" height="7.71"/>
<rect x="743.3" y="0.34" opacity="0.1" fill="#3D3D3C" enable-background="new    " width="7.52" height="7.71"/>
<rect x="750.82" y="8.06" opacity="0.1" fill="#3D3D3C" enable-background="new    " width="7.52" height="7.71"/>
<rect x="758.34" y="0.34" opacity="0.1" fill="#3D3D3C" enable-background="new    " width="7.52" height="7.71"/>
<rect x="765.86" y="8.06" opacity="0.1" fill="#3D3D3C" enable-background="new    " width="7.52" height="7.71"/>
<rect x="758.34" y="15.77" opacity="0.1" fill="#3D3D3C" enable-background="new    " width="7.52" height="7.71"/>
<rect x="765.86" y="23.49" opacity="0.1" fill="#3D3D3C" enable-background="new    " width="7.52" height="7.71"/>
<rect x="773.38" y="0.34" opacity="0.1" fill="#3D3D3C" enable-background="new    " width="7.52" height="7.71"/>
<rect x="780.9" y="8.06" opacity="0.1" fill="#3D3D3C" enable-background="new    " width="7.52" height="7.71"/>
<rect x="788.42" y="15.77" opacity="0.1" fill="#3D3D3C" enable-background="new    " width="7.52" height="7.71"/>
<rect x="780.9" y="23.49" opacity="0.1" fill="#3D3D3C" enable-background="new    " width="7.52" height="7.71"/>
<rect x="788.42" y="31.2" opacity="0.1" fill="#3D3D3C" enable-background="new    " width="7.52" height="7.71"/>
<rect x="780.9" y="38.91" opacity="0.1" fill="#3D3D3C" enable-background="new    " width="7.52" height="7.71"/>
<rect x="788.42" y="46.63" opacity="0.1" fill="#3D3D3C" enable-background="new    " width="7.52" height="7.71"/>
<rect x="773.38" y="15.77" opacity="0.1" fill="#3D3D3C" enable-background="new    " width="7.52" height="7.71"/>
<rect x="773.38" y="31.2" opacity="0.1" fill="#3D3D3C" enable-background="new    " width="7.52" height="7.71"/>
<rect x="773.38" y="46.63" opacity="0.1" fill="#3D3D3C" enable-background="new    " width="7.52" height="7.71"/>
<rect x="794.94" y="38.91" opacity="0.1" fill="#3D3D3C" enable-background="new    " width="7.52" height="7.71"/>
<rect x="803.46" y="46.63" opacity="0.1" fill="#3D3D3C" enable-background="new    " width="7.52" height="7.71"/>
<rect x="795.94" y="23.49" opacity="0.1" fill="#3D3D3C" enable-background="new    " width="7.52" height="7.71"/>
<rect x="803.46" y="31.2" opacity="0.1" fill="#3D3D3C" enable-background="new    " width="7.52" height="7.71"/>
<rect x="810.98" y="38.91" opacity="0.1" fill="#3D3D3C" enable-background="new    " width="7.52" height="7.71"/>
<rect x="780.9" y="54.34" opacity="0.1" fill="#3D3D3C" enable-background="new    " width="7.52" height="7.71"/>
<rect x="795.94" y="54.34" opacity="0.1" fill="#3D3D3C" enable-background="new    " width="7.52" height="7.71"/>
<rect x="810.98" y="54.34" opacity="0.1" fill="#3D3D3C" enable-background="new    " width="7.52" height="7.71"/>
<rect x="818.5" y="46.63" opacity="0.1" fill="#3D3D3C" enable-background="new    " width="7.52" height="7.71"/>
<rect x="826.02" y="54.34" opacity="0.1" fill="#3D3D3C" enable-background="new    " width="7.52" height="7.71"/>
<rect x="826.02" y="38.91" opacity="0.1" fill="#3D3D3C" enable-background="new    " width="7.52" height="7.71"/>
<rect x="818.5" y="31.2" opacity="0.1" fill="#3D3D3C" enable-background="new    " width="7.52" height="7.71"/>
<rect x="810.98" y="23.49" opacity="0.1" fill="#3D3D3C" enable-background="new    " width="7.52" height="7.71"/>
<rect x="803.46" y="15.77" opacity="0.1" fill="#3D3D3C" enable-background="new    " width="7.52" height="7.71"/>
<rect x="795.94" y="8.06" opacity="0.1" fill="#3D3D3C" enable-background="new    " width="7.52" height="7.71"/>
<rect x="788.42" y="0.34" opacity="0.1" fill="#3D3D3C" enable-background="new    " width="7.52" height="7.71"/>
<rect x="803.46" y="0.34" opacity="0.1" fill="#3D3D3C" enable-background="new    " width="7.52" height="7.71"/>
<rect x="810.98" y="8.06" opacity="0.1" fill="#3D3D3C" enable-background="new    " width="7.52" height="7.71"/>
<rect x="818.5" y="0.34" opacity="0.1" fill="#3D3D3C" enable-background="new    " width="7.52" height="7.71"/>
<rect x="826.02" y="8.06" opacity="0.1" fill="#3D3D3C" enable-background="new    " width="7.52" height="7.71"/>
<rect x="818.5" y="15.77" opacity="0.1" fill="#3D3D3C" enable-background="new    " width="7.52" height="7.71"/>
<rect x="826.02" y="23.49" opacity="0.1" fill="#3D3D3C" enable-background="new    " width="7.52" height="7.71"/>
<rect x="833.54" y="15.77" opacity="0.1" fill="#3D3D3C" enable-background="new    " width="7.52" height="7.71"/>
<rect x="833.54" y="31.2" opacity="0.1" fill="#3D3D3C" enable-background="new    " width="7.52" height="7.71"/>
<rect x="833.54" y="46.63" opacity="0.1" fill="#3D3D3C" enable-background="new    " width="7.52" height="7.71"/>
<rect x="840.06" y="38.91" opacity="0.1" fill="#3D3D3C" enable-background="new    " width="7.52" height="7.71"/>
<rect x="848.58" y="46.63" opacity="0.1" fill="#3D3D3C" enable-background="new    " width="7.52" height="7.71"/>
<rect x="841.06" y="23.49" opacity="0.1" fill="#3D3D3C" enable-background="new    " width="7.52" height="7.71"/>
<rect x="848.58" y="31.2" opacity="0.1" fill="#3D3D3C" enable-background="new    " width="7.52" height="7.71"/>
<rect x="856.11" y="38.91" opacity="0.1" fill="#3D3D3C" enable-background="new    " width="7.52" height="7.71"/>
<rect x="841.06" y="54.34" opacity="0.1" fill="#3D3D3C" enable-background="new    " width="7.52" height="7.71"/>
<rect x="856.11" y="54.34" opacity="0.1" fill="#3D3D3C" enable-background="new    " width="7.52" height="7.71"/>
<rect x="863.62" y="46.63" opacity="0.1" fill="#3D3D3C" enable-background="new    " width="7.52" height="7.71"/>
<rect x="863.62" y="31.2" opacity="0.1" fill="#3D3D3C" enable-background="new    " width="7.52" height="7.71"/>
<rect x="856.11" y="23.49" opacity="0.1" fill="#3D3D3C" enable-background="new    " width="7.52" height="7.71"/>
<rect x="848.58" y="15.77" opacity="0.1" fill="#3D3D3C" enable-background="new    " width="7.52" height="7.71"/>
<rect x="841.06" y="8.06" opacity="0.1" fill="#3D3D3C" enable-background="new    " width="7.52" height="7.71"/>
<rect x="833.54" y="0.34" opacity="0.1" fill="#3D3D3C" enable-background="new    " width="7.52" height="7.71"/>
<rect x="848.58" y="0.34" opacity="0.1" fill="#3D3D3C" enable-background="new    " width="7.52" height="7.71"/>
<rect x="856.11" y="8.06" opacity="0.1" fill="#3D3D3C" enable-background="new    " width="7.52" height="7.71"/>
<rect x="863.62" y="0.34" opacity="0.1" fill="#3D3D3C" enable-background="new    " width="7.52" height="7.71"/>
<rect x="863.62" y="15.77" opacity="0.1" fill="#3D3D3C" enable-background="new    " width="7.52" height="7.71"/>
<rect x="547.77" y="62.73" opacity="0.1" fill="#3D3D3C" enable-background="new    " width="7.52" height="7.71"/>
<rect x="562.81" y="62.73" opacity="0.1" fill="#3D3D3C" enable-background="new    " width="7.52" height="7.71"/>
<rect x="577.85" y="62.73" opacity="0.1" fill="#3D3D3C" enable-background="new    " width="7.52" height="7.71"/>
<rect x="607.93" y="62.73" opacity="0.1" fill="#3D3D3C" enable-background="new    " width="7.52" height="7.71"/>
<rect x="592.89" y="62.73" opacity="0.1" fill="#3D3D3C" enable-background="new    " width="7.52" height="7.71"/>
<rect x="622.97" y="62.73" opacity="0.1" fill="#3D3D3C" enable-background="new    " width="7.52" height="7.71"/>
<rect x="638.01" y="62.73" opacity="0.1" fill="#3D3D3C" enable-background="new    " width="7.52" height="7.71"/>
<rect x="668.1" y="62.73" opacity="0.1" fill="#3D3D3C" enable-background="new    " width="7.52" height="7.71"/>
<rect x="653.06" y="62.73" opacity="0.1" fill="#3D3D3C" enable-background="new    " width="7.52" height="7.71"/>
<rect x="683.14" y="62.73" opacity="0.1" fill="#3D3D3C" enable-background="new    " width="7.52" height="7.71"/>
<rect x="698.18" y="62.73" opacity="0.1" fill="#3D3D3C" enable-background="new    " width="7.52" height="7.71"/>
<rect x="728.26" y="62.73" opacity="0.1" fill="#3D3D3C" enable-background="new    " width="7.52" height="7.71"/>
<rect x="713.22" y="62.73" opacity="0.1" fill="#3D3D3C" enable-background="new    " width="7.52" height="7.71"/>
<rect x="743.3" y="62.73" opacity="0.1" fill="#3D3D3C" enable-background="new    " width="7.52" height="7.71"/>
<rect x="758.34" y="62.73" opacity="0.1" fill="#3D3D3C" enable-background="new    " width="7.52" height="7.71"/>
<rect x="788.42" y="62.73" opacity="0.1" fill="#3D3D3C" enable-background="new    " width="7.52" height="7.71"/>
<rect x="773.38" y="62.73" opacity="0.1" fill="#3D3D3C" enable-background="new    " width="7.52" height="7.71"/>
<rect x="803.46" y="62.73" opacity="0.1" fill="#3D3D3C" enable-background="new    " width="7.52" height="7.71"/>
<rect x="818.5" y="62.73" opacity="0.1" fill="#3D3D3C" enable-background="new    " width="7.52" height="7.71"/>
<rect x="833.54" y="62.73" opacity="0.1" fill="#3D3D3C" enable-background="new    " width="7.52" height="7.71"/>
<rect x="848.58" y="62.73" opacity="0.1" fill="#3D3D3C" enable-background="new    " width="7.52" height="7.71"/>
<rect x="863.62" y="62.73" opacity="0.1" fill="#3D3D3C" enable-background="new    " width="7.52" height="7.71"/>
<polygon fill="#DEDBD6" stroke="#D6D6D4" stroke-miterlimit="10" points="573.39,-0.51 536.6,71.15 0,70.31 0.02,-1.18 "/>
</svg>
