<?xml version="1.0" encoding="utf-8"?>
<!-- Generator: Adobe Illustrator 15.1.0, SVG Export Plug-In . SVG Version: 6.00 Build 0)  -->
<!DOCTYPE svg PUBLIC "-//W3C//DTD SVG 1.1//EN" "http://www.w3.org/Graphics/SVG/1.1/DTD/svg11.dtd">
<svg version="1.1" id="Calque_1" xmlns="http://www.w3.org/2000/svg" xmlns:xlink="http://www.w3.org/1999/xlink" x="0px" y="0px"
	 width="872px" height="72px" viewBox="0 0 872 72" enable-background="new 0 0 872 72" xml:space="preserve">
<rect x="-0.855" opacity="0.8" fill="#1D1D1B" enable-background="new    " width="872" height="72"/>
<rect x="472.568" y="1.287" opacity="0.06" fill="#9C9B9B" enable-background="new    " width="7.52" height="7.714"/>
<rect x="480.088" y="9" opacity="0.06" fill="#9C9B9B" enable-background="new    " width="7.521" height="7.714"/>
<rect x="487.608" y="16.714" opacity="0.06" fill="#9C9B9B" enable-background="new    " width="7.521" height="7.715"/>
<rect x="480.088" y="24.429" opacity="0.06" fill="#9C9B9B" enable-background="new    " width="7.521" height="7.714"/>
<rect x="487.608" y="32.143" opacity="0.06" fill="#9C9B9B" enable-background="new    " width="7.521" height="7.712"/>
<rect x="480.088" y="39.855" opacity="0.06" fill="#9C9B9B" enable-background="new    " width="7.521" height="7.717"/>
<rect x="487.608" y="47.572" opacity="0.06" fill="#9C9B9B" enable-background="new    " width="7.521" height="7.714"/>
<rect x="472.568" y="16.714" opacity="0.06" fill="#9C9B9B" enable-background="new    " width="7.52" height="7.715"/>
<rect x="472.568" y="32.143" opacity="0.06" fill="#9C9B9B" enable-background="new    " width="7.52" height="7.712"/>
<rect x="472.568" y="47.572" opacity="0.06" fill="#9C9B9B" enable-background="new    " width="7.52" height="7.714"/>
<rect x="495.129" y="39.855" opacity="0.06" fill="#9C9B9B" enable-background="new    " width="7.521" height="7.717"/>
<rect x="502.649" y="47.572" opacity="0.06" fill="#9C9B9B" enable-background="new    " width="7.521" height="7.714"/>
<rect x="495.129" y="24.429" opacity="0.06" fill="#9C9B9B" enable-background="new    " width="7.521" height="7.714"/>
<rect x="502.649" y="32.143" opacity="0.06" fill="#9C9B9B" enable-background="new    " width="7.521" height="7.712"/>
<rect x="510.17" y="39.855" opacity="0.06" fill="#9C9B9B" enable-background="new    " width="7.521" height="7.717"/>
<rect x="480.088" y="55.286" opacity="0.06" fill="#9C9B9B" enable-background="new    " width="7.521" height="7.715"/>
<rect x="495.129" y="55.286" opacity="0.06" fill="#9C9B9B" enable-background="new    " width="7.521" height="7.715"/>
<rect x="510.17" y="55.286" opacity="0.06" fill="#9C9B9B" enable-background="new    " width="7.521" height="7.715"/>
<rect x="517.689" y="47.572" opacity="0.06" fill="#9C9B9B" enable-background="new    " width="7.521" height="7.714"/>
<rect x="525.21" y="55.286" opacity="0.06" fill="#9C9B9B" enable-background="new    " width="7.521" height="7.715"/>
<rect x="525.21" y="39.855" opacity="0.06" fill="#9C9B9B" enable-background="new    " width="7.521" height="7.717"/>
<rect x="517.689" y="32.143" opacity="0.06" fill="#9C9B9B" enable-background="new    " width="7.521" height="7.712"/>
<rect x="510.17" y="24.429" opacity="0.06" fill="#9C9B9B" enable-background="new    " width="7.521" height="7.714"/>
<rect x="502.649" y="16.714" opacity="0.06" fill="#9C9B9B" enable-background="new    " width="7.521" height="7.715"/>
<rect x="495.129" y="9" opacity="0.06" fill="#9C9B9B" enable-background="new    " width="7.521" height="7.714"/>
<rect x="487.608" y="1.287" opacity="0.06" fill="#9C9B9B" enable-background="new    " width="7.521" height="7.714"/>
<rect x="502.649" y="1.287" opacity="0.06" fill="#9C9B9B" enable-background="new    " width="7.521" height="7.714"/>
<rect x="510.17" y="9" opacity="0.06" fill="#9C9B9B" enable-background="new    " width="7.521" height="7.714"/>
<rect x="517.689" y="1.287" opacity="0.06" fill="#9C9B9B" enable-background="new    " width="7.521" height="7.714"/>
<rect x="525.21" y="9" opacity="0.06" fill="#9C9B9B" enable-background="new    " width="7.521" height="7.714"/>
<rect x="517.689" y="16.714" opacity="0.06" fill="#9C9B9B" enable-background="new    " width="7.521" height="7.715"/>
<rect x="525.21" y="24.429" opacity="0.06" fill="#9C9B9B" enable-background="new    " width="7.521" height="7.714"/>
<rect x="532.73" y="1.287" opacity="0.06" fill="#9C9B9B" enable-background="new    " width="7.521" height="7.714"/>
<rect x="540.251" y="9" opacity="0.06" fill="#9C9B9B" enable-background="new    " width="7.521" height="7.714"/>
<rect x="547.771" y="16.714" opacity="0.06" fill="#9C9B9B" enable-background="new    " width="7.52" height="7.715"/>
<rect x="540.251" y="24.429" opacity="0.06" fill="#9C9B9B" enable-background="new    " width="7.521" height="7.714"/>
<rect x="547.771" y="32.143" opacity="0.06" fill="#9C9B9B" enable-background="new    " width="7.52" height="7.712"/>
<rect x="540.251" y="39.855" opacity="0.06" fill="#9C9B9B" enable-background="new    " width="7.521" height="7.717"/>
<rect x="547.771" y="47.572" opacity="0.06" fill="#9C9B9B" enable-background="new    " width="7.52" height="7.714"/>
<rect x="532.73" y="16.714" opacity="0.06" fill="#9C9B9B" enable-background="new    " width="7.521" height="7.715"/>
<rect x="532.73" y="32.143" opacity="0.06" fill="#9C9B9B" enable-background="new    " width="7.521" height="7.712"/>
<rect x="532.73" y="47.572" opacity="0.06" fill="#9C9B9B" enable-background="new    " width="7.521" height="7.714"/>
<rect x="555.291" y="39.855" opacity="0.06" fill="#9C9B9B" enable-background="new    " width="7.52" height="7.717"/>
<rect x="562.812" y="47.572" opacity="0.06" fill="#9C9B9B" enable-background="new    " width="7.521" height="7.714"/>
<rect x="555.291" y="24.429" opacity="0.06" fill="#9C9B9B" enable-background="new    " width="7.521" height="7.714"/>
<rect x="562.812" y="32.143" opacity="0.06" fill="#9C9B9B" enable-background="new    " width="7.521" height="7.712"/>
<rect x="570.332" y="39.855" opacity="0.06" fill="#9C9B9B" enable-background="new    " width="7.521" height="7.717"/>
<rect x="540.251" y="55.286" opacity="0.06" fill="#9C9B9B" enable-background="new    " width="7.521" height="7.715"/>
<rect x="487.608" y="63.001" opacity="0.06" fill="#9C9B9B" enable-background="new    " width="7.521" height="7.714"/>
<rect x="502.649" y="63.001" opacity="0.06" fill="#9C9B9B" enable-background="new    " width="7.521" height="7.714"/>
<rect x="517.689" y="63.001" opacity="0.06" fill="#9C9B9B" enable-background="new    " width="7.521" height="7.714"/>
<rect x="532.73" y="63.001" opacity="0.06" fill="#9C9B9B" enable-background="new    " width="7.521" height="7.714"/>
<rect x="555.291" y="55.286" opacity="0.06" fill="#9C9B9B" enable-background="new    " width="7.521" height="7.715"/>
<rect x="570.332" y="55.286" opacity="0.06" fill="#9C9B9B" enable-background="new    " width="7.521" height="7.715"/>
<rect x="577.854" y="47.572" opacity="0.06" fill="#9C9B9B" enable-background="new    " width="7.521" height="7.714"/>
<rect x="585.373" y="55.286" opacity="0.06" fill="#9C9B9B" enable-background="new    " width="7.52" height="7.715"/>
<rect x="585.373" y="39.855" opacity="0.06" fill="#9C9B9B" enable-background="new    " width="7.52" height="7.717"/>
<rect x="577.854" y="32.143" opacity="0.06" fill="#9C9B9B" enable-background="new    " width="7.521" height="7.712"/>
<rect x="570.332" y="24.429" opacity="0.06" fill="#9C9B9B" enable-background="new    " width="7.521" height="7.714"/>
<rect x="562.812" y="16.714" opacity="0.06" fill="#9C9B9B" enable-background="new    " width="7.521" height="7.715"/>
<rect x="555.291" y="9" opacity="0.06" fill="#9C9B9B" enable-background="new    " width="7.521" height="7.714"/>
<rect x="547.771" y="1.287" opacity="0.06" fill="#9C9B9B" enable-background="new    " width="7.52" height="7.714"/>
<rect x="562.812" y="1.287" opacity="0.06" fill="#9C9B9B" enable-background="new    " width="7.521" height="7.714"/>
<rect x="570.332" y="9" opacity="0.06" fill="#9C9B9B" enable-background="new    " width="7.521" height="7.714"/>
<rect x="577.854" y="1.287" opacity="0.06" fill="#9C9B9B" enable-background="new    " width="7.521" height="7.714"/>
<rect x="585.373" y="9" opacity="0.06" fill="#9C9B9B" enable-background="new    " width="7.52" height="7.714"/>
<rect x="577.854" y="16.714" opacity="0.06" fill="#9C9B9B" enable-background="new    " width="7.521" height="7.715"/>
<rect x="585.373" y="24.429" opacity="0.06" fill="#9C9B9B" enable-background="new    " width="7.52" height="7.714"/>
<rect x="592.893" y="1.287" opacity="0.06" fill="#9C9B9B" enable-background="new    " width="7.521" height="7.714"/>
<rect x="600.413" y="9" opacity="0.06" fill="#9C9B9B" enable-background="new    " width="7.521" height="7.714"/>
<rect x="607.934" y="16.714" opacity="0.06" fill="#9C9B9B" enable-background="new    " width="7.521" height="7.715"/>
<rect x="600.413" y="24.429" opacity="0.06" fill="#9C9B9B" enable-background="new    " width="7.521" height="7.714"/>
<rect x="607.934" y="32.143" opacity="0.06" fill="#9C9B9B" enable-background="new    " width="7.521" height="7.712"/>
<rect x="600.413" y="39.855" opacity="0.06" fill="#9C9B9B" enable-background="new    " width="7.521" height="7.717"/>
<rect x="607.934" y="47.572" opacity="0.06" fill="#9C9B9B" enable-background="new    " width="7.521" height="7.714"/>
<rect x="592.893" y="16.714" opacity="0.06" fill="#9C9B9B" enable-background="new    " width="7.521" height="7.715"/>
<rect x="592.893" y="32.143" opacity="0.06" fill="#9C9B9B" enable-background="new    " width="7.521" height="7.712"/>
<rect x="592.893" y="47.572" opacity="0.06" fill="#9C9B9B" enable-background="new    " width="7.521" height="7.714"/>
<rect x="615.454" y="39.855" opacity="0.06" fill="#9C9B9B" enable-background="new    " width="7.521" height="7.717"/>
<rect x="622.975" y="47.572" opacity="0.06" fill="#9C9B9B" enable-background="new    " width="7.521" height="7.714"/>
<rect x="615.454" y="24.429" opacity="0.06" fill="#9C9B9B" enable-background="new    " width="7.521" height="7.714"/>
<rect x="622.975" y="32.143" opacity="0.06" fill="#9C9B9B" enable-background="new    " width="7.521" height="7.712"/>
<rect x="630.495" y="39.855" opacity="0.06" fill="#9C9B9B" enable-background="new    " width="7.52" height="7.717"/>
<rect x="600.413" y="55.286" opacity="0.06" fill="#9C9B9B" enable-background="new    " width="7.521" height="7.715"/>
<rect x="615.454" y="55.286" opacity="0.06" fill="#9C9B9B" enable-background="new    " width="7.521" height="7.715"/>
<rect x="630.495" y="55.286" opacity="0.06" fill="#9C9B9B" enable-background="new    " width="7.52" height="7.715"/>
<rect x="638.015" y="47.572" opacity="0.06" fill="#9C9B9B" enable-background="new    " width="7.521" height="7.714"/>
<rect x="645.535" y="55.286" opacity="0.06" fill="#9C9B9B" enable-background="new    " width="7.521" height="7.715"/>
<rect x="645.535" y="39.855" opacity="0.06" fill="#9C9B9B" enable-background="new    " width="7.521" height="7.717"/>
<rect x="638.015" y="32.143" opacity="0.06" fill="#9C9B9B" enable-background="new    " width="7.521" height="7.712"/>
<rect x="630.495" y="24.429" opacity="0.06" fill="#9C9B9B" enable-background="new    " width="7.52" height="7.714"/>
<rect x="622.975" y="16.714" opacity="0.06" fill="#9C9B9B" enable-background="new    " width="7.521" height="7.715"/>
<rect x="615.454" y="9" opacity="0.06" fill="#9C9B9B" enable-background="new    " width="7.521" height="7.714"/>
<rect x="607.934" y="1.287" opacity="0.06" fill="#9C9B9B" enable-background="new    " width="7.521" height="7.714"/>
<rect x="622.975" y="1.287" opacity="0.06" fill="#9C9B9B" enable-background="new    " width="7.521" height="7.714"/>
<rect x="630.495" y="9" opacity="0.06" fill="#9C9B9B" enable-background="new    " width="7.52" height="7.714"/>
<rect x="638.015" y="1.287" opacity="0.06" fill="#9C9B9B" enable-background="new    " width="7.521" height="7.714"/>
<rect x="645.535" y="9" opacity="0.06" fill="#9C9B9B" enable-background="new    " width="7.521" height="7.714"/>
<rect x="638.015" y="16.714" opacity="0.06" fill="#9C9B9B" enable-background="new    " width="7.521" height="7.715"/>
<rect x="645.535" y="24.429" opacity="0.06" fill="#9C9B9B" enable-background="new    " width="7.521" height="7.714"/>
<rect x="653.056" y="1.287" opacity="0.06" fill="#9C9B9B" enable-background="new    " width="7.521" height="7.714"/>
<rect x="660.576" y="9" opacity="0.06" fill="#9C9B9B" enable-background="new    " width="7.521" height="7.714"/>
<rect x="668.097" y="16.714" opacity="0.06" fill="#9C9B9B" enable-background="new    " width="7.521" height="7.715"/>
<rect x="660.576" y="24.429" opacity="0.06" fill="#9C9B9B" enable-background="new    " width="7.521" height="7.714"/>
<rect x="668.097" y="32.143" opacity="0.06" fill="#9C9B9B" enable-background="new    " width="7.521" height="7.712"/>
<rect x="660.576" y="39.855" opacity="0.06" fill="#9C9B9B" enable-background="new    " width="7.521" height="7.717"/>
<rect x="668.097" y="47.572" opacity="0.06" fill="#9C9B9B" enable-background="new    " width="7.521" height="7.714"/>
<rect x="653.056" y="16.714" opacity="0.06" fill="#9C9B9B" enable-background="new    " width="7.521" height="7.715"/>
<rect x="653.056" y="32.143" opacity="0.06" fill="#9C9B9B" enable-background="new    " width="7.521" height="7.712"/>
<rect x="653.056" y="47.572" opacity="0.06" fill="#9C9B9B" enable-background="new    " width="7.521" height="7.714"/>
<rect x="675.616" y="39.855" opacity="0.06" fill="#9C9B9B" enable-background="new    " width="7.52" height="7.717"/>
<rect x="683.137" y="47.572" opacity="0.06" fill="#9C9B9B" enable-background="new    " width="7.521" height="7.714"/>
<rect x="675.616" y="24.429" opacity="0.06" fill="#9C9B9B" enable-background="new    " width="7.521" height="7.714"/>
<rect x="683.137" y="32.143" opacity="0.06" fill="#9C9B9B" enable-background="new    " width="7.521" height="7.712"/>
<rect x="690.657" y="39.855" opacity="0.06" fill="#9C9B9B" enable-background="new    " width="7.521" height="7.717"/>
<rect x="660.576" y="55.286" opacity="0.06" fill="#9C9B9B" enable-background="new    " width="7.521" height="7.715"/>
<rect x="675.616" y="55.286" opacity="0.06" fill="#9C9B9B" enable-background="new    " width="7.521" height="7.715"/>
<rect x="690.657" y="55.286" opacity="0.06" fill="#9C9B9B" enable-background="new    " width="7.521" height="7.715"/>
<rect x="698.178" y="47.572" opacity="0.06" fill="#9C9B9B" enable-background="new    " width="7.521" height="7.714"/>
<rect x="705.698" y="55.286" opacity="0.06" fill="#9C9B9B" enable-background="new    " width="7.521" height="7.715"/>
<rect x="705.698" y="39.855" opacity="0.06" fill="#9C9B9B" enable-background="new    " width="7.521" height="7.717"/>
<rect x="698.178" y="32.143" opacity="0.06" fill="#9C9B9B" enable-background="new    " width="7.521" height="7.712"/>
<rect x="690.657" y="24.429" opacity="0.06" fill="#9C9B9B" enable-background="new    " width="7.521" height="7.714"/>
<rect x="683.137" y="16.714" opacity="0.06" fill="#9C9B9B" enable-background="new    " width="7.521" height="7.715"/>
<rect x="675.616" y="9" opacity="0.06" fill="#9C9B9B" enable-background="new    " width="7.521" height="7.714"/>
<rect x="668.097" y="1.287" opacity="0.06" fill="#9C9B9B" enable-background="new    " width="7.521" height="7.714"/>
<rect x="683.137" y="1.287" opacity="0.06" fill="#9C9B9B" enable-background="new    " width="7.521" height="7.714"/>
<rect x="690.657" y="9" opacity="0.06" fill="#9C9B9B" enable-background="new    " width="7.521" height="7.714"/>
<rect x="698.178" y="1.287" opacity="0.06" fill="#9C9B9B" enable-background="new    " width="7.521" height="7.714"/>
<rect x="705.698" y="9" opacity="0.06" fill="#9C9B9B" enable-background="new    " width="7.521" height="7.714"/>
<rect x="698.178" y="16.714" opacity="0.06" fill="#9C9B9B" enable-background="new    " width="7.521" height="7.715"/>
<rect x="705.698" y="24.429" opacity="0.06" fill="#9C9B9B" enable-background="new    " width="7.521" height="7.714"/>
<rect x="713.219" y="1.287" opacity="0.06" fill="#9C9B9B" enable-background="new    " width="7.521" height="7.714"/>
<rect x="720.738" y="9" opacity="0.06" fill="#9C9B9B" enable-background="new    " width="7.521" height="7.714"/>
<rect x="728.259" y="16.714" opacity="0.06" fill="#9C9B9B" enable-background="new    " width="7.521" height="7.715"/>
<rect x="720.738" y="24.429" opacity="0.06" fill="#9C9B9B" enable-background="new    " width="7.521" height="7.714"/>
<rect x="728.259" y="32.143" opacity="0.06" fill="#9C9B9B" enable-background="new    " width="7.521" height="7.712"/>
<rect x="720.738" y="39.855" opacity="0.06" fill="#9C9B9B" enable-background="new    " width="7.521" height="7.717"/>
<rect x="728.259" y="47.572" opacity="0.06" fill="#9C9B9B" enable-background="new    " width="7.521" height="7.714"/>
<rect x="713.219" y="16.714" opacity="0.06" fill="#9C9B9B" enable-background="new    " width="7.521" height="7.715"/>
<rect x="713.219" y="32.143" opacity="0.06" fill="#9C9B9B" enable-background="new    " width="7.521" height="7.712"/>
<rect x="713.219" y="47.572" opacity="0.06" fill="#9C9B9B" enable-background="new    " width="7.521" height="7.714"/>
<rect x="735.779" y="39.855" opacity="0.06" fill="#9C9B9B" enable-background="new    " width="7.521" height="7.717"/>
<rect x="743.3" y="47.572" opacity="0.06" fill="#9C9B9B" enable-background="new    " width="7.521" height="7.714"/>
<rect x="735.779" y="24.429" opacity="0.06" fill="#9C9B9B" enable-background="new    " width="7.521" height="7.714"/>
<rect x="743.3" y="32.143" opacity="0.06" fill="#9C9B9B" enable-background="new    " width="7.521" height="7.712"/>
<rect x="750.82" y="39.855" opacity="0.06" fill="#9C9B9B" enable-background="new    " width="7.52" height="7.717"/>
<rect x="720.738" y="55.286" opacity="0.06" fill="#9C9B9B" enable-background="new    " width="7.521" height="7.715"/>
<rect x="735.779" y="55.286" opacity="0.06" fill="#9C9B9B" enable-background="new    " width="7.521" height="7.715"/>
<rect x="750.82" y="55.286" opacity="0.06" fill="#9C9B9B" enable-background="new    " width="7.52" height="7.715"/>
<rect x="758.34" y="47.572" opacity="0.06" fill="#9C9B9B" enable-background="new    " width="7.521" height="7.714"/>
<rect x="765.86" y="55.286" opacity="0.06" fill="#9C9B9B" enable-background="new    " width="7.521" height="7.715"/>
<rect x="765.86" y="39.855" opacity="0.06" fill="#9C9B9B" enable-background="new    " width="7.521" height="7.717"/>
<rect x="758.34" y="32.143" opacity="0.06" fill="#9C9B9B" enable-background="new    " width="7.521" height="7.712"/>
<rect x="750.82" y="24.429" opacity="0.06" fill="#9C9B9B" enable-background="new    " width="7.52" height="7.714"/>
<rect x="743.3" y="16.714" opacity="0.06" fill="#9C9B9B" enable-background="new    " width="7.521" height="7.715"/>
<rect x="735.779" y="9" opacity="0.06" fill="#9C9B9B" enable-background="new    " width="7.521" height="7.714"/>
<rect x="728.259" y="1.287" opacity="0.06" fill="#9C9B9B" enable-background="new    " width="7.521" height="7.714"/>
<rect x="743.3" y="1.287" opacity="0.06" fill="#9C9B9B" enable-background="new    " width="7.521" height="7.714"/>
<rect x="750.82" y="9" opacity="0.06" fill="#9C9B9B" enable-background="new    " width="7.52" height="7.714"/>
<rect x="758.34" y="1.287" opacity="0.06" fill="#9C9B9B" enable-background="new    " width="7.521" height="7.714"/>
<rect x="765.86" y="9" opacity="0.06" fill="#9C9B9B" enable-background="new    " width="7.521" height="7.714"/>
<rect x="758.34" y="16.714" opacity="0.06" fill="#9C9B9B" enable-background="new    " width="7.521" height="7.715"/>
<rect x="765.86" y="24.429" opacity="0.06" fill="#9C9B9B" enable-background="new    " width="7.521" height="7.714"/>
<rect x="773.381" y="1.287" opacity="0.06" fill="#9C9B9B" enable-background="new    " width="7.521" height="7.714"/>
<rect x="780.901" y="9" opacity="0.06" fill="#9C9B9B" enable-background="new    " width="7.521" height="7.714"/>
<rect x="788.422" y="16.714" opacity="0.06" fill="#9C9B9B" enable-background="new    " width="7.521" height="7.715"/>
<rect x="780.901" y="24.429" opacity="0.06" fill="#9C9B9B" enable-background="new    " width="7.521" height="7.714"/>
<rect x="788.422" y="32.143" opacity="0.06" fill="#9C9B9B" enable-background="new    " width="7.521" height="7.712"/>
<rect x="780.901" y="39.855" opacity="0.06" fill="#9C9B9B" enable-background="new    " width="7.521" height="7.717"/>
<rect x="788.422" y="47.572" opacity="0.06" fill="#9C9B9B" enable-background="new    " width="7.521" height="7.714"/>
<rect x="773.381" y="16.714" opacity="0.06" fill="#9C9B9B" enable-background="new    " width="7.521" height="7.715"/>
<rect x="773.381" y="32.143" opacity="0.06" fill="#9C9B9B" enable-background="new    " width="7.521" height="7.712"/>
<rect x="773.381" y="47.572" opacity="0.06" fill="#9C9B9B" enable-background="new    " width="7.521" height="7.714"/>
<rect x="795.941" y="39.855" opacity="0.06" fill="#9C9B9B" enable-background="new    " width="7.52" height="7.717"/>
<rect x="803.462" y="47.572" opacity="0.06" fill="#9C9B9B" enable-background="new    " width="7.521" height="7.714"/>
<rect x="795.941" y="24.429" opacity="0.06" fill="#9C9B9B" enable-background="new    " width="7.521" height="7.714"/>
<rect x="803.462" y="32.143" opacity="0.06" fill="#9C9B9B" enable-background="new    " width="7.521" height="7.712"/>
<rect x="810.982" y="39.855" opacity="0.06" fill="#9C9B9B" enable-background="new    " width="7.521" height="7.717"/>
<rect x="780.901" y="55.286" opacity="0.06" fill="#9C9B9B" enable-background="new    " width="7.521" height="7.715"/>
<rect x="795.941" y="55.286" opacity="0.06" fill="#9C9B9B" enable-background="new    " width="7.521" height="7.715"/>
<rect x="810.982" y="55.286" opacity="0.06" fill="#9C9B9B" enable-background="new    " width="7.521" height="7.715"/>
<rect x="818.503" y="47.572" opacity="0.06" fill="#9C9B9B" enable-background="new    " width="7.521" height="7.714"/>
<rect x="826.023" y="55.286" opacity="0.06" fill="#9C9B9B" enable-background="new    " width="7.52" height="7.715"/>
<rect x="826.023" y="39.855" opacity="0.06" fill="#9C9B9B" enable-background="new    " width="7.52" height="7.717"/>
<rect x="818.503" y="32.143" opacity="0.06" fill="#9C9B9B" enable-background="new    " width="7.521" height="7.712"/>
<rect x="810.982" y="24.429" opacity="0.06" fill="#9C9B9B" enable-background="new    " width="7.521" height="7.714"/>
<rect x="803.462" y="16.714" opacity="0.06" fill="#9C9B9B" enable-background="new    " width="7.521" height="7.715"/>
<rect x="795.941" y="9" opacity="0.06" fill="#9C9B9B" enable-background="new    " width="7.521" height="7.714"/>
<rect x="788.422" y="1.287" opacity="0.06" fill="#9C9B9B" enable-background="new    " width="7.521" height="7.714"/>
<rect x="803.462" y="1.287" opacity="0.06" fill="#9C9B9B" enable-background="new    " width="7.521" height="7.714"/>
<rect x="810.982" y="9" opacity="0.06" fill="#9C9B9B" enable-background="new    " width="7.521" height="7.714"/>
<rect x="818.503" y="1.287" opacity="0.06" fill="#9C9B9B" enable-background="new    " width="7.521" height="7.714"/>
<rect x="826.023" y="9" opacity="0.06" fill="#9C9B9B" enable-background="new    " width="7.52" height="7.714"/>
<rect x="818.503" y="16.714" opacity="0.06" fill="#9C9B9B" enable-background="new    " width="7.521" height="7.715"/>
<rect x="826.023" y="24.429" opacity="0.06" fill="#9C9B9B" enable-background="new    " width="7.52" height="7.714"/>
<rect x="833.543" y="16.714" opacity="0.06" fill="#9C9B9B" enable-background="new    " width="7.521" height="7.715"/>
<rect x="833.543" y="32.143" opacity="0.06" fill="#9C9B9B" enable-background="new    " width="7.521" height="7.712"/>
<rect x="833.543" y="47.572" opacity="0.06" fill="#9C9B9B" enable-background="new    " width="7.521" height="7.714"/>
<rect x="841.062" y="39.855" opacity="0.06" fill="#9C9B9B" enable-background="new    " width="7.521" height="7.717"/>
<rect x="848.584" y="47.572" opacity="0.06" fill="#9C9B9B" enable-background="new    " width="7.521" height="7.714"/>
<rect x="841.062" y="24.429" opacity="0.06" fill="#9C9B9B" enable-background="new    " width="7.521" height="7.714"/>
<rect x="848.584" y="32.143" opacity="0.06" fill="#9C9B9B" enable-background="new    " width="7.521" height="7.712"/>
<rect x="856.104" y="39.855" opacity="0.06" fill="#9C9B9B" enable-background="new    " width="7.521" height="7.717"/>
<rect x="841.062" y="55.286" opacity="0.06" fill="#9C9B9B" enable-background="new    " width="7.521" height="7.715"/>
<rect x="856.104" y="55.286" opacity="0.06" fill="#9C9B9B" enable-background="new    " width="7.521" height="7.715"/>
<rect x="863.625" y="47.572" opacity="0.06" fill="#9C9B9B" enable-background="new    " width="7.52" height="7.714"/>
<rect x="863.625" y="32.143" opacity="0.06" fill="#9C9B9B" enable-background="new    " width="7.52" height="7.712"/>
<rect x="856.104" y="24.429" opacity="0.06" fill="#9C9B9B" enable-background="new    " width="7.521" height="7.714"/>
<rect x="848.584" y="16.714" opacity="0.06" fill="#9C9B9B" enable-background="new    " width="7.521" height="7.715"/>
<rect x="841.062" y="9" opacity="0.06" fill="#9C9B9B" enable-background="new    " width="7.521" height="7.714"/>
<rect x="833.543" y="1.287" opacity="0.06" fill="#9C9B9B" enable-background="new    " width="7.521" height="7.714"/>
<rect x="848.584" y="1.287" opacity="0.06" fill="#9C9B9B" enable-background="new    " width="7.521" height="7.714"/>
<rect x="856.104" y="9" opacity="0.06" fill="#9C9B9B" enable-background="new    " width="7.521" height="7.714"/>
<rect x="863.625" y="1.287" opacity="0.06" fill="#9C9B9B" enable-background="new    " width="7.52" height="7.714"/>
<rect x="863.625" y="16.714" opacity="0.06" fill="#9C9B9B" enable-background="new    " width="7.52" height="7.715"/>
<rect x="547.771" y="63" opacity="0.06" fill="#9C9B9B" enable-background="new    " width="7.52" height="7.714"/>
<rect x="562.812" y="63" opacity="0.06" fill="#9C9B9B" enable-background="new    " width="7.521" height="7.714"/>
<rect x="577.854" y="63" opacity="0.06" fill="#9C9B9B" enable-background="new    " width="7.521" height="7.714"/>
<rect x="607.934" y="63" opacity="0.06" fill="#9C9B9B" enable-background="new    " width="7.521" height="7.714"/>
<rect x="592.893" y="63" opacity="0.06" fill="#9C9B9B" enable-background="new    " width="7.521" height="7.714"/>
<rect x="622.975" y="63" opacity="0.06" fill="#9C9B9B" enable-background="new    " width="7.521" height="7.714"/>
<rect x="638.015" y="63" opacity="0.06" fill="#9C9B9B" enable-background="new    " width="7.521" height="7.714"/>
<rect x="668.097" y="63" opacity="0.06" fill="#9C9B9B" enable-background="new    " width="7.521" height="7.714"/>
<rect x="653.056" y="63" opacity="0.06" fill="#9C9B9B" enable-background="new    " width="7.521" height="7.714"/>
<rect x="683.137" y="63" opacity="0.06" fill="#9C9B9B" enable-background="new    " width="7.521" height="7.714"/>
<rect x="698.178" y="63" opacity="0.06" fill="#9C9B9B" enable-background="new    " width="7.521" height="7.714"/>
<rect x="728.259" y="63" opacity="0.06" fill="#9C9B9B" enable-background="new    " width="7.521" height="7.714"/>
<rect x="713.219" y="63" opacity="0.06" fill="#9C9B9B" enable-background="new    " width="7.521" height="7.714"/>
<rect x="743.3" y="63" opacity="0.06" fill="#9C9B9B" enable-background="new    " width="7.521" height="7.714"/>
<rect x="758.34" y="63" opacity="0.06" fill="#9C9B9B" enable-background="new    " width="7.521" height="7.714"/>
<rect x="788.422" y="63" opacity="0.06" fill="#9C9B9B" enable-background="new    " width="7.521" height="7.714"/>
<rect x="773.381" y="63" opacity="0.06" fill="#9C9B9B" enable-background="new    " width="7.521" height="7.714"/>
<rect x="803.462" y="63" opacity="0.06" fill="#9C9B9B" enable-background="new    " width="7.521" height="7.714"/>
<rect x="818.503" y="63" opacity="0.06" fill="#9C9B9B" enable-background="new    " width="7.521" height="7.714"/>
<rect x="833.543" y="63" opacity="0.06" fill="#9C9B9B" enable-background="new    " width="7.521" height="7.714"/>
<rect x="848.584" y="63" opacity="0.06" fill="#9C9B9B" enable-background="new    " width="7.521" height="7.714"/>
<rect x="863.625" y="63" opacity="0.06" fill="#9C9B9B" enable-background="new    " width="7.52" height="7.714"/>
<polygon fill="#5B5B5B" points="574.395,0 537.598,72 -0.855,71.748 -0.834,0.253 "/>
</svg>
