<?xml version="1.0" encoding="utf-8"?>
<!DOCTYPE svg PUBLIC "-//W3C//DTD SVG 1.1//EN" "http://www.w3.org/Graphics/SVG/1.1/DTD/svg11.dtd">
<svg version="1.1" id="Calque_1" xmlns="http://www.w3.org/2000/svg" xmlns:xlink="http://www.w3.org/1999/xlink" x="0px" y="0px"
	 width="872px" height="72px" viewBox="0 0 872 72" style="enable-background:new 0 0 872 72;" xml:space="preserve">
<style type="text/css"><![CDATA[	
	.st0{fill:#E6BC95;} .st1{fill:#EECDAE;} .st2{opacity:0.1;fill:#3D3D3C;enable-background:new;}
]]></style>
<rect x="-0.9" y="-0.6" class="st0" width="872" height="72"/>
<rect x="547.8" y="31.2" class="st2" width="7.5" height="7.7"/>
<rect x="547.8" y="46.6" class="st2" width="7.5" height="7.7"/>
<rect x="554.3" y="38.9" class="st2" width="7.5" height="7.7"/>
<rect x="562.8" y="46.6" class="st2" width="7.5" height="7.7"/>
<rect x="555.3" y="23.5" class="st2" width="7.5" height="7.7"/>
<rect x="562.8" y="31.2" class="st2" width="7.5" height="7.7"/>
<rect x="570.3" y="38.9" class="st2" width="7.5" height="7.7"/>
<rect x="540.2" y="54.3" class="st2" width="7.5" height="7.7"/>
<rect x="532.7" y="62.7" class="st2" width="7.5" height="7.7"/>
<rect x="555.3" y="54.3" class="st2" width="7.5" height="7.7"/>
<rect x="570.3" y="54.3" class="st2" width="7.5" height="7.7"/>
<rect x="577.8" y="46.6" class="st2" width="7.5" height="7.7"/>
<rect x="585.4" y="54.3" class="st2" width="7.5" height="7.7"/>
<rect x="585.4" y="38.9" class="st2" width="7.5" height="7.7"/>
<rect x="577.8" y="31.2" class="st2" width="7.5" height="7.7"/>
<rect x="570.3" y="23.5" class="st2" width="7.5" height="7.7"/>
<rect x="562.8" y="15.8" class="st2" width="7.5" height="7.7"/>
<rect x="562.8" y="0.3" class="st2" width="7.5" height="7.7"/>
<rect x="570.3" y="8.1" class="st2" width="7.5" height="7.7"/>
<rect x="577.8" y="0.3" class="st2" width="7.5" height="7.7"/>
<rect x="585.4" y="8.1" class="st2" width="7.5" height="7.7"/>
<rect x="577.8" y="15.8" class="st2" width="7.5" height="7.7"/>
<rect x="585.4" y="23.5" class="st2" width="7.5" height="7.7"/>
<rect x="592.9" y="0.3" class="st2" width="7.5" height="7.7"/>
<rect x="600.4" y="8.1" class="st2" width="7.5" height="7.7"/>
<rect x="607.9" y="15.8" class="st2" width="7.5" height="7.7"/>
<rect x="600.4" y="23.5" class="st2" width="7.5" height="7.7"/>
<rect x="607.9" y="31.2" class="st2" width="7.5" height="7.7"/>
<rect x="600.4" y="38.9" class="st2" width="7.5" height="7.7"/>
<rect x="607.9" y="46.6" class="st2" width="7.5" height="7.7"/>
<rect x="592.9" y="15.8" class="st2" width="7.5" height="7.7"/>
<rect x="592.9" y="31.2" class="st2" width="7.5" height="7.7"/>
<rect x="592.9" y="46.6" class="st2" width="7.5" height="7.7"/>
<rect x="614.5" y="38.9" class="st2" width="7.5" height="7.7"/>
<rect x="623" y="46.6" class="st2" width="7.5" height="7.7"/>
<rect x="615.5" y="23.5" class="st2" width="7.5" height="7.7"/>
<rect x="623" y="31.2" class="st2" width="7.5" height="7.7"/>
<rect x="630.5" y="38.9" class="st2" width="7.5" height="7.7"/>
<rect x="600.4" y="54.3" class="st2" width="7.5" height="7.7"/>
<rect x="615.5" y="54.3" class="st2" width="7.5" height="7.7"/>
<rect x="630.5" y="54.3" class="st2" width="7.5" height="7.7"/>
<rect x="638" y="46.6" class="st2" width="7.5" height="7.7"/>
<rect x="645.5" y="54.3" class="st2" width="7.5" height="7.7"/>
<rect x="645.5" y="38.9" class="st2" width="7.5" height="7.7"/>
<rect x="638" y="31.2" class="st2" width="7.5" height="7.7"/>
<rect x="630.5" y="23.5" class="st2" width="7.5" height="7.7"/>
<rect x="623" y="15.8" class="st2" width="7.5" height="7.7"/>
<rect x="615.5" y="8.1" class="st2" width="7.5" height="7.7"/>
<rect x="607.9" y="0.3" class="st2" width="7.5" height="7.7"/>
<rect x="623" y="0.3" class="st2" width="7.5" height="7.7"/>
<rect x="630.5" y="8.1" class="st2" width="7.5" height="7.7"/>
<rect x="638" y="0.3" class="st2" width="7.5" height="7.7"/>
<rect x="645.5" y="8.1" class="st2" width="7.5" height="7.7"/>
<rect x="638" y="15.8" class="st2" width="7.5" height="7.7"/>
<rect x="645.5" y="23.5" class="st2" width="7.5" height="7.7"/>
<rect x="653.1" y="0.3" class="st2" width="7.5" height="7.7"/>
<rect x="660.6" y="8.1" class="st2" width="7.5" height="7.7"/>
<rect x="668.1" y="15.8" class="st2" width="7.5" height="7.7"/>
<rect x="660.6" y="23.5" class="st2" width="7.5" height="7.7"/>
<rect x="668.1" y="31.2" class="st2" width="7.5" height="7.7"/>
<rect x="660.6" y="38.9" class="st2" width="7.5" height="7.7"/>
<rect x="668.1" y="46.6" class="st2" width="7.5" height="7.7"/>
<rect x="653.1" y="15.8" class="st2" width="7.5" height="7.7"/>
<rect x="653.1" y="31.2" class="st2" width="7.5" height="7.7"/>
<rect x="653.1" y="46.6" class="st2" width="7.5" height="7.7"/>
<rect x="674.6" y="38.9" class="st2" width="7.5" height="7.7"/>
<rect x="683.1" y="46.6" class="st2" width="7.5" height="7.7"/>
<rect x="675.6" y="23.5" class="st2" width="7.5" height="7.7"/>
<rect x="683.1" y="31.2" class="st2" width="7.5" height="7.7"/>
<rect x="690.7" y="38.9" class="st2" width="7.5" height="7.7"/>
<rect x="660.6" y="54.3" class="st2" width="7.5" height="7.7"/>
<rect x="675.6" y="54.3" class="st2" width="7.5" height="7.7"/>
<rect x="690.7" y="54.3" class="st2" width="7.5" height="7.7"/>
<rect x="698.2" y="46.6" class="st2" width="7.5" height="7.7"/>
<rect x="705.7" y="54.3" class="st2" width="7.5" height="7.7"/>
<rect x="705.7" y="38.9" class="st2" width="7.5" height="7.7"/>
<rect x="698.2" y="31.2" class="st2" width="7.5" height="7.7"/>
<rect x="690.7" y="23.5" class="st2" width="7.5" height="7.7"/>
<rect x="683.1" y="15.8" class="st2" width="7.5" height="7.7"/>
<rect x="675.6" y="8.1" class="st2" width="7.5" height="7.7"/>
<rect x="668.1" y="0.3" class="st2" width="7.5" height="7.7"/>
<rect x="683.1" y="0.3" class="st2" width="7.5" height="7.7"/>
<rect x="690.7" y="8.1" class="st2" width="7.5" height="7.7"/>
<rect x="698.2" y="0.3" class="st2" width="7.5" height="7.7"/>
<rect x="705.7" y="8.1" class="st2" width="7.5" height="7.7"/>
<rect x="698.2" y="15.8" class="st2" width="7.5" height="7.7"/>
<rect x="705.7" y="23.5" class="st2" width="7.5" height="7.7"/>
<rect x="713.2" y="0.3" class="st2" width="7.5" height="7.7"/>
<rect x="720.7" y="8.1" class="st2" width="7.5" height="7.7"/>
<rect x="728.3" y="15.8" class="st2" width="7.5" height="7.7"/>
<rect x="720.7" y="23.5" class="st2" width="7.5" height="7.7"/>
<rect x="728.3" y="31.2" class="st2" width="7.5" height="7.7"/>
<rect x="720.7" y="38.9" class="st2" width="7.5" height="7.7"/>
<rect x="728.3" y="46.6" class="st2" width="7.5" height="7.7"/>
<rect x="713.2" y="15.8" class="st2" width="7.5" height="7.7"/>
<rect x="713.2" y="31.2" class="st2" width="7.5" height="7.7"/>
<rect x="713.2" y="46.6" class="st2" width="7.5" height="7.7"/>
<rect x="734.8" y="38.9" class="st2" width="7.5" height="7.7"/>
<rect x="743.3" y="46.6" class="st2" width="7.5" height="7.7"/>
<rect x="735.8" y="23.5" class="st2" width="7.5" height="7.7"/>
<rect x="743.3" y="31.2" class="st2" width="7.5" height="7.7"/>
<rect x="750.8" y="38.9" class="st2" width="7.5" height="7.7"/>
<rect x="720.7" y="54.3" class="st2" width="7.5" height="7.7"/>
<rect x="735.8" y="54.3" class="st2" width="7.5" height="7.7"/>
<rect x="750.8" y="54.3" class="st2" width="7.5" height="7.7"/>
<rect x="758.3" y="46.6" class="st2" width="7.5" height="7.7"/>
<rect x="765.9" y="54.3" class="st2" width="7.5" height="7.7"/>
<rect x="765.9" y="38.9" class="st2" width="7.5" height="7.7"/>
<rect x="758.3" y="31.2" class="st2" width="7.5" height="7.7"/>
<rect x="750.8" y="23.5" class="st2" width="7.5" height="7.7"/>
<rect x="743.3" y="15.8" class="st2" width="7.5" height="7.7"/>
<rect x="735.8" y="8.1" class="st2" width="7.5" height="7.7"/>
<rect x="728.3" y="0.3" class="st2" width="7.5" height="7.7"/>
<rect x="743.3" y="0.3" class="st2" width="7.5" height="7.7"/>
<rect x="750.8" y="8.1" class="st2" width="7.5" height="7.7"/>
<rect x="758.3" y="0.3" class="st2" width="7.5" height="7.7"/>
<rect x="765.9" y="8.1" class="st2" width="7.5" height="7.7"/>
<rect x="758.3" y="15.8" class="st2" width="7.5" height="7.7"/>
<rect x="765.9" y="23.5" class="st2" width="7.5" height="7.7"/>
<rect x="773.4" y="0.3" class="st2" width="7.5" height="7.7"/>
<rect x="780.9" y="8.1" class="st2" width="7.5" height="7.7"/>
<rect x="788.4" y="15.8" class="st2" width="7.5" height="7.7"/>
<rect x="780.9" y="23.5" class="st2" width="7.5" height="7.7"/>
<rect x="788.4" y="31.2" class="st2" width="7.5" height="7.7"/>
<rect x="780.9" y="38.9" class="st2" width="7.5" height="7.7"/>
<rect x="788.4" y="46.6" class="st2" width="7.5" height="7.7"/>
<rect x="773.4" y="15.8" class="st2" width="7.5" height="7.7"/>
<rect x="773.4" y="31.2" class="st2" width="7.5" height="7.7"/>
<rect x="773.4" y="46.6" class="st2" width="7.5" height="7.7"/>
<rect x="794.9" y="38.9" class="st2" width="7.5" height="7.7"/>
<rect x="803.5" y="46.6" class="st2" width="7.5" height="7.7"/>
<rect x="795.9" y="23.5" class="st2" width="7.5" height="7.7"/>
<rect x="803.5" y="31.2" class="st2" width="7.5" height="7.7"/>
<rect x="811" y="38.9" class="st2" width="7.5" height="7.7"/>
<rect x="780.9" y="54.3" class="st2" width="7.5" height="7.7"/>
<rect x="795.9" y="54.3" class="st2" width="7.5" height="7.7"/>
<rect x="811" y="54.3" class="st2" width="7.5" height="7.7"/>
<rect x="818.5" y="46.6" class="st2" width="7.5" height="7.7"/>
<rect x="826" y="54.3" class="st2" width="7.5" height="7.7"/>
<rect x="826" y="38.9" class="st2" width="7.5" height="7.7"/>
<rect x="818.5" y="31.2" class="st2" width="7.5" height="7.7"/>
<rect x="811" y="23.5" class="st2" width="7.5" height="7.7"/>
<rect x="803.5" y="15.8" class="st2" width="7.5" height="7.7"/>
<rect x="795.9" y="8.1" class="st2" width="7.5" height="7.7"/>
<rect x="788.4" y="0.3" class="st2" width="7.5" height="7.7"/>
<rect x="803.5" y="0.3" class="st2" width="7.5" height="7.7"/>
<rect x="811" y="8.1" class="st2" width="7.5" height="7.7"/>
<rect x="818.5" y="0.3" class="st2" width="7.5" height="7.7"/>
<rect x="826" y="8.1" class="st2" width="7.5" height="7.7"/>
<rect x="818.5" y="15.8" class="st2" width="7.5" height="7.7"/>
<rect x="826" y="23.5" class="st2" width="7.5" height="7.7"/>
<rect x="833.5" y="15.8" class="st2" width="7.5" height="7.7"/>
<rect x="833.5" y="31.2" class="st2" width="7.5" height="7.7"/>
<rect x="833.5" y="46.6" class="st2" width="7.5" height="7.7"/>
<rect x="840.1" y="38.9" class="st2" width="7.5" height="7.7"/>
<rect x="848.6" y="46.6" class="st2" width="7.5" height="7.7"/>
<rect x="841.1" y="23.5" class="st2" width="7.5" height="7.7"/>
<rect x="848.6" y="31.2" class="st2" width="7.5" height="7.7"/>
<rect x="856.1" y="38.9" class="st2" width="7.5" height="7.7"/>
<rect x="841.1" y="54.3" class="st2" width="7.5" height="7.7"/>
<rect x="856.1" y="54.3" class="st2" width="7.5" height="7.7"/>
<rect x="863.6" y="46.6" class="st2" width="7.5" height="7.7"/>
<rect x="863.6" y="31.2" class="st2" width="7.5" height="7.7"/>
<rect x="856.1" y="23.5" class="st2" width="7.5" height="7.7"/>
<rect x="848.6" y="15.8" class="st2" width="7.5" height="7.7"/>
<rect x="841.1" y="8.1" class="st2" width="7.5" height="7.7"/>
<rect x="833.5" y="0.3" class="st2" width="7.5" height="7.7"/>
<rect x="848.6" y="0.3" class="st2" width="7.5" height="7.7"/>
<rect x="856.1" y="8.1" class="st2" width="7.5" height="7.7"/>
<rect x="863.6" y="0.3" class="st2" width="7.5" height="7.7"/>
<rect x="863.6" y="15.8" class="st2" width="7.5" height="7.7"/>
<rect x="547.8" y="62.7" class="st2" width="7.5" height="7.7"/>
<rect x="562.8" y="62.7" class="st2" width="7.5" height="7.7"/>
<rect x="577.8" y="62.7" class="st2" width="7.5" height="7.7"/>
<rect x="607.9" y="62.7" class="st2" width="7.5" height="7.7"/>
<rect x="592.9" y="62.7" class="st2" width="7.5" height="7.7"/>
<rect x="623" y="62.7" class="st2" width="7.5" height="7.7"/>
<rect x="638" y="62.7" class="st2" width="7.5" height="7.7"/>
<rect x="668.1" y="62.7" class="st2" width="7.5" height="7.7"/>
<rect x="653.1" y="62.7" class="st2" width="7.5" height="7.7"/>
<rect x="683.1" y="62.7" class="st2" width="7.5" height="7.7"/>
<rect x="698.2" y="62.7" class="st2" width="7.5" height="7.7"/>
<rect x="728.3" y="62.7" class="st2" width="7.5" height="7.7"/>
<rect x="713.2" y="62.7" class="st2" width="7.5" height="7.7"/>
<rect x="743.3" y="62.7" class="st2" width="7.5" height="7.7"/>
<rect x="758.3" y="62.7" class="st2" width="7.5" height="7.7"/>
<rect x="788.4" y="62.7" class="st2" width="7.5" height="7.7"/>
<rect x="773.4" y="62.7" class="st2" width="7.5" height="7.7"/>
<rect x="803.5" y="62.7" class="st2" width="7.5" height="7.7"/>
<rect x="818.5" y="62.7" class="st2" width="7.5" height="7.7"/>
<rect x="833.5" y="62.7" class="st2" width="7.5" height="7.7"/>
<rect x="848.6" y="62.7" class="st2" width="7.5" height="7.7"/>
<rect x="863.6" y="62.7" class="st2" width="7.5" height="7.7"/>
<polygon class="st1" points="573.4,-0.5 536.6,71.2 0,70.3 0,-1.2 "/>
</svg>
