<?xml version="1.0" encoding="utf-8"?>
<!-- Generator: Adobe Illustrator 15.1.0, SVG Export Plug-In . SVG Version: 6.00 Build 0)  -->
<!DOCTYPE svg PUBLIC "-//W3C//DTD SVG 1.1//EN" "http://www.w3.org/Graphics/SVG/1.1/DTD/svg11.dtd">
<svg version="1.1" id="Calque_1" xmlns="http://www.w3.org/2000/svg" xmlns:xlink="http://www.w3.org/1999/xlink" x="0px" y="0px"
	 width="872px" height="72px" viewBox="0 0 872 72" enable-background="new 0 0 872 72" xml:space="preserve">
<rect x="-0.854" y="-0.583" fill="#CCE2EC" width="872" height="72"/>
<rect x="472.569" y="0.343" opacity="0.1" fill="#3D3D3C" enable-background="new    " width="7.52" height="7.714"/>
<rect x="480.088" y="8.057" opacity="0.1" fill="#3D3D3C" enable-background="new    " width="7.521" height="7.714"/>
<rect x="487.609" y="15.771" opacity="0.1" fill="#3D3D3C" enable-background="new    " width="7.521" height="7.715"/>
<rect x="480.088" y="23.486" opacity="0.1" fill="#3D3D3C" enable-background="new    " width="7.521" height="7.714"/>
<rect x="487.609" y="31.2" opacity="0.1" fill="#3D3D3C" enable-background="new    " width="7.521" height="7.714"/>
<rect x="480.088" y="38.914" opacity="0.1" fill="#3D3D3C" enable-background="new    " width="7.521" height="7.715"/>
<rect x="487.609" y="46.628" opacity="0.1" fill="#3D3D3C" enable-background="new    " width="7.521" height="7.714"/>
<rect x="472.569" y="15.771" opacity="0.1" fill="#3D3D3C" enable-background="new    " width="7.52" height="7.715"/>
<rect x="472.569" y="31.2" opacity="0.1" fill="#3D3D3C" enable-background="new    " width="7.52" height="7.714"/>
<rect x="472.569" y="46.628" opacity="0.1" fill="#3D3D3C" enable-background="new    " width="7.52" height="7.714"/>
<rect x="494.126" y="38.914" opacity="0.1" fill="#3D3D3C" enable-background="new    " width="7.521" height="7.715"/>
<rect x="502.65" y="46.628" opacity="0.1" fill="#3D3D3C" enable-background="new    " width="7.521" height="7.714"/>
<rect x="495.129" y="23.486" opacity="0.1" fill="#3D3D3C" enable-background="new    " width="7.521" height="7.714"/>
<rect x="502.65" y="31.2" opacity="0.1" fill="#3D3D3C" enable-background="new    " width="7.521" height="7.714"/>
<rect x="510.17" y="38.914" opacity="0.1" fill="#3D3D3C" enable-background="new    " width="7.521" height="7.715"/>
<rect x="480.088" y="54.342" opacity="0.1" fill="#3D3D3C" enable-background="new    " width="7.521" height="7.715"/>
<rect x="495.129" y="54.342" opacity="0.1" fill="#3D3D3C" enable-background="new    " width="7.521" height="7.715"/>
<rect x="510.17" y="54.342" opacity="0.1" fill="#3D3D3C" enable-background="new    " width="7.521" height="7.715"/>
<rect x="517.69" y="46.628" opacity="0.1" fill="#3D3D3C" enable-background="new    " width="7.521" height="7.714"/>
<rect x="525.21" y="54.342" opacity="0.1" fill="#3D3D3C" enable-background="new    " width="7.521" height="7.715"/>
<rect x="525.21" y="38.914" opacity="0.1" fill="#3D3D3C" enable-background="new    " width="7.521" height="7.715"/>
<rect x="517.69" y="31.2" opacity="0.1" fill="#3D3D3C" enable-background="new    " width="7.521" height="7.714"/>
<rect x="510.17" y="23.486" opacity="0.1" fill="#3D3D3C" enable-background="new    " width="7.521" height="7.714"/>
<rect x="502.65" y="15.771" opacity="0.1" fill="#3D3D3C" enable-background="new    " width="7.521" height="7.715"/>
<rect x="495.129" y="8.057" opacity="0.1" fill="#3D3D3C" enable-background="new    " width="7.521" height="7.714"/>
<rect x="487.609" y="0.343" opacity="0.1" fill="#3D3D3C" enable-background="new    " width="7.521" height="7.714"/>
<rect x="502.65" y="0.343" opacity="0.1" fill="#3D3D3C" enable-background="new    " width="7.521" height="7.714"/>
<rect x="510.17" y="8.057" opacity="0.1" fill="#3D3D3C" enable-background="new    " width="7.521" height="7.714"/>
<rect x="517.69" y="0.343" opacity="0.1" fill="#3D3D3C" enable-background="new    " width="7.521" height="7.714"/>
<rect x="525.21" y="8.057" opacity="0.1" fill="#3D3D3C" enable-background="new    " width="7.521" height="7.714"/>
<rect x="517.69" y="15.771" opacity="0.1" fill="#3D3D3C" enable-background="new    " width="7.521" height="7.715"/>
<rect x="525.21" y="23.486" opacity="0.1" fill="#3D3D3C" enable-background="new    " width="7.521" height="7.714"/>
<rect x="532.731" y="0.343" opacity="0.1" fill="#3D3D3C" enable-background="new    " width="7.521" height="7.714"/>
<rect x="540.251" y="8.057" opacity="0.1" fill="#3D3D3C" enable-background="new    " width="7.521" height="7.714"/>
<rect x="547.771" y="15.771" opacity="0.1" fill="#3D3D3C" enable-background="new    " width="7.521" height="7.715"/>
<rect x="540.251" y="23.486" opacity="0.1" fill="#3D3D3C" enable-background="new    " width="7.521" height="7.714"/>
<rect x="547.771" y="31.2" opacity="0.1" fill="#3D3D3C" enable-background="new    " width="7.521" height="7.714"/>
<rect x="540.251" y="38.914" opacity="0.1" fill="#3D3D3C" enable-background="new    " width="7.521" height="7.715"/>
<rect x="547.771" y="46.628" opacity="0.1" fill="#3D3D3C" enable-background="new    " width="7.521" height="7.714"/>
<rect x="532.731" y="15.771" opacity="0.1" fill="#3D3D3C" enable-background="new    " width="7.521" height="7.715"/>
<rect x="532.731" y="31.2" opacity="0.1" fill="#3D3D3C" enable-background="new    " width="7.521" height="7.714"/>
<rect x="532.731" y="46.628" opacity="0.1" fill="#3D3D3C" enable-background="new    " width="7.521" height="7.714"/>
<rect x="554.29" y="38.914" opacity="0.1" fill="#3D3D3C" enable-background="new    " width="7.52" height="7.715"/>
<rect x="562.812" y="46.628" opacity="0.1" fill="#3D3D3C" enable-background="new    " width="7.521" height="7.714"/>
<rect x="555.292" y="23.486" opacity="0.1" fill="#3D3D3C" enable-background="new    " width="7.521" height="7.714"/>
<rect x="562.812" y="31.2" opacity="0.1" fill="#3D3D3C" enable-background="new    " width="7.521" height="7.714"/>
<rect x="570.333" y="38.914" opacity="0.1" fill="#3D3D3C" enable-background="new    " width="7.521" height="7.715"/>
<rect x="540.251" y="54.342" opacity="0.1" fill="#3D3D3C" enable-background="new    " width="7.521" height="7.715"/>
<rect x="487.609" y="62.732" opacity="0.1" fill="#3D3D3C" enable-background="new    " width="7.521" height="7.715"/>
<rect x="502.65" y="62.732" opacity="0.1" fill="#3D3D3C" enable-background="new    " width="7.521" height="7.715"/>
<rect x="517.69" y="62.732" opacity="0.1" fill="#3D3D3C" enable-background="new    " width="7.521" height="7.715"/>
<rect x="532.731" y="62.732" opacity="0.1" fill="#3D3D3C" enable-background="new    " width="7.521" height="7.715"/>
<rect x="555.292" y="54.342" opacity="0.1" fill="#3D3D3C" enable-background="new    " width="7.521" height="7.715"/>
<rect x="570.333" y="54.342" opacity="0.1" fill="#3D3D3C" enable-background="new    " width="7.521" height="7.715"/>
<rect x="577.854" y="46.628" opacity="0.1" fill="#3D3D3C" enable-background="new    " width="7.521" height="7.714"/>
<rect x="585.374" y="54.342" opacity="0.1" fill="#3D3D3C" enable-background="new    " width="7.521" height="7.715"/>
<rect x="585.374" y="38.914" opacity="0.1" fill="#3D3D3C" enable-background="new    " width="7.521" height="7.715"/>
<rect x="577.854" y="31.2" opacity="0.1" fill="#3D3D3C" enable-background="new    " width="7.521" height="7.714"/>
<rect x="570.333" y="23.486" opacity="0.1" fill="#3D3D3C" enable-background="new    " width="7.521" height="7.714"/>
<rect x="562.812" y="15.771" opacity="0.1" fill="#3D3D3C" enable-background="new    " width="7.521" height="7.715"/>
<rect x="555.292" y="8.057" opacity="0.1" fill="#3D3D3C" enable-background="new    " width="7.521" height="7.714"/>
<rect x="547.771" y="0.343" opacity="0.1" fill="#3D3D3C" enable-background="new    " width="7.521" height="7.714"/>
<rect x="562.812" y="0.343" opacity="0.1" fill="#3D3D3C" enable-background="new    " width="7.521" height="7.714"/>
<rect x="570.333" y="8.057" opacity="0.1" fill="#3D3D3C" enable-background="new    " width="7.521" height="7.714"/>
<rect x="577.854" y="0.343" opacity="0.1" fill="#3D3D3C" enable-background="new    " width="7.521" height="7.714"/>
<rect x="585.374" y="8.057" opacity="0.1" fill="#3D3D3C" enable-background="new    " width="7.521" height="7.714"/>
<rect x="577.854" y="15.771" opacity="0.1" fill="#3D3D3C" enable-background="new    " width="7.521" height="7.715"/>
<rect x="585.374" y="23.486" opacity="0.1" fill="#3D3D3C" enable-background="new    " width="7.521" height="7.714"/>
<rect x="592.893" y="0.343" opacity="0.1" fill="#3D3D3C" enable-background="new    " width="7.521" height="7.714"/>
<rect x="600.414" y="8.057" opacity="0.1" fill="#3D3D3C" enable-background="new    " width="7.521" height="7.714"/>
<rect x="607.934" y="15.771" opacity="0.1" fill="#3D3D3C" enable-background="new    " width="7.521" height="7.715"/>
<rect x="600.414" y="23.486" opacity="0.1" fill="#3D3D3C" enable-background="new    " width="7.521" height="7.714"/>
<rect x="607.934" y="31.2" opacity="0.1" fill="#3D3D3C" enable-background="new    " width="7.521" height="7.714"/>
<rect x="600.414" y="38.914" opacity="0.1" fill="#3D3D3C" enable-background="new    " width="7.521" height="7.715"/>
<rect x="607.934" y="46.628" opacity="0.1" fill="#3D3D3C" enable-background="new    " width="7.521" height="7.714"/>
<rect x="592.893" y="15.771" opacity="0.1" fill="#3D3D3C" enable-background="new    " width="7.521" height="7.715"/>
<rect x="592.893" y="31.2" opacity="0.1" fill="#3D3D3C" enable-background="new    " width="7.521" height="7.714"/>
<rect x="592.893" y="46.628" opacity="0.1" fill="#3D3D3C" enable-background="new    " width="7.521" height="7.714"/>
<rect x="614.452" y="38.914" opacity="0.1" fill="#3D3D3C" enable-background="new    " width="7.521" height="7.715"/>
<rect x="622.975" y="46.628" opacity="0.1" fill="#3D3D3C" enable-background="new    " width="7.521" height="7.714"/>
<rect x="615.455" y="23.486" opacity="0.1" fill="#3D3D3C" enable-background="new    " width="7.521" height="7.714"/>
<rect x="622.975" y="31.2" opacity="0.1" fill="#3D3D3C" enable-background="new    " width="7.521" height="7.714"/>
<rect x="630.496" y="38.914" opacity="0.1" fill="#3D3D3C" enable-background="new    " width="7.52" height="7.715"/>
<rect x="600.414" y="54.342" opacity="0.1" fill="#3D3D3C" enable-background="new    " width="7.521" height="7.715"/>
<rect x="615.455" y="54.342" opacity="0.1" fill="#3D3D3C" enable-background="new    " width="7.521" height="7.715"/>
<rect x="630.496" y="54.342" opacity="0.1" fill="#3D3D3C" enable-background="new    " width="7.52" height="7.715"/>
<rect x="638.015" y="46.628" opacity="0.1" fill="#3D3D3C" enable-background="new    " width="7.521" height="7.714"/>
<rect x="645.536" y="54.342" opacity="0.1" fill="#3D3D3C" enable-background="new    " width="7.521" height="7.715"/>
<rect x="645.536" y="38.914" opacity="0.1" fill="#3D3D3C" enable-background="new    " width="7.521" height="7.715"/>
<rect x="638.015" y="31.2" opacity="0.1" fill="#3D3D3C" enable-background="new    " width="7.521" height="7.714"/>
<rect x="630.496" y="23.486" opacity="0.1" fill="#3D3D3C" enable-background="new    " width="7.52" height="7.714"/>
<rect x="622.975" y="15.771" opacity="0.1" fill="#3D3D3C" enable-background="new    " width="7.521" height="7.715"/>
<rect x="615.455" y="8.057" opacity="0.1" fill="#3D3D3C" enable-background="new    " width="7.521" height="7.714"/>
<rect x="607.934" y="0.343" opacity="0.1" fill="#3D3D3C" enable-background="new    " width="7.521" height="7.714"/>
<rect x="622.975" y="0.343" opacity="0.1" fill="#3D3D3C" enable-background="new    " width="7.521" height="7.714"/>
<rect x="630.496" y="8.057" opacity="0.1" fill="#3D3D3C" enable-background="new    " width="7.52" height="7.714"/>
<rect x="638.015" y="0.343" opacity="0.1" fill="#3D3D3C" enable-background="new    " width="7.521" height="7.714"/>
<rect x="645.536" y="8.057" opacity="0.1" fill="#3D3D3C" enable-background="new    " width="7.521" height="7.714"/>
<rect x="638.015" y="15.771" opacity="0.1" fill="#3D3D3C" enable-background="new    " width="7.521" height="7.715"/>
<rect x="645.536" y="23.486" opacity="0.1" fill="#3D3D3C" enable-background="new    " width="7.521" height="7.714"/>
<rect x="653.056" y="0.343" opacity="0.1" fill="#3D3D3C" enable-background="new    " width="7.521" height="7.714"/>
<rect x="660.577" y="8.057" opacity="0.1" fill="#3D3D3C" enable-background="new    " width="7.521" height="7.714"/>
<rect x="668.097" y="15.771" opacity="0.1" fill="#3D3D3C" enable-background="new    " width="7.521" height="7.715"/>
<rect x="660.577" y="23.486" opacity="0.1" fill="#3D3D3C" enable-background="new    " width="7.521" height="7.714"/>
<rect x="668.097" y="31.2" opacity="0.1" fill="#3D3D3C" enable-background="new    " width="7.521" height="7.714"/>
<rect x="660.577" y="38.914" opacity="0.1" fill="#3D3D3C" enable-background="new    " width="7.521" height="7.715"/>
<rect x="668.097" y="46.628" opacity="0.1" fill="#3D3D3C" enable-background="new    " width="7.521" height="7.714"/>
<rect x="653.056" y="15.771" opacity="0.1" fill="#3D3D3C" enable-background="new    " width="7.521" height="7.715"/>
<rect x="653.056" y="31.2" opacity="0.1" fill="#3D3D3C" enable-background="new    " width="7.521" height="7.714"/>
<rect x="653.056" y="46.628" opacity="0.1" fill="#3D3D3C" enable-background="new    " width="7.521" height="7.714"/>
<rect x="674.615" y="38.914" opacity="0.1" fill="#3D3D3C" enable-background="new    " width="7.52" height="7.715"/>
<rect x="683.137" y="46.628" opacity="0.1" fill="#3D3D3C" enable-background="new    " width="7.521" height="7.714"/>
<rect x="675.617" y="23.486" opacity="0.1" fill="#3D3D3C" enable-background="new    " width="7.521" height="7.714"/>
<rect x="683.137" y="31.2" opacity="0.1" fill="#3D3D3C" enable-background="new    " width="7.521" height="7.714"/>
<rect x="690.658" y="38.914" opacity="0.1" fill="#3D3D3C" enable-background="new    " width="7.521" height="7.715"/>
<rect x="660.577" y="54.342" opacity="0.1" fill="#3D3D3C" enable-background="new    " width="7.521" height="7.715"/>
<rect x="675.617" y="54.342" opacity="0.1" fill="#3D3D3C" enable-background="new    " width="7.521" height="7.715"/>
<rect x="690.658" y="54.342" opacity="0.1" fill="#3D3D3C" enable-background="new    " width="7.521" height="7.715"/>
<rect x="698.178" y="46.628" opacity="0.1" fill="#3D3D3C" enable-background="new    " width="7.521" height="7.714"/>
<rect x="705.699" y="54.342" opacity="0.1" fill="#3D3D3C" enable-background="new    " width="7.521" height="7.715"/>
<rect x="705.699" y="38.914" opacity="0.1" fill="#3D3D3C" enable-background="new    " width="7.521" height="7.715"/>
<rect x="698.178" y="31.2" opacity="0.1" fill="#3D3D3C" enable-background="new    " width="7.521" height="7.714"/>
<rect x="690.658" y="23.486" opacity="0.1" fill="#3D3D3C" enable-background="new    " width="7.521" height="7.714"/>
<rect x="683.137" y="15.771" opacity="0.1" fill="#3D3D3C" enable-background="new    " width="7.521" height="7.715"/>
<rect x="675.617" y="8.057" opacity="0.1" fill="#3D3D3C" enable-background="new    " width="7.521" height="7.714"/>
<rect x="668.097" y="0.343" opacity="0.1" fill="#3D3D3C" enable-background="new    " width="7.521" height="7.714"/>
<rect x="683.137" y="0.343" opacity="0.1" fill="#3D3D3C" enable-background="new    " width="7.521" height="7.714"/>
<rect x="690.658" y="8.057" opacity="0.1" fill="#3D3D3C" enable-background="new    " width="7.521" height="7.714"/>
<rect x="698.178" y="0.343" opacity="0.1" fill="#3D3D3C" enable-background="new    " width="7.521" height="7.714"/>
<rect x="705.699" y="8.057" opacity="0.1" fill="#3D3D3C" enable-background="new    " width="7.521" height="7.714"/>
<rect x="698.178" y="15.771" opacity="0.1" fill="#3D3D3C" enable-background="new    " width="7.521" height="7.715"/>
<rect x="705.699" y="23.486" opacity="0.1" fill="#3D3D3C" enable-background="new    " width="7.521" height="7.714"/>
<rect x="713.219" y="0.343" opacity="0.1" fill="#3D3D3C" enable-background="new    " width="7.521" height="7.714"/>
<rect x="720.739" y="8.057" opacity="0.1" fill="#3D3D3C" enable-background="new    " width="7.521" height="7.714"/>
<rect x="728.259" y="15.771" opacity="0.1" fill="#3D3D3C" enable-background="new    " width="7.521" height="7.715"/>
<rect x="720.739" y="23.486" opacity="0.1" fill="#3D3D3C" enable-background="new    " width="7.521" height="7.714"/>
<rect x="728.259" y="31.2" opacity="0.1" fill="#3D3D3C" enable-background="new    " width="7.521" height="7.714"/>
<rect x="720.739" y="38.914" opacity="0.1" fill="#3D3D3C" enable-background="new    " width="7.521" height="7.715"/>
<rect x="728.259" y="46.628" opacity="0.1" fill="#3D3D3C" enable-background="new    " width="7.521" height="7.714"/>
<rect x="713.219" y="15.771" opacity="0.1" fill="#3D3D3C" enable-background="new    " width="7.521" height="7.715"/>
<rect x="713.219" y="31.2" opacity="0.1" fill="#3D3D3C" enable-background="new    " width="7.521" height="7.714"/>
<rect x="713.219" y="46.628" opacity="0.1" fill="#3D3D3C" enable-background="new    " width="7.521" height="7.714"/>
<rect x="734.777" y="38.914" opacity="0.1" fill="#3D3D3C" enable-background="new    " width="7.521" height="7.715"/>
<rect x="743.3" y="46.628" opacity="0.1" fill="#3D3D3C" enable-background="new    " width="7.521" height="7.714"/>
<rect x="735.78" y="23.486" opacity="0.1" fill="#3D3D3C" enable-background="new    " width="7.521" height="7.714"/>
<rect x="743.3" y="31.2" opacity="0.1" fill="#3D3D3C" enable-background="new    " width="7.521" height="7.714"/>
<rect x="750.821" y="38.914" opacity="0.1" fill="#3D3D3C" enable-background="new    " width="7.52" height="7.715"/>
<rect x="720.739" y="54.342" opacity="0.1" fill="#3D3D3C" enable-background="new    " width="7.521" height="7.715"/>
<rect x="735.78" y="54.342" opacity="0.1" fill="#3D3D3C" enable-background="new    " width="7.521" height="7.715"/>
<rect x="750.821" y="54.342" opacity="0.1" fill="#3D3D3C" enable-background="new    " width="7.52" height="7.715"/>
<rect x="758.34" y="46.628" opacity="0.1" fill="#3D3D3C" enable-background="new    " width="7.521" height="7.714"/>
<rect x="765.861" y="54.342" opacity="0.1" fill="#3D3D3C" enable-background="new    " width="7.521" height="7.715"/>
<rect x="765.861" y="38.914" opacity="0.1" fill="#3D3D3C" enable-background="new    " width="7.521" height="7.715"/>
<rect x="758.34" y="31.2" opacity="0.1" fill="#3D3D3C" enable-background="new    " width="7.521" height="7.714"/>
<rect x="750.821" y="23.486" opacity="0.1" fill="#3D3D3C" enable-background="new    " width="7.52" height="7.714"/>
<rect x="743.3" y="15.771" opacity="0.1" fill="#3D3D3C" enable-background="new    " width="7.521" height="7.715"/>
<rect x="735.78" y="8.057" opacity="0.1" fill="#3D3D3C" enable-background="new    " width="7.521" height="7.714"/>
<rect x="728.259" y="0.343" opacity="0.1" fill="#3D3D3C" enable-background="new    " width="7.521" height="7.714"/>
<rect x="743.3" y="0.343" opacity="0.1" fill="#3D3D3C" enable-background="new    " width="7.521" height="7.714"/>
<rect x="750.821" y="8.057" opacity="0.1" fill="#3D3D3C" enable-background="new    " width="7.52" height="7.714"/>
<rect x="758.34" y="0.343" opacity="0.1" fill="#3D3D3C" enable-background="new    " width="7.521" height="7.714"/>
<rect x="765.861" y="8.057" opacity="0.1" fill="#3D3D3C" enable-background="new    " width="7.521" height="7.714"/>
<rect x="758.34" y="15.771" opacity="0.1" fill="#3D3D3C" enable-background="new    " width="7.521" height="7.715"/>
<rect x="765.861" y="23.486" opacity="0.1" fill="#3D3D3C" enable-background="new    " width="7.521" height="7.714"/>
<rect x="773.381" y="0.343" opacity="0.1" fill="#3D3D3C" enable-background="new    " width="7.521" height="7.714"/>
<rect x="780.902" y="8.057" opacity="0.1" fill="#3D3D3C" enable-background="new    " width="7.521" height="7.714"/>
<rect x="788.422" y="15.771" opacity="0.1" fill="#3D3D3C" enable-background="new    " width="7.521" height="7.715"/>
<rect x="780.902" y="23.486" opacity="0.1" fill="#3D3D3C" enable-background="new    " width="7.521" height="7.714"/>
<rect x="788.422" y="31.2" opacity="0.1" fill="#3D3D3C" enable-background="new    " width="7.521" height="7.714"/>
<rect x="780.902" y="38.914" opacity="0.1" fill="#3D3D3C" enable-background="new    " width="7.521" height="7.715"/>
<rect x="788.422" y="46.628" opacity="0.1" fill="#3D3D3C" enable-background="new    " width="7.521" height="7.714"/>
<rect x="773.381" y="15.771" opacity="0.1" fill="#3D3D3C" enable-background="new    " width="7.521" height="7.715"/>
<rect x="773.381" y="31.2" opacity="0.1" fill="#3D3D3C" enable-background="new    " width="7.521" height="7.714"/>
<rect x="773.381" y="46.628" opacity="0.1" fill="#3D3D3C" enable-background="new    " width="7.521" height="7.714"/>
<rect x="794.94" y="38.914" opacity="0.1" fill="#3D3D3C" enable-background="new    " width="7.52" height="7.715"/>
<rect x="803.462" y="46.628" opacity="0.1" fill="#3D3D3C" enable-background="new    " width="7.521" height="7.714"/>
<rect x="795.942" y="23.486" opacity="0.1" fill="#3D3D3C" enable-background="new    " width="7.521" height="7.714"/>
<rect x="803.462" y="31.2" opacity="0.1" fill="#3D3D3C" enable-background="new    " width="7.521" height="7.714"/>
<rect x="810.983" y="38.914" opacity="0.1" fill="#3D3D3C" enable-background="new    " width="7.521" height="7.715"/>
<rect x="780.902" y="54.342" opacity="0.1" fill="#3D3D3C" enable-background="new    " width="7.521" height="7.715"/>
<rect x="795.942" y="54.342" opacity="0.1" fill="#3D3D3C" enable-background="new    " width="7.521" height="7.715"/>
<rect x="810.983" y="54.342" opacity="0.1" fill="#3D3D3C" enable-background="new    " width="7.521" height="7.715"/>
<rect x="818.503" y="46.628" opacity="0.1" fill="#3D3D3C" enable-background="new    " width="7.521" height="7.714"/>
<rect x="826.024" y="54.342" opacity="0.1" fill="#3D3D3C" enable-background="new    " width="7.52" height="7.715"/>
<rect x="826.024" y="38.914" opacity="0.1" fill="#3D3D3C" enable-background="new    " width="7.52" height="7.715"/>
<rect x="818.503" y="31.2" opacity="0.1" fill="#3D3D3C" enable-background="new    " width="7.521" height="7.714"/>
<rect x="810.983" y="23.486" opacity="0.1" fill="#3D3D3C" enable-background="new    " width="7.521" height="7.714"/>
<rect x="803.462" y="15.771" opacity="0.1" fill="#3D3D3C" enable-background="new    " width="7.521" height="7.715"/>
<rect x="795.942" y="8.057" opacity="0.1" fill="#3D3D3C" enable-background="new    " width="7.521" height="7.714"/>
<rect x="788.422" y="0.343" opacity="0.1" fill="#3D3D3C" enable-background="new    " width="7.521" height="7.714"/>
<rect x="803.462" y="0.343" opacity="0.1" fill="#3D3D3C" enable-background="new    " width="7.521" height="7.714"/>
<rect x="810.983" y="8.057" opacity="0.1" fill="#3D3D3C" enable-background="new    " width="7.521" height="7.714"/>
<rect x="818.503" y="0.343" opacity="0.1" fill="#3D3D3C" enable-background="new    " width="7.521" height="7.714"/>
<rect x="826.024" y="8.057" opacity="0.1" fill="#3D3D3C" enable-background="new    " width="7.52" height="7.714"/>
<rect x="818.503" y="15.771" opacity="0.1" fill="#3D3D3C" enable-background="new    " width="7.521" height="7.715"/>
<rect x="826.024" y="23.486" opacity="0.1" fill="#3D3D3C" enable-background="new    " width="7.52" height="7.714"/>
<rect x="833.543" y="15.771" opacity="0.1" fill="#3D3D3C" enable-background="new    " width="7.521" height="7.715"/>
<rect x="833.543" y="31.2" opacity="0.1" fill="#3D3D3C" enable-background="new    " width="7.521" height="7.714"/>
<rect x="833.543" y="46.628" opacity="0.1" fill="#3D3D3C" enable-background="new    " width="7.521" height="7.714"/>
<rect x="840.061" y="38.914" opacity="0.1" fill="#3D3D3C" enable-background="new    " width="7.521" height="7.715"/>
<rect x="848.584" y="46.628" opacity="0.1" fill="#3D3D3C" enable-background="new    " width="7.521" height="7.714"/>
<rect x="841.064" y="23.486" opacity="0.1" fill="#3D3D3C" enable-background="new    " width="7.521" height="7.714"/>
<rect x="848.584" y="31.2" opacity="0.1" fill="#3D3D3C" enable-background="new    " width="7.521" height="7.714"/>
<rect x="856.105" y="38.914" opacity="0.1" fill="#3D3D3C" enable-background="new    " width="7.521" height="7.715"/>
<rect x="841.064" y="54.342" opacity="0.1" fill="#3D3D3C" enable-background="new    " width="7.521" height="7.715"/>
<rect x="856.105" y="54.342" opacity="0.1" fill="#3D3D3C" enable-background="new    " width="7.521" height="7.715"/>
<rect x="863.625" y="46.628" opacity="0.1" fill="#3D3D3C" enable-background="new    " width="7.52" height="7.714"/>
<rect x="863.625" y="31.2" opacity="0.1" fill="#3D3D3C" enable-background="new    " width="7.52" height="7.714"/>
<rect x="856.105" y="23.486" opacity="0.1" fill="#3D3D3C" enable-background="new    " width="7.521" height="7.714"/>
<rect x="848.584" y="15.771" opacity="0.1" fill="#3D3D3C" enable-background="new    " width="7.521" height="7.715"/>
<rect x="841.064" y="8.057" opacity="0.1" fill="#3D3D3C" enable-background="new    " width="7.521" height="7.714"/>
<rect x="833.543" y="0.343" opacity="0.1" fill="#3D3D3C" enable-background="new    " width="7.521" height="7.714"/>
<rect x="848.584" y="0.343" opacity="0.1" fill="#3D3D3C" enable-background="new    " width="7.521" height="7.714"/>
<rect x="856.105" y="8.057" opacity="0.1" fill="#3D3D3C" enable-background="new    " width="7.521" height="7.714"/>
<rect x="863.625" y="0.343" opacity="0.1" fill="#3D3D3C" enable-background="new    " width="7.52" height="7.714"/>
<rect x="863.625" y="15.771" opacity="0.1" fill="#3D3D3C" enable-background="new    " width="7.52" height="7.715"/>
<rect x="547.771" y="62.732" opacity="0.1" fill="#3D3D3C" enable-background="new    " width="7.521" height="7.713"/>
<rect x="562.812" y="62.732" opacity="0.1" fill="#3D3D3C" enable-background="new    " width="7.521" height="7.713"/>
<rect x="577.854" y="62.732" opacity="0.1" fill="#3D3D3C" enable-background="new    " width="7.521" height="7.713"/>
<rect x="607.934" y="62.732" opacity="0.1" fill="#3D3D3C" enable-background="new    " width="7.521" height="7.713"/>
<rect x="592.893" y="62.732" opacity="0.1" fill="#3D3D3C" enable-background="new    " width="7.521" height="7.713"/>
<rect x="622.975" y="62.732" opacity="0.1" fill="#3D3D3C" enable-background="new    " width="7.521" height="7.713"/>
<rect x="638.015" y="62.732" opacity="0.1" fill="#3D3D3C" enable-background="new    " width="7.521" height="7.713"/>
<rect x="668.097" y="62.732" opacity="0.1" fill="#3D3D3C" enable-background="new    " width="7.521" height="7.713"/>
<rect x="653.056" y="62.732" opacity="0.1" fill="#3D3D3C" enable-background="new    " width="7.521" height="7.713"/>
<rect x="683.137" y="62.732" opacity="0.1" fill="#3D3D3C" enable-background="new    " width="7.521" height="7.713"/>
<rect x="698.178" y="62.732" opacity="0.1" fill="#3D3D3C" enable-background="new    " width="7.521" height="7.713"/>
<rect x="728.259" y="62.732" opacity="0.1" fill="#3D3D3C" enable-background="new    " width="7.521" height="7.713"/>
<rect x="713.219" y="62.732" opacity="0.1" fill="#3D3D3C" enable-background="new    " width="7.521" height="7.713"/>
<rect x="743.3" y="62.732" opacity="0.1" fill="#3D3D3C" enable-background="new    " width="7.521" height="7.713"/>
<rect x="758.34" y="62.732" opacity="0.1" fill="#3D3D3C" enable-background="new    " width="7.521" height="7.713"/>
<rect x="788.422" y="62.732" opacity="0.1" fill="#3D3D3C" enable-background="new    " width="7.521" height="7.713"/>
<rect x="773.381" y="62.732" opacity="0.1" fill="#3D3D3C" enable-background="new    " width="7.521" height="7.713"/>
<rect x="803.462" y="62.732" opacity="0.1" fill="#3D3D3C" enable-background="new    " width="7.521" height="7.713"/>
<rect x="818.503" y="62.732" opacity="0.1" fill="#3D3D3C" enable-background="new    " width="7.521" height="7.713"/>
<rect x="833.543" y="62.732" opacity="0.1" fill="#3D3D3C" enable-background="new    " width="7.521" height="7.713"/>
<rect x="848.584" y="62.732" opacity="0.1" fill="#3D3D3C" enable-background="new    " width="7.521" height="7.713"/>
<rect x="863.625" y="62.732" opacity="0.1" fill="#3D3D3C" enable-background="new    " width="7.52" height="7.713"/>
<polygon fill="#E3F1F6" points="573.395,-0.507 536.598,71.15 -0.004,70.314 0.017,-1.18 "/>
</svg>
