<?xml version="1.0" encoding="utf-8"?>
<!DOCTYPE svg PUBLIC "-//W3C//DTD SVG 1.1//EN" "http://www.w3.org/Graphics/SVG/1.1/DTD/svg11.dtd">
<svg version="1.1" id="Calque_1" xmlns="http://www.w3.org/2000/svg" xmlns:xlink="http://www.w3.org/1999/xlink" x="0px" y="0px"
	 width="872px" height="72px" viewBox="0 0 872 72" style="enable-background:new 0 0 872 72;" xml:space="preserve">
<style type="text/css"><![CDATA[
	.st0{opacity:0.8;fill:#1D1D1B;enable-background:new;} .st1{fill:#575757;enable-background:new;} .st2{fill:#5B5B5B;}
]]></style>
<rect x="-0.9" class="st0" width="872" height="72"/>
<rect x="547.8" y="32.1" class="st1" width="7.5" height="7.7"/>
<rect x="547.8" y="47.6" class="st1" width="7.5" height="7.7"/>
<rect x="555.3" y="39.9" class="st1" width="7.5" height="7.699"/>
<rect x="562.8" y="47.6" class="st1" width="7.5" height="7.7"/>
<rect x="555.3" y="24.4" class="st1" width="7.5" height="7.7"/>
<rect x="562.8" y="32.1" class="st1" width="7.5" height="7.7"/>
<rect x="570.3" y="39.9" class="st1" width="7.5" height="7.699"/>
<rect x="540.2" y="55.3" class="st1" width="7.5" height="7.7"/>
<rect x="555.3" y="55.3" class="st1" width="7.5" height="7.7"/>
<rect x="570.3" y="55.3" class="st1" width="7.5" height="7.7"/>
<rect x="577.8" y="47.6" class="st1" width="7.5" height="7.7"/>
<rect x="585.4" y="55.3" class="st1" width="7.5" height="7.7"/>
<rect x="585.4" y="39.9" class="st1" width="7.5" height="7.699"/>
<rect x="577.8" y="32.1" class="st1" width="7.5" height="7.7"/>
<rect x="570.3" y="24.4" class="st1" width="7.5" height="7.7"/>
<rect x="562.8" y="16.7" class="st1" width="7.5" height="7.7"/>
<rect x="562.8" y="1.3" class="st1" width="7.5" height="7.7"/>
<rect x="570.3" y="9" class="st1" width="7.5" height="7.7"/>
<rect x="577.8" y="1.3" class="st1" width="7.5" height="7.7"/>
<rect x="585.4" y="9" class="st1" width="7.5" height="7.7"/>
<rect x="577.8" y="16.7" class="st1" width="7.5" height="7.7"/>
<rect x="585.4" y="24.4" class="st1" width="7.5" height="7.7"/>
<rect x="592.9" y="1.3" class="st1" width="7.5" height="7.7"/>
<rect x="600.4" y="9" class="st1" width="7.5" height="7.7"/>
<rect x="607.9" y="16.7" class="st1" width="7.5" height="7.7"/>
<rect x="600.4" y="24.4" class="st1" width="7.5" height="7.7"/>
<rect x="607.9" y="32.1" class="st1" width="7.5" height="7.7"/>
<rect x="600.4" y="39.9" class="st1" width="7.5" height="7.699"/>
<rect x="607.9" y="47.6" class="st1" width="7.5" height="7.7"/>
<rect x="592.9" y="16.7" class="st1" width="7.5" height="7.7"/>
<rect x="592.9" y="32.1" class="st1" width="7.5" height="7.7"/>
<rect x="592.9" y="47.6" class="st1" width="7.5" height="7.7"/>
<rect x="615.5" y="39.9" class="st1" width="7.5" height="7.699"/>
<rect x="623" y="47.6" class="st1" width="7.5" height="7.7"/>
<rect x="615.5" y="24.4" class="st1" width="7.5" height="7.7"/>
<rect x="623" y="32.1" class="st1" width="7.5" height="7.7"/>
<rect x="630.5" y="39.9" class="st1" width="7.5" height="7.699"/>
<rect x="600.4" y="55.3" class="st1" width="7.5" height="7.7"/>
<rect x="615.5" y="55.3" class="st1" width="7.5" height="7.7"/>
<rect x="630.5" y="55.3" class="st1" width="7.5" height="7.7"/>
<rect x="638" y="47.6" class="st1" width="7.5" height="7.7"/>
<rect x="645.5" y="55.3" class="st1" width="7.5" height="7.7"/>
<rect x="645.5" y="39.9" class="st1" width="7.5" height="7.699"/>
<rect x="638" y="32.1" class="st1" width="7.5" height="7.7"/>
<rect x="630.5" y="24.4" class="st1" width="7.5" height="7.7"/>
<rect x="623" y="16.7" class="st1" width="7.5" height="7.7"/>
<rect x="615.5" y="9" class="st1" width="7.5" height="7.7"/>
<rect x="607.9" y="1.3" class="st1" width="7.5" height="7.7"/>
<rect x="623" y="1.3" class="st1" width="7.5" height="7.7"/>
<rect x="630.5" y="9" class="st1" width="7.5" height="7.7"/>
<rect x="638" y="1.3" class="st1" width="7.5" height="7.7"/>
<rect x="645.5" y="9" class="st1" width="7.5" height="7.7"/>
<rect x="638" y="16.7" class="st1" width="7.5" height="7.7"/>
<rect x="645.5" y="24.4" class="st1" width="7.5" height="7.7"/>
<rect x="653.1" y="1.3" class="st1" width="7.5" height="7.7"/>
<rect x="660.6" y="9" class="st1" width="7.5" height="7.7"/>
<rect x="668.1" y="16.7" class="st1" width="7.5" height="7.7"/>
<rect x="660.6" y="24.4" class="st1" width="7.5" height="7.7"/>
<rect x="668.1" y="32.1" class="st1" width="7.5" height="7.7"/>
<rect x="660.6" y="39.9" class="st1" width="7.5" height="7.699"/>
<rect x="668.1" y="47.6" class="st1" width="7.5" height="7.7"/>
<rect x="653.1" y="16.7" class="st1" width="7.5" height="7.7"/>
<rect x="653.1" y="32.1" class="st1" width="7.5" height="7.7"/>
<rect x="653.1" y="47.6" class="st1" width="7.5" height="7.7"/>
<rect x="675.6" y="39.9" class="st1" width="7.5" height="7.699"/>
<rect x="683.1" y="47.6" class="st1" width="7.5" height="7.7"/>
<rect x="675.6" y="24.4" class="st1" width="7.5" height="7.7"/>
<rect x="683.1" y="32.1" class="st1" width="7.5" height="7.7"/>
<rect x="690.7" y="39.9" class="st1" width="7.5" height="7.699"/>
<rect x="660.6" y="55.3" class="st1" width="7.5" height="7.7"/>
<rect x="675.6" y="55.3" class="st1" width="7.5" height="7.7"/>
<rect x="690.7" y="55.3" class="st1" width="7.5" height="7.7"/>
<rect x="698.2" y="47.6" class="st1" width="7.5" height="7.7"/>
<rect x="705.7" y="55.3" class="st1" width="7.5" height="7.7"/>
<rect x="705.7" y="39.9" class="st1" width="7.5" height="7.699"/>
<rect x="698.2" y="32.1" class="st1" width="7.5" height="7.7"/>
<rect x="690.7" y="24.4" class="st1" width="7.5" height="7.7"/>
<rect x="683.1" y="16.7" class="st1" width="7.5" height="7.7"/>
<rect x="675.6" y="9" class="st1" width="7.5" height="7.7"/>
<rect x="668.1" y="1.3" class="st1" width="7.5" height="7.7"/>
<rect x="683.1" y="1.3" class="st1" width="7.5" height="7.7"/>
<rect x="690.7" y="9" class="st1" width="7.5" height="7.7"/>
<rect x="698.2" y="1.3" class="st1" width="7.5" height="7.7"/>
<rect x="705.7" y="9" class="st1" width="7.5" height="7.7"/>
<rect x="698.2" y="16.7" class="st1" width="7.5" height="7.7"/>
<rect x="705.7" y="24.4" class="st1" width="7.5" height="7.7"/>
<rect x="713.2" y="1.3" class="st1" width="7.5" height="7.7"/>
<rect x="720.7" y="9" class="st1" width="7.5" height="7.7"/>
<rect x="728.3" y="16.7" class="st1" width="7.5" height="7.7"/>
<rect x="720.7" y="24.4" class="st1" width="7.5" height="7.7"/>
<rect x="728.3" y="32.1" class="st1" width="7.5" height="7.7"/>
<rect x="720.7" y="39.9" class="st1" width="7.5" height="7.699"/>
<rect x="728.3" y="47.6" class="st1" width="7.5" height="7.7"/>
<rect x="713.2" y="16.7" class="st1" width="7.5" height="7.7"/>
<rect x="713.2" y="32.1" class="st1" width="7.5" height="7.7"/>
<rect x="713.2" y="47.6" class="st1" width="7.5" height="7.7"/>
<rect x="735.8" y="39.9" class="st1" width="7.5" height="7.699"/>
<rect x="743.3" y="47.6" class="st1" width="7.5" height="7.7"/>
<rect x="735.8" y="24.4" class="st1" width="7.5" height="7.7"/>
<rect x="743.3" y="32.1" class="st1" width="7.5" height="7.7"/>
<rect x="750.8" y="39.9" class="st1" width="7.5" height="7.699"/>
<rect x="720.7" y="55.3" class="st1" width="7.5" height="7.7"/>
<rect x="735.8" y="55.3" class="st1" width="7.5" height="7.7"/>
<rect x="750.8" y="55.3" class="st1" width="7.5" height="7.7"/>
<rect x="758.3" y="47.6" class="st1" width="7.5" height="7.7"/>
<rect x="765.9" y="55.3" class="st1" width="7.5" height="7.7"/>
<rect x="765.9" y="39.9" class="st1" width="7.5" height="7.699"/>
<rect x="758.3" y="32.1" class="st1" width="7.5" height="7.7"/>
<rect x="750.8" y="24.4" class="st1" width="7.5" height="7.7"/>
<rect x="743.3" y="16.7" class="st1" width="7.5" height="7.7"/>
<rect x="735.8" y="9" class="st1" width="7.5" height="7.7"/>
<rect x="728.3" y="1.3" class="st1" width="7.5" height="7.7"/>
<rect x="743.3" y="1.3" class="st1" width="7.5" height="7.7"/>
<rect x="750.8" y="9" class="st1" width="7.5" height="7.7"/>
<rect x="758.3" y="1.3" class="st1" width="7.5" height="7.7"/>
<rect x="765.9" y="9" class="st1" width="7.5" height="7.7"/>
<rect x="758.3" y="16.7" class="st1" width="7.5" height="7.7"/>
<rect x="765.9" y="24.4" class="st1" width="7.5" height="7.7"/>
<rect x="773.4" y="1.3" class="st1" width="7.5" height="7.7"/>
<rect x="780.9" y="9" class="st1" width="7.5" height="7.7"/>
<rect x="788.4" y="16.7" class="st1" width="7.5" height="7.7"/>
<rect x="780.9" y="24.4" class="st1" width="7.5" height="7.7"/>
<rect x="788.4" y="32.1" class="st1" width="7.5" height="7.7"/>
<rect x="780.9" y="39.9" class="st1" width="7.5" height="7.699"/>
<rect x="788.4" y="47.6" class="st1" width="7.5" height="7.7"/>
<rect x="773.4" y="16.7" class="st1" width="7.5" height="7.7"/>
<rect x="773.4" y="32.1" class="st1" width="7.5" height="7.7"/>
<rect x="773.4" y="47.6" class="st1" width="7.5" height="7.7"/>
<rect x="795.9" y="39.9" class="st1" width="7.5" height="7.699"/>
<rect x="803.5" y="47.6" class="st1" width="7.5" height="7.7"/>
<rect x="795.9" y="24.4" class="st1" width="7.5" height="7.7"/>
<rect x="803.5" y="32.1" class="st1" width="7.5" height="7.7"/>
<rect x="811" y="39.9" class="st1" width="7.5" height="7.699"/>
<rect x="780.9" y="55.3" class="st1" width="7.5" height="7.7"/>
<rect x="795.9" y="55.3" class="st1" width="7.5" height="7.7"/>
<rect x="811" y="55.3" class="st1" width="7.5" height="7.7"/>
<rect x="818.5" y="47.6" class="st1" width="7.5" height="7.7"/>
<rect x="826" y="55.3" class="st1" width="7.5" height="7.7"/>
<rect x="826" y="39.9" class="st1" width="7.5" height="7.699"/>
<rect x="818.5" y="32.1" class="st1" width="7.5" height="7.7"/>
<rect x="811" y="24.4" class="st1" width="7.5" height="7.7"/>
<rect x="803.5" y="16.7" class="st1" width="7.5" height="7.7"/>
<rect x="795.9" y="9" class="st1" width="7.5" height="7.7"/>
<rect x="788.4" y="1.3" class="st1" width="7.5" height="7.7"/>
<rect x="803.5" y="1.3" class="st1" width="7.5" height="7.7"/>
<rect x="811" y="9" class="st1" width="7.5" height="7.7"/>
<rect x="818.5" y="1.3" class="st1" width="7.5" height="7.7"/>
<rect x="826" y="9" class="st1" width="7.5" height="7.7"/>
<rect x="818.5" y="16.7" class="st1" width="7.5" height="7.7"/>
<rect x="826" y="24.4" class="st1" width="7.5" height="7.7"/>
<rect x="833.5" y="16.7" class="st1" width="7.5" height="7.7"/>
<rect x="833.5" y="32.1" class="st1" width="7.5" height="7.7"/>
<rect x="833.5" y="47.6" class="st1" width="7.5" height="7.7"/>
<rect x="841.1" y="39.9" class="st1" width="7.5" height="7.699"/>
<rect x="848.6" y="47.6" class="st1" width="7.5" height="7.7"/>
<rect x="841.1" y="24.4" class="st1" width="7.5" height="7.7"/>
<rect x="848.6" y="32.1" class="st1" width="7.5" height="7.7"/>
<rect x="856.1" y="39.9" class="st1" width="7.5" height="7.699"/>
<rect x="841.1" y="55.3" class="st1" width="7.5" height="7.7"/>
<rect x="856.1" y="55.3" class="st1" width="7.5" height="7.7"/>
<rect x="863.6" y="47.6" class="st1" width="7.5" height="7.7"/>
<rect x="863.6" y="32.1" class="st1" width="7.5" height="7.7"/>
<rect x="856.1" y="24.4" class="st1" width="7.5" height="7.7"/>
<rect x="848.6" y="16.7" class="st1" width="7.5" height="7.7"/>
<rect x="841.1" y="9" class="st1" width="7.5" height="7.7"/>
<rect x="833.5" y="1.3" class="st1" width="7.5" height="7.7"/>
<rect x="848.6" y="1.3" class="st1" width="7.5" height="7.7"/>
<rect x="856.1" y="9" class="st1" width="7.5" height="7.7"/>
<rect x="863.6" y="1.3" class="st1" width="7.5" height="7.7"/>
<rect x="863.6" y="16.7" class="st1" width="7.5" height="7.7"/>
<rect x="547.8" y="63" class="st1" width="7.5" height="7.7"/>
<rect x="562.8" y="63" class="st1" width="7.5" height="7.7"/>
<rect x="577.8" y="63" class="st1" width="7.5" height="7.7"/>
<rect x="607.9" y="63" class="st1" width="7.5" height="7.7"/>
<rect x="592.9" y="63" class="st1" width="7.5" height="7.7"/>
<rect x="623" y="63" class="st1" width="7.5" height="7.7"/>
<rect x="638" y="63" class="st1" width="7.5" height="7.7"/>
<rect x="668.1" y="63" class="st1" width="7.5" height="7.7"/>
<rect x="653.1" y="63" class="st1" width="7.5" height="7.7"/>
<rect x="683.1" y="63" class="st1" width="7.5" height="7.7"/>
<rect x="698.2" y="63" class="st1" width="7.5" height="7.7"/>
<rect x="728.3" y="63" class="st1" width="7.5" height="7.7"/>
<rect x="713.2" y="63" class="st1" width="7.5" height="7.7"/>
<rect x="743.3" y="63" class="st1" width="7.5" height="7.7"/>
<rect x="758.3" y="63" class="st1" width="7.5" height="7.7"/>
<rect x="788.4" y="63" class="st1" width="7.5" height="7.7"/>
<rect x="773.4" y="63" class="st1" width="7.5" height="7.7"/>
<rect x="803.5" y="63" class="st1" width="7.5" height="7.7"/>
<rect x="818.5" y="63" class="st1" width="7.5" height="7.7"/>
<rect x="833.5" y="63" class="st1" width="7.5" height="7.7"/>
<rect x="848.6" y="63" class="st1" width="7.5" height="7.7"/>
<rect x="863.6" y="63" class="st1" width="7.5" height="7.7"/>
<polygon class="st2" points="574.4,0 537.6,72 -0.9,71.8 -0.8,0.2 "/>
</svg>
