<svg xmlns="http://www.w3.org/2000/svg" width="872" height="72" viewBox="0 0 872 72"><style type="text/css"><![CDATA[	
	.st0{fill:#E6BC95;} .st1{fill:#EECDAE;} .st2{opacity:0.1;fill:#3D3D3C;enable-background:new;}
]]></style><path class="st0" d="M-.9-.6h872v72h-872z"/><path class="st2" d="M547.8 31.2h7.5v7.7h-7.5zm0 15.4h7.5v7.7h-7.5zm6.5-7.7h7.5v7.7h-7.5zm8.5 7.7h7.5v7.7h-7.5zm-7.5-23.1h7.5v7.7h-7.5zm7.5 7.7h7.5v7.7h-7.5zm7.5 7.7h7.5v7.7h-7.5zm-30.1 15.4h7.5v7.7h-7.5zm-7.5 8.4h7.5v7.7h-7.5zm22.6-8.4h7.5v7.7h-7.5zm15 0h7.5v7.7h-7.5zm7.5-7.7h7.5v7.7h-7.5zm7.6 7.7h7.5v7.7h-7.5zm0-15.4h7.5v7.7h-7.5zm-7.6-7.7h7.5v7.7h-7.5zm-7.5-7.7h7.5v7.7h-7.5zm-7.5-7.7h7.5v7.7h-7.5zm0-15.5h7.5v7.7h-7.5zm7.5 7.8h7.5v7.7h-7.5zm7.5-7.8h7.5v7.7h-7.5zm7.6 7.8h7.5v7.7h-7.5zm-7.6 7.7h7.5v7.7h-7.5zm7.6 7.7h7.5v7.7h-7.5zm7.5-23.2h7.5v7.7h-7.5zm7.5 7.8h7.5v7.7h-7.5zm7.5 7.7h7.5v7.7h-7.5zm-7.5 7.7h7.5v7.7h-7.5zm7.5 7.7h7.5v7.7h-7.5zm-7.5 7.7h7.5v7.7h-7.5zm7.5 7.7h7.5v7.7h-7.5zm-15-30.8h7.5v7.7h-7.5zm0 15.4h7.5v7.7h-7.5zm0 15.4h7.5v7.7h-7.5zm21.6-7.7h7.5v7.7h-7.5zm8.5 7.7h7.5v7.7h-7.5zm-7.5-23.1h7.5v7.7h-7.5zm7.5 7.7h7.5v7.7h-7.5zm7.5 7.7h7.5v7.7h-7.5zm-30.1 15.4h7.5v7.7h-7.5zm15.1 0h7.5v7.7h-7.5zm15 0h7.5v7.7h-7.5zm7.5-7.7h7.5v7.7h-7.5zm7.5 7.7h7.5v7.7h-7.5zm0-15.4h7.5v7.7h-7.5zm-7.5-7.7h7.5v7.7h-7.5zm-7.5-7.7h7.5v7.7h-7.5zm-7.5-7.7h7.5v7.7h-7.5zm-7.5-7.7h7.5v7.7h-7.5zm-7.6-7.8h7.5v7.7h-7.5zm15.1 0h7.5v7.7h-7.5zm7.5 7.8h7.5v7.7h-7.5zm7.5-7.8h7.5v7.7h-7.5zm7.5 7.8h7.5v7.7h-7.5zm-7.5 7.7h7.5v7.7h-7.5zm7.5 7.7h7.5v7.7h-7.5zm7.6-23.2h7.5v7.7h-7.5zm7.5 7.8h7.5v7.7h-7.5zm7.5 7.7h7.5v7.7h-7.5zm-7.5 7.7h7.5v7.7h-7.5zm7.5 7.7h7.5v7.7h-7.5zm-7.5 7.7h7.5v7.7h-7.5zm7.5 7.7h7.5v7.7h-7.5zm-15-30.8h7.5v7.7h-7.5zm0 15.4h7.5v7.7h-7.5zm0 15.4h7.5v7.7h-7.5zm21.5-7.7h7.5v7.7h-7.5zm8.5 7.7h7.5v7.7h-7.5zm-7.5-23.1h7.5v7.7h-7.5zm7.5 7.7h7.5v7.7h-7.5zm7.6 7.7h7.5v7.7h-7.5zm-30.1 15.4h7.5v7.7h-7.5zm15 0h7.5v7.7h-7.5zm15.1 0h7.5v7.7h-7.5zm7.5-7.7h7.5v7.7h-7.5zm7.5 7.7h7.5v7.7h-7.5zm0-15.4h7.5v7.7h-7.5zm-7.5-7.7h7.5v7.7h-7.5zm-7.5-7.7h7.5v7.7h-7.5zm-7.6-7.7h7.5v7.7h-7.5zm-7.5-7.7h7.5v7.7h-7.5zm-7.5-7.8h7.5v7.7h-7.5zm15 0h7.5v7.7h-7.5zm7.6 7.8h7.5v7.7h-7.5zm7.5-7.8h7.5v7.7h-7.5zm7.5 7.8h7.5v7.7h-7.5zm-7.5 7.7h7.5v7.7h-7.5zm7.5 7.7h7.5v7.7h-7.5zm7.5-23.2h7.5v7.7h-7.5zm7.5 7.8h7.5v7.7h-7.5zm7.6 7.7h7.5v7.7h-7.5zm-7.6 7.7h7.5v7.7h-7.5zm7.6 7.7h7.5v7.7h-7.5zm-7.6 7.7h7.5v7.7h-7.5zm7.6 7.7h7.5v7.7h-7.5zm-15.1-30.8h7.5v7.7h-7.5zm0 15.4h7.5v7.7h-7.5zm0 15.4h7.5v7.7h-7.5zm21.6-7.7h7.5v7.7h-7.5zm8.5 7.7h7.5v7.7h-7.5zm-7.5-23.1h7.5v7.7h-7.5zm7.5 7.7h7.5v7.7h-7.5zm7.5 7.7h7.5v7.7h-7.5zm-30.1 15.4h7.5v7.7h-7.5zm15.1 0h7.5v7.7h-7.5zm15 0h7.5v7.7h-7.5zm7.5-7.7h7.5v7.7h-7.5zm7.6 7.7h7.5v7.7h-7.5zm0-15.4h7.5v7.7h-7.5zm-7.6-7.7h7.5v7.7h-7.5zm-7.5-7.7h7.5v7.7h-7.5zm-7.5-7.7h7.5v7.7h-7.5zm-7.5-7.7h7.5v7.7h-7.5zm-7.5-7.8h7.5v7.7h-7.5zm15 0h7.5v7.7h-7.5zm7.5 7.8h7.5v7.7h-7.5zm7.5-7.8h7.5v7.7h-7.5zm7.6 7.8h7.5v7.7h-7.5zm-7.6 7.7h7.5v7.7h-7.5zm7.6 7.7h7.5v7.7h-7.5zm7.5-23.2h7.5v7.7h-7.5zm7.5 7.8h7.5v7.7h-7.5zm7.5 7.7h7.5v7.7h-7.5zm-7.5 7.7h7.5v7.7h-7.5zm7.5 7.7h7.5v7.7h-7.5zm-7.5 7.7h7.5v7.7h-7.5zm7.5 7.7h7.5v7.7h-7.5zm-15-30.8h7.5v7.7h-7.5zm0 15.4h7.5v7.7h-7.5zm0 15.4h7.5v7.7h-7.5zm21.5-7.7h7.5v7.7h-7.5zm8.6 7.7h7.5v7.7h-7.5zm-7.6-23.1h7.5v7.7h-7.5zm7.6 7.7h7.5v7.7h-7.5zm7.5 7.7h7.5v7.7h-7.5zm-30.1 15.4h7.5v7.7h-7.5zm15 0h7.5v7.7h-7.5zm15.1 0h7.5v7.7h-7.5zm7.5-7.7h7.5v7.7h-7.5zm7.5 7.7h7.5v7.7h-7.5zm0-15.4h7.5v7.7h-7.5zm-7.5-7.7h7.5v7.7h-7.5zm-7.5-7.7h7.5v7.7h-7.5zm-7.5-7.7h7.5v7.7h-7.5zm-7.6-7.7h7.5v7.7h-7.5zm-7.5-7.8h7.5v7.7h-7.5zm15.1 0h7.5v7.7h-7.5zm7.5 7.8h7.5v7.7h-7.5zm7.5-7.8h7.5v7.7h-7.5zm7.5 7.8h7.5v7.7h-7.5zm-7.5 7.7h7.5v7.7h-7.5zm7.5 7.7h7.5v7.7h-7.5zm7.5-7.7h7.5v7.7h-7.5zm0 15.4h7.5v7.7h-7.5zm0 15.4h7.5v7.7h-7.5zm6.6-7.7h7.5v7.7h-7.5zm8.5 7.7h7.5v7.7h-7.5zm-7.5-23.1h7.5v7.7h-7.5zm7.5 7.7h7.5v7.7h-7.5zm7.5 7.7h7.5v7.7h-7.5zm-15 15.4h7.5v7.7h-7.5zm15 0h7.5v7.7h-7.5zm7.5-7.7h7.5v7.7h-7.5zm0-15.4h7.5v7.7h-7.5zm-7.5-7.7h7.5v7.7h-7.5zm-7.5-7.7h7.5v7.7h-7.5zm-7.5-7.7h7.5v7.7h-7.5zm-7.6-7.8h7.5v7.7h-7.5zm15.1 0h7.5v7.7h-7.5zm7.5 7.8h7.5v7.7h-7.5zm7.5-7.8h7.5v7.7h-7.5zm0 15.5h7.5v7.7h-7.5zm-315.8 46.9h7.5v7.7h-7.5zm15 0h7.5v7.7h-7.5zm15 0h7.5v7.7h-7.5zm30.1 0h7.5v7.7h-7.5zm-15 0h7.5v7.7h-7.5zm30.1 0h7.5v7.7h-7.5zm15 0h7.5v7.7h-7.5zm30.1 0h7.5v7.7h-7.5zm-15 0h7.5v7.7h-7.5zm30 0h7.5v7.7h-7.5zm15.1 0h7.5v7.7h-7.5zm30.1 0h7.5v7.7h-7.5zm-15.1 0h7.5v7.7h-7.5zm30.1 0h7.5v7.7h-7.5zm15 0h7.5v7.7h-7.5zm30.1 0h7.5v7.7h-7.5zm-15 0h7.5v7.7h-7.5zm30.1 0h7.5v7.7h-7.5zm15 0h7.5v7.7h-7.5zm15 0h7.5v7.7h-7.5zm15.1 0h7.5v7.7h-7.5zm15 0h7.5v7.7h-7.5z"/><path class="st1" d="M573.4-.5l-36.8 71.7-536.6-.9v-71.5z"/></svg>