<svg xmlns="http://www.w3.org/2000/svg" width="872" height="72" viewBox="0 0 872 72"><style type="text/css"><![CDATA[	
	.st0{fill:#E6BC95;} .st1{fill:#EECDAE;} .st2{opacity:0.1;fill:#3D3D3C;enable-background:new;}
]]></style><path class="st0" d="M-.9-.6h872v72H-.9z"/><path class="st2" d="M547.8 31.2h7.5v7.7h-7.5zM547.8 46.6h7.5v7.7h-7.5zM554.3 38.9h7.5v7.7h-7.5zM562.8 46.6h7.5v7.7h-7.5zM555.3 23.5h7.5v7.7h-7.5zM562.8 31.2h7.5v7.7h-7.5zM570.3 38.9h7.5v7.7h-7.5zM540.2 54.3h7.5V62h-7.5zM532.7 62.7h7.5v7.7h-7.5zM555.3 54.3h7.5V62h-7.5zM570.3 54.3h7.5V62h-7.5zM577.8 46.6h7.5v7.7h-7.5zM585.4 54.3h7.5V62h-7.5zM585.4 38.9h7.5v7.7h-7.5zM577.8 31.2h7.5v7.7h-7.5zM570.3 23.5h7.5v7.7h-7.5zM562.8 15.8h7.5v7.7h-7.5zM562.8.3h7.5V8h-7.5zM570.3 8.1h7.5v7.7h-7.5zM577.8.3h7.5V8h-7.5zM585.4 8.1h7.5v7.7h-7.5zM577.8 15.8h7.5v7.7h-7.5zM585.4 23.5h7.5v7.7h-7.5zM592.9.3h7.5V8h-7.5zM600.4 8.1h7.5v7.7h-7.5zM607.9 15.8h7.5v7.7h-7.5zM600.4 23.5h7.5v7.7h-7.5zM607.9 31.2h7.5v7.7h-7.5zM600.4 38.9h7.5v7.7h-7.5zM607.9 46.6h7.5v7.7h-7.5zM592.9 15.8h7.5v7.7h-7.5zM592.9 31.2h7.5v7.7h-7.5zM592.9 46.6h7.5v7.7h-7.5zM614.5 38.9h7.5v7.7h-7.5zM623 46.6h7.5v7.7H623zM615.5 23.5h7.5v7.7h-7.5zM623 31.2h7.5v7.7H623zM630.5 38.9h7.5v7.7h-7.5zM600.4 54.3h7.5V62h-7.5zM615.5 54.3h7.5V62h-7.5zM630.5 54.3h7.5V62h-7.5zM638 46.6h7.5v7.7H638zM645.5 54.3h7.5V62h-7.5zM645.5 38.9h7.5v7.7h-7.5zM638 31.2h7.5v7.7H638zM630.5 23.5h7.5v7.7h-7.5zM623 15.8h7.5v7.7H623zM615.5 8.1h7.5v7.7h-7.5zM607.9.3h7.5V8h-7.5zM623 .3h7.5V8H623zM630.5 8.1h7.5v7.7h-7.5zM638 .3h7.5V8H638zM645.5 8.1h7.5v7.7h-7.5zM638 15.8h7.5v7.7H638zM645.5 23.5h7.5v7.7h-7.5zM653.1.3h7.5V8h-7.5zM660.6 8.1h7.5v7.7h-7.5zM668.1 15.8h7.5v7.7h-7.5zM660.6 23.5h7.5v7.7h-7.5zM668.1 31.2h7.5v7.7h-7.5zM660.6 38.9h7.5v7.7h-7.5zM668.1 46.6h7.5v7.7h-7.5zM653.1 15.8h7.5v7.7h-7.5zM653.1 31.2h7.5v7.7h-7.5zM653.1 46.6h7.5v7.7h-7.5zM674.6 38.9h7.5v7.7h-7.5zM683.1 46.6h7.5v7.7h-7.5zM675.6 23.5h7.5v7.7h-7.5zM683.1 31.2h7.5v7.7h-7.5zM690.7 38.9h7.5v7.7h-7.5zM660.6 54.3h7.5V62h-7.5zM675.6 54.3h7.5V62h-7.5zM690.7 54.3h7.5V62h-7.5zM698.2 46.6h7.5v7.7h-7.5zM705.7 54.3h7.5V62h-7.5zM705.7 38.9h7.5v7.7h-7.5zM698.2 31.2h7.5v7.7h-7.5zM690.7 23.5h7.5v7.7h-7.5zM683.1 15.8h7.5v7.7h-7.5zM675.6 8.1h7.5v7.7h-7.5zM668.1.3h7.5V8h-7.5zM683.1.3h7.5V8h-7.5zM690.7 8.1h7.5v7.7h-7.5zM698.2.3h7.5V8h-7.5zM705.7 8.1h7.5v7.7h-7.5zM698.2 15.8h7.5v7.7h-7.5zM705.7 23.5h7.5v7.7h-7.5zM713.2.3h7.5V8h-7.5zM720.7 8.1h7.5v7.7h-7.5zM728.3 15.8h7.5v7.7h-7.5zM720.7 23.5h7.5v7.7h-7.5zM728.3 31.2h7.5v7.7h-7.5zM720.7 38.9h7.5v7.7h-7.5zM728.3 46.6h7.5v7.7h-7.5zM713.2 15.8h7.5v7.7h-7.5zM713.2 31.2h7.5v7.7h-7.5zM713.2 46.6h7.5v7.7h-7.5zM734.8 38.9h7.5v7.7h-7.5zM743.3 46.6h7.5v7.7h-7.5zM735.8 23.5h7.5v7.7h-7.5zM743.3 31.2h7.5v7.7h-7.5zM750.8 38.9h7.5v7.7h-7.5zM720.7 54.3h7.5V62h-7.5zM735.8 54.3h7.5V62h-7.5zM750.8 54.3h7.5V62h-7.5zM758.3 46.6h7.5v7.7h-7.5zM765.9 54.3h7.5V62h-7.5zM765.9 38.9h7.5v7.7h-7.5zM758.3 31.2h7.5v7.7h-7.5zM750.8 23.5h7.5v7.7h-7.5zM743.3 15.8h7.5v7.7h-7.5zM735.8 8.1h7.5v7.7h-7.5zM728.3.3h7.5V8h-7.5zM743.3.3h7.5V8h-7.5zM750.8 8.1h7.5v7.7h-7.5zM758.3.3h7.5V8h-7.5zM765.9 8.1h7.5v7.7h-7.5zM758.3 15.8h7.5v7.7h-7.5zM765.9 23.5h7.5v7.7h-7.5zM773.4.3h7.5V8h-7.5zM780.9 8.1h7.5v7.7h-7.5zM788.4 15.8h7.5v7.7h-7.5zM780.9 23.5h7.5v7.7h-7.5zM788.4 31.2h7.5v7.7h-7.5zM780.9 38.9h7.5v7.7h-7.5zM788.4 46.6h7.5v7.7h-7.5zM773.4 15.8h7.5v7.7h-7.5zM773.4 31.2h7.5v7.7h-7.5zM773.4 46.6h7.5v7.7h-7.5zM794.9 38.9h7.5v7.7h-7.5zM803.5 46.6h7.5v7.7h-7.5zM795.9 23.5h7.5v7.7h-7.5zM803.5 31.2h7.5v7.7h-7.5zM811 38.9h7.5v7.7H811zM780.9 54.3h7.5V62h-7.5zM795.9 54.3h7.5V62h-7.5zM811 54.3h7.5V62H811zM818.5 46.6h7.5v7.7h-7.5zM826 54.3h7.5V62H826zM826 38.9h7.5v7.7H826zM818.5 31.2h7.5v7.7h-7.5zM811 23.5h7.5v7.7H811zM803.5 15.8h7.5v7.7h-7.5zM795.9 8.1h7.5v7.7h-7.5zM788.4.3h7.5V8h-7.5zM803.5.3h7.5V8h-7.5zM811 8.1h7.5v7.7H811zM818.5.3h7.5V8h-7.5zM826 8.1h7.5v7.7H826zM818.5 15.8h7.5v7.7h-7.5zM826 23.5h7.5v7.7H826zM833.5 15.8h7.5v7.7h-7.5zM833.5 31.2h7.5v7.7h-7.5zM833.5 46.6h7.5v7.7h-7.5zM840.1 38.9h7.5v7.7h-7.5zM848.6 46.6h7.5v7.7h-7.5zM841.1 23.5h7.5v7.7h-7.5zM848.6 31.2h7.5v7.7h-7.5zM856.1 38.9h7.5v7.7h-7.5zM841.1 54.3h7.5V62h-7.5zM856.1 54.3h7.5V62h-7.5zM863.6 46.6h7.5v7.7h-7.5zM863.6 31.2h7.5v7.7h-7.5zM856.1 23.5h7.5v7.7h-7.5zM848.6 15.8h7.5v7.7h-7.5zM841.1 8.1h7.5v7.7h-7.5zM833.5.3h7.5V8h-7.5zM848.6.3h7.5V8h-7.5zM856.1 8.1h7.5v7.7h-7.5zM863.6.3h7.5V8h-7.5zM863.6 15.8h7.5v7.7h-7.5zM547.8 62.7h7.5v7.7h-7.5zM562.8 62.7h7.5v7.7h-7.5zM577.8 62.7h7.5v7.7h-7.5zM607.9 62.7h7.5v7.7h-7.5zM592.9 62.7h7.5v7.7h-7.5zM623 62.7h7.5v7.7H623zM638 62.7h7.5v7.7H638zM668.1 62.7h7.5v7.7h-7.5zM653.1 62.7h7.5v7.7h-7.5zM683.1 62.7h7.5v7.7h-7.5zM698.2 62.7h7.5v7.7h-7.5zM728.3 62.7h7.5v7.7h-7.5zM713.2 62.7h7.5v7.7h-7.5zM743.3 62.7h7.5v7.7h-7.5zM758.3 62.7h7.5v7.7h-7.5zM788.4 62.7h7.5v7.7h-7.5zM773.4 62.7h7.5v7.7h-7.5zM803.5 62.7h7.5v7.7h-7.5zM818.5 62.7h7.5v7.7h-7.5zM833.5 62.7h7.5v7.7h-7.5zM848.6 62.7h7.5v7.7h-7.5zM863.6 62.7h7.5v7.7h-7.5z"/><path class="st1" d="M573.4-.5l-36.8 71.7L0 70.3V-1.2z"/></svg>