<svg xmlns="http://www.w3.org/2000/svg" width="872" height="144" viewBox="0 0 872 144"><style type="text/css"><![CDATA[
	.st0{fill:#7AAFCC;}
	.st1{fill:#E3F1F6;}
	.st2{opacity:0.5;fill:#585858;}
	.st3{opacity:0.75;}
	.st4{fill:#BFBFBF;}
	.st5{fill:#5C5C5C;}
	.st6{fill:#5C9CBF;}
	.st7{fill:#999999;}
	.st8{fill:#CCE2EC;}
	.st9{fill:#C6DAE2;enable-background:new    ;}
	.st10{opacity:0.8;fill:#1E1E1C;enable-background:new    ;}
	.st11{fill:#737373;}
	.st12{fill:#A2C3D5;}
]]></style><path class="st8" d="M0-.4h872v72H0z"/><path class="st9" d="M548.7 31.4h7.5v7.7h-7.5zM548.7 46.8h7.5v7.7h-7.5zM555.2 39.1h7.5v7.7h-7.5zM563.7 46.8h7.5v7.7h-7.5zM556.2 23.7h7.5v7.7h-7.5zM563.7 31.4h7.5v7.7h-7.5zM571.2 39.1h7.5v7.7h-7.5zM541.1 54.5h7.5v7.7h-7.5zM533.6 62.9h7.5v7.7h-7.5zM556.2 54.5h7.5v7.7h-7.5zM571.2 54.5h7.5v7.7h-7.5zM578.7 46.8h7.5v7.7h-7.5zM586.3 54.5h7.5v7.7h-7.5zM586.3 39.1h7.5v7.7h-7.5zM578.7 31.4h7.5v7.7h-7.5zM571.2 23.7h7.5v7.7h-7.5zM563.7 16h7.5v7.7h-7.5zM563.7.5h7.5v7.7h-7.5zM571.2 8.3h7.5V16h-7.5zM578.7.5h7.5v7.7h-7.5zM586.3 8.3h7.5V16h-7.5zM578.7 16h7.5v7.7h-7.5zM586.3 23.7h7.5v7.7h-7.5zM593.8.5h7.5v7.7h-7.5zM601.3 8.3h7.5V16h-7.5zM608.8 16h7.5v7.7h-7.5zM601.3 23.7h7.5v7.7h-7.5zM608.8 31.4h7.5v7.7h-7.5zM601.3 39.1h7.5v7.7h-7.5zM608.8 46.8h7.5v7.7h-7.5zM593.8 16h7.5v7.7h-7.5zM593.8 31.4h7.5v7.7h-7.5zM593.8 46.8h7.5v7.7h-7.5zM615.4 39.1h7.5v7.7h-7.5zM623.9 46.8h7.5v7.7h-7.5zM616.4 23.7h7.5v7.7h-7.5zM623.9 31.4h7.5v7.7h-7.5zM631.4 39.1h7.5v7.7h-7.5zM601.3 54.5h7.5v7.7h-7.5zM616.4 54.5h7.5v7.7h-7.5zM631.4 54.5h7.5v7.7h-7.5zM638.9 46.8h7.5v7.7h-7.5zM646.4 54.5h7.5v7.7h-7.5zM646.4 39.1h7.5v7.7h-7.5zM638.9 31.4h7.5v7.7h-7.5zM631.4 23.7h7.5v7.7h-7.5zM623.9 16h7.5v7.7h-7.5zM616.4 8.3h7.5V16h-7.5zM608.8.5h7.5v7.7h-7.5zM623.9.5h7.5v7.7h-7.5zM631.4 8.3h7.5V16h-7.5zM638.9.5h7.5v7.7h-7.5zM646.4 8.3h7.5V16h-7.5zM638.9 16h7.5v7.7h-7.5zM646.4 23.7h7.5v7.7h-7.5zM654 .5h7.5v7.7H654zM661.5 8.3h7.5V16h-7.5zM669 16h7.5v7.7H669zM661.5 23.7h7.5v7.7h-7.5zM669 31.4h7.5v7.7H669zM661.5 39.1h7.5v7.7h-7.5zM669 46.8h7.5v7.7H669zM654 16h7.5v7.7H654zM654 31.4h7.5v7.7H654zM654 46.8h7.5v7.7H654zM675.5 39.1h7.5v7.7h-7.5zM684 46.8h7.5v7.7H684zM676.5 23.7h7.5v7.7h-7.5zM684 31.4h7.5v7.7H684zM691.6 39.1h7.5v7.7h-7.5zM661.5 54.5h7.5v7.7h-7.5zM676.5 54.5h7.5v7.7h-7.5zM691.6 54.5h7.5v7.7h-7.5zM699.1 46.8h7.5v7.7h-7.5zM706.6 54.5h7.5v7.7h-7.5zM706.6 39.1h7.5v7.7h-7.5zM699.1 31.4h7.5v7.7h-7.5zM691.6 23.7h7.5v7.7h-7.5zM684 16h7.5v7.7H684zM676.5 8.3h7.5V16h-7.5zM669 .5h7.5v7.7H669zM684 .5h7.5v7.7H684zM691.6 8.3h7.5V16h-7.5zM699.1.5h7.5v7.7h-7.5zM706.6 8.3h7.5V16h-7.5zM699.1 16h7.5v7.7h-7.5zM706.6 23.7h7.5v7.7h-7.5zM714.1.5h7.5v7.7h-7.5zM721.6 8.3h7.5V16h-7.5zM729.2 16h7.5v7.7h-7.5zM721.6 23.7h7.5v7.7h-7.5zM729.2 31.4h7.5v7.7h-7.5zM721.6 39.1h7.5v7.7h-7.5zM729.2 46.8h7.5v7.7h-7.5zM714.1 16h7.5v7.7h-7.5zM714.1 31.4h7.5v7.7h-7.5zM714.1 46.8h7.5v7.7h-7.5zM735.7 39.1h7.5v7.7h-7.5zM744.2 46.8h7.5v7.7h-7.5zM736.7 23.7h7.5v7.7h-7.5zM744.2 31.4h7.5v7.7h-7.5zM751.7 39.1h7.5v7.7h-7.5zM721.6 54.5h7.5v7.7h-7.5zM736.7 54.5h7.5v7.7h-7.5zM751.7 54.5h7.5v7.7h-7.5zM759.2 46.8h7.5v7.7h-7.5zM766.8 54.5h7.5v7.7h-7.5zM766.8 39.1h7.5v7.7h-7.5zM759.2 31.4h7.5v7.7h-7.5zM751.7 23.7h7.5v7.7h-7.5zM744.2 16h7.5v7.7h-7.5zM736.7 8.3h7.5V16h-7.5zM729.2.5h7.5v7.7h-7.5zM744.2.5h7.5v7.7h-7.5zM751.7 8.3h7.5V16h-7.5zM759.2.5h7.5v7.7h-7.5zM766.8 8.3h7.5V16h-7.5zM759.2 16h7.5v7.7h-7.5zM766.8 23.7h7.5v7.7h-7.5zM774.3.5h7.5v7.7h-7.5zM781.8 8.3h7.5V16h-7.5zM789.3 16h7.5v7.7h-7.5zM781.8 23.7h7.5v7.7h-7.5zM789.3 31.4h7.5v7.7h-7.5zM781.8 39.1h7.5v7.7h-7.5zM789.3 46.8h7.5v7.7h-7.5zM774.3 16h7.5v7.7h-7.5zM774.3 31.4h7.5v7.7h-7.5zM774.3 46.8h7.5v7.7h-7.5zM795.8 39.1h7.5v7.7h-7.5zM804.4 46.8h7.5v7.7h-7.5zM796.8 23.7h7.5v7.7h-7.5zM804.4 31.4h7.5v7.7h-7.5zM811.9 39.1h7.5v7.7h-7.5zM781.8 54.5h7.5v7.7h-7.5zM796.8 54.5h7.5v7.7h-7.5zM811.9 54.5h7.5v7.7h-7.5zM819.4 46.8h7.5v7.7h-7.5zM826.9 54.5h7.5v7.7h-7.5zM826.9 39.1h7.5v7.7h-7.5zM819.4 31.4h7.5v7.7h-7.5zM811.9 23.7h7.5v7.7h-7.5zM804.4 16h7.5v7.7h-7.5zM796.8 8.3h7.5V16h-7.5zM789.3.5h7.5v7.7h-7.5zM804.4.5h7.5v7.7h-7.5zM811.9 8.3h7.5V16h-7.5zM819.4.5h7.5v7.7h-7.5zM826.9 8.3h7.5V16h-7.5zM819.4 16h7.5v7.7h-7.5zM826.9 23.7h7.5v7.7h-7.5zM834.4 16h7.5v7.7h-7.5zM834.4 31.4h7.5v7.7h-7.5zM834.4 46.8h7.5v7.7h-7.5zM841 39.1h7.5v7.7H841zM849.5 46.8h7.5v7.7h-7.5zM842 23.7h7.5v7.7H842zM849.5 31.4h7.5v7.7h-7.5zM857 39.1h7.5v7.7H857zM842 54.5h7.5v7.7H842zM857 54.5h7.5v7.7H857zM864.5 46.8h7.5v7.7h-7.5zM864.5 31.4h7.5v7.7h-7.5zM857 23.7h7.5v7.7H857zM849.5 16h7.5v7.7h-7.5zM842 8.3h7.5V16H842zM834.4.5h7.5v7.7h-7.5zM849.5.5h7.5v7.7h-7.5zM857 8.3h7.5V16H857zM864.5.5h7.5v7.7h-7.5zM864.5 16h7.5v7.7h-7.5zM548.7 62.9h7.5v7.7h-7.5zM563.7 62.9h7.5v7.7h-7.5zM578.7 62.9h7.5v7.7h-7.5zM608.8 62.9h7.5v7.7h-7.5zM593.8 62.9h7.5v7.7h-7.5zM623.9 62.9h7.5v7.7h-7.5zM638.9 62.9h7.5v7.7h-7.5zM669 62.9h7.5v7.7H669zM654 62.9h7.5v7.7H654zM684 62.9h7.5v7.7H684zM699.1 62.9h7.5v7.7h-7.5zM729.2 62.9h7.5v7.7h-7.5zM714.1 62.9h7.5v7.7h-7.5zM744.2 62.9h7.5v7.7h-7.5zM759.2 62.9h7.5v7.7h-7.5zM789.3 62.9h7.5v7.7h-7.5zM774.3 62.9h7.5v7.7h-7.5zM804.4 62.9h7.5v7.7h-7.5zM819.4 62.9h7.5v7.7h-7.5zM834.4 62.9h7.5v7.7h-7.5zM849.5 62.9h7.5v7.7h-7.5zM864.5 62.9h7.5v7.7h-7.5z"/><path class="st1" d="M574.3-.3l-36.8 71.7L.9 70.5V-1z"/><path class="st10" d="M0 72.9h872v72H0z"/><path class="st2" d="M548.7 105h7.5v7.7h-7.5zM548.7 120.5h7.5v7.7h-7.5zM556.2 112.8h7.5v7.7h-7.5zM563.7 120.5h7.5v7.7h-7.5zM556.2 97.3h7.5v7.7h-7.5zM563.7 105h7.5v7.7h-7.5zM571.2 112.8h7.5v7.7h-7.5zM541.1 128.2h7.5v7.7h-7.5zM556.2 128.2h7.5v7.7h-7.5zM571.2 128.2h7.5v7.7h-7.5zM578.7 120.5h7.5v7.7h-7.5zM586.3 128.2h7.5v7.7h-7.5zM586.3 112.8h7.5v7.7h-7.5zM578.7 105h7.5v7.7h-7.5zM571.2 97.3h7.5v7.7h-7.5zM563.7 89.6h7.5v7.7h-7.5zM563.7 74.2h7.5v7.7h-7.5zM571.2 81.9h7.5v7.7h-7.5zM578.7 74.2h7.5v7.7h-7.5zM586.3 81.9h7.5v7.7h-7.5zM578.7 89.6h7.5v7.7h-7.5zM586.3 97.3h7.5v7.7h-7.5zM593.8 74.2h7.5v7.7h-7.5zM601.3 81.9h7.5v7.7h-7.5zM608.8 89.6h7.5v7.7h-7.5zM601.3 97.3h7.5v7.7h-7.5zM608.8 105h7.5v7.7h-7.5zM601.3 112.8h7.5v7.7h-7.5zM608.8 120.5h7.5v7.7h-7.5zM593.8 89.6h7.5v7.7h-7.5zM593.8 105h7.5v7.7h-7.5zM593.8 120.5h7.5v7.7h-7.5zM616.4 112.8h7.5v7.7h-7.5zM623.9 120.5h7.5v7.7h-7.5zM616.4 97.3h7.5v7.7h-7.5zM623.9 105h7.5v7.7h-7.5zM631.4 112.8h7.5v7.7h-7.5zM601.3 128.2h7.5v7.7h-7.5zM616.4 128.2h7.5v7.7h-7.5zM631.4 128.2h7.5v7.7h-7.5zM638.9 120.5h7.5v7.7h-7.5zM646.4 128.2h7.5v7.7h-7.5zM646.4 112.8h7.5v7.7h-7.5zM638.9 105h7.5v7.7h-7.5zM631.4 97.3h7.5v7.7h-7.5zM623.9 89.6h7.5v7.7h-7.5zM616.4 81.9h7.5v7.7h-7.5zM608.8 74.2h7.5v7.7h-7.5zM623.9 74.2h7.5v7.7h-7.5zM631.4 81.9h7.5v7.7h-7.5zM638.9 74.2h7.5v7.7h-7.5zM646.4 81.9h7.5v7.7h-7.5zM638.9 89.6h7.5v7.7h-7.5zM646.4 97.3h7.5v7.7h-7.5zM654 74.2h7.5v7.7H654zM661.5 81.9h7.5v7.7h-7.5zM669 89.6h7.5v7.7H669zM661.5 97.3h7.5v7.7h-7.5zM669 105h7.5v7.7H669zM661.5 112.8h7.5v7.7h-7.5zM669 120.5h7.5v7.7H669zM654 89.6h7.5v7.7H654zM654 105h7.5v7.7H654zM654 120.5h7.5v7.7H654zM676.5 112.8h7.5v7.7h-7.5zM684 120.5h7.5v7.7H684zM676.5 97.3h7.5v7.7h-7.5zM684 105h7.5v7.7H684zM691.6 112.8h7.5v7.7h-7.5zM661.5 128.2h7.5v7.7h-7.5zM676.5 128.2h7.5v7.7h-7.5zM691.6 128.2h7.5v7.7h-7.5zM699.1 120.5h7.5v7.7h-7.5zM706.6 128.2h7.5v7.7h-7.5zM706.6 112.8h7.5v7.7h-7.5zM699.1 105h7.5v7.7h-7.5zM691.6 97.3h7.5v7.7h-7.5zM684 89.6h7.5v7.7H684zM676.5 81.9h7.5v7.7h-7.5zM669 74.2h7.5v7.7H669zM684 74.2h7.5v7.7H684zM691.6 81.9h7.5v7.7h-7.5zM699.1 74.2h7.5v7.7h-7.5zM706.6 81.9h7.5v7.7h-7.5zM699.1 89.6h7.5v7.7h-7.5zM706.6 97.3h7.5v7.7h-7.5zM714.1 74.2h7.5v7.7h-7.5zM721.6 81.9h7.5v7.7h-7.5zM729.2 89.6h7.5v7.7h-7.5zM721.6 97.3h7.5v7.7h-7.5zM729.2 105h7.5v7.7h-7.5zM721.6 112.8h7.5v7.7h-7.5zM729.2 120.5h7.5v7.7h-7.5zM714.1 89.6h7.5v7.7h-7.5zM714.1 105h7.5v7.7h-7.5zM714.1 120.5h7.5v7.7h-7.5zM736.7 112.8h7.5v7.7h-7.5zM744.2 120.5h7.5v7.7h-7.5zM736.7 97.3h7.5v7.7h-7.5zM744.2 105h7.5v7.7h-7.5zM751.7 112.8h7.5v7.7h-7.5zM721.6 128.2h7.5v7.7h-7.5zM736.7 128.2h7.5v7.7h-7.5zM751.7 128.2h7.5v7.7h-7.5zM759.2 120.5h7.5v7.7h-7.5zM766.8 128.2h7.5v7.7h-7.5zM766.8 112.8h7.5v7.7h-7.5zM759.2 105h7.5v7.7h-7.5zM751.7 97.3h7.5v7.7h-7.5zM744.2 89.6h7.5v7.7h-7.5zM736.7 81.9h7.5v7.7h-7.5zM729.2 74.2h7.5v7.7h-7.5zM744.2 74.2h7.5v7.7h-7.5zM751.7 81.9h7.5v7.7h-7.5zM759.2 74.2h7.5v7.7h-7.5zM766.8 81.9h7.5v7.7h-7.5zM759.2 89.6h7.5v7.7h-7.5zM766.8 97.3h7.5v7.7h-7.5zM774.3 74.2h7.5v7.7h-7.5zM781.8 81.9h7.5v7.7h-7.5zM789.3 89.6h7.5v7.7h-7.5zM781.8 97.3h7.5v7.7h-7.5zM789.3 105h7.5v7.7h-7.5zM781.8 112.8h7.5v7.7h-7.5zM789.3 120.5h7.5v7.7h-7.5zM774.3 89.6h7.5v7.7h-7.5zM774.3 105h7.5v7.7h-7.5zM774.3 120.5h7.5v7.7h-7.5zM796.8 112.8h7.5v7.7h-7.5zM804.4 120.5h7.5v7.7h-7.5zM796.8 97.3h7.5v7.7h-7.5zM804.4 105h7.5v7.7h-7.5zM811.9 112.8h7.5v7.7h-7.5zM781.8 128.2h7.5v7.7h-7.5zM796.8 128.2h7.5v7.7h-7.5zM811.9 128.2h7.5v7.7h-7.5zM819.4 120.5h7.5v7.7h-7.5zM826.9 128.2h7.5v7.7h-7.5zM826.9 112.8h7.5v7.7h-7.5zM819.4 105h7.5v7.7h-7.5zM811.9 97.3h7.5v7.7h-7.5zM804.4 89.6h7.5v7.7h-7.5zM796.8 81.9h7.5v7.7h-7.5zM789.3 74.2h7.5v7.7h-7.5zM804.4 74.2h7.5v7.7h-7.5zM811.9 81.9h7.5v7.7h-7.5zM819.4 74.2h7.5v7.7h-7.5zM826.9 81.9h7.5v7.7h-7.5zM819.4 89.6h7.5v7.7h-7.5zM826.9 97.3h7.5v7.7h-7.5zM834.4 89.6h7.5v7.7h-7.5zM834.4 105h7.5v7.7h-7.5zM834.4 120.5h7.5v7.7h-7.5zM842 112.8h7.5v7.7H842zM849.5 120.5h7.5v7.7h-7.5zM842 97.3h7.5v7.7H842zM849.5 105h7.5v7.7h-7.5zM857 112.8h7.5v7.7H857zM842 128.2h7.5v7.7H842zM857 128.2h7.5v7.7H857zM864.5 120.5h7.5v7.7h-7.5zM864.5 105h7.5v7.7h-7.5zM857 97.3h7.5v7.7H857zM849.5 89.6h7.5v7.7h-7.5zM842 81.9h7.5v7.7H842zM834.4 74.2h7.5v7.7h-7.5zM849.5 74.2h7.5v7.7h-7.5zM857 81.9h7.5v7.7H857zM864.5 74.2h7.5v7.7h-7.5zM864.5 89.6h7.5v7.7h-7.5zM548.7 135.9h7.5v7.7h-7.5zM563.7 135.9h7.5v7.7h-7.5zM578.7 135.9h7.5v7.7h-7.5zM608.8 135.9h7.5v7.7h-7.5zM593.8 135.9h7.5v7.7h-7.5zM623.9 135.9h7.5v7.7h-7.5zM638.9 135.9h7.5v7.7h-7.5zM669 135.9h7.5v7.7H669zM654 135.9h7.5v7.7H654zM684 135.9h7.5v7.7H684zM699.1 135.9h7.5v7.7h-7.5zM729.2 135.9h7.5v7.7h-7.5zM714.1 135.9h7.5v7.7h-7.5zM744.2 135.9h7.5v7.7h-7.5zM759.2 135.9h7.5v7.7h-7.5zM789.3 135.9h7.5v7.7h-7.5zM774.3 135.9h7.5v7.7h-7.5zM804.4 135.9h7.5v7.7h-7.5zM819.4 135.9h7.5v7.7h-7.5zM834.4 135.9h7.5v7.7h-7.5zM849.5 135.9h7.5v7.7h-7.5zM864.5 135.9h7.5v7.7h-7.5z"/><path class="st5" d="M575.3 72.9l-36.8 72L0 144.7l.1-71.6z"/><g class="st3"><path class="st12" d="M697.1 59.8h-48l31.7-11.7h48zM756 59.8h-47.9l31.7-11.7h47.9zM814.9 59.8H767l31.7-11.7h48zM736.9 44.8H689L720.7 33h47.9zM795.8 44.8h-47.9L779.6 33h48zM871.6 33h-33l-31.8 11.8h48l16.8-6.3zM782.6 72l24.2-9h-47.9l-24.3 9zM723.6 72l24.3-9h-48l-24.2 9zM664.7 72l24.3-9h-48l-24.2 9z"/><path class="st0" d="M700.1 52.5h-61.8l40.9-15.7H741zM779.1 52.5h-61.8l40.9-15.7H820zM749.2 33.4h-61.8l40.9-15.8h61.8zM828.3 33.4h-61.8l40.9-15.8h61.8z"/><path class="st6" d="M765.3 28.3h-91.5L734.3 5h91.5z"/></g><g class="st3"><path class="st4" d="M697.1 133.1h-48l31.7-11.6h48zM756 133.1h-47.9l31.7-11.6h47.9zM814.9 133.1H767l31.7-11.6h48zM736.9 118.1H689l31.7-11.7h47.9zM795.8 118.1h-47.9l31.7-11.7h48zM871.6 106.4h-33l-31.8 11.7h48l16.8-6.2zM782.6 145.3l24.2-8.9h-47.9l-24.3 8.9zM723.6 145.3l24.3-8.9h-48l-24.2 8.9zM664.7 145.3l24.3-8.9h-48l-24.2 8.9z"/><path class="st7" d="M700.1 125.9h-61.8l40.9-15.7H741zM779.1 125.9h-61.8l40.9-15.7H820zM749.2 106.8h-61.8L728.3 91h61.8zM828.3 106.8h-61.8L807.4 91h61.8z"/><path class="st11" d="M765.3 101.7h-91.5l60.5-23.3h91.5z"/></g></svg>