<?xml version="1.0" encoding="utf-8"?>
<!-- Generator: Adobe Illustrator 15.1.0, SVG Export Plug-In . SVG Version: 6.00 Build 0)  -->
<!DOCTYPE svg PUBLIC "-//W3C//DTD SVG 1.1//EN" "http://www.w3.org/Graphics/SVG/1.1/DTD/svg11.dtd">
<svg version="1.1" id="Calque_1" xmlns="http://www.w3.org/2000/svg" xmlns:xlink="http://www.w3.org/1999/xlink" x="0px" y="0px"
	 width="872px" height="144px" viewBox="0 0 872 144" style="enable-background:new 0 0 872 144;" xml:space="preserve">
<style type="text/css">
<![CDATA[
	.st0{fill:#E3F1F6;}
	.st1{fill:#585858;}
	.st2{fill:#5C5C5C;}
	.st3{opacity:0.1;fill:#3D3D3C;enable-background:new    ;}
	.st4{fill:#CCE2EC;}
	.st5{opacity:0.8;fill:#1E1E1C;enable-background:new    ;}
]]>
</style>
<rect x="0" y="-0.399" class="st4" width="872" height="72"/>
<rect x="548.7" y="31.4" class="st3" width="7.5" height="7.7"/>
<rect x="548.7" y="46.8" class="st3" width="7.5" height="7.7"/>
<rect x="555.2" y="39.101" class="st3" width="7.5" height="7.699"/>
<rect x="563.7" y="46.8" class="st3" width="7.5" height="7.7"/>
<rect x="556.2" y="23.7" class="st3" width="7.5" height="7.7"/>
<rect x="563.7" y="31.4" class="st3" width="7.5" height="7.7"/>
<rect x="571.2" y="39.101" class="st3" width="7.5" height="7.699"/>
<rect x="541.101" y="54.5" class="st3" width="7.5" height="7.7"/>
<rect x="533.601" y="62.9" class="st3" width="7.5" height="7.7"/>
<rect x="556.2" y="54.5" class="st3" width="7.5" height="7.7"/>
<rect x="571.2" y="54.5" class="st3" width="7.5" height="7.7"/>
<rect x="578.7" y="46.8" class="st3" width="7.5" height="7.7"/>
<rect x="586.301" y="54.5" class="st3" width="7.5" height="7.7"/>
<rect x="586.301" y="39.101" class="st3" width="7.5" height="7.699"/>
<rect x="578.7" y="31.4" class="st3" width="7.5" height="7.7"/>
<rect x="571.2" y="23.7" class="st3" width="7.5" height="7.7"/>
<rect x="563.7" y="16" class="st3" width="7.5" height="7.7"/>
<rect x="563.7" y="0.5" class="st3" width="7.5" height="7.7"/>
<rect x="571.2" y="8.3" class="st3" width="7.5" height="7.7"/>
<rect x="578.7" y="0.5" class="st3" width="7.5" height="7.7"/>
<rect x="586.301" y="8.3" class="st3" width="7.5" height="7.7"/>
<rect x="578.7" y="16" class="st3" width="7.5" height="7.7"/>
<rect x="586.301" y="23.7" class="st3" width="7.5" height="7.7"/>
<rect x="593.801" y="0.5" class="st3" width="7.5" height="7.7"/>
<rect x="601.301" y="8.3" class="st3" width="7.5" height="7.7"/>
<rect x="608.801" y="16" class="st3" width="7.5" height="7.7"/>
<rect x="601.301" y="23.7" class="st3" width="7.5" height="7.7"/>
<rect x="608.801" y="31.4" class="st3" width="7.5" height="7.7"/>
<rect x="601.301" y="39.101" class="st3" width="7.5" height="7.699"/>
<rect x="608.801" y="46.8" class="st3" width="7.5" height="7.7"/>
<rect x="593.801" y="16" class="st3" width="7.5" height="7.7"/>
<rect x="593.801" y="31.4" class="st3" width="7.5" height="7.7"/>
<rect x="593.801" y="46.8" class="st3" width="7.5" height="7.7"/>
<rect x="615.4" y="39.101" class="st3" width="7.5" height="7.699"/>
<rect x="623.9" y="46.8" class="st3" width="7.5" height="7.7"/>
<rect x="616.4" y="23.7" class="st3" width="7.5" height="7.7"/>
<rect x="623.9" y="31.4" class="st3" width="7.5" height="7.7"/>
<rect x="631.4" y="39.101" class="st3" width="7.5" height="7.699"/>
<rect x="601.301" y="54.5" class="st3" width="7.5" height="7.7"/>
<rect x="616.4" y="54.5" class="st3" width="7.5" height="7.7"/>
<rect x="631.4" y="54.5" class="st3" width="7.5" height="7.7"/>
<rect x="638.9" y="46.8" class="st3" width="7.5" height="7.7"/>
<rect x="646.4" y="54.5" class="st3" width="7.5" height="7.7"/>
<rect x="646.4" y="39.101" class="st3" width="7.5" height="7.699"/>
<rect x="638.9" y="31.4" class="st3" width="7.5" height="7.7"/>
<rect x="631.4" y="23.7" class="st3" width="7.5" height="7.7"/>
<rect x="623.9" y="16" class="st3" width="7.5" height="7.7"/>
<rect x="616.4" y="8.3" class="st3" width="7.5" height="7.7"/>
<rect x="608.801" y="0.5" class="st3" width="7.5" height="7.7"/>
<rect x="623.9" y="0.5" class="st3" width="7.5" height="7.7"/>
<rect x="631.4" y="8.3" class="st3" width="7.5" height="7.7"/>
<rect x="638.9" y="0.5" class="st3" width="7.5" height="7.7"/>
<rect x="646.4" y="8.3" class="st3" width="7.5" height="7.7"/>
<rect x="638.9" y="16" class="st3" width="7.5" height="7.7"/>
<rect x="646.4" y="23.7" class="st3" width="7.5" height="7.7"/>
<rect x="654" y="0.5" class="st3" width="7.5" height="7.7"/>
<rect x="661.5" y="8.3" class="st3" width="7.5" height="7.7"/>
<rect x="669" y="16" class="st3" width="7.5" height="7.7"/>
<rect x="661.5" y="23.7" class="st3" width="7.5" height="7.7"/>
<rect x="669" y="31.4" class="st3" width="7.5" height="7.7"/>
<rect x="661.5" y="39.101" class="st3" width="7.5" height="7.699"/>
<rect x="669" y="46.8" class="st3" width="7.5" height="7.7"/>
<rect x="654" y="16" class="st3" width="7.5" height="7.7"/>
<rect x="654" y="31.4" class="st3" width="7.5" height="7.7"/>
<rect x="654" y="46.8" class="st3" width="7.5" height="7.7"/>
<rect x="675.5" y="39.101" class="st3" width="7.5" height="7.699"/>
<rect x="684" y="46.8" class="st3" width="7.5" height="7.7"/>
<rect x="676.5" y="23.7" class="st3" width="7.5" height="7.7"/>
<rect x="684" y="31.4" class="st3" width="7.5" height="7.7"/>
<rect x="691.601" y="39.101" class="st3" width="7.5" height="7.699"/>
<rect x="661.5" y="54.5" class="st3" width="7.5" height="7.7"/>
<rect x="676.5" y="54.5" class="st3" width="7.5" height="7.7"/>
<rect x="691.601" y="54.5" class="st3" width="7.5" height="7.7"/>
<rect x="699.101" y="46.8" class="st3" width="7.5" height="7.7"/>
<rect x="706.601" y="54.5" class="st3" width="7.5" height="7.7"/>
<rect x="706.601" y="39.101" class="st3" width="7.5" height="7.699"/>
<rect x="699.101" y="31.4" class="st3" width="7.5" height="7.7"/>
<rect x="691.601" y="23.7" class="st3" width="7.5" height="7.7"/>
<rect x="684" y="16" class="st3" width="7.5" height="7.7"/>
<rect x="676.5" y="8.3" class="st3" width="7.5" height="7.7"/>
<rect x="669" y="0.5" class="st3" width="7.5" height="7.7"/>
<rect x="684" y="0.5" class="st3" width="7.5" height="7.7"/>
<rect x="691.601" y="8.3" class="st3" width="7.5" height="7.7"/>
<rect x="699.101" y="0.5" class="st3" width="7.5" height="7.7"/>
<rect x="706.601" y="8.3" class="st3" width="7.5" height="7.7"/>
<rect x="699.101" y="16" class="st3" width="7.5" height="7.7"/>
<rect x="706.601" y="23.7" class="st3" width="7.5" height="7.7"/>
<rect x="714.101" y="0.5" class="st3" width="7.5" height="7.7"/>
<rect x="721.601" y="8.3" class="st3" width="7.5" height="7.7"/>
<rect x="729.2" y="16" class="st3" width="7.5" height="7.7"/>
<rect x="721.601" y="23.7" class="st3" width="7.5" height="7.7"/>
<rect x="729.2" y="31.4" class="st3" width="7.5" height="7.7"/>
<rect x="721.601" y="39.101" class="st3" width="7.5" height="7.699"/>
<rect x="729.2" y="46.8" class="st3" width="7.5" height="7.7"/>
<rect x="714.101" y="16" class="st3" width="7.5" height="7.7"/>
<rect x="714.101" y="31.4" class="st3" width="7.5" height="7.7"/>
<rect x="714.101" y="46.8" class="st3" width="7.5" height="7.7"/>
<rect x="735.7" y="39.101" class="st3" width="7.5" height="7.699"/>
<rect x="744.2" y="46.8" class="st3" width="7.5" height="7.7"/>
<rect x="736.7" y="23.7" class="st3" width="7.5" height="7.7"/>
<rect x="744.2" y="31.4" class="st3" width="7.5" height="7.7"/>
<rect x="751.7" y="39.101" class="st3" width="7.5" height="7.699"/>
<rect x="721.601" y="54.5" class="st3" width="7.5" height="7.7"/>
<rect x="736.7" y="54.5" class="st3" width="7.5" height="7.7"/>
<rect x="751.7" y="54.5" class="st3" width="7.5" height="7.7"/>
<rect x="759.2" y="46.8" class="st3" width="7.5" height="7.7"/>
<rect x="766.801" y="54.5" class="st3" width="7.5" height="7.7"/>
<rect x="766.801" y="39.101" class="st3" width="7.5" height="7.699"/>
<rect x="759.2" y="31.4" class="st3" width="7.5" height="7.7"/>
<rect x="751.7" y="23.7" class="st3" width="7.5" height="7.7"/>
<rect x="744.2" y="16" class="st3" width="7.5" height="7.7"/>
<rect x="736.7" y="8.3" class="st3" width="7.5" height="7.7"/>
<rect x="729.2" y="0.5" class="st3" width="7.5" height="7.7"/>
<rect x="744.2" y="0.5" class="st3" width="7.5" height="7.7"/>
<rect x="751.7" y="8.3" class="st3" width="7.5" height="7.7"/>
<rect x="759.2" y="0.5" class="st3" width="7.5" height="7.7"/>
<rect x="766.801" y="8.3" class="st3" width="7.5" height="7.7"/>
<rect x="759.2" y="16" class="st3" width="7.5" height="7.7"/>
<rect x="766.801" y="23.7" class="st3" width="7.5" height="7.7"/>
<rect x="774.301" y="0.5" class="st3" width="7.5" height="7.7"/>
<rect x="781.801" y="8.3" class="st3" width="7.5" height="7.7"/>
<rect x="789.301" y="16" class="st3" width="7.5" height="7.7"/>
<rect x="781.801" y="23.7" class="st3" width="7.5" height="7.7"/>
<rect x="789.301" y="31.4" class="st3" width="7.5" height="7.7"/>
<rect x="781.801" y="39.101" class="st3" width="7.5" height="7.699"/>
<rect x="789.301" y="46.8" class="st3" width="7.5" height="7.7"/>
<rect x="774.301" y="16" class="st3" width="7.5" height="7.7"/>
<rect x="774.301" y="31.4" class="st3" width="7.5" height="7.7"/>
<rect x="774.301" y="46.8" class="st3" width="7.5" height="7.7"/>
<rect x="795.801" y="39.101" class="st3" width="7.5" height="7.699"/>
<rect x="804.4" y="46.8" class="st3" width="7.5" height="7.7"/>
<rect x="796.801" y="23.7" class="st3" width="7.5" height="7.7"/>
<rect x="804.4" y="31.4" class="st3" width="7.5" height="7.7"/>
<rect x="811.9" y="39.101" class="st3" width="7.5" height="7.699"/>
<rect x="781.801" y="54.5" class="st3" width="7.5" height="7.7"/>
<rect x="796.801" y="54.5" class="st3" width="7.5" height="7.7"/>
<rect x="811.9" y="54.5" class="st3" width="7.5" height="7.7"/>
<rect x="819.4" y="46.8" class="st3" width="7.5" height="7.7"/>
<rect x="826.9" y="54.5" class="st3" width="7.5" height="7.7"/>
<rect x="826.9" y="39.101" class="st3" width="7.5" height="7.699"/>
<rect x="819.4" y="31.4" class="st3" width="7.5" height="7.7"/>
<rect x="811.9" y="23.7" class="st3" width="7.5" height="7.7"/>
<rect x="804.4" y="16" class="st3" width="7.5" height="7.7"/>
<rect x="796.801" y="8.3" class="st3" width="7.5" height="7.7"/>
<rect x="789.301" y="0.5" class="st3" width="7.5" height="7.7"/>
<rect x="804.4" y="0.5" class="st3" width="7.5" height="7.7"/>
<rect x="811.9" y="8.3" class="st3" width="7.5" height="7.7"/>
<rect x="819.4" y="0.5" class="st3" width="7.5" height="7.7"/>
<rect x="826.9" y="8.3" class="st3" width="7.5" height="7.7"/>
<rect x="819.4" y="16" class="st3" width="7.5" height="7.7"/>
<rect x="826.9" y="23.7" class="st3" width="7.5" height="7.7"/>
<rect x="834.4" y="16" class="st3" width="7.5" height="7.7"/>
<rect x="834.4" y="31.4" class="st3" width="7.5" height="7.7"/>
<rect x="834.4" y="46.8" class="st3" width="7.5" height="7.7"/>
<rect x="841" y="39.101" class="st3" width="7.5" height="7.699"/>
<rect x="849.5" y="46.8" class="st3" width="7.5" height="7.7"/>
<rect x="842" y="23.7" class="st3" width="7.5" height="7.7"/>
<rect x="849.5" y="31.4" class="st3" width="7.5" height="7.7"/>
<rect x="857" y="39.101" class="st3" width="7.5" height="7.699"/>
<rect x="842" y="54.5" class="st3" width="7.5" height="7.7"/>
<rect x="857" y="54.5" class="st3" width="7.5" height="7.7"/>
<rect x="864.5" y="46.8" class="st3" width="7.5" height="7.7"/>
<rect x="864.5" y="31.4" class="st3" width="7.5" height="7.7"/>
<rect x="857" y="23.7" class="st3" width="7.5" height="7.7"/>
<rect x="849.5" y="16" class="st3" width="7.5" height="7.7"/>
<rect x="842" y="8.3" class="st3" width="7.5" height="7.7"/>
<rect x="834.4" y="0.5" class="st3" width="7.5" height="7.7"/>
<rect x="849.5" y="0.5" class="st3" width="7.5" height="7.7"/>
<rect x="857" y="8.3" class="st3" width="7.5" height="7.7"/>
<rect x="864.5" y="0.5" class="st3" width="7.5" height="7.7"/>
<rect x="864.5" y="16" class="st3" width="7.5" height="7.7"/>
<rect x="548.7" y="62.9" class="st3" width="7.5" height="7.7"/>
<rect x="563.7" y="62.9" class="st3" width="7.5" height="7.7"/>
<rect x="578.7" y="62.9" class="st3" width="7.5" height="7.7"/>
<rect x="608.801" y="62.9" class="st3" width="7.5" height="7.7"/>
<rect x="593.801" y="62.9" class="st3" width="7.5" height="7.7"/>
<rect x="623.9" y="62.9" class="st3" width="7.5" height="7.7"/>
<rect x="638.9" y="62.9" class="st3" width="7.5" height="7.7"/>
<rect x="669" y="62.9" class="st3" width="7.5" height="7.7"/>
<rect x="654" y="62.9" class="st3" width="7.5" height="7.7"/>
<rect x="684" y="62.9" class="st3" width="7.5" height="7.7"/>
<rect x="699.101" y="62.9" class="st3" width="7.5" height="7.7"/>
<rect x="729.2" y="62.9" class="st3" width="7.5" height="7.7"/>
<rect x="714.101" y="62.9" class="st3" width="7.5" height="7.7"/>
<rect x="744.2" y="62.9" class="st3" width="7.5" height="7.7"/>
<rect x="759.2" y="62.9" class="st3" width="7.5" height="7.7"/>
<rect x="789.301" y="62.9" class="st3" width="7.5" height="7.7"/>
<rect x="774.301" y="62.9" class="st3" width="7.5" height="7.7"/>
<rect x="804.4" y="62.9" class="st3" width="7.5" height="7.7"/>
<rect x="819.4" y="62.9" class="st3" width="7.5" height="7.7"/>
<rect x="834.4" y="62.9" class="st3" width="7.5" height="7.7"/>
<rect x="849.5" y="62.9" class="st3" width="7.5" height="7.7"/>
<rect x="864.5" y="62.9" class="st3" width="7.5" height="7.7"/>
<polygon class="st0" points="574.301,-0.3 537.5,71.4 0.9,70.5 0.9,-1 "/>
<rect y="72.899" class="st5" width="872" height="72"/>
<rect x="548.699" y="104.999" class="st1" width="7.5" height="7.7"/>
<rect x="548.699" y="120.499" class="st1" width="7.5" height="7.7"/>
<rect x="556.199" y="112.8" class="st1" width="7.5" height="7.699"/>
<rect x="563.699" y="120.499" class="st1" width="7.5" height="7.7"/>
<rect x="556.199" y="97.3" class="st1" width="7.5" height="7.699"/>
<rect x="563.699" y="104.999" class="st1" width="7.5" height="7.7"/>
<rect x="571.199" y="112.8" class="st1" width="7.5" height="7.699"/>
<rect x="541.1" y="128.199" class="st1" width="7.5" height="7.7"/>
<rect x="556.199" y="128.199" class="st1" width="7.5" height="7.7"/>
<rect x="571.199" y="128.199" class="st1" width="7.5" height="7.7"/>
<rect x="578.699" y="120.499" class="st1" width="7.5" height="7.7"/>
<rect x="586.301" y="128.199" class="st1" width="7.5" height="7.7"/>
<rect x="586.301" y="112.8" class="st1" width="7.5" height="7.699"/>
<rect x="578.699" y="104.999" class="st1" width="7.5" height="7.7"/>
<rect x="571.199" y="97.3" class="st1" width="7.5" height="7.699"/>
<rect x="563.699" y="89.6" class="st1" width="7.5" height="7.7"/>
<rect x="563.699" y="74.199" class="st1" width="7.5" height="7.7"/>
<rect x="571.199" y="81.899" class="st1" width="7.5" height="7.7"/>
<rect x="578.699" y="74.199" class="st1" width="7.5" height="7.7"/>
<rect x="586.301" y="81.899" class="st1" width="7.5" height="7.7"/>
<rect x="578.699" y="89.6" class="st1" width="7.5" height="7.7"/>
<rect x="586.301" y="97.3" class="st1" width="7.5" height="7.699"/>
<rect x="593.801" y="74.199" class="st1" width="7.5" height="7.7"/>
<rect x="601.301" y="81.899" class="st1" width="7.5" height="7.7"/>
<rect x="608.801" y="89.6" class="st1" width="7.5" height="7.7"/>
<rect x="601.301" y="97.3" class="st1" width="7.5" height="7.699"/>
<rect x="608.801" y="104.999" class="st1" width="7.5" height="7.7"/>
<rect x="601.301" y="112.8" class="st1" width="7.5" height="7.699"/>
<rect x="608.801" y="120.499" class="st1" width="7.5" height="7.7"/>
<rect x="593.801" y="89.6" class="st1" width="7.5" height="7.7"/>
<rect x="593.801" y="104.999" class="st1" width="7.5" height="7.7"/>
<rect x="593.801" y="120.499" class="st1" width="7.5" height="7.7"/>
<rect x="616.4" y="112.8" class="st1" width="7.5" height="7.699"/>
<rect x="623.9" y="120.499" class="st1" width="7.5" height="7.7"/>
<rect x="616.4" y="97.3" class="st1" width="7.5" height="7.699"/>
<rect x="623.9" y="104.999" class="st1" width="7.5" height="7.7"/>
<rect x="631.4" y="112.8" class="st1" width="7.5" height="7.699"/>
<rect x="601.301" y="128.199" class="st1" width="7.5" height="7.7"/>
<rect x="616.4" y="128.199" class="st1" width="7.5" height="7.7"/>
<rect x="631.4" y="128.199" class="st1" width="7.5" height="7.7"/>
<rect x="638.9" y="120.499" class="st1" width="7.5" height="7.7"/>
<rect x="646.4" y="128.199" class="st1" width="7.5" height="7.7"/>
<rect x="646.4" y="112.8" class="st1" width="7.5" height="7.699"/>
<rect x="638.9" y="104.999" class="st1" width="7.5" height="7.7"/>
<rect x="631.4" y="97.3" class="st1" width="7.5" height="7.699"/>
<rect x="623.9" y="89.6" class="st1" width="7.5" height="7.7"/>
<rect x="616.4" y="81.899" class="st1" width="7.5" height="7.7"/>
<rect x="608.801" y="74.199" class="st1" width="7.5" height="7.7"/>
<rect x="623.9" y="74.199" class="st1" width="7.5" height="7.7"/>
<rect x="631.4" y="81.899" class="st1" width="7.5" height="7.7"/>
<rect x="638.9" y="74.199" class="st1" width="7.5" height="7.7"/>
<rect x="646.4" y="81.899" class="st1" width="7.5" height="7.7"/>
<rect x="638.9" y="89.6" class="st1" width="7.5" height="7.7"/>
<rect x="646.4" y="97.3" class="st1" width="7.5" height="7.699"/>
<rect x="654" y="74.199" class="st1" width="7.5" height="7.7"/>
<rect x="661.5" y="81.899" class="st1" width="7.5" height="7.7"/>
<rect x="669" y="89.6" class="st1" width="7.5" height="7.7"/>
<rect x="661.5" y="97.3" class="st1" width="7.5" height="7.699"/>
<rect x="669" y="104.999" class="st1" width="7.5" height="7.7"/>
<rect x="661.5" y="112.8" class="st1" width="7.5" height="7.699"/>
<rect x="669" y="120.499" class="st1" width="7.5" height="7.7"/>
<rect x="654" y="89.6" class="st1" width="7.5" height="7.7"/>
<rect x="654" y="104.999" class="st1" width="7.5" height="7.7"/>
<rect x="654" y="120.499" class="st1" width="7.5" height="7.7"/>
<rect x="676.5" y="112.8" class="st1" width="7.5" height="7.699"/>
<rect x="684" y="120.499" class="st1" width="7.5" height="7.7"/>
<rect x="676.5" y="97.3" class="st1" width="7.5" height="7.699"/>
<rect x="684" y="104.999" class="st1" width="7.5" height="7.7"/>
<rect x="691.6" y="112.8" class="st1" width="7.5" height="7.699"/>
<rect x="661.5" y="128.199" class="st1" width="7.5" height="7.7"/>
<rect x="676.5" y="128.199" class="st1" width="7.5" height="7.7"/>
<rect x="691.6" y="128.199" class="st1" width="7.5" height="7.7"/>
<rect x="699.1" y="120.499" class="st1" width="7.5" height="7.7"/>
<rect x="706.6" y="128.199" class="st1" width="7.5" height="7.7"/>
<rect x="706.6" y="112.8" class="st1" width="7.5" height="7.699"/>
<rect x="699.1" y="104.999" class="st1" width="7.5" height="7.7"/>
<rect x="691.6" y="97.3" class="st1" width="7.5" height="7.699"/>
<rect x="684" y="89.6" class="st1" width="7.5" height="7.7"/>
<rect x="676.5" y="81.899" class="st1" width="7.5" height="7.7"/>
<rect x="669" y="74.199" class="st1" width="7.5" height="7.7"/>
<rect x="684" y="74.199" class="st1" width="7.5" height="7.7"/>
<rect x="691.6" y="81.899" class="st1" width="7.5" height="7.7"/>
<rect x="699.1" y="74.199" class="st1" width="7.5" height="7.7"/>
<rect x="706.6" y="81.899" class="st1" width="7.5" height="7.7"/>
<rect x="699.1" y="89.6" class="st1" width="7.5" height="7.7"/>
<rect x="706.6" y="97.3" class="st1" width="7.5" height="7.699"/>
<rect x="714.1" y="74.199" class="st1" width="7.5" height="7.7"/>
<rect x="721.6" y="81.899" class="st1" width="7.5" height="7.7"/>
<rect x="729.199" y="89.6" class="st1" width="7.5" height="7.7"/>
<rect x="721.6" y="97.3" class="st1" width="7.5" height="7.699"/>
<rect x="729.199" y="104.999" class="st1" width="7.5" height="7.7"/>
<rect x="721.6" y="112.8" class="st1" width="7.5" height="7.699"/>
<rect x="729.199" y="120.499" class="st1" width="7.5" height="7.7"/>
<rect x="714.1" y="89.6" class="st1" width="7.5" height="7.7"/>
<rect x="714.1" y="104.999" class="st1" width="7.5" height="7.7"/>
<rect x="714.1" y="120.499" class="st1" width="7.5" height="7.7"/>
<rect x="736.699" y="112.8" class="st1" width="7.5" height="7.699"/>
<rect x="744.199" y="120.499" class="st1" width="7.5" height="7.7"/>
<rect x="736.699" y="97.3" class="st1" width="7.5" height="7.699"/>
<rect x="744.199" y="104.999" class="st1" width="7.5" height="7.7"/>
<rect x="751.699" y="112.8" class="st1" width="7.5" height="7.699"/>
<rect x="721.6" y="128.199" class="st1" width="7.5" height="7.7"/>
<rect x="736.699" y="128.199" class="st1" width="7.5" height="7.7"/>
<rect x="751.699" y="128.199" class="st1" width="7.5" height="7.7"/>
<rect x="759.199" y="120.499" class="st1" width="7.5" height="7.7"/>
<rect x="766.801" y="128.199" class="st1" width="7.5" height="7.7"/>
<rect x="766.801" y="112.8" class="st1" width="7.5" height="7.699"/>
<rect x="759.199" y="104.999" class="st1" width="7.5" height="7.7"/>
<rect x="751.699" y="97.3" class="st1" width="7.5" height="7.699"/>
<rect x="744.199" y="89.6" class="st1" width="7.5" height="7.7"/>
<rect x="736.699" y="81.899" class="st1" width="7.5" height="7.7"/>
<rect x="729.199" y="74.199" class="st1" width="7.5" height="7.7"/>
<rect x="744.199" y="74.199" class="st1" width="7.5" height="7.7"/>
<rect x="751.699" y="81.899" class="st1" width="7.5" height="7.7"/>
<rect x="759.199" y="74.199" class="st1" width="7.5" height="7.7"/>
<rect x="766.801" y="81.899" class="st1" width="7.5" height="7.7"/>
<rect x="759.199" y="89.6" class="st1" width="7.5" height="7.7"/>
<rect x="766.801" y="97.3" class="st1" width="7.5" height="7.699"/>
<rect x="774.301" y="74.199" class="st1" width="7.5" height="7.7"/>
<rect x="781.801" y="81.899" class="st1" width="7.5" height="7.7"/>
<rect x="789.301" y="89.6" class="st1" width="7.5" height="7.7"/>
<rect x="781.801" y="97.3" class="st1" width="7.5" height="7.699"/>
<rect x="789.301" y="104.999" class="st1" width="7.5" height="7.7"/>
<rect x="781.801" y="112.8" class="st1" width="7.5" height="7.699"/>
<rect x="789.301" y="120.499" class="st1" width="7.5" height="7.7"/>
<rect x="774.301" y="89.6" class="st1" width="7.5" height="7.7"/>
<rect x="774.301" y="104.999" class="st1" width="7.5" height="7.7"/>
<rect x="774.301" y="120.499" class="st1" width="7.5" height="7.7"/>
<rect x="796.801" y="112.8" class="st1" width="7.5" height="7.699"/>
<rect x="804.4" y="120.499" class="st1" width="7.5" height="7.7"/>
<rect x="796.801" y="97.3" class="st1" width="7.5" height="7.699"/>
<rect x="804.4" y="104.999" class="st1" width="7.5" height="7.7"/>
<rect x="811.9" y="112.8" class="st1" width="7.5" height="7.699"/>
<rect x="781.801" y="128.199" class="st1" width="7.5" height="7.7"/>
<rect x="796.801" y="128.199" class="st1" width="7.5" height="7.7"/>
<rect x="811.9" y="128.199" class="st1" width="7.5" height="7.7"/>
<rect x="819.4" y="120.499" class="st1" width="7.5" height="7.7"/>
<rect x="826.9" y="128.199" class="st1" width="7.5" height="7.7"/>
<rect x="826.9" y="112.8" class="st1" width="7.5" height="7.699"/>
<rect x="819.4" y="104.999" class="st1" width="7.5" height="7.7"/>
<rect x="811.9" y="97.3" class="st1" width="7.5" height="7.699"/>
<rect x="804.4" y="89.6" class="st1" width="7.5" height="7.7"/>
<rect x="796.801" y="81.899" class="st1" width="7.5" height="7.7"/>
<rect x="789.301" y="74.199" class="st1" width="7.5" height="7.7"/>
<rect x="804.4" y="74.199" class="st1" width="7.5" height="7.7"/>
<rect x="811.9" y="81.899" class="st1" width="7.5" height="7.7"/>
<rect x="819.4" y="74.199" class="st1" width="7.5" height="7.7"/>
<rect x="826.9" y="81.899" class="st1" width="7.5" height="7.7"/>
<rect x="819.4" y="89.6" class="st1" width="7.5" height="7.7"/>
<rect x="826.9" y="97.3" class="st1" width="7.5" height="7.699"/>
<rect x="834.4" y="89.6" class="st1" width="7.5" height="7.7"/>
<rect x="834.4" y="104.999" class="st1" width="7.5" height="7.7"/>
<rect x="834.4" y="120.499" class="st1" width="7.5" height="7.7"/>
<rect x="842" y="112.8" class="st1" width="7.5" height="7.699"/>
<rect x="849.5" y="120.499" class="st1" width="7.5" height="7.7"/>
<rect x="842" y="97.3" class="st1" width="7.5" height="7.699"/>
<rect x="849.5" y="104.999" class="st1" width="7.5" height="7.7"/>
<rect x="857" y="112.8" class="st1" width="7.5" height="7.699"/>
<rect x="842" y="128.199" class="st1" width="7.5" height="7.7"/>
<rect x="857" y="128.199" class="st1" width="7.5" height="7.7"/>
<rect x="864.5" y="120.499" class="st1" width="7.5" height="7.7"/>
<rect x="864.5" y="104.999" class="st1" width="7.5" height="7.7"/>
<rect x="857" y="97.3" class="st1" width="7.5" height="7.699"/>
<rect x="849.5" y="89.6" class="st1" width="7.5" height="7.7"/>
<rect x="842" y="81.899" class="st1" width="7.5" height="7.7"/>
<rect x="834.4" y="74.199" class="st1" width="7.5" height="7.7"/>
<rect x="849.5" y="74.199" class="st1" width="7.5" height="7.7"/>
<rect x="857" y="81.899" class="st1" width="7.5" height="7.7"/>
<rect x="864.5" y="74.199" class="st1" width="7.5" height="7.7"/>
<rect x="864.5" y="89.6" class="st1" width="7.5" height="7.7"/>
<rect x="548.699" y="135.899" class="st1" width="7.5" height="7.7"/>
<rect x="563.699" y="135.899" class="st1" width="7.5" height="7.7"/>
<rect x="578.699" y="135.899" class="st1" width="7.5" height="7.7"/>
<rect x="608.801" y="135.899" class="st1" width="7.5" height="7.7"/>
<rect x="593.801" y="135.899" class="st1" width="7.5" height="7.7"/>
<rect x="623.9" y="135.899" class="st1" width="7.5" height="7.7"/>
<rect x="638.9" y="135.899" class="st1" width="7.5" height="7.7"/>
<rect x="669" y="135.899" class="st1" width="7.5" height="7.7"/>
<rect x="654" y="135.899" class="st1" width="7.5" height="7.7"/>
<rect x="684" y="135.899" class="st1" width="7.5" height="7.7"/>
<rect x="699.1" y="135.899" class="st1" width="7.5" height="7.7"/>
<rect x="729.199" y="135.899" class="st1" width="7.5" height="7.7"/>
<rect x="714.1" y="135.899" class="st1" width="7.5" height="7.7"/>
<rect x="744.199" y="135.899" class="st1" width="7.5" height="7.7"/>
<rect x="759.199" y="135.899" class="st1" width="7.5" height="7.7"/>
<rect x="789.301" y="135.899" class="st1" width="7.5" height="7.7"/>
<rect x="774.301" y="135.899" class="st1" width="7.5" height="7.7"/>
<rect x="804.4" y="135.899" class="st1" width="7.5" height="7.7"/>
<rect x="819.4" y="135.899" class="st1" width="7.5" height="7.7"/>
<rect x="834.4" y="135.899" class="st1" width="7.5" height="7.7"/>
<rect x="849.5" y="135.899" class="st1" width="7.5" height="7.7"/>
<rect x="864.5" y="135.899" class="st1" width="7.5" height="7.7"/>
<polygon class="st2" points="575.301,72.899 538.5,144.899 0,144.699 0.1,73.1 "/>
</svg>
