<svg xmlns="http://www.w3.org/2000/svg" width="872" height="144" viewBox="0 0 872 144"><style type="text/css"><![CDATA[
	.st0{fill:#7AAFCC;}
	.st1{fill:#E3F1F6;}
	.st2{opacity:0.5;fill:#585858;}
	.st3{opacity:0.75;}
	.st4{fill:#BFBFBF;}
	.st5{fill:#5C5C5C;}
	.st6{fill:#5C9CBF;}
	.st7{fill:#999999;}
	.st8{fill:#CCE2EC;}
	.st9{fill:#C6DAE2;enable-background:new    ;}
	.st10{opacity:0.8;fill:#1E1E1C;enable-background:new    ;}
	.st11{fill:#737373;}
	.st12{fill:#A2C3D5;}
]]></style><path class="st8" d="M0-.4h872v72h-872z"/><path class="st9" d="M548.7 31.4h7.5v7.7h-7.5zm0 15.4h7.5v7.7h-7.5zm6.5-7.7h7.5v7.7h-7.5zm8.5 7.7h7.5v7.7h-7.5zm-7.5-23.1h7.5v7.7h-7.5zm7.5 7.7h7.5v7.7h-7.5zm7.5 7.7h7.5v7.7h-7.5zm-30.1 15.4h7.5v7.7h-7.5zm-7.5 8.4h7.5v7.7h-7.5zm22.6-8.4h7.5v7.7h-7.5zm15 0h7.5v7.7h-7.5zm7.5-7.7h7.5v7.7h-7.5zm7.6 7.7h7.5v7.7h-7.5zm0-15.4h7.5v7.7h-7.5zm-7.6-7.7h7.5v7.7h-7.5zm-7.5-7.7h7.5v7.7h-7.5zm-7.5-7.7h7.5v7.7h-7.5zm0-15.5h7.5v7.7h-7.5zm7.5 7.8h7.5v7.7h-7.5zm7.5-7.8h7.5v7.7h-7.5zm7.6 7.8h7.5v7.7h-7.5zm-7.6 7.7h7.5v7.7h-7.5zm7.6 7.7h7.5v7.7h-7.5zm7.5-23.2h7.5v7.7h-7.5zm7.5 7.8h7.5v7.7h-7.5zm7.5 7.7h7.5v7.7h-7.5zm-7.5 7.7h7.5v7.7h-7.5zm7.5 7.7h7.5v7.7h-7.5zm-7.5 7.7h7.5v7.7h-7.5zm7.5 7.7h7.5v7.7h-7.5zm-15-30.8h7.5v7.7h-7.5zm0 15.4h7.5v7.7h-7.5zm0 15.4h7.5v7.7h-7.5zm21.6-7.7h7.5v7.7h-7.5zm8.5 7.7h7.5v7.7h-7.5zm-7.5-23.1h7.5v7.7h-7.5zm7.5 7.7h7.5v7.7h-7.5zm7.5 7.7h7.5v7.7h-7.5zm-30.1 15.4h7.5v7.7h-7.5zm15.1 0h7.5v7.7h-7.5zm15 0h7.5v7.7h-7.5zm7.5-7.7h7.5v7.7h-7.5zm7.5 7.7h7.5v7.7h-7.5zm0-15.4h7.5v7.7h-7.5zm-7.5-7.7h7.5v7.7h-7.5zm-7.5-7.7h7.5v7.7h-7.5zm-7.5-7.7h7.5v7.7h-7.5zm-7.5-7.7h7.5v7.7h-7.5zm-7.6-7.8h7.5v7.7h-7.5zm15.1 0h7.5v7.7h-7.5zm7.5 7.8h7.5v7.7h-7.5zm7.5-7.8h7.5v7.7h-7.5zm7.5 7.8h7.5v7.7h-7.5zm-7.5 7.7h7.5v7.7h-7.5zm7.5 7.7h7.5v7.7h-7.5zm7.6-23.2h7.5v7.7h-7.5zm7.5 7.8h7.5v7.7h-7.5zm7.5 7.7h7.5v7.7h-7.5zm-7.5 7.7h7.5v7.7h-7.5zm7.5 7.7h7.5v7.7h-7.5zm-7.5 7.7h7.5v7.7h-7.5zm7.5 7.7h7.5v7.7h-7.5zm-15-30.8h7.5v7.7h-7.5zm0 15.4h7.5v7.7h-7.5zm0 15.4h7.5v7.7h-7.5zm21.5-7.7h7.5v7.7h-7.5zm8.5 7.7h7.5v7.7h-7.5zm-7.5-23.1h7.5v7.7h-7.5zm7.5 7.7h7.5v7.7h-7.5zm7.6 7.7h7.5v7.7h-7.5zm-30.1 15.4h7.5v7.7h-7.5zm15 0h7.5v7.7h-7.5zm15.1 0h7.5v7.7h-7.5zm7.5-7.7h7.5v7.7h-7.5zm7.5 7.7h7.5v7.7h-7.5zm0-15.4h7.5v7.7h-7.5zm-7.5-7.7h7.5v7.7h-7.5zm-7.5-7.7h7.5v7.7h-7.5zm-7.6-7.7h7.5v7.7h-7.5zm-7.5-7.7h7.5v7.7h-7.5zm-7.5-7.8h7.5v7.7h-7.5zm15 0h7.5v7.7h-7.5zm7.6 7.8h7.5v7.7h-7.5zm7.5-7.8h7.5v7.7h-7.5zm7.5 7.8h7.5v7.7h-7.5zm-7.5 7.7h7.5v7.7h-7.5zm7.5 7.7h7.5v7.7h-7.5zm7.5-23.2h7.5v7.7h-7.5zm7.5 7.8h7.5v7.7h-7.5zm7.6 7.7h7.5v7.7h-7.5zm-7.6 7.7h7.5v7.7h-7.5zm7.6 7.7h7.5v7.7h-7.5zm-7.6 7.7h7.5v7.7h-7.5zm7.6 7.7h7.5v7.7h-7.5zm-15.1-30.8h7.5v7.7h-7.5zm0 15.4h7.5v7.7h-7.5zm0 15.4h7.5v7.7h-7.5zm21.6-7.7h7.5v7.7h-7.5zm8.5 7.7h7.5v7.7h-7.5zm-7.5-23.1h7.5v7.7h-7.5zm7.5 7.7h7.5v7.7h-7.5zm7.5 7.7h7.5v7.7h-7.5zm-30.1 15.4h7.5v7.7h-7.5zm15.1 0h7.5v7.7h-7.5zm15 0h7.5v7.7h-7.5zm7.5-7.7h7.5v7.7h-7.5zm7.6 7.7h7.5v7.7h-7.5zm0-15.4h7.5v7.7h-7.5zm-7.6-7.7h7.5v7.7h-7.5zm-7.5-7.7h7.5v7.7h-7.5zm-7.5-7.7h7.5v7.7h-7.5zm-7.5-7.7h7.5v7.7h-7.5zm-7.5-7.8h7.5v7.7h-7.5zm15 0h7.5v7.7h-7.5zm7.5 7.8h7.5v7.7h-7.5zm7.5-7.8h7.5v7.7h-7.5zm7.6 7.8h7.5v7.7h-7.5zm-7.6 7.7h7.5v7.7h-7.5zm7.6 7.7h7.5v7.7h-7.5zm7.5-23.2h7.5v7.7h-7.5zm7.5 7.8h7.5v7.7h-7.5zm7.5 7.7h7.5v7.7h-7.5zm-7.5 7.7h7.5v7.7h-7.5zm7.5 7.7h7.5v7.7h-7.5zm-7.5 7.7h7.5v7.7h-7.5zm7.5 7.7h7.5v7.7h-7.5zm-15-30.8h7.5v7.7h-7.5zm0 15.4h7.5v7.7h-7.5zm0 15.4h7.5v7.7h-7.5zm21.5-7.7h7.5v7.7h-7.5zm8.6 7.7h7.5v7.7h-7.5zm-7.6-23.1h7.5v7.7h-7.5zm7.6 7.7h7.5v7.7h-7.5zm7.5 7.7h7.5v7.7h-7.5zm-30.1 15.4h7.5v7.7h-7.5zm15 0h7.5v7.7h-7.5zm15.1 0h7.5v7.7h-7.5zm7.5-7.7h7.5v7.7h-7.5zm7.5 7.7h7.5v7.7h-7.5zm0-15.4h7.5v7.7h-7.5zm-7.5-7.7h7.5v7.7h-7.5zm-7.5-7.7h7.5v7.7h-7.5zm-7.5-7.7h7.5v7.7h-7.5zm-7.6-7.7h7.5v7.7h-7.5zm-7.5-7.8h7.5v7.7h-7.5zm15.1 0h7.5v7.7h-7.5zm7.5 7.8h7.5v7.7h-7.5zm7.5-7.8h7.5v7.7h-7.5zm7.5 7.8h7.5v7.7h-7.5zm-7.5 7.7h7.5v7.7h-7.5zm7.5 7.7h7.5v7.7h-7.5zm7.5-7.7h7.5v7.7h-7.5zm0 15.4h7.5v7.7h-7.5zm0 15.4h7.5v7.7h-7.5zm6.6-7.7h7.5v7.7h-7.5zm8.5 7.7h7.5v7.7h-7.5zm-7.5-23.1h7.5v7.7h-7.5zm7.5 7.7h7.5v7.7h-7.5zm7.5 7.7h7.5v7.7h-7.5zm-15 15.4h7.5v7.7h-7.5zm15 0h7.5v7.7h-7.5zm7.5-7.7h7.5v7.7h-7.5zm0-15.4h7.5v7.7h-7.5zm-7.5-7.7h7.5v7.7h-7.5zm-7.5-7.7h7.5v7.7h-7.5zm-7.5-7.7h7.5v7.7h-7.5zm-7.6-7.8h7.5v7.7h-7.5zm15.1 0h7.5v7.7h-7.5zm7.5 7.8h7.5v7.7h-7.5zm7.5-7.8h7.5v7.7h-7.5zm0 15.5h7.5v7.7h-7.5zm-315.8 46.9h7.5v7.7h-7.5zm15 0h7.5v7.7h-7.5zm15 0h7.5v7.7h-7.5zm30.1 0h7.5v7.7h-7.5zm-15 0h7.5v7.7h-7.5zm30.1 0h7.5v7.7h-7.5zm15 0h7.5v7.7h-7.5zm30.1 0h7.5v7.7h-7.5zm-15 0h7.5v7.7h-7.5zm30 0h7.5v7.7h-7.5zm15.1 0h7.5v7.7h-7.5zm30.1 0h7.5v7.7h-7.5zm-15.1 0h7.5v7.7h-7.5zm30.1 0h7.5v7.7h-7.5zm15 0h7.5v7.7h-7.5zm30.1 0h7.5v7.7h-7.5zm-15 0h7.5v7.7h-7.5zm30.1 0h7.5v7.7h-7.5zm15 0h7.5v7.7h-7.5zm15 0h7.5v7.7h-7.5zm15.1 0h7.5v7.7h-7.5zm15 0h7.5v7.7h-7.5z"/><path class="st1" d="M574.3-.3l-36.8 71.7-536.6-.9v-71.5z"/><path class="st10" d="M0 72.9h872v72h-872z"/><path class="st2" d="M548.7 105h7.5v7.7h-7.5zm0 15.5h7.5v7.7h-7.5zm7.5-7.7h7.5v7.7h-7.5zm7.5 7.7h7.5v7.7h-7.5zm-7.5-23.2h7.5v7.7h-7.5zm7.5 7.7h7.5v7.7h-7.5zm7.5 7.8h7.5v7.7h-7.5zm-30.1 15.4h7.5v7.7h-7.5zm15.1 0h7.5v7.7h-7.5zm15 0h7.5v7.7h-7.5zm7.5-7.7h7.5v7.7h-7.5zm7.6 7.7h7.5v7.7h-7.5zm0-15.4h7.5v7.7h-7.5zm-7.6-7.8h7.5v7.7h-7.5zm-7.5-7.7h7.5v7.7h-7.5zm-7.5-7.7h7.5v7.7h-7.5zm0-15.4h7.5v7.7h-7.5zm7.5 7.7h7.5v7.7h-7.5zm7.5-7.7h7.5v7.7h-7.5zm7.6 7.7h7.5v7.7h-7.5zm-7.6 7.7h7.5v7.7h-7.5zm7.6 7.7h7.5v7.7h-7.5zm7.5-23.1h7.5v7.7h-7.5zm7.5 7.7h7.5v7.7h-7.5zm7.5 7.7h7.5v7.7h-7.5zm-7.5 7.7h7.5v7.7h-7.5zm7.5 7.7h7.5v7.7h-7.5zm-7.5 7.8h7.5v7.7h-7.5zm7.5 7.7h7.5v7.7h-7.5zm-15-30.9h7.5v7.7h-7.5zm0 15.4h7.5v7.7h-7.5zm0 15.5h7.5v7.7h-7.5zm22.6-7.7h7.5v7.7h-7.5zm7.5 7.7h7.5v7.7h-7.5zm-7.5-23.2h7.5v7.7h-7.5zm7.5 7.7h7.5v7.7h-7.5zm7.5 7.8h7.5v7.7h-7.5zm-30.1 15.4h7.5v7.7h-7.5zm15.1 0h7.5v7.7h-7.5zm15 0h7.5v7.7h-7.5zm7.5-7.7h7.5v7.7h-7.5zm7.5 7.7h7.5v7.7h-7.5zm0-15.4h7.5v7.7h-7.5zm-7.5-7.8h7.5v7.7h-7.5zm-7.5-7.7h7.5v7.7h-7.5zm-7.5-7.7h7.5v7.7h-7.5zm-7.5-7.7h7.5v7.7h-7.5zm-7.6-7.7h7.5v7.7h-7.5zm15.1 0h7.5v7.7h-7.5zm7.5 7.7h7.5v7.7h-7.5zm7.5-7.7h7.5v7.7h-7.5zm7.5 7.7h7.5v7.7h-7.5zm-7.5 7.7h7.5v7.7h-7.5zm7.5 7.7h7.5v7.7h-7.5zm7.6-23.1h7.5v7.7h-7.5zm7.5 7.7h7.5v7.7h-7.5zm7.5 7.7h7.5v7.7h-7.5zm-7.5 7.7h7.5v7.7h-7.5zm7.5 7.7h7.5v7.7h-7.5zm-7.5 7.8h7.5v7.7h-7.5zm7.5 7.7h7.5v7.7h-7.5zm-15-30.9h7.5v7.7h-7.5zm0 15.4h7.5v7.7h-7.5zm0 15.5h7.5v7.7h-7.5zm22.5-7.7h7.5v7.7h-7.5zm7.5 7.7h7.5v7.7h-7.5zm-7.5-23.2h7.5v7.7h-7.5zm7.5 7.7h7.5v7.7h-7.5zm7.6 7.8h7.5v7.7h-7.5zm-30.1 15.4h7.5v7.7h-7.5zm15 0h7.5v7.7h-7.5zm15.1 0h7.5v7.7h-7.5zm7.5-7.7h7.5v7.7h-7.5zm7.5 7.7h7.5v7.7h-7.5zm0-15.4h7.5v7.7h-7.5zm-7.5-7.8h7.5v7.7h-7.5zm-7.5-7.7h7.5v7.7h-7.5zm-7.6-7.7h7.5v7.7h-7.5zm-7.5-7.7h7.5v7.7h-7.5zm-7.5-7.7h7.5v7.7h-7.5zm15 0h7.5v7.7h-7.5zm7.6 7.7h7.5v7.7h-7.5zm7.5-7.7h7.5v7.7h-7.5zm7.5 7.7h7.5v7.7h-7.5zm-7.5 7.7h7.5v7.7h-7.5zm7.5 7.7h7.5v7.7h-7.5zm7.5-23.1h7.5v7.7h-7.5zm7.5 7.7h7.5v7.7h-7.5zm7.6 7.7h7.5v7.7h-7.5zm-7.6 7.7h7.5v7.7h-7.5zm7.6 7.7h7.5v7.7h-7.5zm-7.6 7.8h7.5v7.7h-7.5zm7.6 7.7h7.5v7.7h-7.5zm-15.1-30.9h7.5v7.7h-7.5zm0 15.4h7.5v7.7h-7.5zm0 15.5h7.5v7.7h-7.5zm22.6-7.7h7.5v7.7h-7.5zm7.5 7.7h7.5v7.7h-7.5zm-7.5-23.2h7.5v7.7h-7.5zm7.5 7.7h7.5v7.7h-7.5zm7.5 7.8h7.5v7.7h-7.5zm-30.1 15.4h7.5v7.7h-7.5zm15.1 0h7.5v7.7h-7.5zm15 0h7.5v7.7h-7.5zm7.5-7.7h7.5v7.7h-7.5zm7.6 7.7h7.5v7.7h-7.5zm0-15.4h7.5v7.7h-7.5zm-7.6-7.8h7.5v7.7h-7.5zm-7.5-7.7h7.5v7.7h-7.5zm-7.5-7.7h7.5v7.7h-7.5zm-7.5-7.7h7.5v7.7h-7.5zm-7.5-7.7h7.5v7.7h-7.5zm15 0h7.5v7.7h-7.5zm7.5 7.7h7.5v7.7h-7.5zm7.5-7.7h7.5v7.7h-7.5zm7.6 7.7h7.5v7.7h-7.5zm-7.6 7.7h7.5v7.7h-7.5zm7.6 7.7h7.5v7.7h-7.5zm7.5-23.1h7.5v7.7h-7.5zm7.5 7.7h7.5v7.7h-7.5zm7.5 7.7h7.5v7.7h-7.5zm-7.5 7.7h7.5v7.7h-7.5zm7.5 7.7h7.5v7.7h-7.5zm-7.5 7.8h7.5v7.7h-7.5zm7.5 7.7h7.5v7.7h-7.5zm-15-30.9h7.5v7.7h-7.5zm0 15.4h7.5v7.7h-7.5zm0 15.5h7.5v7.7h-7.5zm22.5-7.7h7.5v7.7h-7.5zm7.6 7.7h7.5v7.7h-7.5zm-7.6-23.2h7.5v7.7h-7.5zm7.6 7.7h7.5v7.7h-7.5zm7.5 7.8h7.5v7.7h-7.5zm-30.1 15.4h7.5v7.7h-7.5zm15 0h7.5v7.7h-7.5zm15.1 0h7.5v7.7h-7.5zm7.5-7.7h7.5v7.7h-7.5zm7.5 7.7h7.5v7.7h-7.5zm0-15.4h7.5v7.7h-7.5zm-7.5-7.8h7.5v7.7h-7.5zm-7.5-7.7h7.5v7.7h-7.5zm-7.5-7.7h7.5v7.7h-7.5zm-7.6-7.7h7.5v7.7h-7.5zm-7.5-7.7h7.5v7.7h-7.5zm15.1 0h7.5v7.7h-7.5zm7.5 7.7h7.5v7.7h-7.5zm7.5-7.7h7.5v7.7h-7.5zm7.5 7.7h7.5v7.7h-7.5zm-7.5 7.7h7.5v7.7h-7.5zm7.5 7.7h7.5v7.7h-7.5zm7.5-7.7h7.5v7.7h-7.5zm0 15.4h7.5v7.7h-7.5zm0 15.5h7.5v7.7h-7.5zm7.6-7.7h7.5v7.7h-7.5zm7.5 7.7h7.5v7.7h-7.5zm-7.5-23.2h7.5v7.7h-7.5zm7.5 7.7h7.5v7.7h-7.5zm7.5 7.8h7.5v7.7h-7.5zm-15 15.4h7.5v7.7h-7.5zm15 0h7.5v7.7h-7.5zm7.5-7.7h7.5v7.7h-7.5zm0-15.5h7.5v7.7h-7.5zm-7.5-7.7h7.5v7.7h-7.5zm-7.5-7.7h7.5v7.7h-7.5zm-7.5-7.7h7.5v7.7h-7.5zm-7.6-7.7h7.5v7.7h-7.5zm15.1 0h7.5v7.7h-7.5zm7.5 7.7h7.5v7.7h-7.5zm7.5-7.7h7.5v7.7h-7.5zm0 15.4h7.5v7.7h-7.5zm-315.8 46.3h7.5v7.7h-7.5zm15 0h7.5v7.7h-7.5zm15 0h7.5v7.7h-7.5zm30.1 0h7.5v7.7h-7.5zm-15 0h7.5v7.7h-7.5zm30.1 0h7.5v7.7h-7.5zm15 0h7.5v7.7h-7.5zm30.1 0h7.5v7.7h-7.5zm-15 0h7.5v7.7h-7.5zm30 0h7.5v7.7h-7.5zm15.1 0h7.5v7.7h-7.5zm30.1 0h7.5v7.7h-7.5zm-15.1 0h7.5v7.7h-7.5zm30.1 0h7.5v7.7h-7.5zm15 0h7.5v7.7h-7.5zm30.1 0h7.5v7.7h-7.5zm-15 0h7.5v7.7h-7.5zm30.1 0h7.5v7.7h-7.5zm15 0h7.5v7.7h-7.5zm15 0h7.5v7.7h-7.5zm15.1 0h7.5v7.7h-7.5zm15 0h7.5v7.7h-7.5z"/><path class="st5" d="M575.3 72.9l-36.8 72-538.5-.2.1-71.6z"/><g class="st3"><path class="st12" d="M697.1 59.8h-48l31.7-11.7h48zm58.9 0h-47.9l31.7-11.7h47.9zm58.9 0h-47.9l31.7-11.7h48zm-78-15h-47.9l31.7-11.8h47.9zm58.9 0h-47.9l31.7-11.8h48zm75.8-11.8h-33l-31.8 11.8h48l16.8-6.3zm-89 39l24.2-9h-47.9l-24.3 9zm-59 0l24.3-9h-48l-24.2 9zm-58.9 0l24.3-9h-48l-24.2 9z"/><path class="st0" d="M700.1 52.5h-61.8l40.9-15.7h61.8zm79 0h-61.8l40.9-15.7h61.8zm-29.9-19.1h-61.8l40.9-15.8h61.8zm79.1 0h-61.8l40.9-15.8h61.8z"/><path class="st6" d="M765.3 28.3h-91.5l60.5-23.3h91.5z"/></g><g class="st3"><path class="st4" d="M697.1 133.1h-48l31.7-11.6h48zm58.9 0h-47.9l31.7-11.6h47.9zm58.9 0h-47.9l31.7-11.6h48zm-78-15h-47.9l31.7-11.7h47.9zm58.9 0h-47.9l31.7-11.7h48zm75.8-11.7h-33l-31.8 11.7h48l16.8-6.2zm-89 38.9l24.2-8.9h-47.9l-24.3 8.9zm-59 0l24.3-8.9h-48l-24.2 8.9zm-58.9 0l24.3-8.9h-48l-24.2 8.9z"/><path class="st7" d="M700.1 125.9h-61.8l40.9-15.7h61.8zm79 0h-61.8l40.9-15.7h61.8zm-29.9-19.1h-61.8l40.9-15.8h61.8zm79.1 0h-61.8l40.9-15.8h61.8z"/><path class="st11" d="M765.3 101.7h-91.5l60.5-23.3h91.5z"/></g></svg>