<?xml version="1.0" encoding="utf-8"?>
<!-- Generator: Adobe Illustrator 15.1.0, SVG Export Plug-In . SVG Version: 6.00 Build 0)  -->
<!DOCTYPE svg PUBLIC "-//W3C//DTD SVG 1.1//EN" "http://www.w3.org/Graphics/SVG/1.1/DTD/svg11.dtd">
<svg version="1.1" id="Calque_1" xmlns="http://www.w3.org/2000/svg" xmlns:xlink="http://www.w3.org/1999/xlink" x="0px" y="0px"
	 width="872px" height="144px" viewBox="0 0 872 144" style="enable-background:new 0 0 872 144;" xml:space="preserve">
<style type="text/css">
<![CDATA[
	.st0{fill:#7AAFCC;}
	.st1{fill:#E3F1F6;}
	.st2{opacity:0.5;fill:#585858;}
	.st3{opacity:0.75;}
	.st4{fill:#BFBFBF;}
	.st5{fill:#5C5C5C;}
	.st6{fill:#5C9CBF;}
	.st7{fill:#999999;}
	.st8{fill:#CCE2EC;}
	.st9{fill:#C6DAE2;enable-background:new    ;}
	.st10{opacity:0.8;fill:#1E1E1C;enable-background:new    ;}
	.st11{fill:#737373;}
	.st12{fill:#A2C3D5;}
]]>
</style>
<rect y="-0.4" class="st8" width="872" height="72"/>
<rect x="548.7" y="31.4" class="st9" width="7.5" height="7.7"/>
<rect x="548.7" y="46.8" class="st9" width="7.5" height="7.7"/>
<rect x="555.2" y="39.1" class="st9" width="7.5" height="7.7"/>
<rect x="563.7" y="46.8" class="st9" width="7.5" height="7.7"/>
<rect x="556.2" y="23.7" class="st9" width="7.5" height="7.7"/>
<rect x="563.7" y="31.4" class="st9" width="7.5" height="7.7"/>
<rect x="571.2" y="39.1" class="st9" width="7.5" height="7.7"/>
<rect x="541.1" y="54.5" class="st9" width="7.5" height="7.7"/>
<rect x="533.6" y="62.9" class="st9" width="7.5" height="7.7"/>
<rect x="556.2" y="54.5" class="st9" width="7.5" height="7.7"/>
<rect x="571.2" y="54.5" class="st9" width="7.5" height="7.7"/>
<rect x="578.7" y="46.8" class="st9" width="7.5" height="7.7"/>
<rect x="586.3" y="54.5" class="st9" width="7.5" height="7.7"/>
<rect x="586.3" y="39.1" class="st9" width="7.5" height="7.7"/>
<rect x="578.7" y="31.4" class="st9" width="7.5" height="7.7"/>
<rect x="571.2" y="23.7" class="st9" width="7.5" height="7.7"/>
<rect x="563.7" y="16" class="st9" width="7.5" height="7.7"/>
<rect x="563.7" y="0.5" class="st9" width="7.5" height="7.7"/>
<rect x="571.2" y="8.3" class="st9" width="7.5" height="7.7"/>
<rect x="578.7" y="0.5" class="st9" width="7.5" height="7.7"/>
<rect x="586.3" y="8.3" class="st9" width="7.5" height="7.7"/>
<rect x="578.7" y="16" class="st9" width="7.5" height="7.7"/>
<rect x="586.3" y="23.7" class="st9" width="7.5" height="7.7"/>
<rect x="593.8" y="0.5" class="st9" width="7.5" height="7.7"/>
<rect x="601.3" y="8.3" class="st9" width="7.5" height="7.7"/>
<rect x="608.8" y="16" class="st9" width="7.5" height="7.7"/>
<rect x="601.3" y="23.7" class="st9" width="7.5" height="7.7"/>
<rect x="608.8" y="31.4" class="st9" width="7.5" height="7.7"/>
<rect x="601.3" y="39.1" class="st9" width="7.5" height="7.7"/>
<rect x="608.8" y="46.8" class="st9" width="7.5" height="7.7"/>
<rect x="593.8" y="16" class="st9" width="7.5" height="7.7"/>
<rect x="593.8" y="31.4" class="st9" width="7.5" height="7.7"/>
<rect x="593.8" y="46.8" class="st9" width="7.5" height="7.7"/>
<rect x="615.4" y="39.1" class="st9" width="7.5" height="7.7"/>
<rect x="623.9" y="46.8" class="st9" width="7.5" height="7.7"/>
<rect x="616.4" y="23.7" class="st9" width="7.5" height="7.7"/>
<rect x="623.9" y="31.4" class="st9" width="7.5" height="7.7"/>
<rect x="631.4" y="39.1" class="st9" width="7.5" height="7.7"/>
<rect x="601.3" y="54.5" class="st9" width="7.5" height="7.7"/>
<rect x="616.4" y="54.5" class="st9" width="7.5" height="7.7"/>
<rect x="631.4" y="54.5" class="st9" width="7.5" height="7.7"/>
<rect x="638.9" y="46.8" class="st9" width="7.5" height="7.7"/>
<rect x="646.4" y="54.5" class="st9" width="7.5" height="7.7"/>
<rect x="646.4" y="39.1" class="st9" width="7.5" height="7.7"/>
<rect x="638.9" y="31.4" class="st9" width="7.5" height="7.7"/>
<rect x="631.4" y="23.7" class="st9" width="7.5" height="7.7"/>
<rect x="623.9" y="16" class="st9" width="7.5" height="7.7"/>
<rect x="616.4" y="8.3" class="st9" width="7.5" height="7.7"/>
<rect x="608.8" y="0.5" class="st9" width="7.5" height="7.7"/>
<rect x="623.9" y="0.5" class="st9" width="7.5" height="7.7"/>
<rect x="631.4" y="8.3" class="st9" width="7.5" height="7.7"/>
<rect x="638.9" y="0.5" class="st9" width="7.5" height="7.7"/>
<rect x="646.4" y="8.3" class="st9" width="7.5" height="7.7"/>
<rect x="638.9" y="16" class="st9" width="7.5" height="7.7"/>
<rect x="646.4" y="23.7" class="st9" width="7.5" height="7.7"/>
<rect x="654" y="0.5" class="st9" width="7.5" height="7.7"/>
<rect x="661.5" y="8.3" class="st9" width="7.5" height="7.7"/>
<rect x="669" y="16" class="st9" width="7.5" height="7.7"/>
<rect x="661.5" y="23.7" class="st9" width="7.5" height="7.7"/>
<rect x="669" y="31.4" class="st9" width="7.5" height="7.7"/>
<rect x="661.5" y="39.1" class="st9" width="7.5" height="7.7"/>
<rect x="669" y="46.8" class="st9" width="7.5" height="7.7"/>
<rect x="654" y="16" class="st9" width="7.5" height="7.7"/>
<rect x="654" y="31.4" class="st9" width="7.5" height="7.7"/>
<rect x="654" y="46.8" class="st9" width="7.5" height="7.7"/>
<rect x="675.5" y="39.1" class="st9" width="7.5" height="7.7"/>
<rect x="684" y="46.8" class="st9" width="7.5" height="7.7"/>
<rect x="676.5" y="23.7" class="st9" width="7.5" height="7.7"/>
<rect x="684" y="31.4" class="st9" width="7.5" height="7.7"/>
<rect x="691.6" y="39.1" class="st9" width="7.5" height="7.7"/>
<rect x="661.5" y="54.5" class="st9" width="7.5" height="7.7"/>
<rect x="676.5" y="54.5" class="st9" width="7.5" height="7.7"/>
<rect x="691.6" y="54.5" class="st9" width="7.5" height="7.7"/>
<rect x="699.1" y="46.8" class="st9" width="7.5" height="7.7"/>
<rect x="706.6" y="54.5" class="st9" width="7.5" height="7.7"/>
<rect x="706.6" y="39.1" class="st9" width="7.5" height="7.7"/>
<rect x="699.1" y="31.4" class="st9" width="7.5" height="7.7"/>
<rect x="691.6" y="23.7" class="st9" width="7.5" height="7.7"/>
<rect x="684" y="16" class="st9" width="7.5" height="7.7"/>
<rect x="676.5" y="8.3" class="st9" width="7.5" height="7.7"/>
<rect x="669" y="0.5" class="st9" width="7.5" height="7.7"/>
<rect x="684" y="0.5" class="st9" width="7.5" height="7.7"/>
<rect x="691.6" y="8.3" class="st9" width="7.5" height="7.7"/>
<rect x="699.1" y="0.5" class="st9" width="7.5" height="7.7"/>
<rect x="706.6" y="8.3" class="st9" width="7.5" height="7.7"/>
<rect x="699.1" y="16" class="st9" width="7.5" height="7.7"/>
<rect x="706.6" y="23.7" class="st9" width="7.5" height="7.7"/>
<rect x="714.1" y="0.5" class="st9" width="7.5" height="7.7"/>
<rect x="721.6" y="8.3" class="st9" width="7.5" height="7.7"/>
<rect x="729.2" y="16" class="st9" width="7.5" height="7.7"/>
<rect x="721.6" y="23.7" class="st9" width="7.5" height="7.7"/>
<rect x="729.2" y="31.4" class="st9" width="7.5" height="7.7"/>
<rect x="721.6" y="39.1" class="st9" width="7.5" height="7.7"/>
<rect x="729.2" y="46.8" class="st9" width="7.5" height="7.7"/>
<rect x="714.1" y="16" class="st9" width="7.5" height="7.7"/>
<rect x="714.1" y="31.4" class="st9" width="7.5" height="7.7"/>
<rect x="714.1" y="46.8" class="st9" width="7.5" height="7.7"/>
<rect x="735.7" y="39.1" class="st9" width="7.5" height="7.7"/>
<rect x="744.2" y="46.8" class="st9" width="7.5" height="7.7"/>
<rect x="736.7" y="23.7" class="st9" width="7.5" height="7.7"/>
<rect x="744.2" y="31.4" class="st9" width="7.5" height="7.7"/>
<rect x="751.7" y="39.1" class="st9" width="7.5" height="7.7"/>
<rect x="721.6" y="54.5" class="st9" width="7.5" height="7.7"/>
<rect x="736.7" y="54.5" class="st9" width="7.5" height="7.7"/>
<rect x="751.7" y="54.5" class="st9" width="7.5" height="7.7"/>
<rect x="759.2" y="46.8" class="st9" width="7.5" height="7.7"/>
<rect x="766.8" y="54.5" class="st9" width="7.5" height="7.7"/>
<rect x="766.8" y="39.1" class="st9" width="7.5" height="7.7"/>
<rect x="759.2" y="31.4" class="st9" width="7.5" height="7.7"/>
<rect x="751.7" y="23.7" class="st9" width="7.5" height="7.7"/>
<rect x="744.2" y="16" class="st9" width="7.5" height="7.7"/>
<rect x="736.7" y="8.3" class="st9" width="7.5" height="7.7"/>
<rect x="729.2" y="0.5" class="st9" width="7.5" height="7.7"/>
<rect x="744.2" y="0.5" class="st9" width="7.5" height="7.7"/>
<rect x="751.7" y="8.3" class="st9" width="7.5" height="7.7"/>
<rect x="759.2" y="0.5" class="st9" width="7.5" height="7.7"/>
<rect x="766.8" y="8.3" class="st9" width="7.5" height="7.7"/>
<rect x="759.2" y="16" class="st9" width="7.5" height="7.7"/>
<rect x="766.8" y="23.7" class="st9" width="7.5" height="7.7"/>
<rect x="774.3" y="0.5" class="st9" width="7.5" height="7.7"/>
<rect x="781.8" y="8.3" class="st9" width="7.5" height="7.7"/>
<rect x="789.3" y="16" class="st9" width="7.5" height="7.7"/>
<rect x="781.8" y="23.7" class="st9" width="7.5" height="7.7"/>
<rect x="789.3" y="31.4" class="st9" width="7.5" height="7.7"/>
<rect x="781.8" y="39.1" class="st9" width="7.5" height="7.7"/>
<rect x="789.3" y="46.8" class="st9" width="7.5" height="7.7"/>
<rect x="774.3" y="16" class="st9" width="7.5" height="7.7"/>
<rect x="774.3" y="31.4" class="st9" width="7.5" height="7.7"/>
<rect x="774.3" y="46.8" class="st9" width="7.5" height="7.7"/>
<rect x="795.8" y="39.1" class="st9" width="7.5" height="7.7"/>
<rect x="804.4" y="46.8" class="st9" width="7.5" height="7.7"/>
<rect x="796.8" y="23.7" class="st9" width="7.5" height="7.7"/>
<rect x="804.4" y="31.4" class="st9" width="7.5" height="7.7"/>
<rect x="811.9" y="39.1" class="st9" width="7.5" height="7.7"/>
<rect x="781.8" y="54.5" class="st9" width="7.5" height="7.7"/>
<rect x="796.8" y="54.5" class="st9" width="7.5" height="7.7"/>
<rect x="811.9" y="54.5" class="st9" width="7.5" height="7.7"/>
<rect x="819.4" y="46.8" class="st9" width="7.5" height="7.7"/>
<rect x="826.9" y="54.5" class="st9" width="7.5" height="7.7"/>
<rect x="826.9" y="39.1" class="st9" width="7.5" height="7.7"/>
<rect x="819.4" y="31.4" class="st9" width="7.5" height="7.7"/>
<rect x="811.9" y="23.7" class="st9" width="7.5" height="7.7"/>
<rect x="804.4" y="16" class="st9" width="7.5" height="7.7"/>
<rect x="796.8" y="8.3" class="st9" width="7.5" height="7.7"/>
<rect x="789.3" y="0.5" class="st9" width="7.5" height="7.7"/>
<rect x="804.4" y="0.5" class="st9" width="7.5" height="7.7"/>
<rect x="811.9" y="8.3" class="st9" width="7.5" height="7.7"/>
<rect x="819.4" y="0.5" class="st9" width="7.5" height="7.7"/>
<rect x="826.9" y="8.3" class="st9" width="7.5" height="7.7"/>
<rect x="819.4" y="16" class="st9" width="7.5" height="7.7"/>
<rect x="826.9" y="23.7" class="st9" width="7.5" height="7.7"/>
<rect x="834.4" y="16" class="st9" width="7.5" height="7.7"/>
<rect x="834.4" y="31.4" class="st9" width="7.5" height="7.7"/>
<rect x="834.4" y="46.8" class="st9" width="7.5" height="7.7"/>
<rect x="841" y="39.1" class="st9" width="7.5" height="7.7"/>
<rect x="849.5" y="46.8" class="st9" width="7.5" height="7.7"/>
<rect x="842" y="23.7" class="st9" width="7.5" height="7.7"/>
<rect x="849.5" y="31.4" class="st9" width="7.5" height="7.7"/>
<rect x="857" y="39.1" class="st9" width="7.5" height="7.7"/>
<rect x="842" y="54.5" class="st9" width="7.5" height="7.7"/>
<rect x="857" y="54.5" class="st9" width="7.5" height="7.7"/>
<rect x="864.5" y="46.8" class="st9" width="7.5" height="7.7"/>
<rect x="864.5" y="31.4" class="st9" width="7.5" height="7.7"/>
<rect x="857" y="23.7" class="st9" width="7.5" height="7.7"/>
<rect x="849.5" y="16" class="st9" width="7.5" height="7.7"/>
<rect x="842" y="8.3" class="st9" width="7.5" height="7.7"/>
<rect x="834.4" y="0.5" class="st9" width="7.5" height="7.7"/>
<rect x="849.5" y="0.5" class="st9" width="7.5" height="7.7"/>
<rect x="857" y="8.3" class="st9" width="7.5" height="7.7"/>
<rect x="864.5" y="0.5" class="st9" width="7.5" height="7.7"/>
<rect x="864.5" y="16" class="st9" width="7.5" height="7.7"/>
<rect x="548.7" y="62.9" class="st9" width="7.5" height="7.7"/>
<rect x="563.7" y="62.9" class="st9" width="7.5" height="7.7"/>
<rect x="578.7" y="62.9" class="st9" width="7.5" height="7.7"/>
<rect x="608.8" y="62.9" class="st9" width="7.5" height="7.7"/>
<rect x="593.8" y="62.9" class="st9" width="7.5" height="7.7"/>
<rect x="623.9" y="62.9" class="st9" width="7.5" height="7.7"/>
<rect x="638.9" y="62.9" class="st9" width="7.5" height="7.7"/>
<rect x="669" y="62.9" class="st9" width="7.5" height="7.7"/>
<rect x="654" y="62.9" class="st9" width="7.5" height="7.7"/>
<rect x="684" y="62.9" class="st9" width="7.5" height="7.7"/>
<rect x="699.1" y="62.9" class="st9" width="7.5" height="7.7"/>
<rect x="729.2" y="62.9" class="st9" width="7.5" height="7.7"/>
<rect x="714.1" y="62.9" class="st9" width="7.5" height="7.7"/>
<rect x="744.2" y="62.9" class="st9" width="7.5" height="7.7"/>
<rect x="759.2" y="62.9" class="st9" width="7.5" height="7.7"/>
<rect x="789.3" y="62.9" class="st9" width="7.5" height="7.7"/>
<rect x="774.3" y="62.9" class="st9" width="7.5" height="7.7"/>
<rect x="804.4" y="62.9" class="st9" width="7.5" height="7.7"/>
<rect x="819.4" y="62.9" class="st9" width="7.5" height="7.7"/>
<rect x="834.4" y="62.9" class="st9" width="7.5" height="7.7"/>
<rect x="849.5" y="62.9" class="st9" width="7.5" height="7.7"/>
<rect x="864.5" y="62.9" class="st9" width="7.5" height="7.7"/>
<polygon class="st1" points="574.3,-0.3 537.5,71.4 0.9,70.5 0.9,-1 "/>
<rect y="72.9" class="st10" width="872" height="72"/>
<rect x="548.7" y="105" class="st2" width="7.5" height="7.7"/>
<rect x="548.7" y="120.5" class="st2" width="7.5" height="7.7"/>
<rect x="556.2" y="112.8" class="st2" width="7.5" height="7.7"/>
<rect x="563.7" y="120.5" class="st2" width="7.5" height="7.7"/>
<rect x="556.2" y="97.3" class="st2" width="7.5" height="7.7"/>
<rect x="563.7" y="105" class="st2" width="7.5" height="7.7"/>
<rect x="571.2" y="112.8" class="st2" width="7.5" height="7.7"/>
<rect x="541.1" y="128.2" class="st2" width="7.5" height="7.7"/>
<rect x="556.2" y="128.2" class="st2" width="7.5" height="7.7"/>
<rect x="571.2" y="128.2" class="st2" width="7.5" height="7.7"/>
<rect x="578.7" y="120.5" class="st2" width="7.5" height="7.7"/>
<rect x="586.3" y="128.2" class="st2" width="7.5" height="7.7"/>
<rect x="586.3" y="112.8" class="st2" width="7.5" height="7.7"/>
<rect x="578.7" y="105" class="st2" width="7.5" height="7.7"/>
<rect x="571.2" y="97.3" class="st2" width="7.5" height="7.7"/>
<rect x="563.7" y="89.6" class="st2" width="7.5" height="7.7"/>
<rect x="563.7" y="74.2" class="st2" width="7.5" height="7.7"/>
<rect x="571.2" y="81.9" class="st2" width="7.5" height="7.7"/>
<rect x="578.7" y="74.2" class="st2" width="7.5" height="7.7"/>
<rect x="586.3" y="81.9" class="st2" width="7.5" height="7.7"/>
<rect x="578.7" y="89.6" class="st2" width="7.5" height="7.7"/>
<rect x="586.3" y="97.3" class="st2" width="7.5" height="7.7"/>
<rect x="593.8" y="74.2" class="st2" width="7.5" height="7.7"/>
<rect x="601.3" y="81.9" class="st2" width="7.5" height="7.7"/>
<rect x="608.8" y="89.6" class="st2" width="7.5" height="7.7"/>
<rect x="601.3" y="97.3" class="st2" width="7.5" height="7.7"/>
<rect x="608.8" y="105" class="st2" width="7.5" height="7.7"/>
<rect x="601.3" y="112.8" class="st2" width="7.5" height="7.7"/>
<rect x="608.8" y="120.5" class="st2" width="7.5" height="7.7"/>
<rect x="593.8" y="89.6" class="st2" width="7.5" height="7.7"/>
<rect x="593.8" y="105" class="st2" width="7.5" height="7.7"/>
<rect x="593.8" y="120.5" class="st2" width="7.5" height="7.7"/>
<rect x="616.4" y="112.8" class="st2" width="7.5" height="7.7"/>
<rect x="623.9" y="120.5" class="st2" width="7.5" height="7.7"/>
<rect x="616.4" y="97.3" class="st2" width="7.5" height="7.7"/>
<rect x="623.9" y="105" class="st2" width="7.5" height="7.7"/>
<rect x="631.4" y="112.8" class="st2" width="7.5" height="7.7"/>
<rect x="601.3" y="128.2" class="st2" width="7.5" height="7.7"/>
<rect x="616.4" y="128.2" class="st2" width="7.5" height="7.7"/>
<rect x="631.4" y="128.2" class="st2" width="7.5" height="7.7"/>
<rect x="638.9" y="120.5" class="st2" width="7.5" height="7.7"/>
<rect x="646.4" y="128.2" class="st2" width="7.5" height="7.7"/>
<rect x="646.4" y="112.8" class="st2" width="7.5" height="7.7"/>
<rect x="638.9" y="105" class="st2" width="7.5" height="7.7"/>
<rect x="631.4" y="97.3" class="st2" width="7.5" height="7.7"/>
<rect x="623.9" y="89.6" class="st2" width="7.5" height="7.7"/>
<rect x="616.4" y="81.9" class="st2" width="7.5" height="7.7"/>
<rect x="608.8" y="74.2" class="st2" width="7.5" height="7.7"/>
<rect x="623.9" y="74.2" class="st2" width="7.5" height="7.7"/>
<rect x="631.4" y="81.9" class="st2" width="7.5" height="7.7"/>
<rect x="638.9" y="74.2" class="st2" width="7.5" height="7.7"/>
<rect x="646.4" y="81.9" class="st2" width="7.5" height="7.7"/>
<rect x="638.9" y="89.6" class="st2" width="7.5" height="7.7"/>
<rect x="646.4" y="97.3" class="st2" width="7.5" height="7.7"/>
<rect x="654" y="74.2" class="st2" width="7.5" height="7.7"/>
<rect x="661.5" y="81.9" class="st2" width="7.5" height="7.7"/>
<rect x="669" y="89.6" class="st2" width="7.5" height="7.7"/>
<rect x="661.5" y="97.3" class="st2" width="7.5" height="7.7"/>
<rect x="669" y="105" class="st2" width="7.5" height="7.7"/>
<rect x="661.5" y="112.8" class="st2" width="7.5" height="7.7"/>
<rect x="669" y="120.5" class="st2" width="7.5" height="7.7"/>
<rect x="654" y="89.6" class="st2" width="7.5" height="7.7"/>
<rect x="654" y="105" class="st2" width="7.5" height="7.7"/>
<rect x="654" y="120.5" class="st2" width="7.5" height="7.7"/>
<rect x="676.5" y="112.8" class="st2" width="7.5" height="7.7"/>
<rect x="684" y="120.5" class="st2" width="7.5" height="7.7"/>
<rect x="676.5" y="97.3" class="st2" width="7.5" height="7.7"/>
<rect x="684" y="105" class="st2" width="7.5" height="7.7"/>
<rect x="691.6" y="112.8" class="st2" width="7.5" height="7.7"/>
<rect x="661.5" y="128.2" class="st2" width="7.5" height="7.7"/>
<rect x="676.5" y="128.2" class="st2" width="7.5" height="7.7"/>
<rect x="691.6" y="128.2" class="st2" width="7.5" height="7.7"/>
<rect x="699.1" y="120.5" class="st2" width="7.5" height="7.7"/>
<rect x="706.6" y="128.2" class="st2" width="7.5" height="7.7"/>
<rect x="706.6" y="112.8" class="st2" width="7.5" height="7.7"/>
<rect x="699.1" y="105" class="st2" width="7.5" height="7.7"/>
<rect x="691.6" y="97.3" class="st2" width="7.5" height="7.7"/>
<rect x="684" y="89.6" class="st2" width="7.5" height="7.7"/>
<rect x="676.5" y="81.9" class="st2" width="7.5" height="7.7"/>
<rect x="669" y="74.2" class="st2" width="7.5" height="7.7"/>
<rect x="684" y="74.2" class="st2" width="7.5" height="7.7"/>
<rect x="691.6" y="81.9" class="st2" width="7.5" height="7.7"/>
<rect x="699.1" y="74.2" class="st2" width="7.5" height="7.7"/>
<rect x="706.6" y="81.9" class="st2" width="7.5" height="7.7"/>
<rect x="699.1" y="89.6" class="st2" width="7.5" height="7.7"/>
<rect x="706.6" y="97.3" class="st2" width="7.5" height="7.7"/>
<rect x="714.1" y="74.2" class="st2" width="7.5" height="7.7"/>
<rect x="721.6" y="81.9" class="st2" width="7.5" height="7.7"/>
<rect x="729.2" y="89.6" class="st2" width="7.5" height="7.7"/>
<rect x="721.6" y="97.3" class="st2" width="7.5" height="7.7"/>
<rect x="729.2" y="105" class="st2" width="7.5" height="7.7"/>
<rect x="721.6" y="112.8" class="st2" width="7.5" height="7.7"/>
<rect x="729.2" y="120.5" class="st2" width="7.5" height="7.7"/>
<rect x="714.1" y="89.6" class="st2" width="7.5" height="7.7"/>
<rect x="714.1" y="105" class="st2" width="7.5" height="7.7"/>
<rect x="714.1" y="120.5" class="st2" width="7.5" height="7.7"/>
<rect x="736.7" y="112.8" class="st2" width="7.5" height="7.7"/>
<rect x="744.2" y="120.5" class="st2" width="7.5" height="7.7"/>
<rect x="736.7" y="97.3" class="st2" width="7.5" height="7.7"/>
<rect x="744.2" y="105" class="st2" width="7.5" height="7.7"/>
<rect x="751.7" y="112.8" class="st2" width="7.5" height="7.7"/>
<rect x="721.6" y="128.2" class="st2" width="7.5" height="7.7"/>
<rect x="736.7" y="128.2" class="st2" width="7.5" height="7.7"/>
<rect x="751.7" y="128.2" class="st2" width="7.5" height="7.7"/>
<rect x="759.2" y="120.5" class="st2" width="7.5" height="7.7"/>
<rect x="766.8" y="128.2" class="st2" width="7.5" height="7.7"/>
<rect x="766.8" y="112.8" class="st2" width="7.5" height="7.7"/>
<rect x="759.2" y="105" class="st2" width="7.5" height="7.7"/>
<rect x="751.7" y="97.3" class="st2" width="7.5" height="7.7"/>
<rect x="744.2" y="89.6" class="st2" width="7.5" height="7.7"/>
<rect x="736.7" y="81.9" class="st2" width="7.5" height="7.7"/>
<rect x="729.2" y="74.2" class="st2" width="7.5" height="7.7"/>
<rect x="744.2" y="74.2" class="st2" width="7.5" height="7.7"/>
<rect x="751.7" y="81.9" class="st2" width="7.5" height="7.7"/>
<rect x="759.2" y="74.2" class="st2" width="7.5" height="7.7"/>
<rect x="766.8" y="81.9" class="st2" width="7.5" height="7.7"/>
<rect x="759.2" y="89.6" class="st2" width="7.5" height="7.7"/>
<rect x="766.8" y="97.3" class="st2" width="7.5" height="7.7"/>
<rect x="774.3" y="74.2" class="st2" width="7.5" height="7.7"/>
<rect x="781.8" y="81.9" class="st2" width="7.5" height="7.7"/>
<rect x="789.3" y="89.6" class="st2" width="7.5" height="7.7"/>
<rect x="781.8" y="97.3" class="st2" width="7.5" height="7.7"/>
<rect x="789.3" y="105" class="st2" width="7.5" height="7.7"/>
<rect x="781.8" y="112.8" class="st2" width="7.5" height="7.7"/>
<rect x="789.3" y="120.5" class="st2" width="7.5" height="7.7"/>
<rect x="774.3" y="89.6" class="st2" width="7.5" height="7.7"/>
<rect x="774.3" y="105" class="st2" width="7.5" height="7.7"/>
<rect x="774.3" y="120.5" class="st2" width="7.5" height="7.7"/>
<rect x="796.8" y="112.8" class="st2" width="7.5" height="7.7"/>
<rect x="804.4" y="120.5" class="st2" width="7.5" height="7.7"/>
<rect x="796.8" y="97.3" class="st2" width="7.5" height="7.7"/>
<rect x="804.4" y="105" class="st2" width="7.5" height="7.7"/>
<rect x="811.9" y="112.8" class="st2" width="7.5" height="7.7"/>
<rect x="781.8" y="128.2" class="st2" width="7.5" height="7.7"/>
<rect x="796.8" y="128.2" class="st2" width="7.5" height="7.7"/>
<rect x="811.9" y="128.2" class="st2" width="7.5" height="7.7"/>
<rect x="819.4" y="120.5" class="st2" width="7.5" height="7.7"/>
<rect x="826.9" y="128.2" class="st2" width="7.5" height="7.7"/>
<rect x="826.9" y="112.8" class="st2" width="7.5" height="7.7"/>
<rect x="819.4" y="105" class="st2" width="7.5" height="7.7"/>
<rect x="811.9" y="97.3" class="st2" width="7.5" height="7.7"/>
<rect x="804.4" y="89.6" class="st2" width="7.5" height="7.7"/>
<rect x="796.8" y="81.9" class="st2" width="7.5" height="7.7"/>
<rect x="789.3" y="74.2" class="st2" width="7.5" height="7.7"/>
<rect x="804.4" y="74.2" class="st2" width="7.5" height="7.7"/>
<rect x="811.9" y="81.9" class="st2" width="7.5" height="7.7"/>
<rect x="819.4" y="74.2" class="st2" width="7.5" height="7.7"/>
<rect x="826.9" y="81.9" class="st2" width="7.5" height="7.7"/>
<rect x="819.4" y="89.6" class="st2" width="7.5" height="7.7"/>
<rect x="826.9" y="97.3" class="st2" width="7.5" height="7.7"/>
<rect x="834.4" y="89.6" class="st2" width="7.5" height="7.7"/>
<rect x="834.4" y="105" class="st2" width="7.5" height="7.7"/>
<rect x="834.4" y="120.5" class="st2" width="7.5" height="7.7"/>
<rect x="842" y="112.8" class="st2" width="7.5" height="7.7"/>
<rect x="849.5" y="120.5" class="st2" width="7.5" height="7.7"/>
<rect x="842" y="97.3" class="st2" width="7.5" height="7.7"/>
<rect x="849.5" y="105" class="st2" width="7.5" height="7.7"/>
<rect x="857" y="112.8" class="st2" width="7.5" height="7.7"/>
<rect x="842" y="128.2" class="st2" width="7.5" height="7.7"/>
<rect x="857" y="128.2" class="st2" width="7.5" height="7.7"/>
<rect x="864.5" y="120.5" class="st2" width="7.5" height="7.7"/>
<rect x="864.5" y="105" class="st2" width="7.5" height="7.7"/>
<rect x="857" y="97.3" class="st2" width="7.5" height="7.7"/>
<rect x="849.5" y="89.6" class="st2" width="7.5" height="7.7"/>
<rect x="842" y="81.9" class="st2" width="7.5" height="7.7"/>
<rect x="834.4" y="74.2" class="st2" width="7.5" height="7.7"/>
<rect x="849.5" y="74.2" class="st2" width="7.5" height="7.7"/>
<rect x="857" y="81.9" class="st2" width="7.5" height="7.7"/>
<rect x="864.5" y="74.2" class="st2" width="7.5" height="7.7"/>
<rect x="864.5" y="89.6" class="st2" width="7.5" height="7.7"/>
<rect x="548.7" y="135.9" class="st2" width="7.5" height="7.7"/>
<rect x="563.7" y="135.9" class="st2" width="7.5" height="7.7"/>
<rect x="578.7" y="135.9" class="st2" width="7.5" height="7.7"/>
<rect x="608.8" y="135.9" class="st2" width="7.5" height="7.7"/>
<rect x="593.8" y="135.9" class="st2" width="7.5" height="7.7"/>
<rect x="623.9" y="135.9" class="st2" width="7.5" height="7.7"/>
<rect x="638.9" y="135.9" class="st2" width="7.5" height="7.7"/>
<rect x="669" y="135.9" class="st2" width="7.5" height="7.7"/>
<rect x="654" y="135.9" class="st2" width="7.5" height="7.7"/>
<rect x="684" y="135.9" class="st2" width="7.5" height="7.7"/>
<rect x="699.1" y="135.9" class="st2" width="7.5" height="7.7"/>
<rect x="729.2" y="135.9" class="st2" width="7.5" height="7.7"/>
<rect x="714.1" y="135.9" class="st2" width="7.5" height="7.7"/>
<rect x="744.2" y="135.9" class="st2" width="7.5" height="7.7"/>
<rect x="759.2" y="135.9" class="st2" width="7.5" height="7.7"/>
<rect x="789.3" y="135.9" class="st2" width="7.5" height="7.7"/>
<rect x="774.3" y="135.9" class="st2" width="7.5" height="7.7"/>
<rect x="804.4" y="135.9" class="st2" width="7.5" height="7.7"/>
<rect x="819.4" y="135.9" class="st2" width="7.5" height="7.7"/>
<rect x="834.4" y="135.9" class="st2" width="7.5" height="7.7"/>
<rect x="849.5" y="135.9" class="st2" width="7.5" height="7.7"/>
<rect x="864.5" y="135.9" class="st2" width="7.5" height="7.7"/>
<polygon class="st5" points="575.3,72.9 538.5,144.9 0,144.7 0.1,73.1 "/>
<g class="st3">
	<g>
		<polygon class="st12" points="697.1,59.8 649.1,59.8 680.8,48.1 728.8,48.1 		"/>
		<polygon class="st12" points="756,59.8 708.1,59.8 739.8,48.1 787.7,48.1 		"/>
		<polygon class="st12" points="814.9,59.8 767,59.8 798.7,48.1 846.7,48.1 		"/>
		<polygon class="st12" points="736.9,44.8 689,44.8 720.7,33 768.6,33 		"/>
		<polygon class="st12" points="795.8,44.8 747.9,44.8 779.6,33 827.6,33 		"/>
		<polygon class="st12" points="871.6,33 838.6,33 806.8,44.8 854.8,44.8 871.6,38.5 		"/>
		<polygon class="st12" points="782.6,72 806.8,63 758.9,63 734.6,72 		"/>
		<polygon class="st12" points="723.6,72 747.9,63 699.9,63 675.7,72 		"/>
		<polygon class="st12" points="664.7,72 689,63 641,63 616.8,72 		"/>
	</g>
	<g>
		<polygon class="st0" points="700.1,52.5 638.3,52.5 679.2,36.8 741,36.8 		"/>
		<polygon class="st0" points="779.1,52.5 717.3,52.5 758.2,36.8 820,36.8 		"/>
		<polygon class="st0" points="749.2,33.4 687.4,33.4 728.3,17.6 790.1,17.6 		"/>
		<polygon class="st0" points="828.3,33.4 766.5,33.4 807.4,17.6 869.2,17.6 		"/>
	</g>
	<polygon class="st6" points="765.3,28.3 673.8,28.3 734.3,5 825.8,5 	"/>
</g>
<g class="st3">
	<g>
		<polygon class="st4" points="697.1,133.1 649.1,133.1 680.8,121.5 728.8,121.5 		"/>
		<polygon class="st4" points="756,133.1 708.1,133.1 739.8,121.5 787.7,121.5 		"/>
		<polygon class="st4" points="814.9,133.1 767,133.1 798.7,121.5 846.7,121.5 		"/>
		<polygon class="st4" points="736.9,118.1 689,118.1 720.7,106.4 768.6,106.4 		"/>
		<polygon class="st4" points="795.8,118.1 747.9,118.1 779.6,106.4 827.6,106.4 		"/>
		<polygon class="st4" points="871.6,106.4 838.6,106.4 806.8,118.1 854.8,118.1 871.6,111.9 		"/>
		<polygon class="st4" points="782.6,145.3 806.8,136.4 758.9,136.4 734.6,145.3 		"/>
		<polygon class="st4" points="723.6,145.3 747.9,136.4 699.9,136.4 675.7,145.3 		"/>
		<polygon class="st4" points="664.7,145.3 689,136.4 641,136.4 616.8,145.3 		"/>
	</g>
	<g>
		<polygon class="st7" points="700.1,125.9 638.3,125.9 679.2,110.2 741,110.2 		"/>
		<polygon class="st7" points="779.1,125.9 717.3,125.9 758.2,110.2 820,110.2 		"/>
		<polygon class="st7" points="749.2,106.8 687.4,106.8 728.3,91 790.1,91 		"/>
		<polygon class="st7" points="828.3,106.8 766.5,106.8 807.4,91 869.2,91 		"/>
	</g>
	<polygon class="st11" points="765.3,101.7 673.8,101.7 734.3,78.4 825.8,78.4 	"/>
</g>
</svg>
