<?xml version="1.0" encoding="utf-8"?>
<!-- Generator: Adobe Illustrator 15.1.0, SVG Export Plug-In . SVG Version: 6.00 Build 0)  -->
<!DOCTYPE svg PUBLIC "-//W3C//DTD SVG 1.1//EN" "http://www.w3.org/Graphics/SVG/1.1/DTD/svg11.dtd">
<svg version="1.1" id="Calque_1" xmlns="http://www.w3.org/2000/svg" xmlns:xlink="http://www.w3.org/1999/xlink" x="0px" y="0px"
	 width="1258.5px" height="288.5px" viewBox="0 0 1258.5 288.5" enable-background="new 0 0 1258.5 288.5" xml:space="preserve">
<path fill="#9CCC8F" d="M0-0.6h1258.5v72H0V-0.6z"/>
<path fill="#FFFFFF" fill-opacity="0.25" stroke="#7DBD6B" d="M584.4-0.6L547.6,71.2L0,71.4v-72H584.4z"/>
<g enable-background="new    ">
	<path fill="#696969" d="M653.2,33.6v-8.8H624.6l-4.8-6.9h-20.5V64h53.9"/>
	<path fill="#51674A" d="M656.9,21.9H652c-0.3-0.9-0.7-1.8-1.2-2.7l3.3-3.3c0.801-0.8,0.801-2,0-2.8l-1.399-1.4
		c-0.8-0.8-2-0.8-2.8,0L646.6,15c-0.899-0.5-1.899-0.9-2.899-1.2V9.6c0-1.1-0.9-2-2-2h-2c-1.101,0-2,0.9-2,2v4.3
		c-1.101,0.3-2.2,0.7-3.2,1.3l-2.8-2.8c-0.8-0.8-2-0.8-2.8,0l-1.4,1.4c-0.8,0.8-0.8,2,0,2.8l2.8,2.8c-0.6,1-1,2.2-1.3,3.4h-3.7
		c-1.1,0-2,0.9-2,2v2c0,1.1,0.9,2,2,2h3.9c0.399,1.2,0.899,2.3,1.6,3.3l-2.7,2.7c-0.8,0.8-0.8,2,0,2.8l1.4,1.4c0.8,0.8,2,0.8,2.8,0
		l3-3c1,0.5,2.101,0.9,3.2,1v4c0,1.1,0.9,2,2,2h2c1.1,0,2-0.9,2-2v-4.6c1-0.4,1.9-0.8,2.8-1.4l3.2,3.2c0.8,0.8,2,0.8,2.8,0l1.4-1.4
		c0.8-0.8,0.8-2,0-2.8l-3.5-3.5c0.399-0.9,0.8-1.8,1-2.7h4.7c1.1,0,2-0.9,2-2v-2C658.9,22.8,658,21.9,656.9,21.9L656.9,21.9z
		 M640.8,30.2c-2.7,0-4.899-2.2-4.899-4.9c0-2.7,2.199-4.9,4.899-4.9s4.9,2.2,4.9,4.9C645.7,28,643.5,30.2,640.8,30.2z M672.5,12.3
		l-2.3,0.4c-0.2-0.4-0.5-0.8-0.8-1.1l1.199-1.8c0.301-0.4,0.2-1-0.199-1.3L669.7,8c-0.4-0.3-1-0.2-1.3,0.2L667.1,10
		c-0.5-0.2-1-0.3-1.5-0.3l-0.399-2C665.1,7.2,664.6,6.9,664.1,6.9L663.2,7.1c-0.5,0.1-0.8,0.6-0.8,1.1l0.399,2
		c-0.5,0.2-1,0.5-1.399,0.9l-1.5-1.1c-0.4-0.3-1-0.2-1.301,0.2l-0.5,0.8c-0.3,0.4-0.199,1,0.2,1.3l1.601,1.1
		c-0.2,0.5-0.301,1.1-0.301,1.7l-1.699,0.3c-0.5,0.1-0.801,0.6-0.801,1.1l0.2,0.9c0.101,0.5,0.601,0.8,1.101,0.8l1.8-0.3
		c0.3,0.5,0.6,1,1,1.4l-1,1.5c-0.3,0.4-0.2,1,0.2,1.3l0.8,0.5c0.399,0.3,1,0.2,1.3-0.2l1.1-1.6c0.5,0.1,1.101,0.2,1.601,0.2
		l0.399,1.9c0.101,0.5,0.601,0.8,1.101,0.8l0.899-0.2c0.5-0.1,0.801-0.6,0.801-1.1l-0.4-2.2c0.4-0.2,0.8-0.5,1.2-0.9l1.8,1.2
		c0.4,0.3,1,0.2,1.3-0.2l0.5-0.8c0.3-0.4,0.2-1-0.2-1.3l-1.899-1.3c0.1-0.4,0.2-0.9,0.2-1.4l2.199-0.4c0.5-0.1,0.801-0.6,0.801-1.1
		l-0.2-0.9C673.5,12.6,673,12.2,672.5,12.3L672.5,12.3z M665.6,17.6c-1.3,0.2-2.5-0.6-2.699-1.9c-0.2-1.3,0.6-2.5,1.899-2.7
		s2.5,0.6,2.7,1.9C667.8,16.2,666.9,17.4,665.6,17.6z M699.6,16.6l-3.399-0.3c-0.101-0.7-0.4-1.3-0.7-1.9l2.5-2
		c0.6-0.5,0.7-1.3,0.2-1.9l-0.9-1c-0.5-0.6-1.3-0.7-1.899-0.2l-2.5,2.1c-0.601-0.4-1.2-0.8-1.9-1l0.3-3c0.1-0.8-0.5-1.4-1.2-1.5
		L688.7,5.8c-0.7-0.1-1.4,0.5-1.5,1.2l-0.301,3c-0.8,0.1-1.6,0.4-2.3,0.7L683,8.4c-0.5-0.6-1.3-0.7-1.9-0.2L680,9.1
		c-0.6,0.5-0.7,1.3-0.2,1.9l1.8,2.1c-0.5,0.7-0.899,1.4-1.1,2.2L678,15c-0.8-0.1-1.4,0.5-1.5,1.2l-0.1,1.4
		c-0.101,0.7,0.5,1.4,1.199,1.5l2.7,0.3c0.2,0.8,0.5,1.6,0.9,2.4l-2,1.6c-0.601,0.5-0.7,1.3-0.2,1.9l0.9,1.1
		c0.5,0.6,1.3,0.7,1.899,0.2l2.3-1.9c0.7,0.4,1.4,0.7,2.2,1l-0.3,2.8c-0.1,0.8,0.5,1.4,1.2,1.5l1.3,0.1c0.8,0.1,1.4-0.5,1.5-1.2
		l0.3-3.2c0.7-0.2,1.4-0.4,2-0.8l2,2.4c0.5,0.6,1.3,0.7,1.9,0.2l1-0.9c0.6-0.5,0.7-1.3,0.2-1.9l-2.2-2.6c0.4-0.6,0.7-1.2,0.9-1.8
		l3.199,0.3c0.801,0.1,1.4-0.5,1.5-1.2L700.9,18C700.9,17.4,700.4,16.7,699.6,16.6L699.6,16.6z M687.9,21.2c-1.9-0.2-3.2-1.9-3-3.7
		c0.199-1.9,1.899-3.2,3.699-3c1.801,0.2,3.2,1.9,3,3.7C691.4,20.1,689.8,21.4,687.9,21.2z"/>
	<path fill="#868686" d="M608,31.6l-8.7,32.8h54l8.5-32.8H608z"/>
</g>
<path fill="#4D4D4D" d="M0,72.3h1258.5v72H0V72.3z"/>
<path fill="#5B5B5B" d="M586.4,73L549.6,143.6H2V73H586.4z"/>
<g enable-background="new    ">
	<path fill="#696969" d="M655.2,107.5v-8.9H626.6l-4.8-6.8h-20.5v46h53.9"/>
	<path fill="#282828" d="M658.9,95.7H654c-0.3-0.9-0.7-1.8-1.2-2.7l3.3-3.3c0.801-0.8,0.801-2,0-2.8l-1.399-1.4
		c-0.8-0.8-2-0.8-2.8,0l-3.301,3.3c-0.899-0.5-1.899-0.9-2.899-1.2v-4.3c0-1.1-0.9-2-2-2h-2c-1.101,0-2,0.9-2,2v4.3
		c-1.101,0.3-2.2,0.7-3.2,1.3l-2.8-2.8c-0.8-0.8-2-0.8-2.8,0l-1.4,1.4c-0.8,0.8-0.8,2,0,2.8l2.8,2.8c-0.6,1-1,2.2-1.3,3.4h-3.7
		c-1.1,0-2,0.9-2,2v2c0,1.1,0.9,1.9,2,1.9h3.9c0.399,1.2,0.899,2.3,1.6,3.3l-2.7,2.7c-0.8,0.8-0.8,2,0,2.8l1.4,1.4
		c0.8,0.8,2,0.8,2.8,0l3-3c1,0.5,2.101,0.9,3.2,1.1v4.1c0,1.1,0.9,2,2,2h2c1.1,0,2-0.9,2-2v-4.6c1-0.4,1.9-0.8,2.8-1.4l3.2,3.2
		c0.8,0.8,2,0.8,2.8,0l1.4-1.4c0.8-0.8,0.8-2,0-2.8l-3.5-3.5c0.399-0.9,0.8-1.8,1-2.7h4.7c1.1,0,2-0.9,2-2v-2
		C660.9,96.6,660,95.7,658.9,95.7L658.9,95.7z M642.8,104c-2.7,0-4.899-2.2-4.899-4.9c0-2.7,2.199-4.9,4.899-4.9s4.9,2.2,4.9,4.9
		C647.7,101.9,645.5,104,642.8,104z M674.5,86.2l-2.3,0.4c-0.2-0.4-0.5-0.8-0.8-1.1l1.199-1.8c0.301-0.4,0.2-1-0.199-1.3l-0.801-0.5
		c-0.399-0.3-1-0.2-1.3,0.2l-1.3,1.8c-0.5-0.2-1-0.3-1.5-0.3l-0.4-2c-0.1-0.5-0.6-0.8-1.1-0.8l-0.9,0.2c-0.5,0.1-0.8,0.6-0.8,1.1
		l0.4,2c-0.5,0.2-1,0.5-1.4,0.9l-1.3-1.1c-0.4-0.3-1-0.2-1.3,0.2l-0.5,0.8c-0.3,0.4-0.2,1,0.2,1.3l1.6,1.1c-0.2,0.5-0.3,1.1-0.3,1.7
		l-1.7,0.3c-0.5,0.1-0.8,0.6-0.8,1.1l0.2,0.9c0.1,0.5,0.6,0.8,1.1,0.8l1.8-0.3c0.3,0.5,0.601,1,1,1.4l-1,1.5c-0.3,0.4-0.2,1,0.2,1.3
		l0.8,0.5c0.4,0.3,1,0.2,1.3-0.2l1.101-1.6c0.5,0.1,1.1,0.2,1.6,0.2l0.4,1.9c0.1,0.5,0.6,0.8,1.1,0.8l0.9-0.2
		c0.5-0.1,0.8-0.6,0.8-1.1l-0.4-2.2c0.4-0.2,0.801-0.6,1.2-0.9l1.8,1.2c0.4,0.3,1,0.2,1.301-0.2l0.5-0.8c0.3-0.4,0.199-1-0.2-1.3
		l-1.9-1.3c0.101-0.4,0.2-0.9,0.2-1.4l2-0.5c0.5-0.1,0.8-0.6,0.8-1.1l-0.2-0.9C675.5,86.4,675,86.1,674.5,86.2L674.5,86.2z
		 M667.6,91.5c-1.3,0.2-2.5-0.6-2.699-1.9c-0.2-1.3,0.6-2.5,1.899-2.7c1.3-0.2,2.5,0.6,2.7,1.9C669.8,90,668.9,91.3,667.6,91.5z
		 M701.6,90.5l-3.399-0.3c-0.101-0.7-0.4-1.3-0.7-1.9l2.5-2c0.6-0.5,0.7-1.3,0.2-1.9l-0.9-1c-0.5-0.6-1.3-0.7-1.899-0.2l-2.5,2.1
		c-0.601-0.4-1.2-0.8-1.9-1l0.3-3c0.1-0.8-0.5-1.4-1.2-1.5l-1.399-0.1c-0.801-0.1-1.4,0.5-1.5,1.2l-0.301,3
		c-0.8,0.1-1.6,0.4-2.3,0.7l-1.6-2.3c-0.5-0.6-1.3-0.7-1.9-0.2l-1.1,0.8c-0.6,0.5-0.7,1.3-0.2,1.9l1.8,2.1
		c-0.5,0.7-0.899,1.4-1.1,2.2l-2.5-0.3c-0.8-0.1-1.4,0.5-1.5,1.2l-0.1,1.4c-0.101,0.7,0.5,1.4,1.199,1.5l2.7,0.3
		c0.2,0.8,0.5,1.6,0.9,2.4l-2,1.7c-0.601,0.5-0.7,1.3-0.2,1.9l0.9,1c0.5,0.6,1.3,0.7,1.899,0.2l2.3-1.8c0.7,0.4,1.4,0.7,2.2,0.9
		l-0.3,2.8c-0.1,0.7,0.5,1.4,1.2,1.5l1.3,0.1c0.8,0.1,1.4-0.5,1.5-1.2l0.3-3.2c0.7-0.2,1.4-0.4,2-0.8l2,2.4c0.5,0.6,1.3,0.7,1.9,0.2
		l1-0.9c0.6-0.5,0.7-1.3,0.2-1.9l-2.2-2.6c0.399-0.6,0.7-1.2,0.899-1.8l3.2,0.3c0.8,0.1,1.4-0.5,1.5-1.2l0.101-1.4
		C702.9,91.2,702.4,90.6,701.6,90.5L701.6,90.5z M689.9,95.1c-1.9-0.2-3.2-1.9-3-3.7c0.199-1.9,1.899-3.2,3.699-3
		c1.801,0.2,3.2,1.9,3,3.7C693.4,93.9,691.8,95.3,689.9,95.1z"/>
	<path fill="#C6C6C5" d="M610,105.5l-8.7,32.8h54l8.5-32.8H610z"/>
	<path fill="#868686" d="M610,105.5l-8.7,32.8h54l8.5-32.8H610z"/>
</g>
<path fill="#9CCC8F" d="M1.443,144.3H1258.5v72H1.443V144.3z"/>
<path fill="#FFFFFF" fill-opacity="0.25" stroke="#7DBD6B" d="M636.4,144.3L599.6,216.1L1,216.3v-72H636.4z"/>
<path fill="#51674A" d="M719.201,188.2l-6-2.3c0.1-1.301,0-2.601-0.2-3.801l5.5-2.399c1.3-0.601,1.899-2.101,1.3-3.4l-1-2.3
	c-0.6-1.3-2.1-1.9-3.4-1.3l-5.6,2.399c-0.8-1-1.8-2-3-2.8l2-5.2c0.5-1.3-0.1-2.8-1.5-3.3l-2.4-0.899c-1.3-0.5-2.8,0.1-3.3,1.5
	l-2,5.199c-1.5-0.199-3-0.1-4.399,0.101l-2.101-4.601c-0.6-1.3-2.1-1.899-3.399-1.3l-2.301,1c-1.3,0.601-1.899,2.101-1.3,3.4
	l2.101,4.7c-1.2,1-2.301,2.199-3.2,3.5l-4.5-1.7c-1.3-0.5-2.8,0.2-3.3,1.5l-0.9,2.399c-0.5,1.301,0.2,2.801,1.5,3.301l4.8,1.8
	c-0.1,1.6,0,3.2,0.4,4.7l-4.5,2c-1.3,0.6-1.9,2.1-1.3,3.399l1,2.3c0.6,1.301,2.1,1.9,3.399,1.301l5-2.2c1,1.1,2.101,2,3.4,2.8
	l-1.9,5c-0.5,1.3,0.2,2.8,1.5,3.3l2.4,0.9c1.3,0.5,2.8-0.2,3.3-1.5l2.2-5.601c1.399,0,2.7-0.1,4-0.399l2.399,5.3
	c0.601,1.3,2.101,1.9,3.4,1.3l2.3-1c1.3-0.6,1.9-2.1,1.3-3.399l-2.6-5.801c0.9-0.8,1.7-1.8,2.4-2.899l5.699,2.2
	c1.301,0.5,2.801-0.101,3.301-1.5l0.899-2.4C721.101,190.2,720.501,188.7,719.201,188.2L719.201,188.2z M695.701,190.7
	c-3.301-1.3-4.9-4.9-3.601-8.2s4.9-4.9,8.2-3.6c3.3,1.3,4.9,4.899,3.7,8.199C702.601,190.4,699.001,192,695.701,190.7L695.701,190.7
	z M679.701,167.9l-3.4-1.301c0-0.699,0-1.5-0.1-2.199l3.199-1.4c0.7-0.3,1.101-1.2,0.7-1.9l-0.6-1.3c-0.3-0.7-1.2-1.1-1.9-0.7
	l-3.2,1.4c-0.5-0.6-1.1-1.1-1.699-1.6l1.199-3c0.301-0.801-0.1-1.601-0.8-1.9l-1.399-0.5c-0.801-0.3-1.601,0.1-1.9,0.8l-1.2,3
	c-0.899-0.1-1.7-0.1-2.5,0.101l-1.3-2.7c-0.3-0.7-1.2-1.101-1.9-0.7l-1.3,0.6c-0.7,0.301-1.1,1.2-0.7,1.9l1.2,2.7
	c-0.7,0.6-1.3,1.2-1.8,2l-2.6-1c-0.801-0.3-1.601,0.1-1.9,0.8l-0.5,1.4c-0.3,0.8,0.1,1.6,0.8,1.899l2.7,1.101
	c-0.1,0.899,0,1.8,0.2,2.699L656.4,169.2c-0.699,0.3-1.1,1.2-0.8,1.899l0.601,1.301c0.3,0.699,1.199,1.1,1.899,0.699l2.9-1.3
	c0.6,0.601,1.2,1.2,2,1.601L661.9,176.3c-0.3,0.8,0.101,1.601,0.801,1.9l1.399,0.5c0.8,0.3,1.601-0.101,1.9-0.8l1.2-3.2
	c0.8,0,1.6,0,2.3-0.2l1.3,3c0.3,0.7,1.2,1.1,1.9,0.7l1.3-0.601c0.7-0.3,1.1-1.199,0.7-1.899l-1.5-3.3c0.5-0.5,1-1,1.399-1.601
	l3.2,1.2c0.8,0.3,1.601-0.1,1.9-0.8l0.5-1.4C680.901,169.1,680.501,168.2,679.701,167.9L679.701,167.9z M666.301,169.4
	c-1.9-0.7-2.8-2.801-2.1-4.7c0.699-1.9,2.8-2.8,4.699-2.101c1.9,0.7,2.801,2.801,2.101,4.7
	C670.301,169.2,668.101,170.1,666.301,169.4z"/>
<path fill="#4D4D4D" d="M0,216.3h1258.5v72H0V216.3z"/>
<path fill="#5B5B5B" d="M637.4,217L600.6,287.6H1V217H637.4z"/>
<path fill="#282828" d="M716.001,259.3l-5.3-2c0.1-1.1,0-2.3-0.2-3.399l4.899-2.2c1.101-0.5,1.7-1.8,1.2-3l-0.899-2.101
	c-0.5-1.1-1.801-1.6-3-1.1l-4.9,2.2c-0.8-0.9-1.6-1.8-2.6-2.5l1.8-4.601c0.5-1.199-0.101-2.5-1.3-2.899l-2.101-0.8
	c-1.2-0.5-2.5,0.1-2.899,1.3l-1.801,4.6c-1.3-0.2-2.6-0.1-3.899,0.101l-1.8-4.101c-0.5-1.1-1.801-1.6-3-1.1l-2.101,0.899
	c-1.1,0.5-1.6,1.9-1.1,3l1.899,4.2c-1.1,0.9-2,1.9-2.8,3.101l-4-1.5c-1.2-0.5-2.5,0.1-2.899,1.3l-0.801,2.1
	c-0.5,1.2,0.101,2.5,1.301,2.9l4.199,1.6c-0.1,1.4,0,2.8,0.301,4.2l-4,1.8c-1.101,0.5-1.7,1.9-1.2,3l0.899,2.101
	c0.5,1.1,1.9,1.699,3,1.1l4.4-2c0.9,0.9,1.9,1.8,3,2.5l-1.7,4.4c-0.5,1.199,0.101,2.5,1.3,2.899l2.101,0.8
	c1.2,0.4,2.5-0.1,2.899-1.3l1.9-5c1.2,0,2.4-0.1,3.6-0.399l2.101,4.699c0.5,1.101,1.8,1.7,3,1.2l2.1-0.899
	c1.101-0.5,1.7-1.801,1.101-3l-2.301-5.2c0.801-0.8,1.5-1.601,2.2-2.601l5,1.9c1.2,0.5,2.5-0.1,2.9-1.3l0.8-2.101
	C717.801,261.1,717.201,259.8,716.001,259.3L716.001,259.3z M695.201,261.6c-2.9-1.1-4.4-4.399-3.2-7.3
	c1.1-2.899,4.399-4.399,7.3-3.2c2.9,1.101,4.4,4.4,3.2,7.301C701.301,261.3,698.101,262.7,695.201,261.6z M681.001,241.4l-3-1.2
	c0-0.601,0-1.3-0.101-1.9l2.801-1.2c0.699-0.3,1-1,0.699-1.699l-0.5-1.2c-0.3-0.7-1.1-1-1.699-0.7l-2.801,1.3
	c-0.399-0.5-0.899-1-1.5-1.399l1-2.7c0.301-0.7-0.1-1.4-0.699-1.7l-1.2-0.5c-0.7-0.3-1.4,0.1-1.7,0.8l-1,2.7
	c-0.8-0.1-1.5-0.1-2.3,0.1L667.9,229.7c-0.3-0.601-1.1-1-1.699-0.7l-1.2,0.5c-0.7,0.3-0.9,1.1-0.7,1.7l1.1,2.399
	c-0.6,0.5-1.199,1.101-1.6,1.801l-2.3-0.9c-0.7-0.3-1.4,0.1-1.7,0.8l-0.5,1.2c-0.3,0.7,0.1,1.4,0.8,1.7l2.4,0.899
	c-0.101,0.801,0,1.601,0.2,2.4l-2.301,1c-0.699,0.3-1,1.1-0.699,1.7l0.5,1.2c0.3,0.6,1.1,0.899,1.699,0.699l2.5-1.1
	c0.5,0.5,1.101,1,1.801,1.4l-1,2.5c-0.301,0.699,0.1,1.399,0.8,1.699l1.2,0.5c0.699,0.2,1.399-0.1,1.699-0.8l1.101-2.899
	c0.7,0,1.399,0,2.1-0.2l1.2,2.7c0.3,0.6,1.1,0.899,1.7,0.699l1.2-0.5c0.699-0.3,1-1.1,0.699-1.699l-1.3-3c0.5-0.4,0.9-0.9,1.2-1.5
	l2.9,1.1c0.699,0.3,1.399-0.1,1.699-0.8l0.5-1.2C682.001,242.4,681.701,241.6,681.001,241.4L681.001,241.4z M669.001,242.7
	c-1.7-0.601-2.5-2.5-1.9-4.2c0.601-1.7,2.5-2.5,4.2-1.9c1.7,0.601,2.5,2.5,1.9,4.2C672.601,242.5,670.701,243.3,669.001,242.7z"/>
</svg>
