<?xml version="1.0" encoding="utf-8"?>
<!DOCTYPE svg PUBLIC "-//W3C//DTD SVG 1.1//EN" "http://www.w3.org/Graphics/SVG/1.1/DTD/svg11.dtd">
<svg version="1.1" id="Calque_1" xmlns="http://www.w3.org/2000/svg" xmlns:xlink="http://www.w3.org/1999/xlink" x="0px" y="0px"
	 width="872px" height="72px" viewBox="0 0 872 72" enable-background="new 0 0 872 72" xml:space="preserve">
<rect y="-0.58" fill="#9CCC8F" width="871" height="72"/>
<polygon fill="#FFFFFF" fill-opacity="0.25" stroke="#7DBD6B" points="584.41,-0.58 547.61,71.17 -0.01,71.42 0.01,-0.58 "/>
<g opacity="0.49" enable-background="new    ">
	<g>
		<polygon fill="#1D1D1B" points="707.56,62.47 660.17,62.47 667.78,33.65 710.2,33.65 710.2,24.77 681.64,24.77 676.84,17.9 
			656.35,17.9 656.35,63.95 710.2,63.95 710.2,52.32 		"/>
		<g>
			<g>
				<path fill="#000100" d="M713.93,21.87h-4.91c-0.29-0.94-0.7-1.83-1.2-2.66l3.26-3.27c0.77-0.76,0.77-2,0-2.77l-1.39-1.38
					c-0.76-0.77-2.01-0.76-2.77,0l-3.32,3.31c-0.89-0.51-1.86-0.91-2.9-1.17V9.62c0-1.08-0.87-1.96-1.96-1.96h-1.96
					c-1.08,0-1.96,0.88-1.96,1.96v4.31c-1.13,0.28-2.18,0.73-3.15,1.32l-2.77-2.77c-0.76-0.76-2.01-0.77-2.77,0l-1.39,1.38
					c-0.76,0.76-0.75,2.01,0,2.78l2.83,2.82c-0.6,1.04-1.04,2.18-1.3,3.38h-3.69c-1.08,0-1.96,0.88-1.96,1.96v1.96
					c0,1.08,0.88,1.96,1.96,1.96h3.94c0.36,1.18,0.9,2.27,1.58,3.26l-2.66,2.66c-0.77,0.77-0.77,2.01-0.01,2.77l1.39,1.38
					c0.77,0.76,2.01,0.76,2.78,0l2.98-2.98c1,0.5,2.09,0.86,3.23,1.05v4.1c0,1.08,0.88,1.96,1.96,1.96h1.96
					c1.08,0,1.96-0.88,1.96-1.96v-4.61c0.99-0.35,1.92-0.81,2.77-1.41l3.16,3.16c0.77,0.76,2,0.76,2.77,0l1.38-1.39
					c0.77-0.76,0.77-2-0.01-2.77l-3.46-3.47c0.42-0.86,0.75-1.77,0.96-2.74h4.66c1.09,0,1.96-0.87,1.96-1.96v-1.96
					C715.89,22.75,715.01,21.87,713.93,21.87z M697.77,30.19c-2.7,0-4.9-2.19-4.9-4.9c0-2.71,2.19-4.89,4.9-4.89
					c2.71,0,4.9,2.19,4.9,4.89C702.67,28.01,700.48,30.19,697.77,30.19z"/>
			</g>
		</g>
		<g>
			<g>
				<path fill="#000100" d="M729.5,12.34l-2.3,0.42c-0.22-0.42-0.49-0.8-0.79-1.14l1.25-1.81c0.3-0.42,0.19-1.01-0.24-1.3
					l-0.77-0.53c-0.42-0.29-1.01-0.19-1.3,0.24l-1.27,1.84c-0.46-0.16-0.95-0.27-1.46-0.3l-0.37-2.02c-0.09-0.5-0.58-0.84-1.09-0.75
					l-0.92,0.17c-0.51,0.09-0.84,0.58-0.75,1.08l0.37,2.02c-0.5,0.23-0.96,0.53-1.36,0.89l-1.54-1.06c-0.42-0.29-1.01-0.19-1.3,0.24
					l-0.53,0.77c-0.29,0.42-0.18,1.01,0.24,1.3l1.57,1.08c-0.19,0.54-0.3,1.11-0.32,1.7l-1.73,0.31c-0.51,0.09-0.84,0.58-0.75,1.09
					l0.17,0.92c0.09,0.51,0.58,0.84,1.09,0.75l1.85-0.34c0.27,0.52,0.61,0.98,1.02,1.39l-1.02,1.48c-0.29,0.43-0.19,1.01,0.23,1.3
					l0.77,0.53c0.43,0.29,1.01,0.18,1.3-0.24l1.14-1.65c0.52,0.15,1.06,0.23,1.61,0.21l0.35,1.92c0.09,0.51,0.58,0.84,1.09,0.75
					l0.92-0.17c0.51-0.09,0.85-0.58,0.75-1.08l-0.4-2.16c0.43-0.25,0.83-0.55,1.18-0.9l1.75,1.21c0.42,0.29,1.01,0.19,1.3-0.24
					l0.53-0.77c0.29-0.42,0.19-1-0.24-1.3l-1.91-1.33c0.12-0.44,0.2-0.9,0.21-1.37l2.19-0.4c0.51-0.09,0.84-0.58,0.75-1.09
					l-0.17-0.92C730.5,12.58,730.01,12.25,729.5,12.34z M722.64,17.62c-1.27,0.23-2.48-0.6-2.72-1.88
					c-0.23-1.27,0.61-2.48,1.88-2.71c1.27-0.23,2.48,0.6,2.71,1.87C724.75,16.18,723.91,17.39,722.64,17.62z"/>
			</g>
		</g>
		<g>
			<g>
				<path fill="#000100" d="M756.63,16.62l-3.4-0.34c-0.14-0.67-0.36-1.32-0.65-1.92l2.48-2.03c0.58-0.47,0.67-1.33,0.19-1.91
					l-0.86-1.05c-0.47-0.58-1.33-0.66-1.91-0.19l-2.53,2.06c-0.58-0.42-1.22-0.76-1.92-1.01l0.3-2.98c0.08-0.75-0.46-1.41-1.21-1.49
					l-1.35-0.14c-0.74-0.08-1.41,0.47-1.49,1.22l-0.3,2.98c-0.8,0.12-1.56,0.35-2.27,0.69l-1.72-2.11
					c-0.47-0.58-1.33-0.67-1.92-0.19l-1.06,0.86c-0.58,0.47-0.66,1.34-0.19,1.92l1.75,2.15c-0.49,0.68-0.87,1.43-1.14,2.24
					l-2.55-0.26c-0.75-0.08-1.42,0.47-1.49,1.22l-0.14,1.35c-0.08,0.74,0.47,1.41,1.22,1.49l2.72,0.28
					c0.16,0.84,0.46,1.63,0.87,2.37l-2.03,1.65c-0.58,0.48-0.67,1.34-0.2,1.92l0.86,1.05c0.48,0.58,1.34,0.67,1.92,0.19l2.26-1.85
					c0.66,0.41,1.38,0.74,2.16,0.95l-0.29,2.83c-0.08,0.75,0.47,1.41,1.22,1.49l1.35,0.14c0.75,0.07,1.42-0.47,1.49-1.22l0.32-3.18
					c0.71-0.17,1.39-0.43,2.01-0.78l1.96,2.4c0.48,0.58,1.33,0.67,1.92,0.19l1.05-0.86c0.58-0.47,0.67-1.33,0.19-1.92l-2.15-2.64
					c0.35-0.56,0.65-1.17,0.85-1.83l3.22,0.33c0.75,0.08,1.42-0.47,1.5-1.22l0.14-1.35C757.92,17.37,757.38,16.7,756.63,16.62z
					 M744.88,21.25c-1.87-0.19-3.23-1.85-3.04-3.73c0.19-1.87,1.86-3.23,3.73-3.04c1.87,0.19,3.23,1.85,3.04,3.73
					C748.42,20.08,746.75,21.44,744.88,21.25z"/>
			</g>
		</g>
		<path fill="#868686" d="M665.02,31.64l-8.67,32.84h53.99l8.53-32.84H665.02z"/>
	</g>
</g>
</svg>
