<svg xmlns="http://www.w3.org/2000/svg" width="872" height="288.5" viewBox="0 0 872 288.5"><style type="text/css"><![CDATA[
	.st0{fill:#4D4D4D;}
	.st1{fill:#868686;}
	.st2{enable-background:new;}
	.st3{fill:#51674A;}
	.st4{fill:#FFFFFF;fill-opacity:0.25;stroke:#7DBD6B;}
	.st5{fill:#5B5B5B;}
	.st6{fill:#282828;}
	.st7{fill:#C6C6C5;}
	.st8{fill:#9CCC8F;}
	.st9{fill:#696969;}
]]></style><path class="st8" d="M0-.6h871v72H0z"/><path class="st4" d="M584.4-.6l-36.8 71.8L0 71.4v-72z"/><g class="st2"><path class="st9" d="M710.2 33.6v-8.8h-28.6l-4.8-6.9h-20.5V64h53.9"/><path class="st3" d="M713.9 21.9H709c-.3-.9-.7-1.8-1.2-2.7l3.3-3.3c.8-.8.8-2 0-2.8l-1.4-1.4c-.8-.8-2-.8-2.8 0l-3.3 3.3c-.9-.5-1.9-.9-2.9-1.2V9.6c0-1.1-.9-2-2-2h-2c-1.1 0-2 .9-2 2v4.3c-1.1.3-2.2.7-3.2 1.3l-2.8-2.8c-.8-.8-2-.8-2.8 0l-1.4 1.4c-.8.8-.8 2 0 2.8l2.8 2.8c-.6 1-1 2.2-1.3 3.4h-3.7c-1.1 0-2 .9-2 2v2c0 1.1.9 2 2 2h3.9c.4 1.2.9 2.3 1.6 3.3l-2.7 2.7c-.8.8-.8 2 0 2.8l1.4 1.4c.8.8 2 .8 2.8 0l3-3c1 .5 2.1.9 3.2 1v4c0 1.1.9 2 2 2h2c1.1 0 2-.9 2-2v-4.6c1-.4 1.9-.8 2.8-1.4l3.2 3.2c.8.8 2 .8 2.8 0l1.4-1.4c.8-.8.8-2 0-2.8l-3.5-3.5c.4-.9.8-1.8 1-2.7h4.7c1.1 0 2-.9 2-2v-2c0-1-.9-1.9-2-1.9zm-16.1 8.3c-2.7 0-4.9-2.2-4.9-4.9s2.2-4.9 4.9-4.9 4.9 2.2 4.9 4.9-2.2 4.9-4.9 4.9zM729.5 12.3l-2.3.4c-.2-.4-.5-.8-.8-1.1l1.2-1.8c.3-.4.2-1-.2-1.3l-.7-.5c-.4-.3-1-.2-1.3.2l-1.3 1.8c-.5-.2-1-.3-1.5-.3l-.4-2c-.1-.5-.6-.8-1.1-.8l-.9.2c-.5.1-.8.6-.8 1.1l.4 2c-.5.2-1 .5-1.4.9l-1.5-1.1c-.4-.3-1-.2-1.3.2l-.5.8c-.3.4-.2 1 .2 1.3l1.6 1.1c-.2.5-.3 1.1-.3 1.7l-1.7.3c-.5.1-.8.6-.8 1.1l.2.9c.1.5.6.8 1.1.8l1.8-.3c.3.5.6 1 1 1.4l-1 1.5c-.3.4-.2 1 .2 1.3l.8.5c.4.3 1 .2 1.3-.2l1.1-1.6c.5.1 1.1.2 1.6.2l.4 1.9c.1.5.6.8 1.1.8l.9-.2c.5-.1.8-.6.8-1.1l-.4-2.2c.4-.2.8-.5 1.2-.9l1.8 1.2c.4.3 1 .2 1.3-.2l.5-.8c.3-.4.2-1-.2-1.3l-1.9-1.3c.1-.4.2-.9.2-1.4l2.2-.4c.5-.1.8-.6.8-1.1l-.2-.9c-.2-.5-.7-.9-1.2-.8zm-6.9 5.3c-1.3.2-2.5-.6-2.7-1.9-.2-1.3.6-2.5 1.9-2.7s2.5.6 2.7 1.9c.3 1.3-.6 2.5-1.9 2.7zM756.6 16.6l-3.4-.3c-.1-.7-.4-1.3-.7-1.9l2.5-2c.6-.5.7-1.3.2-1.9l-.9-1c-.5-.6-1.3-.7-1.9-.2l-2.5 2.1c-.6-.4-1.2-.8-1.9-1l.3-3c.1-.8-.5-1.4-1.2-1.5l-1.4-.1c-.7-.1-1.4.5-1.5 1.2l-.3 3c-.8.1-1.6.4-2.3.7L740 8.4c-.5-.6-1.3-.7-1.9-.2l-1.1.9c-.6.5-.7 1.3-.2 1.9l1.8 2.1c-.5.7-.9 1.4-1.1 2.2L735 15c-.8-.1-1.4.5-1.5 1.2l-.1 1.4c-.1.7.5 1.4 1.2 1.5l2.7.3c.2.8.5 1.6.9 2.4l-2 1.6c-.6.5-.7 1.3-.2 1.9l.9 1.1c.5.6 1.3.7 1.9.2l2.3-1.9c.7.4 1.4.7 2.2 1l-.3 2.8c-.1.8.5 1.4 1.2 1.5l1.3.1c.8.1 1.4-.5 1.5-1.2l.3-3.2c.7-.2 1.4-.4 2-.8l2 2.4c.5.6 1.3.7 1.9.2l1-.9c.6-.5.7-1.3.2-1.9l-2.2-2.6c.4-.6.7-1.2.9-1.8l3.2.3c.8.1 1.4-.5 1.5-1.2l.1-1.4c0-.6-.5-1.3-1.3-1.4zm-11.7 4.6c-1.9-.2-3.2-1.9-3-3.7.2-1.9 1.9-3.2 3.7-3 1.8.2 3.2 1.9 3 3.7-.2 1.9-1.8 3.2-3.7 3z"/><path class="st1" d="M665 31.6l-8.7 32.8h54l8.5-32.8H665z"/></g><path class="st0" d="M0 72.3h872v72H0z"/><path class="st5" d="M586.4 73l-36.8 70.6H2V73z"/><g class="st2"><path class="st9" d="M712.2 107.5v-8.9h-28.6l-4.8-6.8h-20.5v46h53.9"/><path class="st6" d="M715.9 95.7H711c-.3-.9-.7-1.8-1.2-2.7l3.3-3.3c.8-.8.8-2 0-2.8l-1.4-1.4c-.8-.8-2-.8-2.8 0l-3.3 3.3c-.9-.5-1.9-.9-2.9-1.2v-4.3c0-1.1-.9-2-2-2h-2c-1.1 0-2 .9-2 2v4.3c-1.1.3-2.2.7-3.2 1.3l-2.8-2.8c-.8-.8-2-.8-2.8 0l-1.4 1.4c-.8.8-.8 2 0 2.8l2.8 2.8c-.6 1-1 2.2-1.3 3.4h-3.7c-1.1 0-2 .9-2 2v2c0 1.1.9 1.9 2 1.9h3.9c.4 1.2.9 2.3 1.6 3.3l-2.7 2.7c-.8.8-.8 2 0 2.8l1.4 1.4c.8.8 2 .8 2.8 0l3-3c1 .5 2.1.9 3.2 1.1v4.1c0 1.1.9 2 2 2h2c1.1 0 2-.9 2-2v-4.6c1-.4 1.9-.8 2.8-1.4l3.2 3.2c.8.8 2 .8 2.8 0l1.4-1.4c.8-.8.8-2 0-2.8l-3.5-3.5c.4-.9.8-1.8 1-2.7h4.7c1.1 0 2-.9 2-2v-2c0-1-.9-1.9-2-1.9zm-16.1 8.3c-2.7 0-4.9-2.2-4.9-4.9s2.2-4.9 4.9-4.9 4.9 2.2 4.9 4.9c0 2.8-2.2 4.9-4.9 4.9zM731.5 86.2l-2.3.4c-.2-.4-.5-.8-.8-1.1l1.2-1.8c.3-.4.2-1-.2-1.3l-.8-.5c-.4-.3-1-.2-1.3.2l-1.3 1.8c-.5-.2-1-.3-1.5-.3l-.4-2c-.1-.5-.6-.8-1.1-.8l-.9.2c-.5.1-.8.6-.8 1.1l.4 2c-.5.2-1 .5-1.4.9l-1.3-1.1c-.4-.3-1-.2-1.3.2l-.5.8c-.3.4-.2 1 .2 1.3l1.6 1.1c-.2.5-.3 1.1-.3 1.7l-1.7.3c-.5.1-.8.6-.8 1.1l.2.9c.1.5.6.8 1.1.8l1.8-.3c.3.5.6 1 1 1.4l-1 1.5c-.3.4-.2 1 .2 1.3l.8.5c.4.3 1 .2 1.3-.2l1.1-1.6c.5.1 1.1.2 1.6.2l.4 1.9c.1.5.6.8 1.1.8l.9-.2c.5-.1.8-.6.8-1.1l-.4-2.2c.4-.2.8-.6 1.2-.9l1.8 1.2c.4.3 1 .2 1.3-.2l.5-.8c.3-.4.2-1-.2-1.3l-1.9-1.3c.1-.4.2-.9.2-1.4l2-.5c.5-.1.8-.6.8-1.1l-.2-.9c-.1-.5-.6-.8-1.1-.7zm-6.9 5.3c-1.3.2-2.5-.6-2.7-1.9-.2-1.3.6-2.5 1.9-2.7s2.5.6 2.7 1.9c.3 1.2-.6 2.5-1.9 2.7zM758.6 90.5l-3.4-.3c-.1-.7-.4-1.3-.7-1.9l2.5-2c.6-.5.7-1.3.2-1.9l-.9-1c-.5-.6-1.3-.7-1.9-.2l-2.5 2.1c-.6-.4-1.2-.8-1.9-1l.3-3c.1-.8-.5-1.4-1.2-1.5l-1.4-.1c-.8-.1-1.4.5-1.5 1.2l-.3 3c-.8.1-1.6.4-2.3.7l-1.6-2.3c-.5-.6-1.3-.7-1.9-.2l-1.1.8c-.6.5-.7 1.3-.2 1.9l1.8 2.1c-.5.7-.9 1.4-1.1 2.2l-2.5-.3c-.8-.1-1.4.5-1.5 1.2l-.1 1.4c-.1.7.5 1.4 1.2 1.5l2.7.3c.2.8.5 1.6.9 2.4l-2 1.7c-.6.5-.7 1.3-.2 1.9l.9 1c.5.6 1.3.7 1.9.2l2.3-1.8c.7.4 1.4.7 2.2.9l-.3 2.8c-.1.7.5 1.4 1.2 1.5l1.3.1c.8.1 1.4-.5 1.5-1.2l.3-3.2c.7-.2 1.4-.4 2-.8l2 2.4c.5.6 1.3.7 1.9.2l1-.9c.6-.5.7-1.3.2-1.9l-2.2-2.6c.4-.6.7-1.2.9-1.8l3.2.3c.8.1 1.4-.5 1.5-1.2l.1-1.4c0-.6-.5-1.2-1.3-1.3zm-11.7 4.6c-1.9-.2-3.2-1.9-3-3.7.2-1.9 1.9-3.2 3.7-3 1.8.2 3.2 1.9 3 3.7-.2 1.8-1.8 3.2-3.7 3z"/><path class="st7" d="M667 105.5l-8.7 32.8h54l8.5-32.8z"/><path class="st1" d="M667 105.5l-8.7 32.8h54l8.5-32.8z"/></g><path class="st8" d="M1 144.3h871v72H1z"/><path class="st4" d="M636.4 144.3l-36.8 71.8-598.6.2v-72z"/><path class="st3" d="M861.4 188.2l-6-2.3c.1-1.3 0-2.6-.2-3.8l5.5-2.4c1.3-.6 1.9-2.1 1.3-3.4l-1-2.3c-.6-1.3-2.1-1.9-3.4-1.3l-5.6 2.4c-.8-1-1.8-2-3-2.8l2-5.2c.5-1.3-.1-2.8-1.5-3.3l-2.4-.9c-1.3-.5-2.8.1-3.3 1.5l-2 5.2c-1.5-.2-3-.1-4.4.1l-2.1-4.6c-.6-1.3-2.1-1.9-3.4-1.3l-2.3 1c-1.3.6-1.9 2.1-1.3 3.4l2.1 4.7c-1.2 1-2.3 2.2-3.2 3.5l-4.5-1.7c-1.3-.5-2.8.2-3.3 1.5l-.9 2.4c-.5 1.3.2 2.8 1.5 3.3l4.8 1.8c-.1 1.6 0 3.2.4 4.7l-4.5 2c-1.3.6-1.9 2.1-1.3 3.4l1 2.3c.6 1.3 2.1 1.9 3.4 1.3l5-2.2c1 1.1 2.1 2 3.4 2.8l-1.9 5c-.5 1.3.2 2.8 1.5 3.3l2.4.9c1.3.5 2.8-.2 3.3-1.5l2.2-5.6c1.4 0 2.7-.1 4-.4l2.4 5.3c.6 1.3 2.1 1.9 3.4 1.3l2.3-1c1.3-.6 1.9-2.1 1.3-3.4l-2.6-5.8c.9-.8 1.7-1.8 2.4-2.9l5.7 2.2c1.3.5 2.8-.1 3.3-1.5l.9-2.4c.5-1.3-.1-2.8-1.4-3.3zm-23.5 2.5c-3.3-1.3-4.9-4.9-3.6-8.2 1.3-3.3 4.9-4.9 8.2-3.6s4.9 4.9 3.7 8.2c-1.4 3.3-5 4.9-8.3 3.6zM821.9 167.9l-3.4-1.3c0-.7 0-1.5-.1-2.2l3.2-1.4c.7-.3 1.1-1.2.7-1.9l-.6-1.3c-.3-.7-1.2-1.1-1.9-.7l-3.2 1.4c-.5-.6-1.1-1.1-1.7-1.6l1.2-3c.3-.8-.1-1.6-.8-1.9l-1.4-.5c-.8-.3-1.6.1-1.9.8l-1.2 3c-.9-.1-1.7-.1-2.5.1l-1.3-2.7c-.3-.7-1.2-1.1-1.9-.7l-1.3.6c-.7.3-1.1 1.2-.7 1.9l1.2 2.7c-.7.6-1.3 1.2-1.8 2l-2.6-1c-.8-.3-1.6.1-1.9.8l-.5 1.4c-.3.8.1 1.6.8 1.9l2.7 1.1c-.1.9 0 1.8.2 2.7l-2.6 1.1c-.7.3-1.1 1.2-.8 1.9l.6 1.3c.3.7 1.2 1.1 1.9.7l2.9-1.3c.6.6 1.2 1.2 2 1.6l-1.1 2.9c-.3.8.1 1.6.8 1.9l1.4.5c.8.3 1.6-.1 1.9-.8l1.2-3.2c.8 0 1.6 0 2.3-.2l1.3 3c.3.7 1.2 1.1 1.9.7l1.3-.6c.7-.3 1.1-1.2.7-1.9l-1.5-3.3c.5-.5 1-1 1.4-1.6l3.2 1.2c.8.3 1.6-.1 1.9-.8l.5-1.4c.7-.7.3-1.6-.5-1.9zm-13.4 1.5c-1.9-.7-2.8-2.8-2.1-4.7.7-1.9 2.8-2.8 4.7-2.1 1.9.7 2.8 2.8 2.1 4.7-.7 1.9-2.9 2.8-4.7 2.1z"/><path class="st0" d="M0 216.3h872v72H0z"/><path class="st5" d="M637.4 217l-36.8 70.6H1V217z"/><path class="st6" d="M858.2 259.3l-5.3-2c.1-1.1 0-2.3-.2-3.4l4.9-2.2c1.1-.5 1.7-1.8 1.2-3l-.9-2.1c-.5-1.1-1.8-1.6-3-1.1l-4.9 2.2c-.8-.9-1.6-1.8-2.6-2.5l1.8-4.6c.5-1.2-.1-2.5-1.3-2.9l-2.1-.8c-1.2-.5-2.5.1-2.9 1.3l-1.8 4.6c-1.3-.2-2.6-.1-3.9.1l-1.8-4.1c-.5-1.1-1.8-1.6-3-1.1l-2.1.9c-1.1.5-1.6 1.9-1.1 3l1.9 4.2c-1.1.9-2 1.9-2.8 3.1l-4-1.5c-1.2-.5-2.5.1-2.9 1.3l-.8 2.1c-.5 1.2.1 2.5 1.3 2.9l4.2 1.6c-.1 1.4 0 2.8.3 4.2l-4 1.8c-1.1.5-1.7 1.9-1.2 3l.9 2.1c.5 1.1 1.9 1.7 3 1.1l4.4-2c.9.9 1.9 1.8 3 2.5l-1.7 4.4c-.5 1.2.1 2.5 1.3 2.9l2.1.8c1.2.4 2.5-.1 2.9-1.3l1.9-5c1.2 0 2.4-.1 3.6-.4l2.1 4.7c.5 1.1 1.8 1.7 3 1.2l2.1-.9c1.1-.5 1.7-1.8 1.1-3l-2.3-5.2c.8-.8 1.5-1.6 2.2-2.6l5 1.9c1.2.5 2.5-.1 2.9-1.3l.8-2.1c.5-1-.1-2.3-1.3-2.8zm-20.8 2.3c-2.9-1.1-4.4-4.4-3.2-7.3 1.1-2.9 4.4-4.4 7.3-3.2 2.9 1.1 4.4 4.4 3.2 7.3s-4.4 4.3-7.3 3.2zM823.2 241.4l-3-1.2c0-.6 0-1.3-.1-1.9l2.8-1.2c.7-.3 1-1 .7-1.7l-.5-1.2c-.3-.7-1.1-1-1.7-.7l-2.8 1.3c-.4-.5-.9-1-1.5-1.4l1-2.7c.3-.7-.1-1.4-.7-1.7l-1.2-.5c-.7-.3-1.4.1-1.7.8l-1 2.7c-.8-.1-1.5-.1-2.3.1l-1.1-2.4c-.3-.6-1.1-1-1.7-.7l-1.2.5c-.7.3-.9 1.1-.7 1.7l1.1 2.4c-.6.5-1.2 1.1-1.6 1.8l-2.3-.9c-.7-.3-1.4.1-1.7.8l-.5 1.2c-.3.7.1 1.4.8 1.7l2.4.9c-.1.8 0 1.6.2 2.4l-2.3 1c-.7.3-1 1.1-.7 1.7l.5 1.2c.3.6 1.1.9 1.7.7l2.5-1.1c.5.5 1.1 1 1.8 1.4l-1 2.5c-.3.7.1 1.4.8 1.7l1.2.5c.7.2 1.4-.1 1.7-.8l1.1-2.9c.7 0 1.4 0 2.1-.2l1.2 2.7c.3.6 1.1.9 1.7.7l1.2-.5c.7-.3 1-1.1.7-1.7l-1.3-3c.5-.4.9-.9 1.2-1.5l2.9 1.1c.7.3 1.4-.1 1.7-.8l.5-1.2c.1-.6-.2-1.4-.9-1.6zm-12 1.3c-1.7-.6-2.5-2.5-1.9-4.2.6-1.7 2.5-2.5 4.2-1.9 1.7.6 2.5 2.5 1.9 4.2-.6 1.7-2.5 2.5-4.2 1.9z"/></svg>