<?xml version="1.0" encoding="utf-8"?>
<!-- Generator: Adobe Illustrator 15.1.0, SVG Export Plug-In . SVG Version: 6.00 Build 0)  -->
<!DOCTYPE svg PUBLIC "-//W3C//DTD SVG 1.1//EN" "http://www.w3.org/Graphics/SVG/1.1/DTD/svg11.dtd">
<svg version="1.1" id="Calque_1" xmlns="http://www.w3.org/2000/svg" xmlns:xlink="http://www.w3.org/1999/xlink" x="0px" y="0px"
	 width="872px" height="72px" viewBox="0 0 872 72" enable-background="new 0 0 872 72" xml:space="preserve">
<rect x="-1" y="-0.583" fill="#4D4D4D" width="872" height="72"/>
<polygon fill="#5B5B5B" points="585.408,0.093 548.611,70.743 0.989,70.743 1.01,0.093 "/>
<g opacity="0.49" enable-background="new    ">
	<g>
		<polygon fill="#868686" points="708.562,63.433 661.171,63.433 668.782,34.604 711.198,34.604 711.198,25.727 682.644,25.727 
			677.845,18.857 657.351,18.857 657.351,64.91 711.198,64.91 711.198,53.282 		"/>
		<g>
			<g>
				<path fill="#000100" d="M714.927,22.827h-4.912c-0.292-0.944-0.701-1.832-1.202-2.657l3.259-3.268c0.77-0.762,0.77-2.004,0-2.77
					l-1.385-1.38c-0.764-0.765-2.006-0.761-2.768,0l-3.317,3.31c-0.895-0.512-1.865-0.906-2.899-1.172v-4.309
					c0-1.078-0.871-1.957-1.958-1.957h-1.958c-1.079,0-1.958,0.879-1.958,1.957v4.309c-1.126,0.285-2.181,0.733-3.15,1.322
					l-2.773-2.772c-0.764-0.761-2.009-0.765-2.773,0l-1.388,1.384c-0.764,0.762-0.755,2.01,0.005,2.777l2.825,2.822
					c-0.597,1.041-1.045,2.181-1.302,3.383h-3.689c-1.083,0-1.96,0.879-1.96,1.959v1.962c0,1.075,0.877,1.954,1.96,1.954h3.94
					c0.356,1.182,0.896,2.271,1.584,3.264l-2.664,2.662c-0.767,0.77-0.767,2.014-0.006,2.774l1.385,1.384
					c0.77,0.762,2.012,0.762,2.776-0.004l2.975-2.975c1.005,0.498,2.092,0.86,3.235,1.046v4.101c0,1.079,0.876,1.955,1.96,1.957
					h1.957c1.08-0.002,1.961-0.878,1.961-1.957v-4.608c0.985-0.347,1.921-0.812,2.769-1.408l3.155,3.157
					c0.767,0.763,2.002,0.763,2.773,0l1.383-1.387c0.769-0.763,0.769-2.004-0.006-2.771l-3.455-3.467
					c0.424-0.855,0.754-1.773,0.958-2.742h4.664c1.088,0,1.963-0.873,1.965-1.963v-1.957
					C716.89,23.706,716.015,22.827,714.927,22.827z M698.77,31.152c-2.705,0-4.898-2.186-4.898-4.897
					c0-2.706,2.193-4.894,4.898-4.894c2.707,0,4.899,2.188,4.899,4.894C703.669,28.967,701.477,31.152,698.77,31.152z"/>
			</g>
		</g>
		<g>
			<g>
				<path fill="#000100" d="M730.504,13.298l-2.303,0.421c-0.219-0.418-0.485-0.801-0.79-1.143l1.246-1.811
					c0.298-0.424,0.191-1.006-0.236-1.299l-0.768-0.527c-0.423-0.293-1.006-0.186-1.297,0.236l-1.271,1.836
					c-0.465-0.164-0.952-0.266-1.462-0.301l-0.367-2.021c-0.093-0.504-0.576-0.84-1.086-0.748l-0.918,0.168
					c-0.506,0.092-0.842,0.578-0.75,1.084l0.369,2.021c-0.503,0.228-0.959,0.527-1.361,0.887l-1.538-1.061
					c-0.423-0.292-1.008-0.186-1.299,0.235l-0.534,0.769c-0.292,0.423-0.181,1.008,0.24,1.301l1.566,1.082
					c-0.191,0.539-0.303,1.111-0.32,1.698l-1.729,0.313c-0.508,0.094-0.844,0.582-0.752,1.087l0.169,0.92
					c0.091,0.505,0.578,0.84,1.086,0.747l1.847-0.336c0.267,0.521,0.613,0.984,1.023,1.394l-1.021,1.476
					c-0.294,0.426-0.188,1.01,0.235,1.3l0.766,0.53c0.428,0.291,1.008,0.184,1.302-0.238l1.139-1.65
					c0.515,0.148,1.055,0.225,1.606,0.215l0.352,1.92c0.092,0.506,0.579,0.84,1.086,0.75l0.917-0.17
					c0.505-0.093,0.846-0.578,0.752-1.083l-0.396-2.159c0.435-0.248,0.832-0.547,1.178-0.897l1.748,1.208
					c0.425,0.293,1.006,0.186,1.302-0.236l0.529-0.769c0.294-0.423,0.188-1.005-0.24-1.297l-1.915-1.331
					c0.124-0.436,0.2-0.895,0.213-1.367l2.188-0.398c0.51-0.094,0.843-0.578,0.752-1.09l-0.169-0.916
					C731.498,13.541,731.014,13.205,730.504,13.298z M723.645,18.583c-1.269,0.229-2.483-0.604-2.717-1.876
					c-0.231-1.268,0.609-2.481,1.878-2.714c1.271-0.231,2.482,0.604,2.714,1.874C725.754,17.139,724.912,18.35,723.645,18.583z"/>
			</g>
		</g>
		<g>
			<g>
				<path fill="#000100" d="M757.628,17.584l-3.396-0.344c-0.136-0.673-0.355-1.316-0.646-1.921l2.481-2.031
					c0.585-0.471,0.672-1.329,0.195-1.913l-0.863-1.053c-0.472-0.581-1.33-0.664-1.911-0.193l-2.525,2.058
					c-0.58-0.419-1.224-0.758-1.922-1.014l0.3-2.978c0.078-0.748-0.463-1.414-1.215-1.49l-1.353-0.138
					c-0.745-0.075-1.413,0.47-1.49,1.218l-0.301,2.975c-0.799,0.119-1.56,0.354-2.271,0.693l-1.723-2.109
					c-0.474-0.579-1.335-0.668-1.915-0.194l-1.057,0.858c-0.583,0.473-0.663,1.336-0.191,1.92l1.755,2.15
					c-0.487,0.678-0.874,1.433-1.137,2.244l-2.55-0.257c-0.75-0.077-1.417,0.47-1.493,1.218l-0.138,1.354
					c-0.075,0.744,0.47,1.413,1.22,1.488l2.723,0.277c0.163,0.841,0.461,1.632,0.866,2.366l-2.027,1.652
					c-0.585,0.479-0.672,1.338-0.198,1.918l0.859,1.053c0.479,0.58,1.337,0.666,1.92,0.192l2.265-1.847
					c0.659,0.414,1.384,0.741,2.163,0.948l-0.287,2.835c-0.078,0.744,0.467,1.411,1.215,1.488l1.354,0.139
					c0.746,0.073,1.415-0.47,1.491-1.217l0.322-3.184c0.708-0.171,1.386-0.428,2.014-0.78l1.96,2.403
					c0.477,0.58,1.331,0.667,1.916,0.193l1.055-0.859c0.583-0.474,0.67-1.332,0.188-1.916l-2.145-2.639
					c0.354-0.562,0.646-1.174,0.854-1.828l3.224,0.326c0.752,0.076,1.418-0.468,1.495-1.22l0.139-1.353
					C758.923,18.328,758.38,17.661,757.628,17.584z M745.878,22.205c-1.871-0.189-3.232-1.852-3.044-3.728
					c0.189-1.869,1.86-3.228,3.729-3.038c1.868,0.189,3.232,1.855,3.043,3.725C749.415,21.039,747.747,22.395,745.878,22.205z"/>
			</g>
		</g>
		<path fill="#C6C6C5" d="M666.021,32.598l-8.671,32.842h53.99l8.527-32.842H666.021z"/>
	</g>
</g>
</svg>
