<?xml version="1.0" encoding="utf-8"?>
<!DOCTYPE svg PUBLIC "-//W3C//DTD SVG 1.1//EN" "http://www.w3.org/Graphics/SVG/1.1/DTD/svg11.dtd">
<svg version="1.1" id="Calque_1" xmlns="http://www.w3.org/2000/svg" xmlns:xlink="http://www.w3.org/1999/xlink" x="0px" y="0px"
	 width="872px" height="72px" viewBox="0 0 872 72" enable-background="new 0 0 872 72" xml:space="preserve">
<rect x="-1" y="-0.58" fill="#4D4D4D" width="872" height="72"/>
<polygon fill="#5B5B5B" points="585.41,0.09 548.61,70.74 0.99,70.74 1.01,0.09 "/>
<g opacity="0.49" enable-background="new    ">
	<g>
		<polygon fill="#868686" points="708.56,63.43 661.17,63.43 668.78,34.6 711.2,34.6 711.2,25.73 682.64,25.73 677.84,18.86 
			657.35,18.86 657.35,64.91 711.2,64.91 711.2,53.28 		"/>
		<g>
			<g>
				<path fill="#000100" d="M714.93,22.83h-4.91c-0.29-0.94-0.7-1.83-1.2-2.66l3.26-3.27c0.77-0.76,0.77-2,0-2.77l-1.39-1.38
					c-0.76-0.77-2.01-0.76-2.77,0l-3.32,3.31c-0.89-0.51-1.86-0.91-2.9-1.17v-4.31c0-1.08-0.87-1.96-1.96-1.96h-1.96
					c-1.08,0-1.96,0.88-1.96,1.96v4.31c-1.13,0.28-2.18,0.73-3.15,1.32l-2.77-2.77c-0.76-0.76-2.01-0.77-2.77,0l-1.39,1.38
					c-0.76,0.76-0.75,2.01,0,2.78l2.83,2.82c-0.6,1.04-1.04,2.18-1.3,3.38h-3.69c-1.08,0-1.96,0.88-1.96,1.96v1.96
					c0,1.07,0.88,1.95,1.96,1.95h3.94c0.36,1.18,0.9,2.27,1.58,3.26l-2.66,2.66c-0.77,0.77-0.77,2.01-0.01,2.77l1.39,1.38
					c0.77,0.76,2.01,0.76,2.78,0l2.98-2.97c1,0.5,2.09,0.86,3.23,1.05v4.1c0,1.08,0.88,1.96,1.96,1.96h1.96
					c1.08,0,1.96-0.88,1.96-1.96v-4.61c0.99-0.35,1.92-0.81,2.77-1.41l3.16,3.16c0.77,0.76,2,0.76,2.77,0l1.38-1.39
					c0.77-0.76,0.77-2-0.01-2.77l-3.46-3.47c0.42-0.86,0.75-1.77,0.96-2.74h4.66c1.09,0,1.96-0.87,1.96-1.96v-1.96
					C716.89,23.71,716.01,22.83,714.93,22.83z M698.77,31.15c-2.7,0-4.9-2.19-4.9-4.9c0-2.71,2.19-4.89,4.9-4.89
					c2.71,0,4.9,2.19,4.9,4.89C703.67,28.97,701.48,31.15,698.77,31.15z"/>
			</g>
		</g>
		<g>
			<g>
				<path fill="#000100" d="M730.5,13.3l-2.3,0.42c-0.22-0.42-0.49-0.8-0.79-1.14l1.25-1.81c0.3-0.42,0.19-1.01-0.24-1.3l-0.77-0.53
					c-0.42-0.29-1.01-0.19-1.3,0.24l-1.27,1.84c-0.46-0.16-0.95-0.27-1.46-0.3l-0.37-2.02c-0.09-0.5-0.58-0.84-1.09-0.75l-0.92,0.17
					c-0.51,0.09-0.84,0.58-0.75,1.08l0.37,2.02c-0.5,0.23-0.96,0.53-1.36,0.89l-1.54-1.06c-0.42-0.29-1.01-0.19-1.3,0.23l-0.53,0.77
					c-0.29,0.42-0.18,1.01,0.24,1.3l1.57,1.08c-0.19,0.54-0.3,1.11-0.32,1.7l-1.73,0.31c-0.51,0.09-0.84,0.58-0.75,1.09l0.17,0.92
					c0.09,0.51,0.58,0.84,1.09,0.75l1.85-0.34c0.27,0.52,0.61,0.98,1.02,1.39l-1.02,1.48c-0.29,0.43-0.19,1.01,0.23,1.3l0.77,0.53
					c0.43,0.29,1.01,0.18,1.3-0.24l1.14-1.65c0.52,0.15,1.06,0.23,1.61,0.21l0.35,1.92c0.09,0.51,0.58,0.84,1.09,0.75l0.92-0.17
					c0.51-0.09,0.85-0.58,0.75-1.08l-0.4-2.16c0.43-0.25,0.83-0.55,1.18-0.9l1.75,1.21c0.42,0.29,1.01,0.19,1.3-0.24l0.53-0.77
					c0.29-0.42,0.19-1-0.24-1.3l-1.91-1.33c0.12-0.44,0.2-0.9,0.21-1.37l2.19-0.4c0.51-0.09,0.84-0.58,0.75-1.09l-0.17-0.92
					C731.5,13.54,731.01,13.21,730.5,13.3z M723.64,18.58c-1.27,0.23-2.48-0.6-2.72-1.88c-0.23-1.27,0.61-2.48,1.88-2.71
					c1.27-0.23,2.48,0.6,2.71,1.87C725.75,17.14,724.91,18.35,723.64,18.58z"/>
			</g>
		</g>
		<g>
			<g>
				<path fill="#000100" d="M757.63,17.58l-3.4-0.34c-0.14-0.67-0.36-1.32-0.65-1.92l2.48-2.03c0.58-0.47,0.67-1.33,0.19-1.91
					l-0.86-1.05c-0.47-0.58-1.33-0.66-1.91-0.19l-2.53,2.06c-0.58-0.42-1.22-0.76-1.92-1.01l0.3-2.98c0.08-0.75-0.46-1.41-1.21-1.49
					l-1.35-0.14c-0.75-0.07-1.41,0.47-1.49,1.22l-0.3,2.97c-0.8,0.12-1.56,0.35-2.27,0.69l-1.72-2.11
					c-0.47-0.58-1.33-0.67-1.92-0.19l-1.06,0.86c-0.58,0.47-0.66,1.34-0.19,1.92l1.75,2.15c-0.49,0.68-0.87,1.43-1.14,2.24
					l-2.55-0.26c-0.75-0.08-1.42,0.47-1.49,1.22l-0.14,1.35c-0.08,0.74,0.47,1.41,1.22,1.49l2.72,0.28
					c0.16,0.84,0.46,1.63,0.87,2.37l-2.03,1.65c-0.58,0.48-0.67,1.34-0.2,1.92l0.86,1.05c0.48,0.58,1.34,0.67,1.92,0.19l2.26-1.85
					c0.66,0.41,1.38,0.74,2.16,0.95l-0.29,2.83c-0.08,0.74,0.47,1.41,1.22,1.49l1.35,0.14c0.75,0.07,1.42-0.47,1.49-1.22l0.32-3.18
					c0.71-0.17,1.39-0.43,2.01-0.78l1.96,2.4c0.48,0.58,1.33,0.67,1.92,0.19l1.05-0.86c0.58-0.47,0.67-1.33,0.19-1.92l-2.15-2.64
					c0.35-0.56,0.65-1.17,0.85-1.83l3.22,0.33c0.75,0.08,1.42-0.47,1.5-1.22l0.14-1.35C758.92,18.33,758.38,17.66,757.63,17.58z
					 M745.88,22.21c-1.87-0.19-3.23-1.85-3.04-3.73c0.19-1.87,1.86-3.23,3.73-3.04c1.87,0.19,3.23,1.85,3.04,3.73
					C749.42,21.04,747.75,22.4,745.88,22.21z"/>
			</g>
		</g>
		<path fill="#C6C6C5" d="M666.02,32.6l-8.67,32.84h53.99l8.53-32.84H666.02z"/>
	</g>
</g>
</svg>
