<?xml version="1.0" encoding="utf-8"?>
<!DOCTYPE svg PUBLIC "-//W3C//DTD SVG 1.1//EN" "http://www.w3.org/Graphics/SVG/1.1/DTD/svg11.dtd">
<svg version="1.1" id="Calque_1" xmlns="http://www.w3.org/2000/svg" xmlns:xlink="http://www.w3.org/1999/xlink" x="0px" y="0px"
	 width="872px" height="288.5px" viewBox="0 0 872 288.5" style="enable-background:new 0 0 872 288.5;" xml:space="preserve">
<style type="text/css"><![CDATA[
	.st0{fill:#4D4D4D;}
	.st1{fill:#868686;}
	.st2{enable-background:new;}
	.st3{fill:#51674A;}
	.st4{fill:#FFFFFF;fill-opacity:0.25;stroke:#7DBD6B;}
	.st5{fill:#5B5B5B;}
	.st6{fill:#282828;}
	.st7{fill:#C6C6C5;}
	.st8{fill:#9CCC8F;}
	.st9{fill:#696969;}
]]></style>
<rect y="-0.6" class="st8" width="871" height="72"/>
<polygon class="st4" points="584.4,-0.6 547.6,71.2 0,71.4 0,-0.6 "/>
<g class="st2">
	<g>
		<polyline class="st9" points="710.2,33.6 710.2,24.8 681.6,24.8 676.8,17.9 656.3,17.9 656.3,64 710.2,64"/>
		<g>
			<g>
				<path class="st3" d="M713.9,21.9H709c-0.3-0.9-0.7-1.8-1.2-2.7l3.3-3.3c0.8-0.8,0.8-2,0-2.8l-1.4-1.4c-0.8-0.8-2-0.8-2.8,0
					l-3.3,3.3c-0.9-0.5-1.9-0.9-2.9-1.2V9.6c0-1.1-0.9-2-2-2h-2c-1.1,0-2,0.9-2,2v4.3c-1.1,0.3-2.2,0.7-3.2,1.3l-2.8-2.8
					c-0.8-0.8-2-0.8-2.8,0l-1.4,1.4c-0.8,0.8-0.8,2,0,2.8l2.8,2.8c-0.6,1-1,2.2-1.3,3.4h-3.7c-1.1,0-2,0.9-2,2v2c0,1.1,0.9,2,2,2
					h3.9c0.4,1.2,0.9,2.3,1.6,3.3l-2.7,2.7c-0.8,0.8-0.8,2,0,2.8l1.4,1.4c0.8,0.8,2,0.8,2.8,0l3-3c1,0.5,2.1,0.9,3.2,1v4
					c0,1.1,0.9,2,2,2h2c1.1,0,2-0.9,2-2v-4.6c1-0.4,1.9-0.8,2.8-1.4l3.2,3.2c0.8,0.8,2,0.8,2.8,0l1.4-1.4c0.8-0.8,0.8-2,0-2.8
					l-3.5-3.5c0.4-0.9,0.8-1.8,1-2.7h4.7c1.1,0,2-0.9,2-2v-2C715.9,22.8,715,21.9,713.9,21.9z M697.8,30.2c-2.7,0-4.9-2.2-4.9-4.9
					c0-2.7,2.2-4.9,4.9-4.9s4.9,2.2,4.9,4.9C702.7,28,700.5,30.2,697.8,30.2z"/>
			</g>
		</g>
		<g>
			<g>
				<path class="st3" d="M729.5,12.3l-2.3,0.4c-0.2-0.4-0.5-0.8-0.8-1.1l1.2-1.8c0.3-0.4,0.2-1-0.2-1.3L726.7,8
					c-0.4-0.3-1-0.2-1.3,0.2l-1.3,1.8c-0.5-0.2-1-0.3-1.5-0.3l-0.4-2c-0.1-0.5-0.6-0.8-1.1-0.8l-0.9,0.2c-0.5,0.1-0.8,0.6-0.8,1.1
					l0.4,2c-0.5,0.2-1,0.5-1.4,0.9l-1.5-1.1c-0.4-0.3-1-0.2-1.3,0.2l-0.5,0.8c-0.3,0.4-0.2,1,0.2,1.3l1.6,1.1
					c-0.2,0.5-0.3,1.1-0.3,1.7l-1.7,0.3c-0.5,0.1-0.8,0.6-0.8,1.1l0.2,0.9c0.1,0.5,0.6,0.8,1.1,0.8l1.8-0.3c0.3,0.5,0.6,1,1,1.4
					l-1,1.5c-0.3,0.4-0.2,1,0.2,1.3l0.8,0.5c0.4,0.3,1,0.2,1.3-0.2l1.1-1.6c0.5,0.1,1.1,0.2,1.6,0.2l0.4,1.9
					c0.1,0.5,0.6,0.8,1.1,0.8l0.9-0.2c0.5-0.1,0.8-0.6,0.8-1.1l-0.4-2.2c0.4-0.2,0.8-0.5,1.2-0.9l1.8,1.2c0.4,0.3,1,0.2,1.3-0.2
					l0.5-0.8c0.3-0.4,0.2-1-0.2-1.3l-1.9-1.3c0.1-0.4,0.2-0.9,0.2-1.4l2.2-0.4c0.5-0.1,0.8-0.6,0.8-1.1l-0.2-0.9
					C730.5,12.6,730,12.2,729.5,12.3z M722.6,17.6c-1.3,0.2-2.5-0.6-2.7-1.9c-0.2-1.3,0.6-2.5,1.9-2.7s2.5,0.6,2.7,1.9
					C724.8,16.2,723.9,17.4,722.6,17.6z"/>
			</g>
		</g>
		<g>
			<g>
				<path class="st3" d="M756.6,16.6l-3.4-0.3c-0.1-0.7-0.4-1.3-0.7-1.9l2.5-2c0.6-0.5,0.7-1.3,0.2-1.9l-0.9-1
					c-0.5-0.6-1.3-0.7-1.9-0.2l-2.5,2.1c-0.6-0.4-1.2-0.8-1.9-1l0.3-3c0.1-0.8-0.5-1.4-1.2-1.5l-1.4-0.1c-0.7-0.1-1.4,0.5-1.5,1.2
					l-0.3,3c-0.8,0.1-1.6,0.4-2.3,0.7L740,8.4c-0.5-0.6-1.3-0.7-1.9-0.2L737,9.1c-0.6,0.5-0.7,1.3-0.2,1.9l1.8,2.1
					c-0.5,0.7-0.9,1.4-1.1,2.2L735,15c-0.8-0.1-1.4,0.5-1.5,1.2l-0.1,1.4c-0.1,0.7,0.5,1.4,1.2,1.5l2.7,0.3c0.2,0.8,0.5,1.6,0.9,2.4
					l-2,1.6c-0.6,0.5-0.7,1.3-0.2,1.9l0.9,1.1c0.5,0.6,1.3,0.7,1.9,0.2l2.3-1.9c0.7,0.4,1.4,0.7,2.2,1l-0.3,2.8
					c-0.1,0.8,0.5,1.4,1.2,1.5l1.3,0.1c0.8,0.1,1.4-0.5,1.5-1.2l0.3-3.2c0.7-0.2,1.4-0.4,2-0.8l2,2.4c0.5,0.6,1.3,0.7,1.9,0.2l1-0.9
					c0.6-0.5,0.7-1.3,0.2-1.9l-2.2-2.6c0.4-0.6,0.7-1.2,0.9-1.8l3.2,0.3c0.8,0.1,1.4-0.5,1.5-1.2l0.1-1.4
					C757.9,17.4,757.4,16.7,756.6,16.6z M744.9,21.2c-1.9-0.2-3.2-1.9-3-3.7c0.2-1.9,1.9-3.2,3.7-3c1.8,0.2,3.2,1.9,3,3.7
					C748.4,20.1,746.8,21.4,744.9,21.2z"/>
			</g>
		</g>
		<path class="st1" d="M665,31.6l-8.7,32.8h54l8.5-32.8H665L665,31.6z"/>
	</g>
</g>
<rect y="72.3" class="st0" width="872" height="72"/>
<polygon class="st5" points="586.4,73 549.6,143.6 2,143.6 2,73 "/>
<g class="st2">
	<g>
		<polyline class="st9" points="712.2,107.5 712.2,98.6 683.6,98.6 678.8,91.8 658.3,91.8 658.3,137.8 712.2,137.8 		"/>
		<g>
			<g>
				<path class="st6" d="M715.9,95.7H711c-0.3-0.9-0.7-1.8-1.2-2.7l3.3-3.3c0.8-0.8,0.8-2,0-2.8l-1.4-1.4c-0.8-0.8-2-0.8-2.8,0
					l-3.3,3.3c-0.9-0.5-1.9-0.9-2.9-1.2v-4.3c0-1.1-0.9-2-2-2h-2c-1.1,0-2,0.9-2,2v4.3c-1.1,0.3-2.2,0.7-3.2,1.3l-2.8-2.8
					c-0.8-0.8-2-0.8-2.8,0l-1.4,1.4c-0.8,0.8-0.8,2,0,2.8l2.8,2.8c-0.6,1-1,2.2-1.3,3.4h-3.7c-1.1,0-2,0.9-2,2v2
					c0,1.1,0.9,1.9,2,1.9h3.9c0.4,1.2,0.9,2.3,1.6,3.3l-2.7,2.7c-0.8,0.8-0.8,2,0,2.8l1.4,1.4c0.8,0.8,2,0.8,2.8,0l3-3
					c1,0.5,2.1,0.9,3.2,1.1v4.1c0,1.1,0.9,2,2,2h2c1.1,0,2-0.9,2-2v-4.6c1-0.4,1.9-0.8,2.8-1.4l3.2,3.2c0.8,0.8,2,0.8,2.8,0l1.4-1.4
					c0.8-0.8,0.8-2,0-2.8l-3.5-3.5c0.4-0.9,0.8-1.8,1-2.7h4.7c1.1,0,2-0.9,2-2v-2C717.9,96.6,717,95.7,715.9,95.7z M699.8,104
					c-2.7,0-4.9-2.2-4.9-4.9s2.2-4.9,4.9-4.9s4.9,2.2,4.9,4.9C704.7,101.9,702.5,104,699.8,104z"/>
			</g>
		</g>
		<g>
			<g>
				<path class="st6" d="M731.5,86.2l-2.3,0.4c-0.2-0.4-0.5-0.8-0.8-1.1l1.2-1.8c0.3-0.4,0.2-1-0.2-1.3l-0.8-0.5
					c-0.4-0.3-1-0.2-1.3,0.2l-1.3,1.8c-0.5-0.2-1-0.3-1.5-0.3l-0.4-2c-0.1-0.5-0.6-0.8-1.1-0.8l-0.9,0.2c-0.5,0.1-0.8,0.6-0.8,1.1
					l0.4,2c-0.5,0.2-1,0.5-1.4,0.9l-1.3-1.1c-0.4-0.3-1-0.2-1.3,0.2l-0.5,0.8c-0.3,0.4-0.2,1,0.2,1.3l1.6,1.1
					c-0.2,0.5-0.3,1.1-0.3,1.7l-1.7,0.3c-0.5,0.1-0.8,0.6-0.8,1.1l0.2,0.9c0.1,0.5,0.6,0.8,1.1,0.8l1.8-0.3c0.3,0.5,0.6,1,1,1.4
					l-1,1.5c-0.3,0.4-0.2,1,0.2,1.3l0.8,0.5c0.4,0.3,1,0.2,1.3-0.2l1.1-1.6c0.5,0.1,1.1,0.2,1.6,0.2l0.4,1.9
					c0.1,0.5,0.6,0.8,1.1,0.8l0.9-0.2c0.5-0.1,0.8-0.6,0.8-1.1l-0.4-2.2c0.4-0.2,0.8-0.6,1.2-0.9l1.8,1.2c0.4,0.3,1,0.2,1.3-0.2
					l0.5-0.8c0.3-0.4,0.2-1-0.2-1.3l-1.9-1.3c0.1-0.4,0.2-0.9,0.2-1.4l2-0.5c0.5-0.1,0.8-0.6,0.8-1.1l-0.2-0.9
					C732.5,86.4,732,86.1,731.5,86.2z M724.6,91.5c-1.3,0.2-2.5-0.6-2.7-1.9c-0.2-1.3,0.6-2.5,1.9-2.7s2.5,0.6,2.7,1.9
					C726.8,90,725.9,91.3,724.6,91.5z"/>
			</g>
		</g>
		<g>
			<g>
				<path class="st6" d="M758.6,90.5l-3.4-0.3c-0.1-0.7-0.4-1.3-0.7-1.9l2.5-2c0.6-0.5,0.7-1.3,0.2-1.9l-0.9-1
					c-0.5-0.6-1.3-0.7-1.9-0.2l-2.5,2.1c-0.6-0.4-1.2-0.8-1.9-1l0.3-3c0.1-0.8-0.5-1.4-1.2-1.5l-1.4-0.1c-0.8-0.1-1.4,0.5-1.5,1.2
					l-0.3,3c-0.8,0.1-1.6,0.4-2.3,0.7l-1.6-2.3c-0.5-0.6-1.3-0.7-1.9-0.2l-1.1,0.8c-0.6,0.5-0.7,1.3-0.2,1.9l1.8,2.1
					c-0.5,0.7-0.9,1.4-1.1,2.2l-2.5-0.3c-0.8-0.1-1.4,0.5-1.5,1.2l-0.1,1.4c-0.1,0.7,0.5,1.4,1.2,1.5l2.7,0.3
					c0.2,0.8,0.5,1.6,0.9,2.4l-2,1.7c-0.6,0.5-0.7,1.3-0.2,1.9l0.9,1c0.5,0.6,1.3,0.7,1.9,0.2l2.3-1.8c0.7,0.4,1.4,0.7,2.2,0.9
					l-0.3,2.8c-0.1,0.7,0.5,1.4,1.2,1.5l1.3,0.1c0.8,0.1,1.4-0.5,1.5-1.2l0.3-3.2c0.7-0.2,1.4-0.4,2-0.8l2,2.4
					c0.5,0.6,1.3,0.7,1.9,0.2l1-0.9c0.6-0.5,0.7-1.3,0.2-1.9l-2.2-2.6c0.4-0.6,0.7-1.2,0.9-1.8l3.2,0.3c0.8,0.1,1.4-0.5,1.5-1.2
					l0.1-1.4C759.9,91.2,759.4,90.6,758.6,90.5z M746.9,95.1c-1.9-0.2-3.2-1.9-3-3.7c0.2-1.9,1.9-3.2,3.7-3c1.8,0.2,3.2,1.9,3,3.7
					C750.4,93.9,748.8,95.3,746.9,95.1z"/>
			</g>
		</g>
		<g>
			<polygon class="st7" points="667,105.5 658.3,138.3 712.3,138.3 720.8,105.5"/>
			<polygon class="st1" points="667,105.5 658.3,138.3 712.3,138.3 720.8,105.5"/>
		</g>
	</g>
</g>
<rect x="1" y="144.3" class="st8" width="871" height="72"/>
<polygon class="st4" points="636.4,144.3 599.6,216.1 1,216.3 1,144.3 "/>
<g>
	<g>
		<path class="st3" d="M861.4,188.2l-6-2.3c0.1-1.3,0-2.6-0.2-3.8l5.5-2.4c1.3-0.6,1.9-2.1,1.3-3.4l-1-2.3c-0.6-1.3-2.1-1.9-3.4-1.3
			l-5.6,2.4c-0.8-1-1.8-2-3-2.8l2-5.2c0.5-1.3-0.1-2.8-1.5-3.3l-2.4-0.9c-1.3-0.5-2.8,0.1-3.3,1.5l-2,5.2c-1.5-0.2-3-0.1-4.4,0.1
			l-2.1-4.6c-0.6-1.3-2.1-1.9-3.4-1.3l-2.3,1c-1.3,0.6-1.9,2.1-1.3,3.4l2.1,4.7c-1.2,1-2.3,2.2-3.2,3.5l-4.5-1.7
			c-1.3-0.5-2.8,0.2-3.3,1.5l-0.9,2.4c-0.5,1.3,0.2,2.8,1.5,3.3l4.8,1.8c-0.1,1.6,0,3.2,0.4,4.7l-4.5,2c-1.3,0.6-1.9,2.1-1.3,3.4
			l1,2.3c0.6,1.3,2.1,1.9,3.4,1.3l5-2.2c1,1.1,2.1,2,3.4,2.8l-1.9,5c-0.5,1.3,0.2,2.8,1.5,3.3l2.4,0.9c1.3,0.5,2.8-0.2,3.3-1.5
			l2.2-5.6c1.4,0,2.7-0.1,4-0.4l2.4,5.3c0.6,1.3,2.1,1.9,3.4,1.3l2.3-1c1.3-0.6,1.9-2.1,1.3-3.4l-2.6-5.8c0.9-0.8,1.7-1.8,2.4-2.9
			l5.7,2.2c1.3,0.5,2.8-0.1,3.3-1.5l0.9-2.4C863.3,190.2,862.7,188.7,861.4,188.2z M837.9,190.7c-3.3-1.3-4.9-4.9-3.6-8.2
			c1.3-3.3,4.9-4.9,8.2-3.6s4.9,4.9,3.7,8.2C844.8,190.4,841.2,192,837.9,190.7z"/>
	</g>
</g>
<g>
	<g>
		<path class="st3" d="M821.9,167.9l-3.4-1.3c0-0.7,0-1.5-0.1-2.2l3.2-1.4c0.7-0.3,1.1-1.2,0.7-1.9l-0.6-1.3
			c-0.3-0.7-1.2-1.1-1.9-0.7l-3.2,1.4c-0.5-0.6-1.1-1.1-1.7-1.6l1.2-3c0.3-0.8-0.1-1.6-0.8-1.9l-1.4-0.5c-0.8-0.3-1.6,0.1-1.9,0.8
			l-1.2,3c-0.9-0.1-1.7-0.1-2.5,0.1l-1.3-2.7c-0.3-0.7-1.2-1.1-1.9-0.7l-1.3,0.6c-0.7,0.3-1.1,1.2-0.7,1.9l1.2,2.7
			c-0.7,0.6-1.3,1.2-1.8,2l-2.6-1c-0.8-0.3-1.6,0.1-1.9,0.8l-0.5,1.4c-0.3,0.8,0.1,1.6,0.8,1.9l2.7,1.1c-0.1,0.9,0,1.8,0.2,2.7
			l-2.6,1.1c-0.7,0.3-1.1,1.2-0.8,1.9l0.6,1.3c0.3,0.7,1.2,1.1,1.9,0.7l2.9-1.3c0.6,0.6,1.2,1.2,2,1.6l-1.1,2.9
			c-0.3,0.8,0.1,1.6,0.8,1.9l1.4,0.5c0.8,0.3,1.6-0.1,1.9-0.8l1.2-3.2c0.8,0,1.6,0,2.3-0.2l1.3,3c0.3,0.7,1.2,1.1,1.9,0.7l1.3-0.6
			c0.7-0.3,1.1-1.2,0.7-1.9l-1.5-3.3c0.5-0.5,1-1,1.4-1.6l3.2,1.2c0.8,0.3,1.6-0.1,1.9-0.8l0.5-1.4
			C823.1,169.1,822.7,168.2,821.9,167.9z M808.5,169.4c-1.9-0.7-2.8-2.8-2.1-4.7c0.7-1.9,2.8-2.8,4.7-2.1c1.9,0.7,2.8,2.8,2.1,4.7
			C812.5,169.2,810.3,170.1,808.5,169.4z"/>
	</g>
</g>
<rect y="216.3" class="st0" width="872" height="72"/>
<polygon class="st5" points="637.4,217 600.6,287.6 1,287.6 1,217 "/>
<g>
	<g>
		<path class="st6" d="M858.2,259.3l-5.3-2c0.1-1.1,0-2.3-0.2-3.4l4.9-2.2c1.1-0.5,1.7-1.8,1.2-3l-0.9-2.1c-0.5-1.1-1.8-1.6-3-1.1
			l-4.9,2.2c-0.8-0.9-1.6-1.8-2.6-2.5l1.8-4.6c0.5-1.2-0.1-2.5-1.3-2.9l-2.1-0.8c-1.2-0.5-2.5,0.1-2.9,1.3l-1.8,4.6
			c-1.3-0.2-2.6-0.1-3.9,0.1l-1.8-4.1c-0.5-1.1-1.8-1.6-3-1.1l-2.1,0.9c-1.1,0.5-1.6,1.9-1.1,3l1.9,4.2c-1.1,0.9-2,1.9-2.8,3.1
			l-4-1.5c-1.2-0.5-2.5,0.1-2.9,1.3l-0.8,2.1c-0.5,1.2,0.1,2.5,1.3,2.9l4.2,1.6c-0.1,1.4,0,2.8,0.3,4.2l-4,1.8
			c-1.1,0.5-1.7,1.9-1.2,3l0.9,2.1c0.5,1.1,1.9,1.7,3,1.1l4.4-2c0.9,0.9,1.9,1.8,3,2.5l-1.7,4.4c-0.5,1.2,0.1,2.5,1.3,2.9l2.1,0.8
			c1.2,0.4,2.5-0.1,2.9-1.3l1.9-5c1.2,0,2.4-0.1,3.6-0.4l2.1,4.7c0.5,1.1,1.8,1.7,3,1.2l2.1-0.9c1.1-0.5,1.7-1.8,1.1-3l-2.3-5.2
			c0.8-0.8,1.5-1.6,2.2-2.6l5,1.9c1.2,0.5,2.5-0.1,2.9-1.3l0.8-2.1C860,261.1,859.4,259.8,858.2,259.3z M837.4,261.6
			c-2.9-1.1-4.4-4.4-3.2-7.3c1.1-2.9,4.4-4.4,7.3-3.2c2.9,1.1,4.4,4.4,3.2,7.3S840.3,262.7,837.4,261.6z"/>
	</g>
</g>
<g>
	<g>
		<path class="st6" d="M823.2,241.4l-3-1.2c0-0.6,0-1.3-0.1-1.9l2.8-1.2c0.7-0.3,1-1,0.7-1.7l-0.5-1.2c-0.3-0.7-1.1-1-1.7-0.7
			l-2.8,1.3c-0.4-0.5-0.9-1-1.5-1.4l1-2.7c0.3-0.7-0.1-1.4-0.7-1.7l-1.2-0.5c-0.7-0.3-1.4,0.1-1.7,0.8l-1,2.7
			c-0.8-0.1-1.5-0.1-2.3,0.1l-1.1-2.4c-0.3-0.6-1.1-1-1.7-0.7l-1.2,0.5c-0.7,0.3-0.9,1.1-0.7,1.7l1.1,2.4c-0.6,0.5-1.2,1.1-1.6,1.8
			l-2.3-0.9c-0.7-0.3-1.4,0.1-1.7,0.8l-0.5,1.2c-0.3,0.7,0.1,1.4,0.8,1.7l2.4,0.9c-0.1,0.8,0,1.6,0.2,2.4l-2.3,1
			c-0.7,0.3-1,1.1-0.7,1.7l0.5,1.2c0.3,0.6,1.1,0.9,1.7,0.7l2.5-1.1c0.5,0.5,1.1,1,1.8,1.4l-1,2.5c-0.3,0.7,0.1,1.4,0.8,1.7l1.2,0.5
			c0.7,0.2,1.4-0.1,1.7-0.8l1.1-2.9c0.7,0,1.4,0,2.1-0.2l1.2,2.7c0.3,0.6,1.1,0.9,1.7,0.7l1.2-0.5c0.7-0.3,1-1.1,0.7-1.7l-1.3-3
			c0.5-0.4,0.9-0.9,1.2-1.5l2.9,1.1c0.7,0.3,1.4-0.1,1.7-0.8l0.5-1.2C824.2,242.4,823.9,241.6,823.2,241.4z M811.2,242.7
			c-1.7-0.6-2.5-2.5-1.9-4.2c0.6-1.7,2.5-2.5,4.2-1.9c1.7,0.6,2.5,2.5,1.9,4.2C814.8,242.5,812.9,243.3,811.2,242.7z"/>
	</g>
</g>
</svg>
