<?xml version="1.0" encoding="utf-8"?>
<!DOCTYPE svg PUBLIC "-//W3C//DTD SVG 1.1//EN" "http://www.w3.org/Graphics/SVG/1.1/DTD/svg11.dtd">
<svg version="1.1" id="Calque_1" xmlns="http://www.w3.org/2000/svg" xmlns:xlink="http://www.w3.org/1999/xlink" x="0px" y="0px"
	 width="872px" height="72px" viewBox="0 0 872 72" enable-background="new 0 0 872 72" xml:space="preserve">
<rect x="-1" y="-0.6" fill="#4D4D4D" width="872" height="72"/>
<polygon fill="#5B5B5B" points="585.4,0.1 548.6,70.7 1,70.7 1,0.1 "/>
<g opacity="0.49" enable-background="new    ">
	<g>
		<polygon fill="#868686" points="708.6,63.4 661.2,63.4 668.8,34.6 711.2,34.6 711.2,25.7 682.6,25.7 677.8,18.9 657.3,18.9 
			657.3,64.9 711.2,64.9 711.2,53.3 		"/>
		<g><g>
				<path fill="#000100" d="M714.9,22.8H710c-0.3-0.9-0.7-1.8-1.2-2.7l3.3-3.3c0.8-0.8,0.8-2,0-2.8l-1.4-1.4c-0.8-0.8-2-0.8-2.8,0
					l-3.3,3.3c-0.9-0.5-1.9-0.9-2.9-1.2v-4.3c0-1.1-0.9-2-2-2h-2c-1.1,0-2,0.9-2,2v4.3c-1.1,0.3-2.2,0.7-3.2,1.3l-2.8-2.8
					c-0.8-0.8-2-0.8-2.8,0l-1.4,1.4c-0.8,0.8-0.8,2,0,2.8l2.8,2.8c-0.6,1-1,2.2-1.3,3.4h-3.7c-1.1,0-2,0.9-2,2v2
					c0,1.1,0.9,1.9,2,1.9h3.9c0.4,1.2,0.9,2.3,1.6,3.3l-2.7,2.7c-0.8,0.8-0.8,2,0,2.8l1.4,1.4c0.8,0.8,2,0.8,2.8,0l3-3
					c1,0.5,2.1,0.9,3.2,1.1v4.1c0,1.1,0.9,2,2,2h2c1.1,0,2-0.9,2-2v-4.6c1-0.4,1.9-0.8,2.8-1.4l3.2,3.2c0.8,0.8,2,0.8,2.8,0l1.4-1.4
					c0.8-0.8,0.8-2,0-2.8l-3.5-3.5c0.4-0.9,0.8-1.8,1-2.7h4.7c1.1,0,2-0.9,2-2v-2C716.9,23.7,716,22.8,714.9,22.8z M698.8,31.1
					c-2.7,0-4.9-2.2-4.9-4.9s2.2-4.9,4.9-4.9c2.7,0,4.9,2.2,4.9,4.9C703.7,29,701.5,31.1,698.8,31.1z"/>
		</g></g>
		<g><g>
				<path fill="#000100" d="M730.5,13.3l-2.3,0.4c-0.2-0.4-0.5-0.8-0.8-1.1l1.2-1.8c0.3-0.4,0.2-1-0.2-1.3l-0.8-0.5
					c-0.4-0.3-1-0.2-1.3,0.2l-1.3,1.8c-0.5-0.2-1-0.3-1.5-0.3l-0.4-2c-0.1-0.5-0.6-0.8-1.1-0.8l-0.9,0.2c-0.5,0.1-0.8,0.6-0.8,1.1
					l0.4,2c-0.5,0.2-1,0.5-1.4,0.9L718,11c-0.4-0.3-1-0.2-1.3,0.2l-0.5,0.8c-0.3,0.4-0.2,1,0.2,1.3l1.6,1.1
					c-0.2,0.5-0.3,1.1-0.3,1.7l-1.7,0.3c-0.5,0.1-0.8,0.6-0.8,1.1l0.2,0.9c0.1,0.5,0.6,0.8,1.1,0.8l1.8-0.3c0.3,0.5,0.6,1,1,1.4
					l-1,1.5c-0.3,0.4-0.2,1,0.2,1.3l0.8,0.5c0.4,0.3,1,0.2,1.3-0.2l1.1-1.6c0.5,0.1,1.1,0.2,1.6,0.2l0.4,1.9
					c0.1,0.5,0.6,0.8,1.1,0.8l0.9-0.2c0.5-0.1,0.8-0.6,0.8-1.1l-0.4-2.2c0.4-0.2,0.8-0.6,1.2-0.9l1.8,1.2c0.4,0.3,1,0.2,1.3-0.2
					l0.5-0.8c0.3-0.4,0.2-1-0.2-1.3l-1.9-1.3c0.1-0.4,0.2-0.9,0.2-1.4L731,16c0.5-0.1,0.8-0.6,0.8-1.1l-0.2-0.9
					C731.5,13.5,731,13.2,730.5,13.3z M723.6,18.6c-1.3,0.2-2.5-0.6-2.7-1.9c-0.2-1.3,0.6-2.5,1.9-2.7c1.3-0.2,2.5,0.6,2.7,1.9
					C725.8,17.1,724.9,18.4,723.6,18.6z"/>
		</g></g>
		<g><g>
				<path fill="#000100" d="M757.6,17.6l-3.4-0.3c-0.1-0.7-0.4-1.3-0.7-1.9l2.5-2c0.6-0.5,0.7-1.3,0.2-1.9l-0.9-1
					c-0.5-0.6-1.3-0.7-1.9-0.2l-2.5,2.1c-0.6-0.4-1.2-0.8-1.9-1l0.3-3c0.1-0.8-0.5-1.4-1.2-1.5l-1.4-0.1c-0.8-0.1-1.4,0.5-1.5,1.2
					l-0.3,3c-0.8,0.1-1.6,0.4-2.3,0.7L741,9.4c-0.5-0.6-1.3-0.7-1.9-0.2L738,10c-0.6,0.5-0.7,1.3-0.2,1.9l1.8,2.1
					c-0.5,0.7-0.9,1.4-1.1,2.2l-2.5-0.3c-0.8-0.1-1.4,0.5-1.5,1.2l-0.1,1.4c-0.1,0.7,0.5,1.4,1.2,1.5l2.7,0.3
					c0.2,0.8,0.5,1.6,0.9,2.4l-2,1.7c-0.6,0.5-0.7,1.3-0.2,1.9l0.9,1c0.5,0.6,1.3,0.7,1.9,0.2l2.3-1.8c0.7,0.4,1.4,0.7,2.2,0.9
					l-0.3,2.8c-0.1,0.7,0.5,1.4,1.2,1.5l1.3,0.1c0.8,0.1,1.4-0.5,1.5-1.2l0.3-3.2c0.7-0.2,1.4-0.4,2-0.8l2,2.4
					c0.5,0.6,1.3,0.7,1.9,0.2l1-0.9c0.6-0.5,0.7-1.3,0.2-1.9l-2.2-2.6c0.4-0.6,0.7-1.2,0.9-1.8l3.2,0.3c0.8,0.1,1.4-0.5,1.5-1.2
					l0.1-1.4C758.9,18.3,758.4,17.7,757.6,17.6z M745.9,22.2c-1.9-0.2-3.2-1.9-3-3.7c0.2-1.9,1.9-3.2,3.7-3s3.2,1.9,3,3.7
					C749.4,21,747.8,22.4,745.9,22.2z"/>
		</g></g>
		<path fill="#C6C6C5" d="M666,32.6l-8.7,32.8h54l8.5-32.8H666z"/>
	</g>
</g>
</svg>
