<?xml version="1.0" encoding="utf-8"?>
<!DOCTYPE svg PUBLIC "-//W3C//DTD SVG 1.1//EN" "http://www.w3.org/Graphics/SVG/1.1/DTD/svg11.dtd">
<svg version="1.1" id="Calque_1" xmlns="http://www.w3.org/2000/svg" xmlns:xlink="http://www.w3.org/1999/xlink" x="0px" y="0px"
	 width="39.2px" height="20.2px" viewBox="0 0 39.2 20.2" style="enable-background:new 0 0 39.2 20.2;" xml:space="preserve">
<style type="text/css"><![CDATA[
	.st0{fill:#B2B2B2;}	.st1{fill:none;stroke:#95C11F;stroke-width:2;stroke-linecap:round;stroke-linejoin:round;stroke-miterlimit:10;} .st2{fill:#FFFFFF;}
]]></style>
<g>
	<path class="st2" d="M1.4,19.7c-0.5,0-0.9-0.4-0.9-0.9V7.9C0.5,7.4,0.9,7,1.4,7h10.8c0.5,0,0.9,0.4,0.9,0.9v10.8
		c0,0.5-0.4,0.9-0.9,0.9H1.4z"/>
	<path class="st0" d="M12.2,7.5c0.2,0,0.4,0.2,0.4,0.4v10.8c0,0.2-0.2,0.4-0.4,0.4H1.4C1.2,19.2,1,19,1,18.7V7.9
		c0-0.2,0.2-0.4,0.4-0.4H12.2 M12.2,6.5H1.4C0.6,6.5,0,7.1,0,7.9v10.8c0,0.8,0.6,1.4,1.4,1.4h10.8c0.8,0,1.4-0.6,1.4-1.4V7.9
		C13.6,7.1,13,6.5,12.2,6.5L12.2,6.5z"/>
</g>
<g>
	<path class="st2" d="M5.5,16.6c-0.5,0-0.9-0.4-0.9-0.9V4.9c0-0.5,0.4-0.9,0.9-0.9h10.8c0.5,0,0.9,0.4,0.9,0.9v10.8
		c0,0.5-0.4,0.9-0.9,0.9H5.5z"/>
	<path class="st0" d="M16.3,4.4c0.2,0,0.4,0.2,0.4,0.4v10.8c0,0.2-0.2,0.4-0.4,0.4H5.5c-0.2,0-0.4-0.2-0.4-0.4V4.9
		c0-0.2,0.2-0.4,0.4-0.4H16.3 M16.3,3.4H5.5c-0.8,0-1.4,0.6-1.4,1.4v10.8c0,0.8,0.6,1.4,1.4,1.4h10.8c0.8,0,1.4-0.6,1.4-1.4V4.9
		C17.8,4.1,17.1,3.4,16.3,3.4L16.3,3.4z"/>
</g>
<g>
	<path class="st2" d="M21,19.7c-0.5,0-0.9-0.4-0.9-0.9V7.9C20.1,7.4,20.5,7,21,7h10.8c0.5,0,0.9,0.4,0.9,0.9v10.8
		c0,0.5-0.4,0.9-0.9,0.9H21z"/>
	<path class="st0" d="M31.8,7.5c0.2,0,0.4,0.2,0.4,0.4v10.8c0,0.2-0.2,0.4-0.4,0.4H21c-0.2,0-0.4-0.2-0.4-0.4V7.9
		c0-0.2,0.2-0.4,0.4-0.4H31.8 M31.8,6.5H21c-0.8,0-1.4,0.6-1.4,1.4v10.8c0,0.8,0.6,1.4,1.4,1.4h10.8c0.8,0,1.4-0.6,1.4-1.4V7.9
		C33.2,7.1,32.6,6.5,31.8,6.5L31.8,6.5z"/>
</g>
<g>
	<path class="st2" d="M25.1,16.6c-0.5,0-0.9-0.4-0.9-0.9V4.9c0-0.5,0.4-0.9,0.9-0.9h10.8c0.5,0,0.9,0.4,0.9,0.9v10.8
		c0,0.5-0.4,0.9-0.9,0.9H25.1z"/>
	<path class="st0" d="M35.9,4.4c0.2,0,0.4,0.2,0.4,0.4v10.8c0,0.2-0.2,0.4-0.4,0.4H25.1c-0.2,0-0.4-0.2-0.4-0.4V4.9
		c0-0.2,0.2-0.4,0.4-0.4H35.9 M35.9,3.4H25.1c-0.8,0-1.4,0.6-1.4,1.4v10.8c0,0.8,0.6,1.4,1.4,1.4h10.8c0.8,0,1.4-0.6,1.4-1.4V4.9
		C37.3,4.1,36.7,3.4,35.9,3.4L35.9,3.4z"/>
</g>
<polyline class="st1" points="7.3,8.8 11.4,13.3 16,2.2 "/>
</svg>
