<svg xmlns="http://www.w3.org/2000/svg" width="39.2" height="20.2" viewBox="0 0 39.2 20.2"><style type="text/css"><![CDATA[
	.st0{fill:#B2B2B2;}	.st1{fill:none;stroke:#95C11F;stroke-width:2;stroke-linecap:round;stroke-linejoin:round;stroke-miterlimit:10;} .st2{fill:#FFFFFF;}
]]></style><path class="st2" d="M1.4 19.7c-.5 0-.9-.4-.9-.9V7.9c0-.5.4-.9.9-.9h10.8c.5 0 .9.4.9.9v10.8c0 .5-.4.9-.9.9H1.4z"/><path class="st0" d="M12.2 7.5c.2 0 .4.2.4.4v10.8c0 .2-.2.4-.4.4H1.4c-.2.1-.4-.1-.4-.4V7.9c0-.2.2-.4.4-.4h10.8m0-1H1.4C.6 6.5 0 7.1 0 7.9v10.8c0 .8.6 1.4 1.4 1.4h10.8c.8 0 1.4-.6 1.4-1.4V7.9c0-.8-.6-1.4-1.4-1.4z"/><path class="st2" d="M5.5 16.6c-.5 0-.9-.4-.9-.9V4.9c0-.5.4-.9.9-.9h10.8c.5 0 .9.4.9.9v10.8c0 .5-.4.9-.9.9H5.5z"/><path class="st0" d="M16.3 4.4c.2 0 .4.2.4.4v10.8c0 .2-.2.4-.4.4H5.5c-.2 0-.4-.2-.4-.4V4.9c0-.2.2-.4.4-.4h10.8m0-1.1H5.5c-.8 0-1.4.6-1.4 1.4v10.8c0 .8.6 1.4 1.4 1.4h10.8c.8 0 1.4-.6 1.4-1.4V4.9c.1-.8-.6-1.5-1.4-1.5z"/><path class="st2" d="M21 19.7c-.5 0-.9-.4-.9-.9V7.9c0-.5.4-.9.9-.9h10.8c.5 0 .9.4.9.9v10.8c0 .5-.4.9-.9.9H21z"/><path class="st0" d="M31.8 7.5c.2 0 .4.2.4.4v10.8c0 .2-.2.4-.4.4H21c-.2 0-.4-.2-.4-.4V7.9c0-.2.2-.4.4-.4h10.8m0-1H21c-.8 0-1.4.6-1.4 1.4v10.8c0 .8.6 1.4 1.4 1.4h10.8c.8 0 1.4-.6 1.4-1.4V7.9c0-.8-.6-1.4-1.4-1.4z"/><path class="st2" d="M25.1 16.6c-.5 0-.9-.4-.9-.9V4.9c0-.5.4-.9.9-.9h10.8c.5 0 .9.4.9.9v10.8c0 .5-.4.9-.9.9H25.1z"/><path class="st0" d="M35.9 4.4c.2 0 .4.2.4.4v10.8c0 .2-.2.4-.4.4H25.1c-.2 0-.4-.2-.4-.4V4.9c0-.2.2-.4.4-.4h10.8m0-1.1H25.1c-.8 0-1.4.6-1.4 1.4v10.8c0 .8.6 1.4 1.4 1.4h10.8c.8 0 1.4-.6 1.4-1.4V4.9c0-.8-.6-1.5-1.4-1.5z"/><path class="st1" d="M7.3 8.8l4.1 4.5L16 2.2"/></svg>