<?xml version="1.0" encoding="utf-8"?>
<!DOCTYPE svg PUBLIC "-//W3C//DTD SVG 1.1//EN" "http://www.w3.org/Graphics/SVG/1.1/DTD/svg11.dtd">
<svg version="1.1" id="Calque_1" xmlns="http://www.w3.org/2000/svg" xmlns:xlink="http://www.w3.org/1999/xlink" x="0px" y="0px"
	 width="872px" height="282.4px" viewBox="0 0 872 282.4" style="enable-background:new 0 0 872 282.4;" xml:space="preserve">
<style type="text/css">
<![CDATA[
	.st0{opacity:0.5;fill:#337A6C;enable-background:new;}
	.st1{fill:#4D4D4D;}
	.st2{opacity:0.25;fill:#337A6C;enable-background:new;}
	.st3{fill:#B2DBD3;}
	.st4{opacity:0.29;}
	.st5{opacity:0.5;fill:#3C3C3B;enable-background:new;}
	.st6{fill:#5B5B5B;}
	.st7{opacity:0.25;fill:#3C3C3B;enable-background:new;}
	.st8{fill:#95C9BF;}
	.st9{opacity:0.75;fill:#337A6C;enable-background:new;}
	.st10{opacity:0.15;fill:#337A6C;enable-background:new;}
	.st11{fill:#337A6C;}
	.st12{fill:#3C3C3B;}
	.st13{opacity:0.75;fill:#3C3C3B;enable-background:new;}
	.st14{opacity:0.15;fill:#3C3C3B;enable-background:new;}
]]>
</style>
<rect x="-0.3" y="0.7" class="st8" width="872" height="70.4"/>
<polygon class="st3" points="573.1,1 536.7,70.7 -0.3,70.9 -0.3,1 "/>
<g class="st4">
	<path class="st11" d="M855.4,47.9c-0.9,7.8-8.1,13.5-15.9,12.6c-7.9-0.9-13.5-8.1-12.6-16c0.9-7.9,8.1-13.5,15.9-12.6
		C850.8,32.9,856.4,40,855.4,47.9z"/>
	<path class="st11" d="M825.9,25l-4-6.9c-15.1,8.8-20.3,28.2-11.6,43.3l6.9-4C810.6,46.1,814.5,31.5,825.9,25z"/>
	<path class="st9" d="M808.2,8.6l-4-6.9c-22.7,13.2-30.4,42.3-17.3,65.1l6.8-4C782.9,43.9,789.3,19.6,808.2,8.6z"/>
	<path class="st10" d="M691.8,72.3c-12.2-22.7-13.3-49-4.7-72h-8.4c-7.9,23.1-6.8,49,4.2,72H691.8z"/>
	<path class="st10" d="M719.8,70.9c-10.3-23-9.9-48.6-0.3-70.6h-8.6c-8.7,22.2-9.1,47.4,0.3,70.6H719.8z"/>
	<path class="st2" d="M745.8,70.9c-12-23-10.3-49.8,2.5-70.6h-9.1c-11.4,21.3-12.8,47.4-2.2,70.6H745.8z"/>
	<path class="st0" d="M765.3,71.2l5.1-3c-13-22.6-8.4-50.6,9.6-67.9h-11.2c-15.8,19.6-19,47.6-6.2,70.8h2.7V71.2z"/>
</g>
<rect x="-0.1" y="71.3" class="st1" width="872" height="70.4"/>
<polygon class="st6" points="573.8,71.6 537.4,141.5 -0.1,141.5 -0.1,71.6 "/>
<g class="st4">
	<path class="st12" d="M855.6,118.5c-0.9,7.8-8,13.5-15.9,12.6c-7.9-0.9-13.5-8.1-12.6-16c0.9-7.9,8.1-13.5,15.9-12.6
		C851,103.5,856.6,110.6,855.6,118.5z"/>
	<path class="st12" d="M826,95.6l-4-6.9c-15.1,8.8-20.3,28.2-11.6,43.4l6.8-4C810.8,116.7,814.7,102.2,826,95.6z"/>
	<path class="st13" d="M808.4,79.2l-4-6.9c-22.7,13.2-30.5,42.3-17.4,65.1l6.9-4C783,114.5,789.5,90.2,808.4,79.2z"/>
	<path class="st14" d="M692,142.9c-12.2-22.7-13.3-49-4.7-72h-8.4c-7.9,23.1-6.8,49,4.2,72H692z"/>
	<path class="st14" d="M720,141.5c-10.3-23-9.9-48.6-0.3-70.6H711c-8.7,22.2-9.1,47.4,0.3,70.6H720z"/>
	<path class="st7" d="M746,141.5c-12-23-10.3-49.8,2.5-70.6h-9.1c-11.4,21.3-12.8,47.5-2.2,70.6H746z"/>
	<path class="st5" d="M765.5,141.8l5.1-3c-13-22.6-8.4-50.6,9.6-67.9H769c-15.8,19.6-19,47.5-6.2,70.8L765.5,141.8L765.5,141.8z"/>
</g>
<rect x="-0.3" y="141.9" class="st8" width="872" height="70.4"/>
<polygon class="st3" points="573.1,142.2 536.7,211.9 -0.3,212.1 -0.3,142.2 "/>
<g class="st4">
	<path class="st11" d="M780.3,184.3c0.2,4-2.8,7.5-6.8,7.8c-4,0.2-7.5-2.8-7.8-6.9c-0.2-4,2.8-7.5,6.8-7.8
		C776.6,177.2,780.1,180.3,780.3,184.3z"/>
	<path class="st11" d="M764.7,174.3l-3.5-2.2c-6.8,5.8-8.1,16.3-2.3,23.1l3.1-2.6C757.7,187.5,759.6,178.7,764.7,174.3z"/>
	<path class="st9" d="M753.3,168l-3.4-1.9c-10.2,8.7-10.4,24.6-1.8,34.8l3.6-2.8C744.6,189.6,744.8,175.2,753.3,168z"/>
	<path class="st0" d="M741.9,160.3l-3.8-2.4c-11,11.8-10.9,34.1-0.6,49.1l3.5-2.6C732.5,192,732.7,170.1,741.9,160.3z"/>
	<path class="st2" d="M729.8,151.5l-4.5-3.5c-13.9,20.9-12.5,43.7-1.7,64.4h6.2C719.3,196.7,716.9,167.9,729.8,151.5z"/>
	<path class="st10" d="M715.7,212.4c-8.8-15.3-14.6-45.1,2.8-68.4l-3.8-2c-19.3,23.8-13,54.9-5,70.4H715.7L715.7,212.4z"/>
</g>
<g class="st4">
	<path class="st11" d="M832.1,158.1c0.2,4-2.8,7.5-6.8,7.8c-4,0.2-7.5-2.8-7.8-6.9s2.8-7.5,6.8-7.8
		C828.3,151,831.8,154.1,832.1,158.1z"/>
	<path class="st11" d="M816.5,148.1l-3.5-2.2c-6.8,5.8-8.1,16.3-2.3,23.1l3.1-2.6C809.4,161.3,811.4,152.5,816.5,148.1z"/>
	<path class="st9" d="M805.1,141.8l-5.5,0.1c-8.1,7.8-8.3,22.5,0.4,32.7l3.6-2.8C796.3,163.4,797.9,147.9,805.1,141.8z"/>
	<path class="st0" d="M789.2,141.9h-5.4c-4.4,7.5-4.8,23.9,5.5,38.9l3.5-2.6C784.2,165.7,784.7,147.9,789.2,141.9z"/>
	<path class="st2" d="M773.9,141.9h-5.3c-2.9,10.9-3.1,25.5,7.8,46.2l4.8-2.9C770.6,169.6,770.8,150.5,773.9,141.9z"/>
	<path class="st10" d="M769.6,191.5c-8.8-15.3-13.7-40.2-9-49.2l-4.9-0.3c-6,11.4,0.2,38.9,10.2,52.6L769.6,191.5z"/>
</g>
<g class="st4">
	<path class="st11" d="M860.7,196.4c0.2,4-2.8,7.5-6.8,7.8c-4,0.2-7.5-2.8-7.8-6.9c-0.2-4,2.8-7.5,6.8-7.8
		C857,189.3,860.4,192.4,860.7,196.4z"/>
	<path class="st11" d="M845.1,186.4l-3.5-2.2c-6.8,5.8-8.1,16.3-2.3,23.1l3.1-2.6C838.1,199.6,840,190.7,845.1,186.4z"/>
	<path class="st9" d="M833.7,180.1l-3.4-1.9c-10.2,8.7-10.3,24-1.7,34.2l3.6-2.2C824.9,201.7,825.2,187.3,833.7,180.1z"/>
	<path class="st0" d="M822.2,172.4l-3.8-2.4c-11,11.8-10.2,31.3-4.5,42.4h5C812.3,200.4,813.1,182.2,822.2,172.4z"/>
	<path class="st2" d="M810.2,163.6l-4.5-3.5c-13.9,20.9-12.1,38.2-6.3,52.3h5.7C798.8,199.7,797.3,179.9,810.2,163.6z"/>
	<path class="st10" d="M791.4,212.4c-4.8-15.5-9.9-33,7.5-56.3l-3.8-2c-19.3,23.8-13.4,43.9-8.9,58.3H791.4z"/>
</g>
<rect x="-0.3" y="212.2" class="st1" width="872" height="70.4"/>
<polygon class="st6" points="573.1,212.5 536.7,282.2 -0.3,282.4 -0.3,212.5 "/>
<g>
	<path class="st12" d="M780.3,254.6c0.2,4-2.8,7.5-6.8,7.8c-4,0.2-7.5-2.8-7.8-6.9c-0.2-4,2.8-7.5,6.8-7.8
		C776.6,247.5,780.1,250.6,780.3,254.6z"/>
	<path class="st12" d="M764.7,244.6l-3.5-2.2c-6.8,5.8-8.1,16.3-2.3,23.1l3.1-2.6C757.7,257.8,759.6,249,764.7,244.6z"/>
	<path class="st13" d="M753.3,238.3l-3.4-1.9c-10.2,8.7-10.4,24.6-1.8,34.8l3.6-2.8C744.6,259.9,744.8,245.5,753.3,238.3z"/>
	<path class="st5" d="M741.9,230.6l-3.8-2.4c-11,11.8-10.9,34.1-0.6,49.1l3.5-2.6C732.5,262.3,732.7,240.4,741.9,230.6z"/>
	<path class="st7" d="M729.8,221.8l-4.5-3.5c-13.9,20.9-12.5,43.7-1.7,64.4h6.2C719.3,267,716.9,238.2,729.8,221.8z"/>
	<path class="st14" d="M715.7,282.7c-8.8-15.3-14.6-45.1,2.8-68.4l-3.8-2c-19.3,23.8-13,54.9-5,70.4H715.7L715.7,282.7z"/>
</g>
<g>
	<path class="st12" d="M832.1,228.4c0.2,4-2.8,7.5-6.8,7.8c-4,0.2-7.5-2.8-7.8-6.9s2.8-7.5,6.8-7.8
		C828.3,221.3,831.8,224.4,832.1,228.4z"/>
	<path class="st12" d="M816.5,218.4l-3.5-2.2c-6.8,5.8-8.1,16.3-2.3,23.1l3.1-2.6C809.4,231.6,811.4,222.8,816.5,218.4z"/>
	<path class="st13" d="M805.1,212.1l-5.5,0.1c-8.1,7.8-8.3,22.5,0.4,32.7l3.6-2.8C796.3,233.7,797.9,218.2,805.1,212.1z"/>
	<path class="st5" d="M789.2,212.2h-5.4c-4.4,7.5-4.8,23.9,5.5,38.9l3.5-2.6C784.2,236,784.7,218.2,789.2,212.2z"/>
	<path class="st7" d="M773.9,212.2h-5.3c-2.9,10.9-3.1,25.5,7.8,46.2l4.8-2.9C770.6,239.9,770.8,220.8,773.9,212.2z"/>
	<path class="st14" d="M769.6,261.8c-8.8-15.3-13.7-40.2-9-49.2l-4.9-0.3c-6,11.4,0.2,38.9,10.2,52.6L769.6,261.8z"/>
</g>
<g>
	<path class="st12" d="M860.7,266.7c0.2,4-2.8,7.5-6.8,7.8c-4,0.2-7.5-2.8-7.8-6.9c-0.2-4,2.8-7.5,6.8-7.8
		C857,259.6,860.4,262.7,860.7,266.7z"/>
	<path class="st12" d="M845.1,256.7l-3.5-2.2c-6.8,5.8-8.1,16.3-2.3,23.1l3.1-2.6C838.1,269.9,840,261,845.1,256.7z"/>
	<path class="st13" d="M833.7,250.4l-3.4-1.9c-10.2,8.7-10.3,24-1.7,34.2l3.6-2.2C824.9,272,825.2,257.6,833.7,250.4z"/>
	<path class="st5" d="M822.2,242.7l-3.8-2.4c-11,11.8-10.2,31.3-4.5,42.4h5C812.3,270.7,813.1,252.5,822.2,242.7z"/>
	<path class="st7" d="M810.2,233.9l-4.5-3.5c-13.9,20.9-12.1,38.2-6.3,52.3h5.7C798.8,270,797.3,250.2,810.2,233.9z"/>
	<path class="st14" d="M791.4,282.7c-4.8-15.5-9.9-33,7.5-56.3l-3.8-2c-19.3,23.8-13.4,43.9-8.9,58.3H791.4z"/>
</g>
</svg>
