<?xml version="1.0" encoding="utf-8"?>
<!DOCTYPE svg PUBLIC "-//W3C//DTD SVG 1.1//EN" "http://www.w3.org/Graphics/SVG/1.1/DTD/svg11.dtd">
<svg version="1.1" id="Calque_1" xmlns="http://www.w3.org/2000/svg" xmlns:xlink="http://www.w3.org/1999/xlink" x="0px" y="0px"
	 width="872px" height="72px" viewBox="0 0 872 72" enable-background="new 0 0 872 72" xml:space="preserve">
<rect x="-0.32" y="0.74" fill="#4D4D4D" width="872" height="70.41"/>
<polygon fill="#5B5B5B" points="573.08,0.99 536.7,70.66 -0.32,70.9 -0.3,0.99 "/>
<g>
	<path fill="#3C3C3B" d="M780.33,43.14c0.25,4.02-2.81,7.51-6.83,7.75c-4.03,0.25-7.5-2.82-7.75-6.86
		c-0.25-4.04,2.81-7.51,6.83-7.77C776.61,36.02,780.08,39.09,780.33,43.14z"/>
	<path fill="#3C3C3B" d="M764.72,33.14l-3.48-2.23c-6.78,5.78-8.06,16.31-2.31,23.12l3.07-2.62
		C757.7,46.3,759.64,37.47,764.72,33.14z"/>
	<path opacity="0.75" fill="#3C3C3B" enable-background="new    " d="M753.33,26.79l-3.42-1.92c-10.17,8.67-10.4,24.58-1.77,34.8
		l3.62-2.75C744.57,48.41,744.85,34.02,753.33,26.79z"/>
	<path opacity="0.5" fill="#3C3C3B" enable-background="new    " d="M741.89,19.1l-3.75-2.39c-11,11.78-10.91,34.1-0.59,49.12
		l3.51-2.57C732.45,50.75,732.72,28.92,741.89,19.1z"/>
	<path opacity="0.25" fill="#3C3C3B" enable-background="new    " d="M729.8,10.27l-4.47-3.53c-13.94,20.93-12.53,43.66-1.71,64.41
		h6.22C719.27,55.48,716.94,26.66,729.8,10.27z"/>
	<path opacity="0.15" fill="#3C3C3B" enable-background="new    " d="M715.69,71.15c-8.84-15.29-14.56-45.08,2.8-68.4l-3.83-2.01
		c-19.31,23.76-13.03,54.91-5.05,70.41L715.69,71.15L715.69,71.15z"/>
</g>
<g>
	<path fill="#3C3C3B" d="M832.06,16.94c0.24,4.02-2.81,7.51-6.83,7.75c-4.03,0.25-7.5-2.82-7.75-6.86
		c-0.25-4.04,2.81-7.51,6.83-7.77C828.34,9.82,831.81,12.89,832.06,16.94z"/>
	<path fill="#3C3C3B" d="M816.46,6.94l-3.48-2.23c-6.77,5.78-8.06,16.31-2.31,23.12l3.07-2.62
		C809.44,20.11,811.38,11.27,816.46,6.94z"/>
	<path opacity="0.75" fill="#3C3C3B" enable-background="new    " d="M805.06,0.6l-5.54,0.15c-8.11,7.84-8.29,22.52,0.35,32.73
		l3.62-2.75C796.3,22.21,797.92,6.74,805.06,0.6z"/>
	<path opacity="0.5" fill="#3C3C3B" enable-background="new    " d="M789.17,0.74h-5.37c-4.38,7.51-4.83,23.87,5.49,38.9l3.51-2.57
		C784.19,24.55,784.67,6.74,789.17,0.74z"/>
	<path opacity="0.25" fill="#3C3C3B" enable-background="new    " d="M773.92,0.74h-5.31c-2.89,10.92-3.05,25.49,7.76,46.23
		l4.84-2.87C770.64,28.43,770.83,9.33,773.92,0.74z"/>
	<path opacity="0.15" fill="#3C3C3B" enable-background="new    " d="M769.58,50.27c-8.83-15.29-13.67-40.21-9-49.21l-4.9-0.32
		c-6.02,11.42,0.22,38.9,10.19,52.61L769.58,50.27z"/>
</g>
<g>
	<path fill="#3C3C3B" d="M860.69,55.21c0.24,4.02-2.81,7.51-6.83,7.75c-4.03,0.25-7.5-2.82-7.75-6.86
		c-0.25-4.04,2.81-7.51,6.83-7.77C856.97,48.09,860.44,51.17,860.69,55.21z"/>
	<path fill="#3C3C3B" d="M845.08,45.21l-3.48-2.23c-6.77,5.78-8.06,16.31-2.31,23.13l3.07-2.62C838.06,58.38,840,49.54,845.08,45.21
		z"/>
	<path opacity="0.75" fill="#3C3C3B" enable-background="new    " d="M833.69,38.87l-3.42-1.92c-10.17,8.67-10.34,24.02-1.7,34.24
		l3.56-2.19C824.93,60.48,825.21,46.1,833.69,38.87z"/>
	<path opacity="0.5" fill="#3C3C3B" enable-background="new    " d="M822.25,31.18l-3.75-2.39c-11,11.78-10.16,31.29-4.53,42.36
		h5.05C812.33,59.25,813.08,41,822.25,31.18z"/>
	<path opacity="0.25" fill="#3C3C3B" enable-background="new    " d="M810.16,22.35l-4.47-3.53c-13.94,20.93-12.07,38.18-6.32,52.33
		h5.69C798.85,58.5,797.3,38.73,810.16,22.35z"/>
	<path opacity="0.15" fill="#3C3C3B" enable-background="new    " d="M791.39,71.15c-4.77-15.5-9.9-33,7.45-56.32l-3.83-2.01
		c-19.31,23.76-13.44,43.93-8.92,58.33H791.39z"/>
</g>
</svg>
