<?xml version="1.0" encoding="utf-8"?>
<!DOCTYPE svg PUBLIC "-//W3C//DTD SVG 1.1//EN" "http://www.w3.org/Graphics/SVG/1.1/DTD/svg11.dtd">
<svg version="1.1" id="Calque_1" xmlns="http://www.w3.org/2000/svg" xmlns:xlink="http://www.w3.org/1999/xlink" x="0px" y="0px"
	 width="872px" height="72px" viewBox="0 0 872 72" style="enable-background:new 0 0 872 72;" xml:space="preserve">
<style type="text/css"><![CDATA[
	.st0{fill:#4D4D4D;} .st1{opacity:0.5;fill:#3C3C3B;enable-background:new;} .st2{fill:#5B5B5B;}
	.st3{opacity:0.25;fill:#3C3C3B;enable-background:new;} .st4{fill:#3C3C3B;}
	.st5{opacity:0.75;fill:#3C3C3B;enable-background:new;}
	.st6{opacity:0.15;fill:#3C3C3B;enable-background:new;}
]]></style>
<rect x="-0.3" y="0.7" class="st0" width="872" height="70.4"/>
<polygon class="st2" points="573.1,1 536.7,70.7 -0.3,70.9 -0.3,1 "/>
<g>
	<path class="st4" d="M780.3,43.1c0.2,4-2.8,7.5-6.8,7.8c-4,0.2-7.5-2.8-7.8-6.9c-0.2-4,2.8-7.5,6.8-7.8
		C776.6,36,780.1,39.1,780.3,43.1z"/>
	<path class="st4" d="M764.7,33.1l-3.5-2.2c-6.8,5.8-8.1,16.3-2.3,23.1l3.1-2.6C757.7,46.3,759.6,37.5,764.7,33.1z"/>
	<path class="st5" d="M753.3,26.8l-3.4-1.9c-10.2,8.7-10.4,24.6-1.8,34.8l3.6-2.8C744.6,48.4,744.8,34,753.3,26.8z"/>
	<path class="st1" d="M741.9,19.1l-3.8-2.4c-11,11.8-10.9,34.1-0.6,49.1l3.5-2.6C732.5,50.8,732.7,28.9,741.9,19.1z"/>
	<path class="st3" d="M729.8,10.3l-4.5-3.5c-13.9,20.9-12.5,43.7-1.7,64.4h6.2C719.3,55.5,716.9,26.7,729.8,10.3z"/>
	<path class="st6" d="M715.7,71.2c-8.8-15.3-14.6-45.1,2.8-68.4l-3.8-2c-19.3,23.8-13,54.9-5,70.4H715.7L715.7,71.2z"/>
</g>
<g>
	<path class="st4" d="M832.1,16.9c0.2,4-2.8,7.5-6.8,7.8c-4,0.2-7.5-2.8-7.8-6.9s2.8-7.5,6.8-7.8C828.3,9.8,831.8,12.9,832.1,16.9z"	/>
	<path class="st4" d="M816.5,6.9L813,4.7c-6.8,5.8-8.1,16.3-2.3,23.1l3.1-2.6C809.4,20.1,811.4,11.3,816.5,6.9z"/>
	<path class="st5" d="M805.1,0.6l-5.5,0.1c-8.1,7.8-8.3,22.5,0.4,32.7l3.6-2.8C796.3,22.2,797.9,6.7,805.1,0.6z"/>
	<path class="st1" d="M789.2,0.7h-5.4c-4.4,7.5-4.8,23.9,5.5,38.9l3.5-2.6C784.2,24.5,784.7,6.7,789.2,0.7z"/>
	<path class="st3" d="M773.9,0.7h-5.3c-2.9,10.9-3.1,25.5,7.8,46.2l4.8-2.9C770.6,28.4,770.8,9.3,773.9,0.7z"/>
	<path class="st6" d="M769.6,50.3c-8.8-15.3-13.7-40.2-9-49.2l-4.9-0.3c-6,11.4,0.2,38.9,10.2,52.6L769.6,50.3z"/>
</g>
<g>
	<path class="st4" d="M860.7,55.2c0.2,4-2.8,7.5-6.8,7.8c-4,0.2-7.5-2.8-7.8-6.9c-0.2-4,2.8-7.5,6.8-7.8
		C857,48.1,860.4,51.2,860.7,55.2z"/>
	<path class="st4" d="M845.1,45.2l-3.5-2.2c-6.8,5.8-8.1,16.3-2.3,23.1l3.1-2.6C838.1,58.4,840,49.5,845.1,45.2z"/>
	<path class="st5" d="M833.7,38.9l-3.4-1.9c-10.2,8.7-10.3,24-1.7,34.2l3.6-2.2C824.9,60.5,825.2,46.1,833.7,38.9z"/>
	<path class="st1" d="M822.2,31.2l-3.8-2.4c-11,11.8-10.2,31.3-4.5,42.4h5C812.3,59.2,813.1,41,822.2,31.2z"/>
	<path class="st3" d="M810.2,22.4l-4.5-3.5c-13.9,20.9-12.1,38.2-6.3,52.3h5.7C798.8,58.5,797.3,38.7,810.2,22.4z"/>
	<path class="st6" d="M791.4,71.2c-4.8-15.5-9.9-33,7.5-56.3l-3.8-2c-19.3,23.8-13.4,43.9-8.9,58.3H791.4z"/>
</g>
</svg>
