<?xml version="1.0" encoding="utf-8"?>
<!DOCTYPE svg PUBLIC "-//W3C//DTD SVG 1.1//EN" "http://www.w3.org/Graphics/SVG/1.1/DTD/svg11.dtd">
<svg version="1.1" id="Calque_1" xmlns="http://www.w3.org/2000/svg" xmlns:xlink="http://www.w3.org/1999/xlink" x="0px" y="0px"
	 width="65px" height="65px" viewBox="0 0 65 65" enable-background="new 0 0 65 65" xml:space="preserve">
<circle fill="#2E8BBF" cx="53.49" cy="32.23" r="6.71"/>
<path fill="#2E8BBF" d="M38.06,52.81c0,0-10.91-6.25-10.25-21.02c0.67-14.76,10.29-20.11,10.29-20.11l7.8,6.32
	c0,0-7.82,5.69-7.97,14.22c-0.14,8.52,7.31,14.77,7.31,14.77L38.06,52.81z"/>
<path fill="#2E8BBF" d="M23.17,64.88c0,0-16.85-14.11-16.28-32.38C7.52,12.54,23.34-0.28,23.34-0.28l7.8,6.32
	c0,0-14.29,9.1-14.14,26.89c0.14,15.69,13.35,26.14,13.35,26.14L23.17,64.88z"/>
</svg>
