<?xml version="1.0" encoding="utf-8"?>
<!DOCTYPE svg PUBLIC "-//W3C//DTD SVG 1.1//EN" "http://www.w3.org/Graphics/SVG/1.1/DTD/svg11.dtd">
<svg version="1.1" id="Calque_1" xmlns="http://www.w3.org/2000/svg" xmlns:xlink="http://www.w3.org/1999/xlink" x="0px" y="0px"
	 width="872px" height="72px" viewBox="0 0 872 72" enable-background="new 0 0 872 72" xml:space="preserve">
<rect x="-0.32" y="0.74" fill="#95C9BF" width="872" height="70.41"/>
<polygon fill="#B2DBD3" points="573.08,0.99 536.7,70.66 -0.32,70.9 -0.3,0.99 "/>
<g opacity="0.29">
	<path fill="#337A6C" d="M855.44,47.92c-0.94,7.85-8.06,13.52-15.92,12.57c-7.87-0.92-13.5-8.08-12.56-15.97
		c0.93-7.89,8.06-13.52,15.93-12.6C850.76,32.86,856.38,40.01,855.44,47.92z"/>
	<path fill="#337A6C" d="M825.86,24.97l-3.97-6.88c-15.11,8.78-20.29,28.17-11.58,43.35l6.85-3.98
		C810.64,46.09,814.52,31.55,825.86,24.97z"/>
	<path opacity="0.75" fill="#337A6C" enable-background="new    " d="M808.24,8.63l-3.97-6.87c-22.69,13.18-30.45,42.29-17.35,65.05
		l6.85-3.98C782.87,43.86,789.33,19.6,808.24,8.63z"/>
	<path opacity="0.07" fill="#337A6C" enable-background="new    " d="M691.82,72.32c-12.19-22.73-13.34-49.02-4.7-72h-8.43
		c-7.87,23.12-6.81,49.02,4.23,72H691.82z"/>
	<path opacity="0.15" fill="#337A6C" enable-background="new    " d="M719.76,70.9c-10.33-23.01-9.89-48.63-0.34-70.58h-8.58
		c-8.71,22.18-9.06,47.44,0.31,70.58H719.76z"/>
	<path opacity="0.25" fill="#337A6C" enable-background="new    " d="M745.8,70.9c-12.02-22.96-10.32-49.77,2.49-70.58h-9.13
		c-11.4,21.33-12.82,47.45-2.19,70.58H745.8z"/>
	<path opacity="0.5" fill="#337A6C" enable-background="new    " d="M765.29,71.15l5.12-2.98c-13.01-22.6-8.37-50.56,9.61-67.85
		h-11.17c-15.77,19.61-18.99,47.55-6.23,70.83L765.29,71.15L765.29,71.15z"/>
</g>
</svg>
