<?xml version="1.0" encoding="utf-8"?>
<!DOCTYPE svg PUBLIC "-//W3C//DTD SVG 1.1//EN" "http://www.w3.org/Graphics/SVG/1.1/DTD/svg11.dtd">
<svg version="1.1" id="Calque_1" xmlns="http://www.w3.org/2000/svg" xmlns:xlink="http://www.w3.org/1999/xlink" x="0px" y="0px"
	 width="65px" height="65px" viewBox="0 0 65 65" enable-background="new 0 0 65 65" xml:space="preserve">
<circle fill="#2E8BBF" cx="53.5" cy="32.2" r="6.7"/>
<path fill="#2E8BBF" d="M38.1,52.8c0,0-10.9-6.2-10.3-21C28.5,17,38.1,11.7,38.1,11.7l7.8,6.3c0,0-7.8,5.7-8,14.2
	C37.8,40.7,45.2,47,45.2,47L38.1,52.8z"/>
<path fill="#2E8BBF" d="M23.2,64.9c0,0-16.9-14.1-16.3-32.4c0.6-20,16.4-32.8,16.4-32.8L31.1,6c0,0-14.3,9.1-14.1,26.9
	c0.1,15.7,13.4,26.1,13.4,26.1L23.2,64.9z"/>
</svg>
