<?xml version="1.0" encoding="utf-8"?>
<!DOCTYPE svg PUBLIC "-//W3C//DTD SVG 1.1//EN" "http://www.w3.org/Graphics/SVG/1.1/DTD/svg11.dtd">
<svg version="1.1" id="Calque_1" xmlns="http://www.w3.org/2000/svg" xmlns:xlink="http://www.w3.org/1999/xlink" x="0px" y="0px"
	 width="872px" height="72px" viewBox="0 0 872 72" enable-background="new 0 0 872 72" xml:space="preserve">
<rect x="-0.13" y="0.55" fill="#4D4D4D" width="872" height="70.41"/>
<polygon fill="#5B5B5B" points="573.8,0.8 537.42,70.71 -0.13,70.71 -0.11,0.8 "/>
<g opacity="0.29">
	<path fill="#3C3C3B" d="M855.63,47.73c-0.94,7.85-8.05,13.52-15.92,12.57c-7.87-0.92-13.5-8.08-12.56-15.97
		c0.93-7.88,8.06-13.52,15.93-12.6C850.95,32.67,856.57,39.82,855.63,47.73z"/>
	<path fill="#3C3C3B" d="M826.05,24.78l-3.97-6.88c-15.12,8.78-20.29,28.17-11.58,43.35l6.85-3.98
		C810.83,45.9,814.71,31.36,826.05,24.78z"/>
	<path opacity="0.75" fill="#3C3C3B" enable-background="new    " d="M808.42,8.44l-3.97-6.87c-22.69,13.18-30.45,42.29-17.35,65.06
		l6.85-3.98C783.05,43.67,789.52,19.41,808.42,8.44z"/>
	<path opacity="0.07" fill="#3C3C3B" enable-background="new    " d="M692,72.13c-12.19-22.73-13.34-49.02-4.7-72h-8.43
		c-7.88,23.12-6.81,49.02,4.23,72H692z"/>
	<path opacity="0.15" fill="#3C3C3B" enable-background="new    " d="M719.95,70.71c-10.33-23.01-9.89-48.63-0.34-70.58h-8.58
		c-8.71,22.18-9.06,47.44,0.31,70.58H719.95z"/>
	<path opacity="0.25" fill="#3C3C3B" enable-background="new    " d="M745.99,70.71c-12.02-22.96-10.32-49.76,2.49-70.58h-9.13
		c-11.4,21.33-12.82,47.45-2.19,70.58H745.99z"/>
	<path opacity="0.5" fill="#3C3C3B" enable-background="new    " d="M765.47,70.96l5.12-2.98c-13.01-22.6-8.37-50.56,9.62-67.85
		h-11.17c-15.77,19.61-19,47.55-6.23,70.83L765.47,70.96L765.47,70.96z"/>
</g>
</svg>
