<svg xmlns="http://www.w3.org/2000/svg" width="870" height="70.8" viewBox="0 0 870 70.8"><style type="text/css"><![CDATA[
	.st0{fill:#3D3D3D;enable-background:new;}
]]></style><path fill="#E6BC95" d="M.3.4h869.6v70H.3z"/><path fill="#EECDAE" d="M573.4.7l-36.9 69.2-536.2.3V.7z"/><g opacity=".18"><path fill="#3D3D3C" d="M853.8 47.3c-.9 7.8-8 13.4-15.9 12.5-7.9-.9-13.5-8-12.5-15.9.9-7.8 8-13.4 15.9-12.5 7.8 1 13.4 8.1 12.5 15.9zM824.3 24.5l-4-6.8c-15.1 8.7-20.2 28-11.5 43.1l6.8-4c-6.5-11.3-2.6-25.8 8.7-32.3z"/><path opacity=".75" class="st0" d="M806.7 8.3l-4-6.8c-22.6 13.1-30.4 42-17.3 64.7l6.8-4c-10.8-18.9-4.4-43 14.5-53.9z"/><path opacity=".1" class="st0" d="M690.6 71.6C678.4 49 677.3 22.8 685.9 0h-8.4c-7.8 23-6.8 48.7 4.2 71.6h8.9z"/><path opacity=".15" class="st0" d="M718.5 70.2c-10.3-22.9-9.9-48.4-.3-70.2h-8.6c-8.7 22-9 47.2.3 70.2h8.6z"/><path opacity=".25" class="st0" d="M744.4 70.2c-12-22.8-10.3-49.5 2.5-70.2h-9.1c-11.4 21.2-12.8 47.2-2.2 70.2h8.8z"/><path opacity=".5" class="st0" d="M763.9 70.4l5.1-3C756 45 760.6 17.2 778.6 0h-11.1c-15.7 19.5-19 47.3-6.2 70.4h2.6z"/></g></svg>