<?xml version="1.0" encoding="utf-8"?>
<!-- Generator: Adobe Illustrator 15.1.0, SVG Export Plug-In . SVG Version: 6.00 Build 0)  -->
<!DOCTYPE svg PUBLIC "-//W3C//DTD SVG 1.1//EN" "http://www.w3.org/Graphics/SVG/1.1/DTD/svg11.dtd">
<svg version="1.1" id="Calque_1" xmlns="http://www.w3.org/2000/svg" xmlns:xlink="http://www.w3.org/1999/xlink" x="0px" y="0px"
	 width="872px" height="72px" viewBox="0 0 872 72" enable-background="new 0 0 872 72" xml:space="preserve">
<rect x="-0.323" y="0.743" fill="#4D4D4D" width="872" height="70.407"/>
<polygon fill="#5B5B5B" points="573.077,0.991 536.702,70.656 -0.323,70.904 -0.302,0.991 "/>
<g>
	<path fill="#3C3C3B" d="M780.327,43.136c0.245,4.022-2.806,7.509-6.833,7.755c-4.028,0.254-7.502-2.82-7.754-6.861
		c-0.252-4.038,2.806-7.514,6.835-7.767C776.606,36.018,780.077,39.089,780.327,43.136z"/>
	<path fill="#3C3C3B" d="M764.723,33.137l-3.478-2.23c-6.775,5.781-8.06,16.312-2.309,23.125l3.073-2.619
		C757.704,46.305,759.642,37.469,764.723,33.137z"/>
	<path opacity="0.75" fill="#3C3C3B" enable-background="new    " d="M753.326,26.794l-3.421-1.921
		c-10.17,8.673-10.403,24.583-1.765,34.801l3.625-2.75C744.57,48.409,744.852,34.019,753.326,26.794z"/>
	<path opacity="0.5" fill="#3C3C3B" enable-background="new    " d="M741.887,19.105l-3.751-2.388
		c-11.005,11.782-10.911,34.096-0.591,49.118l3.507-2.574C732.454,50.745,732.716,28.919,741.887,19.105z"/>
	<path opacity="0.25" fill="#3C3C3B" enable-background="new    " d="M729.803,10.274l-4.47-3.531
		c-13.942,20.931-12.528,43.664-1.714,64.408h6.223C719.271,55.479,716.938,26.658,729.803,10.274z"/>
	<path opacity="0.15" fill="#3C3C3B" enable-background="new    " d="M715.691,71.15c-8.835-15.289-14.555-45.079,2.797-68.395
		l-3.834-2.013c-19.309,23.759-13.029,54.91-5.05,70.407H715.691z"/>
</g>
<g>
	<path fill="#3C3C3B" d="M832.062,16.939c0.245,4.022-2.806,7.509-6.833,7.755c-4.028,0.254-7.502-2.82-7.754-6.861
		c-0.252-4.038,2.806-7.514,6.835-7.767C828.341,9.822,831.812,12.893,832.062,16.939z"/>
	<path fill="#3C3C3B" d="M816.457,6.94l-3.478-2.23c-6.775,5.781-8.06,16.312-2.309,23.125l3.073-2.619
		C809.438,20.108,811.376,11.272,816.457,6.94z"/>
	<path opacity="0.75" fill="#3C3C3B" enable-background="new    " d="M805.061,0.598l-5.538,0.146
		c-8.105,7.84-8.286,22.516,0.353,32.734l3.625-2.75C796.305,22.213,797.917,6.743,805.061,0.598z"/>
	<path opacity="0.5" fill="#3C3C3B" enable-background="new    " d="M789.167,0.743h-5.373c-4.377,7.507-4.835,23.874,5.485,38.896
		l3.507-2.574C784.188,24.549,784.667,6.743,789.167,0.743z"/>
	<path opacity="0.25" fill="#3C3C3B" enable-background="new    " d="M773.921,0.743h-5.308c-2.888,10.924-3.053,25.49,7.762,46.234
		l4.84-2.874C770.644,28.433,770.833,9.333,773.921,0.743z"/>
	<path opacity="0.15" fill="#3C3C3B" enable-background="new    " d="M769.585,50.267c-8.835-15.289-13.668-40.214-8.999-49.206
		l-4.901-0.317c-6.018,11.424,0.221,38.896,10.19,52.609L769.585,50.267z"/>
</g>
<g>
	<path fill="#3C3C3B" d="M860.687,55.212c0.245,4.022-2.806,7.509-6.833,7.755c-4.028,0.254-7.502-2.82-7.754-6.861
		c-0.252-4.038,2.806-7.514,6.835-7.768C856.966,48.094,860.437,51.165,860.687,55.212z"/>
	<path fill="#3C3C3B" d="M845.082,45.213l-3.478-2.23c-6.775,5.781-8.06,16.312-2.309,23.126l3.073-2.619
		C838.063,58.381,840.001,49.545,845.082,45.213z"/>
	<path opacity="0.75" fill="#3C3C3B" enable-background="new    " d="M833.686,38.87l-3.421-1.921
		c-10.17,8.673-10.341,24.02-1.702,34.238L832.125,69C824.93,60.485,825.211,46.095,833.686,38.87z"/>
	<path opacity="0.5" fill="#3C3C3B" enable-background="new    " d="M822.246,31.182l-3.751-2.388
		c-11.005,11.782-10.162,31.291-4.526,42.357h5.051C812.333,59.25,813.075,40.995,822.246,31.182z"/>
	<path opacity="0.25" fill="#3C3C3B" enable-background="new    " d="M810.162,22.35l-4.47-3.531
		C791.75,39.75,793.621,57,799.372,71.15h5.688C798.848,58.5,797.298,38.734,810.162,22.35z"/>
	<path opacity="0.15" fill="#3C3C3B" enable-background="new    " d="M791.395,71.15c-4.77-15.497-9.898-33.002,7.453-56.318
		l-3.834-2.013c-19.309,23.759-13.438,43.931-8.922,58.331H791.395z"/>
</g>
</svg>
