<svg xmlns="http://www.w3.org/2000/svg" width="872" height="72" viewBox="0 0 872 72"><path fill="#CCE2EC" d="M-.3.7h872v70.4H-.3z"/><path fill="#E3F1F6" d="M573.1 1l-36.4 69.7-537 .2V1z"/><g opacity=".5" fill="#6AB2D1"><path d="M855.4 47.6c-.9 7.8-8.1 13.5-15.9 12.6-7.9-.9-13.5-8.1-12.6-16 .9-7.9 8.1-13.5 15.9-12.6 8 .9 13.6 8.1 12.6 16zM825.9 24.6l-4-6.9c-15.1 8.8-20.3 28.2-11.6 43.4l6.9-4c-6.6-11.3-2.7-25.9 8.7-32.5z"/><path opacity=".75" enable-background="new" d="M808.2 8.3l-4-6.9c-22.7 13.2-30.4 42.3-17.3 65.1l6.8-4c-10.8-19-4.4-43.2 14.5-54.2z"/><path opacity=".07" enable-background="new" d="M691.8 72c-12.2-22.7-13.3-49-4.7-72h-8.4c-7.9 23.1-6.8 49 4.2 72h8.9z"/><path opacity=".15" enable-background="new" d="M719.8 70.6c-10.3-23-9.9-48.6-.3-70.6h-8.6c-8.7 22.2-9.1 47.4.3 70.6h8.6z"/><path opacity=".25" enable-background="new" d="M745.8 70.6c-12-23-10.3-49.8 2.5-70.6h-9.1c-11.4 21.3-12.8 47.5-2.2 70.6h8.8z"/><path opacity=".5" enable-background="new" d="M765.3 70.8l5.1-3C757.4 45.2 762 17.3 780 0h-11.2c-15.8 19.6-19 47.5-6.2 70.8h2.7z"/></g></svg>