<?xml version="1.0" encoding="utf-8"?>
<!-- Generator: Adobe Illustrator 15.1.0, SVG Export Plug-In . SVG Version: 6.00 Build 0)  -->
<!DOCTYPE svg PUBLIC "-//W3C//DTD SVG 1.1//EN" "http://www.w3.org/Graphics/SVG/1.1/DTD/svg11.dtd">
<svg version="1.1" id="Calque_1" xmlns="http://www.w3.org/2000/svg" xmlns:xlink="http://www.w3.org/1999/xlink" x="0px" y="0px"
	 width="872px" height="72px" viewBox="0 0 872 72" enable-background="new 0 0 872 72" xml:space="preserve">
<style type="text/css"><![CDATA[
	.st0{fill:#3C3C3B;enable-background:new;}
]]></style>
<rect x="-0.1" y="0.5" fill="#4D4D4D" width="872" height="70.4"/>
<polygon fill="#5B5B5B" points="573.8,0.8 537.4,70.7 -0.1,70.7 -0.1,0.8 "/>
<g opacity="0.29">
	<path fill="#3C3C3B" d="M855.6,47.7c-0.9,7.8-8,13.5-15.9,12.6c-7.9-0.9-13.5-8.1-12.6-16c0.9-7.9,8.1-13.5,15.9-12.6
		C851,32.7,856.6,39.8,855.6,47.7z"/>
	<path fill="#3C3C3B" d="M826,24.8l-4-6.9c-15.1,8.8-20.3,28.2-11.6,43.4l6.8-4C810.8,45.9,814.7,31.4,826,24.8z"/>
	<path opacity="0.75" class="st0" d="M808.4,8.4l-4-6.9c-22.7,13.2-30.5,42.3-17.4,65.1l6.9-4
		C783,43.7,789.5,19.4,808.4,8.4z"/>
	<path opacity="7.000000e-02" class="st0" d="M692,72.1c-12.2-22.7-13.3-49-4.7-72h-8.4
		c-7.9,23.1-6.8,49,4.2,72H692z"/>
	<path opacity="0.15" class="st0" d="M720,70.7c-10.3-23-9.9-48.6-0.3-70.6H711
		c-8.7,22.2-9.1,47.4,0.3,70.6H720z"/>
	<path opacity="0.25" class="st0" d="M746,70.7c-12-23-10.3-49.8,2.5-70.6h-9.1
		c-11.4,21.3-12.8,47.5-2.2,70.6H746z"/>
	<path opacity="0.5" class="st0" d="M765.5,71l5.1-3c-13-22.6-8.4-50.6,9.6-67.9H769
		c-15.8,19.6-19,47.5-6.2,70.8H765.5L765.5,71z"/>
</g>
</svg>
