<?xml version="1.0" encoding="utf-8"?>
<!DOCTYPE svg PUBLIC "-//W3C//DTD SVG 1.1//EN" "http://www.w3.org/Graphics/SVG/1.1/DTD/svg11.dtd">
<svg version="1.1" id="Calque_1" xmlns="http://www.w3.org/2000/svg" xmlns:xlink="http://www.w3.org/1999/xlink" x="0px" y="0px"
	 width="870px" height="70.84px" viewBox="0 0 870 70.84" enable-background="new 0 0 870 70.84" xml:space="preserve">
<rect x="0.32" y="0.42" fill="#E6BC95" width="869.64" height="70"/>
<polygon fill="#EECDAE" points="573.39,0.66 536.49,69.93 0.32,70.17 0.34,0.66 "/>
<g opacity="0.18">
	<path fill="#3D3D3C" d="M853.78,47.32c-0.94,7.81-8.03,13.44-15.88,12.5c-7.85-0.92-13.46-8.03-12.53-15.88
		c0.93-7.84,8.03-13.45,15.88-12.52C849.1,32.35,854.71,39.46,853.78,47.32z"/>
	<path fill="#3D3D3C" d="M824.27,24.5l-3.96-6.84c-15.08,8.73-20.24,28.01-11.55,43.1l6.83-3.96
		C809.1,45.5,812.97,31.04,824.27,24.5z"/>
	<path opacity="0.75" fill="#3D3D3C" enable-background="new    " d="M806.7,8.26l-3.96-6.83c-22.63,13.1-30.36,42.04-17.31,64.68
		l6.83-3.96C781.4,43.28,787.84,19.17,806.7,8.26z"/>
	<path opacity="0.1" fill="#3D3D3C" enable-background="new    " d="M690.59,71.58c-12.16-22.6-13.3-48.74-4.68-71.58h-8.41
		c-7.85,22.99-6.79,48.74,4.22,71.58H690.59z"/>
	<path opacity="0.15" fill="#3D3D3C" enable-background="new    " d="M718.46,70.17c-10.3-22.88-9.86-48.35-0.34-70.17h-8.56
		c-8.69,22.05-9.04,47.17,0.31,70.17H718.46z"/>
	<path opacity="0.25" fill="#3D3D3C" enable-background="new    " d="M744.43,70.17c-11.99-22.83-10.3-49.48,2.48-70.17h-9.1
		c-11.37,21.21-12.79,47.17-2.18,70.17H744.43z"/>
	<path opacity="0.5" fill="#3D3D3C" enable-background="new    " d="M763.86,70.42l5.11-2.96C756,44.99,760.62,17.19,778.56,0
		h-11.14c-15.72,19.5-18.95,47.27-6.21,70.42H763.86z"/>
</g>
</svg>
