<?xml version="1.0" encoding="utf-8"?>
<!DOCTYPE svg PUBLIC "-//W3C//DTD SVG 1.1//EN" "http://www.w3.org/Graphics/SVG/1.1/DTD/svg11.dtd">
<svg version="1.1" id="Calque_1" xmlns="http://www.w3.org/2000/svg" xmlns:xlink="http://www.w3.org/1999/xlink" x="0px" y="0px"
	 width="872px" height="72px" viewBox="0 0 872 72" enable-background="new 0 0 872 72" xml:space="preserve">
<rect x="-0.3" y="0.7" fill="#CCE2EC" width="872" height="70.4"/>
<polygon fill="#E3F1F6" points="573.1,1 536.7,70.7 -0.3,70.9 -0.3,1 "/>
<g opacity="0.5">
	<path fill="#6AB2D1" d="M855.4,47.6c-0.9,7.8-8.1,13.5-15.9,12.6c-7.9-0.9-13.5-8.1-12.6-16c0.9-7.9,8.1-13.5,15.9-12.6
		C850.8,32.5,856.4,39.7,855.4,47.6z"/>
	<path fill="#6AB2D1" d="M825.9,24.6l-4-6.9c-15.1,8.8-20.3,28.2-11.6,43.4l6.9-4C810.6,45.8,814.5,31.2,825.9,24.6z"/>
	<path opacity="0.75" fill="#6AB2D1" enable-background="new" d="M808.2,8.3l-4-6.9c-22.7,13.2-30.4,42.3-17.3,65.1l6.8-4
		C782.9,43.5,789.3,19.3,808.2,8.3z"/>
	<path opacity="7.000000e-02" fill="#6AB2D1" enable-background="new" d="M691.8,72c-12.2-22.7-13.3-49-4.7-72h-8.4
		c-7.9,23.1-6.8,49,4.2,72H691.8z"/>
	<path opacity="0.15" fill="#6AB2D1" enable-background="new" d="M719.8,70.6c-10.3-23-9.9-48.6-0.3-70.6h-8.6
		c-8.7,22.2-9.1,47.4,0.3,70.6H719.8z"/>
	<path opacity="0.25" fill="#6AB2D1" enable-background="new" d="M745.8,70.6c-12-23-10.3-49.8,2.5-70.6h-9.1
		c-11.4,21.3-12.8,47.5-2.2,70.6H745.8z"/>
	<path opacity="0.5" fill="#6AB2D1" enable-background="new" d="M765.3,70.8l5.1-3C757.4,45.2,762,17.3,780,0h-11.2
		c-15.8,19.6-19,47.5-6.2,70.8H765.3L765.3,70.8z"/>
</g>
</svg>
