<?xml version="1.0" encoding="utf-8"?>
<!-- Generator: Adobe Illustrator 15.1.0, SVG Export Plug-In . SVG Version: 6.00 Build 0)  -->
<!DOCTYPE svg PUBLIC "-//W3C//DTD SVG 1.1//EN" "http://www.w3.org/Graphics/SVG/1.1/DTD/svg11.dtd">
<svg version="1.1" id="Calque_1" xmlns="http://www.w3.org/2000/svg" xmlns:xlink="http://www.w3.org/1999/xlink" x="0px" y="0px"
	 width="870px" height="70.8px" viewBox="0 0 870 70.8" enable-background="new 0 0 870 70.8" xml:space="preserve">
<style type="text/css"><![CDATA[
	.st0{fill:#3D3D3D;enable-background:new;}
]]></style>
<rect x="0.3" y="0.4" fill="#E6BC95" width="869.6" height="70"/>
<polygon fill="#EECDAE" points="573.4,0.7 536.5,69.9 0.3,70.2 0.3,0.7 "/>
<g opacity="0.18">
	<path fill="#3D3D3C" d="M853.8,47.3c-0.9,7.8-8,13.4-15.9,12.5c-7.9-0.9-13.5-8-12.5-15.9c0.9-7.8,8-13.4,15.9-12.5
		C849.1,32.4,854.7,39.5,853.8,47.3z"/>
	<path fill="#3D3D3C" d="M824.3,24.5l-4-6.8c-15.1,8.7-20.2,28-11.5,43.1l6.8-4C809.1,45.5,813,31,824.3,24.5z"/>
	<path opacity="0.75" class="st0" d="M806.7,8.3l-4-6.8c-22.6,13.1-30.4,42-17.3,64.7l6.8-4
		C781.4,43.3,787.8,19.2,806.7,8.3z"/>
	<path opacity="0.1" class="st0" d="M690.6,71.6C678.4,49,677.3,22.8,685.9,0h-8.4
		c-7.8,23-6.8,48.7,4.2,71.6H690.6z"/>
	<path opacity="0.15" class="st0" d="M718.5,70.2c-10.3-22.9-9.9-48.4-0.3-70.2h-8.6
		c-8.7,22-9,47.2,0.3,70.2H718.5z"/>
	<path opacity="0.25" class="st0" d="M744.4,70.2c-12-22.8-10.3-49.5,2.5-70.2h-9.1
		c-11.4,21.2-12.8,47.2-2.2,70.2H744.4z"/>
	<path opacity="0.5" class="st0" d="M763.9,70.4l5.1-3C756,45,760.6,17.2,778.6,0h-11.1
		c-15.7,19.5-19,47.3-6.2,70.4H763.9z"/>
</g>
</svg>
