<svg xmlns="http://www.w3.org/2000/svg" width="872" height="282.4" viewBox="0 0 872 282.4"><style type="text/css"><![CDATA[
	.st0{opacity:0.5;fill:#337A6C;enable-background:new;}
	.st1{fill:#4D4D4D;}
	.st2{opacity:0.25;fill:#337A6C;enable-background:new;}
	.st3{fill:#B2DBD3;}
	.st4{opacity:0.29;}
	.st5{opacity:0.5;fill:#3C3C3B;enable-background:new;}
	.st6{fill:#5B5B5B;}
	.st7{opacity:0.25;fill:#3C3C3B;enable-background:new;}
	.st8{fill:#95C9BF;}
	.st9{opacity:0.75;fill:#337A6C;enable-background:new;}
	.st10{opacity:0.15;fill:#337A6C;enable-background:new;}
	.st11{fill:#337A6C;}
	.st12{fill:#3C3C3B;}
	.st13{opacity:0.75;fill:#3C3C3B;enable-background:new;}
	.st14{opacity:0.15;fill:#3C3C3B;enable-background:new;}
]]></style><path class="st8" d="M-.3.7h872v70.4h-872z"/><path class="st3" d="M573.1 1l-36.4 69.7-537 .2v-69.9z"/><g class="st4"><path class="st11" d="M855.4 47.9c-.9 7.8-8.1 13.5-15.9 12.6-7.9-.9-13.5-8.1-12.6-16 .9-7.9 8.1-13.5 15.9-12.6 8 1 13.6 8.1 12.6 16zm-29.5-22.9l-4-6.9c-15.1 8.8-20.3 28.2-11.6 43.3l6.9-4c-6.6-11.3-2.7-25.9 8.7-32.4z"/><path class="st9" d="M808.2 8.6l-4-6.9c-22.7 13.2-30.4 42.3-17.3 65.1l6.8-4c-10.8-18.9-4.4-43.2 14.5-54.2z"/><path class="st10" d="M691.8 72.3c-12.2-22.7-13.3-49-4.7-72h-8.4c-7.9 23.1-6.8 49 4.2 72h8.9zm28-1.4c-10.3-23-9.9-48.6-.3-70.6h-8.6c-8.7 22.2-9.1 47.4.3 70.6h8.6z"/><path class="st2" d="M745.8 70.9c-12-23-10.3-49.8 2.5-70.6h-9.1c-11.4 21.3-12.8 47.4-2.2 70.6h8.8z"/><path class="st0" d="M765.3 71.2l5.1-3c-13-22.6-8.4-50.6 9.6-67.9h-11.2c-15.8 19.6-19 47.6-6.2 70.8h2.7v.1z"/></g><path class="st1" d="M-.1 71.3h872v70.4h-872z"/><path class="st6" d="M573.8 71.6l-36.4 69.9h-537.5v-69.9z"/><g class="st4"><path class="st12" d="M855.6 118.5c-.9 7.8-8 13.5-15.9 12.6-7.9-.9-13.5-8.1-12.6-16 .9-7.9 8.1-13.5 15.9-12.6 8 1 13.6 8.1 12.6 16zm-29.6-22.9l-4-6.9c-15.1 8.8-20.3 28.2-11.6 43.4l6.8-4c-6.4-11.4-2.5-25.9 8.8-32.5z"/><path class="st13" d="M808.4 79.2l-4-6.9c-22.7 13.2-30.5 42.3-17.4 65.1l6.9-4c-10.9-18.9-4.4-43.2 14.5-54.2z"/><path class="st14" d="M692 142.9c-12.2-22.7-13.3-49-4.7-72h-8.4c-7.9 23.1-6.8 49 4.2 72h8.9zm28-1.4c-10.3-23-9.9-48.6-.3-70.6h-8.7c-8.7 22.2-9.1 47.4.3 70.6h8.7z"/><path class="st7" d="M746 141.5c-12-23-10.3-49.8 2.5-70.6h-9.1c-11.4 21.3-12.8 47.5-2.2 70.6h8.8z"/><path class="st5" d="M765.5 141.8l5.1-3c-13-22.6-8.4-50.6 9.6-67.9h-11.2c-15.8 19.6-19 47.5-6.2 70.8l2.7.1z"/></g><path class="st8" d="M-.3 141.9h872v70.4h-872z"/><path class="st3" d="M573.1 142.2l-36.4 69.7-537 .2v-69.9z"/><g class="st4"><path class="st11" d="M780.3 184.3c.2 4-2.8 7.5-6.8 7.8-4 .2-7.5-2.8-7.8-6.9-.2-4 2.8-7.5 6.8-7.8 4.1-.2 7.6 2.9 7.8 6.9zm-15.6-10l-3.5-2.2c-6.8 5.8-8.1 16.3-2.3 23.1l3.1-2.6c-4.3-5.1-2.4-13.9 2.7-18.3z"/><path class="st9" d="M753.3 168l-3.4-1.9c-10.2 8.7-10.4 24.6-1.8 34.8l3.6-2.8c-7.1-8.5-6.9-22.9 1.6-30.1z"/><path class="st0" d="M741.9 160.3l-3.8-2.4c-11 11.8-10.9 34.1-.6 49.1l3.5-2.6c-8.5-12.4-8.3-34.3.9-44.1z"/><path class="st2" d="M729.8 151.5l-4.5-3.5c-13.9 20.9-12.5 43.7-1.7 64.4h6.2c-10.5-15.7-12.9-44.5 0-60.9z"/><path class="st10" d="M715.7 212.4c-8.8-15.3-14.6-45.1 2.8-68.4l-3.8-2c-19.3 23.8-13 54.9-5 70.4h6z"/></g><g class="st4"><path class="st11" d="M832.1 158.1c.2 4-2.8 7.5-6.8 7.8-4 .2-7.5-2.8-7.8-6.9s2.8-7.5 6.8-7.8c4-.2 7.5 2.9 7.8 6.9zm-15.6-10l-3.5-2.2c-6.8 5.8-8.1 16.3-2.3 23.1l3.1-2.6c-4.4-5.1-2.4-13.9 2.7-18.3z"/><path class="st9" d="M805.1 141.8l-5.5.1c-8.1 7.8-8.3 22.5.4 32.7l3.6-2.8c-7.3-8.4-5.7-23.9 1.5-30z"/><path class="st0" d="M789.2 141.9h-5.4c-4.4 7.5-4.8 23.9 5.5 38.9l3.5-2.6c-8.6-12.5-8.1-30.3-3.6-36.3z"/><path class="st2" d="M773.9 141.9h-5.3c-2.9 10.9-3.1 25.5 7.8 46.2l4.8-2.9c-10.6-15.6-10.4-34.7-7.3-43.3z"/><path class="st10" d="M769.6 191.5c-8.8-15.3-13.7-40.2-9-49.2l-4.9-.3c-6 11.4.2 38.9 10.2 52.6l3.7-3.1z"/></g><g class="st4"><path class="st11" d="M860.7 196.4c.2 4-2.8 7.5-6.8 7.8-4 .2-7.5-2.8-7.8-6.9-.2-4 2.8-7.5 6.8-7.8 4.1-.2 7.5 2.9 7.8 6.9zm-15.6-10l-3.5-2.2c-6.8 5.8-8.1 16.3-2.3 23.1l3.1-2.6c-4.3-5.1-2.4-14 2.7-18.3z"/><path class="st9" d="M833.7 180.1l-3.4-1.9c-10.2 8.7-10.3 24-1.7 34.2l3.6-2.2c-7.3-8.5-7-22.9 1.5-30.1z"/><path class="st0" d="M822.2 172.4l-3.8-2.4c-11 11.8-10.2 31.3-4.5 42.4h5c-6.6-12-5.8-30.2 3.3-40z"/><path class="st2" d="M810.2 163.6l-4.5-3.5c-13.9 20.9-12.1 38.2-6.3 52.3h5.7c-6.3-12.7-7.8-32.5 5.1-48.8z"/><path class="st10" d="M791.4 212.4c-4.8-15.5-9.9-33 7.5-56.3l-3.8-2c-19.3 23.8-13.4 43.9-8.9 58.3h5.2z"/></g><path class="st1" d="M-.3 212.2h872v70.4h-872z"/><path class="st6" d="M573.1 212.5l-36.4 69.7-537 .2v-69.9z"/><path class="st12" d="M780.3 254.6c.2 4-2.8 7.5-6.8 7.8-4 .2-7.5-2.8-7.8-6.9-.2-4 2.8-7.5 6.8-7.8 4.1-.2 7.6 2.9 7.8 6.9zm-15.6-10l-3.5-2.2c-6.8 5.8-8.1 16.3-2.3 23.1l3.1-2.6c-4.3-5.1-2.4-13.9 2.7-18.3z"/><path class="st13" d="M753.3 238.3l-3.4-1.9c-10.2 8.7-10.4 24.6-1.8 34.8l3.6-2.8c-7.1-8.5-6.9-22.9 1.6-30.1z"/><path class="st5" d="M741.9 230.6l-3.8-2.4c-11 11.8-10.9 34.1-.6 49.1l3.5-2.6c-8.5-12.4-8.3-34.3.9-44.1z"/><path class="st7" d="M729.8 221.8l-4.5-3.5c-13.9 20.9-12.5 43.7-1.7 64.4h6.2c-10.5-15.7-12.9-44.5 0-60.9z"/><path class="st14" d="M715.7 282.7c-8.8-15.3-14.6-45.1 2.8-68.4l-3.8-2c-19.3 23.8-13 54.9-5 70.4h6z"/><path class="st12" d="M832.1 228.4c.2 4-2.8 7.5-6.8 7.8-4 .2-7.5-2.8-7.8-6.9s2.8-7.5 6.8-7.8c4-.2 7.5 2.9 7.8 6.9zm-15.6-10l-3.5-2.2c-6.8 5.8-8.1 16.3-2.3 23.1l3.1-2.6c-4.4-5.1-2.4-13.9 2.7-18.3z"/><path class="st13" d="M805.1 212.1l-5.5.1c-8.1 7.8-8.3 22.5.4 32.7l3.6-2.8c-7.3-8.4-5.7-23.9 1.5-30z"/><path class="st5" d="M789.2 212.2h-5.4c-4.4 7.5-4.8 23.9 5.5 38.9l3.5-2.6c-8.6-12.5-8.1-30.3-3.6-36.3z"/><path class="st7" d="M773.9 212.2h-5.3c-2.9 10.9-3.1 25.5 7.8 46.2l4.8-2.9c-10.6-15.6-10.4-34.7-7.3-43.3z"/><path class="st14" d="M769.6 261.8c-8.8-15.3-13.7-40.2-9-49.2l-4.9-.3c-6 11.4.2 38.9 10.2 52.6l3.7-3.1z"/><path class="st12" d="M860.7 266.7c.2 4-2.8 7.5-6.8 7.8-4 .2-7.5-2.8-7.8-6.9-.2-4 2.8-7.5 6.8-7.8 4.1-.2 7.5 2.9 7.8 6.9zm-15.6-10l-3.5-2.2c-6.8 5.8-8.1 16.3-2.3 23.1l3.1-2.6c-4.3-5.1-2.4-14 2.7-18.3z"/><path class="st13" d="M833.7 250.4l-3.4-1.9c-10.2 8.7-10.3 24-1.7 34.2l3.6-2.2c-7.3-8.5-7-22.9 1.5-30.1z"/><path class="st5" d="M822.2 242.7l-3.8-2.4c-11 11.8-10.2 31.3-4.5 42.4h5c-6.6-12-5.8-30.2 3.3-40z"/><path class="st7" d="M810.2 233.9l-4.5-3.5c-13.9 20.9-12.1 38.2-6.3 52.3h5.7c-6.3-12.7-7.8-32.5 5.1-48.8z"/><path class="st14" d="M791.4 282.7c-4.8-15.5-9.9-33 7.5-56.3l-3.8-2c-19.3 23.8-13.4 43.9-8.9 58.3h5.2z"/></svg>