<?xml version="1.0" encoding="utf-8"?>
<!DOCTYPE svg PUBLIC "-//W3C//DTD SVG 1.1//EN" "http://www.w3.org/Graphics/SVG/1.1/DTD/svg11.dtd">
<svg version="1.1" id="Calque_1" xmlns="http://www.w3.org/2000/svg" xmlns:xlink="http://www.w3.org/1999/xlink" x="0px" y="0px"
	 width="193px" height="84.2px" viewBox="0 0 193 84.2" enable-background="new 0 0 193 84.2" xml:space="preserve">
<style type="text/css"><![CDATA[
	.st0{fill:#E3E3E2;}
]]></style>
<g>
	<g opacity="0.45">
		<polygon class="st0" points="99.1,77.3 69.9,77.3 89.2,65.1 118.4,65.1"/>
		<polygon class="st0" points="134.9,77.3 105.8,77.3 125.1,65.1 154.2,65.1"/>
		<polygon class="st0" points="170.8,77.3 141.6,77.3 160.9,65.1 190.1,65.1"/>
		<polygon class="st0" points="123.3,61.5 94.1,61.5 113.4,49.3 142.6,49.3"/>
		<polygon class="st0" points="159.2,61.5 130,61.5 149.3,49.3 178.5,49.3"/>
		<polygon class="st0" points="193,49.3 185.1,49.3 165.8,61.5 193,61.5"/>
		<polygon class="st0" points="124.5,84.2 130,80.7 100.8,80.7 95.3,84.2"/>
		<polygon class="st0" points="88.6,84.2 94.1,80.7 65,80.7 59.5,84.2"/>
		<polygon class="st0" points="160.3,84.2 165.8,80.7 136.7,80.7 131.2,84.2"/>
	</g>
	<g opacity="0.6">
		<polygon class="st0" points="100.9,59.6 63.3,59.6 88.2,43.2 125.8,43.2"/>
		<polygon class="st0" points="149,59.6 111.4,59.6 136.3,43.2 173.9,43.2"/>
		<polygon class="st0" points="130.8,39.6 93.2,39.6 118.1,23.2 155.7,23.2"/>
		<polygon class="st0" points="193,30.3 193,23.2 166.2,23.2 141.3,39.6 178.9,39.6"/>
	</g>
	<polygon class="st0" points="140.6,24.3 84.9,24.3 121.7,0 177.4,0"/>
</g>
<g enable-background="new">
	<path fill="#CDCDCC" d="M41.4,45.3c0,1.4-1.5,6.2-4.4,14.5c-2.9,8.3-4.4,13-4.4,14.1h-5.8c0-1.2-0.9-4.4-2.7-9.8
		c-1.9-5.7-3-9.5-3.2-11.4h-0.4c-0.2,1.8-1.2,5.7-2.9,11.5c-1.6,5.4-2.4,8.6-2.4,9.7H9.3c0-1.4-1.4-6.3-4.3-14.7
		c-2.9-8.4-4.3-13.1-4.3-13.9h7c0,0.9,0.8,4.6,2.5,11s2.5,10.2,2.5,11.5H13c0-1.2,0.9-5,2.7-11.2s2.7-10,2.7-11.2h6.3
		c0,1.1,0.9,4.9,2.7,11.4S30,67,30,67.8h0.3c0-1,0.8-4.6,2.4-10.7c1.6-6.1,2.4-10,2.4-11.7L41.4,45.3L41.4,45.3z"/>
	<path fill="#CDCDCC" d="M77.9,73.9h-6.4c0-2.5-0.2-6.7-0.5-12.6c-0.3-5.9-0.5-9.6-0.5-11.1h-0.3c-0.2,0.9-0.5,2.5-1.2,4.9
		c-0.6,2.4-1.8,5.9-3.5,10.5c-1.7,4.6-2.6,7.4-2.6,8.3H58c0-0.9-0.8-3.7-2.5-8.4c-1.7-4.6-2.8-7.9-3.3-9.8s-0.9-3.7-1.2-5.5h-0.3
		c0,1.8-0.2,5.8-0.5,11.8c-0.3,6-0.5,10-0.5,11.9h-5.8c0-0.4,0.5-4.8,1.6-13.2c1.1-8.4,1.6-13.5,1.6-15.4h8.5
		c0,1.6,0.9,5.3,2.7,10.9c1.8,5.6,2.7,9.2,2.7,10.7h0.3c0-1.6,1-5.2,3.1-10.8c2-5.6,3.1-9.2,3.1-10.8h8.4c0,3,0.3,8.4,1,16.2
		C77.5,69.3,77.9,73.5,77.9,73.9z"/>
	<path fill="#CDCDCC" d="M103.7,45.3l-0.1,4.7c-2.9-0.2-5.7-0.3-8.3-0.3c0,2.8,0,5.8,0,9.2c0,5.3,0.1,10.3,0.2,15h-6.1
		c0.2-4.7,0.3-9.7,0.3-15c0-3.3,0-6.4-0.1-9.2c-2.1,0-4.9,0.1-8.5,0.3l0.2-4.8H103.7L103.7,45.3z"/>
	<path fill="#CDCDCC" d="M126,66.1c0,5.7-4.1,8.6-12.4,8.6c-2.8,0-5.4-0.3-7.8-1l1.1-4.9c2.4,0.8,4.6,1.2,6.7,1.2
		c2.3,0,4-0.2,5.1-0.7c1-0.4,1.5-1.2,1.5-2.3c0-1.1-0.5-2.1-1.4-2.8c-0.8-0.7-2.5-1.5-5.1-2.6c-2.3-1-4-2.1-5.2-3.2
		c-1.4-1.5-2.1-3.3-2.1-5.5c0-2.5,0.9-4.5,2.8-5.9c1.9-1.4,4.6-2.1,8.1-2.1c2.9,0,5.3,0.2,7.2,0.7l-0.8,4.9c-2-0.7-4.1-1.1-6.4-1.1
		c-3.5,0-5.2,0.9-5.2,2.8c0,1,0.4,1.8,1.2,2.4c0.7,0.5,2.2,1.3,4.6,2.2c2.5,1,4.4,2.1,5.6,3.3C125.2,61.7,126,63.7,126,66.1z"/>
</g>
</svg>
