<?xml version="1.0" encoding="utf-8"?>
<!DOCTYPE svg PUBLIC "-//W3C//DTD SVG 1.1//EN" "http://www.w3.org/Graphics/SVG/1.1/DTD/svg11.dtd">
<svg version="1.1" id="Calque_1" xmlns="http://www.w3.org/2000/svg" xmlns:xlink="http://www.w3.org/1999/xlink" x="0px" y="0px"
	 width="169px" height="97.9px" viewBox="0 0 169 97.9" enable-background="new 0 0 169 97.9" xml:space="preserve">
<g>
	<g> <polyline fill="none" stroke="#E3E3E3" stroke-width="4" points="114.7,87.2 127.6,95.8 133.7,95.1 138.8,65.8 167.1,76.4"/>
		<g>
			<polygon fill="#F1F1F1" points="144.7,68.7 136.8,70.4 132.2,63.1 140.1,61.6"/>
			<path fill="#E3E3E3" d="M133.6,63.7l6.1-1.2l3.6,5.6l-6.2,1.3L133.6,63.7 M129.2,61.7l6.8,10.9l11.9-2.5l-6.9-10.6L129.2,61.7
				L129.2,61.7z"/>
		</g>
		<g>
			<polygon fill="#F1F1F1" points="169,82.7 169,74.2 163.7,75.4 168.6,82.8"/>
			<polygon fill="#E3E3E3" points="169,84.9 169,81.8 168.9,81.8 165.1,76 169,75.1 169,72.1 160.6,74 168,85.1"/>
		</g>
		<g>
			<polygon fill="#F1F1F1" points="118.4,87.5 109.3,89.6 104.8,81.4 113.8,79.5"/>
			<path fill="#E3E3E3" d="M106.4,82.1l7-1.5l3.5,6.2l-7,1.6L106.4,82.1 M101.5,79.9l6.7,12.3l13.5-3.2l-6.8-11.9L101.5,79.9
				L101.5,79.9z"/>
		</g>
		<polygon fill="#F1F1F1" points="136.9,97.9 133.6,92.3 124.9,94.5 126.8,97.9"/>
		<polygon fill="#E3E3E3" points="128,97.9 126.4,95.1 133.2,93.5 135.8,97.9 139.4,97.9 134.5,89.8 121.5,93 124.3,97.9"/>
	</g>
	<g>
		<polygon fill="#F1F1F1" points="149.7,48.5 119.7,53.7 104,27.9 133.3,24.2"/>
		<polygon fill="none" stroke="#E3E3E3" stroke-width="4" points="149.7,48.5 119.7,53.7 104,27.9 133.3,24.2"/>
		<g>
			<polygon fill="#F1F1F1" points="125.9,56.5 117.8,58 113.5,50.9 121.6,49.6"/>
			<path fill="#E3E3E3" d="M114.9,51.5l6.3-1l3.3,5.4l-6.3,1.1L114.9,51.5 M110.5,49.6l6.3,10.5l12.2-2.2l-6.4-10.3L110.5,49.6
				L110.5,49.6z"/>
		</g>
		<g>
			<polygon fill="#F1F1F1" points="110,30.7 102,31.8 98.2,25.5 106.1,24.5"/>
			<path fill="#E3E3E3" d="M99.6,26.1l6.1-0.8l3,4.8l-6.2,0.8L99.6,26.1 M95.4,24.2l5.6,9.5l11.8-1.6l-5.8-9.2L95.4,24.2L95.4,24.2z
				"/>
		</g>
		<g>
			<polygon fill="#F1F1F1" points="139,26.9 131.8,27.9 127.8,21.9 135,21"/>
			<path fill="#E3E3E3" d="M129.1,22.5l5.5-0.7l3.1,4.6l-5.6,0.7L129.1,22.5 M125.1,20.7l5.9,8.9l10.7-1.4l-6-8.7L125.1,20.7
				L125.1,20.7z"/>
		</g>
		<g>
			<polygon fill="#F1F1F1" points="155.6,51.1 148.3,52.5 143.9,45.9 151.2,44.6"/>
			<path fill="#E3E3E3" d="M145.2,46.5l5.7-1l3.5,5l-5.7,1L145.2,46.5 M141,44.6l6.6,9.9l10.9-2l-6.7-9.6L141,44.6L141,44.6z"/>
		</g>
	</g>
	<g>
		<polygon fill="#F1F1F1" points="73.9,38.1 64.9,39.3 61.3,32.4 70.3,31.3"/>
		<path fill="#E3E3E3" d="M62.7,33.1l6.9-0.9l2.8,5.2l-7,0.9L62.7,33.1 M58.3,31.1l5.2,10.3l13.4-1.9l-5.4-10L58.3,31.1L58.3,31.1z"
			/>
	</g>
	<g>
		<polygon fill="#F1F1F1" points="95.7,50.1 86.9,51.5 83.1,44.4 91.7,43.1"/>
		<path fill="#E3E3E3" d="M84.5,45.1l6.7-1l3,5.4l-6.8,1.1L84.5,45.1 M80,43l5.7,10.6l13-2.1l-5.9-10.3L80,43L80,43z"/>
	</g>
	<g>
		<polygon fill="#F1F1F1" points="78.3,63 68.8,64.7 65,57 74.4,55.5"/>
		<path fill="#E3E3E3" d="M66.5,57.7l7.3-1.2l3,5.9l-7.4,1.3L66.5,57.7 M61.7,55.5L67.4,67l14.2-2.6l-5.8-11.2L61.7,55.5L61.7,55.5z
			"/>
	</g>
</g>
<g enable-background="new">
	<path fill="#CCCCCB" d="M57.4,59.1c0,1.4-1.5,6.2-4.4,14.5c-2.9,8.3-4.4,13-4.4,14.1h-5.8c0-1.2-0.9-4.4-2.7-9.8
		c-1.9-5.7-3-9.5-3.2-11.4h-0.4c-0.2,1.8-1.2,5.7-2.9,11.4c-1.6,5.4-2.4,8.6-2.4,9.7h-5.9c0-1.4-1.4-6.3-4.3-14.7
		s-4.3-13.1-4.3-13.9h7c0,0.9,0.8,4.6,2.5,11c1.7,6.4,2.5,10.2,2.5,11.5h0.4c0-1.2,0.9-5,2.7-11.2s2.7-10,2.7-11.2h6.3
		c0,1.1,0.9,4.9,2.7,11.4s2.7,10.2,2.7,11h0.4c0-1,0.8-4.6,2.4-10.7c1.6-6.1,2.4-10,2.4-11.7L57.4,59.1L57.4,59.1z"/>
	<path fill="#CCCCCB" d="M79,59.1l-0.2,4.8c-4.6-0.2-8.7-0.3-12.4-0.3c0.2,2.5,0.3,5.3,0.3,8.3c2.8,0,6-0.1,9.6-0.2v4.6
		C72.6,76,69.4,76,66.6,76c0,4.2,0.1,8,0.2,11.7h-6.1c0.2-4.4,0.3-9.4,0.3-15c0-5.3-0.1-9.9-0.3-13.7H79L79,59.1z"/>
	<path fill="#CCCCCB" d="M101.5,79.9c0,5.7-4.1,8.6-12.3,8.6c-2.8,0-5.4-0.3-7.8-1l1.1-4.9c2.4,0.8,4.6,1.2,6.7,1.2
		c2.3,0,4-0.2,5.1-0.7c1-0.5,1.5-1.2,1.5-2.3c0-1.1-0.5-2-1.4-2.8c-0.8-0.7-2.5-1.5-5.1-2.6c-2.3-1-4-2.1-5.2-3.2
		c-1.4-1.5-2.1-3.3-2.1-5.5c0-2.5,0.9-4.5,2.8-5.9s4.5-2.1,8-2.1c2.9,0,5.3,0.2,7.2,0.7l-0.8,4.9c-2-0.7-4.1-1.1-6.4-1.1
		c-3.5,0-5.2,0.9-5.2,2.8c0,1,0.4,1.8,1.2,2.4c0.7,0.5,2.2,1.3,4.6,2.2c2.5,1,4.4,2.1,5.6,3.3C100.7,75.5,101.5,77.5,101.5,79.9z"/>
</g>
</svg>
