<?xml version="1.0" encoding="utf-8"?>
<!DOCTYPE svg PUBLIC "-//W3C//DTD SVG 1.1//EN" "http://www.w3.org/Graphics/SVG/1.1/DTD/svg11.dtd">
<svg version="1.1" id="Calque_1" xmlns="http://www.w3.org/2000/svg" xmlns:xlink="http://www.w3.org/1999/xlink" x="0px" y="0px"
	 width="143.5px" height="103.7px" viewBox="0 0 143.5 103.7" style="enable-background:new 0 0 143.5 103.7;" xml:space="preserve">
<style type="text/css"><![CDATA[ .st0{fill:#E3E3E3;} .st4{fill:#CCCCCB;} ]]></style>
<g opacity="0.75">
	<g>
		<path class="st0" d="M123.2,61.8l-1.5-9.4C100.9,55.7,86.7,75.3,90,96.1l9.4-1.5C97,79,107.6,64.3,123.2,61.8z"/>
		<path opacity="0.75" fill="#E3E3E3" enable-background="new" d="M110.4,35.8l-1.5-9.4c-31.3,5-52.6,34.5-47.6,65.8l9.5-1.5C66.6,64.5,84.3,40,110.4,35.8z"/>
		<path opacity="0.5" fill="#E3E3E3" enable-background="new" d="M97.5,9.9L96,0C54,6.8,25.5,46.2,32.2,88.1l9.8-1.6C36.2,50,61,15.7,97.5,9.9z"/>
		<path class="st0" d="M141,103.7c1.4,0,2.5-1.1,2.5-2.5v-7.7c0,0,0-0.1,0-0.1h0V79.9c-1.2-1.1-2.5-2.1-4-2.9
			c-8.5-4.4-19-1.2-23.4,7.3c-3.4,6.5-2.3,14.2,2.3,19.5h13.2H141L141,103.7z"/>
	</g>
</g>
<g enable-background="new">
	<path class="st4" d="M21.5,85.7c0,5.7-4.1,8.6-12.4,8.6c-2.8,0-5.4-0.3-7.8-1l1.1-4.9c2.4,0.8,4.6,1.2,6.7,1.2c2.3,0,4-0.2,5.1-0.7
		c1-0.5,1.5-1.2,1.5-2.3c0-1.1-0.5-2-1.5-2.8c-0.8-0.7-2.5-1.5-5.1-2.6c-2.3-1-4-2.1-5.2-3.2c-1.4-1.5-2.1-3.3-2.1-5.5
		c0-2.5,0.9-4.5,2.8-5.9c1.9-1.4,4.5-2.1,8-2.1c2.9,0,5.3,0.2,7.2,0.7L19.1,70c-2-0.7-4.1-1.1-6.4-1.1c-3.5,0-5.2,0.9-5.2,2.8
		c0,1,0.4,1.8,1.2,2.4c0.7,0.5,2.2,1.3,4.6,2.2c2.5,1,4.4,2.1,5.6,3.3C20.6,81.3,21.5,83.3,21.5,85.7z"/>
	<path class="st4" d="M52.8,78.7c0,4.5-1.4,8.2-4.1,11.2c-2.8,3-6.2,4.4-10.2,4.4c-3.9,0-7.1-1.4-9.7-4.1c-2.6-2.7-3.9-6.2-3.9-10.4
		c0-4.5,1.4-8.2,4.1-11.2c2.8-3,6.2-4.4,10.2-4.4c3.9,0,7.1,1.3,9.7,4.1C51.5,71,52.8,74.5,52.8,78.7z M46.8,79.3
		c0-3.1-0.8-5.5-2.4-7.5c-1.6-1.9-3.5-2.8-5.8-2.8c-2.1,0-4,1-5.5,2.9s-2.2,4.3-2.2,7.3c0,3.1,0.8,5.5,2.4,7.4
		c1.6,1.9,3.5,2.9,5.8,2.9c2.1,0,3.9-1,5.4-2.9C46,84.6,46.8,82.2,46.8,79.3z"/>
	<path class="st4" d="M76.3,85.7c0,5.7-4.1,8.6-12.3,8.6c-2.8,0-5.4-0.3-7.8-1l1.1-4.9c2.4,0.8,4.6,1.2,6.7,1.2c2.3,0,4-0.2,5-0.7
		c1-0.5,1.5-1.2,1.5-2.3c0-1.1-0.5-2-1.5-2.8c-0.8-0.7-2.5-1.5-5.1-2.6c-2.3-1-4-2.1-5.2-3.2c-1.4-1.5-2.1-3.3-2.1-5.5
		c0-2.5,0.9-4.5,2.8-5.9c1.9-1.4,4.6-2.1,8.1-2.1c2.9,0,5.3,0.2,7.2,0.7L74,70c-2-0.7-4.1-1.1-6.4-1.1c-3.5,0-5.2,0.9-5.2,2.8
		c0,1,0.4,1.8,1.2,2.4c0.7,0.5,2.2,1.3,4.6,2.2c2.5,1,4.4,2.1,5.6,3.3C75.5,81.3,76.3,83.3,76.3,85.7z"/>
</g>
</svg>
