<?xml version="1.0" encoding="utf-8"?>
<!DOCTYPE svg PUBLIC "-//W3C//DTD SVG 1.1//EN" "http://www.w3.org/Graphics/SVG/1.1/DTD/svg11.dtd">
<svg version="1.1" id="Calque_1" xmlns="http://www.w3.org/2000/svg" xmlns:xlink="http://www.w3.org/1999/xlink" x="0px" y="0px"
	 width="153.5px" height="82.35px" viewBox="0 0 153.5 82.35" enable-background="new 0 0 153.5 82.35" xml:space="preserve">
<g opacity="0.75">
	<polygon fill="#E3E3E3" points="118.19,14.85 111.13,4.38 126.75,0.02 134.2,9.82 	"/>
	<polygon fill="#E3E3E3" points="108.41,33.85 101.1,21.31 118.76,15.7 126.6,27.32 	"/>
	<polygon fill="#E3E3E3" points="94.04,58.12 86.66,42.68 107.14,35.27 115.27,49.42 	"/>
	<polygon fill="#E3E3E3" points="62.12,51.13 56.53,36.05 78.68,28.98 85.2,42.8 	"/>
	<polygon fill="#E3E3E3" points="80.33,26.77 74.46,14.62 93.37,9.34 99.9,20.61 	"/>
	<polygon fill="#E3E3E3" points="90.58,82.33 102.3,76.81 93.94,59.22 69.87,69.16 74.79,82.33 	"/>
	<polygon fill="#E3E3E3" points="126.75,65.3 117.52,49.48 136.3,41.72 146.07,56.21 	"/>
	<polygon fill="#E3E3E3" points="136.79,40.53 128.04,27.66 144.4,21.74 153.53,33.67 	"/>
</g>
<g enable-background="new    ">
	<path fill="#CCCCCB" d="M41.79,43.68c0,1.36-1.46,6.2-4.4,14.5C34.46,66.49,33,71.19,33,72.29h-5.8c0-1.16-0.89-4.42-2.66-9.78
		c-1.89-5.74-2.95-9.53-3.19-11.36h-0.37c-0.23,1.85-1.22,5.66-2.94,11.45c-1.61,5.4-2.42,8.63-2.42,9.69H9.69
		c0-1.38-1.44-6.28-4.33-14.7c-2.88-8.42-4.33-13.06-4.33-13.91H8c0,0.92,0.83,4.6,2.5,11.03c1.67,6.43,2.5,10.25,2.5,11.45h0.35
		c0-1.2,0.89-4.95,2.68-11.24c1.79-6.29,2.68-10.04,2.68-11.24h6.26c0,1.1,0.89,4.91,2.68,11.44c1.79,6.52,2.68,10.21,2.68,11.04
		h0.35c0-1.06,0.81-4.64,2.43-10.74c1.62-6.11,2.43-10.02,2.43-11.73L41.79,43.68L41.79,43.68z"/>
	<path fill="#CCCCCB" d="M65.67,67.08l-0.37,5.05c-2.08,0.5-4.13,0.75-6.15,0.75c-5.02,0-8.85-1.39-11.48-4.16
		c-2.63-2.78-3.94-6.15-3.94-10.12c0-4.12,1.4-7.7,4.19-10.74c2.79-3.05,6.62-4.57,11.48-4.57c1.79,0,3.48,0.21,5.07,0.61
		l-0.77,5.07c-1.73-0.56-3.38-0.83-4.97-0.83c-2.97,0-5.19,0.94-6.64,2.82c-1.45,1.88-2.18,4.17-2.18,6.87
		c0,2.75,0.86,5.14,2.58,7.16c1.72,2.02,4.14,3.03,7.24,3.03C61.56,68.03,63.54,67.71,65.67,67.08z"/>
	<path fill="#CCCCCB" d="M88.72,64.49c0,5.73-4.12,8.59-12.35,8.59c-2.8,0-5.4-0.34-7.8-1.01l1.08-4.9
		c2.37,0.82,4.61,1.23,6.72,1.23c2.34,0,4.03-0.23,5.05-0.68c1.02-0.46,1.54-1.22,1.54-2.29c0-1.11-0.48-2.05-1.45-2.81
		c-0.84-0.67-2.53-1.55-5.08-2.64c-2.31-1-4.04-2.08-5.16-3.25c-1.42-1.48-2.13-3.3-2.13-5.47c0-2.52,0.93-4.49,2.8-5.91
		c1.87-1.42,4.55-2.13,8.05-2.13c2.87,0,5.28,0.24,7.23,0.72l-0.81,4.88c-1.98-0.72-4.12-1.08-6.42-1.08
		c-3.46,0-5.19,0.92-5.19,2.77c0,0.98,0.4,1.78,1.21,2.4c0.7,0.53,2.23,1.27,4.59,2.22c2.51,1.01,4.38,2.12,5.62,3.34
		C87.9,60.09,88.72,62.1,88.72,64.49z"/>
</g>
</svg>
