<svg xmlns="http://www.w3.org/2000/svg" width="720.2" height="213.2" viewBox="0 0 720.2 213.2"><style type="text/css"><![CDATA[
	.st0{fill:#E3E3E2;}
	.st1{fill:#E3E3E3;}
	.st2{fill:none;stroke:#E3E3E3;stroke-width:4;}
	.st3{opacity:0.45;}
	.st4{opacity:0.75;}
	.st5{enable-background:new    ;}
	.st6{fill:#F1F1F1;}
	.st7{opacity:0.5;fill:#E3E3E3;enable-background:new    ;}
	.st8{opacity:0.5;}
	.st9{opacity:0.6;}
	.st10{fill:#CCCCCB;}
	.st11{fill:#CDCDCC;}
	.st12{fill:#D0D0D0;}
	.st13{opacity:0.75;fill:#E3E3E3;enable-background:new    ;}
]]></style><g class="st4"><path class="st1" d="M153.5 55.3l-10.3-34.2L105.1.5 51.2 16.6 80 113.1h22.1l51.4-15.4z"/><path class="st12" d="M137.018 53.718L81.358 70.38l-1.922-6.417 55.66-16.663zM108.49 45.29l-31.805 9.522-1.922-6.418 31.806-9.522zM141.655 69.46l-55.66 16.663-1.92-6.42 55.66-16.662zM105.1.5l8.8 29.4 29.3-8.8"/></g><g class="st5"><path class="st10" d="M22.7 97.6l-.4 5c-2.1.5-4.1.8-6.1.8-5 0-8.9-1.4-11.5-4.2-2.7-2.7-4-6.1-4-10.1 0-4.1 1.4-7.7 4.2-10.7 2.8-3.1 6.6-4.6 11.5-4.6 1.8 0 3.5.2 5.1.6l-.8 5.1c-1.7-.6-3.4-.8-5-.8-3 0-5.2.9-6.6 2.8s-2.2 4.2-2.2 6.9c0 2.8.9 5.1 2.6 7.2 1.7 2 4.1 3 7.2 3 1.9-.1 3.8-.4 6-1zM45.7 95c0 5.7-4.1 8.6-12.4 8.6-2.8 0-5.4-.3-7.8-1l1.1-4.9c2.4.8 4.6 1.2 6.7 1.2 2.3 0 4-.2 5.1-.7s1.5-1.2 1.5-2.3-.5-2-1.5-2.8c-.7-.6-2.4-1.5-4.9-2.6-2.3-1-4-2.1-5.2-3.2-1.4-1.5-2.1-3.3-2.1-5.5 0-2.5.9-4.5 2.8-5.9s4.5-2.1 8-2.1c2.9 0 5.3.2 7.2.7l-.8 4.9c-2-.7-4.1-1.1-6.4-1.1-3.5 0-5.2.9-5.2 2.8 0 1 .4 1.8 1.2 2.4.7.5 2.2 1.3 4.6 2.2 2.5 1 4.4 2.1 5.6 3.3 1.7 1.6 2.5 3.6 2.5 6zM88.4 74.2c0 1.4-1.5 6.2-4.4 14.5-2.9 8.3-4.4 13-4.4 14.1h-5.8c0-1.2-.9-4.4-2.7-9.8-1.9-5.7-2.9-9.5-3.2-11.4h-.4c-.2 1.8-1.2 5.7-2.9 11.4-1.6 5.4-2.4 8.6-2.4 9.7h-5.9c0-1.4-1.4-6.3-4.3-14.7s-4.3-13.1-4.3-13.9h7c0 .9.8 4.6 2.5 11s2.5 10.2 2.5 11.5h.3c0-1.2.9-5 2.7-11.2 1.8-6.2 2.7-10 2.7-11.2h6.3c0 1.1.9 4.9 2.7 11.4 1.8 6.5 2.7 10.2 2.7 11h.3c0-1.1.8-4.6 2.4-10.7 1.6-6.1 2.4-10 2.4-11.7h6.2z"/></g><g class="st4"><path class="st1" d="M297.9 71.1l-1.5-9.4c-20.8 3.3-35 22.9-31.7 43.7l9.4-1.5c-2.4-15.6 8.2-30.3 23.8-32.8z"/><path class="st13" d="M285.1 45.1l-1.5-9.4c-31.3 5-52.6 34.5-47.6 65.8l9.5-1.5c-4.2-26.2 13.5-50.7 39.6-54.9z"/><path class="st7" d="M272.2 19.2l-1.5-9.9c-42 6.8-70.5 46.2-63.8 88.1l9.8-1.6c-5.8-36.5 19-70.8 55.5-76.6z"/><path class="st1" d="M315.7 113c1.4 0 2.5-1.1 2.5-2.5V89.2c-1.2-1.1-2.5-2.1-4-2.9-8.5-4.4-19-1.2-23.4 7.3-3.4 6.5-2.3 14.2 2.3 19.5h13.2l9.4-.1z"/></g><g class="st5"><path class="st10" d="M196.2 95c0 5.7-4.1 8.6-12.4 8.6-2.8 0-5.4-.3-7.8-1l1.1-4.9c2.4.8 4.6 1.2 6.7 1.2 2.3 0 4-.2 5.1-.7 1-.5 1.5-1.2 1.5-2.3s-.5-2-1.5-2.8c-.8-.7-2.5-1.5-5.1-2.6-2.3-1-4-2.1-5.2-3.2-1.4-1.5-2.1-3.3-2.1-5.5 0-2.5.9-4.5 2.8-5.9 1.9-1.4 4.5-2.1 8-2.1 2.9 0 5.3.2 7.2.7l-.7 4.8c-2-.7-4.1-1.1-6.4-1.1-3.5 0-5.2.9-5.2 2.8 0 1 .4 1.8 1.2 2.4.7.5 2.2 1.3 4.6 2.2 2.5 1 4.4 2.1 5.6 3.3 1.7 1.7 2.6 3.7 2.6 6.1zM227.5 88c0 4.5-1.4 8.2-4.1 11.2-2.8 3-6.2 4.4-10.2 4.4-3.9 0-7.1-1.4-9.7-4.1-2.6-2.7-3.9-6.2-3.9-10.4 0-4.5 1.4-8.2 4.1-11.2 2.8-3 6.2-4.4 10.2-4.4 3.9 0 7.1 1.3 9.7 4.1 2.6 2.7 3.9 6.2 3.9 10.4zm-6 .6c0-3.1-.8-5.5-2.4-7.5-1.6-1.9-3.5-2.8-5.8-2.8-2.1 0-4 1-5.5 2.9s-2.2 4.3-2.2 7.3c0 3.1.8 5.5 2.4 7.4 1.6 1.9 3.5 2.9 5.8 2.9 2.1 0 3.9-1 5.4-2.9 1.5-2 2.3-4.4 2.3-7.3zM251 95c0 5.7-4.1 8.6-12.3 8.6-2.8 0-5.4-.3-7.8-1l1.1-4.9c2.4.8 4.6 1.2 6.7 1.2 2.3 0 4-.2 5-.7s1.5-1.2 1.5-2.3-.5-2-1.5-2.8c-.8-.7-2.5-1.5-5.1-2.6-2.3-1-4-2.1-5.2-3.2-1.4-1.5-2.1-3.3-2.1-5.5 0-2.5.9-4.5 2.8-5.9 1.9-1.4 4.6-2.1 8.1-2.1 2.9 0 5.3.2 7.2.7l-.7 4.8c-2-.7-4.1-1.1-6.4-1.1-3.5 0-5.2.9-5.2 2.8 0 1 .4 1.8 1.2 2.4.7.5 2.2 1.3 4.6 2.2 2.5 1 4.4 2.1 5.6 3.3 1.7 1.7 2.5 3.7 2.5 6.1z"/></g><g class="st4"><path class="st1" d="M118.2 145.7l-7.1-10.4 15.7-4.4 7.4 9.8zM108.4 164.7l-7.3-12.5 17.7-5.6 7.8 11.6zM94 189l-7.3-15.4 20.4-7.4 8.2 14.1zM62.1 182l-5.6-15 22.2-7.1 6.5 13.8zM80.3 157.7l-5.8-12.2 18.9-5.3 6.5 11.3zM90.6 213.2l11.7-5.5-8.4-17.6-24 10 4.9 13.1zM126.8 196.2l-9.3-15.8 18.8-7.8 9.8 14.5zM136.8 171.4l-8.8-12.8 16.4-6 9.1 12z"/></g><g class="st5"><path class="st10" d="M41.8 174.6c0 1.4-1.5 6.2-4.4 14.5-2.9 8.3-4.4 13-4.4 14.1h-5.8c0-1.2-.9-4.4-2.7-9.8-1.9-5.7-3-9.5-3.2-11.4H21c-.2 1.9-1.2 5.7-2.9 11.5-1.6 5.4-2.4 8.6-2.4 9.7h-6c0-1.4-1.4-6.3-4.3-14.7S1 175.4 1 174.6h7c0 .9.8 4.6 2.5 11s2.5 10.3 2.5 11.5h.4c0-1.2.9-5 2.7-11.2 1.8-6.3 2.7-10 2.7-11.2H25c0 1.1.9 4.9 2.7 11.4 1.8 6.5 2.7 10.2 2.7 11h.4c0-1.1.8-4.6 2.4-10.7 1.6-6.1 2.4-10 2.4-11.7l6.2-.1zM65.7 198l-.4 5c-2.1.5-4.1.8-6.1.8-5 0-8.9-1.4-11.5-4.2-2.6-2.8-3.9-6.2-3.9-10.1 0-4.1 1.4-7.7 4.2-10.7s6.6-4.6 11.5-4.6c1.8 0 3.5.2 5.1.6l-.9 5.1c-1.7-.6-3.4-.8-5-.8-3 0-5.2.9-6.6 2.8-1.4 1.9-2.2 4.2-2.2 6.9 0 2.8.9 5.1 2.6 7.2 1.7 2 4.1 3 7.2 3 1.9-.1 3.8-.4 6-1zM88.7 195.4c0 5.7-4.1 8.6-12.4 8.6-2.8 0-5.4-.3-7.8-1l1.1-4.9c2.4.8 4.6 1.2 6.7 1.2 2.3 0 4-.2 5-.7s1.5-1.2 1.5-2.3-.5-2-1.5-2.8c-.6-.6-2.3-1.5-4.9-2.6-2.3-1-4-2.1-5.2-3.2-1.4-1.5-2.1-3.3-2.1-5.5 0-2.5.9-4.5 2.8-5.9s4.6-2.1 8.1-2.1c2.9 0 5.3.2 7.2.7l-.8 4.9c-2-.7-4.1-1.1-6.4-1.1-3.5 0-5.2.9-5.2 2.8 0 1 .4 1.8 1.2 2.4.7.5 2.2 1.3 4.6 2.2 2.5 1 4.4 2.1 5.6 3.3 1.7 1.6 2.5 3.6 2.5 6z"/></g><path class="st2" d="M263.9 202.5l12.9 8.6 6.1-.7 5.1-29.3 28.3 10.6"/><path class="st6" d="M293.9 184l-7.9 1.7-4.6-7.3 7.9-1.5z"/><path class="st1" d="M282.8 179l6.1-1.2 3.6 5.6-6.2 1.3-3.5-5.7m-4.4-2l6.8 10.9 11.9-2.5-6.9-10.6-11.8 2.2z"/><path class="st6" d="M318.2 198v-8.5l-5.3 1.2 4.9 7.4z"/><path class="st1" d="M318.2 200.2v-3.1h-.1l-3.8-5.8 3.9-.9v-3l-8.4 1.9 7.4 11.1z"/><path class="st6" d="M267.6 202.8l-9.1 2.1-4.5-8.2 9-1.9z"/><path class="st1" d="M255.6 197.4l7-1.5 3.5 6.2-7 1.6-3.5-6.3m-4.9-2.2l6.7 12.3 13.5-3.2-6.8-11.9-13.4 2.8z"/><path class="st6" d="M286.1 213.2l-3.3-5.6-8.7 2.2 1.9 3.4z"/><path class="st1" d="M277.2 213.2l-1.6-2.8 6.8-1.6 2.6 4.4h3.6l-4.9-8.1-13 3.2 2.8 4.9z"/><path class="st6" d="M298.9 163.8l-30 5.2-15.7-25.8 29.3-3.7z"/><path class="st2" d="M298.9 163.8l-30 5.2-15.7-25.8 29.3-3.7z"/><path class="st6" d="M275.1 171.8l-8.1 1.5-4.3-7.1 8.1-1.3z"/><path class="st1" d="M264.1 166.8l6.3-1 3.3 5.4-6.3 1.1-3.3-5.5m-4.4-1.9l6.3 10.5 12.2-2.2-6.4-10.3-12.1 2z"/><path class="st6" d="M259.2 146l-8 1.1-3.8-6.3 7.9-1z"/><path class="st1" d="M248.8 141.4l6.1-.8 3 4.8-6.2.8-2.9-4.8m-4.2-1.9l5.6 9.5 11.8-1.6-5.8-9.2-11.6 1.3z"/><path class="st6" d="M288.2 142.2l-7.2 1-4-6 7.2-.9z"/><path class="st1" d="M278.3 137.8l5.5-.7 3.1 4.6-5.6.7-3-4.6m-4-1.8l5.9 8.9 10.7-1.4-6-8.7-10.6 1.2z"/><path class="st6" d="M304.8 166.4l-7.3 1.4-4.4-6.6 7.3-1.3z"/><path class="st1" d="M294.4 161.8l5.7-1 3.5 5-5.7 1-3.5-5m-4.2-1.9l6.6 9.9 10.9-2-6.7-9.6-10.8 1.7z"/><path class="st6" d="M223.1 153.4l-9 1.2-3.6-6.9 9-1.1z"/><path class="st1" d="M211.9 148.4l6.9-.9 2.8 5.2-7 .9-2.7-5.2m-4.4-2l5.2 10.3 13.4-1.9-5.4-10-13.2 1.6z"/><path class="st6" d="M244.9 165.4l-8.8 1.4-3.8-7.1 8.6-1.3z"/><path class="st1" d="M233.7 160.4l6.7-1 3 5.4-6.8 1.1-2.9-5.5m-4.5-2.1l5.7 10.6 13-2.1-5.9-10.3-12.8 1.8z"/><path class="st6" d="M227.5 178.3L218 180l-3.8-7.7 9.4-1.5z"/><path class="st1" d="M215.7 173l7.3-1.2 3 5.9-7.4 1.3-2.9-6m-4.8-2.2l5.7 11.5 14.2-2.6-5.8-11.2-14.1 2.3z"/><g class="st5"><path class="st10" d="M206.6 174.4c0 1.4-1.5 6.2-4.4 14.5-2.9 8.3-4.4 13-4.4 14.1H192c0-1.2-.9-4.4-2.7-9.8-1.9-5.7-3-9.5-3.2-11.4h-.4c-.2 1.8-1.2 5.7-2.9 11.4-1.6 5.4-2.4 8.6-2.4 9.7h-5.9c0-1.4-1.4-6.3-4.3-14.7-2.9-8.4-4.3-13.1-4.3-13.9h7c0 .9.8 4.6 2.5 11s2.5 10.2 2.5 11.5h.4c0-1.2.9-5 2.7-11.2 1.8-6.2 2.7-10 2.7-11.2h6.3c0 1.1.9 4.9 2.7 11.4s2.7 10.2 2.7 11h.4c0-1 .8-4.6 2.4-10.7 1.6-6.1 2.4-10 2.4-11.7h6zM228.2 174.4l-.2 4.8c-4.6-.2-8.7-.3-12.4-.3.2 2.5.3 5.3.3 8.3 2.8 0 6-.1 9.6-.2v4.6c-3.7-.3-6.9-.3-9.7-.3 0 4.2.1 8 .2 11.7h-6.1c.2-4.4.3-9.4.3-15 0-5.3-.1-9.9-.3-13.7h18.3v.1zM250.7 195.2c0 5.7-4.1 8.6-12.3 8.6-2.8 0-5.4-.3-7.8-1l1.1-4.9c2.4.8 4.6 1.2 6.7 1.2 2.3 0 4-.2 5.1-.7 1-.5 1.5-1.2 1.5-2.3 0-1.1-.5-2-1.4-2.8-.8-.7-2.5-1.5-5.1-2.6-2.3-1-4-2.1-5.2-3.2-1.4-1.5-2.1-3.3-2.1-5.5 0-2.5.9-4.5 2.8-5.9 1.9-1.4 4.5-2.1 8-2.1 2.9 0 5.3.2 7.2.7l-.8 4.9c-2-.7-4.1-1.1-6.4-1.1-3.5 0-5.2.9-5.2 2.8 0 1 .4 1.8 1.2 2.4.7.5 2.2 1.3 4.6 2.2 2.5 1 4.4 2.1 5.6 3.3 1.7 1.6 2.5 3.6 2.5 6z"/></g><path class="st13" d="M442 113.1h11.8c.4-3.6 1.2-7.8.5-11.9-1-5.7-9.1-9-7.6-15.8.9-1.1 2-2.1 2.5-3.6-3.7-5.4-11-7.3-16.3-11.2.1-2.9-.9-4.5-2.5-5.6.1 1.4.9 2.1 1 3.6-3.6-3.5-4.9-9-5.1-14.3 3.3-10.4 9.6-19.4 18-26.1.1 0 .1.1.2.1-.1 1.4-1.9 1.2-2.6 2.1 3.5 1 3.6-3.1 5.7-.5.2-1.2-.9-1.1-.5-2.6.6 0 .7-.7 1.5-.5.3 2.9 1.9 1.6 2.6 3.6.1-.6.6-.8 1-1 .5-1.9-1.9-.8-1.5-2.6.1-2.8 4.3-1.5 6.2-2.6 0 .9 1.4.3 1.5 1-.7-.1-3.7-.1-2.1.5 5.2-.4 5.2 3.5 8.2 6.2-1-.1-1 .7-1.5 1-.7.1-1.6-2.1-2.1-.5 1.1.1 1.1 1.3 1 2.6-2.6-.8-.3.1-1.6 1-1.9-1-3.4-2.4-5.6-3.1 1.3-.4 3-.5 3.1-2.1.4-1.6-1.4-1-1-2.6-.8 0-4.2-.2-2.6.5.4 2.3-1.5 2.3-2.1 3.6.8.4 1.6.8 1.5 2.1-.4-.3-.8-.5-1.5-.5-.7.1-.5 1 0 1-.1.9-2.5-.2-2.1-1.5-2.4.8-3.6 2.9-5.1 4.6.4 1.9 2.4 2.4 4.1 3.1.4.3.8.5 1.5.5-.4 1.6.5 1.9.5 3.1 1.8-4.1 3.3-3.1 3.1-9.8.4.1.5-.2.5-.5.5-.1 1.2 1.4 3.1 1 1.3.4.3 3.2 2.1 3.1 1.7.6.4-1.7 2.1-1 1.6 4.8 4.4 7.2 5.1 11.8-1.6.4-1.9-.5-3.1-.5-1.8.5-.9-1.7-.5-2.1.8-.3 1.3-.8 1.5-1.5-1.9.5-3.5 3.2-5.1 1 .4 1.5-.7 1.3-.5 2.6-.1.4.2.5.5.5.4.1 1 0 1 .5v.5c-2.4 1.6-8.8 3.4-9.8 9.3-1.5 0-1.9 1.2-2.6 2.1-1.1.4 1 3.6-.5 4.6-1.2-.6-1.7-2.1-2-3.6-4.7-2.7-13.2 5.9-5.1 7.7h.5c-.2-1.6 2.8-2.3 3.1-.5-.8.4-1.1 1.3-1 2.6-.1 1.1 1.8.2 2.6.5-.1 2.3-1.1 4.2 1.5 4.6.4.1 1 0 1 .5 2-.2 2.2-2.2 4.1-2.6 1.2 1.1 3.3 1.5 6.7 1.5.7 3.2 4.6 3.3 6.7 5.1v2.6c3.7 1 6.4 2.9 9.8 4.1-.5 4.8-3.7 7-3.6 12.4-1.4.7-2.7 1.4-4.1 2.1-.5 3.4-2.7 7.5-5.7 6.7-.2 1.2.9 1.1.5 2.6l-.9.3h52.8c4.4-3.8 8.2-8.3 11.2-13.3v-4c-.3.9-.9 1.8-.9 2.6-.5.9-1.2 1.8-1.5 3 0 0 0 .1-.1.1-.5.1-.8.6-1 1-1.3-4 1.6-5.5 3.1-8.8l.4.4V83.3c-1.4 1.7-3.1 3.1-4.5 4.8.1 3.9.3 5 0 8.8-5.2 3.6-5.6 14.6-13.9 13.4-1.4-3.8-1.4-8.9-3.1-12.3 3.4-4.9-1.4-8.2-1-14.4-.7-.8-2.7-.4-2.6-2.1-3.2 1.1-5.5.7-8.8 1-2.3-1.3-3.2-4-5.2-5.6 1.7-5-1.1-10.3 4.6-12.4-.3-6.1 9.5-7.1 13.4-5.7v2.1c2 .4 3 1.8 4.6 2.6-.1-1.3.8-1.6 1.5-2.1 1.6 1 1.2 2.4 3.6 1.6.9.3 3-.6 3.1.5.8-.4.7-1.7 1-2.6-.5-1.8-3.2-1.3-4.6-2.1-.7-.7-.7-2.4 0-3.1-3.3-.2-.5 2.5-2.6 3.1h-1c.5-1.6-.8-1.6-1-2.6-1.5-.1-2 3.5-3.6 1.5 3.7-.6-2.1-5.2-2.6-3.1-.1-.8.2-1.9-.5-2-1.8.6-3 1.8-4.7 2.6v2.1c-.4.2-.9.5-1 1h-4.6c0-.6-.7-.7-.5-1.5.8-1.1-.1-3.8 1.5-4.1 1.5-.7 2.6 1.4 3.1 0h.5c.2-1.9-1-2.4-1.5-3.6.1-1 1.7-.4 1.5-1.5 4.4-.2 4.5-4.7 7.2-6.7-.4.6-.7 1.4-.5 2.6 1.9.5.9-2.7.5-3.1-1.2-.2-2 .1-2.6.5-.7-.6-.3-2.4-1-3.1 3.3-2.9 4.2-8.1 9.8-8.8 1.7.4 3.1 1 4.4 1.8 1.1 1 2.1 2 3.1 3.1 0 .1.1.2.2.3-1.5.4-1.3-.7-2.6-.5.5.9.9 2.8 2.1 1.5.1.7.7.2 1.3-.3 2.6 3 4.9 6.2 6.8 9.6v-2.3c-9.8-16.2-27.6-27-47.8-27-8.5 0-16.5 1.9-23.7 5.3v-.1c-.7.3-1.4.7-2.1 1.1h.1c-.1.1-.3.1-.4.2v-.1c-.4.2-.8.4-1.2.7h.1c-.4.2-.9.5-1.3.7h-.1c.2-.1.5-.3.7-.4-.2.1-.5.3-.7.4-.1.1-.2.1-.3.2h.1c-.2.1-.4.3-.7.4v-.1s-.1 0-.1.1h.1c-.1.1-.2.1-.3.2h.1c-.1.1-.2.1-.3.2-.1.1-.3.2-.4.3v.1-.1s.1 0 .1-.1c0 0-.1 0-.1.1-1.5 1-3 2-4.4 3.2v.1c-12.8 10.2-20.9 26-20.9 43.6.5 16.6 8 31.7 19.7 41.9zm3.7-44.5c1.4-2.2 4.9.9 6.2 2.1-2.9 0-3.3-2.4-6.2-2.1zm6.1 3.1c.5-.9 1.6-1.1 3.1-1 .2 2.1-1.8 1.3-3.1 1zm43.8-32c2.7.6 1.9 4.6 4.1 5.7v1c-1.2-.2-1.1.9-2.6.5-1-.1-1.1.6-2.1.5 2.1-2.7-.5-4.9.6-7.7zm-1 3.1c.6.6.6 1.8.5 3.1h-2.6c-.2-1.9.4-3 2.1-3.1zm-10.8-4.6c-.8 2.1-3.3 2.5-5.2 3.6-.6-.1-.3-.5 0-.5-.1-1-1.7-.3-2.1-1-.5-6.3 7.8-7.8 7.3-2.1zm3-3.1c-.5-1.1-1.6-1.5-1.5-3.1 2.1.5 3.1.5 5.2 0 .1.4.5.5.5 1-.1 2.1-2 2.2-4.2 2.1zm-22.1-17h-.2c4.5-1.2 9.2-1.8 14-1.8 2.8 0 5.7.2 8.4.6 0 .1 0 .1-.1.1.3.1.7.1 1.1 0 .9.2 1.7.3 2.6.5-.8.4-1.1 1.4-2.1 1.5-.4 1.6.5 1.9.5 3.1-.9.2-1.3-.8-1.5 0 1.8 2.3-2.5 4.3 0 6.2-3.7 1.9-9 2.3-11.3 5.6-1.1 1.3-1.6 3.2-3.1 4.1-3.7-1.1-4.4-7.1-3.3-9.5.1-.1.2-.2.2-.3-.1.1-.1.2-.2.3-.3.2-.8.1-.9-.3 2.4-6.8-5.9-4.8-7.2-8.8.9-.4 3.3.5 3.1-1.3zm-11.8 4.6c1 .3 1.9.5 3.1-.5-.7 0-1.5.1-2.2 0 2.4-1.2 5-2.3 7.6-3.2-2 1-3.3 2.7-4.4 4.7-2.4.2-4.3.5-5.8-.1.6-.2 1.1-.6 1.7-.9zm-4 2.4c.5-.3 1-.6 1.5-1 .1.2.3.4.9.2-.5 1.2-1.6 1.9-3.1 2.1.4-.5.6-.9.7-1.3z"/><g class="st5"><path class="st10" d="M398.8 74.3c0 1.4-1.5 6.2-4.4 14.5-2.9 8.3-4.4 13-4.4 14.1h-5.8c0-1.2-.9-4.4-2.7-9.8-1.9-5.7-2.9-9.5-3.2-11.4h-.4c-.2 1.8-1.2 5.7-2.9 11.4-1.6 5.4-2.4 8.6-2.4 9.7h-5.9c0-1.4-1.4-6.3-4.3-14.7-2.9-8.4-4.3-13.1-4.3-13.9h7c0 .9.8 4.6 2.5 11s2.5 10.2 2.5 11.5h.3c0-1.2.9-5 2.7-11.2s2.7-10 2.7-11.2h6.3c0 1.1.9 4.9 2.7 11.4s2.7 10.2 2.7 11h.4c0-1 .8-4.6 2.4-10.7s2.4-10 2.4-11.7h6.1zM435.3 102.9h-6.4c0-2.5-.1-6.7-.5-12.6-.3-5.9-.5-9.6-.5-11.1h-.3c-.1.9-.5 2.5-1.2 4.9-.6 2.4-1.8 5.9-3.5 10.5-1.8 4.6-2.6 7.4-2.6 8.3h-4.9c0-.9-.8-3.7-2.5-8.4-1.7-4.6-2.8-7.9-3.3-9.8-.5-1.9-.9-3.7-1.2-5.5h-.3c0 1.8-.2 5.8-.5 11.8s-.5 10-.5 11.9h-5.8c0-.4.5-4.8 1.6-13.2 1.1-8.4 1.6-13.5 1.6-15.4h8.5c0 1.6.9 5.3 2.7 10.9 1.8 5.6 2.7 9.2 2.7 10.7h.3c0-1.6 1-5.2 3.1-10.8s3.1-9.2 3.1-10.8h8.4c0 3 .3 8.4 1 16.2.6 7.8 1 11.9 1 12.4zM459.8 95.1c0 5.7-4.1 8.6-12.4 8.6-2.8 0-5.4-.3-7.8-1l1.1-4.9c2.4.8 4.6 1.2 6.7 1.2 2.3 0 4-.2 5-.7s1.5-1.2 1.5-2.3-.5-2-1.5-2.8c-.8-.7-2.5-1.5-5.1-2.6-2.3-1-4-2.1-5.2-3.2-1.4-1.5-2.1-3.3-2.1-5.5 0-2.5.9-4.5 2.8-5.9s4.5-2.1 8-2.1c2.9 0 5.3.2 7.2.7l-.8 4.9c-2-.7-4.1-1.1-6.4-1.1-3.5 0-5.2.9-5.2 2.8 0 1 .4 1.8 1.2 2.4.7.5 2.2 1.3 4.6 2.2 2.5 1 4.4 2.1 5.6 3.3 2 1.6 2.8 3.6 2.8 6z"/></g><g class="st3"><path class="st0" d="M432.1 206.3h-29.2l19.3-12.2h29.2zM467.9 206.3h-29.1l19.3-12.2h29.1zM503.8 206.3h-29.2l19.3-12.2h29.2zM456.3 190.5h-29.2l19.3-12.2h29.2zM492.2 190.5H463l19.3-12.2h29.2zM526 178.3h-7.9l-19.3 12.2H526zM457.5 213.2l5.5-3.5h-29.2l-5.5 3.5zM421.6 213.2l5.5-3.5H398l-5.5 3.5zM493.3 213.2l5.5-3.5h-29.1l-5.5 3.5z"/></g><g class="st9"><path class="st0" d="M433.9 188.6h-37.6l24.9-16.4h37.6zM482 188.6h-37.6l24.9-16.4h37.6zM463.8 168.6h-37.6l24.9-16.4h37.6zM526 159.3v-7.1h-26.8l-24.9 16.4h37.6z"/></g><path class="st0" d="M473.6 153.3h-55.7l36.8-24.3h55.7z"/><g class="st5"><path class="st11" d="M374.4 174.3c0 1.4-1.5 6.2-4.4 14.5-2.9 8.3-4.4 13-4.4 14.1h-5.8c0-1.2-.9-4.4-2.7-9.8-1.9-5.7-3-9.5-3.2-11.4h-.4c-.2 1.8-1.2 5.7-2.9 11.5-1.6 5.4-2.4 8.6-2.4 9.7h-5.9c0-1.4-1.4-6.3-4.3-14.7s-4.3-13.1-4.3-13.9h7c0 .9.8 4.6 2.5 11s2.5 10.2 2.5 11.5h.3c0-1.2.9-5 2.7-11.2 1.8-6.2 2.7-10 2.7-11.2h6.3c0 1.1.9 4.9 2.7 11.4 1.8 6.5 2.6 10.2 2.6 11h.3c0-1 .8-4.6 2.4-10.7 1.6-6.1 2.4-10 2.4-11.7l6.3-.1zM410.9 202.9h-6.4c0-2.5-.2-6.7-.5-12.6-.3-5.9-.5-9.6-.5-11.1h-.3c-.2.9-.5 2.5-1.2 4.9-.6 2.4-1.8 5.9-3.5 10.5s-2.6 7.4-2.6 8.3H391c0-.9-.8-3.7-2.5-8.4-1.7-4.6-2.8-7.9-3.3-9.8s-.9-3.7-1.2-5.5h-.3c0 1.8-.2 5.8-.5 11.8s-.5 10-.5 11.9h-5.8c0-.4.5-4.8 1.6-13.2s1.6-13.5 1.6-15.4h8.5c0 1.6.9 5.3 2.7 10.9s2.7 9.2 2.7 10.7h.3c0-1.6 1-5.2 3.1-10.8 2-5.6 3.1-9.2 3.1-10.8h8.4c0 3 .3 8.4 1 16.2.6 7.8 1 12 1 12.4zM436.7 174.3l-.1 4.7c-2.9-.2-5.7-.3-8.3-.3v9.2c0 5.3.1 10.3.2 15h-6.1c.2-4.7.3-9.7.3-15 0-3.3 0-6.4-.1-9.2-2.1 0-4.9.1-8.5.3l.2-4.8 22.4.1zM459 195.1c0 5.7-4.1 8.6-12.4 8.6-2.8 0-5.4-.3-7.8-1l1.1-4.9c2.4.8 4.6 1.2 6.7 1.2 2.3 0 4-.2 5.1-.7 1-.4 1.5-1.2 1.5-2.3 0-1.1-.5-2.1-1.4-2.8-.8-.7-2.5-1.5-5.1-2.6-2.3-1-4-2.1-5.2-3.2-1.4-1.5-2.1-3.3-2.1-5.5 0-2.5.9-4.5 2.8-5.9 1.9-1.4 4.6-2.1 8.1-2.1 2.9 0 5.3.2 7.2.7l-.8 4.9c-2-.7-4.1-1.1-6.4-1.1-3.5 0-5.2.9-5.2 2.8 0 1 .4 1.8 1.2 2.4.7.5 2.2 1.3 4.6 2.2 2.5 1 4.4 2.1 5.6 3.3 1.7 1.6 2.5 3.6 2.5 6z"/></g><path class="st13" d="M660.6 92.4l7.9 1.2c.4 2.5 1.1 4.8 2.2 7l-6.1 4.5c-1.8 1.3-2.1 3.8-.8 5.5l1.8 2.5h8.1l4.8-3.5c1.9 1.3 3.9 2.3 6.1 3.1l-.1.4H698c1.5-.4 3-.9 4.4-1.6l1.2 1.6h14.3c-.1-.5-.3-1-.7-1.4l-5.8-8c1.1-1.6 2-3.3 2.7-5.2l6.1.9v-12l-4.8-.7c-.3-2-.8-3.9-1.6-5.7l6.4-4.7v-9l-.4-.5c-1.3-1.8-3.8-2.1-5.5-.8l-7.6 5.6c-1.6-1.3-3.5-2.4-5.4-3.2l1.3-8.6c.3-2.2-1.1-4.2-3.3-4.5l-3.9-.6c-2.2-.3-4.2 1.2-4.5 3.3l-1.3 8.6c-2.3.2-4.6.8-6.7 1.7l-4.7-6.4c-1.3-1.7-3.8-2.1-5.5-.8l-3.2 2.3c-1.8 1.3-2.1 3.8-.8 5.5l4.8 6.5c-1.5 1.9-2.8 4-3.6 6.4l-7.3-1.1c-2.2-.3-4.2 1.2-4.5 3.3l-.8 3.9c-.3 2.2 1.2 4.2 3.3 4.5zm21.6-3.7c.8-5.4 5.9-9.1 11.2-8.3 5.4.8 9.1 5.8 8.3 11.2s-5.9 9.1-11.3 8.3c-5.3-.7-9-5.8-8.2-11.2z"/><path class="st1" d="M667.2 55.1l-6.1-.1c-.3-1.2-.8-2.3-1.5-3.4l4.2-4c1-.9 1-2.5.1-3.5l-1.7-1.8c-.9-1-2.5-1-3.5-.1l-4.2 4.1c-1.1-.7-2.3-1.2-3.6-1.5l.1-5.4c0-1.4-1.1-2.5-2.4-2.5h-2.5c-1.4 0-2.5 1.1-2.5 2.4l-.1 5.4c-1.4.3-2.8.9-4 1.6l-3.4-3.5c-.9-1-2.5-1-3.5-.1l-1.8 1.7c-1 .9-1 2.5 0 3.5l3.5 3.6c-.8 1.3-1.4 2.7-1.7 4.2l-4.6-.1c-1.4 0-2.5 1.1-2.5 2.4v2.5c0 1.4 1.1 2.5 2.4 2.5l4.9.1c.4 1.5 1.1 2.9 1.9 4.1l-3.4 3.3c-1 .9-1 2.5-.1 3.5l1.7 1.8c.9 1 2.5 1 3.5.1l3.8-3.7c1.2.6 2.6 1.1 4 1.4l-.1 5.1c0 1.4 1.1 2.5 2.4 2.5h2.5c1.4 0 2.5-1.1 2.5-2.4l.1-5.8c1.2-.4 2.4-1 3.5-1.7l3.9 4c.9 1 2.5 1 3.5.1l1.8-1.7c1-.9 1-2.5.1-3.5l-4.3-4.4c.6-1.1 1-2.2 1.3-3.4l5.8.1c1.4 0 2.5-1 2.5-2.4v-2.4c-.1-1.5-1.2-2.6-2.5-2.6zm-20.5 10c-3.4-.1-6.1-2.9-6-6.2.1-3.4 2.9-6.1 6.2-6 3.4.1 6.1 2.9 6 6.2 0 3.4-2.8 6.1-6.2 6z"/><g class="st5"><path class="st10" d="M606.6 74.3c0 1.4-1.5 6.2-4.4 14.5-2.9 8.3-4.4 13-4.4 14.1H592c0-1.2-.9-4.4-2.7-9.8-1.9-5.7-2.9-9.5-3.2-11.4h-.4c-.2 1.8-1.2 5.7-2.9 11.4-1.6 5.4-2.4 8.6-2.4 9.7h-5.9c0-1.4-1.4-6.3-4.3-14.7s-4.3-13.1-4.3-13.9h7c0 .9.8 4.6 2.5 11s2.5 10.2 2.5 11.5h.4c0-1.2.9-5 2.7-11.2s2.7-10 2.7-11.2h6.3c0 1.1.9 4.9 2.7 11.4s2.7 10.2 2.7 11h.3c0-1.1.8-4.6 2.4-10.7 1.6-6.1 2.4-10 2.4-11.7h6.1zM630.9 81.8c0 3.5-1.3 6.1-3.9 7.8-2.6 1.7-5.8 2.5-9.6 2.5h-1.5c0 2.8.1 6.4.2 10.9h-6.2c.2-4.2.3-9.2.3-15 0-5.3-.1-9.8-.3-13.7h3.8c.5 0 1.6 0 3.1-.1s2.9-.1 4-.1c2.8 0 5.1.6 7 1.9 2.1 1.3 3.1 3.2 3.1 5.8zm-5.7 1.2c0-3.1-2.1-4.7-6.2-4.7-1 0-2.1.1-3.3.3.2 2.8.2 5.9.2 9.4h1.3c5.3.1 8-1.6 8-5zM653.7 95.1c0 5.7-4.1 8.6-12.4 8.6-2.8 0-5.4-.3-7.8-1l1.1-4.9c2.4.8 4.6 1.2 6.7 1.2 2.3 0 4-.2 5-.7s1.5-1.2 1.5-2.3-.5-2-1.5-2.8c-.8-.7-2.5-1.5-5.1-2.6-2.3-1-4-2.1-5.2-3.2-1.4-1.5-2.1-3.3-2.1-5.5 0-2.5.9-4.5 2.8-5.9 1.9-1.4 4.5-2.1 8-2.1 2.9 0 5.3.2 7.2.7l-.8 4.9c-2-.7-4.1-1.1-6.4-1.1-3.5 0-5.2.9-5.2 2.8 0 1 .4 1.8 1.2 2.4.7.5 2.2 1.3 4.6 2.2 2.5 1 4.4 2.1 5.6 3.3 2 1.6 2.8 3.6 2.8 6z"/></g></svg>