<?xml version="1.0" encoding="utf-8"?>
<!-- Generator: Adobe Illustrator 15.1.0, SVG Export Plug-In . SVG Version: 6.00 Build 0)  -->
<!DOCTYPE svg PUBLIC "-//W3C//DTD SVG 1.1//EN" "http://www.w3.org/Graphics/SVG/1.1/DTD/svg11.dtd">
<svg version="1.1" id="Calque_1" xmlns="http://www.w3.org/2000/svg" xmlns:xlink="http://www.w3.org/1999/xlink" x="0px" y="0px"
	 width="153.5px" height="82.352px" viewBox="0 0 153.5 82.352" enable-background="new 0 0 153.5 82.352" xml:space="preserve">
<g opacity="0.75">
	<polygon fill="#E3E3E3" points="118.193,45.044 111.133,34.572 126.746,30.215 134.198,40.008 	"/>
	<polygon fill="#E3E3E3" points="108.413,64.038 101.104,51.5 118.764,45.889 126.598,57.508 	"/>
	<polygon fill="#E3E3E3" points="94.042,88.315 86.658,72.867 107.137,65.458 115.266,79.608 	"/>
	<polygon fill="#E3E3E3" points="62.117,81.323 56.534,66.24 78.676,59.174 85.203,72.995 	"/>
	<polygon fill="#E3E3E3" points="80.331,56.963 74.457,44.809 93.365,39.531 99.896,50.803 	"/>
	<polygon fill="#E3E3E3" points="90.582,112.519 102.305,107.001 93.939,89.413 69.87,99.356 74.791,112.519 	"/>
	<polygon fill="#E3E3E3" points="126.75,95.493 117.523,79.669 136.305,71.91 146.072,86.396 	"/>
	<polygon fill="#E3E3E3" points="136.786,70.724 128.04,57.848 144.4,51.933 153.531,63.856 	"/>
</g>
<g enable-background="new    ">
	<path fill="#CCCCCB" d="M41.79,73.871c0,1.362-1.465,6.196-4.395,14.502s-4.395,13.008-4.395,14.106H27.2
		c0-1.157-0.887-4.416-2.659-9.777c-1.889-5.742-2.951-9.529-3.186-11.36h-0.373c-0.235,1.846-1.216,5.662-2.945,11.448
		c-1.611,5.404-2.417,8.635-2.417,9.689H9.688c0-1.377-1.443-6.276-4.329-14.699s-4.329-13.06-4.329-13.909h6.965
		c0,0.923,0.835,4.6,2.505,11.03s2.505,10.247,2.505,11.447h0.352c0-1.2,0.894-4.947,2.681-11.238
		c1.787-6.292,2.681-10.038,2.681-11.239h6.262c0,1.099,0.894,4.911,2.682,11.437c1.786,6.526,2.68,10.207,2.68,11.041h0.352
		c0-1.055,0.81-4.636,2.429-10.744c1.618-6.108,2.428-10.02,2.428-11.733H41.79z"/>
	<path fill="#CCCCCB" d="M65.674,97.273l-0.373,5.053c-2.081,0.498-4.131,0.748-6.152,0.748c-5.025,0-8.852-1.389-11.481-4.164
		c-2.629-2.776-3.944-6.148-3.944-10.119c0-4.115,1.396-7.697,4.187-10.744c2.79-3.047,6.617-4.57,11.48-4.57
		c1.787,0,3.479,0.205,5.075,0.615l-0.769,5.075c-1.729-0.557-3.384-0.834-4.966-0.834c-2.974,0-5.186,0.941-6.636,2.823
		s-2.175,4.171-2.175,6.866c0,2.754,0.86,5.142,2.581,7.163c1.722,2.021,4.135,3.032,7.24,3.032
		C61.558,98.217,63.535,97.903,65.674,97.273z"/>
	<path fill="#CCCCCB" d="M88.724,94.679c0,5.729-4.116,8.592-12.349,8.592c-2.798,0-5.398-0.337-7.801-1.011l1.077-4.899
		c2.373,0.82,4.614,1.23,6.724,1.23c2.344,0,4.028-0.228,5.054-0.682s1.538-1.216,1.538-2.285c0-1.113-0.483-2.051-1.45-2.812
		c-0.835-0.674-2.526-1.553-5.075-2.637c-2.315-0.996-4.036-2.08-5.164-3.252c-1.421-1.479-2.131-3.303-2.131-5.472
		c0-2.52,0.934-4.489,2.801-5.91C73.815,74.12,76.499,73.41,80,73.41c2.871,0,5.281,0.241,7.229,0.725l-0.813,4.878
		C84.439,78.295,82.3,77.936,80,77.936c-3.457,0-5.186,0.924-5.186,2.77c0,0.98,0.403,1.779,1.209,2.395
		c0.703,0.527,2.233,1.268,4.592,2.22c2.506,1.01,4.38,2.124,5.625,3.34C87.896,90.284,88.724,92.292,88.724,94.679z"/>
</g>
</svg>
