<?xml version="1.0" encoding="utf-8"?>
<!DOCTYPE svg PUBLIC "-//W3C//DTD SVG 1.1//EN" "http://www.w3.org/Graphics/SVG/1.1/DTD/svg11.dtd">
<svg version="1.1" id="Calque_1" xmlns="http://www.w3.org/2000/svg" xmlns:xlink="http://www.w3.org/1999/xlink" x="0px" y="0px"
	 width="143.5px" height="103.74px" viewBox="0 0 143.5 103.74" enable-background="new 0 0 143.5 103.74" xml:space="preserve">
<g opacity="0.75">
	<g>
		<path fill="#E3E3E3" d="M123.24,61.81l-1.52-9.45c-20.85,3.36-35.05,22.94-31.74,43.79l9.45-1.52
			C96.97,79.02,107.61,64.33,123.24,61.81z"/>
		<path opacity="0.75" fill="#E3E3E3" enable-background="new    " d="M110.38,35.8l-1.52-9.45C77.58,31.39,56.27,60.81,61.25,92.1
			l9.45-1.52C66.56,64.51,84.31,40.01,110.38,35.8z"/>
		<path opacity="0.5" fill="#E3E3E3" enable-background="new    " d="M97.52,9.85L95.95,0C54.01,6.75,25.48,46.16,32.18,88.09
			l9.84-1.58C36.2,50.02,61.04,15.71,97.52,9.85z"/>
		<path fill="#E3E3E3" d="M141.02,103.74c1.37,0,2.48-1.11,2.48-2.48V93.6c0-0.04-0.01-0.07-0.01-0.11h0.01V79.92
			c-1.17-1.14-2.51-2.13-4.02-2.93c-8.49-4.44-18.97-1.16-23.4,7.3c-3.43,6.52-2.27,14.22,2.29,19.45h13.19L141.02,103.74
			L141.02,103.74z"/>
	</g>
</g>
<g enable-background="new    ">
	<path fill="#CCCCCB" d="M21.45,85.69c0,5.73-4.12,8.59-12.35,8.59c-2.8,0-5.4-0.34-7.8-1.01l1.08-4.9C4.75,89.19,7,89.6,9.11,89.6
		c2.34,0,4.03-0.23,5.05-0.68c1.03-0.45,1.54-1.22,1.54-2.29c0-1.11-0.48-2.05-1.45-2.81c-0.83-0.67-2.53-1.55-5.08-2.64
		c-2.31-1-4.04-2.08-5.16-3.25c-1.42-1.48-2.13-3.3-2.13-5.47c0-2.52,0.93-4.49,2.8-5.91c1.87-1.42,4.55-2.13,8.05-2.13
		c2.87,0,5.28,0.24,7.23,0.73l-0.81,4.88c-1.98-0.72-4.12-1.08-6.42-1.08c-3.46,0-5.19,0.92-5.19,2.77c0,0.98,0.4,1.78,1.21,2.39
		c0.7,0.53,2.23,1.27,4.59,2.22c2.5,1.01,4.38,2.12,5.62,3.34C20.63,81.29,21.45,83.3,21.45,85.69z"/>
	<path fill="#CCCCCB" d="M52.81,78.66c0,4.5-1.38,8.23-4.13,11.18c-2.75,2.96-6.16,4.44-10.22,4.44c-3.87,0-7.1-1.36-9.71-4.08
		c-2.61-2.72-3.91-6.17-3.91-10.36c0-4.5,1.38-8.23,4.13-11.19c2.75-2.96,6.16-4.44,10.22-4.44c3.87,0,7.1,1.35,9.71,4.06
		C51.51,71,52.81,74.45,52.81,78.66z M46.75,79.29c0-3.06-0.78-5.54-2.35-7.45c-1.57-1.9-3.5-2.85-5.8-2.85
		c-2.14,0-3.95,0.96-5.45,2.88s-2.24,4.34-2.24,7.27c0,3.05,0.79,5.52,2.36,7.44c1.57,1.91,3.5,2.87,5.79,2.87
		c2.14,0,3.95-0.96,5.45-2.89C46,84.63,46.75,82.21,46.75,79.29z"/>
	<path fill="#CCCCCB" d="M76.34,85.69c0,5.73-4.12,8.59-12.35,8.59c-2.8,0-5.4-0.34-7.8-1.01l1.08-4.9
		c2.37,0.82,4.61,1.23,6.72,1.23c2.34,0,4.03-0.23,5.05-0.68c1.03-0.45,1.54-1.22,1.54-2.29c0-1.11-0.48-2.05-1.45-2.81
		c-0.83-0.67-2.53-1.55-5.07-2.64c-2.31-1-4.04-2.08-5.16-3.25c-1.42-1.48-2.13-3.3-2.13-5.47c0-2.52,0.93-4.49,2.8-5.91
		c1.87-1.42,4.55-2.13,8.05-2.13c2.87,0,5.28,0.24,7.23,0.73l-0.81,4.88c-1.98-0.72-4.12-1.08-6.42-1.08
		c-3.46,0-5.19,0.92-5.19,2.77c0,0.98,0.4,1.78,1.21,2.39c0.7,0.53,2.23,1.27,4.59,2.22c2.51,1.01,4.38,2.12,5.63,3.34
		C75.51,81.29,76.34,83.3,76.34,85.69z"/>
</g>
</svg>
