<?xml version="1.0" encoding="utf-8"?>
<!DOCTYPE svg PUBLIC "-//W3C//DTD SVG 1.1//EN" "http://www.w3.org/Graphics/SVG/1.1/DTD/svg11.dtd">
<svg version="1.1" id="Calque_1" xmlns="http://www.w3.org/2000/svg" xmlns:xlink="http://www.w3.org/1999/xlink" x="0px" y="0px"
	 width="153.5px" height="76.24px" viewBox="0 0 153.5 76.24" enable-background="new 0 0 153.5 76.24" xml:space="preserve">
<path opacity="0.75" fill="#E3E3E3" enable-background="new    " d="M93.94,55.54l7.86,1.19c0.35,2.46,1.09,4.81,2.17,7l-6.12,4.5
	c-1.76,1.29-2.14,3.78-0.85,5.53l1.83,2.48h8.12l4.76-3.5c1.86,1.3,3.91,2.35,6.15,3.07l-0.07,0.43h13.45
	c1.54-0.39,3.03-0.93,4.44-1.63l1.2,1.63h14.34c-0.12-0.49-0.34-0.97-0.67-1.41l-5.85-7.97c1.11-1.58,2.05-3.31,2.74-5.18l6.07,0.92
	V50.6l-4.77-0.73c-0.29-1.97-0.85-3.86-1.59-5.67l6.36-4.69V30.5l-0.38-0.51c-1.29-1.75-3.77-2.12-5.52-0.84l-7.61,5.6
	c-1.63-1.3-3.46-2.38-5.43-3.22l1.31-8.6c0.33-2.15-1.15-4.18-3.32-4.51l-3.89-0.59c-2.16-0.33-4.17,1.16-4.5,3.32l-1.31,8.59
	c-2.33,0.23-4.58,0.8-6.69,1.67l-4.69-6.37c-1.29-1.74-3.78-2.13-5.53-0.84l-3.19,2.34c-1.76,1.28-2.11,3.78-0.83,5.54l4.77,6.48
	c-1.5,1.9-2.75,4.03-3.62,6.35l-7.35-1.12c-2.16-0.33-4.18,1.16-4.51,3.32l-0.6,3.91C90.29,53.19,91.77,55.21,93.94,55.54z
	 M115.5,51.82c0.82-5.4,5.86-9.1,11.25-8.27c5.4,0.82,9.11,5.85,8.29,11.25c-0.82,5.41-5.86,9.1-11.26,8.28
	C118.39,62.26,114.67,57.23,115.5,51.82z"/>
<g opacity="0.5">
	<g>
		<path fill="#E3E3E3" d="M100.46,18.18l-6.15-0.11c-0.34-1.19-0.84-2.31-1.45-3.36l4.16-4.02c0.98-0.94,1.01-2.49,0.06-3.47
			l-1.71-1.76c-0.94-0.97-2.5-1-3.47-0.06l-4.23,4.08c-1.11-0.67-2.32-1.18-3.61-1.54l0.1-5.4c0.02-1.35-1.05-2.48-2.41-2.5L79.3,0
			c-1.36-0.02-2.47,1.06-2.5,2.41l-0.1,5.4c-1.42,0.33-2.75,0.87-3.98,1.58l-3.41-3.54c-0.94-0.96-2.5-1-3.48-0.06L64.07,7.5
			c-0.98,0.93-0.99,2.5-0.05,3.48l3.47,3.6c-0.77,1.29-1.36,2.71-1.7,4.21l-4.62-0.08c-1.36-0.02-2.48,1.06-2.5,2.42l-0.04,2.46
			c-0.02,1.35,1.05,2.46,2.41,2.49l4.94,0.09c0.42,1.49,1.07,2.87,1.91,4.13l-3.4,3.27c-0.98,0.94-1.01,2.5-0.07,3.48l1.7,1.76
			c0.95,0.97,2.5,1,3.48,0.06l3.79-3.66c1.25,0.65,2.6,1.13,4.04,1.38l-0.09,5.13c-0.03,1.36,1.05,2.47,2.41,2.5l2.46,0.04
			c1.35,0.02,2.47-1.06,2.49-2.41l0.1-5.77c1.25-0.41,2.43-0.98,3.51-1.71l3.88,4.03c0.94,0.98,2.5,1,3.48,0.06l1.77-1.7
			c0.98-0.94,1.01-2.5,0.06-3.48l-4.26-4.42c0.56-1.06,0.99-2.21,1.26-3.42l5.85,0.1c1.37,0.02,2.48-1.05,2.51-2.41l0.04-2.45
			C102.89,19.33,101.82,18.21,100.46,18.18z M80.02,28.25C76.64,28.19,73.93,25.4,74,22c0.06-3.39,2.86-6.08,6.25-6.02
			c3.39,0.06,6.09,2.85,6.03,6.24C86.21,25.62,83.41,28.31,80.02,28.25z"/>
	</g>
</g>
<g enable-background="new    ">
	<path fill="#CCCCCB" d="M39.89,37.38c0,1.36-1.47,6.2-4.4,14.5c-2.93,8.31-4.4,13.01-4.4,14.11h-5.8c0-1.16-0.89-4.42-2.66-9.78
		c-1.89-5.74-2.95-9.53-3.19-11.36h-0.37c-0.24,1.85-1.22,5.66-2.95,11.45c-1.61,5.4-2.42,8.64-2.42,9.69H7.79
		c0-1.38-1.44-6.28-4.33-14.7c-2.89-8.42-4.33-13.06-4.33-13.91h6.96c0,0.92,0.83,4.6,2.51,11.03c1.67,6.43,2.5,10.25,2.5,11.45
		h0.35c0-1.2,0.89-4.95,2.68-11.24c1.79-6.29,2.68-10.04,2.68-11.24h6.26c0,1.1,0.89,4.91,2.68,11.44
		c1.79,6.53,2.68,10.21,2.68,11.04h0.35c0-1.05,0.81-4.64,2.43-10.74c1.62-6.11,2.43-10.02,2.43-11.73L39.89,37.38L39.89,37.38z"/>
	<path fill="#CCCCCB" d="M64.17,44.87c0,3.5-1.3,6.09-3.9,7.76s-5.79,2.5-9.57,2.5c-0.69,0-1.18-0.01-1.47-0.04
		c0,2.75,0.08,6.39,0.24,10.9h-6.17c0.19-4.23,0.29-9.22,0.29-14.96c0-5.27-0.1-9.82-0.29-13.65h3.82c0.54,0,1.58-0.02,3.12-0.07
		s2.87-0.07,4-0.07c2.78,0,5.13,0.63,7.05,1.89C63.21,40.4,64.17,42.31,64.17,44.87z M58.5,46.08c0-3.13-2.08-4.7-6.24-4.7
		c-1.04,0-2.14,0.11-3.3,0.33c0.16,2.77,0.24,5.9,0.24,9.4c0.37,0.03,0.79,0.04,1.27,0.04C55.82,51.16,58.5,49.46,58.5,46.08z"/>
	<path fill="#CCCCCB" d="M86.97,58.19c0,5.73-4.12,8.59-12.35,8.59c-2.8,0-5.4-0.34-7.8-1.01l1.08-4.9
		c2.37,0.82,4.61,1.23,6.72,1.23c2.34,0,4.03-0.23,5.05-0.68c1.03-0.45,1.54-1.22,1.54-2.29c0-1.11-0.48-2.05-1.45-2.81
		c-0.83-0.67-2.53-1.55-5.07-2.64c-2.31-1-4.04-2.08-5.16-3.25c-1.42-1.48-2.13-3.3-2.13-5.47c0-2.52,0.93-4.49,2.8-5.91
		c1.87-1.42,4.55-2.13,8.05-2.13c2.87,0,5.28,0.24,7.23,0.73l-0.81,4.88c-1.98-0.72-4.12-1.08-6.42-1.08
		c-3.46,0-5.19,0.92-5.19,2.77c0,0.98,0.4,1.78,1.21,2.4c0.7,0.53,2.23,1.27,4.59,2.22c2.51,1.01,4.38,2.12,5.62,3.34
		C86.15,53.79,86.97,55.8,86.97,58.19z"/>
</g>
</svg>
