<?xml version="1.0" encoding="utf-8"?>
<!DOCTYPE svg PUBLIC "-//W3C//DTD SVG 1.1//EN" "http://www.w3.org/Graphics/SVG/1.1/DTD/svg11.dtd">
<svg version="1.1" id="Calque_1" xmlns="http://www.w3.org/2000/svg" xmlns:xlink="http://www.w3.org/1999/xlink" x="0px" y="0px"
	 width="169px" height="97.9px" viewBox="0 0 169 97.9" enable-background="new 0 0 169 97.9" xml:space="preserve">
<path opacity="0.75" fill="#E3E3E3" enable-background="new    " d="M84.7,97.9h11.8c0.4-3.6,1.2-7.8,0.5-11.9
	c-1-5.7-9.1-9-7.6-15.8c0.9-1.1,2-2.1,2.5-3.6c-3.7-5.4-11-7.3-16.3-11.2c0.1-2.9-0.9-4.5-2.5-5.6c0.1,1.4,0.9,2.1,1,3.6
	c-3.6-3.5-4.9-9-5.1-14.3c3.3-10.4,9.6-19.4,18-26.1c0.1,0,0.1,0.1,0.2,0.1c-0.1,1.4-1.9,1.2-2.6,2.1c3.5,1,3.6-3.1,5.7-0.5
	c0.2-1.2-0.9-1.1-0.5-2.6c0.6,0,0.7-0.7,1.5-0.5c0.3,2.9,1.9,1.6,2.6,3.6c0.1-0.6,0.6-0.8,1-1c0.5-1.9-1.9-0.8-1.5-2.6
	c0.1-2.8,4.3-1.5,6.2-2.6c0,0.9,1.4,0.3,1.5,1c-0.7-0.1-3.7-0.1-2.1,0.5c5.2-0.4,5.2,3.5,8.2,6.2c-1-0.1-1,0.7-1.5,1
	c-0.7,0.1-1.6-2.1-2.1-0.5c1.1,0.1,1.1,1.3,1,2.6c-2.6-0.8-0.3,0.1-1.6,1c-1.9-1-3.4-2.4-5.6-3.1c1.3-0.4,3-0.5,3.1-2.1
	c0.4-1.6-1.4-1-1-2.6c-0.8,0-4.2-0.2-2.6,0.5c0.4,2.3-1.5,2.3-2.1,3.6c0.8,0.4,1.6,0.8,1.5,2.1c-0.4-0.3-0.8-0.5-1.5-0.5
	c-0.7,0.1-0.5,1,0,1c-0.1,0.9-2.5-0.2-2.1-1.5c-2.4,0.8-3.6,2.9-5.1,4.6c0.4,1.9,2.4,2.4,4.1,3.1c0.4,0.3,0.8,0.5,1.5,0.5
	c-0.4,1.6,0.5,1.9,0.5,3.1c1.8-4.1,3.3-3.1,3.1-9.8c0.4,0.1,0.5-0.2,0.5-0.5c0.5-0.1,1.2,1.4,3.1,1c1.3,0.4,0.3,3.2,2.1,3.1
	c1.7,0.6,0.4-1.7,2.1-1c1.6,4.8,4.4,7.2,5.1,11.8c-1.6,0.4-1.9-0.5-3.1-0.5c-1.8,0.5-0.9-1.7-0.5-2.1c0.8-0.3,1.3-0.8,1.5-1.5
	c-1.9,0.5-3.5,3.2-5.1,1c0.4,1.5-0.7,1.3-0.5,2.6c-0.1,0.4,0.2,0.5,0.5,0.5c0.4,0.1,1,0,1,0.5c0,0.2,0,0.4,0,0.5
	c-2.4,1.6-8.8,3.4-9.8,9.3c-1.5,0-1.9,1.2-2.6,2.1c-1.1,0.4,1,3.6-0.5,4.6c-1.2-0.6-1.7-2.1-2-3.6c-4.7-2.7-13.2,5.9-5.1,7.7
	c0.2,0,0.3,0,0.5,0c-0.2-1.6,2.8-2.3,3.1-0.5c-0.8,0.4-1.1,1.3-1,2.6c-0.1,1.1,1.8,0.2,2.6,0.5c-0.1,2.3-1.1,4.2,1.5,4.6
	c0.4,0.1,1,0,1,0.5c2-0.2,2.2-2.2,4.1-2.6c1.2,1.1,3.3,1.5,6.7,1.5c0.7,3.2,4.6,3.3,6.7,5.1c0,0.9,0,1.7,0,2.6
	c3.7,1,6.4,2.9,9.8,4.1c-0.5,4.8-3.7,7-3.6,12.4c-1.4,0.7-2.7,1.4-4.1,2.1c-0.5,3.4-2.7,7.5-5.7,6.7c-0.2,1.2,0.9,1.1,0.5,2.6
	c-0.3,0.1-0.6,0.2-0.9,0.3h52.8c4.4-3.8,8.2-8.3,11.2-13.3v-4c-0.3,0.9-0.9,1.8-0.9,2.6c-0.5,0.9-1.2,1.8-1.5,3c0,0,0,0.1-0.1,0.1
	c-0.5,0.1-0.8,0.6-1,1c-1.3-4,1.6-5.5,3.1-8.8c0.1,0.1,0.3,0.3,0.4,0.4V68.1c-1.4,1.7-3.1,3.1-4.5,4.8c0.1,3.9,0.3,5,0,8.8
	c-5.2,3.6-5.6,14.6-13.9,13.4c-1.4-3.8-1.4-8.9-3.1-12.3c3.4-4.9-1.4-8.2-1-14.4c-0.7-0.8-2.7-0.4-2.6-2.1c-3.2,1.1-5.5,0.7-8.8,1
	c-2.3-1.3-3.2-4-5.2-5.6c1.7-5-1.1-10.3,4.6-12.4c-0.3-6.1,9.5-7.1,13.4-5.7c0,0.7,0,1.4,0,2.1c2,0.4,3,1.8,4.6,2.6
	c-0.1-1.3,0.8-1.6,1.5-2.1c1.6,1,1.2,2.4,3.6,1.6c0.9,0.3,3-0.6,3.1,0.5c0.8-0.4,0.7-1.7,1-2.6c-0.5-1.8-3.2-1.3-4.6-2.1
	c-0.7-0.7-0.7-2.4,0-3.1c-3.3-0.2-0.5,2.5-2.6,3.1c-0.4,0-0.7,0-1,0c0.5-1.6-0.8-1.6-1-2.6c-1.5-0.1-2,3.5-3.6,1.5
	c3.7-0.6-2.1-5.2-2.6-3.1c-0.1-0.8,0.2-1.9-0.5-2c-1.8,0.6-3,1.8-4.7,2.6c0,0.7,0,1.4,0,2.1c-0.4,0.2-0.9,0.5-1,1
	c-1.5,0-3.1,0-4.6,0c0-0.6-0.7-0.7-0.5-1.5c0.8-1.1-0.1-3.8,1.5-4.1c1.5-0.7,2.6,1.4,3.1,0c0.2,0,0.3,0,0.5,0c0.2-1.9-1-2.4-1.5-3.6
	c0.1-1,1.7-0.4,1.5-1.5c4.4-0.2,4.5-4.7,7.2-6.7c-0.4,0.6-0.7,1.4-0.5,2.6c1.9,0.5,0.9-2.7,0.5-3.1c-1.2-0.2-2,0.1-2.6,0.5
	c-0.7-0.6-0.3-2.4-1-3.1c3.3-2.9,4.2-8.1,9.8-8.8c1.7,0.4,3.1,1,4.4,1.8c1.1,1,2.1,2,3.1,3.1c0,0.1,0.1,0.2,0.2,0.3
	c-1.5,0.4-1.3-0.7-2.6-0.5c0.5,0.9,0.9,2.8,2.1,1.5c0.1,0.7,0.7,0.2,1.3-0.3c2.6,3,4.9,6.2,6.8,9.6V27c-9.8-16.2-27.6-27-47.8-27
	c-8.5,0-16.5,1.9-23.7,5.3c0,0,0,0,0-0.1c-0.7,0.3-1.4,0.7-2.1,1.1c0,0,0.1,0,0.1,0c-0.1,0.1-0.3,0.1-0.4,0.2c0,0,0,0,0-0.1
	c-0.4,0.2-0.8,0.4-1.2,0.7c0,0,0.1,0,0.1,0c-0.4,0.2-0.9,0.5-1.3,0.7c0,0,0,0-0.1,0c0.2-0.1,0.5-0.3,0.7-0.4
	c-0.2,0.1-0.5,0.3-0.7,0.4h0c-0.1,0.1-0.2,0.1-0.3,0.2c0.1,0,0.1,0,0.1,0c-0.2,0.1-0.4,0.3-0.7,0.4c0,0,0-0.1,0-0.1
	c0,0-0.1,0-0.1,0.1c0,0,0,0,0.1,0c-0.1,0.1-0.2,0.1-0.3,0.2c0,0,0.1,0,0.1,0c-0.1,0.1-0.2,0.1-0.3,0.2c-0.1,0.1-0.3,0.2-0.4,0.3
	c0,0,0,0.1,0,0.1c0,0,0,0,0,0c0,0,0,0,0-0.1c0,0,0.1,0,0.1-0.1c0,0,0,0,0,0c0,0-0.1,0-0.1,0.1c0,0,0,0,0,0c-1.5,1-3,2-4.4,3.2
	c0,0,0,0,0,0.1c-12.8,10.2-20.9,26-20.9,43.6C65.5,72.6,73,87.7,84.7,97.9z M88.4,53.4c1.4-2.2,4.9,0.9,6.2,2.1
	C91.7,55.5,91.3,53.1,88.4,53.4z M94.5,56.5c0.5-0.9,1.6-1.1,3.1-1C97.8,57.6,95.8,56.8,94.5,56.5z M138.3,24.5
	c2.7,0.6,1.9,4.6,4.1,5.7c0,0.4,0,0.7,0,1c-1.2-0.2-1.1,0.9-2.6,0.5c-1-0.1-1.1,0.6-2.1,0.5C139.8,29.5,137.2,27.3,138.3,24.5z
	 M137.3,27.6c0.6,0.6,0.6,1.8,0.5,3.1c-0.8,0-1.7,0-2.6,0C135,28.8,135.6,27.7,137.3,27.6z M126.5,23c-0.8,2.1-3.3,2.5-5.2,3.6
	c-0.6-0.1-0.3-0.5,0-0.5c-0.1-1-1.7-0.3-2.1-1C118.7,18.8,127,17.3,126.5,23z M129.5,19.9c-0.5-1.1-1.6-1.5-1.5-3.1
	c2.1,0.5,3.1,0.5,5.2,0c0.1,0.4,0.5,0.5,0.5,1C133.6,19.9,131.7,20,129.5,19.9z M107.4,2.9c-0.1,0-0.1,0-0.2,0
	c4.5-1.2,9.2-1.8,14-1.8c2.8,0,5.7,0.2,8.4,0.6c0,0.1,0,0.1-0.1,0.1c0.3,0.1,0.7,0.1,1.1,0c0.9,0.2,1.7,0.3,2.6,0.5
	c-0.8,0.4-1.1,1.4-2.1,1.5c-0.4,1.6,0.5,1.9,0.5,3.1c-0.9,0.2-1.3-0.8-1.5,0c1.8,2.3-2.5,4.3,0,6.2c-3.7,1.9-9,2.3-11.3,5.6
	c-1.1,1.3-1.6,3.2-3.1,4.1c-3.7-1.1-4.4-7.1-3.3-9.5c0.1-0.1,0.2-0.2,0.2-0.3c-0.1,0.1-0.1,0.2-0.2,0.3c-0.3,0.2-0.8,0.1-0.9-0.3
	c2.4-6.8-5.9-4.8-7.2-8.8C105.2,3.8,107.6,4.7,107.4,2.9z M95.6,7.5c1,0.3,1.9,0.5,3.1-0.5c-0.7,0-1.5,0.1-2.2,0
	c2.4-1.2,5-2.3,7.6-3.2c-2,1-3.3,2.7-4.4,4.7c-2.4,0.2-4.3,0.5-5.8-0.1C94.5,8.2,95,7.8,95.6,7.5z M91.6,9.9c0.5-0.3,1-0.6,1.5-1
	c0.1,0.2,0.3,0.4,0.9,0.2c-0.5,1.2-1.6,1.9-3.1,2.1C91.3,10.7,91.5,10.3,91.6,9.9z"/>
<g enable-background="new    ">
	<path fill="#CCCCCB" d="M41.5,59.1c0,1.4-1.5,6.2-4.4,14.5c-2.9,8.3-4.4,13-4.4,14.1h-5.8c0-1.2-0.9-4.4-2.7-9.8
		c-1.9-5.7-2.9-9.5-3.2-11.4h-0.4c-0.2,1.8-1.2,5.7-2.9,11.4c-1.6,5.4-2.4,8.6-2.4,9.7H9.4c0-1.4-1.4-6.3-4.3-14.7
		c-2.9-8.4-4.3-13.1-4.3-13.9h7c0,0.9,0.8,4.6,2.5,11c1.7,6.4,2.5,10.2,2.5,11.5h0.3c0-1.2,0.9-5,2.7-11.2s2.7-10,2.7-11.2h6.3
		c0,1.1,0.9,4.9,2.7,11.4s2.7,10.2,2.7,11h0.4c0-1,0.8-4.6,2.4-10.7c1.6-6.1,2.4-10,2.4-11.7L41.5,59.1L41.5,59.1z"/>
	<path fill="#CCCCCB" d="M78,87.7h-6.4c0-2.5-0.1-6.7-0.5-12.6c-0.3-5.9-0.5-9.6-0.5-11.1h-0.3c-0.1,0.9-0.5,2.5-1.2,4.9
		c-0.6,2.4-1.8,5.9-3.5,10.5C63.8,84,63,86.8,63,87.7h-4.9c0-0.9-0.8-3.7-2.5-8.4c-1.7-4.6-2.8-7.9-3.3-9.8
		c-0.5-1.9-0.9-3.7-1.2-5.5h-0.3c0,1.8-0.2,5.8-0.5,11.8c-0.3,6-0.5,10-0.5,11.9h-5.8c0-0.4,0.5-4.8,1.6-13.2
		c1.1-8.4,1.6-13.5,1.6-15.4h8.5c0,1.6,0.9,5.3,2.7,10.9c1.8,5.6,2.7,9.2,2.7,10.7h0.3c0-1.6,1-5.2,3.1-10.8s3.1-9.2,3.1-10.8h8.4
		c0,3,0.3,8.4,1,16.2C77.6,83.1,78,87.2,78,87.7z"/>
	<path fill="#CCCCCB" d="M102.5,79.9c0,5.7-4.1,8.6-12.4,8.6c-2.8,0-5.4-0.3-7.8-1l1.1-4.9c2.4,0.8,4.6,1.2,6.7,1.2
		c2.3,0,4-0.2,5-0.7c1-0.5,1.5-1.2,1.5-2.3c0-1.1-0.5-2-1.5-2.8c-0.8-0.7-2.5-1.5-5.1-2.6c-2.3-1-4-2.1-5.2-3.2
		c-1.4-1.5-2.1-3.3-2.1-5.5c0-2.5,0.9-4.5,2.8-5.9s4.5-2.1,8-2.1c2.9,0,5.3,0.2,7.2,0.7l-0.8,4.9c-2-0.7-4.1-1.1-6.4-1.1
		c-3.5,0-5.2,0.9-5.2,2.8c0,1,0.4,1.8,1.2,2.4c0.7,0.5,2.2,1.3,4.6,2.2c2.5,1,4.4,2.1,5.6,3.3C101.7,75.5,102.5,77.5,102.5,79.9z"/>
</g>
</svg>
