<?xml version="1.0" encoding="utf-8"?>
<!-- Generator: Adobe Illustrator 15.1.0, SVG Export Plug-In . SVG Version: 6.00 Build 0)  -->
<!DOCTYPE svg PUBLIC "-//W3C//DTD SVG 1.1//EN" "http://www.w3.org/Graphics/SVG/1.1/DTD/svg11.dtd">
<svg version="1.1" id="Calque_1" xmlns="http://www.w3.org/2000/svg" xmlns:xlink="http://www.w3.org/1999/xlink" x="0px" y="0px"
	 width="193px" height="84.183px" viewBox="0 0 193 84.183" enable-background="new 0 0 193 84.183" xml:space="preserve">
<g>
	<g opacity="0.45">
		<polygon fill="#E3E3E2" points="99.084,77.272 69.912,77.272 89.215,65.113 118.381,65.113 		"/>
		<polygon fill="#E3E3E2" points="134.919,77.272 105.754,77.272 125.061,65.113 154.222,65.113 		"/>
		<polygon fill="#E3E3E2" points="170.765,77.272 141.599,77.272 160.896,65.113 190.062,65.113 		"/>
		<polygon fill="#E3E3E2" points="123.308,61.471 94.146,61.471 113.443,49.317 142.609,49.317 		"/>
		<polygon fill="#E3E3E2" points="159.153,61.471 129.992,61.471 149.29,49.317 178.455,49.317 		"/>
		<polygon fill="#E3E3E2" points="193,49.317 185.135,49.317 165.833,61.471 193,61.471 		"/>
		<polygon fill="#E3E3E2" points="124.485,84.183 129.992,80.715 100.822,80.715 95.318,84.183 		"/>
		<polygon fill="#E3E3E2" points="88.642,84.183 94.146,80.715 64.98,80.715 59.476,84.183 		"/>
		<polygon fill="#E3E3E2" points="160.328,84.183 165.833,80.715 136.667,80.715 131.162,84.183 		"/>
	</g>
	<g opacity="0.6">
		<polygon fill="#E3E3E2" points="100.91,59.649 63.32,59.649 88.199,43.214 125.783,43.214 		"/>
		<polygon fill="#E3E3E2" points="148.997,59.649 111.408,59.649 136.281,43.214 173.87,43.214 		"/>
		<polygon fill="#E3E3E2" points="130.798,39.635 93.214,39.635 118.083,23.208 155.672,23.208 		"/>
		<polygon fill="#E3E3E2" points="193,30.312 193,23.208 166.165,23.208 141.296,39.635 178.885,39.635 		"/>
	</g>
	<polygon fill="#E3E3E2" points="140.559,24.316 84.933,24.316 121.74,0 177.361,0 	"/>
</g>
<g>
	<text transform="matrix(1 0 0 1 0.4189 73.9307)" fill="#CDCDCC" font-family="'Candara-Bold'" font-size="45">WMTS</text>
</g>
</svg>
