<?xml version="1.0" encoding="utf-8"?>
<!DOCTYPE svg PUBLIC "-//W3C//DTD SVG 1.1//EN" "http://www.w3.org/Graphics/SVG/1.1/DTD/svg11.dtd">
<svg version="1.1" id="Calque_1" xmlns="http://www.w3.org/2000/svg" xmlns:xlink="http://www.w3.org/1999/xlink" x="0px" y="0px"
	 width="65px" height="65px" viewBox="0 0 65 65" enable-background="new 0 0 65 65" xml:space="preserve">
<g>
	<path fill="#2E8BBF" d="M32.5,0c-4.93,0-9.6,1.1-13.79,3.07c0.01-0.01,0.02-0.03,0.02-0.05c-0.42,0.2-0.84,0.4-1.25,0.62
		c0.02,0.01,0.05,0.01,0.07,0.01c-0.08,0.04-0.16,0.08-0.23,0.12c-0.01-0.02-0.01-0.02-0.02-0.04c-0.24,0.12-0.48,0.25-0.72,0.39
		c0.02,0,0.04,0.01,0.07,0.01c-0.25,0.14-0.51,0.28-0.75,0.43c-0.02-0.01-0.03-0.02-0.04-0.02c0.14-0.08,0.28-0.17,0.41-0.25
		c-0.14,0.08-0.28,0.17-0.42,0.25h0c-0.06,0.04-0.12,0.07-0.18,0.1c0.03,0,0.04,0.01,0.07,0.02c-0.13,0.07-0.25,0.15-0.38,0.23
		c0.01-0.02,0.02-0.05,0.02-0.08c0,0,0,0,0,0.01c0-0.01,0-0.01,0-0.01c-0.02,0.02-0.04,0.03-0.07,0.04
		c0.01-0.01,0.02-0.02,0.04-0.02c-0.05,0.04-0.11,0.07-0.16,0.1c0.02-0.01,0.03-0.02,0.05-0.03c-0.14,0.08-0.29,0.18-0.43,0.26
		c0.09-0.06,0.19-0.12,0.28-0.18c-0.1,0.06-0.19,0.12-0.28,0.19c0,0.02,0,0.04,0,0.05c0,0.01-0.02,0.01-0.03,0.02
		c0-0.01-0.01-0.03-0.02-0.04c0.02-0.01,0.03-0.02,0.04-0.03c0,0,0,0,0-0.01c-0.02,0.01-0.03,0.02-0.05,0.04c0,0,0,0,0,0.01
		c-0.89,0.58-1.76,1.19-2.59,1.86c0.01,0.02,0.02,0.03,0.03,0.05C4.77,13.08,0,22.23,0,32.5C0,50.45,14.55,65,32.5,65
		C50.45,65,65,50.45,65,32.5S50.45,0,32.5,0z M55.84,10.84c0.03,0.06,0.07,0.1,0.1,0.17c-0.85,0.24-0.78-0.43-1.5-0.3
		c0.31,0.53,0.52,1.61,1.2,0.9c0.06,0.4,0.42,0.13,0.73-0.17c4.6,5.22,7.54,11.95,7.93,19.36c-0.39,0-0.78,0-1.17,0
		c1.89,2.94-2.15,4.21-3.9,5.4c0.54,1.23,1.72-0.39,2.4,0.29c-0.3,3.01-2.42,4.17-3.9,6c0.07,2.28,0.16,2.89,0,5.1
		c-3.05,2.08-3.25,8.5-8.1,7.79c-0.8-2.2-0.83-5.17-1.8-7.2c2-2.87-0.81-4.8-0.6-8.39c-0.41-0.49-1.58-0.22-1.5-1.2
		c-1.87,0.65-3.21,0.38-5.1,0.6c-1.35-0.75-1.89-2.31-3-3.29c1.01-2.9-0.64-5.99,2.7-7.2c-0.16-3.57,5.52-4.13,7.8-3.3
		c0,0.4,0,0.8,0,1.2c1.18,0.22,1.73,1.07,2.7,1.5c-0.05-0.75,0.46-0.94,0.9-1.2c0.92,0.58,0.69,1.41,2.1,0.9
		c0.52,0.17,1.76-0.37,1.8,0.3c0.44-0.26,0.44-0.97,0.6-1.5c-0.28-1.03-1.85-0.75-2.71-1.2c-0.41-0.38-0.41-1.41,0-1.8
		c-1.91-0.14-0.3,1.45-1.49,1.8c-0.2,0-0.41,0-0.6,0c0.26-0.96-0.47-0.93-0.6-1.5c-0.9-0.07-1.14,2.03-2.1,0.9
		c2.14-0.35-1.21-3.02-1.5-1.8c-0.05-0.44,0.11-1.1-0.29-1.19c-1.07,0.33-1.76,1.04-2.71,1.5c0,0.4,0,0.8,0,1.2
		c-0.26,0.13-0.54,0.26-0.6,0.6c-0.9,0-1.79,0-2.7,0c-0.02-0.38-0.38-0.41-0.3-0.9c0.45-0.66-0.03-2.23,0.9-2.4
		c0.87-0.42,1.53,0.81,1.8,0c0.1,0,0.2,0,0.3,0c0.13-1.14-0.59-1.41-0.9-2.1c0.03-0.57,0.99-0.21,0.9-0.9
		c2.56-0.14,2.64-2.76,4.2-3.9c-0.25,0.35-0.39,0.8-0.3,1.5c1.1,0.28,0.54-1.58,0.3-1.8c-0.69-0.1-1.15,0.04-1.5,0.29
		c-0.42-0.38-0.19-1.41-0.6-1.79c1.9-1.71,2.46-4.74,5.7-5.1c0.96,0.24,1.83,0.57,2.58,1.03C54.64,9.61,55.25,10.21,55.84,10.84z
		 M42.43,14.3c1.57,0.34,1.13,2.68,2.4,3.3c0,0.2,0,0.4,0,0.6c-0.72-0.12-0.65,0.55-1.5,0.3c-0.57-0.07-0.66,0.34-1.2,0.3
		C43.34,17.2,41.79,15.89,42.43,14.3z M42.13,17.9c-0.5,0-1,0-1.5,0c-0.12-1.12,0.24-1.76,1.2-1.8
		C42.18,16.46,42.17,17.16,42.13,17.9z M37.33,11.6c-0.27-0.63-0.91-0.89-0.91-1.8c1.21,0.29,1.81,0.29,3,0
		c0.06,0.25,0.3,0.3,0.3,0.6C39.69,11.56,38.56,11.63,37.33,11.6z M35.53,13.4c-0.46,1.24-1.92,1.48-3,2.09
		c-0.34-0.05-0.17-0.29,0-0.29c-0.05-0.56-1.01-0.19-1.2-0.61C31.03,10.94,35.85,10.09,35.53,13.4z M58.33,50.89
		c-0.76-2.31,0.91-3.22,1.8-5.1c0.89,0.71-0.36,1.81-0.31,2.7c-0.32,0.55-0.72,1.03-0.88,1.75c-0.01,0.02-0.02,0.04-0.03,0.06
		C58.59,50.36,58.46,50.62,58.33,50.89z M37.39,1.03c-0.02,0.03-0.03,0.04-0.05,0.08c0.19,0.03,0.42,0.04,0.65,0.03
		c0.5,0.09,1,0.19,1.5,0.3c-0.48,0.22-0.62,0.8-1.24,0.87c-0.22,0.92,0.31,1.1,0.3,1.8c-0.51,0.12-0.77-0.44-0.9,0
		c1.04,1.33-1.47,2.48,0,3.6c-2.18,1.11-5.26,1.34-6.6,3.3c-0.65,0.75-0.95,1.86-1.8,2.41c-2.14-0.62-2.55-4.15-1.9-5.51
		c0.06-0.04,0.1-0.11,0.1-0.19c-0.03,0.06-0.07,0.12-0.1,0.19C27.17,8,26.89,7.97,26.84,7.7c1.41-3.98-3.44-2.81-4.2-5.1
		c0.5-0.39,1.9,0.11,1.8-0.9c-0.04,0.01-0.08,0.02-0.12,0.02c2.62-0.69,5.35-1.07,8.19-1.07C34.15,0.66,35.79,0.79,37.39,1.03z
		 M17.53,4.39c0.6,0.2,1.11,0.31,1.79-0.28c-0.39-0.02-0.86,0.03-1.25,0.01c1.42-0.72,2.89-1.34,4.42-1.84
		c-1.16,0.6-1.93,1.6-2.56,2.73c-1.4,0.14-2.49,0.27-3.38-0.06C16.88,4.75,17.2,4.57,17.53,4.39z M16.09,5.21
		c0.07,0.15,0.2,0.23,0.54,0.1c-0.32,0.68-0.91,1.09-1.8,1.2c0.23-0.29,0.31-0.52,0.37-0.73C15.49,5.58,15.79,5.39,16.09,5.21z
		 M12.63,7.63c0.03,0.02,0.07,0.05,0.1,0.08c-0.07,0.82-1.12,0.68-1.5,1.2c2.01,0.59,2.1-1.8,3.3-0.31c0.12-0.72-0.55-0.65-0.3-1.5
		c0.38-0.01,0.42-0.38,0.9-0.3c0.15,1.71,1.12,0.94,1.5,2.1c0.06-0.34,0.33-0.47,0.6-0.6c0.32-1.12-1.12-0.48-0.9-1.5
		c0.04-1.66,2.54-0.87,3.6-1.5c0.01,0.49,0.83,0.17,0.9,0.6c-0.39-0.04-2.17-0.04-1.2,0.3c3.06-0.24,3.02,2.04,4.8,3.6
		c-0.59-0.09-0.6,0.4-0.9,0.6c-0.4,0.04-0.91-1.22-1.21-0.3c0.66,0.04,0.65,0.75,0.61,1.5c-1.49-0.49-0.18,0.04-0.91,0.6
		c-1.11-0.58-1.98-1.42-3.3-1.8c0.74-0.26,1.73-0.27,1.81-1.2c0.22-0.92-0.83-0.57-0.6-1.5c-0.44,0-2.46-0.11-1.5,0.3
		c0.25,1.35-0.86,1.34-1.2,2.1c0.44,0.26,0.95,0.45,0.9,1.2c-0.24-0.16-0.48-0.31-0.9-0.3c-0.38,0.08-0.31,0.6,0,0.6
		c-0.05,0.51-1.43-0.14-1.2-0.9c-1.42,0.48-2.11,1.68-3,2.7c0.26,1.14,1.4,1.4,2.4,1.8c0.24,0.15,0.49,0.31,0.9,0.29
		c-0.21,0.92,0.31,1.1,0.3,1.8c1.02-2.41,1.91-1.78,1.8-5.7c0.25,0.05,0.28-0.12,0.3-0.3c0.3-0.03,0.71,0.79,1.81,0.6
		c0.76,0.24,0.15,1.84,1.2,1.8c0.97,0.37,0.23-0.97,1.2-0.6c0.94,2.79,2.56,4.22,3,6.89c-0.91,0.22-1.08-0.3-1.79-0.3
		c-1.05,0.27-0.51-0.98-0.3-1.2c0.44-0.17,0.73-0.47,0.9-0.9c-1.13,0.28-2.03,1.86-3,0.6c0.25,0.85-0.42,0.77-0.3,1.5
		c-0.05,0.25,0.11,0.28,0.3,0.3c0.23,0.06,0.59,0.01,0.6,0.3c0,0.1,0,0.2,0,0.3c-1.42,0.92-5.14,1.99-5.7,5.4
		c-0.88,0.02-1.11,0.69-1.5,1.2c-0.63,0.26,0.59,2.09-0.31,2.7c-0.72-0.37-0.96-1.23-1.2-2.1c-2.73-1.58-7.67,3.42-3,4.5
		c0.1,0,0.19,0,0.3,0c-0.11-0.95,1.65-1.34,1.8-0.3c-0.44,0.25-0.64,0.76-0.6,1.5c-0.04,0.65,1.07,0.14,1.5,0.3
		c-0.08,1.33-0.63,2.48,0.9,2.7c0.23,0.07,0.59,0.02,0.6,0.3c1.17-0.12,1.28-1.31,2.4-1.49c0.67,0.63,1.94,0.88,3.9,0.9
		c0.42,1.88,2.7,1.9,3.9,3c0,0.5,0,1,0,1.5c2.15,0.56,3.73,1.68,5.7,2.4c-0.28,2.82-2.14,4.06-2.09,7.2c-0.81,0.39-1.6,0.8-2.41,1.2
		c-0.28,1.98-1.57,4.35-3.3,3.9c-0.12,0.72,0.54,0.65,0.3,1.5c-3.07,0.87-2.39,2.74-2.88,5.18c-0.78-0.32-1.55-0.66-2.3-1.02
		c-1.19-2.34,0.8-6.66,0.08-10.91c-0.56-3.32-5.28-5.24-4.45-9.19c0.53-0.65,1.16-1.22,1.48-2.08c-2.16-3.17-6.4-4.28-9.49-6.52
		c0.09-1.67-0.52-2.65-1.48-3.27c0.05,0.85,0.54,1.24,0.6,2.08C3,29.1,2.24,25.89,2.15,22.83C4.08,16.78,7.77,11.51,12.63,7.63z
		 M18.73,32.29c0.1,1.29-1.09,0.81-1.79,0.6C17.21,32.37,17.87,32.23,18.73,32.29z M13.33,31.09c0.81-1.3,2.85,0.52,3.6,1.2
		C15.3,32.33,15.06,30.97,13.33,31.09z"/>
</g>
</svg>
