<?xml version="1.0" encoding="utf-8"?>
<!-- Generator: Adobe Illustrator 15.1.0, SVG Export Plug-In . SVG Version: 6.00 Build 0)  -->
<!DOCTYPE svg PUBLIC "-//W3C//DTD SVG 1.1//EN" "http://www.w3.org/Graphics/SVG/1.1/DTD/svg11.dtd">
<svg version="1.1" id="Calque_1" xmlns="http://www.w3.org/2000/svg" xmlns:xlink="http://www.w3.org/1999/xlink" x="0px" y="0px"
	 width="193px" height="84.184px" viewBox="0 0 193 84.184" enable-background="new 0 0 193 84.184" xml:space="preserve">
<g>
	<g opacity="0.45">
		<polygon fill="#E3E3E2" points="99.084,77.272 69.912,77.272 89.215,65.113 118.381,65.113 		"/>
		<polygon fill="#E3E3E2" points="134.919,77.272 105.754,77.272 125.061,65.113 154.223,65.113 		"/>
		<polygon fill="#E3E3E2" points="170.766,77.272 141.6,77.272 160.896,65.113 190.062,65.113 		"/>
		<polygon fill="#E3E3E2" points="123.309,61.471 94.146,61.471 113.443,49.317 142.609,49.317 		"/>
		<polygon fill="#E3E3E2" points="159.152,61.471 129.992,61.471 149.29,49.317 178.455,49.317 		"/>
		<polygon fill="#E3E3E2" points="193,49.317 185.135,49.317 165.833,61.471 193,61.471 		"/>
		<polygon fill="#E3E3E2" points="124.484,84.183 129.992,80.715 100.822,80.715 95.318,84.183 		"/>
		<polygon fill="#E3E3E2" points="88.642,84.183 94.146,80.715 64.98,80.715 59.476,84.183 		"/>
		<polygon fill="#E3E3E2" points="160.328,84.183 165.833,80.715 136.667,80.715 131.162,84.183 		"/>
	</g>
	<g opacity="0.6">
		<polygon fill="#E3E3E2" points="100.91,59.649 63.32,59.649 88.199,43.214 125.783,43.214 		"/>
		<polygon fill="#E3E3E2" points="148.997,59.649 111.408,59.649 136.281,43.214 173.87,43.214 		"/>
		<polygon fill="#E3E3E2" points="130.798,39.635 93.214,39.635 118.083,23.208 155.672,23.208 		"/>
		<polygon fill="#E3E3E2" points="193,30.312 193,23.208 166.165,23.208 141.296,39.635 178.885,39.635 		"/>
	</g>
	<polygon fill="#E3E3E2" points="140.559,24.316 84.933,24.316 121.74,0 177.361,0 	"/>
</g>
<g enable-background="new    ">
	<path fill="#CDCDCC" d="M41.42,45.322c0,1.362-1.465,6.196-4.395,14.502s-4.395,13.008-4.395,14.106H26.83
		c0-1.157-0.887-4.416-2.659-9.777c-1.889-5.742-2.951-9.529-3.186-11.36h-0.373c-0.235,1.846-1.216,5.662-2.945,11.448
		c-1.611,5.404-2.417,8.635-2.417,9.689H9.318c0-1.377-1.443-6.276-4.329-14.699s-4.329-13.06-4.329-13.909h6.965
		c0,0.923,0.835,4.6,2.505,11.03s2.505,10.247,2.505,11.447h0.352c0-1.2,0.894-4.947,2.681-11.238
		c1.787-6.292,2.681-10.038,2.681-11.239h6.262c0,1.099,0.894,4.911,2.682,11.437c1.786,6.526,2.68,10.207,2.68,11.041h0.352
		c0-1.055,0.81-4.636,2.429-10.744c1.618-6.108,2.428-10.02,2.428-11.733H41.42z"/>
	<path fill="#CDCDCC" d="M77.851,73.93h-6.395c0-2.49-0.154-6.69-0.461-12.602c-0.309-5.91-0.47-9.599-0.484-11.063h-0.329
		c-0.146,0.879-0.535,2.506-1.165,4.878c-0.63,2.373-1.812,5.871-3.548,10.492c-1.736,4.622-2.604,7.387-2.604,8.295h-4.855
		c0-0.938-0.831-3.728-2.494-8.371c-1.662-4.644-2.75-7.896-3.263-9.756s-0.923-3.706-1.23-5.538h-0.329
		c-0.016,1.832-0.194,5.757-0.539,11.778c-0.344,6.02-0.516,9.982-0.516,11.887h-5.801c0-0.439,0.53-4.841,1.593-13.205
		c1.062-8.364,1.593-13.499,1.593-15.403h8.504c0,1.641,0.896,5.259,2.691,10.854c1.794,5.596,2.691,9.178,2.691,10.744h0.33
		c0-1.582,1.021-5.17,3.064-10.766c2.044-5.597,3.065-9.207,3.065-10.833h8.438c0,3.032,0.341,8.441,1.021,16.227
		C77.51,69.335,77.851,73.462,77.851,73.93z"/>
	<path fill="#CDCDCC" d="M103.713,45.322l-0.154,4.725c-2.93-0.221-5.691-0.33-8.283-0.33c-0.03,2.769-0.045,5.853-0.045,9.251
		c0,5.273,0.081,10.261,0.242,14.963H89.32c0.19-4.658,0.285-9.646,0.285-14.963c0-3.34-0.029-6.424-0.088-9.251
		c-2.064,0-4.899,0.117-8.503,0.352l0.176-4.746H103.713z"/>
	<path fill="#CDCDCC" d="M126.037,66.13c0,5.729-4.116,8.592-12.349,8.592c-2.798,0-5.398-0.337-7.801-1.011l1.077-4.899
		c2.373,0.82,4.614,1.23,6.724,1.23c2.344,0,4.028-0.228,5.054-0.682s1.538-1.216,1.538-2.285c0-1.113-0.483-2.051-1.45-2.812
		c-0.835-0.674-2.526-1.553-5.075-2.637c-2.315-0.996-4.036-2.08-5.164-3.252c-1.421-1.479-2.131-3.303-2.131-5.472
		c0-2.52,0.934-4.489,2.801-5.91c1.868-1.421,4.552-2.131,8.053-2.131c2.871,0,5.281,0.241,7.229,0.725l-0.813,4.878
		c-1.977-0.718-4.116-1.077-6.416-1.077c-3.457,0-5.186,0.924-5.186,2.77c0,0.98,0.403,1.779,1.209,2.395
		c0.703,0.527,2.233,1.268,4.592,2.22c2.506,1.01,4.38,2.124,5.625,3.34C125.209,61.735,126.037,63.743,126.037,66.13z"/>
</g>
</svg>
