<?xml version="1.0" encoding="utf-8"?>
<!-- Generator: Adobe Illustrator 15.1.0, SVG Export Plug-In . SVG Version: 6.00 Build 0)  -->
<!DOCTYPE svg PUBLIC "-//W3C//DTD SVG 1.1//EN" "http://www.w3.org/Graphics/SVG/1.1/DTD/svg11.dtd">
<svg version="1.1" id="Calque_1" xmlns="http://www.w3.org/2000/svg" xmlns:xlink="http://www.w3.org/1999/xlink" x="0px" y="0px"
	 width="169px" height="97.917px" viewBox="0 0 169 97.917" enable-background="new 0 0 169 97.917" xml:space="preserve">
<g>
	<g>
		<polyline fill="none" stroke="#E3E3E3" stroke-width="4" points="114.713,87.229 127.609,95.745 133.686,95.092 138.794,65.839 
			167.112,76.364 		"/>
		<g>
			<polygon fill="#F1F1F1" points="144.724,68.721 136.769,70.377 132.219,63.088 140.134,61.561 			"/>
			<path fill="#E3E3E3" d="M133.626,63.733l6.138-1.208l3.559,5.56l-6.17,1.274L133.626,63.733 M129.161,61.722l6.748,10.891
				l11.876-2.514l-6.859-10.626L129.161,61.722L129.161,61.722z"/>
		</g>
		<g>
			<polygon fill="#F1F1F1" points="169.051,82.737 169.051,74.184 163.666,75.413 168.64,82.837 			"/>
			<polygon fill="#E3E3E3" points="169.051,84.893 169.051,81.755 168.923,81.787 165.062,76.037 169.051,75.119 169.051,72.15 
				160.621,74.042 168.013,85.151 			"/>
		</g>
		<g>
			<polygon fill="#F1F1F1" points="118.394,87.486 109.348,89.576 104.85,81.388 113.819,79.45 			"/>
			<path fill="#E3E3E3" d="M106.371,82.07l6.965-1.509l3.538,6.242l-7.008,1.605L106.371,82.07 M101.528,79.9l6.684,12.257
				l13.499-3.174l-6.833-11.912L101.528,79.9L101.528,79.9z"/>
		</g>
		<polygon fill="#F1F1F1" points="136.943,97.917 133.62,92.312 124.857,94.464 126.841,97.917 		"/>
		<polygon fill="#E3E3E3" points="127.985,97.917 126.393,95.153 133.192,93.465 135.82,97.917 139.384,97.917 134.54,89.805 
			121.508,92.955 124.331,97.917 		"/>
	</g>
	<g>
		<polygon fill="#F1F1F1" points="149.737,48.497 119.734,53.702 103.997,27.934 133.293,24.25 		"/>
		<polygon fill="none" stroke="#E3E3E3" stroke-width="4" points="149.737,48.497 119.732,53.708 103.997,27.934 133.293,24.25 		
			"/>
		<g>
			<polygon fill="#F1F1F1" points="125.918,56.49 117.775,57.955 113.553,50.921 121.631,49.572 			"/>
			<path fill="#E3E3E3" d="M114.936,51.545l6.28-1.055l3.319,5.367l-6.313,1.127L114.936,51.545 M110.519,49.563l6.28,10.519
				l12.15-2.23l-6.401-10.266L110.519,49.563L110.519,49.563z"/>
		</g>
		<g>
			<polygon fill="#F1F1F1" points="109.967,30.741 102.04,31.779 98.24,25.465 106.113,24.516 			"/>
			<path fill="#E3E3E3" d="M99.56,26.059l6.112-0.747l2.981,4.836l-6.146,0.8L99.56,26.059 M95.367,24.171l5.642,9.457l11.833-1.6
				l-5.764-9.238L95.367,24.171L95.367,24.171z"/>
		</g>
		<g>
			<polygon fill="#F1F1F1" points="138.979,26.91 131.815,27.858 127.825,21.904 134.949,21.036 			"/>
			<path fill="#E3E3E3" d="M129.076,22.459l5.528-0.673l3.126,4.56l-5.553,0.726L129.076,22.459 M125.094,20.673l5.932,8.906
				l10.688-1.437l-6.022-8.721L125.094,20.673L125.094,20.673z"/>
		</g>
		<g>
			<polygon fill="#F1F1F1" points="155.605,51.128 148.289,52.452 143.874,45.857 151.146,44.643 			"/>
			<path fill="#E3E3E3" d="M145.186,46.45l5.651-0.95l3.452,5.039l-5.672,1.012L145.186,46.45 M140.996,44.566l6.564,9.865
				l10.919-2.004l-6.655-9.644L140.996,44.566L140.996,44.566z"/>
		</g>
	</g>
	<g>
		<polygon fill="#F1F1F1" points="73.864,38.074 64.872,39.295 61.341,32.439 70.26,31.33 		"/>
		<path fill="#E3E3E3" d="M62.742,33.067l6.928-0.868l2.795,5.247l-6.972,0.934L62.742,33.067 M58.27,31.06l5.233,10.257
			l13.43-1.859l-5.396-10.011L58.27,31.06L58.27,31.06z"/>
	</g>
	<g>
		<polygon fill="#F1F1F1" points="95.681,50.093 86.94,51.5 83.07,44.417 91.739,43.137 		"/>
		<path fill="#E3E3E3" d="M84.484,45.058l6.735-1.01l3.044,5.403l-6.771,1.083L84.484,45.058 M79.98,43.031l5.739,10.592
			l13.049-2.143l-5.894-10.326L79.98,43.031L79.98,43.031z"/>
	</g>
	<g>
		<polygon fill="#F1F1F1" points="78.294,63.007 68.792,64.681 64.98,57.019 74.396,55.475 		"/>
		<path fill="#E3E3E3" d="M66.475,57.687l7.312-1.206l3.019,5.853l-7.367,1.292L66.475,57.687 M61.721,55.549l5.645,11.484
			l14.189-2.557l-5.832-11.182L61.721,55.549L61.721,55.549z"/>
	</g>
</g>
<g>
	<text transform="matrix(1 0 0 1 16.3594 87.6655)" fill="#CCCCCB" font-family="'Candara-Bold'" font-size="45">WFS</text>
</g>
</svg>
