<?xml version="1.0" encoding="utf-8"?>
<!-- Generator: Adobe Illustrator 15.1.0, SVG Export Plug-In . SVG Version: 6.00 Build 0)  -->
<!DOCTYPE svg PUBLIC "-//W3C//DTD SVG 1.1//EN" "http://www.w3.org/Graphics/SVG/1.1/DTD/svg11.dtd">
<svg version="1.1" id="Calque_1" xmlns="http://www.w3.org/2000/svg" xmlns:xlink="http://www.w3.org/1999/xlink" x="0px" y="0px"
	 width="153.5px" height="76.24px" viewBox="0 0 153.5 76.24" enable-background="new 0 0 153.5 76.24" xml:space="preserve">
<path opacity="0.75" fill="#E3E3E3" enable-background="new    " d="M93.938,55.535l7.858,1.194
	c0.351,2.463,1.093,4.807,2.167,6.998l-6.12,4.5c-1.764,1.295-2.14,3.776-0.853,5.528l1.826,2.481h8.123l4.758-3.502
	c1.857,1.302,3.914,2.353,6.146,3.068l-0.065,0.434h13.451c1.537-0.393,3.026-0.93,4.438-1.635l1.201,1.635h14.342
	c-0.123-0.494-0.342-0.975-0.667-1.41l-5.849-7.967c1.111-1.576,2.048-3.315,2.74-5.182l6.065,0.922V50.604l-4.769-0.726
	c-0.291-1.972-0.85-3.86-1.592-5.666l6.358-4.688v-9.021l-0.376-0.511c-1.292-1.75-3.771-2.122-5.521-0.839l-7.613,5.603
	c-1.633-1.299-3.457-2.375-5.432-3.218l1.309-8.595c0.326-2.153-1.146-4.176-3.316-4.506l-3.895-0.592
	c-2.158-0.328-4.174,1.162-4.5,3.318l-1.307,8.594c-2.334,0.228-4.576,0.801-6.688,1.672l-4.691-6.368
	c-1.292-1.741-3.781-2.126-5.529-0.84l-3.189,2.345c-1.76,1.279-2.114,3.78-0.825,5.536l4.771,6.483
	c-1.502,1.896-2.746,4.033-3.617,6.352l-7.355-1.119c-2.162-0.327-4.178,1.156-4.506,3.322l-0.596,3.909
	C90.292,53.194,91.773,55.207,93.938,55.535z M115.497,51.821c0.819-5.398,5.862-9.096,11.254-8.274
	c5.396,0.82,9.106,5.849,8.286,11.247c-0.824,5.411-5.862,9.104-11.256,8.284C118.391,62.257,114.673,57.233,115.497,51.821z"/>
<g opacity="0.5">
	<g>
		<path fill="#E3E3E3" d="M100.455,18.183l-6.154-0.11c-0.342-1.189-0.841-2.31-1.447-3.358l4.158-4.016
			c0.979-0.937,1.008-2.493,0.062-3.471l-1.706-1.764c-0.938-0.973-2.496-0.996-3.47-0.062L87.673,9.48
			c-1.112-0.665-2.323-1.178-3.608-1.535l0.098-5.399c0.023-1.354-1.053-2.477-2.413-2.501L79.301,0
			c-1.357-0.024-2.475,1.059-2.498,2.414l-0.097,5.398c-1.418,0.333-2.752,0.87-3.98,1.581l-3.413-3.535
			c-0.939-0.965-2.505-0.997-3.476-0.062l-1.77,1.707c-0.979,0.934-0.991,2.503-0.054,3.478l3.472,3.6
			c-0.769,1.291-1.358,2.71-1.704,4.208l-4.623-0.082c-1.358-0.024-2.477,1.055-2.501,2.416l-0.043,2.456
			c-0.024,1.349,1.053,2.465,2.411,2.488l4.938,0.089c0.418,1.488,1.068,2.87,1.911,4.131l-3.397,3.275
			c-0.979,0.941-1.007,2.502-0.07,3.475l1.701,1.764c0.949,0.972,2.504,1,3.479,0.058L73.38,35.2
			c1.251,0.647,2.603,1.126,4.037,1.384l-0.092,5.131c-0.025,1.356,1.053,2.474,2.407,2.5l2.457,0.045
			c1.35,0.021,2.468-1.057,2.492-2.411l0.104-5.768c1.246-0.414,2.433-0.976,3.507-1.706l3.88,4.028
			c0.943,0.975,2.496,1.003,3.477,0.062l1.768-1.7c0.98-0.942,1.01-2.498,0.057-3.477l-4.258-4.424
			c0.557-1.062,0.987-2.211,1.264-3.416l5.848,0.104c1.367,0.024,2.479-1.049,2.51-2.413l0.043-2.454
			C102.895,19.33,101.822,18.207,100.455,18.183z M80.023,28.254c-3.387-0.061-6.089-2.85-6.027-6.249
			c0.061-3.391,2.86-6.084,6.248-6.022c3.39,0.061,6.089,2.851,6.027,6.243C86.212,25.625,83.413,28.314,80.023,28.254z"/>
	</g>
</g>
<g enable-background="new    ">
	<path fill="#CCCCCB" d="M39.887,37.38c0,1.362-1.465,6.196-4.395,14.502s-4.395,13.008-4.395,14.106h-5.801
		c0-1.157-0.887-4.416-2.659-9.777c-1.889-5.742-2.951-9.529-3.186-11.36h-0.373c-0.235,1.846-1.216,5.662-2.945,11.448
		c-1.611,5.404-2.417,8.635-2.417,9.689H7.785c0-1.377-1.443-6.276-4.329-14.699s-4.329-13.06-4.329-13.909h6.965
		c0,0.923,0.835,4.6,2.505,11.03s2.505,10.247,2.505,11.447h0.352c0-1.2,0.894-4.947,2.681-11.238
		c1.787-6.292,2.681-10.038,2.681-11.239h6.262c0,1.099,0.894,4.911,2.682,11.437c1.786,6.526,2.68,10.207,2.68,11.041h0.352
		c0-1.055,0.81-4.636,2.429-10.744c1.618-6.108,2.428-10.02,2.428-11.733H39.887z"/>
	<path fill="#CCCCCB" d="M64.166,44.872c0,3.502-1.3,6.087-3.9,7.757c-2.6,1.67-5.79,2.505-9.569,2.505
		c-0.688,0-1.179-0.015-1.472-0.044c0,2.754,0.08,6.387,0.241,10.898h-6.174c0.19-4.233,0.285-9.221,0.285-14.963
		c0-5.274-0.095-9.822-0.285-13.646h3.823c0.542,0,1.582-0.022,3.12-0.066s2.871-0.066,3.999-0.066c2.783,0,5.134,0.63,7.054,1.89
		C63.206,40.397,64.166,42.31,64.166,44.872z M58.497,46.081c0-3.135-2.08-4.702-6.24-4.702c-1.04,0-2.139,0.11-3.296,0.329
		c0.161,2.77,0.241,5.904,0.241,9.405c0.366,0.029,0.791,0.043,1.275,0.043C55.823,51.156,58.497,49.465,58.497,46.081z"/>
	<path fill="#CCCCCB" d="M86.975,58.188c0,5.729-4.116,8.592-12.349,8.592c-2.798,0-5.398-0.337-7.801-1.011l1.077-4.899
		c2.373,0.82,4.614,1.23,6.724,1.23c2.344,0,4.028-0.228,5.054-0.682s1.538-1.216,1.538-2.285c0-1.113-0.483-2.051-1.45-2.812
		c-0.835-0.674-2.526-1.553-5.075-2.637c-2.315-0.996-4.036-2.08-5.164-3.252c-1.421-1.479-2.131-3.303-2.131-5.472
		c0-2.52,0.934-4.489,2.801-5.91c1.868-1.421,4.552-2.131,8.053-2.131c2.871,0,5.281,0.242,7.229,0.725l-0.813,4.878
		c-1.977-0.718-4.116-1.077-6.416-1.077c-3.457,0-5.186,0.924-5.186,2.77c0,0.98,0.403,1.779,1.209,2.395
		c0.703,0.527,2.233,1.268,4.592,2.22c2.506,1.01,4.38,2.124,5.625,3.34C86.146,53.793,86.975,55.801,86.975,58.188z"/>
</g>
</svg>
