<?xml version="1.0" encoding="utf-8"?>
<!-- Generator: Adobe Illustrator 15.1.0, SVG Export Plug-In . SVG Version: 6.00 Build 0)  -->
<!DOCTYPE svg PUBLIC "-//W3C//DTD SVG 1.1//EN" "http://www.w3.org/Graphics/SVG/1.1/DTD/svg11.dtd">
<svg version="1.1" id="Calque_1" xmlns="http://www.w3.org/2000/svg" xmlns:xlink="http://www.w3.org/1999/xlink" x="0px" y="0px"
	 width="720.2px" height="213.2px" viewBox="0 0 720.2 213.2" style="enable-background:new 0 0 720.2 213.2;" xml:space="preserve"
	>
<style type="text/css">
<![CDATA[
	.st0{fill:#E3E3E2;}
	.st1{fill:#E3E3E3;}
	.st2{fill:none;stroke:#E3E3E3;stroke-width:4;}
	.st3{opacity:0.45;}
	.st4{opacity:0.75;}
	.st5{enable-background:new    ;}
	.st6{fill:#F1F1F1;}
	.st7{opacity:0.5;fill:#E3E3E3;enable-background:new    ;}
	.st8{opacity:0.5;}
	.st9{opacity:0.6;}
	.st10{fill:#CCCCCB;}
	.st11{fill:#CDCDCC;}
	.st12{fill:#D0D0D0;}
	.st13{opacity:0.75;fill:#E3E3E3;enable-background:new    ;}
]]>
</style>
<g>
	<g class="st4">
		<polygon class="st1" points="153.5,55.3 143.2,21.1 105.1,0.5 51.2,16.6 80,113.1 102.1,113.1 153.5,97.7 		"/>
		
			<rect x="79.2" y="55.5" transform="matrix(-0.958 0.2868 -0.2868 -0.958 228.8086 84.1728)" class="st12" width="58.1" height="6.7"/>
		
			<rect x="75" y="43.5" transform="matrix(-0.958 0.2868 -0.2868 -0.958 192.8162 65.4536)" class="st12" width="33.2" height="6.7"/>
		
			<rect x="83.8" y="71.2" transform="matrix(-0.958 0.2868 -0.2868 -0.958 242.356 113.6357)" class="st12" width="58.1" height="6.7"/>
		<polyline class="st12" points="105.1,0.5 113.9,29.9 143.2,21.1 		"/>
	</g>
	<g class="st5">
		<path class="st10" d="M22.7,97.6l-0.4,5c-2.1,0.5-4.1,0.8-6.1,0.8c-5,0-8.9-1.4-11.5-4.2c-2.7-2.7-4-6.1-4-10.1
			c0-4.1,1.4-7.7,4.2-10.7c2.8-3.1,6.6-4.6,11.5-4.6c1.8,0,3.5,0.2,5.1,0.6l-0.8,5.1c-1.7-0.6-3.4-0.8-5-0.8c-3,0-5.2,0.9-6.6,2.8
			s-2.2,4.2-2.2,6.9c0,2.8,0.9,5.1,2.6,7.2c1.7,2,4.1,3,7.2,3C18.6,98.5,20.5,98.2,22.7,97.6z"/>
		<path class="st10" d="M45.7,95c0,5.7-4.1,8.6-12.4,8.6c-2.8,0-5.4-0.3-7.8-1l1.1-4.9c2.4,0.8,4.6,1.2,6.7,1.2c2.3,0,4-0.2,5.1-0.7
			s1.5-1.2,1.5-2.3s-0.5-2-1.5-2.8c-0.7-0.6-2.4-1.5-4.9-2.6c-2.3-1-4-2.1-5.2-3.2c-1.4-1.5-2.1-3.3-2.1-5.5c0-2.5,0.9-4.5,2.8-5.9
			s4.5-2.1,8-2.1c2.9,0,5.3,0.2,7.2,0.7l-0.8,4.9c-2-0.7-4.1-1.1-6.4-1.1c-3.5,0-5.2,0.9-5.2,2.8c0,1,0.4,1.8,1.2,2.4
			c0.7,0.5,2.2,1.3,4.6,2.2c2.5,1,4.4,2.1,5.6,3.3C44.9,90.6,45.7,92.6,45.7,95z"/>
		<path class="st10" d="M88.4,74.2c0,1.4-1.5,6.2-4.4,14.5c-2.9,8.3-4.4,13-4.4,14.1h-5.8c0-1.2-0.9-4.4-2.7-9.8
			c-1.9-5.7-2.9-9.5-3.2-11.4h-0.4c-0.2,1.8-1.2,5.7-2.9,11.4c-1.6,5.4-2.4,8.6-2.4,9.7h-5.9c0-1.4-1.4-6.3-4.3-14.7
			s-4.3-13.1-4.3-13.9h7c0,0.9,0.8,4.6,2.5,11c1.7,6.4,2.5,10.2,2.5,11.5H60c0-1.2,0.9-5,2.7-11.2c1.8-6.2,2.7-10,2.7-11.2h6.3
			c0,1.1,0.9,4.9,2.7,11.4c1.8,6.5,2.7,10.2,2.7,11h0.3c0-1.1,0.8-4.6,2.4-10.7c1.6-6.1,2.4-10,2.4-11.7H88.4L88.4,74.2z"/>
	</g>
</g>
<g>
	<g class="st4">
		<g>
			<path class="st1" d="M297.9,71.1l-1.5-9.4c-20.8,3.3-35,22.9-31.7,43.7l9.4-1.5C271.7,88.3,282.3,73.6,297.9,71.1z"/>
			<path class="st13" d="M285.1,45.1l-1.5-9.4c-31.3,5-52.6,34.5-47.6,65.8l9.5-1.5C241.3,73.8,259,49.3,285.1,45.1z"/>
			<path class="st7" d="M272.2,19.2l-1.5-9.9c-42,6.8-70.5,46.2-63.8,88.1l9.8-1.6C210.9,59.3,235.7,25,272.2,19.2z"/>
			<path class="st1" d="M315.7,113c1.4,0,2.5-1.1,2.5-2.5v-7.7v-0.1l0,0V89.2c-1.2-1.1-2.5-2.1-4-2.9c-8.5-4.4-19-1.2-23.4,7.3
				c-3.4,6.5-2.3,14.2,2.3,19.5h13.2L315.7,113L315.7,113z"/>
		</g>
	</g>
	<g class="st5">
		<path class="st10" d="M196.2,95c0,5.7-4.1,8.6-12.4,8.6c-2.8,0-5.4-0.3-7.8-1l1.1-4.9c2.4,0.8,4.6,1.2,6.7,1.2
			c2.3,0,4-0.2,5.1-0.7c1-0.5,1.5-1.2,1.5-2.3s-0.5-2-1.5-2.8c-0.8-0.7-2.5-1.5-5.1-2.6c-2.3-1-4-2.1-5.2-3.2
			c-1.4-1.5-2.1-3.3-2.1-5.5c0-2.5,0.9-4.5,2.8-5.9c1.9-1.4,4.5-2.1,8-2.1c2.9,0,5.3,0.2,7.2,0.7l-0.7,4.8c-2-0.7-4.1-1.1-6.4-1.1
			c-3.5,0-5.2,0.9-5.2,2.8c0,1,0.4,1.8,1.2,2.4c0.7,0.5,2.2,1.3,4.6,2.2c2.5,1,4.4,2.1,5.6,3.3C195.3,90.6,196.2,92.6,196.2,95z"/>
		<path class="st10" d="M227.5,88c0,4.5-1.4,8.2-4.1,11.2c-2.8,3-6.2,4.4-10.2,4.4c-3.9,0-7.1-1.4-9.7-4.1
			c-2.6-2.7-3.9-6.2-3.9-10.4c0-4.5,1.4-8.2,4.1-11.2c2.8-3,6.2-4.4,10.2-4.4c3.9,0,7.1,1.3,9.7,4.1C226.2,80.3,227.5,83.8,227.5,88
			z M221.5,88.6c0-3.1-0.8-5.5-2.4-7.5c-1.6-1.9-3.5-2.8-5.8-2.8c-2.1,0-4,1-5.5,2.9c-1.5,1.9-2.2,4.3-2.2,7.3
			c0,3.1,0.8,5.5,2.4,7.4c1.6,1.9,3.5,2.9,5.8,2.9c2.1,0,3.9-1,5.4-2.9C220.7,93.9,221.5,91.5,221.5,88.6z"/>
		<path class="st10" d="M251,95c0,5.7-4.1,8.6-12.3,8.6c-2.8,0-5.4-0.3-7.8-1l1.1-4.9c2.4,0.8,4.6,1.2,6.7,1.2c2.3,0,4-0.2,5-0.7
			s1.5-1.2,1.5-2.3s-0.5-2-1.5-2.8c-0.8-0.7-2.5-1.5-5.1-2.6c-2.3-1-4-2.1-5.2-3.2c-1.4-1.5-2.1-3.3-2.1-5.5c0-2.5,0.9-4.5,2.8-5.9
			c1.9-1.4,4.6-2.1,8.1-2.1c2.9,0,5.3,0.2,7.2,0.7l-0.7,4.8c-2-0.7-4.1-1.1-6.4-1.1c-3.5,0-5.2,0.9-5.2,2.8c0,1,0.4,1.8,1.2,2.4
			c0.7,0.5,2.2,1.3,4.6,2.2c2.5,1,4.4,2.1,5.6,3.3C250.2,90.6,251,92.6,251,95z"/>
	</g>
</g>
<g>
	<g class="st4">
		<polygon class="st1" points="118.2,145.7 111.1,135.3 126.8,130.9 134.2,140.7 		"/>
		<polygon class="st1" points="108.4,164.7 101.1,152.2 118.8,146.6 126.6,158.2 		"/>
		<polygon class="st1" points="94,189 86.7,173.6 107.1,166.2 115.3,180.3 		"/>
		<polygon class="st1" points="62.1,182 56.5,167 78.7,159.9 85.2,173.7 		"/>
		<polygon class="st1" points="80.3,157.7 74.5,145.5 93.4,140.2 99.9,151.5 		"/>
		<polygon class="st1" points="90.6,213.2 102.3,207.7 93.9,190.1 69.9,200.1 74.8,213.2 		"/>
		<polygon class="st1" points="126.8,196.2 117.5,180.4 136.3,172.6 146.1,187.1 		"/>
		<polygon class="st1" points="136.8,171.4 128,158.6 144.4,152.6 153.5,164.6 		"/>
	</g>
	<g class="st5">
		<path class="st10" d="M41.8,174.6c0,1.4-1.5,6.2-4.4,14.5c-2.9,8.3-4.4,13-4.4,14.1h-5.8c0-1.2-0.9-4.4-2.7-9.8
			c-1.9-5.7-3-9.5-3.2-11.4H21c-0.2,1.9-1.2,5.7-2.9,11.5c-1.6,5.4-2.4,8.6-2.4,9.7h-6c0-1.4-1.4-6.3-4.3-14.7S1,175.4,1,174.6h7
			c0,0.9,0.8,4.6,2.5,11c1.7,6.4,2.5,10.3,2.5,11.5h0.4c0-1.2,0.9-5,2.7-11.2c1.8-6.3,2.7-10,2.7-11.2H25c0,1.1,0.9,4.9,2.7,11.4
			c1.8,6.5,2.7,10.2,2.7,11h0.4c0-1.1,0.8-4.6,2.4-10.7c1.6-6.1,2.4-10,2.4-11.7L41.8,174.6L41.8,174.6z"/>
		<path class="st10" d="M65.7,198l-0.4,5c-2.1,0.5-4.1,0.8-6.1,0.8c-5,0-8.9-1.4-11.5-4.2c-2.6-2.8-3.9-6.2-3.9-10.1
			c0-4.1,1.4-7.7,4.2-10.7s6.6-4.6,11.5-4.6c1.8,0,3.5,0.2,5.1,0.6l-0.9,5.1c-1.7-0.6-3.4-0.8-5-0.8c-3,0-5.2,0.9-6.6,2.8
			c-1.4,1.9-2.2,4.2-2.2,6.9c0,2.8,0.9,5.1,2.6,7.2c1.7,2,4.1,3,7.2,3C61.6,198.9,63.5,198.6,65.7,198z"/>
		<path class="st10" d="M88.7,195.4c0,5.7-4.1,8.6-12.4,8.6c-2.8,0-5.4-0.3-7.8-1l1.1-4.9c2.4,0.8,4.6,1.2,6.7,1.2
			c2.3,0,4-0.2,5-0.7s1.5-1.2,1.5-2.3s-0.5-2-1.5-2.8c-0.6-0.6-2.3-1.5-4.9-2.6c-2.3-1-4-2.1-5.2-3.2c-1.4-1.5-2.1-3.3-2.1-5.5
			c0-2.5,0.9-4.5,2.8-5.9s4.6-2.1,8.1-2.1c2.9,0,5.3,0.2,7.2,0.7l-0.8,4.9c-2-0.7-4.1-1.1-6.4-1.1c-3.5,0-5.2,0.9-5.2,2.8
			c0,1,0.4,1.8,1.2,2.4c0.7,0.5,2.2,1.3,4.6,2.2c2.5,1,4.4,2.1,5.6,3.3C87.9,191,88.7,193,88.7,195.4z"/>
	</g>
</g>
<g>
	<g>
		<g>
			<polyline class="st2" points="263.9,202.5 276.8,211.1 282.9,210.4 288,181.1 316.3,191.7 			"/>
			<g>
				<polygon class="st6" points="293.9,184 286,185.7 281.4,178.4 289.3,176.9 				"/>
				<path class="st1" d="M282.8,179l6.1-1.2l3.6,5.6l-6.2,1.3L282.8,179 M278.4,177l6.8,10.9l11.9-2.5l-6.9-10.6L278.4,177
					L278.4,177z"/>
			</g>
			<g>
				<polygon class="st6" points="318.2,198 318.2,189.5 312.9,190.7 317.8,198.1 				"/>
				<polygon class="st1" points="318.2,200.2 318.2,197.1 318.1,197.1 314.3,191.3 318.2,190.4 318.2,187.4 309.8,189.3 
					317.2,200.4 				"/>
			</g>
			<g>
				<polygon class="st6" points="267.6,202.8 258.5,204.9 254,196.7 263,194.8 				"/>
				<path class="st1" d="M255.6,197.4l7-1.5l3.5,6.2l-7,1.6L255.6,197.4 M250.7,195.2l6.7,12.3l13.5-3.2l-6.8-11.9L250.7,195.2
					L250.7,195.2z"/>
			</g>
			<polygon class="st6" points="286.1,213.2 282.8,207.6 274.1,209.8 276,213.2 			"/>
			<polygon class="st1" points="277.2,213.2 275.6,210.4 282.4,208.8 285,213.2 288.6,213.2 283.7,205.1 270.7,208.3 273.5,213.2 
							"/>
		</g>
		<g>
			<polygon class="st6" points="298.9,163.8 268.9,169 253.2,143.2 282.5,139.5 			"/>
			<polygon class="st2" points="298.9,163.8 268.9,169 253.2,143.2 282.5,139.5 			"/>
			<g>
				<polygon class="st6" points="275.1,171.8 267,173.3 262.7,166.2 270.8,164.9 				"/>
				<path class="st1" d="M264.1,166.8l6.3-1l3.3,5.4l-6.3,1.1L264.1,166.8 M259.7,164.9l6.3,10.5l12.2-2.2l-6.4-10.3L259.7,164.9
					L259.7,164.9z"/>
			</g>
			<g>
				<polygon class="st6" points="259.2,146 251.2,147.1 247.4,140.8 255.3,139.8 				"/>
				<path class="st1" d="M248.8,141.4l6.1-0.8l3,4.8l-6.2,0.8L248.8,141.4 M244.6,139.5l5.6,9.5l11.8-1.6l-5.8-9.2L244.6,139.5
					L244.6,139.5z"/>
			</g>
			<g>
				<polygon class="st6" points="288.2,142.2 281,143.2 277,137.2 284.2,136.3 				"/>
				<path class="st1" d="M278.3,137.8l5.5-0.7l3.1,4.6l-5.6,0.7L278.3,137.8 M274.3,136l5.9,8.9l10.7-1.4l-6-8.7L274.3,136
					L274.3,136z"/>
			</g>
			<g>
				<polygon class="st6" points="304.8,166.4 297.5,167.8 293.1,161.2 300.4,159.9 				"/>
				<path class="st1" d="M294.4,161.8l5.7-1l3.5,5l-5.7,1L294.4,161.8 M290.2,159.9l6.6,9.9l10.9-2l-6.7-9.6L290.2,159.9
					L290.2,159.9z"/>
			</g>
		</g>
		<g>
			<polygon class="st6" points="223.1,153.4 214.1,154.6 210.5,147.7 219.5,146.6 			"/>
			<path class="st1" d="M211.9,148.4l6.9-0.9l2.8,5.2l-7,0.9L211.9,148.4 M207.5,146.4l5.2,10.3l13.4-1.9l-5.4-10L207.5,146.4
				L207.5,146.4z"/>
		</g>
		<g>
			<polygon class="st6" points="244.9,165.4 236.1,166.8 232.3,159.7 240.9,158.4 			"/>
			<path class="st1" d="M233.7,160.4l6.7-1l3,5.4l-6.8,1.1L233.7,160.4 M229.2,158.3l5.7,10.6l13-2.1l-5.9-10.3L229.2,158.3
				L229.2,158.3z"/>
		</g>
		<g>
			<polygon class="st6" points="227.5,178.3 218,180 214.2,172.3 223.6,170.8 			"/>
			<path class="st1" d="M215.7,173l7.3-1.2l3,5.9l-7.4,1.3L215.7,173 M210.9,170.8l5.7,11.5l14.2-2.6l-5.8-11.2L210.9,170.8
				L210.9,170.8z"/>
		</g>
	</g>
	<g class="st5">
		<path class="st10" d="M206.6,174.4c0,1.4-1.5,6.2-4.4,14.5c-2.9,8.3-4.4,13-4.4,14.1H192c0-1.2-0.9-4.4-2.7-9.8
			c-1.9-5.7-3-9.5-3.2-11.4h-0.4c-0.2,1.8-1.2,5.7-2.9,11.4c-1.6,5.4-2.4,8.6-2.4,9.7h-5.9c0-1.4-1.4-6.3-4.3-14.7
			c-2.9-8.4-4.3-13.1-4.3-13.9h7c0,0.9,0.8,4.6,2.5,11c1.7,6.4,2.5,10.2,2.5,11.5h0.4c0-1.2,0.9-5,2.7-11.2c1.8-6.2,2.7-10,2.7-11.2
			h6.3c0,1.1,0.9,4.9,2.7,11.4s2.7,10.2,2.7,11h0.4c0-1,0.8-4.6,2.4-10.7c1.6-6.1,2.4-10,2.4-11.7H206.6L206.6,174.4z"/>
		<path class="st10" d="M228.2,174.4l-0.2,4.8c-4.6-0.2-8.7-0.3-12.4-0.3c0.2,2.5,0.3,5.3,0.3,8.3c2.8,0,6-0.1,9.6-0.2v4.6
			c-3.7-0.3-6.9-0.3-9.7-0.3c0,4.2,0.1,8,0.2,11.7h-6.1c0.2-4.4,0.3-9.4,0.3-15c0-5.3-0.1-9.9-0.3-13.7h18.3V174.4z"/>
		<path class="st10" d="M250.7,195.2c0,5.7-4.1,8.6-12.3,8.6c-2.8,0-5.4-0.3-7.8-1l1.1-4.9c2.4,0.8,4.6,1.2,6.7,1.2
			c2.3,0,4-0.2,5.1-0.7c1-0.5,1.5-1.2,1.5-2.3c0-1.1-0.5-2-1.4-2.8c-0.8-0.7-2.5-1.5-5.1-2.6c-2.3-1-4-2.1-5.2-3.2
			c-1.4-1.5-2.1-3.3-2.1-5.5c0-2.5,0.9-4.5,2.8-5.9c1.9-1.4,4.5-2.1,8-2.1c2.9,0,5.3,0.2,7.2,0.7l-0.8,4.9c-2-0.7-4.1-1.1-6.4-1.1
			c-3.5,0-5.2,0.9-5.2,2.8c0,1,0.4,1.8,1.2,2.4c0.7,0.5,2.2,1.3,4.6,2.2c2.5,1,4.4,2.1,5.6,3.3C249.9,190.8,250.7,192.8,250.7,195.2
			z"/>
	</g>
</g>
<g>
	<path class="st13" d="M442,113.1h11.8c0.4-3.6,1.2-7.8,0.5-11.9c-1-5.7-9.1-9-7.6-15.8c0.9-1.1,2-2.1,2.5-3.6
		c-3.7-5.4-11-7.3-16.3-11.2c0.1-2.9-0.9-4.5-2.5-5.6c0.1,1.4,0.9,2.1,1,3.6c-3.6-3.5-4.9-9-5.1-14.3c3.3-10.4,9.6-19.4,18-26.1
		c0.1,0,0.1,0.1,0.2,0.1c-0.1,1.4-1.9,1.2-2.6,2.1c3.5,1,3.6-3.1,5.7-0.5c0.2-1.2-0.9-1.1-0.5-2.6c0.6,0,0.7-0.7,1.5-0.5
		c0.3,2.9,1.9,1.6,2.6,3.6c0.1-0.6,0.6-0.8,1-1c0.5-1.9-1.9-0.8-1.5-2.6c0.1-2.8,4.3-1.5,6.2-2.6c0,0.9,1.4,0.3,1.5,1
		c-0.7-0.1-3.7-0.1-2.1,0.5c5.2-0.4,5.2,3.5,8.2,6.2c-1-0.1-1,0.7-1.5,1c-0.7,0.1-1.6-2.1-2.1-0.5c1.1,0.1,1.1,1.3,1,2.6
		c-2.6-0.8-0.3,0.1-1.6,1c-1.9-1-3.4-2.4-5.6-3.1c1.3-0.4,3-0.5,3.1-2.1c0.4-1.6-1.4-1-1-2.6c-0.8,0-4.2-0.2-2.6,0.5
		c0.4,2.3-1.5,2.3-2.1,3.6c0.8,0.4,1.6,0.8,1.5,2.1c-0.4-0.3-0.8-0.5-1.5-0.5c-0.7,0.1-0.5,1,0,1c-0.1,0.9-2.5-0.2-2.1-1.5
		c-2.4,0.8-3.6,2.9-5.1,4.6c0.4,1.9,2.4,2.4,4.1,3.1c0.4,0.3,0.8,0.5,1.5,0.5c-0.4,1.6,0.5,1.9,0.5,3.1c1.8-4.1,3.3-3.1,3.1-9.8
		c0.4,0.1,0.5-0.2,0.5-0.5c0.5-0.1,1.2,1.4,3.1,1c1.3,0.4,0.3,3.2,2.1,3.1c1.7,0.6,0.4-1.7,2.1-1c1.6,4.8,4.4,7.2,5.1,11.8
		c-1.6,0.4-1.9-0.5-3.1-0.5c-1.8,0.5-0.9-1.7-0.5-2.1c0.8-0.3,1.3-0.8,1.5-1.5c-1.9,0.5-3.5,3.2-5.1,1c0.4,1.5-0.7,1.3-0.5,2.6
		c-0.1,0.4,0.2,0.5,0.5,0.5c0.4,0.1,1,0,1,0.5c0,0.2,0,0.4,0,0.5c-2.4,1.6-8.8,3.4-9.8,9.3c-1.5,0-1.9,1.2-2.6,2.1
		c-1.1,0.4,1,3.6-0.5,4.6c-1.2-0.6-1.7-2.1-2-3.6c-4.7-2.7-13.2,5.9-5.1,7.7c0.2,0,0.3,0,0.5,0c-0.2-1.6,2.8-2.3,3.1-0.5
		c-0.8,0.4-1.1,1.3-1,2.6c-0.1,1.1,1.8,0.2,2.6,0.5c-0.1,2.3-1.1,4.2,1.5,4.6c0.4,0.1,1,0,1,0.5c2-0.2,2.2-2.2,4.1-2.6
		c1.2,1.1,3.3,1.5,6.7,1.5c0.7,3.2,4.6,3.3,6.7,5.1c0,0.9,0,1.7,0,2.6c3.7,1,6.4,2.9,9.8,4.1c-0.5,4.8-3.7,7-3.6,12.4
		c-1.4,0.7-2.7,1.4-4.1,2.1c-0.5,3.4-2.7,7.5-5.7,6.7c-0.2,1.2,0.9,1.1,0.5,2.6c-0.3,0.1-0.6,0.2-0.9,0.3h52.8
		c4.4-3.8,8.2-8.3,11.2-13.3v-4c-0.3,0.9-0.9,1.8-0.9,2.6c-0.5,0.9-1.2,1.8-1.5,3c0,0,0,0.1-0.1,0.1c-0.5,0.1-0.8,0.6-1,1
		c-1.3-4,1.6-5.5,3.1-8.8c0.1,0.1,0.3,0.3,0.4,0.4V83.3c-1.4,1.7-3.1,3.1-4.5,4.8c0.1,3.9,0.3,5,0,8.8c-5.2,3.6-5.6,14.6-13.9,13.4
		c-1.4-3.8-1.4-8.9-3.1-12.3c3.4-4.9-1.4-8.2-1-14.4c-0.7-0.8-2.7-0.4-2.6-2.1c-3.2,1.1-5.5,0.7-8.8,1c-2.3-1.3-3.2-4-5.2-5.6
		c1.7-5-1.1-10.3,4.6-12.4c-0.3-6.1,9.5-7.1,13.4-5.7c0,0.7,0,1.4,0,2.1c2,0.4,3,1.8,4.6,2.6c-0.1-1.3,0.8-1.6,1.5-2.1
		c1.6,1,1.2,2.4,3.6,1.6c0.9,0.3,3-0.6,3.1,0.5c0.8-0.4,0.7-1.7,1-2.6c-0.5-1.8-3.2-1.3-4.6-2.1c-0.7-0.7-0.7-2.4,0-3.1
		c-3.3-0.2-0.5,2.5-2.6,3.1c-0.4,0-0.7,0-1,0c0.5-1.6-0.8-1.6-1-2.6c-1.5-0.1-2,3.5-3.6,1.5c3.7-0.6-2.1-5.2-2.6-3.1
		c-0.1-0.8,0.2-1.9-0.5-2c-1.8,0.6-3,1.8-4.7,2.6c0,0.7,0,1.4,0,2.1c-0.4,0.2-0.9,0.5-1,1c-1.5,0-3.1,0-4.6,0c0-0.6-0.7-0.7-0.5-1.5
		c0.8-1.1-0.1-3.8,1.5-4.1c1.5-0.7,2.6,1.4,3.1,0c0.2,0,0.3,0,0.5,0c0.2-1.9-1-2.4-1.5-3.6c0.1-1,1.7-0.4,1.5-1.5
		c4.4-0.2,4.5-4.7,7.2-6.7c-0.4,0.6-0.7,1.4-0.5,2.6c1.9,0.5,0.9-2.7,0.5-3.1c-1.2-0.2-2,0.1-2.6,0.5c-0.7-0.6-0.3-2.4-1-3.1
		c3.3-2.9,4.2-8.1,9.8-8.8c1.7,0.4,3.1,1,4.4,1.8c1.1,1,2.1,2,3.1,3.1c0,0.1,0.1,0.2,0.2,0.3c-1.5,0.4-1.3-0.7-2.6-0.5
		c0.5,0.9,0.9,2.8,2.1,1.5c0.1,0.7,0.7,0.2,1.3-0.3c2.6,3,4.9,6.2,6.8,9.6v-2.3c-9.8-16.2-27.6-27-47.8-27c-8.5,0-16.5,1.9-23.7,5.3
		c0,0,0,0,0-0.1c-0.7,0.3-1.4,0.7-2.1,1.1h0.1c-0.1,0.1-0.3,0.1-0.4,0.2c0,0,0,0,0-0.1c-0.4,0.2-0.8,0.4-1.2,0.7h0.1
		c-0.4,0.2-0.9,0.5-1.3,0.7c0,0,0,0-0.1,0c0.2-0.1,0.5-0.3,0.7-0.4c-0.2,0.1-0.5,0.3-0.7,0.4l0,0c-0.1,0.1-0.2,0.1-0.3,0.2
		c0.1,0,0.1,0,0.1,0c-0.2,0.1-0.4,0.3-0.7,0.4v-0.1c0,0-0.1,0-0.1,0.1c0,0,0,0,0.1,0c-0.1,0.1-0.2,0.1-0.3,0.2h0.1
		c-0.1,0.1-0.2,0.1-0.3,0.2c-0.1,0.1-0.3,0.2-0.4,0.3v0.1l0,0c0,0,0,0,0-0.1c0,0,0.1,0,0.1-0.1l0,0c0,0-0.1,0-0.1,0.1l0,0
		c-1.5,1-3,2-4.4,3.2c0,0,0,0,0,0.1c-12.8,10.2-20.9,26-20.9,43.6C422.8,87.8,430.3,102.9,442,113.1z M445.7,68.6
		c1.4-2.2,4.9,0.9,6.2,2.1C449,70.7,448.6,68.3,445.7,68.6z M451.8,71.7c0.5-0.9,1.6-1.1,3.1-1C455.1,72.8,453.1,72,451.8,71.7z
		 M495.6,39.7c2.7,0.6,1.9,4.6,4.1,5.7c0,0.4,0,0.7,0,1c-1.2-0.2-1.1,0.9-2.6,0.5c-1-0.1-1.1,0.6-2.1,0.5
		C497.1,44.7,494.5,42.5,495.6,39.7z M494.6,42.8c0.6,0.6,0.6,1.8,0.5,3.1c-0.8,0-1.7,0-2.6,0C492.3,44,492.9,42.9,494.6,42.8z
		 M483.8,38.2c-0.8,2.1-3.3,2.5-5.2,3.6c-0.6-0.1-0.3-0.5,0-0.5c-0.1-1-1.7-0.3-2.1-1C476,34,484.3,32.5,483.8,38.2z M486.8,35.1
		c-0.5-1.1-1.6-1.5-1.5-3.1c2.1,0.5,3.1,0.5,5.2,0c0.1,0.4,0.5,0.5,0.5,1C490.9,35.1,489,35.2,486.8,35.1z M464.7,18.1
		c-0.1,0-0.1,0-0.2,0c4.5-1.2,9.2-1.8,14-1.8c2.8,0,5.7,0.2,8.4,0.6c0,0.1,0,0.1-0.1,0.1c0.3,0.1,0.7,0.1,1.1,0
		c0.9,0.2,1.7,0.3,2.6,0.5c-0.8,0.4-1.1,1.4-2.1,1.5c-0.4,1.6,0.5,1.9,0.5,3.1c-0.9,0.2-1.3-0.8-1.5,0c1.8,2.3-2.5,4.3,0,6.2
		c-3.7,1.9-9,2.3-11.3,5.6c-1.1,1.3-1.6,3.2-3.1,4.1c-3.7-1.1-4.4-7.1-3.3-9.5c0.1-0.1,0.2-0.2,0.2-0.3c-0.1,0.1-0.1,0.2-0.2,0.3
		c-0.3,0.2-0.8,0.1-0.9-0.3c2.4-6.8-5.9-4.8-7.2-8.8C462.5,19,464.9,19.9,464.7,18.1z M452.9,22.7c1,0.3,1.9,0.5,3.1-0.5
		c-0.7,0-1.5,0.1-2.2,0c2.4-1.2,5-2.3,7.6-3.2c-2,1-3.3,2.7-4.4,4.7c-2.4,0.2-4.3,0.5-5.8-0.1C451.8,23.4,452.3,23,452.9,22.7z
		 M448.9,25.1c0.5-0.3,1-0.6,1.5-1c0.1,0.2,0.3,0.4,0.9,0.2c-0.5,1.2-1.6,1.9-3.1,2.1C448.6,25.9,448.8,25.5,448.9,25.1z"/>
	<g class="st5">
		<path class="st10" d="M398.8,74.3c0,1.4-1.5,6.2-4.4,14.5c-2.9,8.3-4.4,13-4.4,14.1h-5.8c0-1.2-0.9-4.4-2.7-9.8
			c-1.9-5.7-2.9-9.5-3.2-11.4h-0.4c-0.2,1.8-1.2,5.7-2.9,11.4c-1.6,5.4-2.4,8.6-2.4,9.7h-5.9c0-1.4-1.4-6.3-4.3-14.7
			c-2.9-8.4-4.3-13.1-4.3-13.9h7c0,0.9,0.8,4.6,2.5,11c1.7,6.4,2.5,10.2,2.5,11.5h0.3c0-1.2,0.9-5,2.7-11.2s2.7-10,2.7-11.2h6.3
			c0,1.1,0.9,4.9,2.7,11.4s2.7,10.2,2.7,11h0.4c0-1,0.8-4.6,2.4-10.7s2.4-10,2.4-11.7H398.8L398.8,74.3z"/>
		<path class="st10" d="M435.3,102.9h-6.4c0-2.5-0.1-6.7-0.5-12.6c-0.3-5.9-0.5-9.6-0.5-11.1h-0.3c-0.1,0.9-0.5,2.5-1.2,4.9
			c-0.6,2.4-1.8,5.9-3.5,10.5c-1.8,4.6-2.6,7.4-2.6,8.3h-4.9c0-0.9-0.8-3.7-2.5-8.4c-1.7-4.6-2.8-7.9-3.3-9.8
			c-0.5-1.9-0.9-3.7-1.2-5.5h-0.3c0,1.8-0.2,5.8-0.5,11.8s-0.5,10-0.5,11.9h-5.8c0-0.4,0.5-4.8,1.6-13.2c1.1-8.4,1.6-13.5,1.6-15.4
			h8.5c0,1.6,0.9,5.3,2.7,10.9c1.8,5.6,2.7,9.2,2.7,10.7h0.3c0-1.6,1-5.2,3.1-10.8s3.1-9.2,3.1-10.8h8.4c0,3,0.3,8.4,1,16.2
			C434.9,98.3,435.3,102.4,435.3,102.9z"/>
		<path class="st10" d="M459.8,95.1c0,5.7-4.1,8.6-12.4,8.6c-2.8,0-5.4-0.3-7.8-1l1.1-4.9c2.4,0.8,4.6,1.2,6.7,1.2
			c2.3,0,4-0.2,5-0.7s1.5-1.2,1.5-2.3s-0.5-2-1.5-2.8c-0.8-0.7-2.5-1.5-5.1-2.6c-2.3-1-4-2.1-5.2-3.2c-1.4-1.5-2.1-3.3-2.1-5.5
			c0-2.5,0.9-4.5,2.8-5.9s4.5-2.1,8-2.1c2.9,0,5.3,0.2,7.2,0.7l-0.8,4.9c-2-0.7-4.1-1.1-6.4-1.1c-3.5,0-5.2,0.9-5.2,2.8
			c0,1,0.4,1.8,1.2,2.4c0.7,0.5,2.2,1.3,4.6,2.2c2.5,1,4.4,2.1,5.6,3.3C459,90.7,459.8,92.7,459.8,95.1z"/>
	</g>
</g>
<g>
	<g>
		<g class="st3">
			<polygon class="st0" points="432.1,206.3 402.9,206.3 422.2,194.1 451.4,194.1 			"/>
			<polygon class="st0" points="467.9,206.3 438.8,206.3 458.1,194.1 487.2,194.1 			"/>
			<polygon class="st0" points="503.8,206.3 474.6,206.3 493.9,194.1 523.1,194.1 			"/>
			<polygon class="st0" points="456.3,190.5 427.1,190.5 446.4,178.3 475.6,178.3 			"/>
			<polygon class="st0" points="492.2,190.5 463,190.5 482.3,178.3 511.5,178.3 			"/>
			<polygon class="st0" points="526,178.3 518.1,178.3 498.8,190.5 526,190.5 			"/>
			<polygon class="st0" points="457.5,213.2 463,209.7 433.8,209.7 428.3,213.2 			"/>
			<polygon class="st0" points="421.6,213.2 427.1,209.7 398,209.7 392.5,213.2 			"/>
			<polygon class="st0" points="493.3,213.2 498.8,209.7 469.7,209.7 464.2,213.2 			"/>
		</g>
		<g class="st9">
			<polygon class="st0" points="433.9,188.6 396.3,188.6 421.2,172.2 458.8,172.2 			"/>
			<polygon class="st0" points="482,188.6 444.4,188.6 469.3,172.2 506.9,172.2 			"/>
			<polygon class="st0" points="463.8,168.6 426.2,168.6 451.1,152.2 488.7,152.2 			"/>
			<polygon class="st0" points="526,159.3 526,152.2 499.2,152.2 474.3,168.6 511.9,168.6 			"/>
		</g>
		<polygon class="st0" points="473.6,153.3 417.9,153.3 454.7,129 510.4,129 		"/>
	</g>
	<g class="st5">
		<path class="st11" d="M374.4,174.3c0,1.4-1.5,6.2-4.4,14.5c-2.9,8.3-4.4,13-4.4,14.1h-5.8c0-1.2-0.9-4.4-2.7-9.8
			c-1.9-5.7-3-9.5-3.2-11.4h-0.4c-0.2,1.8-1.2,5.7-2.9,11.5c-1.6,5.4-2.4,8.6-2.4,9.7h-5.9c0-1.4-1.4-6.3-4.3-14.7
			s-4.3-13.1-4.3-13.9h7c0,0.9,0.8,4.6,2.5,11c1.7,6.4,2.5,10.2,2.5,11.5h0.3c0-1.2,0.9-5,2.7-11.2c1.8-6.2,2.7-10,2.7-11.2h6.3
			c0,1.1,0.9,4.9,2.7,11.4c1.8,6.5,2.6,10.2,2.6,11h0.3c0-1,0.8-4.6,2.4-10.7c1.6-6.1,2.4-10,2.4-11.7L374.4,174.3L374.4,174.3z"/>
		<path class="st11" d="M410.9,202.9h-6.4c0-2.5-0.2-6.7-0.5-12.6c-0.3-5.9-0.5-9.6-0.5-11.1h-0.3c-0.2,0.9-0.5,2.5-1.2,4.9
			c-0.6,2.4-1.8,5.9-3.5,10.5s-2.6,7.4-2.6,8.3H391c0-0.9-0.8-3.7-2.5-8.4c-1.7-4.6-2.8-7.9-3.3-9.8s-0.9-3.7-1.2-5.5h-0.3
			c0,1.8-0.2,5.8-0.5,11.8s-0.5,10-0.5,11.9h-5.8c0-0.4,0.5-4.8,1.6-13.2s1.6-13.5,1.6-15.4h8.5c0,1.6,0.9,5.3,2.7,10.9
			s2.7,9.2,2.7,10.7h0.3c0-1.6,1-5.2,3.1-10.8c2-5.6,3.1-9.2,3.1-10.8h8.4c0,3,0.3,8.4,1,16.2C410.5,198.3,410.9,202.5,410.9,202.9z
			"/>
		<path class="st11" d="M436.7,174.3l-0.1,4.7c-2.9-0.2-5.7-0.3-8.3-0.3c0,2.8,0,5.8,0,9.2c0,5.3,0.1,10.3,0.2,15h-6.1
			c0.2-4.7,0.3-9.7,0.3-15c0-3.3,0-6.4-0.1-9.2c-2.1,0-4.9,0.1-8.5,0.3l0.2-4.8L436.7,174.3L436.7,174.3z"/>
		<path class="st11" d="M459,195.1c0,5.7-4.1,8.6-12.4,8.6c-2.8,0-5.4-0.3-7.8-1l1.1-4.9c2.4,0.8,4.6,1.2,6.7,1.2
			c2.3,0,4-0.2,5.1-0.7c1-0.4,1.5-1.2,1.5-2.3c0-1.1-0.5-2.1-1.4-2.8c-0.8-0.7-2.5-1.5-5.1-2.6c-2.3-1-4-2.1-5.2-3.2
			c-1.4-1.5-2.1-3.3-2.1-5.5c0-2.5,0.9-4.5,2.8-5.9c1.9-1.4,4.6-2.1,8.1-2.1c2.9,0,5.3,0.2,7.2,0.7l-0.8,4.9c-2-0.7-4.1-1.1-6.4-1.1
			c-3.5,0-5.2,0.9-5.2,2.8c0,1,0.4,1.8,1.2,2.4c0.7,0.5,2.2,1.3,4.6,2.2c2.5,1,4.4,2.1,5.6,3.3C458.2,190.7,459,192.7,459,195.1z"/>
	</g>
</g>
<g>
	<path class="st13" d="M660.6,92.4l7.9,1.2c0.4,2.5,1.1,4.8,2.2,7l-6.1,4.5c-1.8,1.3-2.1,3.8-0.8,5.5l1.8,2.5h8.1l4.8-3.5
		c1.9,1.3,3.9,2.3,6.1,3.1l-0.1,0.4H698c1.5-0.4,3-0.9,4.4-1.6l1.2,1.6h14.3c-0.1-0.5-0.3-1-0.7-1.4l-5.8-8c1.1-1.6,2-3.3,2.7-5.2
		l6.1,0.9v-12l-4.8-0.7c-0.3-2-0.8-3.9-1.6-5.7l6.4-4.7v-9l-0.4-0.5c-1.3-1.8-3.8-2.1-5.5-0.8l-7.6,5.6c-1.6-1.3-3.5-2.4-5.4-3.2
		l1.3-8.6c0.3-2.2-1.1-4.2-3.3-4.5l-3.9-0.6c-2.2-0.3-4.2,1.2-4.5,3.3l-1.3,8.6c-2.3,0.2-4.6,0.8-6.7,1.7l-4.7-6.4
		c-1.3-1.7-3.8-2.1-5.5-0.8l-3.2,2.3c-1.8,1.3-2.1,3.8-0.8,5.5l4.8,6.5c-1.5,1.9-2.8,4-3.6,6.4l-7.3-1.1c-2.2-0.3-4.2,1.2-4.5,3.3
		l-0.8,3.9C657,90.1,658.5,92.1,660.6,92.4z M682.2,88.7c0.8-5.4,5.9-9.1,11.2-8.3c5.4,0.8,9.1,5.8,8.3,11.2s-5.9,9.1-11.3,8.3
		C685.1,99.2,681.4,94.1,682.2,88.7z"/>
	<g class="st8">
		<g>
			<path class="st1" d="M667.2,55.1l-6.1-0.1c-0.3-1.2-0.8-2.3-1.5-3.4l4.2-4c1-0.9,1-2.5,0.1-3.5l-1.7-1.8c-0.9-1-2.5-1-3.5-0.1
				l-4.2,4.1c-1.1-0.7-2.3-1.2-3.6-1.5l0.1-5.4c0-1.4-1.1-2.5-2.4-2.5h-2.5c-1.4,0-2.5,1.1-2.5,2.4l-0.1,5.4c-1.4,0.3-2.8,0.9-4,1.6
				l-3.4-3.5c-0.9-1-2.5-1-3.5-0.1l-1.8,1.7c-1,0.9-1,2.5,0,3.5l3.5,3.6c-0.8,1.3-1.4,2.7-1.7,4.2l-4.6-0.1c-1.4,0-2.5,1.1-2.5,2.4
				v2.5c0,1.4,1.1,2.5,2.4,2.5l4.9,0.1c0.4,1.5,1.1,2.9,1.9,4.1l-3.4,3.3c-1,0.9-1,2.5-0.1,3.5l1.7,1.8c0.9,1,2.5,1,3.5,0.1l3.8-3.7
				c1.2,0.6,2.6,1.1,4,1.4l-0.1,5.1c0,1.4,1.1,2.5,2.4,2.5h2.5c1.4,0,2.5-1.1,2.5-2.4l0.1-5.8c1.2-0.4,2.4-1,3.5-1.7l3.9,4
				c0.9,1,2.5,1,3.5,0.1l1.8-1.7c1-0.9,1-2.5,0.1-3.5l-4.3-4.4c0.6-1.1,1-2.2,1.3-3.4l5.8,0.1c1.4,0,2.5-1,2.5-2.4v-2.4
				C669.6,56.2,668.5,55.1,667.2,55.1z M646.7,65.1c-3.4-0.1-6.1-2.9-6-6.2c0.1-3.4,2.9-6.1,6.2-6c3.4,0.1,6.1,2.9,6,6.2
				C652.9,62.5,650.1,65.2,646.7,65.1z"/>
		</g>
	</g>
	<g class="st5">
		<path class="st10" d="M606.6,74.3c0,1.4-1.5,6.2-4.4,14.5c-2.9,8.3-4.4,13-4.4,14.1H592c0-1.2-0.9-4.4-2.7-9.8
			c-1.9-5.7-2.9-9.5-3.2-11.4h-0.4c-0.2,1.8-1.2,5.7-2.9,11.4c-1.6,5.4-2.4,8.6-2.4,9.7h-5.9c0-1.4-1.4-6.3-4.3-14.7
			s-4.3-13.1-4.3-13.9h7c0,0.9,0.8,4.6,2.5,11c1.7,6.4,2.5,10.2,2.5,11.5h0.4c0-1.2,0.9-5,2.7-11.2s2.7-10,2.7-11.2h6.3
			c0,1.1,0.9,4.9,2.7,11.4s2.7,10.2,2.7,11h0.3c0-1.1,0.8-4.6,2.4-10.7c1.6-6.1,2.4-10,2.4-11.7H606.6L606.6,74.3z"/>
		<path class="st10" d="M630.9,81.8c0,3.5-1.3,6.1-3.9,7.8c-2.6,1.7-5.8,2.5-9.6,2.5c-0.7,0-1.2,0-1.5,0c0,2.8,0.1,6.4,0.2,10.9
			h-6.2c0.2-4.2,0.3-9.2,0.3-15c0-5.3-0.1-9.8-0.3-13.7h3.8c0.5,0,1.6,0,3.1-0.1c1.5-0.1,2.9-0.1,4-0.1c2.8,0,5.1,0.6,7,1.9
			C629.9,77.3,630.9,79.2,630.9,81.8z M625.2,83c0-3.1-2.1-4.7-6.2-4.7c-1,0-2.1,0.1-3.3,0.3c0.2,2.8,0.2,5.9,0.2,9.4
			c0.4,0,0.8,0,1.3,0C622.5,88.1,625.2,86.4,625.2,83z"/>
		<path class="st10" d="M653.7,95.1c0,5.7-4.1,8.6-12.4,8.6c-2.8,0-5.4-0.3-7.8-1l1.1-4.9c2.4,0.8,4.6,1.2,6.7,1.2
			c2.3,0,4-0.2,5-0.7s1.5-1.2,1.5-2.3s-0.5-2-1.5-2.8c-0.8-0.7-2.5-1.5-5.1-2.6c-2.3-1-4-2.1-5.2-3.2c-1.4-1.5-2.1-3.3-2.1-5.5
			c0-2.5,0.9-4.5,2.8-5.9c1.9-1.4,4.5-2.1,8-2.1c2.9,0,5.3,0.2,7.2,0.7l-0.8,4.9c-2-0.7-4.1-1.1-6.4-1.1c-3.5,0-5.2,0.9-5.2,2.8
			c0,1,0.4,1.8,1.2,2.4c0.7,0.5,2.2,1.3,4.6,2.2c2.5,1,4.4,2.1,5.6,3.3C652.9,90.7,653.7,92.7,653.7,95.1z"/>
	</g>
</g>
</svg>
