<?xml version="1.0" encoding="utf-8"?>
<!DOCTYPE svg PUBLIC "-//W3C//DTD SVG 1.1//EN" "http://www.w3.org/Graphics/SVG/1.1/DTD/svg11.dtd">
<svg version="1.1" id="Calque_1" xmlns="http://www.w3.org/2000/svg" xmlns:xlink="http://www.w3.org/1999/xlink" x="0px" y="0px"
	 width="193px" height="84.18px" viewBox="0 0 193 84.18" enable-background="new 0 0 193 84.18" xml:space="preserve">
<g>
	<g opacity="0.45">
		<polygon fill="#E3E3E2" points="99.08,77.27 69.91,77.27 89.21,65.11 118.38,65.11 		"/>
		<polygon fill="#E3E3E2" points="134.92,77.27 105.75,77.27 125.06,65.11 154.22,65.11 		"/>
		<polygon fill="#E3E3E2" points="170.77,77.27 141.6,77.27 160.9,65.11 190.06,65.11 		"/>
		<polygon fill="#E3E3E2" points="123.31,61.47 94.15,61.47 113.44,49.32 142.61,49.32 		"/>
		<polygon fill="#E3E3E2" points="159.15,61.47 129.99,61.47 149.29,49.32 178.46,49.32 		"/>
		<polygon fill="#E3E3E2" points="193,49.32 185.13,49.32 165.83,61.47 193,61.47 		"/>
		<polygon fill="#E3E3E2" points="124.48,84.18 129.99,80.72 100.82,80.72 95.32,84.18 		"/>
		<polygon fill="#E3E3E2" points="88.64,84.18 94.15,80.72 64.98,80.72 59.48,84.18 		"/>
		<polygon fill="#E3E3E2" points="160.33,84.18 165.83,80.72 136.67,80.72 131.16,84.18 		"/>
	</g>
	<g opacity="0.6">
		<polygon fill="#E3E3E2" points="100.91,59.65 63.32,59.65 88.2,43.21 125.78,43.21 		"/>
		<polygon fill="#E3E3E2" points="149,59.65 111.41,59.65 136.28,43.21 173.87,43.21 		"/>
		<polygon fill="#E3E3E2" points="130.8,39.64 93.21,39.64 118.08,23.21 155.67,23.21 		"/>
		<polygon fill="#E3E3E2" points="193,30.31 193,23.21 166.17,23.21 141.3,39.64 178.88,39.64 		"/>
	</g>
	<polygon fill="#E3E3E2" points="140.56,24.32 84.93,24.32 121.74,0 177.36,0 	"/>
</g>
<g enable-background="new    ">
	<path fill="#CDCDCC" d="M41.42,45.32c0,1.36-1.46,6.2-4.4,14.5c-2.93,8.31-4.4,13.01-4.4,14.11h-5.8c0-1.16-0.89-4.42-2.66-9.78
		c-1.89-5.74-2.95-9.53-3.19-11.36h-0.37c-0.23,1.85-1.22,5.66-2.94,11.45c-1.61,5.4-2.42,8.63-2.42,9.69H9.32
		c0-1.38-1.44-6.28-4.33-14.7C2.1,50.81,0.66,46.17,0.66,45.32h6.96c0,0.92,0.83,4.6,2.5,11.03c1.67,6.43,2.5,10.25,2.5,11.45h0.35
		c0-1.2,0.89-4.95,2.68-11.24c1.79-6.29,2.68-10.04,2.68-11.24h6.26c0,1.1,0.89,4.91,2.68,11.44c1.79,6.53,2.68,10.21,2.68,11.04
		h0.35c0-1.05,0.81-4.64,2.43-10.74c1.62-6.11,2.43-10.02,2.43-11.73L41.42,45.32L41.42,45.32z"/>
	<path fill="#CDCDCC" d="M77.85,73.93h-6.4c0-2.49-0.15-6.69-0.46-12.6c-0.31-5.91-0.47-9.6-0.48-11.06h-0.33
		c-0.15,0.88-0.54,2.51-1.17,4.88c-0.63,2.37-1.81,5.87-3.55,10.49c-1.74,4.62-2.6,7.39-2.6,8.29h-4.86c0-0.94-0.83-3.73-2.49-8.37
		c-1.66-4.64-2.75-7.9-3.26-9.76c-0.51-1.86-0.92-3.71-1.23-5.54h-0.33c-0.02,1.83-0.19,5.76-0.54,11.78
		c-0.34,6.02-0.52,9.98-0.52,11.89h-5.8c0-0.44,0.53-4.84,1.59-13.21c1.06-8.36,1.59-13.5,1.59-15.4h8.5c0,1.64,0.9,5.26,2.69,10.85
		c1.79,5.6,2.69,9.18,2.69,10.74h0.33c0-1.58,1.02-5.17,3.06-10.77c2.04-5.6,3.06-9.21,3.06-10.83h8.44c0,3.03,0.34,8.44,1.02,16.23
		C77.51,69.34,77.85,73.46,77.85,73.93z"/>
	<path fill="#CDCDCC" d="M103.71,45.32l-0.15,4.73c-2.93-0.22-5.69-0.33-8.28-0.33c-0.03,2.77-0.04,5.85-0.04,9.25
		c0,5.27,0.08,10.26,0.24,14.96h-6.15c0.19-4.66,0.29-9.65,0.29-14.96c0-3.34-0.03-6.42-0.09-9.25c-2.06,0-4.9,0.12-8.5,0.35
		l0.18-4.75L103.71,45.32L103.71,45.32z"/>
	<path fill="#CDCDCC" d="M126.04,66.13c0,5.73-4.12,8.59-12.35,8.59c-2.8,0-5.4-0.34-7.8-1.01l1.08-4.9
		c2.37,0.82,4.61,1.23,6.72,1.23c2.34,0,4.03-0.23,5.05-0.68c1.03-0.45,1.54-1.22,1.54-2.28c0-1.11-0.48-2.05-1.45-2.81
		c-0.83-0.67-2.53-1.55-5.08-2.64c-2.32-1-4.04-2.08-5.16-3.25c-1.42-1.48-2.13-3.3-2.13-5.47c0-2.52,0.93-4.49,2.8-5.91
		c1.87-1.42,4.55-2.13,8.05-2.13c2.87,0,5.28,0.24,7.23,0.73l-0.81,4.88c-1.98-0.72-4.12-1.08-6.42-1.08
		c-3.46,0-5.19,0.92-5.19,2.77c0,0.98,0.4,1.78,1.21,2.39c0.7,0.53,2.23,1.27,4.59,2.22c2.51,1.01,4.38,2.12,5.62,3.34
		C125.21,61.73,126.04,63.74,126.04,66.13z"/>
</g>
</svg>
