<?xml version="1.0" encoding="utf-8"?>
<!DOCTYPE svg PUBLIC "-//W3C//DTD SVG 1.1//EN" "http://www.w3.org/Graphics/SVG/1.1/DTD/svg11.dtd">
<svg version="1.1" id="Calque_1" xmlns="http://www.w3.org/2000/svg" xmlns:xlink="http://www.w3.org/1999/xlink" x="0px" y="0px"
	 width="65px" height="65px" viewBox="0 0 65 65" enable-background="new 0 0 65 65" xml:space="preserve">
<g>
	<path fill="#2E8BBF" d="M32.5,0c-4.9,0-9.6,1.1-13.8,3.1c0,0,0,0,0,0c-0.4,0.2-0.8,0.4-1.2,0.6c0,0,0,0,0.1,0
		c-0.1,0-0.2,0.1-0.2,0.1c0,0,0,0,0,0c-0.2,0.1-0.5,0.2-0.7,0.4c0,0,0,0,0.1,0c-0.2,0.1-0.5,0.3-0.8,0.4c0,0,0,0,0,0
		c0.1-0.1,0.3-0.2,0.4-0.2c-0.1,0.1-0.3,0.2-0.4,0.2l0,0c-0.1,0-0.1,0.1-0.2,0.1c0,0,0,0,0.1,0c-0.1,0.1-0.2,0.1-0.4,0.2
		c0,0,0-0.1,0-0.1c0,0,0,0,0,0c0,0,0,0,0,0c0,0,0,0-0.1,0c0,0,0,0,0,0c-0.1,0-0.1,0.1-0.2,0.1c0,0,0,0,0.1,0C15.1,5,15,5.1,14.8,5.2
		C14.9,5.1,15,5,15.1,5C15,5,14.9,5.1,14.8,5.2c0,0,0,0,0,0.1c0,0,0,0,0,0c0,0,0,0,0,0c0,0,0,0,0,0c0,0,0,0,0,0c0,0,0,0,0,0
		c0,0,0,0,0,0c-0.9,0.6-1.8,1.2-2.6,1.9c0,0,0,0,0,0.1C4.8,13.1,0,22.2,0,32.5C0,50.5,14.5,65,32.5,65S65,50.5,65,32.5
		S50.5,0,32.5,0z M55.8,10.8c0,0.1,0.1,0.1,0.1,0.2c-0.8,0.2-0.8-0.4-1.5-0.3c0.3,0.5,0.5,1.6,1.2,0.9c0.1,0.4,0.4,0.1,0.7-0.2
		c4.6,5.2,7.5,12,7.9,19.4c-0.4,0-0.8,0-1.2,0c1.9,2.9-2.1,4.2-3.9,5.4c0.5,1.2,1.7-0.4,2.4,0.3c-0.3,3-2.4,4.2-3.9,6
		c0.1,2.3,0.2,2.9,0,5.1c-3.1,2.1-3.2,8.5-8.1,7.8c-0.8-2.2-0.8-5.2-1.8-7.2c2-2.9-0.8-4.8-0.6-8.4c-0.4-0.5-1.6-0.2-1.5-1.2
		c-1.9,0.7-3.2,0.4-5.1,0.6c-1.4-0.8-1.9-2.3-3-3.3c1-2.9-0.6-6,2.7-7.2c-0.2-3.6,5.5-4.1,7.8-3.3c0,0.4,0,0.8,0,1.2
		c1.2,0.2,1.7,1.1,2.7,1.5c-0.1-0.8,0.5-0.9,0.9-1.2c0.9,0.6,0.7,1.4,2.1,0.9c0.5,0.2,1.8-0.4,1.8,0.3c0.4-0.3,0.4-1,0.6-1.5
		c-0.3-1-1.9-0.8-2.7-1.2c-0.4-0.4-0.4-1.4,0-1.8c-1.9-0.1-0.3,1.4-1.5,1.8c-0.2,0-0.4,0-0.6,0c0.3-1-0.5-0.9-0.6-1.5
		c-0.9-0.1-1.1,2-2.1,0.9c2.1-0.3-1.2-3-1.5-1.8c-0.1-0.4,0.1-1.1-0.3-1.2c-1.1,0.3-1.8,1-2.7,1.5c0,0.4,0,0.8,0,1.2
		c-0.3,0.1-0.5,0.3-0.6,0.6c-0.9,0-1.8,0-2.7,0c0-0.4-0.4-0.4-0.3-0.9c0.5-0.7,0-2.2,0.9-2.4c0.9-0.4,1.5,0.8,1.8,0
		c0.1,0,0.2,0,0.3,0c0.1-1.1-0.6-1.4-0.9-2.1c0-0.6,1-0.2,0.9-0.9c2.6-0.1,2.6-2.8,4.2-3.9c-0.2,0.3-0.4,0.8-0.3,1.5
		c1.1,0.3,0.5-1.6,0.3-1.8c-0.7-0.1-1.2,0-1.5,0.3c-0.4-0.4-0.2-1.4-0.6-1.8c1.9-1.7,2.5-4.7,5.7-5.1c1,0.2,1.8,0.6,2.6,1
		C54.6,9.6,55.2,10.2,55.8,10.8z M42.4,14.3c1.6,0.3,1.1,2.7,2.4,3.3c0,0.2,0,0.4,0,0.6c-0.7-0.1-0.7,0.5-1.5,0.3
		c-0.6-0.1-0.7,0.3-1.2,0.3C43.3,17.2,41.8,15.9,42.4,14.3z M42.1,17.9c-0.5,0-1,0-1.5,0c-0.1-1.1,0.2-1.8,1.2-1.8
		C42.2,16.5,42.2,17.2,42.1,17.9z M37.3,11.6c-0.3-0.6-0.9-0.9-0.9-1.8c1.2,0.3,1.8,0.3,3,0c0.1,0.2,0.3,0.3,0.3,0.6
		C39.7,11.6,38.6,11.6,37.3,11.6z M35.5,13.4c-0.5,1.2-1.9,1.5-3,2.1c-0.3-0.1-0.2-0.3,0-0.3c0-0.6-1-0.2-1.2-0.6
		C31,10.9,35.8,10.1,35.5,13.4z M58.3,50.9c-0.8-2.3,0.9-3.2,1.8-5.1c0.9,0.7-0.4,1.8-0.3,2.7c-0.3,0.5-0.7,1-0.9,1.8c0,0,0,0,0,0.1
		C58.6,50.4,58.5,50.6,58.3,50.9z M37.4,1C37.4,1.1,37.4,1.1,37.4,1c0.1,0.1,0.4,0.1,0.6,0.1c0.5,0.1,1,0.2,1.5,0.3
		c-0.5,0.2-0.6,0.8-1.2,0.9c-0.2,0.9,0.3,1.1,0.3,1.8c-0.5,0.1-0.8-0.4-0.9,0c1,1.3-1.5,2.5,0,3.6C35.5,8.8,32.4,9,31,11
		c-0.6,0.8-0.9,1.9-1.8,2.4c-2.1-0.6-2.5-4.1-1.9-5.5c0.1,0,0.1-0.1,0.1-0.2c0,0.1-0.1,0.1-0.1,0.2C27.2,8,26.9,8,26.8,7.7
		c1.4-4-3.4-2.8-4.2-5.1c0.5-0.4,1.9,0.1,1.8-0.9c0,0-0.1,0-0.1,0c2.6-0.7,5.4-1.1,8.2-1.1C34.2,0.7,35.8,0.8,37.4,1z M17.5,4.4
		c0.6,0.2,1.1,0.3,1.8-0.3c-0.4,0-0.9,0-1.2,0c1.4-0.7,2.9-1.3,4.4-1.8c-1.2,0.6-1.9,1.6-2.6,2.7c-1.4,0.1-2.5,0.3-3.4-0.1
		C16.9,4.8,17.2,4.6,17.5,4.4z M16.1,5.2c0.1,0.1,0.2,0.2,0.5,0.1c-0.3,0.7-0.9,1.1-1.8,1.2c0.2-0.3,0.3-0.5,0.4-0.7
		C15.5,5.6,15.8,5.4,16.1,5.2z M12.6,7.6c0,0,0.1,0.1,0.1,0.1c-0.1,0.8-1.1,0.7-1.5,1.2c2,0.6,2.1-1.8,3.3-0.3
		C14.6,7.9,14,8,14.2,7.1c0.4,0,0.4-0.4,0.9-0.3c0.1,1.7,1.1,0.9,1.5,2.1c0.1-0.3,0.3-0.5,0.6-0.6c0.3-1.1-1.1-0.5-0.9-1.5
		c0-1.7,2.5-0.9,3.6-1.5c0,0.5,0.8,0.2,0.9,0.6c-0.4,0-2.2,0-1.2,0.3c3.1-0.2,3,2,4.8,3.6c-0.6-0.1-0.6,0.4-0.9,0.6
		c-0.4,0-0.9-1.2-1.2-0.3c0.7,0,0.7,0.8,0.6,1.5c-1.5-0.5-0.2,0-0.9,0.6c-1.1-0.6-2-1.4-3.3-1.8c0.7-0.3,1.7-0.3,1.8-1.2
		c0.2-0.9-0.8-0.6-0.6-1.5c-0.4,0-2.5-0.1-1.5,0.3c0.2,1.4-0.9,1.3-1.2,2.1c0.4,0.3,1,0.4,0.9,1.2c-0.2-0.2-0.5-0.3-0.9-0.3
		c-0.4,0.1-0.3,0.6,0,0.6c0,0.5-1.4-0.1-1.2-0.9c-1.4,0.5-2.1,1.7-3,2.7c0.3,1.1,1.4,1.4,2.4,1.8c0.2,0.1,0.5,0.3,0.9,0.3
		c-0.2,0.9,0.3,1.1,0.3,1.8c1-2.4,1.9-1.8,1.8-5.7c0.2,0.1,0.3-0.1,0.3-0.3c0.3,0,0.7,0.8,1.8,0.6c0.8,0.2,0.1,1.8,1.2,1.8
		c1,0.4,0.2-1,1.2-0.6c0.9,2.8,2.6,4.2,3,6.9c-0.9,0.2-1.1-0.3-1.8-0.3c-1,0.3-0.5-1-0.3-1.2c0.4-0.2,0.7-0.5,0.9-0.9
		c-1.1,0.3-2,1.9-3,0.6c0.2,0.8-0.4,0.8-0.3,1.5c-0.1,0.2,0.1,0.3,0.3,0.3c0.2,0.1,0.6,0,0.6,0.3c0,0.1,0,0.2,0,0.3
		c-1.4,0.9-5.1,2-5.7,5.4c-0.9,0-1.1,0.7-1.5,1.2c-0.6,0.3,0.6,2.1-0.3,2.7c-0.7-0.4-1-1.2-1.2-2.1c-2.7-1.6-7.7,3.4-3,4.5
		c0.1,0,0.2,0,0.3,0c-0.1-0.9,1.6-1.3,1.8-0.3c-0.4,0.2-0.6,0.8-0.6,1.5c0,0.6,1.1,0.1,1.5,0.3c-0.1,1.3-0.6,2.5,0.9,2.7
		c0.2,0.1,0.6,0,0.6,0.3c1.2-0.1,1.3-1.3,2.4-1.5c0.7,0.6,1.9,0.9,3.9,0.9c0.4,1.9,2.7,1.9,3.9,3c0,0.5,0,1,0,1.5
		c2.2,0.6,3.7,1.7,5.7,2.4c-0.3,2.8-2.1,4.1-2.1,7.2c-0.8,0.4-1.6,0.8-2.4,1.2c-0.3,2-1.6,4.3-3.3,3.9c-0.1,0.7,0.5,0.6,0.3,1.5
		c-3.1,0.9-2.4,2.7-2.9,5.2c-0.8-0.3-1.6-0.7-2.3-1c-1.2-2.3,0.8-6.7,0.1-10.9c-0.6-3.3-5.3-5.2-4.4-9.2c0.5-0.7,1.2-1.2,1.5-2.1
		c-2.2-3.2-6.4-4.3-9.5-6.5c0.1-1.7-0.5-2.6-1.5-3.3c0,0.9,0.5,1.2,0.6,2.1c-2.1-2.1-2.9-5.3-3-8.3C4.1,16.8,7.8,11.5,12.6,7.6z
		 M18.7,32.3c0.1,1.3-1.1,0.8-1.8,0.6C17.2,32.4,17.9,32.2,18.7,32.3z M13.3,31.1c0.8-1.3,2.9,0.5,3.6,1.2
		C15.3,32.3,15.1,31,13.3,31.1z"/>
</g>
</svg>
