<?xml version="1.0" encoding="utf-8"?>
<!DOCTYPE svg PUBLIC "-//W3C//DTD SVG 1.1//EN" "http://www.w3.org/Graphics/SVG/1.1/DTD/svg11.dtd">
<svg version="1.1" id="Calque_1" xmlns="http://www.w3.org/2000/svg" xmlns:xlink="http://www.w3.org/1999/xlink" x="0px" y="0px"
	 width="169px" height="97.92px" viewBox="0 0 169 97.92" enable-background="new 0 0 169 97.92" xml:space="preserve">
<path opacity="0.75" fill="#E3E3E3" enable-background="new    " d="M84.74,97.92h11.83c0.45-3.57,1.25-7.75,0.55-11.9
	c-0.95-5.7-9.07-9-7.63-15.78c0.92-1.12,1.99-2.09,2.54-3.57c-3.7-5.44-10.97-7.34-16.28-11.19c0.15-2.86-0.9-4.54-2.55-5.61
	c0.08,1.45,0.93,2.12,1.02,3.56c-3.59-3.49-4.89-9.01-5.05-14.25c3.32-10.39,9.65-19.44,17.98-26.1c0.06,0.04,0.12,0.09,0.18,0.13
	c-0.12,1.42-1.92,1.17-2.58,2.06c3.45,1.02,3.6-3.1,5.67-0.52c0.21-1.23-0.94-1.12-0.52-2.57c0.65-0.02,0.71-0.65,1.54-0.51
	c0.26,2.93,1.92,1.61,2.57,3.6c0.1-0.58,0.58-0.81,1.03-1.03c0.55-1.93-1.93-0.82-1.54-2.58c0.07-2.84,4.35-1.49,6.18-2.58
	c0.01,0.85,1.43,0.3,1.54,1.03c-0.67-0.06-3.72-0.07-2.06,0.52c5.25-0.41,5.18,3.5,8.24,6.18c-1.01-0.15-1.03,0.69-1.54,1.03
	c-0.69,0.08-1.56-2.09-2.06-0.51c1.14,0.07,1.11,1.29,1.04,2.57c-2.56-0.84-0.3,0.06-1.56,1.02c-1.91-0.99-3.39-2.43-5.65-3.08
	c1.27-0.45,2.97-0.46,3.1-2.06c0.38-1.58-1.42-0.98-1.03-2.57c-0.75,0-4.21-0.2-2.58,0.51c0.42,2.31-1.48,2.3-2.06,3.6
	c0.76,0.44,1.63,0.77,1.54,2.06c-0.41-0.28-0.83-0.54-1.54-0.52c-0.65,0.13-0.52,1.02,0,1.02c-0.09,0.87-2.45-0.24-2.06-1.54
	c-2.44,0.82-3.63,2.88-5.14,4.63c0.44,1.95,2.4,2.4,4.12,3.1c0.41,0.26,0.83,0.54,1.54,0.5c-0.37,1.58,0.53,1.88,0.51,3.09
	c1.75-4.14,3.27-3.06,3.09-9.77c0.43,0.09,0.48-0.21,0.51-0.52c0.51-0.05,1.23,1.36,3.1,1.03c1.31,0.41,0.27,3.16,2.06,3.09
	c1.66,0.64,0.39-1.66,2.06-1.02c1.61,4.8,4.4,7.24,5.14,11.83c-1.56,0.37-1.86-0.52-3.08-0.51c-1.81,0.46-0.88-1.69-0.52-2.07
	c0.75-0.28,1.26-0.8,1.55-1.54c-1.94,0.48-3.49,3.19-5.15,1.03c0.42,1.45-0.72,1.33-0.52,2.57c-0.09,0.43,0.2,0.48,0.52,0.51
	c0.4,0.11,1.02,0.01,1.03,0.51c0,0.18,0,0.35,0,0.51c-2.44,1.58-8.83,3.41-9.78,9.27c-1.51,0.03-1.91,1.18-2.57,2.06
	c-1.08,0.45,1.02,3.59-0.52,4.63c-1.23-0.64-1.65-2.12-2.05-3.61c-4.68-2.72-13.16,5.87-5.14,7.73c0.17,0,0.33,0,0.52,0
	c-0.19-1.63,2.82-2.3,3.09-0.52c-0.76,0.43-1.1,1.3-1.03,2.57c-0.08,1.12,1.83,0.23,2.57,0.52c-0.14,2.28-1.09,4.25,1.55,4.63
	c0.4,0.11,1.02,0.02,1.03,0.51c2.01-0.2,2.19-2.25,4.12-2.56c1.15,1.08,3.32,1.51,6.69,1.54c0.73,3.22,4.63,3.26,6.69,5.15
	c0,0.87,0,1.71,0,2.57c3.68,0.96,6.39,2.88,9.78,4.12c-0.48,4.83-3.67,6.96-3.59,12.35c-1.39,0.67-2.74,1.38-4.12,2.06
	c-0.48,3.39-2.69,7.47-5.65,6.69c-0.21,1.23,0.93,1.11,0.51,2.57c-0.32,0.09-0.62,0.19-0.89,0.29h52.8
	c4.4-3.82,8.2-8.32,11.23-13.34v-3.99c-0.32,0.88-0.93,1.81-0.88,2.64c-0.55,0.94-1.23,1.77-1.51,3c-0.02,0.03-0.04,0.06-0.06,0.1
	c-0.55,0.12-0.77,0.56-0.99,1.02c-1.3-3.96,1.56-5.53,3.09-8.75c0.15,0.12,0.26,0.26,0.35,0.4V68.09c-1.36,1.74-3.07,3.12-4.46,4.83
	c0.12,3.91,0.27,4.97,0,8.75c-5.23,3.57-5.57,14.59-13.9,13.38c-1.38-3.77-1.43-8.86-3.09-12.35c3.43-4.94-1.39-8.24-1.02-14.41
	c-0.7-0.85-2.7-0.37-2.58-2.06c-3.21,1.11-5.52,0.66-8.75,1.02c-2.32-1.27-3.24-3.95-5.15-5.65c1.73-4.98-1.1-10.27,4.64-12.35
	c-0.28-6.12,9.46-7.08,13.38-5.66c0,0.69,0,1.38,0,2.06c2.02,0.38,2.98,1.83,4.63,2.58c-0.09-1.29,0.79-1.61,1.54-2.06
	c1.58,1,1.19,2.41,3.6,1.55c0.9,0.3,3.02-0.63,3.09,0.52c0.76-0.44,0.74-1.66,1.03-2.58c-0.48-1.76-3.18-1.29-4.65-2.06
	c-0.7-0.66-0.7-2.42,0-3.09c-3.27-0.23-0.52,2.48-2.56,3.09c-0.35,0-0.7,0-1.03,0c0.45-1.64-0.81-1.59-1.03-2.57
	c-1.53-0.12-1.96,3.49-3.6,1.54c3.67-0.6-2.07-5.18-2.57-3.09c-0.09-0.76,0.19-1.9-0.51-2.05c-1.84,0.56-3.02,1.78-4.65,2.57
	c0,0.69,0,1.37,0,2.06c-0.45,0.23-0.92,0.46-1.03,1.03c-1.54,0-3.08,0-4.63,0c-0.03-0.65-0.65-0.7-0.51-1.54
	c0.76-1.13-0.06-3.83,1.55-4.11c1.48-0.72,2.61,1.4,3.09,0c0.18,0,0.34,0,0.51,0c0.23-1.95-1.01-2.42-1.54-3.6
	c0.05-0.97,1.71-0.36,1.54-1.55c4.4-0.24,4.52-4.74,7.22-6.69c-0.44,0.61-0.68,1.38-0.51,2.57c1.89,0.48,0.93-2.71,0.51-3.08
	c-1.19-0.17-1.98,0.08-2.57,0.51c-0.72-0.65-0.32-2.43-1.03-3.08c3.26-2.93,4.22-8.13,9.78-8.75c1.65,0.41,3.14,0.98,4.42,1.76
	c1.08,1,2.12,2.03,3.12,3.1c0.04,0.1,0.13,0.18,0.17,0.29c-1.46,0.42-1.34-0.73-2.57-0.52c0.52,0.9,0.89,2.76,2.06,1.54
	c0.11,0.69,0.71,0.22,1.26-0.29c2.6,2.95,4.88,6.18,6.81,9.64v-2.28C159.24,10.81,141.51,0,121.25,0c-8.45,0-16.47,1.9-23.66,5.26
	c0.02-0.02,0.03-0.05,0.03-0.08c-0.72,0.34-1.44,0.69-2.15,1.06c0.04,0.02,0.09,0.02,0.12,0.02c-0.13,0.06-0.27,0.13-0.4,0.21
	c-0.02-0.03-0.02-0.04-0.04-0.06c-0.41,0.21-0.82,0.43-1.23,0.66c0.03,0.01,0.07,0.02,0.12,0.02c-0.43,0.24-0.87,0.48-1.29,0.74
	c-0.02-0.01-0.05-0.03-0.06-0.04c0.24-0.15,0.48-0.3,0.71-0.43c-0.23,0.15-0.49,0.28-0.72,0.43h0.01c-0.1,0.06-0.21,0.12-0.31,0.18
	C92.44,7.97,92.45,8,92.5,8c-0.22,0.12-0.43,0.27-0.65,0.4c0.02-0.04,0.03-0.09,0.04-0.13c-0.04,0.02-0.08,0.05-0.11,0.07
	c0.02-0.01,0.04-0.03,0.06-0.04c-0.08,0.06-0.18,0.12-0.27,0.17c0.03-0.02,0.06-0.03,0.08-0.04c-0.09,0.06-0.19,0.12-0.29,0.18
	c-0.15,0.1-0.29,0.19-0.44,0.29c0,0.03,0,0.07,0,0.09C90.92,9,90.9,9,90.88,9.01c-0.01-0.02-0.02-0.05-0.04-0.08
	c0.03-0.01,0.06-0.04,0.08-0.05c0,0,0-0.01,0-0.02c-0.02,0.02-0.06,0.04-0.09,0.06c0,0,0,0,0,0.01c-1.53,0.99-3.01,2.05-4.44,3.19
	c0.02,0.03,0.03,0.05,0.05,0.09C73.67,22.45,65.5,38.16,65.5,55.78C65.5,72.61,72.96,87.69,84.74,97.92z M88.37,53.37
	c1.39-2.24,4.9,0.9,6.18,2.06C91.74,55.48,91.33,53.15,88.37,53.37z M94.55,56.45c0.46-0.9,1.6-1.14,3.08-1.03
	C97.81,57.64,95.76,56.82,94.55,56.45z M138.28,24.54c2.69,0.58,1.94,4.59,4.12,5.67c0,0.35,0,0.69,0,1.03
	c-1.23-0.21-1.12,0.94-2.57,0.52c-0.98-0.11-1.14,0.58-2.06,0.51C139.85,29.52,137.18,27.27,138.28,24.54z M137.26,27.62
	c0.59,0.62,0.58,1.83,0.51,3.09c-0.85,0-1.71,0-2.57,0C134.99,28.8,135.62,27.7,137.26,27.62z M126.45,23
	c-0.79,2.12-3.29,2.54-5.15,3.59c-0.57-0.09-0.28-0.5,0-0.5c-0.08-0.96-1.73-0.33-2.06-1.04C118.72,18.77,127,17.31,126.45,23z
	 M129.54,19.91c-0.46-1.09-1.56-1.52-1.55-3.09c2.07,0.5,3.1,0.5,5.16,0c0.1,0.42,0.51,0.51,0.51,1.03
	C133.59,19.85,131.65,19.96,129.54,19.91z M107.4,2.92c-0.07,0.01-0.13,0.04-0.2,0.04c4.49-1.19,9.18-1.84,14.05-1.84
	c2.84,0,5.65,0.23,8.38,0.64c-0.04,0.05-0.05,0.07-0.09,0.13c0.33,0.06,0.71,0.07,1.11,0.05c0.86,0.16,1.72,0.33,2.57,0.51
	c-0.83,0.38-1.06,1.37-2.13,1.5c-0.37,1.58,0.52,1.88,0.51,3.09c-0.88,0.21-1.32-0.76-1.55,0c1.78,2.28-2.52,4.26,0,6.18
	c-3.74,1.91-9.02,2.29-11.32,5.65c-1.11,1.29-1.63,3.19-3.09,4.13c-3.67-1.07-4.38-7.12-3.27-9.45c0.1-0.08,0.17-0.19,0.17-0.33
	c-0.06,0.1-0.12,0.21-0.17,0.32c-0.28,0.19-0.76,0.14-0.85-0.33c2.41-6.84-5.9-4.83-7.2-8.75C105.18,3.79,107.6,4.66,107.4,2.92z
	 M95.57,7.53c1.03,0.34,1.9,0.54,3.08-0.48c-0.67-0.04-1.47,0.05-2.15,0.01c2.43-1.23,4.96-2.29,7.58-3.16
	c-1.99,1.03-3.31,2.74-4.39,4.69c-2.4,0.24-4.28,0.47-5.79-0.11C94.46,8.16,95,7.84,95.57,7.53z M91.57,9.9
	c0.5-0.32,1.02-0.65,1.53-0.97c0.12,0.25,0.34,0.4,0.93,0.17c-0.55,1.17-1.56,1.87-3.09,2.06C91.33,10.66,91.48,10.26,91.57,9.9z"/>
<g enable-background="new    ">
	<path fill="#CCCCCB" d="M41.52,59.06c0,1.36-1.46,6.2-4.4,14.5c-2.93,8.31-4.4,13.01-4.4,14.11h-5.8c0-1.16-0.89-4.42-2.66-9.78
		c-1.89-5.74-2.95-9.53-3.19-11.36h-0.37c-0.23,1.85-1.22,5.66-2.94,11.45c-1.61,5.4-2.42,8.63-2.42,9.69H9.42
		c0-1.38-1.44-6.28-4.33-14.7C2.21,64.54,0.76,59.9,0.76,59.06h6.96c0,0.92,0.83,4.6,2.5,11.03c1.67,6.43,2.5,10.25,2.5,11.45h0.35
		c0-1.2,0.89-4.95,2.68-11.24c1.79-6.29,2.68-10.04,2.68-11.24h6.26c0,1.1,0.89,4.91,2.68,11.44c1.79,6.53,2.68,10.21,2.68,11.04
		h0.35c0-1.05,0.81-4.64,2.43-10.74c1.62-6.11,2.43-10.02,2.43-11.73L41.52,59.06L41.52,59.06z"/>
	<path fill="#CCCCCB" d="M77.95,87.67h-6.4c0-2.49-0.15-6.69-0.46-12.6c-0.31-5.91-0.47-9.6-0.48-11.06h-0.33
		c-0.15,0.88-0.54,2.5-1.17,4.88s-1.81,5.87-3.55,10.49c-1.74,4.62-2.6,7.39-2.6,8.29h-4.85c0-0.94-0.83-3.73-2.49-8.37
		c-1.66-4.64-2.75-7.9-3.26-9.76s-0.92-3.71-1.23-5.54H50.8c-0.02,1.83-0.19,5.76-0.54,11.78c-0.34,6.02-0.52,9.98-0.52,11.89h-5.8
		c0-0.44,0.53-4.84,1.59-13.21c1.06-8.36,1.59-13.5,1.59-15.4h8.5c0,1.64,0.9,5.26,2.69,10.85c1.79,5.6,2.69,9.18,2.69,10.74h0.33
		c0-1.58,1.02-5.17,3.06-10.77c2.04-5.6,3.06-9.21,3.06-10.83h8.44c0,3.03,0.34,8.44,1.02,16.23C77.61,83.07,77.95,87.2,77.95,87.67
		z"/>
	<path fill="#CCCCCB" d="M102.47,79.86c0,5.73-4.12,8.59-12.35,8.59c-2.8,0-5.4-0.34-7.8-1.01l1.08-4.9
		c2.37,0.82,4.61,1.23,6.72,1.23c2.34,0,4.03-0.23,5.05-0.68c1.03-0.46,1.54-1.22,1.54-2.29c0-1.11-0.48-2.05-1.45-2.81
		c-0.83-0.67-2.53-1.55-5.07-2.64c-2.32-1-4.04-2.08-5.16-3.25c-1.42-1.48-2.13-3.3-2.13-5.47c0-2.52,0.93-4.49,2.8-5.91
		c1.87-1.42,4.55-2.13,8.05-2.13c2.87,0,5.28,0.24,7.23,0.72l-0.81,4.88c-1.98-0.72-4.12-1.08-6.42-1.08
		c-3.46,0-5.19,0.92-5.19,2.77c0,0.98,0.4,1.78,1.21,2.4c0.7,0.53,2.23,1.27,4.59,2.22c2.51,1.01,4.38,2.12,5.62,3.34
		C101.65,75.47,102.47,77.48,102.47,79.86z"/>
</g>
</svg>
