<?xml version="1.0" encoding="utf-8"?>
<!DOCTYPE svg PUBLIC "-//W3C//DTD SVG 1.1//EN" "http://www.w3.org/Graphics/SVG/1.1/DTD/svg11.dtd">
<svg version="1.1" id="Calque_1" xmlns="http://www.w3.org/2000/svg" xmlns:xlink="http://www.w3.org/1999/xlink" x="0px" y="0px"
	 width="169px" height="97.92px" viewBox="0 0 169 97.92" enable-background="new 0 0 169 97.92" xml:space="preserve">
<g>
	<g>
		<polyline fill="none" stroke="#E3E3E3" stroke-width="4" points="114.71,87.23 127.61,95.75 133.69,95.09 138.79,65.84 
			167.11,76.36 		"/>
		<g>
			<polygon fill="#F1F1F1" points="144.72,68.72 136.77,70.38 132.22,63.09 140.13,61.56 			"/>
			<path fill="#E3E3E3" d="M133.63,63.73l6.14-1.21l3.56,5.56l-6.17,1.27L133.63,63.73 M129.16,61.72l6.75,10.89l11.88-2.51
				l-6.86-10.63L129.16,61.72L129.16,61.72z"/>
		</g>
		<g>
			<polygon fill="#F1F1F1" points="169.05,82.74 169.05,74.18 163.67,75.41 168.64,82.84 			"/>
			<polygon fill="#E3E3E3" points="169.05,84.89 169.05,81.76 168.92,81.79 165.06,76.04 169.05,75.12 169.05,72.15 160.62,74.04 
				168.01,85.15 			"/>
		</g>
		<g>
			<polygon fill="#F1F1F1" points="118.39,87.49 109.35,89.58 104.85,81.39 113.82,79.45 			"/>
			<path fill="#E3E3E3" d="M106.37,82.07l6.96-1.51l3.54,6.24l-7.01,1.61L106.37,82.07 M101.53,79.9l6.68,12.26l13.5-3.17
				l-6.83-11.91L101.53,79.9L101.53,79.9z"/>
		</g>
		<polygon fill="#F1F1F1" points="136.94,97.92 133.62,92.31 124.86,94.46 126.84,97.92 		"/>
		<polygon fill="#E3E3E3" points="127.98,97.92 126.39,95.15 133.19,93.46 135.82,97.92 139.38,97.92 134.54,89.81 121.51,92.95 
			124.33,97.92 		"/>
	</g>
	<g>
		<polygon fill="#F1F1F1" points="149.74,48.5 119.73,53.7 104,27.93 133.29,24.25 		"/>
		<polygon fill="none" stroke="#E3E3E3" stroke-width="4" points="149.74,48.5 119.73,53.71 104,27.93 133.29,24.25 		"/>
		<g>
			<polygon fill="#F1F1F1" points="125.92,56.49 117.78,57.95 113.55,50.92 121.63,49.57 			"/>
			<path fill="#E3E3E3" d="M114.94,51.54l6.28-1.05l3.32,5.37l-6.31,1.13L114.94,51.54 M110.52,49.56l6.28,10.52l12.15-2.23
				l-6.4-10.27L110.52,49.56L110.52,49.56z"/>
		</g>
		<g>
			<polygon fill="#F1F1F1" points="109.97,30.74 102.04,31.78 98.24,25.46 106.11,24.52 			"/>
			<path fill="#E3E3E3" d="M99.56,26.06l6.11-0.75l2.98,4.84l-6.15,0.8L99.56,26.06 M95.37,24.17l5.64,9.46l11.83-1.6l-5.76-9.24
				L95.37,24.17L95.37,24.17z"/>
		</g>
		<g>
			<polygon fill="#F1F1F1" points="138.98,26.91 131.81,27.86 127.83,21.9 134.95,21.04 			"/>
			<path fill="#E3E3E3" d="M129.08,22.46l5.53-0.67l3.13,4.56l-5.55,0.73L129.08,22.46 M125.09,20.67l5.93,8.91l10.69-1.44
				l-6.02-8.72L125.09,20.67L125.09,20.67z"/>
		</g>
		<g>
			<polygon fill="#F1F1F1" points="155.61,51.13 148.29,52.45 143.87,45.86 151.15,44.64 			"/>
			<path fill="#E3E3E3" d="M145.19,46.45l5.65-0.95l3.45,5.04l-5.67,1.01L145.19,46.45 M141,44.57l6.56,9.87l10.92-2l-6.65-9.64
				L141,44.57L141,44.57z"/>
		</g>
	</g>
	<g>
		<polygon fill="#F1F1F1" points="73.86,38.07 64.87,39.29 61.34,32.44 70.26,31.33 		"/>
		<path fill="#E3E3E3" d="M62.74,33.07l6.93-0.87l2.79,5.25l-6.97,0.93L62.74,33.07 M58.27,31.06l5.23,10.26l13.43-1.86l-5.4-10.01
			L58.27,31.06L58.27,31.06z"/>
	</g>
	<g>
		<polygon fill="#F1F1F1" points="95.68,50.09 86.94,51.5 83.07,44.42 91.74,43.14 		"/>
		<path fill="#E3E3E3" d="M84.48,45.06l6.73-1.01l3.04,5.4l-6.77,1.08L84.48,45.06 M79.98,43.03l5.74,10.59l13.05-2.14l-5.89-10.33
			L79.98,43.03L79.98,43.03z"/>
	</g>
	<g>
		<polygon fill="#F1F1F1" points="78.29,63.01 68.79,64.68 64.98,57.02 74.4,55.48 		"/>
		<path fill="#E3E3E3" d="M66.48,57.69l7.31-1.21l3.02,5.85l-7.37,1.29L66.48,57.69 M61.72,55.55l5.65,11.48l14.19-2.56l-5.83-11.18
			L61.72,55.55L61.72,55.55z"/>
	</g>
</g>
<g enable-background="new    ">
	<path fill="#CCCCCB" d="M57.36,59.06c0,1.36-1.46,6.2-4.4,14.5c-2.93,8.31-4.4,13.01-4.4,14.11h-5.8c0-1.16-0.89-4.42-2.66-9.78
		c-1.89-5.74-2.95-9.53-3.19-11.36h-0.37c-0.23,1.85-1.22,5.66-2.94,11.45c-1.61,5.4-2.42,8.63-2.42,9.69h-5.93
		c0-1.38-1.44-6.28-4.33-14.7c-2.89-8.42-4.33-13.06-4.33-13.91h6.96c0,0.92,0.83,4.6,2.5,11.03c1.67,6.43,2.51,10.25,2.51,11.45
		h0.35c0-1.2,0.89-4.95,2.68-11.24c1.79-6.29,2.68-10.04,2.68-11.24h6.26c0,1.1,0.89,4.91,2.68,11.44
		c1.79,6.53,2.68,10.21,2.68,11.04h0.35c0-1.05,0.81-4.64,2.43-10.74c1.62-6.11,2.43-10.02,2.43-11.73L57.36,59.06L57.36,59.06z"/>
	<path fill="#CCCCCB" d="M78.96,59.06l-0.2,4.81c-4.57-0.23-8.71-0.35-12.42-0.35c0.19,2.5,0.29,5.28,0.29,8.33
		c2.83,0,6.03-0.07,9.62-0.22v4.55c-3.63-0.13-6.84-0.2-9.62-0.2c0,4.15,0.07,8.04,0.2,11.69h-6.06c0.19-4.42,0.28-9.41,0.28-14.96
		c0-5.33-0.09-9.88-0.28-13.65L78.96,59.06L78.96,59.06z"/>
	<path fill="#CCCCCB" d="M101.53,79.86c0,5.73-4.12,8.59-12.35,8.59c-2.8,0-5.4-0.34-7.8-1.01l1.08-4.9
		c2.37,0.82,4.61,1.23,6.72,1.23c2.34,0,4.03-0.23,5.05-0.68c1.02-0.46,1.54-1.22,1.54-2.29c0-1.11-0.48-2.05-1.45-2.81
		c-0.84-0.67-2.53-1.55-5.08-2.64c-2.32-1-4.04-2.08-5.16-3.25c-1.42-1.48-2.13-3.3-2.13-5.47c0-2.52,0.93-4.49,2.8-5.91
		c1.87-1.42,4.55-2.13,8.05-2.13c2.87,0,5.28,0.24,7.23,0.72l-0.81,4.88c-1.98-0.72-4.12-1.08-6.42-1.08
		c-3.46,0-5.19,0.92-5.19,2.77c0,0.98,0.4,1.78,1.21,2.4c0.7,0.53,2.23,1.27,4.59,2.22c2.51,1.01,4.38,2.12,5.62,3.34
		C100.7,75.47,101.53,77.48,101.53,79.86z"/>
</g>
</svg>
