<?xml version="1.0" encoding="utf-8"?>
<!DOCTYPE svg PUBLIC "-//W3C//DTD SVG 1.1//EN" "http://www.w3.org/Graphics/SVG/1.1/DTD/svg11.dtd">
<svg version="1.1" id="Calque_1" xmlns="http://www.w3.org/2000/svg" xmlns:xlink="http://www.w3.org/1999/xlink" x="0px" y="0px"
	 width="153.5px" height="82.3px" viewBox="0 0 153.5 82.3" style="enable-background:new 0 0 153.5 82.3;" xml:space="preserve">
<style type="text/css"><![CDATA[
	.st0{fill:#E3E3E3;} .st3{fill:#CCCCCB;}
]]></style>
<g opacity="0.75">
	<polygon class="st0" points="118.2,14.8 111.1,4.4 126.8,0 134.2,9.8"/>
	<polygon class="st0" points="108.4,33.8 101.1,21.3 118.8,15.7 126.6,27.3"/>
	<polygon class="st0" points="94,58.1 86.7,42.7 107.1,35.3 115.3,49.4"/>
	<polygon class="st0" points="62.1,51.1 56.5,36.1 78.7,29 85.2,42.8"/>
	<polygon class="st0" points="80.3,26.8 74.5,14.6 93.4,9.3 99.9,20.6"/>
	<polygon class="st0" points="90.6,82.3 102.3,76.8 93.9,59.2 69.9,69.2 74.8,82.3"/>
	<polygon class="st0" points="126.8,65.3 117.5,49.5 136.3,41.7 146.1,56.2"/>
	<polygon class="st0" points="136.8,40.5 128,27.7 144.4,21.7 153.5,33.7"/>
</g>
<g enable-background="new">
	<path class="st3" d="M41.8,43.7c0,1.4-1.5,6.2-4.4,14.5c-2.9,8.3-4.4,13-4.4,14.1h-5.8c0-1.2-0.9-4.4-2.7-9.8
		c-1.9-5.7-3-9.5-3.2-11.4H21c-0.2,1.9-1.2,5.7-2.9,11.5c-1.6,5.4-2.4,8.6-2.4,9.7H9.7c0-1.4-1.4-6.3-4.3-14.7
		C2.5,49.2,1,44.5,1,43.7h7c0,0.9,0.8,4.6,2.5,11C12.2,61.1,13,65,13,66.2h0.4c0-1.2,0.9-5,2.7-11.2c1.8-6.3,2.7-10,2.7-11.2H25
		c0,1.1,0.9,4.9,2.7,11.4c1.8,6.5,2.7,10.2,2.7,11h0.4c0-1.1,0.8-4.6,2.4-10.7c1.6-6.1,2.4-10,2.4-11.7L41.8,43.7L41.8,43.7z"/>
	<path class="st3" d="M65.7,67.1l-0.4,5c-2.1,0.5-4.1,0.8-6.1,0.8c-5,0-8.9-1.4-11.5-4.2c-2.6-2.8-3.9-6.2-3.9-10.1
		c0-4.1,1.4-7.7,4.2-10.7c2.8-3,6.6-4.6,11.5-4.6c1.8,0,3.5,0.2,5.1,0.6L63.7,49c-1.7-0.6-3.4-0.8-5-0.8c-3,0-5.2,0.9-6.6,2.8
		c-1.4,1.9-2.2,4.2-2.2,6.9c0,2.8,0.9,5.1,2.6,7.2c1.7,2,4.1,3,7.2,3C61.6,68,63.5,67.7,65.7,67.1z"/>
	<path class="st3" d="M88.7,64.5c0,5.7-4.1,8.6-12.4,8.6c-2.8,0-5.4-0.3-7.8-1l1.1-4.9c2.4,0.8,4.6,1.2,6.7,1.2c2.3,0,4-0.2,5-0.7
		c1-0.5,1.5-1.2,1.5-2.3c0-1.1-0.5-2-1.5-2.8C80.7,62,79,61.1,76.4,60c-2.3-1-4-2.1-5.2-3.2c-1.4-1.5-2.1-3.3-2.1-5.5
		c0-2.5,0.9-4.5,2.8-5.9s4.6-2.1,8.1-2.1c2.9,0,5.3,0.2,7.2,0.7l-0.8,4.9c-2-0.7-4.1-1.1-6.4-1.1c-3.5,0-5.2,0.9-5.2,2.8
		c0,1,0.4,1.8,1.2,2.4c0.7,0.5,2.2,1.3,4.6,2.2c2.5,1,4.4,2.1,5.6,3.3C87.9,60.1,88.7,62.1,88.7,64.5z"/>
</g>
</svg>
