<?xml version="1.0" encoding="utf-8"?>
<!-- Generator: Adobe Illustrator 15.1.0, SVG Export Plug-In . SVG Version: 6.00 Build 0)  -->
<!DOCTYPE svg PUBLIC "-//W3C//DTD SVG 1.1//EN" "http://www.w3.org/Graphics/SVG/1.1/DTD/svg11.dtd">
<svg version="1.1" id="Calque_1" xmlns="http://www.w3.org/2000/svg" xmlns:xlink="http://www.w3.org/1999/xlink" x="0px" y="0px"
	 width="153.5px" height="82.352px" viewBox="0 30.215 153.5 82.352" enable-background="new 0 30.215 153.5 82.352"
	 xml:space="preserve">
<g opacity="0.75">
	<polygon fill="#E3E3E3" points="118.193,45.044 111.133,34.572 126.746,30.215 134.198,40.008 	"/>
	<polygon fill="#E3E3E3" points="108.413,64.038 101.104,51.5 118.764,45.889 126.597,57.508 	"/>
	<polygon fill="#E3E3E3" points="94.042,88.315 86.658,72.867 107.137,65.458 115.266,79.608 	"/>
	<polygon fill="#E3E3E3" points="62.117,81.323 56.534,66.239 78.676,59.174 85.203,72.995 	"/>
	<polygon fill="#E3E3E3" points="80.331,56.963 74.457,44.809 93.365,39.531 99.897,50.803 	"/>
	<polygon fill="#E3E3E3" points="90.582,112.519 102.305,107.001 93.939,89.413 69.87,99.356 74.791,112.519 	"/>
	<polygon fill="#E3E3E3" points="126.75,95.493 117.524,79.669 136.305,71.91 146.072,86.396 	"/>
	<polygon fill="#E3E3E3" points="136.786,70.724 128.04,57.848 144.401,51.933 153.531,63.856 	"/>
</g>
<g>
	<text transform="matrix(1 0 0 1 0.7891 102.4792)" fill="#CCCCCB" font-family="'Candara-Bold'" font-size="45">WCS</text>
</g>
</svg>
