<?xml version="1.0" encoding="utf-8"?>
<!DOCTYPE svg PUBLIC "-//W3C//DTD SVG 1.1//EN" "http://www.w3.org/Graphics/SVG/1.1/DTD/svg11.dtd">
<svg version="1.1" id="Calque_1" xmlns="http://www.w3.org/2000/svg" xmlns:xlink="http://www.w3.org/1999/xlink" x="0px" y="0px"
	 width="153.5px" height="112.6px" viewBox="0 0 153.5 112.6" enable-background="new 0 0 153.5 112.6" xml:space="preserve">
<g opacity="0.75">
	<polygon fill="#E3E3E3" points="153.5,54.8 143.2,20.6 105.1,0 51.2,16.1 80,112.6 102.1,112.6 153.5,97.2"/>
	<rect x="79.2" y="55" transform="matrix(0.958 -0.2868 0.2868 0.958 -12.1977 33.4901)" fill="#D0D0D0" width="58.1" height="6.7"/>
	<rect x="75" y="43" transform="matrix(0.958 -0.2868 0.2868 0.958 -9.4321 28.2173)" fill="#D0D0D0" width="33.2" height="6.7"/>
	<rect x="83.8" y="70.7" transform="matrix(0.958 -0.2868 0.2868 0.958 -16.4917 35.4929)" fill="#D0D0D0" width="58.1" height="6.7"/>
	<polyline fill="#D0D0D0" points="105.1,0 113.9,29.4 143.2,20.6 	"/>
</g>
<g enable-background="new    ">
	<path fill="#CCCCCB" d="M22.7,97.1l-0.4,5c-2.1,0.5-4.1,0.8-6.1,0.8c-5,0-8.9-1.4-11.5-4.2C2,96,0.7,92.6,0.7,88.6
		c0-4.1,1.4-7.7,4.2-10.7c2.8-3.1,6.6-4.6,11.5-4.6c1.8,0,3.5,0.2,5.1,0.6L20.7,79c-1.7-0.6-3.4-0.8-5-0.8c-3,0-5.2,0.9-6.6,2.8
		c-1.4,1.9-2.2,4.2-2.2,6.9c0,2.8,0.9,5.1,2.6,7.2c1.7,2,4.1,3,7.2,3C18.6,98,20.5,97.7,22.7,97.1z"/>
	<path fill="#CCCCCB" d="M45.7,94.5c0,5.7-4.1,8.6-12.4,8.6c-2.8,0-5.4-0.3-7.8-1l1.1-4.9c2.4,0.8,4.6,1.2,6.7,1.2
		c2.3,0,4-0.2,5.1-0.7s1.5-1.2,1.5-2.3c0-1.1-0.5-2-1.5-2.8C37.7,92,36,91.1,33.5,90c-2.3-1-4-2.1-5.2-3.2c-1.4-1.5-2.1-3.3-2.1-5.5
		c0-2.5,0.9-4.5,2.8-5.9s4.5-2.1,8-2.1c2.9,0,5.3,0.2,7.2,0.7l-0.8,4.9c-2-0.7-4.1-1.1-6.4-1.1c-3.5,0-5.2,0.9-5.2,2.8
		c0,1,0.4,1.8,1.2,2.4c0.7,0.5,2.2,1.3,4.6,2.2c2.5,1,4.4,2.1,5.6,3.3C44.9,90.1,45.7,92.1,45.7,94.5z"/>
	<path fill="#CCCCCB" d="M88.4,73.7c0,1.4-1.5,6.2-4.4,14.5c-2.9,8.3-4.4,13-4.4,14.1h-5.8c0-1.2-0.9-4.4-2.7-9.8
		c-1.9-5.7-2.9-9.5-3.2-11.4h-0.4c-0.2,1.8-1.2,5.7-2.9,11.4c-1.6,5.4-2.4,8.6-2.4,9.7h-5.9c0-1.4-1.4-6.3-4.3-14.7
		s-4.3-13.1-4.3-13.9h7c0,0.9,0.8,4.6,2.5,11s2.5,10.2,2.5,11.5H60c0-1.2,0.9-5,2.7-11.2s2.7-10,2.7-11.2h6.3
		c0,1.1,0.9,4.9,2.7,11.4s2.7,10.2,2.7,11h0.3c0-1.1,0.8-4.6,2.4-10.7c1.6-6.1,2.4-10,2.4-11.7L88.4,73.7L88.4,73.7z"/>
</g>
</svg>
