<?xml version="1.0" encoding="utf-8"?>
<!DOCTYPE svg PUBLIC "-//W3C//DTD SVG 1.1//EN" "http://www.w3.org/Graphics/SVG/1.1/DTD/svg11.dtd">
<svg version="1.1" id="Calque_1" xmlns="http://www.w3.org/2000/svg" xmlns:xlink="http://www.w3.org/1999/xlink" x="0px" y="0px"
	 width="153.5px" height="76.2px" viewBox="0 0 153.5 76.2" enable-background="new 0 0 153.5 76.2" xml:space="preserve">
<path opacity="0.75" fill="#E3E3E3" enable-background="new" d="M93.9,55.5l7.9,1.2c0.4,2.5,1.1,4.8,2.2,7l-6.1,4.5
	c-1.8,1.3-2.1,3.8-0.8,5.5l1.8,2.5h8.1l4.8-3.5c1.9,1.3,3.9,2.3,6.1,3.1l-0.1,0.4h13.5c1.5-0.4,3-0.9,4.4-1.6l1.2,1.6h14.3
	c-0.1-0.5-0.3-1-0.7-1.4l-5.8-8c1.1-1.6,2-3.3,2.7-5.2l6.1,0.9v-12l-4.8-0.7c-0.3-2-0.8-3.9-1.6-5.7l6.4-4.7v-9l-0.4-0.5
	c-1.3-1.8-3.8-2.1-5.5-0.8l-7.6,5.6c-1.6-1.3-3.5-2.4-5.4-3.2l1.3-8.6c0.3-2.2-1.1-4.2-3.3-4.5l-3.9-0.6c-2.2-0.3-4.2,1.2-4.5,3.3
	l-1.3,8.6c-2.3,0.2-4.6,0.8-6.7,1.7l-4.7-6.4c-1.3-1.7-3.8-2.1-5.5-0.8l-3.2,2.3c-1.8,1.3-2.1,3.8-0.8,5.5l4.8,6.5
	c-1.5,1.9-2.8,4-3.6,6.4l-7.3-1.1c-2.2-0.3-4.2,1.2-4.5,3.3L90.6,51C90.3,53.2,91.8,55.2,93.9,55.5z M115.5,51.8
	c0.8-5.4,5.9-9.1,11.2-8.3c5.4,0.8,9.1,5.8,8.3,11.2c-0.8,5.4-5.9,9.1-11.3,8.3C118.4,62.3,114.7,57.2,115.5,51.8z"/>
<g opacity="0.5">
	<g>
		<path fill="#E3E3E3" d="M100.5,18.2l-6.1-0.1c-0.3-1.2-0.8-2.3-1.5-3.4l4.2-4c1-0.9,1-2.5,0.1-3.5l-1.7-1.8c-0.9-1-2.5-1-3.5-0.1
			l-4.2,4.1c-1.1-0.7-2.3-1.2-3.6-1.5l0.1-5.4c0-1.4-1.1-2.5-2.4-2.5l-2.5,0c-1.4,0-2.5,1.1-2.5,2.4l-0.1,5.4
			c-1.4,0.3-2.8,0.9-4,1.6l-3.4-3.5c-0.9-1-2.5-1-3.5-0.1l-1.8,1.7c-1,0.9-1,2.5,0,3.5l3.5,3.6c-0.8,1.3-1.4,2.7-1.7,4.2l-4.6-0.1
			c-1.4,0-2.5,1.1-2.5,2.4l0,2.5c0,1.4,1.1,2.5,2.4,2.5l4.9,0.1c0.4,1.5,1.1,2.9,1.9,4.1l-3.4,3.3c-1,0.9-1,2.5-0.1,3.5l1.7,1.8
			c0.9,1,2.5,1,3.5,0.1l3.8-3.7c1.2,0.6,2.6,1.1,4,1.4l-0.1,5.1c0,1.4,1.1,2.5,2.4,2.5l2.5,0c1.4,0,2.5-1.1,2.5-2.4l0.1-5.8
			c1.2-0.4,2.4-1,3.5-1.7l3.9,4c0.9,1,2.5,1,3.5,0.1l1.8-1.7c1-0.9,1-2.5,0.1-3.5l-4.3-4.4c0.6-1.1,1-2.2,1.3-3.4l5.8,0.1
			c1.4,0,2.5-1,2.5-2.4l0-2.4C102.9,19.3,101.8,18.2,100.5,18.2z M80,28.2c-3.4-0.1-6.1-2.9-6-6.2c0.1-3.4,2.9-6.1,6.2-6
			c3.4,0.1,6.1,2.9,6,6.2C86.2,25.6,83.4,28.3,80,28.2z"/>
	</g>
</g>
<g enable-background="new">
	<path fill="#CCCCCB" d="M39.9,37.4c0,1.4-1.5,6.2-4.4,14.5c-2.9,8.3-4.4,13-4.4,14.1h-5.8c0-1.2-0.9-4.4-2.7-9.8
		c-1.9-5.7-2.9-9.5-3.2-11.4h-0.4c-0.2,1.8-1.2,5.7-2.9,11.4c-1.6,5.4-2.4,8.6-2.4,9.7H7.8c0-1.4-1.4-6.3-4.3-14.7
		s-4.3-13.1-4.3-13.9h7c0,0.9,0.8,4.6,2.5,11c1.7,6.4,2.5,10.2,2.5,11.5h0.4c0-1.2,0.9-5,2.7-11.2s2.7-10,2.7-11.2h6.3
		c0,1.1,0.9,4.9,2.7,11.4c1.8,6.5,2.7,10.2,2.7,11h0.3c0-1.1,0.8-4.6,2.4-10.7c1.6-6.1,2.4-10,2.4-11.7L39.9,37.4L39.9,37.4z"/>
	<path fill="#CCCCCB" d="M64.2,44.9c0,3.5-1.3,6.1-3.9,7.8s-5.8,2.5-9.6,2.5c-0.7,0-1.2,0-1.5,0c0,2.8,0.1,6.4,0.2,10.9h-6.2
		c0.2-4.2,0.3-9.2,0.3-15c0-5.3-0.1-9.8-0.3-13.7h3.8c0.5,0,1.6,0,3.1-0.1c1.5-0.1,2.9-0.1,4-0.1c2.8,0,5.1,0.6,7,1.9
		C63.2,40.4,64.2,42.3,64.2,44.9z M58.5,46.1c0-3.1-2.1-4.7-6.2-4.7c-1,0-2.1,0.1-3.3,0.3c0.2,2.8,0.2,5.9,0.2,9.4
		c0.4,0,0.8,0,1.3,0C55.8,51.2,58.5,49.5,58.5,46.1z"/>
	<path fill="#CCCCCB" d="M87,58.2c0,5.7-4.1,8.6-12.4,8.6c-2.8,0-5.4-0.3-7.8-1l1.1-4.9c2.4,0.8,4.6,1.2,6.7,1.2c2.3,0,4-0.2,5-0.7
		c1-0.5,1.5-1.2,1.5-2.3c0-1.1-0.5-2-1.5-2.8c-0.8-0.7-2.5-1.5-5.1-2.6c-2.3-1-4-2.1-5.2-3.2c-1.4-1.5-2.1-3.3-2.1-5.5
		c0-2.5,0.9-4.5,2.8-5.9c1.9-1.4,4.5-2.1,8-2.1c2.9,0,5.3,0.2,7.2,0.7l-0.8,4.9c-2-0.7-4.1-1.1-6.4-1.1c-3.5,0-5.2,0.9-5.2,2.8
		c0,1,0.4,1.8,1.2,2.4c0.7,0.5,2.2,1.3,4.6,2.2c2.5,1,4.4,2.1,5.6,3.3C86.2,53.8,87,55.8,87,58.2z"/>
</g>
</svg>
