<?xml version="1.0" encoding="utf-8"?>
<!-- Generator: Adobe Illustrator 15.1.0, SVG Export Plug-In . SVG Version: 6.00 Build 0)  -->
<!DOCTYPE svg PUBLIC "-//W3C//DTD SVG 1.1//EN" "http://www.w3.org/Graphics/SVG/1.1/DTD/svg11.dtd">
<svg version="1.1" id="Calque_1" xmlns="http://www.w3.org/2000/svg" xmlns:xlink="http://www.w3.org/1999/xlink" x="0px" y="0px"
	 width="153.5px" height="76.24px" viewBox="0 0 153.5 76.24" enable-background="new 0 0 153.5 76.24" xml:space="preserve">
<path opacity="0.75" fill="#E3E3E3" d="M93.938,55.535l7.858,1.194c0.351,2.463,1.093,4.807,2.167,6.998l-6.12,4.5
	c-1.764,1.295-2.14,3.777-0.853,5.529l1.826,2.482h8.123l4.758-3.502c1.857,1.301,3.914,2.352,6.146,3.068l-0.065,0.434h13.451
	c1.537-0.393,3.026-0.93,4.437-1.635l1.201,1.635h14.342c-0.123-0.495-0.342-0.975-0.667-1.411l-5.848-7.966
	c1.111-1.577,2.047-3.316,2.74-5.182l6.065,0.922V50.604l-4.769-0.725c-0.291-1.972-0.849-3.861-1.592-5.666l6.359-4.689v-9.021
	l-0.376-0.511c-1.292-1.75-3.771-2.122-5.521-0.839l-7.613,5.603c-1.633-1.299-3.457-2.375-5.432-3.218l1.309-8.595
	c0.326-2.153-1.147-4.176-3.317-4.506l-3.894-0.592c-2.159-0.328-4.174,1.162-4.5,3.318l-1.307,8.594
	c-2.334,0.228-4.576,0.801-6.688,1.672l-4.691-6.368c-1.292-1.741-3.782-2.126-5.53-0.84l-3.189,2.345
	c-1.76,1.279-2.114,3.78-0.825,5.536l4.771,6.483c-1.502,1.896-2.746,4.033-3.618,6.352l-7.356-1.119
	c-2.162-0.328-4.177,1.156-4.505,3.322l-0.596,3.909C90.292,53.194,91.773,55.207,93.938,55.535z M115.497,51.821
	c0.819-5.398,5.862-9.096,11.254-8.274c5.396,0.82,9.106,5.849,8.286,11.247c-0.824,5.411-5.862,9.104-11.256,8.284
	C118.391,62.257,114.673,57.233,115.497,51.821z"/>
<g opacity="0.5">
	<g>
		<path fill="#E3E3E3" d="M100.455,18.183l-6.154-0.11c-0.342-1.189-0.841-2.31-1.447-3.358l4.158-4.016
			c0.979-0.937,1.008-2.493,0.062-3.471l-1.706-1.764c-0.938-0.973-2.496-0.996-3.469-0.062L87.673,9.48
			c-1.112-0.665-2.323-1.178-3.608-1.535l0.097-5.399c0.024-1.354-1.052-2.477-2.413-2.501L79.301,0
			c-1.357-0.024-2.475,1.059-2.498,2.414l-0.097,5.398c-1.418,0.333-2.752,0.87-3.98,1.581l-3.413-3.535
			c-0.939-0.965-2.505-0.997-3.476-0.062l-1.77,1.707c-0.979,0.934-0.991,2.503-0.054,3.478l3.472,3.6
			c-0.769,1.291-1.358,2.71-1.704,4.208l-4.623-0.082c-1.358-0.024-2.477,1.055-2.501,2.416l-0.043,2.456
			c-0.024,1.349,1.053,2.465,2.411,2.488l4.938,0.089c0.418,1.488,1.068,2.87,1.911,4.131l-3.397,3.275
			c-0.979,0.941-1.007,2.502-0.07,3.475l1.701,1.764c0.949,0.972,2.504,1,3.479,0.058l3.793-3.659
			c1.251,0.647,2.603,1.126,4.037,1.384l-0.092,5.131c-0.025,1.357,1.053,2.473,2.407,2.5l2.457,0.045
			c1.35,0.021,2.468-1.057,2.492-2.412l0.104-5.767c1.246-0.414,2.433-0.976,3.507-1.706l3.88,4.028
			c0.943,0.975,2.496,1.003,3.477,0.062l1.767-1.7c0.981-0.942,1.01-2.498,0.056-3.477l-4.257-4.424
			c0.556-1.062,0.987-2.211,1.263-3.416l5.848,0.104c1.367,0.024,2.479-1.049,2.51-2.413l0.043-2.454
			C102.895,19.33,101.822,18.207,100.455,18.183z M80.023,28.254c-3.387-0.061-6.089-2.85-6.027-6.249
			c0.061-3.391,2.86-6.084,6.248-6.022c3.39,0.061,6.089,2.851,6.027,6.243C86.212,25.625,83.413,28.314,80.023,28.254z"/>
	</g>
</g>
<g>
	<text transform="matrix(1 0 0 1 -1.1143 65.9883)" fill="#CCCCCB" font-family="'Candara-Bold'" font-size="45">WPS</text>
</g>
</svg>
