<?xml version="1.0" encoding="utf-8"?>
<!-- Generator: Adobe Illustrator 15.1.0, SVG Export Plug-In . SVG Version: 6.00 Build 0)  -->
<!DOCTYPE svg PUBLIC "-//W3C//DTD SVG 1.1//EN" "http://www.w3.org/Graphics/SVG/1.1/DTD/svg11.dtd">
<svg version="1.1" id="Calque_1" xmlns="http://www.w3.org/2000/svg" xmlns:xlink="http://www.w3.org/1999/xlink" x="0px" y="0px"
	 width="169px" height="97.917px" viewBox="0 0 169 97.917" enable-background="new 0 0 169 97.917" xml:space="preserve">
<g>
	<g>
		<polyline fill="none" stroke="#E3E3E3" stroke-width="4" points="114.713,87.229 127.609,95.746 133.686,95.091 138.794,65.839 
			167.111,76.365 		"/>
		<g>
			<polygon fill="#F1F1F1" points="144.725,68.721 136.77,70.376 132.219,63.087 140.134,61.561 			"/>
			<path fill="#E3E3E3" d="M133.626,63.733l6.138-1.208l3.56,5.561l-6.171,1.273L133.626,63.733 M129.161,61.722l6.748,10.891
				l11.876-2.514l-6.859-10.626L129.161,61.722L129.161,61.722z"/>
		</g>
		<g>
			<polygon fill="#F1F1F1" points="169.051,82.737 169.051,74.184 163.666,75.414 168.641,82.837 			"/>
			<polygon fill="#E3E3E3" points="169.051,84.893 169.051,81.755 168.923,81.787 165.062,76.037 169.051,75.119 169.051,72.15 
				160.621,74.042 168.014,85.151 			"/>
		</g>
		<g>
			<polygon fill="#F1F1F1" points="118.395,87.486 109.348,89.576 104.85,81.388 113.818,79.451 			"/>
			<path fill="#E3E3E3" d="M106.371,82.07l6.965-1.509l3.538,6.241l-7.008,1.605L106.371,82.07 M101.527,79.9l6.685,12.258
				l13.499-3.175l-6.833-11.912L101.527,79.9L101.527,79.9z"/>
		</g>
		<polygon fill="#F1F1F1" points="136.943,97.917 133.62,92.312 124.857,94.464 126.841,97.917 		"/>
		<polygon fill="#E3E3E3" points="127.984,97.917 126.393,95.153 133.191,93.464 135.82,97.917 139.384,97.917 134.54,89.805 
			121.508,92.955 124.331,97.917 		"/>
	</g>
	<g>
		<polygon fill="#F1F1F1" points="149.736,48.497 119.734,53.703 103.997,27.934 133.293,24.25 		"/>
		<polygon fill="none" stroke="#E3E3E3" stroke-width="4" points="149.736,48.497 119.732,53.708 103.997,27.934 133.293,24.25 		
			"/>
		<g>
			<polygon fill="#F1F1F1" points="125.918,56.49 117.775,57.955 113.553,50.921 121.631,49.572 			"/>
			<path fill="#E3E3E3" d="M114.936,51.544l6.28-1.055l3.319,5.367l-6.312,1.127L114.936,51.544 M110.52,49.563l6.279,10.519
				l12.15-2.229l-6.401-10.266L110.52,49.563L110.52,49.563z"/>
		</g>
		<g>
			<polygon fill="#F1F1F1" points="109.967,30.741 102.04,31.779 98.24,25.465 106.113,24.516 			"/>
			<path fill="#E3E3E3" d="M99.561,26.059l6.111-0.747l2.98,4.836l-6.146,0.8L99.561,26.059 M95.367,24.171l5.642,9.457l11.833-1.6
				l-5.764-9.238L95.367,24.171L95.367,24.171z"/>
		</g>
		<g>
			<polygon fill="#F1F1F1" points="138.979,26.91 131.814,27.858 127.825,21.904 134.949,21.036 			"/>
			<path fill="#E3E3E3" d="M129.076,22.459l5.527-0.673l3.127,4.56l-5.553,0.726L129.076,22.459 M125.094,20.673l5.932,8.906
				l10.688-1.437l-6.022-8.721L125.094,20.673L125.094,20.673z"/>
		</g>
		<g>
			<polygon fill="#F1F1F1" points="155.605,51.128 148.289,52.453 143.874,45.857 151.146,44.643 			"/>
			<path fill="#E3E3E3" d="M145.186,46.45l5.651-0.95l3.452,5.039l-5.672,1.012L145.186,46.45 M140.996,44.566l6.564,9.865
				l10.918-2.004l-6.654-9.644L140.996,44.566L140.996,44.566z"/>
		</g>
	</g>
	<g>
		<polygon fill="#F1F1F1" points="73.864,38.074 64.872,39.295 61.341,32.439 70.26,31.33 		"/>
		<path fill="#E3E3E3" d="M62.742,33.067l6.928-0.868l2.795,5.247l-6.972,0.934L62.742,33.067 M58.27,31.06l5.233,10.257
			l13.43-1.859l-5.396-10.011L58.27,31.06L58.27,31.06z"/>
	</g>
	<g>
		<polygon fill="#F1F1F1" points="95.682,50.093 86.939,51.5 83.07,44.417 91.738,43.137 		"/>
		<path fill="#E3E3E3" d="M84.484,45.058l6.735-1.01l3.045,5.403l-6.771,1.083L84.484,45.058 M79.98,43.031l5.739,10.591
			l13.049-2.143l-5.894-10.326L79.98,43.031L79.98,43.031z"/>
	</g>
	<g>
		<polygon fill="#F1F1F1" points="78.294,63.007 68.792,64.681 64.98,57.019 74.396,55.475 		"/>
		<path fill="#E3E3E3" d="M66.475,57.687l7.312-1.206l3.019,5.853l-7.367,1.293L66.475,57.687 M61.721,55.548l5.645,11.484
			l14.189-2.557l-5.832-11.182L61.721,55.548L61.721,55.548z"/>
	</g>
</g>
<g enable-background="new    ">
	<path fill="#CCCCCB" d="M57.36,59.056c0,1.363-1.465,6.197-4.395,14.502c-2.93,8.307-4.395,13.008-4.395,14.107h-5.801
		c0-1.158-0.887-4.416-2.659-9.777c-1.889-5.742-2.951-9.529-3.186-11.361h-0.373c-0.235,1.846-1.216,5.662-2.945,11.449
		c-1.611,5.404-2.417,8.635-2.417,9.689h-5.933c0-1.377-1.443-6.277-4.329-14.699c-2.886-8.424-4.329-13.061-4.329-13.91h6.965
		c0,0.924,0.835,4.6,2.505,11.031c1.67,6.43,2.505,10.246,2.505,11.447h0.352c0-1.201,0.894-4.947,2.681-11.238
		c1.787-6.292,2.681-10.039,2.681-11.24h6.262c0,1.1,0.894,4.912,2.682,11.438c1.786,6.525,2.68,10.207,2.68,11.041h0.352
		c0-1.055,0.81-4.637,2.429-10.744c1.618-6.109,2.428-10.02,2.428-11.734H57.36z"/>
	<path fill="#CCCCCB" d="M78.959,59.056l-0.197,4.812c-4.57-0.234-8.709-0.352-12.415-0.352c0.19,2.505,0.286,5.281,0.286,8.328
		c2.826,0,6.034-0.074,9.623-0.221v4.549c-3.633-0.131-6.841-0.197-9.623-0.197c0,4.145,0.065,8.041,0.197,11.689h-6.064
		c0.19-4.424,0.285-9.412,0.285-14.963c0-5.333-0.095-9.881-0.285-13.646H78.959z"/>
	<path fill="#CCCCCB" d="M101.525,79.865c0,5.729-4.116,8.592-12.349,8.592c-2.798,0-5.398-0.338-7.801-1.012l1.077-4.898
		c2.373,0.82,4.614,1.23,6.724,1.23c2.344,0,4.028-0.229,5.054-0.682c1.025-0.455,1.538-1.217,1.538-2.285
		c0-1.113-0.483-2.051-1.45-2.812c-0.835-0.674-2.526-1.553-5.075-2.637c-2.315-0.996-4.036-2.08-5.164-3.252
		c-1.421-1.48-2.131-3.303-2.131-5.472c0-2.52,0.934-4.489,2.801-5.911c1.868-1.42,4.552-2.131,8.053-2.131
		c2.871,0,5.281,0.242,7.229,0.725l-0.813,4.879c-1.977-0.719-4.116-1.077-6.416-1.077c-3.457,0-5.186,0.923-5.186,2.769
		c0,0.981,0.403,1.779,1.209,2.395c0.703,0.527,2.233,1.268,4.592,2.221c2.506,1.01,4.38,2.123,5.625,3.34
		C100.697,75.47,101.525,77.478,101.525,79.865z"/>
</g>
</svg>
