<?xml version="1.0" encoding="utf-8"?>
<!-- Generator: Adobe Illustrator 15.1.0, SVG Export Plug-In . SVG Version: 6.00 Build 0)  -->
<!DOCTYPE svg PUBLIC "-//W3C//DTD SVG 1.1//EN" "http://www.w3.org/Graphics/SVG/1.1/DTD/svg11.dtd">
<svg version="1.1" id="Calque_1" xmlns="http://www.w3.org/2000/svg" xmlns:xlink="http://www.w3.org/1999/xlink" x="0px" y="0px"
	 width="143.5px" height="103.742px" viewBox="0 0 143.5 103.742" enable-background="new 0 0 143.5 103.742" xml:space="preserve">
<g opacity="0.75">
	<g>
		<path fill="#E3E3E3" d="M123.244,61.814l-1.521-9.449c-20.85,3.355-35.049,22.943-31.744,43.794l9.451-1.522
			C96.968,79.016,107.605,64.332,123.244,61.814z"/>
		<path opacity="0.75" fill="#E3E3E3" enable-background="new    " d="M110.382,35.803l-1.521-9.446
			C77.577,31.392,56.268,60.812,61.253,92.1l9.445-1.523C66.559,64.514,84.309,40.007,110.382,35.803z"/>
		<path opacity="0.5" fill="#E3E3E3" enable-background="new    " d="M97.521,9.85L95.951,0
			c-41.938,6.746-70.469,46.158-63.77,88.091l9.838-1.575C36.204,50.022,61.036,15.715,97.521,9.85z"/>
		<path fill="#E3E3E3" d="M141.02,103.742c1.369,0,2.48-1.111,2.48-2.482V93.6c0-0.037-0.01-0.072-0.012-0.108h0.012V79.925
			c-1.168-1.137-2.507-2.133-4.021-2.932c-8.486-4.438-18.967-1.158-23.4,7.301c-3.43,6.524-2.275,14.22,2.289,19.447h13.188
			L141.02,103.742L141.02,103.742z"/>
	</g>
</g>
<g enable-background="new    ">
	<path fill="#CCCCCB" d="M21.454,85.688c0,5.729-4.116,8.592-12.349,8.592c-2.798,0-5.398-0.337-7.8-1.011l1.077-4.899
		c2.373,0.82,4.614,1.23,6.724,1.23c2.344,0,4.028-0.228,5.054-0.682s1.538-1.216,1.538-2.285c0-1.113-0.483-2.051-1.45-2.812
		c-0.835-0.674-2.527-1.553-5.076-2.637c-2.314-0.996-4.036-2.08-5.164-3.252c-1.421-1.479-2.131-3.303-2.131-5.472
		c0-2.52,0.934-4.489,2.801-5.91c1.868-1.421,4.552-2.131,8.053-2.131c2.871,0,5.281,0.241,7.229,0.725l-0.813,4.878
		c-1.978-0.718-4.116-1.077-6.416-1.077c-3.457,0-5.186,0.924-5.186,2.77c0,0.98,0.403,1.779,1.208,2.395
		c0.703,0.527,2.234,1.268,4.592,2.22c2.505,1.01,4.38,2.124,5.625,3.34C20.626,81.294,21.454,83.302,21.454,85.688z"/>
	<path fill="#CCCCCB" d="M52.81,78.657c0,4.498-1.377,8.226-4.131,11.185s-6.16,4.438-10.218,4.438
		c-3.867,0-7.104-1.358-9.711-4.076c-2.608-2.717-3.912-6.17-3.912-10.359c0-4.497,1.377-8.226,4.131-11.185
		s6.16-4.438,10.218-4.438c3.867,0,7.104,1.354,9.712,4.065C51.506,70.996,52.81,74.454,52.81,78.657z M46.745,79.295
		c0-3.062-0.784-5.544-2.351-7.449c-1.568-1.904-3.502-2.855-5.801-2.855c-2.14,0-3.955,0.959-5.449,2.878s-2.242,4.344-2.242,7.273
		c0,3.047,0.788,5.525,2.362,7.438c1.575,1.911,3.505,2.867,5.79,2.867c2.139,0,3.955-0.963,5.449-2.89
		C45.998,84.631,46.745,82.21,46.745,79.295z"/>
	<path fill="#CCCCCB" d="M76.342,85.688c0,5.729-4.116,8.592-12.349,8.592c-2.798,0-5.398-0.337-7.801-1.011l1.077-4.899
		c2.373,0.82,4.614,1.23,6.724,1.23c2.344,0,4.028-0.228,5.054-0.682s1.538-1.216,1.538-2.285c0-1.113-0.483-2.051-1.45-2.812
		c-0.835-0.674-2.526-1.553-5.075-2.637c-2.315-0.996-4.036-2.08-5.164-3.252c-1.421-1.479-2.131-3.303-2.131-5.472
		c0-2.52,0.934-4.489,2.801-5.91c1.868-1.421,4.552-2.131,8.053-2.131c2.871,0,5.281,0.241,7.229,0.725l-0.813,4.878
		c-1.977-0.718-4.116-1.077-6.416-1.077c-3.457,0-5.186,0.924-5.186,2.77c0,0.98,0.403,1.779,1.209,2.395
		c0.703,0.527,2.233,1.268,4.592,2.22c2.506,1.01,4.38,2.124,5.625,3.34C75.514,81.294,76.342,83.302,76.342,85.688z"/>
</g>
</svg>
