<?xml version="1.0" encoding="utf-8"?>
<!-- Generator: Adobe Illustrator 15.1.0, SVG Export Plug-In . SVG Version: 6.00 Build 0)  -->
<!DOCTYPE svg PUBLIC "-//W3C//DTD SVG 1.1//EN" "http://www.w3.org/Graphics/SVG/1.1/DTD/svg11.dtd">
<svg version="1.1" id="Calque_1" xmlns="http://www.w3.org/2000/svg" xmlns:xlink="http://www.w3.org/1999/xlink" x="0px" y="0px"
	 width="153.5px" height="112.566px" viewBox="0 0 153.5 112.566" enable-background="new 0 0 153.5 112.566" xml:space="preserve">
<g opacity="0.75">
	<polygon fill="#E3E3E3" points="153.5,54.84 143.244,20.581 105.068,0 51.174,16.135 80.043,112.566 102.107,112.566 153.5,97.18 	
		"/>
	
		<rect x="79.166" y="55.045" transform="matrix(0.958 -0.2868 0.2868 0.958 -12.1993 33.4908)" fill="#D0D0D0" width="58.114" height="6.686"/>
	
		<rect x="75.001" y="42.969" transform="matrix(0.958 -0.2868 0.2868 0.958 -9.433 28.2162)" fill="#D0D0D0" width="33.211" height="6.681"/>
	
		<rect x="83.85" y="70.699" transform="matrix(0.958 -0.2868 0.2868 0.958 -16.4922 35.4909)" fill="#D0D0D0" width="58.116" height="6.691"/>
	<polyline fill="#D0D0D0" points="105.068,0 113.855,29.346 143.244,20.581 	"/>
</g>
<g enable-background="new    ">
	<path fill="#CCCCCB" d="M22.682,97.107l-0.373,5.053c-2.081,0.498-4.131,0.748-6.153,0.748c-5.024,0-8.852-1.389-11.481-4.164
		c-2.629-2.776-3.944-6.148-3.944-10.119c0-4.115,1.395-7.697,4.186-10.744c2.79-3.047,6.617-4.57,11.48-4.57
		c1.787,0,3.479,0.205,5.075,0.615l-0.769,5.076c-1.729-0.557-3.384-0.836-4.966-0.836c-2.974,0-5.186,0.941-6.636,2.824
		c-1.45,1.882-2.175,4.171-2.175,6.866c0,2.754,0.86,5.142,2.582,7.163s4.135,3.032,7.24,3.032
		C18.565,98.052,20.543,97.737,22.682,97.107z"/>
	<path fill="#CCCCCB" d="M45.731,94.513c0,5.729-4.116,8.592-12.349,8.592c-2.798,0-5.398-0.337-7.801-1.011l1.077-4.899
		c2.373,0.82,4.614,1.23,6.724,1.23c2.344,0,4.028-0.228,5.054-0.682s1.538-1.216,1.538-2.285c0-1.113-0.483-2.051-1.45-2.812
		c-0.835-0.674-2.526-1.553-5.075-2.637c-2.315-0.996-4.036-2.08-5.164-3.252c-1.421-1.479-2.131-3.303-2.131-5.471
		c0-2.52,0.934-4.49,2.801-5.911c1.868-1.421,4.552-2.132,8.053-2.132c2.871,0,5.281,0.242,7.229,0.726l-0.813,4.878
		c-1.977-0.718-4.116-1.076-6.416-1.076c-3.457,0-5.186,0.922-5.186,2.768c0,0.982,0.403,1.78,1.209,2.396
		c0.703,0.527,2.233,1.268,4.592,2.22c2.506,1.01,4.38,2.124,5.625,3.34C44.903,90.119,45.731,92.127,45.731,94.513z"/>
	<path fill="#CCCCCB" d="M88.424,73.706c0,1.362-1.465,6.196-4.395,14.502s-4.395,13.008-4.395,14.106h-5.801
		c0-1.157-0.887-4.416-2.659-9.777c-1.889-5.742-2.951-9.529-3.186-11.36h-0.373c-0.235,1.846-1.217,5.662-2.945,11.448
		c-1.611,5.404-2.416,8.635-2.416,9.689h-5.934c0-1.377-1.442-6.276-4.328-14.699c-2.886-8.424-4.328-13.06-4.328-13.909h6.965
		c0,0.923,0.835,4.6,2.505,11.03s2.505,10.247,2.505,11.447h0.352c0-1.2,0.894-4.947,2.681-11.238s2.681-10.038,2.681-11.239h6.262
		c0,1.099,0.894,4.911,2.682,11.437c1.786,6.526,2.68,10.207,2.68,11.041h0.352c0-1.055,0.81-4.636,2.429-10.744
		c1.618-6.108,2.428-10.02,2.428-11.733H88.424z"/>
</g>
</svg>
