<?xml version="1.0" encoding="utf-8"?>
<!-- Generator: Adobe Illustrator 15.1.0, SVG Export Plug-In . SVG Version: 6.00 Build 0)  -->
<!DOCTYPE svg PUBLIC "-//W3C//DTD SVG 1.1//EN" "http://www.w3.org/Graphics/SVG/1.1/DTD/svg11.dtd">
<svg version="1.1" id="Calque_1" xmlns="http://www.w3.org/2000/svg" xmlns:xlink="http://www.w3.org/1999/xlink" x="0px" y="0px"
	 width="169px" height="97.917px" viewBox="0 0 169 97.917" enable-background="new 0 0 169 97.917" xml:space="preserve">
<path opacity="0.75" fill="#E3E3E3" enable-background="new    " d="M84.744,97.917H96.57c0.449-3.574,1.246-7.752,0.547-11.9
	c-0.954-5.701-9.066-8.996-7.629-15.779c0.916-1.117,1.988-2.09,2.541-3.566c-3.703-5.438-10.969-7.336-16.278-11.186
	c0.145-2.855-0.898-4.541-2.548-5.605c0.084,1.453,0.931,2.125,1.025,3.562c-3.59-3.49-4.892-9.006-5.046-14.25
	c3.316-10.393,9.651-19.436,17.981-26.097c0.06,0.038,0.118,0.094,0.18,0.131c-0.12,1.417-1.919,1.168-2.582,2.061
	c3.455,1.018,3.596-3.096,5.666-0.524c0.21-1.231-0.938-1.115-0.516-2.571c0.653-0.02,0.713-0.651,1.544-0.51
	c0.258,2.934,1.916,1.611,2.574,3.605c0.104-0.58,0.576-0.809,1.025-1.029c0.547-1.928-1.929-0.82-1.541-2.576
	c0.072-2.844,4.354-1.486,6.178-2.577c0.015,0.85,1.43,0.299,1.539,1.029c-0.672-0.063-3.723-0.072-2.061,0.52
	c5.255-0.415,5.178,3.495,8.237,6.176c-1.011-0.154-1.025,0.692-1.541,1.026c-0.688,0.075-1.56-2.087-2.062-0.511
	c1.137,0.072,1.113,1.29,1.035,2.57c-2.557-0.84-0.302,0.064-1.562,1.021c-1.907-0.994-3.387-2.431-5.652-3.08
	c1.271-0.45,2.973-0.458,3.1-2.062c0.381-1.58-1.422-0.981-1.031-2.567c-0.754,0-4.213-0.197-2.575,0.514
	c0.423,2.312-1.479,2.301-2.062,3.604c0.756,0.443,1.629,0.768,1.545,2.063c-0.412-0.281-0.832-0.536-1.545-0.519
	c-0.646,0.131-0.524,1.02,0,1.025c-0.093,0.873-2.447-0.243-2.062-1.544c-2.436,0.817-3.626,2.881-5.141,4.635
	c0.438,1.952,2.396,2.399,4.115,3.095c0.41,0.264,0.834,0.536,1.545,0.499c-0.367,1.576,0.532,1.878,0.514,3.089
	c1.75-4.139,3.268-3.061,3.091-9.773c0.432,0.091,0.476-0.208,0.51-0.516c0.515-0.046,1.228,1.363,3.101,1.029
	c1.306,0.411,0.268,3.156,2.056,3.09c1.659,0.638,0.386-1.664,2.058-1.023c1.609,4.797,4.399,7.236,5.139,11.828
	c-1.559,0.37-1.857-0.52-3.076-0.507c-1.811,0.455-0.879-1.685-0.521-2.067c0.745-0.283,1.261-0.799,1.55-1.539
	c-1.938,0.479-3.486,3.188-5.146,1.026c0.42,1.452-0.717,1.327-0.521,2.573c-0.086,0.433,0.196,0.481,0.521,0.514
	c0.396,0.11,1.018,0.012,1.025,0.513c0,0.177,0,0.348,0,0.514c-2.442,1.579-8.826,3.414-9.775,9.269
	c-1.508,0.027-1.913,1.176-2.574,2.062c-1.081,0.447,1.02,3.588-0.523,4.627c-1.229-0.642-1.647-2.117-2.053-3.607
	c-4.681-2.715-13.162,5.867-5.145,7.725c0.171,0,0.334,0,0.516,0c-0.186-1.631,2.825-2.305,3.088-0.516
	c-0.764,0.434-1.104,1.299-1.033,2.567c-0.078,1.123,1.83,0.233,2.574,0.519c-0.137,2.276-1.091,4.252,1.549,4.629
	c0.401,0.113,1.019,0.024,1.027,0.51c2.014-0.203,2.193-2.254,4.116-2.564c1.149,1.076,3.323,1.51,6.688,1.545
	c0.727,3.223,4.629,3.258,6.688,5.146c0,0.865,0,1.711,0,2.574c3.682,0.957,6.395,2.879,9.777,4.119
	c-0.479,4.834-3.668,6.965-3.594,12.354c-1.387,0.672-2.74,1.375-4.123,2.057c-0.478,3.389-2.693,7.473-5.654,6.689
	c-0.209,1.229,0.935,1.107,0.506,2.57c-0.32,0.09-0.616,0.188-0.893,0.293h52.803c4.402-3.824,8.201-8.324,11.229-13.342v-3.992
	c-0.324,0.877-0.929,1.812-0.875,2.641c-0.551,0.943-1.232,1.77-1.513,3.002c-0.019,0.029-0.035,0.062-0.056,0.096
	c-0.553,0.115-0.771,0.559-0.992,1.018c-1.299-3.957,1.558-5.528,3.089-8.754c0.153,0.125,0.262,0.256,0.347,0.396V68.091
	c-1.355,1.742-3.074,3.121-4.463,4.834c0.124,3.908,0.271,4.969,0,8.748c-5.229,3.57-5.57,14.592-13.898,13.381
	c-1.375-3.771-1.43-8.863-3.088-12.354c3.431-4.937-1.395-8.24-1.024-14.408c-0.701-0.853-2.703-0.373-2.575-2.06
	c-3.209,1.113-5.518,0.658-8.75,1.024c-2.322-1.274-3.24-3.95-5.146-5.651c1.731-4.979-1.098-10.271,4.642-12.355
	c-0.281-6.121,9.463-7.085,13.378-5.663c0,0.692,0,1.379,0,2.061c2.02,0.383,2.977,1.832,4.629,2.576
	c-0.087-1.289,0.791-1.613,1.542-2.062c1.58,1,1.187,2.41,3.604,1.547c0.899,0.297,3.021-0.627,3.091,0.516
	c0.76-0.443,0.739-1.658,1.03-2.576c-0.477-1.763-3.178-1.287-4.646-2.061c-0.698-0.658-0.698-2.423,0-3.09
	c-3.269-0.234-0.521,2.484-2.562,3.09c-0.348,0-0.697,0-1.035,0c0.447-1.644-0.812-1.588-1.025-2.571
	c-1.535-0.125-1.956,3.494-3.604,1.545c3.666-0.6-2.066-5.179-2.57-3.089c-0.086-0.763,0.186-1.898-0.506-2.053
	c-1.836,0.563-3.024,1.783-4.646,2.568c0,0.69,0,1.374,0,2.055c-0.447,0.229-0.923,0.455-1.027,1.026c-1.539,0-3.08,0-4.633,0
	c-0.033-0.652-0.646-0.701-0.514-1.54c0.764-1.129-0.062-3.834,1.549-4.109c1.479-0.721,2.615,1.396,3.092,0
	c0.181,0,0.336,0,0.506,0c0.229-1.946-1.012-2.422-1.539-3.604c0.053-0.974,1.705-0.365,1.539-1.552
	c4.396-0.243,4.521-4.744,7.216-6.688c-0.438,0.608-0.677,1.377-0.513,2.573c1.89,0.476,0.933-2.715,0.513-3.08
	c-1.19-0.166-1.978,0.075-2.573,0.507c-0.723-0.648-0.318-2.429-1.027-3.081c3.258-2.93,4.223-8.133,9.778-8.755
	c1.651,0.408,3.144,0.985,4.42,1.759c1.081,0.996,2.12,2.034,3.124,3.104c0.043,0.102,0.127,0.183,0.172,0.287
	c-1.462,0.421-1.34-0.733-2.57-0.519c0.521,0.904,0.891,2.757,2.059,1.544c0.109,0.688,0.711,0.218,1.258-0.295
	c2.6,2.948,4.881,6.182,6.807,9.642V26.98C159.236,10.812,141.506,0,121.248,0c-8.454,0-16.469,1.899-23.656,5.264
	c0.02-0.021,0.025-0.049,0.025-0.081c-0.725,0.339-1.438,0.689-2.149,1.063c0.035,0.018,0.087,0.018,0.122,0.023
	c-0.131,0.061-0.271,0.131-0.402,0.21c-0.017-0.029-0.021-0.035-0.037-0.062c-0.408,0.215-0.823,0.433-1.229,0.661
	c0.034,0.006,0.072,0.018,0.125,0.023c-0.433,0.24-0.869,0.483-1.29,0.736c-0.022-0.009-0.047-0.026-0.062-0.044
	c0.244-0.145,0.479-0.296,0.711-0.426c-0.229,0.145-0.487,0.281-0.725,0.426h0.006c-0.102,0.063-0.209,0.119-0.311,0.18
	C92.438,7.971,92.452,7.997,92.496,8c-0.223,0.119-0.434,0.267-0.65,0.399c0.018-0.043,0.033-0.087,0.036-0.133
	c-0.036,0.022-0.077,0.046-0.108,0.072c0.021-0.015,0.039-0.026,0.064-0.044c-0.081,0.062-0.179,0.122-0.268,0.166
	c0.025-0.015,0.056-0.032,0.08-0.044c-0.094,0.056-0.19,0.122-0.291,0.184c-0.146,0.097-0.287,0.188-0.437,0.289
	c0,0.026,0,0.066,0,0.09c-0.002,0.018-0.026,0.018-0.044,0.035c-0.008-0.023-0.021-0.05-0.037-0.079
	c0.029-0.012,0.055-0.037,0.079-0.046c0,0,0-0.009,0-0.018c-0.024,0.021-0.062,0.038-0.094,0.061c0,0,0,0.003,0,0.015
	c-1.527,0.988-3.013,2.049-4.438,3.191c0.019,0.032,0.034,0.052,0.055,0.093C73.675,22.447,65.496,38.159,65.496,55.776
	C65.496,72.608,72.96,87.688,84.744,97.917z M88.37,53.369c1.388-2.24,4.901,0.896,6.179,2.057
	C91.74,55.485,91.334,53.155,88.37,53.369z M94.549,56.455c0.465-0.896,1.602-1.144,3.078-1.029
	C97.807,57.639,95.758,56.824,94.549,56.455z M138.281,24.541c2.688,0.585,1.941,4.59,4.119,5.668c0,0.346,0,0.685,0,1.026
	c-1.234-0.214-1.119,0.939-2.568,0.52c-0.977-0.114-1.137,0.579-2.062,0.509C139.85,29.525,137.182,27.268,138.281,24.541z
	 M137.258,27.624c0.592,0.617,0.577,1.832,0.512,3.092c-0.854,0-1.713,0-2.568,0C134.992,28.799,135.615,27.703,137.258,27.624z
	 M126.445,23.005c-0.789,2.121-3.291,2.535-5.145,3.594c-0.572-0.091-0.285-0.499,0-0.499c-0.076-0.956-1.734-0.328-2.062-1.043
	C118.725,18.775,127.001,17.312,126.445,23.005z M129.537,19.914c-0.455-1.086-1.562-1.524-1.555-3.086
	c2.068,0.501,3.103,0.501,5.156,0c0.1,0.42,0.514,0.513,0.514,1.026C133.589,19.845,131.648,19.962,129.537,19.914z M107.404,2.925
	c-0.068,0.012-0.127,0.041-0.204,0.041c4.489-1.194,9.182-1.841,14.048-1.841c2.84,0,5.65,0.226,8.385,0.644
	c-0.035,0.049-0.052,0.075-0.093,0.131c0.33,0.058,0.711,0.066,1.112,0.049c0.861,0.156,1.722,0.327,2.568,0.507
	c-0.832,0.383-1.058,1.374-2.133,1.499c-0.371,1.576,0.521,1.878,0.51,3.086c-0.881,0.206-1.315-0.759-1.547,0
	c1.776,2.278-2.521,4.264,0,6.18c-3.742,1.913-9.021,2.295-11.316,5.654c-1.111,1.29-1.629,3.191-3.092,4.131
	c-3.668-1.07-4.383-7.125-3.27-9.452c0.097-0.075,0.165-0.186,0.165-0.327c-0.058,0.099-0.118,0.209-0.165,0.322
	c-0.281,0.191-0.757,0.138-0.846-0.328c2.414-6.837-5.896-4.829-7.202-8.753C105.184,3.789,107.596,4.658,107.404,2.925z
	 M95.574,7.533c1.031,0.342,1.898,0.542,3.078-0.481c-0.67-0.037-1.473,0.05-2.146,0.009c2.434-1.231,4.96-2.292,7.576-3.156
	c-1.994,1.026-3.314,2.736-4.393,4.687c-2.397,0.241-4.275,0.47-5.793-0.11C94.456,8.162,95.004,7.838,95.574,7.533z M91.572,9.904
	c0.501-0.322,1.018-0.655,1.527-0.969c0.121,0.253,0.342,0.395,0.93,0.168c-0.551,1.166-1.562,1.87-3.086,2.059
	C91.334,10.658,91.484,10.258,91.572,9.904z"/>
<g enable-background="new    ">
	<path fill="#CCCCCB" d="M41.522,59.056c0,1.363-1.465,6.197-4.395,14.502c-2.93,8.307-4.395,13.008-4.395,14.107h-5.801
		c0-1.158-0.887-4.416-2.659-9.777c-1.889-5.742-2.951-9.529-3.186-11.361h-0.373c-0.235,1.846-1.216,5.662-2.945,11.449
		c-1.611,5.404-2.417,8.635-2.417,9.689H9.42c0-1.377-1.443-6.277-4.329-14.699c-2.886-8.424-4.329-13.061-4.329-13.91h6.965
		c0,0.924,0.835,4.6,2.505,11.031c1.67,6.43,2.505,10.246,2.505,11.447h0.352c0-1.201,0.894-4.947,2.681-11.238
		c1.787-6.292,2.681-10.039,2.681-11.24h6.262c0,1.1,0.894,4.912,2.682,11.438c1.786,6.525,2.68,10.207,2.68,11.041h0.352
		c0-1.055,0.81-4.637,2.429-10.744c1.618-6.109,2.428-10.02,2.428-11.734H41.522z"/>
	<path fill="#CCCCCB" d="M77.953,87.666h-6.395c0-2.49-0.154-6.691-0.461-12.602c-0.309-5.91-0.47-9.599-0.484-11.063h-0.329
		c-0.146,0.879-0.535,2.505-1.165,4.878s-1.812,5.871-3.548,10.492c-1.736,4.621-2.604,7.387-2.604,8.295h-4.855
		c0-0.938-0.831-3.729-2.494-8.371c-1.662-4.645-2.75-7.896-3.263-9.756c-0.513-1.861-0.923-3.707-1.23-5.538h-0.329
		c-0.016,1.831-0.194,5.757-0.539,11.778c-0.344,6.02-0.516,9.982-0.516,11.887h-5.801c0-0.439,0.53-4.842,1.593-13.205
		c1.062-8.365,1.593-13.5,1.593-15.404h8.504c0,1.641,0.896,5.26,2.691,10.855c1.794,5.596,2.691,9.178,2.691,10.744h0.33
		c0-1.582,1.021-5.17,3.064-10.766c2.044-5.597,3.065-9.207,3.065-10.834h8.438c0,3.033,0.341,8.441,1.021,16.227
		C77.612,83.07,77.953,87.197,77.953,87.666z"/>
	<path fill="#CCCCCB" d="M102.475,79.865c0,5.729-4.116,8.592-12.349,8.592c-2.798,0-5.398-0.338-7.801-1.012l1.077-4.898
		c2.373,0.82,4.614,1.23,6.724,1.23c2.344,0,4.028-0.229,5.054-0.682c1.025-0.455,1.538-1.217,1.538-2.285
		c0-1.113-0.483-2.051-1.45-2.812c-0.835-0.674-2.526-1.553-5.075-2.637c-2.315-0.996-4.036-2.08-5.164-3.252
		c-1.421-1.48-2.131-3.303-2.131-5.472c0-2.52,0.934-4.489,2.801-5.911c1.868-1.42,4.552-2.131,8.053-2.131
		c2.871,0,5.281,0.242,7.229,0.725l-0.813,4.879c-1.977-0.719-4.116-1.077-6.416-1.077c-3.457,0-5.186,0.923-5.186,2.769
		c0,0.981,0.403,1.779,1.209,2.395c0.703,0.527,2.233,1.268,4.592,2.221c2.506,1.01,4.38,2.123,5.625,3.34
		C101.646,75.47,102.475,77.478,102.475,79.865z"/>
</g>
</svg>
