<?xml version="1.0" encoding="utf-8"?>
<!-- Generator: Adobe Illustrator 15.1.0, SVG Export Plug-In . SVG Version: 6.00 Build 0)  -->
<!DOCTYPE svg PUBLIC "-//W3C//DTD SVG 1.1//EN" "http://www.w3.org/Graphics/SVG/1.1/DTD/svg11.dtd">
<svg version="1.1" id="Calque_1" xmlns="http://www.w3.org/2000/svg" xmlns:xlink="http://www.w3.org/1999/xlink" x="0px" y="0px"
	 width="153.5px" height="82.352px" viewBox="0 0 153.5 82.352" enable-background="new 0 0 153.5 82.352" xml:space="preserve">
<g opacity="0.75">
	<polygon fill="#E3E3E3" points="118.193,14.853 111.133,4.381 126.746,0.024 134.198,9.817 	"/>
	<polygon fill="#E3E3E3" points="108.413,33.847 101.104,21.309 118.764,15.698 126.598,27.317 	"/>
	<polygon fill="#E3E3E3" points="94.042,58.123 86.658,42.676 107.137,35.267 115.266,49.416 	"/>
	<polygon fill="#E3E3E3" points="62.117,51.133 56.534,36.049 78.676,28.983 85.203,42.805 	"/>
	<polygon fill="#E3E3E3" points="80.331,26.772 74.457,14.618 93.365,9.341 99.896,20.612 	"/>
	<polygon fill="#E3E3E3" points="90.582,82.328 102.305,76.811 93.939,59.223 69.87,69.164 74.791,82.328 	"/>
	<polygon fill="#E3E3E3" points="126.75,65.303 117.523,49.479 136.305,41.719 146.072,56.205 	"/>
	<polygon fill="#E3E3E3" points="136.786,40.533 128.04,27.657 144.4,21.742 153.531,33.665 	"/>
</g>
<g enable-background="new    ">
	<path fill="#CCCCCB" d="M41.79,43.68c0,1.363-1.465,6.197-4.395,14.502c-2.93,8.307-4.395,13.008-4.395,14.107H27.2
		c0-1.158-0.887-4.416-2.659-9.777c-1.889-5.742-2.951-9.529-3.186-11.361h-0.373c-0.235,1.846-1.216,5.662-2.945,11.449
		c-1.611,5.404-2.417,8.635-2.417,9.689H9.688c0-1.377-1.443-6.277-4.329-14.699C2.474,49.166,1.031,44.53,1.031,43.68h6.965
		c0,0.924,0.835,4.6,2.505,11.031c1.67,6.43,2.505,10.246,2.505,11.447h0.352c0-1.201,0.894-4.947,2.681-11.238
		c1.787-6.293,2.681-10.039,2.681-11.24h6.262c0,1.1,0.894,4.912,2.682,11.438c1.786,6.525,2.68,10.207,2.68,11.041h0.352
		c0-1.055,0.81-4.637,2.429-10.744c1.618-6.109,2.428-10.02,2.428-11.734H41.79z"/>
	<path fill="#CCCCCB" d="M65.674,67.082l-0.373,5.053c-2.081,0.498-4.131,0.748-6.152,0.748c-5.025,0-8.852-1.389-11.481-4.164
		c-2.629-2.777-3.944-6.148-3.944-10.119c0-4.115,1.396-7.697,4.187-10.744c2.79-3.047,6.617-4.57,11.48-4.57
		c1.787,0,3.479,0.205,5.075,0.615l-0.769,5.074c-1.729-0.557-3.384-0.834-4.966-0.834c-2.974,0-5.186,0.941-6.636,2.824
		c-1.45,1.881-2.175,4.17-2.175,6.865c0,2.754,0.86,5.143,2.581,7.164c1.722,2.021,4.135,3.031,7.24,3.031
		C61.558,68.026,63.535,67.711,65.674,67.082z"/>
	<path fill="#CCCCCB" d="M88.724,64.489c0,5.729-4.116,8.592-12.349,8.592c-2.798,0-5.398-0.338-7.801-1.012l1.077-4.898
		c2.373,0.82,4.614,1.23,6.724,1.23c2.344,0,4.028-0.229,5.054-0.682c1.025-0.455,1.538-1.217,1.538-2.285
		c0-1.113-0.483-2.051-1.45-2.812c-0.835-0.674-2.526-1.553-5.075-2.637c-2.315-0.996-4.036-2.08-5.164-3.252
		c-1.421-1.48-2.131-3.303-2.131-5.473c0-2.52,0.934-4.488,2.801-5.91c1.868-1.42,4.552-2.131,8.053-2.131
		c2.871,0,5.281,0.242,7.229,0.725l-0.813,4.879C84.439,48.104,82.3,47.744,80,47.744c-3.457,0-5.186,0.924-5.186,2.77
		c0,0.98,0.403,1.779,1.209,2.395c0.703,0.527,2.233,1.268,4.592,2.221c2.506,1.01,4.38,2.123,5.625,3.34
		C87.896,60.094,88.724,62.102,88.724,64.489z"/>
</g>
</svg>
