<?xml version="1.0" encoding="utf-8"?>
<!DOCTYPE svg PUBLIC "-//W3C//DTD SVG 1.1//EN" "http://www.w3.org/Graphics/SVG/1.1/DTD/svg11.dtd">
<svg version="1.1" id="Calque_1" xmlns="http://www.w3.org/2000/svg" xmlns:xlink="http://www.w3.org/1999/xlink" x="0px" y="0px"
	 width="153.5px" height="112.57px" viewBox="0 0 153.5 112.57" enable-background="new 0 0 153.5 112.57" xml:space="preserve">
<g opacity="0.75">
	<polygon fill="#E3E3E3" points="153.5,54.84 143.24,20.58 105.07,0 51.17,16.13 80.04,112.57 102.11,112.57 153.5,97.18 	"/>
	
		<rect x="79.17" y="55.05" transform="matrix(-0.958 0.2868 -0.2868 -0.958 228.6475 83.2856)" fill="#D0D0D0" width="58.11" height="6.69"/>
	
		<rect x="75" y="42.97" transform="matrix(-0.958 0.2868 -0.2868 -0.958 192.6472 64.3993)" fill="#D0D0D0" width="33.21" height="6.68"/>
	
		<rect x="83.85" y="70.7" transform="matrix(-0.958 0.2868 -0.2868 -0.958 242.3131 112.5931)" fill="#D0D0D0" width="58.12" height="6.69"/>
	<polyline fill="#D0D0D0" points="105.07,0 113.86,29.35 143.24,20.58 	"/>
</g>
<g enable-background="new    ">
	<path fill="#CCCCCB" d="M22.68,97.11l-0.37,5.05c-2.08,0.5-4.13,0.75-6.15,0.75c-5.02,0-8.85-1.39-11.48-4.16
		c-2.63-2.78-3.94-6.15-3.94-10.12c0-4.12,1.4-7.7,4.19-10.74c2.79-3.05,6.62-4.57,11.48-4.57c1.79,0,3.48,0.21,5.08,0.61L20.7,79
		c-1.73-0.56-3.38-0.84-4.97-0.84c-2.97,0-5.19,0.94-6.64,2.82c-1.45,1.88-2.18,4.17-2.18,6.87c0,2.75,0.86,5.14,2.58,7.16
		c1.72,2.02,4.14,3.03,7.24,3.03C18.56,98.05,20.54,97.74,22.68,97.11z"/>
	<path fill="#CCCCCB" d="M45.73,94.51c0,5.73-4.12,8.59-12.35,8.59c-2.8,0-5.4-0.34-7.8-1.01l1.08-4.9
		c2.37,0.82,4.61,1.23,6.72,1.23c2.34,0,4.03-0.23,5.05-0.68s1.54-1.22,1.54-2.29c0-1.11-0.48-2.05-1.45-2.81
		c-0.83-0.67-2.53-1.55-5.07-2.64c-2.32-1-4.04-2.08-5.16-3.25c-1.42-1.48-2.13-3.3-2.13-5.47c0-2.52,0.93-4.49,2.8-5.91
		c1.87-1.42,4.55-2.13,8.05-2.13c2.87,0,5.28,0.24,7.23,0.73l-0.81,4.88c-1.98-0.72-4.12-1.08-6.42-1.08
		c-3.46,0-5.19,0.92-5.19,2.77c0,0.98,0.4,1.78,1.21,2.4c0.7,0.53,2.23,1.27,4.59,2.22c2.51,1.01,4.38,2.12,5.62,3.34
		C44.9,90.12,45.73,92.13,45.73,94.51z"/>
	<path fill="#CCCCCB" d="M88.42,73.71c0,1.36-1.46,6.2-4.39,14.5c-2.93,8.31-4.4,13.01-4.4,14.11h-5.8c0-1.16-0.89-4.42-2.66-9.78
		c-1.89-5.74-2.95-9.53-3.19-11.36h-0.37c-0.24,1.85-1.22,5.66-2.95,11.45c-1.61,5.4-2.42,8.63-2.42,9.69h-5.93
		c0-1.38-1.44-6.28-4.33-14.7c-2.89-8.42-4.33-13.06-4.33-13.91h6.96c0,0.92,0.83,4.6,2.5,11.03c1.67,6.43,2.51,10.25,2.51,11.45
		h0.35c0-1.2,0.89-4.95,2.68-11.24c1.79-6.29,2.68-10.04,2.68-11.24h6.26c0,1.1,0.89,4.91,2.68,11.44
		c1.79,6.53,2.68,10.21,2.68,11.04h0.35c0-1.06,0.81-4.64,2.43-10.74c1.62-6.11,2.43-10.02,2.43-11.73L88.42,73.71L88.42,73.71z"/>
</g>
</svg>
