<svg xmlns="http://www.w3.org/2000/svg" width="872" height="432.3" viewBox="0 0 872 432.3"><style type="text/css"><![CDATA[
	.st0{fill:#A198C0;fill-opacity:0.5;}
	.st1{opacity:3.000000e-02;fill:#3D3D3C;enable-background:new    ;}
	.st2{fill:#7D7D7D;}
	.st3{fill:#7D7D7E;}
	.st4{opacity:0.13;fill:none;stroke:#010202;stroke-width:2;enable-background:new    ;}
	.st5{opacity:0.5;fill:#4D4D4D;enable-background:new    ;}
	.st6{fill:#4D4D4D;}
	.st7{fill:#4E4E4E;}
	.st8{fill:#E9E9F1;}
	.st9{fill:#E9EAF2;}
	.st10{opacity:0.75;}
	.st11{fill:#585858;}
	.st12{opacity:0.13;fill:none;stroke:#010202;stroke-width:0.75;enable-background:new    ;}
	.st13{opacity:0.13;fill:none;stroke:#000000;stroke-width:0.75;enable-background:new    ;}
	.st14{opacity:0.3;fill:#A198C0;enable-background:new    ;}
	.st15{opacity:0.13;fill:#3D3D3C;stroke:#010202;stroke-width:2;enable-background:new    ;}
	.st16{opacity:0.1;fill:#3D3D3C;enable-background:new    ;}
	.st17{opacity:0.5;fill:#4E4E4E;enable-background:new    ;}
	.st18{fill:#A198C1;fill-opacity:0.5;}
	.st19{fill:#D0CCDF;}
	.st20{fill:#3D3D3C;}
	.st21{opacity:0.1;enable-background:new    ;}
	.st22{opacity:3.000000e-02;fill:#585858;enable-background:new    ;}
	.st23{opacity:0.13;fill:#3D3D3C;stroke:#000000;stroke-width:2;enable-background:new    ;}
	.st24{opacity:0.3;fill:#A198C1;enable-background:new    ;}
]]></style><path class="st18" d="M0 .1h872v71.3h-872z"/><path class="st15" d="M312.843 16.018l-2.9-.014.014-3 2.9.014zm-19.921 50.082l-2.9-.012.014-3 2.9.013zm6.738-58.26l-2.9-.012.014-3 2.9.013zm89.767 56.397l-2.9-.014.014-3 2.9.014zm14.023-43.273l-3-.016.015-3 3 .016zm19.458-10.084l-3-.014.016-3 3 .015zm62.545-.16l-3-.016.015-3 3 .015zm22.001 3.88l-3-.016.016-3 3 .016zm27.424 25.615l-3-.016.016-3 3 .015zm-50.846-1.433l-3-.016.016-3 3 .016zm-28.96 25.48l-2.9-.015.016-3 2.9.015zm38.382-3.042l-3-.015.016-3 3 .016zm12.582-5.258l-3-.015.016-3 3 .015zm54.496-5.992l-3-.015.014-3 3 .014zm-344.354-1.623l-3-.013.013-3 3 .013zm60.462-16.727l-2.9-.012.013-3 2.9.013zm-24.697 22.982l-2.9-.013.015-3 2.9.012zm116.443-40.026l-2.9-.01.012-3 2.9.01zm-158.45 18.849l-3-.014.014-3 3 .015zm-106.041 3.028l-3-.014.014-3 3 .013zm-28.219-27.221l-2.9-.013.013-3 2.9.012zm-7.183 53.52l-2.9-.013.013-3 2.9.012zm-52.979-50.106l-3-.013.013-3 3 .013zm19.963 44.22l-2.9-.013.014-3 2.9.013zm18.998-16.62l-2.9-.014.014-3 2.9.014zm22.635 12.83l-3-.013.015-3 3 .013zm285.553-11.46l-2.9-.014.014-3 2.9.014zm-268.745-25.592l-2.9-.014.015-3 2.9.014zm65.115 46.736l-3-.013.014-3 3 .014z"/><path class="st4" d="M.5 39.2l15 15.3 10.5-31.6 41 9.4 34.5-9.4 12-22.8m-46.5 71.3l31.5-6 23.8-18.8-3-25.7 47.2 11.4 10.9 25.2 25.7-54.4"/><path class="st12" d="M228.6 2.2"/><path class="st15" d="M137.96 42.606l-2.9-.014.014-3 2.9.014zm98.52-22.389l-2.9-.012.014-3 2.9.012z"/><path class="st4" d="M225.1.7l61.1 22.9-9.7 33 57.6-34.6 34.2 50m28.7-.5l39-7.9 29.7-38.1 7.8 30.7 31-16.8 34 17.8 20.5-43.6m-185.9-12.5l37.3 53.4 11.2-31.1 26.1-23.3"/><path class="st9" d="M596.5 53.8s-30 2.8-63.2-53.8h338.1v71.3h-303.7s13.1-14.3 28.8-17.5z"/><path class="st24" d="M593.7 53.7c15.4 1.1 18.3-10.5 34.2-27.4 7.8-8.3 19.9-7.5 19.9-7.5l11.4 23.5s-14.5 38-65.5 11.4zm104.9-53.3c-8.2 3.9-15.9 7.6-18.9 9-7.6 3.6-25.8 5.8-25.8 5.8l11.4 23.5s12.5-13.9 20.1-17.5c6.5-3.1 35.3-16.9 43.4-20.8h-30.2z"/><path class="st7" d="M0 217.2h872v71.3h-872z"/><path class="st15" d="M312.845 233.2l-2.9-.015.014-3 2.9.014zm-19.921 50.082l-2.9-.014.014-3 2.9.014zm6.732-58.262l-2.9-.015.014-3 2.9.014zm89.774 56.297l-2.9-.014.013-3 2.9.014zm14.02-43.174l-3-.016.017-3 3 .016zm19.46-10.181l-3-.016.015-3 3 .016zm62.544-.06l-3-.016.016-3 3 .016zm22 3.878l-3-.014.015-3 3 .015zm27.329 25.613l-3-.017.017-3 3 .017zm-50.748-1.533l-3-.015.015-3 3 .015zm-28.965 25.482l-2.9-.015.015-3 2.9.015zm38.384-2.942l-3-.015.016-3 3 .016zm12.583-5.26l-3-.015.016-3 3 .016zm54.493-6.092l-3-.015.015-3 3 .015zm-344.36-1.523l-3-.013.015-3 3 .013zm60.467-16.725l-2.9-.013.013-3 2.9.012zm-24.692 22.982l-2.9-.013.014-3 2.9.012zm116.347-40.025l-2.9-.012.012-3 2.9.012zm-158.362 18.847l-3-.014.014-3 3 .014zm-106.037 2.926l-3-.013.013-3 3 .014zm-28.221-27.12l-2.9-.013.014-3 2.9.014zm-7.182 53.42l-2.9-.012.013-3 2.9.012zm-52.97-50.103l-3-.013.012-3 3 .013zm19.96 44.32l-2.9-.014.013-3 2.9.014zm18.997-16.72l-2.9-.014.014-3 2.9.014zm22.628 12.928l-3-.013.014-3 3 .013zm285.56-11.459l-2.9-.014.015-3 2.9.014zm-268.745-25.592l-2.9-.013.014-3 2.9.014zm65.107 46.636l-3-.014.014-3 3 .014z"/><path class="st4" d="M.5 256.3l15 15.3 10.5-31.6 41 9.4 34.5-9.4 12-22.8m-46.5 71.3l31.5-6 23.8-18.8-3-25.7 47.2 11.4 10.9 25.2 25.7-54.4"/><path class="st12" d="M228.6 218.2"/><path class="st15" d="M137.962 259.786l-2.9-.013.014-3 2.9.013zm98.514-22.388l-2.9-.014.015-3 2.9.014z"/><path class="st4" d="M225.1 217.8l61.1 22.9-9.7 33 57.6-34.6 34.2 50m28.7-.5l39-7.9 29.7-38.1 7.8 30.7 31-16.8 34 17.8 20.5-43.6m-185.9-12.5l37.3 53.4 11.2-31.1 26.1-23.3"/><path class="st3" d="M596.5 270.9s-30 2.8-63.2-53.8h338.1v71.3h-303.7s13.1-14.3 28.8-17.5z"/><path class="st17" d="M593.7 270.8c15.4 1.1 18.3-10.5 34.2-27.4 7.8-8.3 19.9-7.5 19.9-7.5l11.4 23.5s-14.5 38-65.5 11.4zm104.9-53.3c-8.2 3.9-15.9 7.6-18.9 9-7.6 3.6-25.8 5.8-25.8 5.8l11.4 23.5s12.5-13.9 20.1-17.5c6.5-3.1 35.3-16.9 43.4-20.8h-30.2z"/><path class="st18" d="M0 289h872v72h-872z"/><path class="st16" d="M.8 290.3h7.5v7.7h-7.5zm7.5 7.7h7.5v7.7h-7.5zm7.6 7.7h7.5v7.7h-7.5zm-7.6 7.7h7.5v7.7h-7.5zm7.6 7.7h7.5v7.7h-7.5zm-7.6 7.8h7.5v7.7h-7.5zm7.6 7.7h7.5v7.7h-7.5zm-15.1-30.9h7.5v7.7h-7.5zm0 15.4h7.5v7.7h-7.5zm0 15.5h7.5v7.7h-7.5zm21.6-7.7h7.5v7.7h-7.5zm8.5 7.7h7.5v7.7h-7.5zm-7.5-23.2h7.5v7.7h-7.5zm7.5 7.7h7.5v7.7h-7.5zm7.5 7.8h7.5v7.7h-7.5zm-30.1 15.4h7.5v7.7h-7.5zm15.1 0h7.5v7.7h-7.5zm15 0h7.5v7.7h-7.5zm7.5-7.7h7.5v7.7h-7.5zm7.6 7.7h7.5v7.7h-7.5zm0-15.4h7.5v7.7h-7.5zm-7.6-7.8h7.5v7.7h-7.5zm-7.5-7.7h7.5v7.7h-7.5zm-7.5-7.7h7.5v7.7h-7.5zm-7.5-7.7h7.5v7.7h-7.5zm-7.5-7.7h7.5v7.7h-7.5zm15 0h7.5v7.7h-7.5zm7.5 7.7h7.5v7.7h-7.5zm7.5-7.7h7.5v7.7h-7.5zm7.6 7.7h7.5v7.7h-7.5zm-7.6 7.7h7.5v7.7h-7.5zm7.6 7.7h7.5v7.7h-7.5zm7.5-23.1h7.5v7.7h-7.5zm7.5 7.7h7.5v7.7h-7.5zm7.5 7.7h7.5v7.7h-7.5zm-7.5 7.7h7.5v7.7h-7.5zm7.5 7.7h7.5v7.7h-7.5zm-7.5 7.8h7.5v7.7h-7.5zm7.5 7.7h7.5v7.7h-7.5zm-15-30.9h7.5v7.7h-7.5zm0 15.4h7.5v7.7h-7.5zm0 15.5h7.5v7.7h-7.5zm22.6-7.7h7.5v7.7h-7.5zm7.5 7.7h7.5v7.7h-7.5zm-7.5-23.2h7.5v7.7h-7.5zm7.5 7.7h7.5v7.7h-7.5zm7.5 7.8h7.5v7.7h-7.5zm-30.1 15.4h7.5v7.7h-7.5zm-52.6 7.7h7.5v7.7h-7.5zm-15.1 0h7.5v7.7h-7.5zm30.1 0h7.5v7.7h-7.5zm15 0h7.5v7.7h-7.5zm15.1 0h7.5v7.7h-7.5zm22.6-7.7h7.5v7.7h-7.5zm15 0h7.5v7.7h-7.5zm7.5-7.7h7.5v7.7h-7.5zm7.5 7.7h7.5v7.7h-7.5zm0-15.4h7.5v7.7h-7.5zm-7.5-7.8h7.5v7.7h-7.5zm-7.5-7.7h7.5v7.7h-7.5zm-7.5-7.7h7.5v7.7h-7.5zm-7.5-7.7h7.5v7.7h-7.5zm-7.6-7.7h7.5v7.7h-7.5zm15.1 0h7.5v7.7h-7.5zm7.5 7.7h7.5v7.7h-7.5zm7.5-7.7h7.5v7.7h-7.5zm7.5 7.7h7.5v7.7h-7.5zm-7.5 7.7h7.5v7.7h-7.5zm7.5 7.7h7.5v7.7h-7.5zm7.6-23.1h7.5v7.7h-7.5zm7.5 7.7h7.5v7.7h-7.5zm7.5 7.7h7.5v7.7h-7.5zm-7.5 7.7h7.5v7.7h-7.5zm7.5 7.7h7.5v7.7h-7.5zm-7.5 7.8h7.5v7.7h-7.5zm7.5 7.7h7.5v7.7h-7.5zm-15-30.9h7.5v7.7h-7.5zm0 15.4h7.5v7.7h-7.5zm0 15.5h7.5v7.7h-7.5zm22.5-7.7h7.5v7.7h-7.5zm7.5 7.7h7.5v7.7h-7.5zm-7.5-23.2h7.5v7.7h-7.5zm7.5 7.7h7.5v7.7h-7.5zm7.6 7.8h7.5v7.7h-7.5zm-30.1 15.4h7.5v7.7h-7.5zm15 0h7.5v7.7h-7.5zm15.1 0h7.5v7.7h-7.5zm7.5-7.7h7.5v7.7h-7.5zm7.5 7.7h7.5v7.7h-7.5zm0-15.4h7.5v7.7h-7.5zm-7.5-7.8h7.5v7.7h-7.5zm-7.5-7.7h7.5v7.7h-7.5zm-7.6-7.7h7.5v7.7h-7.5zm-7.5-7.7h7.5v7.7h-7.5zm-7.5-7.7h7.5v7.7h-7.5zm15 0h7.5v7.7h-7.5zm7.6 7.7h7.5v7.7h-7.5zm7.5-7.7h7.5v7.7h-7.5zm7.5 7.7h7.5v7.7h-7.5zm-7.5 7.7h7.5v7.7h-7.5zm7.5 7.7h7.5v7.7h-7.5zm7.5-23.1h7.5v7.7h-7.5zm7.5 7.7h7.5v7.7h-7.5zm7.6 7.7h7.5v7.7h-7.5zm-7.6 7.7h7.5v7.7h-7.5zm7.6 7.7h7.5v7.7h-7.5zm-7.6 7.8h7.5v7.7h-7.5zm7.6 7.7h7.5v7.7h-7.5zm-15.1-30.9h7.5v7.7h-7.5zm0 15.4h7.5v7.7h-7.5zm0 15.5h7.5v7.7h-7.5zm22.6-7.7h7.5v7.7h-7.5zm7.5 7.7h7.5v7.7h-7.5zm-7.5-23.2h7.5v7.7h-7.5zm7.5 7.7h7.5v7.7h-7.5zm7.5 7.8h7.5v7.7h-7.5zm-30.1 15.4h7.5v7.7h-7.5zm15.1 0h7.5v7.7h-7.5zm15 0h7.5v7.7h-7.5zm7.5-7.7h7.5v7.7h-7.5zm7.6 7.7h7.5v7.7h-7.5zm0-15.4h7.5v7.7h-7.5zm-7.6-7.8h7.5v7.7h-7.5zm-7.5-7.7h7.5v7.7h-7.5zm-7.5-7.7h7.5v7.7h-7.5zm-7.5-7.7h7.5v7.7h-7.5zm-7.5-7.7h7.5v7.7h-7.5zm15 0h7.5v7.7h-7.5zm7.5 7.7h7.5v7.7h-7.5zm7.5-7.7h7.5v7.7h-7.5zm7.6 7.7h7.5v7.7h-7.5zm-7.6 7.7h7.5v7.7h-7.5zm7.6 7.7h7.5v7.7h-7.5zm7.5-23.1h7.5v7.7h-7.5zm7.5 7.7h7.5v7.7h-7.5zm7.5 7.7h7.5v7.7h-7.5zm-7.5 7.7h7.5v7.7h-7.5zm7.5 7.7h7.5v7.7h-7.5zm-7.5 7.8h7.5v7.7h-7.5zm7.5 7.7h7.5v7.7h-7.5zm-15-30.9h7.5v7.7h-7.5zm0 15.4h7.5v7.7h-7.5zm0 15.5h7.5v7.7h-7.5zm22.5-7.7h7.5v7.7h-7.5zm7.6 7.7h7.5v7.7h-7.5zm-7.6-23.2h7.5v7.7h-7.5zm7.6 7.7h7.5v7.7h-7.5zm7.5 7.8h7.5v7.7h-7.5zm-30.1 15.4h7.5v7.7h-7.5zm15 0h7.5v7.7h-7.5zm15.1 0h7.5v7.7h-7.5zm7.5-7.7h7.5v7.7h-7.5zm7.5 7.7h7.5v7.7h-7.5zm0-15.4h7.5v7.7h-7.5zm-7.5-7.8h7.5v7.7h-7.5zm-7.5-7.7h7.5v7.7h-7.5zm-7.5-7.7h7.5v7.7h-7.5zm-7.6-7.7h7.5v7.7h-7.5zm-7.5-7.7h7.5v7.7h-7.5zm15.1 0h7.5v7.7h-7.5zm7.5 7.7h7.5v7.7h-7.5zm7.5-7.7h7.5v7.7h-7.5zm7.5 7.7h7.5v7.7h-7.5zm-7.5 7.7h7.5v7.7h-7.5zm7.5 7.7h7.5v7.7h-7.5zm7.5-23.1h7.5v7.7h-7.5zm7.6 7.7h7.5v7.7h-7.5zm7.5 7.7h7.5v7.7h-7.5zm-7.5 7.7h7.5v7.7h-7.5zm7.5 7.7h7.5v7.7h-7.5zm-7.5 7.8h7.5v7.7h-7.5zm7.5 7.7h7.5v7.7h-7.5zm-15.1-30.9h7.5v7.7h-7.5zm0 15.4h7.5v7.7h-7.5zm0 15.5h7.5v7.7h-7.5zm22.6-7.7h7.5v7.7h-7.5zm7.5 7.7h7.5v7.7h-7.5zm-7.5-23.2h7.5v7.7h-7.5zm7.5 7.7h7.5v7.7h-7.5zm7.5 7.8h7.5v7.7h-7.5zm-30 15.4h7.5v7.7h-7.5zm15 0h7.5v7.7h-7.5zm15 0h7.5v7.7h-7.5zm7.6-7.7h7.5v7.7h-7.5zm7.5 7.7h7.5v7.7h-7.5zm0-15.4h7.5v7.7h-7.5zm-7.5-7.8h7.5v7.7h-7.5zm-7.6-7.7h7.5v7.7h-7.5zm-7.5-7.7h7.5v7.7h-7.5zm-7.5-7.7h7.5v7.7h-7.5zm-7.5-7.7h7.5v7.7h-7.5zm15 0h7.5v7.7h-7.5zm7.5 7.7h7.5v7.7h-7.5zm7.6-7.7h7.5v7.7h-7.5zm7.5 7.7h7.5v7.7h-7.5zm-7.5 7.7h7.5v7.7h-7.5zm7.5 7.7h7.5v7.7h-7.5zm7.5-7.7h7.5v7.7h-7.5zm0 15.4h7.5v7.7h-7.5zm0 15.5h7.5v7.7h-7.5zm7.5-7.7h7.5v7.7h-7.5zm7.5 7.7h7.5v7.7h-7.5zm-7.5-23.2h7.5v7.7h-7.5zm7.5 7.7h7.5v7.7h-7.5zm7.6 7.8h7.5v7.7h-7.5zm-15.1 15.4h7.5v7.7h-7.5zm15.1 0h7.5v7.7h-7.5zm7.5-7.7h7.5v7.7h-7.5zm0-15.5h7.5v7.7h-7.5zm-7.5-7.7h7.5v7.7h-7.5zm-7.6-7.7h7.5v7.7h-7.5zm-7.5-7.7h7.5v7.7h-7.5zm-7.5-7.7h7.5v7.7h-7.5zm15 0h7.5v7.7h-7.5zm7.6 7.7h7.5v7.7h-7.5zm7.5-7.7h7.5v7.7h-7.5zm0 15.4h7.5v7.7h-7.5zm-315.9 46.3h7.5v7.7h-7.5zm15.1 0h7.5v7.7h-7.5zm15 0h7.5v7.7h-7.5zm30.1 0h7.5v7.7h-7.5zm-15 0h7.5v7.7h-7.5zm30 0h7.5v7.7h-7.5zm15.1 0h7.5v7.7h-7.5zm30.1 0h7.5v7.7h-7.5zm-15.1 0h7.5v7.7h-7.5zm30.1 0h7.5v7.7h-7.5zm15 0h7.5v7.7h-7.5zm30.1 0h7.5v7.7h-7.5zm-15 0h7.5v7.7h-7.5zm30.1 0h7.5v7.7h-7.5zm15 0h7.5v7.7h-7.5zm30.1 0h7.5v7.7h-7.5zm-15.1 0h7.5v7.7h-7.5zm30.1 0h7.5v7.7h-7.5zm15.1 0h7.5v7.7h-7.5zm15 0h7.5v7.7h-7.5zm15 0h7.5v7.7h-7.5zm15.1 0h7.5v7.7h-7.5zm7.5-54h7.5v7.7h-7.5zm7.5 7.7h7.5v7.7h-7.5zm-7.5 7.7h7.5v7.7h-7.5zm7.5 7.7h7.5v7.7h-7.5zm-7.5 7.8h7.5v7.7h-7.5zm7.5 7.7h7.5v7.7h-7.5zm7.6-7.7h7.5v7.7h-7.5zm7.5 7.7h7.5v7.7h-7.5zm-7.5-23.2h7.5v7.7h-7.5zm7.5 7.7h7.5v7.7h-7.5zm7.5 7.8h7.5v7.7h-7.5zm-30.1 15.4h7.5v7.7h-7.5zm15.1 0h7.5v7.7h-7.5zm15 0h7.5v7.7h-7.5zm7.5-7.7h7.5v7.7h-7.5zm7.5 7.7h7.5v7.7h-7.5zm0-15.4h7.5v7.7h-7.5zm-7.5-7.8h7.5v7.7h-7.5zm-7.5-7.7h7.5v7.7h-7.5zm-7.5-7.7h7.5v7.7h-7.5zm-7.5-7.7h7.5v7.7h-7.5zm-7.6-7.7h7.5v7.7h-7.5zm15.1 0h7.5v7.7h-7.5zm7.5 7.7h7.5v7.7h-7.5zm7.5-7.7h7.5v7.7h-7.5zm7.5 7.7h7.5v7.7h-7.5zm-7.5 7.7h7.5v7.7h-7.5zm7.5 7.7h7.5v7.7h-7.5zm7.5-23.1h7.5v7.7h-7.5zm7.6 7.7h7.5v7.7h-7.5zm7.5 7.7h7.5v7.7h-7.5zm-7.5 7.7h7.5v7.7h-7.5zm7.5 7.7h7.5v7.7h-7.5zm-7.5 7.8h7.5v7.7h-7.5zm7.5 7.7h7.5v7.7h-7.5zm-15.1-30.9h7.5v7.7h-7.5zm0 15.4h7.5v7.7h-7.5zm0 15.5h7.5v7.7h-7.5zm22.6-7.7h7.5v7.7h-7.5zm7.5 7.7h7.5v7.7h-7.5zm-7.5-23.2h7.5v7.7h-7.5zm7.5 7.7h7.5v7.7h-7.5zm7.5 7.8h7.5v7.7h-7.5zm-30 15.4h7.5v7.7h-7.5zm15 0h7.5v7.7h-7.5zm15 0h7.5v7.7h-7.5zm7.6-7.7h7.5v7.7h-7.5zm7.5 7.7h7.5v7.7h-7.5zm0-15.4h7.5v7.7h-7.5zm-7.5-7.8h7.5v7.7h-7.5zm-7.6-7.7h7.5v7.7h-7.5zm-7.5-7.7h7.5v7.7h-7.5zm-7.5-7.7h7.5v7.7h-7.5zm-7.5-7.7h7.5v7.7h-7.5zm15 0h7.5v7.7h-7.5zm7.5 7.7h7.5v7.7h-7.5zm7.6-7.7h7.5v7.7h-7.5zm7.5 7.7h7.5v7.7h-7.5zm-7.5 7.7h7.5v7.7h-7.5zm7.5 7.7h7.5v7.7h-7.5zm7.5-7.7h7.5v7.7h-7.5zm0 15.4h7.5v7.7h-7.5zm0 15.5h7.5v7.7h-7.5zm7.5-7.7h7.5v7.7h-7.5zm7.6 7.7h7.5v7.7h-7.5zm-7.6-23.2h7.5v7.7h-7.5zm7.6 7.7h7.5v7.7h-7.5zm7.5 7.8h7.5v7.7h-7.5zm-15.1 15.4h7.5v7.7h-7.5zm15.1 0h7.5v7.7h-7.5zm7.5-7.7h7.5v7.7h-7.5zm0-15.5h7.5v7.7h-7.5zm-7.5-7.7h7.5v7.7h-7.5zm-7.5-7.7h7.5v7.7h-7.5zm-7.6-7.7h7.5v7.7h-7.5zm-7.5-7.7h7.5v7.7h-7.5zm15.1 0h7.5v7.7h-7.5zm7.5 7.7h7.5v7.7h-7.5zm7.5 7.7h7.5v7.7h-7.5zm-135.4 46.3h7.5v7.7h-7.5zm15.1 0h7.5v7.7h-7.5zm15 0h7.5v7.7h-7.5zm30.1 0h7.5v7.7h-7.5zm-15.1 0h7.5v7.7h-7.5zm30.1 0h7.5v7.7h-7.5zm15.1 0h7.5v7.7h-7.5zm15 0h7.5v7.7h-7.5zm15.1 0h7.5v7.7h-7.5zm15 0h7.5v7.7h-7.5zm7.5-38.6h7.5v7.7h-7.5zm7.5 7.7h7.5v7.7h-7.5zm-7.5 7.8h7.5v7.7h-7.5zm7.5 7.7h7.5v7.7h-7.5zm7.5-7.7h7.5v7.7h-7.5zm7.6 7.7h7.5v7.7h-7.5zm-22.6 7.7h7.5v7.7h-7.5zm15 0h7.5v7.7h-7.5zm15.1 0h7.5v7.7h-7.5zm7.5-7.7h7.5v7.7h-7.5zm-30.1 15.4h7.5v7.7h-7.5zm15.1 0h7.5v7.7h-7.5z"/><path class="st9" d="M597 343.3s-30 2.9-63.2-54.3h338.1v72h-303.6s13.1-14.5 28.7-17.7z"/><path class="st24" d="M594.3 343.3c15.4 1.1 18.3-10.6 34.2-27.7 7.8-8.4 19.9-7.6 19.9-7.6l11.4 23.7s-14.6 38.4-65.5 11.6zm104.8-53.9c-8.2 4-15.9 7.7-18.9 9.1-7.6 3.7-25.8 5.9-25.8 5.9l11.4 23.7s12.5-14 20.1-17.7c6.5-3.1 35.3-17.1 43.4-21h-30.2z"/><path class="st7" d="M1 361h872v72h-872z"/><path class="st11" d="M1.9 362.9h7.5v7.7h-7.5zm7.5 7.7h7.5v7.7h-7.5zm7.5 7.7h7.5v7.7h-7.5zm-7.5 7.7h7.5v7.7h-7.5zm7.5 7.7h7.5v7.7h-7.5zm-7.5 7.7h7.5v7.7h-7.5zm7.5 7.7h7.5v7.7h-7.5zm-15-30.8h7.5v7.7h-7.5zm0 15.4h7.5v7.7h-7.5zm0 15.4h7.5v7.7h-7.5zm21.5-7.7h7.5v7.7h-7.5zm8.5 7.7h7.5v7.7h-7.5zm-7.5-23.1h7.5v7.7h-7.5zm7.5 7.7h7.5v7.7h-7.5zm7.6 7.7h7.5v7.7h-7.5zm-30.1 15.4h7.5v7.7h-7.5zm15 0h7.5v7.7h-7.5zm15.1 0h7.5v7.7h-7.5zm7.5-7.7h7.5v7.7h-7.5zm7.5 7.7h7.5v7.7h-7.5zm0-15.4h7.5v7.7h-7.5zm-7.5-7.7h7.5v7.7h-7.5zm-7.5-7.7h7.5v7.7h-7.5zm-7.6-7.7h7.5v7.7h-7.5zm-7.5-7.7h7.5v7.7h-7.5zm-7.5-7.7h7.5v7.7h-7.5zm15 0h7.5v7.7h-7.5zm7.6 7.7h7.5v7.7h-7.5zm7.5-7.7h7.5v7.7h-7.5zm7.5 7.7h7.5v7.7h-7.5zm-7.5 7.7h7.5v7.7h-7.5zm7.5 7.7h7.5v7.7h-7.5zm7.5-23.1h7.5v7.7h-7.5zm7.5 7.7h7.5v7.7h-7.5zm7.6 7.7h7.5v7.7h-7.5zm-7.6 7.7h7.5v7.7h-7.5zm7.6 7.7h7.5v7.7h-7.5zm-7.6 7.7h7.5v7.7h-7.5zm7.6 7.7h7.5v7.7h-7.5zm-15.1-30.8h7.5v7.7h-7.5zm0 15.4h7.5v7.7h-7.5zm0 15.4h7.5v7.7h-7.5zm22.6-7.7h7.5v7.7h-7.5zm7.5 7.7h7.5v7.7h-7.5zm-7.5-23.1h7.5v7.7h-7.5zm7.5 7.7h7.5v7.7h-7.5zm7.5 7.7h7.5v7.7h-7.5zm-30.1 15.4h7.5v7.7h-7.5zm-52.6 7.8h7.5v7.7h-7.5zm-15 0h7.5v7.7h-7.5zm30 0h7.5v7.7h-7.5zm15.1 0h7.5v7.7h-7.5zm15 0h7.5v7.7h-7.5zm22.6-7.8h7.5v7.7h-7.5zm15 0h7.5v7.7h-7.5zm7.5-7.7h7.5v7.7h-7.5zm7.6 7.7h7.5v7.7h-7.5zm0-15.4h7.5v7.7h-7.5zm-7.6-7.7h7.5v7.7h-7.5zm-7.5-7.7h7.5v7.7h-7.5zm-7.5-7.7h7.5v7.7h-7.5zm-7.5-7.7h7.5v7.7h-7.5zm-7.5-7.7h7.5v7.7h-7.5zm15 0h7.5v7.7h-7.5zm7.5 7.7h7.5v7.7h-7.5zm7.5-7.7h7.5v7.7h-7.5zm7.6 7.7h7.5v7.7h-7.5zm-7.6 7.7h7.5v7.7h-7.5zm7.6 7.7h7.5v7.7h-7.5zm7.5-23.1h7.5v7.7h-7.5zm7.5 7.7h7.5v7.7h-7.5zm7.5 7.7h7.5v7.7h-7.5zm-7.5 7.7h7.5v7.7h-7.5zm7.5 7.7h7.5v7.7h-7.5zm-7.5 7.7h7.5v7.7h-7.5zm7.5 7.7h7.5v7.7h-7.5zm-15-30.8h7.5v7.7h-7.5zm0 15.4h7.5v7.7h-7.5zm0 15.4h7.5v7.7h-7.5zm22.5-7.7h7.5v7.7h-7.5zm7.6 7.7h7.5v7.7h-7.5zm-7.6-23.1h7.5v7.7h-7.5zm7.6 7.7h7.5v7.7h-7.5zm7.5 7.7h7.5v7.7h-7.5zm-30.1 15.4h7.5v7.7h-7.5zm15 0h7.5v7.7h-7.5zm15.1 0h7.5v7.7h-7.5zm7.5-7.7h7.5v7.7h-7.5zm7.5 7.7h7.5v7.7h-7.5zm0-15.4h7.5v7.7h-7.5zm-7.5-7.7h7.5v7.7h-7.5zm-7.5-7.7h7.5v7.7h-7.5zm-7.5-7.7h7.5v7.7h-7.5zm-7.6-7.7h7.5v7.7h-7.5zm-7.5-7.7h7.5v7.7h-7.5zm15.1 0h7.5v7.7h-7.5zm7.5 7.7h7.5v7.7h-7.5zm7.5-7.7h7.5v7.7h-7.5zm7.5 7.7h7.5v7.7h-7.5zm-7.5 7.7h7.5v7.7h-7.5zm7.5 7.7h7.5v7.7h-7.5zm7.5-23.1h7.5v7.7h-7.5zm7.6 7.7h7.5v7.7h-7.5zm7.5 7.7h7.5v7.7h-7.5zm-7.5 7.7h7.5v7.7h-7.5zm7.5 7.7h7.5v7.7h-7.5zm-7.5 7.7h7.5v7.7h-7.5zm7.5 7.7h7.5v7.7h-7.5zm-15.1-30.8h7.5v7.7h-7.5zm0 15.4h7.5v7.7h-7.5zm0 15.4h7.5v7.7h-7.5zm22.6-7.7h7.5v7.7h-7.5zm7.5 7.7h7.5v7.7h-7.5zm-7.5-23.1h7.5v7.7h-7.5zm7.5 7.7h7.5v7.7h-7.5zm7.5 7.7h7.5v7.7h-7.5zm-30 15.4h7.5v7.7h-7.5zm15 0h7.5v7.7h-7.5zm15 0h7.5v7.7h-7.5zm7.6-7.7h7.5v7.7h-7.5zm7.5 7.7h7.5v7.7h-7.5zm0-15.4h7.5v7.7h-7.5zm-7.5-7.7h7.5v7.7h-7.5zm-7.6-7.7h7.5v7.7h-7.5zm-7.5-7.7h7.5v7.7h-7.5zm-7.5-7.7h7.5v7.7h-7.5zm-7.5-7.7h7.5v7.7h-7.5zm15 0h7.5v7.7h-7.5zm7.5 7.7h7.5v7.7h-7.5zm7.6-7.7h7.5v7.7h-7.5zm7.5 7.7h7.5v7.7h-7.5zm-7.5 7.7h7.5v7.7h-7.5zm7.5 7.7h7.5v7.7h-7.5zm7.5-23.1h7.5v7.7h-7.5zm7.5 7.7h7.5v7.7h-7.5zm7.5 7.7h7.5v7.7h-7.5zm-7.5 7.7h7.5v7.7h-7.5zm7.5 7.7h7.5v7.7h-7.5zm-7.5 7.7h7.5v7.7h-7.5zm7.5 7.7h7.5v7.7h-7.5zm-15-30.8h7.5v7.7h-7.5zm0 15.4h7.5v7.7h-7.5zm0 15.4h7.5v7.7h-7.5zm22.6-7.7h7.5v7.7h-7.5zm7.5 7.7h7.5v7.7h-7.5zm-7.5-23.1h7.5v7.7h-7.5zm7.5 7.7h7.5v7.7h-7.5zm7.5 7.7h7.5v7.7h-7.5zm-30.1 15.4h7.5v7.7h-7.5zm15.1 0h7.5v7.7h-7.5zm15 0h7.5v7.7h-7.5zm7.5-7.7h7.5v7.7h-7.5zm7.5 7.7h7.5v7.7h-7.5zm0-15.4h7.5v7.7h-7.5zm-7.5-7.7h7.5v7.7h-7.5zm-7.5-7.7h7.5v7.7h-7.5zm-7.5-7.7h7.5v7.7h-7.5zm-7.5-7.7h7.5v7.7h-7.5zm-7.6-7.7h7.5v7.7h-7.5zm15.1 0h7.5v7.7h-7.5zm7.5 7.7h7.5v7.7h-7.5zm7.5-7.7h7.5v7.7h-7.5zm7.5 7.7h7.5v7.7h-7.5zm-7.5 7.7h7.5v7.7h-7.5zm7.5 7.7h7.5v7.7h-7.5zm7.6-23.1h7.5v7.7h-7.5zm7.5 7.7h7.5v7.7h-7.5zm7.5 7.7h7.5v7.7h-7.5zm-7.5 7.7h7.5v7.7h-7.5zm7.5 7.7h7.5v7.7h-7.5zm-7.5 7.7h7.5v7.7h-7.5zm7.5 7.7h7.5v7.7h-7.5zm-15-30.8h7.5v7.7h-7.5zm0 15.4h7.5v7.7h-7.5zm0 15.4h7.5v7.7h-7.5zm22.5-7.7h7.5v7.7h-7.5zm7.6 7.7h7.5v7.7h-7.5zm-7.6-23.1h7.5v7.7h-7.5zm7.6 7.7h7.5v7.7h-7.5zm7.5 7.7h7.5v7.7h-7.5zm-30.1 15.4h7.5v7.7h-7.5zm15 0h7.5v7.7h-7.5zm15.1 0h7.5v7.7h-7.5zm7.5-7.7h7.5v7.7h-7.5zm7.5 7.7h7.5v7.7h-7.5zm0-15.4h7.5v7.7h-7.5zm-7.5-7.7h7.5v7.7h-7.5zm-7.5-7.7h7.5v7.7h-7.5zm-7.5-7.7h7.5v7.7h-7.5zm-7.6-7.7h7.5v7.7h-7.5zm-7.5-7.7h7.5v7.7h-7.5zm15.1 0h7.5v7.7h-7.5zm7.5 7.7h7.5v7.7h-7.5zm7.5-7.7h7.5v7.7h-7.5zm7.5 7.7h7.5v7.7h-7.5zm-7.5 7.7h7.5v7.7h-7.5zm7.5 7.7h7.5v7.7h-7.5zm7.5-7.7h7.5v7.7h-7.5zm0 15.4h7.5v7.7h-7.5zm0 15.4h7.5v7.7h-7.5zm7.5-7.7h7.5v7.7h-7.5zm7.6 7.7h7.5v7.7h-7.5zm-7.6-23.1h7.5v7.7h-7.5zm7.6 7.7h7.5v7.7h-7.5zm7.5 7.7h7.5v7.7h-7.5zm-15.1 15.4h7.5v7.7h-7.5zm15.1 0h7.5v7.7h-7.5zm7.5-7.7h7.5v7.7h-7.5zm0-15.4h7.5v7.7h-7.5zm-7.5-7.7h7.5v7.7h-7.5zm-7.5-7.7h7.5v7.7h-7.5zm-7.6-7.7h7.5v7.7h-7.5zm-7.5-7.7h7.5v7.7h-7.5zm15.1 0h7.5v7.7h-7.5zm7.5 7.7h7.5v7.7h-7.5zm7.5-7.7h7.5v7.7h-7.5zm0 15.4h7.5v7.7h-7.5zm-315.8 46.3h7.5v7.7h-7.5zm15 0h7.5v7.7h-7.5zm15 0h7.5v7.7h-7.5zm30.1 0h7.5v7.7h-7.5zm-15 0h7.5v7.7h-7.5zm30.1 0h7.5v7.7h-7.5zm15 0h7.5v7.7h-7.5zm30.1 0h7.5v7.7h-7.5zm-15.1 0h7.5v7.7h-7.5zm30.1 0h7.5v7.7h-7.5zm15.1 0h7.5v7.7h-7.5zm30 0h7.5v7.7h-7.5zm-15 0h7.5v7.7h-7.5zm30.1 0h7.5v7.7h-7.5zm15 0h7.5v7.7h-7.5zm30.1 0h7.5v7.7h-7.5zm-15 0h7.5v7.7h-7.5zm30.1 0h7.5v7.7h-7.5zm15 0h7.5v7.7h-7.5zm15 0h7.5v7.7h-7.5zm15.1 0h7.5v7.7h-7.5zm15 0h7.5v7.7h-7.5zm7.5-54h7.5v7.7h-7.5zm7.6 7.7h7.5v7.7h-7.5zm-7.6 7.7h7.5v7.7h-7.5zm7.6 7.7h7.5v7.7h-7.5zm-7.6 7.7h7.5v7.7h-7.5zm7.6 7.7h7.5v7.7h-7.5zm7.5-7.7h7.5v7.7h-7.5zm7.5 7.7h7.5v7.7h-7.5zm-7.5-23.1h7.5v7.7h-7.5zm7.5 7.7h7.5v7.7h-7.5zm7.5 7.7h7.5v7.7h-7.5zm-30.1 15.4h7.5v7.7h-7.5zm15.1 0h7.5v7.7h-7.5zm15 0h7.5v7.7h-7.5zm7.5-7.7h7.5v7.7h-7.5zm7.5 7.7h7.5v7.7h-7.5zm0-15.4h7.5v7.7h-7.5zm-7.5-7.7h7.5v7.7h-7.5zm-7.5-7.7h7.5v7.7h-7.5zm-7.5-7.7h7.5v7.7h-7.5zm-7.5-7.7h7.5v7.7h-7.5zm-7.5-7.7h7.5v7.7h-7.5zm15 0h7.5v7.7h-7.5zm7.5 7.7h7.5v7.7h-7.5zm7.5-7.7h7.5v7.7h-7.5zm7.5 7.7h7.5v7.7h-7.5zm-7.5 7.7h7.5v7.7h-7.5zm7.5 7.7h7.5v7.7h-7.5zm7.6-23.1h7.5v7.7h-7.5zm7.5 7.7h7.5v7.7h-7.5zm7.5 7.7h7.5v7.7h-7.5zm-7.5 7.7h7.5v7.7h-7.5zm7.5 7.7h7.5v7.7h-7.5zm-7.5 7.7h7.5v7.7h-7.5zm7.5 7.7h7.5v7.7h-7.5zm-15-30.8h7.5v7.7h-7.5zm0 15.4h7.5v7.7h-7.5zm0 15.4h7.5v7.7h-7.5zm22.5-7.7h7.5v7.7h-7.5zm7.6 7.7h7.5v7.7h-7.5zm-7.6-23.1h7.5v7.7h-7.5zm7.6 7.7h7.5v7.7h-7.5zm7.5 7.7h7.5v7.7h-7.5zm-30.1 15.4h7.5v7.7h-7.5zm15 0h7.5v7.7h-7.5zm15.1 0h7.5v7.7h-7.5zm7.5-7.7h7.5v7.7h-7.5zm7.5 7.7h7.5v7.7h-7.5zm0-15.4h7.5v7.7h-7.5zm-7.5-7.7h7.5v7.7h-7.5zm-7.5-7.7h7.5v7.7h-7.5zm-7.5-7.7h7.5v7.7h-7.5zm-7.6-7.7h7.5v7.7h-7.5zm-7.5-7.7h7.5v7.7h-7.5zm15.1 0h7.5v7.7h-7.5zm7.5 7.7h7.5v7.7h-7.5zm7.5-7.7h7.5v7.7h-7.5zm7.5 7.7h7.5v7.7h-7.5zm-7.5 7.7h7.5v7.7h-7.5zm7.5 7.7h7.5v7.7h-7.5zm7.5-7.7h7.5v7.7h-7.5zm0 15.4h7.5v7.7h-7.5zm0 15.4h7.5v7.7h-7.5zm7.6-7.7h7.5v7.7h-7.5zm7.5 7.7h7.5v7.7h-7.5zm-7.5-23.1h7.5v7.7h-7.5zm7.5 7.7h7.5v7.7h-7.5zm7.5 7.7h7.5v7.7h-7.5zm-15 15.4h7.5v7.7h-7.5zm15 0h7.5v7.7h-7.5zm7.5-7.7h7.5v7.7h-7.5zm0-15.4h7.5v7.7h-7.5zm-7.5-7.7h7.5v7.7h-7.5zm-7.5-7.7h7.5v7.7h-7.5zm-7.5-7.7h7.5v7.7h-7.5zm-7.6-7.7h7.5v7.7h-7.5zm15.1 0h7.5v7.7h-7.5zm7.5 7.7h7.5v7.7h-7.5zm7.5 7.7h7.5v7.7h-7.5zm-135.3 46.3h7.5v7.7h-7.5zm15 0h7.5v7.7h-7.5zm15 0h7.5v7.7h-7.5zm30.1 0h7.5v7.7h-7.5zm-15 0h7.5v7.7h-7.5zm30.1 0h7.5v7.7h-7.5zm15 0h7.5v7.7h-7.5zm15 0h7.5v7.7h-7.5zm15.1 0h7.5v7.7h-7.5zm15 0h7.5v7.7h-7.5zm7.5-38.6h7.5v7.7h-7.5zm7.5 7.7h7.5v7.7h-7.5zm-7.5 7.7h7.5v7.7h-7.5zm7.5 7.7h7.5v7.7h-7.5zm7.6-7.7h7.5v7.7h-7.5zm7.5 7.7h7.5v7.7h-7.5zm-22.6 7.7h7.5v7.7h-7.5zm15.1 0h7.5v7.7h-7.5zm15 0h7.5v7.7h-7.5zm7.5-7.7h7.5v7.7h-7.5zm-30.1 15.5h7.5v7.7h-7.5zm15.1 0h7.5v7.7h-7.5z"/><path class="st3" d="M597.9 415.4s-30 2.9-63.2-54.3h338.1v72h-303.7c0-.1 13.1-14.5 28.8-17.7z"/><path class="st17" d="M595.1 415.1c15.4 1.1 18.3-10.5 34.2-27.4 7.8-8.3 19.9-7.5 19.9-7.5l11.4 23.5s-14.5 38-65.5 11.4zm104.9-53.3c-8.2 3.9-15.9 7.6-18.9 9-7.6 3.6-25.8 5.8-25.8 5.8l11.4 23.5s12.5-13.9 20.1-17.5c6.5-3.1 35.3-16.9 43.4-20.8h-30.2z"/><path class="st0" d="M.2 72.7h872v72h-872z"/><g class="st10"><path class="st23" d="M557.198 115.205l-2.9-.01.012-3 2.9.01zm-7.098-15.299l-2.9-.013.013-3 2.9.013zm-75.503 27.601l-3-.015.015-3 3 .015zm37.503-13.799l-2.9-.014.013-3 2.9.014zm-17.7-8.002l-3-.013.012-3 3 .013zm29.698-25.4l-2.9-.013.014-3 2.9.013zm-68.898 56.902l-3-.014.012-3 3 .014z"/><path class="st4" d="M401.9 112.3l88.9 2.9 19.3 13.6 31.4-45.3m31.8 31.7l-6 16-39.1-2.4-11.1 15.4"/><path class="st13" d="M479.2 74.6"/></g><path class="st19" d="M490.6 72.9l-46.2 71.6-444.2-.8v-71.5z"/><path class="st16" d="M316.5 104.5h7.5v7.7h-7.5zm0-15.3h7.5v7.7h-7.5zm0-15.5h7.5v7.7h-7.5zm0 46.2h7.5v7.7h-7.5zm-7.7-7.6h7.5v7.7h-7.5zm0-15.5h7.5v7.7h-7.5zm0-15.4h7.5v7.7h-7.5zm15.2 30.8h7.5v7.7h-7.5zm7.5 7.7h7.5v7.7h-7.5zm-7.5-23.1h7.5v7.7h-7.5zm0-15.4h7.5v7.7h-7.5zm7.5 23.1h7.5v7.7h-7.5zm7.5 7.7h7.5v7.7h-7.5zm-30.1 15.5h7.5v7.7h-7.5zm-7.6-7.7h7.5v7.7h-7.5zm0-15.2h7.5v7.7h-7.5zm0-15.7h7.5v7.7h-7.5zm0-15.4h7.5v7.7h-7.5zm.1 62.3h7.5v7.7h-7.5zm22.6-8.3h7.5v7.7h-7.5zm15 0h7.5v7.7h-7.5zm7.5-7.8h7.5v7.7h-7.5zm7.5 7.8h7.5v7.7h-7.5zm0-15.5h7.5v7.7h-7.5zm-7.5-7.7h7.5v7.7h-7.5zm-7.5-7.7h7.5v7.7h-7.5zm-7.5-7.7h7.5v7.7h-7.5zm7.5-7.7h7.5v7.7h-7.5zm-7.5-7.7h7.5v7.7h-7.5zm15 0h7.5v7.7h-7.5zm7.5 7.7h7.5v7.7h-7.5zm-7.5 7.7h7.5v7.7h-7.5zm7.5 7.7h7.5v7.7h-7.5zm7.6-23.1h7.5v7.7h-7.5zm7.5 7.7h7.5v7.7h-7.5zm7.5 7.7h7.5v7.7h-7.5zm-7.5 7.7h7.5v7.7h-7.5zm7.5 7.7h7.5v7.7h-7.5zm-7.5 7.7h7.5v7.7h-7.5zm7.5 7.7h7.5v7.7h-7.5zm-15-30.8h7.5v7.7h-7.5zm0 15.4h7.5v7.7h-7.5zm0 15.4h7.5v7.7h-7.5zm22.5-7.7h7.5v7.7h-7.5zm7.6 7.7h7.5v7.7h-7.5zm-7.6-23.1h7.5v7.7h-7.5zm7.6 7.7h7.5v7.7h-7.5zm7.5 7.7h7.5v7.7h-7.5zm-30.1 15.5h7.5v7.7h-7.5zm15 0h7.5v7.7h-7.5zm15.1 0h7.5v7.7h-7.5zm7.5-7.8h7.5v7.7h-7.5zm7.5 7.8h7.5v7.7h-7.5zm0-15.5h7.5v7.7h-7.5zm-7.5-7.7h7.5v7.7h-7.5zm-7.5-7.7h7.5v7.7h-7.5zm-7.5-7.7h7.5v7.7h-7.5zm-7.6-7.7h7.5v7.7h-7.5zm-7.5-7.7h7.5v7.7h-7.5zm15.1 0h7.5v7.7h-7.5zm7.5 7.7h7.5v7.7h-7.5zm7.5-7.7h7.5v7.7h-7.5zm7.5 7.7h7.5v7.7h-7.5zm-7.5 7.7h7.5v7.7h-7.5zm7.5 7.7h7.5v7.7h-7.5zm7.5-23.1h7.5v7.7h-7.5zm7.5 7.7h7.5v7.7h-7.5zm7.6 7.7h7.5v7.7h-7.5zm-7.6 7.7h7.5v7.7h-7.5zm7.6 7.7h7.5v7.7h-7.5zm-7.6 7.7h7.5v7.7h-7.5zm7.6 7.7h7.5v7.7h-7.5zm-15.1-30.8h7.5v7.7h-7.5zm0 15.4h7.5v7.7h-7.5zm0 15.4h7.5v7.7h-7.5zm22.6-7.7h7.5v7.7h-7.5zm0-15.4h7.5v7.7h-7.5zm7.5 7.7h7.5v7.7h-7.5zm-22.6 23.2h7.5v7.7h-7.5zm15.1 0h7.5v7.7h-7.5zm15-30.9h7.5v7.7h-7.5zm-7.5-7.7h7.5v7.7h-7.5zm-7.5-7.7h7.5v7.7h-7.5zm-7.5-7.7h7.5v7.7h-7.5zm15 0h7.5v7.7h-7.5zm7.5 7.7h7.5v7.7h-7.5zm7.6-7.7h7.5v7.7h-7.5zm0 15.4h7.5v7.7h-7.5zm-150.4 46.9h7.5v7.7h-7.5zm15 0h7.5v7.7h-7.5zm-60.2-31.5h7.5v7.7h-7.5zm0-15.3h7.5v7.7h-7.5zm0-15.5h7.5v7.7h-7.5zm0 46.2h7.5v7.7h-7.5zm-7.6-7.6h7.5v7.7h-7.5zm0-15.5h7.5v7.7h-7.5zm0-15.4h7.5v7.7h-7.5zm15.1 30.8h7.5v7.7h-7.5zm7.6 7.7h7.5v7.7h-7.5zm-7.5-23.1h7.5v7.7h-7.5zm0-15.4h7.5v7.7h-7.5zm7.5 23.1h7.5v7.7h-7.5zm7.5 7.7h7.5v7.7h-7.5zm-30.1 15.5h7.5v7.7h-7.5zm-7.6-7.7h7.5v7.7h-7.5zm0-15.2h7.5v7.7h-7.5zm0-15.7h7.5v7.7h-7.5zm0-15.4h7.5v7.7h-7.5zm.1 62.3h7.5v7.7h-7.5zm22.6-8.3h7.5v7.7h-7.5zm15 0h7.5v7.7h-7.5zm0-30.9h7.5v7.7h-7.5zm-7.5-7.7h7.5v7.7h-7.5zm7.5-7.7h7.5v7.7h-7.5zm-7.5-7.7h7.5v7.7h-7.5zm-15.1 62.3h7.5v7.7h-7.5zm15.1 0h7.5v7.7h-7.5zm-60.3-31.5h7.5v7.7h-7.5zm0-15.3h7.5v7.7h-7.5zm0-15.5h7.5v7.7h-7.5zm0 46.2h7.5v7.7h-7.5zm-7.6-7.6h7.5v7.7h-7.5zm0-15.5h7.5v7.7h-7.5zm0-15.4h7.5v7.7h-7.5zm15.1 30.8h7.5v7.7h-7.5zm7.5 7.7h7.5v7.7h-7.5zm-7.5-23.1h7.5v7.7h-7.5zm0-15.4h7.5v7.7h-7.5zm7.5 23.1h7.5v7.7h-7.5zm7.6 7.7h7.5v7.7h-7.5zm-30.1 15.5h7.5v7.7h-7.5zm-7.6-7.7h7.5v7.7h-7.5zm0-15.2h7.5v7.7h-7.5zm0-15.7h7.5v7.7h-7.5zm0-15.4h7.5v7.7h-7.5zm.1 62.3h7.5v7.7h-7.5zm22.5-8.3h7.5v7.7h-7.5zm15.1 0h7.5v7.7h-7.5zm0-30.9h7.5v7.7h-7.5zm-7.6-7.7h7.5v7.7h-7.5zm7.6-7.7h7.5v7.7h-7.5zm-7.6-7.7h7.5v7.7h-7.5zm-15 62.3h7.5v7.7h-7.5zm15 0h7.5v7.7h-7.5zm-60.1-31.5h7.5v7.7h-7.5zm0-15.3h7.5v7.7h-7.5zm0-15.5h7.5v7.7h-7.5zm0 46.2h7.5v7.7h-7.5zm-7.6-7.6h7.5v7.7h-7.5zm0-15.5h7.5v7.7h-7.5zm0-15.4h7.5v7.7h-7.5zm15.1 30.8h7.5v7.7h-7.5zm7.5 7.7h7.5v7.7h-7.5zm-7.5-23.1h7.5v7.7h-7.5zm0-15.4h7.5v7.7h-7.5zm7.5 23.1h7.5v7.7h-7.5zm7.5 7.7h7.5v7.7h-7.5zm-30 15.5h7.5v7.7h-7.5zm-7.6-7.7h7.5v7.7h-7.5zm0-15.2h7.5v7.7h-7.5zm0-15.7h7.5v7.7h-7.5zm0-15.4h7.5v7.7h-7.5zm0 62.3h7.5v7.7h-7.5zm22.6-8.3h7.5v7.7h-7.5zm15 0h7.5v7.7h-7.5zm0-30.9h7.5v7.7h-7.5zm-7.5-7.7h7.5v7.7h-7.5zm7.5-7.7h7.5v7.7h-7.5zm-7.5-7.7h7.5v7.7h-7.5zm-15 62.3h7.5v7.7h-7.5zm15 0h7.5v7.7h-7.5zm-60.2-31.5h7.5v7.7h-7.5zm0-15.3h7.5v7.7h-7.5zm0-15.5h7.5v7.7h-7.5zm0 46.2h7.5v7.7h-7.5zm-7.7-7.6h7.5v7.7h-7.5zm0-15.5h7.5v7.7h-7.5zm0-15.4h7.5v7.7h-7.5zm15.2 30.8h7.5v7.7h-7.5zm7.5 7.7h7.5v7.7h-7.5zm-7.5-23.1h7.5v7.7h-7.5zm0-15.4h7.5v7.7h-7.5zm7.5 23.1h7.5v7.7h-7.5zm7.5 7.7h7.5v7.7h-7.5zm-30.1 15.5h7.5v7.7h-7.5zm-7.6-7.7h7.5v7.7h-7.5zm0-15.2h7.5v7.7h-7.5zm0-15.7h7.5v7.7h-7.5zm0-15.4h7.5v7.7h-7.5zm.1 62.3h7.5v7.7h-7.5zm22.6-8.3h7.5v7.7h-7.5zm15 0h7.5v7.7h-7.5zm0-30.9h7.5v7.7h-7.5zm-7.5-7.7h7.5v7.7h-7.5zm7.5-7.7h7.5v7.7h-7.5zm-7.5-7.7h7.5v7.7h-7.5zm-15 62.3h7.5v7.7h-7.5zm15 0h7.5v7.7h-7.5zm-60.2-31.5h7.5v7.7h-7.5zm0-15.3h7.5v7.7h-7.5zm0-15.5h7.5v7.7h-7.5zm0 46.2h7.5v7.7h-7.5zm7.6-7.7h7.5v7.7h-7.5zm7.5 7.7h7.5v7.7h-7.5zm-7.5-23.1h7.5v7.7h-7.5zm0-15.4h7.5v7.7h-7.5zm7.5 23.1h7.5v7.7h-7.5zm7.5 7.7h7.5v7.7h-7.5zm-15 15.5h7.5v7.7h-7.5zm15 0h7.5v7.7h-7.5zm0-30.9h7.5v7.7h-7.5zm-7.5-7.7h7.5v7.7h-7.5zm7.5-7.7h7.5v7.7h-7.5zm-7.5-7.7h7.5v7.7h-7.5zm-15.1 62.3h7.5v7.7h-7.5zm15.1 0h7.5v7.7h-7.5zm-23-23.7h7.5v7.7h-7.5zm0-15.5h7.5v7.7h-7.5zm0-15.4h7.5v7.7h-7.5zm.1 46.3h7.5v7.7h-7.5zm-7.6-7.7h7.5v7.7h-7.5zm0-15.2h7.5v7.7h-7.5zm0-15.7h7.5v7.7h-7.5zm0-15.4h7.5v7.7h-7.5zm.1 62.3h7.5v7.7h-7.5zm-30.2-31.5h7.5v7.7h-7.5zm0-15.3h7.5v7.7h-7.5zm0-15.5h7.5v7.7h-7.5zm0 46.2h7.5v7.7h-7.5zm-7.6-7.6h7.5v7.7h-7.5zm0-15.5h7.5v7.7h-7.5zm0-15.4h7.5v7.7h-7.5zm15.1 30.8h7.5v7.7h-7.5zm7.6 7.7h7.5v7.7h-7.5zm-7.6-23.1h7.5v7.7h-7.5zm0-15.4h7.5v7.7h-7.5zm7.6 23.1h7.5v7.7h-7.5zm7.5 7.7h7.5v7.7h-7.5zm-30.1 15.5h7.5v7.7h-7.5zm-7.6-7.7h7.5v7.7h-7.5zm0-15.2h7.5v7.7h-7.5zm0-15.7h7.5v7.7h-7.5zm0-15.4h7.5v7.7h-7.5zm.1 62.3h7.5v7.7h-7.5zm22.5-8.3h7.5v7.7h-7.5zm15.1 0h7.5v7.7h-7.5zm0-30.9h7.5v7.7h-7.5zm-7.5-7.7h7.5v7.7h-7.5zm7.5-7.7h7.5v7.7h-7.5zm-7.5-7.7h7.5v7.7h-7.5zm-15.1 62.3h7.5v7.7h-7.5zm15.1 0h7.5v7.7h-7.5zm-60.2-31.5h7.5v7.7h-7.5zm0-15.3h7.5v7.7h-7.5zm0-15.5h7.5v7.7h-7.5zm0 46.2h7.5v7.7h-7.5zm7.5-7.7h7.5v7.7h-7.5zm7.5 7.7h7.5v7.7h-7.5zm-7.5-23.1h7.5v7.7h-7.5zm0-15.4h7.5v7.7h-7.5zm7.5 23.1h7.5v7.7h-7.5zm7.6 7.7h7.5v7.7h-7.5zm-15.1 15.5h7.5v7.7h-7.5zm15.1 0h7.5v7.7h-7.5zm0-30.9h7.5v7.7h-7.5zm-7.6-7.7h7.5v7.7h-7.5zm7.6-7.7h7.5v7.7h-7.5zm-7.6-7.7h7.5v7.7h-7.5zm-15 62.3h7.5v7.7h-7.5zm15 0h7.5v7.7h-7.5zm331.5 0h7.5v7.7h-7.5zm30.1 0h7.5v7.7h-7.5zm-15 0h7.5v7.7h-7.5zm30.1 0h7.5v7.7h-7.5zm15 0h7.5v7.7h-7.5zm30.1 0h7.5v7.7h-7.5zm-15.1 0h7.5v7.7h-7.5zm30.1-16.3v7.8h5.8l1.7-3.4v-4.4zm7.5-7.5v7.7h2.2l3.9-7.7zm14.8-30.8v7.7h3.2l4-7.7zm7.2-7.7v6.9l3.5-6.9z"/><g class="st21"><path class="st1" d="M468.6 104.4h-1.7v3.3z"/><path class="st20" d="M466.9 104.5h2l-2 3.3z"/></g><g class="st21"><path class="st1" d="M453.3 135.4h-1.7v3.3z"/><path class="st20" d="M451.6 135.5h2l-2 3.3z"/></g><path class="st8" d="M597.2 127s-30 2.9-63.2-54.3h338.1v72h-303.6s13.1-14.5 28.7-17.7z"/><path class="st14" d="M594.5 127c15.4 1.1 18.3-10.6 34.2-27.7 7.8-8.4 19.9-7.6 19.9-7.6l11.4 23.7s-14.6 38.4-65.5 11.6zm104.8-53.9c-8.2 4-15.9 7.7-18.9 9.1-7.6 3.7-25.8 5.9-25.8 5.9l11.4 23.7s12.5-14 20.1-17.7c6.5-3.1 35.3-17.1 43.4-21h-30.2z"/><path class="st6" d="M.2 145.2h872v72h-872z"/><g class="st10"><path class="st23" d="M557.198 187.707l-2.9-.012.012-3 2.9.012zm-7.1-15.301l-2.9-.014.015-3 2.9.014zm-75.501 27.601l-3-.014.014-3 3 .014zm37.503-13.802l-2.9-.014.013-3 2.9.015zm-17.7-8l-3-.013.012-3 3 .013zm29.7-25.399l-2.9-.013.012-3 2.9.013zm-68.9 56.904l-3-.015.012-3 3 .014z"/><path class="st4" d="M401.9 184.8l88.9 2.9 19.3 13.6 31.4-45.3m31.3 33.2l-5.5 14.5-39.1-2.4-11.1 15.4"/><path class="st13" d="M479.2 147.1"/></g><path class="st6" d="M486.1 145.4l-37.3 71.6-358.1-.8v-71.5z"/><path class="st11" d="M314.9 177h7.5v7.7h-7.5zm0-15.3h7.5v7.7h-7.5zm0-15.6h7.5v7.7h-7.5zm0 46.3h7.5v7.7h-7.5zm-7.6-7.6h7.5v7.7h-7.5zm0-15.5h7.5v7.7h-7.5zm0-15.4h7.5v7.7h-7.5zm15.1 30.8h7.5v7.7h-7.5zm7.5 7.7h7.5v7.7h-7.5zm-7.5-23.1h7.5v7.7h-7.5zm0-15.4h7.5v7.7h-7.5zm7.5 23.1h7.5v7.7h-7.5zm7.6 7.7h7.5v7.7h-7.5zm-30.1 15.4h7.5v7.7h-7.5zm-7.6-7.6h7.5v7.7h-7.5zm0-15.2h7.5v7.7h-7.5zm0-15.7h7.5v7.7h-7.5zm0-15.5h7.5v7.7h-7.5zm0 62.4h7.5v7.7h-7.5zm22.6-8.4h7.5v7.7h-7.5zm15.1 0h7.5v7.7h-7.5zm7.5-7.7h7.5v7.7h-7.5zm7.5 7.7h7.5v7.7h-7.5zm0-15.4h7.5v7.7h-7.5zm-7.5-7.7h7.5v7.7h-7.5zm-7.5-7.7h7.5v7.7h-7.5zm-7.6-7.7h7.5v7.7h-7.5zm7.6-7.7h7.5v7.7h-7.5zm-7.6-7.8h7.5v7.7h-7.5zm15.1 0h7.5v7.7h-7.5zm7.5 7.8h7.5v7.7h-7.5zm-7.5 7.7h7.5v7.7h-7.5zm7.5 7.7h7.5v7.7h-7.5zm7.5-23.2h7.5v7.7h-7.5zm7.5 7.8h7.5v7.7h-7.5zm7.6 7.7h7.5v7.7h-7.5zm-7.6 7.7h7.5v7.7h-7.5zm7.6 7.7h7.5v7.7h-7.5zm-7.6 7.7h7.5v7.7h-7.5zm7.6 7.7h7.5v7.7h-7.5zm-15.1-30.8h7.5v7.7h-7.5zm0 15.4h7.5v7.7h-7.5zm0 15.4h7.5v7.7h-7.5zm22.6-7.7h7.5v7.7h-7.5zm7.5 7.7h7.5v7.7h-7.5zm-7.5-23.1h7.5v7.7h-7.5zm7.5 7.7h7.5v7.7h-7.5zm7.5 7.7h7.5v7.7h-7.5zm-30.1 15.4h7.5v7.7h-7.5zm15.1 0h7.5v7.7h-7.5zm15 0h7.5v7.7h-7.5zm7.5-7.7h7.5v7.7h-7.5zm7.6 7.7h7.5v7.7h-7.5zm0-15.4h7.5v7.7h-7.5zm-7.6-7.7h7.5v7.7h-7.5zm-7.5-7.7h7.5v7.7h-7.5zm-7.5-7.7h7.5v7.7h-7.5zm-7.5-7.7h7.5v7.7h-7.5zm-7.5-7.8h7.5v7.7h-7.5zm15 0h7.5v7.7h-7.5zm7.5 7.8h7.5v7.7h-7.5zm7.5-7.8h7.5v7.7h-7.5zm7.6 7.8h7.5v7.7h-7.5zm-7.6 7.7h7.5v7.7h-7.5zm7.6 7.7h7.5v7.7h-7.5zm7.5-23.2h7.5v7.7h-7.5zm7.5 7.8h7.5v7.7h-7.5zm7.5 7.7h7.5v7.7h-7.5zm-7.5 7.7h7.5v7.7h-7.5zm7.5 7.7h7.5v7.7h-7.5zm-7.5 7.7h7.5v7.7h-7.5zm7.5 7.7h7.5v7.7h-7.5zm-15-30.8h7.5v7.7h-7.5zm0 15.4h7.5v7.7h-7.5zm0 15.4h7.5v7.7h-7.5zm22.5-7.7h7.5v7.7h-7.5zm0-15.4h7.5v7.7h-7.5zm7.6 7.7h7.5v7.7h-7.5zm-22.6 23.1h7.5v7.7h-7.5zm15 0h7.5v7.7h-7.5zm15.1-30.8h7.5v7.7h-7.5zm-7.5-7.7h7.5v7.7h-7.5zm-7.6-7.7h7.5v7.7h-7.5zm-7.5-7.8h7.5v7.7h-7.5zm15.1 0h7.5v7.7h-7.5zm7.5 7.8h7.5v7.7h-7.5zm7.5-7.8h7.5v7.7h-7.5zm0 15.5h7.5v7.7h-7.5zm-150.4 46.9h7.5v7.7h-7.5zm15 0h7.5v7.7h-7.5zm-60.1-31.5h7.5v7.7h-7.5zm0-15.3h7.5v7.7h-7.5zm0-15.6h7.5v7.7h-7.5zm0 46.3h7.5v7.7h-7.5zm-7.7-7.6h7.5v7.7h-7.5zm0-15.5h7.5v7.7h-7.5zm0-15.4h7.5v7.7h-7.5zm15.2 30.8h7.5v7.7h-7.5zm7.5 7.7h7.5v7.7h-7.5zm-7.5-23.1h7.5v7.7h-7.5zm0-15.4h7.5v7.7h-7.5zm7.5 23.1h7.5v7.7h-7.5zm7.5 7.7h7.5v7.7h-7.5zm-30.1 15.4h7.5v7.7h-7.5zm-7.6-7.6h7.5v7.7h-7.5zm0-15.2h7.5v7.7h-7.5zm0-15.7h7.5v7.7h-7.5zm0-15.5h7.5v7.7h-7.5zm.1 62.4h7.5v7.7h-7.5zm22.6-8.4h7.5v7.7h-7.5zm15 0h7.5v7.7h-7.5zm0-30.8h7.5v7.7h-7.5zm-7.5-7.7h7.5v7.7h-7.5zm7.5-7.7h7.5v7.7h-7.5zm-7.5-7.8h7.5v7.7h-7.5zm-15 62.4h7.5v7.7h-7.5zm15 0h7.5v7.7h-7.5zm-60.3-31.5h7.5v7.7h-7.5zm0-15.3h7.5v7.7h-7.5zm0-15.6h7.5v7.7h-7.5zm0 46.3h7.5v7.7h-7.5zm-7.6-7.6h7.5v7.7h-7.5zm0-15.5h7.5v7.7h-7.5zm0-15.4h7.5v7.7h-7.5zm15.2 30.8h7.5v7.7h-7.5zm7.5 7.7h7.5v7.7h-7.5zm-7.5-23.1h7.5v7.7h-7.5zm0-15.4h7.5v7.7h-7.5zm7.5 23.1h7.5v7.7h-7.5zm7.5 7.7h7.5v7.7h-7.5zm-30.1 15.4h7.5v7.7h-7.5zm-7.6-7.6h7.5v7.7h-7.5zm0-15.2h7.5v7.7h-7.5zm0-15.7h7.5v7.7h-7.5zm0-15.5h7.5v7.7h-7.5zm.1 62.4h7.5v7.7h-7.5zm22.6-8.4h7.5v7.7h-7.5zm15 0h7.5v7.7h-7.5zm0-30.8h7.5v7.7h-7.5zm-7.5-7.7h7.5v7.7h-7.5zm7.5-7.7h7.5v7.7h-7.5zm-7.5-7.8h7.5v7.7h-7.5zm-15.1 62.4h7.5v7.7h-7.5zm15.1 0h7.5v7.7h-7.5zm-60.2-31.5h7.5v7.7h-7.5zm0-15.3h7.5v7.7h-7.5zm0-15.6h7.5v7.7h-7.5zm0 46.3h7.5v7.7h-7.5zm-7.6-7.6h7.5v7.7h-7.5zm0-15.5h7.5v7.7h-7.5zm0-15.4h7.5v7.7h-7.5zm15.2 30.8h7.5v7.7h-7.5zm7.5 7.7h7.5v7.7h-7.5zm-7.5-23.1h7.5v7.7h-7.5zm0-15.4h7.5v7.7h-7.5zm7.5 23.1h7.5v7.7h-7.5zm7.5 7.7h7.5v7.7h-7.5zm-30.1 15.4h7.5v7.7h-7.5zm-7.6-7.6h7.5v7.7h-7.5zm0-15.2h7.5v7.7h-7.5zm0-15.7h7.5v7.7h-7.5zm0-15.5h7.5v7.7h-7.5zm.1 62.4h7.5v7.7h-7.5zm22.6-8.4h7.5v7.7h-7.5zm15 0h7.5v7.7h-7.5zm0-30.8h7.5v7.7h-7.5zm-7.5-7.7h7.5v7.7h-7.5zm7.5-7.7h7.5v7.7h-7.5zm-7.5-7.8h7.5v7.7h-7.5zm-15.1 62.4h7.5v7.7h-7.5zm15.1 0h7.5v7.7h-7.5zm-60.3-31.5h7.5v7.7h-7.5zm0-15.3h7.5v7.7h-7.5zm0-15.6h7.5v7.7h-7.5zm0 46.3h7.5v7.7h-7.5zm-7.6-7.6h7.5v7.7h-7.5zm0-15.5h7.5v7.7h-7.5zm0-15.4h7.5v7.7h-7.5zm15.1 30.8h7.5v7.7h-7.5zm7.5 7.7h7.5v7.7h-7.5zm-7.5-23.1h7.5v7.7h-7.5zm0-15.4h7.5v7.7h-7.5zm7.5 23.1h7.5v7.7h-7.5zm7.6 7.7h7.5v7.7h-7.5zm-30.1 15.4h7.5v7.7h-7.5zm-7.6-7.6h7.5v7.7h-7.5zm0-15.2h7.5v7.7h-7.5zm0-15.7h7.5v7.7h-7.5zm0-15.5h7.5v7.7h-7.5zm.1 62.4h7.5v7.7h-7.5zm22.5-8.4h7.5v7.7h-7.5zm15.1 0h7.5v7.7h-7.5zm0-30.8h7.5v7.7h-7.5zm-7.6-7.7h7.5v7.7h-7.5zm7.6-7.7h7.5v7.7h-7.5zm-7.6-7.8h7.5v7.7h-7.5zm-15 62.4h7.5v7.7h-7.5zm15 0h7.5v7.7h-7.5zm-60.1-31.5h7.5v7.7h-7.5zm0-15.3h7.5v7.7h-7.5zm0-15.6h7.5v7.7h-7.5zm0 46.3h7.5v7.7h-7.5zm7.5-7.7h7.5v7.7h-7.5zm7.5 7.7h7.5v7.7h-7.5zm-7.5-23.1h7.5v7.7h-7.5zm0-15.4h7.5v7.7h-7.5zm7.5 23.1h7.5v7.7h-7.5zm7.5 7.7h7.5v7.7h-7.5zm-15 15.4h7.5v7.7h-7.5zm15 0h7.5v7.7h-7.5zm0-30.8h7.5v7.7h-7.5zm-7.5-7.7h7.5v7.7h-7.5zm7.5-7.7h7.5v7.7h-7.5zm-7.5-7.8h7.5v7.7h-7.5zm-15 62.4h7.5v7.7h-7.5zm15 0h7.5v7.7h-7.5zm-45.1-31.5h7.5v7.7h-7.5zm0-15.3h7.5v7.7h-7.5zm0-15.6h7.5v7.7h-7.5zm0 46.3h7.5v7.7h-7.5zm-7.6-7.6h7.5v7.7h-7.5zm0-15.5h7.5v7.7h-7.5zm0-15.4h7.5v7.7h-7.5zm15.1 30.8h7.5v7.7h-7.5zm7.5 7.7h7.5v7.7h-7.5zm-7.5-23.1h7.5v7.7h-7.5zm0-15.4h7.5v7.7h-7.5zm7.5 23.1h7.5v7.7h-7.5zm7.6 7.7h7.5v7.7h-7.5zm-30.1 15.4h7.5v7.7h-7.5zm-7.6-7.6h7.5v7.7h-7.5zm0-15.2h7.5v7.7h-7.5zm0-15.7h7.5v7.7h-7.5zm0-15.5h7.5v7.7h-7.5zm.1 62.4h7.5v7.7h-7.5zm22.5-8.4h7.5v7.7h-7.5zm15.1 0h7.5v7.7h-7.5zm0-30.8h7.5v7.7h-7.5zm-7.6-7.7h7.5v7.7h-7.5zm7.6-7.7h7.5v7.7h-7.5zm-7.6-7.8h7.5v7.7h-7.5zm-15 62.4h7.5v7.7h-7.5zm15 0h7.5v7.7h-7.5zm-60.1-31.5h7.5v7.7h-7.5zm0-15.3h7.5v7.7h-7.5zm0-15.6h7.5v7.7h-7.5zm0 46.3h7.5v7.7h-7.5zm7.5-7.7h7.5v7.7h-7.5zm7.5 7.7h7.5v7.7h-7.5zm-7.5-23.1h7.5v7.7h-7.5zm0-15.4h7.5v7.7h-7.5zm7.5 23.1h7.5v7.7h-7.5zm7.5 7.7h7.5v7.7h-7.5zm-15 15.4h7.5v7.7h-7.5zm15 0h7.5v7.7h-7.5zm0-30.8h7.5v7.7h-7.5zm-7.5-7.7h7.5v7.7h-7.5zm7.5-7.7h7.5v7.7h-7.5zm-7.5-7.8h7.5v7.7h-7.5zm-15 62.4h7.5v7.7h-7.5zm-13.7-31.5h7.5v7.7h-7.5zm0-15.3h7.5v7.7h-7.5zm0-15.6h7.5v7.7h-7.5zm0 46.3h7.5v7.7h-7.5zm7.5-7.7h7.5v7.7h-7.5zm0-15.4h7.5v7.7h-7.5zm0-15.4h7.5v7.7h-7.5zm0 46.2h7.5v7.7h-7.5zm-7.5 8.4h7.5v7.7h-7.5zm28.7 0h7.5v7.7h-7.5zm316.1 0h7.5v7.7h-7.5zm30.1 0h7.5v7.7h-7.5zm-15.1 0h7.5v7.7h-7.5zm30.1 0h7.5v7.7h-7.5zm15 0h7.5v7.7h-7.5zm30.1 0h7.5v7.7h-7.5zm-15 0h7.5v7.7h-7.5zm30.1-16.3v7.8h5.7l1.8-3.5v-4.3zm7.5-7.5v7.7h2.1l4-7.7zm14.8-30.8v7.7h3.1l4-7.7zm7.1-7.7v6.9l3.6-6.9z"/><path class="st22" d="M467.1 176.9h-1.7v3.3z"/><path class="st11" d="M465.3 177h2.1l-2 3.3z"/><path class="st22" d="M451.8 207.9h-1.8v3.3z"/><path class="st11" d="M450 208h2.1l-2.1 3.3z"/><path class="st2" d="M597.2 199.5s-30 2.9-63.2-54.4h338.1v72h-303.6c0 .1 13.1-14.3 28.7-17.6z"/><path class="st5" d="M594.5 199.5c15.4 1.1 18.3-10.6 34.2-27.7 7.8-8.4 19.9-7.6 19.9-7.6l11.4 23.7s-14.6 38.4-65.5 11.6zm104.8-53.9c-8.2 4-15.9 7.7-18.9 9.1-7.6 3.7-25.8 5.9-25.8 5.9l11.5 23.7s12.5-14 20.1-17.7c6.5-3.1 35.3-17.1 43.4-21h-30.3z"/></svg>