<?xml version="1.0" encoding="utf-8"?>
<!DOCTYPE svg PUBLIC "-//W3C//DTD SVG 1.1//EN" "http://www.w3.org/Graphics/SVG/1.1/DTD/svg11.dtd">
<svg version="1.1" id="Calque_1" xmlns="http://www.w3.org/2000/svg" xmlns:xlink="http://www.w3.org/1999/xlink" x="0px" y="0px"
	 width="872px" height="72px" viewBox="0 0 872 72" style="enable-background:new 0 0 872 72;" xml:space="preserve">
<style type="text/css"><![CDATA[
	.st0{fill:#A198C0;fill-opacity:0.5;}
	.st1{opacity:3.000000e-02;fill:#3D3D3C;enable-background:new;} .st2{fill:#E9E9F1;} .st3{opacity:0.75;}
	.st4{opacity:0.13;fill:none;stroke:#000000;stroke-width:0.75;enable-background:new;} .st5{opacity:0.3;fill:#A198C0;enable-background:new;}
	.st6{opacity:0.13;fill:none;stroke:#000000;stroke-width:2;enable-background:new;}
	.st7{opacity:0.1;} .st8{opacity:0.1;fill:#3D3D3C;enable-background:new;} .st9{fill:#D0CCDF;} .st10{fill:#3D3D3C;}
	.st11{opacity:0.1;enable-background:new;} .st12{opacity:0.13;fill:#3D3D3C;stroke:#000000;stroke-width:2;enable-background:new;}
]]>
</style>
<rect x="0.2" class="st0" width="872" height="72"/>
<g class="st3">
	<rect x="554.3" y="39.5" transform="matrix(1 3.985355e-03 -3.985355e-03 1 0.1678 -2.2147)" class="st12" width="2.9" height="3"/>
	<rect x="547.2" y="24.2" transform="matrix(1 4.651112e-03 -4.651112e-03 1 0.1255 -2.5519)" class="st12" width="2.9" height="3"/>
	<rect x="471.6" y="51.8" transform="matrix(1 4.634177e-03 -4.634177e-03 1 0.2519 -2.1918)" class="st12" width="3" height="3"/>
	<rect x="509.2" y="38" transform="matrix(1 4.649568e-03 -4.649568e-03 1 0.1893 -2.3739)" class="st12" width="2.9" height="3"/>
	<rect x="491.4" y="30" transform="matrix(1 4.468674e-03 -4.468674e-03 1 0.1459 -2.2023)" class="st12" width="3" height="3"/>
	<rect x="521.2" y="4.6" transform="matrix(1 4.483515e-03 -4.483515e-03 1 3.247070e-02 -2.3434)" class="st12" width="2.9" height="3"/>
	<rect x="438" y="15.9" transform="matrix(1 4.634177e-03 -4.634177e-03 1 8.514404e-02 -2.0364)" class="st12" width="3" height="3"/>
	<rect x="369.9" y="42.5" transform="matrix(1 4.649568e-03 -4.649568e-03 1 0.2087 -1.7261)" class="st12" width="2.9" height="3"/>
	<rect x="357.3" y="7.8" transform="matrix(1 4.483515e-03 -4.483515e-03 1 4.547119e-02 -1.6085)" class="st12" width="2.9" height="3"/>
	<rect x="323.2" y="48.8" transform="matrix(1 4.649568e-03 -4.649568e-03 1 0.2374 -1.5092)" class="st12" width="2.9" height="3"/>
	<rect x="278.6" y="9.4" transform="matrix(1 4.650340e-03 -4.650340e-03 1 5.349731e-02 -1.3025)" class="st12" width="2.9" height="3"/>
	<rect x="295.7" y="17.3" transform="matrix(1 5.314657e-03 -5.314657e-03 1 0.1043 -1.579)" class="st12" width="2.9" height="3"/>
	<rect x="284.2" y="52.6" transform="matrix(1 4.650340e-03 -4.650340e-03 1 0.2544 -1.3278)" class="st12" width="2.9" height="3"/>
	<rect x="309.9" y="31.5" transform="matrix(1 4.485005e-03 -4.485005e-03 1 0.1512 -1.396)" class="st12" width="2.9" height="3"/>
	<rect x="254.6" y="50.3" transform="matrix(1 4.650340e-03 -4.650340e-03 1 0.2438 -1.1901)" class="st12" width="2.9" height="3"/>
	<rect x="401.9" y="7.8" transform="matrix(1 4.483515e-03 -4.483515e-03 1 4.592896e-02 -1.8085)" class="st12" width="2.9" height="3"/>
	<rect x="452.2" y="61.5" transform="matrix(1 4.634177e-03 -4.634177e-03 1 0.2967 -2.1017)" class="st12" width="3" height="3"/>
	<polyline class="st6" points="250.5,20.3 298.1,45 348.5,41 369.9,15.8 419,22.3 438.5,0.5 	"/>
	<polyline class="st6" points="369.9,71.5 401.9,39.6 490.8,42.5 510.1,56.1 541.5,10.8 	"/>
	<polyline class="st6" points="573.3,42.5 567.3,58.5 528.2,56.1 517.1,71.5 	"/>
	<path class="st4" d="M479.2,1.9"/>
	<rect x="406.7" y="51.8" transform="matrix(1 5.313774e-03 -5.313774e-03 1 0.2889 -2.1682)" class="st12" width="2.9" height="3"/>
	<rect x="457.8" y="9.3" transform="matrix(1 4.649568e-03 -4.649568e-03 1 5.532837e-02 -2.1355)" class="st12" width="2.9" height="3"/>
</g>
<polygon class="st9" points="490.6,0.2 444.4,71.8 0.2,71 0.2,-0.5 "/>
<g>
	<rect x="316.5" y="31.8" class="st8" width="7.5" height="7.7"/>
	<rect x="316.5" y="16.5" class="st8" width="7.5" height="7.7"/>
	<rect x="316.5" y="1" class="st8" width="7.5" height="7.7"/>
	<rect x="316.5" y="47.2" class="st8" width="7.5" height="7.7"/>
	<rect x="308.8" y="39.6" class="st8" width="7.5" height="7.7"/>
	<rect x="308.8" y="24.1" class="st8" width="7.5" height="7.7"/>
	<rect x="308.8" y="8.7" class="st8" width="7.5" height="7.7"/>
	<rect x="324" y="39.5" class="st8" width="7.5" height="7.7"/>
	<rect x="331.5" y="47.2" class="st8" width="7.5" height="7.7"/>
	<rect x="324" y="24.1" class="st8" width="7.5" height="7.7"/>
	<rect x="324" y="8.7" class="st8" width="7.5" height="7.7"/>
	<rect x="331.5" y="31.8" class="st8" width="7.5" height="7.7"/>
	<rect x="339" y="39.5" class="st8" width="7.5" height="7.7"/>
	<rect x="308.9" y="55" class="st8" width="7.5" height="7.7"/>
	<rect x="301.3" y="47.3" class="st8" width="7.5" height="7.7"/>
	<rect x="301.3" y="32.1" class="st8" width="7.5" height="7.7"/>
	<rect x="301.3" y="16.4" class="st8" width="7.5" height="7.7"/>
	<rect x="301.3" y="1" class="st8" width="7.5" height="7.7"/>
	<rect x="301.4" y="63.3" class="st8" width="7.5" height="7.7"/>
	<rect x="324" y="55" class="st8" width="7.5" height="7.7"/>
	<rect x="339" y="55" class="st8" width="7.5" height="7.7"/>
	<rect x="346.5" y="47.2" class="st8" width="7.5" height="7.7"/>
	<rect x="354" y="55" class="st8" width="7.5" height="7.7"/>
	<rect x="354" y="39.5" class="st8" width="7.5" height="7.7"/>
	<rect x="346.5" y="31.8" class="st8" width="7.5" height="7.7"/>
	<rect x="339" y="24.1" class="st8" width="7.5" height="7.7"/>
	<rect x="331.5" y="16.4" class="st8" width="7.5" height="7.7"/>
	<rect x="339" y="8.7" class="st8" width="7.5" height="7.7"/>
	<rect x="331.5" y="1" class="st8" width="7.5" height="7.7"/>
	<rect x="346.5" y="1" class="st8" width="7.5" height="7.7"/>
	<rect x="354" y="8.7" class="st8" width="7.5" height="7.7"/>
	<rect x="346.5" y="16.4" class="st8" width="7.5" height="7.7"/>
	<rect x="354" y="24.1" class="st8" width="7.5" height="7.7"/>
	<rect x="361.6" y="1" class="st8" width="7.5" height="7.7"/>
	<rect x="369.1" y="8.7" class="st8" width="7.5" height="7.7"/>
	<rect x="376.6" y="16.4" class="st8" width="7.5" height="7.7"/>
	<rect x="369.1" y="24.1" class="st8" width="7.5" height="7.7"/>
	<rect x="376.6" y="31.8" class="st8" width="7.5" height="7.7"/>
	<rect x="369.1" y="39.5" class="st8" width="7.5" height="7.7"/>
	<rect x="376.6" y="47.2" class="st8" width="7.5" height="7.7"/>
	<rect x="361.6" y="16.4" class="st8" width="7.5" height="7.7"/>
	<rect x="361.6" y="31.8" class="st8" width="7.5" height="7.7"/>
	<rect x="361.6" y="47.2" class="st8" width="7.5" height="7.7"/>
	<rect x="384.1" y="39.5" class="st8" width="7.5" height="7.7"/>
	<rect x="391.7" y="47.2" class="st8" width="7.5" height="7.7"/>
	<rect x="384.1" y="24.1" class="st8" width="7.5" height="7.7"/>
	<rect x="391.7" y="31.8" class="st8" width="7.5" height="7.7"/>
	<rect x="399.2" y="39.5" class="st8" width="7.5" height="7.7"/>
	<rect x="369.1" y="55" class="st8" width="7.5" height="7.7"/>
	<rect x="384.1" y="55" class="st8" width="7.5" height="7.7"/>
	<rect x="399.2" y="55" class="st8" width="7.5" height="7.7"/>
	<rect x="406.7" y="47.2" class="st8" width="7.5" height="7.7"/>
	<rect x="414.2" y="55" class="st8" width="7.5" height="7.7"/>
	<rect x="414.2" y="39.5" class="st8" width="7.5" height="7.7"/>
	<rect x="406.7" y="31.8" class="st8" width="7.5" height="7.7"/>
	<rect x="399.2" y="24.1" class="st8" width="7.5" height="7.7"/>
	<rect x="391.7" y="16.4" class="st8" width="7.5" height="7.7"/>
	<rect x="384.1" y="8.7" class="st8" width="7.5" height="7.7"/>
	<rect x="376.6" y="1" class="st8" width="7.5" height="7.7"/>
	<rect x="391.7" y="1" class="st8" width="7.5" height="7.7"/>
	<rect x="399.2" y="8.7" class="st8" width="7.5" height="7.7"/>
	<rect x="406.7" y="1" class="st8" width="7.5" height="7.7"/>
	<rect x="414.2" y="8.7" class="st8" width="7.5" height="7.7"/>
	<rect x="406.7" y="16.4" class="st8" width="7.5" height="7.7"/>
	<rect x="414.2" y="24.1" class="st8" width="7.5" height="7.7"/>
	<rect x="421.7" y="1" class="st8" width="7.5" height="7.7"/>
	<rect x="429.2" y="8.7" class="st8" width="7.5" height="7.7"/>
	<rect x="436.8" y="16.4" class="st8" width="7.5" height="7.7"/>
	<rect x="429.2" y="24.1" class="st8" width="7.5" height="7.7"/>
	<rect x="436.8" y="31.8" class="st8" width="7.5" height="7.7"/>
	<rect x="429.2" y="39.5" class="st8" width="7.5" height="7.7"/>
	<rect x="436.8" y="47.2" class="st8" width="7.5" height="7.7"/>
	<rect x="421.7" y="16.4" class="st8" width="7.5" height="7.7"/>
	<rect x="421.7" y="31.8" class="st8" width="7.5" height="7.7"/>
	<rect x="421.7" y="47.2" class="st8" width="7.5" height="7.7"/>
	<rect x="444.3" y="39.5" class="st8" width="7.5" height="7.7"/>
	<rect x="444.3" y="24.1" class="st8" width="7.5" height="7.7"/>
	<rect x="451.8" y="31.8" class="st8" width="7.5" height="7.7"/>
	<rect x="429.2" y="55" class="st8" width="7.5" height="7.7"/>
	<rect x="444.3" y="55" class="st8" width="7.5" height="7.7"/>
	<rect x="459.3" y="24.1" class="st8" width="7.5" height="7.7"/>
	<rect x="451.8" y="16.4" class="st8" width="7.5" height="7.7"/>
	<rect x="444.3" y="8.7" class="st8" width="7.5" height="7.7"/>
	<rect x="436.8" y="1" class="st8" width="7.5" height="7.7"/>
	<rect x="451.8" y="1" class="st8" width="7.5" height="7.7"/>
	<rect x="459.3" y="8.7" class="st8" width="7.5" height="7.7"/>
	<rect x="466.9" y="1" class="st8" width="7.5" height="7.7"/>
	<rect x="466.9" y="16.4" class="st8" width="7.5" height="7.7"/>
	<rect x="316.5" y="63.3" class="st8" width="7.5" height="7.7"/>
	<rect x="331.5" y="63.3" class="st8" width="7.5" height="7.7"/>
	<rect x="271.3" y="31.8" class="st8" width="7.5" height="7.7"/>
	<rect x="271.3" y="16.5" class="st8" width="7.5" height="7.7"/>
	<rect x="271.3" y="1" class="st8" width="7.5" height="7.7"/>
	<rect x="271.3" y="47.2" class="st8" width="7.5" height="7.7"/>
	<rect x="263.7" y="39.6" class="st8" width="7.5" height="7.7"/>
	<rect x="263.7" y="24.1" class="st8" width="7.5" height="7.7"/>
	<rect x="263.7" y="8.7" class="st8" width="7.5" height="7.7"/>
	<rect x="278.8" y="39.5" class="st8" width="7.5" height="7.7"/>
	<rect x="286.4" y="47.2" class="st8" width="7.5" height="7.7"/>
	<rect x="278.9" y="24.1" class="st8" width="7.5" height="7.7"/>
	<rect x="278.9" y="8.7" class="st8" width="7.5" height="7.7"/>
	<rect x="286.4" y="31.8" class="st8" width="7.5" height="7.7"/>
	<rect x="293.9" y="39.5" class="st8" width="7.5" height="7.7"/>
	<rect x="263.8" y="55" class="st8" width="7.5" height="7.7"/>
	<rect x="256.2" y="47.3" class="st8" width="7.5" height="7.7"/>
	<rect x="256.2" y="32.1" class="st8" width="7.5" height="7.7"/>
	<rect x="256.2" y="16.4" class="st8" width="7.5" height="7.7"/>
	<rect x="256.2" y="1" class="st8" width="7.5" height="7.7"/>
	<rect x="256.3" y="63.3" class="st8" width="7.5" height="7.7"/>
	<rect x="278.9" y="55" class="st8" width="7.5" height="7.7"/>
	<rect x="293.9" y="55" class="st8" width="7.5" height="7.7"/>
	<rect x="293.9" y="24.1" class="st8" width="7.5" height="7.7"/>
	<rect x="286.4" y="16.4" class="st8" width="7.5" height="7.7"/>
	<rect x="293.9" y="8.7" class="st8" width="7.5" height="7.7"/>
	<rect x="286.4" y="1" class="st8" width="7.5" height="7.7"/>
	<rect x="271.3" y="63.3" class="st8" width="7.5" height="7.7"/>
	<rect x="286.4" y="63.3" class="st8" width="7.5" height="7.7"/>
	<rect x="226.1" y="31.8" class="st8" width="7.5" height="7.7"/>
	<rect x="226.1" y="16.5" class="st8" width="7.5" height="7.7"/>
	<rect x="226.1" y="1" class="st8" width="7.5" height="7.7"/>
	<rect x="226.1" y="47.2" class="st8" width="7.5" height="7.7"/>
	<rect x="218.5" y="39.6" class="st8" width="7.5" height="7.7"/>
	<rect x="218.5" y="24.1" class="st8" width="7.5" height="7.7"/>
	<rect x="218.5" y="8.7" class="st8" width="7.5" height="7.7"/>
	<rect x="233.6" y="39.5" class="st8" width="7.5" height="7.7"/>
	<rect x="241.1" y="47.2" class="st8" width="7.5" height="7.7"/>
	<rect x="233.6" y="24.1" class="st8" width="7.5" height="7.7"/>
	<rect x="233.6" y="8.7" class="st8" width="7.5" height="7.7"/>
	<rect x="241.1" y="31.8" class="st8" width="7.5" height="7.7"/>
	<rect x="248.7" y="39.5" class="st8" width="7.5" height="7.7"/>
	<rect x="218.6" y="55" class="st8" width="7.5" height="7.7"/>
	<rect x="211" y="47.3" class="st8" width="7.5" height="7.7"/>
	<rect x="211" y="32.1" class="st8" width="7.5" height="7.7"/>
	<rect x="211" y="16.4" class="st8" width="7.5" height="7.7"/>
	<rect x="211" y="1" class="st8" width="7.5" height="7.7"/>
	<rect x="211.1" y="63.3" class="st8" width="7.5" height="7.7"/>
	<rect x="233.6" y="55" class="st8" width="7.5" height="7.7"/>
	<rect x="248.7" y="55" class="st8" width="7.5" height="7.7"/>
	<rect x="248.7" y="24.1" class="st8" width="7.5" height="7.7"/>
	<rect x="241.1" y="16.4" class="st8" width="7.5" height="7.7"/>
	<rect x="248.7" y="8.7" class="st8" width="7.5" height="7.7"/>
	<rect x="241.1" y="1" class="st8" width="7.5" height="7.7"/>
	<rect x="226.1" y="63.3" class="st8" width="7.5" height="7.7"/>
	<rect x="241.1" y="63.3" class="st8" width="7.5" height="7.7"/>
	<rect x="181" y="31.8" class="st8" width="7.5" height="7.7"/>
	<rect x="181" y="16.5" class="st8" width="7.5" height="7.7"/>
	<rect x="181" y="1" class="st8" width="7.5" height="7.7"/>
	<rect x="181" y="47.2" class="st8" width="7.5" height="7.7"/>
	<rect x="173.4" y="39.6" class="st8" width="7.5" height="7.7"/>
	<rect x="173.4" y="24.1" class="st8" width="7.5" height="7.7"/>
	<rect x="173.4" y="8.7" class="st8" width="7.5" height="7.7"/>
	<rect x="188.5" y="39.5" class="st8" width="7.5" height="7.7"/>
	<rect x="196" y="47.2" class="st8" width="7.5" height="7.7"/>
	<rect x="188.5" y="24.1" class="st8" width="7.5" height="7.7"/>
	<rect x="188.5" y="8.7" class="st8" width="7.5" height="7.7"/>
	<rect x="196" y="31.8" class="st8" width="7.5" height="7.7"/>
	<rect x="203.5" y="39.5" class="st8" width="7.5" height="7.7"/>
	<rect x="173.5" y="55" class="st8" width="7.5" height="7.7"/>
	<rect x="165.9" y="47.3" class="st8" width="7.5" height="7.7"/>
	<rect x="165.9" y="32.1" class="st8" width="7.5" height="7.7"/>
	<rect x="165.9" y="16.4" class="st8" width="7.5" height="7.7"/>
	<rect x="165.9" y="1" class="st8" width="7.5" height="7.7"/>
	<rect x="165.9" y="63.3" class="st8" width="7.5" height="7.7"/>
	<rect x="188.5" y="55" class="st8" width="7.5" height="7.7"/>
	<rect x="203.5" y="55" class="st8" width="7.5" height="7.7"/>
	<rect x="203.5" y="24.1" class="st8" width="7.5" height="7.7"/>
	<rect x="196" y="16.4" class="st8" width="7.5" height="7.7"/>
	<rect x="203.5" y="8.7" class="st8" width="7.5" height="7.7"/>
	<rect x="196" y="1" class="st8" width="7.5" height="7.7"/>
	<rect x="181" y="63.3" class="st8" width="7.5" height="7.7"/>
	<rect x="196" y="63.3" class="st8" width="7.5" height="7.7"/>
	<rect x="135.8" y="31.8" class="st8" width="7.5" height="7.7"/>
	<rect x="135.8" y="16.5" class="st8" width="7.5" height="7.7"/>
	<rect x="135.8" y="1" class="st8" width="7.5" height="7.7"/>
	<rect x="135.8" y="47.2" class="st8" width="7.5" height="7.7"/>
	<rect x="128.1" y="39.6" class="st8" width="7.5" height="7.7"/>
	<rect x="128.1" y="24.1" class="st8" width="7.5" height="7.7"/>
	<rect x="128.1" y="8.7" class="st8" width="7.5" height="7.7"/>
	<rect x="143.3" y="39.5" class="st8" width="7.5" height="7.7"/>
	<rect x="150.8" y="47.2" class="st8" width="7.5" height="7.7"/>
	<rect x="143.3" y="24.1" class="st8" width="7.5" height="7.7"/>
	<rect x="143.3" y="8.7" class="st8" width="7.5" height="7.7"/>
	<rect x="150.8" y="31.8" class="st8" width="7.5" height="7.7"/>
	<rect x="158.3" y="39.5" class="st8" width="7.5" height="7.7"/>
	<rect x="128.2" y="55" class="st8" width="7.5" height="7.7"/>
	<rect x="120.6" y="47.3" class="st8" width="7.5" height="7.7"/>
	<rect x="120.6" y="32.1" class="st8" width="7.5" height="7.7"/>
	<rect x="120.6" y="16.4" class="st8" width="7.5" height="7.7"/>
	<rect x="120.6" y="1" class="st8" width="7.5" height="7.7"/>
	<rect x="120.7" y="63.3" class="st8" width="7.5" height="7.7"/>
	<rect x="143.3" y="55" class="st8" width="7.5" height="7.7"/>
	<rect x="158.3" y="55" class="st8" width="7.5" height="7.7"/>
	<rect x="158.3" y="24.1" class="st8" width="7.5" height="7.7"/>
	<rect x="150.8" y="16.4" class="st8" width="7.5" height="7.7"/>
	<rect x="158.3" y="8.7" class="st8" width="7.5" height="7.7"/>
	<rect x="150.8" y="1" class="st8" width="7.5" height="7.7"/>
	<rect x="135.8" y="63.3" class="st8" width="7.5" height="7.7"/>
	<rect x="150.8" y="63.3" class="st8" width="7.5" height="7.7"/>
	<rect x="90.6" y="31.8" class="st8" width="7.5" height="7.7"/>
	<rect x="90.6" y="16.5" class="st8" width="7.5" height="7.7"/>
	<rect x="90.6" y="1" class="st8" width="7.5" height="7.7"/>
	<rect x="90.6" y="47.2" class="st8" width="7.5" height="7.7"/>
	<rect x="98.2" y="39.5" class="st8" width="7.5" height="7.7"/>
	<rect x="105.7" y="47.2" class="st8" width="7.5" height="7.7"/>
	<rect x="98.2" y="24.1" class="st8" width="7.5" height="7.7"/>
	<rect x="98.2" y="8.7" class="st8" width="7.5" height="7.7"/>
	<rect x="105.7" y="31.8" class="st8" width="7.5" height="7.7"/>
	<rect x="113.2" y="39.5" class="st8" width="7.5" height="7.7"/>
	<rect x="98.2" y="55" class="st8" width="7.5" height="7.7"/>
	<rect x="113.2" y="55" class="st8" width="7.5" height="7.7"/>
	<rect x="113.2" y="24.1" class="st8" width="7.5" height="7.7"/>
	<rect x="105.7" y="16.4" class="st8" width="7.5" height="7.7"/>
	<rect x="113.2" y="8.7" class="st8" width="7.5" height="7.7"/>
	<rect x="105.7" y="1" class="st8" width="7.5" height="7.7"/>
	<rect x="90.6" y="63.3" class="st8" width="7.5" height="7.7"/>
	<rect x="105.7" y="63.3" class="st8" width="7.5" height="7.7"/>
	<rect x="82.7" y="39.6" class="st8" width="7.5" height="7.7"/>
	<rect x="82.7" y="24.1" class="st8" width="7.5" height="7.7"/>
	<rect x="82.7" y="8.7" class="st8" width="7.5" height="7.7"/>
	<rect x="82.8" y="55" class="st8" width="7.5" height="7.7"/>
	<rect x="75.2" y="47.3" class="st8" width="7.5" height="7.7"/>
	<rect x="75.2" y="32.1" class="st8" width="7.5" height="7.7"/>
	<rect x="75.2" y="16.4" class="st8" width="7.5" height="7.7"/>
	<rect x="75.2" y="1" class="st8" width="7.5" height="7.7"/>
	<rect x="75.3" y="63.3" class="st8" width="7.5" height="7.7"/>
	<rect x="45.1" y="31.8" class="st8" width="7.5" height="7.7"/>
	<rect x="45.1" y="16.5" class="st8" width="7.5" height="7.7"/>
	<rect x="45.1" y="1" class="st8" width="7.5" height="7.7"/>
	<rect x="45.1" y="47.2" class="st8" width="7.5" height="7.7"/>
	<rect x="37.5" y="39.6" class="st8" width="7.5" height="7.7"/>
	<rect x="37.5" y="24.1" class="st8" width="7.5" height="7.7"/>
	<rect x="37.5" y="8.7" class="st8" width="7.5" height="7.7"/>
	<rect x="52.6" y="39.5" class="st8" width="7.5" height="7.7"/>
	<rect x="60.2" y="47.2" class="st8" width="7.5" height="7.7"/>
	<rect x="52.6" y="24.1" class="st8" width="7.5" height="7.7"/>
	<rect x="52.6" y="8.7" class="st8" width="7.5" height="7.7"/>
	<rect x="60.2" y="31.8" class="st8" width="7.5" height="7.7"/>
	<rect x="67.7" y="39.5" class="st8" width="7.5" height="7.7"/>
	<rect x="37.6" y="55" class="st8" width="7.5" height="7.7"/>
	<rect x="30" y="47.3" class="st8" width="7.5" height="7.7"/>
	<rect x="30" y="32.1" class="st8" width="7.5" height="7.7"/>
	<rect x="30" y="16.4" class="st8" width="7.5" height="7.7"/>
	<rect x="30" y="1" class="st8" width="7.5" height="7.7"/>
	<rect x="30.1" y="63.3" class="st8" width="7.5" height="7.7"/>
	<rect x="52.6" y="55" class="st8" width="7.5" height="7.7"/>
	<rect x="67.7" y="55" class="st8" width="7.5" height="7.7"/>
	<rect x="67.7" y="24.1" class="st8" width="7.5" height="7.7"/>
	<rect x="60.2" y="16.4" class="st8" width="7.5" height="7.7"/>
	<rect x="67.7" y="8.7" class="st8" width="7.5" height="7.7"/>
	<rect x="60.2" y="1" class="st8" width="7.5" height="7.7"/>
	<rect x="45.1" y="63.3" class="st8" width="7.5" height="7.7"/>
	<rect x="60.2" y="63.3" class="st8" width="7.5" height="7.7"/>
	<rect y="31.8" class="st8" width="7.5" height="7.7"/>
	<rect y="16.5" class="st8" width="7.5" height="7.7"/>
	<rect y="1" class="st8" width="7.5" height="7.7"/>
	<rect y="47.2" class="st8" width="7.5" height="7.7"/>
	<rect x="7.5" y="39.5" class="st8" width="7.5" height="7.7"/>
	<rect x="15" y="47.2" class="st8" width="7.5" height="7.7"/>
	<rect x="7.5" y="24.1" class="st8" width="7.5" height="7.7"/>
	<rect x="7.5" y="8.7" class="st8" width="7.5" height="7.7"/>
	<rect x="15" y="31.8" class="st8" width="7.5" height="7.7"/>
	<rect x="22.6" y="39.5" class="st8" width="7.5" height="7.7"/>
	<rect x="7.5" y="55" class="st8" width="7.5" height="7.7"/>
	<rect x="22.6" y="55" class="st8" width="7.5" height="7.7"/>
	<rect x="22.6" y="24.1" class="st8" width="7.5" height="7.7"/>
	<rect x="15" y="16.4" class="st8" width="7.5" height="7.7"/>
	<rect x="22.6" y="8.7" class="st8" width="7.5" height="7.7"/>
	<rect x="15" y="1" class="st8" width="7.5" height="7.7"/>
	<rect y="63.3" class="st8" width="7.5" height="7.7"/>
	<rect x="15" y="63.3" class="st8" width="7.5" height="7.7"/>
	<rect x="346.5" y="63.3" class="st8" width="7.5" height="7.7"/>
	<rect x="376.6" y="63.3" class="st8" width="7.5" height="7.7"/>
	<rect x="361.6" y="63.3" class="st8" width="7.5" height="7.7"/>
	<rect x="391.7" y="63.3" class="st8" width="7.5" height="7.7"/>
	<rect x="406.7" y="63.3" class="st8" width="7.5" height="7.7"/>
	<rect x="436.8" y="63.3" class="st8" width="7.5" height="7.7"/>
	<rect x="421.7" y="63.3" class="st8" width="7.5" height="7.7"/>
	<polygon class="st8" points="451.8,47 451.8,54.8 457.6,54.8 459.3,51.4 459.3,47"/>
	<polygon class="st8" points="459.3,39.5 459.3,47.2 461.5,47.2 465.4,39.5"/>
	<polygon class="st8" points="474.1,8.7 474.1,16.4 477.3,16.4 481.3,8.7"/>
	<polygon class="st8" points="481.3,1 481.3,7.9 484.8,1"/>
	<g class="st7">
		<polygon class="st1" points="451.8,63.3 451.8,66.4 453.4,63.3"/>
		<polygon class="st1" points="451.8,71 459.3,71 459.3,71"/>
	</g>
	<g class="st11">
		<polygon class="st1" points="468.6,31.7 466.9,31.7 466.9,35"/>
		<polygon class="st10" points="466.9,31.8 468.9,31.8 466.9,35.1"/>
	</g>
	<g class="st11">
		<polygon class="st1" points="453.3,62.7 451.6,62.7 451.6,66"/>
		<polygon class="st10" points="451.6,62.8 453.6,62.8 451.6,66.1"/>
	</g>
</g>
<path class="st2" d="M597.2,54.3c0,0-30,2.9-63.2-54.3h338.1v72H568.5C568.5,72,581.6,57.5,597.2,54.3z"/>
<path class="st5" d="M594.5,54.3c15.4,1.1,18.3-10.6,34.2-27.7c7.8-8.4,19.9-7.6,19.9-7.6L660,42.7C660,42.7,645.4,81.1,594.5,54.3z
	"/>
<path class="st5" d="M699.3,0.4c-8.2,4-15.9,7.7-18.9,9.1c-7.6,3.7-25.8,5.9-25.8,5.9l11.4,23.7c0,0,12.5-14,20.1-17.7
	c6.5-3.1,35.3-17.1,43.4-21L699.3,0.4L699.3,0.4z"/>
</svg>
