<?xml version="1.0" encoding="utf-8"?>
<!DOCTYPE svg PUBLIC "-//W3C//DTD SVG 1.1//EN" "http://www.w3.org/Graphics/SVG/1.1/DTD/svg11.dtd">
<svg version="1.1" id="Calque_1" xmlns="http://www.w3.org/2000/svg" xmlns:xlink="http://www.w3.org/1999/xlink" x="0px" y="0px"
	 width="872px" height="72px" viewBox="0 0 872 72" style="enable-background:new 0 0 872 72;" xml:space="preserve">
<style type="text/css"><![CDATA[
	.st0{fill:#7D7D7D;} .st2{fill:#4D4D4D;}
	.st1{opacity:0.5;fill:#4D4D4D;enable-background:new;}
	.st3{opacity:0.06;fill:#9C9B9B;enable-background:new;}
]]></style>
<rect y="-0.02" class="st2" width="872" height="72"/>
<rect x="0.85" y="1.85" class="st3" width="7.52" height="7.71"/>
<rect x="8.37" y="9.56" class="st3" width="7.52" height="7.71"/>
<rect x="15.89" y="17.27" class="st3" width="7.52" height="7.72"/>
<rect x="8.37" y="24.99" class="st3" width="7.52" height="7.71"/>
<rect x="15.89" y="32.71" class="st3" width="7.52" height="7.71"/>
<rect x="8.37" y="40.42" class="st3" width="7.52" height="7.71"/>
<rect x="15.89" y="48.13" class="st3" width="7.52" height="7.72"/>
<rect x="0.85" y="17.27" class="st3" width="7.52" height="7.72"/>
<rect x="0.85" y="32.71" class="st3" width="7.52" height="7.71"/>
<rect x="0.85" y="48.13" class="st3" width="7.52" height="7.72"/>
<rect x="22.41" y="40.42" class="st3" width="7.52" height="7.71"/>
<rect x="30.94" y="48.13" class="st3" width="7.52" height="7.72"/>
<rect x="23.41" y="24.99" class="st3" width="7.52" height="7.71"/>
<rect x="30.94" y="32.71" class="st3" width="7.52" height="7.71"/>
<rect x="38.45" y="40.42" class="st3" width="7.52" height="7.71"/>
<rect x="8.37" y="55.85" class="st3" width="7.52" height="7.71"/>
<rect x="23.41" y="55.85" class="st3" width="7.52" height="7.71"/>
<rect x="38.45" y="55.85" class="st3" width="7.52" height="7.71"/>
<rect x="45.98" y="48.13" class="st3" width="7.52" height="7.72"/>
<rect x="53.49" y="55.85" class="st3" width="7.52" height="7.71"/>
<rect x="53.49" y="40.42" class="st3" width="7.52" height="7.71"/>
<rect x="45.98" y="32.71" class="st3" width="7.52" height="7.71"/>
<rect x="38.45" y="24.99" class="st3" width="7.52" height="7.71"/>
<rect x="30.94" y="17.27" class="st3" width="7.52" height="7.72"/>
<rect x="23.41" y="9.56" class="st3" width="7.52" height="7.71"/>
<rect x="15.89" y="1.85" class="st3" width="7.52" height="7.71"/>
<rect x="30.94" y="1.85" class="st3" width="7.52" height="7.71"/>
<rect x="38.45" y="9.56" class="st3" width="7.52" height="7.71"/>
<rect x="45.98" y="1.85" class="st3" width="7.52" height="7.71"/>
<rect x="53.49" y="9.56" class="st3" width="7.52" height="7.71"/>
<rect x="45.98" y="17.27" class="st3" width="7.52" height="7.72"/>
<rect x="53.49" y="24.99" class="st3" width="7.52" height="7.71"/>
<rect x="61.02" y="1.85" class="st3" width="7.52" height="7.71"/>
<rect x="68.54" y="9.56" class="st3" width="7.52" height="7.71"/>
<rect x="76.06" y="17.27" class="st3" width="7.52" height="7.72"/>
<rect x="68.54" y="24.99" class="st3" width="7.52" height="7.71"/>
<rect x="76.06" y="32.71" class="st3" width="7.52" height="7.71"/>
<rect x="68.54" y="40.42" class="st3" width="7.52" height="7.71"/>
<rect x="76.06" y="48.13" class="st3" width="7.52" height="7.72"/>
<rect x="61.02" y="17.27" class="st3" width="7.52" height="7.72"/>
<rect x="61.02" y="32.71" class="st3" width="7.52" height="7.71"/>
<rect x="61.02" y="48.13" class="st3" width="7.52" height="7.72"/>
<rect x="83.58" y="40.42" class="st3" width="7.52" height="7.71"/>
<rect x="91.1" y="48.13" class="st3" width="7.52" height="7.72"/>
<rect x="83.58" y="24.99" class="st3" width="7.52" height="7.71"/>
<rect x="91.1" y="32.71" class="st3" width="7.52" height="7.71"/>
<rect x="98.62" y="40.42" class="st3" width="7.52" height="7.71"/>
<rect x="68.54" y="55.85" class="st3" width="7.52" height="7.71"/>
<rect x="15.89" y="63.56" class="st3" width="7.52" height="7.71"/>
<rect x="0.85" y="63.56" class="st3" width="7.52" height="7.71"/>
<rect x="30.94" y="63.56" class="st3" width="7.52" height="7.71"/>
<rect x="45.98" y="63.56" class="st3" width="7.52" height="7.71"/>
<rect x="61.02" y="63.56" class="st3" width="7.52" height="7.71"/>
<rect x="83.58" y="55.85" class="st3" width="7.52" height="7.71"/>
<rect x="98.62" y="55.85" class="st3" width="7.52" height="7.71"/>
<rect x="106.14" y="48.13" class="st3" width="7.52" height="7.72"/>
<rect x="113.66" y="55.85" class="st3" width="7.52" height="7.71"/>
<rect x="113.66" y="40.42" class="st3" width="7.52" height="7.71"/>
<rect x="106.14" y="32.71" class="st3" width="7.52" height="7.71"/>
<rect x="98.62" y="24.99" class="st3" width="7.52" height="7.71"/>
<rect x="91.1" y="17.27" class="st3" width="7.52" height="7.72"/>
<rect x="83.58" y="9.56" class="st3" width="7.52" height="7.71"/>
<rect x="76.06" y="1.85" class="st3" width="7.52" height="7.71"/>
<rect x="91.1" y="1.85" class="st3" width="7.52" height="7.71"/>
<rect x="98.62" y="9.56" class="st3" width="7.52" height="7.71"/>
<rect x="106.14" y="1.85" class="st3" width="7.52" height="7.71"/>
<rect x="113.66" y="9.56" class="st3" width="7.52" height="7.71"/>
<rect x="106.14" y="17.27" class="st3" width="7.52" height="7.72"/>
<rect x="113.66" y="24.99" class="st3" width="7.52" height="7.71"/>
<rect x="121.18" y="1.85" class="st3" width="7.52" height="7.71"/>
<rect x="128.7" y="9.56" class="st3" width="7.52" height="7.71"/>
<rect x="136.22" y="17.27" class="st3" width="7.52" height="7.72"/>
<rect x="128.7" y="24.99" class="st3" width="7.52" height="7.71"/>
<rect x="136.22" y="32.71" class="st3" width="7.52" height="7.71"/>
<rect x="128.7" y="40.42" class="st3" width="7.52" height="7.71"/>
<rect x="136.22" y="48.13" class="st3" width="7.52" height="7.72"/>
<rect x="121.18" y="17.27" class="st3" width="7.52" height="7.72"/>
<rect x="121.18" y="32.71" class="st3" width="7.52" height="7.71"/>
<rect x="121.18" y="48.13" class="st3" width="7.52" height="7.72"/>
<rect x="143.74" y="40.42" class="st3" width="7.52" height="7.71"/>
<rect x="151.26" y="48.13" class="st3" width="7.52" height="7.72"/>
<rect x="143.74" y="24.99" class="st3" width="7.52" height="7.71"/>
<rect x="151.26" y="32.71" class="st3" width="7.52" height="7.71"/>
<rect x="158.78" y="40.42" class="st3" width="7.52" height="7.71"/>
<rect x="128.7" y="55.85" class="st3" width="7.52" height="7.71"/>
<rect x="143.74" y="55.85" class="st3" width="7.52" height="7.71"/>
<rect x="158.78" y="55.85" class="st3" width="7.52" height="7.71"/>
<rect x="166.3" y="48.13" class="st3" width="7.52" height="7.72"/>
<rect x="173.82" y="55.85" class="st3" width="7.52" height="7.71"/>
<rect x="173.82" y="40.42" class="st3" width="7.52" height="7.71"/>
<rect x="166.3" y="32.71" class="st3" width="7.52" height="7.71"/>
<rect x="158.78" y="24.99" class="st3" width="7.52" height="7.71"/>
<rect x="151.26" y="17.27" class="st3" width="7.52" height="7.72"/>
<rect x="143.74" y="9.56" class="st3" width="7.52" height="7.71"/>
<rect x="136.22" y="1.85" class="st3" width="7.52" height="7.71"/>
<rect x="151.26" y="1.85" class="st3" width="7.52" height="7.71"/>
<rect x="158.78" y="9.56" class="st3" width="7.52" height="7.71"/>
<rect x="166.3" y="1.85" class="st3" width="7.52" height="7.71"/>
<rect x="173.82" y="9.56" class="st3" width="7.52" height="7.71"/>
<rect x="166.3" y="17.27" class="st3" width="7.52" height="7.72"/>
<rect x="173.82" y="24.99" class="st3" width="7.52" height="7.71"/>
<rect x="181.34" y="1.85" class="st3" width="7.52" height="7.71"/>
<rect x="188.86" y="9.56" class="st3" width="7.52" height="7.71"/>
<rect x="196.38" y="17.27" class="st3" width="7.52" height="7.72"/>
<rect x="188.86" y="24.99" class="st3" width="7.52" height="7.71"/>
<rect x="196.38" y="32.71" class="st3" width="7.52" height="7.71"/>
<rect x="188.86" y="40.42" class="st3" width="7.52" height="7.71"/>
<rect x="196.38" y="48.13" class="st3" width="7.52" height="7.72"/>
<rect x="181.34" y="17.27" class="st3" width="7.52" height="7.72"/>
<rect x="181.34" y="32.71" class="st3" width="7.52" height="7.71"/>
<rect x="181.34" y="48.13" class="st3" width="7.52" height="7.72"/>
<rect x="203.9" y="40.42" class="st3" width="7.52" height="7.71"/>
<rect x="211.42" y="48.13" class="st3" width="7.52" height="7.72"/>
<rect x="203.9" y="24.99" class="st3" width="7.52" height="7.71"/>
<rect x="211.42" y="32.71" class="st3" width="7.52" height="7.71"/>
<rect x="218.94" y="40.42" class="st3" width="7.52" height="7.71"/>
<rect x="188.86" y="55.85" class="st3" width="7.52" height="7.71"/>
<rect x="203.9" y="55.85" class="st3" width="7.52" height="7.71"/>
<rect x="218.94" y="55.85" class="st3" width="7.52" height="7.71"/>
<rect x="226.46" y="48.13" class="st3" width="7.52" height="7.72"/>
<rect x="233.98" y="55.85" class="st3" width="7.52" height="7.71"/>
<rect x="233.98" y="40.42" class="st3" width="7.52" height="7.71"/>
<rect x="226.46" y="32.71" class="st3" width="7.52" height="7.71"/>
<rect x="218.94" y="24.99" class="st3" width="7.52" height="7.71"/>
<rect x="211.42" y="17.27" class="st3" width="7.52" height="7.72"/>
<rect x="203.9" y="9.56" class="st3" width="7.52" height="7.71"/>
<rect x="196.38" y="1.85" class="st3" width="7.52" height="7.71"/>
<rect x="211.42" y="1.85" class="st3" width="7.52" height="7.71"/>
<rect x="218.94" y="9.56" class="st3" width="7.52" height="7.71"/>
<rect x="226.46" y="1.85" class="st3" width="7.52" height="7.71"/>
<rect x="233.98" y="9.56" class="st3" width="7.52" height="7.71"/>
<rect x="226.46" y="17.27" class="st3" width="7.52" height="7.72"/>
<rect x="233.98" y="24.99" class="st3" width="7.52" height="7.71"/>
<rect x="241.5" y="1.85" class="st3" width="7.52" height="7.71"/>
<rect x="249.02" y="9.56" class="st3" width="7.52" height="7.71"/>
<rect x="256.54" y="17.27" class="st3" width="7.52" height="7.72"/>
<rect x="249.02" y="24.99" class="st3" width="7.52" height="7.71"/>
<rect x="256.54" y="32.71" class="st3" width="7.52" height="7.71"/>
<rect x="249.02" y="40.42" class="st3" width="7.52" height="7.71"/>
<rect x="256.54" y="48.13" class="st3" width="7.52" height="7.72"/>
<rect x="241.5" y="17.27" class="st3" width="7.52" height="7.72"/>
<rect x="241.5" y="32.71" class="st3" width="7.52" height="7.71"/>
<rect x="241.5" y="48.13" class="st3" width="7.52" height="7.72"/>
<rect x="264.06" y="40.42" class="st3" width="7.52" height="7.71"/>
<rect x="271.58" y="48.13" class="st3" width="7.52" height="7.72"/>
<rect x="264.06" y="24.99" class="st3" width="7.52" height="7.71"/>
<rect x="271.58" y="32.71" class="st3" width="7.52" height="7.71"/>
<rect x="279.1" y="40.42" class="st3" width="7.52" height="7.71"/>
<rect x="249.02" y="55.85" class="st3" width="7.52" height="7.71"/>
<rect x="264.06" y="55.85" class="st3" width="7.52" height="7.71"/>
<rect x="279.1" y="55.85" class="st3" width="7.52" height="7.71"/>
<rect x="286.62" y="48.13" class="st3" width="7.52" height="7.72"/>
<rect x="294.15" y="55.85" class="st3" width="7.52" height="7.71"/>
<rect x="294.15" y="40.42" class="st3" width="7.52" height="7.71"/>
<rect x="286.62" y="32.71" class="st3" width="7.52" height="7.71"/>
<rect x="279.1" y="24.99" class="st3" width="7.52" height="7.71"/>
<rect x="271.58" y="17.27" class="st3" width="7.52" height="7.72"/>
<rect x="264.06" y="9.56" class="st3" width="7.52" height="7.71"/>
<rect x="256.54" y="1.85" class="st3" width="7.52" height="7.71"/>
<rect x="271.58" y="1.85" class="st3" width="7.52" height="7.71"/>
<rect x="279.1" y="9.56" class="st3" width="7.52" height="7.71"/>
<rect x="286.62" y="1.85" class="st3" width="7.52" height="7.71"/>
<rect x="294.15" y="9.56" class="st3" width="7.52" height="7.71"/>
<rect x="286.62" y="17.27" class="st3" width="7.52" height="7.72"/>
<rect x="294.15" y="24.99" class="st3" width="7.52" height="7.71"/>
<rect x="301.67" y="1.85" class="st3" width="7.52" height="7.71"/>
<rect x="309.19" y="9.56" class="st3" width="7.52" height="7.71"/>
<rect x="316.71" y="17.27" class="st3" width="7.52" height="7.72"/>
<rect x="309.19" y="24.99" class="st3" width="7.52" height="7.71"/>
<rect x="316.71" y="32.71" class="st3" width="7.52" height="7.71"/>
<rect x="309.19" y="40.42" class="st3" width="7.52" height="7.71"/>
<rect x="316.71" y="48.13" class="st3" width="7.52" height="7.72"/>
<rect x="301.67" y="17.27" class="st3" width="7.52" height="7.72"/>
<rect x="301.67" y="32.71" class="st3" width="7.52" height="7.71"/>
<rect x="301.67" y="48.13" class="st3" width="7.52" height="7.72"/>
<rect x="324.23" y="40.42" class="st3" width="7.52" height="7.71"/>
<rect x="331.75" y="48.13" class="st3" width="7.52" height="7.72"/>
<rect x="324.23" y="24.99" class="st3" width="7.52" height="7.71"/>
<rect x="331.75" y="32.71" class="st3" width="7.52" height="7.71"/>
<rect x="339.27" y="40.42" class="st3" width="7.52" height="7.71"/>
<rect x="309.19" y="55.85" class="st3" width="7.52" height="7.71"/>
<rect x="324.23" y="55.85" class="st3" width="7.52" height="7.71"/>
<rect x="339.27" y="55.85" class="st3" width="7.52" height="7.71"/>
<rect x="346.79" y="48.13" class="st3" width="7.52" height="7.72"/>
<rect x="354.31" y="55.85" class="st3" width="7.52" height="7.71"/>
<rect x="354.31" y="40.42" class="st3" width="7.52" height="7.71"/>
<rect x="346.79" y="32.71" class="st3" width="7.52" height="7.71"/>
<rect x="339.27" y="24.99" class="st3" width="7.52" height="7.71"/>
<rect x="331.75" y="17.27" class="st3" width="7.52" height="7.72"/>
<rect x="324.23" y="9.56" class="st3" width="7.52" height="7.71"/>
<rect x="316.71" y="1.85" class="st3" width="7.52" height="7.71"/>
<rect x="331.75" y="1.85" class="st3" width="7.52" height="7.71"/>
<rect x="339.27" y="9.56" class="st3" width="7.52" height="7.71"/>
<rect x="346.79" y="1.85" class="st3" width="7.52" height="7.71"/>
<rect x="354.31" y="9.56" class="st3" width="7.52" height="7.71"/>
<rect x="346.79" y="17.27" class="st3" width="7.52" height="7.72"/>
<rect x="354.31" y="24.99" class="st3" width="7.52" height="7.71"/>
<rect x="361.83" y="17.27" class="st3" width="7.52" height="7.72"/>
<rect x="361.83" y="32.71" class="st3" width="7.52" height="7.71"/>
<rect x="361.83" y="48.13" class="st3" width="7.52" height="7.72"/>
<rect x="369.35" y="40.42" class="st3" width="7.52" height="7.71"/>
<rect x="376.87" y="48.13" class="st3" width="7.52" height="7.72"/>
<rect x="369.35" y="24.99" class="st3" width="7.52" height="7.71"/>
<rect x="376.87" y="32.71" class="st3" width="7.52" height="7.71"/>
<rect x="384.39" y="40.42" class="st3" width="7.52" height="7.71"/>
<rect x="369.35" y="55.85" class="st3" width="7.52" height="7.71"/>
<rect x="384.39" y="55.85" class="st3" width="7.52" height="7.71"/>
<rect x="391.91" y="48.13" class="st3" width="7.52" height="7.72"/>
<rect x="391.91" y="32.71" class="st3" width="7.52" height="7.71"/>
<rect x="384.39" y="24.99" class="st3" width="7.52" height="7.71"/>
<rect x="376.87" y="17.27" class="st3" width="7.52" height="7.72"/>
<rect x="369.35" y="9.56" class="st3" width="7.52" height="7.71"/>
<rect x="361.83" y="1.85" class="st3" width="7.52" height="7.71"/>
<rect x="376.87" y="1.85" class="st3" width="7.52" height="7.71"/>
<rect x="384.39" y="9.56" class="st3" width="7.52" height="7.71"/>
<rect x="391.91" y="1.85" class="st3" width="7.52" height="7.71"/>
<rect x="391.91" y="17.27" class="st3" width="7.52" height="7.72"/>
<rect x="76.06" y="63.56" class="st3" width="7.52" height="7.71"/>
<rect x="91.1" y="63.56" class="st3" width="7.52" height="7.71"/>
<rect x="106.14" y="63.56" class="st3" width="7.52" height="7.71"/>
<rect x="136.22" y="63.56" class="st3" width="7.52" height="7.71"/>
<rect x="121.18" y="63.56" class="st3" width="7.52" height="7.71"/>
<rect x="151.26" y="63.56" class="st3" width="7.52" height="7.71"/>
<rect x="166.3" y="63.56" class="st3" width="7.52" height="7.71"/>
<rect x="196.38" y="63.56" class="st3" width="7.52" height="7.71"/>
<rect x="181.34" y="63.56" class="st3" width="7.52" height="7.71"/>
<rect x="211.42" y="63.56" class="st3" width="7.52" height="7.71"/>
<rect x="226.46" y="63.56" class="st3" width="7.52" height="7.71"/>
<rect x="256.54" y="63.56" class="st3" width="7.52" height="7.71"/>
<rect x="241.5" y="63.56" class="st3" width="7.52" height="7.71"/>
<rect x="271.58" y="63.56" class="st3" width="7.52" height="7.71"/>
<rect x="286.62" y="63.56" class="st3" width="7.52" height="7.71"/>
<rect x="316.71" y="63.56" class="st3" width="7.52" height="7.71"/>
<rect x="301.67" y="63.56" class="st3" width="7.52" height="7.71"/>
<rect x="331.75" y="63.56" class="st3" width="7.52" height="7.71"/>
<rect x="346.79" y="63.56" class="st3" width="7.52" height="7.71"/>
<rect x="361.83" y="63.56" class="st3" width="7.52" height="7.71"/>
<rect x="376.87" y="63.56" class="st3" width="7.52" height="7.71"/>
<rect x="391.91" y="63.56" class="st3" width="7.52" height="7.71"/>
<rect x="399.43" y="9.56" class="st3" width="7.52" height="7.71"/>
<rect x="406.95" y="17.27" class="st3" width="7.52" height="7.72"/>
<rect x="399.43" y="24.99" class="st3" width="7.52" height="7.71"/>
<rect x="406.95" y="32.71" class="st3" width="7.52" height="7.71"/>
<rect x="399.43" y="40.42" class="st3" width="7.52" height="7.71"/>
<rect x="406.95" y="48.13" class="st3" width="7.52" height="7.72"/>
<rect x="414.47" y="40.42" class="st3" width="7.52" height="7.71"/>
<rect x="421.99" y="48.13" class="st3" width="7.52" height="7.72"/>
<rect x="414.47" y="24.99" class="st3" width="7.52" height="7.71"/>
<rect x="421.99" y="32.71" class="st3" width="7.52" height="7.71"/>
<rect x="429.51" y="40.42" class="st3" width="7.52" height="7.71"/>
<rect x="399.43" y="55.85" class="st3" width="7.52" height="7.71"/>
<rect x="414.47" y="55.85" class="st3" width="7.52" height="7.71"/>
<rect x="429.51" y="55.85" class="st3" width="7.52" height="7.71"/>
<rect x="437.03" y="48.13" class="st3" width="7.52" height="7.72"/>
<rect x="444.55" y="55.85" class="st3" width="7.52" height="7.71"/>
<rect x="444.55" y="40.42" class="st3" width="7.52" height="7.71"/>
<rect x="437.03" y="32.71" class="st3" width="7.52" height="7.71"/>
<rect x="429.51" y="24.99" class="st3" width="7.52" height="7.71"/>
<rect x="421.99" y="17.27" class="st3" width="7.52" height="7.72"/>
<rect x="414.47" y="9.56" class="st3" width="7.52" height="7.71"/>
<rect x="406.95" y="1.85" class="st3" width="7.52" height="7.71"/>
<rect x="421.99" y="1.85" class="st3" width="7.52" height="7.71"/>
<rect x="429.51" y="9.56" class="st3" width="7.52" height="7.71"/>
<rect x="437.03" y="1.85" class="st3" width="7.52" height="7.71"/>
<rect x="444.55" y="9.56" class="st3" width="7.52" height="7.71"/>
<rect x="437.03" y="17.27" class="st3" width="7.52" height="7.72"/>
<rect x="444.55" y="24.99" class="st3" width="7.52" height="7.71"/>
<rect x="452.07" y="1.85" class="st3" width="7.52" height="7.71"/>
<rect x="459.59" y="9.56" class="st3" width="7.52" height="7.71"/>
<rect x="467.11" y="17.27" class="st3" width="7.52" height="7.72"/>
<rect x="459.59" y="24.99" class="st3" width="7.52" height="7.71"/>
<rect x="467.11" y="32.71" class="st3" width="7.52" height="7.71"/>
<rect x="459.59" y="40.42" class="st3" width="7.52" height="7.71"/>
<rect x="467.11" y="48.13" class="st3" width="7.52" height="7.72"/>
<rect x="452.07" y="17.27" class="st3" width="7.52" height="7.72"/>
<rect x="452.07" y="32.71" class="st3" width="7.52" height="7.71"/>
<rect x="452.07" y="48.13" class="st3" width="7.52" height="7.72"/>
<rect x="474.63" y="40.42" class="st3" width="7.52" height="7.71"/>
<rect x="482.15" y="48.13" class="st3" width="7.52" height="7.72"/>
<rect x="474.63" y="24.99" class="st3" width="7.52" height="7.71"/>
<rect x="482.15" y="32.71" class="st3" width="7.52" height="7.71"/>
<rect x="489.67" y="40.42" class="st3" width="7.52" height="7.71"/>
<rect x="459.59" y="55.85" class="st3" width="7.52" height="7.71"/>
<rect x="474.63" y="55.85" class="st3" width="7.52" height="7.71"/>
<rect x="489.67" y="55.85" class="st3" width="7.52" height="7.71"/>
<rect x="497.19" y="48.13" class="st3" width="7.52" height="7.72"/>
<rect x="504.71" y="55.85" class="st3" width="7.52" height="7.71"/>
<rect x="504.71" y="40.42" class="st3" width="7.52" height="7.71"/>
<rect x="497.19" y="32.71" class="st3" width="7.52" height="7.71"/>
<rect x="489.67" y="24.99" class="st3" width="7.52" height="7.71"/>
<rect x="482.15" y="17.27" class="st3" width="7.52" height="7.72"/>
<rect x="474.63" y="9.56" class="st3" width="7.52" height="7.71"/>
<rect x="467.11" y="1.85" class="st3" width="7.52" height="7.71"/>
<rect x="482.15" y="1.85" class="st3" width="7.52" height="7.71"/>
<rect x="489.67" y="9.56" class="st3" width="7.52" height="7.71"/>
<rect x="497.19" y="1.85" class="st3" width="7.52" height="7.71"/>
<rect x="504.71" y="9.56" class="st3" width="7.52" height="7.71"/>
<rect x="497.19" y="17.27" class="st3" width="7.52" height="7.72"/>
<rect x="504.71" y="24.99" class="st3" width="7.52" height="7.71"/>
<rect x="512.23" y="17.27" class="st3" width="7.52" height="7.72"/>
<rect x="512.23" y="32.71" class="st3" width="7.52" height="7.71"/>
<rect x="512.23" y="48.13" class="st3" width="7.52" height="7.72"/>
<rect x="519.75" y="40.42" class="st3" width="7.52" height="7.71"/>
<rect x="527.27" y="48.13" class="st3" width="7.52" height="7.72"/>
<rect x="519.75" y="24.99" class="st3" width="7.52" height="7.71"/>
<rect x="527.27" y="32.71" class="st3" width="7.52" height="7.71"/>
<rect x="534.79" y="40.42" class="st3" width="7.52" height="7.71"/>
<rect x="519.75" y="55.85" class="st3" width="7.52" height="7.71"/>
<rect x="534.79" y="55.85" class="st3" width="7.52" height="7.71"/>
<rect x="542.31" y="48.13" class="st3" width="7.52" height="7.72"/>
<rect x="542.31" y="32.71" class="st3" width="7.52" height="7.71"/>
<rect x="534.79" y="24.99" class="st3" width="7.52" height="7.71"/>
<rect x="527.27" y="17.27" class="st3" width="7.52" height="7.72"/>
<rect x="519.75" y="9.56" class="st3" width="7.52" height="7.71"/>
<rect x="512.23" y="1.85" class="st3" width="7.52" height="7.71"/>
<rect x="527.27" y="1.85" class="st3" width="7.52" height="7.71"/>
<rect x="534.79" y="9.56" class="st3" width="7.52" height="7.71"/>
<rect x="542.31" y="17.27" class="st3" width="7.52" height="7.72"/>
<rect x="406.95" y="63.56" class="st3" width="7.52" height="7.71"/>
<rect x="421.99" y="63.56" class="st3" width="7.52" height="7.71"/>
<rect x="437.03" y="63.56" class="st3" width="7.52" height="7.71"/>
<rect x="467.11" y="63.56" class="st3" width="7.52" height="7.71"/>
<rect x="452.07" y="63.56" class="st3" width="7.52" height="7.71"/>
<rect x="482.15" y="63.56" class="st3" width="7.52" height="7.71"/>
<rect x="497.19" y="63.56" class="st3" width="7.52" height="7.71"/>
<rect x="512.23" y="63.56" class="st3" width="7.52" height="7.71"/>
<rect x="527.27" y="63.56" class="st3" width="7.52" height="7.71"/>
<rect x="542.31" y="63.56" class="st3" width="7.52" height="7.71"/>
<rect x="549.83" y="24.99" class="st3" width="7.52" height="7.71"/>
<rect x="557.35" y="32.71" class="st3" width="7.52" height="7.71"/>
<rect x="549.83" y="40.42" class="st3" width="7.52" height="7.71"/>
<rect x="557.35" y="48.13" class="st3" width="7.52" height="7.72"/>
<rect x="564.88" y="40.42" class="st3" width="7.52" height="7.71"/>
<rect x="572.39" y="48.13" class="st3" width="7.52" height="7.72"/>
<rect x="549.83" y="55.85" class="st3" width="7.52" height="7.71"/>
<rect x="564.87" y="55.85" class="st3" width="7.52" height="7.71"/>
<rect x="579.92" y="55.85" class="st3" width="7.52" height="7.71"/>
<rect x="587.43" y="48.13" class="st3" width="7.52" height="7.72"/>
<rect x="557.35" y="63.56" class="st3" width="7.52" height="7.71"/>
<rect x="572.39" y="63.56" class="st3" width="7.52" height="7.71"/>
<path class="st0" d="M596.88,54.36c0,0-30.02,2.86-63.17-54.34h338.11v72H568.14C568.14,72.02,581.23,57.57,596.88,54.36z"/>
<path class="st1" d="M594.13,54.1c15.43,1.11,18.33-10.51,34.22-27.42c7.81-8.31,19.87-7.5,19.87-7.5l11.39,23.52
	C659.61,42.69,645.08,80.69,594.13,54.1z"/>
<path class="st1" d="M698.97,0.76c-8.21,3.93-15.89,7.6-18.87,9.03c-7.6,3.63-25.75,5.79-25.75,5.79l11.39,23.51
	c0,0,12.46-13.91,20.06-17.55c6.5-3.12,35.33-16.91,43.43-20.78H698.97z"/>
</svg>
