<?xml version="1.0" encoding="utf-8"?>
<!DOCTYPE svg PUBLIC "-//W3C//DTD SVG 1.1//EN" "http://www.w3.org/Graphics/SVG/1.1/DTD/svg11.dtd">
<svg version="1.1" id="Calque_1" xmlns="http://www.w3.org/2000/svg" xmlns:xlink="http://www.w3.org/1999/xlink" x="0px" y="0px"
	 width="872px" height="72px" viewBox="0 0 872 72" style="enable-background:new 0 0 872 72;" xml:space="preserve">
<style type="text/css"><![CDATA[
	.st0{fill:#7D7D7D;} .st1{opacity:0.5;fill:#4D4D4D;enable-background:new;} .st2{fill:#4D4D4D;} .st3{fill:#575757;enable-background:new;}
]]></style>
<rect class="st2" width="872" height="72"/>
<rect x="0.9" y="1.9" class="st3" width="7.5" height="7.7"/>
<rect x="8.4" y="9.6" class="st3" width="7.5" height="7.7"/>
<rect x="15.9" y="17.3" class="st3" width="7.5" height="7.7"/>
<rect x="8.4" y="25" class="st3" width="7.5" height="7.7"/>
<rect x="15.9" y="32.7" class="st3" width="7.5" height="7.7"/>
<rect x="8.4" y="40.4" class="st3" width="7.5" height="7.699"/>
<rect x="15.9" y="48.1" class="st3" width="7.5" height="7.7"/>
<rect x="0.9" y="17.3" class="st3" width="7.5" height="7.7"/>
<rect x="0.9" y="32.7" class="st3" width="7.5" height="7.7"/>
<rect x="0.9" y="48.1" class="st3" width="7.5" height="7.7"/>
<rect x="22.4" y="40.4" class="st3" width="7.5" height="7.699"/>
<rect x="30.9" y="48.1" class="st3" width="7.5" height="7.7"/>
<rect x="23.4" y="25" class="st3" width="7.5" height="7.7"/>
<rect x="30.9" y="32.7" class="st3" width="7.5" height="7.7"/>
<rect x="38.5" y="40.4" class="st3" width="7.5" height="7.699"/>
<rect x="8.4" y="55.8" class="st3" width="7.5" height="7.7"/>
<rect x="23.4" y="55.8" class="st3" width="7.5" height="7.7"/>
<rect x="38.5" y="55.8" class="st3" width="7.5" height="7.7"/>
<rect x="46" y="48.1" class="st3" width="7.5" height="7.7"/>
<rect x="53.5" y="55.8" class="st3" width="7.5" height="7.7"/>
<rect x="53.5" y="40.4" class="st3" width="7.5" height="7.699"/>
<rect x="46" y="32.7" class="st3" width="7.5" height="7.7"/>
<rect x="38.5" y="25" class="st3" width="7.5" height="7.7"/>
<rect x="30.9" y="17.3" class="st3" width="7.5" height="7.7"/>
<rect x="23.4" y="9.6" class="st3" width="7.5" height="7.7"/>
<rect x="15.9" y="1.9" class="st3" width="7.5" height="7.7"/>
<rect x="30.9" y="1.9" class="st3" width="7.5" height="7.7"/>
<rect x="38.5" y="9.6" class="st3" width="7.5" height="7.7"/>
<rect x="46" y="1.9" class="st3" width="7.5" height="7.7"/>
<rect x="53.5" y="9.6" class="st3" width="7.5" height="7.7"/>
<rect x="46" y="17.3" class="st3" width="7.5" height="7.7"/>
<rect x="53.5" y="25" class="st3" width="7.5" height="7.7"/>
<rect x="61" y="1.9" class="st3" width="7.5" height="7.7"/>
<rect x="68.5" y="9.6" class="st3" width="7.5" height="7.7"/>
<rect x="76.1" y="17.3" class="st3" width="7.5" height="7.7"/>
<rect x="68.5" y="25" class="st3" width="7.5" height="7.7"/>
<rect x="76.1" y="32.7" class="st3" width="7.5" height="7.7"/>
<rect x="68.5" y="40.4" class="st3" width="7.5" height="7.699"/>
<rect x="76.1" y="48.1" class="st3" width="7.5" height="7.7"/>
<rect x="61" y="17.3" class="st3" width="7.5" height="7.7"/>
<rect x="61" y="32.7" class="st3" width="7.5" height="7.7"/>
<rect x="61" y="48.1" class="st3" width="7.5" height="7.7"/>
<rect x="83.6" y="40.4" class="st3" width="7.5" height="7.699"/>
<rect x="91.1" y="48.1" class="st3" width="7.5" height="7.7"/>
<rect x="83.6" y="25" class="st3" width="7.5" height="7.7"/>
<rect x="91.1" y="32.7" class="st3" width="7.5" height="7.7"/>
<rect x="98.6" y="40.4" class="st3" width="7.5" height="7.699"/>
<rect x="68.5" y="55.8" class="st3" width="7.5" height="7.7"/>
<rect x="15.9" y="63.6" class="st3" width="7.5" height="7.7"/>
<rect x="0.9" y="63.6" class="st3" width="7.5" height="7.7"/>
<rect x="30.9" y="63.6" class="st3" width="7.5" height="7.7"/>
<rect x="46" y="63.6" class="st3" width="7.5" height="7.7"/>
<rect x="61" y="63.6" class="st3" width="7.5" height="7.7"/>
<rect x="83.6" y="55.8" class="st3" width="7.5" height="7.7"/>
<rect x="98.6" y="55.8" class="st3" width="7.5" height="7.7"/>
<rect x="106.1" y="48.1" class="st3" width="7.5" height="7.7"/>
<rect x="113.7" y="55.8" class="st3" width="7.5" height="7.7"/>
<rect x="113.7" y="40.4" class="st3" width="7.5" height="7.699"/>
<rect x="106.1" y="32.7" class="st3" width="7.5" height="7.7"/>
<rect x="98.6" y="25" class="st3" width="7.5" height="7.7"/>
<rect x="91.1" y="17.3" class="st3" width="7.5" height="7.7"/>
<rect x="83.6" y="9.6" class="st3" width="7.5" height="7.7"/>
<rect x="76.1" y="1.9" class="st3" width="7.5" height="7.7"/>
<rect x="91.1" y="1.9" class="st3" width="7.5" height="7.7"/>
<rect x="98.6" y="9.6" class="st3" width="7.5" height="7.7"/>
<rect x="106.1" y="1.9" class="st3" width="7.5" height="7.7"/>
<rect x="113.7" y="9.6" class="st3" width="7.5" height="7.7"/>
<rect x="106.1" y="17.3" class="st3" width="7.5" height="7.7"/>
<rect x="113.7" y="25" class="st3" width="7.5" height="7.7"/>
<rect x="121.2" y="1.9" class="st3" width="7.5" height="7.7"/>
<rect x="128.7" y="9.6" class="st3" width="7.5" height="7.7"/>
<rect x="136.2" y="17.3" class="st3" width="7.5" height="7.7"/>
<rect x="128.7" y="25" class="st3" width="7.5" height="7.7"/>
<rect x="136.2" y="32.7" class="st3" width="7.5" height="7.7"/>
<rect x="128.7" y="40.4" class="st3" width="7.5" height="7.699"/>
<rect x="136.2" y="48.1" class="st3" width="7.5" height="7.7"/>
<rect x="121.2" y="17.3" class="st3" width="7.5" height="7.7"/>
<rect x="121.2" y="32.7" class="st3" width="7.5" height="7.7"/>
<rect x="121.2" y="48.1" class="st3" width="7.5" height="7.7"/>
<rect x="143.7" y="40.4" class="st3" width="7.5" height="7.699"/>
<rect x="151.3" y="48.1" class="st3" width="7.5" height="7.7"/>
<rect x="143.7" y="25" class="st3" width="7.5" height="7.7"/>
<rect x="151.3" y="32.7" class="st3" width="7.5" height="7.7"/>
<rect x="158.8" y="40.4" class="st3" width="7.5" height="7.699"/>
<rect x="128.7" y="55.8" class="st3" width="7.5" height="7.7"/>
<rect x="143.7" y="55.8" class="st3" width="7.5" height="7.7"/>
<rect x="158.8" y="55.8" class="st3" width="7.5" height="7.7"/>
<rect x="166.3" y="48.1" class="st3" width="7.5" height="7.7"/>
<rect x="173.8" y="55.8" class="st3" width="7.5" height="7.7"/>
<rect x="173.8" y="40.4" class="st3" width="7.5" height="7.699"/>
<rect x="166.3" y="32.7" class="st3" width="7.5" height="7.7"/>
<rect x="158.8" y="25" class="st3" width="7.5" height="7.7"/>
<rect x="151.3" y="17.3" class="st3" width="7.5" height="7.7"/>
<rect x="143.7" y="9.6" class="st3" width="7.5" height="7.7"/>
<rect x="136.2" y="1.9" class="st3" width="7.5" height="7.7"/>
<rect x="151.3" y="1.9" class="st3" width="7.5" height="7.7"/>
<rect x="158.8" y="9.6" class="st3" width="7.5" height="7.7"/>
<rect x="166.3" y="1.9" class="st3" width="7.5" height="7.7"/>
<rect x="173.8" y="9.6" class="st3" width="7.5" height="7.7"/>
<rect x="166.3" y="17.3" class="st3" width="7.5" height="7.7"/>
<rect x="173.8" y="25" class="st3" width="7.5" height="7.7"/>
<rect x="181.3" y="1.9" class="st3" width="7.5" height="7.7"/>
<rect x="188.9" y="9.6" class="st3" width="7.5" height="7.7"/>
<rect x="196.4" y="17.3" class="st3" width="7.5" height="7.7"/>
<rect x="188.9" y="25" class="st3" width="7.5" height="7.7"/>
<rect x="196.4" y="32.7" class="st3" width="7.5" height="7.7"/>
<rect x="188.9" y="40.4" class="st3" width="7.5" height="7.699"/>
<rect x="196.4" y="48.1" class="st3" width="7.5" height="7.7"/>
<rect x="181.3" y="17.3" class="st3" width="7.5" height="7.7"/>
<rect x="181.3" y="32.7" class="st3" width="7.5" height="7.7"/>
<rect x="181.3" y="48.1" class="st3" width="7.5" height="7.7"/>
<rect x="203.9" y="40.4" class="st3" width="7.5" height="7.699"/>
<rect x="211.4" y="48.1" class="st3" width="7.5" height="7.7"/>
<rect x="203.9" y="25" class="st3" width="7.5" height="7.7"/>
<rect x="211.4" y="32.7" class="st3" width="7.5" height="7.7"/>
<rect x="218.9" y="40.4" class="st3" width="7.5" height="7.699"/>
<rect x="188.9" y="55.8" class="st3" width="7.5" height="7.7"/>
<rect x="203.9" y="55.8" class="st3" width="7.5" height="7.7"/>
<rect x="218.9" y="55.8" class="st3" width="7.5" height="7.7"/>
<rect x="226.5" y="48.1" class="st3" width="7.5" height="7.7"/>
<rect x="234" y="55.8" class="st3" width="7.5" height="7.7"/>
<rect x="234" y="40.4" class="st3" width="7.5" height="7.699"/>
<rect x="226.5" y="32.7" class="st3" width="7.5" height="7.7"/>
<rect x="218.9" y="25" class="st3" width="7.5" height="7.7"/>
<rect x="211.4" y="17.3" class="st3" width="7.5" height="7.7"/>
<rect x="203.9" y="9.6" class="st3" width="7.5" height="7.7"/>
<rect x="196.4" y="1.9" class="st3" width="7.5" height="7.7"/>
<rect x="211.4" y="1.9" class="st3" width="7.5" height="7.7"/>
<rect x="218.9" y="9.6" class="st3" width="7.5" height="7.7"/>
<rect x="226.5" y="1.9" class="st3" width="7.5" height="7.7"/>
<rect x="234" y="9.6" class="st3" width="7.5" height="7.7"/>
<rect x="226.5" y="17.3" class="st3" width="7.5" height="7.7"/>
<rect x="234" y="25" class="st3" width="7.5" height="7.7"/>
<rect x="241.5" y="1.9" class="st3" width="7.5" height="7.7"/>
<rect x="249" y="9.6" class="st3" width="7.5" height="7.7"/>
<rect x="256.5" y="17.3" class="st3" width="7.5" height="7.7"/>
<rect x="249" y="25" class="st3" width="7.5" height="7.7"/>
<rect x="256.5" y="32.7" class="st3" width="7.5" height="7.7"/>
<rect x="249" y="40.4" class="st3" width="7.5" height="7.699"/>
<rect x="256.5" y="48.1" class="st3" width="7.5" height="7.7"/>
<rect x="241.5" y="17.3" class="st3" width="7.5" height="7.7"/>
<rect x="241.5" y="32.7" class="st3" width="7.5" height="7.7"/>
<rect x="241.5" y="48.1" class="st3" width="7.5" height="7.7"/>
<rect x="264.1" y="40.4" class="st3" width="7.5" height="7.699"/>
<rect x="271.6" y="48.1" class="st3" width="7.5" height="7.7"/>
<rect x="264.1" y="25" class="st3" width="7.5" height="7.7"/>
<rect x="271.6" y="32.7" class="st3" width="7.5" height="7.7"/>
<rect x="279.1" y="40.4" class="st3" width="7.5" height="7.699"/>
<rect x="249" y="55.8" class="st3" width="7.5" height="7.7"/>
<rect x="264.1" y="55.8" class="st3" width="7.5" height="7.7"/>
<rect x="279.1" y="55.8" class="st3" width="7.5" height="7.7"/>
<rect x="286.6" y="48.1" class="st3" width="7.5" height="7.7"/>
<rect x="294.1" y="55.8" class="st3" width="7.5" height="7.7"/>
<rect x="294.1" y="40.4" class="st3" width="7.5" height="7.699"/>
<rect x="286.6" y="32.7" class="st3" width="7.5" height="7.7"/>
<rect x="279.1" y="25" class="st3" width="7.5" height="7.7"/>
<rect x="271.6" y="17.3" class="st3" width="7.5" height="7.7"/>
<rect x="264.1" y="9.6" class="st3" width="7.5" height="7.7"/>
<rect x="256.5" y="1.9" class="st3" width="7.5" height="7.7"/>
<rect x="271.6" y="1.9" class="st3" width="7.5" height="7.7"/>
<rect x="279.1" y="9.6" class="st3" width="7.5" height="7.7"/>
<rect x="286.6" y="1.9" class="st3" width="7.5" height="7.7"/>
<rect x="294.1" y="9.6" class="st3" width="7.5" height="7.7"/>
<rect x="286.6" y="17.3" class="st3" width="7.5" height="7.7"/>
<rect x="294.1" y="25" class="st3" width="7.5" height="7.7"/>
<rect x="301.7" y="1.9" class="st3" width="7.5" height="7.7"/>
<rect x="309.2" y="9.6" class="st3" width="7.5" height="7.7"/>
<rect x="316.7" y="17.3" class="st3" width="7.5" height="7.7"/>
<rect x="309.2" y="25" class="st3" width="7.5" height="7.7"/>
<rect x="316.7" y="32.7" class="st3" width="7.5" height="7.7"/>
<rect x="309.2" y="40.4" class="st3" width="7.5" height="7.699"/>
<rect x="316.7" y="48.1" class="st3" width="7.5" height="7.7"/>
<rect x="301.7" y="17.3" class="st3" width="7.5" height="7.7"/>
<rect x="301.7" y="32.7" class="st3" width="7.5" height="7.7"/>
<rect x="301.7" y="48.1" class="st3" width="7.5" height="7.7"/>
<rect x="324.2" y="40.4" class="st3" width="7.5" height="7.699"/>
<rect x="331.8" y="48.1" class="st3" width="7.5" height="7.7"/>
<rect x="324.2" y="25" class="st3" width="7.5" height="7.7"/>
<rect x="331.8" y="32.7" class="st3" width="7.5" height="7.7"/>
<rect x="339.3" y="40.4" class="st3" width="7.5" height="7.699"/>
<rect x="309.2" y="55.8" class="st3" width="7.5" height="7.7"/>
<rect x="324.2" y="55.8" class="st3" width="7.5" height="7.7"/>
<rect x="339.3" y="55.8" class="st3" width="7.5" height="7.7"/>
<rect x="346.8" y="48.1" class="st3" width="7.5" height="7.7"/>
<rect x="354.3" y="55.8" class="st3" width="7.5" height="7.7"/>
<rect x="354.3" y="40.4" class="st3" width="7.5" height="7.699"/>
<rect x="346.8" y="32.7" class="st3" width="7.5" height="7.7"/>
<rect x="339.3" y="25" class="st3" width="7.5" height="7.7"/>
<rect x="331.8" y="17.3" class="st3" width="7.5" height="7.7"/>
<rect x="324.2" y="9.6" class="st3" width="7.5" height="7.7"/>
<rect x="316.7" y="1.9" class="st3" width="7.5" height="7.7"/>
<rect x="331.8" y="1.9" class="st3" width="7.5" height="7.7"/>
<rect x="339.3" y="9.6" class="st3" width="7.5" height="7.7"/>
<rect x="346.8" y="1.9" class="st3" width="7.5" height="7.7"/>
<rect x="354.3" y="9.6" class="st3" width="7.5" height="7.7"/>
<rect x="346.8" y="17.3" class="st3" width="7.5" height="7.7"/>
<rect x="354.3" y="25" class="st3" width="7.5" height="7.7"/>
<rect x="361.8" y="17.3" class="st3" width="7.5" height="7.7"/>
<rect x="361.8" y="32.7" class="st3" width="7.5" height="7.7"/>
<rect x="361.8" y="48.1" class="st3" width="7.5" height="7.7"/>
<rect x="369.3" y="40.4" class="st3" width="7.5" height="7.699"/>
<rect x="376.9" y="48.1" class="st3" width="7.5" height="7.7"/>
<rect x="369.3" y="25" class="st3" width="7.5" height="7.7"/>
<rect x="376.9" y="32.7" class="st3" width="7.5" height="7.7"/>
<rect x="384.4" y="40.4" class="st3" width="7.5" height="7.699"/>
<rect x="369.3" y="55.8" class="st3" width="7.5" height="7.7"/>
<rect x="384.4" y="55.8" class="st3" width="7.5" height="7.7"/>
<rect x="391.9" y="48.1" class="st3" width="7.5" height="7.7"/>
<rect x="391.9" y="32.7" class="st3" width="7.5" height="7.7"/>
<rect x="384.4" y="25" class="st3" width="7.5" height="7.7"/>
<rect x="376.9" y="17.3" class="st3" width="7.5" height="7.7"/>
<rect x="369.3" y="9.6" class="st3" width="7.5" height="7.7"/>
<rect x="361.8" y="1.9" class="st3" width="7.5" height="7.7"/>
<rect x="376.9" y="1.9" class="st3" width="7.5" height="7.7"/>
<rect x="384.4" y="9.6" class="st3" width="7.5" height="7.7"/>
<rect x="391.9" y="1.9" class="st3" width="7.5" height="7.7"/>
<rect x="391.9" y="17.3" class="st3" width="7.5" height="7.7"/>
<rect x="76.1" y="63.6" class="st3" width="7.5" height="7.7"/>
<rect x="91.1" y="63.6" class="st3" width="7.5" height="7.7"/>
<rect x="106.1" y="63.6" class="st3" width="7.5" height="7.7"/>
<rect x="136.2" y="63.6" class="st3" width="7.5" height="7.7"/>
<rect x="121.2" y="63.6" class="st3" width="7.5" height="7.7"/>
<rect x="151.3" y="63.6" class="st3" width="7.5" height="7.7"/>
<rect x="166.3" y="63.6" class="st3" width="7.5" height="7.7"/>
<rect x="196.4" y="63.6" class="st3" width="7.5" height="7.7"/>
<rect x="181.3" y="63.6" class="st3" width="7.5" height="7.7"/>
<rect x="211.4" y="63.6" class="st3" width="7.5" height="7.7"/>
<rect x="226.5" y="63.6" class="st3" width="7.5" height="7.7"/>
<rect x="256.5" y="63.6" class="st3" width="7.5" height="7.7"/>
<rect x="241.5" y="63.6" class="st3" width="7.5" height="7.7"/>
<rect x="271.6" y="63.6" class="st3" width="7.5" height="7.7"/>
<rect x="286.6" y="63.6" class="st3" width="7.5" height="7.7"/>
<rect x="316.7" y="63.6" class="st3" width="7.5" height="7.7"/>
<rect x="301.7" y="63.6" class="st3" width="7.5" height="7.7"/>
<rect x="331.8" y="63.6" class="st3" width="7.5" height="7.7"/>
<rect x="346.8" y="63.6" class="st3" width="7.5" height="7.7"/>
<rect x="361.8" y="63.6" class="st3" width="7.5" height="7.7"/>
<rect x="376.9" y="63.6" class="st3" width="7.5" height="7.7"/>
<rect x="391.9" y="63.6" class="st3" width="7.5" height="7.7"/>
<rect x="399.4" y="9.6" class="st3" width="7.5" height="7.7"/>
<rect x="407" y="17.3" class="st3" width="7.5" height="7.7"/>
<rect x="399.4" y="25" class="st3" width="7.5" height="7.7"/>
<rect x="407" y="32.7" class="st3" width="7.5" height="7.7"/>
<rect x="399.4" y="40.4" class="st3" width="7.5" height="7.699"/>
<rect x="407" y="48.1" class="st3" width="7.5" height="7.7"/>
<rect x="414.5" y="40.4" class="st3" width="7.5" height="7.699"/>
<rect x="422" y="48.1" class="st3" width="7.5" height="7.7"/>
<rect x="414.5" y="25" class="st3" width="7.5" height="7.7"/>
<rect x="422" y="32.7" class="st3" width="7.5" height="7.7"/>
<rect x="429.5" y="40.4" class="st3" width="7.5" height="7.699"/>
<rect x="399.4" y="55.8" class="st3" width="7.5" height="7.7"/>
<rect x="414.5" y="55.8" class="st3" width="7.5" height="7.7"/>
<rect x="429.5" y="55.8" class="st3" width="7.5" height="7.7"/>
<rect x="437" y="48.1" class="st3" width="7.5" height="7.7"/>
<rect x="444.5" y="55.8" class="st3" width="7.5" height="7.7"/>
<rect x="444.5" y="40.4" class="st3" width="7.5" height="7.699"/>
<rect x="437" y="32.7" class="st3" width="7.5" height="7.7"/>
<rect x="429.5" y="25" class="st3" width="7.5" height="7.7"/>
<rect x="422" y="17.3" class="st3" width="7.5" height="7.7"/>
<rect x="414.5" y="9.6" class="st3" width="7.5" height="7.7"/>
<rect x="407" y="1.9" class="st3" width="7.5" height="7.7"/>
<rect x="422" y="1.9" class="st3" width="7.5" height="7.7"/>
<rect x="429.5" y="9.6" class="st3" width="7.5" height="7.7"/>
<rect x="437" y="1.9" class="st3" width="7.5" height="7.7"/>
<rect x="444.5" y="9.6" class="st3" width="7.5" height="7.7"/>
<rect x="437" y="17.3" class="st3" width="7.5" height="7.7"/>
<rect x="444.5" y="25" class="st3" width="7.5" height="7.7"/>
<rect x="452.1" y="1.9" class="st3" width="7.5" height="7.7"/>
<rect x="459.6" y="9.6" class="st3" width="7.5" height="7.7"/>
<rect x="467.1" y="17.3" class="st3" width="7.5" height="7.7"/>
<rect x="459.6" y="25" class="st3" width="7.5" height="7.7"/>
<rect x="467.1" y="32.7" class="st3" width="7.5" height="7.7"/>
<rect x="459.6" y="40.4" class="st3" width="7.5" height="7.699"/>
<rect x="467.1" y="48.1" class="st3" width="7.5" height="7.7"/>
<rect x="452.1" y="17.3" class="st3" width="7.5" height="7.7"/>
<rect x="452.1" y="32.7" class="st3" width="7.5" height="7.7"/>
<rect x="452.1" y="48.1" class="st3" width="7.5" height="7.7"/>
<rect x="474.6" y="40.4" class="st3" width="7.5" height="7.699"/>
<rect x="482.2" y="48.1" class="st3" width="7.5" height="7.7"/>
<rect x="474.6" y="25" class="st3" width="7.5" height="7.7"/>
<rect x="482.2" y="32.7" class="st3" width="7.5" height="7.7"/>
<rect x="489.7" y="40.4" class="st3" width="7.5" height="7.699"/>
<rect x="459.6" y="55.8" class="st3" width="7.5" height="7.7"/>
<rect x="474.6" y="55.8" class="st3" width="7.5" height="7.7"/>
<rect x="489.7" y="55.8" class="st3" width="7.5" height="7.7"/>
<rect x="497.2" y="48.1" class="st3" width="7.5" height="7.7"/>
<rect x="504.7" y="55.8" class="st3" width="7.5" height="7.7"/>
<rect x="504.7" y="40.4" class="st3" width="7.5" height="7.699"/>
<rect x="497.2" y="32.7" class="st3" width="7.5" height="7.7"/>
<rect x="489.7" y="25" class="st3" width="7.5" height="7.7"/>
<rect x="482.2" y="17.3" class="st3" width="7.5" height="7.7"/>
<rect x="474.6" y="9.6" class="st3" width="7.5" height="7.7"/>
<rect x="467.1" y="1.9" class="st3" width="7.5" height="7.7"/>
<rect x="482.2" y="1.9" class="st3" width="7.5" height="7.7"/>
<rect x="489.7" y="9.6" class="st3" width="7.5" height="7.7"/>
<rect x="497.2" y="1.9" class="st3" width="7.5" height="7.7"/>
<rect x="504.7" y="9.6" class="st3" width="7.5" height="7.7"/>
<rect x="497.2" y="17.3" class="st3" width="7.5" height="7.7"/>
<rect x="504.7" y="25" class="st3" width="7.5" height="7.7"/>
<rect x="512.2" y="17.3" class="st3" width="7.5" height="7.7"/>
<rect x="512.2" y="32.7" class="st3" width="7.5" height="7.7"/>
<rect x="512.2" y="48.1" class="st3" width="7.5" height="7.7"/>
<rect x="519.8" y="40.4" class="st3" width="7.5" height="7.699"/>
<rect x="527.3" y="48.1" class="st3" width="7.5" height="7.7"/>
<rect x="519.8" y="25" class="st3" width="7.5" height="7.7"/>
<rect x="527.3" y="32.7" class="st3" width="7.5" height="7.7"/>
<rect x="534.8" y="40.4" class="st3" width="7.5" height="7.699"/>
<rect x="519.8" y="55.8" class="st3" width="7.5" height="7.7"/>
<rect x="534.8" y="55.8" class="st3" width="7.5" height="7.7"/>
<rect x="542.3" y="48.1" class="st3" width="7.5" height="7.7"/>
<rect x="542.3" y="32.7" class="st3" width="7.5" height="7.7"/>
<rect x="534.8" y="25" class="st3" width="7.5" height="7.7"/>
<rect x="527.3" y="17.3" class="st3" width="7.5" height="7.7"/>
<rect x="519.8" y="9.6" class="st3" width="7.5" height="7.7"/>
<rect x="512.2" y="1.9" class="st3" width="7.5" height="7.7"/>
<rect x="527.3" y="1.9" class="st3" width="7.5" height="7.7"/>
<rect x="534.8" y="9.6" class="st3" width="7.5" height="7.7"/>
<rect x="542.3" y="17.3" class="st3" width="7.5" height="7.7"/>
<rect x="407" y="63.6" class="st3" width="7.5" height="7.7"/>
<rect x="422" y="63.6" class="st3" width="7.5" height="7.7"/>
<rect x="437" y="63.6" class="st3" width="7.5" height="7.7"/>
<rect x="467.1" y="63.6" class="st3" width="7.5" height="7.7"/>
<rect x="452.1" y="63.6" class="st3" width="7.5" height="7.7"/>
<rect x="482.2" y="63.6" class="st3" width="7.5" height="7.7"/>
<rect x="497.2" y="63.6" class="st3" width="7.5" height="7.7"/>
<rect x="512.2" y="63.6" class="st3" width="7.5" height="7.7"/>
<rect x="527.3" y="63.6" class="st3" width="7.5" height="7.7"/>
<rect x="542.3" y="63.6" class="st3" width="7.5" height="7.7"/>
<rect x="549.8" y="25" class="st3" width="7.5" height="7.7"/>
<rect x="557.3" y="32.7" class="st3" width="7.5" height="7.7"/>
<rect x="549.8" y="40.4" class="st3" width="7.5" height="7.699"/>
<rect x="557.3" y="48.1" class="st3" width="7.5" height="7.7"/>
<rect x="564.9" y="40.4" class="st3" width="7.5" height="7.699"/>
<rect x="572.4" y="48.1" class="st3" width="7.5" height="7.7"/>
<rect x="549.8" y="55.8" class="st3" width="7.5" height="7.7"/>
<rect x="564.9" y="55.8" class="st3" width="7.5" height="7.7"/>
<rect x="579.9" y="55.8" class="st3" width="7.5" height="7.7"/>
<rect x="587.4" y="48.1" class="st3" width="7.5" height="7.7"/>
<rect x="557.3" y="63.6" class="st3" width="7.5" height="7.7"/>
<rect x="572.4" y="63.6" class="st3" width="7.5" height="7.7"/>
<path class="st0" d="M596.9,54.4c0,0-30,2.899-63.2-54.3h338.1v72H568.1C568.1,72,581.2,57.6,596.9,54.4z"/>
<path class="st1" d="M594.1,54.1C609.5,55.2,612.4,43.6,628.3,26.7c7.8-8.3,19.9-7.5,19.9-7.5L659.6,42.7
	C659.6,42.7,645.1,80.7,594.1,54.1z"/>
<path class="st1" d="M699,0.8c-8.2,3.9-15.9,7.6-18.9,9c-7.6,3.6-25.8,5.8-25.8,5.8l11.4,23.5c0,0,12.5-13.899,20.1-17.5
	c6.5-3.1,35.3-16.9,43.4-20.8H699z"/>
</svg>
