<svg xmlns="http://www.w3.org/2000/svg" width="22" height="22" viewBox="-4 -2 22 22" enable-background="new -4 -2 22 22"><path fill="#A198C0" d="M-3 14.92h4.08V19H-3z"/><path fill="#8379AD" d="M.08 15.92V18H-2v-2.08H.08m2-2H-4V20h6.08v-6.08z"/><path fill="#A198C0" d="M-3 2.13h4.08v4.08H-3z"/><path fill="#8379AD" d="M.08 3.13v2.08H-2V3.13H.08m2-2H-4v6.08h6.08V1.13z"/><path fill="#A198C0" d="M11.834-1.004h4.08v4.08h-4.08z"/><path fill="#8379AD" d="M14.914-.004v2.08h-2.08v-2.08h2.08m2-2h-6.08v6.08h6.08v-6.08z"/><path fill="#A198C0" d="M6.365 7.806h4.08v4.08h-4.08z"/><path fill="#8379AD" d="M9.445 8.806v2.08h-2.08v-2.08h2.08m2-2h-6.08v6.08h6.08v-6.08z"/><path fill="#A198C0" d="M12.92 14.045H17v4.08h-4.08z"/><path fill="#8379AD" d="M16 15.045v2.08h-2.08v-2.08H16m2-2h-6.08v6.08H18v-6.08z"/></svg>