<?xml version="1.0" encoding="utf-8"?>
<!-- Generator: Adobe Illustrator 15.1.0, SVG Export Plug-In . SVG Version: 6.00 Build 0)  -->
<!DOCTYPE svg PUBLIC "-//W3C//DTD SVG 1.1//EN" "http://www.w3.org/Graphics/SVG/1.1/DTD/svg11.dtd">
<svg version="1.1" id="Calque_1" xmlns="http://www.w3.org/2000/svg" xmlns:xlink="http://www.w3.org/1999/xlink" x="0px" y="0px"
	 width="22px" height="22px" viewBox="0 0 22 22" enable-background="new 0 0 22 22" xml:space="preserve">
<g>
	
		<rect x="3.068" y="3.037" opacity="0.44" fill="#A198C0" stroke="#8379AD" stroke-width="2" enable-background="new    " width="15.927" height="15.927"/>
	<rect x="3.068" y="3.037" fill="none" stroke="#8379AD" stroke-width="2" width="15.927" height="15.928"/>
	<g>
		<rect x="16.892" y="1" fill="#A198C0" width="4.081" height="4.082"/>
		<path fill="#8379AD" d="M19.973,2v2.082h-2.081V2H19.973 M21.973,0h-6.081v6.082h6.081V0L21.973,0z"/>
	</g>
	<g>
		<rect x="16.892" y="16.918" fill="#A198C0" width="4.081" height="4.082"/>
		<path fill="#8379AD" d="M19.973,17.918V20h-2.081v-2.082H19.973 M21.973,15.918h-6.081V22h6.081V15.918L21.973,15.918z"/>
	</g>
	<g>
		<rect x="1.027" y="16.918" fill="#A198C0" width="4.081" height="4.082"/>
		<path fill="#8379AD" d="M4.108,17.918V20H2.027v-2.082H4.108 M6.108,15.918H0.027V22h6.081V15.918L6.108,15.918z"/>
	</g>
	<g>
		<rect x="1.027" y="1" fill="#A198C0" width="4.081" height="4.082"/>
		<path fill="#8379AD" d="M4.108,2v2.082H2.027V2H4.108 M6.108,0H0.027v6.082h6.081V0L6.108,0z"/>
	</g>
</g>
</svg>
