<?xml version="1.0" encoding="utf-8"?>
<!-- Generator: Adobe Illustrator 15.1.0, SVG Export Plug-In . SVG Version: 6.00 Build 0)  -->
<!DOCTYPE svg PUBLIC "-//W3C//DTD SVG 1.1//EN" "http://www.w3.org/Graphics/SVG/1.1/DTD/svg11.dtd">
<svg version="1.1" id="Calque_1" xmlns="http://www.w3.org/2000/svg" xmlns:xlink="http://www.w3.org/1999/xlink" x="0px" y="0px"
	 width="872px" height="72px" viewBox="0 0 872 72" enable-background="new 0 0 872 72" xml:space="preserve">
<rect x="0.175" fill="#A198C0" fill-opacity="0.5" width="872" height="72"/>
<g opacity="0.75">
	
		<rect x="566.843" y="14.347" transform="matrix(-1 -0.0046 0.0046 -1 1136.5472 34.3221)" opacity="0.13" fill="#3D3D3C" stroke="#000000" stroke-width="2" enable-background="new    " width="2.941" height="2.986"/>
	
		<rect x="554.312" y="39.504" transform="matrix(-1 -0.004 0.004 -1 1111.3947 84.2115)" opacity="0.13" fill="#3D3D3C" stroke="#000000" stroke-width="2" enable-background="new    " width="2.939" height="2.988"/>
	
		<rect x="547.257" y="24.181" transform="matrix(-1 -0.0046 0.0046 -1 1097.3298 53.8989)" opacity="0.13" fill="#3D3D3C" stroke="#000000" stroke-width="2" enable-background="new    " width="2.941" height="2.986"/>
	
		<rect x="609.239" y="33.351" transform="matrix(-1 -0.0046 0.0046 -1 1221.2555 72.523)" opacity="0.13" fill="#3D3D3C" stroke="#000000" stroke-width="2" enable-background="new    " width="2.945" height="2.986"/>
	
		<rect x="588.781" y="39.637" transform="matrix(-1 -0.0053 0.0053 -1 1180.2812 85.3904)" opacity="0.13" fill="#3D3D3C" stroke="#000000" stroke-width="2" enable-background="new    " width="2.945" height="2.986"/>
	
		<rect x="471.604" y="51.759" transform="matrix(-1 -0.0046 0.0046 -1 945.9042 108.6959)" opacity="0.13" fill="#3D3D3C" stroke="#000000" stroke-width="2" enable-background="new    " width="2.947" height="2.984"/>
	
		<rect x="509.19" y="38.003" transform="matrix(-1 -0.0046 0.0046 -1 1021.1353 81.3638)" opacity="0.13" fill="#3D3D3C" stroke="#000000" stroke-width="2" enable-background="new    " width="2.943" height="2.986"/>
	
		<rect x="491.436" y="30.021" transform="matrix(-1 -0.0046 0.0046 -1 985.6667 65.316)" opacity="0.13" fill="#3D3D3C" stroke="#000000" stroke-width="2" enable-background="new    " width="2.945" height="2.986"/>
	
		<rect x="521.218" y="4.554" transform="matrix(-1 -0.0046 0.0046 -1 1045.3452 14.5245)" opacity="0.13" fill="#3D3D3C" stroke="#000000" stroke-width="2" enable-background="new    " width="2.943" height="2.988"/>
	
		<rect x="438.002" y="15.839" transform="matrix(-1 -0.0046 0.0046 -1 878.866 36.7054)" opacity="0.13" fill="#3D3D3C" stroke="#000000" stroke-width="2" enable-background="new    " width="2.947" height="2.988"/>
	
		<rect x="369.881" y="42.519" transform="matrix(-1 -0.0046 0.0046 -1 742.4966 89.7479)" opacity="0.13" fill="#3D3D3C" stroke="#000000" stroke-width="2" enable-background="new    " width="2.943" height="2.986"/>
	
		<rect x="357.317" y="7.822" transform="matrix(-1 -0.0046 0.0046 -1 717.531 20.2964)" opacity="0.13" fill="#3D3D3C" stroke="#000000" stroke-width="2" enable-background="new    " width="2.943" height="2.986"/>
	
		<rect x="323.239" y="48.804" transform="matrix(-1 -0.0046 0.0046 -1 649.1826 102.0986)" opacity="0.13" fill="#3D3D3C" stroke="#000000" stroke-width="2" enable-background="new    " width="2.941" height="2.982"/>
	
		<rect x="278.636" y="9.349" transform="matrix(-1 -0.0046 0.0046 -1 560.1615 22.9856)" opacity="0.13" fill="#3D3D3C" stroke="#000000" stroke-width="2" enable-background="new    " width="2.943" height="2.986"/>
	
		<rect x="295.674" y="17.334" transform="matrix(-1 -0.0053 0.0053 -1 594.1889 39.2314)" opacity="0.13" fill="#3D3D3C" stroke="#000000" stroke-width="2" enable-background="new    " width="2.945" height="2.986"/>
	
		<rect x="284.181" y="52.548" transform="matrix(-1 -0.0046 0.0046 -1 571.0527 109.4055)" opacity="0.13" fill="#3D3D3C" stroke="#000000" stroke-width="2" enable-background="new    " width="2.945" height="2.984"/>
	
		<rect x="309.863" y="31.511" transform="matrix(-1 -0.0046 0.0046 -1 622.5153 67.4536)" opacity="0.13" fill="#3D3D3C" stroke="#000000" stroke-width="2" enable-background="new    " width="2.945" height="2.986"/>
	
		<rect x="254.578" y="50.313" transform="matrix(-1 -0.0046 0.0046 -1 511.8583 104.8013)" opacity="0.13" fill="#3D3D3C" stroke="#000000" stroke-width="2" enable-background="new    " width="2.945" height="2.986"/>
	
		<rect x="401.921" y="7.822" transform="matrix(-1 -0.0046 0.0046 -1 806.7375 20.5035)" opacity="0.13" fill="#3D3D3C" stroke="#000000" stroke-width="2" enable-background="new    " width="2.943" height="2.986"/>
	
		<rect x="452.19" y="61.476" transform="matrix(-1 -0.0046 0.0046 -1 907.029 128.0407)" opacity="0.13" fill="#3D3D3C" stroke="#000000" stroke-width="2" enable-background="new    " width="2.945" height="2.984"/>
	<polyline opacity="0.13" fill="none" stroke="#000000" stroke-width="2" enable-background="new    " points="250.525,20.301 
		298.102,45.016 348.553,40.951 369.871,15.799 419.006,22.319 438.551,0.483 	"/>
	<polyline opacity="0.13" fill="none" stroke="#000000" stroke-width="2" enable-background="new    " points="369.871,71.518 
		401.904,39.617 490.854,42.547 510.131,56.074 548.719,0.483 	"/>
	<polyline opacity="0.13" fill="none" stroke="#000000" stroke-width="2" enable-background="new    " points="621.475,64.432 
		582.441,18.106 567.33,58.514 528.172,56.074 517.137,71.518 	"/>
	<path opacity="0.13" fill="none" stroke="#000000" stroke-width="0.75" enable-background="new    " d="M479.172,1.887"/>
	
		<rect x="406.701" y="51.783" transform="matrix(-1 -0.0053 0.0053 -1 816.0571 108.7168)" opacity="0.13" fill="#3D3D3C" stroke="#000000" stroke-width="2" enable-background="new    " width="2.943" height="2.984"/>
	
		<rect x="457.833" y="9.322" transform="matrix(-1 -0.0046 0.0046 -1 918.5522 23.7647)" opacity="0.13" fill="#3D3D3C" stroke="#000000" stroke-width="2" enable-background="new    " width="2.941" height="2.986"/>
</g>
<polygon fill="#D0CCDF" points="490.572,0.17 444.393,71.828 0.164,70.992 0.19,-0.502 "/>
<g>
	<rect x="316.449" y="31.806" opacity="0.1" fill="#3D3D3C" enable-background="new    " width="7.52" height="7.714"/>
	<rect x="316.449" y="16.471" opacity="0.1" fill="#3D3D3C" enable-background="new    " width="7.52" height="7.714"/>
	<rect x="316.449" y="0.948" opacity="0.1" fill="#3D3D3C" enable-background="new    " width="7.52" height="7.714"/>
	<rect x="316.449" y="47.233" opacity="0.1" fill="#3D3D3C" enable-background="new    " width="7.52" height="7.714"/>
	<rect x="308.832" y="39.616" opacity="0.1" fill="#3D3D3C" enable-background="new    " width="7.52" height="7.714"/>
	<rect x="308.832" y="24.092" opacity="0.1" fill="#3D3D3C" enable-background="new    " width="7.52" height="7.714"/>
	<rect x="308.832" y="8.663" opacity="0.1" fill="#3D3D3C" enable-background="new    " width="7.52" height="7.714"/>
	<rect x="323.967" y="39.52" opacity="0.1" fill="#3D3D3C" enable-background="new    " width="7.52" height="7.715"/>
	<rect x="331.49" y="47.233" opacity="0.1" fill="#3D3D3C" enable-background="new    " width="7.52" height="7.714"/>
	<rect x="323.969" y="24.092" opacity="0.1" fill="#3D3D3C" enable-background="new    " width="7.521" height="7.714"/>
	<rect x="323.969" y="8.663" opacity="0.1" fill="#3D3D3C" enable-background="new    " width="7.521" height="7.714"/>
	<rect x="331.49" y="31.806" opacity="0.1" fill="#3D3D3C" enable-background="new    " width="7.52" height="7.714"/>
	<rect x="339.01" y="39.52" opacity="0.1" fill="#3D3D3C" enable-background="new    " width="7.521" height="7.715"/>
	<rect x="308.928" y="54.947" opacity="0.1" fill="#3D3D3C" enable-background="new    " width="7.521" height="7.715"/>
	<rect x="301.311" y="47.33" opacity="0.1" fill="#3D3D3C" enable-background="new    " width="7.521" height="7.715"/>
	<rect x="301.311" y="32.143" opacity="0.1" fill="#3D3D3C" enable-background="new    " width="7.521" height="7.715"/>
	<rect x="301.311" y="16.376" opacity="0.1" fill="#3D3D3C" enable-background="new    " width="7.521" height="7.715"/>
	<rect x="301.311" y="0.948" opacity="0.1" fill="#3D3D3C" enable-background="new    " width="7.521" height="7.715"/>
	<rect x="301.408" y="63.338" opacity="0.1" fill="#3D3D3C" enable-background="new    " width="7.521" height="7.715"/>
	<rect x="323.969" y="54.947" opacity="0.1" fill="#3D3D3C" enable-background="new    " width="7.521" height="7.715"/>
	<rect x="339.01" y="54.947" opacity="0.1" fill="#3D3D3C" enable-background="new    " width="7.521" height="7.715"/>
	<rect x="346.531" y="47.233" opacity="0.1" fill="#3D3D3C" enable-background="new    " width="7.521" height="7.714"/>
	<rect x="354.051" y="54.947" opacity="0.1" fill="#3D3D3C" enable-background="new    " width="7.521" height="7.715"/>
	<rect x="354.051" y="39.52" opacity="0.1" fill="#3D3D3C" enable-background="new    " width="7.521" height="7.715"/>
	<rect x="346.531" y="31.806" opacity="0.1" fill="#3D3D3C" enable-background="new    " width="7.521" height="7.714"/>
	<rect x="339.01" y="24.092" opacity="0.1" fill="#3D3D3C" enable-background="new    " width="7.521" height="7.714"/>
	<rect x="331.49" y="16.377" opacity="0.1" fill="#3D3D3C" enable-background="new    " width="7.52" height="7.715"/>
	<rect x="339.01" y="8.662" opacity="0.1" fill="#3D3D3C" enable-background="new    " width="7.521" height="7.715"/>
	<rect x="331.489" y="0.948" opacity="0.1" fill="#3D3D3C" enable-background="new    " width="7.521" height="7.715"/>
	<rect x="346.531" y="0.948" opacity="0.1" fill="#3D3D3C" enable-background="new    " width="7.521" height="7.714"/>
	<rect x="354.051" y="8.662" opacity="0.1" fill="#3D3D3C" enable-background="new    " width="7.521" height="7.715"/>
	<rect x="346.531" y="16.377" opacity="0.1" fill="#3D3D3C" enable-background="new    " width="7.521" height="7.715"/>
	<rect x="354.051" y="24.092" opacity="0.1" fill="#3D3D3C" enable-background="new    " width="7.521" height="7.714"/>
	<rect x="361.57" y="0.948" opacity="0.1" fill="#3D3D3C" enable-background="new    " width="7.521" height="7.714"/>
	<rect x="369.092" y="8.662" opacity="0.1" fill="#3D3D3C" enable-background="new    " width="7.52" height="7.715"/>
	<rect x="376.611" y="16.377" opacity="0.1" fill="#3D3D3C" enable-background="new    " width="7.521" height="7.715"/>
	<rect x="369.092" y="24.092" opacity="0.1" fill="#3D3D3C" enable-background="new    " width="7.52" height="7.714"/>
	<rect x="376.611" y="31.806" opacity="0.1" fill="#3D3D3C" enable-background="new    " width="7.521" height="7.714"/>
	<rect x="369.092" y="39.52" opacity="0.1" fill="#3D3D3C" enable-background="new    " width="7.52" height="7.715"/>
	<rect x="376.611" y="47.233" opacity="0.1" fill="#3D3D3C" enable-background="new    " width="7.521" height="7.714"/>
	<rect x="361.57" y="16.377" opacity="0.1" fill="#3D3D3C" enable-background="new    " width="7.521" height="7.715"/>
	<rect x="361.57" y="31.806" opacity="0.1" fill="#3D3D3C" enable-background="new    " width="7.521" height="7.714"/>
	<rect x="361.57" y="47.233" opacity="0.1" fill="#3D3D3C" enable-background="new    " width="7.521" height="7.714"/>
	<rect x="384.129" y="39.52" opacity="0.1" fill="#3D3D3C" enable-background="new    " width="7.521" height="7.715"/>
	<rect x="391.652" y="47.233" opacity="0.1" fill="#3D3D3C" enable-background="new    " width="7.521" height="7.714"/>
	<rect x="384.133" y="24.092" opacity="0.1" fill="#3D3D3C" enable-background="new    " width="7.52" height="7.714"/>
	<rect x="391.652" y="31.806" opacity="0.1" fill="#3D3D3C" enable-background="new    " width="7.521" height="7.714"/>
	<rect x="399.174" y="39.52" opacity="0.1" fill="#3D3D3C" enable-background="new    " width="7.52" height="7.715"/>
	<rect x="369.092" y="54.947" opacity="0.1" fill="#3D3D3C" enable-background="new    " width="7.52" height="7.715"/>
	<rect x="384.133" y="54.947" opacity="0.1" fill="#3D3D3C" enable-background="new    " width="7.52" height="7.715"/>
	<rect x="399.174" y="54.947" opacity="0.1" fill="#3D3D3C" enable-background="new    " width="7.52" height="7.715"/>
	<rect x="406.691" y="47.233" opacity="0.1" fill="#3D3D3C" enable-background="new    " width="7.521" height="7.714"/>
	<rect x="414.213" y="54.947" opacity="0.1" fill="#3D3D3C" enable-background="new    " width="7.521" height="7.715"/>
	<rect x="414.213" y="39.52" opacity="0.1" fill="#3D3D3C" enable-background="new    " width="7.521" height="7.715"/>
	<rect x="406.691" y="31.806" opacity="0.1" fill="#3D3D3C" enable-background="new    " width="7.521" height="7.714"/>
	<rect x="399.174" y="24.092" opacity="0.1" fill="#3D3D3C" enable-background="new    " width="7.52" height="7.714"/>
	<rect x="391.652" y="16.377" opacity="0.1" fill="#3D3D3C" enable-background="new    " width="7.521" height="7.715"/>
	<rect x="384.133" y="8.662" opacity="0.1" fill="#3D3D3C" enable-background="new    " width="7.52" height="7.715"/>
	<rect x="376.611" y="0.948" opacity="0.1" fill="#3D3D3C" enable-background="new    " width="7.521" height="7.714"/>
	<rect x="391.652" y="0.948" opacity="0.1" fill="#3D3D3C" enable-background="new    " width="7.521" height="7.714"/>
	<rect x="399.174" y="8.662" opacity="0.1" fill="#3D3D3C" enable-background="new    " width="7.52" height="7.715"/>
	<rect x="406.691" y="0.948" opacity="0.1" fill="#3D3D3C" enable-background="new    " width="7.521" height="7.714"/>
	<rect x="414.213" y="8.662" opacity="0.1" fill="#3D3D3C" enable-background="new    " width="7.521" height="7.715"/>
	<rect x="406.691" y="16.377" opacity="0.1" fill="#3D3D3C" enable-background="new    " width="7.521" height="7.715"/>
	<rect x="414.213" y="24.092" opacity="0.1" fill="#3D3D3C" enable-background="new    " width="7.521" height="7.714"/>
	<rect x="421.732" y="0.948" opacity="0.1" fill="#3D3D3C" enable-background="new    " width="7.521" height="7.714"/>
	<rect x="429.254" y="8.662" opacity="0.1" fill="#3D3D3C" enable-background="new    " width="7.521" height="7.715"/>
	<rect x="436.773" y="16.377" opacity="0.1" fill="#3D3D3C" enable-background="new    " width="7.521" height="7.715"/>
	<rect x="429.254" y="24.092" opacity="0.1" fill="#3D3D3C" enable-background="new    " width="7.521" height="7.714"/>
	<rect x="436.773" y="31.806" opacity="0.1" fill="#3D3D3C" enable-background="new    " width="7.521" height="7.714"/>
	<rect x="429.254" y="39.52" opacity="0.1" fill="#3D3D3C" enable-background="new    " width="7.521" height="7.715"/>
	<rect x="436.773" y="47.233" opacity="0.1" fill="#3D3D3C" enable-background="new    " width="7.521" height="7.714"/>
	<rect x="421.732" y="16.377" opacity="0.1" fill="#3D3D3C" enable-background="new    " width="7.521" height="7.715"/>
	<rect x="421.732" y="31.806" opacity="0.1" fill="#3D3D3C" enable-background="new    " width="7.521" height="7.714"/>
	<rect x="421.732" y="47.233" opacity="0.1" fill="#3D3D3C" enable-background="new    " width="7.521" height="7.714"/>
	<rect x="444.293" y="39.52" opacity="0.1" fill="#3D3D3C" enable-background="new    " width="7.52" height="7.715"/>
	<rect x="444.295" y="24.092" opacity="0.1" fill="#3D3D3C" enable-background="new    " width="7.52" height="7.714"/>
	<rect x="451.814" y="31.806" opacity="0.1" fill="#3D3D3C" enable-background="new    " width="7.521" height="7.714"/>
	<rect x="429.254" y="54.947" opacity="0.1" fill="#3D3D3C" enable-background="new    " width="7.521" height="7.715"/>
	<rect x="444.295" y="54.947" opacity="0.1" fill="#3D3D3C" enable-background="new    " width="7.52" height="7.715"/>
	<rect x="459.336" y="24.092" opacity="0.1" fill="#3D3D3C" enable-background="new    " width="7.52" height="7.714"/>
	<rect x="451.814" y="16.377" opacity="0.1" fill="#3D3D3C" enable-background="new    " width="7.521" height="7.715"/>
	<rect x="444.295" y="8.662" opacity="0.1" fill="#3D3D3C" enable-background="new    " width="7.52" height="7.715"/>
	<rect x="436.773" y="0.948" opacity="0.1" fill="#3D3D3C" enable-background="new    " width="7.521" height="7.714"/>
	<rect x="451.814" y="0.948" opacity="0.1" fill="#3D3D3C" enable-background="new    " width="7.521" height="7.714"/>
	<rect x="459.336" y="8.662" opacity="0.1" fill="#3D3D3C" enable-background="new    " width="7.52" height="7.715"/>
	<rect x="466.855" y="0.948" opacity="0.1" fill="#3D3D3C" enable-background="new    " width="7.521" height="7.714"/>
	<rect x="466.855" y="16.377" opacity="0.1" fill="#3D3D3C" enable-background="new    " width="7.521" height="7.715"/>
	<rect x="316.449" y="63.338" opacity="0.1" fill="#3D3D3C" enable-background="new    " width="7.52" height="7.713"/>
	<rect x="331.49" y="63.338" opacity="0.1" fill="#3D3D3C" enable-background="new    " width="7.52" height="7.713"/>
	<rect x="271.327" y="31.806" opacity="0.1" fill="#3D3D3C" enable-background="new    " width="7.52" height="7.714"/>
	<rect x="271.327" y="16.471" opacity="0.1" fill="#3D3D3C" enable-background="new    " width="7.52" height="7.714"/>
	<rect x="271.327" y="0.948" opacity="0.1" fill="#3D3D3C" enable-background="new    " width="7.52" height="7.714"/>
	<rect x="271.327" y="47.233" opacity="0.1" fill="#3D3D3C" enable-background="new    " width="7.52" height="7.714"/>
	<rect x="263.709" y="39.616" opacity="0.1" fill="#3D3D3C" enable-background="new    " width="7.52" height="7.714"/>
	<rect x="263.709" y="24.092" opacity="0.1" fill="#3D3D3C" enable-background="new    " width="7.52" height="7.714"/>
	<rect x="263.709" y="8.663" opacity="0.1" fill="#3D3D3C" enable-background="new    " width="7.52" height="7.714"/>
	<rect x="278.844" y="39.52" opacity="0.1" fill="#3D3D3C" enable-background="new    " width="7.52" height="7.715"/>
	<rect x="286.368" y="47.233" opacity="0.1" fill="#3D3D3C" enable-background="new    " width="7.52" height="7.714"/>
	<rect x="278.846" y="24.092" opacity="0.1" fill="#3D3D3C" enable-background="new    " width="7.521" height="7.714"/>
	<rect x="278.846" y="8.663" opacity="0.1" fill="#3D3D3C" enable-background="new    " width="7.521" height="7.714"/>
	<rect x="286.368" y="31.806" opacity="0.1" fill="#3D3D3C" enable-background="new    " width="7.52" height="7.714"/>
	<rect x="293.887" y="39.52" opacity="0.1" fill="#3D3D3C" enable-background="new    " width="7.521" height="7.715"/>
	<rect x="263.805" y="54.947" opacity="0.1" fill="#3D3D3C" enable-background="new    " width="7.521" height="7.715"/>
	<rect x="256.188" y="47.33" opacity="0.1" fill="#3D3D3C" enable-background="new    " width="7.521" height="7.715"/>
	<rect x="256.188" y="32.143" opacity="0.1" fill="#3D3D3C" enable-background="new    " width="7.521" height="7.715"/>
	<rect x="256.188" y="16.376" opacity="0.1" fill="#3D3D3C" enable-background="new    " width="7.521" height="7.715"/>
	<rect x="256.188" y="0.948" opacity="0.1" fill="#3D3D3C" enable-background="new    " width="7.521" height="7.715"/>
	<rect x="256.286" y="63.338" opacity="0.1" fill="#3D3D3C" enable-background="new    " width="7.521" height="7.715"/>
	<rect x="278.846" y="54.947" opacity="0.1" fill="#3D3D3C" enable-background="new    " width="7.521" height="7.715"/>
	<rect x="293.887" y="54.947" opacity="0.1" fill="#3D3D3C" enable-background="new    " width="7.521" height="7.715"/>
	<rect x="293.887" y="24.092" opacity="0.1" fill="#3D3D3C" enable-background="new    " width="7.521" height="7.714"/>
	<rect x="286.368" y="16.377" opacity="0.1" fill="#3D3D3C" enable-background="new    " width="7.52" height="7.715"/>
	<rect x="293.887" y="8.662" opacity="0.1" fill="#3D3D3C" enable-background="new    " width="7.521" height="7.715"/>
	<rect x="286.367" y="0.948" opacity="0.1" fill="#3D3D3C" enable-background="new    " width="7.521" height="7.715"/>
	<rect x="271.327" y="63.338" opacity="0.1" fill="#3D3D3C" enable-background="new    " width="7.52" height="7.713"/>
	<rect x="286.368" y="63.338" opacity="0.1" fill="#3D3D3C" enable-background="new    " width="7.52" height="7.713"/>
	<rect x="226.106" y="31.806" opacity="0.1" fill="#3D3D3C" enable-background="new    " width="7.52" height="7.714"/>
	<rect x="226.106" y="16.471" opacity="0.1" fill="#3D3D3C" enable-background="new    " width="7.52" height="7.714"/>
	<rect x="226.106" y="0.948" opacity="0.1" fill="#3D3D3C" enable-background="new    " width="7.52" height="7.714"/>
	<rect x="226.106" y="47.233" opacity="0.1" fill="#3D3D3C" enable-background="new    " width="7.52" height="7.714"/>
	<rect x="218.489" y="39.616" opacity="0.1" fill="#3D3D3C" enable-background="new    " width="7.52" height="7.714"/>
	<rect x="218.489" y="24.092" opacity="0.1" fill="#3D3D3C" enable-background="new    " width="7.52" height="7.714"/>
	<rect x="218.489" y="8.663" opacity="0.1" fill="#3D3D3C" enable-background="new    " width="7.52" height="7.714"/>
	<rect x="233.624" y="39.52" opacity="0.1" fill="#3D3D3C" enable-background="new    " width="7.52" height="7.715"/>
	<rect x="241.147" y="47.233" opacity="0.1" fill="#3D3D3C" enable-background="new    " width="7.52" height="7.714"/>
	<rect x="233.626" y="24.092" opacity="0.1" fill="#3D3D3C" enable-background="new    " width="7.521" height="7.714"/>
	<rect x="233.626" y="8.663" opacity="0.1" fill="#3D3D3C" enable-background="new    " width="7.521" height="7.714"/>
	<rect x="241.147" y="31.806" opacity="0.1" fill="#3D3D3C" enable-background="new    " width="7.52" height="7.714"/>
	<rect x="248.667" y="39.52" opacity="0.1" fill="#3D3D3C" enable-background="new    " width="7.521" height="7.715"/>
	<rect x="218.585" y="54.947" opacity="0.1" fill="#3D3D3C" enable-background="new    " width="7.521" height="7.715"/>
	<rect x="210.968" y="47.33" opacity="0.1" fill="#3D3D3C" enable-background="new    " width="7.521" height="7.715"/>
	<rect x="210.968" y="32.143" opacity="0.1" fill="#3D3D3C" enable-background="new    " width="7.521" height="7.715"/>
	<rect x="210.968" y="16.376" opacity="0.1" fill="#3D3D3C" enable-background="new    " width="7.521" height="7.715"/>
	<rect x="210.968" y="0.948" opacity="0.1" fill="#3D3D3C" enable-background="new    " width="7.521" height="7.715"/>
	<rect x="211.065" y="63.338" opacity="0.1" fill="#3D3D3C" enable-background="new    " width="7.521" height="7.715"/>
	<rect x="233.626" y="54.947" opacity="0.1" fill="#3D3D3C" enable-background="new    " width="7.521" height="7.715"/>
	<rect x="248.667" y="54.947" opacity="0.1" fill="#3D3D3C" enable-background="new    " width="7.521" height="7.715"/>
	<rect x="248.667" y="24.092" opacity="0.1" fill="#3D3D3C" enable-background="new    " width="7.521" height="7.714"/>
	<rect x="241.147" y="16.377" opacity="0.1" fill="#3D3D3C" enable-background="new    " width="7.52" height="7.715"/>
	<rect x="248.667" y="8.662" opacity="0.1" fill="#3D3D3C" enable-background="new    " width="7.521" height="7.715"/>
	<rect x="241.146" y="0.948" opacity="0.1" fill="#3D3D3C" enable-background="new    " width="7.521" height="7.715"/>
	<rect x="226.106" y="63.338" opacity="0.1" fill="#3D3D3C" enable-background="new    " width="7.52" height="7.713"/>
	<rect x="241.147" y="63.338" opacity="0.1" fill="#3D3D3C" enable-background="new    " width="7.52" height="7.713"/>
	<rect x="180.984" y="31.806" opacity="0.1" fill="#3D3D3C" enable-background="new    " width="7.52" height="7.714"/>
	<rect x="180.984" y="16.471" opacity="0.1" fill="#3D3D3C" enable-background="new    " width="7.52" height="7.714"/>
	<rect x="180.984" y="0.948" opacity="0.1" fill="#3D3D3C" enable-background="new    " width="7.52" height="7.714"/>
	<rect x="180.984" y="47.233" opacity="0.1" fill="#3D3D3C" enable-background="new    " width="7.52" height="7.714"/>
	<rect x="173.367" y="39.616" opacity="0.1" fill="#3D3D3C" enable-background="new    " width="7.52" height="7.714"/>
	<rect x="173.367" y="24.092" opacity="0.1" fill="#3D3D3C" enable-background="new    " width="7.52" height="7.714"/>
	<rect x="173.367" y="8.663" opacity="0.1" fill="#3D3D3C" enable-background="new    " width="7.52" height="7.714"/>
	<rect x="188.501" y="39.52" opacity="0.1" fill="#3D3D3C" enable-background="new    " width="7.52" height="7.715"/>
	<rect x="196.025" y="47.233" opacity="0.1" fill="#3D3D3C" enable-background="new    " width="7.52" height="7.714"/>
	<rect x="188.503" y="24.092" opacity="0.1" fill="#3D3D3C" enable-background="new    " width="7.521" height="7.714"/>
	<rect x="188.503" y="8.663" opacity="0.1" fill="#3D3D3C" enable-background="new    " width="7.521" height="7.714"/>
	<rect x="196.025" y="31.806" opacity="0.1" fill="#3D3D3C" enable-background="new    " width="7.52" height="7.714"/>
	<rect x="203.544" y="39.52" opacity="0.1" fill="#3D3D3C" enable-background="new    " width="7.521" height="7.715"/>
	<rect x="173.462" y="54.947" opacity="0.1" fill="#3D3D3C" enable-background="new    " width="7.521" height="7.715"/>
	<rect x="165.845" y="47.33" opacity="0.1" fill="#3D3D3C" enable-background="new    " width="7.521" height="7.715"/>
	<rect x="165.845" y="32.143" opacity="0.1" fill="#3D3D3C" enable-background="new    " width="7.521" height="7.715"/>
	<rect x="165.845" y="16.376" opacity="0.1" fill="#3D3D3C" enable-background="new    " width="7.521" height="7.715"/>
	<rect x="165.845" y="0.948" opacity="0.1" fill="#3D3D3C" enable-background="new    " width="7.521" height="7.715"/>
	<rect x="165.943" y="63.338" opacity="0.1" fill="#3D3D3C" enable-background="new    " width="7.521" height="7.715"/>
	<rect x="188.503" y="54.947" opacity="0.1" fill="#3D3D3C" enable-background="new    " width="7.521" height="7.715"/>
	<rect x="203.544" y="54.947" opacity="0.1" fill="#3D3D3C" enable-background="new    " width="7.521" height="7.715"/>
	<rect x="203.544" y="24.092" opacity="0.1" fill="#3D3D3C" enable-background="new    " width="7.521" height="7.714"/>
	<rect x="196.025" y="16.377" opacity="0.1" fill="#3D3D3C" enable-background="new    " width="7.52" height="7.715"/>
	<rect x="203.544" y="8.662" opacity="0.1" fill="#3D3D3C" enable-background="new    " width="7.521" height="7.715"/>
	<rect x="196.024" y="0.948" opacity="0.1" fill="#3D3D3C" enable-background="new    " width="7.521" height="7.715"/>
	<rect x="180.984" y="63.338" opacity="0.1" fill="#3D3D3C" enable-background="new    " width="7.52" height="7.713"/>
	<rect x="196.025" y="63.338" opacity="0.1" fill="#3D3D3C" enable-background="new    " width="7.52" height="7.713"/>
	<rect x="135.764" y="31.806" opacity="0.1" fill="#3D3D3C" enable-background="new    " width="7.52" height="7.714"/>
	<rect x="135.764" y="16.471" opacity="0.1" fill="#3D3D3C" enable-background="new    " width="7.52" height="7.714"/>
	<rect x="135.764" y="0.948" opacity="0.1" fill="#3D3D3C" enable-background="new    " width="7.52" height="7.714"/>
	<rect x="135.764" y="47.233" opacity="0.1" fill="#3D3D3C" enable-background="new    " width="7.52" height="7.714"/>
	<rect x="128.146" y="39.616" opacity="0.1" fill="#3D3D3C" enable-background="new    " width="7.52" height="7.714"/>
	<rect x="128.146" y="24.092" opacity="0.1" fill="#3D3D3C" enable-background="new    " width="7.52" height="7.714"/>
	<rect x="128.146" y="8.663" opacity="0.1" fill="#3D3D3C" enable-background="new    " width="7.52" height="7.714"/>
	<rect x="143.281" y="39.52" opacity="0.1" fill="#3D3D3C" enable-background="new    " width="7.52" height="7.715"/>
	<rect x="150.805" y="47.233" opacity="0.1" fill="#3D3D3C" enable-background="new    " width="7.52" height="7.714"/>
	<rect x="143.283" y="24.092" opacity="0.1" fill="#3D3D3C" enable-background="new    " width="7.521" height="7.714"/>
	<rect x="143.283" y="8.663" opacity="0.1" fill="#3D3D3C" enable-background="new    " width="7.521" height="7.714"/>
	<rect x="150.805" y="31.806" opacity="0.1" fill="#3D3D3C" enable-background="new    " width="7.52" height="7.714"/>
	<rect x="158.324" y="39.52" opacity="0.1" fill="#3D3D3C" enable-background="new    " width="7.521" height="7.715"/>
	<rect x="128.242" y="54.947" opacity="0.1" fill="#3D3D3C" enable-background="new    " width="7.521" height="7.715"/>
	<rect x="120.625" y="47.33" opacity="0.1" fill="#3D3D3C" enable-background="new    " width="7.521" height="7.715"/>
	<rect x="120.625" y="32.143" opacity="0.1" fill="#3D3D3C" enable-background="new    " width="7.521" height="7.715"/>
	<rect x="120.625" y="16.376" opacity="0.1" fill="#3D3D3C" enable-background="new    " width="7.521" height="7.715"/>
	<rect x="120.625" y="0.948" opacity="0.1" fill="#3D3D3C" enable-background="new    " width="7.521" height="7.715"/>
	<rect x="120.723" y="63.338" opacity="0.1" fill="#3D3D3C" enable-background="new    " width="7.521" height="7.715"/>
	<rect x="143.283" y="54.947" opacity="0.1" fill="#3D3D3C" enable-background="new    " width="7.521" height="7.715"/>
	<rect x="158.324" y="54.947" opacity="0.1" fill="#3D3D3C" enable-background="new    " width="7.521" height="7.715"/>
	<rect x="158.324" y="24.092" opacity="0.1" fill="#3D3D3C" enable-background="new    " width="7.521" height="7.714"/>
	<rect x="150.805" y="16.377" opacity="0.1" fill="#3D3D3C" enable-background="new    " width="7.52" height="7.715"/>
	<rect x="158.324" y="8.662" opacity="0.1" fill="#3D3D3C" enable-background="new    " width="7.521" height="7.715"/>
	<rect x="150.804" y="0.948" opacity="0.1" fill="#3D3D3C" enable-background="new    " width="7.521" height="7.715"/>
	<rect x="135.764" y="63.338" opacity="0.1" fill="#3D3D3C" enable-background="new    " width="7.52" height="7.713"/>
	<rect x="150.805" y="63.338" opacity="0.1" fill="#3D3D3C" enable-background="new    " width="7.52" height="7.713"/>
	<rect x="90.641" y="31.806" opacity="0.1" fill="#3D3D3C" enable-background="new    " width="7.52" height="7.714"/>
	<rect x="90.641" y="16.471" opacity="0.1" fill="#3D3D3C" enable-background="new    " width="7.52" height="7.714"/>
	<rect x="90.641" y="0.948" opacity="0.1" fill="#3D3D3C" enable-background="new    " width="7.52" height="7.714"/>
	<rect x="90.641" y="47.233" opacity="0.1" fill="#3D3D3C" enable-background="new    " width="7.52" height="7.714"/>
	<rect x="98.159" y="39.52" opacity="0.1" fill="#3D3D3C" enable-background="new    " width="7.52" height="7.715"/>
	<rect x="105.682" y="47.233" opacity="0.1" fill="#3D3D3C" enable-background="new    " width="7.52" height="7.714"/>
	<rect x="98.161" y="24.092" opacity="0.1" fill="#3D3D3C" enable-background="new    " width="7.521" height="7.714"/>
	<rect x="98.161" y="8.663" opacity="0.1" fill="#3D3D3C" enable-background="new    " width="7.521" height="7.714"/>
	<rect x="105.682" y="31.806" opacity="0.1" fill="#3D3D3C" enable-background="new    " width="7.52" height="7.714"/>
	<rect x="113.202" y="39.52" opacity="0.1" fill="#3D3D3C" enable-background="new    " width="7.521" height="7.715"/>
	<rect x="98.161" y="54.947" opacity="0.1" fill="#3D3D3C" enable-background="new    " width="7.521" height="7.715"/>
	<rect x="113.202" y="54.947" opacity="0.1" fill="#3D3D3C" enable-background="new    " width="7.521" height="7.715"/>
	<rect x="113.202" y="24.092" opacity="0.1" fill="#3D3D3C" enable-background="new    " width="7.521" height="7.714"/>
	<rect x="105.682" y="16.377" opacity="0.1" fill="#3D3D3C" enable-background="new    " width="7.52" height="7.715"/>
	<rect x="113.202" y="8.662" opacity="0.1" fill="#3D3D3C" enable-background="new    " width="7.521" height="7.715"/>
	<rect x="105.681" y="0.948" opacity="0.1" fill="#3D3D3C" enable-background="new    " width="7.521" height="7.715"/>
	<rect x="90.641" y="63.338" opacity="0.1" fill="#3D3D3C" enable-background="new    " width="7.52" height="7.713"/>
	<rect x="105.682" y="63.338" opacity="0.1" fill="#3D3D3C" enable-background="new    " width="7.52" height="7.713"/>
	<rect x="82.726" y="39.616" opacity="0.1" fill="#3D3D3C" enable-background="new    " width="7.52" height="7.714"/>
	<rect x="82.726" y="24.092" opacity="0.1" fill="#3D3D3C" enable-background="new    " width="7.52" height="7.714"/>
	<rect x="82.726" y="8.663" opacity="0.1" fill="#3D3D3C" enable-background="new    " width="7.52" height="7.714"/>
	<rect x="82.821" y="54.947" opacity="0.1" fill="#3D3D3C" enable-background="new    " width="7.521" height="7.715"/>
	<rect x="75.204" y="47.33" opacity="0.1" fill="#3D3D3C" enable-background="new    " width="7.521" height="7.715"/>
	<rect x="75.204" y="32.143" opacity="0.1" fill="#3D3D3C" enable-background="new    " width="7.521" height="7.715"/>
	<rect x="75.204" y="16.376" opacity="0.1" fill="#3D3D3C" enable-background="new    " width="7.521" height="7.715"/>
	<rect x="75.204" y="0.948" opacity="0.1" fill="#3D3D3C" enable-background="new    " width="7.521" height="7.715"/>
	<rect x="75.302" y="63.338" opacity="0.1" fill="#3D3D3C" enable-background="new    " width="7.521" height="7.715"/>
	<rect x="45.123" y="31.806" opacity="0.1" fill="#3D3D3C" enable-background="new    " width="7.52" height="7.714"/>
	<rect x="45.123" y="16.471" opacity="0.1" fill="#3D3D3C" enable-background="new    " width="7.52" height="7.714"/>
	<rect x="45.123" y="0.948" opacity="0.1" fill="#3D3D3C" enable-background="new    " width="7.52" height="7.714"/>
	<rect x="45.123" y="47.233" opacity="0.1" fill="#3D3D3C" enable-background="new    " width="7.52" height="7.714"/>
	<rect x="37.505" y="39.616" opacity="0.1" fill="#3D3D3C" enable-background="new    " width="7.52" height="7.714"/>
	<rect x="37.505" y="24.092" opacity="0.1" fill="#3D3D3C" enable-background="new    " width="7.52" height="7.714"/>
	<rect x="37.505" y="8.663" opacity="0.1" fill="#3D3D3C" enable-background="new    " width="7.52" height="7.714"/>
	<rect x="52.64" y="39.52" opacity="0.1" fill="#3D3D3C" enable-background="new    " width="7.52" height="7.715"/>
	<rect x="60.164" y="47.233" opacity="0.1" fill="#3D3D3C" enable-background="new    " width="7.52" height="7.714"/>
	<rect x="52.642" y="24.092" opacity="0.1" fill="#3D3D3C" enable-background="new    " width="7.521" height="7.714"/>
	<rect x="52.642" y="8.663" opacity="0.1" fill="#3D3D3C" enable-background="new    " width="7.521" height="7.714"/>
	<rect x="60.164" y="31.806" opacity="0.1" fill="#3D3D3C" enable-background="new    " width="7.52" height="7.714"/>
	<rect x="67.683" y="39.52" opacity="0.1" fill="#3D3D3C" enable-background="new    " width="7.521" height="7.715"/>
	<rect x="37.601" y="54.947" opacity="0.1" fill="#3D3D3C" enable-background="new    " width="7.521" height="7.715"/>
	<rect x="29.984" y="47.33" opacity="0.1" fill="#3D3D3C" enable-background="new    " width="7.521" height="7.715"/>
	<rect x="29.984" y="32.143" opacity="0.1" fill="#3D3D3C" enable-background="new    " width="7.521" height="7.715"/>
	<rect x="29.984" y="16.376" opacity="0.1" fill="#3D3D3C" enable-background="new    " width="7.521" height="7.715"/>
	<rect x="29.984" y="0.948" opacity="0.1" fill="#3D3D3C" enable-background="new    " width="7.521" height="7.715"/>
	<rect x="30.082" y="63.338" opacity="0.1" fill="#3D3D3C" enable-background="new    " width="7.521" height="7.715"/>
	<rect x="52.642" y="54.947" opacity="0.1" fill="#3D3D3C" enable-background="new    " width="7.521" height="7.715"/>
	<rect x="67.683" y="54.947" opacity="0.1" fill="#3D3D3C" enable-background="new    " width="7.521" height="7.715"/>
	<rect x="67.683" y="24.092" opacity="0.1" fill="#3D3D3C" enable-background="new    " width="7.521" height="7.714"/>
	<rect x="60.164" y="16.377" opacity="0.1" fill="#3D3D3C" enable-background="new    " width="7.52" height="7.715"/>
	<rect x="67.683" y="8.662" opacity="0.1" fill="#3D3D3C" enable-background="new    " width="7.521" height="7.715"/>
	<rect x="60.163" y="0.948" opacity="0.1" fill="#3D3D3C" enable-background="new    " width="7.521" height="7.715"/>
	<rect x="45.123" y="63.338" opacity="0.1" fill="#3D3D3C" enable-background="new    " width="7.52" height="7.713"/>
	<rect x="60.164" y="63.338" opacity="0.1" fill="#3D3D3C" enable-background="new    " width="7.52" height="7.713"/>
	<rect y="31.806" opacity="0.1" fill="#3D3D3C" enable-background="new    " width="7.52" height="7.714"/>
	<rect y="16.471" opacity="0.1" fill="#3D3D3C" enable-background="new    " width="7.52" height="7.714"/>
	<rect y="0.948" opacity="0.1" fill="#3D3D3C" enable-background="new    " width="7.52" height="7.714"/>
	<rect y="47.233" opacity="0.1" fill="#3D3D3C" enable-background="new    " width="7.52" height="7.714"/>
	<rect x="7.518" y="39.52" opacity="0.1" fill="#3D3D3C" enable-background="new    " width="7.52" height="7.715"/>
	<rect x="15.041" y="47.233" opacity="0.1" fill="#3D3D3C" enable-background="new    " width="7.52" height="7.714"/>
	<rect x="7.52" y="24.092" opacity="0.1" fill="#3D3D3C" enable-background="new    " width="7.521" height="7.714"/>
	<rect x="7.52" y="8.663" opacity="0.1" fill="#3D3D3C" enable-background="new    " width="7.521" height="7.714"/>
	<rect x="15.041" y="31.806" opacity="0.1" fill="#3D3D3C" enable-background="new    " width="7.52" height="7.714"/>
	<rect x="22.561" y="39.52" opacity="0.1" fill="#3D3D3C" enable-background="new    " width="7.521" height="7.715"/>
	<rect x="7.52" y="54.947" opacity="0.1" fill="#3D3D3C" enable-background="new    " width="7.521" height="7.715"/>
	<rect x="22.561" y="54.947" opacity="0.1" fill="#3D3D3C" enable-background="new    " width="7.521" height="7.715"/>
	<rect x="22.561" y="24.092" opacity="0.1" fill="#3D3D3C" enable-background="new    " width="7.521" height="7.714"/>
	<rect x="15.041" y="16.377" opacity="0.1" fill="#3D3D3C" enable-background="new    " width="7.52" height="7.715"/>
	<rect x="22.561" y="8.662" opacity="0.1" fill="#3D3D3C" enable-background="new    " width="7.521" height="7.715"/>
	<rect x="15.04" y="0.948" opacity="0.1" fill="#3D3D3C" enable-background="new    " width="7.521" height="7.715"/>
	<rect y="63.338" opacity="0.1" fill="#3D3D3C" enable-background="new    " width="7.52" height="7.713"/>
	<rect x="15.041" y="63.338" opacity="0.1" fill="#3D3D3C" enable-background="new    " width="7.52" height="7.713"/>
	<rect x="346.531" y="63.338" opacity="0.1" fill="#3D3D3C" enable-background="new    " width="7.521" height="7.713"/>
	<rect x="376.611" y="63.338" opacity="0.1" fill="#3D3D3C" enable-background="new    " width="7.521" height="7.713"/>
	<rect x="361.57" y="63.338" opacity="0.1" fill="#3D3D3C" enable-background="new    " width="7.521" height="7.713"/>
	<rect x="391.652" y="63.338" opacity="0.1" fill="#3D3D3C" enable-background="new    " width="7.521" height="7.713"/>
	<rect x="406.691" y="63.338" opacity="0.1" fill="#3D3D3C" enable-background="new    " width="7.521" height="7.713"/>
	<rect x="436.773" y="63.338" opacity="0.1" fill="#3D3D3C" enable-background="new    " width="7.521" height="7.713"/>
	<rect x="421.732" y="63.338" opacity="0.1" fill="#3D3D3C" enable-background="new    " width="7.521" height="7.713"/>
	<polygon opacity="0.1" fill="#3D3D3C" enable-background="new    " points="451.814,47.043 451.814,54.756 457.59,54.756 
		459.336,51.356 459.336,47.043 	"/>
	<polygon opacity="0.1" fill="#3D3D3C" enable-background="new    " points="459.336,39.52 459.336,47.234 461.451,47.234 
		465.414,39.52 	"/>
	<polygon opacity="0.1" fill="#3D3D3C" enable-background="new    " points="474.117,8.662 474.117,16.377 477.299,16.377 
		481.26,8.662 	"/>
	<polygon opacity="0.1" fill="#3D3D3C" enable-background="new    " points="481.26,0.949 481.26,7.904 484.83,0.949 	"/>
	<g opacity="0.1">
		<polygon opacity="0.03" fill="#3D3D3C" enable-background="new    " points="451.814,63.338 451.814,66.435 453.404,63.338 		"/>
		<rect x="451.814" y="71.051" opacity="0.03" fill="#3D3D3C" enable-background="new    " width="7.521" height="0.002"/>
	</g>
	<g opacity="0.1" enable-background="new    ">
		<polygon opacity="0.03" fill="#3D3D3C" enable-background="new    " points="468.639,31.673 466.916,31.673 466.916,34.975 		"/>
		<polygon fill="#3D3D3C" points="466.902,31.83 468.93,31.83 466.916,35.131 		"/>
	</g>
	<g opacity="0.1" enable-background="new    ">
		<polygon opacity="0.03" fill="#3D3D3C" enable-background="new    " points="453.332,62.662 451.609,62.662 451.609,65.965 		"/>
		<polygon fill="#3D3D3C" points="451.596,62.819 453.623,62.819 451.609,66.121 		"/>
	</g>
</g>
<path fill="#E9E9F1" d="M597.235,54.346c0,0-30.02,2.859-63.165-54.346h338.104v72H568.487
	C568.487,72,581.584,57.555,597.235,54.346z"/>
<path opacity="0.3" fill="#A198C0" enable-background="new    " d="M594.479,54.262c15.437,1.118,18.33-10.609,34.219-27.697
	c7.811-8.398,19.873-7.58,19.873-7.58l11.39,23.75C659.957,42.734,645.43,81.121,594.479,54.262z"/>
<path opacity="0.3" fill="#A198C0" enable-background="new    " d="M699.323,0.387c-8.215,3.97-15.886,7.679-18.866,9.12
	c-7.602,3.667-25.748,5.847-25.748,5.847l11.39,23.75c0,0,12.458-14.052,20.063-17.727c6.502-3.146,35.329-17.077,43.424-20.989
	L699.323,0.387L699.323,0.387z"/>
</svg>
