<?xml version="1.0" encoding="utf-8"?>
<!DOCTYPE svg PUBLIC "-//W3C//DTD SVG 1.1//EN" "http://www.w3.org/Graphics/SVG/1.1/DTD/svg11.dtd">
<svg version="1.1" id="Calque_1" xmlns="http://www.w3.org/2000/svg" xmlns:xlink="http://www.w3.org/1999/xlink" x="0px" y="0px"
	 width="22px" height="22px" viewBox="0 0 22 22" enable-background="new 0 0 22 22" xml:space="preserve">
<g>
	<polyline fill="none" stroke="#8379AD" stroke-width="2" points="3.583,17.24 9.917,6.628 17.541,11.936 	"/>
	<g>
		<rect x="1.055" y="14.082" fill="#A198C0" width="4.163" height="4.166"/>
		<path fill="#8379AD" d="M4.217,15.082v2.166H2.055v-2.166H4.217 M6.217,13.082H0.055v6.166h6.163V13.082L6.217,13.082z"/>
	</g>
	<g>
		<rect x="7.643" y="3.834" fill="#A198C0" width="4.081" height="4.08"/>
		<path fill="#8379AD" d="M10.724,4.834v2.08H8.643v-2.08H10.724 M12.724,2.834H6.643v6.08h6.081V2.834L12.724,2.834z"/>
	</g>
	<g>
		<rect x="16.863" y="9.915" fill="#A198C0" width="4.082" height="4.082"/>
		<path fill="#8379AD" d="M19.945,10.915v2.082h-2.082v-2.082H19.945 M21.945,8.915h-6.082v6.082h6.082V8.915L21.945,8.915z"/>
	</g>
</g>
</svg>
