<?xml version="1.0" encoding="utf-8"?>
<!DOCTYPE svg PUBLIC "-//W3C//DTD SVG 1.1//EN" "http://www.w3.org/Graphics/SVG/1.1/DTD/svg11.dtd">
<svg version="1.1" id="Calque_1" xmlns="http://www.w3.org/2000/svg" xmlns:xlink="http://www.w3.org/1999/xlink" x="0px" y="0px"
	 width="22px" height="22px" viewBox="-4 -2 22 22" enable-background="new -4 -2 22 22" xml:space="preserve">
<g>
	<rect x="-3" y="14.919" fill="#A198C0" width="4.081" height="4.081"/>
	<path fill="#8379AD" d="M0.081,15.919V18H-2v-2.081H0.081 M2.081,13.919H-4V20h6.081V13.919L2.081,13.919z"/>
</g>
<g>
	<rect x="-3" y="2.129" fill="#A198C0" width="4.081" height="4.081"/>
	<path fill="#8379AD" d="M0.081,3.129V5.21H-2V3.129H0.081 M2.081,1.129H-4V7.21h6.081V1.129L2.081,1.129z"/>
</g>
<g>
	<rect x="11.834" y="-1.004" fill="#A198C0" width="4.08" height="4.081"/>
	<path fill="#8379AD" d="M14.914-0.004v2.081h-2.08v-2.081H14.914 M16.914-2.004h-6.08v6.081h6.08V-2.004L16.914-2.004z"/>
</g>
<g>
	<rect x="6.365" y="7.806" fill="#A198C0" width="4.08" height="4.081"/>
	<path fill="#8379AD" d="M9.445,8.806v2.081h-2.08V8.806H9.445 M11.445,6.806h-6.08v6.081h6.08V6.806L11.445,6.806z"/>
</g>
<g>
	<rect x="12.92" y="14.045" fill="#A198C0" width="4.08" height="4.081"/>
	<path fill="#8379AD" d="M16,15.045v2.081h-2.08v-2.081H16 M18,13.045h-6.08v6.081H18V13.045L18,13.045z"/>
</g>
</svg>
