<?xml version="1.0" encoding="utf-8"?>
<!DOCTYPE svg PUBLIC "-//W3C//DTD SVG 1.1//EN" "http://www.w3.org/Graphics/SVG/1.1/DTD/svg11.dtd">
<svg version="1.1" id="Calque_1" xmlns="http://www.w3.org/2000/svg" xmlns:xlink="http://www.w3.org/1999/xlink" x="0px" y="0px"
	 width="872px" height="72px" viewBox="0 0 872 72" style="enable-background:new 0 0 872 72;" xml:space="preserve">
<style type="text/css"><![CDATA[
	.st0{fill:#A198C0;fill-opacity:0.5;} .st1{fill:#E9E9F1;} .st2{opacity:0.3;fill:#A198C0;enable-background:new;} .st3{opacity:0.1;fill:#3D3D3C;enable-background:new;}
]]></style>
<rect x="0.2" class="st0" width="872" height="72"/>
<rect x="1" y="1.3" class="st3" width="7.5" height="7.7"/>
<rect x="8.5" y="9" class="st3" width="7.5" height="7.7"/>
<rect x="16.1" y="16.7" class="st3" width="7.5" height="7.7"/>
<rect x="8.5" y="24.4" class="st3" width="7.5" height="7.7"/>
<rect x="16.1" y="32.1" class="st3" width="7.5" height="7.7"/>
<rect x="8.5" y="39.9" class="st3" width="7.5" height="7.7"/>
<rect x="16.1" y="47.6" class="st3" width="7.5" height="7.7"/>
<rect x="1" y="16.7" class="st3" width="7.5" height="7.7"/>
<rect x="1" y="32.1" class="st3" width="7.5" height="7.7"/>
<rect x="1" y="47.6" class="st3" width="7.5" height="7.7"/>
<rect x="22.6" y="39.9" class="st3" width="7.5" height="7.7"/>
<rect x="31.1" y="47.6" class="st3" width="7.5" height="7.7"/>
<rect x="23.6" y="24.4" class="st3" width="7.5" height="7.7"/>
<rect x="31.1" y="32.1" class="st3" width="7.5" height="7.7"/>
<rect x="38.6" y="39.9" class="st3" width="7.5" height="7.7"/>
<rect x="8.5" y="55.3" class="st3" width="7.5" height="7.7"/>
<rect x="23.6" y="55.3" class="st3" width="7.5" height="7.7"/>
<rect x="38.6" y="55.3" class="st3" width="7.5" height="7.7"/>
<rect x="46.1" y="47.6" class="st3" width="7.5" height="7.7"/>
<rect x="53.7" y="55.3" class="st3" width="7.5" height="7.7"/>
<rect x="53.7" y="39.9" class="st3" width="7.5" height="7.7"/>
<rect x="46.1" y="32.1" class="st3" width="7.5" height="7.7"/>
<rect x="38.6" y="24.4" class="st3" width="7.5" height="7.7"/>
<rect x="31.1" y="16.7" class="st3" width="7.5" height="7.7"/>
<rect x="23.6" y="9" class="st3" width="7.5" height="7.7"/>
<rect x="16.1" y="1.3" class="st3" width="7.5" height="7.7"/>
<rect x="31.1" y="1.3" class="st3" width="7.5" height="7.7"/>
<rect x="38.6" y="9" class="st3" width="7.5" height="7.7"/>
<rect x="46.1" y="1.3" class="st3" width="7.5" height="7.7"/>
<rect x="53.7" y="9" class="st3" width="7.5" height="7.7"/>
<rect x="46.1" y="16.7" class="st3" width="7.5" height="7.7"/>
<rect x="53.7" y="24.4" class="st3" width="7.5" height="7.7"/>
<rect x="61.2" y="1.3" class="st3" width="7.5" height="7.7"/>
<rect x="68.7" y="9" class="st3" width="7.5" height="7.7"/>
<rect x="76.2" y="16.7" class="st3" width="7.5" height="7.7"/>
<rect x="68.7" y="24.4" class="st3" width="7.5" height="7.7"/>
<rect x="76.2" y="32.1" class="st3" width="7.5" height="7.7"/>
<rect x="68.7" y="39.9" class="st3" width="7.5" height="7.7"/>
<rect x="76.2" y="47.6" class="st3" width="7.5" height="7.7"/>
<rect x="61.2" y="16.7" class="st3" width="7.5" height="7.7"/>
<rect x="61.2" y="32.1" class="st3" width="7.5" height="7.7"/>
<rect x="61.2" y="47.6" class="st3" width="7.5" height="7.7"/>
<rect x="83.8" y="39.9" class="st3" width="7.5" height="7.7"/>
<rect x="91.3" y="47.6" class="st3" width="7.5" height="7.7"/>
<rect x="83.8" y="24.4" class="st3" width="7.5" height="7.7"/>
<rect x="91.3" y="32.1" class="st3" width="7.5" height="7.7"/>
<rect x="98.8" y="39.9" class="st3" width="7.5" height="7.7"/>
<rect x="68.7" y="55.3" class="st3" width="7.5" height="7.7"/>
<rect x="16.1" y="63" class="st3" width="7.5" height="7.7"/>
<rect x="1" y="63" class="st3" width="7.5" height="7.7"/>
<rect x="31.1" y="63" class="st3" width="7.5" height="7.7"/>
<rect x="46.1" y="63" class="st3" width="7.5" height="7.7"/>
<rect x="61.2" y="63" class="st3" width="7.5" height="7.7"/>
<rect x="83.8" y="55.3" class="st3" width="7.5" height="7.7"/>
<rect x="98.8" y="55.3" class="st3" width="7.5" height="7.7"/>
<rect x="106.3" y="47.6" class="st3" width="7.5" height="7.7"/>
<rect x="113.8" y="55.3" class="st3" width="7.5" height="7.7"/>
<rect x="113.8" y="39.9" class="st3" width="7.5" height="7.7"/>
<rect x="106.3" y="32.1" class="st3" width="7.5" height="7.7"/>
<rect x="98.8" y="24.4" class="st3" width="7.5" height="7.7"/>
<rect x="91.3" y="16.7" class="st3" width="7.5" height="7.7"/>
<rect x="83.8" y="9" class="st3" width="7.5" height="7.7"/>
<rect x="76.2" y="1.3" class="st3" width="7.5" height="7.7"/>
<rect x="91.3" y="1.3" class="st3" width="7.5" height="7.7"/>
<rect x="98.8" y="9" class="st3" width="7.5" height="7.7"/>
<rect x="106.3" y="1.3" class="st3" width="7.5" height="7.7"/>
<rect x="113.8" y="9" class="st3" width="7.5" height="7.7"/>
<rect x="106.3" y="16.7" class="st3" width="7.5" height="7.7"/>
<rect x="113.8" y="24.4" class="st3" width="7.5" height="7.7"/>
<rect x="121.4" y="1.3" class="st3" width="7.5" height="7.7"/>
<rect x="128.9" y="9" class="st3" width="7.5" height="7.7"/>
<rect x="136.4" y="16.7" class="st3" width="7.5" height="7.7"/>
<rect x="128.9" y="24.4" class="st3" width="7.5" height="7.7"/>
<rect x="136.4" y="32.1" class="st3" width="7.5" height="7.7"/>
<rect x="128.9" y="39.9" class="st3" width="7.5" height="7.7"/>
<rect x="136.4" y="47.6" class="st3" width="7.5" height="7.7"/>
<rect x="121.4" y="16.7" class="st3" width="7.5" height="7.7"/>
<rect x="121.4" y="32.1" class="st3" width="7.5" height="7.7"/>
<rect x="121.4" y="47.6" class="st3" width="7.5" height="7.7"/>
<rect x="143.9" y="39.9" class="st3" width="7.5" height="7.7"/>
<rect x="151.4" y="47.6" class="st3" width="7.5" height="7.7"/>
<rect x="143.9" y="24.4" class="st3" width="7.5" height="7.7"/>
<rect x="151.4" y="32.1" class="st3" width="7.5" height="7.7"/>
<rect x="159" y="39.9" class="st3" width="7.5" height="7.7"/>
<rect x="128.9" y="55.3" class="st3" width="7.5" height="7.7"/>
<rect x="143.9" y="55.3" class="st3" width="7.5" height="7.7"/>
<rect x="159" y="55.3" class="st3" width="7.5" height="7.7"/>
<rect x="166.5" y="47.6" class="st3" width="7.5" height="7.7"/>
<rect x="174" y="55.3" class="st3" width="7.5" height="7.7"/>
<rect x="174" y="39.9" class="st3" width="7.5" height="7.7"/>
<rect x="166.5" y="32.1" class="st3" width="7.5" height="7.7"/>
<rect x="159" y="24.4" class="st3" width="7.5" height="7.7"/>
<rect x="151.4" y="16.7" class="st3" width="7.5" height="7.7"/>
<rect x="143.9" y="9" class="st3" width="7.5" height="7.7"/>
<rect x="136.4" y="1.3" class="st3" width="7.5" height="7.7"/>
<rect x="151.4" y="1.3" class="st3" width="7.5" height="7.7"/>
<rect x="159" y="9" class="st3" width="7.5" height="7.7"/>
<rect x="166.5" y="1.3" class="st3" width="7.5" height="7.7"/>
<rect x="174" y="9" class="st3" width="7.5" height="7.7"/>
<rect x="166.5" y="16.7" class="st3" width="7.5" height="7.7"/>
<rect x="174" y="24.4" class="st3" width="7.5" height="7.7"/>
<rect x="181.5" y="1.3" class="st3" width="7.5" height="7.7"/>
<rect x="189" y="9" class="st3" width="7.5" height="7.7"/>
<rect x="196.6" y="16.7" class="st3" width="7.5" height="7.7"/>
<rect x="189" y="24.4" class="st3" width="7.5" height="7.7"/>
<rect x="196.6" y="32.1" class="st3" width="7.5" height="7.7"/>
<rect x="189" y="39.9" class="st3" width="7.5" height="7.7"/>
<rect x="196.6" y="47.6" class="st3" width="7.5" height="7.7"/>
<rect x="181.5" y="16.7" class="st3" width="7.5" height="7.7"/>
<rect x="181.5" y="32.1" class="st3" width="7.5" height="7.7"/>
<rect x="181.5" y="47.6" class="st3" width="7.5" height="7.7"/>
<rect x="204.1" y="39.9" class="st3" width="7.5" height="7.7"/>
<rect x="211.6" y="47.6" class="st3" width="7.5" height="7.7"/>
<rect x="204.1" y="24.4" class="st3" width="7.5" height="7.7"/>
<rect x="211.6" y="32.1" class="st3" width="7.5" height="7.7"/>
<rect x="219.1" y="39.9" class="st3" width="7.5" height="7.7"/>
<rect x="189" y="55.3" class="st3" width="7.5" height="7.7"/>
<rect x="204.1" y="55.3" class="st3" width="7.5" height="7.7"/>
<rect x="219.1" y="55.3" class="st3" width="7.5" height="7.7"/>
<rect x="226.6" y="47.6" class="st3" width="7.5" height="7.7"/>
<rect x="234.2" y="55.3" class="st3" width="7.5" height="7.7"/>
<rect x="234.2" y="39.9" class="st3" width="7.5" height="7.7"/>
<rect x="226.6" y="32.1" class="st3" width="7.5" height="7.7"/>
<rect x="219.1" y="24.4" class="st3" width="7.5" height="7.7"/>
<rect x="211.6" y="16.7" class="st3" width="7.5" height="7.7"/>
<rect x="204.1" y="9" class="st3" width="7.5" height="7.7"/>
<rect x="196.6" y="1.3" class="st3" width="7.5" height="7.7"/>
<rect x="211.6" y="1.3" class="st3" width="7.5" height="7.7"/>
<rect x="219.1" y="9" class="st3" width="7.5" height="7.7"/>
<rect x="226.6" y="1.3" class="st3" width="7.5" height="7.7"/>
<rect x="234.2" y="9" class="st3" width="7.5" height="7.7"/>
<rect x="226.6" y="16.7" class="st3" width="7.5" height="7.7"/>
<rect x="234.2" y="24.4" class="st3" width="7.5" height="7.7"/>
<rect x="241.7" y="1.3" class="st3" width="7.5" height="7.7"/>
<rect x="249.2" y="9" class="st3" width="7.5" height="7.7"/>
<rect x="256.7" y="16.7" class="st3" width="7.5" height="7.7"/>
<rect x="249.2" y="24.4" class="st3" width="7.5" height="7.7"/>
<rect x="256.7" y="32.1" class="st3" width="7.5" height="7.7"/>
<rect x="249.2" y="39.9" class="st3" width="7.5" height="7.7"/>
<rect x="256.7" y="47.6" class="st3" width="7.5" height="7.7"/>
<rect x="241.7" y="16.7" class="st3" width="7.5" height="7.7"/>
<rect x="241.7" y="32.1" class="st3" width="7.5" height="7.7"/>
<rect x="241.7" y="47.6" class="st3" width="7.5" height="7.7"/>
<rect x="264.2" y="39.9" class="st3" width="7.5" height="7.7"/>
<rect x="271.8" y="47.6" class="st3" width="7.5" height="7.7"/>
<rect x="264.2" y="24.4" class="st3" width="7.5" height="7.7"/>
<rect x="271.8" y="32.1" class="st3" width="7.5" height="7.7"/>
<rect x="279.3" y="39.9" class="st3" width="7.5" height="7.7"/>
<rect x="249.2" y="55.3" class="st3" width="7.5" height="7.7"/>
<rect x="264.2" y="55.3" class="st3" width="7.5" height="7.7"/>
<rect x="279.3" y="55.3" class="st3" width="7.5" height="7.7"/>
<rect x="286.8" y="47.6" class="st3" width="7.5" height="7.7"/>
<rect x="294.3" y="55.3" class="st3" width="7.5" height="7.7"/>
<rect x="294.3" y="39.9" class="st3" width="7.5" height="7.7"/>
<rect x="286.8" y="32.1" class="st3" width="7.5" height="7.7"/>
<rect x="279.3" y="24.4" class="st3" width="7.5" height="7.7"/>
<rect x="271.8" y="16.7" class="st3" width="7.5" height="7.7"/>
<rect x="264.2" y="9" class="st3" width="7.5" height="7.7"/>
<rect x="256.7" y="1.3" class="st3" width="7.5" height="7.7"/>
<rect x="271.8" y="1.3" class="st3" width="7.5" height="7.7"/>
<rect x="279.3" y="9" class="st3" width="7.5" height="7.7"/>
<rect x="286.8" y="1.3" class="st3" width="7.5" height="7.7"/>
<rect x="294.3" y="9" class="st3" width="7.5" height="7.7"/>
<rect x="286.8" y="16.7" class="st3" width="7.5" height="7.7"/>
<rect x="294.3" y="24.4" class="st3" width="7.5" height="7.7"/>
<rect x="301.8" y="1.3" class="st3" width="7.5" height="7.7"/>
<rect x="309.4" y="9" class="st3" width="7.5" height="7.7"/>
<rect x="316.9" y="16.7" class="st3" width="7.5" height="7.7"/>
<rect x="309.4" y="24.4" class="st3" width="7.5" height="7.7"/>
<rect x="316.9" y="32.1" class="st3" width="7.5" height="7.7"/>
<rect x="309.4" y="39.9" class="st3" width="7.5" height="7.7"/>
<rect x="316.9" y="47.6" class="st3" width="7.5" height="7.7"/>
<rect x="301.8" y="16.7" class="st3" width="7.5" height="7.7"/>
<rect x="301.8" y="32.1" class="st3" width="7.5" height="7.7"/>
<rect x="301.8" y="47.6" class="st3" width="7.5" height="7.7"/>
<rect x="324.4" y="39.9" class="st3" width="7.5" height="7.7"/>
<rect x="331.9" y="47.6" class="st3" width="7.5" height="7.7"/>
<rect x="324.4" y="24.4" class="st3" width="7.5" height="7.7"/>
<rect x="331.9" y="32.1" class="st3" width="7.5" height="7.7"/>
<rect x="339.4" y="39.9" class="st3" width="7.5" height="7.7"/>
<rect x="309.4" y="55.3" class="st3" width="7.5" height="7.7"/>
<rect x="324.4" y="55.3" class="st3" width="7.5" height="7.7"/>
<rect x="339.4" y="55.3" class="st3" width="7.5" height="7.7"/>
<rect x="347" y="47.6" class="st3" width="7.5" height="7.7"/>
<rect x="354.5" y="55.3" class="st3" width="7.5" height="7.7"/>
<rect x="354.5" y="39.9" class="st3" width="7.5" height="7.7"/>
<rect x="347" y="32.1" class="st3" width="7.5" height="7.7"/>
<rect x="339.4" y="24.4" class="st3" width="7.5" height="7.7"/>
<rect x="331.9" y="16.7" class="st3" width="7.5" height="7.7"/>
<rect x="324.4" y="9" class="st3" width="7.5" height="7.7"/>
<rect x="316.9" y="1.3" class="st3" width="7.5" height="7.7"/>
<rect x="331.9" y="1.3" class="st3" width="7.5" height="7.7"/>
<rect x="339.4" y="9" class="st3" width="7.5" height="7.7"/>
<rect x="347" y="1.3" class="st3" width="7.5" height="7.7"/>
<rect x="354.5" y="9" class="st3" width="7.5" height="7.7"/>
<rect x="347" y="16.7" class="st3" width="7.5" height="7.7"/>
<rect x="354.5" y="24.4" class="st3" width="7.5" height="7.7"/>
<rect x="362" y="16.7" class="st3" width="7.5" height="7.7"/>
<rect x="362" y="32.1" class="st3" width="7.5" height="7.7"/>
<rect x="362" y="47.6" class="st3" width="7.5" height="7.7"/>
<rect x="369.5" y="39.9" class="st3" width="7.5" height="7.7"/>
<rect x="377" y="47.6" class="st3" width="7.5" height="7.7"/>
<rect x="369.5" y="24.4" class="st3" width="7.5" height="7.7"/>
<rect x="377" y="32.1" class="st3" width="7.5" height="7.7"/>
<rect x="384.6" y="39.9" class="st3" width="7.5" height="7.7"/>
<rect x="369.5" y="55.3" class="st3" width="7.5" height="7.7"/>
<rect x="384.6" y="55.3" class="st3" width="7.5" height="7.7"/>
<rect x="392.1" y="47.6" class="st3" width="7.5" height="7.7"/>
<rect x="392.1" y="32.1" class="st3" width="7.5" height="7.7"/>
<rect x="384.6" y="24.4" class="st3" width="7.5" height="7.7"/>
<rect x="377" y="16.7" class="st3" width="7.5" height="7.7"/>
<rect x="369.5" y="9" class="st3" width="7.5" height="7.7"/>
<rect x="362" y="1.3" class="st3" width="7.5" height="7.7"/>
<rect x="377" y="1.3" class="st3" width="7.5" height="7.7"/>
<rect x="384.6" y="9" class="st3" width="7.5" height="7.7"/>
<rect x="392.1" y="1.3" class="st3" width="7.5" height="7.7"/>
<rect x="392.1" y="16.7" class="st3" width="7.5" height="7.7"/>
<rect x="76.2" y="63" class="st3" width="7.5" height="7.7"/>
<rect x="91.3" y="63" class="st3" width="7.5" height="7.7"/>
<rect x="106.3" y="63" class="st3" width="7.5" height="7.7"/>
<rect x="136.4" y="63" class="st3" width="7.5" height="7.7"/>
<rect x="121.4" y="63" class="st3" width="7.5" height="7.7"/>
<rect x="151.4" y="63" class="st3" width="7.5" height="7.7"/>
<rect x="166.5" y="63" class="st3" width="7.5" height="7.7"/>
<rect x="196.6" y="63" class="st3" width="7.5" height="7.7"/>
<rect x="181.5" y="63" class="st3" width="7.5" height="7.7"/>
<rect x="211.6" y="63" class="st3" width="7.5" height="7.7"/>
<rect x="226.6" y="63" class="st3" width="7.5" height="7.7"/>
<rect x="256.7" y="63" class="st3" width="7.5" height="7.7"/>
<rect x="241.7" y="63" class="st3" width="7.5" height="7.7"/>
<rect x="271.8" y="63" class="st3" width="7.5" height="7.7"/>
<rect x="286.8" y="63" class="st3" width="7.5" height="7.7"/>
<rect x="316.9" y="63" class="st3" width="7.5" height="7.7"/>
<rect x="301.8" y="63" class="st3" width="7.5" height="7.7"/>
<rect x="331.9" y="63" class="st3" width="7.5" height="7.7"/>
<rect x="347" y="63" class="st3" width="7.5" height="7.7"/>
<rect x="362" y="63" class="st3" width="7.5" height="7.7"/>
<rect x="377" y="63" class="st3" width="7.5" height="7.7"/>
<rect x="392.1" y="63" class="st3" width="7.5" height="7.7"/>
<rect x="399.6" y="9" class="st3" width="7.5" height="7.7"/>
<rect x="407.1" y="16.7" class="st3" width="7.5" height="7.7"/>
<rect x="399.6" y="24.4" class="st3" width="7.5" height="7.7"/>
<rect x="407.1" y="32.1" class="st3" width="7.5" height="7.7"/>
<rect x="399.6" y="39.9" class="st3" width="7.5" height="7.7"/>
<rect x="407.1" y="47.6" class="st3" width="7.5" height="7.7"/>
<rect x="414.7" y="39.9" class="st3" width="7.5" height="7.7"/>
<rect x="422.2" y="47.6" class="st3" width="7.5" height="7.7"/>
<rect x="414.7" y="24.4" class="st3" width="7.5" height="7.7"/>
<rect x="422.2" y="32.1" class="st3" width="7.5" height="7.7"/>
<rect x="429.7" y="39.9" class="st3" width="7.5" height="7.7"/>
<rect x="399.6" y="55.3" class="st3" width="7.5" height="7.7"/>
<rect x="414.7" y="55.3" class="st3" width="7.5" height="7.7"/>
<rect x="429.7" y="55.3" class="st3" width="7.5" height="7.7"/>
<rect x="437.2" y="47.6" class="st3" width="7.5" height="7.7"/>
<rect x="444.7" y="55.3" class="st3" width="7.5" height="7.7"/>
<rect x="444.7" y="39.9" class="st3" width="7.5" height="7.7"/>
<rect x="437.2" y="32.1" class="st3" width="7.5" height="7.7"/>
<rect x="429.7" y="24.4" class="st3" width="7.5" height="7.7"/>
<rect x="422.2" y="16.7" class="st3" width="7.5" height="7.7"/>
<rect x="414.7" y="9" class="st3" width="7.5" height="7.7"/>
<rect x="407.1" y="1.3" class="st3" width="7.5" height="7.7"/>
<rect x="422.2" y="1.3" class="st3" width="7.5" height="7.7"/>
<rect x="429.7" y="9" class="st3" width="7.5" height="7.7"/>
<rect x="437.2" y="1.3" class="st3" width="7.5" height="7.7"/>
<rect x="444.7" y="9" class="st3" width="7.5" height="7.7"/>
<rect x="437.2" y="16.7" class="st3" width="7.5" height="7.7"/>
<rect x="444.7" y="24.4" class="st3" width="7.5" height="7.7"/>
<rect x="452.2" y="1.3" class="st3" width="7.5" height="7.7"/>
<rect x="459.8" y="9" class="st3" width="7.5" height="7.7"/>
<rect x="467.3" y="16.7" class="st3" width="7.5" height="7.7"/>
<rect x="459.8" y="24.4" class="st3" width="7.5" height="7.7"/>
<rect x="467.3" y="32.1" class="st3" width="7.5" height="7.7"/>
<rect x="459.8" y="39.9" class="st3" width="7.5" height="7.7"/>
<rect x="467.3" y="47.6" class="st3" width="7.5" height="7.7"/>
<rect x="452.2" y="16.7" class="st3" width="7.5" height="7.7"/>
<rect x="452.2" y="32.1" class="st3" width="7.5" height="7.7"/>
<rect x="452.2" y="47.6" class="st3" width="7.5" height="7.7"/>
<rect x="474.8" y="39.9" class="st3" width="7.5" height="7.7"/>
<rect x="482.3" y="47.6" class="st3" width="7.5" height="7.7"/>
<rect x="474.8" y="24.4" class="st3" width="7.5" height="7.7"/>
<rect x="482.3" y="32.1" class="st3" width="7.5" height="7.7"/>
<rect x="489.8" y="39.9" class="st3" width="7.5" height="7.7"/>
<rect x="459.8" y="55.3" class="st3" width="7.5" height="7.7"/>
<rect x="474.8" y="55.3" class="st3" width="7.5" height="7.7"/>
<rect x="489.8" y="55.3" class="st3" width="7.5" height="7.7"/>
<rect x="497.4" y="47.6" class="st3" width="7.5" height="7.7"/>
<rect x="504.9" y="55.3" class="st3" width="7.5" height="7.7"/>
<rect x="504.9" y="39.9" class="st3" width="7.5" height="7.7"/>
<rect x="497.4" y="32.1" class="st3" width="7.5" height="7.7"/>
<rect x="489.8" y="24.4" class="st3" width="7.5" height="7.7"/>
<rect x="482.3" y="16.7" class="st3" width="7.5" height="7.7"/>
<rect x="474.8" y="9" class="st3" width="7.5" height="7.7"/>
<rect x="467.3" y="1.3" class="st3" width="7.5" height="7.7"/>
<rect x="482.3" y="1.3" class="st3" width="7.5" height="7.7"/>
<rect x="489.8" y="9" class="st3" width="7.5" height="7.7"/>
<rect x="497.4" y="1.3" class="st3" width="7.5" height="7.7"/>
<rect x="504.9" y="9" class="st3" width="7.5" height="7.7"/>
<rect x="497.4" y="16.7" class="st3" width="7.5" height="7.7"/>
<rect x="504.9" y="24.4" class="st3" width="7.5" height="7.7"/>
<rect x="512.4" y="16.7" class="st3" width="7.5" height="7.7"/>
<rect x="512.4" y="32.1" class="st3" width="7.5" height="7.7"/>
<rect x="512.4" y="47.6" class="st3" width="7.5" height="7.7"/>
<rect x="519.9" y="39.9" class="st3" width="7.5" height="7.7"/>
<rect x="527.5" y="47.6" class="st3" width="7.5" height="7.7"/>
<rect x="519.9" y="24.4" class="st3" width="7.5" height="7.7"/>
<rect x="527.5" y="32.1" class="st3" width="7.5" height="7.7"/>
<rect x="535" y="39.9" class="st3" width="7.5" height="7.7"/>
<rect x="519.9" y="55.3" class="st3" width="7.5" height="7.7"/>
<rect x="535" y="55.3" class="st3" width="7.5" height="7.7"/>
<rect x="542.5" y="47.6" class="st3" width="7.5" height="7.7"/>
<rect x="542.5" y="32.1" class="st3" width="7.5" height="7.7"/>
<rect x="535" y="24.4" class="st3" width="7.5" height="7.7"/>
<rect x="527.5" y="16.7" class="st3" width="7.5" height="7.7"/>
<rect x="519.9" y="9" class="st3" width="7.5" height="7.7"/>
<rect x="512.4" y="1.3" class="st3" width="7.5" height="7.7"/>
<rect x="527.5" y="1.3" class="st3" width="7.5" height="7.7"/>
<rect x="535" y="9" class="st3" width="7.5" height="7.7"/>
<rect x="542.5" y="16.7" class="st3" width="7.5" height="7.7"/>
<rect x="407.1" y="63" class="st3" width="7.5" height="7.7"/>
<rect x="422.2" y="63" class="st3" width="7.5" height="7.7"/>
<rect x="437.2" y="63" class="st3" width="7.5" height="7.7"/>
<rect x="467.3" y="63" class="st3" width="7.5" height="7.7"/>
<rect x="452.2" y="63" class="st3" width="7.5" height="7.7"/>
<rect x="482.3" y="63" class="st3" width="7.5" height="7.7"/>
<rect x="497.4" y="63" class="st3" width="7.5" height="7.7"/>
<rect x="512.4" y="63" class="st3" width="7.5" height="7.7"/>
<rect x="527.5" y="63" class="st3" width="7.5" height="7.7"/>
<rect x="542.5" y="63" class="st3" width="7.5" height="7.7"/>
<rect x="550" y="24.4" class="st3" width="7.5" height="7.7"/>
<rect x="557.5" y="32.1" class="st3" width="7.5" height="7.7"/>
<rect x="550" y="39.9" class="st3" width="7.5" height="7.7"/>
<rect x="557.5" y="47.6" class="st3" width="7.5" height="7.7"/>
<rect x="565" y="39.9" class="st3" width="7.5" height="7.7"/>
<rect x="572.6" y="47.6" class="st3" width="7.5" height="7.7"/>
<rect x="550" y="55.3" class="st3" width="7.5" height="7.7"/>
<rect x="565" y="55.3" class="st3" width="7.5" height="7.7"/>
<rect x="580.1" y="55.3" class="st3" width="7.5" height="7.7"/>
<rect x="587.6" y="47.6" class="st3" width="7.5" height="7.7"/>
<rect x="557.5" y="63" class="st3" width="7.5" height="7.7"/>
<rect x="572.6" y="63" class="st3" width="7.5" height="7.7"/>
<path class="st1" d="M597.2,54.3c0,0-30,2.9-63.2-54.3h338.1v72H568.5C568.5,72,581.6,57.5,597.2,54.3z"/>
<path class="st2" d="M594.5,54.3c15.4,1.1,18.3-10.6,34.2-27.7c7.8-8.4,19.9-7.6,19.9-7.6L660,42.7C660,42.7,645.4,81.1,594.5,54.3z"/>
<path class="st2" d="M699.3,0.4c-8.2,4-15.9,7.7-18.9,9.1c-7.6,3.7-25.8,5.9-25.8,5.9l11.4,23.7c0,0,12.5-14,20.1-17.7
	c6.5-3.1,35.3-17.1,43.4-21L699.3,0.4L699.3,0.4z"/>
</svg>
