<svg xmlns="http://www.w3.org/2000/svg" width="22" height="22" viewBox="0 0 22 22"><path opacity=".44" fill="#A198C0" stroke="#8379AD" stroke-width="2" enable-background="new" d="M3.068 3.037h15.927v15.927H3.068z"/><path fill="none" stroke="#8379AD" stroke-width="2" d="M3.068 3.037h15.927v15.928H3.068z"/><path fill="#A198C0" d="M16.892 1h4.08v4.082h-4.08z"/><path fill="#8379AD" d="M19.973 2v2.082h-2.08V2h2.08m2-2h-6.08v6.082h6.08V0z"/><path fill="#A198C0" d="M16.892 16.918h4.08V21h-4.08z"/><path fill="#8379AD" d="M19.973 17.918V20h-2.08v-2.082h2.08m2-2h-6.08V22h6.08v-6.082z"/><path fill="#A198C0" d="M1.027 16.918h4.08V21h-4.08z"/><path fill="#8379AD" d="M4.108 17.918V20h-2.08v-2.082h2.08m2-2H.028V22h6.08v-6.082z"/><path fill="#A198C0" d="M1.027 1h4.08v4.082h-4.08z"/><path fill="#8379AD" d="M4.108 2v2.082h-2.08V2h2.08m2-2H.028v6.082h6.08V0z"/></svg>