<svg xmlns="http://www.w3.org/2000/svg" width="872" height="432.3" viewBox="0 0 872 432.3"><style type="text/css"><![CDATA[
	.st0{fill:#A198C0;fill-opacity:0.5;}
	.st1{opacity:3.000000e-02;fill:#3D3D3C;enable-background:new    ;}
	.st2{fill:#7D7D7D;}
	.st3{fill:#7D7D7E;}
	.st4{opacity:0.13;fill:none;stroke:#010202;stroke-width:2;enable-background:new    ;}
	.st5{opacity:0.5;fill:#4D4D4D;enable-background:new    ;}
	.st6{fill:#4D4D4D;}
	.st7{fill:#4E4E4E;}
	.st8{fill:#E9E9F1;}
	.st9{fill:#E9EAF2;}
	.st10{opacity:0.75;}
	.st11{fill:#585858;}
	.st12{opacity:0.13;fill:none;stroke:#010202;stroke-width:0.75;enable-background:new    ;}
	.st13{opacity:0.13;fill:none;stroke:#000000;stroke-width:0.75;enable-background:new    ;}
	.st14{opacity:0.3;fill:#A198C0;enable-background:new    ;}
	.st15{opacity:0.13;fill:#3D3D3C;stroke:#010202;stroke-width:2;enable-background:new    ;}
	.st16{opacity:0.1;fill:#3D3D3C;enable-background:new    ;}
	.st17{opacity:0.5;fill:#4E4E4E;enable-background:new    ;}
	.st18{fill:#A198C1;fill-opacity:0.5;}
	.st19{fill:#D0CCDF;}
	.st20{fill:#3D3D3C;}
	.st21{opacity:0.1;enable-background:new    ;}
	.st22{opacity:3.000000e-02;fill:#585858;enable-background:new    ;}
	.st23{opacity:0.13;fill:#3D3D3C;stroke:#000000;stroke-width:2;enable-background:new    ;}
	.st24{opacity:0.3;fill:#A198C1;enable-background:new    ;}
]]></style><path class="st18" d="M0 .1h872v71.3H0z"/><path class="st15" d="M312.843 16.018l-2.9-.014.014-3 2.9.014zM292.922 66.1l-2.9-.012.014-3 2.9.013zM299.66 7.84l-2.9-.012.014-3 2.9.013zM389.427 64.237l-2.9-.014.014-3 2.9.014zM403.45 20.964l-3-.016.015-3 3 .016zM422.908 10.88l-3-.014.016-3 3 .015zM485.453 10.72l-3-.016.015-3 3 .015zM507.454 14.6l-3-.016.016-3 3 .016zM534.878 40.215l-3-.016.016-3 3 .015zM484.032 38.782l-3-.016.016-3 3 .016zM455.072 64.262l-2.9-.015.016-3 2.9.015zM493.454 61.22l-3-.015.016-3 3 .016zM506.036 55.962l-3-.015.016-3 3 .015zM560.532 49.97l-3-.015.014-3 3 .014zM216.178 48.347l-3-.013.013-3 3 .013zM276.64 31.62l-2.9-.012.013-3 2.9.013zM251.943 54.602l-2.9-.013.015-3 2.9.012zM368.386 14.576l-2.9-.01.012-3 2.9.01zM209.936 33.425l-3-.014.014-3 3 .015zM103.895 36.453l-3-.014.014-3 3 .013zM75.676 9.232l-2.9-.013.013-3 2.9.012zM68.493 62.752l-2.9-.013.013-3 2.9.012zM15.514 12.646l-3-.013.013-3 3 .013zM35.477 56.866l-2.9-.013.014-3 2.9.013zM54.475 40.246l-2.9-.014.014-3 2.9.014zM77.11 53.076l-3-.013.015-3 3 .013zM362.663 41.616l-2.9-.014.014-3 2.9.014zM93.918 16.024l-2.9-.014.015-3 2.9.014zM159.033 62.76l-3-.013.014-3 3 .014z"/><path class="st4" d="M.5 39.2l15 15.3L26 22.9l41 9.4 34.5-9.4 12-22.8M67 71.4l31.5-6 23.8-18.8-3-25.7 47.2 11.4 10.9 25.2 25.7-54.4"/><path class="st12" d="M228.6 2.2"/><path class="st15" d="M137.96 42.606l-2.9-.014.014-3 2.9.014zM236.48 20.217l-2.9-.012.014-3 2.9.012z"/><path class="st4" d="M225.1.7l61.1 22.9-9.7 33L334.1 22l34.2 50M397 71.5l39-7.9 29.7-38.1 7.8 30.7 31-16.8 34 17.8L559 13.6M373.1 1.1l37.3 53.4 11.2-31.1L447.7.1"/><path class="st9" d="M596.5 53.8s-30 2.8-63.2-53.8h338.1v71.3H567.7s13.1-14.3 28.8-17.5z"/><path class="st24" d="M593.7 53.7c15.4 1.1 18.3-10.5 34.2-27.4 7.8-8.3 19.9-7.5 19.9-7.5l11.4 23.5s-14.5 38-65.5 11.4zM698.6.4c-8.2 3.9-15.9 7.6-18.9 9-7.6 3.6-25.8 5.8-25.8 5.8l11.4 23.5s12.5-13.9 20.1-17.5c6.5-3.1 35.3-16.9 43.4-20.8h-30.2z"/><path class="st7" d="M0 217.2h872v71.3H0z"/><path class="st15" d="M312.845 233.2l-2.9-.015.014-3 2.9.014zM292.924 283.282l-2.9-.014.014-3 2.9.014zM299.656 225.02l-2.9-.015.014-3 2.9.014zM389.43 281.317l-2.9-.014.013-3 2.9.014zM403.45 238.143l-3-.016.017-3 3 .016zM422.91 227.962l-3-.016.015-3 3 .016zM485.454 227.902l-3-.016.016-3 3 .016zM507.454 231.78l-3-.014.015-3 3 .015zM534.783 257.393l-3-.017.017-3 3 .017zM484.035 255.86l-3-.015.015-3 3 .015zM455.07 281.342l-2.9-.015.015-3 2.9.015zM493.454 278.4l-3-.015.016-3 3 .016zM506.037 273.14l-3-.015.016-3 3 .016zM560.53 267.048l-3-.015.015-3 3 .015zM216.17 265.525l-3-.013.015-3 3 .013zM276.637 248.8l-2.9-.013.013-3 2.9.012zM251.945 271.782l-2.9-.013.014-3 2.9.012zM368.292 231.757l-2.9-.012.012-3 2.9.012zM209.93 250.604l-3-.014.014-3 3 .014zM103.893 253.53l-3-.013.013-3 3 .014zM75.672 226.41l-2.9-.013.014-3 2.9.014zM68.49 279.83l-2.9-.012.013-3 2.9.012zM15.52 229.727l-3-.013.012-3 3 .013zM35.48 274.047l-2.9-.014.013-3 2.9.014zM54.477 257.327l-2.9-.014.014-3 2.9.014zM77.105 270.255l-3-.013.014-3 3 .013zM362.665 258.796l-2.9-.014.015-3 2.9.014zM93.92 233.204l-2.9-.013.014-3 2.9.014zM159.027 279.84l-3-.014.014-3 3 .014z"/><path class="st4" d="M.5 256.3l15 15.3L26 240l41 9.4 34.5-9.4 12-22.8M67 288.5l31.5-6 23.8-18.8-3-25.7 47.2 11.4 10.9 25.2 25.7-54.4"/><path class="st12" d="M228.6 218.2"/><path class="st15" d="M137.962 259.786l-2.9-.013.014-3 2.9.013zM236.476 237.398l-2.9-.014.015-3 2.9.014z"/><path class="st4" d="M225.1 217.8l61.1 22.9-9.7 33 57.6-34.6 34.2 50M397 288.6l39-7.9 29.7-38.1 7.8 30.7 31-16.8 34 17.8 20.5-43.6M373.1 218.2l37.3 53.4 11.2-31.1 26.1-23.3"/><path class="st3" d="M596.5 270.9s-30 2.8-63.2-53.8h338.1v71.3H567.7s13.1-14.3 28.8-17.5z"/><path class="st17" d="M593.7 270.8c15.4 1.1 18.3-10.5 34.2-27.4 7.8-8.3 19.9-7.5 19.9-7.5l11.4 23.5s-14.5 38-65.5 11.4zM698.6 217.5c-8.2 3.9-15.9 7.6-18.9 9-7.6 3.6-25.8 5.8-25.8 5.8l11.4 23.5s12.5-13.9 20.1-17.5c6.5-3.1 35.3-16.9 43.4-20.8h-30.2z"/><path class="st18" d="M0 289h872v72H0z"/><path class="st16" d="M.8 290.3h7.5v7.7H.8zM8.3 298h7.5v7.7H8.3zM15.9 305.7h7.5v7.7h-7.5zM8.3 313.4h7.5v7.7H8.3zM15.9 321.1h7.5v7.7h-7.5zM8.3 328.9h7.5v7.7H8.3zM15.9 336.6h7.5v7.7h-7.5zM.8 305.7h7.5v7.7H.8zM.8 321.1h7.5v7.7H.8zM.8 336.6h7.5v7.7H.8zM22.4 328.9h7.5v7.7h-7.5zM30.9 336.6h7.5v7.7h-7.5zM23.4 313.4h7.5v7.7h-7.5zM30.9 321.1h7.5v7.7h-7.5zM38.4 328.9h7.5v7.7h-7.5zM8.3 344.3h7.5v7.7H8.3zM23.4 344.3h7.5v7.7h-7.5zM38.4 344.3h7.5v7.7h-7.5zM45.9 336.6h7.5v7.7h-7.5zM53.5 344.3H61v7.7h-7.5zM53.5 328.9H61v7.7h-7.5zM45.9 321.1h7.5v7.7h-7.5zM38.4 313.4h7.5v7.7h-7.5zM30.9 305.7h7.5v7.7h-7.5zM23.4 298h7.5v7.7h-7.5zM15.9 290.3h7.5v7.7h-7.5zM30.9 290.3h7.5v7.7h-7.5zM38.4 298h7.5v7.7h-7.5zM45.9 290.3h7.5v7.7h-7.5zM53.5 298H61v7.7h-7.5zM45.9 305.7h7.5v7.7h-7.5zM53.5 313.4H61v7.7h-7.5zM61 290.3h7.5v7.7H61zM68.5 298H76v7.7h-7.5zM76 305.7h7.5v7.7H76zM68.5 313.4H76v7.7h-7.5zM76 321.1h7.5v7.7H76zM68.5 328.9H76v7.7h-7.5zM76 336.6h7.5v7.7H76zM61 305.7h7.5v7.7H61zM61 321.1h7.5v7.7H61zM61 336.6h7.5v7.7H61zM83.6 328.9h7.5v7.7h-7.5zM91.1 336.6h7.5v7.7h-7.5zM83.6 313.4h7.5v7.7h-7.5zM91.1 321.1h7.5v7.7h-7.5zM98.6 328.9h7.5v7.7h-7.5zM68.5 344.3H76v7.7h-7.5zM15.9 352h7.5v7.7h-7.5zM.8 352h7.5v7.7H.8zM30.9 352h7.5v7.7h-7.5zM45.9 352h7.5v7.7h-7.5zM61 352h7.5v7.7H61zM83.6 344.3h7.5v7.7h-7.5zM98.6 344.3h7.5v7.7h-7.5zM106.1 336.6h7.5v7.7h-7.5zM113.6 344.3h7.5v7.7h-7.5zM113.6 328.9h7.5v7.7h-7.5zM106.1 321.1h7.5v7.7h-7.5zM98.6 313.4h7.5v7.7h-7.5zM91.1 305.7h7.5v7.7h-7.5zM83.6 298h7.5v7.7h-7.5zM76 290.3h7.5v7.7H76zM91.1 290.3h7.5v7.7h-7.5zM98.6 298h7.5v7.7h-7.5zM106.1 290.3h7.5v7.7h-7.5zM113.6 298h7.5v7.7h-7.5zM106.1 305.7h7.5v7.7h-7.5zM113.6 313.4h7.5v7.7h-7.5zM121.2 290.3h7.5v7.7h-7.5zM128.7 298h7.5v7.7h-7.5zM136.2 305.7h7.5v7.7h-7.5zM128.7 313.4h7.5v7.7h-7.5zM136.2 321.1h7.5v7.7h-7.5zM128.7 328.9h7.5v7.7h-7.5zM136.2 336.6h7.5v7.7h-7.5zM121.2 305.7h7.5v7.7h-7.5zM121.2 321.1h7.5v7.7h-7.5zM121.2 336.6h7.5v7.7h-7.5zM143.7 328.9h7.5v7.7h-7.5zM151.2 336.6h7.5v7.7h-7.5zM143.7 313.4h7.5v7.7h-7.5zM151.2 321.1h7.5v7.7h-7.5zM158.8 328.9h7.5v7.7h-7.5zM128.7 344.3h7.5v7.7h-7.5zM143.7 344.3h7.5v7.7h-7.5zM158.8 344.3h7.5v7.7h-7.5zM166.3 336.6h7.5v7.7h-7.5zM173.8 344.3h7.5v7.7h-7.5zM173.8 328.9h7.5v7.7h-7.5zM166.3 321.1h7.5v7.7h-7.5zM158.8 313.4h7.5v7.7h-7.5zM151.2 305.7h7.5v7.7h-7.5zM143.7 298h7.5v7.7h-7.5zM136.2 290.3h7.5v7.7h-7.5zM151.2 290.3h7.5v7.7h-7.5zM158.8 298h7.5v7.7h-7.5zM166.3 290.3h7.5v7.7h-7.5zM173.8 298h7.5v7.7h-7.5zM166.3 305.7h7.5v7.7h-7.5zM173.8 313.4h7.5v7.7h-7.5zM181.3 290.3h7.5v7.7h-7.5zM188.8 298h7.5v7.7h-7.5zM196.4 305.7h7.5v7.7h-7.5zM188.8 313.4h7.5v7.7h-7.5zM196.4 321.1h7.5v7.7h-7.5zM188.8 328.9h7.5v7.7h-7.5zM196.4 336.6h7.5v7.7h-7.5zM181.3 305.7h7.5v7.7h-7.5zM181.3 321.1h7.5v7.7h-7.5zM181.3 336.6h7.5v7.7h-7.5zM203.9 328.9h7.5v7.7h-7.5zM211.4 336.6h7.5v7.7h-7.5zM203.9 313.4h7.5v7.7h-7.5zM211.4 321.1h7.5v7.7h-7.5zM218.9 328.9h7.5v7.7h-7.5zM188.8 344.3h7.5v7.7h-7.5zM203.9 344.3h7.5v7.7h-7.5zM218.9 344.3h7.5v7.7h-7.5zM226.4 336.6h7.5v7.7h-7.5zM234 344.3h7.5v7.7H234zM234 328.9h7.5v7.7H234zM226.4 321.1h7.5v7.7h-7.5zM218.9 313.4h7.5v7.7h-7.5zM211.4 305.7h7.5v7.7h-7.5zM203.9 298h7.5v7.7h-7.5zM196.4 290.3h7.5v7.7h-7.5zM211.4 290.3h7.5v7.7h-7.5zM218.9 298h7.5v7.7h-7.5zM226.4 290.3h7.5v7.7h-7.5zM234 298h7.5v7.7H234zM226.4 305.7h7.5v7.7h-7.5zM234 313.4h7.5v7.7H234zM241.5 290.3h7.5v7.7h-7.5zM249 298h7.5v7.7H249zM256.5 305.7h7.5v7.7h-7.5zM249 313.4h7.5v7.7H249zM256.5 321.1h7.5v7.7h-7.5zM249 328.9h7.5v7.7H249zM256.5 336.6h7.5v7.7h-7.5zM241.5 305.7h7.5v7.7h-7.5zM241.5 321.1h7.5v7.7h-7.5zM241.5 336.6h7.5v7.7h-7.5zM264 328.9h7.5v7.7H264zM271.6 336.6h7.5v7.7h-7.5zM264 313.4h7.5v7.7H264zM271.6 321.1h7.5v7.7h-7.5zM279.1 328.9h7.5v7.7h-7.5zM249 344.3h7.5v7.7H249zM264 344.3h7.5v7.7H264zM279.1 344.3h7.5v7.7h-7.5zM286.6 336.6h7.5v7.7h-7.5zM294.1 344.3h7.5v7.7h-7.5zM294.1 328.9h7.5v7.7h-7.5zM286.6 321.1h7.5v7.7h-7.5zM279.1 313.4h7.5v7.7h-7.5zM271.6 305.7h7.5v7.7h-7.5zM264 298h7.5v7.7H264zM256.5 290.3h7.5v7.7h-7.5zM271.6 290.3h7.5v7.7h-7.5zM279.1 298h7.5v7.7h-7.5zM286.6 290.3h7.5v7.7h-7.5zM294.1 298h7.5v7.7h-7.5zM286.6 305.7h7.5v7.7h-7.5zM294.1 313.4h7.5v7.7h-7.5zM301.6 290.3h7.5v7.7h-7.5zM309.2 298h7.5v7.7h-7.5zM316.7 305.7h7.5v7.7h-7.5zM309.2 313.4h7.5v7.7h-7.5zM316.7 321.1h7.5v7.7h-7.5zM309.2 328.9h7.5v7.7h-7.5zM316.7 336.6h7.5v7.7h-7.5zM301.6 305.7h7.5v7.7h-7.5zM301.6 321.1h7.5v7.7h-7.5zM301.6 336.6h7.5v7.7h-7.5zM324.2 328.9h7.5v7.7h-7.5zM331.7 336.6h7.5v7.7h-7.5zM324.2 313.4h7.5v7.7h-7.5zM331.7 321.1h7.5v7.7h-7.5zM339.2 328.9h7.5v7.7h-7.5zM309.2 344.3h7.5v7.7h-7.5zM324.2 344.3h7.5v7.7h-7.5zM339.2 344.3h7.5v7.7h-7.5zM346.8 336.6h7.5v7.7h-7.5zM354.3 344.3h7.5v7.7h-7.5zM354.3 328.9h7.5v7.7h-7.5zM346.8 321.1h7.5v7.7h-7.5zM339.2 313.4h7.5v7.7h-7.5zM331.7 305.7h7.5v7.7h-7.5zM324.2 298h7.5v7.7h-7.5zM316.7 290.3h7.5v7.7h-7.5zM331.7 290.3h7.5v7.7h-7.5zM339.2 298h7.5v7.7h-7.5zM346.8 290.3h7.5v7.7h-7.5zM354.3 298h7.5v7.7h-7.5zM346.8 305.7h7.5v7.7h-7.5zM354.3 313.4h7.5v7.7h-7.5zM361.8 305.7h7.5v7.7h-7.5zM361.8 321.1h7.5v7.7h-7.5zM361.8 336.6h7.5v7.7h-7.5zM369.3 328.9h7.5v7.7h-7.5zM376.8 336.6h7.5v7.7h-7.5zM369.3 313.4h7.5v7.7h-7.5zM376.8 321.1h7.5v7.7h-7.5zM384.4 328.9h7.5v7.7h-7.5zM369.3 344.3h7.5v7.7h-7.5zM384.4 344.3h7.5v7.7h-7.5zM391.9 336.6h7.5v7.7h-7.5zM391.9 321.1h7.5v7.7h-7.5zM384.4 313.4h7.5v7.7h-7.5zM376.8 305.7h7.5v7.7h-7.5zM369.3 298h7.5v7.7h-7.5zM361.8 290.3h7.5v7.7h-7.5zM376.8 290.3h7.5v7.7h-7.5zM384.4 298h7.5v7.7h-7.5zM391.9 290.3h7.5v7.7h-7.5zM391.9 305.7h7.5v7.7h-7.5zM76 352h7.5v7.7H76zM91.1 352h7.5v7.7h-7.5zM106.1 352h7.5v7.7h-7.5zM136.2 352h7.5v7.7h-7.5zM121.2 352h7.5v7.7h-7.5zM151.2 352h7.5v7.7h-7.5zM166.3 352h7.5v7.7h-7.5zM196.4 352h7.5v7.7h-7.5zM181.3 352h7.5v7.7h-7.5zM211.4 352h7.5v7.7h-7.5zM226.4 352h7.5v7.7h-7.5zM256.5 352h7.5v7.7h-7.5zM241.5 352h7.5v7.7h-7.5zM271.6 352h7.5v7.7h-7.5zM286.6 352h7.5v7.7h-7.5zM316.7 352h7.5v7.7h-7.5zM301.6 352h7.5v7.7h-7.5zM331.7 352h7.5v7.7h-7.5zM346.8 352h7.5v7.7h-7.5zM361.8 352h7.5v7.7h-7.5zM376.8 352h7.5v7.7h-7.5zM391.9 352h7.5v7.7h-7.5zM399.4 298h7.5v7.7h-7.5zM406.9 305.7h7.5v7.7h-7.5zM399.4 313.4h7.5v7.7h-7.5zM406.9 321.1h7.5v7.7h-7.5zM399.4 328.9h7.5v7.7h-7.5zM406.9 336.6h7.5v7.7h-7.5zM414.5 328.9h7.5v7.7h-7.5zM422 336.6h7.5v7.7H422zM414.5 313.4h7.5v7.7h-7.5zM422 321.1h7.5v7.7H422zM429.5 328.9h7.5v7.7h-7.5zM399.4 344.3h7.5v7.7h-7.5zM414.5 344.3h7.5v7.7h-7.5zM429.5 344.3h7.5v7.7h-7.5zM437 336.6h7.5v7.7H437zM444.5 344.3h7.5v7.7h-7.5zM444.5 328.9h7.5v7.7h-7.5zM437 321.1h7.5v7.7H437zM429.5 313.4h7.5v7.7h-7.5zM422 305.7h7.5v7.7H422zM414.5 298h7.5v7.7h-7.5zM406.9 290.3h7.5v7.7h-7.5zM422 290.3h7.5v7.7H422zM429.5 298h7.5v7.7h-7.5zM437 290.3h7.5v7.7H437zM444.5 298h7.5v7.7h-7.5zM437 305.7h7.5v7.7H437zM444.5 313.4h7.5v7.7h-7.5zM452 290.3h7.5v7.7H452zM459.6 298h7.5v7.7h-7.5zM467.1 305.7h7.5v7.7h-7.5zM459.6 313.4h7.5v7.7h-7.5zM467.1 321.1h7.5v7.7h-7.5zM459.6 328.9h7.5v7.7h-7.5zM467.1 336.6h7.5v7.7h-7.5zM452 305.7h7.5v7.7H452zM452 321.1h7.5v7.7H452zM452 336.6h7.5v7.7H452zM474.6 328.9h7.5v7.7h-7.5zM482.1 336.6h7.5v7.7h-7.5zM474.6 313.4h7.5v7.7h-7.5zM482.1 321.1h7.5v7.7h-7.5zM489.6 328.9h7.5v7.7h-7.5zM459.6 344.3h7.5v7.7h-7.5zM474.6 344.3h7.5v7.7h-7.5zM489.6 344.3h7.5v7.7h-7.5zM497.2 336.6h7.5v7.7h-7.5zM504.7 344.3h7.5v7.7h-7.5zM504.7 328.9h7.5v7.7h-7.5zM497.2 321.1h7.5v7.7h-7.5zM489.6 313.4h7.5v7.7h-7.5zM482.1 305.7h7.5v7.7h-7.5zM474.6 298h7.5v7.7h-7.5zM467.1 290.3h7.5v7.7h-7.5zM482.1 290.3h7.5v7.7h-7.5zM489.6 298h7.5v7.7h-7.5zM497.2 290.3h7.5v7.7h-7.5zM504.7 298h7.5v7.7h-7.5zM497.2 305.7h7.5v7.7h-7.5zM504.7 313.4h7.5v7.7h-7.5zM512.2 305.7h7.5v7.7h-7.5zM512.2 321.1h7.5v7.7h-7.5zM512.2 336.6h7.5v7.7h-7.5zM519.7 328.9h7.5v7.7h-7.5zM527.3 336.6h7.5v7.7h-7.5zM519.7 313.4h7.5v7.7h-7.5zM527.3 321.1h7.5v7.7h-7.5zM534.8 328.9h7.5v7.7h-7.5zM519.7 344.3h7.5v7.7h-7.5zM534.8 344.3h7.5v7.7h-7.5zM542.3 336.6h7.5v7.7h-7.5zM542.3 321.1h7.5v7.7h-7.5zM534.8 313.4h7.5v7.7h-7.5zM527.3 305.7h7.5v7.7h-7.5zM519.7 298h7.5v7.7h-7.5zM512.2 290.3h7.5v7.7h-7.5zM527.3 290.3h7.5v7.7h-7.5zM534.8 298h7.5v7.7h-7.5zM542.3 305.7h7.5v7.7h-7.5zM406.9 352h7.5v7.7h-7.5zM422 352h7.5v7.7H422zM437 352h7.5v7.7H437zM467.1 352h7.5v7.7h-7.5zM452 352h7.5v7.7H452zM482.1 352h7.5v7.7h-7.5zM497.2 352h7.5v7.7h-7.5zM512.2 352h7.5v7.7h-7.5zM527.3 352h7.5v7.7h-7.5zM542.3 352h7.5v7.7h-7.5zM549.8 313.4h7.5v7.7h-7.5zM557.3 321.1h7.5v7.7h-7.5zM549.8 328.9h7.5v7.7h-7.5zM557.3 336.6h7.5v7.7h-7.5zM564.8 328.9h7.5v7.7h-7.5zM572.4 336.6h7.5v7.7h-7.5zM549.8 344.3h7.5v7.7h-7.5zM564.8 344.3h7.5v7.7h-7.5zM579.9 344.3h7.5v7.7h-7.5zM587.4 336.6h7.5v7.7h-7.5zM557.3 352h7.5v7.7h-7.5zM572.4 352h7.5v7.7h-7.5z"/><path class="st9" d="M597 343.3s-30 2.9-63.2-54.3h338.1v72H568.3s13.1-14.5 28.7-17.7z"/><path class="st24" d="M594.3 343.3c15.4 1.1 18.3-10.6 34.2-27.7 7.8-8.4 19.9-7.6 19.9-7.6l11.4 23.7s-14.6 38.4-65.5 11.6zM699.1 289.4c-8.2 4-15.9 7.7-18.9 9.1-7.6 3.7-25.8 5.9-25.8 5.9l11.4 23.7s12.5-14 20.1-17.7c6.5-3.1 35.3-17.1 43.4-21h-30.2z"/><path class="st7" d="M1 361h872v72H1z"/><path class="st11" d="M1.9 362.9h7.5v7.7H1.9zM9.4 370.6h7.5v7.7H9.4zM16.9 378.3h7.5v7.7h-7.5zM9.4 386h7.5v7.7H9.4zM16.9 393.7h7.5v7.7h-7.5zM9.4 401.4h7.5v7.7H9.4zM16.9 409.1h7.5v7.7h-7.5zM1.9 378.3h7.5v7.7H1.9zM1.9 393.7h7.5v7.7H1.9zM1.9 409.1h7.5v7.7H1.9zM23.4 401.4h7.5v7.7h-7.5zM31.9 409.1h7.5v7.7h-7.5zM24.4 386h7.5v7.7h-7.5zM31.9 393.7h7.5v7.7h-7.5zM39.5 401.4H47v7.7h-7.5zM9.4 416.8h7.5v7.7H9.4zM24.4 416.8h7.5v7.7h-7.5zM39.5 416.8H47v7.7h-7.5zM47 409.1h7.5v7.7H47zM54.5 416.8H62v7.7h-7.5zM54.5 401.4H62v7.7h-7.5zM47 393.7h7.5v7.7H47zM39.5 386H47v7.7h-7.5zM31.9 378.3h7.5v7.7h-7.5zM24.4 370.6h7.5v7.7h-7.5zM16.9 362.9h7.5v7.7h-7.5zM31.9 362.9h7.5v7.7h-7.5zM39.5 370.6H47v7.7h-7.5zM47 362.9h7.5v7.7H47zM54.5 370.6H62v7.7h-7.5zM47 378.3h7.5v7.7H47zM54.5 386H62v7.7h-7.5zM62 362.9h7.5v7.7H62zM69.5 370.6H77v7.7h-7.5zM77.1 378.3h7.5v7.7h-7.5zM69.5 386H77v7.7h-7.5zM77.1 393.7h7.5v7.7h-7.5zM69.5 401.4H77v7.7h-7.5zM77.1 409.1h7.5v7.7h-7.5zM62 378.3h7.5v7.7H62zM62 393.7h7.5v7.7H62zM62 409.1h7.5v7.7H62zM84.6 401.4h7.5v7.7h-7.5zM92.1 409.1h7.5v7.7h-7.5zM84.6 386h7.5v7.7h-7.5zM92.1 393.7h7.5v7.7h-7.5zM99.6 401.4h7.5v7.7h-7.5zM69.5 416.8H77v7.7h-7.5zM16.9 424.6h7.5v7.7h-7.5zM1.9 424.6h7.5v7.7H1.9zM31.9 424.6h7.5v7.7h-7.5zM47 424.6h7.5v7.7H47zM62 424.6h7.5v7.7H62zM84.6 416.8h7.5v7.7h-7.5zM99.6 416.8h7.5v7.7h-7.5zM107.1 409.1h7.5v7.7h-7.5zM114.7 416.8h7.5v7.7h-7.5zM114.7 401.4h7.5v7.7h-7.5zM107.1 393.7h7.5v7.7h-7.5zM99.6 386h7.5v7.7h-7.5zM92.1 378.3h7.5v7.7h-7.5zM84.6 370.6h7.5v7.7h-7.5zM77.1 362.9h7.5v7.7h-7.5zM92.1 362.9h7.5v7.7h-7.5zM99.6 370.6h7.5v7.7h-7.5zM107.1 362.9h7.5v7.7h-7.5zM114.7 370.6h7.5v7.7h-7.5zM107.1 378.3h7.5v7.7h-7.5zM114.7 386h7.5v7.7h-7.5zM122.2 362.9h7.5v7.7h-7.5zM129.7 370.6h7.5v7.7h-7.5zM137.2 378.3h7.5v7.7h-7.5zM129.7 386h7.5v7.7h-7.5zM137.2 393.7h7.5v7.7h-7.5zM129.7 401.4h7.5v7.7h-7.5zM137.2 409.1h7.5v7.7h-7.5zM122.2 378.3h7.5v7.7h-7.5zM122.2 393.7h7.5v7.7h-7.5zM122.2 409.1h7.5v7.7h-7.5zM144.7 401.4h7.5v7.7h-7.5zM152.3 409.1h7.5v7.7h-7.5zM144.7 386h7.5v7.7h-7.5zM152.3 393.7h7.5v7.7h-7.5zM159.8 401.4h7.5v7.7h-7.5zM129.7 416.8h7.5v7.7h-7.5zM144.7 416.8h7.5v7.7h-7.5zM159.8 416.8h7.5v7.7h-7.5zM167.3 409.1h7.5v7.7h-7.5zM174.8 416.8h7.5v7.7h-7.5zM174.8 401.4h7.5v7.7h-7.5zM167.3 393.7h7.5v7.7h-7.5zM159.8 386h7.5v7.7h-7.5zM152.3 378.3h7.5v7.7h-7.5zM144.7 370.6h7.5v7.7h-7.5zM137.2 362.9h7.5v7.7h-7.5zM152.3 362.9h7.5v7.7h-7.5zM159.8 370.6h7.5v7.7h-7.5zM167.3 362.9h7.5v7.7h-7.5zM174.8 370.6h7.5v7.7h-7.5zM167.3 378.3h7.5v7.7h-7.5zM174.8 386h7.5v7.7h-7.5zM182.3 362.9h7.5v7.7h-7.5zM189.9 370.6h7.5v7.7h-7.5zM197.4 378.3h7.5v7.7h-7.5zM189.9 386h7.5v7.7h-7.5zM197.4 393.7h7.5v7.7h-7.5zM189.9 401.4h7.5v7.7h-7.5zM197.4 409.1h7.5v7.7h-7.5zM182.3 378.3h7.5v7.7h-7.5zM182.3 393.7h7.5v7.7h-7.5zM182.3 409.1h7.5v7.7h-7.5zM204.9 401.4h7.5v7.7h-7.5zM212.4 409.1h7.5v7.7h-7.5zM204.9 386h7.5v7.7h-7.5zM212.4 393.7h7.5v7.7h-7.5zM219.9 401.4h7.5v7.7h-7.5zM189.9 416.8h7.5v7.7h-7.5zM204.9 416.8h7.5v7.7h-7.5zM219.9 416.8h7.5v7.7h-7.5zM227.5 409.1h7.5v7.7h-7.5zM235 416.8h7.5v7.7H235zM235 401.4h7.5v7.7H235zM227.5 393.7h7.5v7.7h-7.5zM219.9 386h7.5v7.7h-7.5zM212.4 378.3h7.5v7.7h-7.5zM204.9 370.6h7.5v7.7h-7.5zM197.4 362.9h7.5v7.7h-7.5zM212.4 362.9h7.5v7.7h-7.5zM219.9 370.6h7.5v7.7h-7.5zM227.5 362.9h7.5v7.7h-7.5zM235 370.6h7.5v7.7H235zM227.5 378.3h7.5v7.7h-7.5zM235 386h7.5v7.7H235zM242.5 362.9h7.5v7.7h-7.5zM250 370.6h7.5v7.7H250zM257.5 378.3h7.5v7.7h-7.5zM250 386h7.5v7.7H250zM257.5 393.7h7.5v7.7h-7.5zM250 401.4h7.5v7.7H250zM257.5 409.1h7.5v7.7h-7.5zM242.5 378.3h7.5v7.7h-7.5zM242.5 393.7h7.5v7.7h-7.5zM242.5 409.1h7.5v7.7h-7.5zM265.1 401.4h7.5v7.7h-7.5zM272.6 409.1h7.5v7.7h-7.5zM265.1 386h7.5v7.7h-7.5zM272.6 393.7h7.5v7.7h-7.5zM280.1 401.4h7.5v7.7h-7.5zM250 416.8h7.5v7.7H250zM265.1 416.8h7.5v7.7h-7.5zM280.1 416.8h7.5v7.7h-7.5zM287.6 409.1h7.5v7.7h-7.5zM295.1 416.8h7.5v7.7h-7.5zM295.1 401.4h7.5v7.7h-7.5zM287.6 393.7h7.5v7.7h-7.5zM280.1 386h7.5v7.7h-7.5zM272.6 378.3h7.5v7.7h-7.5zM265.1 370.6h7.5v7.7h-7.5zM257.5 362.9h7.5v7.7h-7.5zM272.6 362.9h7.5v7.7h-7.5zM280.1 370.6h7.5v7.7h-7.5zM287.6 362.9h7.5v7.7h-7.5zM295.1 370.6h7.5v7.7h-7.5zM287.6 378.3h7.5v7.7h-7.5zM295.1 386h7.5v7.7h-7.5zM302.7 362.9h7.5v7.7h-7.5zM310.2 370.6h7.5v7.7h-7.5zM317.7 378.3h7.5v7.7h-7.5zM310.2 386h7.5v7.7h-7.5zM317.7 393.7h7.5v7.7h-7.5zM310.2 401.4h7.5v7.7h-7.5zM317.7 409.1h7.5v7.7h-7.5zM302.7 378.3h7.5v7.7h-7.5zM302.7 393.7h7.5v7.7h-7.5zM302.7 409.1h7.5v7.7h-7.5zM325.2 401.4h7.5v7.7h-7.5zM332.8 409.1h7.5v7.7h-7.5zM325.2 386h7.5v7.7h-7.5zM332.8 393.7h7.5v7.7h-7.5zM340.3 401.4h7.5v7.7h-7.5zM310.2 416.8h7.5v7.7h-7.5zM325.2 416.8h7.5v7.7h-7.5zM340.3 416.8h7.5v7.7h-7.5zM347.8 409.1h7.5v7.7h-7.5zM355.3 416.8h7.5v7.7h-7.5zM355.3 401.4h7.5v7.7h-7.5zM347.8 393.7h7.5v7.7h-7.5zM340.3 386h7.5v7.7h-7.5zM332.8 378.3h7.5v7.7h-7.5zM325.2 370.6h7.5v7.7h-7.5zM317.7 362.9h7.5v7.7h-7.5zM332.8 362.9h7.5v7.7h-7.5zM340.3 370.6h7.5v7.7h-7.5zM347.8 362.9h7.5v7.7h-7.5zM355.3 370.6h7.5v7.7h-7.5zM347.8 378.3h7.5v7.7h-7.5zM355.3 386h7.5v7.7h-7.5zM362.8 378.3h7.5v7.7h-7.5zM362.8 393.7h7.5v7.7h-7.5zM362.8 409.1h7.5v7.7h-7.5zM370.3 401.4h7.5v7.7h-7.5zM377.9 409.1h7.5v7.7h-7.5zM370.3 386h7.5v7.7h-7.5zM377.9 393.7h7.5v7.7h-7.5zM385.4 401.4h7.5v7.7h-7.5zM370.3 416.8h7.5v7.7h-7.5zM385.4 416.8h7.5v7.7h-7.5zM392.9 409.1h7.5v7.7h-7.5zM392.9 393.7h7.5v7.7h-7.5zM385.4 386h7.5v7.7h-7.5zM377.9 378.3h7.5v7.7h-7.5zM370.3 370.6h7.5v7.7h-7.5zM362.8 362.9h7.5v7.7h-7.5zM377.9 362.9h7.5v7.7h-7.5zM385.4 370.6h7.5v7.7h-7.5zM392.9 362.9h7.5v7.7h-7.5zM392.9 378.3h7.5v7.7h-7.5zM77.1 424.6h7.5v7.7h-7.5zM92.1 424.6h7.5v7.7h-7.5zM107.1 424.6h7.5v7.7h-7.5zM137.2 424.6h7.5v7.7h-7.5zM122.2 424.6h7.5v7.7h-7.5zM152.3 424.6h7.5v7.7h-7.5zM167.3 424.6h7.5v7.7h-7.5zM197.4 424.6h7.5v7.7h-7.5zM182.3 424.6h7.5v7.7h-7.5zM212.4 424.6h7.5v7.7h-7.5zM227.5 424.6h7.5v7.7h-7.5zM257.5 424.6h7.5v7.7h-7.5zM242.5 424.6h7.5v7.7h-7.5zM272.6 424.6h7.5v7.7h-7.5zM287.6 424.6h7.5v7.7h-7.5zM317.7 424.6h7.5v7.7h-7.5zM302.7 424.6h7.5v7.7h-7.5zM332.8 424.6h7.5v7.7h-7.5zM347.8 424.6h7.5v7.7h-7.5zM362.8 424.6h7.5v7.7h-7.5zM377.9 424.6h7.5v7.7h-7.5zM392.9 424.6h7.5v7.7h-7.5zM400.4 370.6h7.5v7.7h-7.5zM408 378.3h7.5v7.7H408zM400.4 386h7.5v7.7h-7.5zM408 393.7h7.5v7.7H408zM400.4 401.4h7.5v7.7h-7.5zM408 409.1h7.5v7.7H408zM415.5 401.4h7.5v7.7h-7.5zM423 409.1h7.5v7.7H423zM415.5 386h7.5v7.7h-7.5zM423 393.7h7.5v7.7H423zM430.5 401.4h7.5v7.7h-7.5zM400.4 416.8h7.5v7.7h-7.5zM415.5 416.8h7.5v7.7h-7.5zM430.5 416.8h7.5v7.7h-7.5zM438 409.1h7.5v7.7H438zM445.5 416.8h7.5v7.7h-7.5zM445.5 401.4h7.5v7.7h-7.5zM438 393.7h7.5v7.7H438zM430.5 386h7.5v7.7h-7.5zM423 378.3h7.5v7.7H423zM415.5 370.6h7.5v7.7h-7.5zM408 362.9h7.5v7.7H408zM423 362.9h7.5v7.7H423zM430.5 370.6h7.5v7.7h-7.5zM438 362.9h7.5v7.7H438zM445.5 370.6h7.5v7.7h-7.5zM438 378.3h7.5v7.7H438zM445.5 386h7.5v7.7h-7.5zM453.1 362.9h7.5v7.7h-7.5zM460.6 370.6h7.5v7.7h-7.5zM468.1 378.3h7.5v7.7h-7.5zM460.6 386h7.5v7.7h-7.5zM468.1 393.7h7.5v7.7h-7.5zM460.6 401.4h7.5v7.7h-7.5zM468.1 409.1h7.5v7.7h-7.5zM453.1 378.3h7.5v7.7h-7.5zM453.1 393.7h7.5v7.7h-7.5zM453.1 409.1h7.5v7.7h-7.5zM475.6 401.4h7.5v7.7h-7.5zM483.2 409.1h7.5v7.7h-7.5zM475.6 386h7.5v7.7h-7.5zM483.2 393.7h7.5v7.7h-7.5zM490.7 401.4h7.5v7.7h-7.5zM460.6 416.8h7.5v7.7h-7.5zM475.6 416.8h7.5v7.7h-7.5zM490.7 416.8h7.5v7.7h-7.5zM498.2 409.1h7.5v7.7h-7.5zM505.7 416.8h7.5v7.7h-7.5zM505.7 401.4h7.5v7.7h-7.5zM498.2 393.7h7.5v7.7h-7.5zM490.7 386h7.5v7.7h-7.5zM483.2 378.3h7.5v7.7h-7.5zM475.6 370.6h7.5v7.7h-7.5zM468.1 362.9h7.5v7.7h-7.5zM483.2 362.9h7.5v7.7h-7.5zM490.7 370.6h7.5v7.7h-7.5zM498.2 362.9h7.5v7.7h-7.5zM505.7 370.6h7.5v7.7h-7.5zM498.2 378.3h7.5v7.7h-7.5zM505.7 386h7.5v7.7h-7.5zM513.2 378.3h7.5v7.7h-7.5zM513.2 393.7h7.5v7.7h-7.5zM513.2 409.1h7.5v7.7h-7.5zM520.8 401.4h7.5v7.7h-7.5zM528.3 409.1h7.5v7.7h-7.5zM520.8 386h7.5v7.7h-7.5zM528.3 393.7h7.5v7.7h-7.5zM535.8 401.4h7.5v7.7h-7.5zM520.8 416.8h7.5v7.7h-7.5zM535.8 416.8h7.5v7.7h-7.5zM543.3 409.1h7.5v7.7h-7.5zM543.3 393.7h7.5v7.7h-7.5zM535.8 386h7.5v7.7h-7.5zM528.3 378.3h7.5v7.7h-7.5zM520.8 370.6h7.5v7.7h-7.5zM513.2 362.9h7.5v7.7h-7.5zM528.3 362.9h7.5v7.7h-7.5zM535.8 370.6h7.5v7.7h-7.5zM543.3 378.3h7.5v7.7h-7.5zM408 424.6h7.5v7.7H408zM423 424.6h7.5v7.7H423zM438 424.6h7.5v7.7H438zM468.1 424.6h7.5v7.7h-7.5zM453.1 424.6h7.5v7.7h-7.5zM483.2 424.6h7.5v7.7h-7.5zM498.2 424.6h7.5v7.7h-7.5zM513.2 424.6h7.5v7.7h-7.5zM528.3 424.6h7.5v7.7h-7.5zM543.3 424.6h7.5v7.7h-7.5zM550.8 386h7.5v7.7h-7.5zM558.3 393.7h7.5v7.7h-7.5zM550.8 401.4h7.5v7.7h-7.5zM558.3 409.1h7.5v7.7h-7.5zM565.9 401.4h7.5v7.7h-7.5zM573.4 409.1h7.5v7.7h-7.5zM550.8 416.8h7.5v7.7h-7.5zM565.9 416.8h7.5v7.7h-7.5zM580.9 416.8h7.5v7.7h-7.5zM588.4 409.1h7.5v7.7h-7.5zM558.3 424.6h7.5v7.7h-7.5zM573.4 424.6h7.5v7.7h-7.5z"/><path class="st3" d="M597.9 415.4s-30 2.9-63.2-54.3h338.1v72H569.1c0-.1 13.1-14.5 28.8-17.7z"/><path class="st17" d="M595.1 415.1c15.4 1.1 18.3-10.5 34.2-27.4 7.8-8.3 19.9-7.5 19.9-7.5l11.4 23.5s-14.5 38-65.5 11.4zM700 361.8c-8.2 3.9-15.9 7.6-18.9 9-7.6 3.6-25.8 5.8-25.8 5.8l11.4 23.5s12.5-13.9 20.1-17.5c6.5-3.1 35.3-16.9 43.4-20.8H700z"/><path class="st0" d="M.2 72.7h872v72H.2z"/><g class="st10"><path class="st23" d="M557.198 115.205l-2.9-.01.012-3 2.9.01zM550.1 99.906l-2.9-.013.013-3 2.9.013zM474.597 127.507l-3-.015.015-3 3 .015zM512.1 113.708l-2.9-.014.013-3 2.9.014zM494.4 105.706l-3-.013.012-3 3 .013zM524.098 80.306l-2.9-.013.014-3 2.9.013zM455.2 137.208l-3-.014.012-3 3 .014z"/><path class="st4" d="M401.9 112.3l88.9 2.9 19.3 13.6 31.4-45.3M573.3 115.2l-6 16-39.1-2.4-11.1 15.4"/><path class="st13" d="M479.2 74.6"/></g><path class="st19" d="M490.6 72.9l-46.2 71.6-444.2-.8V72.2z"/><path class="st16" d="M316.5 104.5h7.5v7.7h-7.5zM316.5 89.2h7.5v7.7h-7.5zM316.5 73.7h7.5v7.7h-7.5zM316.5 119.9h7.5v7.7h-7.5zM308.8 112.3h7.5v7.7h-7.5zM308.8 96.8h7.5v7.7h-7.5zM308.8 81.4h7.5v7.7h-7.5zM324 112.2h7.5v7.7H324zM331.5 119.9h7.5v7.7h-7.5zM324 96.8h7.5v7.7H324zM324 81.4h7.5v7.7H324zM331.5 104.5h7.5v7.7h-7.5zM339 112.2h7.5v7.7H339zM308.9 127.7h7.5v7.7h-7.5zM301.3 120h7.5v7.7h-7.5zM301.3 104.8h7.5v7.7h-7.5zM301.3 89.1h7.5v7.7h-7.5zM301.3 73.7h7.5v7.7h-7.5zM301.4 136h7.5v7.7h-7.5zM324 127.7h7.5v7.7H324zM339 127.7h7.5v7.7H339zM346.5 119.9h7.5v7.7h-7.5zM354 127.7h7.5v7.7H354zM354 112.2h7.5v7.7H354zM346.5 104.5h7.5v7.7h-7.5zM339 96.8h7.5v7.7H339zM331.5 89.1h7.5v7.7h-7.5zM339 81.4h7.5v7.7H339zM331.5 73.7h7.5v7.7h-7.5zM346.5 73.7h7.5v7.7h-7.5zM354 81.4h7.5v7.7H354zM346.5 89.1h7.5v7.7h-7.5zM354 96.8h7.5v7.7H354zM361.6 73.7h7.5v7.7h-7.5zM369.1 81.4h7.5v7.7h-7.5zM376.6 89.1h7.5v7.7h-7.5zM369.1 96.8h7.5v7.7h-7.5zM376.6 104.5h7.5v7.7h-7.5zM369.1 112.2h7.5v7.7h-7.5zM376.6 119.9h7.5v7.7h-7.5zM361.6 89.1h7.5v7.7h-7.5zM361.6 104.5h7.5v7.7h-7.5zM361.6 119.9h7.5v7.7h-7.5zM384.1 112.2h7.5v7.7h-7.5zM391.7 119.9h7.5v7.7h-7.5zM384.1 96.8h7.5v7.7h-7.5zM391.7 104.5h7.5v7.7h-7.5zM399.2 112.2h7.5v7.7h-7.5zM369.1 127.7h7.5v7.7h-7.5zM384.1 127.7h7.5v7.7h-7.5zM399.2 127.7h7.5v7.7h-7.5zM406.7 119.9h7.5v7.7h-7.5zM414.2 127.7h7.5v7.7h-7.5zM414.2 112.2h7.5v7.7h-7.5zM406.7 104.5h7.5v7.7h-7.5zM399.2 96.8h7.5v7.7h-7.5zM391.7 89.1h7.5v7.7h-7.5zM384.1 81.4h7.5v7.7h-7.5zM376.6 73.7h7.5v7.7h-7.5zM391.7 73.7h7.5v7.7h-7.5zM399.2 81.4h7.5v7.7h-7.5zM406.7 73.7h7.5v7.7h-7.5zM414.2 81.4h7.5v7.7h-7.5zM406.7 89.1h7.5v7.7h-7.5zM414.2 96.8h7.5v7.7h-7.5zM421.7 73.7h7.5v7.7h-7.5zM429.2 81.4h7.5v7.7h-7.5zM436.8 89.1h7.5v7.7h-7.5zM429.2 96.8h7.5v7.7h-7.5zM436.8 104.5h7.5v7.7h-7.5zM429.2 112.2h7.5v7.7h-7.5zM436.8 119.9h7.5v7.7h-7.5zM421.7 89.1h7.5v7.7h-7.5zM421.7 104.5h7.5v7.7h-7.5zM421.7 119.9h7.5v7.7h-7.5zM444.3 112.2h7.5v7.7h-7.5zM444.3 96.8h7.5v7.7h-7.5zM451.8 104.5h7.5v7.7h-7.5zM429.2 127.7h7.5v7.7h-7.5zM444.3 127.7h7.5v7.7h-7.5zM459.3 96.8h7.5v7.7h-7.5zM451.8 89.1h7.5v7.7h-7.5zM444.3 81.4h7.5v7.7h-7.5zM436.8 73.7h7.5v7.7h-7.5zM451.8 73.7h7.5v7.7h-7.5zM459.3 81.4h7.5v7.7h-7.5zM466.9 73.7h7.5v7.7h-7.5zM466.9 89.1h7.5v7.7h-7.5zM316.5 136h7.5v7.7h-7.5zM331.5 136h7.5v7.7h-7.5zM271.3 104.5h7.5v7.7h-7.5zM271.3 89.2h7.5v7.7h-7.5zM271.3 73.7h7.5v7.7h-7.5zM271.3 119.9h7.5v7.7h-7.5zM263.7 112.3h7.5v7.7h-7.5zM263.7 96.8h7.5v7.7h-7.5zM263.7 81.4h7.5v7.7h-7.5zM278.8 112.2h7.5v7.7h-7.5zM286.4 119.9h7.5v7.7h-7.5zM278.9 96.8h7.5v7.7h-7.5zM278.9 81.4h7.5v7.7h-7.5zM286.4 104.5h7.5v7.7h-7.5zM293.9 112.2h7.5v7.7h-7.5zM263.8 127.7h7.5v7.7h-7.5zM256.2 120h7.5v7.7h-7.5zM256.2 104.8h7.5v7.7h-7.5zM256.2 89.1h7.5v7.7h-7.5zM256.2 73.7h7.5v7.7h-7.5zM256.3 136h7.5v7.7h-7.5zM278.9 127.7h7.5v7.7h-7.5zM293.9 127.7h7.5v7.7h-7.5zM293.9 96.8h7.5v7.7h-7.5zM286.4 89.1h7.5v7.7h-7.5zM293.9 81.4h7.5v7.7h-7.5zM286.4 73.7h7.5v7.7h-7.5zM271.3 136h7.5v7.7h-7.5zM286.4 136h7.5v7.7h-7.5zM226.1 104.5h7.5v7.7h-7.5zM226.1 89.2h7.5v7.7h-7.5zM226.1 73.7h7.5v7.7h-7.5zM226.1 119.9h7.5v7.7h-7.5zM218.5 112.3h7.5v7.7h-7.5zM218.5 96.8h7.5v7.7h-7.5zM218.5 81.4h7.5v7.7h-7.5zM233.6 112.2h7.5v7.7h-7.5zM241.1 119.9h7.5v7.7h-7.5zM233.6 96.8h7.5v7.7h-7.5zM233.6 81.4h7.5v7.7h-7.5zM241.1 104.5h7.5v7.7h-7.5zM248.7 112.2h7.5v7.7h-7.5zM218.6 127.7h7.5v7.7h-7.5zM211 120h7.5v7.7H211zM211 104.8h7.5v7.7H211zM211 89.1h7.5v7.7H211zM211 73.7h7.5v7.7H211zM211.1 136h7.5v7.7h-7.5zM233.6 127.7h7.5v7.7h-7.5zM248.7 127.7h7.5v7.7h-7.5zM248.7 96.8h7.5v7.7h-7.5zM241.1 89.1h7.5v7.7h-7.5zM248.7 81.4h7.5v7.7h-7.5zM241.1 73.7h7.5v7.7h-7.5zM226.1 136h7.5v7.7h-7.5zM241.1 136h7.5v7.7h-7.5zM181 104.5h7.5v7.7H181zM181 89.2h7.5v7.7H181zM181 73.7h7.5v7.7H181zM181 119.9h7.5v7.7H181zM173.4 112.3h7.5v7.7h-7.5zM173.4 96.8h7.5v7.7h-7.5zM173.4 81.4h7.5v7.7h-7.5zM188.5 112.2h7.5v7.7h-7.5zM196 119.9h7.5v7.7H196zM188.5 96.8h7.5v7.7h-7.5zM188.5 81.4h7.5v7.7h-7.5zM196 104.5h7.5v7.7H196zM203.5 112.2h7.5v7.7h-7.5zM173.5 127.7h7.5v7.7h-7.5zM165.9 120h7.5v7.7h-7.5zM165.9 104.8h7.5v7.7h-7.5zM165.9 89.1h7.5v7.7h-7.5zM165.9 73.7h7.5v7.7h-7.5zM165.9 136h7.5v7.7h-7.5zM188.5 127.7h7.5v7.7h-7.5zM203.5 127.7h7.5v7.7h-7.5zM203.5 96.8h7.5v7.7h-7.5zM196 89.1h7.5v7.7H196zM203.5 81.4h7.5v7.7h-7.5zM196 73.7h7.5v7.7H196zM181 136h7.5v7.7H181zM196 136h7.5v7.7H196zM135.8 104.5h7.5v7.7h-7.5zM135.8 89.2h7.5v7.7h-7.5zM135.8 73.7h7.5v7.7h-7.5zM135.8 119.9h7.5v7.7h-7.5zM128.1 112.3h7.5v7.7h-7.5zM128.1 96.8h7.5v7.7h-7.5zM128.1 81.4h7.5v7.7h-7.5zM143.3 112.2h7.5v7.7h-7.5zM150.8 119.9h7.5v7.7h-7.5zM143.3 96.8h7.5v7.7h-7.5zM143.3 81.4h7.5v7.7h-7.5zM150.8 104.5h7.5v7.7h-7.5zM158.3 112.2h7.5v7.7h-7.5zM128.2 127.7h7.5v7.7h-7.5zM120.6 120h7.5v7.7h-7.5zM120.6 104.8h7.5v7.7h-7.5zM120.6 89.1h7.5v7.7h-7.5zM120.6 73.7h7.5v7.7h-7.5zM120.7 136h7.5v7.7h-7.5zM143.3 127.7h7.5v7.7h-7.5zM158.3 127.7h7.5v7.7h-7.5zM158.3 96.8h7.5v7.7h-7.5zM150.8 89.1h7.5v7.7h-7.5zM158.3 81.4h7.5v7.7h-7.5zM150.8 73.7h7.5v7.7h-7.5zM135.8 136h7.5v7.7h-7.5zM150.8 136h7.5v7.7h-7.5zM90.6 104.5h7.5v7.7h-7.5zM90.6 89.2h7.5v7.7h-7.5zM90.6 73.7h7.5v7.7h-7.5zM90.6 119.9h7.5v7.7h-7.5zM98.2 112.2h7.5v7.7h-7.5zM105.7 119.9h7.5v7.7h-7.5zM98.2 96.8h7.5v7.7h-7.5zM98.2 81.4h7.5v7.7h-7.5zM105.7 104.5h7.5v7.7h-7.5zM113.2 112.2h7.5v7.7h-7.5zM98.2 127.7h7.5v7.7h-7.5zM113.2 127.7h7.5v7.7h-7.5zM113.2 96.8h7.5v7.7h-7.5zM105.7 89.1h7.5v7.7h-7.5zM113.2 81.4h7.5v7.7h-7.5zM105.7 73.7h7.5v7.7h-7.5zM90.6 136h7.5v7.7h-7.5zM105.7 136h7.5v7.7h-7.5zM82.7 112.3h7.5v7.7h-7.5zM82.7 96.8h7.5v7.7h-7.5zM82.7 81.4h7.5v7.7h-7.5zM82.8 127.7h7.5v7.7h-7.5zM75.2 120h7.5v7.7h-7.5zM75.2 104.8h7.5v7.7h-7.5zM75.2 89.1h7.5v7.7h-7.5zM75.2 73.7h7.5v7.7h-7.5zM75.3 136h7.5v7.7h-7.5zM45.1 104.5h7.5v7.7h-7.5zM45.1 89.2h7.5v7.7h-7.5zM45.1 73.7h7.5v7.7h-7.5zM45.1 119.9h7.5v7.7h-7.5zM37.5 112.3H45v7.7h-7.5zM37.5 96.8H45v7.7h-7.5zM37.5 81.4H45v7.7h-7.5zM52.6 112.2h7.5v7.7h-7.5zM60.2 119.9h7.5v7.7h-7.5zM52.6 96.8h7.5v7.7h-7.5zM52.6 81.4h7.5v7.7h-7.5zM60.2 104.5h7.5v7.7h-7.5zM67.7 112.2h7.5v7.7h-7.5zM37.6 127.7h7.5v7.7h-7.5zM30 120h7.5v7.7H30zM30 104.8h7.5v7.7H30zM30 89.1h7.5v7.7H30zM30 73.7h7.5v7.7H30zM30.1 136h7.5v7.7h-7.5zM52.6 127.7h7.5v7.7h-7.5zM67.7 127.7h7.5v7.7h-7.5zM67.7 96.8h7.5v7.7h-7.5zM60.2 89.1h7.5v7.7h-7.5zM67.7 81.4h7.5v7.7h-7.5zM60.2 73.7h7.5v7.7h-7.5zM45.1 136h7.5v7.7h-7.5zM60.2 136h7.5v7.7h-7.5zM0 104.5h7.5v7.7H0zM0 89.2h7.5v7.7H0zM0 73.7h7.5v7.7H0zM0 119.9h7.5v7.7H0zM7.5 112.2H15v7.7H7.5zM15 119.9h7.5v7.7H15zM7.5 96.8H15v7.7H7.5zM7.5 81.4H15v7.7H7.5zM15 104.5h7.5v7.7H15zM22.6 112.2h7.5v7.7h-7.5zM7.5 127.7H15v7.7H7.5zM22.6 127.7h7.5v7.7h-7.5zM22.6 96.8h7.5v7.7h-7.5zM15 89.1h7.5v7.7H15zM22.6 81.4h7.5v7.7h-7.5zM15 73.7h7.5v7.7H15zM0 136h7.5v7.7H0zM15 136h7.5v7.7H15zM346.5 136h7.5v7.7h-7.5zM376.6 136h7.5v7.7h-7.5zM361.6 136h7.5v7.7h-7.5zM391.7 136h7.5v7.7h-7.5zM406.7 136h7.5v7.7h-7.5zM436.8 136h7.5v7.7h-7.5zM421.7 136h7.5v7.7h-7.5zM451.8 119.7v7.8h5.8l1.7-3.4v-4.4zM459.3 112.2v7.7h2.2l3.9-7.7zM474.1 81.4v7.7h3.2l4-7.7zM481.3 73.7v6.9l3.5-6.9z"/><g class="st21"><path class="st1" d="M468.6 104.4h-1.7v3.3z"/><path class="st20" d="M466.9 104.5h2l-2 3.3z"/></g><g class="st21"><path class="st1" d="M453.3 135.4h-1.7v3.3z"/><path class="st20" d="M451.6 135.5h2l-2 3.3z"/></g><path class="st8" d="M597.2 127s-30 2.9-63.2-54.3h338.1v72H568.5s13.1-14.5 28.7-17.7z"/><path class="st14" d="M594.5 127c15.4 1.1 18.3-10.6 34.2-27.7 7.8-8.4 19.9-7.6 19.9-7.6l11.4 23.7s-14.6 38.4-65.5 11.6zM699.3 73.1c-8.2 4-15.9 7.7-18.9 9.1-7.6 3.7-25.8 5.9-25.8 5.9l11.4 23.7s12.5-14 20.1-17.7c6.5-3.1 35.3-17.1 43.4-21h-30.2z"/><path class="st6" d="M.2 145.2h872v72H.2z"/><g class="st10"><path class="st23" d="M557.198 187.707l-2.9-.012.012-3 2.9.012zM550.098 172.406l-2.9-.014.015-3 2.9.014zM474.597 200.007l-3-.014.014-3 3 .014zM512.1 186.205l-2.9-.014.013-3 2.9.015zM494.4 178.205l-3-.013.012-3 3 .013zM524.1 152.806l-2.9-.013.012-3 2.9.013zM455.2 209.71l-3-.015.012-3 3 .014z"/><path class="st4" d="M401.9 184.8l88.9 2.9 19.3 13.6 31.4-45.3M572.8 189.2l-5.5 14.5-39.1-2.4-11.1 15.4"/><path class="st13" d="M479.2 147.1"/></g><path class="st6" d="M486.1 145.4L448.8 217l-358.1-.8v-71.5z"/><path class="st11" d="M314.9 177h7.5v7.7h-7.5zM314.9 161.7h7.5v7.7h-7.5zM314.9 146.1h7.5v7.7h-7.5zM314.9 192.4h7.5v7.7h-7.5zM307.3 184.8h7.5v7.7h-7.5zM307.3 169.3h7.5v7.7h-7.5zM307.3 153.9h7.5v7.7h-7.5zM322.4 184.7h7.5v7.7h-7.5zM329.9 192.4h7.5v7.7h-7.5zM322.4 169.3h7.5v7.7h-7.5zM322.4 153.9h7.5v7.7h-7.5zM329.9 177h7.5v7.7h-7.5zM337.5 184.7h7.5v7.7h-7.5zM307.4 200.1h7.5v7.7h-7.5zM299.8 192.5h7.5v7.7h-7.5zM299.8 177.3h7.5v7.7h-7.5zM299.8 161.6h7.5v7.7h-7.5zM299.8 146.1h7.5v7.7h-7.5zM299.8 208.5h7.5v7.7h-7.5zM322.4 200.1h7.5v7.7h-7.5zM337.5 200.1h7.5v7.7h-7.5zM345 192.4h7.5v7.7H345zM352.5 200.1h7.5v7.7h-7.5zM352.5 184.7h7.5v7.7h-7.5zM345 177h7.5v7.7H345zM337.5 169.3h7.5v7.7h-7.5zM329.9 161.6h7.5v7.7h-7.5zM337.5 153.9h7.5v7.7h-7.5zM329.9 146.1h7.5v7.7h-7.5zM345 146.1h7.5v7.7H345zM352.5 153.9h7.5v7.7h-7.5zM345 161.6h7.5v7.7H345zM352.5 169.3h7.5v7.7h-7.5zM360 146.1h7.5v7.7H360zM367.5 153.9h7.5v7.7h-7.5zM375.1 161.6h7.5v7.7h-7.5zM367.5 169.3h7.5v7.7h-7.5zM375.1 177h7.5v7.7h-7.5zM367.5 184.7h7.5v7.7h-7.5zM375.1 192.4h7.5v7.7h-7.5zM360 161.6h7.5v7.7H360zM360 177h7.5v7.7H360zM360 192.4h7.5v7.7H360zM382.6 184.7h7.5v7.7h-7.5zM390.1 192.4h7.5v7.7h-7.5zM382.6 169.3h7.5v7.7h-7.5zM390.1 177h7.5v7.7h-7.5zM397.6 184.7h7.5v7.7h-7.5zM367.5 200.1h7.5v7.7h-7.5zM382.6 200.1h7.5v7.7h-7.5zM397.6 200.1h7.5v7.7h-7.5zM405.1 192.4h7.5v7.7h-7.5zM412.7 200.1h7.5v7.7h-7.5zM412.7 184.7h7.5v7.7h-7.5zM405.1 177h7.5v7.7h-7.5zM397.6 169.3h7.5v7.7h-7.5zM390.1 161.6h7.5v7.7h-7.5zM382.6 153.9h7.5v7.7h-7.5zM375.1 146.1h7.5v7.7h-7.5zM390.1 146.1h7.5v7.7h-7.5zM397.6 153.9h7.5v7.7h-7.5zM405.1 146.1h7.5v7.7h-7.5zM412.7 153.9h7.5v7.7h-7.5zM405.1 161.6h7.5v7.7h-7.5zM412.7 169.3h7.5v7.7h-7.5zM420.2 146.1h7.5v7.7h-7.5zM427.7 153.9h7.5v7.7h-7.5zM435.2 161.6h7.5v7.7h-7.5zM427.7 169.3h7.5v7.7h-7.5zM435.2 177h7.5v7.7h-7.5zM427.7 184.7h7.5v7.7h-7.5zM435.2 192.4h7.5v7.7h-7.5zM420.2 161.6h7.5v7.7h-7.5zM420.2 177h7.5v7.7h-7.5zM420.2 192.4h7.5v7.7h-7.5zM442.7 184.7h7.5v7.7h-7.5zM442.7 169.3h7.5v7.7h-7.5zM450.3 177h7.5v7.7h-7.5zM427.7 200.1h7.5v7.7h-7.5zM442.7 200.1h7.5v7.7h-7.5zM457.8 169.3h7.5v7.7h-7.5zM450.3 161.6h7.5v7.7h-7.5zM442.7 153.9h7.5v7.7h-7.5zM435.2 146.1h7.5v7.7h-7.5zM450.3 146.1h7.5v7.7h-7.5zM457.8 153.9h7.5v7.7h-7.5zM465.3 146.1h7.5v7.7h-7.5zM465.3 161.6h7.5v7.7h-7.5zM314.9 208.5h7.5v7.7h-7.5zM329.9 208.5h7.5v7.7h-7.5zM269.8 177h7.5v7.7h-7.5zM269.8 161.7h7.5v7.7h-7.5zM269.8 146.1h7.5v7.7h-7.5zM269.8 192.4h7.5v7.7h-7.5zM262.1 184.8h7.5v7.7h-7.5zM262.1 169.3h7.5v7.7h-7.5zM262.1 153.9h7.5v7.7h-7.5zM277.3 184.7h7.5v7.7h-7.5zM284.8 192.4h7.5v7.7h-7.5zM277.3 169.3h7.5v7.7h-7.5zM277.3 153.9h7.5v7.7h-7.5zM284.8 177h7.5v7.7h-7.5zM292.3 184.7h7.5v7.7h-7.5zM262.2 200.1h7.5v7.7h-7.5zM254.6 192.5h7.5v7.7h-7.5zM254.6 177.3h7.5v7.7h-7.5zM254.6 161.6h7.5v7.7h-7.5zM254.6 146.1h7.5v7.7h-7.5zM254.7 208.5h7.5v7.7h-7.5zM277.3 200.1h7.5v7.7h-7.5zM292.3 200.1h7.5v7.7h-7.5zM292.3 169.3h7.5v7.7h-7.5zM284.8 161.6h7.5v7.7h-7.5zM292.3 153.9h7.5v7.7h-7.5zM284.8 146.1h7.5v7.7h-7.5zM269.8 208.5h7.5v7.7h-7.5zM284.8 208.5h7.5v7.7h-7.5zM224.5 177h7.5v7.7h-7.5zM224.5 161.7h7.5v7.7h-7.5zM224.5 146.1h7.5v7.7h-7.5zM224.5 192.4h7.5v7.7h-7.5zM216.9 184.8h7.5v7.7h-7.5zM216.9 169.3h7.5v7.7h-7.5zM216.9 153.9h7.5v7.7h-7.5zM232.1 184.7h7.5v7.7h-7.5zM239.6 192.4h7.5v7.7h-7.5zM232.1 169.3h7.5v7.7h-7.5zM232.1 153.9h7.5v7.7h-7.5zM239.6 177h7.5v7.7h-7.5zM247.1 184.7h7.5v7.7h-7.5zM217 200.1h7.5v7.7H217zM209.4 192.5h7.5v7.7h-7.5zM209.4 177.3h7.5v7.7h-7.5zM209.4 161.6h7.5v7.7h-7.5zM209.4 146.1h7.5v7.7h-7.5zM209.5 208.5h7.5v7.7h-7.5zM232.1 200.1h7.5v7.7h-7.5zM247.1 200.1h7.5v7.7h-7.5zM247.1 169.3h7.5v7.7h-7.5zM239.6 161.6h7.5v7.7h-7.5zM247.1 153.9h7.5v7.7h-7.5zM239.6 146.1h7.5v7.7h-7.5zM224.5 208.5h7.5v7.7h-7.5zM239.6 208.5h7.5v7.7h-7.5zM179.4 177h7.5v7.7h-7.5zM179.4 161.7h7.5v7.7h-7.5zM179.4 146.1h7.5v7.7h-7.5zM179.4 192.4h7.5v7.7h-7.5zM171.8 184.8h7.5v7.7h-7.5zM171.8 169.3h7.5v7.7h-7.5zM171.8 153.9h7.5v7.7h-7.5zM187 184.7h7.5v7.7H187zM194.5 192.4h7.5v7.7h-7.5zM187 169.3h7.5v7.7H187zM187 153.9h7.5v7.7H187zM194.5 177h7.5v7.7h-7.5zM202 184.7h7.5v7.7H202zM171.9 200.1h7.5v7.7h-7.5zM164.3 192.5h7.5v7.7h-7.5zM164.3 177.3h7.5v7.7h-7.5zM164.3 161.6h7.5v7.7h-7.5zM164.3 146.1h7.5v7.7h-7.5zM164.4 208.5h7.5v7.7h-7.5zM187 200.1h7.5v7.7H187zM202 200.1h7.5v7.7H202zM202 169.3h7.5v7.7H202zM194.5 161.6h7.5v7.7h-7.5zM202 153.9h7.5v7.7H202zM194.5 146.1h7.5v7.7h-7.5zM179.4 208.5h7.5v7.7h-7.5zM194.5 208.5h7.5v7.7h-7.5zM134.2 177h7.5v7.7h-7.5zM134.2 161.7h7.5v7.7h-7.5zM134.2 146.1h7.5v7.7h-7.5zM134.2 192.4h7.5v7.7h-7.5zM126.6 184.8h7.5v7.7h-7.5zM126.6 169.3h7.5v7.7h-7.5zM126.6 153.9h7.5v7.7h-7.5zM141.7 184.7h7.5v7.7h-7.5zM149.2 192.4h7.5v7.7h-7.5zM141.7 169.3h7.5v7.7h-7.5zM141.7 153.9h7.5v7.7h-7.5zM149.2 177h7.5v7.7h-7.5zM156.8 184.7h7.5v7.7h-7.5zM126.7 200.1h7.5v7.7h-7.5zM119.1 192.5h7.5v7.7h-7.5zM119.1 177.3h7.5v7.7h-7.5zM119.1 161.6h7.5v7.7h-7.5zM119.1 146.1h7.5v7.7h-7.5zM119.2 208.5h7.5v7.7h-7.5zM141.7 200.1h7.5v7.7h-7.5zM156.8 200.1h7.5v7.7h-7.5zM156.8 169.3h7.5v7.7h-7.5zM149.2 161.6h7.5v7.7h-7.5zM156.8 153.9h7.5v7.7h-7.5zM149.2 146.1h7.5v7.7h-7.5zM134.2 208.5h7.5v7.7h-7.5zM149.2 208.5h7.5v7.7h-7.5zM89.1 177h7.5v7.7h-7.5zM89.1 161.7h7.5v7.7h-7.5zM89.1 146.1h7.5v7.7h-7.5zM89.1 192.4h7.5v7.7h-7.5zM96.6 184.7h7.5v7.7h-7.5zM104.1 192.4h7.5v7.7h-7.5zM96.6 169.3h7.5v7.7h-7.5zM96.6 153.9h7.5v7.7h-7.5zM104.1 177h7.5v7.7h-7.5zM111.6 184.7h7.5v7.7h-7.5zM96.6 200.1h7.5v7.7h-7.5zM111.6 200.1h7.5v7.7h-7.5zM111.6 169.3h7.5v7.7h-7.5zM104.1 161.6h7.5v7.7h-7.5zM111.6 153.9h7.5v7.7h-7.5zM104.1 146.1h7.5v7.7h-7.5zM89.1 208.5h7.5v7.7h-7.5zM104.1 208.5h7.5v7.7h-7.5zM59 177h7.5v7.7H59zM59 161.7h7.5v7.7H59zM59 146.1h7.5v7.7H59zM59 192.4h7.5v7.7H59zM51.4 184.8h7.5v7.7h-7.5zM51.4 169.3h7.5v7.7h-7.5zM51.4 153.9h7.5v7.7h-7.5zM66.5 184.7H74v7.7h-7.5zM74 192.4h7.5v7.7H74zM66.5 169.3H74v7.7h-7.5zM66.5 153.9H74v7.7h-7.5zM74 177h7.5v7.7H74zM81.6 184.7h7.5v7.7h-7.5zM51.5 200.1H59v7.7h-7.5zM43.9 192.5h7.5v7.7h-7.5zM43.9 177.3h7.5v7.7h-7.5zM43.9 161.6h7.5v7.7h-7.5zM43.9 146.1h7.5v7.7h-7.5zM44 208.5h7.5v7.7H44zM66.5 200.1H74v7.7h-7.5zM81.6 200.1h7.5v7.7h-7.5zM81.6 169.3h7.5v7.7h-7.5zM74 161.6h7.5v7.7H74zM81.6 153.9h7.5v7.7h-7.5zM74 146.1h7.5v7.7H74zM59 208.5h7.5v7.7H59zM74 208.5h7.5v7.7H74zM13.9 177h7.5v7.7h-7.5zM13.9 161.7h7.5v7.7h-7.5zM13.9 146.1h7.5v7.7h-7.5zM13.9 192.4h7.5v7.7h-7.5zM21.4 184.7h7.5v7.7h-7.5zM28.9 192.4h7.5v7.7h-7.5zM21.4 169.3h7.5v7.7h-7.5zM21.4 153.9h7.5v7.7h-7.5zM28.9 177h7.5v7.7h-7.5zM36.4 184.7h7.5v7.7h-7.5zM21.4 200.1h7.5v7.7h-7.5zM36.4 200.1h7.5v7.7h-7.5zM36.4 169.3h7.5v7.7h-7.5zM28.9 161.6h7.5v7.7h-7.5zM36.4 153.9h7.5v7.7h-7.5zM28.9 146.1h7.5v7.7h-7.5zM13.9 208.5h7.5v7.7h-7.5zM.2 177h7.5v7.7H.2zM.2 161.7h7.5v7.7H.2zM.2 146.1h7.5v7.7H.2zM.2 192.4h7.5v7.7H.2zM7.7 184.7h7.5v7.7H7.7zM7.7 169.3h7.5v7.7H7.7zM7.7 153.9h7.5v7.7H7.7zM7.7 200.1h7.5v7.7H7.7zM.2 208.5h7.5v7.7H.2zM28.9 208.5h7.5v7.7h-7.5zM345 208.5h7.5v7.7H345zM375.1 208.5h7.5v7.7h-7.5zM360 208.5h7.5v7.7H360zM390.1 208.5h7.5v7.7h-7.5zM405.1 208.5h7.5v7.7h-7.5zM435.2 208.5h7.5v7.7h-7.5zM420.2 208.5h7.5v7.7h-7.5zM450.3 192.2v7.8h5.7l1.8-3.5v-4.3zM457.8 184.7v7.7h2.1l4-7.7zM472.6 153.9v7.7h3.1l4-7.7zM479.7 146.2v6.9l3.6-6.9z"/><path class="st22" d="M467.1 176.9h-1.7v3.3z"/><path class="st11" d="M465.3 177h2.1l-2 3.3z"/><path class="st22" d="M451.8 207.9H450v3.3z"/><path class="st11" d="M450 208h2.1l-2.1 3.3z"/><path class="st2" d="M597.2 199.5s-30 2.9-63.2-54.4h338.1v72H568.5c0 .1 13.1-14.3 28.7-17.6z"/><path class="st5" d="M594.5 199.5c15.4 1.1 18.3-10.6 34.2-27.7 7.8-8.4 19.9-7.6 19.9-7.6l11.4 23.7s-14.6 38.4-65.5 11.6zM699.3 145.6c-8.2 4-15.9 7.7-18.9 9.1-7.6 3.7-25.8 5.9-25.8 5.9l11.5 23.7s12.5-14 20.1-17.7c6.5-3.1 35.3-17.1 43.4-21h-30.3z"/></svg>