<svg xmlns="http://www.w3.org/2000/svg" width="81" height="81" viewBox="0 0 81 81"><style type="text/css"><![CDATA[
	.st0{fill:#2F728E;}
	.st2{fill:#3E98C0;}
	.st3{fill:none;stroke:#2F728E;stroke-width:4;}
]]></style><path class="st3" d="M3.55 67.56l21.62-17.79 20.75 27.21 8.43-13.11"/><path class="st2" d="M21.71 46h7.54v7.54h-7.54z"/><path class="st0" d="M28.4 46.84v5.85h-5.85v-5.85h5.85m2.7-2.69H19.87v11.23H31.1V44.15z"/><path class="st2" d="M1.7 63.33h7.54v7.54H1.7z"/><path class="st0" d="M8.39 64.17v5.85H2.55v-5.85h5.84m2.7-2.69H-.14v11.23h11.23V61.48z"/><path class="st2" d="M42.33 71.61h7.54v7.54h-7.54z"/><path class="st0" d="M49.02 72.46v5.85h-5.85v-5.85h5.85m2.69-2.69H40.48V81h11.23V69.77z"/><path class="st2" d="M51.71 57.23h7.54v7.54h-7.54z"/><path class="st0" d="M58.4 58.07v5.85h-5.85v-5.85h5.85m2.7-2.69H49.87v11.23H61.1V55.38z"/><path opacity=".44" fill="#3E98C0" stroke="#2F728E" enable-background="new" d="M5.47 5.42h29.39v29.39H5.47z"/><path class="st3" d="M5.47 5.42h29.39v29.4H5.47z"/><path class="st2" d="M31.1 31.04h7.54v7.54H31.1z"/><path class="st0" d="M37.79 31.89v5.85h-5.85v-5.85h5.85m2.69-2.7H29.25v11.23h11.23V29.19z"/><path class="st2" d="M31.1 1.85h7.54v7.54H31.1z"/><path class="st0" d="M37.79 2.69v5.85h-5.85V2.69h5.85M40.48 0H29.25v11.23h11.23V0z"/><path class="st2" d="M1.7 1.85h7.54v7.54H1.7z"/><path class="st0" d="M8.4 2.69v5.85H2.55V2.69H8.4M11.09 0H-.14v11.23h11.23V0z"/><path class="st2" d="M1.7 31.04h7.54v7.54H1.7z"/><path class="st0" d="M8.4 31.88v5.85H2.55v-5.85H8.4m2.69-2.69H-.14v11.23h11.23V29.19z"/><path class="st2" d="M64.98 4.51h7.54v7.54h-7.54z"/><path class="st0" d="M71.67 5.36v5.85h-5.85V5.36h5.85m2.69-2.69H63.13V13.9h11.23V2.67z"/><path class="st2" d="M52.87 19.81h7.54v7.54h-7.54z"/><path class="st0" d="M59.56 20.65v5.85h-5.85v-5.85h5.85m2.69-2.69H51.02v11.23h11.23V17.96z"/><path class="st2" d="M71.62 29.19h7.54v7.54h-7.54z"/><path class="st0" d="M78.31 30.04v5.85h-5.85v-5.85h5.85M81 27.35H69.77v11.23H81V27.35z"/></svg>