<svg xmlns="http://www.w3.org/2000/svg" width="872" height="72" viewBox="0 0 872 72"><style type="text/css"><![CDATA[
	.st0{fill:#E6BC95;} .st1{fill:#EECDAE;} .st2{opacity:0.13;fill:none;stroke:#000000;stroke-width:0.75;enable-background:new;}
	.st3{opacity:0.13;fill:none;stroke:#000000;stroke-width:2;enable-background:new;} .st4{opacity:0.13;fill:#3D3D3C;stroke:#000000;stroke-width:2;enable-background:new;}
]]></style><path class="st0" d="M-1-.6h872v72H-1z"/><path class="st4" d="M819.262 16.537l-2.9-.014.014-3 2.9.014zM806.782 41.758l-2.9-.014.014-3 2.9.014zM799.702 26.397l-2.9-.013.014-3 2.9.013zM861.662 35.537l-2.9-.013.014-3 2.9.013zM841.244 41.82l-2.9-.016.016-3 2.9.015zM724.09 53.968l-3-.014.015-3 3 .014zM761.68 40.236l-2.9-.013.015-3 2.9.013zM743.852 32.197l-3-.014.014-3 3 .014zM773.72 6.757l-2.9-.013.015-3 2.9.013zM690.47 18.037l-3-.014.015-3 3 .014zM622.36 44.777l-2.9-.013.014-3 2.9.013zM609.82 10.078l-2.9-.014.015-3 2.9.014zM575.66 51.047l-2.9-.013.013-3 2.9.013zM562.31 33.757l-3-.014.013-3 3 .014zM654.42 10.078l-2.9-.014.014-3 2.9.014zM704.67 63.708l-3-.014.015-3 3 .014z"/><path class="st3" d="M547.6 44.2l50.5-4L619.4 15l49.1 6.5L688.1-.3M619.4 70.7l32-31.9 89 3 19.3 13.5L798.2-.3M871 63.7l-39-46.4-15.1 40.4-39.2-2.4-11 15.4"/><path class="st1" d="M571.5-.6l-36.7 71.8L0 71.4v-72z"/><path class="st2" d="M728.7 1.1"/><path class="st4" d="M659.18 54.008l-2.9-.015.017-3 2.9.015zM710.24 11.577l-2.9-.013.013-3 2.9.013z"/></svg>