<?xml version="1.0" encoding="utf-8"?>
<!DOCTYPE svg PUBLIC "-//W3C//DTD SVG 1.1//EN" "http://www.w3.org/Graphics/SVG/1.1/DTD/svg11.dtd">
<svg version="1.1" id="Calque_1" xmlns="http://www.w3.org/2000/svg" xmlns:xlink="http://www.w3.org/1999/xlink" x="0px" y="0px"
	 width="22px" height="22px" viewBox="0 0 22 22" enable-background="new 0 0 22 22" xml:space="preserve">
<g>
	<polyline fill="none" stroke="#2C718D" stroke-width="2" points="3.58,17.2 9.92,6.59 17.54,11.89 	"/>
	<g>
		<rect x="1.06" y="14.04" fill="#3E98C0" width="4.16" height="4.17"/>
		<path fill="#2C718D" d="M4.22,15.04v2.17H2.06v-2.17H4.22 M6.22,13.04H0.06v6.17h6.16V13.04L6.22,13.04z"/>
	</g>
	<g>
		<rect x="7.64" y="3.79" fill="#3E98C0" width="4.08" height="4.08"/>
		<path fill="#2C718D" d="M10.72,4.79v2.08H8.64V4.79H10.72 M12.72,2.79H6.64v6.08h6.08V2.79L12.72,2.79z"/>
	</g>
	<g>
		<rect x="16.86" y="9.87" fill="#3E98C0" width="4.08" height="4.08"/>
		<path fill="#2C718D" d="M19.95,10.87v2.08h-2.08v-2.08H19.95 M21.95,8.87h-6.08v6.08h6.08V8.87L21.95,8.87z"/>
	</g>
</g>
</svg>
