<?xml version="1.0" encoding="utf-8"?>
<!DOCTYPE svg PUBLIC "-//W3C//DTD SVG 1.1//EN" "http://www.w3.org/Graphics/SVG/1.1/DTD/svg11.dtd">
<svg version="1.1" id="Calque_1" xmlns="http://www.w3.org/2000/svg" xmlns:xlink="http://www.w3.org/1999/xlink" x="0px" y="0px"
	 width="872px" height="72px" viewBox="0 0 872 72" enable-background="new 0 0 872 72" xml:space="preserve">
<rect x="-1" y="-1.08" fill="#4D4D4D" width="872" height="72"/>
<rect x="816.36" y="13.11" transform="matrix(1 4.648024e-03 -4.648024e-03 1 0.0767 -3.8011)" opacity="0.13" fill="#3D3D3C" stroke="#000000" stroke-width="2" enable-background="new    " width="2.94" height="2.99"/>
<rect x="803.82" y="38.27" transform="matrix(1 4.648024e-03 -4.648024e-03 1 0.1935 -3.7426)" opacity="0.13" fill="#3D3D3C" stroke="#000000" stroke-width="2" enable-background="new    " width="2.94" height="2.99"/>
<rect x="796.77" y="22.94" transform="matrix(1 4.480539e-03 -4.480539e-03 1 0.1175 -3.5763)" opacity="0.13" fill="#3D3D3C" stroke="#000000" stroke-width="2" enable-background="new    " width="2.94" height="2.99"/>
<rect x="858.75" y="32.11" transform="matrix(1 4.643399e-03 -4.643399e-03 1 0.1653 -3.994)" opacity="0.13" fill="#3D3D3C" stroke="#000000" stroke-width="2" enable-background="new    " width="2.94" height="2.99"/>
<rect x="838.29" y="38.37" transform="matrix(1 5.304965e-03 -5.304965e-03 1 0.2233 -4.4544)" opacity="0.13" fill="#3D3D3C" stroke="#000000" stroke-width="2" enable-background="new    " width="2.95" height="2.99"/>
<rect x="721.12" y="50.51" transform="matrix(1 4.640321e-03 -4.640321e-03 1 0.2491 -3.3525)" opacity="0.13" fill="#3D3D3C" stroke="#000000" stroke-width="2" enable-background="new    " width="2.95" height="2.99"/>
<rect x="758.7" y="36.76" transform="matrix(1 4.643399e-03 -4.643399e-03 1 0.1858 -3.5294)" opacity="0.13" fill="#3D3D3C" stroke="#000000" stroke-width="2" enable-background="new    " width="2.94" height="2.99"/>
<rect x="740.95" y="28.75" transform="matrix(1 4.806043e-03 -4.806043e-03 1 0.1539 -3.5678)" opacity="0.13" fill="#3D3D3C" stroke="#000000" stroke-width="2" enable-background="new    " width="2.95" height="2.99"/>
<rect x="770.74" y="3.26" transform="matrix(1 4.479052e-03 -4.479052e-03 1 0.0291 -3.4587)" opacity="0.13" fill="#3D3D3C" stroke="#000000" stroke-width="2" enable-background="new    " width="2.94" height="2.99"/>
<rect x="687.52" y="14.59" transform="matrix(1 4.474599e-03 -4.474599e-03 1 0.0789 -3.0828)" opacity="0.13" fill="#3D3D3C" stroke="#000000" stroke-width="2" enable-background="new    " width="2.95" height="2.99"/>
<rect x="619.4" y="41.25" transform="matrix(1 4.310305e-03 -4.310305e-03 1 0.19 -2.6757)" opacity="0.13" fill="#3D3D3C" stroke="#000000" stroke-width="2" enable-background="new    " width="2.95" height="2.99"/>
<rect x="606.84" y="6.55" transform="matrix(1 4.812424e-03 -4.812424e-03 1 0.0457 -2.9273)" opacity="0.13" fill="#3D3D3C" stroke="#000000" stroke-width="2" enable-background="new    " width="2.94" height="2.99"/>
<rect x="572.75" y="47.55" transform="matrix(1 4.646481e-03 -4.646481e-03 1 0.2341 -2.6676)" opacity="0.13" fill="#3D3D3C" stroke="#000000" stroke-width="2" enable-background="new    " width="2.94" height="2.98"/>
<rect x="559.38" y="30.24" transform="matrix(1 4.806043e-03 -4.806043e-03 1 0.159 -2.6951)" opacity="0.13" fill="#3D3D3C" stroke="#000000" stroke-width="2" enable-background="new    " width="2.95" height="2.99"/>
<rect x="651.44" y="6.55" transform="matrix(1 4.644940e-03 -4.644940e-03 1 0.0444 -3.0326)" opacity="0.13" fill="#3D3D3C" stroke="#000000" stroke-width="2" enable-background="new    " width="2.94" height="2.99"/>
<rect x="701.7" y="60.23" transform="matrix(1 4.640321e-03 -4.640321e-03 1 0.294 -3.2623)" opacity="0.13" fill="#3D3D3C" stroke="#000000" stroke-width="2" enable-background="new    " width="2.95" height="2.98"/>
<polyline opacity="0.13" fill="none" stroke="#000000" stroke-width="2" enable-background="new    " points="547.63,43.74 
	598.08,39.68 619.4,14.52 668.53,21.04 688.07,-0.79 "/>
<polyline opacity="0.13" fill="none" stroke="#000000" stroke-width="2" enable-background="new    " points="619.4,70.24 
	651.43,38.34 740.38,41.27 759.65,54.8 798.24,-0.79 "/>
<polyline opacity="0.13" fill="none" stroke="#000000" stroke-width="2" enable-background="new    " points="871,63.16 
	831.97,16.83 816.85,57.24 777.7,54.8 766.66,70.24 "/>
<polygon fill="#5B5B5B" points="572.54,-1.08 536.65,70.67 -0.68,70.92 -0.65,-1.08 "/>
<path opacity="0.13" fill="none" stroke="#000000" stroke-width="0.75" enable-background="new    " d="M728.7,0.61"/>
<rect x="656.21" y="50.51" transform="matrix(1 5.304965e-03 -5.304965e-03 1 0.2852 -3.4883)" opacity="0.13" fill="#3D3D3C" stroke="#000000" stroke-width="2" enable-background="new    " width="2.95" height="2.98"/>
<rect x="707.35" y="8.08" transform="matrix(1 4.479052e-03 -4.479052e-03 1 0.0499 -3.1747)" opacity="0.13" fill="#3D3D3C" stroke="#000000" stroke-width="2" enable-background="new    " width="2.94" height="2.99"/>
</svg>
