<?xml version="1.0" encoding="utf-8"?>
<!DOCTYPE svg PUBLIC "-//W3C//DTD SVG 1.1//EN" "http://www.w3.org/Graphics/SVG/1.1/DTD/svg11.dtd">
<svg version="1.1" id="Calque_1" xmlns="http://www.w3.org/2000/svg" xmlns:xlink="http://www.w3.org/1999/xlink" x="0px" y="0px"
	 width="872px" height="72px" viewBox="0 0 872 72" style="enable-background:new 0 0 872 72;" xml:space="preserve">
<style type="text/css"><![CDATA[
	.st0{fill:#4D4D4D;} .st1{opacity:0.13;fill:none;stroke:#000000;stroke-width:0.75;enable-background:new;}
	.st2{fill:#5B5B5B;} .st3{opacity:0.13;fill:none;stroke:#000000;stroke-width:2;enable-background:new;}
	.st4{opacity:0.13;fill:#3D3D3C;stroke:#000000;stroke-width:2;enable-background:new;}
]]></style>
<rect x="-1" y="-1.1" class="st0" width="872" height="72"/>
<rect x="816.4" y="13.1" transform="matrix(1 4.649568e-03 -4.649568e-03 1 7.678223e-02 -3.8024)" class="st4" width="2.9" height="3"/>
<rect x="803.8" y="38.3" transform="matrix(1 4.651112e-03 -4.651112e-03 1 0.1936 -3.7451)" class="st4" width="2.9" height="3"/>
<rect x="796.8" y="22.9" transform="matrix(1 4.485005e-03 -4.485005e-03 1 0.1177 -3.5799)" class="st4" width="2.9" height="3"/>
<rect x="858.8" y="32.1" transform="matrix(1 4.651112e-03 -4.651112e-03 1 0.1656 -4.0006)" class="st4" width="2.9" height="3"/>
<rect x="838.3" y="38.4" transform="matrix(1 5.296185e-03 -5.296185e-03 1 0.2229 -4.447)" class="st4" width="3" height="3"/>
<rect x="721.1" y="50.5" transform="matrix(1 4.634177e-03 -4.634177e-03 1 0.2488 -3.3481)" class="st4" width="3" height="3"/>
<rect x="758.7" y="36.8" transform="matrix(1 4.651112e-03 -4.651112e-03 1 0.1861 -3.5352)" class="st4" width="2.9" height="3"/>
<rect x="740.9" y="28.8" transform="matrix(1 4.799680e-03 -4.799680e-03 1 0.1537 -3.563)" class="st4" width="3" height="3"/>
<rect x="770.7" y="3.3" transform="matrix(1 4.485005e-03 -4.485005e-03 1 2.905273e-02 -3.4633)" class="st4" width="2.9" height="3"/>
<rect x="687.5" y="14.6" transform="matrix(1 4.468674e-03 -4.468674e-03 1 7.879639e-02 -3.0787)" class="st4" width="3" height="3"/>
<rect x="619.4" y="41.3" transform="matrix(1 4.303171e-03 -4.303171e-03 1 0.1897 -2.6713)" class="st4" width="3" height="3"/>
<rect x="606.8" y="6.6" transform="matrix(1 4.815620e-03 -4.815620e-03 1 4.583740e-02 -2.9293)" class="st4" width="2.9" height="3"/>
<rect x="572.7" y="47.5" transform="matrix(1 4.651112e-03 -4.651112e-03 1 0.2343 -2.6702)" class="st4" width="2.9" height="3"/>
<rect x="559.4" y="30.2" transform="matrix(1 4.799680e-03 -4.799680e-03 1 0.1588 -2.6915)" class="st4" width="3" height="3"/>
<rect x="651.4" y="6.6" transform="matrix(1 4.649568e-03 -4.649568e-03 1 4.443359e-02 -3.0357)" class="st4" width="2.9" height="3"/>
<rect x="701.7" y="60.2" transform="matrix(1 4.634177e-03 -4.634177e-03 1 0.2936 -3.258)" class="st4" width="3" height="3"/>
<polyline class="st3" points="547.6,43.7 598.1,39.7 619.4,14.5 668.5,21 688.1,-0.8 "/>
<polyline class="st3" points="619.4,70.2 651.4,38.3 740.4,41.3 759.7,54.8 798.2,-0.8 "/>
<polyline class="st3" points="871,63.2 832,16.8 816.8,57.2 777.7,54.8 766.7,70.2 "/>
<polygon class="st2" points="572.5,-1.1 536.7,70.7 -0.7,70.9 -0.6,-1.1 "/>
<path class="st1" d="M728.7,0.6"/>
<rect x="656.2" y="50.5" transform="matrix(1 5.296185e-03 -5.296185e-03 1 0.2846 -3.4825)" class="st4" width="3" height="3"/>
<rect x="707.3" y="8.1" transform="matrix(1 4.485005e-03 -4.485005e-03 1 5.010986e-02 -3.1789)" class="st4" width="2.9" height="3"/>
</svg>
