<?xml version="1.0" encoding="utf-8"?>
<!-- Generator: Adobe Illustrator 15.1.0, SVG Export Plug-In . SVG Version: 6.00 Build 0)  -->
<!DOCTYPE svg PUBLIC "-//W3C//DTD SVG 1.1//EN" "http://www.w3.org/Graphics/SVG/1.1/DTD/svg11.dtd">
<svg version="1.1" id="Calque_1" xmlns="http://www.w3.org/2000/svg" xmlns:xlink="http://www.w3.org/1999/xlink" x="0px" y="0px"
	 width="872px" height="144px" viewBox="0 0 872 144" style="enable-background:new 0 0 872 144;" xml:space="preserve">
<style type="text/css">
<![CDATA[
	.st0{opacity:0.13;fill:none;stroke:#010202;stroke-width:2;enable-background:new    ;}
	.st1{fill:#E3F1F6;}
	.st2{fill:#4E4E4E;}
	.st3{opacity:0.13;fill:none;stroke:#010202;stroke-width:0.75;enable-background:new    ;}
	.st4{fill:#5C5C5C;}
	.st5{opacity:0.13;fill:#3D3D3C;stroke:#010202;stroke-width:2;enable-background:new    ;}
	.st6{fill:#CCE2EC;}
]]>
</style>
<rect y="-0.1" class="st6" width="872" height="72"/>
<rect x="817.409" y="14.1" transform="matrix(-1 -0.0045 0.0045 -1 1637.6384 34.9225)" class="st5" width="2.9" height="3"/>
<rect x="804.808" y="39.3" transform="matrix(-1 -0.0047 0.0047 -1 1612.3154 85.3996)" class="st5" width="2.9" height="3"/>
<rect x="797.809" y="23.9" transform="matrix(-1 -0.0047 0.0047 -1 1598.3889 54.5679)" class="st5" width="2.9" height="3"/>
<rect x="859.709" y="33.1" transform="matrix(-1 -0.0047 0.0047 -1 1722.1458 73.259)" class="st5" width="2.9" height="3"/>
<rect x="839.312" y="39.4" transform="matrix(-1 -0.0052 0.0052 -1 1681.3987 86.1795)" class="st5" width="3" height="3"/>
<rect x="722.108" y="51.501" transform="matrix(-1 -0.0046 0.0046 -1 1446.9668 109.2991)" class="st5" width="3" height="3"/>
<rect x="759.708" y="37.8" transform="matrix(-1 -0.0047 0.0047 -1 1522.1218 82.187)" class="st5" width="2.9" height="3"/>
<rect x="741.908" y="29.8" transform="matrix(-1 -0.0049 0.0049 -1 1486.6548 66.2301)" class="st5" width="3" height="3"/>
<rect x="771.707" y="4.3" transform="matrix(-1 -0.0044 0.0044 -1 1546.2816 14.9837)" class="st5" width="2.9" height="3"/>
<rect x="688.507" y="15.6" transform="matrix(-1 -0.0047 0.0047 -1 1379.9263 37.4574)" class="st5" width="3" height="3"/>
<rect x="620.406" y="42.3" transform="matrix(-1 -0.0042 0.0042 -1 1243.6206 90.232)" class="st5" width="3" height="3"/>
<rect x="607.807" y="7.6" transform="matrix(-1 -0.0049 0.0049 -1 1218.4619 21.175)" class="st5" width="2.899" height="3"/>
<rect x="573.706" y="48.5" transform="matrix(-1 -0.0044 0.0044 -1 1150.0881 102.518)" class="st5" width="2.9" height="3"/>
<rect x="560.407" y="31.201" transform="matrix(-1 -0.0049 0.0049 -1 1123.6471 68.1446)" class="st5" width="3" height="3"/>
<rect x="652.407" y="7.6" transform="matrix(-1 -0.0049 0.0049 -1 1307.6616 21.3917)" class="st5" width="2.9" height="3"/>
<rect x="702.708" y="61.2" transform="matrix(-1 -0.0046 0.0046 -1 1408.1229 128.609)" class="st5" width="3" height="3"/>
<polyline class="st0" points="548.6,44.7 599.1,40.7 620.4,15.5 669.5,22 689.1,0.2 "/>
<polyline class="st0" points="620.4,71.2 652.4,39.3 741.4,42.3 760.7,55.8 799.2,0.2 "/>
<polyline class="st0" points="872,64.2 833,17.8 817.9,58.2 778.7,55.8 767.7,71.2 "/>
<polygon class="st1" points="572.5,-0.1 535.8,71.7 1,71.9 1,-0.1 "/>
<path class="st3" d="M729.7,1.6"/>
<rect x="657.21" y="51.5" transform="matrix(-1 -0.0054 0.0054 -1 1317.0242 109.5487)" class="st5" width="2.899" height="3"/>
<rect x="708.307" y="9.1" transform="matrix(-1 -0.0045 0.0045 -1 1419.4592 24.4257)" class="st5" width="2.9" height="3"/>
<rect y="71.4" class="st2" width="872" height="72"/>
<rect x="817.409" y="85.601" transform="matrix(-1 -0.0047 0.0047 -1 1637.2981 178.06)" class="st5" width="2.9" height="3"/>
<rect x="804.808" y="110.8" transform="matrix(-1 -0.0047 0.0047 -1 1611.9783 228.3988)" class="st5" width="2.9" height="3"/>
<rect x="797.809" y="95.4" transform="matrix(-1 -0.0044 0.0044 -1 1598.0847 197.2984)" class="st5" width="2.899" height="3"/>
<rect x="859.809" y="104.601" transform="matrix(-1 -0.0047 0.0047 -1 1722.0089 216.2597)" class="st5" width="2.9" height="3"/>
<rect x="839.312" y="110.9" transform="matrix(-1 -0.0052 0.0052 -1 1681.0261 229.1785)" class="st5" width="3" height="3"/>
<rect x="722.108" y="123.001" transform="matrix(-1 -0.0046 0.0046 -1 1446.6409 252.2983)" class="st5" width="3" height="3"/>
<rect x="759.708" y="109.3" transform="matrix(-1 -0.0047 0.0047 -1 1521.7847 225.1862)" class="st5" width="2.9" height="3"/>
<rect x="741.908" y="101.3" transform="matrix(-1 -0.0049 0.0049 -1 1486.3057 209.2292)" class="st5" width="3" height="3"/>
<rect x="771.707" y="75.8" transform="matrix(-1 -0.0047 0.0047 -1 1545.9415 158.2432)" class="st5" width="2.9" height="3"/>
<rect x="688.507" y="87.101" transform="matrix(-1 -0.0046 0.0046 -1 1379.6028 180.3448)" class="st5" width="3" height="3"/>
<rect x="620.406" y="113.8" transform="matrix(-1 -0.0042 0.0042 -1 1243.3181 233.2314)" class="st5" width="3" height="3"/>
<rect x="607.807" y="79.1" transform="matrix(-1 -0.0051 0.0051 -1 1218.0986 164.2773)" class="st5" width="2.899" height="3"/>
<rect x="573.706" y="120" transform="matrix(-1 -0.0044 0.0044 -1 1149.7751 245.5173)" class="st5" width="2.9" height="3"/>
<rect x="560.407" y="102.701" transform="matrix(-1 -0.0049 0.0049 -1 1123.298 211.1437)" class="st5" width="3" height="3"/>
<rect x="652.407" y="79.1" transform="matrix(-1 -0.0047 0.0047 -1 1307.3265 164.2815)" class="st5" width="2.899" height="3"/>
<rect x="702.708" y="132.7" transform="matrix(-1 -0.0046 0.0046 -1 1407.7971 271.6083)" class="st5" width="3" height="3"/>
<polyline class="st0" points="548.6,116.2 599.1,112.2 620.4,87 669.5,93.5 689.1,71.7 "/>
<polyline class="st0" points="620.4,142.7 652.4,110.8 741.4,113.8 760.7,127.3 799.2,71.7 "/>
<polyline class="st0" points="872,135.7 833,89.3 817.8,129.7 778.7,127.3 767.7,142.7 "/>
<polygon class="st4" points="573.5,71.4 537.7,143.2 0.3,143.4 0.4,71.4 "/>
<path class="st3" d="M728.2,73.1"/>
<rect x="657.209" y="123" transform="matrix(-1 -0.0055 0.0055 -1 1316.719 252.6442)" class="st5" width="3" height="3"/>
<rect x="708.307" y="80.6" transform="matrix(-1 -0.0044 0.0044 -1 1419.1475 167.306)" class="st5" width="2.9" height="3"/>
</svg>
