<?xml version="1.0" encoding="utf-8"?>
<!-- Generator: Adobe Illustrator 15.1.0, SVG Export Plug-In . SVG Version: 6.00 Build 0)  -->
<!DOCTYPE svg PUBLIC "-//W3C//DTD SVG 1.1//EN" "http://www.w3.org/Graphics/SVG/1.1/DTD/svg11.dtd">
<svg version="1.1" id="Calque_1" xmlns="http://www.w3.org/2000/svg" xmlns:xlink="http://www.w3.org/1999/xlink" x="0px" y="0px"
	 width="22px" height="22px" viewBox="0 0 22 22" enable-background="new 0 0 22 22" xml:space="preserve">
<g>
	<rect x="1" y="16.92" fill="#B2AFAC" stroke="#D6D6D4" stroke-miterlimit="10" width="4.081" height="4.082"/>
	<path fill="#93908D" d="M4.081,17.92v2.082H2V17.92H4.081 M6.081,15.92H0v6.082h6.081V15.92L6.081,15.92z"/>
</g>
<g>
	<rect x="1" y="4.13" fill="#B2AFAC" stroke="#D6D6D4" stroke-miterlimit="10" width="4.081" height="4.081"/>
	<path fill="#93908D" d="M4.081,5.13v2.081H2V5.13H4.081 M6.081,3.13H0v6.081h6.081V3.13L6.081,3.13z"/>
</g>
<g>
	<rect x="15.834" y="0.998" fill="#B2AFAC" stroke="#D6D6D4" stroke-miterlimit="10" width="4.08" height="4.081"/>
	<path fill="#93908D" d="M18.914,1.998v2.081h-2.08V1.998H18.914 M20.914-0.002h-6.08v6.081h6.08V-0.002L20.914-0.002z"/>
</g>
<g>
	<rect x="10.365" y="9.808" fill="#B2AFAC" stroke="#D6D6D4" stroke-miterlimit="10" width="4.08" height="4.081"/>
	<path fill="#93908D" d="M13.445,10.808v2.081h-2.08v-2.081H13.445 M15.445,8.808h-6.08v6.081h6.08V8.808L15.445,8.808z"/>
</g>
<g>
	<rect x="16.92" y="16.047" fill="#B2AFAC" stroke="#D6D6D4" stroke-miterlimit="10" width="4.08" height="4.08"/>
	<path fill="#93908D" d="M20,17.047v2.08h-2.08v-2.08H20 M22,15.047h-6.08v6.08H22V15.047L22,15.047z"/>
</g>
</svg>
