<?xml version="1.0" encoding="utf-8"?>
<!DOCTYPE svg PUBLIC "-//W3C//DTD SVG 1.1//EN" "http://www.w3.org/Graphics/SVG/1.1/DTD/svg11.dtd">
<svg version="1.1" id="Calque_1" xmlns="http://www.w3.org/2000/svg" xmlns:xlink="http://www.w3.org/1999/xlink" x="0px" y="0px"
	 width="22px" height="22px" viewBox="0 0 22 22" enable-background="new 0 0 22 22" xml:space="preserve">
<g>
	<rect x="1" y="16.92" fill="#3E98C0" width="4.08" height="4.08"/>
	<path fill="#2C718D" d="M4.08,17.92V20H2v-2.08H4.08 M6.08,15.92H0V22h6.08V15.92L6.08,15.92z"/>
</g>
<g>
	<rect x="1" y="4.13" fill="#3E98C0" width="4.08" height="4.08"/>
	<path fill="#2C718D" d="M4.08,5.13v2.08H2V5.13H4.08 M6.08,3.13H0v6.08h6.08V3.13L6.08,3.13z"/>
</g>
<g>
	<rect x="15.83" y="1" fill="#3E98C0" width="4.08" height="4.08"/>
	<path fill="#2C718D" d="M18.91,2v2.08h-2.08V2H18.91 M20.91,0h-6.08v6.08h6.08V0L20.91,0z"/>
</g>
<g>
	<rect x="10.37" y="9.81" fill="#3E98C0" width="4.08" height="4.08"/>
	<path fill="#2C718D" d="M13.45,10.81v2.08h-2.08v-2.08H13.45 M15.45,8.81H9.37v6.08h6.08V8.81L15.45,8.81z"/>
</g>
<g>
	<rect x="16.92" y="16.05" fill="#3E98C0" width="4.08" height="4.08"/>
	<path fill="#2C718D" d="M20,17.05v2.08h-2.08v-2.08H20 M22,15.05h-6.08v6.08H22V15.05L22,15.05z"/>
</g>
</svg>
