<svg xmlns="http://www.w3.org/2000/svg" width="22" height="22" viewBox="0 0 22 22"><style type="text/css"><![CDATA[
	.st0{fill:#B2AFAC;stroke:#D6D6D4;stroke-miterlimit:10;}
	.st1{fill:#93908D;}
]]></style><path class="st0" d="M1 16.92h4.08V21H1z"/><path class="st1" d="M4.08 17.92V20H2v-2.08h2.08m2-2H0V22h6.08v-6.08z"/><path class="st0" d="M1 4.13h4.08v4.08H1z"/><path class="st1" d="M4.08 5.13v2.08H2V5.13h2.08m2-2H0v6.08h6.08V3.13z"/><path class="st0" d="M15.83 1h4.08v4.08h-4.08z"/><path class="st1" d="M18.91 2v2.08h-2.08V2h2.08m2-2h-6.08v6.08h6.08V0z"/><path class="st0" d="M10.37 9.81h4.08v4.08h-4.08z"/><path class="st1" d="M13.45 10.81v2.08h-2.08v-2.08h2.08m2-2H9.37v6.08h6.08V8.81z"/><path class="st0" d="M16.92 16.05H21v4.08h-4.08z"/><path class="st1" d="M20 17.05v2.08h-2.08v-2.08H20m2-2h-6.08v6.08H22v-6.08z"/></svg>