<svg xmlns="http://www.w3.org/2000/svg" width="872" height="144" viewBox="0 0 872 144"><style type="text/css"><![CDATA[
	.st0{opacity:0.13;fill:none;stroke:#010202;stroke-width:2;enable-background:new    ;}
	.st1{fill:#E3F1F6;}
	.st2{fill:#4E4E4E;}
	.st3{opacity:0.13;fill:none;stroke:#010202;stroke-width:0.75;enable-background:new    ;}
	.st4{fill:#5C5C5C;}
	.st5{opacity:0.13;fill:#3D3D3C;stroke:#010202;stroke-width:2;enable-background:new    ;}
	.st6{fill:#CCE2EC;}
]]></style><path class="st6" d="M0-.1h872v72H0z"/><path class="st5" d="M820.293 17.144l-2.9-.013.013-3 2.9.014zM807.692 42.317l-2.9-.014.014-3 2.9.014zM800.692 26.918l-2.9-.013.014-3 2.9.013zM862.592 36.118l-2.9-.013.014-3 2.9.013zM842.292 42.415l-3-.016.015-3 3 .015zM725.096 54.476l-3-.013.014-3 3 .013zM762.59 40.816l-2.9-.013.016-3 2.9.013zM744.893 32.795l-3-.015.015-3 3 .015zM774.594 7.288l-2.9-.013.013-3 2.9.013zM691.493 18.62l-3-.013.014-3 3 .014zM623.392 45.326l-3-.012.013-3 3 .012zM610.692 10.597l-2.9-.014.016-3 2.9.014zM576.595 51.494l-2.9-.013.014-3 2.9.014zM563.393 34.198l-3-.015.015-3 3 .015zM655.292 10.595l-2.9-.014.015-3 2.9.015zM705.696 64.177l-3-.014.014-3 3 .014z"/><path class="st0" d="M548.6 44.7l50.5-4 21.3-25.2 49.1 6.5L689.1.2M620.4 71.2l32-31.9 89 3 19.3 13.5L799.2.2M872 64.2l-39-46.4-15.1 40.4-39.2-2.4-11 15.4"/><path class="st1" d="M572.5-.1l-36.7 71.8L1 71.9v-72z"/><path class="st3" d="M729.7 1.6"/><path class="st5" d="M660.092 54.5l-2.9-.016.018-3 2.9.016zM711.193 12.138l-2.9-.013.014-3 2.9.013z"/><path class="st2" d="M0 71.4h872v72H0z"/><path class="st5" d="M820.29 88.617l-2.9-.013.016-3 2.9.013zM807.69 113.816l-2.9-.013.015-3 2.9.013zM800.695 98.388l-2.9-.013.015-3 2.9.013zM862.692 107.618l-2.9-.014.014-3 2.9.014zM842.29 113.914l-3-.016.016-3 3 .016zM725.1 125.976l-3-.014.013-3 3 .014zM762.59 112.316l-2.9-.014.015-3 2.9.014zM744.894 104.294l-3-.015.015-3 3 .014zM774.59 78.816l-2.9-.013.015-3 2.9.013zM691.496 90.077l-3-.014.014-3 3 .014zM623.39 116.826l-3-.013.013-3 3 .013zM610.695 82.077l-2.9-.014.016-3 2.9.014zM576.597 122.993l-2.9-.013.013-3 2.9.013zM563.394 105.697l-3-.015.015-3 3 .015zM655.29 82.115l-2.898-.013.014-3 2.9.013zM705.7 135.676l-3-.014.013-3 3 .014z"/><path class="st0" d="M548.6 116.2l50.5-4L620.4 87l49.1 6.5 19.6-21.8M620.4 142.7l32-31.9 89 3 19.3 13.5 38.5-55.6M872 135.7l-39-46.4-15.2 40.4-39.1-2.4-11 15.4"/><path class="st4" d="M573.5 71.4l-35.8 71.8-537.4.2.1-72z"/><path class="st3" d="M728.2 73.1"/><path class="st5" d="M660.187 126.03l-3-.017.016-3 3 .017zM711.195 83.59l-2.9-.013.013-3 2.9.012z"/></svg>