<svg xmlns="http://www.w3.org/2000/svg" width="81" height="81" viewBox="0 0 81 81"><style type="text/css"><![CDATA[
	.st0{fill:none;stroke:#FFFFFF;stroke-width:4;}
	.st1{fill:#FFFFFF;} .st3{fill:#A7CDDE;}
]]></style><path class="st0" d="M3.62 67.56l21.63-17.79 20.74 27.21 8.43-13.11"/><path class="st3" d="M21.78 46h7.54v7.54h-7.54z"/><path class="st1" d="M28.48 46.84v5.85h-5.85v-5.85h5.85m2.69-2.69H19.94v11.23h11.23V44.15z"/><path class="st3" d="M1.77 63.33h7.54v7.54H1.77z"/><path class="st1" d="M8.46 64.17v5.85H2.62v-5.85h5.84m2.7-2.69H-.07v11.23h11.23V61.48z"/><path class="st3" d="M42.4 71.61h7.54v7.54H42.4z"/><path class="st1" d="M49.09 72.46v5.85h-5.85v-5.85h5.85m2.69-2.69H40.55V81h11.23V69.77z"/><path class="st3" d="M51.78 57.23h7.54v7.54h-7.54z"/><path class="st1" d="M58.47 58.07v5.85h-5.85v-5.85h5.85m2.7-2.69H49.94v11.23h11.23V55.38z"/><path opacity=".44" fill="#3E98C0" stroke="#2F728E" enable-background="new" d="M5.54 5.42h29.39v29.39H5.54z"/><path class="st0" d="M5.54 5.42h29.39v29.4H5.54z"/><path class="st3" d="M31.17 31.04h7.54v7.54h-7.54z"/><path class="st1" d="M37.86 31.89v5.85h-5.85v-5.85h5.85m2.69-2.7H29.32v11.23h11.23V29.19z"/><path class="st3" d="M31.17 1.85h7.54v7.54h-7.54z"/><path class="st1" d="M37.86 2.69v5.85h-5.85V2.69h5.85M40.55 0H29.32v11.23h11.23V0z"/><path class="st3" d="M1.77 1.85h7.54v7.54H1.77z"/><path class="st1" d="M8.47 2.69v5.85H2.62V2.69h5.85M11.16 0H-.07v11.23h11.23V0z"/><path class="st3" d="M1.77 31.04h7.54v7.54H1.77z"/><path class="st1" d="M8.47 31.88v5.85H2.62v-5.85h5.85m2.69-2.69H-.07v11.23h11.23V29.19z"/><path class="st3" d="M65.05 4.51h7.54v7.54h-7.54z"/><path class="st1" d="M71.74 5.36v5.85h-5.85V5.36h5.85m2.69-2.69H63.2V13.9h11.23V2.67z"/><path class="st3" d="M52.94 19.81h7.54v7.54h-7.54z"/><path class="st1" d="M59.63 20.65v5.85h-5.85v-5.85h5.85m2.69-2.69H51.09v11.23h11.23V17.96z"/><path class="st3" d="M71.69 29.19h7.54v7.54h-7.54z"/><path class="st1" d="M78.38 30.04v5.85h-5.85v-5.85h5.85m2.69-2.69H69.84v11.23h11.23V27.35z"/></svg>