<svg xmlns="http://www.w3.org/2000/svg" width="22" height="22" viewBox="0 0 22 22"><style type="text/css"><![CDATA[
	.st1{fill:#2C718D;}	.st3{fill:#3E98C0;}
]]></style><path opacity=".44" fill="#3E98C0" stroke="#2C718D" stroke-width="2" enable-background="new" d="M3.07 3.04H19v15.93H3.07z"/><path fill="none" stroke="#2C718D" stroke-width="2" d="M3.07 3.04H19v15.93H3.07z"/><path class="st3" d="M16.89 1h4.08v4.08h-4.08z"/><path class="st1" d="M19.97 2v2.08h-2.08V2h2.08m2-2h-6.08v6.08h6.08V0z"/><path class="st3" d="M16.89 16.92h4.08V21h-4.08z"/><path class="st1" d="M19.97 17.92V20h-2.08v-2.08h2.08m2-2h-6.08V22h6.08v-6.08z"/><path class="st3" d="M1.03 16.92h4.08V21H1.03z"/><path class="st1" d="M4.11 17.92V20H2.03v-2.08h2.08m2-2H.03V22h6.08v-6.08z"/><path class="st3" d="M1.03 1h4.08v4.08H1.03z"/><path class="st1" d="M4.11 2v2.08H2.03V2h2.08m2-2H.03v6.08h6.08V0z"/></svg>