<?xml version="1.0" encoding="utf-8"?>
<!-- Generator: Adobe Illustrator 15.1.0, SVG Export Plug-In . SVG Version: 6.00 Build 0)  -->
<!DOCTYPE svg PUBLIC "-//W3C//DTD SVG 1.1//EN" "http://www.w3.org/Graphics/SVG/1.1/DTD/svg11.dtd">
<svg version="1.1" id="Calque_1" xmlns="http://www.w3.org/2000/svg" xmlns:xlink="http://www.w3.org/1999/xlink" x="0px" y="0px"
	 width="872px" height="72px" viewBox="0 0 872 72" enable-background="new 0 0 872 72" xml:space="preserve">
<rect x="-1" y="-1.083" fill="#4D4D4D" width="872" height="72"/>
<rect x="816.367" y="13.071" transform="matrix(-1 -0.0046 0.0046 -1 1635.6002 32.9298)" opacity="0.13" fill="#3D3D3C" stroke="#000000" stroke-width="2" enable-background="new    " width="2.942" height="2.987"/>
<rect x="803.834" y="38.229" transform="matrix(-1 -0.0046 0.0046 -1 1610.4171 83.1886)" opacity="0.13" fill="#3D3D3C" stroke="#000000" stroke-width="2" enable-background="new    " width="2.942" height="2.988"/>
<rect x="796.78" y="22.907" transform="matrix(-1 -0.0046 0.0046 -1 1596.382 52.5069)" opacity="0.13" fill="#3D3D3C" stroke="#000000" stroke-width="2" enable-background="new    " width="2.943" height="2.986"/>
<rect x="858.764" y="32.075" transform="matrix(-1 -0.0046 0.0046 -1 1720.3065 71.1302)" opacity="0.13" fill="#3D3D3C" stroke="#000000" stroke-width="2" enable-background="new    " width="2.944" height="2.986"/>
<rect x="838.305" y="38.363" transform="matrix(-1 -0.0053 0.0053 -1 1679.3325 84.1649)" opacity="0.13" fill="#3D3D3C" stroke="#000000" stroke-width="2" enable-background="new    " width="2.946" height="2.985"/>
<rect x="721.129" y="50.482" transform="matrix(-1 -0.0046 0.0046 -1 1444.9551 107.3027)" opacity="0.13" fill="#3D3D3C" stroke="#000000" stroke-width="2" enable-background="new    " width="2.946" height="2.985"/>
<rect x="758.713" y="36.728" transform="matrix(-1 -0.0046 0.0046 -1 1520.1854 79.9708)" opacity="0.13" fill="#3D3D3C" stroke="#000000" stroke-width="2" enable-background="new    " width="2.944" height="2.986"/>
<rect x="740.958" y="28.745" transform="matrix(-1 -0.0048 0.0048 -1 1484.7094 64.0443)" opacity="0.13" fill="#3D3D3C" stroke="#000000" stroke-width="2" enable-background="new    " width="2.946" height="2.987"/>
<rect x="770.742" y="3.279" transform="matrix(-1 -0.0045 0.0045 -1 1544.3987 13.0042)" opacity="0.13" fill="#3D3D3C" stroke="#000000" stroke-width="2" enable-background="new    " width="2.943" height="2.987"/>
<rect x="687.526" y="14.61" transform="matrix(-1 -0.0045 0.0045 -1 1377.92 35.2903)" opacity="0.13" fill="#3D3D3C" stroke="#000000" stroke-width="2" enable-background="new    " width="2.946" height="2.988"/>
<rect x="619.404" y="41.244" transform="matrix(-1 -0.0043 0.0043 -1 1241.564 88.1495)" opacity="0.13" fill="#3D3D3C" stroke="#000000" stroke-width="2" enable-background="new    " width="2.946" height="2.987"/>
<rect x="606.843" y="6.545" transform="matrix(-1 -0.0048 0.0048 -1 1216.5833 19.0017)" opacity="0.13" fill="#3D3D3C" stroke="#000000" stroke-width="2" enable-background="new    " width="2.943" height="2.986"/>
<rect x="572.763" y="47.526" transform="matrix(-1 -0.0046 0.0046 -1 1148.2338 100.7047)" opacity="0.13" fill="#3D3D3C" stroke="#000000" stroke-width="2" enable-background="new    " width="2.942" height="2.984"/>
<rect x="528.16" y="8.074" transform="matrix(-1 -0.0045 0.0045 -1 1059.2166 21.5068)" opacity="0.13" fill="#3D3D3C" stroke="#000000" stroke-width="2" enable-background="new    " width="2.945" height="2.987"/>
<rect x="545.201" y="16.059" transform="matrix(-1 -0.005 0.005 -1 1093.2516 37.823)" opacity="0.13" fill="#3D3D3C" stroke="#000000" stroke-width="2" enable-background="new    " width="2.944" height="2.986"/>
<rect x="533.706" y="51.271" transform="matrix(-1 -0.0046 0.0046 -1 1070.1057 108.0128)" opacity="0.13" fill="#3D3D3C" stroke="#000000" stroke-width="2" enable-background="new    " width="2.944" height="2.985"/>
<rect x="559.387" y="30.236" transform="matrix(-1 -0.0048 0.0048 -1 1121.5618 66.1541)" opacity="0.13" fill="#3D3D3C" stroke="#000000" stroke-width="2" enable-background="new    " width="2.946" height="2.987"/>
<rect x="504.103" y="49.022" transform="matrix(-1 -0.0046 0.0046 -1 1010.9115 103.3786)" opacity="0.13" fill="#3D3D3C" stroke="#000000" stroke-width="2" enable-background="new    " width="2.946" height="2.988"/>
<rect x="651.446" y="6.546" transform="matrix(-1 -0.0048 0.0048 -1 1305.7908 19.2181)" opacity="0.13" fill="#3D3D3C" stroke="#000000" stroke-width="2" enable-background="new    " width="2.944" height="2.986"/>
<rect x="701.714" y="60.201" transform="matrix(-1 -0.0046 0.0046 -1 1406.0802 126.65)" opacity="0.13" fill="#3D3D3C" stroke="#000000" stroke-width="2" enable-background="new    " width="2.946" height="2.985"/>
<polyline opacity="0.13" fill="none" stroke="#000000" stroke-width="2" enable-background="new    " points="500.05,19.025 
	547.627,43.741 598.077,39.676 619.396,14.524 668.529,21.043 688.074,-0.793 "/>
<polyline opacity="0.13" fill="none" stroke="#000000" stroke-width="2" enable-background="new    " points="619.396,70.243 
	651.43,38.342 740.378,41.271 759.654,54.8 798.243,-0.793 "/>
<polyline opacity="0.13" fill="none" stroke="#000000" stroke-width="2" enable-background="new    " points="871,63.157 
	831.967,16.831 816.854,57.238 777.696,54.8 766.661,70.243 "/>
<polygon fill="#5B5B5B" points="572.545,-1.083 536.649,70.665 -0.676,70.917 -0.655,-1.083 "/>
<path opacity="0.13" fill="none" stroke="#000000" stroke-width="0.75" enable-background="new    " d="M728.695,0.611"/>
<rect x="656.225" y="50.51" transform="matrix(-1 -0.0053 0.0053 -1 1315.1094 107.4922)" opacity="0.13" fill="#3D3D3C" stroke="#000000" stroke-width="2" enable-background="new    " width="2.945" height="2.984"/>
<rect x="707.355" y="8.048" transform="matrix(-1 -0.0046 0.0046 -1 1417.6033 22.3747)" opacity="0.13" fill="#3D3D3C" stroke="#000000" stroke-width="2" enable-background="new    " width="2.944" height="2.987"/>
</svg>
