<svg xmlns="http://www.w3.org/2000/svg" width="872" height="144" viewBox="0 0 872 144"><style type="text/css"><![CDATA[
	.st0{opacity:0.13;fill:none;stroke:#010202;stroke-width:2;enable-background:new    ;}
	.st1{fill:#E3F1F6;}
	.st2{fill:#4E4E4E;}
	.st3{opacity:0.13;fill:none;stroke:#010202;stroke-width:0.75;enable-background:new    ;}
	.st4{fill:#5C5C5C;}
	.st5{opacity:0.13;fill:#3D3D3C;stroke:#010202;stroke-width:2;enable-background:new    ;}
	.st6{fill:#CCE2EC;}
]]></style><path class="st6" d="M0-.1h872v72h-872z"/><path class="st5" d="M820.293 17.144l-2.9-.013.013-3 2.9.014zm-12.601 25.173l-2.9-.014.014-3 2.9.014zm-7-15.399l-2.9-.013.014-3 2.9.013zm61.9 9.2l-2.9-.013.014-3 2.9.013zm-20.3 6.297l-3-.016.015-3 3 .015zm-117.196 12.061l-3-.013.014-3 3 .013zm37.494-13.66l-2.9-.013.016-3 2.9.013zm-17.697-8.021l-3-.015.015-3 3 .015zm29.701-25.507l-2.9-.013.013-3 2.9.013zm-83.101 11.332l-3-.013.014-3 3 .014zm-68.101 26.706l-3-.012.013-3 3 .012zm-12.7-34.729l-2.9-.014.016-3 2.9.014zm-34.097 40.897l-2.9-.013.014-3 2.9.014zm-13.202-17.296l-3-.015.015-3 3 .015zm91.899-23.603l-2.9-.014.015-3 2.9.015zm50.404 53.582l-3-.014.014-3 3 .014z"/><path class="st0" d="M548.6 44.7l50.5-4 21.3-25.2 49.1 6.5 19.6-21.8m-68.7 71l32-31.9 89 3 19.3 13.5 38.5-55.6m72.8 64l-39-46.4-15.1 40.4-39.2-2.4-11 15.4"/><path class="st1" d="M572.5-.1l-36.7 71.8-534.8.2v-72z"/><path class="st3" d="M729.7 1.6"/><path class="st5" d="M660.092 54.5l-2.9-.016.018-3 2.9.016zm51.101-42.362l-2.9-.013.014-3 2.9.013z"/><path class="st2" d="M0 71.4h872v72h-872z"/><path class="st5" d="M820.29 88.617l-2.9-.013.016-3 2.9.013zm-12.6 25.199l-2.9-.013.015-3 2.9.013zm-6.995-15.428l-2.9-.013.015-3 2.9.013zm61.997 9.23l-2.9-.014.014-3 2.9.014zm-20.402 6.296l-3-.016.016-3 3 .016zm-117.19 12.062l-3-.014.013-3 3 .014zm37.49-13.66l-2.9-.014.015-3 2.9.014zm-17.696-8.022l-3-.015.015-3 3 .014zm29.696-25.478l-2.9-.013.015-3 2.9.013zm-83.094 11.261l-3-.014.014-3 3 .014zm-68.106 26.749l-3-.013.013-3 3 .013zm-12.695-34.749l-2.9-.014.016-3 2.9.014zm-34.098 40.916l-2.9-.013.013-3 2.9.013zm-13.203-17.296l-3-.015.015-3 3 .015zm91.896-23.582l-2.898-.013.014-3 2.9.013zm50.41 53.561l-3-.014.013-3 3 .014z"/><path class="st0" d="M548.6 116.2l50.5-4 21.3-25.2 49.1 6.5 19.6-21.8m-68.7 71l32-31.9 89 3 19.3 13.5 38.5-55.6m72.8 64l-39-46.4-15.2 40.4-39.1-2.4-11 15.4"/><path class="st4" d="M573.5 71.4l-35.8 71.8-537.4.2.1-72z"/><path class="st3" d="M728.2 73.1"/><path class="st5" d="M660.187 126.03l-3-.017.016-3 3 .017zm51.008-42.44l-2.9-.013.013-3 2.9.012z"/></svg>