<?xml version="1.0" encoding="utf-8"?>
<!DOCTYPE svg PUBLIC "-//W3C//DTD SVG 1.1//EN" "http://www.w3.org/Graphics/SVG/1.1/DTD/svg11.dtd">
<svg version="1.1" id="Calque_1" xmlns="http://www.w3.org/2000/svg" xmlns:xlink="http://www.w3.org/1999/xlink" x="0px" y="0px"
	 width="872px" height="72px" viewBox="0 0 872 72" style="enable-background:new 0 0 872 72;" xml:space="preserve">
<style type="text/css"><![CDATA[
	.st3{opacity:0.13;fill:none;stroke:#000000;stroke-width:2;enable-background:new    ;}
	.st4{opacity:0.13;fill:#3D3D3C;stroke:#000000;stroke-width:2;enable-background:new    ;}
]]></style>
<rect x="-1" y="-1.08" fill="#4D4D4D" width="872" height="72"/>
<rect x="816.37" y="13.11" transform="matrix(-1 -4.651204e-03 4.651204e-03 -1 1635.601 33.0142)" class="st4" width="2.94" height="2.99"/>
<rect x="803.83" y="38.27" transform="matrix(-1 -4.651204e-03 4.651204e-03 -1 1610.4041 83.2764)" class="st4" width="2.94" height="2.99"/>
<rect x="796.78" y="22.94" transform="matrix(-1 -4.485028e-03 4.485028e-03 -1 1596.3784 52.4505)" class="st4" width="2.94" height="2.99"/>
<rect x="858.76" y="32.11" transform="matrix(-1 -4.651204e-03 4.651204e-03 -1 1720.2935 71.2117)" class="st4" width="2.94" height="2.99"/>
<rect x="838.3" y="38.37" transform="matrix(-1 -5.296118e-03 5.296118e-03 -1 1679.3308 84.1784)" class="st4" width="2.95" height="2.99"/>
<rect x="721.13" y="50.51" transform="matrix(-1 -4.634276e-03 4.634276e-03 -1 1444.9573 107.3599)" class="st4" width="2.95" height="2.99"/>
<rect x="758.71" y="36.76" transform="matrix(-1 -4.649535e-03 4.649535e-03 -1 1520.1704 80.0458)" class="st4" width="2.94" height="2.99"/>
<rect x="740.96" y="28.75" transform="matrix(-1 -4.799737e-03 4.799737e-03 -1 1484.7135 64.0539)" class="st4" width="2.95" height="2.99"/>
<rect x="770.75" y="3.26" transform="matrix(-1 -4.485028e-03 4.485028e-03 -1 1544.4065 12.9736)" class="st4" width="2.94" height="2.99"/>
<rect x="687.53" y="14.59" transform="matrix(-1 -4.468577e-03 4.468577e-03 -1 1377.925 35.2491)" class="st4" width="2.95" height="2.99"/>
<rect x="619.41" y="41.25" transform="matrix(-1 -4.303116e-03 4.303116e-03 -1 1241.572 88.1625)" class="st4" width="2.95" height="2.99"/>
<rect x="606.85" y="6.55" transform="matrix(-1 -4.817141e-03 4.817141e-03 -1 1216.5889 19.0206)" class="st4" width="2.94" height="2.99"/>
<rect x="572.76" y="47.55" transform="matrix(-1 -4.649535e-03 4.649535e-03 -1 1148.218 100.7494)" class="st4" width="2.94" height="2.98"/>
<rect x="559.39" y="30.24" transform="matrix(-1 -4.799737e-03 4.799737e-03 -1 1121.5638 66.1623)" class="st4" width="2.95" height="2.99"/>
<rect x="651.45" y="6.55" transform="matrix(-1 -4.651204e-03 4.651204e-03 -1 1305.7896 19.1271)" class="st4" width="2.94" height="2.99"/>
<rect x="701.71" y="60.23" transform="matrix(-1 -4.635707e-03 4.635707e-03 -1 1406.0715 126.6995)" class="st4" width="2.95" height="2.98"/>
<polyline class="st3" points="547.63,43.74 598.08,39.68 619.4,14.52 668.53,21.04 688.07,-0.79 "/>
<polyline class="st3" points="619.4,70.24 651.43,38.34 740.38,41.27 759.65,54.8 798.24,-0.79 "/>
<polyline class="st3" points="871,63.16 831.97,16.83 816.85,57.24 777.7,54.8 766.66,70.24 "/>
<polygon fill="#5B5B5B" points="572.54,-1.08 536.65,70.67 -0.68,70.92 -0.65,-1.08 "/>
<path opacity="0.13" fill="none" stroke="#000000" stroke-width="0.75" enable-background="new" d="M728.7,0.61"/>
<rect x="656.22" y="50.51" transform="matrix(-1 -5.296118e-03 5.296118e-03 -1 1315.104 107.4835)" class="st4" width="2.95" height="2.98"/>
<rect x="707.36" y="8.08" transform="matrix(-1 -4.483597e-03 4.483597e-03 -1 1417.6033 22.3284)" class="st4" width="2.94" height="2.99"/>
</svg>
