<?xml version="1.0" encoding="utf-8"?>
<!-- Generator: Adobe Illustrator 15.1.0, SVG Export Plug-In . SVG Version: 6.00 Build 0)  -->
<!DOCTYPE svg PUBLIC "-//W3C//DTD SVG 1.1//EN" "http://www.w3.org/Graphics/SVG/1.1/DTD/svg11.dtd">
<svg version="1.1" id="Calque_1" xmlns="http://www.w3.org/2000/svg" xmlns:xlink="http://www.w3.org/1999/xlink" x="0px" y="0px"
	 width="22px" height="22px" viewBox="0 0 22 22" enable-background="new 0 0 22 22" xml:space="preserve">
<g>
	<rect x="1" y="16.922" fill="#B2AFAC" stroke="#D6D6D4" stroke-miterlimit="10" width="4.081" height="4.08"/>
	<path fill="#FFFFFF" d="M4.081,17.922v2.08H2v-2.08H4.081 M6.081,15.922H0v6.08h6.081V15.922L6.081,15.922z"/>
</g>
<g>
	<rect x="1" y="4.131" fill="#B2AFAC" stroke="#D6D6D4" stroke-miterlimit="10" width="4.081" height="4.081"/>
	<path fill="#FFFFFF" d="M4.081,5.131v2.081H2V5.131H4.081 M6.081,3.131H0v6.081h6.081V3.131L6.081,3.131z"/>
</g>
<g>
	<rect x="15.834" y="0.998" fill="#B2AFAC" stroke="#D6D6D4" stroke-miterlimit="10" width="4.08" height="4.081"/>
	<path fill="#FFFFFF" d="M18.914,1.998v2.081h-2.08V1.998H18.914 M20.914-0.002h-6.08v6.081h6.08V-0.002L20.914-0.002z"/>
</g>
<g>
	<rect x="10.365" y="9.808" fill="#B2AFAC" stroke="#D6D6D4" stroke-miterlimit="10" width="4.08" height="4.081"/>
	<path fill="#FFFFFF" d="M13.445,10.808v2.081h-2.08v-2.081H13.445 M15.445,8.808h-6.08v6.081h6.08V8.808L15.445,8.808z"/>
</g>
<g>
	<rect x="16.92" y="16.047" fill="#B2AFAC" stroke="#D6D6D4" stroke-miterlimit="10" width="4.08" height="4.082"/>
	<path fill="#FFFFFF" d="M20,17.047v2.082h-2.08v-2.082H20 M22,15.047h-6.08v6.082H22V15.047L22,15.047z"/>
</g>
</svg>
