<svg xmlns="http://www.w3.org/2000/svg" width="22" height="22" viewBox="0 0 22 22"><style type="text/css"><![CDATA[
	.st1{fill:#B2AFAC;}	.st2{fill:#93908D;}
]]></style><path fill="#B2AFAC" stroke="#D6D6D4" stroke-miterlimit="10" d="M3.3 2.59h15.93v15.93H3.3z"/><path fill="none" stroke="#93908D" stroke-width="2" d="M3.3 2.59h15.93v15.93H3.3z"/><path class="st1" d="M17.12.55h4.08v4.08h-4.08z"/><path class="st2" d="M20.2 1.55v2.08h-2.08V1.55h2.08m2-2h-6.08v6.08h6.08V-.45z"/><path class="st1" d="M17.12 16.47h4.08v4.08h-4.08z"/><path class="st2" d="M20.2 17.47v2.08h-2.08v-2.08h2.08m2-2h-6.08v6.08h6.08v-6.08z"/><path class="st1" d="M1.26 16.47h4.08v4.08H1.26z"/><path class="st2" d="M4.34 17.47v2.08H2.26v-2.08h2.08m2-2H.26v6.08h6.08v-6.08z"/><path class="st1" d="M1.26.55h4.08v4.08H1.26z"/><path class="st2" d="M4.34 1.55v2.08H2.26V1.55h2.08m2-2H.26v6.08h6.08V-.45z"/></svg>