<?xml version="1.0" encoding="utf-8"?>
<!DOCTYPE svg PUBLIC "-//W3C//DTD SVG 1.1//EN" "http://www.w3.org/Graphics/SVG/1.1/DTD/svg11.dtd">
<svg version="1.1" id="Calque_1" xmlns="http://www.w3.org/2000/svg" xmlns:xlink="http://www.w3.org/1999/xlink" x="0px" y="0px"
	 width="872px" height="72px" viewBox="0 0 872 72" style="enable-background:new 0 0 872 72;" xml:space="preserve">
<style type="text/css"><![CDATA[
	.st0{fill:#E3F1F6;} .st1{opacity:0.13;fill:none;stroke:#000000;stroke-width:0.75;enable-background:new;}
	.st2{opacity:0.13;fill:none;stroke:#000000;stroke-width:2;enable-background:new;} .st3{fill:#CCE2EC;}
	.st4{opacity:0.13;fill:#3D3D3C;stroke:#000000;stroke-width:2;enable-background:new;}
]]></style>
<rect x="-1" y="-0.6" class="st3" width="872" height="72"/>
<rect x="816.4" y="13.6" transform="matrix(1 4.649568e-03 -4.649568e-03 1 7.910156e-02 -3.8024)" class="st4" width="2.9" height="3"/>
<rect x="803.8" y="38.8" transform="matrix(1 4.649568e-03 -4.649568e-03 1 0.1959 -3.7439)" class="st4" width="2.9" height="3"/>
<rect x="796.8" y="23.4" transform="matrix(1 4.651112e-03 -4.651112e-03 1 0.1246 -3.7124)" class="st4" width="2.9" height="3"/>
<rect x="858.7" y="32.6" transform="matrix(1 4.649568e-03 -4.649568e-03 1 0.1678 -3.9993)" class="st4" width="2.9" height="3"/>
<rect x="838.3" y="38.9" transform="matrix(1 5.296185e-03 -5.296185e-03 1 0.2256 -4.447)" class="st4" width="3" height="3"/>
<rect x="721.1" y="51" transform="matrix(1 4.634177e-03 -4.634177e-03 1 0.2511 -3.3481)" class="st4" width="3" height="3"/>
<rect x="758.7" y="37.3" transform="matrix(1 4.651112e-03 -4.651112e-03 1 0.1884 -3.5353)" class="st4" width="2.9" height="3"/>
<rect x="740.9" y="29.3" transform="matrix(1 4.799680e-03 -4.799680e-03 1 0.1561 -3.563)" class="st4" width="3" height="3"/>
<rect x="770.7" y="3.8" transform="matrix(1 4.485005e-03 -4.485005e-03 1 3.131104e-02 -3.4633)" class="st4" width="2.9" height="3"/>
<rect x="687.5" y="15.1" transform="matrix(1 4.634177e-03 -4.634177e-03 1 8.422852e-02 -3.1927)" class="st4" width="3" height="3"/>
<rect x="619.4" y="41.8" transform="matrix(1 4.303171e-03 -4.303171e-03 1 0.1918 -2.6713)" class="st4" width="3" height="3"/>
<rect x="606.8" y="7.1" transform="matrix(1 4.815620e-03 -4.815620e-03 1 4.821777e-02 -2.9293)" class="st4" width="2.9" height="3"/>
<rect x="572.7" y="48" transform="matrix(1 4.651112e-03 -4.651112e-03 1 0.2366 -2.6702)" class="st4" width="2.9" height="3"/>
<rect x="559.4" y="30.7" transform="matrix(1 4.799680e-03 -4.799680e-03 1 0.1612 -2.6915)" class="st4" width="3" height="3"/>
<rect x="651.4" y="7.1" transform="matrix(1 4.815620e-03 -4.815620e-03 1 4.870605e-02 -3.1441)" class="st4" width="2.9" height="3"/>
<rect x="701.7" y="60.7" transform="matrix(1 4.634177e-03 -4.634177e-03 1 0.2959 -3.258)" class="st4" width="3" height="3"/>
<polyline class="st2" points="547.6,44.2 598.1,40.2 619.4,15 668.5,21.5 688.1,-0.3 "/>
<polyline class="st2" points="619.4,70.7 651.4,38.8 740.4,41.8 759.7,55.3 798.2,-0.3 "/>
<polyline class="st2" points="871,63.7 832,17.3 816.9,57.7 777.7,55.3 766.7,70.7 "/>
<polygon class="st0" points="571.5,-0.6 534.8,71.2 0,71.4 0,-0.6 "/>
<path class="st1" d="M728.7,1.1"/>
<rect x="656.2" y="51" transform="matrix(1 5.313774e-03 -5.313774e-03 1 0.2883 -3.4941)" class="st4" width="2.9" height="3"/>
<rect x="707.3" y="8.6" transform="matrix(1 4.649568e-03 -4.649568e-03 1 5.450439e-02 -3.2956)" class="st4" width="2.9" height="3"/>
</svg>
