<?xml version="1.0" encoding="utf-8"?>
<!-- Generator: Adobe Illustrator 15.1.0, SVG Export Plug-In . SVG Version: 6.00 Build 0)  -->
<!DOCTYPE svg PUBLIC "-//W3C//DTD SVG 1.1//EN" "http://www.w3.org/Graphics/SVG/1.1/DTD/svg11.dtd">
<svg version="1.1" id="Calque_1" xmlns="http://www.w3.org/2000/svg" xmlns:xlink="http://www.w3.org/1999/xlink" x="0px" y="0px"
	 width="45px" height="45px" viewBox="0 0 45 45" style="enable-background:new 0 0 45 45;" xml:space="preserve">
<style type="text/css">
<![CDATA[
	.st0{fill:#FFFFFF;stroke:#2A3180;stroke-miterlimit:10;}
	.st1{fill:#E6E6E6;}
	.st2{enable-background:new    ;}
	.st3{fill:none;stroke:#FFFFFF;stroke-miterlimit:10;}
	.st4{fill:#2A3180;}
	.st5{fill:#FFFFFF;stroke:#D6D6D5;stroke-miterlimit:10;}
	.st6{fill:#C6E1C6;}
	.st7{opacity:0.53;fill:#F5F5F5;enable-background:new    ;}
	.st8{opacity:0.5;}
	.st9{fill:#FFFFFF;}
	.st10{fill:none;stroke:#A9D2E6;stroke-width:3;stroke-miterlimit:10;}
	.st11{fill:#A9D2E6;}
]]>
</style>
<path class="st1" d="M45,41c0,2.2-1.8,4-4,4H4c-2.2,0-4-1.8-4-4V4c0-2.2,1.8-4,4-4h37c2.2,0,4,1.8,4,4V41z"/>
<g class="st8">
	<line class="st3" x1="1.1" y1="1.3" x2="28.9" y2="7"/>
	<line class="st3" x1="25.7" y1="14.6" x2="45" y2="17.9"/>
	<line class="st3" x1="0" y1="15.6" x2="22" y2="23.8"/>
</g>
<path class="st6" d="M20.5,21.2l5.2-13l-24.2-5L1.4,14.1L20.5,21.2z"/>
<polygon class="st7" points="38.7,42.2 21,37.1 24.2,28.8 43.7,27.3 "/>
<path class="st10" d="M14.9,45"/>
<polyline class="st9" points="41.9,44.9 0,32.1 0,34.2 36.2,45 "/>
<polyline class="st11" points="16.6,45 33.9,0 30.5,0 13.3,45.1 "/>
<polyline class="st11" points="41.5,45 45,33.2 45,27.7 39.3,45.1 "/>
<polyline class="st9" points="45,21.7 0,25.8 0,29.7 45,25.2 "/>
<line class="st5" x1="45" y1="21.6" x2="0" y2="25.7"/>
<line class="st5" x1="0" y1="29.6" x2="45" y2="25.1"/>
<g>
	<ellipse class="st0" cx="22.1" cy="25.7" rx="4.8" ry="3.5"/>
	<g class="st2">
		<path class="st4" d="M23.9,25.7c0-0.5-0.1-1.2-0.1-1.7l0,0c-0.2,0.5-0.4,0.9-0.7,1.5l-0.9,1.9h-0.5l-0.9-1.9
			c-0.3-0.6-0.5-1.1-0.6-1.5l0,0c0,0.5-0.1,1.1-0.1,1.7L20,27.4h-0.7l0.4-3.9h0.9l0.9,1.9c0.2,0.5,0.4,0.9,0.5,1.3l0,0
			c0.1-0.4,0.3-0.8,0.6-1.3l0.9-1.9h0.9l0.3,3.9H24L23.9,25.7z"/>
	</g>
</g>
</svg>
