<?xml version="1.0" encoding="utf-8"?>
<!-- Generator: Adobe Illustrator 15.1.0, SVG Export Plug-In . SVG Version: 6.00 Build 0)  -->
<!DOCTYPE svg PUBLIC "-//W3C//DTD SVG 1.1//EN" "http://www.w3.org/Graphics/SVG/1.1/DTD/svg11.dtd">
<svg version="1.1" id="Calque_1" xmlns="http://www.w3.org/2000/svg" xmlns:xlink="http://www.w3.org/1999/xlink" x="0px" y="0px"
	 width="45px" height="45px" viewBox="0 0 45 45" style="enable-background:new 0 0 45 45;" xml:space="preserve">
<style type="text/css">
<![CDATA[
	.st0{fill:#E6E6E6;}
	.st1{fill:none;stroke:#878787;stroke-width:2;}
	.st2{fill:#B2B2B2;}
	.st3{fill:#9C9B9B;}
	.st4{opacity:0.68;fill:#3D3D3B;stroke:#3D3D3B;stroke-width:2;enable-background:new    ;}
]]>
</style>
<g>
	<g>
		<path class="st0" d="M3,43.5c-0.8,0-1.5-0.7-1.5-1.5V3c0-0.8,0.7-1.5,1.5-1.5h39c0.8,0,1.5,0.7,1.5,1.5v39c0,0.8-0.7,1.5-1.5,1.5
			H3z"/>
		<path class="st2" d="M42,3v39H3V3H42 M42,0H3C1.3,0,0,1.3,0,3v39c0,1.7,1.3,3,3,3h39c1.7,0,3-1.3,3-3V3C45,1.3,43.7,0,42,0L42,0z"
			/>
	</g>
	<rect x="3" y="3" class="st3" width="6.5" height="6.5"/>
	<rect x="9.5" y="9.5" class="st3" width="6.5" height="6.5"/>
	<rect x="3" y="16" class="st3" width="6.5" height="6.5"/>
	<rect x="16" y="3" class="st3" width="6.5" height="6.5"/>
	<rect x="16" y="16" class="st3" width="6.5" height="6.5"/>
	<rect x="9.5" y="22.5" class="st3" width="6.5" height="6.5"/>
	<rect x="22.5" y="9.5" class="st3" width="6.5" height="6.5"/>
	<rect x="29" y="3" class="st3" width="6.5" height="6.5"/>
	<rect x="3" y="29" class="st3" width="6.5" height="6.5"/>
	<rect x="9.5" y="35.6" class="st3" width="6.5" height="6.5"/>
	<rect x="16" y="29" class="st3" width="6.5" height="6.5"/>
	<polygon class="st0" points="10.1,42 42.5,42 42.5,3 34.9,3 	"/>
	<polygon class="st4" points="36.4,37.3 34.7,37.3 34.7,35.6 36.4,35.6 	"/>
	<polygon class="st4" points="27,24.9 25.3,24.9 25.3,23.2 27,23.2 	"/>
	<polygon class="st4" points="39.6,30.7 37.9,30.7 37.9,29 39.6,29 	"/>
	<polygon class="st4" points="36.4,10.3 34.7,10.3 34.7,8.6 36.4,8.6 	"/>
	<polyline class="st1" points="17.3,30.1 25.8,37.3 36.2,15.5 42,19.3 	"/>
</g>
</svg>
